<?xml version="1.0" encoding="utf-8"?>
<svg version="1.1" xmlns:xlink="http://www.w3.org/1999/xlink" width="105px" height="81px" xmlns="http://www.w3.org/2000/svg">
  <defs>
    <mask fill="white" id="clip17">
      <path d="M 102.223460903972 66.620863825281  C 102.223460903972 66.620863825281  103.430414130124 74.4068922397697  103.430414130124 74.4068922397697  C 103.430414130124 74.4068922397697  101.082433694374 80.0657351838255  101.082433694374 80.0657351838255  C 101.082433694374 80.0657351838255  96.0124892360656 78.5810957802519  96.0124892360656 78.5810957802519  C 96.0124892360656 78.5810957802519  94.3668744382237 72.219069323341  94.3668744382237 72.219069323341  C 94.3668744382237 72.219069323341  95.8020331062953 69.4669116937916  95.8020331062953 69.4669116937916  C 95.8020331062953 69.4669116937916  102.223460903972 66.620863825281  102.223460903972 66.620863825281  Z M 57.6625449451524 4.29534957486535  C 57.6625449451524 4.29534957486535  60.9715238529854 7.75168399662348  60.9715238529854 7.75168399662348  C 60.9715238529854 7.75168399662348  65.9337244067245 11.775271945439  65.9337244067245 11.775271945439  C 65.9337244067245 11.775271945439  69.5824758614157 11.1141281794206  69.5824758614157 11.1141281794206  C 69.5824758614157 11.1141281794206  75.8023419617333 14.973408210054  75.8023419617333 14.973408210054  C 75.8023419617333 14.973408210054  77.392173207106 15.7049696552932  77.392173207106 15.7049696552932  C 77.392173207106 15.7049696552932  79.4434865683603 15.526969410596  79.4434865683603 15.526969410596  C 79.4434865683603 15.526969410596  82.7981065645774 17.7236097929584  82.7981065645774 17.7236097929584  C 82.7981065645774 17.7236097929584  93.0419952907428 19.2630185025927  93.0419952907428 19.2630185025927  C 93.0419952907428 19.2630185025927  89.449027388521 24.9335977265187  89.449027388521 24.9335977265187  C 89.449027388521 24.9335977265187  88.5463480849283 30.7528364954667  88.5463480849283 30.7528364954667  C 88.5463480849283 30.7528364954667  86.5939237485056 32.135761473499  86.5939237485056 32.135761473499  C 86.5939237485056 32.135761473499  83.3534064732483 31.3905077017447  83.3534064732483 31.3905077017447  C 83.3534064732483 31.3905077017447  83.5816119151678 33.4443566790204  83.5816119151678 33.4443566790204  C 83.5816119151678 33.4443566790204  78.381063455424 39.3701847340908  78.381063455424 39.3701847340908  C 78.381063455424 39.3701847340908  78.2771031985495 42.9653984676458  78.2771031985495 42.9653984676458  C 78.2771031985495 42.9653984676458  81.6722930511078 41.7252648947003  81.6722930511078 41.7252648947003  C 81.6722930511078 41.7252648947003  84.1140912796469 45.1894235030387  84.1140912796469 45.1894235030387  C 84.1140912796469 45.1894235030387  83.8199598211729 47.4075803984965  83.8199598211729 47.4075803984965  C 83.8199598211729 47.4075803984965  85.9118430387684 50.3377382727432  85.9118430387684 50.3377382727432  C 85.9118430387684 50.3377382727432  83.4472242660376 52.7006426199329  83.4472242660376 52.7006426199329  C 83.4472242660376 52.7006426199329  85.2804746494578 58.6450683741623  85.2804746494578 58.6450683741623  C 85.2804746494578 58.6450683741623  89.1346110018764 59.6113554168045  89.1346110018764 59.6113554168045  C 89.1346110018764 59.6113554168045  88.32067825903 62.9053379670258  88.32067825903 62.9053379670258  C 88.32067825903 62.9053379670258  81.8802135648566 67.155827326664  81.8802135648566 67.155827326664  C 81.8802135648566 67.155827326664  67.8582569669127 65.1234948624837  67.8582569669127 65.1234948624837  C 67.8582569669127 65.1234948624837  57.5053367518302 67.5568168888941  57.5053367518302 67.5568168888941  C 57.5053367518302 67.5568168888941  56.6914040089837 72.0400757992903  56.6914040089837 72.0400757992903  C 56.6914040089837 72.0400757992903  48.4506519396675 72.9985386553523  48.4506519396675 72.9985386553523  C 48.4506519396675 72.9985386553523  38.6086781292197 69.6419626124903  38.6086781292197 69.6419626124903  C 38.6086781292197 69.6419626124903  36.0223497874652 71.2478769080554  36.0223497874652 71.2478769080554  C 36.0223497874652 71.2478769080554  22.9360355013911 67.863916212163  22.9360355013911 67.863916212163  C 22.9360355013911 67.863916212163  20.1012167895463 64.9474506644315  20.1012167895463 64.9474506644315  C 20.1012167895463 64.9474506644315  23.7778600204719 60.4113784946196  23.7778600204719 60.4113784946196  C 23.7778600204719 60.4113784946196  25.131878975861 45.0035990717615  25.131878975861 45.0035990717615  C 25.131878975861 45.0035990717615  17.7938062101377 35.2419635457982  17.7938062101377 35.2419635457982  C 17.7938062101377 35.2419635457982  12.5501522780313 31.161650244277  12.5501522780313 31.161650244277  C 12.5501522780313 31.161650244277  1.68503762664054 28.0339316588828  1.68503762664054 28.0339316588828  C 1.68503762664054 28.0339316588828  0.967458292604629 22.0366926452378  0.967458292604629 22.0366926452378  C 0.967458292604629 22.0366926452378  10.1869581461535 20.2312615918802  10.1869581461535 20.2312615918802  C 10.1869581461535 20.2312615918802  22.124638374566 22.3653084816019  22.124638374566 22.3653084816019  C 22.124638374566 22.3653084816019  19.8704757316054 12.8882624864581  19.8704757316054 12.8882624864581  C 19.8704757316054 12.8882624864581  26.5822513400607 16.5049927331085  26.5822513400607 16.5049927331085  C 26.5822513400607 16.5049927331085  43.1347527272904 9.90529135279574  43.1347527272904 9.90529135279574  C 43.1347527272904 9.90529135279574  45.2697414172485 2.85374319748231  45.2697414172485 2.85374319748231  C 45.2697414172485 2.85374319748231  53.3291771647029 1.09721331025023  53.3291771647029 1.09721331025023  C 53.3291771647029 1.09721331025023  54.358637269362 4.15255816977858  54.358637269362 4.15255816977858  C 54.358637269362 4.15255816977858  57.6625449451524 4.29534957486535  57.6625449451524 4.29534957486535  Z " fill-rule="evenodd" />
    </mask>
  </defs>
  <g transform="matrix(1 0 0 1 -1807 -4010 )">
    <path d="M 102.223460903972 66.620863825281  C 102.223460903972 66.620863825281  103.430414130124 74.4068922397697  103.430414130124 74.4068922397697  C 103.430414130124 74.4068922397697  101.082433694374 80.0657351838255  101.082433694374 80.0657351838255  C 101.082433694374 80.0657351838255  96.0124892360656 78.5810957802519  96.0124892360656 78.5810957802519  C 96.0124892360656 78.5810957802519  94.3668744382237 72.219069323341  94.3668744382237 72.219069323341  C 94.3668744382237 72.219069323341  95.8020331062953 69.4669116937916  95.8020331062953 69.4669116937916  C 95.8020331062953 69.4669116937916  102.223460903972 66.620863825281  102.223460903972 66.620863825281  Z M 57.6625449451524 4.29534957486535  C 57.6625449451524 4.29534957486535  60.9715238529854 7.75168399662348  60.9715238529854 7.75168399662348  C 60.9715238529854 7.75168399662348  65.9337244067245 11.775271945439  65.9337244067245 11.775271945439  C 65.9337244067245 11.775271945439  69.5824758614157 11.1141281794206  69.5824758614157 11.1141281794206  C 69.5824758614157 11.1141281794206  75.8023419617333 14.973408210054  75.8023419617333 14.973408210054  C 75.8023419617333 14.973408210054  77.392173207106 15.7049696552932  77.392173207106 15.7049696552932  C 77.392173207106 15.7049696552932  79.4434865683603 15.526969410596  79.4434865683603 15.526969410596  C 79.4434865683603 15.526969410596  82.7981065645774 17.7236097929584  82.7981065645774 17.7236097929584  C 82.7981065645774 17.7236097929584  93.0419952907428 19.2630185025927  93.0419952907428 19.2630185025927  C 93.0419952907428 19.2630185025927  89.449027388521 24.9335977265187  89.449027388521 24.9335977265187  C 89.449027388521 24.9335977265187  88.5463480849283 30.7528364954667  88.5463480849283 30.7528364954667  C 88.5463480849283 30.7528364954667  86.5939237485056 32.135761473499  86.5939237485056 32.135761473499  C 86.5939237485056 32.135761473499  83.3534064732483 31.3905077017447  83.3534064732483 31.3905077017447  C 83.3534064732483 31.3905077017447  83.5816119151678 33.4443566790204  83.5816119151678 33.4443566790204  C 83.5816119151678 33.4443566790204  78.381063455424 39.3701847340908  78.381063455424 39.3701847340908  C 78.381063455424 39.3701847340908  78.2771031985495 42.9653984676458  78.2771031985495 42.9653984676458  C 78.2771031985495 42.9653984676458  81.6722930511078 41.7252648947003  81.6722930511078 41.7252648947003  C 81.6722930511078 41.7252648947003  84.1140912796469 45.1894235030387  84.1140912796469 45.1894235030387  C 84.1140912796469 45.1894235030387  83.8199598211729 47.4075803984965  83.8199598211729 47.4075803984965  C 83.8199598211729 47.4075803984965  85.9118430387684 50.3377382727432  85.9118430387684 50.3377382727432  C 85.9118430387684 50.3377382727432  83.4472242660376 52.7006426199329  83.4472242660376 52.7006426199329  C 83.4472242660376 52.7006426199329  85.2804746494578 58.6450683741623  85.2804746494578 58.6450683741623  C 85.2804746494578 58.6450683741623  89.1346110018764 59.6113554168045  89.1346110018764 59.6113554168045  C 89.1346110018764 59.6113554168045  88.32067825903 62.9053379670258  88.32067825903 62.9053379670258  C 88.32067825903 62.9053379670258  81.8802135648566 67.155827326664  81.8802135648566 67.155827326664  C 81.8802135648566 67.155827326664  67.8582569669127 65.1234948624837  67.8582569669127 65.1234948624837  C 67.8582569669127 65.1234948624837  57.5053367518302 67.5568168888941  57.5053367518302 67.5568168888941  C 57.5053367518302 67.5568168888941  56.6914040089837 72.0400757992903  56.6914040089837 72.0400757992903  C 56.6914040089837 72.0400757992903  48.4506519396675 72.9985386553523  48.4506519396675 72.9985386553523  C 48.4506519396675 72.9985386553523  38.6086781292197 69.6419626124903  38.6086781292197 69.6419626124903  C 38.6086781292197 69.6419626124903  36.0223497874652 71.2478769080554  36.0223497874652 71.2478769080554  C 36.0223497874652 71.2478769080554  22.9360355013911 67.863916212163  22.9360355013911 67.863916212163  C 22.9360355013911 67.863916212163  20.1012167895463 64.9474506644315  20.1012167895463 64.9474506644315  C 20.1012167895463 64.9474506644315  23.7778600204719 60.4113784946196  23.7778600204719 60.4113784946196  C 23.7778600204719 60.4113784946196  25.131878975861 45.0035990717615  25.131878975861 45.0035990717615  C 25.131878975861 45.0035990717615  17.7938062101377 35.2419635457982  17.7938062101377 35.2419635457982  C 17.7938062101377 35.2419635457982  12.5501522780313 31.161650244277  12.5501522780313 31.161650244277  C 12.5501522780313 31.161650244277  1.68503762664054 28.0339316588828  1.68503762664054 28.0339316588828  C 1.68503762664054 28.0339316588828  0.967458292604629 22.0366926452378  0.967458292604629 22.0366926452378  C 0.967458292604629 22.0366926452378  10.1869581461535 20.2312615918802  10.1869581461535 20.2312615918802  C 10.1869581461535 20.2312615918802  22.124638374566 22.3653084816019  22.124638374566 22.3653084816019  C 22.124638374566 22.3653084816019  19.8704757316054 12.8882624864581  19.8704757316054 12.8882624864581  C 19.8704757316054 12.8882624864581  26.5822513400607 16.5049927331085  26.5822513400607 16.5049927331085  C 26.5822513400607 16.5049927331085  43.1347527272904 9.90529135279574  43.1347527272904 9.90529135279574  C 43.1347527272904 9.90529135279574  45.2697414172485 2.85374319748231  45.2697414172485 2.85374319748231  C 45.2697414172485 2.85374319748231  53.3291771647029 1.09721331025023  53.3291771647029 1.09721331025023  C 53.3291771647029 1.09721331025023  54.358637269362 4.15255816977858  54.358637269362 4.15255816977858  C 54.358637269362 4.15255816977858  57.6625449451524 4.29534957486535  57.6625449451524 4.29534957486535  Z " fill-rule="nonzero" fill="#a29bfe" stroke="none" transform="matrix(1 0 0 1 1807 4010 )" />
    <path d="M 102.223460903972 66.620863825281  C 102.223460903972 66.620863825281  103.430414130124 74.4068922397697  103.430414130124 74.4068922397697  C 103.430414130124 74.4068922397697  101.082433694374 80.0657351838255  101.082433694374 80.0657351838255  C 101.082433694374 80.0657351838255  96.0124892360656 78.5810957802519  96.0124892360656 78.5810957802519  C 96.0124892360656 78.5810957802519  94.3668744382237 72.219069323341  94.3668744382237 72.219069323341  C 94.3668744382237 72.219069323341  95.8020331062953 69.4669116937916  95.8020331062953 69.4669116937916  C 95.8020331062953 69.4669116937916  102.223460903972 66.620863825281  102.223460903972 66.620863825281  Z " stroke-width="2" stroke="#505050" fill="none" stroke-opacity="0.211764705882353" transform="matrix(1 0 0 1 1807 4010 )" mask="url(#clip17)" />
    <path d="M 57.6625449451524 4.29534957486535  C 57.6625449451524 4.29534957486535  60.9715238529854 7.75168399662348  60.9715238529854 7.75168399662348  C 60.9715238529854 7.75168399662348  65.9337244067245 11.775271945439  65.9337244067245 11.775271945439  C 65.9337244067245 11.775271945439  69.5824758614157 11.1141281794206  69.5824758614157 11.1141281794206  C 69.5824758614157 11.1141281794206  75.8023419617333 14.973408210054  75.8023419617333 14.973408210054  C 75.8023419617333 14.973408210054  77.392173207106 15.7049696552932  77.392173207106 15.7049696552932  C 77.392173207106 15.7049696552932  79.4434865683603 15.526969410596  79.4434865683603 15.526969410596  C 79.4434865683603 15.526969410596  82.7981065645774 17.7236097929584  82.7981065645774 17.7236097929584  C 82.7981065645774 17.7236097929584  93.0419952907428 19.2630185025927  93.0419952907428 19.2630185025927  C 93.0419952907428 19.2630185025927  89.449027388521 24.9335977265187  89.449027388521 24.9335977265187  C 89.449027388521 24.9335977265187  88.5463480849283 30.7528364954667  88.5463480849283 30.7528364954667  C 88.5463480849283 30.7528364954667  86.5939237485056 32.135761473499  86.5939237485056 32.135761473499  C 86.5939237485056 32.135761473499  83.3534064732483 31.3905077017447  83.3534064732483 31.3905077017447  C 83.3534064732483 31.3905077017447  83.5816119151678 33.4443566790204  83.5816119151678 33.4443566790204  C 83.5816119151678 33.4443566790204  78.381063455424 39.3701847340908  78.381063455424 39.3701847340908  C 78.381063455424 39.3701847340908  78.2771031985495 42.9653984676458  78.2771031985495 42.9653984676458  C 78.2771031985495 42.9653984676458  81.6722930511078 41.7252648947003  81.6722930511078 41.7252648947003  C 81.6722930511078 41.7252648947003  84.1140912796469 45.1894235030387  84.1140912796469 45.1894235030387  C 84.1140912796469 45.1894235030387  83.8199598211729 47.4075803984965  83.8199598211729 47.4075803984965  C 83.8199598211729 47.4075803984965  85.9118430387684 50.3377382727432  85.9118430387684 50.3377382727432  C 85.9118430387684 50.3377382727432  83.4472242660376 52.7006426199329  83.4472242660376 52.7006426199329  C 83.4472242660376 52.7006426199329  85.2804746494578 58.6450683741623  85.2804746494578 58.6450683741623  C 85.2804746494578 58.6450683741623  89.1346110018764 59.6113554168045  89.1346110018764 59.6113554168045  C 89.1346110018764 59.6113554168045  88.32067825903 62.9053379670258  88.32067825903 62.9053379670258  C 88.32067825903 62.9053379670258  81.8802135648566 67.155827326664  81.8802135648566 67.155827326664  C 81.8802135648566 67.155827326664  67.8582569669127 65.1234948624837  67.8582569669127 65.1234948624837  C 67.8582569669127 65.1234948624837  57.5053367518302 67.5568168888941  57.5053367518302 67.5568168888941  C 57.5053367518302 67.5568168888941  56.6914040089837 72.0400757992903  56.6914040089837 72.0400757992903  C 56.6914040089837 72.0400757992903  48.4506519396675 72.9985386553523  48.4506519396675 72.9985386553523  C 48.4506519396675 72.9985386553523  38.6086781292197 69.6419626124903  38.6086781292197 69.6419626124903  C 38.6086781292197 69.6419626124903  36.0223497874652 71.2478769080554  36.0223497874652 71.2478769080554  C 36.0223497874652 71.2478769080554  22.9360355013911 67.863916212163  22.9360355013911 67.863916212163  C 22.9360355013911 67.863916212163  20.1012167895463 64.9474506644315  20.1012167895463 64.9474506644315  C 20.1012167895463 64.9474506644315  23.7778600204719 60.4113784946196  23.7778600204719 60.4113784946196  C 23.7778600204719 60.4113784946196  25.131878975861 45.0035990717615  25.131878975861 45.0035990717615  C 25.131878975861 45.0035990717615  17.7938062101377 35.2419635457982  17.7938062101377 35.2419635457982  C 17.7938062101377 35.2419635457982  12.5501522780313 31.161650244277  12.5501522780313 31.161650244277  C 12.5501522780313 31.161650244277  1.68503762664054 28.0339316588828  1.68503762664054 28.0339316588828  C 1.68503762664054 28.0339316588828  0.967458292604629 22.0366926452378  0.967458292604629 22.0366926452378  C 0.967458292604629 22.0366926452378  10.1869581461535 20.2312615918802  10.1869581461535 20.2312615918802  C 10.1869581461535 20.2312615918802  22.124638374566 22.3653084816019  22.124638374566 22.3653084816019  C 22.124638374566 22.3653084816019  19.8704757316054 12.8882624864581  19.8704757316054 12.8882624864581  C 19.8704757316054 12.8882624864581  26.5822513400607 16.5049927331085  26.5822513400607 16.5049927331085  C 26.5822513400607 16.5049927331085  43.1347527272904 9.90529135279574  43.1347527272904 9.90529135279574  C 43.1347527272904 9.90529135279574  45.2697414172485 2.85374319748231  45.2697414172485 2.85374319748231  C 45.2697414172485 2.85374319748231  53.3291771647029 1.09721331025023  53.3291771647029 1.09721331025023  C 53.3291771647029 1.09721331025023  54.358637269362 4.15255816977858  54.358637269362 4.15255816977858  C 54.358637269362 4.15255816977858  57.6625449451524 4.29534957486535  57.6625449451524 4.29534957486535  Z " stroke-width="2" stroke="#505050" fill="none" stroke-opacity="0.211764705882353" transform="matrix(1 0 0 1 1807 4010 )" mask="url(#clip17)" />
  </g>
</svg>