<?xml version="1.0" encoding="utf-8"?>
<svg version="1.1" xmlns:xlink="http://www.w3.org/1999/xlink" width="42px" height="27px" xmlns="http://www.w3.org/2000/svg">
  <defs>
    <mask fill="white" id="clip158">
      <path d="M 16.3628693787308 23.0934018957757  C 16.3628693787308 23.0934018957757  12.748359764745 22.0919060135232  12.748359764745 22.0919060135232  C 12.748359764745 22.0919060135232  12.1828071478141 19.6898807334331  12.1828071478141 19.6898807334331  C 12.1828071478141 19.6898807334331  12.9368773037218 17.0942068354856  12.9368773037218 17.0942068354856  C 12.9368773037218 17.0942068354856  9.82005399263547 15.5821827788817  9.82005399263547 15.5821827788817  C 9.82005399263547 15.5821827788817  2.4402207334825 12.4867542191618  2.4402207334825 12.4867542191618  C 2.4402207334825 12.4867542191618  0.942134690412163 4.34177598927974  0.942134690412163 4.34177598927974  C 0.942134690412163 4.34177598927974  9.01319892581379 1.32359601600688  9.01319892581379 1.32359601600688  C 9.01319892581379 1.32359601600688  22.6580787926006 1.95735512899486  22.6580787926006 1.95735512899486  C 22.6580787926006 1.95735512899486  29.5804428238359 0.981287853127714  29.5804428238359 0.981287853127714  C 29.5804428238359 0.981287853127714  30.5707882952618 3.03122473711336  30.5707882952618 3.03122473711336  C 30.5707882952618 3.03122473711336  34.3210305373112 3.66107175681125  34.3210305373112 3.66107175681125  C 34.3210305373112 3.66107175681125  41.0950941045511 8.39274859112551  41.0950941045511 8.39274859112551  C 41.0950941045511 8.39274859112551  41.7586758417502 12.7097435366946  41.7586758417502 12.7097435366946  C 41.7586758417502 12.7097435366946  35.9799848803086 17.1861410278018  35.9799848803086 17.1861410278018  C 35.9799848803086 17.1861410278018  34.3436526419881 22.5144120888485  34.3436526419881 22.5144120888485  C 34.3436526419881 22.5144120888485  26.6923541267084 26.0294279099576  26.6923541267084 26.0294279099576  C 26.6923541267084 26.0294279099576  18.054500095151 25.9668344173167  18.054500095151 25.9668344173167  C 18.054500095151 25.9668344173167  16.3628693787308 23.0934018957757  16.3628693787308 23.0934018957757  Z " fill-rule="evenodd" />
    </mask>
  </defs>
  <g transform="matrix(1 0 0 1 -1989 -3960 )">
    <path d="M 16.3628693787308 23.0934018957757  C 16.3628693787308 23.0934018957757  12.748359764745 22.0919060135232  12.748359764745 22.0919060135232  C 12.748359764745 22.0919060135232  12.1828071478141 19.6898807334331  12.1828071478141 19.6898807334331  C 12.1828071478141 19.6898807334331  12.9368773037218 17.0942068354856  12.9368773037218 17.0942068354856  C 12.9368773037218 17.0942068354856  9.82005399263547 15.5821827788817  9.82005399263547 15.5821827788817  C 9.82005399263547 15.5821827788817  2.4402207334825 12.4867542191618  2.4402207334825 12.4867542191618  C 2.4402207334825 12.4867542191618  0.942134690412163 4.34177598927974  0.942134690412163 4.34177598927974  C 0.942134690412163 4.34177598927974  9.01319892581379 1.32359601600688  9.01319892581379 1.32359601600688  C 9.01319892581379 1.32359601600688  22.6580787926006 1.95735512899486  22.6580787926006 1.95735512899486  C 22.6580787926006 1.95735512899486  29.5804428238359 0.981287853127714  29.5804428238359 0.981287853127714  C 29.5804428238359 0.981287853127714  30.5707882952618 3.03122473711336  30.5707882952618 3.03122473711336  C 30.5707882952618 3.03122473711336  34.3210305373112 3.66107175681125  34.3210305373112 3.66107175681125  C 34.3210305373112 3.66107175681125  41.0950941045511 8.39274859112551  41.0950941045511 8.39274859112551  C 41.0950941045511 8.39274859112551  41.7586758417502 12.7097435366946  41.7586758417502 12.7097435366946  C 41.7586758417502 12.7097435366946  35.9799848803086 17.1861410278018  35.9799848803086 17.1861410278018  C 35.9799848803086 17.1861410278018  34.3436526419881 22.5144120888485  34.3436526419881 22.5144120888485  C 34.3436526419881 22.5144120888485  26.6923541267084 26.0294279099576  26.6923541267084 26.0294279099576  C 26.6923541267084 26.0294279099576  18.054500095151 25.9668344173167  18.054500095151 25.9668344173167  C 18.054500095151 25.9668344173167  16.3628693787308 23.0934018957757  16.3628693787308 23.0934018957757  Z " fill-rule="nonzero" fill="#f2f2f2" stroke="none" transform="matrix(1 0 0 1 1989 3960 )" />
    <path d="M 16.3628693787308 23.0934018957757  C 16.3628693787308 23.0934018957757  12.748359764745 22.0919060135232  12.748359764745 22.0919060135232  C 12.748359764745 22.0919060135232  12.1828071478141 19.6898807334331  12.1828071478141 19.6898807334331  C 12.1828071478141 19.6898807334331  12.9368773037218 17.0942068354856  12.9368773037218 17.0942068354856  C 12.9368773037218 17.0942068354856  9.82005399263547 15.5821827788817  9.82005399263547 15.5821827788817  C 9.82005399263547 15.5821827788817  2.4402207334825 12.4867542191618  2.4402207334825 12.4867542191618  C 2.4402207334825 12.4867542191618  0.942134690412163 4.34177598927974  0.942134690412163 4.34177598927974  C 0.942134690412163 4.34177598927974  9.01319892581379 1.32359601600688  9.01319892581379 1.32359601600688  C 9.01319892581379 1.32359601600688  22.6580787926006 1.95735512899486  22.6580787926006 1.95735512899486  C 22.6580787926006 1.95735512899486  29.5804428238359 0.981287853127714  29.5804428238359 0.981287853127714  C 29.5804428238359 0.981287853127714  30.5707882952618 3.03122473711336  30.5707882952618 3.03122473711336  C 30.5707882952618 3.03122473711336  34.3210305373112 3.66107175681125  34.3210305373112 3.66107175681125  C 34.3210305373112 3.66107175681125  41.0950941045511 8.39274859112551  41.0950941045511 8.39274859112551  C 41.0950941045511 8.39274859112551  41.7586758417502 12.7097435366946  41.7586758417502 12.7097435366946  C 41.7586758417502 12.7097435366946  35.9799848803086 17.1861410278018  35.9799848803086 17.1861410278018  C 35.9799848803086 17.1861410278018  34.3436526419881 22.5144120888485  34.3436526419881 22.5144120888485  C 34.3436526419881 22.5144120888485  26.6923541267084 26.0294279099576  26.6923541267084 26.0294279099576  C 26.6923541267084 26.0294279099576  18.054500095151 25.9668344173167  18.054500095151 25.9668344173167  C 18.054500095151 25.9668344173167  16.3628693787308 23.0934018957757  16.3628693787308 23.0934018957757  Z " stroke-width="2" stroke="#505050" fill="none" stroke-opacity="0.211764705882353" transform="matrix(1 0 0 1 1989 3960 )" mask="url(#clip158)" />
  </g>
</svg>