<?xml version="1.0" encoding="utf-8"?>
<svg version="1.1" xmlns:xlink="http://www.w3.org/1999/xlink" width="6px" height="11px" xmlns="http://www.w3.org/2000/svg">
  <defs>
    <mask fill="white" id="clip159">
      <path d="M 0.852437803376802 1.87314765234226  C 0.852437803376802 1.87314765234226  3.86174512852926 1.51624676052381  3.86174512852926 1.51624676052381  C 3.86174512852926 1.51624676052381  5.01798603425493 3.64251086147811  5.01798603425493 3.64251086147811  C 5.01798603425493 3.64251086147811  4.691760921568 9.31289209954785  4.691760921568 9.31289209954785  C 4.691760921568 9.31289209954785  1.52140575597514 9.50756531326692  1.52140575597514 9.50756531326692  C 1.52140575597514 9.50756531326692  0.224764168840011 8.7007529941866  0.224764168840011 8.7007529941866  C 0.224764168840011 8.7007529941866  0.852437803376802 1.87314765234226  0.852437803376802 1.87314765234226  Z " fill-rule="evenodd" />
    </mask>
  </defs>
  <g transform="matrix(1 0 0 1 -1880 -4019 )">
    <path d="M 0.852437803376802 1.87314765234226  C 0.852437803376802 1.87314765234226  3.86174512852926 1.51624676052381  3.86174512852926 1.51624676052381  C 3.86174512852926 1.51624676052381  5.01798603425493 3.64251086147811  5.01798603425493 3.64251086147811  C 5.01798603425493 3.64251086147811  4.691760921568 9.31289209954785  4.691760921568 9.31289209954785  C 4.691760921568 9.31289209954785  1.52140575597514 9.50756531326692  1.52140575597514 9.50756531326692  C 1.52140575597514 9.50756531326692  0.224764168840011 8.7007529941866  0.224764168840011 8.7007529941866  C 0.224764168840011 8.7007529941866  0.852437803376802 1.87314765234226  0.852437803376802 1.87314765234226  Z " fill-rule="nonzero" fill="#f2f2f2" stroke="none" transform="matrix(1 0 0 1 1880 4019 )" />
    <path d="M 0.852437803376802 1.87314765234226  C 0.852437803376802 1.87314765234226  3.86174512852926 1.51624676052381  3.86174512852926 1.51624676052381  C 3.86174512852926 1.51624676052381  5.01798603425493 3.64251086147811  5.01798603425493 3.64251086147811  C 5.01798603425493 3.64251086147811  4.691760921568 9.31289209954785  4.691760921568 9.31289209954785  C 4.691760921568 9.31289209954785  1.52140575597514 9.50756531326692  1.52140575597514 9.50756531326692  C 1.52140575597514 9.50756531326692  0.224764168840011 8.7007529941866  0.224764168840011 8.7007529941866  C 0.224764168840011 8.7007529941866  0.852437803376802 1.87314765234226  0.852437803376802 1.87314765234226  Z " stroke-width="2" stroke="#505050" fill="none" stroke-opacity="0.211764705882353" transform="matrix(1 0 0 1 1880 4019 )" mask="url(#clip159)" />
  </g>
</svg>