<?xml version="1.0" encoding="utf-8"?>
<svg version="1.1" xmlns:xlink="http://www.w3.org/1999/xlink" width="54px" height="26px" xmlns="http://www.w3.org/2000/svg">
  <defs>
    <mask fill="white" id="clip160">
      <path d="M 9.19079890464756 18.6787169380811  C 9.19079890464756 18.6787169380811  0.960698920765112 21.7465788862225  0.960698920765112 21.7465788862225  C 0.960698920765112 21.7465788862225  1.20675609873214 14.1753421405824  1.20675609873214 14.1753421405824  C 1.20675609873214 14.1753421405824  4.73870184080323 6.29892530324241  4.73870184080323 6.29892530324241  C 4.73870184080323 6.29892530324241  11.5129635217135 2.75388456861108  11.5129635217135 2.75388456861108  C 11.5129635217135 2.75388456861108  17.2184143358283 10.4662867052545  17.2184143358283 10.4662867052545  C 17.2184143358283 10.4662867052545  22.9853794444351 10.2674622108837  22.9853794444351 10.2674622108837  C 22.9853794444351 10.2674622108837  24.3668879748968 2.33635313043232  24.3668879748968 2.33635313043232  C 24.3668879748968 2.33635313043232  32.3496292423489 0.487285332783857  32.3496292423489 0.487285332783857  C 32.3496292423489 0.487285332783857  35.4996737394501 1.77169156641929  35.4996737394501 1.77169156641929  C 35.4996737394501 1.77169156641929  41.6844234314802 5.63286324710024  41.6844234314802 5.63286324710024  C 41.6844234314802 5.63286324710024  47.6103004675243 5.65075745159368  47.6103004675243 5.65075745159368  C 47.6103004675243 5.65075745159368  51.0730426282921 8.02671015932478  51.0730426282921 8.02671015932478  C 51.0730426282921 8.02671015932478  51.6856224776065 14.4238727585459  51.6856224776065 14.4238727585459  C 51.6856224776065 14.4238727585459  53.9949716166527 20.3687251402329  53.9949716166527 20.3687251402329  C 53.9949716166527 20.3687251402329  46.2749276579314 24.2040496366457  46.2749276579314 24.2040496366457  C 46.2749276579314 24.2040496366457  41.9048496534093 25.8642341646419  41.9048496534093 25.8642341646419  C 41.9048496534093 25.8642341646419  34.9973070011006 21.0546696458123  34.9973070011006 21.0546696458123  C 34.9973070011006 21.0546696458123  31.1731683601931 20.4144547739383  31.1731683601931 20.4144547739383  C 31.1731683601931 20.4144547739383  30.1633086922859 18.3307740729322  30.1633086922859 18.3307740729322  C 30.1633086922859 18.3307740729322  21.2424744338339 19.3229082998424  21.2424744338339 19.3229082998424  C 21.2424744338339 19.3229082998424  9.19079890464756 18.6787169380811  9.19079890464756 18.6787169380811  Z " fill-rule="evenodd" />
    </mask>
  </defs>
  <g transform="matrix(1 0 0 1 -1989 -3945 )">
    <path d="M 9.19079890464756 18.6787169380811  C 9.19079890464756 18.6787169380811  0.960698920765112 21.7465788862225  0.960698920765112 21.7465788862225  C 0.960698920765112 21.7465788862225  1.20675609873214 14.1753421405824  1.20675609873214 14.1753421405824  C 1.20675609873214 14.1753421405824  4.73870184080323 6.29892530324241  4.73870184080323 6.29892530324241  C 4.73870184080323 6.29892530324241  11.5129635217135 2.75388456861108  11.5129635217135 2.75388456861108  C 11.5129635217135 2.75388456861108  17.2184143358283 10.4662867052545  17.2184143358283 10.4662867052545  C 17.2184143358283 10.4662867052545  22.9853794444351 10.2674622108837  22.9853794444351 10.2674622108837  C 22.9853794444351 10.2674622108837  24.3668879748968 2.33635313043232  24.3668879748968 2.33635313043232  C 24.3668879748968 2.33635313043232  32.3496292423489 0.487285332783857  32.3496292423489 0.487285332783857  C 32.3496292423489 0.487285332783857  35.4996737394501 1.77169156641929  35.4996737394501 1.77169156641929  C 35.4996737394501 1.77169156641929  41.6844234314802 5.63286324710024  41.6844234314802 5.63286324710024  C 41.6844234314802 5.63286324710024  47.6103004675243 5.65075745159368  47.6103004675243 5.65075745159368  C 47.6103004675243 5.65075745159368  51.0730426282921 8.02671015932478  51.0730426282921 8.02671015932478  C 51.0730426282921 8.02671015932478  51.6856224776065 14.4238727585459  51.6856224776065 14.4238727585459  C 51.6856224776065 14.4238727585459  53.9949716166527 20.3687251402329  53.9949716166527 20.3687251402329  C 53.9949716166527 20.3687251402329  46.2749276579314 24.2040496366457  46.2749276579314 24.2040496366457  C 46.2749276579314 24.2040496366457  41.9048496534093 25.8642341646419  41.9048496534093 25.8642341646419  C 41.9048496534093 25.8642341646419  34.9973070011006 21.0546696458123  34.9973070011006 21.0546696458123  C 34.9973070011006 21.0546696458123  31.1731683601931 20.4144547739383  31.1731683601931 20.4144547739383  C 31.1731683601931 20.4144547739383  30.1633086922859 18.3307740729322  30.1633086922859 18.3307740729322  C 30.1633086922859 18.3307740729322  21.2424744338339 19.3229082998424  21.2424744338339 19.3229082998424  C 21.2424744338339 19.3229082998424  9.19079890464756 18.6787169380811  9.19079890464756 18.6787169380811  Z " fill-rule="nonzero" fill="#81ecec" stroke="none" transform="matrix(1 0 0 1 1989 3945 )" />
    <path d="M 9.19079890464756 18.6787169380811  C 9.19079890464756 18.6787169380811  0.960698920765112 21.7465788862225  0.960698920765112 21.7465788862225  C 0.960698920765112 21.7465788862225  1.20675609873214 14.1753421405824  1.20675609873214 14.1753421405824  C 1.20675609873214 14.1753421405824  4.73870184080323 6.29892530324241  4.73870184080323 6.29892530324241  C 4.73870184080323 6.29892530324241  11.5129635217135 2.75388456861108  11.5129635217135 2.75388456861108  C 11.5129635217135 2.75388456861108  17.2184143358283 10.4662867052545  17.2184143358283 10.4662867052545  C 17.2184143358283 10.4662867052545  22.9853794444351 10.2674622108837  22.9853794444351 10.2674622108837  C 22.9853794444351 10.2674622108837  24.3668879748968 2.33635313043232  24.3668879748968 2.33635313043232  C 24.3668879748968 2.33635313043232  32.3496292423489 0.487285332783857  32.3496292423489 0.487285332783857  C 32.3496292423489 0.487285332783857  35.4996737394501 1.77169156641929  35.4996737394501 1.77169156641929  C 35.4996737394501 1.77169156641929  41.6844234314802 5.63286324710024  41.6844234314802 5.63286324710024  C 41.6844234314802 5.63286324710024  47.6103004675243 5.65075745159368  47.6103004675243 5.65075745159368  C 47.6103004675243 5.65075745159368  51.0730426282921 8.02671015932478  51.0730426282921 8.02671015932478  C 51.0730426282921 8.02671015932478  51.6856224776065 14.4238727585459  51.6856224776065 14.4238727585459  C 51.6856224776065 14.4238727585459  53.9949716166527 20.3687251402329  53.9949716166527 20.3687251402329  C 53.9949716166527 20.3687251402329  46.2749276579314 24.2040496366457  46.2749276579314 24.2040496366457  C 46.2749276579314 24.2040496366457  41.9048496534093 25.8642341646419  41.9048496534093 25.8642341646419  C 41.9048496534093 25.8642341646419  34.9973070011006 21.0546696458123  34.9973070011006 21.0546696458123  C 34.9973070011006 21.0546696458123  31.1731683601931 20.4144547739383  31.1731683601931 20.4144547739383  C 31.1731683601931 20.4144547739383  30.1633086922859 18.3307740729322  30.1633086922859 18.3307740729322  C 30.1633086922859 18.3307740729322  21.2424744338339 19.3229082998424  21.2424744338339 19.3229082998424  C 21.2424744338339 19.3229082998424  9.19079890464756 18.6787169380811  9.19079890464756 18.6787169380811  Z " stroke-width="2" stroke="#505050" fill="none" stroke-opacity="0.211764705882353" transform="matrix(1 0 0 1 1989 3945 )" mask="url(#clip160)" />
  </g>
</svg>