<?xml version="1.0" encoding="utf-8"?>
<svg version="1.1" xmlns:xlink="http://www.w3.org/1999/xlink" width="116px" height="87px" xmlns="http://www.w3.org/2000/svg">
  <defs>
    <mask fill="white" id="clip164">
      <path d="M 46.8900779152627 63.3728999477166  C 46.8900779152627 63.3728999477166  39.7150044368678 66.6820889494485  39.7150044368678 66.6820889494485  C 39.7150044368678 66.6820889494485  34.6866237300024 68.9234757099704  34.6866237300024 68.9234757099704  C 34.6866237300024 68.9234757099704  30.6897707185474 65.6082990321193  30.6897707185474 65.6082990321193  C 30.6897707185474 65.6082990321193  19.4494136444814 62.9976722442632  19.4494136444814 62.9976722442632  C 19.4494136444814 62.9976722442632  16.3294858974292 59.1875143405801  16.3294858974292 59.1875143405801  C 16.3294858974292 59.1875143405801  10.7207124577656 56.3513517522442  10.7207124577656 56.3513517522442  C 10.7207124577656 56.3513517522442  7.40056189022846 57.4710471864853  7.40056189022846 57.4710471864853  C 7.40056189022846 57.4710471864853  4.87116474030328 54.056075906652  4.87116474030328 54.056075906652  C 4.87116474030328 54.056075906652  4.6050458016838 51.4214984143201  4.6050458016838 51.4214984143201  C 4.6050458016838 51.4214984143201  0.402901037579636 46.9187659728799  0.402901037579636 46.9187659728799  C 0.402901037579636 46.9187659728799  3.22376178694514 44.3241063213412  3.22376178694514 44.3241063213412  C 3.22376178694514 44.3241063213412  2.60281759683324 38.9521784634381  2.60281759683324 38.9521784634381  C 2.60281759683324 38.9521784634381  3.50762198813917 35.5212400472876  3.50762198813917 35.5212400472876  C 3.50762198813917 35.5212400472876  2.99312537347497 32.6471555101984  2.99312537347497 32.6471555101984  C 2.99312537347497 32.6471555101984  4.24515161802724 27.4777951275167  4.24515161802724 27.4777951275167  C 4.24515161802724 27.4777951275167  3.85991277354964 24.5138954486435  3.85991277354964 24.5138954486435  C 3.85991277354964 24.5138954486435  1.55861757101246 18.8455620560504  1.55861757101246 18.8455620560504  C 1.55861757101246 18.8455620560504  5.02830163739288 17.3486430263164  5.02830163739288 17.3486430263164  C 5.02830163739288 17.3486430263164  5.64164242925849 14.610279147923  5.64164242925849 14.610279147923  C 5.64164242925849 14.610279147923  4.88637153679587 11.9138290023622  4.88637153679587 11.9138290023622  C 4.88637153679587 11.9138290023622  9.76521874481775 9.39501324832971  9.76521874481775 9.39501324832971  C 9.76521874481775 9.39501324832971  11.9524629736609 7.29333893058318  11.9524629736609 7.29333893058318  C 11.9524629736609 7.29333893058318  15.4170781078772 5.40322916903896  15.4170781078772 5.40322916903896  C 15.4170781078772 5.40322916903896  15.8200582149294 0.315700359982856  15.8200582149294 0.315700359982856  C 15.8200582149294 0.315700359982856  24.1660550232497 2.60099674537685  24.1660550232497 2.60099674537685  C 24.1660550232497 2.60099674537685  27.1516560679509 2.0321675140779  27.1516560679509 2.0321675140779  C 27.1516560679509 2.0321675140779  33.087375632204 3.13589581200176  33.087375632204 3.13589581200176  C 33.087375632204 3.13589581200176  42.5181239236586 6.08782013863722  42.5181239236586 6.08782013863722  C 42.5181239236586 6.08782013863722  45.8458778894417 11.9118331103225  45.8458778894417 11.9118331103225  C 45.8458778894417 11.9118331103225  52.2251290180608 13.1772286634577  52.2251290180608 13.1772286634577  C 52.2251290180608 13.1772286634577  64.0800743496659 15.8956336214547  64.0800743496659 15.8956336214547  C 64.0800743496659 15.8956336214547  71.653059002949 19.1090198052835  71.653059002949 19.1090198052835  C 71.653059002949 19.1090198052835  75.1176741371651 17.4344663840214  75.1176741371651 17.4344663840214  C 75.1176741371651 17.4344663840214  78.5214620854113 14.4545995688307  78.5214620854113 14.4545995688307  C 78.5214620854113 14.4545995688307  76.8664557338068 9.45888179359836  76.8664557338068 9.45888179359836  C 76.8664557338068 9.45888179359836  79.0967858860454 6.26345863812611  79.0967858860454 6.26345863812611  C 79.0967858860454 6.26345863812611  84.2164073718659 3.17182186871542  84.2164073718659 3.17182186871542  C 84.2164073718659 3.17182186871542  89.1079269102982 2.26768277475603  89.1079269102982 2.26768277475603  C 89.1079269102982 2.26768277475603  98.7211567596632 3.62289346967534  98.7211567596632 3.62289346967534  C 98.7211567596632 3.62289346967534  101.144106334141 6.5728219042711  101.144106334141 6.5728219042711  C 101.144106334141 6.5728219042711  103.790088923842 6.59876850078655  103.790088923842 6.59876850078655  C 103.790088923842 6.59876850078655  106.053367135148 7.72045982706728  106.053367135148 7.72045982706728  C 106.053367135148 7.72045982706728  113.114389639849 8.49087415437032  113.114389639849 8.49087415437032  C 113.114389639849 8.49087415437032  114.847964439998 10.6544211253459  114.847964439998 10.6544211253459  C 114.847964439998 10.6544211253459  112.272946900595 13.7819839514702  112.272946900595 13.7819839514702  C 112.272946900595 13.7819839514702  113.372905180222 16.5562738865772  113.372905180222 16.5562738865772  C 113.372905180222 16.5562738865772  111.543020668954 20.5400743977093  111.543020668954 20.5400743977093  C 111.543020668954 20.5400743977093  113.674506643991 25.7014512122322  113.674506643991 25.7014512122322  C 113.674506643991 25.7014512122322  113.674506643991 49.4655242154676  113.674506643991 49.4655242154676  C 113.674506643991 49.4655242154676  113.674506643991 71.8754000366057  113.674506643991 71.8754000366057  C 113.674506643991 71.8754000366057  113.674506643991 83.7769042690114  113.674506643991 83.7769042690114  C 113.674506643991 83.7769042690114  105.503387995334 83.7948672973679  105.503387995334 83.7948672973679  C 105.503387995334 83.7948672973679  105.414681682462 86.2757611026474  105.414681682462 86.2757611026474  C 105.414681682462 86.2757611026474  77.0717474864562 74.9011723687084  77.0717474864562 74.9011723687084  C 77.0717474864562 74.9011723687084  46.8900779152627 63.3728999477166  46.8900779152627 63.3728999477166  Z " fill-rule="evenodd" />
    </mask>
  </defs>
  <g transform="matrix(1 0 0 1 -1904 -4148 )">
    <path d="M 46.8900779152627 63.3728999477166  C 46.8900779152627 63.3728999477166  39.7150044368678 66.6820889494485  39.7150044368678 66.6820889494485  C 39.7150044368678 66.6820889494485  34.6866237300024 68.9234757099704  34.6866237300024 68.9234757099704  C 34.6866237300024 68.9234757099704  30.6897707185474 65.6082990321193  30.6897707185474 65.6082990321193  C 30.6897707185474 65.6082990321193  19.4494136444814 62.9976722442632  19.4494136444814 62.9976722442632  C 19.4494136444814 62.9976722442632  16.3294858974292 59.1875143405801  16.3294858974292 59.1875143405801  C 16.3294858974292 59.1875143405801  10.7207124577656 56.3513517522442  10.7207124577656 56.3513517522442  C 10.7207124577656 56.3513517522442  7.40056189022846 57.4710471864853  7.40056189022846 57.4710471864853  C 7.40056189022846 57.4710471864853  4.87116474030328 54.056075906652  4.87116474030328 54.056075906652  C 4.87116474030328 54.056075906652  4.6050458016838 51.4214984143201  4.6050458016838 51.4214984143201  C 4.6050458016838 51.4214984143201  0.402901037579636 46.9187659728799  0.402901037579636 46.9187659728799  C 0.402901037579636 46.9187659728799  3.22376178694514 44.3241063213412  3.22376178694514 44.3241063213412  C 3.22376178694514 44.3241063213412  2.60281759683324 38.9521784634381  2.60281759683324 38.9521784634381  C 2.60281759683324 38.9521784634381  3.50762198813917 35.5212400472876  3.50762198813917 35.5212400472876  C 3.50762198813917 35.5212400472876  2.99312537347497 32.6471555101984  2.99312537347497 32.6471555101984  C 2.99312537347497 32.6471555101984  4.24515161802724 27.4777951275167  4.24515161802724 27.4777951275167  C 4.24515161802724 27.4777951275167  3.85991277354964 24.5138954486435  3.85991277354964 24.5138954486435  C 3.85991277354964 24.5138954486435  1.55861757101246 18.8455620560504  1.55861757101246 18.8455620560504  C 1.55861757101246 18.8455620560504  5.02830163739288 17.3486430263164  5.02830163739288 17.3486430263164  C 5.02830163739288 17.3486430263164  5.64164242925849 14.610279147923  5.64164242925849 14.610279147923  C 5.64164242925849 14.610279147923  4.88637153679587 11.9138290023622  4.88637153679587 11.9138290023622  C 4.88637153679587 11.9138290023622  9.76521874481775 9.39501324832971  9.76521874481775 9.39501324832971  C 9.76521874481775 9.39501324832971  11.9524629736609 7.29333893058318  11.9524629736609 7.29333893058318  C 11.9524629736609 7.29333893058318  15.4170781078772 5.40322916903896  15.4170781078772 5.40322916903896  C 15.4170781078772 5.40322916903896  15.8200582149294 0.315700359982856  15.8200582149294 0.315700359982856  C 15.8200582149294 0.315700359982856  24.1660550232497 2.60099674537685  24.1660550232497 2.60099674537685  C 24.1660550232497 2.60099674537685  27.1516560679509 2.0321675140779  27.1516560679509 2.0321675140779  C 27.1516560679509 2.0321675140779  33.087375632204 3.13589581200176  33.087375632204 3.13589581200176  C 33.087375632204 3.13589581200176  42.5181239236586 6.08782013863722  42.5181239236586 6.08782013863722  C 42.5181239236586 6.08782013863722  45.8458778894417 11.9118331103225  45.8458778894417 11.9118331103225  C 45.8458778894417 11.9118331103225  52.2251290180608 13.1772286634577  52.2251290180608 13.1772286634577  C 52.2251290180608 13.1772286634577  64.0800743496659 15.8956336214547  64.0800743496659 15.8956336214547  C 64.0800743496659 15.8956336214547  71.653059002949 19.1090198052835  71.653059002949 19.1090198052835  C 71.653059002949 19.1090198052835  75.1176741371651 17.4344663840214  75.1176741371651 17.4344663840214  C 75.1176741371651 17.4344663840214  78.5214620854113 14.4545995688307  78.5214620854113 14.4545995688307  C 78.5214620854113 14.4545995688307  76.8664557338068 9.45888179359836  76.8664557338068 9.45888179359836  C 76.8664557338068 9.45888179359836  79.0967858860454 6.26345863812611  79.0967858860454 6.26345863812611  C 79.0967858860454 6.26345863812611  84.2164073718659 3.17182186871542  84.2164073718659 3.17182186871542  C 84.2164073718659 3.17182186871542  89.1079269102982 2.26768277475603  89.1079269102982 2.26768277475603  C 89.1079269102982 2.26768277475603  98.7211567596632 3.62289346967534  98.7211567596632 3.62289346967534  C 98.7211567596632 3.62289346967534  101.144106334141 6.5728219042711  101.144106334141 6.5728219042711  C 101.144106334141 6.5728219042711  103.790088923842 6.59876850078655  103.790088923842 6.59876850078655  C 103.790088923842 6.59876850078655  106.053367135148 7.72045982706728  106.053367135148 7.72045982706728  C 106.053367135148 7.72045982706728  113.114389639849 8.49087415437032  113.114389639849 8.49087415437032  C 113.114389639849 8.49087415437032  114.847964439998 10.6544211253459  114.847964439998 10.6544211253459  C 114.847964439998 10.6544211253459  112.272946900595 13.7819839514702  112.272946900595 13.7819839514702  C 112.272946900595 13.7819839514702  113.372905180222 16.5562738865772  113.372905180222 16.5562738865772  C 113.372905180222 16.5562738865772  111.543020668954 20.5400743977093  111.543020668954 20.5400743977093  C 111.543020668954 20.5400743977093  113.674506643991 25.7014512122322  113.674506643991 25.7014512122322  C 113.674506643991 25.7014512122322  113.674506643991 49.4655242154676  113.674506643991 49.4655242154676  C 113.674506643991 49.4655242154676  113.674506643991 71.8754000366057  113.674506643991 71.8754000366057  C 113.674506643991 71.8754000366057  113.674506643991 83.7769042690114  113.674506643991 83.7769042690114  C 113.674506643991 83.7769042690114  105.503387995334 83.7948672973679  105.503387995334 83.7948672973679  C 105.503387995334 83.7948672973679  105.414681682462 86.2757611026474  105.414681682462 86.2757611026474  C 105.414681682462 86.2757611026474  77.0717474864562 74.9011723687084  77.0717474864562 74.9011723687084  C 77.0717474864562 74.9011723687084  46.8900779152627 63.3728999477166  46.8900779152627 63.3728999477166  Z " fill-rule="nonzero" fill="#f2f2f2" stroke="none" transform="matrix(1 0 0 1 1904 4148 )" />
    <path d="M 46.8900779152627 63.3728999477166  C 46.8900779152627 63.3728999477166  39.7150044368678 66.6820889494485  39.7150044368678 66.6820889494485  C 39.7150044368678 66.6820889494485  34.6866237300024 68.9234757099704  34.6866237300024 68.9234757099704  C 34.6866237300024 68.9234757099704  30.6897707185474 65.6082990321193  30.6897707185474 65.6082990321193  C 30.6897707185474 65.6082990321193  19.4494136444814 62.9976722442632  19.4494136444814 62.9976722442632  C 19.4494136444814 62.9976722442632  16.3294858974292 59.1875143405801  16.3294858974292 59.1875143405801  C 16.3294858974292 59.1875143405801  10.7207124577656 56.3513517522442  10.7207124577656 56.3513517522442  C 10.7207124577656 56.3513517522442  7.40056189022846 57.4710471864853  7.40056189022846 57.4710471864853  C 7.40056189022846 57.4710471864853  4.87116474030328 54.056075906652  4.87116474030328 54.056075906652  C 4.87116474030328 54.056075906652  4.6050458016838 51.4214984143201  4.6050458016838 51.4214984143201  C 4.6050458016838 51.4214984143201  0.402901037579636 46.9187659728799  0.402901037579636 46.9187659728799  C 0.402901037579636 46.9187659728799  3.22376178694514 44.3241063213412  3.22376178694514 44.3241063213412  C 3.22376178694514 44.3241063213412  2.60281759683324 38.9521784634381  2.60281759683324 38.9521784634381  C 2.60281759683324 38.9521784634381  3.50762198813917 35.5212400472876  3.50762198813917 35.5212400472876  C 3.50762198813917 35.5212400472876  2.99312537347497 32.6471555101984  2.99312537347497 32.6471555101984  C 2.99312537347497 32.6471555101984  4.24515161802724 27.4777951275167  4.24515161802724 27.4777951275167  C 4.24515161802724 27.4777951275167  3.85991277354964 24.5138954486435  3.85991277354964 24.5138954486435  C 3.85991277354964 24.5138954486435  1.55861757101246 18.8455620560504  1.55861757101246 18.8455620560504  C 1.55861757101246 18.8455620560504  5.02830163739288 17.3486430263164  5.02830163739288 17.3486430263164  C 5.02830163739288 17.3486430263164  5.64164242925849 14.610279147923  5.64164242925849 14.610279147923  C 5.64164242925849 14.610279147923  4.88637153679587 11.9138290023622  4.88637153679587 11.9138290023622  C 4.88637153679587 11.9138290023622  9.76521874481775 9.39501324832971  9.76521874481775 9.39501324832971  C 9.76521874481775 9.39501324832971  11.9524629736609 7.29333893058318  11.9524629736609 7.29333893058318  C 11.9524629736609 7.29333893058318  15.4170781078772 5.40322916903896  15.4170781078772 5.40322916903896  C 15.4170781078772 5.40322916903896  15.8200582149294 0.315700359982856  15.8200582149294 0.315700359982856  C 15.8200582149294 0.315700359982856  24.1660550232497 2.60099674537685  24.1660550232497 2.60099674537685  C 24.1660550232497 2.60099674537685  27.1516560679509 2.0321675140779  27.1516560679509 2.0321675140779  C 27.1516560679509 2.0321675140779  33.087375632204 3.13589581200176  33.087375632204 3.13589581200176  C 33.087375632204 3.13589581200176  42.5181239236586 6.08782013863722  42.5181239236586 6.08782013863722  C 42.5181239236586 6.08782013863722  45.8458778894417 11.9118331103225  45.8458778894417 11.9118331103225  C 45.8458778894417 11.9118331103225  52.2251290180608 13.1772286634577  52.2251290180608 13.1772286634577  C 52.2251290180608 13.1772286634577  64.0800743496659 15.8956336214547  64.0800743496659 15.8956336214547  C 64.0800743496659 15.8956336214547  71.653059002949 19.1090198052835  71.653059002949 19.1090198052835  C 71.653059002949 19.1090198052835  75.1176741371651 17.4344663840214  75.1176741371651 17.4344663840214  C 75.1176741371651 17.4344663840214  78.5214620854113 14.4545995688307  78.5214620854113 14.4545995688307  C 78.5214620854113 14.4545995688307  76.8664557338068 9.45888179359836  76.8664557338068 9.45888179359836  C 76.8664557338068 9.45888179359836  79.0967858860454 6.26345863812611  79.0967858860454 6.26345863812611  C 79.0967858860454 6.26345863812611  84.2164073718659 3.17182186871542  84.2164073718659 3.17182186871542  C 84.2164073718659 3.17182186871542  89.1079269102982 2.26768277475603  89.1079269102982 2.26768277475603  C 89.1079269102982 2.26768277475603  98.7211567596632 3.62289346967534  98.7211567596632 3.62289346967534  C 98.7211567596632 3.62289346967534  101.144106334141 6.5728219042711  101.144106334141 6.5728219042711  C 101.144106334141 6.5728219042711  103.790088923842 6.59876850078655  103.790088923842 6.59876850078655  C 103.790088923842 6.59876850078655  106.053367135148 7.72045982706728  106.053367135148 7.72045982706728  C 106.053367135148 7.72045982706728  113.114389639849 8.49087415437032  113.114389639849 8.49087415437032  C 113.114389639849 8.49087415437032  114.847964439998 10.6544211253459  114.847964439998 10.6544211253459  C 114.847964439998 10.6544211253459  112.272946900595 13.7819839514702  112.272946900595 13.7819839514702  C 112.272946900595 13.7819839514702  113.372905180222 16.5562738865772  113.372905180222 16.5562738865772  C 113.372905180222 16.5562738865772  111.543020668954 20.5400743977093  111.543020668954 20.5400743977093  C 111.543020668954 20.5400743977093  113.674506643991 25.7014512122322  113.674506643991 25.7014512122322  C 113.674506643991 25.7014512122322  113.674506643991 49.4655242154676  113.674506643991 49.4655242154676  C 113.674506643991 49.4655242154676  113.674506643991 71.8754000366057  113.674506643991 71.8754000366057  C 113.674506643991 71.8754000366057  113.674506643991 83.7769042690114  113.674506643991 83.7769042690114  C 113.674506643991 83.7769042690114  105.503387995334 83.7948672973679  105.503387995334 83.7948672973679  C 105.503387995334 83.7948672973679  105.414681682462 86.2757611026474  105.414681682462 86.2757611026474  C 105.414681682462 86.2757611026474  77.0717474864562 74.9011723687084  77.0717474864562 74.9011723687084  C 77.0717474864562 74.9011723687084  46.8900779152627 63.3728999477166  46.8900779152627 63.3728999477166  Z " stroke-width="2" stroke="#505050" fill="none" stroke-opacity="0.211764705882353" transform="matrix(1 0 0 1 1904 4148 )" mask="url(#clip164)" />
  </g>
</svg>