<?xml version="1.0" encoding="utf-8"?>
<svg version="1.1" xmlns:xlink="http://www.w3.org/1999/xlink" width="89px" height="56px" xmlns="http://www.w3.org/2000/svg">
  <defs>
    <mask fill="white" id="clip165">
      <path d="M 88.8357821744845 22.1693355662308  C 88.8357821744845 22.1693355662308  86.9496928736292 20.7759170388178  86.9496928736292 20.7759170388178  C 86.9496928736292 20.7759170388178  84.4791455891531 13.8009184810304  84.4791455891531 13.8009184810304  C 84.4791455891531 13.8009184810304  84.0529251382159 9.74320466999686  84.0529251382159 9.74320466999686  C 84.0529251382159 9.74320466999686  81.3552304277911 5.43843083637227  81.3552304277911 5.43843083637227  C 81.3552304277911 5.43843083637227  78.2466285760435 5.36530106968545  78.2466285760435 5.36530106968545  C 78.2466285760435 5.36530106968545  70.8349867226155 3.87305853323615  70.8349867226155 3.87305853323615  C 70.8349867226155 3.87305853323615  64.0282205989611 4.3414843360685  64.0282205989611 4.3414843360685  C 64.0282205989611 4.3414843360685  59.7149717242045 1.4637291929293  59.7149717242045 1.4637291929293  C 59.7149717242045 1.4637291929293  54.4471932168093 1.43012902985695  54.4471932168093 1.43012902985695  C 54.4471932168093 1.43012902985695  52.1986889217439 5.58864333010766  52.1986889217439 5.58864333010766  C 52.1986889217439 5.58864333010766  47.4158318854753 12.5320182050033  47.4158318854753 12.5320182050033  C 47.4158318854753 12.5320182050033  40.2556034373774 15.2793256562145  40.2556034373774 15.2793256562145  C 40.2556034373774 15.2793256562145  33.0762134464364 18.2993873723663  33.0762134464364 18.2993873723663  C 33.0762134464364 18.2993873723663  28.4720116890039 22.7385618582802  28.4720116890039 22.7385618582802  C 28.4720116890039 22.7385618582802  27.5123776198272 26.1736844123846  27.5123776198272 26.1736844123846  C 27.5123776198272 26.1736844123846  24.7942651632498 33.1812794777528  24.7942651632498 33.1812794777528  C 24.7942651632498 33.1812794777528  26.5833701698797 41.1484710862657  26.5833701698797 41.1484710862657  C 26.5833701698797 41.1484710862657  20.6086272019475 46.4375320498924  20.6086272019475 46.4375320498924  C 20.6086272019475 46.4375320498924  17.0202083156116 48.1175402035107  17.0202083156116 48.1175402035107  C 17.0202083156116 48.1175402035107  11.382358159199 52.4045257155087  11.382358159199 52.4045257155087  C 11.382358159199 52.4045257155087  4.72872513168989 53.0962937787632  4.72872513168989 53.0962937787632  C 4.72872513168989 53.0962937787632  1.1300973722774 55.4898112776246  1.1300973722774 55.4898112776246  C 1.1300973722774 55.4898112776246  1.089261879972 55.5174820001547  1.089261879972 55.5174820001547  C 1.089261879972 55.5174820001547  33.0175124262475 55.4898112776246  33.0175124262475 55.4898112776246  C 33.0175124262475 55.4898112776246  33.0175124262475 55.4759759163592  33.0175124262475 55.4759759163592  C 33.0175124262475 55.4759759163592  32.9562591877894 48.0602222782696  32.9562591877894 48.0602222782696  C 32.9562591877894 48.0602222782696  46.3668701768807 43.3977055319335  46.3668701768807 43.3977055319335  C 46.3668701768807 43.3977055319335  53.5130813303237 42.4312067235576  53.5130813303237 42.4312067235576  C 53.5130813303237 42.4312067235576  59.3704222578779 40.7215513672283  59.3704222578779 40.7215513672283  C 59.3704222578779 40.7215513672283  62.1064002423388 37.5255829149922  62.1064002423388 37.5255829149922  C 62.1064002423388 37.5255829149922  70.4725717284051 34.987782362938  70.4725717284051 34.987782362938  C 70.4725717284051 34.987782362938  70.7813901389648 30.2106297661195  70.7813901389648 30.2106297661195  C 70.7813901389648 30.2106297661195  74.9210881714233 29.6453564344314  74.9210881714233 29.6453564344314  C 74.9210881714233 29.6453564344314  78.1598531548944 25.8060590987693  78.1598531548944 25.8060590987693  C 78.1598531548944 25.8060590987693  87.5239419841738 24.7091125984655  87.5239419841738 24.7091125984655  C 87.5239419841738 24.7091125984655  88.8357821744845 22.1693355662308  88.8357821744845 22.1693355662308  Z " fill-rule="evenodd" />
    </mask>
  </defs>
  <g transform="matrix(1 0 0 1 -1745 -4129 )">
    <path d="M 88.8357821744845 22.1693355662308  C 88.8357821744845 22.1693355662308  86.9496928736292 20.7759170388178  86.9496928736292 20.7759170388178  C 86.9496928736292 20.7759170388178  84.4791455891531 13.8009184810304  84.4791455891531 13.8009184810304  C 84.4791455891531 13.8009184810304  84.0529251382159 9.74320466999686  84.0529251382159 9.74320466999686  C 84.0529251382159 9.74320466999686  81.3552304277911 5.43843083637227  81.3552304277911 5.43843083637227  C 81.3552304277911 5.43843083637227  78.2466285760435 5.36530106968545  78.2466285760435 5.36530106968545  C 78.2466285760435 5.36530106968545  70.8349867226155 3.87305853323615  70.8349867226155 3.87305853323615  C 70.8349867226155 3.87305853323615  64.0282205989611 4.3414843360685  64.0282205989611 4.3414843360685  C 64.0282205989611 4.3414843360685  59.7149717242045 1.4637291929293  59.7149717242045 1.4637291929293  C 59.7149717242045 1.4637291929293  54.4471932168093 1.43012902985695  54.4471932168093 1.43012902985695  C 54.4471932168093 1.43012902985695  52.1986889217439 5.58864333010766  52.1986889217439 5.58864333010766  C 52.1986889217439 5.58864333010766  47.4158318854753 12.5320182050033  47.4158318854753 12.5320182050033  C 47.4158318854753 12.5320182050033  40.2556034373774 15.2793256562145  40.2556034373774 15.2793256562145  C 40.2556034373774 15.2793256562145  33.0762134464364 18.2993873723663  33.0762134464364 18.2993873723663  C 33.0762134464364 18.2993873723663  28.4720116890039 22.7385618582802  28.4720116890039 22.7385618582802  C 28.4720116890039 22.7385618582802  27.5123776198272 26.1736844123846  27.5123776198272 26.1736844123846  C 27.5123776198272 26.1736844123846  24.7942651632498 33.1812794777528  24.7942651632498 33.1812794777528  C 24.7942651632498 33.1812794777528  26.5833701698797 41.1484710862657  26.5833701698797 41.1484710862657  C 26.5833701698797 41.1484710862657  20.6086272019475 46.4375320498924  20.6086272019475 46.4375320498924  C 20.6086272019475 46.4375320498924  17.0202083156116 48.1175402035107  17.0202083156116 48.1175402035107  C 17.0202083156116 48.1175402035107  11.382358159199 52.4045257155087  11.382358159199 52.4045257155087  C 11.382358159199 52.4045257155087  4.72872513168989 53.0962937787632  4.72872513168989 53.0962937787632  C 4.72872513168989 53.0962937787632  1.1300973722774 55.4898112776246  1.1300973722774 55.4898112776246  C 1.1300973722774 55.4898112776246  1.089261879972 55.5174820001547  1.089261879972 55.5174820001547  C 1.089261879972 55.5174820001547  33.0175124262475 55.4898112776246  33.0175124262475 55.4898112776246  C 33.0175124262475 55.4898112776246  33.0175124262475 55.4759759163592  33.0175124262475 55.4759759163592  C 33.0175124262475 55.4759759163592  32.9562591877894 48.0602222782696  32.9562591877894 48.0602222782696  C 32.9562591877894 48.0602222782696  46.3668701768807 43.3977055319335  46.3668701768807 43.3977055319335  C 46.3668701768807 43.3977055319335  53.5130813303237 42.4312067235576  53.5130813303237 42.4312067235576  C 53.5130813303237 42.4312067235576  59.3704222578779 40.7215513672283  59.3704222578779 40.7215513672283  C 59.3704222578779 40.7215513672283  62.1064002423388 37.5255829149922  62.1064002423388 37.5255829149922  C 62.1064002423388 37.5255829149922  70.4725717284051 34.987782362938  70.4725717284051 34.987782362938  C 70.4725717284051 34.987782362938  70.7813901389648 30.2106297661195  70.7813901389648 30.2106297661195  C 70.7813901389648 30.2106297661195  74.9210881714233 29.6453564344314  74.9210881714233 29.6453564344314  C 74.9210881714233 29.6453564344314  78.1598531548944 25.8060590987693  78.1598531548944 25.8060590987693  C 78.1598531548944 25.8060590987693  87.5239419841738 24.7091125984655  87.5239419841738 24.7091125984655  C 87.5239419841738 24.7091125984655  88.8357821744845 22.1693355662308  88.8357821744845 22.1693355662308  Z " fill-rule="nonzero" fill="#f2f2f2" stroke="none" transform="matrix(1 0 0 1 1745 4129 )" />
    <path d="M 88.8357821744845 22.1693355662308  C 88.8357821744845 22.1693355662308  86.9496928736292 20.7759170388178  86.9496928736292 20.7759170388178  C 86.9496928736292 20.7759170388178  84.4791455891531 13.8009184810304  84.4791455891531 13.8009184810304  C 84.4791455891531 13.8009184810304  84.0529251382159 9.74320466999686  84.0529251382159 9.74320466999686  C 84.0529251382159 9.74320466999686  81.3552304277911 5.43843083637227  81.3552304277911 5.43843083637227  C 81.3552304277911 5.43843083637227  78.2466285760435 5.36530106968545  78.2466285760435 5.36530106968545  C 78.2466285760435 5.36530106968545  70.8349867226155 3.87305853323615  70.8349867226155 3.87305853323615  C 70.8349867226155 3.87305853323615  64.0282205989611 4.3414843360685  64.0282205989611 4.3414843360685  C 64.0282205989611 4.3414843360685  59.7149717242045 1.4637291929293  59.7149717242045 1.4637291929293  C 59.7149717242045 1.4637291929293  54.4471932168093 1.43012902985695  54.4471932168093 1.43012902985695  C 54.4471932168093 1.43012902985695  52.1986889217439 5.58864333010766  52.1986889217439 5.58864333010766  C 52.1986889217439 5.58864333010766  47.4158318854753 12.5320182050033  47.4158318854753 12.5320182050033  C 47.4158318854753 12.5320182050033  40.2556034373774 15.2793256562145  40.2556034373774 15.2793256562145  C 40.2556034373774 15.2793256562145  33.0762134464364 18.2993873723663  33.0762134464364 18.2993873723663  C 33.0762134464364 18.2993873723663  28.4720116890039 22.7385618582802  28.4720116890039 22.7385618582802  C 28.4720116890039 22.7385618582802  27.5123776198272 26.1736844123846  27.5123776198272 26.1736844123846  C 27.5123776198272 26.1736844123846  24.7942651632498 33.1812794777528  24.7942651632498 33.1812794777528  C 24.7942651632498 33.1812794777528  26.5833701698797 41.1484710862657  26.5833701698797 41.1484710862657  C 26.5833701698797 41.1484710862657  20.6086272019475 46.4375320498924  20.6086272019475 46.4375320498924  C 20.6086272019475 46.4375320498924  17.0202083156116 48.1175402035107  17.0202083156116 48.1175402035107  C 17.0202083156116 48.1175402035107  11.382358159199 52.4045257155087  11.382358159199 52.4045257155087  C 11.382358159199 52.4045257155087  4.72872513168989 53.0962937787632  4.72872513168989 53.0962937787632  C 4.72872513168989 53.0962937787632  1.1300973722774 55.4898112776246  1.1300973722774 55.4898112776246  C 1.1300973722774 55.4898112776246  1.089261879972 55.5174820001547  1.089261879972 55.5174820001547  C 1.089261879972 55.5174820001547  33.0175124262475 55.4898112776246  33.0175124262475 55.4898112776246  C 33.0175124262475 55.4898112776246  33.0175124262475 55.4759759163592  33.0175124262475 55.4759759163592  C 33.0175124262475 55.4759759163592  32.9562591877894 48.0602222782696  32.9562591877894 48.0602222782696  C 32.9562591877894 48.0602222782696  46.3668701768807 43.3977055319335  46.3668701768807 43.3977055319335  C 46.3668701768807 43.3977055319335  53.5130813303237 42.4312067235576  53.5130813303237 42.4312067235576  C 53.5130813303237 42.4312067235576  59.3704222578779 40.7215513672283  59.3704222578779 40.7215513672283  C 59.3704222578779 40.7215513672283  62.1064002423388 37.5255829149922  62.1064002423388 37.5255829149922  C 62.1064002423388 37.5255829149922  70.4725717284051 34.987782362938  70.4725717284051 34.987782362938  C 70.4725717284051 34.987782362938  70.7813901389648 30.2106297661195  70.7813901389648 30.2106297661195  C 70.7813901389648 30.2106297661195  74.9210881714233 29.6453564344314  74.9210881714233 29.6453564344314  C 74.9210881714233 29.6453564344314  78.1598531548944 25.8060590987693  78.1598531548944 25.8060590987693  C 78.1598531548944 25.8060590987693  87.5239419841738 24.7091125984655  87.5239419841738 24.7091125984655  C 87.5239419841738 24.7091125984655  88.8357821744845 22.1693355662308  88.8357821744845 22.1693355662308  Z " stroke-width="2" stroke="#505050" fill="none" stroke-opacity="0.211764705882353" transform="matrix(1 0 0 1 1745 4129 )" mask="url(#clip165)" />
  </g>
</svg>