<?xml version="1.0" encoding="utf-8"?>
<svg version="1.1" xmlns:xlink="http://www.w3.org/1999/xlink" width="30px" height="27px" xmlns="http://www.w3.org/2000/svg">
  <defs>
    <mask fill="white" id="clip166">
      <path d="M 4.05583388279652 3.91807666887709  C 4.05583388279652 3.91807666887709  1.85174965625691 3.11805359106212  1.85174965625691 3.11805359106212  C 1.85174965625691 3.11805359106212  3.57836833020862 1.90726071779202  3.57836833020862 1.90726071779202  C 3.57836833020862 1.90726071779202  8.3865754895097 1.09158926681669  8.3865754895097 1.09158926681669  C 8.3865754895097 1.09158926681669  13.7212852040962 3.65205432515382  13.7212852040962 3.65205432515382  C 13.7212852040962 3.65205432515382  18.5720569994128 3.95915364842267  18.5720569994128 3.95915364842267  C 18.5720569994128 3.95915364842267  21.8420508109178 6.15775007743027  21.8420508109178 6.15775007743027  C 21.8420508109178 6.15775007743027  21.3232909402685 8.90990770697969  21.3232909402685 8.90990770697969  C 21.3232909402685 8.90990770697969  23.9583846115763 10.2321952390163  23.9583846115763 10.2321952390163  C 23.9583846115763 10.2321952390163  25.0036470375113 15.0117799601022  25.0036470375113 15.0117799601022  C 25.0036470375113 15.0117799601022  27.5303431239072 17.0421563776377  27.5303431239072 17.0421563776377  C 27.5303431239072 17.0421563776377  27.0193259378944 18.2294766911676  27.0193259378944 18.2294766911676  C 27.0193259378944 18.2294766911676  28.369133959534 19.0334118622726  28.369133959534 19.0334118622726  C 28.369133959534 19.0334118622726  26.4515290645471 19.6202258557799  26.4515290645471 19.6202258557799  C 26.4515290645471 19.6202258557799  22.187890724684 19.387456305022  22.187890724684 19.387456305022  C 22.187890724684 19.387456305022  21.475563738121 18.2901141371633  21.475563738121 18.2901141371633  C 21.475563738121 18.2901141371633  19.9631593391138 18.9238732501512  19.9631593391138 18.9238732501512  C 19.9631593391138 18.9238732501512  20.4741765251264 20.3400510211491  20.4741765251264 20.3400510211491  C 20.4741765251264 20.3400510211491  18.4920492581683 22.8555270066505  18.4920492581683 22.8555270066505  C 18.4920492581683 22.8555270066505  17.2299916624096 25.5450911435592  17.2299916624096 25.5450911435592  C 17.2299916624096 25.5450911435592  13.5328798779402 26.3920593408548  13.5328798779402 26.3920593408548  C 13.5328798779402 26.3920593408548  12.2372706487565 22.82031816704  12.2372706487565 22.82031816704  C 12.2372706487565 22.82031816704  12.9986346380177 19.4480937510178  12.9986346380177 19.4480937510178  C 12.9986346380177 19.4480937510178  12.7689349938 15.9565504896491  12.7689349938 15.9565504896491  C 12.7689349938 15.9565504896491  8.59304707981764 9.75883195092026  8.59304707981764 9.75883195092026  C 8.59304707981764 9.75883195092026  6.29863153251861 6.33966241541745  6.29863153251861 6.33966241541745  C 6.29863153251861 6.33966241541745  4.05583388279652 3.91807666887709  4.05583388279652 3.91807666887709  Z " fill-rule="evenodd" />
    </mask>
  </defs>
  <g transform="matrix(1 0 0 1 -2028 -4033 )">
    <path d="M 4.05583388279652 3.91807666887709  C 4.05583388279652 3.91807666887709  1.85174965625691 3.11805359106212  1.85174965625691 3.11805359106212  C 1.85174965625691 3.11805359106212  3.57836833020862 1.90726071779202  3.57836833020862 1.90726071779202  C 3.57836833020862 1.90726071779202  8.3865754895097 1.09158926681669  8.3865754895097 1.09158926681669  C 8.3865754895097 1.09158926681669  13.7212852040962 3.65205432515382  13.7212852040962 3.65205432515382  C 13.7212852040962 3.65205432515382  18.5720569994128 3.95915364842267  18.5720569994128 3.95915364842267  C 18.5720569994128 3.95915364842267  21.8420508109178 6.15775007743027  21.8420508109178 6.15775007743027  C 21.8420508109178 6.15775007743027  21.3232909402685 8.90990770697969  21.3232909402685 8.90990770697969  C 21.3232909402685 8.90990770697969  23.9583846115763 10.2321952390163  23.9583846115763 10.2321952390163  C 23.9583846115763 10.2321952390163  25.0036470375113 15.0117799601022  25.0036470375113 15.0117799601022  C 25.0036470375113 15.0117799601022  27.5303431239072 17.0421563776377  27.5303431239072 17.0421563776377  C 27.5303431239072 17.0421563776377  27.0193259378944 18.2294766911676  27.0193259378944 18.2294766911676  C 27.0193259378944 18.2294766911676  28.369133959534 19.0334118622726  28.369133959534 19.0334118622726  C 28.369133959534 19.0334118622726  26.4515290645471 19.6202258557799  26.4515290645471 19.6202258557799  C 26.4515290645471 19.6202258557799  22.187890724684 19.387456305022  22.187890724684 19.387456305022  C 22.187890724684 19.387456305022  21.475563738121 18.2901141371633  21.475563738121 18.2901141371633  C 21.475563738121 18.2901141371633  19.9631593391138 18.9238732501512  19.9631593391138 18.9238732501512  C 19.9631593391138 18.9238732501512  20.4741765251264 20.3400510211491  20.4741765251264 20.3400510211491  C 20.4741765251264 20.3400510211491  18.4920492581683 22.8555270066505  18.4920492581683 22.8555270066505  C 18.4920492581683 22.8555270066505  17.2299916624096 25.5450911435592  17.2299916624096 25.5450911435592  C 17.2299916624096 25.5450911435592  13.5328798779402 26.3920593408548  13.5328798779402 26.3920593408548  C 13.5328798779402 26.3920593408548  12.2372706487565 22.82031816704  12.2372706487565 22.82031816704  C 12.2372706487565 22.82031816704  12.9986346380177 19.4480937510178  12.9986346380177 19.4480937510178  C 12.9986346380177 19.4480937510178  12.7689349938 15.9565504896491  12.7689349938 15.9565504896491  C 12.7689349938 15.9565504896491  8.59304707981764 9.75883195092026  8.59304707981764 9.75883195092026  C 8.59304707981764 9.75883195092026  6.29863153251861 6.33966241541745  6.29863153251861 6.33966241541745  C 6.29863153251861 6.33966241541745  4.05583388279652 3.91807666887709  4.05583388279652 3.91807666887709  Z " fill-rule="nonzero" fill="#f2f2f2" stroke="none" transform="matrix(1 0 0 1 2028 4033 )" />
    <path d="M 4.05583388279652 3.91807666887709  C 4.05583388279652 3.91807666887709  1.85174965625691 3.11805359106212  1.85174965625691 3.11805359106212  C 1.85174965625691 3.11805359106212  3.57836833020862 1.90726071779202  3.57836833020862 1.90726071779202  C 3.57836833020862 1.90726071779202  8.3865754895097 1.09158926681669  8.3865754895097 1.09158926681669  C 8.3865754895097 1.09158926681669  13.7212852040962 3.65205432515382  13.7212852040962 3.65205432515382  C 13.7212852040962 3.65205432515382  18.5720569994128 3.95915364842267  18.5720569994128 3.95915364842267  C 18.5720569994128 3.95915364842267  21.8420508109178 6.15775007743027  21.8420508109178 6.15775007743027  C 21.8420508109178 6.15775007743027  21.3232909402685 8.90990770697969  21.3232909402685 8.90990770697969  C 21.3232909402685 8.90990770697969  23.9583846115763 10.2321952390163  23.9583846115763 10.2321952390163  C 23.9583846115763 10.2321952390163  25.0036470375113 15.0117799601022  25.0036470375113 15.0117799601022  C 25.0036470375113 15.0117799601022  27.5303431239072 17.0421563776377  27.5303431239072 17.0421563776377  C 27.5303431239072 17.0421563776377  27.0193259378944 18.2294766911676  27.0193259378944 18.2294766911676  C 27.0193259378944 18.2294766911676  28.369133959534 19.0334118622726  28.369133959534 19.0334118622726  C 28.369133959534 19.0334118622726  26.4515290645471 19.6202258557799  26.4515290645471 19.6202258557799  C 26.4515290645471 19.6202258557799  22.187890724684 19.387456305022  22.187890724684 19.387456305022  C 22.187890724684 19.387456305022  21.475563738121 18.2901141371633  21.475563738121 18.2901141371633  C 21.475563738121 18.2901141371633  19.9631593391138 18.9238732501512  19.9631593391138 18.9238732501512  C 19.9631593391138 18.9238732501512  20.4741765251264 20.3400510211491  20.4741765251264 20.3400510211491  C 20.4741765251264 20.3400510211491  18.4920492581683 22.8555270066505  18.4920492581683 22.8555270066505  C 18.4920492581683 22.8555270066505  17.2299916624096 25.5450911435592  17.2299916624096 25.5450911435592  C 17.2299916624096 25.5450911435592  13.5328798779402 26.3920593408548  13.5328798779402 26.3920593408548  C 13.5328798779402 26.3920593408548  12.2372706487565 22.82031816704  12.2372706487565 22.82031816704  C 12.2372706487565 22.82031816704  12.9986346380177 19.4480937510178  12.9986346380177 19.4480937510178  C 12.9986346380177 19.4480937510178  12.7689349938 15.9565504896491  12.7689349938 15.9565504896491  C 12.7689349938 15.9565504896491  8.59304707981764 9.75883195092026  8.59304707981764 9.75883195092026  C 8.59304707981764 9.75883195092026  6.29863153251861 6.33966241541745  6.29863153251861 6.33966241541745  C 6.29863153251861 6.33966241541745  4.05583388279652 3.91807666887709  4.05583388279652 3.91807666887709  Z " stroke-width="2" stroke="#505050" fill="none" stroke-opacity="0.211764705882353" transform="matrix(1 0 0 1 2028 4033 )" mask="url(#clip166)" />
  </g>
</svg>