<?xml version="1.0" encoding="utf-8"?>
<svg version="1.1" xmlns:xlink="http://www.w3.org/1999/xlink" width="17px" height="14px" xmlns="http://www.w3.org/2000/svg">
  <defs>
    <mask fill="white" id="clip167">
      <path d="M 14.5684790603423 8.52683248772241  C 14.5684790603423 8.52683248772241  12.6080695458461 9.17432739492863  12.6080695458461 9.17432739492863  C 12.6080695458461 9.17432739492863  12.1452672997184 7.79647364893901  12.1452672997184 7.79647364893901  C 12.1452672997184 7.79647364893901  7.09476306649601 11.3904557975694  7.09476306649601 11.3904557975694  C 7.09476306649601 11.3904557975694  7.58356543881061 13.6952293363157  7.58356543881061 13.6952293363157  C 7.58356543881061 13.6952293363157  6.05735803163667 13.1363795652151  6.05735803163667 13.1363795652151  C 6.05735803163667 13.1363795652151  4.01634812596101 10.7660857084776  4.01634812596101 10.7660857084776  C 4.01634812596101 10.7660857084776  0.865132832102644 9.31885750814443  0.865132832102644 9.31885750814443  C 0.865132832102644 9.31885750814443  1.66593671866068 8.07782560266563  1.66593671866068 8.07782560266563  C 1.66593671866068 8.07782560266563  2.73454190494426 2.6329095008023  2.73454190494426 2.6329095008023  C 2.73454190494426 2.6329095008023  5.10575341319414 0.91203761944729  5.10575341319414 0.91203761944729  C 5.10575341319414 0.91203761944729  6.46816002539058 0.233709621421644  6.46816002539058 0.233709621421644  C 6.46816002539058 0.233709621421644  10.2914583025888 1.50750168589607  10.2914583025888 1.50750168589607  C 10.2914583025888 1.50750168589607  11.3548634636352 2.53077488746306  11.3548634636352 2.53077488746306  C 11.3548634636352 2.53077488746306  13.7520750980722 3.32665404423755  13.7520750980722 3.32665404423755  C 13.7520750980722 3.32665404423755  16.531488587457 4.85481910797162  16.531488587457 4.85481910797162  C 16.531488587457 4.85481910797162  15.9308856725385 5.48497040159204  15.9308856725385 5.48497040159204  C 15.9308856725385 5.48497040159204  14.5684790603423 8.52683248772241  14.5684790603423 8.52683248772241  Z " fill-rule="evenodd" />
    </mask>
  </defs>
  <g transform="matrix(1 0 0 1 -1971 -4075 )">
    <path d="M 14.5684790603423 8.52683248772241  C 14.5684790603423 8.52683248772241  12.6080695458461 9.17432739492863  12.6080695458461 9.17432739492863  C 12.6080695458461 9.17432739492863  12.1452672997184 7.79647364893901  12.1452672997184 7.79647364893901  C 12.1452672997184 7.79647364893901  7.09476306649601 11.3904557975694  7.09476306649601 11.3904557975694  C 7.09476306649601 11.3904557975694  7.58356543881061 13.6952293363157  7.58356543881061 13.6952293363157  C 7.58356543881061 13.6952293363157  6.05735803163667 13.1363795652151  6.05735803163667 13.1363795652151  C 6.05735803163667 13.1363795652151  4.01634812596101 10.7660857084776  4.01634812596101 10.7660857084776  C 4.01634812596101 10.7660857084776  0.865132832102644 9.31885750814443  0.865132832102644 9.31885750814443  C 0.865132832102644 9.31885750814443  1.66593671866068 8.07782560266563  1.66593671866068 8.07782560266563  C 1.66593671866068 8.07782560266563  2.73454190494426 2.6329095008023  2.73454190494426 2.6329095008023  C 2.73454190494426 2.6329095008023  5.10575341319414 0.91203761944729  5.10575341319414 0.91203761944729  C 5.10575341319414 0.91203761944729  6.46816002539058 0.233709621421644  6.46816002539058 0.233709621421644  C 6.46816002539058 0.233709621421644  10.2914583025888 1.50750168589607  10.2914583025888 1.50750168589607  C 10.2914583025888 1.50750168589607  11.3548634636352 2.53077488746306  11.3548634636352 2.53077488746306  C 11.3548634636352 2.53077488746306  13.7520750980722 3.32665404423755  13.7520750980722 3.32665404423755  C 13.7520750980722 3.32665404423755  16.531488587457 4.85481910797162  16.531488587457 4.85481910797162  C 16.531488587457 4.85481910797162  15.9308856725385 5.48497040159204  15.9308856725385 5.48497040159204  C 15.9308856725385 5.48497040159204  14.5684790603423 8.52683248772241  14.5684790603423 8.52683248772241  Z " fill-rule="nonzero" fill="#f2f2f2" stroke="none" transform="matrix(1 0 0 1 1971 4075 )" />
    <path d="M 14.5684790603423 8.52683248772241  C 14.5684790603423 8.52683248772241  12.6080695458461 9.17432739492863  12.6080695458461 9.17432739492863  C 12.6080695458461 9.17432739492863  12.1452672997184 7.79647364893901  12.1452672997184 7.79647364893901  C 12.1452672997184 7.79647364893901  7.09476306649601 11.3904557975694  7.09476306649601 11.3904557975694  C 7.09476306649601 11.3904557975694  7.58356543881061 13.6952293363157  7.58356543881061 13.6952293363157  C 7.58356543881061 13.6952293363157  6.05735803163667 13.1363795652151  6.05735803163667 13.1363795652151  C 6.05735803163667 13.1363795652151  4.01634812596101 10.7660857084776  4.01634812596101 10.7660857084776  C 4.01634812596101 10.7660857084776  0.865132832102644 9.31885750814443  0.865132832102644 9.31885750814443  C 0.865132832102644 9.31885750814443  1.66593671866068 8.07782560266563  1.66593671866068 8.07782560266563  C 1.66593671866068 8.07782560266563  2.73454190494426 2.6329095008023  2.73454190494426 2.6329095008023  C 2.73454190494426 2.6329095008023  5.10575341319414 0.91203761944729  5.10575341319414 0.91203761944729  C 5.10575341319414 0.91203761944729  6.46816002539058 0.233709621421644  6.46816002539058 0.233709621421644  C 6.46816002539058 0.233709621421644  10.2914583025888 1.50750168589607  10.2914583025888 1.50750168589607  C 10.2914583025888 1.50750168589607  11.3548634636352 2.53077488746306  11.3548634636352 2.53077488746306  C 11.3548634636352 2.53077488746306  13.7520750980722 3.32665404423755  13.7520750980722 3.32665404423755  C 13.7520750980722 3.32665404423755  16.531488587457 4.85481910797162  16.531488587457 4.85481910797162  C 16.531488587457 4.85481910797162  15.9308856725385 5.48497040159204  15.9308856725385 5.48497040159204  C 15.9308856725385 5.48497040159204  14.5684790603423 8.52683248772241  14.5684790603423 8.52683248772241  Z " stroke-width="2" stroke="#505050" fill="none" stroke-opacity="0.211764705882353" transform="matrix(1 0 0 1 1971 4075 )" mask="url(#clip167)" />
  </g>
</svg>