<?xml version="1.0" encoding="utf-8"?>
<svg version="1.1" xmlns:xlink="http://www.w3.org/1999/xlink" width="56px" height="81px" xmlns="http://www.w3.org/2000/svg">
  <defs>
    <mask fill="white" id="clip168">
      <path d="M 45.0162682147157 0.847137911050763  C 45.0162682147157 0.847137911050763  47.5291651164926 3.24133900456074  47.5291651164926 3.24133900456074  C 47.5291651164926 3.24133900456074  49.4408167472921 5.61793567826544  49.4408167472921 5.61793567826544  C 49.4408167472921 5.61793567826544  51.2239971663446 9.31486383736178  51.2239971663446 9.31486383736178  C 51.2239971663446 9.31486383736178  52.3853769205401 16.0769170892115  52.3853769205401 16.0769170892115  C 52.3853769205401 16.0769170892115  54.2482094908756 18.7156240133495  54.2482094908756 18.7156240133495  C 54.2482094908756 18.7156240133495  53.533909553561 21.4267046633536  53.533909553561 21.4267046633536  C 53.533909553561 21.4267046633536  52.2594751330274 23.0952124515594  52.2594751330274 23.0952124515594  C 52.2594751330274 23.0952124515594  49.8133832613591 19.777757341598  49.8133832613591 19.777757341598  C 49.8133832613591 19.777757341598  48.4567272653081 21.4521332697389  48.4567272653081 21.4521332697389  C 48.4567272653081 21.4521332697389  49.8339386552389 25.6537214632514  49.8339386552389 25.6537214632514  C 49.8339386552389 25.6537214632514  49.1915825965025 28.0655269765667  49.1915825965025 28.0655269765667  C 49.1915825965025 28.0655269765667  47.2054176628891 29.3819463686681  47.2054176628891 29.3819463686681  C 47.2054176628891 29.3819463686681  46.7506295733042 34.2251178617489  46.7506295733042 34.2251178617489  C 46.7506295733042 34.2251178617489  43.9139852179239 42.3495423458269  43.9139852179239 42.3495423458269  C 43.9139852179239 42.3495423458269  40.3604715009938 50.3341247508169  40.3604715009938 50.3341247508169  C 40.3604715009938 50.3341247508169  35.910228726068 61.4346894613309  35.910228726068 61.4346894613309  C 35.910228726068 61.4346894613309  33.1506670977363 69.6774700234643  33.1506670977363 69.6774700234643  C 33.1506670977363 69.6774700234643  29.8952065920598 76.6214356133013  29.8952065920598 76.6214356133013  C 29.8952065920598 76.6214356133013  22.1676832454818 78.047393617524  22.1676832454818 78.047393617524  C 22.1676832454818 78.047393617524  15.8803021425694 80.6000344892809  15.8803021425694 80.6000344892809  C 15.8803021425694 80.6000344892809  11.730682003132 79.0586697330016  11.730682003132 79.0586697330016  C 11.730682003132 79.0586697330016  6.01114365614267 76.9011502835396  6.01114365614267 76.9011502835396  C 6.01114365614267 76.9011502835396  4.02240929829447 73.7343107652451  4.02240929829447 73.7343107652451  C 4.02240929829447 73.7343107652451  3.54706581482939 68.4392924971637  3.54706581482939 68.4392924971637  C 3.54706581482939 68.4392924971637  1.01104409493795 63.7095717094943  1.01104409493795 63.7095717094943  C 1.01104409493795 63.7095717094943  0.350702066556975 59.4669065364362  0.350702066556975 59.4669065364362  C 0.350702066556975 59.4669065364362  1.6431224567347 55.2359776432482  1.6431224567347 55.2359776432482  C 1.6431224567347 55.2359776432482  4.95767971981447 54.2227454811254  4.95767971981447 54.2227454811254  C 4.95767971981447 54.2227454811254  4.97823511369425 52.2784351159715  4.97823511369425 52.2784351159715  C 4.97823511369425 52.2784351159715  8.42126358852189 47.8675499314412  8.42126358852189 47.8675499314412  C 8.42126358852189 47.8675499314412  9.07132791996276 44.1784459589249  9.07132791996276 44.1784459589249  C 9.07132791996276 44.1784459589249  7.39863274301315 41.4438927491807  7.39863274301315 41.4438927491807  C 7.39863274301315 41.4438927491807  6.03426847425726 36.394373591081  6.03426847425726 36.394373591081  C 6.03426847425726 36.394373591081  5.45871744562937 31.1169597428049  5.45871744562937 31.1169597428049  C 5.45871744562937 31.1169597428049  7.97675319587627 27.92664766477  7.97675319587627 27.92664766477  C 7.97675319587627 27.92664766477  8.94285670821573 24.319697651345  8.94285670821573 24.319697651345  C 8.94285670821573 24.319697651345  12.532342364435 24.1104006603272  12.532342364435 24.1104006603272  C 12.532342364435 24.1104006603272  16.5509218678901 22.9485089531827  16.5509218678901 22.9485089531827  C 16.5509218678901 22.9485089531827  19.2179842237638 21.9235405111897  19.2179842237638 21.9235405111897  C 19.2179842237638 21.9235405111897  22.3809454569819 21.8472546920338  22.3809454569819 21.8472546920338  C 22.3809454569819 21.8472546920338  28.3561214753273 18.6236898210336  28.3561214753273 18.6236898210336  C 28.3561214753273 18.6236898210336  34.2837831853471 15.1497509794699  34.2837831853471 15.1497509794699  C 34.2837831853471 15.1497509794699  36.4472383911715 12.3213075307645  36.4472383911715 12.3213075307645  C 36.4472383911715 12.3213075307645  35.4657183334223 9.92123829731945  35.4657183334223 9.92123829731945  C 35.4657183334223 9.92123829731945  38.5259025972429 10.596074389853  38.5259025972429 10.596074389853  C 38.5259025972429 10.596074389853  42.495663040234 6.70158551960904  42.495663040234 6.70158551960904  C 42.495663040234 6.70158551960904  42.6292731004511 3.34109738345702  42.6292731004511 3.34109738345702  C 42.6292731004511 3.34109738345702  45.0162682147157 0.847137911050763  45.0162682147157 0.847137911050763  Z " fill-rule="evenodd" />
    </mask>
  </defs>
  <g transform="matrix(1 0 0 1 -2147 -4409 )">
    <path d="M 45.0162682147157 0.847137911050763  C 45.0162682147157 0.847137911050763  47.5291651164926 3.24133900456074  47.5291651164926 3.24133900456074  C 47.5291651164926 3.24133900456074  49.4408167472921 5.61793567826544  49.4408167472921 5.61793567826544  C 49.4408167472921 5.61793567826544  51.2239971663446 9.31486383736178  51.2239971663446 9.31486383736178  C 51.2239971663446 9.31486383736178  52.3853769205401 16.0769170892115  52.3853769205401 16.0769170892115  C 52.3853769205401 16.0769170892115  54.2482094908756 18.7156240133495  54.2482094908756 18.7156240133495  C 54.2482094908756 18.7156240133495  53.533909553561 21.4267046633536  53.533909553561 21.4267046633536  C 53.533909553561 21.4267046633536  52.2594751330274 23.0952124515594  52.2594751330274 23.0952124515594  C 52.2594751330274 23.0952124515594  49.8133832613591 19.777757341598  49.8133832613591 19.777757341598  C 49.8133832613591 19.777757341598  48.4567272653081 21.4521332697389  48.4567272653081 21.4521332697389  C 48.4567272653081 21.4521332697389  49.8339386552389 25.6537214632514  49.8339386552389 25.6537214632514  C 49.8339386552389 25.6537214632514  49.1915825965025 28.0655269765667  49.1915825965025 28.0655269765667  C 49.1915825965025 28.0655269765667  47.2054176628891 29.3819463686681  47.2054176628891 29.3819463686681  C 47.2054176628891 29.3819463686681  46.7506295733042 34.2251178617489  46.7506295733042 34.2251178617489  C 46.7506295733042 34.2251178617489  43.9139852179239 42.3495423458269  43.9139852179239 42.3495423458269  C 43.9139852179239 42.3495423458269  40.3604715009938 50.3341247508169  40.3604715009938 50.3341247508169  C 40.3604715009938 50.3341247508169  35.910228726068 61.4346894613309  35.910228726068 61.4346894613309  C 35.910228726068 61.4346894613309  33.1506670977363 69.6774700234643  33.1506670977363 69.6774700234643  C 33.1506670977363 69.6774700234643  29.8952065920598 76.6214356133013  29.8952065920598 76.6214356133013  C 29.8952065920598 76.6214356133013  22.1676832454818 78.047393617524  22.1676832454818 78.047393617524  C 22.1676832454818 78.047393617524  15.8803021425694 80.6000344892809  15.8803021425694 80.6000344892809  C 15.8803021425694 80.6000344892809  11.730682003132 79.0586697330016  11.730682003132 79.0586697330016  C 11.730682003132 79.0586697330016  6.01114365614267 76.9011502835396  6.01114365614267 76.9011502835396  C 6.01114365614267 76.9011502835396  4.02240929829447 73.7343107652451  4.02240929829447 73.7343107652451  C 4.02240929829447 73.7343107652451  3.54706581482939 68.4392924971637  3.54706581482939 68.4392924971637  C 3.54706581482939 68.4392924971637  1.01104409493795 63.7095717094943  1.01104409493795 63.7095717094943  C 1.01104409493795 63.7095717094943  0.350702066556975 59.4669065364362  0.350702066556975 59.4669065364362  C 0.350702066556975 59.4669065364362  1.6431224567347 55.2359776432482  1.6431224567347 55.2359776432482  C 1.6431224567347 55.2359776432482  4.95767971981447 54.2227454811254  4.95767971981447 54.2227454811254  C 4.95767971981447 54.2227454811254  4.97823511369425 52.2784351159715  4.97823511369425 52.2784351159715  C 4.97823511369425 52.2784351159715  8.42126358852189 47.8675499314412  8.42126358852189 47.8675499314412  C 8.42126358852189 47.8675499314412  9.07132791996276 44.1784459589249  9.07132791996276 44.1784459589249  C 9.07132791996276 44.1784459589249  7.39863274301315 41.4438927491807  7.39863274301315 41.4438927491807  C 7.39863274301315 41.4438927491807  6.03426847425726 36.394373591081  6.03426847425726 36.394373591081  C 6.03426847425726 36.394373591081  5.45871744562937 31.1169597428049  5.45871744562937 31.1169597428049  C 5.45871744562937 31.1169597428049  7.97675319587627 27.92664766477  7.97675319587627 27.92664766477  C 7.97675319587627 27.92664766477  8.94285670821573 24.319697651345  8.94285670821573 24.319697651345  C 8.94285670821573 24.319697651345  12.532342364435 24.1104006603272  12.532342364435 24.1104006603272  C 12.532342364435 24.1104006603272  16.5509218678901 22.9485089531827  16.5509218678901 22.9485089531827  C 16.5509218678901 22.9485089531827  19.2179842237638 21.9235405111897  19.2179842237638 21.9235405111897  C 19.2179842237638 21.9235405111897  22.3809454569819 21.8472546920338  22.3809454569819 21.8472546920338  C 22.3809454569819 21.8472546920338  28.3561214753273 18.6236898210336  28.3561214753273 18.6236898210336  C 28.3561214753273 18.6236898210336  34.2837831853471 15.1497509794699  34.2837831853471 15.1497509794699  C 34.2837831853471 15.1497509794699  36.4472383911715 12.3213075307645  36.4472383911715 12.3213075307645  C 36.4472383911715 12.3213075307645  35.4657183334223 9.92123829731945  35.4657183334223 9.92123829731945  C 35.4657183334223 9.92123829731945  38.5259025972429 10.596074389853  38.5259025972429 10.596074389853  C 38.5259025972429 10.596074389853  42.495663040234 6.70158551960904  42.495663040234 6.70158551960904  C 42.495663040234 6.70158551960904  42.6292731004511 3.34109738345702  42.6292731004511 3.34109738345702  C 42.6292731004511 3.34109738345702  45.0162682147157 0.847137911050763  45.0162682147157 0.847137911050763  Z " fill-rule="nonzero" fill="#f2f2f2" stroke="none" transform="matrix(1 0 0 1 2147 4409 )" />
    <path d="M 45.0162682147157 0.847137911050763  C 45.0162682147157 0.847137911050763  47.5291651164926 3.24133900456074  47.5291651164926 3.24133900456074  C 47.5291651164926 3.24133900456074  49.4408167472921 5.61793567826544  49.4408167472921 5.61793567826544  C 49.4408167472921 5.61793567826544  51.2239971663446 9.31486383736178  51.2239971663446 9.31486383736178  C 51.2239971663446 9.31486383736178  52.3853769205401 16.0769170892115  52.3853769205401 16.0769170892115  C 52.3853769205401 16.0769170892115  54.2482094908756 18.7156240133495  54.2482094908756 18.7156240133495  C 54.2482094908756 18.7156240133495  53.533909553561 21.4267046633536  53.533909553561 21.4267046633536  C 53.533909553561 21.4267046633536  52.2594751330274 23.0952124515594  52.2594751330274 23.0952124515594  C 52.2594751330274 23.0952124515594  49.8133832613591 19.777757341598  49.8133832613591 19.777757341598  C 49.8133832613591 19.777757341598  48.4567272653081 21.4521332697389  48.4567272653081 21.4521332697389  C 48.4567272653081 21.4521332697389  49.8339386552389 25.6537214632514  49.8339386552389 25.6537214632514  C 49.8339386552389 25.6537214632514  49.1915825965025 28.0655269765667  49.1915825965025 28.0655269765667  C 49.1915825965025 28.0655269765667  47.2054176628891 29.3819463686681  47.2054176628891 29.3819463686681  C 47.2054176628891 29.3819463686681  46.7506295733042 34.2251178617489  46.7506295733042 34.2251178617489  C 46.7506295733042 34.2251178617489  43.9139852179239 42.3495423458269  43.9139852179239 42.3495423458269  C 43.9139852179239 42.3495423458269  40.3604715009938 50.3341247508169  40.3604715009938 50.3341247508169  C 40.3604715009938 50.3341247508169  35.910228726068 61.4346894613309  35.910228726068 61.4346894613309  C 35.910228726068 61.4346894613309  33.1506670977363 69.6774700234643  33.1506670977363 69.6774700234643  C 33.1506670977363 69.6774700234643  29.8952065920598 76.6214356133013  29.8952065920598 76.6214356133013  C 29.8952065920598 76.6214356133013  22.1676832454818 78.047393617524  22.1676832454818 78.047393617524  C 22.1676832454818 78.047393617524  15.8803021425694 80.6000344892809  15.8803021425694 80.6000344892809  C 15.8803021425694 80.6000344892809  11.730682003132 79.0586697330016  11.730682003132 79.0586697330016  C 11.730682003132 79.0586697330016  6.01114365614267 76.9011502835396  6.01114365614267 76.9011502835396  C 6.01114365614267 76.9011502835396  4.02240929829447 73.7343107652451  4.02240929829447 73.7343107652451  C 4.02240929829447 73.7343107652451  3.54706581482939 68.4392924971637  3.54706581482939 68.4392924971637  C 3.54706581482939 68.4392924971637  1.01104409493795 63.7095717094943  1.01104409493795 63.7095717094943  C 1.01104409493795 63.7095717094943  0.350702066556975 59.4669065364362  0.350702066556975 59.4669065364362  C 0.350702066556975 59.4669065364362  1.6431224567347 55.2359776432482  1.6431224567347 55.2359776432482  C 1.6431224567347 55.2359776432482  4.95767971981447 54.2227454811254  4.95767971981447 54.2227454811254  C 4.95767971981447 54.2227454811254  4.97823511369425 52.2784351159715  4.97823511369425 52.2784351159715  C 4.97823511369425 52.2784351159715  8.42126358852189 47.8675499314412  8.42126358852189 47.8675499314412  C 8.42126358852189 47.8675499314412  9.07132791996276 44.1784459589249  9.07132791996276 44.1784459589249  C 9.07132791996276 44.1784459589249  7.39863274301315 41.4438927491807  7.39863274301315 41.4438927491807  C 7.39863274301315 41.4438927491807  6.03426847425726 36.394373591081  6.03426847425726 36.394373591081  C 6.03426847425726 36.394373591081  5.45871744562937 31.1169597428049  5.45871744562937 31.1169597428049  C 5.45871744562937 31.1169597428049  7.97675319587627 27.92664766477  7.97675319587627 27.92664766477  C 7.97675319587627 27.92664766477  8.94285670821573 24.319697651345  8.94285670821573 24.319697651345  C 8.94285670821573 24.319697651345  12.532342364435 24.1104006603272  12.532342364435 24.1104006603272  C 12.532342364435 24.1104006603272  16.5509218678901 22.9485089531827  16.5509218678901 22.9485089531827  C 16.5509218678901 22.9485089531827  19.2179842237638 21.9235405111897  19.2179842237638 21.9235405111897  C 19.2179842237638 21.9235405111897  22.3809454569819 21.8472546920338  22.3809454569819 21.8472546920338  C 22.3809454569819 21.8472546920338  28.3561214753273 18.6236898210336  28.3561214753273 18.6236898210336  C 28.3561214753273 18.6236898210336  34.2837831853471 15.1497509794699  34.2837831853471 15.1497509794699  C 34.2837831853471 15.1497509794699  36.4472383911715 12.3213075307645  36.4472383911715 12.3213075307645  C 36.4472383911715 12.3213075307645  35.4657183334223 9.92123829731945  35.4657183334223 9.92123829731945  C 35.4657183334223 9.92123829731945  38.5259025972429 10.596074389853  38.5259025972429 10.596074389853  C 38.5259025972429 10.596074389853  42.495663040234 6.70158551960904  42.495663040234 6.70158551960904  C 42.495663040234 6.70158551960904  42.6292731004511 3.34109738345702  42.6292731004511 3.34109738345702  C 42.6292731004511 3.34109738345702  45.0162682147157 0.847137911050763  45.0162682147157 0.847137911050763  Z " stroke-width="2" stroke="#505050" fill="none" stroke-opacity="0.211764705882353" transform="matrix(1 0 0 1 2147 4409 )" mask="url(#clip168)" />
  </g>
</svg>