<?xml version="1.0" encoding="utf-8"?>
<svg version="1.1" xmlns:xlink="http://www.w3.org/1999/xlink" width="20px" height="14px" xmlns="http://www.w3.org/2000/svg">
  <defs>
    <mask fill="white" id="clip169">
      <path d="M 0.412453098199008 7.91026085143183  C 0.412453098199008 7.91026085143183  1.30591197989588 4.05710306311738  1.30591197989588 4.05710306311738  C 1.30591197989588 4.05710306311738  2.19686817564996 4.11684217657989  2.19686817564996 4.11684217657989  C 2.19686817564996 4.11684217657989  2.51220660448408 2.63299968089874  2.51220660448408 2.63299968089874  C 2.51220660448408 2.63299968089874  6.65665452630575 1.50951893416861  6.65665452630575 1.50951893416861  C 6.65665452630575 1.50951893416861  8.22583861264754 1.23009404861834  8.22583861264754 1.23009404861834  C 8.22583861264754 1.23009404861834  12.4340855065179 0.806139049852345  12.4340855065179 0.806139049852345  C 12.4340855065179 0.806139049852345  15.6875772325855 0.684733754751051  15.6875772325855 0.684733754751051  C 15.6875772325855 0.684733754751051  19.2013482967387 3.01455917978809  19.2013482967387 3.01455917978809  C 19.2013482967387 3.01455917978809  19.6993827994212 9.18019877955379  19.6993827994212 9.18019877955379  C 19.6993827994212 9.18019877955379  18.3629485057903 9.41915523340376  18.3629485057903 9.41915523340376  C 18.3629485057903 9.41915523340376  17.2067076000648 10.6659683434112  17.2067076000648 10.6659683434112  C 17.2067076000648 10.6659683434112  13.4051276524517 10.5272194347241  13.4051276524517 10.5272194347241  C 13.4051276524517 10.5272194347241  8.91157456106488 12.0881446574537  8.91157456106488 12.0881446574537  C 8.91157456106488 12.0881446574537  4.32164854136648 12.7182959510741  4.32164854136648 12.7182959510741  C 4.32164854136648 12.7182959510741  1.41102478950746 10.9820075243095  1.41102478950746 10.9820075243095  C 1.41102478950746 10.9820075243095  0.412453098199008 7.91026085143183  0.412453098199008 7.91026085143183  Z " fill-rule="evenodd" />
    </mask>
  </defs>
  <g transform="matrix(1 0 0 1 -1986 -4082 )">
    <path d="M 0.412453098199008 7.91026085143183  C 0.412453098199008 7.91026085143183  1.30591197989588 4.05710306311738  1.30591197989588 4.05710306311738  C 1.30591197989588 4.05710306311738  2.19686817564996 4.11684217657989  2.19686817564996 4.11684217657989  C 2.19686817564996 4.11684217657989  2.51220660448408 2.63299968089874  2.51220660448408 2.63299968089874  C 2.51220660448408 2.63299968089874  6.65665452630575 1.50951893416861  6.65665452630575 1.50951893416861  C 6.65665452630575 1.50951893416861  8.22583861264754 1.23009404861834  8.22583861264754 1.23009404861834  C 8.22583861264754 1.23009404861834  12.4340855065179 0.806139049852345  12.4340855065179 0.806139049852345  C 12.4340855065179 0.806139049852345  15.6875772325855 0.684733754751051  15.6875772325855 0.684733754751051  C 15.6875772325855 0.684733754751051  19.2013482967387 3.01455917978809  19.2013482967387 3.01455917978809  C 19.2013482967387 3.01455917978809  19.6993827994212 9.18019877955379  19.6993827994212 9.18019877955379  C 19.6993827994212 9.18019877955379  18.3629485057903 9.41915523340376  18.3629485057903 9.41915523340376  C 18.3629485057903 9.41915523340376  17.2067076000648 10.6659683434112  17.2067076000648 10.6659683434112  C 17.2067076000648 10.6659683434112  13.4051276524517 10.5272194347241  13.4051276524517 10.5272194347241  C 13.4051276524517 10.5272194347241  8.91157456106488 12.0881446574537  8.91157456106488 12.0881446574537  C 8.91157456106488 12.0881446574537  4.32164854136648 12.7182959510741  4.32164854136648 12.7182959510741  C 4.32164854136648 12.7182959510741  1.41102478950746 10.9820075243095  1.41102478950746 10.9820075243095  C 1.41102478950746 10.9820075243095  0.412453098199008 7.91026085143183  0.412453098199008 7.91026085143183  Z " fill-rule="nonzero" fill="#f2f2f2" stroke="none" transform="matrix(1 0 0 1 1986 4082 )" />
    <path d="M 0.412453098199008 7.91026085143183  C 0.412453098199008 7.91026085143183  1.30591197989588 4.05710306311738  1.30591197989588 4.05710306311738  C 1.30591197989588 4.05710306311738  2.19686817564996 4.11684217657989  2.19686817564996 4.11684217657989  C 2.19686817564996 4.11684217657989  2.51220660448408 2.63299968089874  2.51220660448408 2.63299968089874  C 2.51220660448408 2.63299968089874  6.65665452630575 1.50951893416861  6.65665452630575 1.50951893416861  C 6.65665452630575 1.50951893416861  8.22583861264754 1.23009404861834  8.22583861264754 1.23009404861834  C 8.22583861264754 1.23009404861834  12.4340855065179 0.806139049852345  12.4340855065179 0.806139049852345  C 12.4340855065179 0.806139049852345  15.6875772325855 0.684733754751051  15.6875772325855 0.684733754751051  C 15.6875772325855 0.684733754751051  19.2013482967387 3.01455917978809  19.2013482967387 3.01455917978809  C 19.2013482967387 3.01455917978809  19.6993827994212 9.18019877955379  19.6993827994212 9.18019877955379  C 19.6993827994212 9.18019877955379  18.3629485057903 9.41915523340376  18.3629485057903 9.41915523340376  C 18.3629485057903 9.41915523340376  17.2067076000648 10.6659683434112  17.2067076000648 10.6659683434112  C 17.2067076000648 10.6659683434112  13.4051276524517 10.5272194347241  13.4051276524517 10.5272194347241  C 13.4051276524517 10.5272194347241  8.91157456106488 12.0881446574537  8.91157456106488 12.0881446574537  C 8.91157456106488 12.0881446574537  4.32164854136648 12.7182959510741  4.32164854136648 12.7182959510741  C 4.32164854136648 12.7182959510741  1.41102478950746 10.9820075243095  1.41102478950746 10.9820075243095  C 1.41102478950746 10.9820075243095  0.412453098199008 7.91026085143183  0.412453098199008 7.91026085143183  Z " stroke-width="2" stroke="#505050" fill="none" stroke-opacity="0.211764705882353" transform="matrix(1 0 0 1 1986 4082 )" mask="url(#clip169)" />
  </g>
</svg>