<?xml version="1.0" encoding="utf-8"?>
<svg version="1.1" xmlns:xlink="http://www.w3.org/1999/xlink" width="119px" height="89px" xmlns="http://www.w3.org/2000/svg">
  <defs>
    <mask fill="white" id="clip170">
      <path d="M 0.833674101019205 65.8747914431276  C 0.833674101019205 65.8747914431276  0.511112535524454 62.3398868108209  0.511112535524454 62.3398868108209  C 0.511112535524454 62.3398868108209  2.89000408104824 61.3025335788695  2.89000408104824 61.3025335788695  C 2.89000408104824 61.3025335788695  4.07692984157962 57.9434850182649  4.07692984157962 57.9434850182649  C 4.07692984157962 57.9434850182649  6.31722071442975 57.8130748976769  6.31722071442975 57.8130748976769  C 6.31722071442975 57.8130748976769  11.2514046616069 59.4017072757511  11.2514046616069 59.4017072757511  C 11.2514046616069 59.4017072757511  15.2355439979129 58.2734621415716  15.2355439979129 58.2734621415716  C 15.2355439979129 58.2734621415716  17.9672372556965 58.6508611269099  17.9672372556965 58.6508611269099  C 17.9672372556965 58.6508611269099  19.0281624047063 57.3823263175523  19.0281624047063 57.3823263175523  C 19.0281624047063 57.3823263175523  47.3782999970166 57.2953862371601  47.3782999970166 57.2953862371601  C 47.3782999970166 57.2953862371601  48.9507876288035 53.2882388954508  48.9507876288035 53.2882388954508  C 48.9507876288035 53.2882388954508  47.7260616848156 52.5808627868057  47.7260616848156 52.5808627868057  C 47.7260616848156 52.5808627868057  44.3164851370472 26.0809489209745  44.3164851370472 26.0809489209745  C 44.3164851370472 26.0809489209745  40.9069085892786 0.283455975531894  40.9069085892786 0.283455975531894  C 40.9069085892786 0.283455975531894  51.7202810700434 0.172804964123902  51.7202810700434 0.172804964123902  C 51.7202810700434 0.172804964123902  77.3853259761965 13.3205162125136  77.3853259761965 13.3205162125136  C 77.3853259761965 13.3205162125136  101.219601651581 26.2568049926768  101.219601651581 26.2568049926768  C 101.219601651581 26.2568049926768  102.900449809276 29.0092489014545  102.900449809276 29.0092489014545  C 102.900449809276 29.0092489014545  107.297871151372 30.6867972708388  107.297871151372 30.6867972708388  C 107.297871151372 30.6867972708388  110.571367038698 31.637210422398  110.571367038698 31.637210422398  C 110.571367038698 31.637210422398  110.652007430071 35.3519229482431  110.652007430071 35.3519229482431  C 110.652007430071 35.3519229482431  118.489245466701 34.7808846929404  118.489245466701 34.7808846929404  C 118.489245466701 34.7808846929404  118.509405564544 49.5537672604257  118.509405564544 49.5537672604257  C 118.509405564544 49.5537672604257  114.646226815299 53.3890103522689  114.646226815299 53.3890103522689  C 114.646226815299 53.3890103522689  114.043943892227 56.9160113409036  114.043943892227 56.9160113409036  C 114.043943892227 56.9160113409036  107.766593426232 57.822954452267  107.766593426232 57.822954452267  C 107.766593426232 57.822954452267  98.1275466448461 58.3129803599316  98.1275466448461 58.3129803599316  C 98.1275466448461 58.3129803599316  95.5142939618927 60.3382890508843  95.5142939618927 60.3382890508843  C 95.5142939618927 60.3382890508843  90.9858319838141 60.5635428955364  90.9858319838141 60.5635428955364  C 90.9858319838141 60.5635428955364  86.4548499935054 60.5892297374704  86.4548499935054 60.5892297374704  C 86.4548499935054 60.5892297374704  84.6933614444366 59.4965509998152  84.6933614444366 59.4965509998152  C 84.6933614444366 59.4965509998152  80.8024625606564 60.3066744761963  80.8024625606564 60.3066744761963  C 80.8024625606564 60.3066744761963  74.200030516936 62.6698639341273  74.200030516936 62.6698639341273  C 74.200030516936 62.6698639341273  72.849303961427 64.4462078494118  72.849303961427 64.4462078494118  C 72.849303961427 64.4462078494118  67.3682773602469 66.9892052008814  67.3682773602469 66.9892052008814  C 67.3682773602469 66.9892052008814  66.408152700454 68.445451547449  66.408152700454 68.445451547449  C 66.408152700454 68.445451547449  63.4446183174712 69.5974076126445  63.4446183174712 69.5974076126445  C 63.4446183174712 69.5974076126445  58.1992325144726 68.8347059982957  58.1992325144726 68.8347059982957  C 58.1992325144726 68.8347059982957  56.2613431092738 70.2158677299795  56.2613431092738 70.2158677299795  C 56.2613431092738 70.2158677299795  55.2256180825681 74.0886531292647  55.2256180825681 74.0886531292647  C 55.2256180825681 74.0886531292647  49.6160708576363 78.753778806669  49.6160708576363 78.753778806669  C 49.6160708576363 78.753778806669  49.7798716526141 80.6565810207054  49.7798716526141 80.6565810207054  C 49.7798716526141 80.6565810207054  47.8520622963369 83.0355777659806  47.8520622963369 83.0355777659806  C 47.8520622963369 83.0355777659806  48.3207845711967 86.2879271370131  48.3207845711967 86.2879271370131  C 48.3207845711967 86.2879271370131  45.4051304205918 87.1158338116563  45.4051304205918 87.1158338116563  C 45.4051304205918 87.1158338116563  43.7570424218922 87.8212340093831  43.7570424218922 87.8212340093831  C 43.7570424218922 87.8212340093831  42.6608371016561 85.4284058876818  42.6608371016561 85.4284058876818  C 42.6608371016561 85.4284058876818  40.6221472072404 86.0606973814427  40.6221472072404 86.0606973814427  C 40.6221472072404 86.0606973814427  39.4024612877133 85.9500463700347  39.4024612877133 85.9500463700347  C 39.4024612877133 85.9500463700347  38.1021349768127 87.5841246992229  38.1021349768127 87.5841246992229  C 38.1021349768127 87.5841246992229  32.6463084979371 87.5386787481086  32.6463084979371 87.5386787481086  C 32.6463084979371 87.5386787481086  30.6907790071252 86.6969406970398  30.6907790071252 86.6969406970398  C 30.6907790071252 86.6969406970398  29.7684545307888 87.2067257138843  29.7684545307888 87.2067257138843  C 29.7684545307888 87.2067257138843  27.6113240615428 85.5924064938761  27.6113240615428 85.5924064938761  C 27.6113240615428 85.5924064938761  27.984285871646 83.924737679082  27.984285871646 83.924737679082  C 27.984285871646 83.924737679082  27.1022815909965 83.2707111652229  27.1022815909965 83.2707111652229  C 27.1022815909965 83.2707111652229  25.5978342894311 83.8219903113459  25.5978342894311 83.8219903113459  C 25.5978342894311 83.8219903113459  25.8725156225477 81.9982245340292  25.8725156225477 81.9982245340292  C 25.8725156225477 81.9982245340292  27.3215226550436 80.5538336529693  27.3215226550436 80.5538336529693  C 27.3215226550436 80.5538336529693  24.4260286022822 78.2005237496281  24.4260286022822 78.2005237496281  C 24.4260286022822 78.2005237496281  23.5843445173195 76.6474577680781  23.5843445173195 76.6474577680781  C 23.5843445173195 76.6474577680781  22.0143768977631 75.4105375334086  22.0143768977631 75.4105375334086  C 22.0143768977631 75.4105375334086  20.6006500364932 75.2623442145582  20.6006500364932 75.2623442145582  C 20.6006500364932 75.2623442145582  18.902161793185 76.0507326708414  18.902161793185 76.0507326708414  C 18.902161793185 76.0507326708414  16.6190307124175 76.8055306415183  16.6190307124175 76.8055306415183  C 16.6190307124175 76.8055306415183  14.6811413072187 78.0226917670079  14.6811413072187 78.0226917670079  C 14.6811413072187 78.0226917670079  11.6571266307056 77.5721840777033  11.6571266307056 77.5721840777033  C 11.6571266307056 77.5721840777033  9.69655711543311 76.1436004839873  9.69655711543311 76.1436004839873  C 9.69655711543311 76.1436004839873  8.52475142828414 75.9558889467773  8.52475142828414 75.9558889467773  C 8.52475142828414 75.9558889467773  6.68010247561134 76.7067350956184  6.68010247561134 76.7067350956184  C 6.68010247561134 76.7067350956184  5.55869703307082 76.7126628283721  5.55869703307082 76.7126628283721  C 5.55869703307082 76.7126628283721  5.15297506397229 74.6498118299776  5.15297506397229 74.6498118299776  C 5.15297506397229 74.6498118299776  5.47805664169734 72.8932270238731  5.47805664169734 72.8932270238731  C 5.47805664169734 72.8932270238731  4.87325370639468 70.7078695485622  4.87325370639468 70.7078695485622  C 4.87325370639468 70.7078695485622  2.22976087667612 69.1192371704881  2.22976087667612 69.1192371704881  C 2.22976087667612 69.1192371704881  0.833674101019205 65.8747914431276  0.833674101019205 65.8747914431276  Z " fill-rule="evenodd" />
    </mask>
  </defs>
  <g transform="matrix(1 0 0 1 -1752 -4200 )">
    <path d="M 0.833674101019205 65.8747914431276  C 0.833674101019205 65.8747914431276  0.511112535524454 62.3398868108209  0.511112535524454 62.3398868108209  C 0.511112535524454 62.3398868108209  2.89000408104824 61.3025335788695  2.89000408104824 61.3025335788695  C 2.89000408104824 61.3025335788695  4.07692984157962 57.9434850182649  4.07692984157962 57.9434850182649  C 4.07692984157962 57.9434850182649  6.31722071442975 57.8130748976769  6.31722071442975 57.8130748976769  C 6.31722071442975 57.8130748976769  11.2514046616069 59.4017072757511  11.2514046616069 59.4017072757511  C 11.2514046616069 59.4017072757511  15.2355439979129 58.2734621415716  15.2355439979129 58.2734621415716  C 15.2355439979129 58.2734621415716  17.9672372556965 58.6508611269099  17.9672372556965 58.6508611269099  C 17.9672372556965 58.6508611269099  19.0281624047063 57.3823263175523  19.0281624047063 57.3823263175523  C 19.0281624047063 57.3823263175523  47.3782999970166 57.2953862371601  47.3782999970166 57.2953862371601  C 47.3782999970166 57.2953862371601  48.9507876288035 53.2882388954508  48.9507876288035 53.2882388954508  C 48.9507876288035 53.2882388954508  47.7260616848156 52.5808627868057  47.7260616848156 52.5808627868057  C 47.7260616848156 52.5808627868057  44.3164851370472 26.0809489209745  44.3164851370472 26.0809489209745  C 44.3164851370472 26.0809489209745  40.9069085892786 0.283455975531894  40.9069085892786 0.283455975531894  C 40.9069085892786 0.283455975531894  51.7202810700434 0.172804964123902  51.7202810700434 0.172804964123902  C 51.7202810700434 0.172804964123902  77.3853259761965 13.3205162125136  77.3853259761965 13.3205162125136  C 77.3853259761965 13.3205162125136  101.219601651581 26.2568049926768  101.219601651581 26.2568049926768  C 101.219601651581 26.2568049926768  102.900449809276 29.0092489014545  102.900449809276 29.0092489014545  C 102.900449809276 29.0092489014545  107.297871151372 30.6867972708388  107.297871151372 30.6867972708388  C 107.297871151372 30.6867972708388  110.571367038698 31.637210422398  110.571367038698 31.637210422398  C 110.571367038698 31.637210422398  110.652007430071 35.3519229482431  110.652007430071 35.3519229482431  C 110.652007430071 35.3519229482431  118.489245466701 34.7808846929404  118.489245466701 34.7808846929404  C 118.489245466701 34.7808846929404  118.509405564544 49.5537672604257  118.509405564544 49.5537672604257  C 118.509405564544 49.5537672604257  114.646226815299 53.3890103522689  114.646226815299 53.3890103522689  C 114.646226815299 53.3890103522689  114.043943892227 56.9160113409036  114.043943892227 56.9160113409036  C 114.043943892227 56.9160113409036  107.766593426232 57.822954452267  107.766593426232 57.822954452267  C 107.766593426232 57.822954452267  98.1275466448461 58.3129803599316  98.1275466448461 58.3129803599316  C 98.1275466448461 58.3129803599316  95.5142939618927 60.3382890508843  95.5142939618927 60.3382890508843  C 95.5142939618927 60.3382890508843  90.9858319838141 60.5635428955364  90.9858319838141 60.5635428955364  C 90.9858319838141 60.5635428955364  86.4548499935054 60.5892297374704  86.4548499935054 60.5892297374704  C 86.4548499935054 60.5892297374704  84.6933614444366 59.4965509998152  84.6933614444366 59.4965509998152  C 84.6933614444366 59.4965509998152  80.8024625606564 60.3066744761963  80.8024625606564 60.3066744761963  C 80.8024625606564 60.3066744761963  74.200030516936 62.6698639341273  74.200030516936 62.6698639341273  C 74.200030516936 62.6698639341273  72.849303961427 64.4462078494118  72.849303961427 64.4462078494118  C 72.849303961427 64.4462078494118  67.3682773602469 66.9892052008814  67.3682773602469 66.9892052008814  C 67.3682773602469 66.9892052008814  66.408152700454 68.445451547449  66.408152700454 68.445451547449  C 66.408152700454 68.445451547449  63.4446183174712 69.5974076126445  63.4446183174712 69.5974076126445  C 63.4446183174712 69.5974076126445  58.1992325144726 68.8347059982957  58.1992325144726 68.8347059982957  C 58.1992325144726 68.8347059982957  56.2613431092738 70.2158677299795  56.2613431092738 70.2158677299795  C 56.2613431092738 70.2158677299795  55.2256180825681 74.0886531292647  55.2256180825681 74.0886531292647  C 55.2256180825681 74.0886531292647  49.6160708576363 78.753778806669  49.6160708576363 78.753778806669  C 49.6160708576363 78.753778806669  49.7798716526141 80.6565810207054  49.7798716526141 80.6565810207054  C 49.7798716526141 80.6565810207054  47.8520622963369 83.0355777659806  47.8520622963369 83.0355777659806  C 47.8520622963369 83.0355777659806  48.3207845711967 86.2879271370131  48.3207845711967 86.2879271370131  C 48.3207845711967 86.2879271370131  45.4051304205918 87.1158338116563  45.4051304205918 87.1158338116563  C 45.4051304205918 87.1158338116563  43.7570424218922 87.8212340093831  43.7570424218922 87.8212340093831  C 43.7570424218922 87.8212340093831  42.6608371016561 85.4284058876818  42.6608371016561 85.4284058876818  C 42.6608371016561 85.4284058876818  40.6221472072404 86.0606973814427  40.6221472072404 86.0606973814427  C 40.6221472072404 86.0606973814427  39.4024612877133 85.9500463700347  39.4024612877133 85.9500463700347  C 39.4024612877133 85.9500463700347  38.1021349768127 87.5841246992229  38.1021349768127 87.5841246992229  C 38.1021349768127 87.5841246992229  32.6463084979371 87.5386787481086  32.6463084979371 87.5386787481086  C 32.6463084979371 87.5386787481086  30.6907790071252 86.6969406970398  30.6907790071252 86.6969406970398  C 30.6907790071252 86.6969406970398  29.7684545307888 87.2067257138843  29.7684545307888 87.2067257138843  C 29.7684545307888 87.2067257138843  27.6113240615428 85.5924064938761  27.6113240615428 85.5924064938761  C 27.6113240615428 85.5924064938761  27.984285871646 83.924737679082  27.984285871646 83.924737679082  C 27.984285871646 83.924737679082  27.1022815909965 83.2707111652229  27.1022815909965 83.2707111652229  C 27.1022815909965 83.2707111652229  25.5978342894311 83.8219903113459  25.5978342894311 83.8219903113459  C 25.5978342894311 83.8219903113459  25.8725156225477 81.9982245340292  25.8725156225477 81.9982245340292  C 25.8725156225477 81.9982245340292  27.3215226550436 80.5538336529693  27.3215226550436 80.5538336529693  C 27.3215226550436 80.5538336529693  24.4260286022822 78.2005237496281  24.4260286022822 78.2005237496281  C 24.4260286022822 78.2005237496281  23.5843445173195 76.6474577680781  23.5843445173195 76.6474577680781  C 23.5843445173195 76.6474577680781  22.0143768977631 75.4105375334086  22.0143768977631 75.4105375334086  C 22.0143768977631 75.4105375334086  20.6006500364932 75.2623442145582  20.6006500364932 75.2623442145582  C 20.6006500364932 75.2623442145582  18.902161793185 76.0507326708414  18.902161793185 76.0507326708414  C 18.902161793185 76.0507326708414  16.6190307124175 76.8055306415183  16.6190307124175 76.8055306415183  C 16.6190307124175 76.8055306415183  14.6811413072187 78.0226917670079  14.6811413072187 78.0226917670079  C 14.6811413072187 78.0226917670079  11.6571266307056 77.5721840777033  11.6571266307056 77.5721840777033  C 11.6571266307056 77.5721840777033  9.69655711543311 76.1436004839873  9.69655711543311 76.1436004839873  C 9.69655711543311 76.1436004839873  8.52475142828414 75.9558889467773  8.52475142828414 75.9558889467773  C 8.52475142828414 75.9558889467773  6.68010247561134 76.7067350956184  6.68010247561134 76.7067350956184  C 6.68010247561134 76.7067350956184  5.55869703307082 76.7126628283721  5.55869703307082 76.7126628283721  C 5.55869703307082 76.7126628283721  5.15297506397229 74.6498118299776  5.15297506397229 74.6498118299776  C 5.15297506397229 74.6498118299776  5.47805664169734 72.8932270238731  5.47805664169734 72.8932270238731  C 5.47805664169734 72.8932270238731  4.87325370639468 70.7078695485622  4.87325370639468 70.7078695485622  C 4.87325370639468 70.7078695485622  2.22976087667612 69.1192371704881  2.22976087667612 69.1192371704881  C 2.22976087667612 69.1192371704881  0.833674101019205 65.8747914431276  0.833674101019205 65.8747914431276  Z " fill-rule="nonzero" fill="#f2f2f2" stroke="none" transform="matrix(1 0 0 1 1752 4200 )" />
    <path d="M 0.833674101019205 65.8747914431276  C 0.833674101019205 65.8747914431276  0.511112535524454 62.3398868108209  0.511112535524454 62.3398868108209  C 0.511112535524454 62.3398868108209  2.89000408104824 61.3025335788695  2.89000408104824 61.3025335788695  C 2.89000408104824 61.3025335788695  4.07692984157962 57.9434850182649  4.07692984157962 57.9434850182649  C 4.07692984157962 57.9434850182649  6.31722071442975 57.8130748976769  6.31722071442975 57.8130748976769  C 6.31722071442975 57.8130748976769  11.2514046616069 59.4017072757511  11.2514046616069 59.4017072757511  C 11.2514046616069 59.4017072757511  15.2355439979129 58.2734621415716  15.2355439979129 58.2734621415716  C 15.2355439979129 58.2734621415716  17.9672372556965 58.6508611269099  17.9672372556965 58.6508611269099  C 17.9672372556965 58.6508611269099  19.0281624047063 57.3823263175523  19.0281624047063 57.3823263175523  C 19.0281624047063 57.3823263175523  47.3782999970166 57.2953862371601  47.3782999970166 57.2953862371601  C 47.3782999970166 57.2953862371601  48.9507876288035 53.2882388954508  48.9507876288035 53.2882388954508  C 48.9507876288035 53.2882388954508  47.7260616848156 52.5808627868057  47.7260616848156 52.5808627868057  C 47.7260616848156 52.5808627868057  44.3164851370472 26.0809489209745  44.3164851370472 26.0809489209745  C 44.3164851370472 26.0809489209745  40.9069085892786 0.283455975531894  40.9069085892786 0.283455975531894  C 40.9069085892786 0.283455975531894  51.7202810700434 0.172804964123902  51.7202810700434 0.172804964123902  C 51.7202810700434 0.172804964123902  77.3853259761965 13.3205162125136  77.3853259761965 13.3205162125136  C 77.3853259761965 13.3205162125136  101.219601651581 26.2568049926768  101.219601651581 26.2568049926768  C 101.219601651581 26.2568049926768  102.900449809276 29.0092489014545  102.900449809276 29.0092489014545  C 102.900449809276 29.0092489014545  107.297871151372 30.6867972708388  107.297871151372 30.6867972708388  C 107.297871151372 30.6867972708388  110.571367038698 31.637210422398  110.571367038698 31.637210422398  C 110.571367038698 31.637210422398  110.652007430071 35.3519229482431  110.652007430071 35.3519229482431  C 110.652007430071 35.3519229482431  118.489245466701 34.7808846929404  118.489245466701 34.7808846929404  C 118.489245466701 34.7808846929404  118.509405564544 49.5537672604257  118.509405564544 49.5537672604257  C 118.509405564544 49.5537672604257  114.646226815299 53.3890103522689  114.646226815299 53.3890103522689  C 114.646226815299 53.3890103522689  114.043943892227 56.9160113409036  114.043943892227 56.9160113409036  C 114.043943892227 56.9160113409036  107.766593426232 57.822954452267  107.766593426232 57.822954452267  C 107.766593426232 57.822954452267  98.1275466448461 58.3129803599316  98.1275466448461 58.3129803599316  C 98.1275466448461 58.3129803599316  95.5142939618927 60.3382890508843  95.5142939618927 60.3382890508843  C 95.5142939618927 60.3382890508843  90.9858319838141 60.5635428955364  90.9858319838141 60.5635428955364  C 90.9858319838141 60.5635428955364  86.4548499935054 60.5892297374704  86.4548499935054 60.5892297374704  C 86.4548499935054 60.5892297374704  84.6933614444366 59.4965509998152  84.6933614444366 59.4965509998152  C 84.6933614444366 59.4965509998152  80.8024625606564 60.3066744761963  80.8024625606564 60.3066744761963  C 80.8024625606564 60.3066744761963  74.200030516936 62.6698639341273  74.200030516936 62.6698639341273  C 74.200030516936 62.6698639341273  72.849303961427 64.4462078494118  72.849303961427 64.4462078494118  C 72.849303961427 64.4462078494118  67.3682773602469 66.9892052008814  67.3682773602469 66.9892052008814  C 67.3682773602469 66.9892052008814  66.408152700454 68.445451547449  66.408152700454 68.445451547449  C 66.408152700454 68.445451547449  63.4446183174712 69.5974076126445  63.4446183174712 69.5974076126445  C 63.4446183174712 69.5974076126445  58.1992325144726 68.8347059982957  58.1992325144726 68.8347059982957  C 58.1992325144726 68.8347059982957  56.2613431092738 70.2158677299795  56.2613431092738 70.2158677299795  C 56.2613431092738 70.2158677299795  55.2256180825681 74.0886531292647  55.2256180825681 74.0886531292647  C 55.2256180825681 74.0886531292647  49.6160708576363 78.753778806669  49.6160708576363 78.753778806669  C 49.6160708576363 78.753778806669  49.7798716526141 80.6565810207054  49.7798716526141 80.6565810207054  C 49.7798716526141 80.6565810207054  47.8520622963369 83.0355777659806  47.8520622963369 83.0355777659806  C 47.8520622963369 83.0355777659806  48.3207845711967 86.2879271370131  48.3207845711967 86.2879271370131  C 48.3207845711967 86.2879271370131  45.4051304205918 87.1158338116563  45.4051304205918 87.1158338116563  C 45.4051304205918 87.1158338116563  43.7570424218922 87.8212340093831  43.7570424218922 87.8212340093831  C 43.7570424218922 87.8212340093831  42.6608371016561 85.4284058876818  42.6608371016561 85.4284058876818  C 42.6608371016561 85.4284058876818  40.6221472072404 86.0606973814427  40.6221472072404 86.0606973814427  C 40.6221472072404 86.0606973814427  39.4024612877133 85.9500463700347  39.4024612877133 85.9500463700347  C 39.4024612877133 85.9500463700347  38.1021349768127 87.5841246992229  38.1021349768127 87.5841246992229  C 38.1021349768127 87.5841246992229  32.6463084979371 87.5386787481086  32.6463084979371 87.5386787481086  C 32.6463084979371 87.5386787481086  30.6907790071252 86.6969406970398  30.6907790071252 86.6969406970398  C 30.6907790071252 86.6969406970398  29.7684545307888 87.2067257138843  29.7684545307888 87.2067257138843  C 29.7684545307888 87.2067257138843  27.6113240615428 85.5924064938761  27.6113240615428 85.5924064938761  C 27.6113240615428 85.5924064938761  27.984285871646 83.924737679082  27.984285871646 83.924737679082  C 27.984285871646 83.924737679082  27.1022815909965 83.2707111652229  27.1022815909965 83.2707111652229  C 27.1022815909965 83.2707111652229  25.5978342894311 83.8219903113459  25.5978342894311 83.8219903113459  C 25.5978342894311 83.8219903113459  25.8725156225477 81.9982245340292  25.8725156225477 81.9982245340292  C 25.8725156225477 81.9982245340292  27.3215226550436 80.5538336529693  27.3215226550436 80.5538336529693  C 27.3215226550436 80.5538336529693  24.4260286022822 78.2005237496281  24.4260286022822 78.2005237496281  C 24.4260286022822 78.2005237496281  23.5843445173195 76.6474577680781  23.5843445173195 76.6474577680781  C 23.5843445173195 76.6474577680781  22.0143768977631 75.4105375334086  22.0143768977631 75.4105375334086  C 22.0143768977631 75.4105375334086  20.6006500364932 75.2623442145582  20.6006500364932 75.2623442145582  C 20.6006500364932 75.2623442145582  18.902161793185 76.0507326708414  18.902161793185 76.0507326708414  C 18.902161793185 76.0507326708414  16.6190307124175 76.8055306415183  16.6190307124175 76.8055306415183  C 16.6190307124175 76.8055306415183  14.6811413072187 78.0226917670079  14.6811413072187 78.0226917670079  C 14.6811413072187 78.0226917670079  11.6571266307056 77.5721840777033  11.6571266307056 77.5721840777033  C 11.6571266307056 77.5721840777033  9.69655711543311 76.1436004839873  9.69655711543311 76.1436004839873  C 9.69655711543311 76.1436004839873  8.52475142828414 75.9558889467773  8.52475142828414 75.9558889467773  C 8.52475142828414 75.9558889467773  6.68010247561134 76.7067350956184  6.68010247561134 76.7067350956184  C 6.68010247561134 76.7067350956184  5.55869703307082 76.7126628283721  5.55869703307082 76.7126628283721  C 5.55869703307082 76.7126628283721  5.15297506397229 74.6498118299776  5.15297506397229 74.6498118299776  C 5.15297506397229 74.6498118299776  5.47805664169734 72.8932270238731  5.47805664169734 72.8932270238731  C 5.47805664169734 72.8932270238731  4.87325370639468 70.7078695485622  4.87325370639468 70.7078695485622  C 4.87325370639468 70.7078695485622  2.22976087667612 69.1192371704881  2.22976087667612 69.1192371704881  C 2.22976087667612 69.1192371704881  0.833674101019205 65.8747914431276  0.833674101019205 65.8747914431276  Z " stroke-width="2" stroke="#505050" fill="none" stroke-opacity="0.211764705882353" transform="matrix(1 0 0 1 1752 4200 )" mask="url(#clip170)" />
  </g>
</svg>