<?xml version="1.0" encoding="utf-8"?>
<svg version="1.1" xmlns:xlink="http://www.w3.org/1999/xlink" width="87px" height="81px" xmlns="http://www.w3.org/2000/svg">
  <defs>
    <mask fill="white" id="clip21">
      <path d="M 59.6407779778258 68.7486445101944  C 59.6407779778258 68.7486445101944  65.0679056941382 68.1314419348803  65.0679056941382 68.1314419348803  C 65.0679056941382 68.1314419348803  62.4944789366379 73.6723282803603  62.4944789366379 73.6723282803603  C 62.4944789366379 73.6723282803603  63.5620688489077 77.2829478174866  63.5620688489077 77.2829478174866  C 63.5620688489077 77.2829478174866  62.0638758455315 80.8567498261595  62.0638758455315 80.8567498261595  C 62.0638758455315 80.8567498261595  56.5985289199494 78.2425982732974  56.5985289199494 78.2425982732974  C 56.5985289199494 78.2425982732974  51.1140922622457 77.4920003026736  51.1140922622457 77.4920003026736  C 51.1140922622457 77.4920003026736  41.1414265901115 72.4896885070168  41.1414265901115 72.4896885070168  C 41.1414265901115 72.4896885070168  42.1427698729803 68.8740760013065  42.1427698729803 68.8740760013065  C 42.1427698729803 68.8740760013065  50.5025849139288 69.5191522413122  50.5025849139288 69.5191522413122  C 50.5025849139288 69.5191522413122  59.6407779778258 68.7486445101944  59.6407779778258 68.7486445101944  Z M 14.5612405166042 48.8787035371828  C 14.5612405166042 48.8787035371828  19.9870743867606 46.5930630324717  19.9870743867606 46.5930630324717  C 19.9870743867606 46.5930630324717  24.2727217195481 51.8134022339984  24.2727217195481 51.8134022339984  C 24.2727217195481 51.8134022339984  23.2688304893945 62.83841657909  23.2688304893945 62.83841657909  C 23.2688304893945 62.83841657909  20.0201977014613 62.3844740398268  20.0201977014613 62.3844740398268  C 20.0201977014613 62.3844740398268  15.2542821780303 64.7756362751562  15.2542821780303 64.7756362751562  C 15.2542821780303 64.7756362751562  12.5483621617281 62.8762451240287  12.5483621617281 62.8762451240287  C 12.5483621617281 62.8762451240287  12.2629920658467 52.7013775520307  12.2629920658467 52.7013775520307  C 12.2629920658467 52.7013775520307  10.6323058036684 48.5103729680438  10.6323058036684 48.5103729680438  C 10.6323058036684 48.5103729680438  14.5612405166042 48.8787035371828  14.5612405166042 48.8787035371828  Z M 39.1565756553659 0.736902662692211  C 39.1565756553659 0.736902662692211  40.7566865501286 3.57404353308728  40.7566865501286 3.57404353308728  C 40.7566865501286 3.57404353308728  52.8250189913774 5.66655936100661  52.8250189913774 5.66655936100661  C 52.8250189913774 5.66655936100661  52.0504430168427 9.63059267536183  52.0504430168427 9.63059267536183  C 52.0504430168427 9.63059267536183  53.7601156448455 13.0291887916875  53.7601156448455 13.0291887916875  C 53.7601156448455 13.0291887916875  48.0730973054986 11.8684497548873  48.0730973054986 11.8684497548873  C 48.0730973054986 11.8684497548873  40.4127136667009 14.689662816887  40.4127136667009 14.689662816887  C 40.4127136667009 14.689662816887  40.8076454958222 18.6039217300073  40.8076454958222 18.6039217300073  C 40.8076454958222 18.6039217300073  39.9336995771858 20.8358058813846  39.9336995771858 20.8358058813846  C 39.9336995771858 20.8358058813846  42.2752631317826 24.795857243641  42.2752631317826 24.795857243641  C 42.2752631317826 24.795857243641  50.8248803729243 28.6802515160203  50.8248803729243 28.6802515160203  C 50.8248803729243 28.6802515160203  54.417486044286 34.9856726644699  54.417486044286 34.9856726644699  C 54.417486044286 34.9856726644699  62.3670815724053 42.4986052584201  62.3670815724053 42.4986052584201  C 62.3670815724053 42.4986052584201  67.9649217567895 42.4528128092838  67.9649217567895 42.4528128092838  C 67.9649217567895 42.4528128092838  69.7051697522079 44.1033319542365  69.7051697522079 44.1033319542365  C 69.7051697522079 44.1033319542365  67.6999352391855 45.5866091110394  67.6999352391855 45.5866091110394  C 67.6999352391855 45.5866091110394  74.0978308709507 48.2644718974824  74.0978308709507 48.2644718974824  C 74.0978308709507 48.2644718974824  79.3440543300526 50.4943650728103  79.3440543300526 50.4943650728103  C 79.3440543300526 50.4943650728103  85.4693196023598 54.3150481116088  85.4693196023598 54.3150481116088  C 85.4693196023598 54.3150481116088  86.2107722621943 55.6748847533489  86.2107722621943 55.6748847533489  C 86.2107722621943 55.6748847533489  84.8756478850356 58.2750994738652  84.8756478850356 58.2750994738652  C 84.8756478850356 58.2750994738652  80.9110419101146 54.8824762856877  80.9110419101146 54.8824762856877  C 80.9110419101146 54.8824762856877  74.7042423246982 53.6819177278995  74.7042423246982 53.6819177278995  C 74.7042423246982 53.6819177278995  71.697664528807 58.3846031565822  71.697664528807 58.3846031565822  C 71.697664528807 58.3846031565822  76.8598057275152 61.0604749669757  76.8598057275152 61.0604749669757  C 76.8598057275152 61.0604749669757  76.0113392817255 64.8015189637982  76.0113392817255 64.8015189637982  C 76.0113392817255 64.8015189637982  73.027693011396 65.2255968623205  73.027693011396 65.2255968623205  C 73.027693011396 65.2255968623205  69.2108679789847 71.3120106453361  69.2108679789847 71.3120106453361  C 69.2108679789847 71.3120106453361  66.2348655505092 71.8535561307729  66.2348655505092 71.8535561307729  C 66.2348655505092 71.8535561307729  66.2628929706402 69.6953380932234  66.2628929706402 69.6953380932234  C 66.2628929706402 69.6953380932234  67.7203188174621 65.8866009107212  67.7203188174621 65.8866009107212  C 67.7203188174621 65.8866009107212  69.2720187138163 64.3615132568808  69.2720187138163 64.3615132568808  C 69.2720187138163 64.3615132568808  66.4820164371205 60.2003733136351  66.4820164371205 60.2003733136351  C 66.4820164371205 60.2003733136351  64.3035215087415 56.5509142150848  64.3035215087415 56.5509142150848  C 64.3035215087415 56.5509142150848  61.3377108694048 55.645020112608  61.3377108694048 55.645020112608  C 61.3377108694048 55.645020112608  59.2280105177115 52.4933050264078  59.2280105177115 52.4933050264078  C 59.2280105177115 52.4933050264078  54.6366095107656 51.1593510733098  54.6366095107656 51.1593510733098  C 54.6366095107656 51.1593510733098  51.5459494544807 48.198769687852  51.5459494544807 48.198769687852  C 51.5459494544807 48.198769687852  46.2589588388242 47.7189444599466  46.2589588388242 47.7189444599466  C 46.2589588388242 47.7189444599466  38.825342508361 44.3681317688066  38.825342508361 44.3681317688066  C 38.825342508361 44.3681317688066  32.2898577232244 39.4942223998755  32.2898577232244 39.4942223998755  C 32.2898577232244 39.4942223998755  27.4334701986744 33.6915382323599  27.4334701986744 33.6915382323599  C 27.4334701986744 33.6915382323599  25.2040163246025 26.119856316492  25.2040163246025 26.119856316492  C 25.2040163246025 26.119856316492  21.6496298625106 25.2199351421632  21.6496298625106 25.2199351421632  C 21.6496298625106 25.2199351421632  15.8377621062156 22.6575489665856  15.8377621062156 22.6575489665856  C 15.8377621062156 22.6575489665856  12.5483621617277 23.7087843206688  12.5483621617277 23.7087843206688  C 12.5483621617277 23.7087843206688  8.42068756058879 27.2965231616875  8.42068756058879 27.2965231616875  C 8.42068756058879 27.2965231616875  5.45232897396711 27.8619603597171  5.45232897396711 27.8619603597171  C 5.45232897396711 27.8619603597171  6.27022005234107 24.5091566925275  6.27022005234107 24.5091566925275  C 6.27022005234107 24.5091566925275  2.39734017966746 23.5256145241239  2.39734017966746 23.5256145241239  C 2.39734017966746 23.5256145241239  0.555174292862929 17.4750383099975  0.555174292862929 17.4750383099975  C 0.555174292862929 17.4750383099975  3.03177905354634 15.0699392423223  3.03177905354634 15.0699392423223  C 3.03177905354634 15.0699392423223  0.929722543707068 12.0874571203212  0.929722543707068 12.0874571203212  C 0.929722543707068 12.0874571203212  1.22528442872681 9.82969028030167  1.22528442872681 9.82969028030167  C 1.22528442872681 9.82969028030167  4.30065680130369 11.5419296827856  4.30065680130369 11.5419296827856  C 4.30065680130369 11.5419296827856  7.74548153015545 11.1636442333997  7.74548153015545 11.1636442333997  C 7.74548153015545 11.1636442333997  11.7508546616309 8.44795290201815  11.7508546616309 8.44795290201815  C 11.7508546616309 8.44795290201815  12.9891570419728 9.72018659758473  12.9891570419728 9.72018659758473  C 12.9891570419728 9.72018659758473  16.3906666669853 9.4653416632616  16.3906666669853 9.4653416632616  C 16.3906666669853 9.4653416632616  17.9372706687701 6.2200507027397  17.9372706687701 6.2200507027397  C 17.9372706687701 6.2200507027397  23.2242612844264 7.23146653583485  23.2242612844264 7.23146653583485  C 23.2242612844264 7.23146653583485  26.3709761809737 5.86963891804521  26.3709761809737 5.86963891804521  C 26.3709761809737 5.86963891804521  26.9366204781669 2.54470891554731  26.9366204781669 2.54470891554731  C 26.9366204781669 2.54470891554731  31.2655829147934 3.70146600024872  31.2655829147934 3.70146600024872  C 31.2655829147934 3.70146600024872  32.0962137295906 2.15447760986498  32.0962137295906 2.15447760986498  C 32.0962137295906 2.15447760986498  39.1565756553659 0.736902662692211  39.1565756553659 0.736902662692211  Z " fill-rule="evenodd" />
    </mask>
  </defs>
  <g transform="matrix(1 0 0 1 -1886 -4045 )">
    <path d="M 59.6407779778258 68.7486445101944  C 59.6407779778258 68.7486445101944  65.0679056941382 68.1314419348803  65.0679056941382 68.1314419348803  C 65.0679056941382 68.1314419348803  62.4944789366379 73.6723282803603  62.4944789366379 73.6723282803603  C 62.4944789366379 73.6723282803603  63.5620688489077 77.2829478174866  63.5620688489077 77.2829478174866  C 63.5620688489077 77.2829478174866  62.0638758455315 80.8567498261595  62.0638758455315 80.8567498261595  C 62.0638758455315 80.8567498261595  56.5985289199494 78.2425982732974  56.5985289199494 78.2425982732974  C 56.5985289199494 78.2425982732974  51.1140922622457 77.4920003026736  51.1140922622457 77.4920003026736  C 51.1140922622457 77.4920003026736  41.1414265901115 72.4896885070168  41.1414265901115 72.4896885070168  C 41.1414265901115 72.4896885070168  42.1427698729803 68.8740760013065  42.1427698729803 68.8740760013065  C 42.1427698729803 68.8740760013065  50.5025849139288 69.5191522413122  50.5025849139288 69.5191522413122  C 50.5025849139288 69.5191522413122  59.6407779778258 68.7486445101944  59.6407779778258 68.7486445101944  Z M 14.5612405166042 48.8787035371828  C 14.5612405166042 48.8787035371828  19.9870743867606 46.5930630324717  19.9870743867606 46.5930630324717  C 19.9870743867606 46.5930630324717  24.2727217195481 51.8134022339984  24.2727217195481 51.8134022339984  C 24.2727217195481 51.8134022339984  23.2688304893945 62.83841657909  23.2688304893945 62.83841657909  C 23.2688304893945 62.83841657909  20.0201977014613 62.3844740398268  20.0201977014613 62.3844740398268  C 20.0201977014613 62.3844740398268  15.2542821780303 64.7756362751562  15.2542821780303 64.7756362751562  C 15.2542821780303 64.7756362751562  12.5483621617281 62.8762451240287  12.5483621617281 62.8762451240287  C 12.5483621617281 62.8762451240287  12.2629920658467 52.7013775520307  12.2629920658467 52.7013775520307  C 12.2629920658467 52.7013775520307  10.6323058036684 48.5103729680438  10.6323058036684 48.5103729680438  C 10.6323058036684 48.5103729680438  14.5612405166042 48.8787035371828  14.5612405166042 48.8787035371828  Z M 39.1565756553659 0.736902662692211  C 39.1565756553659 0.736902662692211  40.7566865501286 3.57404353308728  40.7566865501286 3.57404353308728  C 40.7566865501286 3.57404353308728  52.8250189913774 5.66655936100661  52.8250189913774 5.66655936100661  C 52.8250189913774 5.66655936100661  52.0504430168427 9.63059267536183  52.0504430168427 9.63059267536183  C 52.0504430168427 9.63059267536183  53.7601156448455 13.0291887916875  53.7601156448455 13.0291887916875  C 53.7601156448455 13.0291887916875  48.0730973054986 11.8684497548873  48.0730973054986 11.8684497548873  C 48.0730973054986 11.8684497548873  40.4127136667009 14.689662816887  40.4127136667009 14.689662816887  C 40.4127136667009 14.689662816887  40.8076454958222 18.6039217300073  40.8076454958222 18.6039217300073  C 40.8076454958222 18.6039217300073  39.9336995771858 20.8358058813846  39.9336995771858 20.8358058813846  C 39.9336995771858 20.8358058813846  42.2752631317826 24.795857243641  42.2752631317826 24.795857243641  C 42.2752631317826 24.795857243641  50.8248803729243 28.6802515160203  50.8248803729243 28.6802515160203  C 50.8248803729243 28.6802515160203  54.417486044286 34.9856726644699  54.417486044286 34.9856726644699  C 54.417486044286 34.9856726644699  62.3670815724053 42.4986052584201  62.3670815724053 42.4986052584201  C 62.3670815724053 42.4986052584201  67.9649217567895 42.4528128092838  67.9649217567895 42.4528128092838  C 67.9649217567895 42.4528128092838  69.7051697522079 44.1033319542365  69.7051697522079 44.1033319542365  C 69.7051697522079 44.1033319542365  67.6999352391855 45.5866091110394  67.6999352391855 45.5866091110394  C 67.6999352391855 45.5866091110394  74.0978308709507 48.2644718974824  74.0978308709507 48.2644718974824  C 74.0978308709507 48.2644718974824  79.3440543300526 50.4943650728103  79.3440543300526 50.4943650728103  C 79.3440543300526 50.4943650728103  85.4693196023598 54.3150481116088  85.4693196023598 54.3150481116088  C 85.4693196023598 54.3150481116088  86.2107722621943 55.6748847533489  86.2107722621943 55.6748847533489  C 86.2107722621943 55.6748847533489  84.8756478850356 58.2750994738652  84.8756478850356 58.2750994738652  C 84.8756478850356 58.2750994738652  80.9110419101146 54.8824762856877  80.9110419101146 54.8824762856877  C 80.9110419101146 54.8824762856877  74.7042423246982 53.6819177278995  74.7042423246982 53.6819177278995  C 74.7042423246982 53.6819177278995  71.697664528807 58.3846031565822  71.697664528807 58.3846031565822  C 71.697664528807 58.3846031565822  76.8598057275152 61.0604749669757  76.8598057275152 61.0604749669757  C 76.8598057275152 61.0604749669757  76.0113392817255 64.8015189637982  76.0113392817255 64.8015189637982  C 76.0113392817255 64.8015189637982  73.027693011396 65.2255968623205  73.027693011396 65.2255968623205  C 73.027693011396 65.2255968623205  69.2108679789847 71.3120106453361  69.2108679789847 71.3120106453361  C 69.2108679789847 71.3120106453361  66.2348655505092 71.8535561307729  66.2348655505092 71.8535561307729  C 66.2348655505092 71.8535561307729  66.2628929706402 69.6953380932234  66.2628929706402 69.6953380932234  C 66.2628929706402 69.6953380932234  67.7203188174621 65.8866009107212  67.7203188174621 65.8866009107212  C 67.7203188174621 65.8866009107212  69.2720187138163 64.3615132568808  69.2720187138163 64.3615132568808  C 69.2720187138163 64.3615132568808  66.4820164371205 60.2003733136351  66.4820164371205 60.2003733136351  C 66.4820164371205 60.2003733136351  64.3035215087415 56.5509142150848  64.3035215087415 56.5509142150848  C 64.3035215087415 56.5509142150848  61.3377108694048 55.645020112608  61.3377108694048 55.645020112608  C 61.3377108694048 55.645020112608  59.2280105177115 52.4933050264078  59.2280105177115 52.4933050264078  C 59.2280105177115 52.4933050264078  54.6366095107656 51.1593510733098  54.6366095107656 51.1593510733098  C 54.6366095107656 51.1593510733098  51.5459494544807 48.198769687852  51.5459494544807 48.198769687852  C 51.5459494544807 48.198769687852  46.2589588388242 47.7189444599466  46.2589588388242 47.7189444599466  C 46.2589588388242 47.7189444599466  38.825342508361 44.3681317688066  38.825342508361 44.3681317688066  C 38.825342508361 44.3681317688066  32.2898577232244 39.4942223998755  32.2898577232244 39.4942223998755  C 32.2898577232244 39.4942223998755  27.4334701986744 33.6915382323599  27.4334701986744 33.6915382323599  C 27.4334701986744 33.6915382323599  25.2040163246025 26.119856316492  25.2040163246025 26.119856316492  C 25.2040163246025 26.119856316492  21.6496298625106 25.2199351421632  21.6496298625106 25.2199351421632  C 21.6496298625106 25.2199351421632  15.8377621062156 22.6575489665856  15.8377621062156 22.6575489665856  C 15.8377621062156 22.6575489665856  12.5483621617277 23.7087843206688  12.5483621617277 23.7087843206688  C 12.5483621617277 23.7087843206688  8.42068756058879 27.2965231616875  8.42068756058879 27.2965231616875  C 8.42068756058879 27.2965231616875  5.45232897396711 27.8619603597171  5.45232897396711 27.8619603597171  C 5.45232897396711 27.8619603597171  6.27022005234107 24.5091566925275  6.27022005234107 24.5091566925275  C 6.27022005234107 24.5091566925275  2.39734017966746 23.5256145241239  2.39734017966746 23.5256145241239  C 2.39734017966746 23.5256145241239  0.555174292862929 17.4750383099975  0.555174292862929 17.4750383099975  C 0.555174292862929 17.4750383099975  3.03177905354634 15.0699392423223  3.03177905354634 15.0699392423223  C 3.03177905354634 15.0699392423223  0.929722543707068 12.0874571203212  0.929722543707068 12.0874571203212  C 0.929722543707068 12.0874571203212  1.22528442872681 9.82969028030167  1.22528442872681 9.82969028030167  C 1.22528442872681 9.82969028030167  4.30065680130369 11.5419296827856  4.30065680130369 11.5419296827856  C 4.30065680130369 11.5419296827856  7.74548153015545 11.1636442333997  7.74548153015545 11.1636442333997  C 7.74548153015545 11.1636442333997  11.7508546616309 8.44795290201815  11.7508546616309 8.44795290201815  C 11.7508546616309 8.44795290201815  12.9891570419728 9.72018659758473  12.9891570419728 9.72018659758473  C 12.9891570419728 9.72018659758473  16.3906666669853 9.4653416632616  16.3906666669853 9.4653416632616  C 16.3906666669853 9.4653416632616  17.9372706687701 6.2200507027397  17.9372706687701 6.2200507027397  C 17.9372706687701 6.2200507027397  23.2242612844264 7.23146653583485  23.2242612844264 7.23146653583485  C 23.2242612844264 7.23146653583485  26.3709761809737 5.86963891804521  26.3709761809737 5.86963891804521  C 26.3709761809737 5.86963891804521  26.9366204781669 2.54470891554731  26.9366204781669 2.54470891554731  C 26.9366204781669 2.54470891554731  31.2655829147934 3.70146600024872  31.2655829147934 3.70146600024872  C 31.2655829147934 3.70146600024872  32.0962137295906 2.15447760986498  32.0962137295906 2.15447760986498  C 32.0962137295906 2.15447760986498  39.1565756553659 0.736902662692211  39.1565756553659 0.736902662692211  Z " fill-rule="nonzero" fill="#a29bfe" stroke="none" transform="matrix(1 0 0 1 1886 4045 )" />
    <path d="M 59.6407779778258 68.7486445101944  C 59.6407779778258 68.7486445101944  65.0679056941382 68.1314419348803  65.0679056941382 68.1314419348803  C 65.0679056941382 68.1314419348803  62.4944789366379 73.6723282803603  62.4944789366379 73.6723282803603  C 62.4944789366379 73.6723282803603  63.5620688489077 77.2829478174866  63.5620688489077 77.2829478174866  C 63.5620688489077 77.2829478174866  62.0638758455315 80.8567498261595  62.0638758455315 80.8567498261595  C 62.0638758455315 80.8567498261595  56.5985289199494 78.2425982732974  56.5985289199494 78.2425982732974  C 56.5985289199494 78.2425982732974  51.1140922622457 77.4920003026736  51.1140922622457 77.4920003026736  C 51.1140922622457 77.4920003026736  41.1414265901115 72.4896885070168  41.1414265901115 72.4896885070168  C 41.1414265901115 72.4896885070168  42.1427698729803 68.8740760013065  42.1427698729803 68.8740760013065  C 42.1427698729803 68.8740760013065  50.5025849139288 69.5191522413122  50.5025849139288 69.5191522413122  C 50.5025849139288 69.5191522413122  59.6407779778258 68.7486445101944  59.6407779778258 68.7486445101944  Z " stroke-width="2" stroke="#505050" fill="none" stroke-opacity="0.211764705882353" transform="matrix(1 0 0 1 1886 4045 )" mask="url(#clip21)" />
    <path d="M 14.5612405166042 48.8787035371828  C 14.5612405166042 48.8787035371828  19.9870743867606 46.5930630324717  19.9870743867606 46.5930630324717  C 19.9870743867606 46.5930630324717  24.2727217195481 51.8134022339984  24.2727217195481 51.8134022339984  C 24.2727217195481 51.8134022339984  23.2688304893945 62.83841657909  23.2688304893945 62.83841657909  C 23.2688304893945 62.83841657909  20.0201977014613 62.3844740398268  20.0201977014613 62.3844740398268  C 20.0201977014613 62.3844740398268  15.2542821780303 64.7756362751562  15.2542821780303 64.7756362751562  C 15.2542821780303 64.7756362751562  12.5483621617281 62.8762451240287  12.5483621617281 62.8762451240287  C 12.5483621617281 62.8762451240287  12.2629920658467 52.7013775520307  12.2629920658467 52.7013775520307  C 12.2629920658467 52.7013775520307  10.6323058036684 48.5103729680438  10.6323058036684 48.5103729680438  C 10.6323058036684 48.5103729680438  14.5612405166042 48.8787035371828  14.5612405166042 48.8787035371828  Z " stroke-width="2" stroke="#505050" fill="none" stroke-opacity="0.211764705882353" transform="matrix(1 0 0 1 1886 4045 )" mask="url(#clip21)" />
    <path d="M 39.1565756553659 0.736902662692211  C 39.1565756553659 0.736902662692211  40.7566865501286 3.57404353308728  40.7566865501286 3.57404353308728  C 40.7566865501286 3.57404353308728  52.8250189913774 5.66655936100661  52.8250189913774 5.66655936100661  C 52.8250189913774 5.66655936100661  52.0504430168427 9.63059267536183  52.0504430168427 9.63059267536183  C 52.0504430168427 9.63059267536183  53.7601156448455 13.0291887916875  53.7601156448455 13.0291887916875  C 53.7601156448455 13.0291887916875  48.0730973054986 11.8684497548873  48.0730973054986 11.8684497548873  C 48.0730973054986 11.8684497548873  40.4127136667009 14.689662816887  40.4127136667009 14.689662816887  C 40.4127136667009 14.689662816887  40.8076454958222 18.6039217300073  40.8076454958222 18.6039217300073  C 40.8076454958222 18.6039217300073  39.9336995771858 20.8358058813846  39.9336995771858 20.8358058813846  C 39.9336995771858 20.8358058813846  42.2752631317826 24.795857243641  42.2752631317826 24.795857243641  C 42.2752631317826 24.795857243641  50.8248803729243 28.6802515160203  50.8248803729243 28.6802515160203  C 50.8248803729243 28.6802515160203  54.417486044286 34.9856726644699  54.417486044286 34.9856726644699  C 54.417486044286 34.9856726644699  62.3670815724053 42.4986052584201  62.3670815724053 42.4986052584201  C 62.3670815724053 42.4986052584201  67.9649217567895 42.4528128092838  67.9649217567895 42.4528128092838  C 67.9649217567895 42.4528128092838  69.7051697522079 44.1033319542365  69.7051697522079 44.1033319542365  C 69.7051697522079 44.1033319542365  67.6999352391855 45.5866091110394  67.6999352391855 45.5866091110394  C 67.6999352391855 45.5866091110394  74.0978308709507 48.2644718974824  74.0978308709507 48.2644718974824  C 74.0978308709507 48.2644718974824  79.3440543300526 50.4943650728103  79.3440543300526 50.4943650728103  C 79.3440543300526 50.4943650728103  85.4693196023598 54.3150481116088  85.4693196023598 54.3150481116088  C 85.4693196023598 54.3150481116088  86.2107722621943 55.6748847533489  86.2107722621943 55.6748847533489  C 86.2107722621943 55.6748847533489  84.8756478850356 58.2750994738652  84.8756478850356 58.2750994738652  C 84.8756478850356 58.2750994738652  80.9110419101146 54.8824762856877  80.9110419101146 54.8824762856877  C 80.9110419101146 54.8824762856877  74.7042423246982 53.6819177278995  74.7042423246982 53.6819177278995  C 74.7042423246982 53.6819177278995  71.697664528807 58.3846031565822  71.697664528807 58.3846031565822  C 71.697664528807 58.3846031565822  76.8598057275152 61.0604749669757  76.8598057275152 61.0604749669757  C 76.8598057275152 61.0604749669757  76.0113392817255 64.8015189637982  76.0113392817255 64.8015189637982  C 76.0113392817255 64.8015189637982  73.027693011396 65.2255968623205  73.027693011396 65.2255968623205  C 73.027693011396 65.2255968623205  69.2108679789847 71.3120106453361  69.2108679789847 71.3120106453361  C 69.2108679789847 71.3120106453361  66.2348655505092 71.8535561307729  66.2348655505092 71.8535561307729  C 66.2348655505092 71.8535561307729  66.2628929706402 69.6953380932234  66.2628929706402 69.6953380932234  C 66.2628929706402 69.6953380932234  67.7203188174621 65.8866009107212  67.7203188174621 65.8866009107212  C 67.7203188174621 65.8866009107212  69.2720187138163 64.3615132568808  69.2720187138163 64.3615132568808  C 69.2720187138163 64.3615132568808  66.4820164371205 60.2003733136351  66.4820164371205 60.2003733136351  C 66.4820164371205 60.2003733136351  64.3035215087415 56.5509142150848  64.3035215087415 56.5509142150848  C 64.3035215087415 56.5509142150848  61.3377108694048 55.645020112608  61.3377108694048 55.645020112608  C 61.3377108694048 55.645020112608  59.2280105177115 52.4933050264078  59.2280105177115 52.4933050264078  C 59.2280105177115 52.4933050264078  54.6366095107656 51.1593510733098  54.6366095107656 51.1593510733098  C 54.6366095107656 51.1593510733098  51.5459494544807 48.198769687852  51.5459494544807 48.198769687852  C 51.5459494544807 48.198769687852  46.2589588388242 47.7189444599466  46.2589588388242 47.7189444599466  C 46.2589588388242 47.7189444599466  38.825342508361 44.3681317688066  38.825342508361 44.3681317688066  C 38.825342508361 44.3681317688066  32.2898577232244 39.4942223998755  32.2898577232244 39.4942223998755  C 32.2898577232244 39.4942223998755  27.4334701986744 33.6915382323599  27.4334701986744 33.6915382323599  C 27.4334701986744 33.6915382323599  25.2040163246025 26.119856316492  25.2040163246025 26.119856316492  C 25.2040163246025 26.119856316492  21.6496298625106 25.2199351421632  21.6496298625106 25.2199351421632  C 21.6496298625106 25.2199351421632  15.8377621062156 22.6575489665856  15.8377621062156 22.6575489665856  C 15.8377621062156 22.6575489665856  12.5483621617277 23.7087843206688  12.5483621617277 23.7087843206688  C 12.5483621617277 23.7087843206688  8.42068756058879 27.2965231616875  8.42068756058879 27.2965231616875  C 8.42068756058879 27.2965231616875  5.45232897396711 27.8619603597171  5.45232897396711 27.8619603597171  C 5.45232897396711 27.8619603597171  6.27022005234107 24.5091566925275  6.27022005234107 24.5091566925275  C 6.27022005234107 24.5091566925275  2.39734017966746 23.5256145241239  2.39734017966746 23.5256145241239  C 2.39734017966746 23.5256145241239  0.555174292862929 17.4750383099975  0.555174292862929 17.4750383099975  C 0.555174292862929 17.4750383099975  3.03177905354634 15.0699392423223  3.03177905354634 15.0699392423223  C 3.03177905354634 15.0699392423223  0.929722543707068 12.0874571203212  0.929722543707068 12.0874571203212  C 0.929722543707068 12.0874571203212  1.22528442872681 9.82969028030167  1.22528442872681 9.82969028030167  C 1.22528442872681 9.82969028030167  4.30065680130369 11.5419296827856  4.30065680130369 11.5419296827856  C 4.30065680130369 11.5419296827856  7.74548153015545 11.1636442333997  7.74548153015545 11.1636442333997  C 7.74548153015545 11.1636442333997  11.7508546616309 8.44795290201815  11.7508546616309 8.44795290201815  C 11.7508546616309 8.44795290201815  12.9891570419728 9.72018659758473  12.9891570419728 9.72018659758473  C 12.9891570419728 9.72018659758473  16.3906666669853 9.4653416632616  16.3906666669853 9.4653416632616  C 16.3906666669853 9.4653416632616  17.9372706687701 6.2200507027397  17.9372706687701 6.2200507027397  C 17.9372706687701 6.2200507027397  23.2242612844264 7.23146653583485  23.2242612844264 7.23146653583485  C 23.2242612844264 7.23146653583485  26.3709761809737 5.86963891804521  26.3709761809737 5.86963891804521  C 26.3709761809737 5.86963891804521  26.9366204781669 2.54470891554731  26.9366204781669 2.54470891554731  C 26.9366204781669 2.54470891554731  31.2655829147934 3.70146600024872  31.2655829147934 3.70146600024872  C 31.2655829147934 3.70146600024872  32.0962137295906 2.15447760986498  32.0962137295906 2.15447760986498  C 32.0962137295906 2.15447760986498  39.1565756553659 0.736902662692211  39.1565756553659 0.736902662692211  Z " stroke-width="2" stroke="#505050" fill="none" stroke-opacity="0.211764705882353" transform="matrix(1 0 0 1 1886 4045 )" mask="url(#clip21)" />
  </g>
</svg>