<?xml version="1.0" encoding="utf-8"?>
<svg version="1.1" xmlns:xlink="http://www.w3.org/1999/xlink" width="68px" height="111px" xmlns="http://www.w3.org/2000/svg">
  <defs>
    <mask fill="white" id="clip171">
      <path d="M 59.7715778164676 49.1302655231049  C 59.7715778164676 49.1302655231049  55.5933575382244 50.4934606799993  55.5933575382244 50.4934606799993  C 55.5933575382244 50.4934606799993  51.342336906658 53.0452350202698  51.342336906658 53.0452350202698  C 51.342336906658 53.0452350202698  46.1943119216417 53.3091432529726  46.1943119216417 53.3091432529726  C 46.1943119216417 53.3091432529726  42.8714957949492 61.0805307345493  42.8714957949492 61.0805307345493  C 42.8714957949492 61.0805307345493  39.793080854414 62.1401322102139  39.793080854414 62.1401322102139  C 39.793080854414 62.1401322102139  43.3186979653649 67.2436808907549  43.3186979653649 67.2436808907549  C 43.3186979653649 67.2436808907549  47.9441204140235 71.4701811588549  47.9441204140235 71.4701811588549  C 47.9441204140235 71.4701811588549  50.9289349002853 75.274031400145  50.9289349002853 75.274031400145  C 50.9289349002853 75.274031400145  48.2613219535042 80.2704293696638  48.2613219535042 80.2704293696638  C 48.2613219535042 80.2704293696638  45.7445097386074 81.3280465729022  45.7445097386074 81.3280465729022  C 45.7445097386074 81.3280465729022  47.4839181805145 84.1973045013868  47.4839181805145 84.1973045013868  C 47.4839181805145 84.1973045013868  52.3459417774741 88.7293827231428  52.3459417774741 88.7293827231428  C 52.3459417774741 88.7293827231428  53.1805458280752 91.9042186052834  53.1805458280752 91.9042186052834  C 53.1805458280752 91.9042186052834  53.0661452728529 94.5393323874604  53.0661452728529 94.5393323874604  C 53.0661452728529 94.5393323874604  55.9157591029427 99.7004249683656  55.9157591029427 99.7004249683656  C 55.9157591029427 99.7004249683656  51.9117396701521 104.958746898161  51.9117396701521 104.958746898161  C 51.9117396701521 104.958746898161  48.380922533964 110.734963931231  48.380922533964 110.734963931231  C 48.380922533964 110.734963931231  47.6789191269165 106.564023291069  47.6789191269165 106.564023291069  C 47.6789191269165 106.564023291069  49.9175299916131 102.25021503621  49.9175299916131 102.25021503621  C 49.9175299916131 102.25021503621  47.4657180921837 98.9087002702566  47.4657180921837 98.9087002702566  C 47.4657180921837 98.9087002702566  48.0585209692457 92.7376130243457  48.0585209692457 92.7376130243457  C 48.0585209692457 92.7376130243457  45.0997066091712 89.7929527436602  45.0997066091712 89.7929527436602  C 45.0997066091712 89.7929527436602  42.7232950756835 82.9670555970574  42.7232950756835 82.9670555970574  C 42.7232950756835 82.9670555970574  41.4050886780052 75.720492696071  41.4050886780052 75.720492696071  C 41.4050886780052 75.720492696071  38.2538733841469 70.942364693449  38.2538733841469 70.942364693449  C 38.2538733841469 70.942364693449  31.5627611885279 73.8374181634763  31.5627611885279 73.8374181634763  C 31.5627611885279 73.8374181634763  23.2765209727464 77.9408935411431  23.2765209727464 77.9408935411431  C 23.2765209727464 77.9408935411431  19.1893011361575 77.4289512551481  19.1893011361575 77.4289512551481  C 19.1893011361575 77.4289512551481  14.6730792174841 76.079646005238  14.6730792174841 76.079646005238  C 14.6730792174841 76.079646005238  17.1846914071438 68.9283281807162  17.1846914071438 68.9283281807162  C 17.1846914071438 68.9283281807162  15.663684025207 63.4914217325499  15.663684025207 63.4914217325499  C 15.663684025207 63.4914217325499  9.94885628931517 56.7548168451326  9.94885628931517 56.7548168451326  C 9.94885628931517 56.7548168451326  10.8406606175276 53.200008269524  10.8406606175276 53.200008269524  C 10.8406606175276 53.200008269524  6.57403991024896 52.4459847475158  6.57403991024896 52.4459847475158  C 6.57403991024896 52.4459847475158  1.40261481166428 47.6361083860724  1.40261481166428 47.6361083860724  C 1.40261481166428 47.6361083860724  0.926812502443126 42.8679017455822  0.926812502443126 42.8679017455822  C 0.926812502443126 42.8679017455822  3.46962484352684 43.7667771547135  3.46962484352684 43.7667771547135  C 3.46962484352684 43.7667771547135  3.62042557541112 39.4966228932341  3.62042557541112 39.4966228932341  C 3.62042557541112 39.4966228932341  7.21624302706618 38.0798523808287  7.21624302706618 38.0798523808287  C 7.21624302706618 38.0798523808287  6.4466392919326 35.5379994026897  6.4466392919326 35.5379994026897  C 6.4466392919326 35.5379994026897  8.09244727956679 33.4922145311351  8.09244727956679 33.4922145311351  C 8.09244727956679 33.4922145311351  8.37584865500455 27.2457249330233  8.37584865500455 27.2457249330233  C 8.37584865500455 27.2457249330233  14.0724763025656 28.6267785417545  14.0724763025656 28.6267785417545  C 14.0724763025656 28.6267785417545  17.3224920759345 23.6224434825301  17.3224920759345 23.6224434825301  C 17.3224920759345 23.6224434825301  17.6942938804076 20.6500033878757  17.6942938804076 20.6500033878757  C 17.6942938804076 20.6500033878757  21.716513401529 15.5028007139552  21.716513401529 15.5028007139552  C 21.716513401529 15.5028007139552  21.4955123289401 11.9727800674996  21.4955123289401 11.9727800674996  C 21.4955123289401 11.9727800674996  30.9335581348034 7.68278308175717  30.9335581348034 7.68278308175717  C 30.9335581348034 7.68278308175717  38.0328723115576 8.80786554749082  38.0328723115576 8.80786554749082  C 38.0328723115576 8.80786554749082  37.432269396639 4.97226694737927  37.432269396639 4.97226694737927  C 37.432269396639 4.97226694737927  39.9880818008164 3.82535748495605  39.9880818008164 3.82535748495605  C 39.9880818008164 3.82535748495605  39.4394791382717 1.44621484577655  39.4394791382717 1.44621484577655  C 39.4394791382717 1.44621484577655  43.7034998329317 0.979910825587237  43.7034998329317 0.979910825587237  C 43.7034998329317 0.979910825587237  46.1397116566489 4.67065753857604  46.1397116566489 4.67065753857604  C 46.1397116566489 4.67065753857604  49.3195270893131 6.16084613075574  49.3195270893131 6.16084613075574  C 49.3195270893131 6.16084613075574  49.5353281366649 10.9191314091144  49.5353281366649 10.9191314091144  C 49.5353281366649 10.9191314091144  49.2415267107524 16.012758727524  49.2415267107524 16.012758727524  C 49.2415267107524 16.012758727524  42.3384932081167 21.1321815874759  42.3384932081167 21.1321815874759  C 42.3384932081167 21.1321815874759  41.4622889556166 28.3450118572146  41.4622889556166 28.3450118572146  C 41.4622889556166 28.3450118572146  49.1583263069537 27.3389857370613  49.1583263069537 27.3389857370613  C 49.1583263069537 27.3389857370613  50.8977347488613 32.8969328032339  50.8977347488613 32.8969328032339  C 50.8977347488613 32.8969328032339  55.5127571470451 34.0617007174943  55.5127571470451 34.0617007174943  C 55.5127571470451 34.0617007174943  53.3911468501898 39.0362716903234  53.3911468501898 39.0362716903234  C 53.3911468501898 39.0362716903234  58.8043731223131 41.2745309872327  58.8043731223131 41.2745309872327  C 58.8043731223131 41.2745309872327  61.960788441409 42.3718336389977  61.960788441409 42.3718336389977  C 61.960788441409 42.3718336389977  67.3064143854458 40.6375795383782  67.3064143854458 40.6375795383782  C 67.3064143854458 40.6375795383782  67.5274154580352 43.0980773470373  67.5274154580352 43.0980773470373  C 67.5274154580352 43.0980773470373  61.3237853498285 46.9555029438385  61.3237853498285 46.9555029438385  C 61.3237853498285 46.9555029438385  59.7715778164676 49.1302655231049  59.7715778164676 49.1302655231049  Z " fill-rule="evenodd" />
    </mask>
  </defs>
  <g transform="matrix(1 0 0 1 -2497 -4177 )">
    <path d="M 59.7715778164676 49.1302655231049  C 59.7715778164676 49.1302655231049  55.5933575382244 50.4934606799993  55.5933575382244 50.4934606799993  C 55.5933575382244 50.4934606799993  51.342336906658 53.0452350202698  51.342336906658 53.0452350202698  C 51.342336906658 53.0452350202698  46.1943119216417 53.3091432529726  46.1943119216417 53.3091432529726  C 46.1943119216417 53.3091432529726  42.8714957949492 61.0805307345493  42.8714957949492 61.0805307345493  C 42.8714957949492 61.0805307345493  39.793080854414 62.1401322102139  39.793080854414 62.1401322102139  C 39.793080854414 62.1401322102139  43.3186979653649 67.2436808907549  43.3186979653649 67.2436808907549  C 43.3186979653649 67.2436808907549  47.9441204140235 71.4701811588549  47.9441204140235 71.4701811588549  C 47.9441204140235 71.4701811588549  50.9289349002853 75.274031400145  50.9289349002853 75.274031400145  C 50.9289349002853 75.274031400145  48.2613219535042 80.2704293696638  48.2613219535042 80.2704293696638  C 48.2613219535042 80.2704293696638  45.7445097386074 81.3280465729022  45.7445097386074 81.3280465729022  C 45.7445097386074 81.3280465729022  47.4839181805145 84.1973045013868  47.4839181805145 84.1973045013868  C 47.4839181805145 84.1973045013868  52.3459417774741 88.7293827231428  52.3459417774741 88.7293827231428  C 52.3459417774741 88.7293827231428  53.1805458280752 91.9042186052834  53.1805458280752 91.9042186052834  C 53.1805458280752 91.9042186052834  53.0661452728529 94.5393323874604  53.0661452728529 94.5393323874604  C 53.0661452728529 94.5393323874604  55.9157591029427 99.7004249683656  55.9157591029427 99.7004249683656  C 55.9157591029427 99.7004249683656  51.9117396701521 104.958746898161  51.9117396701521 104.958746898161  C 51.9117396701521 104.958746898161  48.380922533964 110.734963931231  48.380922533964 110.734963931231  C 48.380922533964 110.734963931231  47.6789191269165 106.564023291069  47.6789191269165 106.564023291069  C 47.6789191269165 106.564023291069  49.9175299916131 102.25021503621  49.9175299916131 102.25021503621  C 49.9175299916131 102.25021503621  47.4657180921837 98.9087002702566  47.4657180921837 98.9087002702566  C 47.4657180921837 98.9087002702566  48.0585209692457 92.7376130243457  48.0585209692457 92.7376130243457  C 48.0585209692457 92.7376130243457  45.0997066091712 89.7929527436602  45.0997066091712 89.7929527436602  C 45.0997066091712 89.7929527436602  42.7232950756835 82.9670555970574  42.7232950756835 82.9670555970574  C 42.7232950756835 82.9670555970574  41.4050886780052 75.720492696071  41.4050886780052 75.720492696071  C 41.4050886780052 75.720492696071  38.2538733841469 70.942364693449  38.2538733841469 70.942364693449  C 38.2538733841469 70.942364693449  31.5627611885279 73.8374181634763  31.5627611885279 73.8374181634763  C 31.5627611885279 73.8374181634763  23.2765209727464 77.9408935411431  23.2765209727464 77.9408935411431  C 23.2765209727464 77.9408935411431  19.1893011361575 77.4289512551481  19.1893011361575 77.4289512551481  C 19.1893011361575 77.4289512551481  14.6730792174841 76.079646005238  14.6730792174841 76.079646005238  C 14.6730792174841 76.079646005238  17.1846914071438 68.9283281807162  17.1846914071438 68.9283281807162  C 17.1846914071438 68.9283281807162  15.663684025207 63.4914217325499  15.663684025207 63.4914217325499  C 15.663684025207 63.4914217325499  9.94885628931517 56.7548168451326  9.94885628931517 56.7548168451326  C 9.94885628931517 56.7548168451326  10.8406606175276 53.200008269524  10.8406606175276 53.200008269524  C 10.8406606175276 53.200008269524  6.57403991024896 52.4459847475158  6.57403991024896 52.4459847475158  C 6.57403991024896 52.4459847475158  1.40261481166428 47.6361083860724  1.40261481166428 47.6361083860724  C 1.40261481166428 47.6361083860724  0.926812502443126 42.8679017455822  0.926812502443126 42.8679017455822  C 0.926812502443126 42.8679017455822  3.46962484352684 43.7667771547135  3.46962484352684 43.7667771547135  C 3.46962484352684 43.7667771547135  3.62042557541112 39.4966228932341  3.62042557541112 39.4966228932341  C 3.62042557541112 39.4966228932341  7.21624302706618 38.0798523808287  7.21624302706618 38.0798523808287  C 7.21624302706618 38.0798523808287  6.4466392919326 35.5379994026897  6.4466392919326 35.5379994026897  C 6.4466392919326 35.5379994026897  8.09244727956679 33.4922145311351  8.09244727956679 33.4922145311351  C 8.09244727956679 33.4922145311351  8.37584865500455 27.2457249330233  8.37584865500455 27.2457249330233  C 8.37584865500455 27.2457249330233  14.0724763025656 28.6267785417545  14.0724763025656 28.6267785417545  C 14.0724763025656 28.6267785417545  17.3224920759345 23.6224434825301  17.3224920759345 23.6224434825301  C 17.3224920759345 23.6224434825301  17.6942938804076 20.6500033878757  17.6942938804076 20.6500033878757  C 17.6942938804076 20.6500033878757  21.716513401529 15.5028007139552  21.716513401529 15.5028007139552  C 21.716513401529 15.5028007139552  21.4955123289401 11.9727800674996  21.4955123289401 11.9727800674996  C 21.4955123289401 11.9727800674996  30.9335581348034 7.68278308175717  30.9335581348034 7.68278308175717  C 30.9335581348034 7.68278308175717  38.0328723115576 8.80786554749082  38.0328723115576 8.80786554749082  C 38.0328723115576 8.80786554749082  37.432269396639 4.97226694737927  37.432269396639 4.97226694737927  C 37.432269396639 4.97226694737927  39.9880818008164 3.82535748495605  39.9880818008164 3.82535748495605  C 39.9880818008164 3.82535748495605  39.4394791382717 1.44621484577655  39.4394791382717 1.44621484577655  C 39.4394791382717 1.44621484577655  43.7034998329317 0.979910825587237  43.7034998329317 0.979910825587237  C 43.7034998329317 0.979910825587237  46.1397116566489 4.67065753857604  46.1397116566489 4.67065753857604  C 46.1397116566489 4.67065753857604  49.3195270893131 6.16084613075574  49.3195270893131 6.16084613075574  C 49.3195270893131 6.16084613075574  49.5353281366649 10.9191314091144  49.5353281366649 10.9191314091144  C 49.5353281366649 10.9191314091144  49.2415267107524 16.012758727524  49.2415267107524 16.012758727524  C 49.2415267107524 16.012758727524  42.3384932081167 21.1321815874759  42.3384932081167 21.1321815874759  C 42.3384932081167 21.1321815874759  41.4622889556166 28.3450118572146  41.4622889556166 28.3450118572146  C 41.4622889556166 28.3450118572146  49.1583263069537 27.3389857370613  49.1583263069537 27.3389857370613  C 49.1583263069537 27.3389857370613  50.8977347488613 32.8969328032339  50.8977347488613 32.8969328032339  C 50.8977347488613 32.8969328032339  55.5127571470451 34.0617007174943  55.5127571470451 34.0617007174943  C 55.5127571470451 34.0617007174943  53.3911468501898 39.0362716903234  53.3911468501898 39.0362716903234  C 53.3911468501898 39.0362716903234  58.8043731223131 41.2745309872327  58.8043731223131 41.2745309872327  C 58.8043731223131 41.2745309872327  61.960788441409 42.3718336389977  61.960788441409 42.3718336389977  C 61.960788441409 42.3718336389977  67.3064143854458 40.6375795383782  67.3064143854458 40.6375795383782  C 67.3064143854458 40.6375795383782  67.5274154580352 43.0980773470373  67.5274154580352 43.0980773470373  C 67.5274154580352 43.0980773470373  61.3237853498285 46.9555029438385  61.3237853498285 46.9555029438385  C 61.3237853498285 46.9555029438385  59.7715778164676 49.1302655231049  59.7715778164676 49.1302655231049  Z " fill-rule="nonzero" fill="#f2f2f2" stroke="none" transform="matrix(1 0 0 1 2497 4177 )" />
    <path d="M 59.7715778164676 49.1302655231049  C 59.7715778164676 49.1302655231049  55.5933575382244 50.4934606799993  55.5933575382244 50.4934606799993  C 55.5933575382244 50.4934606799993  51.342336906658 53.0452350202698  51.342336906658 53.0452350202698  C 51.342336906658 53.0452350202698  46.1943119216417 53.3091432529726  46.1943119216417 53.3091432529726  C 46.1943119216417 53.3091432529726  42.8714957949492 61.0805307345493  42.8714957949492 61.0805307345493  C 42.8714957949492 61.0805307345493  39.793080854414 62.1401322102139  39.793080854414 62.1401322102139  C 39.793080854414 62.1401322102139  43.3186979653649 67.2436808907549  43.3186979653649 67.2436808907549  C 43.3186979653649 67.2436808907549  47.9441204140235 71.4701811588549  47.9441204140235 71.4701811588549  C 47.9441204140235 71.4701811588549  50.9289349002853 75.274031400145  50.9289349002853 75.274031400145  C 50.9289349002853 75.274031400145  48.2613219535042 80.2704293696638  48.2613219535042 80.2704293696638  C 48.2613219535042 80.2704293696638  45.7445097386074 81.3280465729022  45.7445097386074 81.3280465729022  C 45.7445097386074 81.3280465729022  47.4839181805145 84.1973045013868  47.4839181805145 84.1973045013868  C 47.4839181805145 84.1973045013868  52.3459417774741 88.7293827231428  52.3459417774741 88.7293827231428  C 52.3459417774741 88.7293827231428  53.1805458280752 91.9042186052834  53.1805458280752 91.9042186052834  C 53.1805458280752 91.9042186052834  53.0661452728529 94.5393323874604  53.0661452728529 94.5393323874604  C 53.0661452728529 94.5393323874604  55.9157591029427 99.7004249683656  55.9157591029427 99.7004249683656  C 55.9157591029427 99.7004249683656  51.9117396701521 104.958746898161  51.9117396701521 104.958746898161  C 51.9117396701521 104.958746898161  48.380922533964 110.734963931231  48.380922533964 110.734963931231  C 48.380922533964 110.734963931231  47.6789191269165 106.564023291069  47.6789191269165 106.564023291069  C 47.6789191269165 106.564023291069  49.9175299916131 102.25021503621  49.9175299916131 102.25021503621  C 49.9175299916131 102.25021503621  47.4657180921837 98.9087002702566  47.4657180921837 98.9087002702566  C 47.4657180921837 98.9087002702566  48.0585209692457 92.7376130243457  48.0585209692457 92.7376130243457  C 48.0585209692457 92.7376130243457  45.0997066091712 89.7929527436602  45.0997066091712 89.7929527436602  C 45.0997066091712 89.7929527436602  42.7232950756835 82.9670555970574  42.7232950756835 82.9670555970574  C 42.7232950756835 82.9670555970574  41.4050886780052 75.720492696071  41.4050886780052 75.720492696071  C 41.4050886780052 75.720492696071  38.2538733841469 70.942364693449  38.2538733841469 70.942364693449  C 38.2538733841469 70.942364693449  31.5627611885279 73.8374181634763  31.5627611885279 73.8374181634763  C 31.5627611885279 73.8374181634763  23.2765209727464 77.9408935411431  23.2765209727464 77.9408935411431  C 23.2765209727464 77.9408935411431  19.1893011361575 77.4289512551481  19.1893011361575 77.4289512551481  C 19.1893011361575 77.4289512551481  14.6730792174841 76.079646005238  14.6730792174841 76.079646005238  C 14.6730792174841 76.079646005238  17.1846914071438 68.9283281807162  17.1846914071438 68.9283281807162  C 17.1846914071438 68.9283281807162  15.663684025207 63.4914217325499  15.663684025207 63.4914217325499  C 15.663684025207 63.4914217325499  9.94885628931517 56.7548168451326  9.94885628931517 56.7548168451326  C 9.94885628931517 56.7548168451326  10.8406606175276 53.200008269524  10.8406606175276 53.200008269524  C 10.8406606175276 53.200008269524  6.57403991024896 52.4459847475158  6.57403991024896 52.4459847475158  C 6.57403991024896 52.4459847475158  1.40261481166428 47.6361083860724  1.40261481166428 47.6361083860724  C 1.40261481166428 47.6361083860724  0.926812502443126 42.8679017455822  0.926812502443126 42.8679017455822  C 0.926812502443126 42.8679017455822  3.46962484352684 43.7667771547135  3.46962484352684 43.7667771547135  C 3.46962484352684 43.7667771547135  3.62042557541112 39.4966228932341  3.62042557541112 39.4966228932341  C 3.62042557541112 39.4966228932341  7.21624302706618 38.0798523808287  7.21624302706618 38.0798523808287  C 7.21624302706618 38.0798523808287  6.4466392919326 35.5379994026897  6.4466392919326 35.5379994026897  C 6.4466392919326 35.5379994026897  8.09244727956679 33.4922145311351  8.09244727956679 33.4922145311351  C 8.09244727956679 33.4922145311351  8.37584865500455 27.2457249330233  8.37584865500455 27.2457249330233  C 8.37584865500455 27.2457249330233  14.0724763025656 28.6267785417545  14.0724763025656 28.6267785417545  C 14.0724763025656 28.6267785417545  17.3224920759345 23.6224434825301  17.3224920759345 23.6224434825301  C 17.3224920759345 23.6224434825301  17.6942938804076 20.6500033878757  17.6942938804076 20.6500033878757  C 17.6942938804076 20.6500033878757  21.716513401529 15.5028007139552  21.716513401529 15.5028007139552  C 21.716513401529 15.5028007139552  21.4955123289401 11.9727800674996  21.4955123289401 11.9727800674996  C 21.4955123289401 11.9727800674996  30.9335581348034 7.68278308175717  30.9335581348034 7.68278308175717  C 30.9335581348034 7.68278308175717  38.0328723115576 8.80786554749082  38.0328723115576 8.80786554749082  C 38.0328723115576 8.80786554749082  37.432269396639 4.97226694737927  37.432269396639 4.97226694737927  C 37.432269396639 4.97226694737927  39.9880818008164 3.82535748495605  39.9880818008164 3.82535748495605  C 39.9880818008164 3.82535748495605  39.4394791382717 1.44621484577655  39.4394791382717 1.44621484577655  C 39.4394791382717 1.44621484577655  43.7034998329317 0.979910825587237  43.7034998329317 0.979910825587237  C 43.7034998329317 0.979910825587237  46.1397116566489 4.67065753857604  46.1397116566489 4.67065753857604  C 46.1397116566489 4.67065753857604  49.3195270893131 6.16084613075574  49.3195270893131 6.16084613075574  C 49.3195270893131 6.16084613075574  49.5353281366649 10.9191314091144  49.5353281366649 10.9191314091144  C 49.5353281366649 10.9191314091144  49.2415267107524 16.012758727524  49.2415267107524 16.012758727524  C 49.2415267107524 16.012758727524  42.3384932081167 21.1321815874759  42.3384932081167 21.1321815874759  C 42.3384932081167 21.1321815874759  41.4622889556166 28.3450118572146  41.4622889556166 28.3450118572146  C 41.4622889556166 28.3450118572146  49.1583263069537 27.3389857370613  49.1583263069537 27.3389857370613  C 49.1583263069537 27.3389857370613  50.8977347488613 32.8969328032339  50.8977347488613 32.8969328032339  C 50.8977347488613 32.8969328032339  55.5127571470451 34.0617007174943  55.5127571470451 34.0617007174943  C 55.5127571470451 34.0617007174943  53.3911468501898 39.0362716903234  53.3911468501898 39.0362716903234  C 53.3911468501898 39.0362716903234  58.8043731223131 41.2745309872327  58.8043731223131 41.2745309872327  C 58.8043731223131 41.2745309872327  61.960788441409 42.3718336389977  61.960788441409 42.3718336389977  C 61.960788441409 42.3718336389977  67.3064143854458 40.6375795383782  67.3064143854458 40.6375795383782  C 67.3064143854458 40.6375795383782  67.5274154580352 43.0980773470373  67.5274154580352 43.0980773470373  C 67.5274154580352 43.0980773470373  61.3237853498285 46.9555029438385  61.3237853498285 46.9555029438385  C 61.3237853498285 46.9555029438385  59.7715778164676 49.1302655231049  59.7715778164676 49.1302655231049  Z " stroke-width="2" stroke="#505050" fill="none" stroke-opacity="0.211764705882353" transform="matrix(1 0 0 1 2497 4177 )" mask="url(#clip171)" />
  </g>
</svg>