<?xml version="1.0" encoding="utf-8"?>
<svg version="1.1" xmlns:xlink="http://www.w3.org/1999/xlink" width="232px" height="87px" xmlns="http://www.w3.org/2000/svg">
  <defs>
    <mask fill="white" id="clip172">
      <path d="M 3.56428105494105 29.94897215834  C 3.56428105494105 29.94897215834  1.69891401852359 24.1183498392449  1.69891401852359 24.1183498392449  C 1.69891401852359 24.1183498392449  9.19079575717948 22.6577495007241  9.19079575717948 22.6577495007241  C 9.19079575717948 22.6577495007241  22.7501892963576 15.3154843581598  22.7501892963576 15.3154843581598  C 22.7501892963576 15.3154843581598  33.5571526703867 11.2517172872753  33.5571526703867 11.2517172872753  C 33.5571526703867 11.2517172872753  39.7387154446025 13.9078896770852  39.7387154446025 13.9078896770852  C 39.7387154446025 13.9078896770852  47.1520287347144 14.0354958894561  47.1520287347144 14.0354958894561  C 47.1520287347144 14.0354958894561  51.9016181725494 18.0462573028942  51.9016181725494 18.0462573028942  C 51.9016181725494 18.0462573028942  58.9930542702358 18.352512212584  58.9930542702358 18.352512212584  C 58.9930542702358 18.352512212584  69.2677797670263 20.492370235417  69.2677797670263 20.492370235417  C 69.2677797670263 20.492370235417  76.176734306802 14.5380680489471  76.176734306802 14.5380680489471  C 76.176734306802 14.5380680489471  73.289977439302 9.43381955411619  73.289977439302 9.43381955411619  C 73.289977439302 9.43381955411619  80.6500669416893 0.287398885879077  80.6500669416893 0.287398885879077  C 80.6500669416893 0.287398885879077  88.6108249055319 3.96049462965932  88.6108249055319 3.96049462965932  C 88.6108249055319 3.96049462965932  95.0610410844496 4.99508653611148  95.0610410844496 4.99508653611148  C 95.0610410844496 4.99508653611148  103.417175757098 7.2566612538211  103.417175757098 7.2566612538211  C 103.417175757098 7.2566612538211  104.773115111016 13.7763571197185  104.773115111016 13.7763571197185  C 104.773115111016 13.7763571197185  114.865359049896 17.3905576885582  114.865359049896 17.3905576885582  C 114.865359049896 17.3905576885582  123.425498474785 15.8023511376667  123.425498474785 15.8023511376667  C 123.425498474785 15.8023511376667  132.415249667956 14.6774532963059  132.415249667956 14.6774532963059  C 132.415249667956 14.6774532963059  139.534564892545 15.8102038276588  139.534564892545 15.8102038276588  C 139.534564892545 15.8102038276588  146.494208753962 19.9171606934995  146.494208753962 19.9171606934995  C 146.494208753962 19.9171606934995  150.807870025678 24.2420297066196  150.807870025678 24.2420297066196  C 150.807870025678 24.2420297066196  157.39748183911 24.1536869442091  157.39748183911 24.1536869442091  C 157.39748183911 24.1536869442091  166.34921604105 25.5220181753234  166.34921604105 25.5220181753234  C 166.34921604105 25.5220181753234  172.880535134594 23.4371289824348  172.880535134594 23.4371289824348  C 172.880535134594 23.4371289824348  182.237783909669 22.0393501638503  182.237783909669 22.0393501638503  C 182.237783909669 22.0393501638503  192.644301642727 16.034005492432  192.644301642727 16.034005492432  C 192.644301642727 16.034005492432  196.907273592802 16.9606229114936  196.907273592802 16.9606229114936  C 196.907273592802 16.9606229114936  200.627869801309 19.8190020685989  200.627869801309 19.8190020685989  C 200.627869801309 19.8190020685989  209.105658845898 19.1102967968167  209.105658845898 19.1102967968167  C 209.105658845898 19.1102967968167  205.646112643846 25.4847178978611  205.646112643846 25.4847178978611  C 205.646112643846 25.4847178978611  200.625335335227 33.7830480469571  200.625335335227 33.7830480469571  C 200.625335335227 33.7830480469571  202.455219846496 37.1322203285654  202.455219846496 37.1322203285654  C 202.455219846496 37.1322203285654  206.477417518771 36.0956652496151  206.477417518771 36.0956652496151  C 206.477417518771 36.0956652496151  213.48775070183 37.3658378558287  213.48775070183 37.3658378558287  C 213.48775070183 37.3658378558287  218.949525108733 34.3464785538865  218.949525108733 34.3464785538865  C 218.949525108733 34.3464785538865  224.652073793434 36.9633874937364  224.652073793434 36.9633874937364  C 224.652073793434 36.9633874937364  231.092152108023 44.0572960036932  231.092152108023 44.0572960036932  C 231.092152108023 44.0572960036932  230.314071020821 46.9097856433044  230.314071020821 46.9097856433044  C 230.314071020821 46.9097856433044  224.70783204724 46.0067262942189  224.70783204724 46.0067262942189  C 224.70783204724 46.0067262942189  214.38495169489 47.0688026156434  214.38495169489 47.0688026156434  C 214.38495169489 47.0688026156434  209.384450114928 49.3382300233451  209.384450114928 49.3382300233451  C 209.384450114928 49.3382300233451  204.176122316234 54.5641952130526  204.176122316234 54.5641952130526  C 204.176122316234 54.5641952130526  193.341279815302 57.5992598949789  193.341279815302 57.5992598949789  C 193.341279815302 57.5992598949789  186.259981581944 61.7238853133018  186.259981581944 61.7238853133018  C 186.259981581944 61.7238853133018  178.955650333363 60.1533473148923  178.955650333363 60.1533473148923  C 178.955650333363 60.1533473148923  174.958797321908 59.4505315606041  174.958797321908 59.4505315606041  C 174.958797321908 59.4505315606041  171.22552878299 64.4330633605581  171.22552878299 64.4330633605581  C 171.22552878299 64.4330633605581  173.496410392542 67.3758589350779  173.496410392542 67.3758589350779  C 173.496410392542 67.3758589350779  174.647057993811 69.8887197325331  174.647057993811 69.8887197325331  C 174.647057993811 69.8887197325331  169.67190107467 72.4349544624543  169.67190107467 72.4349544624543  C 169.67190107467 72.4349544624543  164.572555317506 76.4614212558767  164.572555317506 76.4614212558767  C 164.572555317506 76.4614212558767  156.269644432581 79.0861828857186  156.269644432581 79.0861828857186  C 156.269644432581 79.0861828857186  145.619817955641 79.3688797254323  145.619817955641 79.3688797254323  C 145.619817955641 79.3688797254323  134.138686603776 81.9425988703257  134.138686603776 81.9425988703257  C 134.138686603776 81.9425988703257  125.866189311837 85.8964282813216  125.866189311837 85.8964282813216  C 125.866189311837 85.8964282813216  122.718382437882 83.6112954936359  122.718382437882 83.6112954936359  C 122.718382437882 83.6112954936359  112.280203646165 83.6171850111298  112.280203646165 83.6171850111298  C 112.280203646165 83.6171850111298  101.764703871576 79.1195568181847  101.764703871576 79.1195568181847  C 101.764703871576 79.1195568181847  94.7518362224347 78.0103643568081  94.7518362224347 78.0103643568081  C 94.7518362224347 78.0103643568081  85.298277736241 79.0469194357582  85.298277736241 79.0469194357582  C 85.298277736241 79.0469194357582  70.6313225191904 77.3762596399502  70.6313225191904 77.3762596399502  C 70.6313225191904 77.3762596399502  62.7972878594521 77.5490188197753  62.7972878594521 77.5490188197753  C 62.7972878594521 77.5490188197753  58.6280911544149 73.0945804217864  58.6280911544149 73.0945804217864  C 58.6280911544149 73.0945804217864  55.3890435015046 66.0899809488802  55.3890435015046 66.0899809488802  C 55.3890435015046 66.0899809488802  50.9993482473257 65.239927257241  50.9993482473257 65.239927257241  C 50.9993482473257 65.239927257241  42.4125771612071 60.434080982108  42.4125771612071 60.434080982108  C 42.4125771612071 60.434080982108  32.8424332352375 59.3504097632055  32.8424332352375 59.3504097632055  C 32.8424332352375 59.3504097632055  24.3975922497158 58.0174156370554  24.3975922497158 58.0174156370554  C 24.3975922497158 58.0174156370554  21.8403159728876 54.6230903879929  21.8403159728876 54.6230903879929  C 21.8403159728876 54.6230903879929  24.5750048754621 45.3431739898909  24.5750048754621 45.3431739898909  C 24.5750048754621 45.3431739898909  19.6733474727011 37.401174960793  19.6733474727011 37.401174960793  C 19.6733474727011 37.401174960793  9.53801761042624 34.3288100014045  9.53801761042624 34.3288100014045  C 9.53801761042624 34.3288100014045  3.56428105494105 29.94897215834  3.56428105494105 29.94897215834  Z " fill-rule="evenodd" />
    </mask>
  </defs>
  <g transform="matrix(1 0 0 1 -2462 -4003 )">
    <path d="M 3.56428105494105 29.94897215834  C 3.56428105494105 29.94897215834  1.69891401852359 24.1183498392449  1.69891401852359 24.1183498392449  C 1.69891401852359 24.1183498392449  9.19079575717948 22.6577495007241  9.19079575717948 22.6577495007241  C 9.19079575717948 22.6577495007241  22.7501892963576 15.3154843581598  22.7501892963576 15.3154843581598  C 22.7501892963576 15.3154843581598  33.5571526703867 11.2517172872753  33.5571526703867 11.2517172872753  C 33.5571526703867 11.2517172872753  39.7387154446025 13.9078896770852  39.7387154446025 13.9078896770852  C 39.7387154446025 13.9078896770852  47.1520287347144 14.0354958894561  47.1520287347144 14.0354958894561  C 47.1520287347144 14.0354958894561  51.9016181725494 18.0462573028942  51.9016181725494 18.0462573028942  C 51.9016181725494 18.0462573028942  58.9930542702358 18.352512212584  58.9930542702358 18.352512212584  C 58.9930542702358 18.352512212584  69.2677797670263 20.492370235417  69.2677797670263 20.492370235417  C 69.2677797670263 20.492370235417  76.176734306802 14.5380680489471  76.176734306802 14.5380680489471  C 76.176734306802 14.5380680489471  73.289977439302 9.43381955411619  73.289977439302 9.43381955411619  C 73.289977439302 9.43381955411619  80.6500669416893 0.287398885879077  80.6500669416893 0.287398885879077  C 80.6500669416893 0.287398885879077  88.6108249055319 3.96049462965932  88.6108249055319 3.96049462965932  C 88.6108249055319 3.96049462965932  95.0610410844496 4.99508653611148  95.0610410844496 4.99508653611148  C 95.0610410844496 4.99508653611148  103.417175757098 7.2566612538211  103.417175757098 7.2566612538211  C 103.417175757098 7.2566612538211  104.773115111016 13.7763571197185  104.773115111016 13.7763571197185  C 104.773115111016 13.7763571197185  114.865359049896 17.3905576885582  114.865359049896 17.3905576885582  C 114.865359049896 17.3905576885582  123.425498474785 15.8023511376667  123.425498474785 15.8023511376667  C 123.425498474785 15.8023511376667  132.415249667956 14.6774532963059  132.415249667956 14.6774532963059  C 132.415249667956 14.6774532963059  139.534564892545 15.8102038276588  139.534564892545 15.8102038276588  C 139.534564892545 15.8102038276588  146.494208753962 19.9171606934995  146.494208753962 19.9171606934995  C 146.494208753962 19.9171606934995  150.807870025678 24.2420297066196  150.807870025678 24.2420297066196  C 150.807870025678 24.2420297066196  157.39748183911 24.1536869442091  157.39748183911 24.1536869442091  C 157.39748183911 24.1536869442091  166.34921604105 25.5220181753234  166.34921604105 25.5220181753234  C 166.34921604105 25.5220181753234  172.880535134594 23.4371289824348  172.880535134594 23.4371289824348  C 172.880535134594 23.4371289824348  182.237783909669 22.0393501638503  182.237783909669 22.0393501638503  C 182.237783909669 22.0393501638503  192.644301642727 16.034005492432  192.644301642727 16.034005492432  C 192.644301642727 16.034005492432  196.907273592802 16.9606229114936  196.907273592802 16.9606229114936  C 196.907273592802 16.9606229114936  200.627869801309 19.8190020685989  200.627869801309 19.8190020685989  C 200.627869801309 19.8190020685989  209.105658845898 19.1102967968167  209.105658845898 19.1102967968167  C 209.105658845898 19.1102967968167  205.646112643846 25.4847178978611  205.646112643846 25.4847178978611  C 205.646112643846 25.4847178978611  200.625335335227 33.7830480469571  200.625335335227 33.7830480469571  C 200.625335335227 33.7830480469571  202.455219846496 37.1322203285654  202.455219846496 37.1322203285654  C 202.455219846496 37.1322203285654  206.477417518771 36.0956652496151  206.477417518771 36.0956652496151  C 206.477417518771 36.0956652496151  213.48775070183 37.3658378558287  213.48775070183 37.3658378558287  C 213.48775070183 37.3658378558287  218.949525108733 34.3464785538865  218.949525108733 34.3464785538865  C 218.949525108733 34.3464785538865  224.652073793434 36.9633874937364  224.652073793434 36.9633874937364  C 224.652073793434 36.9633874937364  231.092152108023 44.0572960036932  231.092152108023 44.0572960036932  C 231.092152108023 44.0572960036932  230.314071020821 46.9097856433044  230.314071020821 46.9097856433044  C 230.314071020821 46.9097856433044  224.70783204724 46.0067262942189  224.70783204724 46.0067262942189  C 224.70783204724 46.0067262942189  214.38495169489 47.0688026156434  214.38495169489 47.0688026156434  C 214.38495169489 47.0688026156434  209.384450114928 49.3382300233451  209.384450114928 49.3382300233451  C 209.384450114928 49.3382300233451  204.176122316234 54.5641952130526  204.176122316234 54.5641952130526  C 204.176122316234 54.5641952130526  193.341279815302 57.5992598949789  193.341279815302 57.5992598949789  C 193.341279815302 57.5992598949789  186.259981581944 61.7238853133018  186.259981581944 61.7238853133018  C 186.259981581944 61.7238853133018  178.955650333363 60.1533473148923  178.955650333363 60.1533473148923  C 178.955650333363 60.1533473148923  174.958797321908 59.4505315606041  174.958797321908 59.4505315606041  C 174.958797321908 59.4505315606041  171.22552878299 64.4330633605581  171.22552878299 64.4330633605581  C 171.22552878299 64.4330633605581  173.496410392542 67.3758589350779  173.496410392542 67.3758589350779  C 173.496410392542 67.3758589350779  174.647057993811 69.8887197325331  174.647057993811 69.8887197325331  C 174.647057993811 69.8887197325331  169.67190107467 72.4349544624543  169.67190107467 72.4349544624543  C 169.67190107467 72.4349544624543  164.572555317506 76.4614212558767  164.572555317506 76.4614212558767  C 164.572555317506 76.4614212558767  156.269644432581 79.0861828857186  156.269644432581 79.0861828857186  C 156.269644432581 79.0861828857186  145.619817955641 79.3688797254323  145.619817955641 79.3688797254323  C 145.619817955641 79.3688797254323  134.138686603776 81.9425988703257  134.138686603776 81.9425988703257  C 134.138686603776 81.9425988703257  125.866189311837 85.8964282813216  125.866189311837 85.8964282813216  C 125.866189311837 85.8964282813216  122.718382437882 83.6112954936359  122.718382437882 83.6112954936359  C 122.718382437882 83.6112954936359  112.280203646165 83.6171850111298  112.280203646165 83.6171850111298  C 112.280203646165 83.6171850111298  101.764703871576 79.1195568181847  101.764703871576 79.1195568181847  C 101.764703871576 79.1195568181847  94.7518362224347 78.0103643568081  94.7518362224347 78.0103643568081  C 94.7518362224347 78.0103643568081  85.298277736241 79.0469194357582  85.298277736241 79.0469194357582  C 85.298277736241 79.0469194357582  70.6313225191904 77.3762596399502  70.6313225191904 77.3762596399502  C 70.6313225191904 77.3762596399502  62.7972878594521 77.5490188197753  62.7972878594521 77.5490188197753  C 62.7972878594521 77.5490188197753  58.6280911544149 73.0945804217864  58.6280911544149 73.0945804217864  C 58.6280911544149 73.0945804217864  55.3890435015046 66.0899809488802  55.3890435015046 66.0899809488802  C 55.3890435015046 66.0899809488802  50.9993482473257 65.239927257241  50.9993482473257 65.239927257241  C 50.9993482473257 65.239927257241  42.4125771612071 60.434080982108  42.4125771612071 60.434080982108  C 42.4125771612071 60.434080982108  32.8424332352375 59.3504097632055  32.8424332352375 59.3504097632055  C 32.8424332352375 59.3504097632055  24.3975922497158 58.0174156370554  24.3975922497158 58.0174156370554  C 24.3975922497158 58.0174156370554  21.8403159728876 54.6230903879929  21.8403159728876 54.6230903879929  C 21.8403159728876 54.6230903879929  24.5750048754621 45.3431739898909  24.5750048754621 45.3431739898909  C 24.5750048754621 45.3431739898909  19.6733474727011 37.401174960793  19.6733474727011 37.401174960793  C 19.6733474727011 37.401174960793  9.53801761042624 34.3288100014045  9.53801761042624 34.3288100014045  C 9.53801761042624 34.3288100014045  3.56428105494105 29.94897215834  3.56428105494105 29.94897215834  Z " fill-rule="nonzero" fill="#f2f2f2" stroke="none" transform="matrix(1 0 0 1 2462 4003 )" />
    <path d="M 3.56428105494105 29.94897215834  C 3.56428105494105 29.94897215834  1.69891401852359 24.1183498392449  1.69891401852359 24.1183498392449  C 1.69891401852359 24.1183498392449  9.19079575717948 22.6577495007241  9.19079575717948 22.6577495007241  C 9.19079575717948 22.6577495007241  22.7501892963576 15.3154843581598  22.7501892963576 15.3154843581598  C 22.7501892963576 15.3154843581598  33.5571526703867 11.2517172872753  33.5571526703867 11.2517172872753  C 33.5571526703867 11.2517172872753  39.7387154446025 13.9078896770852  39.7387154446025 13.9078896770852  C 39.7387154446025 13.9078896770852  47.1520287347144 14.0354958894561  47.1520287347144 14.0354958894561  C 47.1520287347144 14.0354958894561  51.9016181725494 18.0462573028942  51.9016181725494 18.0462573028942  C 51.9016181725494 18.0462573028942  58.9930542702358 18.352512212584  58.9930542702358 18.352512212584  C 58.9930542702358 18.352512212584  69.2677797670263 20.492370235417  69.2677797670263 20.492370235417  C 69.2677797670263 20.492370235417  76.176734306802 14.5380680489471  76.176734306802 14.5380680489471  C 76.176734306802 14.5380680489471  73.289977439302 9.43381955411619  73.289977439302 9.43381955411619  C 73.289977439302 9.43381955411619  80.6500669416893 0.287398885879077  80.6500669416893 0.287398885879077  C 80.6500669416893 0.287398885879077  88.6108249055319 3.96049462965932  88.6108249055319 3.96049462965932  C 88.6108249055319 3.96049462965932  95.0610410844496 4.99508653611148  95.0610410844496 4.99508653611148  C 95.0610410844496 4.99508653611148  103.417175757098 7.2566612538211  103.417175757098 7.2566612538211  C 103.417175757098 7.2566612538211  104.773115111016 13.7763571197185  104.773115111016 13.7763571197185  C 104.773115111016 13.7763571197185  114.865359049896 17.3905576885582  114.865359049896 17.3905576885582  C 114.865359049896 17.3905576885582  123.425498474785 15.8023511376667  123.425498474785 15.8023511376667  C 123.425498474785 15.8023511376667  132.415249667956 14.6774532963059  132.415249667956 14.6774532963059  C 132.415249667956 14.6774532963059  139.534564892545 15.8102038276588  139.534564892545 15.8102038276588  C 139.534564892545 15.8102038276588  146.494208753962 19.9171606934995  146.494208753962 19.9171606934995  C 146.494208753962 19.9171606934995  150.807870025678 24.2420297066196  150.807870025678 24.2420297066196  C 150.807870025678 24.2420297066196  157.39748183911 24.1536869442091  157.39748183911 24.1536869442091  C 157.39748183911 24.1536869442091  166.34921604105 25.5220181753234  166.34921604105 25.5220181753234  C 166.34921604105 25.5220181753234  172.880535134594 23.4371289824348  172.880535134594 23.4371289824348  C 172.880535134594 23.4371289824348  182.237783909669 22.0393501638503  182.237783909669 22.0393501638503  C 182.237783909669 22.0393501638503  192.644301642727 16.034005492432  192.644301642727 16.034005492432  C 192.644301642727 16.034005492432  196.907273592802 16.9606229114936  196.907273592802 16.9606229114936  C 196.907273592802 16.9606229114936  200.627869801309 19.8190020685989  200.627869801309 19.8190020685989  C 200.627869801309 19.8190020685989  209.105658845898 19.1102967968167  209.105658845898 19.1102967968167  C 209.105658845898 19.1102967968167  205.646112643846 25.4847178978611  205.646112643846 25.4847178978611  C 205.646112643846 25.4847178978611  200.625335335227 33.7830480469571  200.625335335227 33.7830480469571  C 200.625335335227 33.7830480469571  202.455219846496 37.1322203285654  202.455219846496 37.1322203285654  C 202.455219846496 37.1322203285654  206.477417518771 36.0956652496151  206.477417518771 36.0956652496151  C 206.477417518771 36.0956652496151  213.48775070183 37.3658378558287  213.48775070183 37.3658378558287  C 213.48775070183 37.3658378558287  218.949525108733 34.3464785538865  218.949525108733 34.3464785538865  C 218.949525108733 34.3464785538865  224.652073793434 36.9633874937364  224.652073793434 36.9633874937364  C 224.652073793434 36.9633874937364  231.092152108023 44.0572960036932  231.092152108023 44.0572960036932  C 231.092152108023 44.0572960036932  230.314071020821 46.9097856433044  230.314071020821 46.9097856433044  C 230.314071020821 46.9097856433044  224.70783204724 46.0067262942189  224.70783204724 46.0067262942189  C 224.70783204724 46.0067262942189  214.38495169489 47.0688026156434  214.38495169489 47.0688026156434  C 214.38495169489 47.0688026156434  209.384450114928 49.3382300233451  209.384450114928 49.3382300233451  C 209.384450114928 49.3382300233451  204.176122316234 54.5641952130526  204.176122316234 54.5641952130526  C 204.176122316234 54.5641952130526  193.341279815302 57.5992598949789  193.341279815302 57.5992598949789  C 193.341279815302 57.5992598949789  186.259981581944 61.7238853133018  186.259981581944 61.7238853133018  C 186.259981581944 61.7238853133018  178.955650333363 60.1533473148923  178.955650333363 60.1533473148923  C 178.955650333363 60.1533473148923  174.958797321908 59.4505315606041  174.958797321908 59.4505315606041  C 174.958797321908 59.4505315606041  171.22552878299 64.4330633605581  171.22552878299 64.4330633605581  C 171.22552878299 64.4330633605581  173.496410392542 67.3758589350779  173.496410392542 67.3758589350779  C 173.496410392542 67.3758589350779  174.647057993811 69.8887197325331  174.647057993811 69.8887197325331  C 174.647057993811 69.8887197325331  169.67190107467 72.4349544624543  169.67190107467 72.4349544624543  C 169.67190107467 72.4349544624543  164.572555317506 76.4614212558767  164.572555317506 76.4614212558767  C 164.572555317506 76.4614212558767  156.269644432581 79.0861828857186  156.269644432581 79.0861828857186  C 156.269644432581 79.0861828857186  145.619817955641 79.3688797254323  145.619817955641 79.3688797254323  C 145.619817955641 79.3688797254323  134.138686603776 81.9425988703257  134.138686603776 81.9425988703257  C 134.138686603776 81.9425988703257  125.866189311837 85.8964282813216  125.866189311837 85.8964282813216  C 125.866189311837 85.8964282813216  122.718382437882 83.6112954936359  122.718382437882 83.6112954936359  C 122.718382437882 83.6112954936359  112.280203646165 83.6171850111298  112.280203646165 83.6171850111298  C 112.280203646165 83.6171850111298  101.764703871576 79.1195568181847  101.764703871576 79.1195568181847  C 101.764703871576 79.1195568181847  94.7518362224347 78.0103643568081  94.7518362224347 78.0103643568081  C 94.7518362224347 78.0103643568081  85.298277736241 79.0469194357582  85.298277736241 79.0469194357582  C 85.298277736241 79.0469194357582  70.6313225191904 77.3762596399502  70.6313225191904 77.3762596399502  C 70.6313225191904 77.3762596399502  62.7972878594521 77.5490188197753  62.7972878594521 77.5490188197753  C 62.7972878594521 77.5490188197753  58.6280911544149 73.0945804217864  58.6280911544149 73.0945804217864  C 58.6280911544149 73.0945804217864  55.3890435015046 66.0899809488802  55.3890435015046 66.0899809488802  C 55.3890435015046 66.0899809488802  50.9993482473257 65.239927257241  50.9993482473257 65.239927257241  C 50.9993482473257 65.239927257241  42.4125771612071 60.434080982108  42.4125771612071 60.434080982108  C 42.4125771612071 60.434080982108  32.8424332352375 59.3504097632055  32.8424332352375 59.3504097632055  C 32.8424332352375 59.3504097632055  24.3975922497158 58.0174156370554  24.3975922497158 58.0174156370554  C 24.3975922497158 58.0174156370554  21.8403159728876 54.6230903879929  21.8403159728876 54.6230903879929  C 21.8403159728876 54.6230903879929  24.5750048754621 45.3431739898909  24.5750048754621 45.3431739898909  C 24.5750048754621 45.3431739898909  19.6733474727011 37.401174960793  19.6733474727011 37.401174960793  C 19.6733474727011 37.401174960793  9.53801761042624 34.3288100014045  9.53801761042624 34.3288100014045  C 9.53801761042624 34.3288100014045  3.56428105494105 29.94897215834  3.56428105494105 29.94897215834  Z " stroke-width="2" stroke="#505050" fill="none" stroke-opacity="0.211764705882353" transform="matrix(1 0 0 1 2462 4003 )" mask="url(#clip172)" />
  </g>
</svg>