<?xml version="1.0" encoding="utf-8"?>
<svg version="1.1" xmlns:xlink="http://www.w3.org/1999/xlink" width="90px" height="80px" xmlns="http://www.w3.org/2000/svg">
  <defs>
    <mask fill="white" id="clip173">
      <path d="M 37.7973801876406 78.1165610931957  C 37.7973801876406 78.1165610931957  35.4107371519153 79.1676891893099  35.4107371519153 79.1676891893099  C 35.4107371519153 79.1676891893099  30.7335235755474 75.2014325066392  30.7335235755474 75.2014325066392  C 30.7335235755474 75.2014325066392  26.4431282030625 70.9388578083017  26.4431282030625 70.9388578083017  C 26.4431282030625 70.9388578083017  21.7381041675918 69.4012075648435  21.7381041675918 69.4012075648435  C 21.7381041675918 69.4012075648435  18.3502846041683 67.6893703797432  18.3502846041683 67.6893703797432  C 18.3502846041683 67.6893703797432  14.3910865173617 67.7554412886417  14.3910865173617 67.7554412886417  C 14.3910865173617 67.7554412886417  10.9324766944041 69.022801450242  10.9324766944041 69.022801450242  C 10.9324766944041 69.022801450242  7.41066128257655 68.5202621128618  7.41066128257655 68.5202621128618  C 7.41066128257655 68.5202621128618  4.98356666997477 70.3842626033045  4.98356666997477 70.3842626033045  C 4.98356666997477 70.3842626033045  4.36920834615987 67.2508998025068  4.36920834615987 67.2508998025068  C 4.36920834615987 67.2508998025068  6.34880738956308 64.3738120422859  6.34880738956308 64.3738120422859  C 6.34880738956308 64.3738120422859  7.2286291866314 58.8618965211387  7.2286291866314 58.8618965211387  C 7.2286291866314 58.8618965211387  6.44487988464529 53.043652240552  6.44487988464529 53.043652240552  C 6.44487988464529 53.043652240552  5.59034032312527 50.1044978689414  5.59034032312527 50.1044978689414  C 5.59034032312527 50.1044978689414  6.29571469491264 47.1453220097858  6.29571469491264 47.1453220097858  C 6.29571469491264 47.1453220097858  4.46528084124188 44.3162858196728  4.46528084124188 44.3162858196728  C 4.46528084124188 44.3162858196728  0.728566427257104 41.7375182238727  0.728566427257104 41.7375182238727  C 0.728566427257104 41.7375182238727  2.2733110192361 38.2868304610876  2.2733110192361 38.2868304610876  C 2.2733110192361 38.2868304610876  30.0332056508693 38.3248712874232  30.0332056508693 38.3248712874232  C 30.0332056508693 38.3248712874232  28.690718943274 29.6275370978613  28.690718943274 29.6275370978613  C 28.690718943274 29.6275370978613  30.4250803018624 26.5121936358542  30.4250803018624 26.5121936358542  C 30.4250803018624 26.5121936358542  37.0667235803051 25.9656070258749  37.0667235803051 25.9656070258749  C 37.0667235803051 25.9656070258749  36.8366552368191 10.2467371542701  36.8366552368191 10.2467371542701  C 36.8366552368191 10.2467371542701  61.9406313054617 10.5730874012542  61.9406313054617 10.5730874012542  C 61.9406313054617 10.5730874012542  61.9608570939 1.10893023871772  61.9608570939 1.10893023871772  C 61.9608570939 1.10893023871772  88.6235027027532 16.1750996163544  88.6235027027532 16.1750996163544  C 88.6235027027532 16.1750996163544  77.7748954291339 16.2872199466064  77.7748954291339 16.2872199466064  C 77.7748954291339 16.2872199466064  81.1955818987697 43.8818195399455  81.1955818987697 43.8818195399455  C 81.1955818987697 43.8818195399455  84.6162683684053 69.2790764908185  84.6162683684053 69.2790764908185  C 84.6162683684053 69.2790764908185  85.8449850160351 69.9958457449307  85.8449850160351 69.9958457449307  C 85.8449850160351 69.9958457449307  84.2673735178438 74.0562034190632  84.2673735178438 74.0562034190632  C 84.2673735178438 74.0562034190632  55.824858526416 74.1442979642614  55.824858526416 74.1442979642614  C 55.824858526416 74.1442979642614  54.7604764098479 75.4296774646523  54.7604764098479 75.4296774646523  C 54.7604764098479 75.4296774646523  52.0198820764518 75.0472670525424  52.0198820764518 75.0472670525424  C 52.0198820764518 75.0472670525424  48.0227606363232 76.1904939913637  48.0227606363232 76.1904939913637  C 48.0227606363232 76.1904939913637  41.2357642221598 74.5807663927431  41.2357642221598 74.5807663927431  C 41.2357642221598 74.5807663927431  38.9881734819483 74.7129082105401  38.9881734819483 74.7129082105401  C 38.9881734819483 74.7129082105401  37.7973801876406 78.1165610931957  37.7973801876406 78.1165610931957  Z " fill-rule="evenodd" />
    </mask>
  </defs>
  <g transform="matrix(1 0 0 1 -1716 -4183 )">
    <path d="M 37.7973801876406 78.1165610931957  C 37.7973801876406 78.1165610931957  35.4107371519153 79.1676891893099  35.4107371519153 79.1676891893099  C 35.4107371519153 79.1676891893099  30.7335235755474 75.2014325066392  30.7335235755474 75.2014325066392  C 30.7335235755474 75.2014325066392  26.4431282030625 70.9388578083017  26.4431282030625 70.9388578083017  C 26.4431282030625 70.9388578083017  21.7381041675918 69.4012075648435  21.7381041675918 69.4012075648435  C 21.7381041675918 69.4012075648435  18.3502846041683 67.6893703797432  18.3502846041683 67.6893703797432  C 18.3502846041683 67.6893703797432  14.3910865173617 67.7554412886417  14.3910865173617 67.7554412886417  C 14.3910865173617 67.7554412886417  10.9324766944041 69.022801450242  10.9324766944041 69.022801450242  C 10.9324766944041 69.022801450242  7.41066128257655 68.5202621128618  7.41066128257655 68.5202621128618  C 7.41066128257655 68.5202621128618  4.98356666997477 70.3842626033045  4.98356666997477 70.3842626033045  C 4.98356666997477 70.3842626033045  4.36920834615987 67.2508998025068  4.36920834615987 67.2508998025068  C 4.36920834615987 67.2508998025068  6.34880738956308 64.3738120422859  6.34880738956308 64.3738120422859  C 6.34880738956308 64.3738120422859  7.2286291866314 58.8618965211387  7.2286291866314 58.8618965211387  C 7.2286291866314 58.8618965211387  6.44487988464529 53.043652240552  6.44487988464529 53.043652240552  C 6.44487988464529 53.043652240552  5.59034032312527 50.1044978689414  5.59034032312527 50.1044978689414  C 5.59034032312527 50.1044978689414  6.29571469491264 47.1453220097858  6.29571469491264 47.1453220097858  C 6.29571469491264 47.1453220097858  4.46528084124188 44.3162858196728  4.46528084124188 44.3162858196728  C 4.46528084124188 44.3162858196728  0.728566427257104 41.7375182238727  0.728566427257104 41.7375182238727  C 0.728566427257104 41.7375182238727  2.2733110192361 38.2868304610876  2.2733110192361 38.2868304610876  C 2.2733110192361 38.2868304610876  30.0332056508693 38.3248712874232  30.0332056508693 38.3248712874232  C 30.0332056508693 38.3248712874232  28.690718943274 29.6275370978613  28.690718943274 29.6275370978613  C 28.690718943274 29.6275370978613  30.4250803018624 26.5121936358542  30.4250803018624 26.5121936358542  C 30.4250803018624 26.5121936358542  37.0667235803051 25.9656070258749  37.0667235803051 25.9656070258749  C 37.0667235803051 25.9656070258749  36.8366552368191 10.2467371542701  36.8366552368191 10.2467371542701  C 36.8366552368191 10.2467371542701  61.9406313054617 10.5730874012542  61.9406313054617 10.5730874012542  C 61.9406313054617 10.5730874012542  61.9608570939 1.10893023871772  61.9608570939 1.10893023871772  C 61.9608570939 1.10893023871772  88.6235027027532 16.1750996163544  88.6235027027532 16.1750996163544  C 88.6235027027532 16.1750996163544  77.7748954291339 16.2872199466064  77.7748954291339 16.2872199466064  C 77.7748954291339 16.2872199466064  81.1955818987697 43.8818195399455  81.1955818987697 43.8818195399455  C 81.1955818987697 43.8818195399455  84.6162683684053 69.2790764908185  84.6162683684053 69.2790764908185  C 84.6162683684053 69.2790764908185  85.8449850160351 69.9958457449307  85.8449850160351 69.9958457449307  C 85.8449850160351 69.9958457449307  84.2673735178438 74.0562034190632  84.2673735178438 74.0562034190632  C 84.2673735178438 74.0562034190632  55.824858526416 74.1442979642614  55.824858526416 74.1442979642614  C 55.824858526416 74.1442979642614  54.7604764098479 75.4296774646523  54.7604764098479 75.4296774646523  C 54.7604764098479 75.4296774646523  52.0198820764518 75.0472670525424  52.0198820764518 75.0472670525424  C 52.0198820764518 75.0472670525424  48.0227606363232 76.1904939913637  48.0227606363232 76.1904939913637  C 48.0227606363232 76.1904939913637  41.2357642221598 74.5807663927431  41.2357642221598 74.5807663927431  C 41.2357642221598 74.5807663927431  38.9881734819483 74.7129082105401  38.9881734819483 74.7129082105401  C 38.9881734819483 74.7129082105401  37.7973801876406 78.1165610931957  37.7973801876406 78.1165610931957  Z " fill-rule="nonzero" fill="#f2f2f2" stroke="none" transform="matrix(1 0 0 1 1716 4183 )" />
    <path d="M 37.7973801876406 78.1165610931957  C 37.7973801876406 78.1165610931957  35.4107371519153 79.1676891893099  35.4107371519153 79.1676891893099  C 35.4107371519153 79.1676891893099  30.7335235755474 75.2014325066392  30.7335235755474 75.2014325066392  C 30.7335235755474 75.2014325066392  26.4431282030625 70.9388578083017  26.4431282030625 70.9388578083017  C 26.4431282030625 70.9388578083017  21.7381041675918 69.4012075648435  21.7381041675918 69.4012075648435  C 21.7381041675918 69.4012075648435  18.3502846041683 67.6893703797432  18.3502846041683 67.6893703797432  C 18.3502846041683 67.6893703797432  14.3910865173617 67.7554412886417  14.3910865173617 67.7554412886417  C 14.3910865173617 67.7554412886417  10.9324766944041 69.022801450242  10.9324766944041 69.022801450242  C 10.9324766944041 69.022801450242  7.41066128257655 68.5202621128618  7.41066128257655 68.5202621128618  C 7.41066128257655 68.5202621128618  4.98356666997477 70.3842626033045  4.98356666997477 70.3842626033045  C 4.98356666997477 70.3842626033045  4.36920834615987 67.2508998025068  4.36920834615987 67.2508998025068  C 4.36920834615987 67.2508998025068  6.34880738956308 64.3738120422859  6.34880738956308 64.3738120422859  C 6.34880738956308 64.3738120422859  7.2286291866314 58.8618965211387  7.2286291866314 58.8618965211387  C 7.2286291866314 58.8618965211387  6.44487988464529 53.043652240552  6.44487988464529 53.043652240552  C 6.44487988464529 53.043652240552  5.59034032312527 50.1044978689414  5.59034032312527 50.1044978689414  C 5.59034032312527 50.1044978689414  6.29571469491264 47.1453220097858  6.29571469491264 47.1453220097858  C 6.29571469491264 47.1453220097858  4.46528084124188 44.3162858196728  4.46528084124188 44.3162858196728  C 4.46528084124188 44.3162858196728  0.728566427257104 41.7375182238727  0.728566427257104 41.7375182238727  C 0.728566427257104 41.7375182238727  2.2733110192361 38.2868304610876  2.2733110192361 38.2868304610876  C 2.2733110192361 38.2868304610876  30.0332056508693 38.3248712874232  30.0332056508693 38.3248712874232  C 30.0332056508693 38.3248712874232  28.690718943274 29.6275370978613  28.690718943274 29.6275370978613  C 28.690718943274 29.6275370978613  30.4250803018624 26.5121936358542  30.4250803018624 26.5121936358542  C 30.4250803018624 26.5121936358542  37.0667235803051 25.9656070258749  37.0667235803051 25.9656070258749  C 37.0667235803051 25.9656070258749  36.8366552368191 10.2467371542701  36.8366552368191 10.2467371542701  C 36.8366552368191 10.2467371542701  61.9406313054617 10.5730874012542  61.9406313054617 10.5730874012542  C 61.9406313054617 10.5730874012542  61.9608570939 1.10893023871772  61.9608570939 1.10893023871772  C 61.9608570939 1.10893023871772  88.6235027027532 16.1750996163544  88.6235027027532 16.1750996163544  C 88.6235027027532 16.1750996163544  77.7748954291339 16.2872199466064  77.7748954291339 16.2872199466064  C 77.7748954291339 16.2872199466064  81.1955818987697 43.8818195399455  81.1955818987697 43.8818195399455  C 81.1955818987697 43.8818195399455  84.6162683684053 69.2790764908185  84.6162683684053 69.2790764908185  C 84.6162683684053 69.2790764908185  85.8449850160351 69.9958457449307  85.8449850160351 69.9958457449307  C 85.8449850160351 69.9958457449307  84.2673735178438 74.0562034190632  84.2673735178438 74.0562034190632  C 84.2673735178438 74.0562034190632  55.824858526416 74.1442979642614  55.824858526416 74.1442979642614  C 55.824858526416 74.1442979642614  54.7604764098479 75.4296774646523  54.7604764098479 75.4296774646523  C 54.7604764098479 75.4296774646523  52.0198820764518 75.0472670525424  52.0198820764518 75.0472670525424  C 52.0198820764518 75.0472670525424  48.0227606363232 76.1904939913637  48.0227606363232 76.1904939913637  C 48.0227606363232 76.1904939913637  41.2357642221598 74.5807663927431  41.2357642221598 74.5807663927431  C 41.2357642221598 74.5807663927431  38.9881734819483 74.7129082105401  38.9881734819483 74.7129082105401  C 38.9881734819483 74.7129082105401  37.7973801876406 78.1165610931957  37.7973801876406 78.1165610931957  Z " stroke-width="2" stroke="#505050" fill="none" stroke-opacity="0.211764705882353" transform="matrix(1 0 0 1 1716 4183 )" mask="url(#clip173)" />
  </g>
</svg>