<?xml version="1.0" encoding="utf-8"?>
<svg version="1.1" xmlns:xlink="http://www.w3.org/1999/xlink" width="26px" height="45px" xmlns="http://www.w3.org/2000/svg">
  <defs>
    <mask fill="white" id="clip174">
      <path d="M 14.0269165614087 5.97251523916857  C 14.0269165614087 5.97251523916857  16.033623779594 13.4383988999671  16.033623779594 13.4383988999671  C 16.033623779594 13.4383988999671  14.0269165614087 17.6271912883434  14.0269165614087 17.6271912883434  C 14.0269165614087 17.6271912883434  16.033623779594 26.2263953157033  16.033623779594 26.2263953157033  C 16.033623779594 26.2263953157033  18.5209182041725 26.1470327981786  18.5209182041725 26.1470327981786  C 18.5209182041725 26.1470327981786  21.1079089109291 27.9375286203821  21.1079089109291 27.9375286203821  C 21.1079089109291 27.9375286203821  24.1090226359602 31.9598532890724  24.1090226359602 31.9598532890724  C 24.1090226359602 31.9598532890724  24.7199819036627 39.1489359741139  24.7199819036627 39.1489359741139  C 24.7199819036627 39.1489359741139  21.6166155815263 40.3296953811888  21.6166155815263 40.3296953811888  C 21.6166155815263 40.3296953811888  19.4284100034793 44.2339441091717  19.4284100034793 44.2339441091717  C 19.4284100034793 44.2339441091717  14.7529100008543 40.7574787073585  14.7529100008543 40.7574787073585  C 14.7529100008543 40.7574787073585  14.2211964959083 36.8067738715562  14.2211964959083 36.8067738715562  C 14.2211964959083 36.8067738715562  15.7294223032068 34.2071675048328  15.7294223032068 34.2071675048328  C 15.7294223032068 34.2071675048328  15.3152992849318 31.9714673160273  15.3152992849318 31.9714673160273  C 15.3152992849318 31.9714673160273  10.6283158029079 30.5622987121743  10.6283158029079 30.5622987121743  C 10.6283158029079 30.5622987121743  8.65484067878167 31.0733158981868  8.65484067878167 31.0733158981868  C 8.65484067878167 31.0733158981868  4.52894838559545 28.4040253697345  4.52894838559545 28.4040253697345  C 4.52894838559545 28.4040253697345  0.760940182276792 26.9638860273352  0.760940182276792 26.9638860273352  C 0.760940182276792 26.9638860273352  2.9363641856855 20.4106864151851  2.9363641856855 20.4106864151851  C 2.9363641856855 20.4106864151851  5.19103395185029 18.4885649541602  5.19103395185029 18.4885649541602  C 5.19103395185029 18.4885649541602  3.81573652078821 13.9184453474334  3.81573652078821 13.9184453474334  C 3.81573652078821 13.9184453474334  5.25494182504099 9.46253033909596  5.25494182504099 9.46253033909596  C 5.25494182504099 9.46253033909596  6.47686036044589 7.97593488887724  6.47686036044589 7.97593488887724  C 6.47686036044589 7.97593488887724  4.65420781704935 3.32645276462568  4.65420781704935 3.32645276462568  C 4.65420781704935 3.32645276462568  1.26964685287446 0.889442775269877  1.26964685287446 0.889442775269877  C 1.26964685287446 0.889442775269877  8.29695658891452 1.90760580497685  8.29695658891452 1.90760580497685  C 8.29695658891452 1.90760580497685  9.73871820809479 3.41936498026435  9.73871820809479 3.41936498026435  C 9.73871820809479 3.41936498026435  14.0269165614087 5.97251523916857  14.0269165614087 5.97251523916857  Z " fill-rule="evenodd" />
    </mask>
  </defs>
  <g transform="matrix(1 0 0 1 -2071 -4392 )">
    <path d="M 14.0269165614087 5.97251523916857  C 14.0269165614087 5.97251523916857  16.033623779594 13.4383988999671  16.033623779594 13.4383988999671  C 16.033623779594 13.4383988999671  14.0269165614087 17.6271912883434  14.0269165614087 17.6271912883434  C 14.0269165614087 17.6271912883434  16.033623779594 26.2263953157033  16.033623779594 26.2263953157033  C 16.033623779594 26.2263953157033  18.5209182041725 26.1470327981786  18.5209182041725 26.1470327981786  C 18.5209182041725 26.1470327981786  21.1079089109291 27.9375286203821  21.1079089109291 27.9375286203821  C 21.1079089109291 27.9375286203821  24.1090226359602 31.9598532890724  24.1090226359602 31.9598532890724  C 24.1090226359602 31.9598532890724  24.7199819036627 39.1489359741139  24.7199819036627 39.1489359741139  C 24.7199819036627 39.1489359741139  21.6166155815263 40.3296953811888  21.6166155815263 40.3296953811888  C 21.6166155815263 40.3296953811888  19.4284100034793 44.2339441091717  19.4284100034793 44.2339441091717  C 19.4284100034793 44.2339441091717  14.7529100008543 40.7574787073585  14.7529100008543 40.7574787073585  C 14.7529100008543 40.7574787073585  14.2211964959083 36.8067738715562  14.2211964959083 36.8067738715562  C 14.2211964959083 36.8067738715562  15.7294223032068 34.2071675048328  15.7294223032068 34.2071675048328  C 15.7294223032068 34.2071675048328  15.3152992849318 31.9714673160273  15.3152992849318 31.9714673160273  C 15.3152992849318 31.9714673160273  10.6283158029079 30.5622987121743  10.6283158029079 30.5622987121743  C 10.6283158029079 30.5622987121743  8.65484067878167 31.0733158981868  8.65484067878167 31.0733158981868  C 8.65484067878167 31.0733158981868  4.52894838559545 28.4040253697345  4.52894838559545 28.4040253697345  C 4.52894838559545 28.4040253697345  0.760940182276792 26.9638860273352  0.760940182276792 26.9638860273352  C 0.760940182276792 26.9638860273352  2.9363641856855 20.4106864151851  2.9363641856855 20.4106864151851  C 2.9363641856855 20.4106864151851  5.19103395185029 18.4885649541602  5.19103395185029 18.4885649541602  C 5.19103395185029 18.4885649541602  3.81573652078821 13.9184453474334  3.81573652078821 13.9184453474334  C 3.81573652078821 13.9184453474334  5.25494182504099 9.46253033909596  5.25494182504099 9.46253033909596  C 5.25494182504099 9.46253033909596  6.47686036044589 7.97593488887724  6.47686036044589 7.97593488887724  C 6.47686036044589 7.97593488887724  4.65420781704935 3.32645276462568  4.65420781704935 3.32645276462568  C 4.65420781704935 3.32645276462568  1.26964685287446 0.889442775269877  1.26964685287446 0.889442775269877  C 1.26964685287446 0.889442775269877  8.29695658891452 1.90760580497685  8.29695658891452 1.90760580497685  C 8.29695658891452 1.90760580497685  9.73871820809479 3.41936498026435  9.73871820809479 3.41936498026435  C 9.73871820809479 3.41936498026435  14.0269165614087 5.97251523916857  14.0269165614087 5.97251523916857  Z " fill-rule="nonzero" fill="#f2f2f2" stroke="none" transform="matrix(1 0 0 1 2071 4392 )" />
    <path d="M 14.0269165614087 5.97251523916857  C 14.0269165614087 5.97251523916857  16.033623779594 13.4383988999671  16.033623779594 13.4383988999671  C 16.033623779594 13.4383988999671  14.0269165614087 17.6271912883434  14.0269165614087 17.6271912883434  C 14.0269165614087 17.6271912883434  16.033623779594 26.2263953157033  16.033623779594 26.2263953157033  C 16.033623779594 26.2263953157033  18.5209182041725 26.1470327981786  18.5209182041725 26.1470327981786  C 18.5209182041725 26.1470327981786  21.1079089109291 27.9375286203821  21.1079089109291 27.9375286203821  C 21.1079089109291 27.9375286203821  24.1090226359602 31.9598532890724  24.1090226359602 31.9598532890724  C 24.1090226359602 31.9598532890724  24.7199819036627 39.1489359741139  24.7199819036627 39.1489359741139  C 24.7199819036627 39.1489359741139  21.6166155815263 40.3296953811888  21.6166155815263 40.3296953811888  C 21.6166155815263 40.3296953811888  19.4284100034793 44.2339441091717  19.4284100034793 44.2339441091717  C 19.4284100034793 44.2339441091717  14.7529100008543 40.7574787073585  14.7529100008543 40.7574787073585  C 14.7529100008543 40.7574787073585  14.2211964959083 36.8067738715562  14.2211964959083 36.8067738715562  C 14.2211964959083 36.8067738715562  15.7294223032068 34.2071675048328  15.7294223032068 34.2071675048328  C 15.7294223032068 34.2071675048328  15.3152992849318 31.9714673160273  15.3152992849318 31.9714673160273  C 15.3152992849318 31.9714673160273  10.6283158029079 30.5622987121743  10.6283158029079 30.5622987121743  C 10.6283158029079 30.5622987121743  8.65484067878167 31.0733158981868  8.65484067878167 31.0733158981868  C 8.65484067878167 31.0733158981868  4.52894838559545 28.4040253697345  4.52894838559545 28.4040253697345  C 4.52894838559545 28.4040253697345  0.760940182276792 26.9638860273352  0.760940182276792 26.9638860273352  C 0.760940182276792 26.9638860273352  2.9363641856855 20.4106864151851  2.9363641856855 20.4106864151851  C 2.9363641856855 20.4106864151851  5.19103395185029 18.4885649541602  5.19103395185029 18.4885649541602  C 5.19103395185029 18.4885649541602  3.81573652078821 13.9184453474334  3.81573652078821 13.9184453474334  C 3.81573652078821 13.9184453474334  5.25494182504099 9.46253033909596  5.25494182504099 9.46253033909596  C 5.25494182504099 9.46253033909596  6.47686036044589 7.97593488887724  6.47686036044589 7.97593488887724  C 6.47686036044589 7.97593488887724  4.65420781704935 3.32645276462568  4.65420781704935 3.32645276462568  C 4.65420781704935 3.32645276462568  1.26964685287446 0.889442775269877  1.26964685287446 0.889442775269877  C 1.26964685287446 0.889442775269877  8.29695658891452 1.90760580497685  8.29695658891452 1.90760580497685  C 8.29695658891452 1.90760580497685  9.73871820809479 3.41936498026435  9.73871820809479 3.41936498026435  C 9.73871820809479 3.41936498026435  14.0269165614087 5.97251523916857  14.0269165614087 5.97251523916857  Z " stroke-width="2" stroke="#505050" fill="none" stroke-opacity="0.211764705882353" transform="matrix(1 0 0 1 2071 4392 )" mask="url(#clip174)" />
  </g>
</svg>