<?xml version="1.0" encoding="utf-8"?>
<svg version="1.1" xmlns:xlink="http://www.w3.org/1999/xlink" width="220px" height="113px" xmlns="http://www.w3.org/2000/svg">
  <defs>
    <mask fill="white" id="clip175">
      <path d="M 142.057128079641 44.1025001389359  C 142.057128079641 44.1025001389359  144.841082273219 43.9190404250176  144.841082273219 43.9190404250176  C 144.841082273219 43.9190404250176  142.072396566992 49.3251196036301  142.072396566992 49.3251196036301  C 142.072396566992 49.3251196036301  140.822925352141 53.7261586103428  140.822925352141 53.7261586103428  C 140.822925352141 53.7261586103428  140.303796782223 63.304933663894  140.303796782223 63.304933663894  C 140.303796782223 63.304933663894  139.614170103558 66.2462714685617  139.614170103558 66.2462714685617  C 139.614170103558 66.2462714685617  140.85091757895 69.5226226638625  140.85091757895 69.5226226638625  C 140.85091757895 69.5226226638625  143.062303496883 72.4380368133023  143.062303496883 72.4380368133023  C 143.062303496883 72.4380368133023  144.489907064157 77.0564356984616  144.489907064157 77.0564356984616  C 144.489907064157 77.0564356984616  149.223138142818 81.4694394691252  149.223138142818 81.4694394691252  C 149.223138142818 81.4694394691252  150.889948011916 84.83552639406  150.889948011916 84.83552639406  C 150.889948011916 84.83552639406  153.681536449169 87.7309992702479  153.681536449169 87.7309992702479  C 153.681536449169 87.7309992702479  161.257250922918 89.2864185839027  161.257250922918 89.2864185839027  C 161.257250922918 89.2864185839027  164.206613729459 91.7372010665715  164.206613729459 91.7372010665715  C 164.206613729459 91.7372010665715  170.466693543172 90.1000225325838  170.466693543172 90.1000225325838  C 170.466693543172 90.1000225325838  175.904819787848 89.5077667169998  175.904819787848 89.5077667169998  C 175.904819787848 89.5077667169998  181.248790360529 88.4548674892951  181.248790360529 88.4548674892951  C 181.248790360529 88.4548674892951  185.737725641582 87.4478331900698  185.737725641582 87.4478331900698  C 185.737725641582 87.4478331900698  190.277555880469 85.0488980178564  190.277555880469 85.0488980178564  C 190.277555880469 85.0488980178564  191.97744747216 81.6090283818892  191.97744747216 81.6090283818892  C 191.97744747216 81.6090283818892  192.562739487263 76.6296924508691  192.562739487263 76.6296924508691  C 192.562739487263 76.6296924508691  193.796942214763 74.8908134232963  193.796942214763 74.8908134232963  C 193.796942214763 74.8908134232963  198.629418461202 73.3294117276658  198.629418461202 73.3294117276658  C 198.629418461202 73.3294117276658  206.17459596025 71.9454873639784  206.17459596025 71.9454873639784  C 206.17459596025 71.9454873639784  212.493204975473 72.1528766057989  212.493204975473 72.1528766057989  C 212.493204975473 72.1528766057989  216.819276391453 71.6463682651986  216.819276391453 71.6463682651986  C 216.819276391453 71.6463682651986  218.531891722603 72.9126391166994  218.531891722603 72.9126391166994  C 218.531891722603 72.9126391166994  218.290140672886 75.7841824649852  218.290140672886 75.7841824649852  C 218.290140672886 75.7841824649852  214.455205600014 79.3117937032609  214.455205600014 79.3117937032609  C 214.455205600014 79.3117937032609  212.760403504107 82.9111935252437  212.760403504107 82.9111935252437  C 212.760403504107 82.9111935252437  214.073493416251 83.9381690977209  214.073493416251 83.9381690977209  C 214.073493416251 83.9381690977209  213.004699301715 86.4846696919989  213.004699301715 86.4846696919989  C 213.004699301715 86.4846696919989  211.215741533813 91.0611919033292  211.215741533813 91.0611919033292  C 211.215741533813 91.0611919033292  209.408970530668 89.5576199001295  209.408970530668 89.5576199001295  C 209.408970530668 89.5576199001295  207.915203518209 89.6553321390645  207.915203518209 89.6553321390645  C 207.915203518209 89.6553321390645  206.558852891905 89.7311089774221  206.558852891905 89.7311089774221  C 206.558852891905 89.7311089774221  204.001381260693 93.262708470348  204.001381260693 93.262708470348  C 204.001381260693 93.262708470348  202.706104583791 92.5727404158294  202.706104583791 92.5727404158294  C 202.706104583791 92.5727404158294  201.843435048486 92.839953477406  201.843435048486 92.839953477406  C 201.843435048486 92.839953477406  201.899419502105 93.6994223545666  201.899419502105 93.6994223545666  C 201.899419502105 93.6994223545666  195.300888218789 93.6356102801603  195.300888218789 93.6356102801603  C 195.300888218789 93.6356102801603  188.63873823818 93.6455809167861  188.63873823818 93.6455809167861  C 188.63873823818 93.6455809167861  188.633648742397 96.9259203667374  188.633648742397 96.9259203667374  C 188.633648742397 96.9259203667374  185.411997911437 96.9398792580138  185.411997911437 96.9398792580138  C 185.411997911437 96.9398792580138  188.068714710427 98.8821592727569  188.068714710427 98.8821592727569  C 188.068714710427 98.8821592727569  190.705073526283 100.22221283529  190.705073526283 100.22221283529  C 190.705073526283 100.22221283529  191.49903486851 101.478513050165  191.49903486851 101.478513050165  C 191.49903486851 101.478513050165  192.654350411366 101.8294794594  192.654350411366 101.8294794594  C 192.654350411366 101.8294794594  192.47112856316 103.799677256696  192.47112856316 103.799677256696  C 192.47112856316 103.799677256696  183.312580900741 103.817624402623  183.312580900741 103.817624402623  C 183.312580900741 103.817624402623  179.879715994766 108.521770762766  179.879715994766 108.521770762766  C 179.879715994766 108.521770762766  180.892525655684 109.598599518372  180.892525655684 109.598599518372  C 180.892525655684 109.598599518372  180.065482590864 110.946629590207  180.065482590864 110.946629590207  C 180.065482590864 110.946629590207  179.889894986333 112.619702416048  179.889894986333 112.619702416048  C 179.889894986333 112.619702416048  171.815409925801 106.423948816657  171.815409925801 106.423948816657  C 171.815409925801 106.423948816657  168.135704474326 104.54946913097  168.135704474326 104.54946913097  C 168.135704474326 104.54946913097  162.308231802212 103.041908873121  162.308231802212 103.041908873121  C 162.308231802212 103.041908873121  158.325701351618 103.460675611412  158.325701351618 103.460675611412  C 158.325701351618 103.460675611412  152.59492909939 105.634274395878  152.59492909939 105.634274395878  C 152.59492909939 105.634274395878  148.996655580451 106.204594810885  148.996655580451 106.204594810885  C 148.996655580451 106.204594810885  143.958054754781 104.683075661759  143.958054754781 104.683075661759  C 143.958054754781 104.683075661759  138.611539434208 103.582317378249  138.611539434208 103.582317378249  C 138.611539434208 103.582317378249  131.941755209923 100.926139781085  131.941755209923 100.926139781085  C 131.941755209923 100.926139781085  126.592695141458 100.114529959729  126.592695141458 100.114529959729  C 126.592695141458 100.114529959729  118.515665333034 97.4124874340858  118.515665333034 97.4124874340858  C 118.515665333034 97.4124874340858  112.545686778982 94.6286856881089  112.545686778982 94.6286856881089  C 112.545686778982 94.6286856881089  110.74400527162 93.0712722471289  110.74400527162 93.0712722471289  C 110.74400527162 93.0712722471289  104.902556333662 92.7222999652194  104.902556333662 92.7222999652194  C 104.902556333662 92.7222999652194  97.6042193801139 90.8717498074353  97.6042193801139 90.8717498074353  C 97.6042193801139 90.8717498074353  94.6344985904382 88.1976250643446  94.6344985904382 88.1976250643446  C 94.6344985904382 88.1976250643446  86.9671731925864 84.8594559219625  86.9671731925864 84.8594559219625  C 86.9671731925864 84.8594559219625  83.3918024046734 81.1384143331426  83.3918024046734 81.1384143331426  C 83.3918024046734 81.1384143331426  81.6919108129824 78.2529120935805  81.6919108129824 78.2529120935805  C 81.6919108129824 78.2529120935805  84.0712500917713 77.6726210419478  84.0712500917713 77.6726210419478  C 84.0712500917713 77.6726210419478  83.3383626989465 75.9796069428544  83.3383626989465 75.9796069428544  C 83.3383626989465 75.9796069428544  84.9771803412355 74.434158265826  84.9771803412355 74.434158265826  C 84.9771803412355 74.434158265826  85.0128068117201 72.3722306115709  85.0128068117201 72.3722306115709  C 85.0128068117201 72.3722306115709  82.6054753061217 69.6881352318537  82.6054753061217 69.6881352318537  C 82.6054753061217 69.6881352318537  81.9616540895082 67.3011648235915  81.9616540895082 67.3011648235915  C 81.9616540895082 67.3011648235915  79.5695910712603 64.2621147799892  79.5695910712603 64.2621147799892  C 79.5695910712603 64.2621147799892  73.2815190307386 58.2478267671913  73.2815190307386 58.2478267671913  C 73.2815190307386 58.2478267671913  66.107874723887 52.0371327658996  66.107874723887 52.0371327658996  C 66.107874723887 52.0371327658996  62.6368385995357 48.2183789381451  62.6368385995357 48.2183789381451  C 62.6368385995357 48.2183789381451  56.5116304240863 45.7057785083954  56.5116304240863 45.7057785083954  C 56.5116304240863 45.7057785083954  55.2010852598335 44.19622412322  55.2010852598335 44.19622412322  C 55.2010852598335 44.19622412322  56.2876926096121 40.3694937861645  56.2876926096121 40.3694937861645  C 56.2876926096121 40.3694937861645  52.651247872297 38.9177690934202  52.651247872297 38.9177690934202  C 52.651247872297 38.9177690934202  48.4396901114457 35.8866955591189  48.4396901114457 35.8866955591189  C 48.4396901114457 35.8866955591189  46.6609113351104 31.5135743349589  46.6609113351104 31.5135743349589  C 46.6609113351104 31.5135743349589  42.820886766455 31.001083612383  42.820886766455 31.001083612383  C 42.820886766455 31.001083612383  38.6805819465729 27.6768733612775  38.6805819465729 27.6768733612775  C 38.6805819465729 27.6768733612775  35.3367832168094 24.5899642618706  35.3367832168094 24.5899642618706  C 35.3367832168094 24.5899642618706  35.0237792261239 22.6018193186477  35.0237792261239 22.6018193186477  C 35.0237792261239 22.6018193186477  31.1888441532521 17.7740370643428  31.1888441532521 17.7740370643428  C 31.1888441532521 17.7740370643428  28.6593647488495 12.8345836798263  28.6593647488495 12.8345836798263  C 28.6593647488495 12.8345836798263  28.7687889081949 10.3419245233286  28.7687889081949 10.3419245233286  C 28.7687889081949 10.3419245233286  23.6080401837198 7.75554138254653  23.6080401837198 7.75554138254653  C 23.6080401837198 7.75554138254653  21.2261561570391 8.04070159004984  21.2261561570391 8.04070159004984  C 21.2261561570391 8.04070159004984  17.1545595302342 6.24000461539581  17.1545595302342 6.24000461539581  C 17.1545595302342 6.24000461539581  16.0094229789453 8.89219395790951  16.0094229789453 8.89219395790951  C 16.0094229789453 8.89219395790951  17.1901860007188 12.0130032218448  17.1901860007188 12.0130032218448  C 17.1901860007188 12.0130032218448  17.8849021751673 16.8627208767271  17.8849021751673 16.8627208767271  C 17.8849021751673 16.8627208767271  20.3329496470338 19.5089278372651  20.3329496470338 19.5089278372651  C 20.3329496470338 19.5089278372651  25.6285700097718 23.9099668439778  25.6285700097718 23.9099668439778  C 25.6285700097718 23.9099668439778  26.8042435357617 25.4055623378765  26.8042435357617 25.4055623378765  C 26.8042435357617 25.4055623378765  27.8883061376484 25.8582292406966  27.8883061376484 25.8582292406966  C 27.8883061376484 25.8582292406966  28.829862857597 28.0338221524881  28.829862857597 28.0338221524881  C 28.829862857597 28.0338221524881  30.09714730769 27.9460805501793  30.09714730769 27.9460805501793  C 30.09714730769 27.9460805501793  31.5298403707471 32.0121061662584  31.5298403707471 32.0121061662584  C 31.5298403707471 32.0121061662584  33.6979655745205 33.6113962810677  33.6979655745205 33.6113962810677  C 33.6979655745205 33.6113962810677  35.2171800658971 35.8288658666882  35.2171800658971 35.8288658666882  C 35.2171800658971 35.8288658666882  39.7010258511659 39.0015224410785  39.7010258511659 39.0015224410785  C 39.7010258511659 39.0015224410785  42.0676413904962 44.766544538227  42.0676413904962 44.766544538227  C 42.0676413904962 44.766544538227  44.1874163843265 47.4665929365452  44.1874163843265 47.4665929365452  C 44.1874163843265 47.4665929365452  46.1672302441103 50.3421245394812  46.1672302441103 50.3421245394812  C 46.1672302441103 50.3421245394812  46.561666167332 53.5666284243269  46.561666167332 53.5666284243269  C 46.561666167332 53.5666284243269  50.0021653169821 53.7680352841721  50.0021653169821 53.7680352841721  C 50.0021653169821 53.7680352841721  52.8624619473125 57.9826078329401  52.8624619473125 57.9826078329401  C 52.8624619473125 57.9826078329401  55.4504705532252 60.6926268678845  55.4504705532252 60.6926268678845  C 55.4504705532252 60.6926268678845  55.2774276965861 61.775438005467  55.2774276965861 61.775438005467  C 55.2774276965861 61.775438005467  52.2746251843175 63.9949017184126  52.2746251843175 63.9949017184126  C 52.2746251843175 63.9949017184126  51.0098854821163 63.9649898085349  51.0098854821163 63.9649898085349  C 51.0098854821163 63.9649898085349  49.1293167901109 60.2898131481945  49.1293167901109 60.2898131481945  C 49.1293167901109 60.2898131481945  44.459704408744 55.3812842902573  44.459704408744 55.3812842902573  C 44.459704408744 55.3812842902573  39.3142241716194 52.4319699762889  39.3142241716194 52.4319699762889  C 39.3142241716194 52.4319699762889  35.6650556948457 50.8785447899595  35.6650556948457 50.8785447899595  C 35.6650556948457 50.8785447899595  35.9017172487787 46.3857759262878  35.9017172487787 46.3857759262878  C 35.9017172487787 46.3857759262878  34.8176546468919 43.039630274605  34.8176546468919 43.039630274605  C 34.8176546468919 43.039630274605  31.4178714635099 41.1192856604392  31.4178714635099 41.1192856604392  C 31.4178714635099 41.1192856604392  26.5141422761018 38.3454545510885  26.5141422761018 38.3454545510885  C 26.5141422761018 38.3454545510885  25.5725855561532 39.147093735818  25.5725855561532 39.147093735818  C 25.5725855561532 39.147093735818  23.770904048792 37.5238740931066  23.770904048792 37.5238740931066  C 23.770904048792 37.5238740931066  19.3710349439511 36.0123255806062  19.3710349439511 36.0123255806062  C 19.3710349439511 36.0123255806062  15.1645666788834 32.3750373394446  15.1645666788834 32.3750373394446  C 15.1645666788834 32.3750373394446  15.6862399966928 31.9004350360475  15.6862399966928 31.9004350360475  C 15.6862399966928 31.9004350360475  18.6254238116675 32.257383827258  18.6254238116675 32.257383827258  C 18.6254238116675 32.257383827258  21.2719616190906 29.9043135835238  21.2719616190906 29.9043135835238  C 21.2719616190906 29.9043135835238  21.5391601477247 27.0547056358155  21.5391601477247 27.0547056358155  C 21.5391601477247 27.0547056358155  16.0450494494299 22.5200600983148  16.0450494494299 22.5200600983148  C 16.0450494494299 22.5200600983148  11.8563944196044 20.753263288189  11.8563944196044 20.753263288189  C 11.8563944196044 20.753263288189  9.22766984742359 16.7470614918656  9.22766984742359 16.7470614918656  C 9.22766984742359 16.7470614918656  6.5811320400005 12.5135291804695  6.5811320400005 12.5135291804695  C 6.5811320400005 12.5135291804695  3.27550452861332 7.31085098902726  3.27550452861332 7.31085098902726  C 3.27550452861332 7.31085098902726  0.377036679906536 1.40225172446466  0.377036679906536 1.40225172446466  C 0.377036679906536 1.40225172446466  8.48460346303166 0.895743383864381  8.48460346303166 0.895743383864381  C 8.48460346303166 0.895743383864381  17.5464507055641 0.17785754679295  17.5464507055641 0.17785754679295  C 17.5464507055641 0.17785754679295  16.879726757925 1.47005205352153  16.879726757925 1.47005205352153  C 16.879726757925 1.47005205352153  27.6541893316071 4.67062641046472  27.6541893316071 4.67062641046472  C 27.6541893316071 4.67062641046472  43.9303968472594 9.2750664043476  43.9303968472594 9.2750664043476  C 43.9303968472594 9.2750664043476  58.1199110916742 9.22920147586802  58.1199110916742 9.22920147586802  C 58.1199110916742 9.22920147586802  63.7768856550412 9.22720734854284  63.7768856550412 9.22720734854284  C 63.7768856550412 9.22720734854284  63.7921541423917 6.53314133219992  63.7921541423917 6.53314133219992  C 63.7921541423917 6.53314133219992  76.1545394005278 6.5351354595251  76.1545394005278 6.5351354595251  C 76.1545394005278 6.5351354595251  78.7552717458993 8.85031728408036  78.7552717458993 8.85031728408036  C 78.7552717458993 8.85031728408036  82.4044402226732 10.908256683685  82.4044402226732 10.908256683685  C 82.4044402226732 10.908256683685  86.6439902103337 13.7578646313933  86.6439902103337 13.7578646313933  C 86.6439902103337 13.7578646313933  89.0080610017723 17.1259456836532  89.0080610017723 17.1259456836532  C 89.0080610017723 17.1259456836532  90.7842950302158 20.6535569219289  90.7842950302158 20.6535569219289  C 90.7842950302158 20.6535569219289  94.4716347253659 22.5818780453957  94.4716347253659 22.5818780453957  C 94.4716347253659 22.5818780453957  100.395807817367 24.4922520229357  100.395807817367 24.4922520229357  C 100.395807817367 24.4922520229357  104.889832594203 19.4491040175093  104.889832594203 19.4491040175093  C 104.889832594203 19.4491040175093  112.573679005791 19.3254681233468  112.573679005791 19.3254681233468  C 112.573679005791 19.3254681233468  117.602100839895 21.8759569722757  117.602100839895 21.8759569722757  C 117.602100839895 21.8759569722757  121.182561123591 26.2311310505085  121.182561123591 26.2311310505085  C 121.182561123591 26.2311310505085  123.6484218307 29.936219620727  123.6484218307 29.936219620727  C 123.6484218307 29.936219620727  127.857434843659 33.5216605514338  127.857434843659 33.5216605514338  C 127.857434843659 33.5216605514338  129.430089040763 37.898770030244  129.430089040763 37.898770030244  C 129.430089040763 37.898770030244  131.427716135789 40.8221606889845  131.427716135789 40.8221606889845  C 131.427716135789 40.8221606889845  136.993079775053 42.7425053031506  136.993079775053 42.7425053031506  C 136.993079775053 42.7425053031506  142.057128079641 44.1025001389359  142.057128079641 44.1025001389359  Z " fill-rule="evenodd" />
    </mask>
  </defs>
  <g transform="matrix(1 0 0 1 -1006 -4150 )">
    <path d="M 142.057128079641 44.1025001389359  C 142.057128079641 44.1025001389359  144.841082273219 43.9190404250176  144.841082273219 43.9190404250176  C 144.841082273219 43.9190404250176  142.072396566992 49.3251196036301  142.072396566992 49.3251196036301  C 142.072396566992 49.3251196036301  140.822925352141 53.7261586103428  140.822925352141 53.7261586103428  C 140.822925352141 53.7261586103428  140.303796782223 63.304933663894  140.303796782223 63.304933663894  C 140.303796782223 63.304933663894  139.614170103558 66.2462714685617  139.614170103558 66.2462714685617  C 139.614170103558 66.2462714685617  140.85091757895 69.5226226638625  140.85091757895 69.5226226638625  C 140.85091757895 69.5226226638625  143.062303496883 72.4380368133023  143.062303496883 72.4380368133023  C 143.062303496883 72.4380368133023  144.489907064157 77.0564356984616  144.489907064157 77.0564356984616  C 144.489907064157 77.0564356984616  149.223138142818 81.4694394691252  149.223138142818 81.4694394691252  C 149.223138142818 81.4694394691252  150.889948011916 84.83552639406  150.889948011916 84.83552639406  C 150.889948011916 84.83552639406  153.681536449169 87.7309992702479  153.681536449169 87.7309992702479  C 153.681536449169 87.7309992702479  161.257250922918 89.2864185839027  161.257250922918 89.2864185839027  C 161.257250922918 89.2864185839027  164.206613729459 91.7372010665715  164.206613729459 91.7372010665715  C 164.206613729459 91.7372010665715  170.466693543172 90.1000225325838  170.466693543172 90.1000225325838  C 170.466693543172 90.1000225325838  175.904819787848 89.5077667169998  175.904819787848 89.5077667169998  C 175.904819787848 89.5077667169998  181.248790360529 88.4548674892951  181.248790360529 88.4548674892951  C 181.248790360529 88.4548674892951  185.737725641582 87.4478331900698  185.737725641582 87.4478331900698  C 185.737725641582 87.4478331900698  190.277555880469 85.0488980178564  190.277555880469 85.0488980178564  C 190.277555880469 85.0488980178564  191.97744747216 81.6090283818892  191.97744747216 81.6090283818892  C 191.97744747216 81.6090283818892  192.562739487263 76.6296924508691  192.562739487263 76.6296924508691  C 192.562739487263 76.6296924508691  193.796942214763 74.8908134232963  193.796942214763 74.8908134232963  C 193.796942214763 74.8908134232963  198.629418461202 73.3294117276658  198.629418461202 73.3294117276658  C 198.629418461202 73.3294117276658  206.17459596025 71.9454873639784  206.17459596025 71.9454873639784  C 206.17459596025 71.9454873639784  212.493204975473 72.1528766057989  212.493204975473 72.1528766057989  C 212.493204975473 72.1528766057989  216.819276391453 71.6463682651986  216.819276391453 71.6463682651986  C 216.819276391453 71.6463682651986  218.531891722603 72.9126391166994  218.531891722603 72.9126391166994  C 218.531891722603 72.9126391166994  218.290140672886 75.7841824649852  218.290140672886 75.7841824649852  C 218.290140672886 75.7841824649852  214.455205600014 79.3117937032609  214.455205600014 79.3117937032609  C 214.455205600014 79.3117937032609  212.760403504107 82.9111935252437  212.760403504107 82.9111935252437  C 212.760403504107 82.9111935252437  214.073493416251 83.9381690977209  214.073493416251 83.9381690977209  C 214.073493416251 83.9381690977209  213.004699301715 86.4846696919989  213.004699301715 86.4846696919989  C 213.004699301715 86.4846696919989  211.215741533813 91.0611919033292  211.215741533813 91.0611919033292  C 211.215741533813 91.0611919033292  209.408970530668 89.5576199001295  209.408970530668 89.5576199001295  C 209.408970530668 89.5576199001295  207.915203518209 89.6553321390645  207.915203518209 89.6553321390645  C 207.915203518209 89.6553321390645  206.558852891905 89.7311089774221  206.558852891905 89.7311089774221  C 206.558852891905 89.7311089774221  204.001381260693 93.262708470348  204.001381260693 93.262708470348  C 204.001381260693 93.262708470348  202.706104583791 92.5727404158294  202.706104583791 92.5727404158294  C 202.706104583791 92.5727404158294  201.843435048486 92.839953477406  201.843435048486 92.839953477406  C 201.843435048486 92.839953477406  201.899419502105 93.6994223545666  201.899419502105 93.6994223545666  C 201.899419502105 93.6994223545666  195.300888218789 93.6356102801603  195.300888218789 93.6356102801603  C 195.300888218789 93.6356102801603  188.63873823818 93.6455809167861  188.63873823818 93.6455809167861  C 188.63873823818 93.6455809167861  188.633648742397 96.9259203667374  188.633648742397 96.9259203667374  C 188.633648742397 96.9259203667374  185.411997911437 96.9398792580138  185.411997911437 96.9398792580138  C 185.411997911437 96.9398792580138  188.068714710427 98.8821592727569  188.068714710427 98.8821592727569  C 188.068714710427 98.8821592727569  190.705073526283 100.22221283529  190.705073526283 100.22221283529  C 190.705073526283 100.22221283529  191.49903486851 101.478513050165  191.49903486851 101.478513050165  C 191.49903486851 101.478513050165  192.654350411366 101.8294794594  192.654350411366 101.8294794594  C 192.654350411366 101.8294794594  192.47112856316 103.799677256696  192.47112856316 103.799677256696  C 192.47112856316 103.799677256696  183.312580900741 103.817624402623  183.312580900741 103.817624402623  C 183.312580900741 103.817624402623  179.879715994766 108.521770762766  179.879715994766 108.521770762766  C 179.879715994766 108.521770762766  180.892525655684 109.598599518372  180.892525655684 109.598599518372  C 180.892525655684 109.598599518372  180.065482590864 110.946629590207  180.065482590864 110.946629590207  C 180.065482590864 110.946629590207  179.889894986333 112.619702416048  179.889894986333 112.619702416048  C 179.889894986333 112.619702416048  171.815409925801 106.423948816657  171.815409925801 106.423948816657  C 171.815409925801 106.423948816657  168.135704474326 104.54946913097  168.135704474326 104.54946913097  C 168.135704474326 104.54946913097  162.308231802212 103.041908873121  162.308231802212 103.041908873121  C 162.308231802212 103.041908873121  158.325701351618 103.460675611412  158.325701351618 103.460675611412  C 158.325701351618 103.460675611412  152.59492909939 105.634274395878  152.59492909939 105.634274395878  C 152.59492909939 105.634274395878  148.996655580451 106.204594810885  148.996655580451 106.204594810885  C 148.996655580451 106.204594810885  143.958054754781 104.683075661759  143.958054754781 104.683075661759  C 143.958054754781 104.683075661759  138.611539434208 103.582317378249  138.611539434208 103.582317378249  C 138.611539434208 103.582317378249  131.941755209923 100.926139781085  131.941755209923 100.926139781085  C 131.941755209923 100.926139781085  126.592695141458 100.114529959729  126.592695141458 100.114529959729  C 126.592695141458 100.114529959729  118.515665333034 97.4124874340858  118.515665333034 97.4124874340858  C 118.515665333034 97.4124874340858  112.545686778982 94.6286856881089  112.545686778982 94.6286856881089  C 112.545686778982 94.6286856881089  110.74400527162 93.0712722471289  110.74400527162 93.0712722471289  C 110.74400527162 93.0712722471289  104.902556333662 92.7222999652194  104.902556333662 92.7222999652194  C 104.902556333662 92.7222999652194  97.6042193801139 90.8717498074353  97.6042193801139 90.8717498074353  C 97.6042193801139 90.8717498074353  94.6344985904382 88.1976250643446  94.6344985904382 88.1976250643446  C 94.6344985904382 88.1976250643446  86.9671731925864 84.8594559219625  86.9671731925864 84.8594559219625  C 86.9671731925864 84.8594559219625  83.3918024046734 81.1384143331426  83.3918024046734 81.1384143331426  C 83.3918024046734 81.1384143331426  81.6919108129824 78.2529120935805  81.6919108129824 78.2529120935805  C 81.6919108129824 78.2529120935805  84.0712500917713 77.6726210419478  84.0712500917713 77.6726210419478  C 84.0712500917713 77.6726210419478  83.3383626989465 75.9796069428544  83.3383626989465 75.9796069428544  C 83.3383626989465 75.9796069428544  84.9771803412355 74.434158265826  84.9771803412355 74.434158265826  C 84.9771803412355 74.434158265826  85.0128068117201 72.3722306115709  85.0128068117201 72.3722306115709  C 85.0128068117201 72.3722306115709  82.6054753061217 69.6881352318537  82.6054753061217 69.6881352318537  C 82.6054753061217 69.6881352318537  81.9616540895082 67.3011648235915  81.9616540895082 67.3011648235915  C 81.9616540895082 67.3011648235915  79.5695910712603 64.2621147799892  79.5695910712603 64.2621147799892  C 79.5695910712603 64.2621147799892  73.2815190307386 58.2478267671913  73.2815190307386 58.2478267671913  C 73.2815190307386 58.2478267671913  66.107874723887 52.0371327658996  66.107874723887 52.0371327658996  C 66.107874723887 52.0371327658996  62.6368385995357 48.2183789381451  62.6368385995357 48.2183789381451  C 62.6368385995357 48.2183789381451  56.5116304240863 45.7057785083954  56.5116304240863 45.7057785083954  C 56.5116304240863 45.7057785083954  55.2010852598335 44.19622412322  55.2010852598335 44.19622412322  C 55.2010852598335 44.19622412322  56.2876926096121 40.3694937861645  56.2876926096121 40.3694937861645  C 56.2876926096121 40.3694937861645  52.651247872297 38.9177690934202  52.651247872297 38.9177690934202  C 52.651247872297 38.9177690934202  48.4396901114457 35.8866955591189  48.4396901114457 35.8866955591189  C 48.4396901114457 35.8866955591189  46.6609113351104 31.5135743349589  46.6609113351104 31.5135743349589  C 46.6609113351104 31.5135743349589  42.820886766455 31.001083612383  42.820886766455 31.001083612383  C 42.820886766455 31.001083612383  38.6805819465729 27.6768733612775  38.6805819465729 27.6768733612775  C 38.6805819465729 27.6768733612775  35.3367832168094 24.5899642618706  35.3367832168094 24.5899642618706  C 35.3367832168094 24.5899642618706  35.0237792261239 22.6018193186477  35.0237792261239 22.6018193186477  C 35.0237792261239 22.6018193186477  31.1888441532521 17.7740370643428  31.1888441532521 17.7740370643428  C 31.1888441532521 17.7740370643428  28.6593647488495 12.8345836798263  28.6593647488495 12.8345836798263  C 28.6593647488495 12.8345836798263  28.7687889081949 10.3419245233286  28.7687889081949 10.3419245233286  C 28.7687889081949 10.3419245233286  23.6080401837198 7.75554138254653  23.6080401837198 7.75554138254653  C 23.6080401837198 7.75554138254653  21.2261561570391 8.04070159004984  21.2261561570391 8.04070159004984  C 21.2261561570391 8.04070159004984  17.1545595302342 6.24000461539581  17.1545595302342 6.24000461539581  C 17.1545595302342 6.24000461539581  16.0094229789453 8.89219395790951  16.0094229789453 8.89219395790951  C 16.0094229789453 8.89219395790951  17.1901860007188 12.0130032218448  17.1901860007188 12.0130032218448  C 17.1901860007188 12.0130032218448  17.8849021751673 16.8627208767271  17.8849021751673 16.8627208767271  C 17.8849021751673 16.8627208767271  20.3329496470338 19.5089278372651  20.3329496470338 19.5089278372651  C 20.3329496470338 19.5089278372651  25.6285700097718 23.9099668439778  25.6285700097718 23.9099668439778  C 25.6285700097718 23.9099668439778  26.8042435357617 25.4055623378765  26.8042435357617 25.4055623378765  C 26.8042435357617 25.4055623378765  27.8883061376484 25.8582292406966  27.8883061376484 25.8582292406966  C 27.8883061376484 25.8582292406966  28.829862857597 28.0338221524881  28.829862857597 28.0338221524881  C 28.829862857597 28.0338221524881  30.09714730769 27.9460805501793  30.09714730769 27.9460805501793  C 30.09714730769 27.9460805501793  31.5298403707471 32.0121061662584  31.5298403707471 32.0121061662584  C 31.5298403707471 32.0121061662584  33.6979655745205 33.6113962810677  33.6979655745205 33.6113962810677  C 33.6979655745205 33.6113962810677  35.2171800658971 35.8288658666882  35.2171800658971 35.8288658666882  C 35.2171800658971 35.8288658666882  39.7010258511659 39.0015224410785  39.7010258511659 39.0015224410785  C 39.7010258511659 39.0015224410785  42.0676413904962 44.766544538227  42.0676413904962 44.766544538227  C 42.0676413904962 44.766544538227  44.1874163843265 47.4665929365452  44.1874163843265 47.4665929365452  C 44.1874163843265 47.4665929365452  46.1672302441103 50.3421245394812  46.1672302441103 50.3421245394812  C 46.1672302441103 50.3421245394812  46.561666167332 53.5666284243269  46.561666167332 53.5666284243269  C 46.561666167332 53.5666284243269  50.0021653169821 53.7680352841721  50.0021653169821 53.7680352841721  C 50.0021653169821 53.7680352841721  52.8624619473125 57.9826078329401  52.8624619473125 57.9826078329401  C 52.8624619473125 57.9826078329401  55.4504705532252 60.6926268678845  55.4504705532252 60.6926268678845  C 55.4504705532252 60.6926268678845  55.2774276965861 61.775438005467  55.2774276965861 61.775438005467  C 55.2774276965861 61.775438005467  52.2746251843175 63.9949017184126  52.2746251843175 63.9949017184126  C 52.2746251843175 63.9949017184126  51.0098854821163 63.9649898085349  51.0098854821163 63.9649898085349  C 51.0098854821163 63.9649898085349  49.1293167901109 60.2898131481945  49.1293167901109 60.2898131481945  C 49.1293167901109 60.2898131481945  44.459704408744 55.3812842902573  44.459704408744 55.3812842902573  C 44.459704408744 55.3812842902573  39.3142241716194 52.4319699762889  39.3142241716194 52.4319699762889  C 39.3142241716194 52.4319699762889  35.6650556948457 50.8785447899595  35.6650556948457 50.8785447899595  C 35.6650556948457 50.8785447899595  35.9017172487787 46.3857759262878  35.9017172487787 46.3857759262878  C 35.9017172487787 46.3857759262878  34.8176546468919 43.039630274605  34.8176546468919 43.039630274605  C 34.8176546468919 43.039630274605  31.4178714635099 41.1192856604392  31.4178714635099 41.1192856604392  C 31.4178714635099 41.1192856604392  26.5141422761018 38.3454545510885  26.5141422761018 38.3454545510885  C 26.5141422761018 38.3454545510885  25.5725855561532 39.147093735818  25.5725855561532 39.147093735818  C 25.5725855561532 39.147093735818  23.770904048792 37.5238740931066  23.770904048792 37.5238740931066  C 23.770904048792 37.5238740931066  19.3710349439511 36.0123255806062  19.3710349439511 36.0123255806062  C 19.3710349439511 36.0123255806062  15.1645666788834 32.3750373394446  15.1645666788834 32.3750373394446  C 15.1645666788834 32.3750373394446  15.6862399966928 31.9004350360475  15.6862399966928 31.9004350360475  C 15.6862399966928 31.9004350360475  18.6254238116675 32.257383827258  18.6254238116675 32.257383827258  C 18.6254238116675 32.257383827258  21.2719616190906 29.9043135835238  21.2719616190906 29.9043135835238  C 21.2719616190906 29.9043135835238  21.5391601477247 27.0547056358155  21.5391601477247 27.0547056358155  C 21.5391601477247 27.0547056358155  16.0450494494299 22.5200600983148  16.0450494494299 22.5200600983148  C 16.0450494494299 22.5200600983148  11.8563944196044 20.753263288189  11.8563944196044 20.753263288189  C 11.8563944196044 20.753263288189  9.22766984742359 16.7470614918656  9.22766984742359 16.7470614918656  C 9.22766984742359 16.7470614918656  6.5811320400005 12.5135291804695  6.5811320400005 12.5135291804695  C 6.5811320400005 12.5135291804695  3.27550452861332 7.31085098902726  3.27550452861332 7.31085098902726  C 3.27550452861332 7.31085098902726  0.377036679906536 1.40225172446466  0.377036679906536 1.40225172446466  C 0.377036679906536 1.40225172446466  8.48460346303166 0.895743383864381  8.48460346303166 0.895743383864381  C 8.48460346303166 0.895743383864381  17.5464507055641 0.17785754679295  17.5464507055641 0.17785754679295  C 17.5464507055641 0.17785754679295  16.879726757925 1.47005205352153  16.879726757925 1.47005205352153  C 16.879726757925 1.47005205352153  27.6541893316071 4.67062641046472  27.6541893316071 4.67062641046472  C 27.6541893316071 4.67062641046472  43.9303968472594 9.2750664043476  43.9303968472594 9.2750664043476  C 43.9303968472594 9.2750664043476  58.1199110916742 9.22920147586802  58.1199110916742 9.22920147586802  C 58.1199110916742 9.22920147586802  63.7768856550412 9.22720734854284  63.7768856550412 9.22720734854284  C 63.7768856550412 9.22720734854284  63.7921541423917 6.53314133219992  63.7921541423917 6.53314133219992  C 63.7921541423917 6.53314133219992  76.1545394005278 6.5351354595251  76.1545394005278 6.5351354595251  C 76.1545394005278 6.5351354595251  78.7552717458993 8.85031728408036  78.7552717458993 8.85031728408036  C 78.7552717458993 8.85031728408036  82.4044402226732 10.908256683685  82.4044402226732 10.908256683685  C 82.4044402226732 10.908256683685  86.6439902103337 13.7578646313933  86.6439902103337 13.7578646313933  C 86.6439902103337 13.7578646313933  89.0080610017723 17.1259456836532  89.0080610017723 17.1259456836532  C 89.0080610017723 17.1259456836532  90.7842950302158 20.6535569219289  90.7842950302158 20.6535569219289  C 90.7842950302158 20.6535569219289  94.4716347253659 22.5818780453957  94.4716347253659 22.5818780453957  C 94.4716347253659 22.5818780453957  100.395807817367 24.4922520229357  100.395807817367 24.4922520229357  C 100.395807817367 24.4922520229357  104.889832594203 19.4491040175093  104.889832594203 19.4491040175093  C 104.889832594203 19.4491040175093  112.573679005791 19.3254681233468  112.573679005791 19.3254681233468  C 112.573679005791 19.3254681233468  117.602100839895 21.8759569722757  117.602100839895 21.8759569722757  C 117.602100839895 21.8759569722757  121.182561123591 26.2311310505085  121.182561123591 26.2311310505085  C 121.182561123591 26.2311310505085  123.6484218307 29.936219620727  123.6484218307 29.936219620727  C 123.6484218307 29.936219620727  127.857434843659 33.5216605514338  127.857434843659 33.5216605514338  C 127.857434843659 33.5216605514338  129.430089040763 37.898770030244  129.430089040763 37.898770030244  C 129.430089040763 37.898770030244  131.427716135789 40.8221606889845  131.427716135789 40.8221606889845  C 131.427716135789 40.8221606889845  136.993079775053 42.7425053031506  136.993079775053 42.7425053031506  C 136.993079775053 42.7425053031506  142.057128079641 44.1025001389359  142.057128079641 44.1025001389359  Z " fill-rule="nonzero" fill="#f2f2f2" stroke="none" transform="matrix(1 0 0 1 1006 4150 )" />
    <path d="M 142.057128079641 44.1025001389359  C 142.057128079641 44.1025001389359  144.841082273219 43.9190404250176  144.841082273219 43.9190404250176  C 144.841082273219 43.9190404250176  142.072396566992 49.3251196036301  142.072396566992 49.3251196036301  C 142.072396566992 49.3251196036301  140.822925352141 53.7261586103428  140.822925352141 53.7261586103428  C 140.822925352141 53.7261586103428  140.303796782223 63.304933663894  140.303796782223 63.304933663894  C 140.303796782223 63.304933663894  139.614170103558 66.2462714685617  139.614170103558 66.2462714685617  C 139.614170103558 66.2462714685617  140.85091757895 69.5226226638625  140.85091757895 69.5226226638625  C 140.85091757895 69.5226226638625  143.062303496883 72.4380368133023  143.062303496883 72.4380368133023  C 143.062303496883 72.4380368133023  144.489907064157 77.0564356984616  144.489907064157 77.0564356984616  C 144.489907064157 77.0564356984616  149.223138142818 81.4694394691252  149.223138142818 81.4694394691252  C 149.223138142818 81.4694394691252  150.889948011916 84.83552639406  150.889948011916 84.83552639406  C 150.889948011916 84.83552639406  153.681536449169 87.7309992702479  153.681536449169 87.7309992702479  C 153.681536449169 87.7309992702479  161.257250922918 89.2864185839027  161.257250922918 89.2864185839027  C 161.257250922918 89.2864185839027  164.206613729459 91.7372010665715  164.206613729459 91.7372010665715  C 164.206613729459 91.7372010665715  170.466693543172 90.1000225325838  170.466693543172 90.1000225325838  C 170.466693543172 90.1000225325838  175.904819787848 89.5077667169998  175.904819787848 89.5077667169998  C 175.904819787848 89.5077667169998  181.248790360529 88.4548674892951  181.248790360529 88.4548674892951  C 181.248790360529 88.4548674892951  185.737725641582 87.4478331900698  185.737725641582 87.4478331900698  C 185.737725641582 87.4478331900698  190.277555880469 85.0488980178564  190.277555880469 85.0488980178564  C 190.277555880469 85.0488980178564  191.97744747216 81.6090283818892  191.97744747216 81.6090283818892  C 191.97744747216 81.6090283818892  192.562739487263 76.6296924508691  192.562739487263 76.6296924508691  C 192.562739487263 76.6296924508691  193.796942214763 74.8908134232963  193.796942214763 74.8908134232963  C 193.796942214763 74.8908134232963  198.629418461202 73.3294117276658  198.629418461202 73.3294117276658  C 198.629418461202 73.3294117276658  206.17459596025 71.9454873639784  206.17459596025 71.9454873639784  C 206.17459596025 71.9454873639784  212.493204975473 72.1528766057989  212.493204975473 72.1528766057989  C 212.493204975473 72.1528766057989  216.819276391453 71.6463682651986  216.819276391453 71.6463682651986  C 216.819276391453 71.6463682651986  218.531891722603 72.9126391166994  218.531891722603 72.9126391166994  C 218.531891722603 72.9126391166994  218.290140672886 75.7841824649852  218.290140672886 75.7841824649852  C 218.290140672886 75.7841824649852  214.455205600014 79.3117937032609  214.455205600014 79.3117937032609  C 214.455205600014 79.3117937032609  212.760403504107 82.9111935252437  212.760403504107 82.9111935252437  C 212.760403504107 82.9111935252437  214.073493416251 83.9381690977209  214.073493416251 83.9381690977209  C 214.073493416251 83.9381690977209  213.004699301715 86.4846696919989  213.004699301715 86.4846696919989  C 213.004699301715 86.4846696919989  211.215741533813 91.0611919033292  211.215741533813 91.0611919033292  C 211.215741533813 91.0611919033292  209.408970530668 89.5576199001295  209.408970530668 89.5576199001295  C 209.408970530668 89.5576199001295  207.915203518209 89.6553321390645  207.915203518209 89.6553321390645  C 207.915203518209 89.6553321390645  206.558852891905 89.7311089774221  206.558852891905 89.7311089774221  C 206.558852891905 89.7311089774221  204.001381260693 93.262708470348  204.001381260693 93.262708470348  C 204.001381260693 93.262708470348  202.706104583791 92.5727404158294  202.706104583791 92.5727404158294  C 202.706104583791 92.5727404158294  201.843435048486 92.839953477406  201.843435048486 92.839953477406  C 201.843435048486 92.839953477406  201.899419502105 93.6994223545666  201.899419502105 93.6994223545666  C 201.899419502105 93.6994223545666  195.300888218789 93.6356102801603  195.300888218789 93.6356102801603  C 195.300888218789 93.6356102801603  188.63873823818 93.6455809167861  188.63873823818 93.6455809167861  C 188.63873823818 93.6455809167861  188.633648742397 96.9259203667374  188.633648742397 96.9259203667374  C 188.633648742397 96.9259203667374  185.411997911437 96.9398792580138  185.411997911437 96.9398792580138  C 185.411997911437 96.9398792580138  188.068714710427 98.8821592727569  188.068714710427 98.8821592727569  C 188.068714710427 98.8821592727569  190.705073526283 100.22221283529  190.705073526283 100.22221283529  C 190.705073526283 100.22221283529  191.49903486851 101.478513050165  191.49903486851 101.478513050165  C 191.49903486851 101.478513050165  192.654350411366 101.8294794594  192.654350411366 101.8294794594  C 192.654350411366 101.8294794594  192.47112856316 103.799677256696  192.47112856316 103.799677256696  C 192.47112856316 103.799677256696  183.312580900741 103.817624402623  183.312580900741 103.817624402623  C 183.312580900741 103.817624402623  179.879715994766 108.521770762766  179.879715994766 108.521770762766  C 179.879715994766 108.521770762766  180.892525655684 109.598599518372  180.892525655684 109.598599518372  C 180.892525655684 109.598599518372  180.065482590864 110.946629590207  180.065482590864 110.946629590207  C 180.065482590864 110.946629590207  179.889894986333 112.619702416048  179.889894986333 112.619702416048  C 179.889894986333 112.619702416048  171.815409925801 106.423948816657  171.815409925801 106.423948816657  C 171.815409925801 106.423948816657  168.135704474326 104.54946913097  168.135704474326 104.54946913097  C 168.135704474326 104.54946913097  162.308231802212 103.041908873121  162.308231802212 103.041908873121  C 162.308231802212 103.041908873121  158.325701351618 103.460675611412  158.325701351618 103.460675611412  C 158.325701351618 103.460675611412  152.59492909939 105.634274395878  152.59492909939 105.634274395878  C 152.59492909939 105.634274395878  148.996655580451 106.204594810885  148.996655580451 106.204594810885  C 148.996655580451 106.204594810885  143.958054754781 104.683075661759  143.958054754781 104.683075661759  C 143.958054754781 104.683075661759  138.611539434208 103.582317378249  138.611539434208 103.582317378249  C 138.611539434208 103.582317378249  131.941755209923 100.926139781085  131.941755209923 100.926139781085  C 131.941755209923 100.926139781085  126.592695141458 100.114529959729  126.592695141458 100.114529959729  C 126.592695141458 100.114529959729  118.515665333034 97.4124874340858  118.515665333034 97.4124874340858  C 118.515665333034 97.4124874340858  112.545686778982 94.6286856881089  112.545686778982 94.6286856881089  C 112.545686778982 94.6286856881089  110.74400527162 93.0712722471289  110.74400527162 93.0712722471289  C 110.74400527162 93.0712722471289  104.902556333662 92.7222999652194  104.902556333662 92.7222999652194  C 104.902556333662 92.7222999652194  97.6042193801139 90.8717498074353  97.6042193801139 90.8717498074353  C 97.6042193801139 90.8717498074353  94.6344985904382 88.1976250643446  94.6344985904382 88.1976250643446  C 94.6344985904382 88.1976250643446  86.9671731925864 84.8594559219625  86.9671731925864 84.8594559219625  C 86.9671731925864 84.8594559219625  83.3918024046734 81.1384143331426  83.3918024046734 81.1384143331426  C 83.3918024046734 81.1384143331426  81.6919108129824 78.2529120935805  81.6919108129824 78.2529120935805  C 81.6919108129824 78.2529120935805  84.0712500917713 77.6726210419478  84.0712500917713 77.6726210419478  C 84.0712500917713 77.6726210419478  83.3383626989465 75.9796069428544  83.3383626989465 75.9796069428544  C 83.3383626989465 75.9796069428544  84.9771803412355 74.434158265826  84.9771803412355 74.434158265826  C 84.9771803412355 74.434158265826  85.0128068117201 72.3722306115709  85.0128068117201 72.3722306115709  C 85.0128068117201 72.3722306115709  82.6054753061217 69.6881352318537  82.6054753061217 69.6881352318537  C 82.6054753061217 69.6881352318537  81.9616540895082 67.3011648235915  81.9616540895082 67.3011648235915  C 81.9616540895082 67.3011648235915  79.5695910712603 64.2621147799892  79.5695910712603 64.2621147799892  C 79.5695910712603 64.2621147799892  73.2815190307386 58.2478267671913  73.2815190307386 58.2478267671913  C 73.2815190307386 58.2478267671913  66.107874723887 52.0371327658996  66.107874723887 52.0371327658996  C 66.107874723887 52.0371327658996  62.6368385995357 48.2183789381451  62.6368385995357 48.2183789381451  C 62.6368385995357 48.2183789381451  56.5116304240863 45.7057785083954  56.5116304240863 45.7057785083954  C 56.5116304240863 45.7057785083954  55.2010852598335 44.19622412322  55.2010852598335 44.19622412322  C 55.2010852598335 44.19622412322  56.2876926096121 40.3694937861645  56.2876926096121 40.3694937861645  C 56.2876926096121 40.3694937861645  52.651247872297 38.9177690934202  52.651247872297 38.9177690934202  C 52.651247872297 38.9177690934202  48.4396901114457 35.8866955591189  48.4396901114457 35.8866955591189  C 48.4396901114457 35.8866955591189  46.6609113351104 31.5135743349589  46.6609113351104 31.5135743349589  C 46.6609113351104 31.5135743349589  42.820886766455 31.001083612383  42.820886766455 31.001083612383  C 42.820886766455 31.001083612383  38.6805819465729 27.6768733612775  38.6805819465729 27.6768733612775  C 38.6805819465729 27.6768733612775  35.3367832168094 24.5899642618706  35.3367832168094 24.5899642618706  C 35.3367832168094 24.5899642618706  35.0237792261239 22.6018193186477  35.0237792261239 22.6018193186477  C 35.0237792261239 22.6018193186477  31.1888441532521 17.7740370643428  31.1888441532521 17.7740370643428  C 31.1888441532521 17.7740370643428  28.6593647488495 12.8345836798263  28.6593647488495 12.8345836798263  C 28.6593647488495 12.8345836798263  28.7687889081949 10.3419245233286  28.7687889081949 10.3419245233286  C 28.7687889081949 10.3419245233286  23.6080401837198 7.75554138254653  23.6080401837198 7.75554138254653  C 23.6080401837198 7.75554138254653  21.2261561570391 8.04070159004984  21.2261561570391 8.04070159004984  C 21.2261561570391 8.04070159004984  17.1545595302342 6.24000461539581  17.1545595302342 6.24000461539581  C 17.1545595302342 6.24000461539581  16.0094229789453 8.89219395790951  16.0094229789453 8.89219395790951  C 16.0094229789453 8.89219395790951  17.1901860007188 12.0130032218448  17.1901860007188 12.0130032218448  C 17.1901860007188 12.0130032218448  17.8849021751673 16.8627208767271  17.8849021751673 16.8627208767271  C 17.8849021751673 16.8627208767271  20.3329496470338 19.5089278372651  20.3329496470338 19.5089278372651  C 20.3329496470338 19.5089278372651  25.6285700097718 23.9099668439778  25.6285700097718 23.9099668439778  C 25.6285700097718 23.9099668439778  26.8042435357617 25.4055623378765  26.8042435357617 25.4055623378765  C 26.8042435357617 25.4055623378765  27.8883061376484 25.8582292406966  27.8883061376484 25.8582292406966  C 27.8883061376484 25.8582292406966  28.829862857597 28.0338221524881  28.829862857597 28.0338221524881  C 28.829862857597 28.0338221524881  30.09714730769 27.9460805501793  30.09714730769 27.9460805501793  C 30.09714730769 27.9460805501793  31.5298403707471 32.0121061662584  31.5298403707471 32.0121061662584  C 31.5298403707471 32.0121061662584  33.6979655745205 33.6113962810677  33.6979655745205 33.6113962810677  C 33.6979655745205 33.6113962810677  35.2171800658971 35.8288658666882  35.2171800658971 35.8288658666882  C 35.2171800658971 35.8288658666882  39.7010258511659 39.0015224410785  39.7010258511659 39.0015224410785  C 39.7010258511659 39.0015224410785  42.0676413904962 44.766544538227  42.0676413904962 44.766544538227  C 42.0676413904962 44.766544538227  44.1874163843265 47.4665929365452  44.1874163843265 47.4665929365452  C 44.1874163843265 47.4665929365452  46.1672302441103 50.3421245394812  46.1672302441103 50.3421245394812  C 46.1672302441103 50.3421245394812  46.561666167332 53.5666284243269  46.561666167332 53.5666284243269  C 46.561666167332 53.5666284243269  50.0021653169821 53.7680352841721  50.0021653169821 53.7680352841721  C 50.0021653169821 53.7680352841721  52.8624619473125 57.9826078329401  52.8624619473125 57.9826078329401  C 52.8624619473125 57.9826078329401  55.4504705532252 60.6926268678845  55.4504705532252 60.6926268678845  C 55.4504705532252 60.6926268678845  55.2774276965861 61.775438005467  55.2774276965861 61.775438005467  C 55.2774276965861 61.775438005467  52.2746251843175 63.9949017184126  52.2746251843175 63.9949017184126  C 52.2746251843175 63.9949017184126  51.0098854821163 63.9649898085349  51.0098854821163 63.9649898085349  C 51.0098854821163 63.9649898085349  49.1293167901109 60.2898131481945  49.1293167901109 60.2898131481945  C 49.1293167901109 60.2898131481945  44.459704408744 55.3812842902573  44.459704408744 55.3812842902573  C 44.459704408744 55.3812842902573  39.3142241716194 52.4319699762889  39.3142241716194 52.4319699762889  C 39.3142241716194 52.4319699762889  35.6650556948457 50.8785447899595  35.6650556948457 50.8785447899595  C 35.6650556948457 50.8785447899595  35.9017172487787 46.3857759262878  35.9017172487787 46.3857759262878  C 35.9017172487787 46.3857759262878  34.8176546468919 43.039630274605  34.8176546468919 43.039630274605  C 34.8176546468919 43.039630274605  31.4178714635099 41.1192856604392  31.4178714635099 41.1192856604392  C 31.4178714635099 41.1192856604392  26.5141422761018 38.3454545510885  26.5141422761018 38.3454545510885  C 26.5141422761018 38.3454545510885  25.5725855561532 39.147093735818  25.5725855561532 39.147093735818  C 25.5725855561532 39.147093735818  23.770904048792 37.5238740931066  23.770904048792 37.5238740931066  C 23.770904048792 37.5238740931066  19.3710349439511 36.0123255806062  19.3710349439511 36.0123255806062  C 19.3710349439511 36.0123255806062  15.1645666788834 32.3750373394446  15.1645666788834 32.3750373394446  C 15.1645666788834 32.3750373394446  15.6862399966928 31.9004350360475  15.6862399966928 31.9004350360475  C 15.6862399966928 31.9004350360475  18.6254238116675 32.257383827258  18.6254238116675 32.257383827258  C 18.6254238116675 32.257383827258  21.2719616190906 29.9043135835238  21.2719616190906 29.9043135835238  C 21.2719616190906 29.9043135835238  21.5391601477247 27.0547056358155  21.5391601477247 27.0547056358155  C 21.5391601477247 27.0547056358155  16.0450494494299 22.5200600983148  16.0450494494299 22.5200600983148  C 16.0450494494299 22.5200600983148  11.8563944196044 20.753263288189  11.8563944196044 20.753263288189  C 11.8563944196044 20.753263288189  9.22766984742359 16.7470614918656  9.22766984742359 16.7470614918656  C 9.22766984742359 16.7470614918656  6.5811320400005 12.5135291804695  6.5811320400005 12.5135291804695  C 6.5811320400005 12.5135291804695  3.27550452861332 7.31085098902726  3.27550452861332 7.31085098902726  C 3.27550452861332 7.31085098902726  0.377036679906536 1.40225172446466  0.377036679906536 1.40225172446466  C 0.377036679906536 1.40225172446466  8.48460346303166 0.895743383864381  8.48460346303166 0.895743383864381  C 8.48460346303166 0.895743383864381  17.5464507055641 0.17785754679295  17.5464507055641 0.17785754679295  C 17.5464507055641 0.17785754679295  16.879726757925 1.47005205352153  16.879726757925 1.47005205352153  C 16.879726757925 1.47005205352153  27.6541893316071 4.67062641046472  27.6541893316071 4.67062641046472  C 27.6541893316071 4.67062641046472  43.9303968472594 9.2750664043476  43.9303968472594 9.2750664043476  C 43.9303968472594 9.2750664043476  58.1199110916742 9.22920147586802  58.1199110916742 9.22920147586802  C 58.1199110916742 9.22920147586802  63.7768856550412 9.22720734854284  63.7768856550412 9.22720734854284  C 63.7768856550412 9.22720734854284  63.7921541423917 6.53314133219992  63.7921541423917 6.53314133219992  C 63.7921541423917 6.53314133219992  76.1545394005278 6.5351354595251  76.1545394005278 6.5351354595251  C 76.1545394005278 6.5351354595251  78.7552717458993 8.85031728408036  78.7552717458993 8.85031728408036  C 78.7552717458993 8.85031728408036  82.4044402226732 10.908256683685  82.4044402226732 10.908256683685  C 82.4044402226732 10.908256683685  86.6439902103337 13.7578646313933  86.6439902103337 13.7578646313933  C 86.6439902103337 13.7578646313933  89.0080610017723 17.1259456836532  89.0080610017723 17.1259456836532  C 89.0080610017723 17.1259456836532  90.7842950302158 20.6535569219289  90.7842950302158 20.6535569219289  C 90.7842950302158 20.6535569219289  94.4716347253659 22.5818780453957  94.4716347253659 22.5818780453957  C 94.4716347253659 22.5818780453957  100.395807817367 24.4922520229357  100.395807817367 24.4922520229357  C 100.395807817367 24.4922520229357  104.889832594203 19.4491040175093  104.889832594203 19.4491040175093  C 104.889832594203 19.4491040175093  112.573679005791 19.3254681233468  112.573679005791 19.3254681233468  C 112.573679005791 19.3254681233468  117.602100839895 21.8759569722757  117.602100839895 21.8759569722757  C 117.602100839895 21.8759569722757  121.182561123591 26.2311310505085  121.182561123591 26.2311310505085  C 121.182561123591 26.2311310505085  123.6484218307 29.936219620727  123.6484218307 29.936219620727  C 123.6484218307 29.936219620727  127.857434843659 33.5216605514338  127.857434843659 33.5216605514338  C 127.857434843659 33.5216605514338  129.430089040763 37.898770030244  129.430089040763 37.898770030244  C 129.430089040763 37.898770030244  131.427716135789 40.8221606889845  131.427716135789 40.8221606889845  C 131.427716135789 40.8221606889845  136.993079775053 42.7425053031506  136.993079775053 42.7425053031506  C 136.993079775053 42.7425053031506  142.057128079641 44.1025001389359  142.057128079641 44.1025001389359  Z " stroke-width="2" stroke="#505050" fill="none" stroke-opacity="0.211764705882353" transform="matrix(1 0 0 1 1006 4150 )" mask="url(#clip175)" />
  </g>
</svg>