<?xml version="1.0" encoding="utf-8"?>
<svg version="1.1" xmlns:xlink="http://www.w3.org/1999/xlink" width="140px" height="38px" xmlns="http://www.w3.org/2000/svg">
  <defs>
    <mask fill="white" id="clip176">
      <path d="M 2.20775731909426 2.29345791220535  C 2.20775731909426 2.29345791220535  8.00671115987161 4.75788163755019  8.00671115987161 4.75788163755019  C 8.00671115987161 4.75788163755019  8.56454668456392 7.65081332493437  8.56454668456392 7.65081332493437  C 8.56454668456392 7.65081332493437  13.2605075560635 6.97888065206465  13.2605075560635 6.97888065206465  C 13.2605075560635 6.97888065206465  15.5831318316 4.66534001194553  15.5831318316 4.66534001194553  C 15.5831318316 4.66534001194553  19.0607094285148 5.19242492299857  19.0607094285148 5.19242492299857  C 19.0607094285148 5.19242492299857  23.2596895598337 8.59232377673948  23.2596895598337 8.59232377673948  C 23.2596895598337 8.59232377673948  26.2441096169371 12.3603773584295  26.2441096169371 12.3603773584295  C 26.2441096169371 12.3603773584295  26.6498081803492 16.144525135877  26.6498081803492 16.144525135877  C 26.6498081803492 16.144525135877  25.8941946059934 20.1610171738953  25.8941946059934 20.1610171738953  C 25.8941946059934 20.1610171738953  26.5838821637951 22.0903088903079  26.5838821637951 22.0903088903079  C 26.5838821637951 22.0903088903079  27.1036834481674 25.4117485397314  27.1036834481674 25.4117485397314  C 27.1036834481674 25.4117485397314  29.6063364612181 26.9567913324374  29.6063364612181 26.9567913324374  C 29.6063364612181 26.9567913324374  32.4031209327429 31.9158154001715  32.4031209327429 31.9158154001715  C 32.4031209327429 31.9158154001715  32.2661976675911 33.8109069505998  32.2661976675911 33.8109069505998  C 32.2661976675911 33.8109069505998  27.2253930171907 34.1850970019582  27.2253930171907 34.1850970019582  C 27.2253930171907 34.1850970019582  20.5009393286286 30.0327944965613  20.5009393286286 30.0327944965613  C 20.5009393286286 30.0327944965613  10.2481957227252 25.5827493696531  10.2481957227252 25.5827493696531  C 10.2481957227252 25.5827493696531  9.41651366772978 22.7240178482535  9.41651366772978 22.7240178482535  C 9.41651366772978 22.7240178482535  5.30628009715698 18.9700466878512  5.30628009715698 18.9700466878512  C 5.30628009715698 18.9700466878512  4.32499669690335 12.8552738779681  4.32499669690335 12.8552738779681  C 4.32499669690335 12.8552738779681  1.7589532833193 9.78932958619234  1.7589532833193 9.78932958619234  C 1.7589532833193 9.78932958619234  2.53992301788829 5.6893332170068  2.53992301788829 5.6893332170068  C 2.53992301788829 5.6893332170068  0.972912316707499 3.29934514703987  0.972912316707499 3.29934514703987  C 0.972912316707499 3.29934514703987  2.20775731909426 2.29345791220535  2.20775731909426 2.29345791220535  Z M 133.295282421387 11.7286801749534  C 133.295282421387 11.7286801749534  134.568161664093 14.4747523260516  134.568161664093 14.4747523260516  C 134.568161664093 14.4747523260516  129.334650196072 16.3899616211769  129.334650196072 16.3899616211769  C 129.334650196072 16.3899616211769  123.173103264245 15.4424158459624  123.173103264245 15.4424158459624  C 123.173103264245 15.4424158459624  114.998277211483 15.4404040714929  114.998277211483 15.4404040714929  C 114.998277211483 15.4404040714929  112.533658438752 23.2893264742306  112.533658438752 23.2893264742306  C 112.533658438752 23.2893264742306  109.797728751739 25.2407477098097  109.797728751739 25.2407477098097  C 109.797728751739 25.2407477098097  106.15151291307 33.0383855542471  106.15151291307 33.0383855542471  C 106.15151291307 33.0383855542471  98.5104538091342 34.2333795892304  98.5104538091342 34.2333795892304  C 98.5104538091342 34.2333795892304  91.7860001205721 32.6621837284188  91.7860001205721 32.6621837284188  C 91.7860001205721 32.6621837284188  88.3755965718858 33.1530566990183  88.3755965718858 33.1530566990183  C 88.3755965718858 33.1530566990183  84.2323999930357 35.9876469267818  84.2323999930357 35.9876469267818  C 84.2323999930357 35.9876469267818  79.6936473148584 35.5832802583786  79.6936473148584 35.5832802583786  C 79.6936473148584 35.5832802583786  75.1067179322762 36.721944608211  75.1067179322762 36.721944608211  C 75.1067179322762 36.721944608211  70.2459420193904 33.555411592952  70.2459420193904 33.555411592952  C 70.2459420193904 33.555411592952  69.0567381053873 29.8094875304279  69.0567381053873 29.8094875304279  C 69.0567381053873 29.8094875304279  74.2674290292163 31.7307321489619  74.2674290292163 31.7307321489619  C 74.2674290292163 31.7307321489619  79.762108947434 30.6825976502645  79.762108947434 30.6825976502645  C 79.762108947434 30.6825976502645  81.1921963834631 25.9348099018453  81.1921963834631 25.9348099018453  C 81.1921963834631 25.9348099018453  84.2247931449717 24.8766165307995  84.2247931449717 24.8766165307995  C 84.2247931449717 24.8766165307995  92.7469985926553 23.6615047511192  92.7469985926553 23.6615047511192  C 92.7469985926553 23.6615047511192  97.8461224115458 17.7599800350213  97.8461224115458 17.7599800350213  C 97.8461224115458 17.7599800350213  101.337665672915 14.2071863215855  101.337665672915 14.2071863215855  C 101.337665672915 14.2071863215855  106.417752595309 17.1182239791968  106.417752595309 17.1182239791968  C 106.417752595309 17.1182239791968  107.911230431871 15.2030146840718  107.911230431871 15.2030146840718  C 107.911230431871 15.2030146840718  111.308955900451 15.3820626118725  111.308955900451 15.3820626118725  C 111.308955900451 15.3820626118725  111.724796927949 11.7910451835129  111.724796927949 11.7910451835129  C 111.724796927949 11.7910451835129  112.044284546636 9.0208317387785  112.044284546636 9.0208317387785  C 112.044284546636 9.0208317387785  117.518679536683 5.10390684633304  117.518679536683 5.10390684633304  C 117.518679536683 5.10390684633304  121.104040590841 0.696108983288048  121.104040590841 0.696108983288048  C 121.104040590841 0.696108983288048  123.979429159027 0.678003013060963  123.979429159027 0.678003013060963  C 123.979429159027 0.678003013060963  127.630716229739 3.53271098552141  127.630716229739 3.53271098552141  C 127.630716229739 3.53271098552141  127.955275080469 5.98305228957829  127.955275080469 5.98305228957829  C 127.955275080469 5.98305228957829  132.638557871863 7.55223637592002  132.638557871863 7.55223637592002  C 132.638557871863 7.55223637592002  138.57189936177 9.24615047938145  138.57189936177 9.24615047938145  C 138.57189936177 9.24615047938145  138.064776157504 11.4490435236692  138.064776157504 11.4490435236692  C 138.064776157504 11.4490435236692  133.295282421387 11.7286801749534  133.295282421387 11.7286801749534  Z " fill-rule="evenodd" />
    </mask>
  </defs>
  <g transform="matrix(1 0 0 1 -2551 -4303 )">
    <path d="M 2.20775731909426 2.29345791220535  C 2.20775731909426 2.29345791220535  8.00671115987161 4.75788163755019  8.00671115987161 4.75788163755019  C 8.00671115987161 4.75788163755019  8.56454668456392 7.65081332493437  8.56454668456392 7.65081332493437  C 8.56454668456392 7.65081332493437  13.2605075560635 6.97888065206465  13.2605075560635 6.97888065206465  C 13.2605075560635 6.97888065206465  15.5831318316 4.66534001194553  15.5831318316 4.66534001194553  C 15.5831318316 4.66534001194553  19.0607094285148 5.19242492299857  19.0607094285148 5.19242492299857  C 19.0607094285148 5.19242492299857  23.2596895598337 8.59232377673948  23.2596895598337 8.59232377673948  C 23.2596895598337 8.59232377673948  26.2441096169371 12.3603773584295  26.2441096169371 12.3603773584295  C 26.2441096169371 12.3603773584295  26.6498081803492 16.144525135877  26.6498081803492 16.144525135877  C 26.6498081803492 16.144525135877  25.8941946059934 20.1610171738953  25.8941946059934 20.1610171738953  C 25.8941946059934 20.1610171738953  26.5838821637951 22.0903088903079  26.5838821637951 22.0903088903079  C 26.5838821637951 22.0903088903079  27.1036834481674 25.4117485397314  27.1036834481674 25.4117485397314  C 27.1036834481674 25.4117485397314  29.6063364612181 26.9567913324374  29.6063364612181 26.9567913324374  C 29.6063364612181 26.9567913324374  32.4031209327429 31.9158154001715  32.4031209327429 31.9158154001715  C 32.4031209327429 31.9158154001715  32.2661976675911 33.8109069505998  32.2661976675911 33.8109069505998  C 32.2661976675911 33.8109069505998  27.2253930171907 34.1850970019582  27.2253930171907 34.1850970019582  C 27.2253930171907 34.1850970019582  20.5009393286286 30.0327944965613  20.5009393286286 30.0327944965613  C 20.5009393286286 30.0327944965613  10.2481957227252 25.5827493696531  10.2481957227252 25.5827493696531  C 10.2481957227252 25.5827493696531  9.41651366772978 22.7240178482535  9.41651366772978 22.7240178482535  C 9.41651366772978 22.7240178482535  5.30628009715698 18.9700466878512  5.30628009715698 18.9700466878512  C 5.30628009715698 18.9700466878512  4.32499669690335 12.8552738779681  4.32499669690335 12.8552738779681  C 4.32499669690335 12.8552738779681  1.7589532833193 9.78932958619234  1.7589532833193 9.78932958619234  C 1.7589532833193 9.78932958619234  2.53992301788829 5.6893332170068  2.53992301788829 5.6893332170068  C 2.53992301788829 5.6893332170068  0.972912316707499 3.29934514703987  0.972912316707499 3.29934514703987  C 0.972912316707499 3.29934514703987  2.20775731909426 2.29345791220535  2.20775731909426 2.29345791220535  Z M 133.295282421387 11.7286801749534  C 133.295282421387 11.7286801749534  134.568161664093 14.4747523260516  134.568161664093 14.4747523260516  C 134.568161664093 14.4747523260516  129.334650196072 16.3899616211769  129.334650196072 16.3899616211769  C 129.334650196072 16.3899616211769  123.173103264245 15.4424158459624  123.173103264245 15.4424158459624  C 123.173103264245 15.4424158459624  114.998277211483 15.4404040714929  114.998277211483 15.4404040714929  C 114.998277211483 15.4404040714929  112.533658438752 23.2893264742306  112.533658438752 23.2893264742306  C 112.533658438752 23.2893264742306  109.797728751739 25.2407477098097  109.797728751739 25.2407477098097  C 109.797728751739 25.2407477098097  106.15151291307 33.0383855542471  106.15151291307 33.0383855542471  C 106.15151291307 33.0383855542471  98.5104538091342 34.2333795892304  98.5104538091342 34.2333795892304  C 98.5104538091342 34.2333795892304  91.7860001205721 32.6621837284188  91.7860001205721 32.6621837284188  C 91.7860001205721 32.6621837284188  88.3755965718858 33.1530566990183  88.3755965718858 33.1530566990183  C 88.3755965718858 33.1530566990183  84.2323999930357 35.9876469267818  84.2323999930357 35.9876469267818  C 84.2323999930357 35.9876469267818  79.6936473148584 35.5832802583786  79.6936473148584 35.5832802583786  C 79.6936473148584 35.5832802583786  75.1067179322762 36.721944608211  75.1067179322762 36.721944608211  C 75.1067179322762 36.721944608211  70.2459420193904 33.555411592952  70.2459420193904 33.555411592952  C 70.2459420193904 33.555411592952  69.0567381053873 29.8094875304279  69.0567381053873 29.8094875304279  C 69.0567381053873 29.8094875304279  74.2674290292163 31.7307321489619  74.2674290292163 31.7307321489619  C 74.2674290292163 31.7307321489619  79.762108947434 30.6825976502645  79.762108947434 30.6825976502645  C 79.762108947434 30.6825976502645  81.1921963834631 25.9348099018453  81.1921963834631 25.9348099018453  C 81.1921963834631 25.9348099018453  84.2247931449717 24.8766165307995  84.2247931449717 24.8766165307995  C 84.2247931449717 24.8766165307995  92.7469985926553 23.6615047511192  92.7469985926553 23.6615047511192  C 92.7469985926553 23.6615047511192  97.8461224115458 17.7599800350213  97.8461224115458 17.7599800350213  C 97.8461224115458 17.7599800350213  101.337665672915 14.2071863215855  101.337665672915 14.2071863215855  C 101.337665672915 14.2071863215855  106.417752595309 17.1182239791968  106.417752595309 17.1182239791968  C 106.417752595309 17.1182239791968  107.911230431871 15.2030146840718  107.911230431871 15.2030146840718  C 107.911230431871 15.2030146840718  111.308955900451 15.3820626118725  111.308955900451 15.3820626118725  C 111.308955900451 15.3820626118725  111.724796927949 11.7910451835129  111.724796927949 11.7910451835129  C 111.724796927949 11.7910451835129  112.044284546636 9.0208317387785  112.044284546636 9.0208317387785  C 112.044284546636 9.0208317387785  117.518679536683 5.10390684633304  117.518679536683 5.10390684633304  C 117.518679536683 5.10390684633304  121.104040590841 0.696108983288048  121.104040590841 0.696108983288048  C 121.104040590841 0.696108983288048  123.979429159027 0.678003013060963  123.979429159027 0.678003013060963  C 123.979429159027 0.678003013060963  127.630716229739 3.53271098552141  127.630716229739 3.53271098552141  C 127.630716229739 3.53271098552141  127.955275080469 5.98305228957829  127.955275080469 5.98305228957829  C 127.955275080469 5.98305228957829  132.638557871863 7.55223637592002  132.638557871863 7.55223637592002  C 132.638557871863 7.55223637592002  138.57189936177 9.24615047938145  138.57189936177 9.24615047938145  C 138.57189936177 9.24615047938145  138.064776157504 11.4490435236692  138.064776157504 11.4490435236692  C 138.064776157504 11.4490435236692  133.295282421387 11.7286801749534  133.295282421387 11.7286801749534  Z " fill-rule="nonzero" fill="#f2f2f2" stroke="none" transform="matrix(1 0 0 1 2551 4303 )" />
    <path d="M 2.20775731909426 2.29345791220535  C 2.20775731909426 2.29345791220535  8.00671115987161 4.75788163755019  8.00671115987161 4.75788163755019  C 8.00671115987161 4.75788163755019  8.56454668456392 7.65081332493437  8.56454668456392 7.65081332493437  C 8.56454668456392 7.65081332493437  13.2605075560635 6.97888065206465  13.2605075560635 6.97888065206465  C 13.2605075560635 6.97888065206465  15.5831318316 4.66534001194553  15.5831318316 4.66534001194553  C 15.5831318316 4.66534001194553  19.0607094285148 5.19242492299857  19.0607094285148 5.19242492299857  C 19.0607094285148 5.19242492299857  23.2596895598337 8.59232377673948  23.2596895598337 8.59232377673948  C 23.2596895598337 8.59232377673948  26.2441096169371 12.3603773584295  26.2441096169371 12.3603773584295  C 26.2441096169371 12.3603773584295  26.6498081803492 16.144525135877  26.6498081803492 16.144525135877  C 26.6498081803492 16.144525135877  25.8941946059934 20.1610171738953  25.8941946059934 20.1610171738953  C 25.8941946059934 20.1610171738953  26.5838821637951 22.0903088903079  26.5838821637951 22.0903088903079  C 26.5838821637951 22.0903088903079  27.1036834481674 25.4117485397314  27.1036834481674 25.4117485397314  C 27.1036834481674 25.4117485397314  29.6063364612181 26.9567913324374  29.6063364612181 26.9567913324374  C 29.6063364612181 26.9567913324374  32.4031209327429 31.9158154001715  32.4031209327429 31.9158154001715  C 32.4031209327429 31.9158154001715  32.2661976675911 33.8109069505998  32.2661976675911 33.8109069505998  C 32.2661976675911 33.8109069505998  27.2253930171907 34.1850970019582  27.2253930171907 34.1850970019582  C 27.2253930171907 34.1850970019582  20.5009393286286 30.0327944965613  20.5009393286286 30.0327944965613  C 20.5009393286286 30.0327944965613  10.2481957227252 25.5827493696531  10.2481957227252 25.5827493696531  C 10.2481957227252 25.5827493696531  9.41651366772978 22.7240178482535  9.41651366772978 22.7240178482535  C 9.41651366772978 22.7240178482535  5.30628009715698 18.9700466878512  5.30628009715698 18.9700466878512  C 5.30628009715698 18.9700466878512  4.32499669690335 12.8552738779681  4.32499669690335 12.8552738779681  C 4.32499669690335 12.8552738779681  1.7589532833193 9.78932958619234  1.7589532833193 9.78932958619234  C 1.7589532833193 9.78932958619234  2.53992301788829 5.6893332170068  2.53992301788829 5.6893332170068  C 2.53992301788829 5.6893332170068  0.972912316707499 3.29934514703987  0.972912316707499 3.29934514703987  C 0.972912316707499 3.29934514703987  2.20775731909426 2.29345791220535  2.20775731909426 2.29345791220535  Z " stroke-width="2" stroke="#505050" fill="none" stroke-opacity="0.211764705882353" transform="matrix(1 0 0 1 2551 4303 )" mask="url(#clip176)" />
    <path d="M 133.295282421387 11.7286801749534  C 133.295282421387 11.7286801749534  134.568161664093 14.4747523260516  134.568161664093 14.4747523260516  C 134.568161664093 14.4747523260516  129.334650196072 16.3899616211769  129.334650196072 16.3899616211769  C 129.334650196072 16.3899616211769  123.173103264245 15.4424158459624  123.173103264245 15.4424158459624  C 123.173103264245 15.4424158459624  114.998277211483 15.4404040714929  114.998277211483 15.4404040714929  C 114.998277211483 15.4404040714929  112.533658438752 23.2893264742306  112.533658438752 23.2893264742306  C 112.533658438752 23.2893264742306  109.797728751739 25.2407477098097  109.797728751739 25.2407477098097  C 109.797728751739 25.2407477098097  106.15151291307 33.0383855542471  106.15151291307 33.0383855542471  C 106.15151291307 33.0383855542471  98.5104538091342 34.2333795892304  98.5104538091342 34.2333795892304  C 98.5104538091342 34.2333795892304  91.7860001205721 32.6621837284188  91.7860001205721 32.6621837284188  C 91.7860001205721 32.6621837284188  88.3755965718858 33.1530566990183  88.3755965718858 33.1530566990183  C 88.3755965718858 33.1530566990183  84.2323999930357 35.9876469267818  84.2323999930357 35.9876469267818  C 84.2323999930357 35.9876469267818  79.6936473148584 35.5832802583786  79.6936473148584 35.5832802583786  C 79.6936473148584 35.5832802583786  75.1067179322762 36.721944608211  75.1067179322762 36.721944608211  C 75.1067179322762 36.721944608211  70.2459420193904 33.555411592952  70.2459420193904 33.555411592952  C 70.2459420193904 33.555411592952  69.0567381053873 29.8094875304279  69.0567381053873 29.8094875304279  C 69.0567381053873 29.8094875304279  74.2674290292163 31.7307321489619  74.2674290292163 31.7307321489619  C 74.2674290292163 31.7307321489619  79.762108947434 30.6825976502645  79.762108947434 30.6825976502645  C 79.762108947434 30.6825976502645  81.1921963834631 25.9348099018453  81.1921963834631 25.9348099018453  C 81.1921963834631 25.9348099018453  84.2247931449717 24.8766165307995  84.2247931449717 24.8766165307995  C 84.2247931449717 24.8766165307995  92.7469985926553 23.6615047511192  92.7469985926553 23.6615047511192  C 92.7469985926553 23.6615047511192  97.8461224115458 17.7599800350213  97.8461224115458 17.7599800350213  C 97.8461224115458 17.7599800350213  101.337665672915 14.2071863215855  101.337665672915 14.2071863215855  C 101.337665672915 14.2071863215855  106.417752595309 17.1182239791968  106.417752595309 17.1182239791968  C 106.417752595309 17.1182239791968  107.911230431871 15.2030146840718  107.911230431871 15.2030146840718  C 107.911230431871 15.2030146840718  111.308955900451 15.3820626118725  111.308955900451 15.3820626118725  C 111.308955900451 15.3820626118725  111.724796927949 11.7910451835129  111.724796927949 11.7910451835129  C 111.724796927949 11.7910451835129  112.044284546636 9.0208317387785  112.044284546636 9.0208317387785  C 112.044284546636 9.0208317387785  117.518679536683 5.10390684633304  117.518679536683 5.10390684633304  C 117.518679536683 5.10390684633304  121.104040590841 0.696108983288048  121.104040590841 0.696108983288048  C 121.104040590841 0.696108983288048  123.979429159027 0.678003013060963  123.979429159027 0.678003013060963  C 123.979429159027 0.678003013060963  127.630716229739 3.53271098552141  127.630716229739 3.53271098552141  C 127.630716229739 3.53271098552141  127.955275080469 5.98305228957829  127.955275080469 5.98305228957829  C 127.955275080469 5.98305228957829  132.638557871863 7.55223637592002  132.638557871863 7.55223637592002  C 132.638557871863 7.55223637592002  138.57189936177 9.24615047938145  138.57189936177 9.24615047938145  C 138.57189936177 9.24615047938145  138.064776157504 11.4490435236692  138.064776157504 11.4490435236692  C 138.064776157504 11.4490435236692  133.295282421387 11.7286801749534  133.295282421387 11.7286801749534  Z " stroke-width="2" stroke="#505050" fill="none" stroke-opacity="0.211764705882353" transform="matrix(1 0 0 1 2551 4303 )" mask="url(#clip176)" />
  </g>
</svg>