<?xml version="1.0" encoding="utf-8"?>
<svg version="1.1" xmlns:xlink="http://www.w3.org/1999/xlink" width="78px" height="99px" xmlns="http://www.w3.org/2000/svg">
  <defs>
    <mask fill="white" id="clip177">
      <path d="M 30.0262905948643 12.2457140101359  C 30.0262905948643 12.2457140101359  31.986330203324 7.97193163127076  31.986330203324 7.97193163127076  C 31.986330203324 7.97193163127076  37.2547169216054 7.51966907823911  37.2547169216054 7.51966907823911  C 37.2547169216054 7.51966907823911  47.4806110990249 9.10160054102609  47.4806110990249 9.10160054102609  C 47.4806110990249 9.10160054102609  49.3083168230923 8.39062010831296  49.3083168230923 8.39062010831296  C 49.3083168230923 8.39062010831296  54.1821987539382 8.24644907612381  54.1821987539382 8.24644907612381  C 54.1821987539382 8.24644907612381  56.6765676314562 6.56379538536909  56.6765676314562 6.56379538536909  C 56.6765676314562 6.56379538536909  60.8762958116217 6.65464288510488  60.8762958116217 6.65464288510488  C 60.8762958116217 6.65464288510488  68.5316861804603 4.47825278274341  68.5316861804603 4.47825278274341  C 68.5316861804603 4.47825278274341  74.1021936536764 1.23341708566624  74.1021936536764 1.23341708566624  C 74.1021936536764 1.23341708566624  75.2357707011171 3.74159805662676  75.2357707011171 3.74159805662676  C 75.2357707011171 3.74159805662676  74.9461342748989 9.33069423601141  74.9461342748989 9.33069423601141  C 74.9461342748989 9.33069423601141  75.8100498220673 14.2700332977222  75.8100498220673 14.2700332977222  C 75.8100498220673 14.2700332977222  76.0822081880824 23.1098900111237  76.0822081880824 23.1098900111237  C 76.0822081880824 23.1098900111237  77.3156598652538 25.8945633725839  77.3156598652538 25.8945633725839  C 77.3156598652538 25.8945633725839  75.2257832381442 29.9669012955138  75.2257832381442 29.9669012955138  C 75.2257832381442 29.9669012955138  72.5091933094758 33.9365420448294  72.5091933094758 33.9365420448294  C 72.5091933094758 33.9365420448294  68.0522879577545 37.4953940996887  68.0522879577545 37.4953940996887  C 68.0522879577545 37.4953940996887  61.6528210577759 39.6816589302818  61.6528210577759 39.6816589302818  C 61.6528210577759 39.6816589302818  53.7602284433269 42.4801569112669  53.7602284433269 42.4801569112669  C 53.7602284433269 42.4801569112669  45.8501577686752 48.6953108605685  45.8501577686752 48.6953108605685  C 45.8501577686752 48.6953108605685  43.1560396316962 51.1926142270412  43.1560396316962 51.1926142270412  C 43.1560396316962 51.1926142270412  36.4557198837618 55.3321003019498  36.4557198837618 55.3321003019498  C 36.4557198837618 55.3321003019498  33.5718399502952 56.6849380697514  33.5718399502952 56.6849380697514  C 33.5718399502952 56.6849380697514  32.9800827691423 60.8658980032344  32.9800827691423 60.8658980032344  C 32.9800827691423 60.8658980032344  36.3009142076793 65.3273002185104  36.3009142076793 65.3273002185104  C 36.3009142076793 65.3273002185104  37.6816809637029 68.7992546649268  37.6816809637029 68.7992546649268  C 37.6816809637029 68.7992546649268  37.7690712647175 70.5747308010634  37.7690712647175 70.5747308010634  C 37.7690712647175 70.5747308010634  40.8189732960041 70.2784889540995  40.8189732960041 70.2784889540995  C 40.8189732960041 70.2784889540995  40.6192240365428 76.1263030131659  40.6192240365428 76.1263030131659  C 40.6192240365428 76.1263030131659  37.6691966349869 78.9109763746264  37.6691966349869 78.9109763746264  C 37.6691966349869 78.9109763746264  41.1335783796549 79.939923056414  41.1335783796549 79.939923056414  C 41.1335783796549 79.939923056414  38.2784318763425 82.4461290817282  38.2784318763425 82.4461290817282  C 38.2784318763425 82.4461290817282  35.3521052252403 84.5968448906858  35.3521052252403 84.5968448906858  C 35.3521052252403 84.5968448906858  29.576854761077 86.6428885803828  29.576854761077 86.6428885803828  C 29.576854761077 86.6428885803828  21.1574234748002 89.9351229729746  21.1574234748002 89.9351229729746  C 21.1574234748002 89.9351229729746  18.0862786105889 92.1905109011927  18.0862786105889 92.1905109011927  C 18.0862786105889 92.1905109011927  18.6880232547147 94.7717648610711  18.6880232547147 94.7717648610711  C 18.6880232547147 94.7717648610711  20.4757791268896 95.1845285011743  20.4757791268896 95.1845285011743  C 20.4757791268896 95.1845285011743  19.8765313485073 98.4234393613122  19.8765313485073 98.4234393613122  C 19.8765313485073 98.4234393613122  14.5656979125903 98.3720907745051  14.5656979125903 98.3720907745051  C 14.5656979125903 98.3720907745051  13.9664501342076 95.6506156737306  13.9664501342076 95.6506156737306  C 13.9664501342076 95.6506156737306  12.9277539850108 92.9014913339058  12.9277539850108 92.9014913339058  C 12.9277539850108 92.9014913339058  12.3310030723716 90.7073267207271  12.3310030723716 90.7073267207271  C 12.3310030723716 90.7073267207271  13.5794359440022 83.9372130447798  13.5794359440022 83.9372130447798  C 13.5794359440022 83.9372130447798  11.7567239514215 79.6535559376824  11.7567239514215 79.6535559376824  C 11.7567239514215 79.6535559376824  8.40343325822147 71.2383125382624  8.40343325822147 71.2383125382624  C 8.40343325822147 71.2383125382624  15.7791746638154 64.5136226121828  15.7791746638154 64.5136226121828  C 15.7791746638154 64.5136226121828  17.6243584480854 60.2674894723676  17.6243584480854 60.2674894723676  C 17.6243584480854 60.2674894723676  18.6830295232285 59.7322792021864  18.6830295232285 59.7322792021864  C 18.6830295232285 59.7322792021864  19.4745359638423 56.2840241035271  19.4745359638423 56.2840241035271  C 19.4745359638423 56.2840241035271  18.3484495136314 54.553971717258  18.3484495136314 54.553971717258  C 18.3484495136314 54.553971717258  18.6505702685657 48.7683838494864  18.6505702685657 48.7683838494864  C 18.6505702685657 48.7683838494864  20.0138589643866 44.7493694590101  20.0138589643866 44.7493694590101  C 20.0138589643866 44.7493694590101  19.9988777699269 37.4519452954673  19.9988777699269 37.4519452954673  C 19.9988777699269 37.4519452954673  16.3609443819952 35.6073460617055  16.3609443819952 35.6073460617055  C 16.3609443819952 35.6073460617055  13.0301254804846 35.1906325303096  13.0301254804846 35.1906325303096  C 13.0301254804846 35.1906325303096  11.5195217058115 33.772621556176  11.5195217058115 33.772621556176  C 11.5195217058115 33.772621556176  8.27609310531532 32.5639548205635  8.27609310531532 32.5639548205635  C 8.27609310531532 32.5639548205635  2.43592413182707 32.6785016680561  2.43592413182707 32.6785016680561  C 2.43592413182707 32.6785016680561  1.98399143229699 30.5455603699164  1.98399143229699 30.5455603699164  C 1.98399143229699 30.5455603699164  1.3198251445893 26.4870470665117  1.3198251445893 26.4870470665117  C 1.3198251445893 26.4870470665117  22.563158888256 21.8064258844827  22.563158888256 21.8064258844827  C 22.563158888256 21.8064258844827  26.5931001978798 24.5298759309036  26.5931001978798 24.5298759309036  C 26.5931001978798 24.5298759309036  28.5206805516775 24.0084902802474  28.5206805516775 24.0084902802474  C 28.5206805516775 24.0084902802474  31.2847109294679 25.4462507108452  31.2847109294679 25.4462507108452  C 31.2847109294679 25.4462507108452  31.689203179876 27.7273129324671  31.689203179876 27.7273129324671  C 31.689203179876 27.7273129324671  30.2160523913519 30.3796649356167  30.2160523913519 30.3796649356167  C 30.2160523913519 30.3796649356167  30.7354004659503 34.4105289999716  30.7354004659503 34.4105289999716  C 30.7354004659503 34.4105289999716  35.3021679103752 37.9575313809519  35.3021679103752 37.9575313809519  C 35.3021679103752 37.9575313809519  37.4394849866067 33.9740660121115  37.4394849866067 33.9740660121115  C 37.4394849866067 33.9740660121115  42.2846334872984 32.7693491677916  42.2846334872984 32.7693491677916  C 42.2846334872984 32.7693491677916  41.6878825746588 25.4344010369666  41.6878825746588 25.4344010369666  C 41.6878825746588 25.4344010369666  36.9426087036978 21.3304639836942  36.9426087036978 21.3304639836942  C 36.9426087036978 21.3304639836942  34.4157805715173 19.5036392607503  34.4157805715173 19.5036392607503  C 34.4157805715173 19.5036392607503  31.986330203324 19.5846120322538  31.986330203324 19.5846120322538  C 31.986330203324 19.5846120322538  30.0262905948643 12.2457140101359  30.0262905948643 12.2457140101359  Z " fill-rule="evenodd" />
    </mask>
  </defs>
  <g transform="matrix(1 0 0 1 -2053 -4398 )">
    <path d="M 30.0262905948643 12.2457140101359  C 30.0262905948643 12.2457140101359  31.986330203324 7.97193163127076  31.986330203324 7.97193163127076  C 31.986330203324 7.97193163127076  37.2547169216054 7.51966907823911  37.2547169216054 7.51966907823911  C 37.2547169216054 7.51966907823911  47.4806110990249 9.10160054102609  47.4806110990249 9.10160054102609  C 47.4806110990249 9.10160054102609  49.3083168230923 8.39062010831296  49.3083168230923 8.39062010831296  C 49.3083168230923 8.39062010831296  54.1821987539382 8.24644907612381  54.1821987539382 8.24644907612381  C 54.1821987539382 8.24644907612381  56.6765676314562 6.56379538536909  56.6765676314562 6.56379538536909  C 56.6765676314562 6.56379538536909  60.8762958116217 6.65464288510488  60.8762958116217 6.65464288510488  C 60.8762958116217 6.65464288510488  68.5316861804603 4.47825278274341  68.5316861804603 4.47825278274341  C 68.5316861804603 4.47825278274341  74.1021936536764 1.23341708566624  74.1021936536764 1.23341708566624  C 74.1021936536764 1.23341708566624  75.2357707011171 3.74159805662676  75.2357707011171 3.74159805662676  C 75.2357707011171 3.74159805662676  74.9461342748989 9.33069423601141  74.9461342748989 9.33069423601141  C 74.9461342748989 9.33069423601141  75.8100498220673 14.2700332977222  75.8100498220673 14.2700332977222  C 75.8100498220673 14.2700332977222  76.0822081880824 23.1098900111237  76.0822081880824 23.1098900111237  C 76.0822081880824 23.1098900111237  77.3156598652538 25.8945633725839  77.3156598652538 25.8945633725839  C 77.3156598652538 25.8945633725839  75.2257832381442 29.9669012955138  75.2257832381442 29.9669012955138  C 75.2257832381442 29.9669012955138  72.5091933094758 33.9365420448294  72.5091933094758 33.9365420448294  C 72.5091933094758 33.9365420448294  68.0522879577545 37.4953940996887  68.0522879577545 37.4953940996887  C 68.0522879577545 37.4953940996887  61.6528210577759 39.6816589302818  61.6528210577759 39.6816589302818  C 61.6528210577759 39.6816589302818  53.7602284433269 42.4801569112669  53.7602284433269 42.4801569112669  C 53.7602284433269 42.4801569112669  45.8501577686752 48.6953108605685  45.8501577686752 48.6953108605685  C 45.8501577686752 48.6953108605685  43.1560396316962 51.1926142270412  43.1560396316962 51.1926142270412  C 43.1560396316962 51.1926142270412  36.4557198837618 55.3321003019498  36.4557198837618 55.3321003019498  C 36.4557198837618 55.3321003019498  33.5718399502952 56.6849380697514  33.5718399502952 56.6849380697514  C 33.5718399502952 56.6849380697514  32.9800827691423 60.8658980032344  32.9800827691423 60.8658980032344  C 32.9800827691423 60.8658980032344  36.3009142076793 65.3273002185104  36.3009142076793 65.3273002185104  C 36.3009142076793 65.3273002185104  37.6816809637029 68.7992546649268  37.6816809637029 68.7992546649268  C 37.6816809637029 68.7992546649268  37.7690712647175 70.5747308010634  37.7690712647175 70.5747308010634  C 37.7690712647175 70.5747308010634  40.8189732960041 70.2784889540995  40.8189732960041 70.2784889540995  C 40.8189732960041 70.2784889540995  40.6192240365428 76.1263030131659  40.6192240365428 76.1263030131659  C 40.6192240365428 76.1263030131659  37.6691966349869 78.9109763746264  37.6691966349869 78.9109763746264  C 37.6691966349869 78.9109763746264  41.1335783796549 79.939923056414  41.1335783796549 79.939923056414  C 41.1335783796549 79.939923056414  38.2784318763425 82.4461290817282  38.2784318763425 82.4461290817282  C 38.2784318763425 82.4461290817282  35.3521052252403 84.5968448906858  35.3521052252403 84.5968448906858  C 35.3521052252403 84.5968448906858  29.576854761077 86.6428885803828  29.576854761077 86.6428885803828  C 29.576854761077 86.6428885803828  21.1574234748002 89.9351229729746  21.1574234748002 89.9351229729746  C 21.1574234748002 89.9351229729746  18.0862786105889 92.1905109011927  18.0862786105889 92.1905109011927  C 18.0862786105889 92.1905109011927  18.6880232547147 94.7717648610711  18.6880232547147 94.7717648610711  C 18.6880232547147 94.7717648610711  20.4757791268896 95.1845285011743  20.4757791268896 95.1845285011743  C 20.4757791268896 95.1845285011743  19.8765313485073 98.4234393613122  19.8765313485073 98.4234393613122  C 19.8765313485073 98.4234393613122  14.5656979125903 98.3720907745051  14.5656979125903 98.3720907745051  C 14.5656979125903 98.3720907745051  13.9664501342076 95.6506156737306  13.9664501342076 95.6506156737306  C 13.9664501342076 95.6506156737306  12.9277539850108 92.9014913339058  12.9277539850108 92.9014913339058  C 12.9277539850108 92.9014913339058  12.3310030723716 90.7073267207271  12.3310030723716 90.7073267207271  C 12.3310030723716 90.7073267207271  13.5794359440022 83.9372130447798  13.5794359440022 83.9372130447798  C 13.5794359440022 83.9372130447798  11.7567239514215 79.6535559376824  11.7567239514215 79.6535559376824  C 11.7567239514215 79.6535559376824  8.40343325822147 71.2383125382624  8.40343325822147 71.2383125382624  C 8.40343325822147 71.2383125382624  15.7791746638154 64.5136226121828  15.7791746638154 64.5136226121828  C 15.7791746638154 64.5136226121828  17.6243584480854 60.2674894723676  17.6243584480854 60.2674894723676  C 17.6243584480854 60.2674894723676  18.6830295232285 59.7322792021864  18.6830295232285 59.7322792021864  C 18.6830295232285 59.7322792021864  19.4745359638423 56.2840241035271  19.4745359638423 56.2840241035271  C 19.4745359638423 56.2840241035271  18.3484495136314 54.553971717258  18.3484495136314 54.553971717258  C 18.3484495136314 54.553971717258  18.6505702685657 48.7683838494864  18.6505702685657 48.7683838494864  C 18.6505702685657 48.7683838494864  20.0138589643866 44.7493694590101  20.0138589643866 44.7493694590101  C 20.0138589643866 44.7493694590101  19.9988777699269 37.4519452954673  19.9988777699269 37.4519452954673  C 19.9988777699269 37.4519452954673  16.3609443819952 35.6073460617055  16.3609443819952 35.6073460617055  C 16.3609443819952 35.6073460617055  13.0301254804846 35.1906325303096  13.0301254804846 35.1906325303096  C 13.0301254804846 35.1906325303096  11.5195217058115 33.772621556176  11.5195217058115 33.772621556176  C 11.5195217058115 33.772621556176  8.27609310531532 32.5639548205635  8.27609310531532 32.5639548205635  C 8.27609310531532 32.5639548205635  2.43592413182707 32.6785016680561  2.43592413182707 32.6785016680561  C 2.43592413182707 32.6785016680561  1.98399143229699 30.5455603699164  1.98399143229699 30.5455603699164  C 1.98399143229699 30.5455603699164  1.3198251445893 26.4870470665117  1.3198251445893 26.4870470665117  C 1.3198251445893 26.4870470665117  22.563158888256 21.8064258844827  22.563158888256 21.8064258844827  C 22.563158888256 21.8064258844827  26.5931001978798 24.5298759309036  26.5931001978798 24.5298759309036  C 26.5931001978798 24.5298759309036  28.5206805516775 24.0084902802474  28.5206805516775 24.0084902802474  C 28.5206805516775 24.0084902802474  31.2847109294679 25.4462507108452  31.2847109294679 25.4462507108452  C 31.2847109294679 25.4462507108452  31.689203179876 27.7273129324671  31.689203179876 27.7273129324671  C 31.689203179876 27.7273129324671  30.2160523913519 30.3796649356167  30.2160523913519 30.3796649356167  C 30.2160523913519 30.3796649356167  30.7354004659503 34.4105289999716  30.7354004659503 34.4105289999716  C 30.7354004659503 34.4105289999716  35.3021679103752 37.9575313809519  35.3021679103752 37.9575313809519  C 35.3021679103752 37.9575313809519  37.4394849866067 33.9740660121115  37.4394849866067 33.9740660121115  C 37.4394849866067 33.9740660121115  42.2846334872984 32.7693491677916  42.2846334872984 32.7693491677916  C 42.2846334872984 32.7693491677916  41.6878825746588 25.4344010369666  41.6878825746588 25.4344010369666  C 41.6878825746588 25.4344010369666  36.9426087036978 21.3304639836942  36.9426087036978 21.3304639836942  C 36.9426087036978 21.3304639836942  34.4157805715173 19.5036392607503  34.4157805715173 19.5036392607503  C 34.4157805715173 19.5036392607503  31.986330203324 19.5846120322538  31.986330203324 19.5846120322538  C 31.986330203324 19.5846120322538  30.0262905948643 12.2457140101359  30.0262905948643 12.2457140101359  Z " fill-rule="nonzero" fill="#f2f2f2" stroke="none" transform="matrix(1 0 0 1 2053 4398 )" />
    <path d="M 30.0262905948643 12.2457140101359  C 30.0262905948643 12.2457140101359  31.986330203324 7.97193163127076  31.986330203324 7.97193163127076  C 31.986330203324 7.97193163127076  37.2547169216054 7.51966907823911  37.2547169216054 7.51966907823911  C 37.2547169216054 7.51966907823911  47.4806110990249 9.10160054102609  47.4806110990249 9.10160054102609  C 47.4806110990249 9.10160054102609  49.3083168230923 8.39062010831296  49.3083168230923 8.39062010831296  C 49.3083168230923 8.39062010831296  54.1821987539382 8.24644907612381  54.1821987539382 8.24644907612381  C 54.1821987539382 8.24644907612381  56.6765676314562 6.56379538536909  56.6765676314562 6.56379538536909  C 56.6765676314562 6.56379538536909  60.8762958116217 6.65464288510488  60.8762958116217 6.65464288510488  C 60.8762958116217 6.65464288510488  68.5316861804603 4.47825278274341  68.5316861804603 4.47825278274341  C 68.5316861804603 4.47825278274341  74.1021936536764 1.23341708566624  74.1021936536764 1.23341708566624  C 74.1021936536764 1.23341708566624  75.2357707011171 3.74159805662676  75.2357707011171 3.74159805662676  C 75.2357707011171 3.74159805662676  74.9461342748989 9.33069423601141  74.9461342748989 9.33069423601141  C 74.9461342748989 9.33069423601141  75.8100498220673 14.2700332977222  75.8100498220673 14.2700332977222  C 75.8100498220673 14.2700332977222  76.0822081880824 23.1098900111237  76.0822081880824 23.1098900111237  C 76.0822081880824 23.1098900111237  77.3156598652538 25.8945633725839  77.3156598652538 25.8945633725839  C 77.3156598652538 25.8945633725839  75.2257832381442 29.9669012955138  75.2257832381442 29.9669012955138  C 75.2257832381442 29.9669012955138  72.5091933094758 33.9365420448294  72.5091933094758 33.9365420448294  C 72.5091933094758 33.9365420448294  68.0522879577545 37.4953940996887  68.0522879577545 37.4953940996887  C 68.0522879577545 37.4953940996887  61.6528210577759 39.6816589302818  61.6528210577759 39.6816589302818  C 61.6528210577759 39.6816589302818  53.7602284433269 42.4801569112669  53.7602284433269 42.4801569112669  C 53.7602284433269 42.4801569112669  45.8501577686752 48.6953108605685  45.8501577686752 48.6953108605685  C 45.8501577686752 48.6953108605685  43.1560396316962 51.1926142270412  43.1560396316962 51.1926142270412  C 43.1560396316962 51.1926142270412  36.4557198837618 55.3321003019498  36.4557198837618 55.3321003019498  C 36.4557198837618 55.3321003019498  33.5718399502952 56.6849380697514  33.5718399502952 56.6849380697514  C 33.5718399502952 56.6849380697514  32.9800827691423 60.8658980032344  32.9800827691423 60.8658980032344  C 32.9800827691423 60.8658980032344  36.3009142076793 65.3273002185104  36.3009142076793 65.3273002185104  C 36.3009142076793 65.3273002185104  37.6816809637029 68.7992546649268  37.6816809637029 68.7992546649268  C 37.6816809637029 68.7992546649268  37.7690712647175 70.5747308010634  37.7690712647175 70.5747308010634  C 37.7690712647175 70.5747308010634  40.8189732960041 70.2784889540995  40.8189732960041 70.2784889540995  C 40.8189732960041 70.2784889540995  40.6192240365428 76.1263030131659  40.6192240365428 76.1263030131659  C 40.6192240365428 76.1263030131659  37.6691966349869 78.9109763746264  37.6691966349869 78.9109763746264  C 37.6691966349869 78.9109763746264  41.1335783796549 79.939923056414  41.1335783796549 79.939923056414  C 41.1335783796549 79.939923056414  38.2784318763425 82.4461290817282  38.2784318763425 82.4461290817282  C 38.2784318763425 82.4461290817282  35.3521052252403 84.5968448906858  35.3521052252403 84.5968448906858  C 35.3521052252403 84.5968448906858  29.576854761077 86.6428885803828  29.576854761077 86.6428885803828  C 29.576854761077 86.6428885803828  21.1574234748002 89.9351229729746  21.1574234748002 89.9351229729746  C 21.1574234748002 89.9351229729746  18.0862786105889 92.1905109011927  18.0862786105889 92.1905109011927  C 18.0862786105889 92.1905109011927  18.6880232547147 94.7717648610711  18.6880232547147 94.7717648610711  C 18.6880232547147 94.7717648610711  20.4757791268896 95.1845285011743  20.4757791268896 95.1845285011743  C 20.4757791268896 95.1845285011743  19.8765313485073 98.4234393613122  19.8765313485073 98.4234393613122  C 19.8765313485073 98.4234393613122  14.5656979125903 98.3720907745051  14.5656979125903 98.3720907745051  C 14.5656979125903 98.3720907745051  13.9664501342076 95.6506156737306  13.9664501342076 95.6506156737306  C 13.9664501342076 95.6506156737306  12.9277539850108 92.9014913339058  12.9277539850108 92.9014913339058  C 12.9277539850108 92.9014913339058  12.3310030723716 90.7073267207271  12.3310030723716 90.7073267207271  C 12.3310030723716 90.7073267207271  13.5794359440022 83.9372130447798  13.5794359440022 83.9372130447798  C 13.5794359440022 83.9372130447798  11.7567239514215 79.6535559376824  11.7567239514215 79.6535559376824  C 11.7567239514215 79.6535559376824  8.40343325822147 71.2383125382624  8.40343325822147 71.2383125382624  C 8.40343325822147 71.2383125382624  15.7791746638154 64.5136226121828  15.7791746638154 64.5136226121828  C 15.7791746638154 64.5136226121828  17.6243584480854 60.2674894723676  17.6243584480854 60.2674894723676  C 17.6243584480854 60.2674894723676  18.6830295232285 59.7322792021864  18.6830295232285 59.7322792021864  C 18.6830295232285 59.7322792021864  19.4745359638423 56.2840241035271  19.4745359638423 56.2840241035271  C 19.4745359638423 56.2840241035271  18.3484495136314 54.553971717258  18.3484495136314 54.553971717258  C 18.3484495136314 54.553971717258  18.6505702685657 48.7683838494864  18.6505702685657 48.7683838494864  C 18.6505702685657 48.7683838494864  20.0138589643866 44.7493694590101  20.0138589643866 44.7493694590101  C 20.0138589643866 44.7493694590101  19.9988777699269 37.4519452954673  19.9988777699269 37.4519452954673  C 19.9988777699269 37.4519452954673  16.3609443819952 35.6073460617055  16.3609443819952 35.6073460617055  C 16.3609443819952 35.6073460617055  13.0301254804846 35.1906325303096  13.0301254804846 35.1906325303096  C 13.0301254804846 35.1906325303096  11.5195217058115 33.772621556176  11.5195217058115 33.772621556176  C 11.5195217058115 33.772621556176  8.27609310531532 32.5639548205635  8.27609310531532 32.5639548205635  C 8.27609310531532 32.5639548205635  2.43592413182707 32.6785016680561  2.43592413182707 32.6785016680561  C 2.43592413182707 32.6785016680561  1.98399143229699 30.5455603699164  1.98399143229699 30.5455603699164  C 1.98399143229699 30.5455603699164  1.3198251445893 26.4870470665117  1.3198251445893 26.4870470665117  C 1.3198251445893 26.4870470665117  22.563158888256 21.8064258844827  22.563158888256 21.8064258844827  C 22.563158888256 21.8064258844827  26.5931001978798 24.5298759309036  26.5931001978798 24.5298759309036  C 26.5931001978798 24.5298759309036  28.5206805516775 24.0084902802474  28.5206805516775 24.0084902802474  C 28.5206805516775 24.0084902802474  31.2847109294679 25.4462507108452  31.2847109294679 25.4462507108452  C 31.2847109294679 25.4462507108452  31.689203179876 27.7273129324671  31.689203179876 27.7273129324671  C 31.689203179876 27.7273129324671  30.2160523913519 30.3796649356167  30.2160523913519 30.3796649356167  C 30.2160523913519 30.3796649356167  30.7354004659503 34.4105289999716  30.7354004659503 34.4105289999716  C 30.7354004659503 34.4105289999716  35.3021679103752 37.9575313809519  35.3021679103752 37.9575313809519  C 35.3021679103752 37.9575313809519  37.4394849866067 33.9740660121115  37.4394849866067 33.9740660121115  C 37.4394849866067 33.9740660121115  42.2846334872984 32.7693491677916  42.2846334872984 32.7693491677916  C 42.2846334872984 32.7693491677916  41.6878825746588 25.4344010369666  41.6878825746588 25.4344010369666  C 41.6878825746588 25.4344010369666  36.9426087036978 21.3304639836942  36.9426087036978 21.3304639836942  C 36.9426087036978 21.3304639836942  34.4157805715173 19.5036392607503  34.4157805715173 19.5036392607503  C 34.4157805715173 19.5036392607503  31.986330203324 19.5846120322538  31.986330203324 19.5846120322538  C 31.986330203324 19.5846120322538  30.0262905948643 12.2457140101359  30.0262905948643 12.2457140101359  Z " stroke-width="2" stroke="#505050" fill="none" stroke-opacity="0.211764705882353" transform="matrix(1 0 0 1 2053 4398 )" mask="url(#clip177)" />
  </g>
</svg>