<?xml version="1.0" encoding="utf-8"?>
<svg version="1.1" xmlns:xlink="http://www.w3.org/1999/xlink" width="99px" height="75px" xmlns="http://www.w3.org/2000/svg">
  <defs>
    <mask fill="white" id="clip178">
      <path d="M 37.0015279906242 68.3554673187754  C 37.0015279906242 68.3554673187754  33.6124115421551 71.4664382996682  33.6124115421551 71.4664382996682  C 33.6124115421551 71.4664382996682  28.3533507241286 66.719577026334  28.3533507241286 66.719577026334  C 28.3533507241286 66.719577026334  25.5850255238526 62.1633049132843  25.5850255238526 62.1633049132843  C 25.5850255238526 62.1633049132843  24.0229532367326 56.1339374155359  24.0229532367326 56.1339374155359  C 24.0229532367326 56.1339374155359  22.2791859501411 51.6809010976398  22.2791859501411 51.6809010976398  C 22.2791859501411 51.6809010976398  19.9070567903786 42.3043114723964  19.9070567903786 42.3043114723964  C 19.9070567903786 42.3043114723964  19.7480736658414 33.6533658530802  19.7480736658414 33.6533658530802  C 19.7480736658414 33.6533658530802  18.8421222101452 30.3895264832092  18.8421222101452 30.3895264832092  C 18.8421222101452 30.3895264832092  16.0914618014844 27.9297351332881  16.0914618014844 27.9297351332881  C 16.0914618014844 27.9297351332881  12.4373734787865 23.0220642559636  12.4373734787865 23.0220642559636  C 12.4373734787865 23.0220642559636  8.72019661460566 15.946441680404  8.72019661460566 15.946441680404  C 8.72019661460566 15.946441680404  7.17326557744136 12.2637032186578  7.17326557744136 12.2637032186578  C 7.17326557744136 12.2637032186578  1.41706705252867 6.56588144765417  1.41706705252867 6.56588144765417  C 1.41706705252867 6.56588144765417  0.988064970443797 2.11085982600554  0.988064970443797 2.11085982600554  C 0.988064970443797 2.11085982600554  4.3923226688688 1.0090162431112  4.3923226688688 1.0090162431112  C 4.3923226688688 1.0090162431112  8.62934911487018 0.0223202778883547  8.62934911487018 0.0223202778883547  C 8.62934911487018 0.0223202778883547  13.2171478515169 0.195041704396405  13.2171478515169 0.195041704396405  C 13.2171478515169 0.195041704396405  17.4339859642435 2.81564265830711  17.4339859642435 2.81564265830711  C 17.4339859642435 2.81564265830711  18.503967627796 2.40667008519685  18.503967627796 2.40667008519685  C 18.503967627796 2.40667008519685  47.1840185859874 2.15652181232363  47.1840185859874 2.15652181232363  C 47.1840185859874 2.15652181232363  53.9205933633831 4.93793237022456  53.9205933633831 4.93793237022456  C 53.9205933633831 4.93793237022456  71.0503941468592 5.75984812395114  71.0503941468592 5.75984812395114  C 71.0503941468592 5.75984812395114  84.0567278590033 3.39336605041937  84.0567278590033 3.39336605041937  C 84.0567278590033 3.39336605041937  89.850779508806 2.07512435845208  89.850779508806 2.07512435845208  C 89.850779508806 2.07512435845208  94.4360547037935 2.40865538894971  94.4360547037935 2.40865538894971  C 94.4360547037935 2.40865538894971  97.2296153206629 3.71697056215236  97.2296153206629 3.71697056215236  C 97.2296153206629 3.71697056215236  97.2826096955086 4.19741407036954  97.2826096955086 4.19741407036954  C 97.2826096955086 4.19741407036954  93.2928903321209 5.50771454732506  93.2928903321209 5.50771454732506  C 93.2928903321209 5.50771454732506  91.1478799216974 5.51962636984255  91.1478799216974 5.51962636984255  C 91.1478799216974 5.51962636984255  86.6307403515115 7.80074038199705  86.6307403515115 7.80074038199705  C 86.6307403515115 7.80074038199705  83.9255036927187 5.40249344841787  83.9255036927187 5.40249344841787  C 83.9255036927187 5.40249344841787  73.0187566411299 7.43941509895773  73.0187566411299 7.43941509895773  C 73.0187566411299 7.43941509895773  67.7496016564662 7.63198956299537  67.7496016564662 7.63198956299537  C 67.7496016564662 7.63198956299537  67.5426712404019 28.6166502318132  67.5426712404019 28.6166502318132  C 67.5426712404019 28.6166502318132  60.5676020940367 28.8251071258744  60.5676020940367 28.8251071258744  C 60.5676020940367 28.8251071258744  60.5701256356959 47.8591913731865  60.5701256356959 47.8591913731865  C 60.5701256356959 47.8591913731865  60.5625550107179 70.737831822331  60.5625550107179 70.737831822331  C 60.5625550107179 70.737831822331  54.2461302374357 73.9659357246485  54.2461302374357 73.9659357246485  C 54.2461302374357 73.9659357246485  50.445676498497 74.428511499089  50.445676498497 74.428511499089  C 50.445676498497 74.428511499089  44.1633392197793 73.2333586398053  44.1633392197793 73.2333586398053  C 44.1633392197793 73.2333586398053  40.9887238123524 72.772768169118  40.9887238123524 72.772768169118  C 40.9887238123524 72.772768169118  39.7950886074935 70.0767256725944  39.7950886074935 70.0767256725944  C 39.7950886074935 70.0767256725944  37.0015279906242 68.3554673187754  37.0015279906242 68.3554673187754  Z " fill-rule="evenodd" />
    </mask>
  </defs>
  <g transform="matrix(1 0 0 1 -1922 -4437 )">
    <path d="M 37.0015279906242 68.3554673187754  C 37.0015279906242 68.3554673187754  33.6124115421551 71.4664382996682  33.6124115421551 71.4664382996682  C 33.6124115421551 71.4664382996682  28.3533507241286 66.719577026334  28.3533507241286 66.719577026334  C 28.3533507241286 66.719577026334  25.5850255238526 62.1633049132843  25.5850255238526 62.1633049132843  C 25.5850255238526 62.1633049132843  24.0229532367326 56.1339374155359  24.0229532367326 56.1339374155359  C 24.0229532367326 56.1339374155359  22.2791859501411 51.6809010976398  22.2791859501411 51.6809010976398  C 22.2791859501411 51.6809010976398  19.9070567903786 42.3043114723964  19.9070567903786 42.3043114723964  C 19.9070567903786 42.3043114723964  19.7480736658414 33.6533658530802  19.7480736658414 33.6533658530802  C 19.7480736658414 33.6533658530802  18.8421222101452 30.3895264832092  18.8421222101452 30.3895264832092  C 18.8421222101452 30.3895264832092  16.0914618014844 27.9297351332881  16.0914618014844 27.9297351332881  C 16.0914618014844 27.9297351332881  12.4373734787865 23.0220642559636  12.4373734787865 23.0220642559636  C 12.4373734787865 23.0220642559636  8.72019661460566 15.946441680404  8.72019661460566 15.946441680404  C 8.72019661460566 15.946441680404  7.17326557744136 12.2637032186578  7.17326557744136 12.2637032186578  C 7.17326557744136 12.2637032186578  1.41706705252867 6.56588144765417  1.41706705252867 6.56588144765417  C 1.41706705252867 6.56588144765417  0.988064970443797 2.11085982600554  0.988064970443797 2.11085982600554  C 0.988064970443797 2.11085982600554  4.3923226688688 1.0090162431112  4.3923226688688 1.0090162431112  C 4.3923226688688 1.0090162431112  8.62934911487018 0.0223202778883547  8.62934911487018 0.0223202778883547  C 8.62934911487018 0.0223202778883547  13.2171478515169 0.195041704396405  13.2171478515169 0.195041704396405  C 13.2171478515169 0.195041704396405  17.4339859642435 2.81564265830711  17.4339859642435 2.81564265830711  C 17.4339859642435 2.81564265830711  18.503967627796 2.40667008519685  18.503967627796 2.40667008519685  C 18.503967627796 2.40667008519685  47.1840185859874 2.15652181232363  47.1840185859874 2.15652181232363  C 47.1840185859874 2.15652181232363  53.9205933633831 4.93793237022456  53.9205933633831 4.93793237022456  C 53.9205933633831 4.93793237022456  71.0503941468592 5.75984812395114  71.0503941468592 5.75984812395114  C 71.0503941468592 5.75984812395114  84.0567278590033 3.39336605041937  84.0567278590033 3.39336605041937  C 84.0567278590033 3.39336605041937  89.850779508806 2.07512435845208  89.850779508806 2.07512435845208  C 89.850779508806 2.07512435845208  94.4360547037935 2.40865538894971  94.4360547037935 2.40865538894971  C 94.4360547037935 2.40865538894971  97.2296153206629 3.71697056215236  97.2296153206629 3.71697056215236  C 97.2296153206629 3.71697056215236  97.2826096955086 4.19741407036954  97.2826096955086 4.19741407036954  C 97.2826096955086 4.19741407036954  93.2928903321209 5.50771454732506  93.2928903321209 5.50771454732506  C 93.2928903321209 5.50771454732506  91.1478799216974 5.51962636984255  91.1478799216974 5.51962636984255  C 91.1478799216974 5.51962636984255  86.6307403515115 7.80074038199705  86.6307403515115 7.80074038199705  C 86.6307403515115 7.80074038199705  83.9255036927187 5.40249344841787  83.9255036927187 5.40249344841787  C 83.9255036927187 5.40249344841787  73.0187566411299 7.43941509895773  73.0187566411299 7.43941509895773  C 73.0187566411299 7.43941509895773  67.7496016564662 7.63198956299537  67.7496016564662 7.63198956299537  C 67.7496016564662 7.63198956299537  67.5426712404019 28.6166502318132  67.5426712404019 28.6166502318132  C 67.5426712404019 28.6166502318132  60.5676020940367 28.8251071258744  60.5676020940367 28.8251071258744  C 60.5676020940367 28.8251071258744  60.5701256356959 47.8591913731865  60.5701256356959 47.8591913731865  C 60.5701256356959 47.8591913731865  60.5625550107179 70.737831822331  60.5625550107179 70.737831822331  C 60.5625550107179 70.737831822331  54.2461302374357 73.9659357246485  54.2461302374357 73.9659357246485  C 54.2461302374357 73.9659357246485  50.445676498497 74.428511499089  50.445676498497 74.428511499089  C 50.445676498497 74.428511499089  44.1633392197793 73.2333586398053  44.1633392197793 73.2333586398053  C 44.1633392197793 73.2333586398053  40.9887238123524 72.772768169118  40.9887238123524 72.772768169118  C 40.9887238123524 72.772768169118  39.7950886074935 70.0767256725944  39.7950886074935 70.0767256725944  C 39.7950886074935 70.0767256725944  37.0015279906242 68.3554673187754  37.0015279906242 68.3554673187754  Z " fill-rule="nonzero" fill="#f2f2f2" stroke="none" transform="matrix(1 0 0 1 1922 4437 )" />
    <path d="M 37.0015279906242 68.3554673187754  C 37.0015279906242 68.3554673187754  33.6124115421551 71.4664382996682  33.6124115421551 71.4664382996682  C 33.6124115421551 71.4664382996682  28.3533507241286 66.719577026334  28.3533507241286 66.719577026334  C 28.3533507241286 66.719577026334  25.5850255238526 62.1633049132843  25.5850255238526 62.1633049132843  C 25.5850255238526 62.1633049132843  24.0229532367326 56.1339374155359  24.0229532367326 56.1339374155359  C 24.0229532367326 56.1339374155359  22.2791859501411 51.6809010976398  22.2791859501411 51.6809010976398  C 22.2791859501411 51.6809010976398  19.9070567903786 42.3043114723964  19.9070567903786 42.3043114723964  C 19.9070567903786 42.3043114723964  19.7480736658414 33.6533658530802  19.7480736658414 33.6533658530802  C 19.7480736658414 33.6533658530802  18.8421222101452 30.3895264832092  18.8421222101452 30.3895264832092  C 18.8421222101452 30.3895264832092  16.0914618014844 27.9297351332881  16.0914618014844 27.9297351332881  C 16.0914618014844 27.9297351332881  12.4373734787865 23.0220642559636  12.4373734787865 23.0220642559636  C 12.4373734787865 23.0220642559636  8.72019661460566 15.946441680404  8.72019661460566 15.946441680404  C 8.72019661460566 15.946441680404  7.17326557744136 12.2637032186578  7.17326557744136 12.2637032186578  C 7.17326557744136 12.2637032186578  1.41706705252867 6.56588144765417  1.41706705252867 6.56588144765417  C 1.41706705252867 6.56588144765417  0.988064970443797 2.11085982600554  0.988064970443797 2.11085982600554  C 0.988064970443797 2.11085982600554  4.3923226688688 1.0090162431112  4.3923226688688 1.0090162431112  C 4.3923226688688 1.0090162431112  8.62934911487018 0.0223202778883547  8.62934911487018 0.0223202778883547  C 8.62934911487018 0.0223202778883547  13.2171478515169 0.195041704396405  13.2171478515169 0.195041704396405  C 13.2171478515169 0.195041704396405  17.4339859642435 2.81564265830711  17.4339859642435 2.81564265830711  C 17.4339859642435 2.81564265830711  18.503967627796 2.40667008519685  18.503967627796 2.40667008519685  C 18.503967627796 2.40667008519685  47.1840185859874 2.15652181232363  47.1840185859874 2.15652181232363  C 47.1840185859874 2.15652181232363  53.9205933633831 4.93793237022456  53.9205933633831 4.93793237022456  C 53.9205933633831 4.93793237022456  71.0503941468592 5.75984812395114  71.0503941468592 5.75984812395114  C 71.0503941468592 5.75984812395114  84.0567278590033 3.39336605041937  84.0567278590033 3.39336605041937  C 84.0567278590033 3.39336605041937  89.850779508806 2.07512435845208  89.850779508806 2.07512435845208  C 89.850779508806 2.07512435845208  94.4360547037935 2.40865538894971  94.4360547037935 2.40865538894971  C 94.4360547037935 2.40865538894971  97.2296153206629 3.71697056215236  97.2296153206629 3.71697056215236  C 97.2296153206629 3.71697056215236  97.2826096955086 4.19741407036954  97.2826096955086 4.19741407036954  C 97.2826096955086 4.19741407036954  93.2928903321209 5.50771454732506  93.2928903321209 5.50771454732506  C 93.2928903321209 5.50771454732506  91.1478799216974 5.51962636984255  91.1478799216974 5.51962636984255  C 91.1478799216974 5.51962636984255  86.6307403515115 7.80074038199705  86.6307403515115 7.80074038199705  C 86.6307403515115 7.80074038199705  83.9255036927187 5.40249344841787  83.9255036927187 5.40249344841787  C 83.9255036927187 5.40249344841787  73.0187566411299 7.43941509895773  73.0187566411299 7.43941509895773  C 73.0187566411299 7.43941509895773  67.7496016564662 7.63198956299537  67.7496016564662 7.63198956299537  C 67.7496016564662 7.63198956299537  67.5426712404019 28.6166502318132  67.5426712404019 28.6166502318132  C 67.5426712404019 28.6166502318132  60.5676020940367 28.8251071258744  60.5676020940367 28.8251071258744  C 60.5676020940367 28.8251071258744  60.5701256356959 47.8591913731865  60.5701256356959 47.8591913731865  C 60.5701256356959 47.8591913731865  60.5625550107179 70.737831822331  60.5625550107179 70.737831822331  C 60.5625550107179 70.737831822331  54.2461302374357 73.9659357246485  54.2461302374357 73.9659357246485  C 54.2461302374357 73.9659357246485  50.445676498497 74.428511499089  50.445676498497 74.428511499089  C 50.445676498497 74.428511499089  44.1633392197793 73.2333586398053  44.1633392197793 73.2333586398053  C 44.1633392197793 73.2333586398053  40.9887238123524 72.772768169118  40.9887238123524 72.772768169118  C 40.9887238123524 72.772768169118  39.7950886074935 70.0767256725944  39.7950886074935 70.0767256725944  C 39.7950886074935 70.0767256725944  37.0015279906242 68.3554673187754  37.0015279906242 68.3554673187754  Z " stroke-width="2" stroke="#505050" fill="none" stroke-opacity="0.211764705882353" transform="matrix(1 0 0 1 1922 4437 )" mask="url(#clip178)" />
  </g>
</svg>