<?xml version="1.0" encoding="utf-8"?>
<svg version="1.1" xmlns:xlink="http://www.w3.org/1999/xlink" width="26px" height="18px" xmlns="http://www.w3.org/2000/svg">
  <defs>
    <mask fill="white" id="clip179">
      <path d="M 10.8365386624471 5.49490347523374  C 10.8365386624471 5.49490347523374  14.9841396947422 7.22100597020983  14.9841396947422 7.22100597020983  C 14.9841396947422 7.22100597020983  20.8636640282784 12.5531186863288  20.8636640282784 12.5531186863288  C 20.8636640282784 12.5531186863288  24.5907711927551 15.4065560643876  24.5907711927551 15.4065560643876  C 24.5907711927551 15.4065560643876  21.8682957948351 16.8993456623156  21.8682957948351 16.8993456623156  C 21.8682957948351 16.8993456623156  17.9239018615101 15.218666917207  17.9239018615101 15.218666917207  C 17.9239018615101 15.218666917207  10.9387912595523 12.4271710162409  10.9387912595523 12.4271710162409  C 10.9387912595523 12.4271710162409  6.31697387040673 7.65046687805045  6.31697387040673 7.65046687805045  C 6.31697387040673 7.65046687805045  1.57500967966306 3.31043404977333  1.57500967966306 3.31043404977333  C 1.57500967966306 3.31043404977333  0.583159487744751 1.23126513537045  0.583159487744751 1.23126513537045  C 0.583159487744751 1.23126513537045  3.66607529046028 1.31798320329983  3.66607529046028 1.31798320329983  C 3.66607529046028 1.31798320329983  7.68204604175841 3.40541098131496  7.68204604175841 3.40541098131496  C 7.68204604175841 3.40541098131496  10.8365386624471 5.49490347523374  10.8365386624471 5.49490347523374  Z " fill-rule="evenodd" />
    </mask>
  </defs>
  <g transform="matrix(1 0 0 1 -3007 -4454 )">
    <path d="M 10.8365386624471 5.49490347523374  C 10.8365386624471 5.49490347523374  14.9841396947422 7.22100597020983  14.9841396947422 7.22100597020983  C 14.9841396947422 7.22100597020983  20.8636640282784 12.5531186863288  20.8636640282784 12.5531186863288  C 20.8636640282784 12.5531186863288  24.5907711927551 15.4065560643876  24.5907711927551 15.4065560643876  C 24.5907711927551 15.4065560643876  21.8682957948351 16.8993456623156  21.8682957948351 16.8993456623156  C 21.8682957948351 16.8993456623156  17.9239018615101 15.218666917207  17.9239018615101 15.218666917207  C 17.9239018615101 15.218666917207  10.9387912595523 12.4271710162409  10.9387912595523 12.4271710162409  C 10.9387912595523 12.4271710162409  6.31697387040673 7.65046687805045  6.31697387040673 7.65046687805045  C 6.31697387040673 7.65046687805045  1.57500967966306 3.31043404977333  1.57500967966306 3.31043404977333  C 1.57500967966306 3.31043404977333  0.583159487744751 1.23126513537045  0.583159487744751 1.23126513537045  C 0.583159487744751 1.23126513537045  3.66607529046028 1.31798320329983  3.66607529046028 1.31798320329983  C 3.66607529046028 1.31798320329983  7.68204604175841 3.40541098131496  7.68204604175841 3.40541098131496  C 7.68204604175841 3.40541098131496  10.8365386624471 5.49490347523374  10.8365386624471 5.49490347523374  Z " fill-rule="nonzero" fill="#f2f2f2" stroke="none" transform="matrix(1 0 0 1 3007 4454 )" />
    <path d="M 10.8365386624471 5.49490347523374  C 10.8365386624471 5.49490347523374  14.9841396947422 7.22100597020983  14.9841396947422 7.22100597020983  C 14.9841396947422 7.22100597020983  20.8636640282784 12.5531186863288  20.8636640282784 12.5531186863288  C 20.8636640282784 12.5531186863288  24.5907711927551 15.4065560643876  24.5907711927551 15.4065560643876  C 24.5907711927551 15.4065560643876  21.8682957948351 16.8993456623156  21.8682957948351 16.8993456623156  C 21.8682957948351 16.8993456623156  17.9239018615101 15.218666917207  17.9239018615101 15.218666917207  C 17.9239018615101 15.218666917207  10.9387912595523 12.4271710162409  10.9387912595523 12.4271710162409  C 10.9387912595523 12.4271710162409  6.31697387040673 7.65046687805045  6.31697387040673 7.65046687805045  C 6.31697387040673 7.65046687805045  1.57500967966306 3.31043404977333  1.57500967966306 3.31043404977333  C 1.57500967966306 3.31043404977333  0.583159487744751 1.23126513537045  0.583159487744751 1.23126513537045  C 0.583159487744751 1.23126513537045  3.66607529046028 1.31798320329983  3.66607529046028 1.31798320329983  C 3.66607529046028 1.31798320329983  7.68204604175841 3.40541098131496  7.68204604175841 3.40541098131496  C 7.68204604175841 3.40541098131496  10.8365386624471 5.49490347523374  10.8365386624471 5.49490347523374  Z " stroke-width="2" stroke="#505050" fill="none" stroke-opacity="0.211764705882353" transform="matrix(1 0 0 1 3007 4454 )" mask="url(#clip179)" />
  </g>
</svg>