<?xml version="1.0" encoding="utf-8"?>
<svg version="1.1" xmlns:xlink="http://www.w3.org/1999/xlink" width="114px" height="72px" xmlns="http://www.w3.org/2000/svg">
  <defs>
    <mask fill="white" id="clip180">
      <path d="M 16.2947006928138 67.4319594034743  C 16.2947006928138 67.4319594034743  13.9130842004786 69.0850535441173  13.9130842004786 69.0850535441173  C 13.9130842004786 69.0850535441173  14.0725335511877 65.215941119015  14.0725335511877 65.215941119015  C 14.0725335511877 65.215941119015  5.89252876561188 63.9315226500259  5.89252876561188 63.9315226500259  C 5.89252876561188 63.9315226500259  5.6698058630341 61.1862763852889  5.6698058630341 61.1862763852889  C 5.6698058630341 61.1862763852889  1.67344832701194 57.4757341415433  1.67344832701194 57.4757341415433  C 1.67344832701194 57.4757341415433  0.721814106907774 54.881129549095  0.721814106907774 54.881129549095  C 0.721814106907774 54.881129549095  1.28368324750124 52.1140798844213  1.28368324750124 52.1140798844213  C 1.28368324750124 52.1140798844213  5.831786155818 51.8881173759882  5.831786155818 51.8881173759882  C 5.831786155818 51.8881173759882  8.45637308732846 49.8564369273561  8.45637308732846 49.8564369273561  C 8.45637308732846 49.8564369273561  18.137226523228 49.3648693651506  18.137226523228 49.3648693651506  C 18.137226523228 49.3648693651506  24.4418032314177 48.4550729496166  24.4418032314177 48.4550729496166  C 24.4418032314177 48.4550729496166  25.0466983872817 44.9169757780963  25.0466983872817 44.9169757780963  C 25.0466983872817 44.9169757780963  28.9266325878658 41.0696667529304  28.9266325878658 41.0696667529304  C 28.9266325878658 41.0696667529304  28.9063850512678 26.2503077009631  28.9063850512678 26.2503077009631  C 28.9063850512678 26.2503077009631  38.9137300148096 23.6398460903789  38.9137300148096 23.6398460903789  C 38.9137300148096 23.6398460903789  61.2986274550084 12.0444015786739  61.2986274550084 12.0444015786739  C 61.2986274550084 12.0444015786739  85.6159189091581 0.643205539130358  85.6159189091581 0.643205539130358  C 85.6159189091581 0.643205539130358  96.8406470106519 3.23582800431188  96.8406470106519 3.23582800431188  C 96.8406470106519 3.23582800431188  100.831942662525 6.52814139472925  100.831942662525 6.52814139472925  C 100.831942662525 6.52814139472925  105.853331738819 4.3022124739354  105.853331738819 4.3022124739354  C 105.853331738819 4.3022124739354  107.597150828318 13.5726217014985  107.597150828318 13.5726217014985  C 107.597150828318 13.5726217014985  110.252109064726 15.1127345879251  110.252109064726 15.1127345879251  C 110.252109064726 15.1127345879251  110.366001458089 16.9937733642683  110.366001458089 16.9937733642683  C 110.366001458089 16.9937733642683  113.317079917242 19.0155431765656  113.317079917242 19.0155431765656  C 113.317079917242 19.0155431765656  111.773205251647 21.5487018237381  111.773205251647 21.5487018237381  C 111.773205251647 21.5487018237381  109.039787810923 33.4018228801481  109.039787810923 33.4018228801481  C 109.039787810923 33.4018228801481  108.665208383861 42.365977985521  108.665208383861 42.365977985521  C 108.665208383861 42.365977985521  99.6145595245726 47.7890781879186  99.6145595245726 47.7890781879186  C 99.6145595245726 47.7890781879186  96.5495886720562 55.3211618023596  96.5495886720562 55.3211618023596  C 96.5495886720562 55.3211618023596  99.5057290153585 57.4301452144033  99.5057290153585 57.4301452144033  C 99.5057290153585 57.4301452144033  99.4880124208354 61.0871700219409  99.4880124208354 61.0871700219409  C 99.4880124208354 61.0871700219409  104.038646271227 61.2179904215602  104.038646271227 61.2179904215602  C 104.038646271227 61.2179904215602  103.329982490298 63.8879158501528  103.329982490298 63.8879158501528  C 103.329982490298 63.8879158501528  101.3254763671 64.2129847219342  101.3254763671 64.2129847219342  C 101.3254763671 64.2129847219342  101.097691580373 66.0147384075989  101.097691580373 66.0147384075989  C 101.097691580373 66.0147384075989  99.7790707594311 66.1396124254174  99.7790707594311 66.1396124254174  C 99.7790707594311 66.1396124254174  94.9778736436397 59.9355540798383  94.9778736436397 59.9355540798383  C 94.9778736436397 59.9355540798383  93.3099828163829 59.7076094441381  93.3099828163829 59.7076094441381  C 93.3099828163829 59.7076094441381  87.7621577885418 62.8809951985382  87.7621577885418 62.8809951985382  C 87.7621577885418 62.8809951985382  82.2674825442703 61.225918930628  82.2674825442703 61.225918930628  C 82.2674825442703 61.225918930628  78.4482909534801 60.894903677046  78.4482909534801 60.894903677046  C 78.4482909534801 60.894903677046  76.4007588150117 61.6917188383634  76.4007588150117 61.6917188383634  C 76.4007588150117 61.6917188383634  72.2398900441308 61.5192737661377  72.2398900441308 61.5192737661377  C 72.2398900441308 61.5192737661377  68.0537118525027 63.9354869045599  68.0537118525027 63.9354869045599  C 68.0537118525027 63.9354869045599  64.4344646856173 64.0722536859802  64.4344646856173 64.0722536859802  C 64.4344646856173 64.0722536859802  54.0082685485885 61.1426695854158  54.0082685485885 61.1426695854158  C 54.0082685485885 61.1426695854158  50.6446465312524 62.5361050540872  50.6446465312524 62.5361050540872  C 50.6446465312524 62.5361050540872  47.0228684222922 62.4389808180064  47.0228684222922 62.4389808180064  C 47.0228684222922 62.4389808180064  44.3628483017353 60.2963012424247  44.3628483017353 60.2963012424247  C 44.3628483017353 60.2963012424247  37.2509010717019 58.1754250667795  37.2509010717019 58.1754250667795  C 37.2509010717019 58.1754250667795  29.6226416584205 58.8493483375452  29.6226416584205 58.8493483375452  C 29.6226416584205 58.8493483375452  27.7750539438568 60.0782672430591  27.7750539438568 60.0782672430591  C 27.7750539438568 60.0782672430591  26.7753318243325 63.3408487244723  26.7753318243325 63.3408487244723  C 26.7753318243325 63.3408487244723  24.7429853383123 65.6242593360083  24.7429853383123 65.6242593360083  C 24.7429853383123 65.6242593360083  24.249451633737 70.6648089758827  24.249451633737 70.6648089758827  C 24.249451633737 70.6648089758827  18.8382974779324 67.4161023853384  18.8382974779324 67.4161023853384  C 18.8382974779324 67.4161023853384  16.2947006928138 67.4319594034743  16.2947006928138 67.4319594034743  Z " fill-rule="evenodd" />
    </mask>
  </defs>
  <g transform="matrix(1 0 0 1 -1841 -4207 )">
    <path d="M 16.2947006928138 67.4319594034743  C 16.2947006928138 67.4319594034743  13.9130842004786 69.0850535441173  13.9130842004786 69.0850535441173  C 13.9130842004786 69.0850535441173  14.0725335511877 65.215941119015  14.0725335511877 65.215941119015  C 14.0725335511877 65.215941119015  5.89252876561188 63.9315226500259  5.89252876561188 63.9315226500259  C 5.89252876561188 63.9315226500259  5.6698058630341 61.1862763852889  5.6698058630341 61.1862763852889  C 5.6698058630341 61.1862763852889  1.67344832701194 57.4757341415433  1.67344832701194 57.4757341415433  C 1.67344832701194 57.4757341415433  0.721814106907774 54.881129549095  0.721814106907774 54.881129549095  C 0.721814106907774 54.881129549095  1.28368324750124 52.1140798844213  1.28368324750124 52.1140798844213  C 1.28368324750124 52.1140798844213  5.831786155818 51.8881173759882  5.831786155818 51.8881173759882  C 5.831786155818 51.8881173759882  8.45637308732846 49.8564369273561  8.45637308732846 49.8564369273561  C 8.45637308732846 49.8564369273561  18.137226523228 49.3648693651506  18.137226523228 49.3648693651506  C 18.137226523228 49.3648693651506  24.4418032314177 48.4550729496166  24.4418032314177 48.4550729496166  C 24.4418032314177 48.4550729496166  25.0466983872817 44.9169757780963  25.0466983872817 44.9169757780963  C 25.0466983872817 44.9169757780963  28.9266325878658 41.0696667529304  28.9266325878658 41.0696667529304  C 28.9266325878658 41.0696667529304  28.9063850512678 26.2503077009631  28.9063850512678 26.2503077009631  C 28.9063850512678 26.2503077009631  38.9137300148096 23.6398460903789  38.9137300148096 23.6398460903789  C 38.9137300148096 23.6398460903789  61.2986274550084 12.0444015786739  61.2986274550084 12.0444015786739  C 61.2986274550084 12.0444015786739  85.6159189091581 0.643205539130358  85.6159189091581 0.643205539130358  C 85.6159189091581 0.643205539130358  96.8406470106519 3.23582800431188  96.8406470106519 3.23582800431188  C 96.8406470106519 3.23582800431188  100.831942662525 6.52814139472925  100.831942662525 6.52814139472925  C 100.831942662525 6.52814139472925  105.853331738819 4.3022124739354  105.853331738819 4.3022124739354  C 105.853331738819 4.3022124739354  107.597150828318 13.5726217014985  107.597150828318 13.5726217014985  C 107.597150828318 13.5726217014985  110.252109064726 15.1127345879251  110.252109064726 15.1127345879251  C 110.252109064726 15.1127345879251  110.366001458089 16.9937733642683  110.366001458089 16.9937733642683  C 110.366001458089 16.9937733642683  113.317079917242 19.0155431765656  113.317079917242 19.0155431765656  C 113.317079917242 19.0155431765656  111.773205251647 21.5487018237381  111.773205251647 21.5487018237381  C 111.773205251647 21.5487018237381  109.039787810923 33.4018228801481  109.039787810923 33.4018228801481  C 109.039787810923 33.4018228801481  108.665208383861 42.365977985521  108.665208383861 42.365977985521  C 108.665208383861 42.365977985521  99.6145595245726 47.7890781879186  99.6145595245726 47.7890781879186  C 99.6145595245726 47.7890781879186  96.5495886720562 55.3211618023596  96.5495886720562 55.3211618023596  C 96.5495886720562 55.3211618023596  99.5057290153585 57.4301452144033  99.5057290153585 57.4301452144033  C 99.5057290153585 57.4301452144033  99.4880124208354 61.0871700219409  99.4880124208354 61.0871700219409  C 99.4880124208354 61.0871700219409  104.038646271227 61.2179904215602  104.038646271227 61.2179904215602  C 104.038646271227 61.2179904215602  103.329982490298 63.8879158501528  103.329982490298 63.8879158501528  C 103.329982490298 63.8879158501528  101.3254763671 64.2129847219342  101.3254763671 64.2129847219342  C 101.3254763671 64.2129847219342  101.097691580373 66.0147384075989  101.097691580373 66.0147384075989  C 101.097691580373 66.0147384075989  99.7790707594311 66.1396124254174  99.7790707594311 66.1396124254174  C 99.7790707594311 66.1396124254174  94.9778736436397 59.9355540798383  94.9778736436397 59.9355540798383  C 94.9778736436397 59.9355540798383  93.3099828163829 59.7076094441381  93.3099828163829 59.7076094441381  C 93.3099828163829 59.7076094441381  87.7621577885418 62.8809951985382  87.7621577885418 62.8809951985382  C 87.7621577885418 62.8809951985382  82.2674825442703 61.225918930628  82.2674825442703 61.225918930628  C 82.2674825442703 61.225918930628  78.4482909534801 60.894903677046  78.4482909534801 60.894903677046  C 78.4482909534801 60.894903677046  76.4007588150117 61.6917188383634  76.4007588150117 61.6917188383634  C 76.4007588150117 61.6917188383634  72.2398900441308 61.5192737661377  72.2398900441308 61.5192737661377  C 72.2398900441308 61.5192737661377  68.0537118525027 63.9354869045599  68.0537118525027 63.9354869045599  C 68.0537118525027 63.9354869045599  64.4344646856173 64.0722536859802  64.4344646856173 64.0722536859802  C 64.4344646856173 64.0722536859802  54.0082685485885 61.1426695854158  54.0082685485885 61.1426695854158  C 54.0082685485885 61.1426695854158  50.6446465312524 62.5361050540872  50.6446465312524 62.5361050540872  C 50.6446465312524 62.5361050540872  47.0228684222922 62.4389808180064  47.0228684222922 62.4389808180064  C 47.0228684222922 62.4389808180064  44.3628483017353 60.2963012424247  44.3628483017353 60.2963012424247  C 44.3628483017353 60.2963012424247  37.2509010717019 58.1754250667795  37.2509010717019 58.1754250667795  C 37.2509010717019 58.1754250667795  29.6226416584205 58.8493483375452  29.6226416584205 58.8493483375452  C 29.6226416584205 58.8493483375452  27.7750539438568 60.0782672430591  27.7750539438568 60.0782672430591  C 27.7750539438568 60.0782672430591  26.7753318243325 63.3408487244723  26.7753318243325 63.3408487244723  C 26.7753318243325 63.3408487244723  24.7429853383123 65.6242593360083  24.7429853383123 65.6242593360083  C 24.7429853383123 65.6242593360083  24.249451633737 70.6648089758827  24.249451633737 70.6648089758827  C 24.249451633737 70.6648089758827  18.8382974779324 67.4161023853384  18.8382974779324 67.4161023853384  C 18.8382974779324 67.4161023853384  16.2947006928138 67.4319594034743  16.2947006928138 67.4319594034743  Z " fill-rule="nonzero" fill="#f2f2f2" stroke="none" transform="matrix(1 0 0 1 1841 4207 )" />
    <path d="M 16.2947006928138 67.4319594034743  C 16.2947006928138 67.4319594034743  13.9130842004786 69.0850535441173  13.9130842004786 69.0850535441173  C 13.9130842004786 69.0850535441173  14.0725335511877 65.215941119015  14.0725335511877 65.215941119015  C 14.0725335511877 65.215941119015  5.89252876561188 63.9315226500259  5.89252876561188 63.9315226500259  C 5.89252876561188 63.9315226500259  5.6698058630341 61.1862763852889  5.6698058630341 61.1862763852889  C 5.6698058630341 61.1862763852889  1.67344832701194 57.4757341415433  1.67344832701194 57.4757341415433  C 1.67344832701194 57.4757341415433  0.721814106907774 54.881129549095  0.721814106907774 54.881129549095  C 0.721814106907774 54.881129549095  1.28368324750124 52.1140798844213  1.28368324750124 52.1140798844213  C 1.28368324750124 52.1140798844213  5.831786155818 51.8881173759882  5.831786155818 51.8881173759882  C 5.831786155818 51.8881173759882  8.45637308732846 49.8564369273561  8.45637308732846 49.8564369273561  C 8.45637308732846 49.8564369273561  18.137226523228 49.3648693651506  18.137226523228 49.3648693651506  C 18.137226523228 49.3648693651506  24.4418032314177 48.4550729496166  24.4418032314177 48.4550729496166  C 24.4418032314177 48.4550729496166  25.0466983872817 44.9169757780963  25.0466983872817 44.9169757780963  C 25.0466983872817 44.9169757780963  28.9266325878658 41.0696667529304  28.9266325878658 41.0696667529304  C 28.9266325878658 41.0696667529304  28.9063850512678 26.2503077009631  28.9063850512678 26.2503077009631  C 28.9063850512678 26.2503077009631  38.9137300148096 23.6398460903789  38.9137300148096 23.6398460903789  C 38.9137300148096 23.6398460903789  61.2986274550084 12.0444015786739  61.2986274550084 12.0444015786739  C 61.2986274550084 12.0444015786739  85.6159189091581 0.643205539130358  85.6159189091581 0.643205539130358  C 85.6159189091581 0.643205539130358  96.8406470106519 3.23582800431188  96.8406470106519 3.23582800431188  C 96.8406470106519 3.23582800431188  100.831942662525 6.52814139472925  100.831942662525 6.52814139472925  C 100.831942662525 6.52814139472925  105.853331738819 4.3022124739354  105.853331738819 4.3022124739354  C 105.853331738819 4.3022124739354  107.597150828318 13.5726217014985  107.597150828318 13.5726217014985  C 107.597150828318 13.5726217014985  110.252109064726 15.1127345879251  110.252109064726 15.1127345879251  C 110.252109064726 15.1127345879251  110.366001458089 16.9937733642683  110.366001458089 16.9937733642683  C 110.366001458089 16.9937733642683  113.317079917242 19.0155431765656  113.317079917242 19.0155431765656  C 113.317079917242 19.0155431765656  111.773205251647 21.5487018237381  111.773205251647 21.5487018237381  C 111.773205251647 21.5487018237381  109.039787810923 33.4018228801481  109.039787810923 33.4018228801481  C 109.039787810923 33.4018228801481  108.665208383861 42.365977985521  108.665208383861 42.365977985521  C 108.665208383861 42.365977985521  99.6145595245726 47.7890781879186  99.6145595245726 47.7890781879186  C 99.6145595245726 47.7890781879186  96.5495886720562 55.3211618023596  96.5495886720562 55.3211618023596  C 96.5495886720562 55.3211618023596  99.5057290153585 57.4301452144033  99.5057290153585 57.4301452144033  C 99.5057290153585 57.4301452144033  99.4880124208354 61.0871700219409  99.4880124208354 61.0871700219409  C 99.4880124208354 61.0871700219409  104.038646271227 61.2179904215602  104.038646271227 61.2179904215602  C 104.038646271227 61.2179904215602  103.329982490298 63.8879158501528  103.329982490298 63.8879158501528  C 103.329982490298 63.8879158501528  101.3254763671 64.2129847219342  101.3254763671 64.2129847219342  C 101.3254763671 64.2129847219342  101.097691580373 66.0147384075989  101.097691580373 66.0147384075989  C 101.097691580373 66.0147384075989  99.7790707594311 66.1396124254174  99.7790707594311 66.1396124254174  C 99.7790707594311 66.1396124254174  94.9778736436397 59.9355540798383  94.9778736436397 59.9355540798383  C 94.9778736436397 59.9355540798383  93.3099828163829 59.7076094441381  93.3099828163829 59.7076094441381  C 93.3099828163829 59.7076094441381  87.7621577885418 62.8809951985382  87.7621577885418 62.8809951985382  C 87.7621577885418 62.8809951985382  82.2674825442703 61.225918930628  82.2674825442703 61.225918930628  C 82.2674825442703 61.225918930628  78.4482909534801 60.894903677046  78.4482909534801 60.894903677046  C 78.4482909534801 60.894903677046  76.4007588150117 61.6917188383634  76.4007588150117 61.6917188383634  C 76.4007588150117 61.6917188383634  72.2398900441308 61.5192737661377  72.2398900441308 61.5192737661377  C 72.2398900441308 61.5192737661377  68.0537118525027 63.9354869045599  68.0537118525027 63.9354869045599  C 68.0537118525027 63.9354869045599  64.4344646856173 64.0722536859802  64.4344646856173 64.0722536859802  C 64.4344646856173 64.0722536859802  54.0082685485885 61.1426695854158  54.0082685485885 61.1426695854158  C 54.0082685485885 61.1426695854158  50.6446465312524 62.5361050540872  50.6446465312524 62.5361050540872  C 50.6446465312524 62.5361050540872  47.0228684222922 62.4389808180064  47.0228684222922 62.4389808180064  C 47.0228684222922 62.4389808180064  44.3628483017353 60.2963012424247  44.3628483017353 60.2963012424247  C 44.3628483017353 60.2963012424247  37.2509010717019 58.1754250667795  37.2509010717019 58.1754250667795  C 37.2509010717019 58.1754250667795  29.6226416584205 58.8493483375452  29.6226416584205 58.8493483375452  C 29.6226416584205 58.8493483375452  27.7750539438568 60.0782672430591  27.7750539438568 60.0782672430591  C 27.7750539438568 60.0782672430591  26.7753318243325 63.3408487244723  26.7753318243325 63.3408487244723  C 26.7753318243325 63.3408487244723  24.7429853383123 65.6242593360083  24.7429853383123 65.6242593360083  C 24.7429853383123 65.6242593360083  24.249451633737 70.6648089758827  24.249451633737 70.6648089758827  C 24.249451633737 70.6648089758827  18.8382974779324 67.4161023853384  18.8382974779324 67.4161023853384  C 18.8382974779324 67.4161023853384  16.2947006928138 67.4319594034743  16.2947006928138 67.4319594034743  Z " stroke-width="2" stroke="#505050" fill="none" stroke-opacity="0.211764705882353" transform="matrix(1 0 0 1 1841 4207 )" mask="url(#clip180)" />
  </g>
</svg>