<?xml version="1.0" encoding="utf-8"?>
<svg version="1.1" xmlns:xlink="http://www.w3.org/1999/xlink" width="69px" height="71px" xmlns="http://www.w3.org/2000/svg">
  <defs>
    <mask fill="white" id="clip25">
      <path d="M 24.381778141701 1.74068283188761  C 24.381778141701 1.74068283188761  28.9868758494278 0.262767615873875  28.9868758494278 0.262767615873875  C 28.9868758494278 0.262767615873875  29.1152230542139 4.00243162400596  29.1152230542139 4.00243162400596  C 29.1152230542139 4.00243162400596  38.2548074863573 6.24024656647235  38.2548074863573 6.24024656647235  C 38.2548074863573 6.24024656647235  38.1777991634856 9.62489180476578  38.1777991634856 9.62489180476578  C 38.1777991634856 9.62489180476578  45.4935898362956 7.83783103074632  45.4935898362956 7.83783103074632  C 45.4935898362956 7.83783103074632  49.5416606752507 5.21707449384726  49.5416606752507 5.21707449384726  C 49.5416606752507 5.21707449384726  57.6686056823094 8.99064478898648  57.6686056823094 8.99064478898648  C 57.6686056823094 8.99064478898648  61.0646727209507 12.0083043326153  61.0646727209507 12.0083043326153  C 61.0646727209507 12.0083043326153  62.748588047745 16.7811128507274  62.748588047745 16.7811128507274  C 62.748588047745 16.7811128507274  60.7412377648896 19.2622552646563  60.7412377648896 19.2622552646563  C 60.7412377648896 19.2622552646563  63.3543868543355 22.5511651043416  63.3543868543355 22.5511651043416  C 63.3543868543355 22.5511651043416  65.1358460567671 27.43566492083  65.1358460567671 27.43566492083  C 65.1358460567671 27.43566492083  64.5736852998036 30.5530488380089  64.5736852998036 30.5530488380089  C 64.5736852998036 30.5530488380089  67.5231040657893 37.7142405468005  67.5231040657893 37.7142405468005  C 67.5231040657893 37.7142405468005  64.31185700204 38.6396827333463  64.31185700204 38.6396827333463  C 64.31185700204 38.6396827333463  62.4148853153011 37.6204996356634  62.4148853153011 37.6204996356634  C 62.4148853153011 37.6204996356634  60.6103236160077 39.3078360361326  60.6103236160077 39.3078360361326  C 60.6103236160077 39.3078360361326  55.4404982072217 41.0191062862538  55.4404982072217 41.0191062862538  C 55.4404982072217 41.0191062862538  52.7683094035744 43.209053529416  52.7683094035744 43.209053529416  C 52.7683094035744 43.209053529416  47.5368773364911 45.1117945767537  47.5368773364911 45.1117945767537  C 47.5368773364911 45.1117945767537  48.7972468874911 47.6966503391746  48.7972468874911 47.6966503391746  C 48.7972468874911 47.6966503391746  49.5596292839207 51.3365899737565  49.5596292839207 51.3365899737565  C 49.5596292839207 51.3365899737565  53.2329262849 53.3968955313035  53.2329262849 53.3968955313035  C 53.2329262849 53.3968955313035  57.2963987884297 57.0587745280666  57.2963987884297 57.0587745280666  C 57.2963987884297 57.0587745280666  54.7576910777596 60.9500195839951  54.7576910777596 60.9500195839951  C 54.7576910777596 60.9500195839951  52.1727783733664 62.0150758935111  52.1727783733664 62.0150758935111  C 52.1727783733664 62.0150758935111  53.1918551793687 67.4400818146414  53.1918551793687 67.4400818146414  C 53.1918551793687 67.4400818146414  52.521882770385 68.8442009942281  52.521882770385 68.8442009942281  C 52.521882770385 68.8442009942281  50.2783736307231 67.1508811313459  50.2783736307231 67.1508811313459  C 50.2783736307231 67.1508811313459  46.825833821976 66.8975812225284  46.825833821976 66.8975812225284  C 46.825833821976 66.8975812225284  41.6816778541472 68.3814799009553  41.6816778541472 68.3814799009553  C 41.6816778541472 68.3814799009553  35.3336251054246 68.0284556185876  35.3336251054246 68.0284556185876  C 35.3336251054246 68.0284556185876  32.4445495463663 70.2044414494528  32.4445495463663 70.2044414494528  C 32.4445495463663 70.2044414494528  28.8020558745358 67.9147698327403  28.8020558745358 67.9147698327403  C 28.8020558745358 67.9147698327403  26.6304211695543 68.3695129761292  26.6304211695543 68.3695129761292  C 26.6304211695543 68.3695129761292  18.9167541619071 65.8385083754253  18.9167541619071 65.8385083754253  C 18.9167541619071 65.8385083754253  17.4381943627706 67.6395305617418  17.4381943627706 67.6395305617418  C 17.4381943627706 67.6395305617418  11.3160326944716 67.5816904250827  11.3160326944716 67.5816904250827  C 11.3160326944716 67.5816904250827  12.2298647925491 61.6480901988463  12.2298647925491 61.6480901988463  C 12.2298647925491 61.6480901988463  15.869791520284 55.8640765329353  15.869791520284 55.8640765329353  C 15.869791520284 55.8640765329353  5.49933737356374 54.2964093807263  5.49933737356374 54.2964093807263  C 5.49933737356374 54.2964093807263  2.10327033492238 52.056599950789  2.10327033492238 52.056599950789  C 2.10327033492238 52.056599950789  2.50884750204667 48.2770461932367  2.50884750204667 48.2770461932367  C 2.50884750204667 48.2770461932367  1.07135880844179 46.31646500924  1.07135880844179 46.31646500924  C 1.07135880844179 46.31646500924  1.88764703088155 40.3968261953007  1.88764703088155 40.3968261953007  C 1.88764703088155 40.3968261953007  0.678616361796089 29.593700364456  0.678616361796089 29.593700364456  C 0.678616361796089 29.593700364456  5.00391716308912 29.5897113895141  5.00391716308912 29.5897113895141  C 5.00391716308912 29.5897113895141  6.8264474710525 26.1771433266265  6.8264474710525 26.1771433266265  C 6.8264474710525 26.1771433266265  8.6207413939627 17.7504337616353  8.6207413939627 17.7504337616353  C 8.6207413939627 17.7504337616353  7.27566268780395 14.5931600950363  7.27566268780395 14.5931600950363  C 7.27566268780395 14.5931600950363  8.68234805226005 12.6026615989745  8.68234805226005 12.6026615989745  C 8.68234805226005 12.6026615989745  14.6966980685388 12.0900783189265  14.6966980685388 12.0900783189265  C 14.6966980685388 12.0900783189265  16.0315089983145 14.1643452887704  16.0315089983145 14.1643452887704  C 16.0315089983145 14.1643452887704  20.9189705565707 9.51120601891857  20.9189705565707 9.51120601891857  C 20.9189705565707 9.51120601891857  19.2735593912126 5.93508998340868  19.2735593912126 5.93508998340868  C 19.2735593912126 5.93508998340868  18.9424236028642 0.460221875503204  18.9424236028642 0.460221875503204  C 18.9424236028642 0.460221875503204  24.381778141701 1.74068283188761  24.381778141701 1.74068283188761  Z " fill-rule="evenodd" />
    </mask>
  </defs>
  <g transform="matrix(1 0 0 1 -1882 -3976 )">
    <path d="M 24.381778141701 1.74068283188761  C 24.381778141701 1.74068283188761  28.9868758494278 0.262767615873875  28.9868758494278 0.262767615873875  C 28.9868758494278 0.262767615873875  29.1152230542139 4.00243162400596  29.1152230542139 4.00243162400596  C 29.1152230542139 4.00243162400596  38.2548074863573 6.24024656647235  38.2548074863573 6.24024656647235  C 38.2548074863573 6.24024656647235  38.1777991634856 9.62489180476578  38.1777991634856 9.62489180476578  C 38.1777991634856 9.62489180476578  45.4935898362956 7.83783103074632  45.4935898362956 7.83783103074632  C 45.4935898362956 7.83783103074632  49.5416606752507 5.21707449384726  49.5416606752507 5.21707449384726  C 49.5416606752507 5.21707449384726  57.6686056823094 8.99064478898648  57.6686056823094 8.99064478898648  C 57.6686056823094 8.99064478898648  61.0646727209507 12.0083043326153  61.0646727209507 12.0083043326153  C 61.0646727209507 12.0083043326153  62.748588047745 16.7811128507274  62.748588047745 16.7811128507274  C 62.748588047745 16.7811128507274  60.7412377648896 19.2622552646563  60.7412377648896 19.2622552646563  C 60.7412377648896 19.2622552646563  63.3543868543355 22.5511651043416  63.3543868543355 22.5511651043416  C 63.3543868543355 22.5511651043416  65.1358460567671 27.43566492083  65.1358460567671 27.43566492083  C 65.1358460567671 27.43566492083  64.5736852998036 30.5530488380089  64.5736852998036 30.5530488380089  C 64.5736852998036 30.5530488380089  67.5231040657893 37.7142405468005  67.5231040657893 37.7142405468005  C 67.5231040657893 37.7142405468005  64.31185700204 38.6396827333463  64.31185700204 38.6396827333463  C 64.31185700204 38.6396827333463  62.4148853153011 37.6204996356634  62.4148853153011 37.6204996356634  C 62.4148853153011 37.6204996356634  60.6103236160077 39.3078360361326  60.6103236160077 39.3078360361326  C 60.6103236160077 39.3078360361326  55.4404982072217 41.0191062862538  55.4404982072217 41.0191062862538  C 55.4404982072217 41.0191062862538  52.7683094035744 43.209053529416  52.7683094035744 43.209053529416  C 52.7683094035744 43.209053529416  47.5368773364911 45.1117945767537  47.5368773364911 45.1117945767537  C 47.5368773364911 45.1117945767537  48.7972468874911 47.6966503391746  48.7972468874911 47.6966503391746  C 48.7972468874911 47.6966503391746  49.5596292839207 51.3365899737565  49.5596292839207 51.3365899737565  C 49.5596292839207 51.3365899737565  53.2329262849 53.3968955313035  53.2329262849 53.3968955313035  C 53.2329262849 53.3968955313035  57.2963987884297 57.0587745280666  57.2963987884297 57.0587745280666  C 57.2963987884297 57.0587745280666  54.7576910777596 60.9500195839951  54.7576910777596 60.9500195839951  C 54.7576910777596 60.9500195839951  52.1727783733664 62.0150758935111  52.1727783733664 62.0150758935111  C 52.1727783733664 62.0150758935111  53.1918551793687 67.4400818146414  53.1918551793687 67.4400818146414  C 53.1918551793687 67.4400818146414  52.521882770385 68.8442009942281  52.521882770385 68.8442009942281  C 52.521882770385 68.8442009942281  50.2783736307231 67.1508811313459  50.2783736307231 67.1508811313459  C 50.2783736307231 67.1508811313459  46.825833821976 66.8975812225284  46.825833821976 66.8975812225284  C 46.825833821976 66.8975812225284  41.6816778541472 68.3814799009553  41.6816778541472 68.3814799009553  C 41.6816778541472 68.3814799009553  35.3336251054246 68.0284556185876  35.3336251054246 68.0284556185876  C 35.3336251054246 68.0284556185876  32.4445495463663 70.2044414494528  32.4445495463663 70.2044414494528  C 32.4445495463663 70.2044414494528  28.8020558745358 67.9147698327403  28.8020558745358 67.9147698327403  C 28.8020558745358 67.9147698327403  26.6304211695543 68.3695129761292  26.6304211695543 68.3695129761292  C 26.6304211695543 68.3695129761292  18.9167541619071 65.8385083754253  18.9167541619071 65.8385083754253  C 18.9167541619071 65.8385083754253  17.4381943627706 67.6395305617418  17.4381943627706 67.6395305617418  C 17.4381943627706 67.6395305617418  11.3160326944716 67.5816904250827  11.3160326944716 67.5816904250827  C 11.3160326944716 67.5816904250827  12.2298647925491 61.6480901988463  12.2298647925491 61.6480901988463  C 12.2298647925491 61.6480901988463  15.869791520284 55.8640765329353  15.869791520284 55.8640765329353  C 15.869791520284 55.8640765329353  5.49933737356374 54.2964093807263  5.49933737356374 54.2964093807263  C 5.49933737356374 54.2964093807263  2.10327033492238 52.056599950789  2.10327033492238 52.056599950789  C 2.10327033492238 52.056599950789  2.50884750204667 48.2770461932367  2.50884750204667 48.2770461932367  C 2.50884750204667 48.2770461932367  1.07135880844179 46.31646500924  1.07135880844179 46.31646500924  C 1.07135880844179 46.31646500924  1.88764703088155 40.3968261953007  1.88764703088155 40.3968261953007  C 1.88764703088155 40.3968261953007  0.678616361796089 29.593700364456  0.678616361796089 29.593700364456  C 0.678616361796089 29.593700364456  5.00391716308912 29.5897113895141  5.00391716308912 29.5897113895141  C 5.00391716308912 29.5897113895141  6.8264474710525 26.1771433266265  6.8264474710525 26.1771433266265  C 6.8264474710525 26.1771433266265  8.6207413939627 17.7504337616353  8.6207413939627 17.7504337616353  C 8.6207413939627 17.7504337616353  7.27566268780395 14.5931600950363  7.27566268780395 14.5931600950363  C 7.27566268780395 14.5931600950363  8.68234805226005 12.6026615989745  8.68234805226005 12.6026615989745  C 8.68234805226005 12.6026615989745  14.6966980685388 12.0900783189265  14.6966980685388 12.0900783189265  C 14.6966980685388 12.0900783189265  16.0315089983145 14.1643452887704  16.0315089983145 14.1643452887704  C 16.0315089983145 14.1643452887704  20.9189705565707 9.51120601891857  20.9189705565707 9.51120601891857  C 20.9189705565707 9.51120601891857  19.2735593912126 5.93508998340868  19.2735593912126 5.93508998340868  C 19.2735593912126 5.93508998340868  18.9424236028642 0.460221875503204  18.9424236028642 0.460221875503204  C 18.9424236028642 0.460221875503204  24.381778141701 1.74068283188761  24.381778141701 1.74068283188761  Z " fill-rule="nonzero" fill="#0984e3" stroke="none" transform="matrix(1 0 0 1 1882 3976 )" />
    <path d="M 24.381778141701 1.74068283188761  C 24.381778141701 1.74068283188761  28.9868758494278 0.262767615873875  28.9868758494278 0.262767615873875  C 28.9868758494278 0.262767615873875  29.1152230542139 4.00243162400596  29.1152230542139 4.00243162400596  C 29.1152230542139 4.00243162400596  38.2548074863573 6.24024656647235  38.2548074863573 6.24024656647235  C 38.2548074863573 6.24024656647235  38.1777991634856 9.62489180476578  38.1777991634856 9.62489180476578  C 38.1777991634856 9.62489180476578  45.4935898362956 7.83783103074632  45.4935898362956 7.83783103074632  C 45.4935898362956 7.83783103074632  49.5416606752507 5.21707449384726  49.5416606752507 5.21707449384726  C 49.5416606752507 5.21707449384726  57.6686056823094 8.99064478898648  57.6686056823094 8.99064478898648  C 57.6686056823094 8.99064478898648  61.0646727209507 12.0083043326153  61.0646727209507 12.0083043326153  C 61.0646727209507 12.0083043326153  62.748588047745 16.7811128507274  62.748588047745 16.7811128507274  C 62.748588047745 16.7811128507274  60.7412377648896 19.2622552646563  60.7412377648896 19.2622552646563  C 60.7412377648896 19.2622552646563  63.3543868543355 22.5511651043416  63.3543868543355 22.5511651043416  C 63.3543868543355 22.5511651043416  65.1358460567671 27.43566492083  65.1358460567671 27.43566492083  C 65.1358460567671 27.43566492083  64.5736852998036 30.5530488380089  64.5736852998036 30.5530488380089  C 64.5736852998036 30.5530488380089  67.5231040657893 37.7142405468005  67.5231040657893 37.7142405468005  C 67.5231040657893 37.7142405468005  64.31185700204 38.6396827333463  64.31185700204 38.6396827333463  C 64.31185700204 38.6396827333463  62.4148853153011 37.6204996356634  62.4148853153011 37.6204996356634  C 62.4148853153011 37.6204996356634  60.6103236160077 39.3078360361326  60.6103236160077 39.3078360361326  C 60.6103236160077 39.3078360361326  55.4404982072217 41.0191062862538  55.4404982072217 41.0191062862538  C 55.4404982072217 41.0191062862538  52.7683094035744 43.209053529416  52.7683094035744 43.209053529416  C 52.7683094035744 43.209053529416  47.5368773364911 45.1117945767537  47.5368773364911 45.1117945767537  C 47.5368773364911 45.1117945767537  48.7972468874911 47.6966503391746  48.7972468874911 47.6966503391746  C 48.7972468874911 47.6966503391746  49.5596292839207 51.3365899737565  49.5596292839207 51.3365899737565  C 49.5596292839207 51.3365899737565  53.2329262849 53.3968955313035  53.2329262849 53.3968955313035  C 53.2329262849 53.3968955313035  57.2963987884297 57.0587745280666  57.2963987884297 57.0587745280666  C 57.2963987884297 57.0587745280666  54.7576910777596 60.9500195839951  54.7576910777596 60.9500195839951  C 54.7576910777596 60.9500195839951  52.1727783733664 62.0150758935111  52.1727783733664 62.0150758935111  C 52.1727783733664 62.0150758935111  53.1918551793687 67.4400818146414  53.1918551793687 67.4400818146414  C 53.1918551793687 67.4400818146414  52.521882770385 68.8442009942281  52.521882770385 68.8442009942281  C 52.521882770385 68.8442009942281  50.2783736307231 67.1508811313459  50.2783736307231 67.1508811313459  C 50.2783736307231 67.1508811313459  46.825833821976 66.8975812225284  46.825833821976 66.8975812225284  C 46.825833821976 66.8975812225284  41.6816778541472 68.3814799009553  41.6816778541472 68.3814799009553  C 41.6816778541472 68.3814799009553  35.3336251054246 68.0284556185876  35.3336251054246 68.0284556185876  C 35.3336251054246 68.0284556185876  32.4445495463663 70.2044414494528  32.4445495463663 70.2044414494528  C 32.4445495463663 70.2044414494528  28.8020558745358 67.9147698327403  28.8020558745358 67.9147698327403  C 28.8020558745358 67.9147698327403  26.6304211695543 68.3695129761292  26.6304211695543 68.3695129761292  C 26.6304211695543 68.3695129761292  18.9167541619071 65.8385083754253  18.9167541619071 65.8385083754253  C 18.9167541619071 65.8385083754253  17.4381943627706 67.6395305617418  17.4381943627706 67.6395305617418  C 17.4381943627706 67.6395305617418  11.3160326944716 67.5816904250827  11.3160326944716 67.5816904250827  C 11.3160326944716 67.5816904250827  12.2298647925491 61.6480901988463  12.2298647925491 61.6480901988463  C 12.2298647925491 61.6480901988463  15.869791520284 55.8640765329353  15.869791520284 55.8640765329353  C 15.869791520284 55.8640765329353  5.49933737356374 54.2964093807263  5.49933737356374 54.2964093807263  C 5.49933737356374 54.2964093807263  2.10327033492238 52.056599950789  2.10327033492238 52.056599950789  C 2.10327033492238 52.056599950789  2.50884750204667 48.2770461932367  2.50884750204667 48.2770461932367  C 2.50884750204667 48.2770461932367  1.07135880844179 46.31646500924  1.07135880844179 46.31646500924  C 1.07135880844179 46.31646500924  1.88764703088155 40.3968261953007  1.88764703088155 40.3968261953007  C 1.88764703088155 40.3968261953007  0.678616361796089 29.593700364456  0.678616361796089 29.593700364456  C 0.678616361796089 29.593700364456  5.00391716308912 29.5897113895141  5.00391716308912 29.5897113895141  C 5.00391716308912 29.5897113895141  6.8264474710525 26.1771433266265  6.8264474710525 26.1771433266265  C 6.8264474710525 26.1771433266265  8.6207413939627 17.7504337616353  8.6207413939627 17.7504337616353  C 8.6207413939627 17.7504337616353  7.27566268780395 14.5931600950363  7.27566268780395 14.5931600950363  C 7.27566268780395 14.5931600950363  8.68234805226005 12.6026615989745  8.68234805226005 12.6026615989745  C 8.68234805226005 12.6026615989745  14.6966980685388 12.0900783189265  14.6966980685388 12.0900783189265  C 14.6966980685388 12.0900783189265  16.0315089983145 14.1643452887704  16.0315089983145 14.1643452887704  C 16.0315089983145 14.1643452887704  20.9189705565707 9.51120601891857  20.9189705565707 9.51120601891857  C 20.9189705565707 9.51120601891857  19.2735593912126 5.93508998340868  19.2735593912126 5.93508998340868  C 19.2735593912126 5.93508998340868  18.9424236028642 0.460221875503204  18.9424236028642 0.460221875503204  C 18.9424236028642 0.460221875503204  24.381778141701 1.74068283188761  24.381778141701 1.74068283188761  Z " stroke-width="2" stroke="#505050" fill="none" stroke-opacity="0.211764705882353" transform="matrix(1 0 0 1 1882 3976 )" mask="url(#clip25)" />
  </g>
</svg>