<?xml version="1.0" encoding="utf-8"?>
<svg version="1.1" xmlns:xlink="http://www.w3.org/1999/xlink" width="89px" height="56px" xmlns="http://www.w3.org/2000/svg">
  <defs>
    <mask fill="white" id="clip181">
      <path d="M 46.4484793076735 48.8917930018791  C 46.4484793076735 48.8917930018791  42.7516110507263 52.8032472795386  42.7516110507263 52.8032472795386  C 42.7516110507263 52.8032472795386  35.3246558876838 54.7915863413505  35.3246558876838 54.7915863413505  C 35.3246558876838 54.7915863413505  32.6065434311064 54.5010437547835  32.6065434311064 54.5010437547835  C 32.6065434311064 54.5010437547835  29.8552521370308 55.7383203479191  29.8552521370308 55.7383203479191  C 29.8552521370308 55.7383203479191  24.1331787777384 55.6177550568947  24.1331787777384 55.6177550568947  C 24.1331787777384 55.6177550568947  20.3022991558392 52.1628677009829  20.3022991558392 52.1628677009829  C 20.3022991558392 52.1628677009829  17.944049475203 48.1604953350097  17.944049475203 48.1604953350097  C 17.944049475203 48.1604953350097  12.8778962110656 44.5138894015674  12.8778962110656 44.5138894015674  C 12.8778962110656 44.5138894015674  7.50037231809988 44.5830662078929  7.50037231809988 44.5830662078929  C 7.50037231809988 44.5830662078929  1.18618432037933 44.5791132475313  1.18618432037933 44.5791132475313  C 1.18618432037933 44.5791132475313  1.5970914617024 35.639493390101  1.5970914617024 35.639493390101  C 1.5970914617024 35.639493390101  1.4158839645971 32.099617386418  1.4158839645971 32.099617386418  C 1.4158839645971 32.099617386418  2.76345521067499 27.1495381891871  2.76345521067499 27.1495381891871  C 2.76345521067499 27.1495381891871  4.96857179516587 25.4398828328578  4.96857179516587 25.4398828328578  C 4.96857179516587 25.4398828328578  8.44214085939282 21.9810425165847  8.44214085939282 21.9810425165847  C 8.44214085939282 21.9810425165847  7.68668425174331 20.4769410990509  7.68668425174331 20.4769410990509  C 7.68668425174331 20.4769410990509  9.09550873627928 18.2217772128408  9.09550873627928 18.2217772128408  C 9.09550873627928 18.2217772128408  7.48761122675447 14.8933845884956  7.48761122675447 14.8933845884956  C 7.48761122675447 14.8933845884956  7.76580301808492 13.027587297889  7.76580301808492 13.027587297889  C 7.76580301808492 13.027587297889  8.2634855805569 8.00139819829887  8.2634855805569 8.00139819829887  C 8.2634855805569 8.00139819829887  10.3129168506335 5.72449303010063  10.3129168506335 5.72449303010063  C 10.3129168506335 5.72449303010063  11.3210430669229 2.47120665262306  11.3210430669229 2.47120665262306  C 11.3210430669229 2.47120665262306  13.184162403356 1.24578894057217  13.184162403356 1.24578894057217  C 13.184162403356 1.24578894057217  20.8765482663836 0.573785679124856  20.8765482663836 0.573785679124856  C 20.8765482663836 0.573785679124856  28.0482816025174 2.6886194725033  28.0482816025174 2.6886194725033  C 28.0482816025174 2.6886194725033  30.7306630033276 4.82519454786961  30.7306630033276 4.82519454786961  C 30.7306630033276 4.82519454786961  34.3828873463909 4.92204207672549  34.3828873463909 4.92204207672549  C 34.3828873463909 4.92204207672549  37.7747854260072 3.53257650967386  37.7747854260072 3.53257650967386  C 37.7747854260072 3.53257650967386  48.288628679685 6.45381421678935  48.288628679685 6.45381421678935  C 48.288628679685 6.45381421678935  51.9383008044792 6.317437084319  51.9383008044792 6.317437084319  C 51.9383008044792 6.317437084319  56.1596698215485 3.90810774401232  56.1596698215485 3.90810774401232  C 56.1596698215485 3.90810774401232  60.3555166559273 4.08006151973556  60.3555166559273 4.08006151973556  C 60.3555166559273 4.08006151973556  62.4202612356183 3.28551648708293  62.4202612356183 3.28551648708293  C 62.4202612356183 3.28551648708293  66.2715586036702 3.61558867726438  66.2715586036702 3.61558867726438  C 66.2715586036702 3.61558867726438  71.8124244658577 5.26594962817198  71.8124244658577 5.26594962817198  C 71.8124244658577 5.26594962817198  77.406886911696 2.10160485882714  77.406886911696 2.10160485882714  C 77.406886911696 2.10160485882714  79.0887987510241 2.32890007961083  79.0887987510241 2.32890007961083  C 79.0887987510241 2.32890007961083  83.9303568074819 8.51528304528797  83.9303568074819 8.51528304528797  C 83.9303568074819 8.51528304528797  85.260062525676 8.39076479390203  85.260062525676 8.39076479390203  C 85.260062525676 8.39076479390203  88.0930248043623 10.6360462792086  88.0930248043623 10.6360462792086  C 88.0930248043623 10.6360462792086  87.314598232291 11.6519570921027  87.314598232291 11.6519570921027  C 87.314598232291 11.6519570921027  86.934317710197 13.5217073430709  86.934317710197 13.5217073430709  C 86.934317710197 13.5217073430709  80.908530376883 17.864034300129  80.908530376883 17.864034300129  C 80.908530376883 17.864034300129  79.0147844212206 21.4375104668846  79.0147844212206 21.4375104668846  C 79.0147844212206 21.4375104668846  78.0066582049315 24.3429363325541  78.0066582049315 24.3429363325541  C 78.0066582049315 24.3429363325541  76.4880883348245 25.5861423662316  76.4880883348245 25.5861423662316  C 76.4880883348245 25.5861423662316  75.0435327945215 30.9255881590657  75.0435327945215 30.9255881590657  C 75.0435327945215 30.9255881590657  71.2177576091604 33.2183051687096  71.2177576091604 33.2183051687096  C 71.2177576091604 33.2183051687096  70.1100948803769 36.0328129460657  70.1100948803769 36.0328129460657  C 70.1100948803769 36.0328129460657  68.5021973708521 38.2701885106492  68.5021973708521 38.2701885106492  C 68.5021973708521 38.2701885106492  67.8335161843515 40.5767408815581  67.8335161843515 40.5767408815581  C 67.8335161843515 40.5767408815581  62.9153915798213 42.4445146523456  62.9153915798213 42.4445146523456  C 62.9153915798213 42.4445146523456  58.8982000242787 40.1656330039668  58.8982000242787 40.1656330039668  C 58.8982000242787 40.1656330039668  56.1851920042394 40.2565510922804  56.1851920042394 40.2565510922804  C 56.1851920042394 40.2565510922804  51.9229874948646 43.5019315490349  51.9229874948646 43.5019315490349  C 51.9229874948646 43.5019315490349  49.8531384786353 43.5513435535531  49.8531384786353 43.5513435535531  C 49.8531384786353 43.5513435535531  46.4484793076735 48.8917930018791  46.4484793076735 48.8917930018791  Z " fill-rule="evenodd" />
    </mask>
  </defs>
  <g transform="matrix(1 0 0 1 -1858 -4264 )">
    <path d="M 46.4484793076735 48.8917930018791  C 46.4484793076735 48.8917930018791  42.7516110507263 52.8032472795386  42.7516110507263 52.8032472795386  C 42.7516110507263 52.8032472795386  35.3246558876838 54.7915863413505  35.3246558876838 54.7915863413505  C 35.3246558876838 54.7915863413505  32.6065434311064 54.5010437547835  32.6065434311064 54.5010437547835  C 32.6065434311064 54.5010437547835  29.8552521370308 55.7383203479191  29.8552521370308 55.7383203479191  C 29.8552521370308 55.7383203479191  24.1331787777384 55.6177550568947  24.1331787777384 55.6177550568947  C 24.1331787777384 55.6177550568947  20.3022991558392 52.1628677009829  20.3022991558392 52.1628677009829  C 20.3022991558392 52.1628677009829  17.944049475203 48.1604953350097  17.944049475203 48.1604953350097  C 17.944049475203 48.1604953350097  12.8778962110656 44.5138894015674  12.8778962110656 44.5138894015674  C 12.8778962110656 44.5138894015674  7.50037231809988 44.5830662078929  7.50037231809988 44.5830662078929  C 7.50037231809988 44.5830662078929  1.18618432037933 44.5791132475313  1.18618432037933 44.5791132475313  C 1.18618432037933 44.5791132475313  1.5970914617024 35.639493390101  1.5970914617024 35.639493390101  C 1.5970914617024 35.639493390101  1.4158839645971 32.099617386418  1.4158839645971 32.099617386418  C 1.4158839645971 32.099617386418  2.76345521067499 27.1495381891871  2.76345521067499 27.1495381891871  C 2.76345521067499 27.1495381891871  4.96857179516587 25.4398828328578  4.96857179516587 25.4398828328578  C 4.96857179516587 25.4398828328578  8.44214085939282 21.9810425165847  8.44214085939282 21.9810425165847  C 8.44214085939282 21.9810425165847  7.68668425174331 20.4769410990509  7.68668425174331 20.4769410990509  C 7.68668425174331 20.4769410990509  9.09550873627928 18.2217772128408  9.09550873627928 18.2217772128408  C 9.09550873627928 18.2217772128408  7.48761122675447 14.8933845884956  7.48761122675447 14.8933845884956  C 7.48761122675447 14.8933845884956  7.76580301808492 13.027587297889  7.76580301808492 13.027587297889  C 7.76580301808492 13.027587297889  8.2634855805569 8.00139819829887  8.2634855805569 8.00139819829887  C 8.2634855805569 8.00139819829887  10.3129168506335 5.72449303010063  10.3129168506335 5.72449303010063  C 10.3129168506335 5.72449303010063  11.3210430669229 2.47120665262306  11.3210430669229 2.47120665262306  C 11.3210430669229 2.47120665262306  13.184162403356 1.24578894057217  13.184162403356 1.24578894057217  C 13.184162403356 1.24578894057217  20.8765482663836 0.573785679124856  20.8765482663836 0.573785679124856  C 20.8765482663836 0.573785679124856  28.0482816025174 2.6886194725033  28.0482816025174 2.6886194725033  C 28.0482816025174 2.6886194725033  30.7306630033276 4.82519454786961  30.7306630033276 4.82519454786961  C 30.7306630033276 4.82519454786961  34.3828873463909 4.92204207672549  34.3828873463909 4.92204207672549  C 34.3828873463909 4.92204207672549  37.7747854260072 3.53257650967386  37.7747854260072 3.53257650967386  C 37.7747854260072 3.53257650967386  48.288628679685 6.45381421678935  48.288628679685 6.45381421678935  C 48.288628679685 6.45381421678935  51.9383008044792 6.317437084319  51.9383008044792 6.317437084319  C 51.9383008044792 6.317437084319  56.1596698215485 3.90810774401232  56.1596698215485 3.90810774401232  C 56.1596698215485 3.90810774401232  60.3555166559273 4.08006151973556  60.3555166559273 4.08006151973556  C 60.3555166559273 4.08006151973556  62.4202612356183 3.28551648708293  62.4202612356183 3.28551648708293  C 62.4202612356183 3.28551648708293  66.2715586036702 3.61558867726438  66.2715586036702 3.61558867726438  C 66.2715586036702 3.61558867726438  71.8124244658577 5.26594962817198  71.8124244658577 5.26594962817198  C 71.8124244658577 5.26594962817198  77.406886911696 2.10160485882714  77.406886911696 2.10160485882714  C 77.406886911696 2.10160485882714  79.0887987510241 2.32890007961083  79.0887987510241 2.32890007961083  C 79.0887987510241 2.32890007961083  83.9303568074819 8.51528304528797  83.9303568074819 8.51528304528797  C 83.9303568074819 8.51528304528797  85.260062525676 8.39076479390203  85.260062525676 8.39076479390203  C 85.260062525676 8.39076479390203  88.0930248043623 10.6360462792086  88.0930248043623 10.6360462792086  C 88.0930248043623 10.6360462792086  87.314598232291 11.6519570921027  87.314598232291 11.6519570921027  C 87.314598232291 11.6519570921027  86.934317710197 13.5217073430709  86.934317710197 13.5217073430709  C 86.934317710197 13.5217073430709  80.908530376883 17.864034300129  80.908530376883 17.864034300129  C 80.908530376883 17.864034300129  79.0147844212206 21.4375104668846  79.0147844212206 21.4375104668846  C 79.0147844212206 21.4375104668846  78.0066582049315 24.3429363325541  78.0066582049315 24.3429363325541  C 78.0066582049315 24.3429363325541  76.4880883348245 25.5861423662316  76.4880883348245 25.5861423662316  C 76.4880883348245 25.5861423662316  75.0435327945215 30.9255881590657  75.0435327945215 30.9255881590657  C 75.0435327945215 30.9255881590657  71.2177576091604 33.2183051687096  71.2177576091604 33.2183051687096  C 71.2177576091604 33.2183051687096  70.1100948803769 36.0328129460657  70.1100948803769 36.0328129460657  C 70.1100948803769 36.0328129460657  68.5021973708521 38.2701885106492  68.5021973708521 38.2701885106492  C 68.5021973708521 38.2701885106492  67.8335161843515 40.5767408815581  67.8335161843515 40.5767408815581  C 67.8335161843515 40.5767408815581  62.9153915798213 42.4445146523456  62.9153915798213 42.4445146523456  C 62.9153915798213 42.4445146523456  58.8982000242787 40.1656330039668  58.8982000242787 40.1656330039668  C 58.8982000242787 40.1656330039668  56.1851920042394 40.2565510922804  56.1851920042394 40.2565510922804  C 56.1851920042394 40.2565510922804  51.9229874948646 43.5019315490349  51.9229874948646 43.5019315490349  C 51.9229874948646 43.5019315490349  49.8531384786353 43.5513435535531  49.8531384786353 43.5513435535531  C 49.8531384786353 43.5513435535531  46.4484793076735 48.8917930018791  46.4484793076735 48.8917930018791  Z " fill-rule="nonzero" fill="#f2f2f2" stroke="none" transform="matrix(1 0 0 1 1858 4264 )" />
    <path d="M 46.4484793076735 48.8917930018791  C 46.4484793076735 48.8917930018791  42.7516110507263 52.8032472795386  42.7516110507263 52.8032472795386  C 42.7516110507263 52.8032472795386  35.3246558876838 54.7915863413505  35.3246558876838 54.7915863413505  C 35.3246558876838 54.7915863413505  32.6065434311064 54.5010437547835  32.6065434311064 54.5010437547835  C 32.6065434311064 54.5010437547835  29.8552521370308 55.7383203479191  29.8552521370308 55.7383203479191  C 29.8552521370308 55.7383203479191  24.1331787777384 55.6177550568947  24.1331787777384 55.6177550568947  C 24.1331787777384 55.6177550568947  20.3022991558392 52.1628677009829  20.3022991558392 52.1628677009829  C 20.3022991558392 52.1628677009829  17.944049475203 48.1604953350097  17.944049475203 48.1604953350097  C 17.944049475203 48.1604953350097  12.8778962110656 44.5138894015674  12.8778962110656 44.5138894015674  C 12.8778962110656 44.5138894015674  7.50037231809988 44.5830662078929  7.50037231809988 44.5830662078929  C 7.50037231809988 44.5830662078929  1.18618432037933 44.5791132475313  1.18618432037933 44.5791132475313  C 1.18618432037933 44.5791132475313  1.5970914617024 35.639493390101  1.5970914617024 35.639493390101  C 1.5970914617024 35.639493390101  1.4158839645971 32.099617386418  1.4158839645971 32.099617386418  C 1.4158839645971 32.099617386418  2.76345521067499 27.1495381891871  2.76345521067499 27.1495381891871  C 2.76345521067499 27.1495381891871  4.96857179516587 25.4398828328578  4.96857179516587 25.4398828328578  C 4.96857179516587 25.4398828328578  8.44214085939282 21.9810425165847  8.44214085939282 21.9810425165847  C 8.44214085939282 21.9810425165847  7.68668425174331 20.4769410990509  7.68668425174331 20.4769410990509  C 7.68668425174331 20.4769410990509  9.09550873627928 18.2217772128408  9.09550873627928 18.2217772128408  C 9.09550873627928 18.2217772128408  7.48761122675447 14.8933845884956  7.48761122675447 14.8933845884956  C 7.48761122675447 14.8933845884956  7.76580301808492 13.027587297889  7.76580301808492 13.027587297889  C 7.76580301808492 13.027587297889  8.2634855805569 8.00139819829887  8.2634855805569 8.00139819829887  C 8.2634855805569 8.00139819829887  10.3129168506335 5.72449303010063  10.3129168506335 5.72449303010063  C 10.3129168506335 5.72449303010063  11.3210430669229 2.47120665262306  11.3210430669229 2.47120665262306  C 11.3210430669229 2.47120665262306  13.184162403356 1.24578894057217  13.184162403356 1.24578894057217  C 13.184162403356 1.24578894057217  20.8765482663836 0.573785679124856  20.8765482663836 0.573785679124856  C 20.8765482663836 0.573785679124856  28.0482816025174 2.6886194725033  28.0482816025174 2.6886194725033  C 28.0482816025174 2.6886194725033  30.7306630033276 4.82519454786961  30.7306630033276 4.82519454786961  C 30.7306630033276 4.82519454786961  34.3828873463909 4.92204207672549  34.3828873463909 4.92204207672549  C 34.3828873463909 4.92204207672549  37.7747854260072 3.53257650967386  37.7747854260072 3.53257650967386  C 37.7747854260072 3.53257650967386  48.288628679685 6.45381421678935  48.288628679685 6.45381421678935  C 48.288628679685 6.45381421678935  51.9383008044792 6.317437084319  51.9383008044792 6.317437084319  C 51.9383008044792 6.317437084319  56.1596698215485 3.90810774401232  56.1596698215485 3.90810774401232  C 56.1596698215485 3.90810774401232  60.3555166559273 4.08006151973556  60.3555166559273 4.08006151973556  C 60.3555166559273 4.08006151973556  62.4202612356183 3.28551648708293  62.4202612356183 3.28551648708293  C 62.4202612356183 3.28551648708293  66.2715586036702 3.61558867726438  66.2715586036702 3.61558867726438  C 66.2715586036702 3.61558867726438  71.8124244658577 5.26594962817198  71.8124244658577 5.26594962817198  C 71.8124244658577 5.26594962817198  77.406886911696 2.10160485882714  77.406886911696 2.10160485882714  C 77.406886911696 2.10160485882714  79.0887987510241 2.32890007961083  79.0887987510241 2.32890007961083  C 79.0887987510241 2.32890007961083  83.9303568074819 8.51528304528797  83.9303568074819 8.51528304528797  C 83.9303568074819 8.51528304528797  85.260062525676 8.39076479390203  85.260062525676 8.39076479390203  C 85.260062525676 8.39076479390203  88.0930248043623 10.6360462792086  88.0930248043623 10.6360462792086  C 88.0930248043623 10.6360462792086  87.314598232291 11.6519570921027  87.314598232291 11.6519570921027  C 87.314598232291 11.6519570921027  86.934317710197 13.5217073430709  86.934317710197 13.5217073430709  C 86.934317710197 13.5217073430709  80.908530376883 17.864034300129  80.908530376883 17.864034300129  C 80.908530376883 17.864034300129  79.0147844212206 21.4375104668846  79.0147844212206 21.4375104668846  C 79.0147844212206 21.4375104668846  78.0066582049315 24.3429363325541  78.0066582049315 24.3429363325541  C 78.0066582049315 24.3429363325541  76.4880883348245 25.5861423662316  76.4880883348245 25.5861423662316  C 76.4880883348245 25.5861423662316  75.0435327945215 30.9255881590657  75.0435327945215 30.9255881590657  C 75.0435327945215 30.9255881590657  71.2177576091604 33.2183051687096  71.2177576091604 33.2183051687096  C 71.2177576091604 33.2183051687096  70.1100948803769 36.0328129460657  70.1100948803769 36.0328129460657  C 70.1100948803769 36.0328129460657  68.5021973708521 38.2701885106492  68.5021973708521 38.2701885106492  C 68.5021973708521 38.2701885106492  67.8335161843515 40.5767408815581  67.8335161843515 40.5767408815581  C 67.8335161843515 40.5767408815581  62.9153915798213 42.4445146523456  62.9153915798213 42.4445146523456  C 62.9153915798213 42.4445146523456  58.8982000242787 40.1656330039668  58.8982000242787 40.1656330039668  C 58.8982000242787 40.1656330039668  56.1851920042394 40.2565510922804  56.1851920042394 40.2565510922804  C 56.1851920042394 40.2565510922804  51.9229874948646 43.5019315490349  51.9229874948646 43.5019315490349  C 51.9229874948646 43.5019315490349  49.8531384786353 43.5513435535531  49.8531384786353 43.5513435535531  C 49.8531384786353 43.5513435535531  46.4484793076735 48.8917930018791  46.4484793076735 48.8917930018791  Z " stroke-width="2" stroke="#505050" fill="none" stroke-opacity="0.211764705882353" transform="matrix(1 0 0 1 1858 4264 )" mask="url(#clip181)" />
  </g>
</svg>