<?xml version="1.0" encoding="utf-8"?>
<svg version="1.1" xmlns:xlink="http://www.w3.org/1999/xlink" width="38px" height="27px" xmlns="http://www.w3.org/2000/svg">
  <defs>
    <mask fill="white" id="clip182">
      <path d="M 17.1578354550492 23.8818821101809  C 17.1578354550492 23.8818821101809  16.0541759809889 24.5977951822598  16.0541759809889 24.5977951822598  C 16.0541759809889 24.5977951822598  13.517328374736 22.8471334349627  13.517328374736 22.8471334349627  C 13.517328374736 22.8471334349627  10.0886611460791 20.6035479331196  10.0886611460791 20.6035479331196  C 10.0886611460791 20.6035479331196  8.47501684395759 18.7257431538962  8.47501684395759 18.7257431538962  C 8.47501684395759 18.7257431538962  5.38372419386405 16.9731253599542  5.38372419386405 16.9731253599542  C 5.38372419386405 16.9731253599542  1.7092181250135 13.0287725562938  1.7092181250135 13.0287725562938  C 1.7092181250135 13.0287725562938  2.52519384991111 12.164199939193  2.52519384991111 12.164199939193  C 2.52519384991111 12.164199939193  3.73608090320492 13.0052999965535  3.73608090320492 13.0052999965535  C 3.73608090320492 13.0052999965535  4.29052594704586 12.6101785742585  4.29052594704586 12.6101785742585  C 4.29052594704586 12.6101785742585  6.57107348586266 12.3813211167905  6.57107348586266 12.3813211167905  C 6.57107348586266 12.3813211167905  7.48904617637263 11.1020666109445  7.48904617637263 11.1020666109445  C 7.48904617637263 11.1020666109445  8.56393727551691 11.0512093981739  8.56393727551691 11.0512093981739  C 8.56393727551691 11.0512093981739  8.40701886688261 8.29513967533432  8.40701886688261 8.29513967533432  C 8.40701886688261 8.29513967533432  10.1278907482376 8.16408455011765  10.1278907482376 8.16408455011765  C 10.1278907482376 8.16408455011765  11.6578452324211 8.20320548301838  11.6578452324211 8.20320548301838  C 11.6578452324211 8.20320548301838  13.2401058528157 6.70487375292932  13.2401058528157 6.70487375292932  C 13.2401058528157 6.70487375292932  15.4029645851569 7.83938080704352  15.4029645851569 7.83938080704352  C 15.4029645851569 7.83938080704352  16.156172946601 7.14302820141484  16.156172946601 7.14302820141484  C 16.156172946601 7.14302820141484  17.505671260855 6.47601629546162  17.505671260855 6.47601629546162  C 17.505671260855 6.47601629546162  21.9660566284028 4.9287833992472  21.9660566284028 4.9287833992472  C 21.9660566284028 4.9287833992472  22.0863607416891 3.7688477387477  22.0863607416891 3.7688477387477  C 22.0863607416891 3.7688477387477  22.7898782737324 3.81774890487338  22.7898782737324 3.81774890487338  C 22.7898782737324 3.81774890487338  23.7313887255373 2.47198881309644  23.7313887255373 2.47198881309644  C 23.7313887255373 2.47198881309644  24.4976736210343 2.30768089491445  24.4976736210343 2.30768089491445  C 24.4976736210343 2.30768089491445  25.7477902764868 3.16834141872512  25.7477902764868 3.16834141872512  C 25.7477902764868 3.16834141872512  27.2175927040271 3.42458352922337  27.2175927040271 3.42458352922337  C 27.2175927040271 3.42458352922337  28.8364676197697 2.70671441049955  28.8364676197697 2.70671441049955  C 28.8364676197697 2.70671441049955  30.6881048416531 2.70280231720938  30.6881048416531 2.70280231720938  C 30.6881048416531 2.70280231720938  33.2354136751481 1.96732877868028  33.2354136751481 1.96732877868028  C 33.2354136751481 1.96732877868028  34.2501527176491 1.19860244718555  34.2501527176491 1.19860244718555  C 34.2501527176491 1.19860244718555  36.7660778694174 1.31400919924186  36.7660778694174 1.31400919924186  C 36.7660778694174 1.31400919924186  36.1331736212595 1.85583411991382  36.1331736212595 1.85583411991382  C 36.1331736212595 1.85583411991382  35.7591847473479 3.11357211266435  35.7591847473479 3.11357211266435  C 35.7591847473479 3.11357211266435  36.5071624951709 5.17328922987526  36.5071624951709 5.17328922987526  C 36.5071624951709 5.17328922987526  34.8176742955429 7.08825889535439  34.8176742955429 7.08825889535439  C 34.8176742955429 7.08825889535439  34.0330822523718 9.3455367237126  34.0330822523718 9.3455367237126  C 34.0330822523718 9.3455367237126  33.7950893326101 11.8140675897336  33.7950893326101 11.8140675897336  C 33.7950893326101 11.8140675897336  34.1873853541954 14.6767265986956  34.1873853541954 14.6767265986956  C 34.1873853541954 14.6767265986956  34.3730721377458 17.1922025841969  34.3730721377458 17.1922025841969  C 34.3730721377458 17.1922025841969  33.253720822822 17.7379395981588  33.253720822822 17.7379395981588  C 33.253720822822 17.7379395981588  32.5685104384528 20.1223604584435  32.5685104384528 20.1223604584435  C 32.5685104384528 20.1223604584435  33.0706493460823 21.593307535502  33.0706493460823 21.593307535502  C 33.0706493460823 21.593307535502  31.5720785436257 23.0153534464348  31.5720785436257 23.0153534464348  C 31.5720785436257 23.0153534464348  31.9120684289997 24.5156412231688  31.9120684289997 24.5156412231688  C 31.9120684289997 24.5156412231688  33.0366503575447 25.4271589597501  33.0366503575447 25.4271589597501  C 33.0366503575447 25.4271589597501  31.2791641808419 26.6046990400549  31.2791641808419 26.6046990400549  C 31.2791641808419 26.6046990400549  29.1163054485007 26.2350062241452  29.1163054485007 26.2350062241452  C 29.1163054485007 26.2350062241452  27.9001877815856 25.092674983451  27.9001877815856 25.092674983451  C 27.9001877815856 25.092674983451  25.5751800269892 24.6290919285802  25.5751800269892 24.6290919285802  C 25.5751800269892 24.6290919285802  23.8883071341716 25.3528291872391  23.8883071341716 25.3528291872391  C 23.8883071341716 25.3528291872391  17.1578354550492 23.8818821101809  17.1578354550492 23.8818821101809  Z " fill-rule="evenodd" />
    </mask>
  </defs>
  <g transform="matrix(1 0 0 1 -1214 -4257 )">
    <path d="M 17.1578354550492 23.8818821101809  C 17.1578354550492 23.8818821101809  16.0541759809889 24.5977951822598  16.0541759809889 24.5977951822598  C 16.0541759809889 24.5977951822598  13.517328374736 22.8471334349627  13.517328374736 22.8471334349627  C 13.517328374736 22.8471334349627  10.0886611460791 20.6035479331196  10.0886611460791 20.6035479331196  C 10.0886611460791 20.6035479331196  8.47501684395759 18.7257431538962  8.47501684395759 18.7257431538962  C 8.47501684395759 18.7257431538962  5.38372419386405 16.9731253599542  5.38372419386405 16.9731253599542  C 5.38372419386405 16.9731253599542  1.7092181250135 13.0287725562938  1.7092181250135 13.0287725562938  C 1.7092181250135 13.0287725562938  2.52519384991111 12.164199939193  2.52519384991111 12.164199939193  C 2.52519384991111 12.164199939193  3.73608090320492 13.0052999965535  3.73608090320492 13.0052999965535  C 3.73608090320492 13.0052999965535  4.29052594704586 12.6101785742585  4.29052594704586 12.6101785742585  C 4.29052594704586 12.6101785742585  6.57107348586266 12.3813211167905  6.57107348586266 12.3813211167905  C 6.57107348586266 12.3813211167905  7.48904617637263 11.1020666109445  7.48904617637263 11.1020666109445  C 7.48904617637263 11.1020666109445  8.56393727551691 11.0512093981739  8.56393727551691 11.0512093981739  C 8.56393727551691 11.0512093981739  8.40701886688261 8.29513967533432  8.40701886688261 8.29513967533432  C 8.40701886688261 8.29513967533432  10.1278907482376 8.16408455011765  10.1278907482376 8.16408455011765  C 10.1278907482376 8.16408455011765  11.6578452324211 8.20320548301838  11.6578452324211 8.20320548301838  C 11.6578452324211 8.20320548301838  13.2401058528157 6.70487375292932  13.2401058528157 6.70487375292932  C 13.2401058528157 6.70487375292932  15.4029645851569 7.83938080704352  15.4029645851569 7.83938080704352  C 15.4029645851569 7.83938080704352  16.156172946601 7.14302820141484  16.156172946601 7.14302820141484  C 16.156172946601 7.14302820141484  17.505671260855 6.47601629546162  17.505671260855 6.47601629546162  C 17.505671260855 6.47601629546162  21.9660566284028 4.9287833992472  21.9660566284028 4.9287833992472  C 21.9660566284028 4.9287833992472  22.0863607416891 3.7688477387477  22.0863607416891 3.7688477387477  C 22.0863607416891 3.7688477387477  22.7898782737324 3.81774890487338  22.7898782737324 3.81774890487338  C 22.7898782737324 3.81774890487338  23.7313887255373 2.47198881309644  23.7313887255373 2.47198881309644  C 23.7313887255373 2.47198881309644  24.4976736210343 2.30768089491445  24.4976736210343 2.30768089491445  C 24.4976736210343 2.30768089491445  25.7477902764868 3.16834141872512  25.7477902764868 3.16834141872512  C 25.7477902764868 3.16834141872512  27.2175927040271 3.42458352922337  27.2175927040271 3.42458352922337  C 27.2175927040271 3.42458352922337  28.8364676197697 2.70671441049955  28.8364676197697 2.70671441049955  C 28.8364676197697 2.70671441049955  30.6881048416531 2.70280231720938  30.6881048416531 2.70280231720938  C 30.6881048416531 2.70280231720938  33.2354136751481 1.96732877868028  33.2354136751481 1.96732877868028  C 33.2354136751481 1.96732877868028  34.2501527176491 1.19860244718555  34.2501527176491 1.19860244718555  C 34.2501527176491 1.19860244718555  36.7660778694174 1.31400919924186  36.7660778694174 1.31400919924186  C 36.7660778694174 1.31400919924186  36.1331736212595 1.85583411991382  36.1331736212595 1.85583411991382  C 36.1331736212595 1.85583411991382  35.7591847473479 3.11357211266435  35.7591847473479 3.11357211266435  C 35.7591847473479 3.11357211266435  36.5071624951709 5.17328922987526  36.5071624951709 5.17328922987526  C 36.5071624951709 5.17328922987526  34.8176742955429 7.08825889535439  34.8176742955429 7.08825889535439  C 34.8176742955429 7.08825889535439  34.0330822523718 9.3455367237126  34.0330822523718 9.3455367237126  C 34.0330822523718 9.3455367237126  33.7950893326101 11.8140675897336  33.7950893326101 11.8140675897336  C 33.7950893326101 11.8140675897336  34.1873853541954 14.6767265986956  34.1873853541954 14.6767265986956  C 34.1873853541954 14.6767265986956  34.3730721377458 17.1922025841969  34.3730721377458 17.1922025841969  C 34.3730721377458 17.1922025841969  33.253720822822 17.7379395981588  33.253720822822 17.7379395981588  C 33.253720822822 17.7379395981588  32.5685104384528 20.1223604584435  32.5685104384528 20.1223604584435  C 32.5685104384528 20.1223604584435  33.0706493460823 21.593307535502  33.0706493460823 21.593307535502  C 33.0706493460823 21.593307535502  31.5720785436257 23.0153534464348  31.5720785436257 23.0153534464348  C 31.5720785436257 23.0153534464348  31.9120684289997 24.5156412231688  31.9120684289997 24.5156412231688  C 31.9120684289997 24.5156412231688  33.0366503575447 25.4271589597501  33.0366503575447 25.4271589597501  C 33.0366503575447 25.4271589597501  31.2791641808419 26.6046990400549  31.2791641808419 26.6046990400549  C 31.2791641808419 26.6046990400549  29.1163054485007 26.2350062241452  29.1163054485007 26.2350062241452  C 29.1163054485007 26.2350062241452  27.9001877815856 25.092674983451  27.9001877815856 25.092674983451  C 27.9001877815856 25.092674983451  25.5751800269892 24.6290919285802  25.5751800269892 24.6290919285802  C 25.5751800269892 24.6290919285802  23.8883071341716 25.3528291872391  23.8883071341716 25.3528291872391  C 23.8883071341716 25.3528291872391  17.1578354550492 23.8818821101809  17.1578354550492 23.8818821101809  Z " fill-rule="nonzero" fill="#f2f2f2" stroke="none" transform="matrix(1 0 0 1 1214 4257 )" />
    <path d="M 17.1578354550492 23.8818821101809  C 17.1578354550492 23.8818821101809  16.0541759809889 24.5977951822598  16.0541759809889 24.5977951822598  C 16.0541759809889 24.5977951822598  13.517328374736 22.8471334349627  13.517328374736 22.8471334349627  C 13.517328374736 22.8471334349627  10.0886611460791 20.6035479331196  10.0886611460791 20.6035479331196  C 10.0886611460791 20.6035479331196  8.47501684395759 18.7257431538962  8.47501684395759 18.7257431538962  C 8.47501684395759 18.7257431538962  5.38372419386405 16.9731253599542  5.38372419386405 16.9731253599542  C 5.38372419386405 16.9731253599542  1.7092181250135 13.0287725562938  1.7092181250135 13.0287725562938  C 1.7092181250135 13.0287725562938  2.52519384991111 12.164199939193  2.52519384991111 12.164199939193  C 2.52519384991111 12.164199939193  3.73608090320492 13.0052999965535  3.73608090320492 13.0052999965535  C 3.73608090320492 13.0052999965535  4.29052594704586 12.6101785742585  4.29052594704586 12.6101785742585  C 4.29052594704586 12.6101785742585  6.57107348586266 12.3813211167905  6.57107348586266 12.3813211167905  C 6.57107348586266 12.3813211167905  7.48904617637263 11.1020666109445  7.48904617637263 11.1020666109445  C 7.48904617637263 11.1020666109445  8.56393727551691 11.0512093981739  8.56393727551691 11.0512093981739  C 8.56393727551691 11.0512093981739  8.40701886688261 8.29513967533432  8.40701886688261 8.29513967533432  C 8.40701886688261 8.29513967533432  10.1278907482376 8.16408455011765  10.1278907482376 8.16408455011765  C 10.1278907482376 8.16408455011765  11.6578452324211 8.20320548301838  11.6578452324211 8.20320548301838  C 11.6578452324211 8.20320548301838  13.2401058528157 6.70487375292932  13.2401058528157 6.70487375292932  C 13.2401058528157 6.70487375292932  15.4029645851569 7.83938080704352  15.4029645851569 7.83938080704352  C 15.4029645851569 7.83938080704352  16.156172946601 7.14302820141484  16.156172946601 7.14302820141484  C 16.156172946601 7.14302820141484  17.505671260855 6.47601629546162  17.505671260855 6.47601629546162  C 17.505671260855 6.47601629546162  21.9660566284028 4.9287833992472  21.9660566284028 4.9287833992472  C 21.9660566284028 4.9287833992472  22.0863607416891 3.7688477387477  22.0863607416891 3.7688477387477  C 22.0863607416891 3.7688477387477  22.7898782737324 3.81774890487338  22.7898782737324 3.81774890487338  C 22.7898782737324 3.81774890487338  23.7313887255373 2.47198881309644  23.7313887255373 2.47198881309644  C 23.7313887255373 2.47198881309644  24.4976736210343 2.30768089491445  24.4976736210343 2.30768089491445  C 24.4976736210343 2.30768089491445  25.7477902764868 3.16834141872512  25.7477902764868 3.16834141872512  C 25.7477902764868 3.16834141872512  27.2175927040271 3.42458352922337  27.2175927040271 3.42458352922337  C 27.2175927040271 3.42458352922337  28.8364676197697 2.70671441049955  28.8364676197697 2.70671441049955  C 28.8364676197697 2.70671441049955  30.6881048416531 2.70280231720938  30.6881048416531 2.70280231720938  C 30.6881048416531 2.70280231720938  33.2354136751481 1.96732877868028  33.2354136751481 1.96732877868028  C 33.2354136751481 1.96732877868028  34.2501527176491 1.19860244718555  34.2501527176491 1.19860244718555  C 34.2501527176491 1.19860244718555  36.7660778694174 1.31400919924186  36.7660778694174 1.31400919924186  C 36.7660778694174 1.31400919924186  36.1331736212595 1.85583411991382  36.1331736212595 1.85583411991382  C 36.1331736212595 1.85583411991382  35.7591847473479 3.11357211266435  35.7591847473479 3.11357211266435  C 35.7591847473479 3.11357211266435  36.5071624951709 5.17328922987526  36.5071624951709 5.17328922987526  C 36.5071624951709 5.17328922987526  34.8176742955429 7.08825889535439  34.8176742955429 7.08825889535439  C 34.8176742955429 7.08825889535439  34.0330822523718 9.3455367237126  34.0330822523718 9.3455367237126  C 34.0330822523718 9.3455367237126  33.7950893326101 11.8140675897336  33.7950893326101 11.8140675897336  C 33.7950893326101 11.8140675897336  34.1873853541954 14.6767265986956  34.1873853541954 14.6767265986956  C 34.1873853541954 14.6767265986956  34.3730721377458 17.1922025841969  34.3730721377458 17.1922025841969  C 34.3730721377458 17.1922025841969  33.253720822822 17.7379395981588  33.253720822822 17.7379395981588  C 33.253720822822 17.7379395981588  32.5685104384528 20.1223604584435  32.5685104384528 20.1223604584435  C 32.5685104384528 20.1223604584435  33.0706493460823 21.593307535502  33.0706493460823 21.593307535502  C 33.0706493460823 21.593307535502  31.5720785436257 23.0153534464348  31.5720785436257 23.0153534464348  C 31.5720785436257 23.0153534464348  31.9120684289997 24.5156412231688  31.9120684289997 24.5156412231688  C 31.9120684289997 24.5156412231688  33.0366503575447 25.4271589597501  33.0366503575447 25.4271589597501  C 33.0366503575447 25.4271589597501  31.2791641808419 26.6046990400549  31.2791641808419 26.6046990400549  C 31.2791641808419 26.6046990400549  29.1163054485007 26.2350062241452  29.1163054485007 26.2350062241452  C 29.1163054485007 26.2350062241452  27.9001877815856 25.092674983451  27.9001877815856 25.092674983451  C 27.9001877815856 25.092674983451  25.5751800269892 24.6290919285802  25.5751800269892 24.6290919285802  C 25.5751800269892 24.6290919285802  23.8883071341716 25.3528291872391  23.8883071341716 25.3528291872391  C 23.8883071341716 25.3528291872391  17.1578354550492 23.8818821101809  17.1578354550492 23.8818821101809  Z " stroke-width="2" stroke="#505050" fill="none" stroke-opacity="0.211764705882353" transform="matrix(1 0 0 1 1214 4257 )" mask="url(#clip182)" />
  </g>
</svg>