<?xml version="1.0" encoding="utf-8"?>
<svg version="1.1" xmlns:xlink="http://www.w3.org/1999/xlink" width="30px" height="27px" xmlns="http://www.w3.org/2000/svg">
  <defs>
    <mask fill="white" id="clip183">
      <path d="M 10.1514065098463 5.09612183553243  C 10.1514065098463 5.09612183553243  11.7773702835229 4.46627481583454  11.7773702835229 4.46627481583454  C 11.7773702835229 4.46627481583454  11.3360372592392 6.24236516951682  11.3360372592392 6.24236516951682  C 11.3360372592392 6.24236516951682  12.5851903806036 6.55142053943059  12.5851903806036 6.55142053943059  C 12.5851903806036 6.55142053943059  13.1323400949201 7.34948757060063  13.1323400949201 7.34948757060063  C 13.1323400949201 7.34948757060063  13.3517161596225 8.07518087590479  13.3517161596225 8.07518087590479  C 13.3517161596225 8.07518087590479  16.2332651623746 8.34707135956307  16.2332651623746 8.34707135956307  C 16.2332651623746 8.34707135956307  16.3106920087402 8.7324125486329  16.3106920087402 8.7324125486329  C 16.3106920087402 8.7324125486329  13.5375405908999 9.25076490956449  13.5375405908999 9.25076490956449  C 13.5375405908999 9.25076490956449  12.5438960625418 9.29771002904508  12.5438960625418 9.29771002904508  C 12.5438960625418 9.29771002904508  12.5438960625418 9.86887564939219  12.5438960625418 9.86887564939219  C 12.5438960625418 9.86887564939219  13.2329949951953 10.7784373393285  13.2329949951953 10.7784373393285  C 13.2329949951953 10.7784373393285  12.2393504668374 11.6625704228796  12.2393504668374 11.6625704228796  C 12.2393504668374 11.6625704228796  13.2433185747108 11.9070762535077  13.2433185747108 11.9070762535077  C 13.2433185747108 11.9070762535077  17.1623873187613 10.3989642901939  17.1623873187613 10.3989642901939  C 17.1623873187613 10.3989642901939  18.3986359657313 9.01408326551645  18.3986359657313 9.01408326551645  C 18.3986359657313 9.01408326551645  18.3986359657313 8.07518087590479  18.3986359657313 8.07518087590479  C 18.3986359657313 8.07518087590479  17.9676265209631 7.42381734311161  17.9676265209631 7.42381734311161  C 17.9676265209631 7.42381734311161  16.7855766664488 6.97588266140099  16.7855766664488 6.97588266140099  C 16.7855766664488 6.97588266140099  17.0565706287283 5.95678235934318  17.0565706287283 5.95678235934318  C 17.0565706287283 5.95678235934318  16.7855766664488 5.06091299592194  16.7855766664488 5.06091299592194  C 16.7855766664488 5.06091299592194  17.8592289360514 3.1048663508974  17.8592289360514 3.1048663508974  C 17.8592289360514 3.1048663508974  18.9225576261383 2.08576604883975  18.9225576261383 2.08576604883975  C 18.9225576261383 2.08576604883975  21.9267192651216 1.2622704112844  21.9267192651216 1.2622704112844  C 21.9267192651216 1.2622704112844  27.9402043328462 1.52242461507266  27.9402043328462 1.52242461507266  C 27.9402043328462 1.52242461507266  29.2925932493647 4.61884645414642  29.2925932493647 4.61884645414642  C 29.2925932493647 4.61884645414642  27.4885477290474 12.883143529375  27.4885477290474 12.883143529375  C 27.4885477290474 12.883143529375  25.6561123650624 17.6509919705908  25.6561123650624 17.6509919705908  C 25.6561123650624 17.6509919705908  21.3073044941972 17.6549040638809  21.3073044941972 17.6549040638809  C 21.3073044941972 17.6549040638809  22.5229059821363 26.8287628290458  22.5229059821363 26.8287628290458  C 22.5229059821363 26.8287628290458  18.5457469738257 24.8022985048004  18.5457469738257 24.8022985048004  C 18.5457469738257 24.8022985048004  12.0896585638641 20.9762712671324  12.0896585638641 20.9762712671324  C 12.0896585638641 20.9762712671324  5.38449366860711 22.7973506936502  5.38449366860711 22.7973506936502  C 5.38449366860711 22.7973506936502  0.0859164823243219 22.1088222746016  0.0859164823243219 22.1088222746016  C 0.0859164823243219 22.1088222746016  1.89770468727822 19.6852804814163  1.89770468727822 19.6852804814163  C 1.89770468727822 19.6852804814163  4.26438529118542 17.3204200875818  4.26438529118542 17.3204200875818  C 4.26438529118542 17.3204200875818  7.56534984123697 14.8773178279461  7.56534984123697 14.8773178279461  C 7.56534984123697 14.8773178279461  9.51908726452764 9.36421561497596  9.51908726452764 9.36421561497596  C 9.51908726452764 9.36421561497596  10.1514065098463 5.09612183553243  10.1514065098463 5.09612183553243  Z " fill-rule="evenodd" />
    </mask>
  </defs>
  <g transform="matrix(1 0 0 1 -1862 -3989 )">
    <path d="M 10.1514065098463 5.09612183553243  C 10.1514065098463 5.09612183553243  11.7773702835229 4.46627481583454  11.7773702835229 4.46627481583454  C 11.7773702835229 4.46627481583454  11.3360372592392 6.24236516951682  11.3360372592392 6.24236516951682  C 11.3360372592392 6.24236516951682  12.5851903806036 6.55142053943059  12.5851903806036 6.55142053943059  C 12.5851903806036 6.55142053943059  13.1323400949201 7.34948757060063  13.1323400949201 7.34948757060063  C 13.1323400949201 7.34948757060063  13.3517161596225 8.07518087590479  13.3517161596225 8.07518087590479  C 13.3517161596225 8.07518087590479  16.2332651623746 8.34707135956307  16.2332651623746 8.34707135956307  C 16.2332651623746 8.34707135956307  16.3106920087402 8.7324125486329  16.3106920087402 8.7324125486329  C 16.3106920087402 8.7324125486329  13.5375405908999 9.25076490956449  13.5375405908999 9.25076490956449  C 13.5375405908999 9.25076490956449  12.5438960625418 9.29771002904508  12.5438960625418 9.29771002904508  C 12.5438960625418 9.29771002904508  12.5438960625418 9.86887564939219  12.5438960625418 9.86887564939219  C 12.5438960625418 9.86887564939219  13.2329949951953 10.7784373393285  13.2329949951953 10.7784373393285  C 13.2329949951953 10.7784373393285  12.2393504668374 11.6625704228796  12.2393504668374 11.6625704228796  C 12.2393504668374 11.6625704228796  13.2433185747108 11.9070762535077  13.2433185747108 11.9070762535077  C 13.2433185747108 11.9070762535077  17.1623873187613 10.3989642901939  17.1623873187613 10.3989642901939  C 17.1623873187613 10.3989642901939  18.3986359657313 9.01408326551645  18.3986359657313 9.01408326551645  C 18.3986359657313 9.01408326551645  18.3986359657313 8.07518087590479  18.3986359657313 8.07518087590479  C 18.3986359657313 8.07518087590479  17.9676265209631 7.42381734311161  17.9676265209631 7.42381734311161  C 17.9676265209631 7.42381734311161  16.7855766664488 6.97588266140099  16.7855766664488 6.97588266140099  C 16.7855766664488 6.97588266140099  17.0565706287283 5.95678235934318  17.0565706287283 5.95678235934318  C 17.0565706287283 5.95678235934318  16.7855766664488 5.06091299592194  16.7855766664488 5.06091299592194  C 16.7855766664488 5.06091299592194  17.8592289360514 3.1048663508974  17.8592289360514 3.1048663508974  C 17.8592289360514 3.1048663508974  18.9225576261383 2.08576604883975  18.9225576261383 2.08576604883975  C 18.9225576261383 2.08576604883975  21.9267192651216 1.2622704112844  21.9267192651216 1.2622704112844  C 21.9267192651216 1.2622704112844  27.9402043328462 1.52242461507266  27.9402043328462 1.52242461507266  C 27.9402043328462 1.52242461507266  29.2925932493647 4.61884645414642  29.2925932493647 4.61884645414642  C 29.2925932493647 4.61884645414642  27.4885477290474 12.883143529375  27.4885477290474 12.883143529375  C 27.4885477290474 12.883143529375  25.6561123650624 17.6509919705908  25.6561123650624 17.6509919705908  C 25.6561123650624 17.6509919705908  21.3073044941972 17.6549040638809  21.3073044941972 17.6549040638809  C 21.3073044941972 17.6549040638809  22.5229059821363 26.8287628290458  22.5229059821363 26.8287628290458  C 22.5229059821363 26.8287628290458  18.5457469738257 24.8022985048004  18.5457469738257 24.8022985048004  C 18.5457469738257 24.8022985048004  12.0896585638641 20.9762712671324  12.0896585638641 20.9762712671324  C 12.0896585638641 20.9762712671324  5.38449366860711 22.7973506936502  5.38449366860711 22.7973506936502  C 5.38449366860711 22.7973506936502  0.0859164823243219 22.1088222746016  0.0859164823243219 22.1088222746016  C 0.0859164823243219 22.1088222746016  1.89770468727822 19.6852804814163  1.89770468727822 19.6852804814163  C 1.89770468727822 19.6852804814163  4.26438529118542 17.3204200875818  4.26438529118542 17.3204200875818  C 4.26438529118542 17.3204200875818  7.56534984123697 14.8773178279461  7.56534984123697 14.8773178279461  C 7.56534984123697 14.8773178279461  9.51908726452764 9.36421561497596  9.51908726452764 9.36421561497596  C 9.51908726452764 9.36421561497596  10.1514065098463 5.09612183553243  10.1514065098463 5.09612183553243  Z " fill-rule="nonzero" fill="#a29bfe" stroke="none" transform="matrix(1 0 0 1 1862 3989 )" />
    <path d="M 10.1514065098463 5.09612183553243  C 10.1514065098463 5.09612183553243  11.7773702835229 4.46627481583454  11.7773702835229 4.46627481583454  C 11.7773702835229 4.46627481583454  11.3360372592392 6.24236516951682  11.3360372592392 6.24236516951682  C 11.3360372592392 6.24236516951682  12.5851903806036 6.55142053943059  12.5851903806036 6.55142053943059  C 12.5851903806036 6.55142053943059  13.1323400949201 7.34948757060063  13.1323400949201 7.34948757060063  C 13.1323400949201 7.34948757060063  13.3517161596225 8.07518087590479  13.3517161596225 8.07518087590479  C 13.3517161596225 8.07518087590479  16.2332651623746 8.34707135956307  16.2332651623746 8.34707135956307  C 16.2332651623746 8.34707135956307  16.3106920087402 8.7324125486329  16.3106920087402 8.7324125486329  C 16.3106920087402 8.7324125486329  13.5375405908999 9.25076490956449  13.5375405908999 9.25076490956449  C 13.5375405908999 9.25076490956449  12.5438960625418 9.29771002904508  12.5438960625418 9.29771002904508  C 12.5438960625418 9.29771002904508  12.5438960625418 9.86887564939219  12.5438960625418 9.86887564939219  C 12.5438960625418 9.86887564939219  13.2329949951953 10.7784373393285  13.2329949951953 10.7784373393285  C 13.2329949951953 10.7784373393285  12.2393504668374 11.6625704228796  12.2393504668374 11.6625704228796  C 12.2393504668374 11.6625704228796  13.2433185747108 11.9070762535077  13.2433185747108 11.9070762535077  C 13.2433185747108 11.9070762535077  17.1623873187613 10.3989642901939  17.1623873187613 10.3989642901939  C 17.1623873187613 10.3989642901939  18.3986359657313 9.01408326551645  18.3986359657313 9.01408326551645  C 18.3986359657313 9.01408326551645  18.3986359657313 8.07518087590479  18.3986359657313 8.07518087590479  C 18.3986359657313 8.07518087590479  17.9676265209631 7.42381734311161  17.9676265209631 7.42381734311161  C 17.9676265209631 7.42381734311161  16.7855766664488 6.97588266140099  16.7855766664488 6.97588266140099  C 16.7855766664488 6.97588266140099  17.0565706287283 5.95678235934318  17.0565706287283 5.95678235934318  C 17.0565706287283 5.95678235934318  16.7855766664488 5.06091299592194  16.7855766664488 5.06091299592194  C 16.7855766664488 5.06091299592194  17.8592289360514 3.1048663508974  17.8592289360514 3.1048663508974  C 17.8592289360514 3.1048663508974  18.9225576261383 2.08576604883975  18.9225576261383 2.08576604883975  C 18.9225576261383 2.08576604883975  21.9267192651216 1.2622704112844  21.9267192651216 1.2622704112844  C 21.9267192651216 1.2622704112844  27.9402043328462 1.52242461507266  27.9402043328462 1.52242461507266  C 27.9402043328462 1.52242461507266  29.2925932493647 4.61884645414642  29.2925932493647 4.61884645414642  C 29.2925932493647 4.61884645414642  27.4885477290474 12.883143529375  27.4885477290474 12.883143529375  C 27.4885477290474 12.883143529375  25.6561123650624 17.6509919705908  25.6561123650624 17.6509919705908  C 25.6561123650624 17.6509919705908  21.3073044941972 17.6549040638809  21.3073044941972 17.6549040638809  C 21.3073044941972 17.6549040638809  22.5229059821363 26.8287628290458  22.5229059821363 26.8287628290458  C 22.5229059821363 26.8287628290458  18.5457469738257 24.8022985048004  18.5457469738257 24.8022985048004  C 18.5457469738257 24.8022985048004  12.0896585638641 20.9762712671324  12.0896585638641 20.9762712671324  C 12.0896585638641 20.9762712671324  5.38449366860711 22.7973506936502  5.38449366860711 22.7973506936502  C 5.38449366860711 22.7973506936502  0.0859164823243219 22.1088222746016  0.0859164823243219 22.1088222746016  C 0.0859164823243219 22.1088222746016  1.89770468727822 19.6852804814163  1.89770468727822 19.6852804814163  C 1.89770468727822 19.6852804814163  4.26438529118542 17.3204200875818  4.26438529118542 17.3204200875818  C 4.26438529118542 17.3204200875818  7.56534984123697 14.8773178279461  7.56534984123697 14.8773178279461  C 7.56534984123697 14.8773178279461  9.51908726452764 9.36421561497596  9.51908726452764 9.36421561497596  C 9.51908726452764 9.36421561497596  10.1514065098463 5.09612183553243  10.1514065098463 5.09612183553243  Z " stroke-width="2" stroke="#505050" fill="none" stroke-opacity="0.211764705882353" transform="matrix(1 0 0 1 1862 3989 )" mask="url(#clip183)" />
  </g>
</svg>