<?xml version="1.0" encoding="utf-8"?>
<svg version="1.1" xmlns:xlink="http://www.w3.org/1999/xlink" width="90px" height="92px" xmlns="http://www.w3.org/2000/svg">
  <defs>
    <mask fill="white" id="clip187">
      <path d="M 48.0493625795245 42.821686717378  C 48.0493625795245 42.821686717378  49.6168611834967 45.9735137789113  49.6168611834967 45.9735137789113  C 49.6168611834967 45.9735137789113  51.2248113643452 49.0509673702425  51.2248113643452 49.0509673702425  C 51.2248113643452 49.0509673702425  56.2660891326039 46.0297964050098  56.2660891326039 46.0297964050098  C 56.2660891326039 46.0297964050098  58.3164784355414 49.179613372754  58.3164784355414 49.179613372754  C 58.3164784355414 49.179613372754  58.3240631062058 52.3374707156555  58.3240631062058 52.3374707156555  C 58.3240631062058 52.3374707156555  55.6871259385563 55.8370440027279  55.6871259385563 55.8370440027279  C 55.6871259385563 55.8370440027279  51.0528921626198 61.4592763312414  51.0528921626198 61.4592763312414  C 51.0528921626198 61.4592763312414  47.4248913614909 64.5568308604653  47.4248913614909 64.5568308604653  C 47.4248913614909 64.5568308604653  50.0390745171476 69.7478823936185  50.0390745171476 69.7478823936185  C 50.0390745171476 69.7478823936185  44.5705269681292 69.8443668955022  44.5705269681292 69.8443668955022  C 44.5705269681292 69.8443668955022  38.5053186601793 72.7891542967439  38.5053186601793 72.7891542967439  C 38.5053186601793 72.7891542967439  36.606622770529 77.9510751475205  36.606622770529 77.9510751475205  C 36.606622770529 77.9510751475205  32.5766344241883 86.0457228368032  32.5766344241883 86.0457228368032  C 32.5766344241883 86.0457228368032  25.1752796862097 89.6679118450198  25.1752796862097 89.6679118450198  C 25.1752796862097 89.6679118450198  21.6382949330533 91.9976105467528  21.6382949330533 91.9976105467528  C 21.6382949330533 91.9976105467528  15.1078934910216 91.8247424808779  15.1078934910216 91.8247424808779  C 15.1078934910216 91.8247424808779  10.5191677390711 89.1352369908702  10.5191677390711 89.1352369908702  C 10.5191677390711 89.1352369908702  2.81314234406038 88.5643703547253  2.81314234406038 88.5643703547253  C 2.81314234406038 88.5643703547253  1.62487727330727 85.5914416404344  1.62487727330727 85.5914416404344  C 1.62487727330727 85.5914416404344  5.43491017038104 79.647594305642  5.43491017038104 79.647594305642  C 5.43491017038104 79.647594305642  14.3468982010283 71.8584808723241  14.3468982010283 71.8584808723241  C 14.3468982010283 71.8584808723241  18.9229828352047 70.3891023123873  18.9229828352047 70.3891023123873  C 18.9229828352047 70.3891023123873  24.0173532981138 65.9699267943035  24.0173532981138 65.9699267943035  C 24.0173532981138 65.9699267943035  31.9294091941607 61.9296382779246  31.9294091941607 61.9296382779246  C 31.9294091941607 61.9296382779246  36.1844094368782 57.9597030441689  36.1844094368782 57.9597030441689  C 36.1844094368782 57.9597030441689  39.3371042097057 52.3153596839739  39.3371042097057 52.3153596839739  C 39.3371042097057 52.3153596839739  42.0246058484509 50.4138109593499  42.0246058484509 50.4138109593499  C 42.0246058484509 50.4138109593499  43.0763468472455 46.2448764404594  43.0763468472455 46.2448764404594  C 43.0763468472455 46.2448764404594  48.0493625795245 42.821686717378  48.0493625795245 42.821686717378  Z M 57.0561787121559 5.62088095985192  C 57.0561787121559 5.62088095985192  59.0610599911078 11.7757881425153  59.0610599911078 11.7757881425153  C 59.0610599911078 11.7757881425153  64.1984102544487 19.142781880092  64.1984102544487 19.142781880092  C 64.1984102544487 19.142781880092  64.3475754441813 14.3527283803251  64.3475754441813 14.3527283803251  C 64.3475754441813 14.3527283803251  69.3850411584279 16.2603073863169  69.3850411584279 16.2603073863169  C 69.3850411584279 16.2603073863169  70.4443668278861 21.5890660216008  70.4443668278861 21.5890660216008  C 70.4443668278861 21.5890660216008  76.1505673910554 23.9006738792306  76.1505673910554 23.9006738792306  C 76.1505673910554 23.9006738792306  80.941551027389 24.4695304215863  80.941551027389 24.4695304215863  C 80.941551027389 24.4695304215863  84.994293385723 21.7619340874757  84.994293385723 21.7619340874757  C 84.994293385723 21.7619340874757  88.5868990570849 22.5800422596977  88.5868990570849 22.5800422596977  C 88.5868990570849 22.5800422596977  86.8677070398253 30.374165249921  86.8677070398253 30.374165249921  C 86.8677070398253 30.374165249921  84.7086041240314 34.5812915508071  84.7086041240314 34.5812915508071  C 84.7086041240314 34.5812915508071  79.2956774932185 34.4325446104031  79.2956774932185 34.4325446104031  C 79.2956774932185 34.4325446104031  77.402038050678 36.6376174972029  77.402038050678 36.6376174972029  C 77.402038050678 36.6376174972029  78.0619043984789 39.7753739022119  78.0619043984789 39.7753739022119  C 78.0619043984789 39.7753739022119  77.0202762939042 41.1382174913186  77.0202762939042 41.1382174913186  C 77.0202762939042 41.1382174913186  74.340359325823 45.1061426312852  74.340359325823 45.1061426312852  C 74.340359325823 45.1061426312852  70.8261285846598 50.1957001056491  70.8261285846598 50.1957001056491  C 70.8261285846598 50.1957001056491  63.5107334475444 53.1847095702538  63.5107334475444 53.1847095702538  C 63.5107334475444 53.1847095702538  62.2946579176887 51.2168277505845  62.2946579176887 51.2168277505845  C 62.2946579176887 51.2168277505845  59.339164582135 50.1394174795505  59.339164582135 50.1394174795505  C 59.339164582135 50.1394174795505  63.4273020702363 44.03074245404  63.4273020702363 44.03074245404  C 63.4273020702363 44.03074245404  61.1063928469356 39.9864337500825  61.1063928469356 39.9864337500825  C 61.1063928469356 39.9864337500825  53.4762141585686 37.0677775681013  53.4762141585686 37.0677775681013  C 53.4762141585686 37.0677775681013  53.675943819397 34.4385748917712  53.675943819397 34.4385748917712  C 53.675943819397 34.4385748917712  58.7981247414086 31.9199273738494  58.7981247414086 31.9199273738494  C 58.7981247414086 31.9199273738494  59.9939744828261 24.9439125558478  59.9939744828261 24.9439125558478  C 59.9939744828261 24.9439125558478  59.6653054207028 20.3568785287947  59.6653054207028 20.3568785287947  C 59.6653054207028 20.3568785287947  56.7932434624575 15.6452186868083  56.7932434624575 15.6452186868083  C 56.7932434624575 15.6452186868083  56.9828602290673 14.413031194002  56.9828602290673 14.413031194002  C 56.9828602290673 14.413031194002  53.5950406656436 11.5385970753842  53.5950406656436 11.5385970753842  C 53.5950406656436 11.5385970753842  48.0177795037688 5.42590186229541  48.0177795037688 5.42590186229541  C 48.0177795037688 5.42590186229541  45.052173273996 0.583585924008297  45.052173273996 0.583585924008297  C 45.052173273996 0.583585924008297  47.6815257709815 0.0489009760695909  47.6815257709815 0.0489009760695909  C 47.6815257709815 0.0489009760695909  51.5395949155963 3.84194795637168  51.5395949155963 3.84194795637168  C 51.5395949155963 3.84194795637168  57.0561787121559 5.62088095985192  57.0561787121559 5.62088095985192  Z " fill-rule="evenodd" />
    </mask>
  </defs>
  <g transform="matrix(1 0 0 1 -3023 -4546 )">
    <path d="M 48.0493625795245 42.821686717378  C 48.0493625795245 42.821686717378  49.6168611834967 45.9735137789113  49.6168611834967 45.9735137789113  C 49.6168611834967 45.9735137789113  51.2248113643452 49.0509673702425  51.2248113643452 49.0509673702425  C 51.2248113643452 49.0509673702425  56.2660891326039 46.0297964050098  56.2660891326039 46.0297964050098  C 56.2660891326039 46.0297964050098  58.3164784355414 49.179613372754  58.3164784355414 49.179613372754  C 58.3164784355414 49.179613372754  58.3240631062058 52.3374707156555  58.3240631062058 52.3374707156555  C 58.3240631062058 52.3374707156555  55.6871259385563 55.8370440027279  55.6871259385563 55.8370440027279  C 55.6871259385563 55.8370440027279  51.0528921626198 61.4592763312414  51.0528921626198 61.4592763312414  C 51.0528921626198 61.4592763312414  47.4248913614909 64.5568308604653  47.4248913614909 64.5568308604653  C 47.4248913614909 64.5568308604653  50.0390745171476 69.7478823936185  50.0390745171476 69.7478823936185  C 50.0390745171476 69.7478823936185  44.5705269681292 69.8443668955022  44.5705269681292 69.8443668955022  C 44.5705269681292 69.8443668955022  38.5053186601793 72.7891542967439  38.5053186601793 72.7891542967439  C 38.5053186601793 72.7891542967439  36.606622770529 77.9510751475205  36.606622770529 77.9510751475205  C 36.606622770529 77.9510751475205  32.5766344241883 86.0457228368032  32.5766344241883 86.0457228368032  C 32.5766344241883 86.0457228368032  25.1752796862097 89.6679118450198  25.1752796862097 89.6679118450198  C 25.1752796862097 89.6679118450198  21.6382949330533 91.9976105467528  21.6382949330533 91.9976105467528  C 21.6382949330533 91.9976105467528  15.1078934910216 91.8247424808779  15.1078934910216 91.8247424808779  C 15.1078934910216 91.8247424808779  10.5191677390711 89.1352369908702  10.5191677390711 89.1352369908702  C 10.5191677390711 89.1352369908702  2.81314234406038 88.5643703547253  2.81314234406038 88.5643703547253  C 2.81314234406038 88.5643703547253  1.62487727330727 85.5914416404344  1.62487727330727 85.5914416404344  C 1.62487727330727 85.5914416404344  5.43491017038104 79.647594305642  5.43491017038104 79.647594305642  C 5.43491017038104 79.647594305642  14.3468982010283 71.8584808723241  14.3468982010283 71.8584808723241  C 14.3468982010283 71.8584808723241  18.9229828352047 70.3891023123873  18.9229828352047 70.3891023123873  C 18.9229828352047 70.3891023123873  24.0173532981138 65.9699267943035  24.0173532981138 65.9699267943035  C 24.0173532981138 65.9699267943035  31.9294091941607 61.9296382779246  31.9294091941607 61.9296382779246  C 31.9294091941607 61.9296382779246  36.1844094368782 57.9597030441689  36.1844094368782 57.9597030441689  C 36.1844094368782 57.9597030441689  39.3371042097057 52.3153596839739  39.3371042097057 52.3153596839739  C 39.3371042097057 52.3153596839739  42.0246058484509 50.4138109593499  42.0246058484509 50.4138109593499  C 42.0246058484509 50.4138109593499  43.0763468472455 46.2448764404594  43.0763468472455 46.2448764404594  C 43.0763468472455 46.2448764404594  48.0493625795245 42.821686717378  48.0493625795245 42.821686717378  Z M 57.0561787121559 5.62088095985192  C 57.0561787121559 5.62088095985192  59.0610599911078 11.7757881425153  59.0610599911078 11.7757881425153  C 59.0610599911078 11.7757881425153  64.1984102544487 19.142781880092  64.1984102544487 19.142781880092  C 64.1984102544487 19.142781880092  64.3475754441813 14.3527283803251  64.3475754441813 14.3527283803251  C 64.3475754441813 14.3527283803251  69.3850411584279 16.2603073863169  69.3850411584279 16.2603073863169  C 69.3850411584279 16.2603073863169  70.4443668278861 21.5890660216008  70.4443668278861 21.5890660216008  C 70.4443668278861 21.5890660216008  76.1505673910554 23.9006738792306  76.1505673910554 23.9006738792306  C 76.1505673910554 23.9006738792306  80.941551027389 24.4695304215863  80.941551027389 24.4695304215863  C 80.941551027389 24.4695304215863  84.994293385723 21.7619340874757  84.994293385723 21.7619340874757  C 84.994293385723 21.7619340874757  88.5868990570849 22.5800422596977  88.5868990570849 22.5800422596977  C 88.5868990570849 22.5800422596977  86.8677070398253 30.374165249921  86.8677070398253 30.374165249921  C 86.8677070398253 30.374165249921  84.7086041240314 34.5812915508071  84.7086041240314 34.5812915508071  C 84.7086041240314 34.5812915508071  79.2956774932185 34.4325446104031  79.2956774932185 34.4325446104031  C 79.2956774932185 34.4325446104031  77.402038050678 36.6376174972029  77.402038050678 36.6376174972029  C 77.402038050678 36.6376174972029  78.0619043984789 39.7753739022119  78.0619043984789 39.7753739022119  C 78.0619043984789 39.7753739022119  77.0202762939042 41.1382174913186  77.0202762939042 41.1382174913186  C 77.0202762939042 41.1382174913186  74.340359325823 45.1061426312852  74.340359325823 45.1061426312852  C 74.340359325823 45.1061426312852  70.8261285846598 50.1957001056491  70.8261285846598 50.1957001056491  C 70.8261285846598 50.1957001056491  63.5107334475444 53.1847095702538  63.5107334475444 53.1847095702538  C 63.5107334475444 53.1847095702538  62.2946579176887 51.2168277505845  62.2946579176887 51.2168277505845  C 62.2946579176887 51.2168277505845  59.339164582135 50.1394174795505  59.339164582135 50.1394174795505  C 59.339164582135 50.1394174795505  63.4273020702363 44.03074245404  63.4273020702363 44.03074245404  C 63.4273020702363 44.03074245404  61.1063928469356 39.9864337500825  61.1063928469356 39.9864337500825  C 61.1063928469356 39.9864337500825  53.4762141585686 37.0677775681013  53.4762141585686 37.0677775681013  C 53.4762141585686 37.0677775681013  53.675943819397 34.4385748917712  53.675943819397 34.4385748917712  C 53.675943819397 34.4385748917712  58.7981247414086 31.9199273738494  58.7981247414086 31.9199273738494  C 58.7981247414086 31.9199273738494  59.9939744828261 24.9439125558478  59.9939744828261 24.9439125558478  C 59.9939744828261 24.9439125558478  59.6653054207028 20.3568785287947  59.6653054207028 20.3568785287947  C 59.6653054207028 20.3568785287947  56.7932434624575 15.6452186868083  56.7932434624575 15.6452186868083  C 56.7932434624575 15.6452186868083  56.9828602290673 14.413031194002  56.9828602290673 14.413031194002  C 56.9828602290673 14.413031194002  53.5950406656436 11.5385970753842  53.5950406656436 11.5385970753842  C 53.5950406656436 11.5385970753842  48.0177795037688 5.42590186229541  48.0177795037688 5.42590186229541  C 48.0177795037688 5.42590186229541  45.052173273996 0.583585924008297  45.052173273996 0.583585924008297  C 45.052173273996 0.583585924008297  47.6815257709815 0.0489009760695909  47.6815257709815 0.0489009760695909  C 47.6815257709815 0.0489009760695909  51.5395949155963 3.84194795637168  51.5395949155963 3.84194795637168  C 51.5395949155963 3.84194795637168  57.0561787121559 5.62088095985192  57.0561787121559 5.62088095985192  Z " fill-rule="nonzero" fill="#74b9ff" stroke="none" transform="matrix(1 0 0 1 3023 4546 )" />
    <path d="M 48.0493625795245 42.821686717378  C 48.0493625795245 42.821686717378  49.6168611834967 45.9735137789113  49.6168611834967 45.9735137789113  C 49.6168611834967 45.9735137789113  51.2248113643452 49.0509673702425  51.2248113643452 49.0509673702425  C 51.2248113643452 49.0509673702425  56.2660891326039 46.0297964050098  56.2660891326039 46.0297964050098  C 56.2660891326039 46.0297964050098  58.3164784355414 49.179613372754  58.3164784355414 49.179613372754  C 58.3164784355414 49.179613372754  58.3240631062058 52.3374707156555  58.3240631062058 52.3374707156555  C 58.3240631062058 52.3374707156555  55.6871259385563 55.8370440027279  55.6871259385563 55.8370440027279  C 55.6871259385563 55.8370440027279  51.0528921626198 61.4592763312414  51.0528921626198 61.4592763312414  C 51.0528921626198 61.4592763312414  47.4248913614909 64.5568308604653  47.4248913614909 64.5568308604653  C 47.4248913614909 64.5568308604653  50.0390745171476 69.7478823936185  50.0390745171476 69.7478823936185  C 50.0390745171476 69.7478823936185  44.5705269681292 69.8443668955022  44.5705269681292 69.8443668955022  C 44.5705269681292 69.8443668955022  38.5053186601793 72.7891542967439  38.5053186601793 72.7891542967439  C 38.5053186601793 72.7891542967439  36.606622770529 77.9510751475205  36.606622770529 77.9510751475205  C 36.606622770529 77.9510751475205  32.5766344241883 86.0457228368032  32.5766344241883 86.0457228368032  C 32.5766344241883 86.0457228368032  25.1752796862097 89.6679118450198  25.1752796862097 89.6679118450198  C 25.1752796862097 89.6679118450198  21.6382949330533 91.9976105467528  21.6382949330533 91.9976105467528  C 21.6382949330533 91.9976105467528  15.1078934910216 91.8247424808779  15.1078934910216 91.8247424808779  C 15.1078934910216 91.8247424808779  10.5191677390711 89.1352369908702  10.5191677390711 89.1352369908702  C 10.5191677390711 89.1352369908702  2.81314234406038 88.5643703547253  2.81314234406038 88.5643703547253  C 2.81314234406038 88.5643703547253  1.62487727330727 85.5914416404344  1.62487727330727 85.5914416404344  C 1.62487727330727 85.5914416404344  5.43491017038104 79.647594305642  5.43491017038104 79.647594305642  C 5.43491017038104 79.647594305642  14.3468982010283 71.8584808723241  14.3468982010283 71.8584808723241  C 14.3468982010283 71.8584808723241  18.9229828352047 70.3891023123873  18.9229828352047 70.3891023123873  C 18.9229828352047 70.3891023123873  24.0173532981138 65.9699267943035  24.0173532981138 65.9699267943035  C 24.0173532981138 65.9699267943035  31.9294091941607 61.9296382779246  31.9294091941607 61.9296382779246  C 31.9294091941607 61.9296382779246  36.1844094368782 57.9597030441689  36.1844094368782 57.9597030441689  C 36.1844094368782 57.9597030441689  39.3371042097057 52.3153596839739  39.3371042097057 52.3153596839739  C 39.3371042097057 52.3153596839739  42.0246058484509 50.4138109593499  42.0246058484509 50.4138109593499  C 42.0246058484509 50.4138109593499  43.0763468472455 46.2448764404594  43.0763468472455 46.2448764404594  C 43.0763468472455 46.2448764404594  48.0493625795245 42.821686717378  48.0493625795245 42.821686717378  Z " stroke-width="2" stroke="#505050" fill="none" stroke-opacity="0.211764705882353" transform="matrix(1 0 0 1 3023 4546 )" mask="url(#clip187)" />
    <path d="M 57.0561787121559 5.62088095985192  C 57.0561787121559 5.62088095985192  59.0610599911078 11.7757881425153  59.0610599911078 11.7757881425153  C 59.0610599911078 11.7757881425153  64.1984102544487 19.142781880092  64.1984102544487 19.142781880092  C 64.1984102544487 19.142781880092  64.3475754441813 14.3527283803251  64.3475754441813 14.3527283803251  C 64.3475754441813 14.3527283803251  69.3850411584279 16.2603073863169  69.3850411584279 16.2603073863169  C 69.3850411584279 16.2603073863169  70.4443668278861 21.5890660216008  70.4443668278861 21.5890660216008  C 70.4443668278861 21.5890660216008  76.1505673910554 23.9006738792306  76.1505673910554 23.9006738792306  C 76.1505673910554 23.9006738792306  80.941551027389 24.4695304215863  80.941551027389 24.4695304215863  C 80.941551027389 24.4695304215863  84.994293385723 21.7619340874757  84.994293385723 21.7619340874757  C 84.994293385723 21.7619340874757  88.5868990570849 22.5800422596977  88.5868990570849 22.5800422596977  C 88.5868990570849 22.5800422596977  86.8677070398253 30.374165249921  86.8677070398253 30.374165249921  C 86.8677070398253 30.374165249921  84.7086041240314 34.5812915508071  84.7086041240314 34.5812915508071  C 84.7086041240314 34.5812915508071  79.2956774932185 34.4325446104031  79.2956774932185 34.4325446104031  C 79.2956774932185 34.4325446104031  77.402038050678 36.6376174972029  77.402038050678 36.6376174972029  C 77.402038050678 36.6376174972029  78.0619043984789 39.7753739022119  78.0619043984789 39.7753739022119  C 78.0619043984789 39.7753739022119  77.0202762939042 41.1382174913186  77.0202762939042 41.1382174913186  C 77.0202762939042 41.1382174913186  74.340359325823 45.1061426312852  74.340359325823 45.1061426312852  C 74.340359325823 45.1061426312852  70.8261285846598 50.1957001056491  70.8261285846598 50.1957001056491  C 70.8261285846598 50.1957001056491  63.5107334475444 53.1847095702538  63.5107334475444 53.1847095702538  C 63.5107334475444 53.1847095702538  62.2946579176887 51.2168277505845  62.2946579176887 51.2168277505845  C 62.2946579176887 51.2168277505845  59.339164582135 50.1394174795505  59.339164582135 50.1394174795505  C 59.339164582135 50.1394174795505  63.4273020702363 44.03074245404  63.4273020702363 44.03074245404  C 63.4273020702363 44.03074245404  61.1063928469356 39.9864337500825  61.1063928469356 39.9864337500825  C 61.1063928469356 39.9864337500825  53.4762141585686 37.0677775681013  53.4762141585686 37.0677775681013  C 53.4762141585686 37.0677775681013  53.675943819397 34.4385748917712  53.675943819397 34.4385748917712  C 53.675943819397 34.4385748917712  58.7981247414086 31.9199273738494  58.7981247414086 31.9199273738494  C 58.7981247414086 31.9199273738494  59.9939744828261 24.9439125558478  59.9939744828261 24.9439125558478  C 59.9939744828261 24.9439125558478  59.6653054207028 20.3568785287947  59.6653054207028 20.3568785287947  C 59.6653054207028 20.3568785287947  56.7932434624575 15.6452186868083  56.7932434624575 15.6452186868083  C 56.7932434624575 15.6452186868083  56.9828602290673 14.413031194002  56.9828602290673 14.413031194002  C 56.9828602290673 14.413031194002  53.5950406656436 11.5385970753842  53.5950406656436 11.5385970753842  C 53.5950406656436 11.5385970753842  48.0177795037688 5.42590186229541  48.0177795037688 5.42590186229541  C 48.0177795037688 5.42590186229541  45.052173273996 0.583585924008297  45.052173273996 0.583585924008297  C 45.052173273996 0.583585924008297  47.6815257709815 0.0489009760695909  47.6815257709815 0.0489009760695909  C 47.6815257709815 0.0489009760695909  51.5395949155963 3.84194795637168  51.5395949155963 3.84194795637168  C 51.5395949155963 3.84194795637168  57.0561787121559 5.62088095985192  57.0561787121559 5.62088095985192  Z " stroke-width="2" stroke="#505050" fill="none" stroke-opacity="0.211764705882353" transform="matrix(1 0 0 1 3023 4546 )" mask="url(#clip187)" />
  </g>
</svg>