<?xml version="1.0" encoding="utf-8"?>
<svg version="1.1" xmlns:xlink="http://www.w3.org/1999/xlink" width="60px" height="60px" xmlns="http://www.w3.org/2000/svg">
  <defs>
    <mask fill="white" id="clip191">
      <path d="M 54.6354863962568 29.8664282954919  C 54.6354863962568 29.8664282954919  51.6773116114783 31.750235757541  51.6773116114783 31.750235757541  C 51.6773116114783 31.750235757541  49.0569994290222 37.1941880185812  49.0569994290222 37.1941880185812  C 49.0569994290222 37.1941880185812  45.8760855953051 36.8874302272661  45.8760855953051 36.8874302272661  C 45.8760855953051 36.8874302272661  44.4170196904609 38.2796386647725  44.4170196904609 38.2796386647725  C 44.4170196904609 38.2796386647725  43.290811016053 41.2370983964245  43.290811016053 41.2370983964245  C 43.290811016053 41.2370983964245  44.1542376664322 45.1207306903156  44.1542376664322 45.1207306903156  C 44.1542376664322 45.1207306903156  43.4910258915033 45.8325660778542  43.4910258915033 45.8325660778542  C 43.4910258915033 45.8325660778542  40.2625610248668 45.8129021168725  40.2625610248668 45.8129021168725  C 40.2625610248668 45.8129021168725  35.8803579384481 47.9759378248627  35.8803579384481 47.9759378248627  C 35.8803579384481 47.9759378248627  35.197124675974 50.7878842452497  35.197124675974 50.7878842452497  C 35.197124675974 50.7878842452497  33.5904003004849 52.0031170339205  33.5904003004849 52.0031170339205  C 33.5904003004849 52.0031170339205  27.4075341974859 51.9578899236626  27.4075341974859 51.9578899236626  C 27.4075341974859 51.9578899236626  24.6595850319301 53.4071238480159  24.6595850319301 53.4071238480159  C 24.6595850319301 53.4071238480159  24.6946226351342 55.7274712438597  24.6946226351342 55.7274712438597  C 24.6946226351342 55.7274712438597  21.3009804962514 57.3202520833797  21.3009804962514 57.3202520833797  C 21.3009804962514 57.3202520833797  17.4293253422308 56.7794931563822  17.4293253422308 56.7794931563822  C 17.4293253422308 56.7794931563822  12.7367891988636 58.710494124788  12.7367891988636 58.710494124788  C 12.7367891988636 58.710494124788  9.49330821656862 59.0349494809867  9.49330821656862 59.0349494809867  C 9.49330821656862 59.0349494809867  7.20335057860542 55.0313670251067  7.20335057860542 55.0313670251067  C 7.20335057860542 55.0313670251067  1.71746299126674 45.5120435138523  1.71746299126674 45.5120435138523  C 1.71746299126674 45.5120435138523  22.7675544589246 39.6974102515553  22.7675544589246 39.6974102515553  C 22.7675544589246 39.6974102515553  27.4450744866325 26.5255213246961  27.4450744866325 26.5255213246961  C 27.4450744866325 26.5255213246961  24.2291230497122 22.3272656550973  24.2291230497122 22.3272656550973  C 24.2291230497122 22.3272656550973  24.4118191235603 19.9302288114248  24.4118191235603 19.9302288114248  C 24.4118191235603 19.9302288114248  26.4565135390967 17.4604353121198  26.4565135390967 17.4604353121198  C 26.4565135390967 17.4604353121198  26.4765350266419 15.0122721698946  26.4765350266419 15.0122721698946  C 26.4765350266419 15.0122721698946  31.4706253066548 13.8304681148929  31.4706253066548 13.8304681148929  C 31.4706253066548 13.8304681148929  28.4111112606805 12.9947497731694  28.4111112606805 12.9947497731694  C 28.4111112606805 12.9947497731694  28.9842263416573 9.06785676511813  28.9842263416573 9.06785676511813  C 28.9842263416573 9.06785676511813  34.3887571163433 9.04426001194029  34.3887571163433 9.04426001194029  C 34.3887571163433 9.04426001194029  37.5346333468563 13.1638598376123  37.5346333468563 13.1638598376123  C 37.5346333468563 13.1638598376123  41.4513368478534 15.3426267143878  41.4513368478534 15.3426267143878  C 41.4513368478534 15.3426267143878  46.5993618328697 16.1252523614605  46.5993618328697 16.1252523614605  C 46.5993618328697 16.1252523614605  50.7538204984638 17.2166021959463  50.7538204984638 17.2166021959463  C 50.7538204984638 17.2166021959463  53.922220902465 20.6381314067669  53.922220902465 20.6381314067669  C 53.922220902465 20.6381314067669  55.8142514754705 22.6143594854307  55.8142514754705 22.6143594854307  C 55.8142514754705 22.6143594854307  58.3269481623719 23.3655227949326  58.3269481623719 23.3655227949326  C 58.3269481623719 23.3655227949326  58.3119320467131 24.6889073690029  58.3119320467131 24.6889073690029  C 58.3119320467131 24.6889073690029  55.7566896987787 28.2126891769287  55.7566896987787 28.2126891769287  C 55.7566896987787 28.2126891769287  54.6354863962568 29.8664282954919  54.6354863962568 29.8664282954919  Z M 35.0094232302387 0.626118315662032  C 35.0094232302387 0.626118315662032  34.3462114553098 4.57757593818899  34.3462114553098 4.57757593818899  C 34.3462114553098 4.57757593818899  31.6145492678854 5.68269054536229  31.6145492678854 5.68269054536229  C 31.6145492678854 5.68269054536229  30.2781149742548 3.60420986959363  30.2781149742548 3.60420986959363  C 30.2781149742548 3.60420986959363  34.140991207973 0.093224973057074  34.140991207973 0.093224973057074  C 34.140991207973 0.093224973057074  35.0094232302387 0.626118315662032  35.0094232302387 0.626118315662032  Z " fill-rule="evenodd" />
    </mask>
  </defs>
  <g transform="matrix(1 0 0 1 -2207 -4191 )">
    <path d="M 54.6354863962568 29.8664282954919  C 54.6354863962568 29.8664282954919  51.6773116114783 31.750235757541  51.6773116114783 31.750235757541  C 51.6773116114783 31.750235757541  49.0569994290222 37.1941880185812  49.0569994290222 37.1941880185812  C 49.0569994290222 37.1941880185812  45.8760855953051 36.8874302272661  45.8760855953051 36.8874302272661  C 45.8760855953051 36.8874302272661  44.4170196904609 38.2796386647725  44.4170196904609 38.2796386647725  C 44.4170196904609 38.2796386647725  43.290811016053 41.2370983964245  43.290811016053 41.2370983964245  C 43.290811016053 41.2370983964245  44.1542376664322 45.1207306903156  44.1542376664322 45.1207306903156  C 44.1542376664322 45.1207306903156  43.4910258915033 45.8325660778542  43.4910258915033 45.8325660778542  C 43.4910258915033 45.8325660778542  40.2625610248668 45.8129021168725  40.2625610248668 45.8129021168725  C 40.2625610248668 45.8129021168725  35.8803579384481 47.9759378248627  35.8803579384481 47.9759378248627  C 35.8803579384481 47.9759378248627  35.197124675974 50.7878842452497  35.197124675974 50.7878842452497  C 35.197124675974 50.7878842452497  33.5904003004849 52.0031170339205  33.5904003004849 52.0031170339205  C 33.5904003004849 52.0031170339205  27.4075341974859 51.9578899236626  27.4075341974859 51.9578899236626  C 27.4075341974859 51.9578899236626  24.6595850319301 53.4071238480159  24.6595850319301 53.4071238480159  C 24.6595850319301 53.4071238480159  24.6946226351342 55.7274712438597  24.6946226351342 55.7274712438597  C 24.6946226351342 55.7274712438597  21.3009804962514 57.3202520833797  21.3009804962514 57.3202520833797  C 21.3009804962514 57.3202520833797  17.4293253422308 56.7794931563822  17.4293253422308 56.7794931563822  C 17.4293253422308 56.7794931563822  12.7367891988636 58.710494124788  12.7367891988636 58.710494124788  C 12.7367891988636 58.710494124788  9.49330821656862 59.0349494809867  9.49330821656862 59.0349494809867  C 9.49330821656862 59.0349494809867  7.20335057860542 55.0313670251067  7.20335057860542 55.0313670251067  C 7.20335057860542 55.0313670251067  1.71746299126674 45.5120435138523  1.71746299126674 45.5120435138523  C 1.71746299126674 45.5120435138523  22.7675544589246 39.6974102515553  22.7675544589246 39.6974102515553  C 22.7675544589246 39.6974102515553  27.4450744866325 26.5255213246961  27.4450744866325 26.5255213246961  C 27.4450744866325 26.5255213246961  24.2291230497122 22.3272656550973  24.2291230497122 22.3272656550973  C 24.2291230497122 22.3272656550973  24.4118191235603 19.9302288114248  24.4118191235603 19.9302288114248  C 24.4118191235603 19.9302288114248  26.4565135390967 17.4604353121198  26.4565135390967 17.4604353121198  C 26.4565135390967 17.4604353121198  26.4765350266419 15.0122721698946  26.4765350266419 15.0122721698946  C 26.4765350266419 15.0122721698946  31.4706253066548 13.8304681148929  31.4706253066548 13.8304681148929  C 31.4706253066548 13.8304681148929  28.4111112606805 12.9947497731694  28.4111112606805 12.9947497731694  C 28.4111112606805 12.9947497731694  28.9842263416573 9.06785676511813  28.9842263416573 9.06785676511813  C 28.9842263416573 9.06785676511813  34.3887571163433 9.04426001194029  34.3887571163433 9.04426001194029  C 34.3887571163433 9.04426001194029  37.5346333468563 13.1638598376123  37.5346333468563 13.1638598376123  C 37.5346333468563 13.1638598376123  41.4513368478534 15.3426267143878  41.4513368478534 15.3426267143878  C 41.4513368478534 15.3426267143878  46.5993618328697 16.1252523614605  46.5993618328697 16.1252523614605  C 46.5993618328697 16.1252523614605  50.7538204984638 17.2166021959463  50.7538204984638 17.2166021959463  C 50.7538204984638 17.2166021959463  53.922220902465 20.6381314067669  53.922220902465 20.6381314067669  C 53.922220902465 20.6381314067669  55.8142514754705 22.6143594854307  55.8142514754705 22.6143594854307  C 55.8142514754705 22.6143594854307  58.3269481623719 23.3655227949326  58.3269481623719 23.3655227949326  C 58.3269481623719 23.3655227949326  58.3119320467131 24.6889073690029  58.3119320467131 24.6889073690029  C 58.3119320467131 24.6889073690029  55.7566896987787 28.2126891769287  55.7566896987787 28.2126891769287  C 55.7566896987787 28.2126891769287  54.6354863962568 29.8664282954919  54.6354863962568 29.8664282954919  Z M 35.0094232302387 0.626118315662032  C 35.0094232302387 0.626118315662032  34.3462114553098 4.57757593818899  34.3462114553098 4.57757593818899  C 34.3462114553098 4.57757593818899  31.6145492678854 5.68269054536229  31.6145492678854 5.68269054536229  C 31.6145492678854 5.68269054536229  30.2781149742548 3.60420986959363  30.2781149742548 3.60420986959363  C 30.2781149742548 3.60420986959363  34.140991207973 0.093224973057074  34.140991207973 0.093224973057074  C 34.140991207973 0.093224973057074  35.0094232302387 0.626118315662032  35.0094232302387 0.626118315662032  Z " fill-rule="nonzero" fill="#f2f2f2" stroke="none" transform="matrix(1 0 0 1 2207 4191 )" />
    <path d="M 54.6354863962568 29.8664282954919  C 54.6354863962568 29.8664282954919  51.6773116114783 31.750235757541  51.6773116114783 31.750235757541  C 51.6773116114783 31.750235757541  49.0569994290222 37.1941880185812  49.0569994290222 37.1941880185812  C 49.0569994290222 37.1941880185812  45.8760855953051 36.8874302272661  45.8760855953051 36.8874302272661  C 45.8760855953051 36.8874302272661  44.4170196904609 38.2796386647725  44.4170196904609 38.2796386647725  C 44.4170196904609 38.2796386647725  43.290811016053 41.2370983964245  43.290811016053 41.2370983964245  C 43.290811016053 41.2370983964245  44.1542376664322 45.1207306903156  44.1542376664322 45.1207306903156  C 44.1542376664322 45.1207306903156  43.4910258915033 45.8325660778542  43.4910258915033 45.8325660778542  C 43.4910258915033 45.8325660778542  40.2625610248668 45.8129021168725  40.2625610248668 45.8129021168725  C 40.2625610248668 45.8129021168725  35.8803579384481 47.9759378248627  35.8803579384481 47.9759378248627  C 35.8803579384481 47.9759378248627  35.197124675974 50.7878842452497  35.197124675974 50.7878842452497  C 35.197124675974 50.7878842452497  33.5904003004849 52.0031170339205  33.5904003004849 52.0031170339205  C 33.5904003004849 52.0031170339205  27.4075341974859 51.9578899236626  27.4075341974859 51.9578899236626  C 27.4075341974859 51.9578899236626  24.6595850319301 53.4071238480159  24.6595850319301 53.4071238480159  C 24.6595850319301 53.4071238480159  24.6946226351342 55.7274712438597  24.6946226351342 55.7274712438597  C 24.6946226351342 55.7274712438597  21.3009804962514 57.3202520833797  21.3009804962514 57.3202520833797  C 21.3009804962514 57.3202520833797  17.4293253422308 56.7794931563822  17.4293253422308 56.7794931563822  C 17.4293253422308 56.7794931563822  12.7367891988636 58.710494124788  12.7367891988636 58.710494124788  C 12.7367891988636 58.710494124788  9.49330821656862 59.0349494809867  9.49330821656862 59.0349494809867  C 9.49330821656862 59.0349494809867  7.20335057860542 55.0313670251067  7.20335057860542 55.0313670251067  C 7.20335057860542 55.0313670251067  1.71746299126674 45.5120435138523  1.71746299126674 45.5120435138523  C 1.71746299126674 45.5120435138523  22.7675544589246 39.6974102515553  22.7675544589246 39.6974102515553  C 22.7675544589246 39.6974102515553  27.4450744866325 26.5255213246961  27.4450744866325 26.5255213246961  C 27.4450744866325 26.5255213246961  24.2291230497122 22.3272656550973  24.2291230497122 22.3272656550973  C 24.2291230497122 22.3272656550973  24.4118191235603 19.9302288114248  24.4118191235603 19.9302288114248  C 24.4118191235603 19.9302288114248  26.4565135390967 17.4604353121198  26.4565135390967 17.4604353121198  C 26.4565135390967 17.4604353121198  26.4765350266419 15.0122721698946  26.4765350266419 15.0122721698946  C 26.4765350266419 15.0122721698946  31.4706253066548 13.8304681148929  31.4706253066548 13.8304681148929  C 31.4706253066548 13.8304681148929  28.4111112606805 12.9947497731694  28.4111112606805 12.9947497731694  C 28.4111112606805 12.9947497731694  28.9842263416573 9.06785676511813  28.9842263416573 9.06785676511813  C 28.9842263416573 9.06785676511813  34.3887571163433 9.04426001194029  34.3887571163433 9.04426001194029  C 34.3887571163433 9.04426001194029  37.5346333468563 13.1638598376123  37.5346333468563 13.1638598376123  C 37.5346333468563 13.1638598376123  41.4513368478534 15.3426267143878  41.4513368478534 15.3426267143878  C 41.4513368478534 15.3426267143878  46.5993618328697 16.1252523614605  46.5993618328697 16.1252523614605  C 46.5993618328697 16.1252523614605  50.7538204984638 17.2166021959463  50.7538204984638 17.2166021959463  C 50.7538204984638 17.2166021959463  53.922220902465 20.6381314067669  53.922220902465 20.6381314067669  C 53.922220902465 20.6381314067669  55.8142514754705 22.6143594854307  55.8142514754705 22.6143594854307  C 55.8142514754705 22.6143594854307  58.3269481623719 23.3655227949326  58.3269481623719 23.3655227949326  C 58.3269481623719 23.3655227949326  58.3119320467131 24.6889073690029  58.3119320467131 24.6889073690029  C 58.3119320467131 24.6889073690029  55.7566896987787 28.2126891769287  55.7566896987787 28.2126891769287  C 55.7566896987787 28.2126891769287  54.6354863962568 29.8664282954919  54.6354863962568 29.8664282954919  Z " stroke-width="2" stroke="#505050" fill="none" stroke-opacity="0.211764705882353" transform="matrix(1 0 0 1 2207 4191 )" mask="url(#clip191)" />
    <path d="M 35.0094232302387 0.626118315662032  C 35.0094232302387 0.626118315662032  34.3462114553098 4.57757593818899  34.3462114553098 4.57757593818899  C 34.3462114553098 4.57757593818899  31.6145492678854 5.68269054536229  31.6145492678854 5.68269054536229  C 31.6145492678854 5.68269054536229  30.2781149742548 3.60420986959363  30.2781149742548 3.60420986959363  C 30.2781149742548 3.60420986959363  34.140991207973 0.093224973057074  34.140991207973 0.093224973057074  C 34.140991207973 0.093224973057074  35.0094232302387 0.626118315662032  35.0094232302387 0.626118315662032  Z " stroke-width="2" stroke="#505050" fill="none" stroke-opacity="0.211764705882353" transform="matrix(1 0 0 1 2207 4191 )" mask="url(#clip191)" />
  </g>
</svg>