<?xml version="1.0" encoding="utf-8"?>
<svg version="1.1" xmlns:xlink="http://www.w3.org/1999/xlink" width="44px" height="17px" xmlns="http://www.w3.org/2000/svg">
  <defs>
    <mask fill="white" id="clip192">
      <path d="M 38.8062272300272 13.0475451173322  C 38.8062272300272 13.0475451173322  37.9002757743305 15.9512864828476  37.9002757743305 15.9512864828476  C 37.9002757743305 15.9512864828476  35.5407643228646 14.2281872110032  35.5407643228646 14.2281872110032  C 35.5407643228646 14.2281872110032  34.0241157856123 10.9989715385838  34.0241157856123 10.9989715385838  C 34.0241157856123 10.9989715385838  35.7729301555223 9.40138196678758  35.7729301555223 9.40138196678758  C 35.7729301555223 9.40138196678758  33.9812155774039 8.98868905476545  33.9812155774039 8.98868905476545  C 33.9812155774039 8.98868905476545  32.6588797479192 5.46486127126753  32.6588797479192 5.46486127126753  C 32.6588797479192 5.46486127126753  29.1334920498467 3.79919864181817  29.1334920498467 3.79919864181817  C 29.1334920498467 3.79919864181817  26.0396299755183 4.17998230806494  26.0396299755183 4.17998230806494  C 26.0396299755183 4.17998230806494  24.6037347713643 6.26471969869143  24.6037347713643 6.26471969869143  C 24.6037347713643 6.26471969869143  19.9112287380195 9.31629064472101  19.9112287380195 9.31629064472101  C 19.9112287380195 9.31629064472101  18.369344784174 9.5247643837838  18.369344784174 9.5247643837838  C 18.369344784174 9.5247643837838  17.6753708278605 10.7713522520564  17.6753708278605 10.7713522520564  C 17.6753708278605 10.7713522520564  22.8852029013662 14.0175861888889  22.8852029013662 14.0175861888889  C 22.8852029013662 14.0175861888889  19.1188366569925 14.7812808044347  19.1188366569925 14.7812808044347  C 19.1188366569925 14.7812808044347  18.0968022849671 15.6662305539252  18.0968022849671 15.6662305539252  C 18.0968022849671 15.6662305539252  14.8035804195522 15.9704320303126  14.8035804195522 15.9704320303126  C 14.8035804195522 15.9704320303126  13.5796627147813 12.4008510696276  13.5796627147813 12.4008510696276  C 13.5796627147813 12.4008510696276  12.6585700091289 13.4176923683209  12.6585700091289 13.4176923683209  C 12.6585700091289 13.4176923683209  10.3242939742561 13.0645633817453  10.3242939742561 13.0645633817453  C 10.3242939742561 13.0645633817453  8.8984929367395 10.6586062503183  8.8984929367395 10.6586062503183  C 8.8984929367395 10.6586062503183  5.99642002851948 10.260804319658  5.99642002851948 10.260804319658  C 5.99642002851948 10.260804319658  4.15928170053314 9.56092819566191  4.15928170053314 9.56092819566191  C 4.15928170053314 9.56092819566191  1.12346108436909 9.56943732786846  1.12346108436909 9.56943732786846  C 1.12346108436909 9.56943732786846  0.903912960008161 10.8692072724326  0.903912960008161 10.8692072724326  C 0.903912960008161 10.8692072724326  0.0913325457065639 9.96298469242559  0.0913325457065639 9.96298469242559  C 0.0913325457065639 9.96298469242559  0.4648167112861 7.23050620414502  0.4648167112861 7.23050620414502  C 0.4648167112861 7.23050620414502  1.05532545956737 6.01582758164744  1.05532545956737 6.01582758164744  C 1.05532545956737 6.01582758164744  0.777735877042119 4.93091322530108  0.777735877042119 4.93091322530108  C 0.777735877042119 4.93091322530108  1.83762337395721 4.2204006860465  1.83762337395721 4.2204006860465  C 1.83762337395721 4.2204006860465  0.363875044913224 3.32906908740138  0.363875044913224 3.32906908740138  C 0.363875044913224 3.32906908740138  0.323498378364282 0.912475540715873  0.323498378364282 0.912475540715873  C 0.323498378364282 0.912475540715873  3.0615410787283 0.374272928645971  3.0615410787283 0.374272928645971  C 3.0615410787283 0.374272928645971  5.60274752966516 2.52921065997713  5.60274752966516 2.52921065997713  C 5.60274752966516 2.52921065997713  5.45638211342454 3.80132592486972  5.45638211342454 3.80132592486972  C 5.45638211342454 3.80132592486972  8.28022523020566 4.07149087243062  8.28022523020566 4.07149087243062  C 8.28022523020566 4.07149087243062  8.94896376992584 3.58221577054883  8.94896376992584 3.58221577054883  C 8.94896376992584 3.58221577054883  10.8920908476036 5.05642292534886  10.8920908476036 5.05642292534886  C 10.8920908476036 5.05642292534886  14.3745783374675 4.62245718281017  14.3745783374675 4.62245718281017  C 14.3745783374675 4.62245718281017  17.382639995379 3.10783165002859  17.382639995379 3.10783165002859  C 17.382639995379 3.10783165002859  23.5135647745373 1.89740759363446  23.5135647745373 1.89740759363446  C 23.5135647745373 1.89740759363446  25.9285941425083 0.10198069803352  25.9285941425083 0.10198069803352  C 25.9285941425083 0.10198069803352  29.8350366311383 0.455109684609087  29.8350366311383 0.455109684609087  C 29.8350366311383 0.455109684609087  29.5725882985688 1.04649437297055  29.5725882985688 1.04649437297055  C 29.5725882985688 1.04649437297055  33.5168839120887 1.25071354592989  33.5168839120887 1.25071354592989  C 33.5168839120887 1.25071354592989  36.6662639029222 2.28882767513968  36.6662639029222 2.28882767513968  C 36.6662639029222 2.28882767513968  38.9753045212016 4.09276370294717  38.9753045212016 4.09276370294717  C 38.9753045212016 4.09276370294717  41.6376409717859 5.74991720018999  41.6376409717859 5.74991720018999  C 41.6376409717859 5.74991720018999  40.7771132659572 6.6263578174739  40.7771132659572 6.6263578174739  C 40.7771132659572 6.6263578174739  42.4199388861757 11.69884766258  42.4199388861757 11.69884766258  C 42.4199388861757 11.69884766258  41.0849853483946 13.4751290107159  41.0849853483946 13.4751290107159  C 41.0849853483946 13.4751290107159  38.8062272300272 13.0475451173322  38.8062272300272 13.0475451173322  Z " fill-rule="evenodd" />
    </mask>
  </defs>
  <g transform="matrix(1 0 0 1 -1250 -4288 )">
    <path d="M 38.8062272300272 13.0475451173322  C 38.8062272300272 13.0475451173322  37.9002757743305 15.9512864828476  37.9002757743305 15.9512864828476  C 37.9002757743305 15.9512864828476  35.5407643228646 14.2281872110032  35.5407643228646 14.2281872110032  C 35.5407643228646 14.2281872110032  34.0241157856123 10.9989715385838  34.0241157856123 10.9989715385838  C 34.0241157856123 10.9989715385838  35.7729301555223 9.40138196678758  35.7729301555223 9.40138196678758  C 35.7729301555223 9.40138196678758  33.9812155774039 8.98868905476545  33.9812155774039 8.98868905476545  C 33.9812155774039 8.98868905476545  32.6588797479192 5.46486127126753  32.6588797479192 5.46486127126753  C 32.6588797479192 5.46486127126753  29.1334920498467 3.79919864181817  29.1334920498467 3.79919864181817  C 29.1334920498467 3.79919864181817  26.0396299755183 4.17998230806494  26.0396299755183 4.17998230806494  C 26.0396299755183 4.17998230806494  24.6037347713643 6.26471969869143  24.6037347713643 6.26471969869143  C 24.6037347713643 6.26471969869143  19.9112287380195 9.31629064472101  19.9112287380195 9.31629064472101  C 19.9112287380195 9.31629064472101  18.369344784174 9.5247643837838  18.369344784174 9.5247643837838  C 18.369344784174 9.5247643837838  17.6753708278605 10.7713522520564  17.6753708278605 10.7713522520564  C 17.6753708278605 10.7713522520564  22.8852029013662 14.0175861888889  22.8852029013662 14.0175861888889  C 22.8852029013662 14.0175861888889  19.1188366569925 14.7812808044347  19.1188366569925 14.7812808044347  C 19.1188366569925 14.7812808044347  18.0968022849671 15.6662305539252  18.0968022849671 15.6662305539252  C 18.0968022849671 15.6662305539252  14.8035804195522 15.9704320303126  14.8035804195522 15.9704320303126  C 14.8035804195522 15.9704320303126  13.5796627147813 12.4008510696276  13.5796627147813 12.4008510696276  C 13.5796627147813 12.4008510696276  12.6585700091289 13.4176923683209  12.6585700091289 13.4176923683209  C 12.6585700091289 13.4176923683209  10.3242939742561 13.0645633817453  10.3242939742561 13.0645633817453  C 10.3242939742561 13.0645633817453  8.8984929367395 10.6586062503183  8.8984929367395 10.6586062503183  C 8.8984929367395 10.6586062503183  5.99642002851948 10.260804319658  5.99642002851948 10.260804319658  C 5.99642002851948 10.260804319658  4.15928170053314 9.56092819566191  4.15928170053314 9.56092819566191  C 4.15928170053314 9.56092819566191  1.12346108436909 9.56943732786846  1.12346108436909 9.56943732786846  C 1.12346108436909 9.56943732786846  0.903912960008161 10.8692072724326  0.903912960008161 10.8692072724326  C 0.903912960008161 10.8692072724326  0.0913325457065639 9.96298469242559  0.0913325457065639 9.96298469242559  C 0.0913325457065639 9.96298469242559  0.4648167112861 7.23050620414502  0.4648167112861 7.23050620414502  C 0.4648167112861 7.23050620414502  1.05532545956737 6.01582758164744  1.05532545956737 6.01582758164744  C 1.05532545956737 6.01582758164744  0.777735877042119 4.93091322530108  0.777735877042119 4.93091322530108  C 0.777735877042119 4.93091322530108  1.83762337395721 4.2204006860465  1.83762337395721 4.2204006860465  C 1.83762337395721 4.2204006860465  0.363875044913224 3.32906908740138  0.363875044913224 3.32906908740138  C 0.363875044913224 3.32906908740138  0.323498378364282 0.912475540715873  0.323498378364282 0.912475540715873  C 0.323498378364282 0.912475540715873  3.0615410787283 0.374272928645971  3.0615410787283 0.374272928645971  C 3.0615410787283 0.374272928645971  5.60274752966516 2.52921065997713  5.60274752966516 2.52921065997713  C 5.60274752966516 2.52921065997713  5.45638211342454 3.80132592486972  5.45638211342454 3.80132592486972  C 5.45638211342454 3.80132592486972  8.28022523020566 4.07149087243062  8.28022523020566 4.07149087243062  C 8.28022523020566 4.07149087243062  8.94896376992584 3.58221577054883  8.94896376992584 3.58221577054883  C 8.94896376992584 3.58221577054883  10.8920908476036 5.05642292534886  10.8920908476036 5.05642292534886  C 10.8920908476036 5.05642292534886  14.3745783374675 4.62245718281017  14.3745783374675 4.62245718281017  C 14.3745783374675 4.62245718281017  17.382639995379 3.10783165002859  17.382639995379 3.10783165002859  C 17.382639995379 3.10783165002859  23.5135647745373 1.89740759363446  23.5135647745373 1.89740759363446  C 23.5135647745373 1.89740759363446  25.9285941425083 0.10198069803352  25.9285941425083 0.10198069803352  C 25.9285941425083 0.10198069803352  29.8350366311383 0.455109684609087  29.8350366311383 0.455109684609087  C 29.8350366311383 0.455109684609087  29.5725882985688 1.04649437297055  29.5725882985688 1.04649437297055  C 29.5725882985688 1.04649437297055  33.5168839120887 1.25071354592989  33.5168839120887 1.25071354592989  C 33.5168839120887 1.25071354592989  36.6662639029222 2.28882767513968  36.6662639029222 2.28882767513968  C 36.6662639029222 2.28882767513968  38.9753045212016 4.09276370294717  38.9753045212016 4.09276370294717  C 38.9753045212016 4.09276370294717  41.6376409717859 5.74991720018999  41.6376409717859 5.74991720018999  C 41.6376409717859 5.74991720018999  40.7771132659572 6.6263578174739  40.7771132659572 6.6263578174739  C 40.7771132659572 6.6263578174739  42.4199388861757 11.69884766258  42.4199388861757 11.69884766258  C 42.4199388861757 11.69884766258  41.0849853483946 13.4751290107159  41.0849853483946 13.4751290107159  C 41.0849853483946 13.4751290107159  38.8062272300272 13.0475451173322  38.8062272300272 13.0475451173322  Z " fill-rule="nonzero" fill="#f2f2f2" stroke="none" transform="matrix(1 0 0 1 1250 4288 )" />
    <path d="M 38.8062272300272 13.0475451173322  C 38.8062272300272 13.0475451173322  37.9002757743305 15.9512864828476  37.9002757743305 15.9512864828476  C 37.9002757743305 15.9512864828476  35.5407643228646 14.2281872110032  35.5407643228646 14.2281872110032  C 35.5407643228646 14.2281872110032  34.0241157856123 10.9989715385838  34.0241157856123 10.9989715385838  C 34.0241157856123 10.9989715385838  35.7729301555223 9.40138196678758  35.7729301555223 9.40138196678758  C 35.7729301555223 9.40138196678758  33.9812155774039 8.98868905476545  33.9812155774039 8.98868905476545  C 33.9812155774039 8.98868905476545  32.6588797479192 5.46486127126753  32.6588797479192 5.46486127126753  C 32.6588797479192 5.46486127126753  29.1334920498467 3.79919864181817  29.1334920498467 3.79919864181817  C 29.1334920498467 3.79919864181817  26.0396299755183 4.17998230806494  26.0396299755183 4.17998230806494  C 26.0396299755183 4.17998230806494  24.6037347713643 6.26471969869143  24.6037347713643 6.26471969869143  C 24.6037347713643 6.26471969869143  19.9112287380195 9.31629064472101  19.9112287380195 9.31629064472101  C 19.9112287380195 9.31629064472101  18.369344784174 9.5247643837838  18.369344784174 9.5247643837838  C 18.369344784174 9.5247643837838  17.6753708278605 10.7713522520564  17.6753708278605 10.7713522520564  C 17.6753708278605 10.7713522520564  22.8852029013662 14.0175861888889  22.8852029013662 14.0175861888889  C 22.8852029013662 14.0175861888889  19.1188366569925 14.7812808044347  19.1188366569925 14.7812808044347  C 19.1188366569925 14.7812808044347  18.0968022849671 15.6662305539252  18.0968022849671 15.6662305539252  C 18.0968022849671 15.6662305539252  14.8035804195522 15.9704320303126  14.8035804195522 15.9704320303126  C 14.8035804195522 15.9704320303126  13.5796627147813 12.4008510696276  13.5796627147813 12.4008510696276  C 13.5796627147813 12.4008510696276  12.6585700091289 13.4176923683209  12.6585700091289 13.4176923683209  C 12.6585700091289 13.4176923683209  10.3242939742561 13.0645633817453  10.3242939742561 13.0645633817453  C 10.3242939742561 13.0645633817453  8.8984929367395 10.6586062503183  8.8984929367395 10.6586062503183  C 8.8984929367395 10.6586062503183  5.99642002851948 10.260804319658  5.99642002851948 10.260804319658  C 5.99642002851948 10.260804319658  4.15928170053314 9.56092819566191  4.15928170053314 9.56092819566191  C 4.15928170053314 9.56092819566191  1.12346108436909 9.56943732786846  1.12346108436909 9.56943732786846  C 1.12346108436909 9.56943732786846  0.903912960008161 10.8692072724326  0.903912960008161 10.8692072724326  C 0.903912960008161 10.8692072724326  0.0913325457065639 9.96298469242559  0.0913325457065639 9.96298469242559  C 0.0913325457065639 9.96298469242559  0.4648167112861 7.23050620414502  0.4648167112861 7.23050620414502  C 0.4648167112861 7.23050620414502  1.05532545956737 6.01582758164744  1.05532545956737 6.01582758164744  C 1.05532545956737 6.01582758164744  0.777735877042119 4.93091322530108  0.777735877042119 4.93091322530108  C 0.777735877042119 4.93091322530108  1.83762337395721 4.2204006860465  1.83762337395721 4.2204006860465  C 1.83762337395721 4.2204006860465  0.363875044913224 3.32906908740138  0.363875044913224 3.32906908740138  C 0.363875044913224 3.32906908740138  0.323498378364282 0.912475540715873  0.323498378364282 0.912475540715873  C 0.323498378364282 0.912475540715873  3.0615410787283 0.374272928645971  3.0615410787283 0.374272928645971  C 3.0615410787283 0.374272928645971  5.60274752966516 2.52921065997713  5.60274752966516 2.52921065997713  C 5.60274752966516 2.52921065997713  5.45638211342454 3.80132592486972  5.45638211342454 3.80132592486972  C 5.45638211342454 3.80132592486972  8.28022523020566 4.07149087243062  8.28022523020566 4.07149087243062  C 8.28022523020566 4.07149087243062  8.94896376992584 3.58221577054883  8.94896376992584 3.58221577054883  C 8.94896376992584 3.58221577054883  10.8920908476036 5.05642292534886  10.8920908476036 5.05642292534886  C 10.8920908476036 5.05642292534886  14.3745783374675 4.62245718281017  14.3745783374675 4.62245718281017  C 14.3745783374675 4.62245718281017  17.382639995379 3.10783165002859  17.382639995379 3.10783165002859  C 17.382639995379 3.10783165002859  23.5135647745373 1.89740759363446  23.5135647745373 1.89740759363446  C 23.5135647745373 1.89740759363446  25.9285941425083 0.10198069803352  25.9285941425083 0.10198069803352  C 25.9285941425083 0.10198069803352  29.8350366311383 0.455109684609087  29.8350366311383 0.455109684609087  C 29.8350366311383 0.455109684609087  29.5725882985688 1.04649437297055  29.5725882985688 1.04649437297055  C 29.5725882985688 1.04649437297055  33.5168839120887 1.25071354592989  33.5168839120887 1.25071354592989  C 33.5168839120887 1.25071354592989  36.6662639029222 2.28882767513968  36.6662639029222 2.28882767513968  C 36.6662639029222 2.28882767513968  38.9753045212016 4.09276370294717  38.9753045212016 4.09276370294717  C 38.9753045212016 4.09276370294717  41.6376409717859 5.74991720018999  41.6376409717859 5.74991720018999  C 41.6376409717859 5.74991720018999  40.7771132659572 6.6263578174739  40.7771132659572 6.6263578174739  C 40.7771132659572 6.6263578174739  42.4199388861757 11.69884766258  42.4199388861757 11.69884766258  C 42.4199388861757 11.69884766258  41.0849853483946 13.4751290107159  41.0849853483946 13.4751290107159  C 41.0849853483946 13.4751290107159  38.8062272300272 13.0475451173322  38.8062272300272 13.0475451173322  Z " stroke-width="2" stroke="#505050" fill="none" stroke-opacity="0.211764705882353" transform="matrix(1 0 0 1 1250 4288 )" mask="url(#clip192)" />
  </g>
</svg>