<?xml version="1.0" encoding="utf-8"?>
<svg version="1.1" xmlns:xlink="http://www.w3.org/1999/xlink" width="95px" height="105px" xmlns="http://www.w3.org/2000/svg">
  <defs>
    <mask fill="white" id="clip193">
      <path d="M 91.4709485167384 93.8539357683253  C 91.4709485167384 93.8539357683253  86.9377500450843 100.082589688553  86.9377500450843 100.082589688553  C 86.9377500450843 100.082589688553  85.0096022788603 103.054366400015  85.0096022788603 103.054366400015  C 85.0096022788603 103.054366400015  81.3122763760742 104.5372849589  81.3122763760742 104.5372849589  C 81.3122763760742 104.5372849589  74.1047984892982 101.20517289668  74.1047984892982 101.20517289668  C 74.1047984892982 101.20517289668  73.4817401020742 98.8313152837264  73.4817401020742 98.8313152837264  C 73.4817401020742 98.8313152837264  59.2283179844688 93.0421912968399  59.2283179844688 93.0421912968399  C 59.2283179844688 93.0421912968399  44.4736487260916 86.7699803561917  44.4736487260916 86.7699803561917  C 44.4736487260916 86.7699803561917  38.9276598719125 83.2517610248998  38.9276598719125 83.2517610248998  C 38.9276598719125 83.2517610248998  35.9508253551756 78.5495826839779  35.9508253551756 78.5495826839779  C 35.9508253551756 78.5495826839779  37.1302774462169 76.9122346890549  37.1302774462169 76.9122346890549  C 37.1302774462169 76.9122346890549  31.0432790459301 69.4877425718102  31.0432790459301 69.4877425718102  C 31.0432790459301 69.4877425718102  23.9537463682579 59.1092925241843  23.9537463682579 59.1092925241843  C 23.9537463682579 59.1092925241843  17.1616407396311 46.5401377776272  17.1616407396311 46.5401377776272  C 17.1616407396311 46.5401377776272  14.2232666171673 44.0019514058118  14.2232666171673 44.0019514058118  C 14.2232666171673 44.0019514058118  11.9592314076251 39.9056116216572  11.9592314076251 39.9056116216572  C 11.9592314076251 39.9056116216572  6.374782159173 36.2804796038772  6.374782159173 36.2804796038772  C 6.374782159173 36.2804796038772  1.25185764199809 34.0333333230576  1.25185764199809 34.0333333230576  C 1.25185764199809 34.0333333230576  3.57999350866222 31.5585026173093  3.57999350866222 31.5585026173093  C 3.57999350866222 31.5585026173093  0.0954817875207723 26.2782038235249  0.0954817875207723 26.2782038235249  C 0.0954817875207723 26.2782038235249  2.33131270792939 22.4036088706054  2.33131270792939 22.4036088706054  C 2.33131270792939 22.4036088706054  8.06447548090401 18.9150875077826  8.06447548090401 18.9150875077826  C 8.06447548090401 18.9150875077826  8.91573220748158 21.2137102672818  8.91573220748158 21.2137102672818  C 8.91573220748158 21.2137102672818  6.86451117958378 22.5303202027397  6.86451117958378 22.5303202027397  C 6.86451117958378 22.5303202027397  7.05937717723398 24.5577015168888  7.05937717723398 24.5577015168888  C 7.05937717723398 24.5577015168888  10.0310836414011 24.1161917189832  10.0310836414011 24.1161917189832  C 10.0310836414011 24.1161917189832  12.9335613958765 24.7141108174919  12.9335613958765 24.7141108174919  C 12.9335613958765 24.7141108174919  15.9514203331713 27.5076997181408  15.9514203331713 27.5076997181408  C 15.9514203331713 27.5076997181408  20.0154019946941 25.2308554688523  20.0154019946941 25.2308554688523  C 20.0154019946941 25.2308554688523  21.3768999519612 21.502770493713  21.3768999519612 21.502770493713  C 21.3768999519612 21.502770493713  25.7818971093721 16.6956593308675  25.7818971093721 16.6956593308675  C 25.7818971093721 16.6956593308675  34.4252297156767 14.5178083098091  34.4252297156767 14.5178083098091  C 34.4252297156767 14.5178083098091  42.2660220948161 8.74056351031028  42.2660220948161 8.74056351031028  C 42.2660220948161 8.74056351031028  44.5044170415099 5.15502878382226  44.5044170415099 5.15502878382226  C 44.5044170415099 5.15502878382226  43.4993187378399 0.967615229696224  43.4993187378399 0.967615229696224  C 43.4993187378399 0.967615229696224  45.4172103989244 0.442951120077496  45.4172103989244 0.442951120077496  C 45.4172103989244 0.442951120077496  52.0618645182505 3.05637234534768  52.0618645182505 3.05637234534768  C 52.0618645182505 3.05637234534768  54.3566680432114 5.65791438323022  54.3566680432114 5.65791438323022  C 54.3566680432114 5.65791438323022  57.6847741609756 7.079457140612  57.6847741609756 7.079457140612  C 57.6847741609756 7.079457140612  61.9205455835847 12.8626415338047  61.9205455835847 12.8626415338047  C 61.9205455835847 12.8626415338047  67.2716684401133 13.5555941314141  67.2716684401133 13.5555941314141  C 67.2716684401133 13.5555941314141  71.2330890502412 12.0964339473049  71.2330890502412 12.0964339473049  C 71.2330890502412 12.0964339473049  73.8304476768168 13.0507286674413  73.8304476768168 13.0507286674413  C 73.8304476768168 13.0507286674413  78.1457039142569 12.575561171938  78.1457039142569 12.575561171938  C 78.1457039142569 12.575561171938  83.650668347878 15.1612642933035  83.650668347878 15.1612642933035  C 83.650668347878 15.1612642933035  79.0123447985437 20.7820997921993  79.0123447985437 20.7820997921993  C 79.0123447985437 20.7820997921993  81.158434798982 20.9127708534626  81.158434798982 20.9127708534626  C 81.158434798982 20.9127708534626  84.7583277029427 23.8508898673269  84.7583277029427 23.8508898673269  C 84.7583277029427 23.8508898673269  78.2790332810704 23.5915276093645  78.2790332810704 23.5915276093645  C 78.2790332810704 23.5915276093645  77.3149593979583 24.4230707264959  77.3149593979583 24.4230707264959  C 77.3149593979583 24.4230707264959  71.4228269953217 25.4882378622499  71.4228269953217 25.4882378622499  C 71.4228269953217 25.4882378622499  63.2025587260208 29.2539402641166  63.2025587260208 29.2539402641166  C 63.2025587260208 29.2539402641166  62.6794973639069 31.8396433854826  62.6794973639069 31.8396433854826  C 62.6794973639069 31.8396433854826  60.8462185702233 33.7680314714016  60.8462185702233 33.7680314714016  C 60.8462185702233 33.7680314714016  61.5615819037026 36.7695061513331  61.5615819037026 36.7695061513331  C 61.5615819037026 36.7695061513331  57.2181213771288 38.373196448658  57.2181213771288 38.373196448658  C 57.2181213771288 38.373196448658  57.2232494296987 40.7193359577074  57.2232494296987 40.7193359577074  C 57.2232494296987 40.7193359577074  55.3284340051779 41.736986343911  55.3284340051779 41.736986343911  C 55.3284340051779 41.736986343911  58.320652679624 46.7519832860394  58.320652679624 46.7519832860394  C 58.320652679624 46.7519832860394  62.315405631455 50.1454711497615  62.315405631455 50.1454711497615  C 62.315405631455 50.1454711497615  60.7949380445257 53.9834231664385  60.7949380445257 53.9834231664385  C 60.7949380445257 53.9834231664385  65.5665909606732 54.3081209550326  65.5665909606732 54.3081209550326  C 65.5665909606732 54.3081209550326  68.284458822638 57.2937567184474  68.284458822638 57.2937567184474  C 68.284458822638 57.2937567184474  74.6304238776971 57.4382868316632  74.6304238776971 57.4382868316632  C 74.6304238776971 57.4382868316632  80.5276843329033 54.1398324670419  80.5276843329033 54.1398324670419  C 80.5276843329033 54.1398324670419  80.0482114176323 62.6532500948156  80.0482114176323 62.6532500948156  C 80.0482114176323 62.6532500948156  83.3173449308446 63.2986859428748  83.3173449308446 63.2986859428748  C 83.3173449308446 63.2986859428748  87.3736345135125 62.3325120353508  87.3736345135125 62.3325120353508  C 87.3736345135125 62.3325120353508  93.5888342280431 71.4002917412123  93.5888342280431 71.4002917412123  C 93.5888342280431 71.4002917412123  92.0452904045501 73.3148207751792  92.0452904045501 73.3148207751792  C 92.0452904045501 73.3148207751792  91.6888907509528 77.2983082791516  91.6888907509528 77.2983082791516  C 91.6888907509528 77.2983082791516  91.5504333315696 82.1351174104662  91.5504333315696 82.1351174104662  C 91.5504333315696 82.1351174104662  88.7402605233496 84.9861223834881  88.7402605233496 84.9861223834881  C 88.7402605233496 84.9861223834881  90.0274017183554 87.1045774676086  90.0274017183554 87.1045774676086  C 90.0274017183554 87.1045774676086  88.3787328171826 89.0290058243987  88.3787328171826 89.0290058243987  C 88.3787328171826 89.0290058243987  91.4709485167384 93.8539357683253  91.4709485167384 93.8539357683253  Z " fill-rule="evenodd" />
    </mask>
  </defs>
  <g transform="matrix(1 0 0 1 -1261 -4343 )">
    <path d="M 91.4709485167384 93.8539357683253  C 91.4709485167384 93.8539357683253  86.9377500450843 100.082589688553  86.9377500450843 100.082589688553  C 86.9377500450843 100.082589688553  85.0096022788603 103.054366400015  85.0096022788603 103.054366400015  C 85.0096022788603 103.054366400015  81.3122763760742 104.5372849589  81.3122763760742 104.5372849589  C 81.3122763760742 104.5372849589  74.1047984892982 101.20517289668  74.1047984892982 101.20517289668  C 74.1047984892982 101.20517289668  73.4817401020742 98.8313152837264  73.4817401020742 98.8313152837264  C 73.4817401020742 98.8313152837264  59.2283179844688 93.0421912968399  59.2283179844688 93.0421912968399  C 59.2283179844688 93.0421912968399  44.4736487260916 86.7699803561917  44.4736487260916 86.7699803561917  C 44.4736487260916 86.7699803561917  38.9276598719125 83.2517610248998  38.9276598719125 83.2517610248998  C 38.9276598719125 83.2517610248998  35.9508253551756 78.5495826839779  35.9508253551756 78.5495826839779  C 35.9508253551756 78.5495826839779  37.1302774462169 76.9122346890549  37.1302774462169 76.9122346890549  C 37.1302774462169 76.9122346890549  31.0432790459301 69.4877425718102  31.0432790459301 69.4877425718102  C 31.0432790459301 69.4877425718102  23.9537463682579 59.1092925241843  23.9537463682579 59.1092925241843  C 23.9537463682579 59.1092925241843  17.1616407396311 46.5401377776272  17.1616407396311 46.5401377776272  C 17.1616407396311 46.5401377776272  14.2232666171673 44.0019514058118  14.2232666171673 44.0019514058118  C 14.2232666171673 44.0019514058118  11.9592314076251 39.9056116216572  11.9592314076251 39.9056116216572  C 11.9592314076251 39.9056116216572  6.374782159173 36.2804796038772  6.374782159173 36.2804796038772  C 6.374782159173 36.2804796038772  1.25185764199809 34.0333333230576  1.25185764199809 34.0333333230576  C 1.25185764199809 34.0333333230576  3.57999350866222 31.5585026173093  3.57999350866222 31.5585026173093  C 3.57999350866222 31.5585026173093  0.0954817875207723 26.2782038235249  0.0954817875207723 26.2782038235249  C 0.0954817875207723 26.2782038235249  2.33131270792939 22.4036088706054  2.33131270792939 22.4036088706054  C 2.33131270792939 22.4036088706054  8.06447548090401 18.9150875077826  8.06447548090401 18.9150875077826  C 8.06447548090401 18.9150875077826  8.91573220748158 21.2137102672818  8.91573220748158 21.2137102672818  C 8.91573220748158 21.2137102672818  6.86451117958378 22.5303202027397  6.86451117958378 22.5303202027397  C 6.86451117958378 22.5303202027397  7.05937717723398 24.5577015168888  7.05937717723398 24.5577015168888  C 7.05937717723398 24.5577015168888  10.0310836414011 24.1161917189832  10.0310836414011 24.1161917189832  C 10.0310836414011 24.1161917189832  12.9335613958765 24.7141108174919  12.9335613958765 24.7141108174919  C 12.9335613958765 24.7141108174919  15.9514203331713 27.5076997181408  15.9514203331713 27.5076997181408  C 15.9514203331713 27.5076997181408  20.0154019946941 25.2308554688523  20.0154019946941 25.2308554688523  C 20.0154019946941 25.2308554688523  21.3768999519612 21.502770493713  21.3768999519612 21.502770493713  C 21.3768999519612 21.502770493713  25.7818971093721 16.6956593308675  25.7818971093721 16.6956593308675  C 25.7818971093721 16.6956593308675  34.4252297156767 14.5178083098091  34.4252297156767 14.5178083098091  C 34.4252297156767 14.5178083098091  42.2660220948161 8.74056351031028  42.2660220948161 8.74056351031028  C 42.2660220948161 8.74056351031028  44.5044170415099 5.15502878382226  44.5044170415099 5.15502878382226  C 44.5044170415099 5.15502878382226  43.4993187378399 0.967615229696224  43.4993187378399 0.967615229696224  C 43.4993187378399 0.967615229696224  45.4172103989244 0.442951120077496  45.4172103989244 0.442951120077496  C 45.4172103989244 0.442951120077496  52.0618645182505 3.05637234534768  52.0618645182505 3.05637234534768  C 52.0618645182505 3.05637234534768  54.3566680432114 5.65791438323022  54.3566680432114 5.65791438323022  C 54.3566680432114 5.65791438323022  57.6847741609756 7.079457140612  57.6847741609756 7.079457140612  C 57.6847741609756 7.079457140612  61.9205455835847 12.8626415338047  61.9205455835847 12.8626415338047  C 61.9205455835847 12.8626415338047  67.2716684401133 13.5555941314141  67.2716684401133 13.5555941314141  C 67.2716684401133 13.5555941314141  71.2330890502412 12.0964339473049  71.2330890502412 12.0964339473049  C 71.2330890502412 12.0964339473049  73.8304476768168 13.0507286674413  73.8304476768168 13.0507286674413  C 73.8304476768168 13.0507286674413  78.1457039142569 12.575561171938  78.1457039142569 12.575561171938  C 78.1457039142569 12.575561171938  83.650668347878 15.1612642933035  83.650668347878 15.1612642933035  C 83.650668347878 15.1612642933035  79.0123447985437 20.7820997921993  79.0123447985437 20.7820997921993  C 79.0123447985437 20.7820997921993  81.158434798982 20.9127708534626  81.158434798982 20.9127708534626  C 81.158434798982 20.9127708534626  84.7583277029427 23.8508898673269  84.7583277029427 23.8508898673269  C 84.7583277029427 23.8508898673269  78.2790332810704 23.5915276093645  78.2790332810704 23.5915276093645  C 78.2790332810704 23.5915276093645  77.3149593979583 24.4230707264959  77.3149593979583 24.4230707264959  C 77.3149593979583 24.4230707264959  71.4228269953217 25.4882378622499  71.4228269953217 25.4882378622499  C 71.4228269953217 25.4882378622499  63.2025587260208 29.2539402641166  63.2025587260208 29.2539402641166  C 63.2025587260208 29.2539402641166  62.6794973639069 31.8396433854826  62.6794973639069 31.8396433854826  C 62.6794973639069 31.8396433854826  60.8462185702233 33.7680314714016  60.8462185702233 33.7680314714016  C 60.8462185702233 33.7680314714016  61.5615819037026 36.7695061513331  61.5615819037026 36.7695061513331  C 61.5615819037026 36.7695061513331  57.2181213771288 38.373196448658  57.2181213771288 38.373196448658  C 57.2181213771288 38.373196448658  57.2232494296987 40.7193359577074  57.2232494296987 40.7193359577074  C 57.2232494296987 40.7193359577074  55.3284340051779 41.736986343911  55.3284340051779 41.736986343911  C 55.3284340051779 41.736986343911  58.320652679624 46.7519832860394  58.320652679624 46.7519832860394  C 58.320652679624 46.7519832860394  62.315405631455 50.1454711497615  62.315405631455 50.1454711497615  C 62.315405631455 50.1454711497615  60.7949380445257 53.9834231664385  60.7949380445257 53.9834231664385  C 60.7949380445257 53.9834231664385  65.5665909606732 54.3081209550326  65.5665909606732 54.3081209550326  C 65.5665909606732 54.3081209550326  68.284458822638 57.2937567184474  68.284458822638 57.2937567184474  C 68.284458822638 57.2937567184474  74.6304238776971 57.4382868316632  74.6304238776971 57.4382868316632  C 74.6304238776971 57.4382868316632  80.5276843329033 54.1398324670419  80.5276843329033 54.1398324670419  C 80.5276843329033 54.1398324670419  80.0482114176323 62.6532500948156  80.0482114176323 62.6532500948156  C 80.0482114176323 62.6532500948156  83.3173449308446 63.2986859428748  83.3173449308446 63.2986859428748  C 83.3173449308446 63.2986859428748  87.3736345135125 62.3325120353508  87.3736345135125 62.3325120353508  C 87.3736345135125 62.3325120353508  93.5888342280431 71.4002917412123  93.5888342280431 71.4002917412123  C 93.5888342280431 71.4002917412123  92.0452904045501 73.3148207751792  92.0452904045501 73.3148207751792  C 92.0452904045501 73.3148207751792  91.6888907509528 77.2983082791516  91.6888907509528 77.2983082791516  C 91.6888907509528 77.2983082791516  91.5504333315696 82.1351174104662  91.5504333315696 82.1351174104662  C 91.5504333315696 82.1351174104662  88.7402605233496 84.9861223834881  88.7402605233496 84.9861223834881  C 88.7402605233496 84.9861223834881  90.0274017183554 87.1045774676086  90.0274017183554 87.1045774676086  C 90.0274017183554 87.1045774676086  88.3787328171826 89.0290058243987  88.3787328171826 89.0290058243987  C 88.3787328171826 89.0290058243987  91.4709485167384 93.8539357683253  91.4709485167384 93.8539357683253  Z " fill-rule="nonzero" fill="#f2f2f2" stroke="none" transform="matrix(1 0 0 1 1261 4343 )" />
    <path d="M 91.4709485167384 93.8539357683253  C 91.4709485167384 93.8539357683253  86.9377500450843 100.082589688553  86.9377500450843 100.082589688553  C 86.9377500450843 100.082589688553  85.0096022788603 103.054366400015  85.0096022788603 103.054366400015  C 85.0096022788603 103.054366400015  81.3122763760742 104.5372849589  81.3122763760742 104.5372849589  C 81.3122763760742 104.5372849589  74.1047984892982 101.20517289668  74.1047984892982 101.20517289668  C 74.1047984892982 101.20517289668  73.4817401020742 98.8313152837264  73.4817401020742 98.8313152837264  C 73.4817401020742 98.8313152837264  59.2283179844688 93.0421912968399  59.2283179844688 93.0421912968399  C 59.2283179844688 93.0421912968399  44.4736487260916 86.7699803561917  44.4736487260916 86.7699803561917  C 44.4736487260916 86.7699803561917  38.9276598719125 83.2517610248998  38.9276598719125 83.2517610248998  C 38.9276598719125 83.2517610248998  35.9508253551756 78.5495826839779  35.9508253551756 78.5495826839779  C 35.9508253551756 78.5495826839779  37.1302774462169 76.9122346890549  37.1302774462169 76.9122346890549  C 37.1302774462169 76.9122346890549  31.0432790459301 69.4877425718102  31.0432790459301 69.4877425718102  C 31.0432790459301 69.4877425718102  23.9537463682579 59.1092925241843  23.9537463682579 59.1092925241843  C 23.9537463682579 59.1092925241843  17.1616407396311 46.5401377776272  17.1616407396311 46.5401377776272  C 17.1616407396311 46.5401377776272  14.2232666171673 44.0019514058118  14.2232666171673 44.0019514058118  C 14.2232666171673 44.0019514058118  11.9592314076251 39.9056116216572  11.9592314076251 39.9056116216572  C 11.9592314076251 39.9056116216572  6.374782159173 36.2804796038772  6.374782159173 36.2804796038772  C 6.374782159173 36.2804796038772  1.25185764199809 34.0333333230576  1.25185764199809 34.0333333230576  C 1.25185764199809 34.0333333230576  3.57999350866222 31.5585026173093  3.57999350866222 31.5585026173093  C 3.57999350866222 31.5585026173093  0.0954817875207723 26.2782038235249  0.0954817875207723 26.2782038235249  C 0.0954817875207723 26.2782038235249  2.33131270792939 22.4036088706054  2.33131270792939 22.4036088706054  C 2.33131270792939 22.4036088706054  8.06447548090401 18.9150875077826  8.06447548090401 18.9150875077826  C 8.06447548090401 18.9150875077826  8.91573220748158 21.2137102672818  8.91573220748158 21.2137102672818  C 8.91573220748158 21.2137102672818  6.86451117958378 22.5303202027397  6.86451117958378 22.5303202027397  C 6.86451117958378 22.5303202027397  7.05937717723398 24.5577015168888  7.05937717723398 24.5577015168888  C 7.05937717723398 24.5577015168888  10.0310836414011 24.1161917189832  10.0310836414011 24.1161917189832  C 10.0310836414011 24.1161917189832  12.9335613958765 24.7141108174919  12.9335613958765 24.7141108174919  C 12.9335613958765 24.7141108174919  15.9514203331713 27.5076997181408  15.9514203331713 27.5076997181408  C 15.9514203331713 27.5076997181408  20.0154019946941 25.2308554688523  20.0154019946941 25.2308554688523  C 20.0154019946941 25.2308554688523  21.3768999519612 21.502770493713  21.3768999519612 21.502770493713  C 21.3768999519612 21.502770493713  25.7818971093721 16.6956593308675  25.7818971093721 16.6956593308675  C 25.7818971093721 16.6956593308675  34.4252297156767 14.5178083098091  34.4252297156767 14.5178083098091  C 34.4252297156767 14.5178083098091  42.2660220948161 8.74056351031028  42.2660220948161 8.74056351031028  C 42.2660220948161 8.74056351031028  44.5044170415099 5.15502878382226  44.5044170415099 5.15502878382226  C 44.5044170415099 5.15502878382226  43.4993187378399 0.967615229696224  43.4993187378399 0.967615229696224  C 43.4993187378399 0.967615229696224  45.4172103989244 0.442951120077496  45.4172103989244 0.442951120077496  C 45.4172103989244 0.442951120077496  52.0618645182505 3.05637234534768  52.0618645182505 3.05637234534768  C 52.0618645182505 3.05637234534768  54.3566680432114 5.65791438323022  54.3566680432114 5.65791438323022  C 54.3566680432114 5.65791438323022  57.6847741609756 7.079457140612  57.6847741609756 7.079457140612  C 57.6847741609756 7.079457140612  61.9205455835847 12.8626415338047  61.9205455835847 12.8626415338047  C 61.9205455835847 12.8626415338047  67.2716684401133 13.5555941314141  67.2716684401133 13.5555941314141  C 67.2716684401133 13.5555941314141  71.2330890502412 12.0964339473049  71.2330890502412 12.0964339473049  C 71.2330890502412 12.0964339473049  73.8304476768168 13.0507286674413  73.8304476768168 13.0507286674413  C 73.8304476768168 13.0507286674413  78.1457039142569 12.575561171938  78.1457039142569 12.575561171938  C 78.1457039142569 12.575561171938  83.650668347878 15.1612642933035  83.650668347878 15.1612642933035  C 83.650668347878 15.1612642933035  79.0123447985437 20.7820997921993  79.0123447985437 20.7820997921993  C 79.0123447985437 20.7820997921993  81.158434798982 20.9127708534626  81.158434798982 20.9127708534626  C 81.158434798982 20.9127708534626  84.7583277029427 23.8508898673269  84.7583277029427 23.8508898673269  C 84.7583277029427 23.8508898673269  78.2790332810704 23.5915276093645  78.2790332810704 23.5915276093645  C 78.2790332810704 23.5915276093645  77.3149593979583 24.4230707264959  77.3149593979583 24.4230707264959  C 77.3149593979583 24.4230707264959  71.4228269953217 25.4882378622499  71.4228269953217 25.4882378622499  C 71.4228269953217 25.4882378622499  63.2025587260208 29.2539402641166  63.2025587260208 29.2539402641166  C 63.2025587260208 29.2539402641166  62.6794973639069 31.8396433854826  62.6794973639069 31.8396433854826  C 62.6794973639069 31.8396433854826  60.8462185702233 33.7680314714016  60.8462185702233 33.7680314714016  C 60.8462185702233 33.7680314714016  61.5615819037026 36.7695061513331  61.5615819037026 36.7695061513331  C 61.5615819037026 36.7695061513331  57.2181213771288 38.373196448658  57.2181213771288 38.373196448658  C 57.2181213771288 38.373196448658  57.2232494296987 40.7193359577074  57.2232494296987 40.7193359577074  C 57.2232494296987 40.7193359577074  55.3284340051779 41.736986343911  55.3284340051779 41.736986343911  C 55.3284340051779 41.736986343911  58.320652679624 46.7519832860394  58.320652679624 46.7519832860394  C 58.320652679624 46.7519832860394  62.315405631455 50.1454711497615  62.315405631455 50.1454711497615  C 62.315405631455 50.1454711497615  60.7949380445257 53.9834231664385  60.7949380445257 53.9834231664385  C 60.7949380445257 53.9834231664385  65.5665909606732 54.3081209550326  65.5665909606732 54.3081209550326  C 65.5665909606732 54.3081209550326  68.284458822638 57.2937567184474  68.284458822638 57.2937567184474  C 68.284458822638 57.2937567184474  74.6304238776971 57.4382868316632  74.6304238776971 57.4382868316632  C 74.6304238776971 57.4382868316632  80.5276843329033 54.1398324670419  80.5276843329033 54.1398324670419  C 80.5276843329033 54.1398324670419  80.0482114176323 62.6532500948156  80.0482114176323 62.6532500948156  C 80.0482114176323 62.6532500948156  83.3173449308446 63.2986859428748  83.3173449308446 63.2986859428748  C 83.3173449308446 63.2986859428748  87.3736345135125 62.3325120353508  87.3736345135125 62.3325120353508  C 87.3736345135125 62.3325120353508  93.5888342280431 71.4002917412123  93.5888342280431 71.4002917412123  C 93.5888342280431 71.4002917412123  92.0452904045501 73.3148207751792  92.0452904045501 73.3148207751792  C 92.0452904045501 73.3148207751792  91.6888907509528 77.2983082791516  91.6888907509528 77.2983082791516  C 91.6888907509528 77.2983082791516  91.5504333315696 82.1351174104662  91.5504333315696 82.1351174104662  C 91.5504333315696 82.1351174104662  88.7402605233496 84.9861223834881  88.7402605233496 84.9861223834881  C 88.7402605233496 84.9861223834881  90.0274017183554 87.1045774676086  90.0274017183554 87.1045774676086  C 90.0274017183554 87.1045774676086  88.3787328171826 89.0290058243987  88.3787328171826 89.0290058243987  C 88.3787328171826 89.0290058243987  91.4709485167384 93.8539357683253  91.4709485167384 93.8539357683253  Z " stroke-width="2" stroke="#505050" fill="none" stroke-opacity="0.211764705882353" transform="matrix(1 0 0 1 1261 4343 )" mask="url(#clip193)" />
  </g>
</svg>