<?xml version="1.0" encoding="utf-8"?>
<svg version="1.1" xmlns:xlink="http://www.w3.org/1999/xlink" width="111px" height="50px" xmlns="http://www.w3.org/2000/svg">
  <defs>
    <mask fill="white" id="clip194">
      <path d="M 109.889456056962 25.3206847427196  C 109.889456056962 25.3206847427196  108.891234741685 26.9076820643035  108.891234741685 26.9076820643035  C 108.891234741685 26.9076820643035  106.892245628185 27.4764910532898  106.892245628185 27.4764910532898  C 106.892245628185 27.4764910532898  101.950815330364 25.2963939673892  101.950815330364 25.2963939673892  C 101.950815330364 25.2963939673892  98.8237342712843 20.2246982893678  98.8237342712843 20.2246982893678  C 98.8237342712843 20.2246982893678  97.2856585712153 15.9110614369497  97.2856585712153 15.9110614369497  C 97.2856585712153 15.9110614369497  98.2762404376502 15.3624947607388  98.2762404376502 15.3624947607388  C 98.2762404376502 15.3624947607388  99.0427318047379 17.0466551836445  99.0427318047379 17.0466551836445  C 99.0427318047379 17.0466551836445  101.207242309801 18.3320420448765  101.207242309801 18.3320420448765  C 101.207242309801 18.3320420448765  106.517912634957 23.3956407977878  106.517912634957 23.3956407977878  C 106.517912634957 23.3956407977878  109.889456056962 25.3206847427196  109.889456056962 25.3206847427196  Z M 83.4620560316075 14.3746698973038  C 83.4620560316075 14.3746698973038  81.0683620613016 19.2985966920653  81.0683620613016 19.2985966920653  C 81.0683620613016 19.2985966920653  77.3275786119619 19.7641698858975  77.3275786119619 19.7641698858975  C 77.3275786119619 19.7641698858975  76.2020331493287 21.3531914387592  76.2020331493287 21.3531914387592  C 76.2020331493287 21.3531914387592  72.2982747913725 22.7316929387575  72.2982747913725 22.7316929387575  C 72.2982747913725 22.7316929387575  66.7838858304471 24.0575644255403  66.7838858304471 24.0575644255403  C 66.7838858304471 24.0575644255403  62.9921727221648 24.0514917317077  62.9921727221648 24.0514917317077  C 62.9921727221648 24.0514917317077  57.1378084267046 22.4057917030751  57.1378084267046 22.4057917030751  C 57.1378084267046 22.4057917030751  53.0583427453963 20.8248670753235  53.0583427453963 20.8248670753235  C 53.0583427453963 20.8248670753235  53.6491267891311 19.0718827889819  53.6491267891311 19.0718827889819  C 53.6491267891311 19.0718827889819  60.0509849182255 19.8997933814921  60.0509849182255 19.8997933814921  C 60.0509849182255 19.8997933814921  63.9572897591284 19.4564867317126  63.9572897591284 19.4564867317126  C 63.9572897591284 19.4564867317126  65.0344520457659 15.2714043532499  65.0344520457659 15.2714043532499  C 65.0344520457659 15.2714043532499  66.0581381905139 15.1317323951001  66.0581381905139 15.1317323951001  C 66.0581381905139 15.1317323951001  66.7507815521344 19.6083040775276  66.7507815521344 19.6083040775276  C 66.7507815521344 19.6083040775276  72.6751542675486 19.175118584136  72.6751542675486 19.175118584136  C 72.6751542675486 19.175118584136  74.6894222787319 15.7673410162448  74.6894222787319 15.7673410162448  C 74.6894222787319 15.7673410162448  78.6746680909964 13.7491824325466  78.6746680909964 13.7491824325466  C 78.6746680909964 13.7491824325466  77.8878048603319 10.4172977497308  77.8878048603319 10.4172977497308  C 77.8878048603319 10.4172977497308  82.1658962115164 10.3100134920219  82.1658962115164 10.3100134920219  C 82.1658962115164 10.3100134920219  83.6072055595942 11.237111417131  83.6072055595942 11.237111417131  C 83.6072055595942 11.237111417131  83.4620560316075 14.3746698973038  83.4620560316075 14.3746698973038  Z M 45.2851836881781 26.3429215378728  C 45.2851836881781 26.3429215378728  46.8589101495068 30.1363309519652  46.8589101495068 30.1363309519652  C 46.8589101495068 30.1363309519652  53.2353034491299 33.8690134277319  53.2353034491299 33.8690134277319  C 53.2353034491299 33.8690134277319  57.8699024129133 39.9153922537166  57.8699024129133 39.9153922537166  C 57.8699024129133 39.9153922537166  61.95955402601 39.7251145136288  61.95955402601 39.7251145136288  C 61.95955402601 39.7251145136288  61.671801452984 42.2554036105423  61.671801452984 42.2554036105423  C 61.671801452984 42.2554036105423  67.1849370335282 43.2270346237571  67.1849370335282 43.2270346237571  C 67.1849370335282 43.2270346237571  65.0433448749889 44.3059498946809  65.0433448749889 44.3059498946809  C 65.0433448749889 44.3059498946809  72.6293175745005 46.7147851149424  72.6293175745005 46.7147851149424  C 72.6293175745005 46.7147851149424  71.8373613779415 48.3726305312403  71.8373613779415 48.3726305312403  C 71.8373613779415 48.3726305312403  67.1085425451144 48.7734283241914  67.1085425451144 48.7734283241914  C 67.1085425451144 48.7734283241914  65.3540157945392 47.2876425664839  65.3540157945392 47.2876425664839  C 65.3540157945392 47.2876425664839  59.219538374894 46.6439370202292  59.219538374894 46.6439370202292  C 59.219538374894 46.6439370202292  52.0078986686112 45.781614496001  52.0078986686112 45.781614496001  C 52.0078986686112 45.781614496001  46.4540193609123 42.1299012713355  46.4540193609123 42.1299012713355  C 46.4540193609123 42.1299012713355  42.4025649920228 38.9882943286075  42.4025649920228 38.9882943286075  C 42.4025649920228 38.9882943286075  38.6923393380488 33.9985642294942  38.6923393380488 33.9985642294942  C 38.6923393380488 33.9985642294942  27.5298512003804 31.510783989409  27.5298512003804 31.510783989409  C 27.5298512003804 31.510783989409  21.4819542009375 33.1342174739886  21.4819542009375 33.1342174739886  C 21.4819542009375 33.1342174739886  17.1223753954447 35.0147283308147  17.1223753954447 35.0147283308147  C 17.1223753954447 35.0147283308147  18.0314698075712 39.2210809255235  18.0314698075712 39.2210809255235  C 18.0314698075712 39.2210809255235  12.4241143579828 41.1845852647285  12.4241143579828 41.1845852647285  C 12.4241143579828 41.1845852647285  8.42613613098285 40.2291481017341  8.42613613098285 40.2291481017341  C 8.42613613098285 40.2291481017341  1.04133558429504 39.9902888109854  1.04133558429504 39.9902888109854  C 1.04133558429504 39.9902888109854  0.919104402832613 19.9838147673417  0.919104402832613 19.9838147673417  C 0.919104402832613 19.9838147673417  0.799419704317188 1.5572374479789  0.799419704317188 1.5572374479789  C 0.799419704317188 1.5572374479789  13.1880592421231 5.44578573211572  13.1880592421231 5.44578573211572  C 13.1880592421231 5.44578573211572  26.389026840064 8.67848308233226  26.389026840064 8.67848308233226  C 26.389026840064 8.67848308233226  31.3088318939264 11.5731338092012  31.3088318939264 11.5731338092012  C 31.3088318939264 11.5731338092012  35.2864382573495 14.4171787541321  35.2864382573495 14.4171787541321  C 35.2864382573495 14.4171787541321  38.221239992829 17.7510876682253  38.221239992829 17.7510876682253  C 38.221239992829 17.7510876682253  50.1184083218378 21.2530077783536  50.1184083218378 21.2530077783536  C 50.1184083218378 21.2530077783536  51.855109691783 24.2610154567645  51.855109691783 24.2610154567645  C 51.855109691783 24.2610154567645  45.2851836881781 26.3429215378728  45.2851836881781 26.3429215378728  Z M 88.4735344715667 10.8231403330438  C 88.4735344715667 10.8231403330438  89.3291527418036 13.7623241480185  89.3291527418036 13.7623241480185  C 89.3291527418036 13.7623241480185  87.0958871971672 15.2703764497791  87.0958871971672 15.2703764497791  C 87.0958871971672 15.2703764497791  85.7513442010805 11.9324190731307  85.7513442010805 11.9324190731307  C 85.7513442010805 11.9324190731307  84.0910373195491 9.74827352467488  84.0910373195491 9.74827352467488  C 84.0910373195491 9.74827352467488  80.8570039766894 6.42551367044027  80.8570039766894 6.42551367044027  C 80.8570039766894 6.42551367044027  74.9428171930636 4.01667845017842  74.9428171930636 4.01667845017842  C 74.9428171930636 4.01667845017842  69.7887357080652 2.35680880260314  69.7887357080652 2.35680880260314  C 69.7887357080652 2.35680880260314  71.7724459238823 0.99450115282493  71.7724459238823 0.99450115282493  C 71.7724459238823 0.99450115282493  75.6278211058426 2.57542578057657  75.6278211058426 2.57542578057657  C 75.6278211058426 2.57542578057657  78.0546193544613 3.81627955370284  78.0546193544613 3.81627955370284  C 78.0546193544613 3.81627955370284  82.904376266185 5.17049027837101  82.904376266185 5.17049027837101  C 82.904376266185 5.17049027837101  85.761530132869 9.01347757093129  85.761530132869 9.01347757093129  C 85.761530132869 9.01347757093129  88.4735344715667 10.8231403330438  88.4735344715667 10.8231403330438  Z " fill-rule="evenodd" />
    </mask>
  </defs>
  <g transform="matrix(1 0 0 1 -2843 -4355 )">
    <path d="M 109.889456056962 25.3206847427196  C 109.889456056962 25.3206847427196  108.891234741685 26.9076820643035  108.891234741685 26.9076820643035  C 108.891234741685 26.9076820643035  106.892245628185 27.4764910532898  106.892245628185 27.4764910532898  C 106.892245628185 27.4764910532898  101.950815330364 25.2963939673892  101.950815330364 25.2963939673892  C 101.950815330364 25.2963939673892  98.8237342712843 20.2246982893678  98.8237342712843 20.2246982893678  C 98.8237342712843 20.2246982893678  97.2856585712153 15.9110614369497  97.2856585712153 15.9110614369497  C 97.2856585712153 15.9110614369497  98.2762404376502 15.3624947607388  98.2762404376502 15.3624947607388  C 98.2762404376502 15.3624947607388  99.0427318047379 17.0466551836445  99.0427318047379 17.0466551836445  C 99.0427318047379 17.0466551836445  101.207242309801 18.3320420448765  101.207242309801 18.3320420448765  C 101.207242309801 18.3320420448765  106.517912634957 23.3956407977878  106.517912634957 23.3956407977878  C 106.517912634957 23.3956407977878  109.889456056962 25.3206847427196  109.889456056962 25.3206847427196  Z M 83.4620560316075 14.3746698973038  C 83.4620560316075 14.3746698973038  81.0683620613016 19.2985966920653  81.0683620613016 19.2985966920653  C 81.0683620613016 19.2985966920653  77.3275786119619 19.7641698858975  77.3275786119619 19.7641698858975  C 77.3275786119619 19.7641698858975  76.2020331493287 21.3531914387592  76.2020331493287 21.3531914387592  C 76.2020331493287 21.3531914387592  72.2982747913725 22.7316929387575  72.2982747913725 22.7316929387575  C 72.2982747913725 22.7316929387575  66.7838858304471 24.0575644255403  66.7838858304471 24.0575644255403  C 66.7838858304471 24.0575644255403  62.9921727221648 24.0514917317077  62.9921727221648 24.0514917317077  C 62.9921727221648 24.0514917317077  57.1378084267046 22.4057917030751  57.1378084267046 22.4057917030751  C 57.1378084267046 22.4057917030751  53.0583427453963 20.8248670753235  53.0583427453963 20.8248670753235  C 53.0583427453963 20.8248670753235  53.6491267891311 19.0718827889819  53.6491267891311 19.0718827889819  C 53.6491267891311 19.0718827889819  60.0509849182255 19.8997933814921  60.0509849182255 19.8997933814921  C 60.0509849182255 19.8997933814921  63.9572897591284 19.4564867317126  63.9572897591284 19.4564867317126  C 63.9572897591284 19.4564867317126  65.0344520457659 15.2714043532499  65.0344520457659 15.2714043532499  C 65.0344520457659 15.2714043532499  66.0581381905139 15.1317323951001  66.0581381905139 15.1317323951001  C 66.0581381905139 15.1317323951001  66.7507815521344 19.6083040775276  66.7507815521344 19.6083040775276  C 66.7507815521344 19.6083040775276  72.6751542675486 19.175118584136  72.6751542675486 19.175118584136  C 72.6751542675486 19.175118584136  74.6894222787319 15.7673410162448  74.6894222787319 15.7673410162448  C 74.6894222787319 15.7673410162448  78.6746680909964 13.7491824325466  78.6746680909964 13.7491824325466  C 78.6746680909964 13.7491824325466  77.8878048603319 10.4172977497308  77.8878048603319 10.4172977497308  C 77.8878048603319 10.4172977497308  82.1658962115164 10.3100134920219  82.1658962115164 10.3100134920219  C 82.1658962115164 10.3100134920219  83.6072055595942 11.237111417131  83.6072055595942 11.237111417131  C 83.6072055595942 11.237111417131  83.4620560316075 14.3746698973038  83.4620560316075 14.3746698973038  Z M 45.2851836881781 26.3429215378728  C 45.2851836881781 26.3429215378728  46.8589101495068 30.1363309519652  46.8589101495068 30.1363309519652  C 46.8589101495068 30.1363309519652  53.2353034491299 33.8690134277319  53.2353034491299 33.8690134277319  C 53.2353034491299 33.8690134277319  57.8699024129133 39.9153922537166  57.8699024129133 39.9153922537166  C 57.8699024129133 39.9153922537166  61.95955402601 39.7251145136288  61.95955402601 39.7251145136288  C 61.95955402601 39.7251145136288  61.671801452984 42.2554036105423  61.671801452984 42.2554036105423  C 61.671801452984 42.2554036105423  67.1849370335282 43.2270346237571  67.1849370335282 43.2270346237571  C 67.1849370335282 43.2270346237571  65.0433448749889 44.3059498946809  65.0433448749889 44.3059498946809  C 65.0433448749889 44.3059498946809  72.6293175745005 46.7147851149424  72.6293175745005 46.7147851149424  C 72.6293175745005 46.7147851149424  71.8373613779415 48.3726305312403  71.8373613779415 48.3726305312403  C 71.8373613779415 48.3726305312403  67.1085425451144 48.7734283241914  67.1085425451144 48.7734283241914  C 67.1085425451144 48.7734283241914  65.3540157945392 47.2876425664839  65.3540157945392 47.2876425664839  C 65.3540157945392 47.2876425664839  59.219538374894 46.6439370202292  59.219538374894 46.6439370202292  C 59.219538374894 46.6439370202292  52.0078986686112 45.781614496001  52.0078986686112 45.781614496001  C 52.0078986686112 45.781614496001  46.4540193609123 42.1299012713355  46.4540193609123 42.1299012713355  C 46.4540193609123 42.1299012713355  42.4025649920228 38.9882943286075  42.4025649920228 38.9882943286075  C 42.4025649920228 38.9882943286075  38.6923393380488 33.9985642294942  38.6923393380488 33.9985642294942  C 38.6923393380488 33.9985642294942  27.5298512003804 31.510783989409  27.5298512003804 31.510783989409  C 27.5298512003804 31.510783989409  21.4819542009375 33.1342174739886  21.4819542009375 33.1342174739886  C 21.4819542009375 33.1342174739886  17.1223753954447 35.0147283308147  17.1223753954447 35.0147283308147  C 17.1223753954447 35.0147283308147  18.0314698075712 39.2210809255235  18.0314698075712 39.2210809255235  C 18.0314698075712 39.2210809255235  12.4241143579828 41.1845852647285  12.4241143579828 41.1845852647285  C 12.4241143579828 41.1845852647285  8.42613613098285 40.2291481017341  8.42613613098285 40.2291481017341  C 8.42613613098285 40.2291481017341  1.04133558429504 39.9902888109854  1.04133558429504 39.9902888109854  C 1.04133558429504 39.9902888109854  0.919104402832613 19.9838147673417  0.919104402832613 19.9838147673417  C 0.919104402832613 19.9838147673417  0.799419704317188 1.5572374479789  0.799419704317188 1.5572374479789  C 0.799419704317188 1.5572374479789  13.1880592421231 5.44578573211572  13.1880592421231 5.44578573211572  C 13.1880592421231 5.44578573211572  26.389026840064 8.67848308233226  26.389026840064 8.67848308233226  C 26.389026840064 8.67848308233226  31.3088318939264 11.5731338092012  31.3088318939264 11.5731338092012  C 31.3088318939264 11.5731338092012  35.2864382573495 14.4171787541321  35.2864382573495 14.4171787541321  C 35.2864382573495 14.4171787541321  38.221239992829 17.7510876682253  38.221239992829 17.7510876682253  C 38.221239992829 17.7510876682253  50.1184083218378 21.2530077783536  50.1184083218378 21.2530077783536  C 50.1184083218378 21.2530077783536  51.855109691783 24.2610154567645  51.855109691783 24.2610154567645  C 51.855109691783 24.2610154567645  45.2851836881781 26.3429215378728  45.2851836881781 26.3429215378728  Z M 88.4735344715667 10.8231403330438  C 88.4735344715667 10.8231403330438  89.3291527418036 13.7623241480185  89.3291527418036 13.7623241480185  C 89.3291527418036 13.7623241480185  87.0958871971672 15.2703764497791  87.0958871971672 15.2703764497791  C 87.0958871971672 15.2703764497791  85.7513442010805 11.9324190731307  85.7513442010805 11.9324190731307  C 85.7513442010805 11.9324190731307  84.0910373195491 9.74827352467488  84.0910373195491 9.74827352467488  C 84.0910373195491 9.74827352467488  80.8570039766894 6.42551367044027  80.8570039766894 6.42551367044027  C 80.8570039766894 6.42551367044027  74.9428171930636 4.01667845017842  74.9428171930636 4.01667845017842  C 74.9428171930636 4.01667845017842  69.7887357080652 2.35680880260314  69.7887357080652 2.35680880260314  C 69.7887357080652 2.35680880260314  71.7724459238823 0.99450115282493  71.7724459238823 0.99450115282493  C 71.7724459238823 0.99450115282493  75.6278211058426 2.57542578057657  75.6278211058426 2.57542578057657  C 75.6278211058426 2.57542578057657  78.0546193544613 3.81627955370284  78.0546193544613 3.81627955370284  C 78.0546193544613 3.81627955370284  82.904376266185 5.17049027837101  82.904376266185 5.17049027837101  C 82.904376266185 5.17049027837101  85.761530132869 9.01347757093129  85.761530132869 9.01347757093129  C 85.761530132869 9.01347757093129  88.4735344715667 10.8231403330438  88.4735344715667 10.8231403330438  Z " fill-rule="nonzero" fill="#f2f2f2" stroke="none" transform="matrix(1 0 0 1 2843 4355 )" />
    <path d="M 109.889456056962 25.3206847427196  C 109.889456056962 25.3206847427196  108.891234741685 26.9076820643035  108.891234741685 26.9076820643035  C 108.891234741685 26.9076820643035  106.892245628185 27.4764910532898  106.892245628185 27.4764910532898  C 106.892245628185 27.4764910532898  101.950815330364 25.2963939673892  101.950815330364 25.2963939673892  C 101.950815330364 25.2963939673892  98.8237342712843 20.2246982893678  98.8237342712843 20.2246982893678  C 98.8237342712843 20.2246982893678  97.2856585712153 15.9110614369497  97.2856585712153 15.9110614369497  C 97.2856585712153 15.9110614369497  98.2762404376502 15.3624947607388  98.2762404376502 15.3624947607388  C 98.2762404376502 15.3624947607388  99.0427318047379 17.0466551836445  99.0427318047379 17.0466551836445  C 99.0427318047379 17.0466551836445  101.207242309801 18.3320420448765  101.207242309801 18.3320420448765  C 101.207242309801 18.3320420448765  106.517912634957 23.3956407977878  106.517912634957 23.3956407977878  C 106.517912634957 23.3956407977878  109.889456056962 25.3206847427196  109.889456056962 25.3206847427196  Z " stroke-width="2" stroke="#505050" fill="none" stroke-opacity="0.211764705882353" transform="matrix(1 0 0 1 2843 4355 )" mask="url(#clip194)" />
    <path d="M 83.4620560316075 14.3746698973038  C 83.4620560316075 14.3746698973038  81.0683620613016 19.2985966920653  81.0683620613016 19.2985966920653  C 81.0683620613016 19.2985966920653  77.3275786119619 19.7641698858975  77.3275786119619 19.7641698858975  C 77.3275786119619 19.7641698858975  76.2020331493287 21.3531914387592  76.2020331493287 21.3531914387592  C 76.2020331493287 21.3531914387592  72.2982747913725 22.7316929387575  72.2982747913725 22.7316929387575  C 72.2982747913725 22.7316929387575  66.7838858304471 24.0575644255403  66.7838858304471 24.0575644255403  C 66.7838858304471 24.0575644255403  62.9921727221648 24.0514917317077  62.9921727221648 24.0514917317077  C 62.9921727221648 24.0514917317077  57.1378084267046 22.4057917030751  57.1378084267046 22.4057917030751  C 57.1378084267046 22.4057917030751  53.0583427453963 20.8248670753235  53.0583427453963 20.8248670753235  C 53.0583427453963 20.8248670753235  53.6491267891311 19.0718827889819  53.6491267891311 19.0718827889819  C 53.6491267891311 19.0718827889819  60.0509849182255 19.8997933814921  60.0509849182255 19.8997933814921  C 60.0509849182255 19.8997933814921  63.9572897591284 19.4564867317126  63.9572897591284 19.4564867317126  C 63.9572897591284 19.4564867317126  65.0344520457659 15.2714043532499  65.0344520457659 15.2714043532499  C 65.0344520457659 15.2714043532499  66.0581381905139 15.1317323951001  66.0581381905139 15.1317323951001  C 66.0581381905139 15.1317323951001  66.7507815521344 19.6083040775276  66.7507815521344 19.6083040775276  C 66.7507815521344 19.6083040775276  72.6751542675486 19.175118584136  72.6751542675486 19.175118584136  C 72.6751542675486 19.175118584136  74.6894222787319 15.7673410162448  74.6894222787319 15.7673410162448  C 74.6894222787319 15.7673410162448  78.6746680909964 13.7491824325466  78.6746680909964 13.7491824325466  C 78.6746680909964 13.7491824325466  77.8878048603319 10.4172977497308  77.8878048603319 10.4172977497308  C 77.8878048603319 10.4172977497308  82.1658962115164 10.3100134920219  82.1658962115164 10.3100134920219  C 82.1658962115164 10.3100134920219  83.6072055595942 11.237111417131  83.6072055595942 11.237111417131  C 83.6072055595942 11.237111417131  83.4620560316075 14.3746698973038  83.4620560316075 14.3746698973038  Z " stroke-width="2" stroke="#505050" fill="none" stroke-opacity="0.211764705882353" transform="matrix(1 0 0 1 2843 4355 )" mask="url(#clip194)" />
    <path d="M 45.2851836881781 26.3429215378728  C 45.2851836881781 26.3429215378728  46.8589101495068 30.1363309519652  46.8589101495068 30.1363309519652  C 46.8589101495068 30.1363309519652  53.2353034491299 33.8690134277319  53.2353034491299 33.8690134277319  C 53.2353034491299 33.8690134277319  57.8699024129133 39.9153922537166  57.8699024129133 39.9153922537166  C 57.8699024129133 39.9153922537166  61.95955402601 39.7251145136288  61.95955402601 39.7251145136288  C 61.95955402601 39.7251145136288  61.671801452984 42.2554036105423  61.671801452984 42.2554036105423  C 61.671801452984 42.2554036105423  67.1849370335282 43.2270346237571  67.1849370335282 43.2270346237571  C 67.1849370335282 43.2270346237571  65.0433448749889 44.3059498946809  65.0433448749889 44.3059498946809  C 65.0433448749889 44.3059498946809  72.6293175745005 46.7147851149424  72.6293175745005 46.7147851149424  C 72.6293175745005 46.7147851149424  71.8373613779415 48.3726305312403  71.8373613779415 48.3726305312403  C 71.8373613779415 48.3726305312403  67.1085425451144 48.7734283241914  67.1085425451144 48.7734283241914  C 67.1085425451144 48.7734283241914  65.3540157945392 47.2876425664839  65.3540157945392 47.2876425664839  C 65.3540157945392 47.2876425664839  59.219538374894 46.6439370202292  59.219538374894 46.6439370202292  C 59.219538374894 46.6439370202292  52.0078986686112 45.781614496001  52.0078986686112 45.781614496001  C 52.0078986686112 45.781614496001  46.4540193609123 42.1299012713355  46.4540193609123 42.1299012713355  C 46.4540193609123 42.1299012713355  42.4025649920228 38.9882943286075  42.4025649920228 38.9882943286075  C 42.4025649920228 38.9882943286075  38.6923393380488 33.9985642294942  38.6923393380488 33.9985642294942  C 38.6923393380488 33.9985642294942  27.5298512003804 31.510783989409  27.5298512003804 31.510783989409  C 27.5298512003804 31.510783989409  21.4819542009375 33.1342174739886  21.4819542009375 33.1342174739886  C 21.4819542009375 33.1342174739886  17.1223753954447 35.0147283308147  17.1223753954447 35.0147283308147  C 17.1223753954447 35.0147283308147  18.0314698075712 39.2210809255235  18.0314698075712 39.2210809255235  C 18.0314698075712 39.2210809255235  12.4241143579828 41.1845852647285  12.4241143579828 41.1845852647285  C 12.4241143579828 41.1845852647285  8.42613613098285 40.2291481017341  8.42613613098285 40.2291481017341  C 8.42613613098285 40.2291481017341  1.04133558429504 39.9902888109854  1.04133558429504 39.9902888109854  C 1.04133558429504 39.9902888109854  0.919104402832613 19.9838147673417  0.919104402832613 19.9838147673417  C 0.919104402832613 19.9838147673417  0.799419704317188 1.5572374479789  0.799419704317188 1.5572374479789  C 0.799419704317188 1.5572374479789  13.1880592421231 5.44578573211572  13.1880592421231 5.44578573211572  C 13.1880592421231 5.44578573211572  26.389026840064 8.67848308233226  26.389026840064 8.67848308233226  C 26.389026840064 8.67848308233226  31.3088318939264 11.5731338092012  31.3088318939264 11.5731338092012  C 31.3088318939264 11.5731338092012  35.2864382573495 14.4171787541321  35.2864382573495 14.4171787541321  C 35.2864382573495 14.4171787541321  38.221239992829 17.7510876682253  38.221239992829 17.7510876682253  C 38.221239992829 17.7510876682253  50.1184083218378 21.2530077783536  50.1184083218378 21.2530077783536  C 50.1184083218378 21.2530077783536  51.855109691783 24.2610154567645  51.855109691783 24.2610154567645  C 51.855109691783 24.2610154567645  45.2851836881781 26.3429215378728  45.2851836881781 26.3429215378728  Z " stroke-width="2" stroke="#505050" fill="none" stroke-opacity="0.211764705882353" transform="matrix(1 0 0 1 2843 4355 )" mask="url(#clip194)" />
    <path d="M 88.4735344715667 10.8231403330438  C 88.4735344715667 10.8231403330438  89.3291527418036 13.7623241480185  89.3291527418036 13.7623241480185  C 89.3291527418036 13.7623241480185  87.0958871971672 15.2703764497791  87.0958871971672 15.2703764497791  C 87.0958871971672 15.2703764497791  85.7513442010805 11.9324190731307  85.7513442010805 11.9324190731307  C 85.7513442010805 11.9324190731307  84.0910373195491 9.74827352467488  84.0910373195491 9.74827352467488  C 84.0910373195491 9.74827352467488  80.8570039766894 6.42551367044027  80.8570039766894 6.42551367044027  C 80.8570039766894 6.42551367044027  74.9428171930636 4.01667845017842  74.9428171930636 4.01667845017842  C 74.9428171930636 4.01667845017842  69.7887357080652 2.35680880260314  69.7887357080652 2.35680880260314  C 69.7887357080652 2.35680880260314  71.7724459238823 0.99450115282493  71.7724459238823 0.99450115282493  C 71.7724459238823 0.99450115282493  75.6278211058426 2.57542578057657  75.6278211058426 2.57542578057657  C 75.6278211058426 2.57542578057657  78.0546193544613 3.81627955370284  78.0546193544613 3.81627955370284  C 78.0546193544613 3.81627955370284  82.904376266185 5.17049027837101  82.904376266185 5.17049027837101  C 82.904376266185 5.17049027837101  85.761530132869 9.01347757093129  85.761530132869 9.01347757093129  C 85.761530132869 9.01347757093129  88.4735344715667 10.8231403330438  88.4735344715667 10.8231403330438  Z " stroke-width="2" stroke="#505050" fill="none" stroke-opacity="0.211764705882353" transform="matrix(1 0 0 1 2843 4355 )" mask="url(#clip194)" />
  </g>
</svg>