<?xml version="1.0" encoding="utf-8"?>
<svg version="1.1" xmlns:xlink="http://www.w3.org/1999/xlink" width="71px" height="77px" xmlns="http://www.w3.org/2000/svg">
  <defs>
    <mask fill="white" id="clip195">
      <path d="M 68.6159101369752 57.0752589403086  C 68.6159101369752 57.0752589403086  69.1225624411232 59.1490388163483  69.1225624411232 59.1490388163483  C 69.1225624411232 59.1490388163483  69.8555365867172 62.8866420837715  69.8555365867172 62.8866420837715  C 69.8555365867172 62.8866420837715  70.2798900394292 67.4911377349758  70.2798900394292 67.4911377349758  C 70.2798900394292 67.4911377349758  67.8237836919128 72.622593050229  67.8237836919128 72.622593050229  C 67.8237836919128 72.622593050229  65.1902204459893 66.9051999300775  65.1902204459893 66.9051999300775  C 65.1902204459893 66.9051999300775  61.8185393762574 69.752897657638  61.8185393762574 69.752897657638  C 61.8185393762574 69.752897657638  64.1229072164401 73.8824593201471  64.1229072164401 73.8824593201471  C 64.1229072164401 73.8824593201471  62.055148574133 76.5061808219444  62.055148574133 76.5061808219444  C 62.055148574133 76.5061808219444  51.6996584672563 73.2565257606481  51.6996584672563 73.2565257606481  C 51.6996584672563 73.2565257606481  49.6730492506668 69.1989564564203  49.6730492506668 69.1989564564203  C 49.6730492506668 69.1989564564203  53.7403927400806 66.531239624562  53.7403927400806 66.531239624562  C 53.7403927400806 66.531239624562  47.3043854328004 62.4206915426751  47.3043854328004 62.4206915426751  C 47.3043854328004 62.4206915426751  45.0385951792276 66.2032744368374  45.0385951792276 66.2032744368374  C 45.0385951792276 66.2032744368374  41.6463393966372 65.9872973619942  41.6463393966372 65.9872973619942  C 41.6463393966372 65.9872973619942  36.3097732488919 69.118964947219  36.3097732488919 69.118964947219  C 36.3097732488919 69.118964947219  35.1164399030828 67.4751394331357  35.1164399030828 67.4751394331357  C 35.1164399030828 67.4751394331357  37.9480347602717 61.2868118997489  37.9480347602717 61.2868118997489  C 37.9480347602717 61.2868118997489  42.4899026238464 59.702980017566  42.4899026238464 59.702980017566  C 42.4899026238464 59.702980017566  46.4222446189799 57.5792054482759  46.4222446189799 57.5792054482759  C 46.4222446189799 57.5792054482759  48.9709371743611 60.1289348040623  48.9709371743611 60.1289348040623  C 48.9709371743611 60.1289348040623  56.3225192038564 58.5870984642101  56.3225192038564 58.5870984642101  C 56.3225192038564 58.5870984642101  57.4978496759141 56.0733652875644  57.4978496759141 56.0733652875644  C 57.4978496759141 56.0733652875644  62.5952347866757 55.923381207812  62.5952347866757 55.923381207812  C 62.5952347866757 55.923381207812  62.1657376557488 51.5558448054296  62.1657376557488 51.5558448054296  C 62.1657376557488 51.5558448054296  68.0115279467488 54.2355603636681  68.0115279467488 54.2355603636681  C 68.0115279467488 54.2355603636681  68.6159101369752 57.0752589403086  68.6159101369752 57.0752589403086  Z M 52.5444875551638 43.2127303957509  C 52.5444875551638 43.2127303957509  51.8578065135023 48.6241559932079  51.8578065135023 48.6241559932079  C 51.8578065135023 48.6241559932079  49.2653926932963 51.9367887708136  49.2653926932963 51.9367887708136  C 49.2653926932963 51.9367887708136  47.0073179570457 55.5064098689149  47.0073179570457 55.5064098689149  C 47.0073179570457 55.5064098689149  42.8731066508413 57.1762326234885  42.8731066508413 57.1762326234885  C 42.8731066508413 57.1762326234885  38.431540512453 53.2726469744729  38.431540512453 53.2726469744729  C 38.431540512453 53.2726469744729  39.9154916773922 51.7588076628413  39.9154916773922 51.7588076628413  C 39.9154916773922 51.7588076628413  41.7260664089642 48.7221455919796  41.7260664089642 48.7221455919796  C 41.7260664089642 48.7221455919796  42.5233365322419 45.2045189748594  42.5233365322419 45.2045189748594  C 42.5233365322419 45.2045189748594  48.3678208448322 44.8705544239446  48.3678208448322 44.8705544239446  C 48.3678208448322 44.8705544239446  47.2079214074186 48.6861494128389  47.2079214074186 48.6861494128389  C 47.2079214074186 48.6861494128389  52.5444875551638 43.2127303957509  52.5444875551638 43.2127303957509  Z M 16.140104990667 50.1839904226304  C 16.140104990667 50.1839904226304  12.3543578246524 55.5184085952948  12.3543578246524 55.5184085952948  C 12.3543578246524 55.5184085952948  0.892976901616066 60.8678407731211  0.892976901616066 60.8678407731211  C 0.892976901616066 60.8678407731211  4.42925567421816 56.9262591572349  4.42925567421816 56.9262591572349  C 4.42925567421816 56.9262591572349  9.63722986659588 53.4406291437952  9.63722986659588 53.4406291437952  C 9.63722986659588 53.4406291437952  15.836627976 48.0742143674504  15.836627976 48.0742143674504  C 15.836627976 48.0742143674504  19.6172314638002 42.4388125442298  19.6172314638002 42.4388125442298  C 19.6172314638002 42.4388125442298  20.9005791783665 47.0663213515157  20.9005791783665 47.0663213515157  C 20.9005791783665 47.0663213515157  16.140104990667 50.1839904226304  16.140104990667 50.1839904226304  Z M 35.9677186476146 42.176840351596  C 35.9677186476146 42.176840351596  34.8515404750262 39.4671279774073  34.8515404750262 39.4671279774073  C 34.8515404750262 39.4671279774073  39.1825175317983 41.2289409675624  39.1825175317983 41.2289409675624  C 39.1825175317983 41.2289409675624  45.6390995519371 41.2209418166421  45.6390995519371 41.2209418166421  C 45.6390995519371 41.2209418166421  45.4976484010335 45.0475200408654  45.4976484010335 45.0475200408654  C 45.4976484010335 45.0475200408654  42.1594012396966 47.4572642555497  42.1594012396966 47.4572642555497  C 42.1594012396966 47.4572642555497  35.71053473688 49.1590836138038  35.71053473688 49.1590836138038  C 35.71053473688 49.1590836138038  35.4559226652526 46.5253631733563  35.4559226652526 46.5253631733563  C 35.4559226652526 46.5253631733563  35.9677186476146 42.176840351596  35.9677186476146 42.176840351596  Z M 60.8335249981437 35.7975174928048  C 60.8335249981437 35.7975174928048  62.8189847890157 37.9232918498252  62.8189847890157 37.9232918498252  C 62.8189847890157 37.9232918498252  64.8455940056052 45.7254480813451  64.8455940056052 45.7254480813451  C 64.8455940056052 45.7254480813451  57.4117131246744 44.2196079206336  57.4117131246744 44.2196079206336  C 57.4117131246744 44.2196079206336  59.4318726846397 46.1254056273507  59.4318726846397 46.1254056273507  C 59.4318726846397 46.1254056273507  61.1987261513869 49.6230343671706  61.1987261513869 49.6230343671706  C 61.1987261513869 49.6230343671706  55.8994717295545 50.8908997880088  55.8994717295545 50.8908997880088  C 55.8994717295545 50.8908997880088  55.6011383931019 46.9073226297922  55.6011383931019 46.9073226297922  C 55.6011383931019 46.9073226297922  53.427934347394 46.6133538334779  53.427934347394 46.6133538334779  C 53.427934347394 46.6133538334779  52.3014688183759 41.7228885368795  52.3014688183759 41.7228885368795  C 52.3014688183759 41.7228885368795  56.5424315063913 42.176840351596  56.5424315063913 42.176840351596  C 56.5424315063913 42.176840351596  56.4498452985269 40.0230689663553  56.4498452985269 40.0230689663553  C 56.4498452985269 40.0230689663553  52.0417130685336 35.6715308658132  52.0417130685336 35.6715308658132  C 52.0417130685336 35.6715308658132  60.8335249981437 35.7975174928048  60.8335249981437 35.7975174928048  Z M 31.6482948079696 30.6860600548521  C 31.6482948079696 30.6860600548521  34.1532660985256 32.7458414167814  34.1532660985256 32.7458414167814  C 34.1532660985256 32.7458414167814  32.2398178026595 39.132147935441  32.2398178026595 39.132147935441  C 32.2398178026595 39.132147935441  27.2851898212109 36.2864499956105  27.2851898212109 36.2864499956105  C 27.2851898212109 36.2864499956105  23.6023162194899 30.476082343199  23.6023162194899 30.476082343199  C 23.6023162194899 30.476082343199  31.6482948079696 30.6860600548521  31.6482948079696 30.6860600548521  Z M 26.4313392375715 1.25518403202153  C 26.4313392375715 1.25518403202153  30.7983220418472 1.26318318294189  30.7983220418472 1.26318318294189  C 30.7983220418472 1.26318318294189  35.2450318584504 2.93900530070596  35.2450318584504 2.93900530070596  C 35.2450318584504 2.93900530070596  39.3355218998299 1.41116747496397  39.3355218998299 1.41116747496397  C 39.3355218998299 1.41116747496397  39.9913408722036 2.90300912156532  39.9913408722036 2.90300912156532  C 39.9913408722036 2.90300912156532  38.818582239253 5.33275121354992  38.818582239253 5.33275121354992  C 38.818582239253 5.33275121354992  41.2798322649843 9.52030672022983  41.2798322649843 9.52030672022983  C 41.2798322649843 9.52030672022983  39.3818150037619 14.3537936637087  39.3818150037619 14.3537936637087  C 39.3818150037619 14.3537936637087  33.2621439066852 16.2755896722661  33.2621439066852 16.2755896722661  C 33.2621439066852 16.2755896722661  32.1279628603455 22.391924847372  32.1279628603455 22.391924847372  C 32.1279628603455 22.391924847372  33.7405059806518 26.9794379000575  33.7405059806518 26.9794379000575  C 33.7405059806518 26.9794379000575  39.4306799468011 27.6133706104765  39.4306799468011 27.6133706104765  C 39.4306799468011 27.6133706104765  42.6197604399114 26.9334427822669  42.6197604399114 26.9334427822669  C 42.6197604399114 26.9334427822669  51.6263409938407 30.117104848472  51.6263409938407 30.117104848472  C 51.6263409938407 30.117104848472  50.9396599521792 33.2367737073166  50.9396599521792 33.2367737073166  C 50.9396599521792 33.2367737073166  53.2928927354015 34.6106278778464  53.2928927354015 34.6106278778464  C 53.2928927354015 34.6106278778464  52.5419157160562 37.242348530564  52.5419157160562 37.242348530564  C 52.5419157160562 37.242348530564  46.9224472665029 34.4386461330639  46.9224472665029 34.4386461330639  C 46.9224472665029 34.4386461330639  44.2580219512915 31.4309653871008  44.2580219512915 31.4309653871008  C 44.2580219512915 31.4309653871008  42.4011541157871 33.5327422913607  42.4011541157871 33.5327422913607  C 42.4011541157871 33.5327422913607  37.8104213091727 30.1031063343619  37.8104213091727 30.1031063343619  C 37.8104213091727 30.1031063343619  29.3915260501278 30.9510163318939  29.3915260501278 30.9510163318939  C 29.3915260501278 30.9510163318939  25.8012386562717 29.6831509110561  25.8012386562717 29.6831509110561  C 25.8012386562717 29.6831509110561  26.169011648622 27.309402875512  26.169011648622 27.309402875512  C 26.169011648622 27.309402875512  28.4219427066583 25.845558257131  28.4219427066583 25.845558257131  C 28.4219427066583 25.845558257131  26.2693133738085 24.5136996289319  26.2693133738085 24.5136996289319  C 26.2693133738085 24.5136996289319  25.3383076169493 26.5894792927015  25.3383076169493 26.5894792927015  C 25.3383076169493 26.5894792927015  21.778882292381 23.2798305995045  21.778882292381 23.2798305995045  C 21.778882292381 23.2798305995045  20.6987098672953 20.7660974228587  20.6987098672953 20.7660974228587  C 20.6987098672953 20.7660974228587  20.431238600131 13.7658560710802  20.431238600131 13.7658560710802  C 20.431238600131 13.7658560710802  23.334844952326 15.6756533532575  23.334844952326 15.6756533532575  C 23.334844952326 15.6756533532575  24.0806782934564 6.56662024297735  24.0806782934564 6.56662024297735  C 24.0806782934564 6.56662024297735  26.4313392375715 1.25518403202153  26.4313392375715 1.25518403202153  Z " fill-rule="evenodd" />
    </mask>
  </defs>
  <g transform="matrix(1 0 0 1 -2673 -4237 )">
    <path d="M 68.6159101369752 57.0752589403086  C 68.6159101369752 57.0752589403086  69.1225624411232 59.1490388163483  69.1225624411232 59.1490388163483  C 69.1225624411232 59.1490388163483  69.8555365867172 62.8866420837715  69.8555365867172 62.8866420837715  C 69.8555365867172 62.8866420837715  70.2798900394292 67.4911377349758  70.2798900394292 67.4911377349758  C 70.2798900394292 67.4911377349758  67.8237836919128 72.622593050229  67.8237836919128 72.622593050229  C 67.8237836919128 72.622593050229  65.1902204459893 66.9051999300775  65.1902204459893 66.9051999300775  C 65.1902204459893 66.9051999300775  61.8185393762574 69.752897657638  61.8185393762574 69.752897657638  C 61.8185393762574 69.752897657638  64.1229072164401 73.8824593201471  64.1229072164401 73.8824593201471  C 64.1229072164401 73.8824593201471  62.055148574133 76.5061808219444  62.055148574133 76.5061808219444  C 62.055148574133 76.5061808219444  51.6996584672563 73.2565257606481  51.6996584672563 73.2565257606481  C 51.6996584672563 73.2565257606481  49.6730492506668 69.1989564564203  49.6730492506668 69.1989564564203  C 49.6730492506668 69.1989564564203  53.7403927400806 66.531239624562  53.7403927400806 66.531239624562  C 53.7403927400806 66.531239624562  47.3043854328004 62.4206915426751  47.3043854328004 62.4206915426751  C 47.3043854328004 62.4206915426751  45.0385951792276 66.2032744368374  45.0385951792276 66.2032744368374  C 45.0385951792276 66.2032744368374  41.6463393966372 65.9872973619942  41.6463393966372 65.9872973619942  C 41.6463393966372 65.9872973619942  36.3097732488919 69.118964947219  36.3097732488919 69.118964947219  C 36.3097732488919 69.118964947219  35.1164399030828 67.4751394331357  35.1164399030828 67.4751394331357  C 35.1164399030828 67.4751394331357  37.9480347602717 61.2868118997489  37.9480347602717 61.2868118997489  C 37.9480347602717 61.2868118997489  42.4899026238464 59.702980017566  42.4899026238464 59.702980017566  C 42.4899026238464 59.702980017566  46.4222446189799 57.5792054482759  46.4222446189799 57.5792054482759  C 46.4222446189799 57.5792054482759  48.9709371743611 60.1289348040623  48.9709371743611 60.1289348040623  C 48.9709371743611 60.1289348040623  56.3225192038564 58.5870984642101  56.3225192038564 58.5870984642101  C 56.3225192038564 58.5870984642101  57.4978496759141 56.0733652875644  57.4978496759141 56.0733652875644  C 57.4978496759141 56.0733652875644  62.5952347866757 55.923381207812  62.5952347866757 55.923381207812  C 62.5952347866757 55.923381207812  62.1657376557488 51.5558448054296  62.1657376557488 51.5558448054296  C 62.1657376557488 51.5558448054296  68.0115279467488 54.2355603636681  68.0115279467488 54.2355603636681  C 68.0115279467488 54.2355603636681  68.6159101369752 57.0752589403086  68.6159101369752 57.0752589403086  Z M 52.5444875551638 43.2127303957509  C 52.5444875551638 43.2127303957509  51.8578065135023 48.6241559932079  51.8578065135023 48.6241559932079  C 51.8578065135023 48.6241559932079  49.2653926932963 51.9367887708136  49.2653926932963 51.9367887708136  C 49.2653926932963 51.9367887708136  47.0073179570457 55.5064098689149  47.0073179570457 55.5064098689149  C 47.0073179570457 55.5064098689149  42.8731066508413 57.1762326234885  42.8731066508413 57.1762326234885  C 42.8731066508413 57.1762326234885  38.431540512453 53.2726469744729  38.431540512453 53.2726469744729  C 38.431540512453 53.2726469744729  39.9154916773922 51.7588076628413  39.9154916773922 51.7588076628413  C 39.9154916773922 51.7588076628413  41.7260664089642 48.7221455919796  41.7260664089642 48.7221455919796  C 41.7260664089642 48.7221455919796  42.5233365322419 45.2045189748594  42.5233365322419 45.2045189748594  C 42.5233365322419 45.2045189748594  48.3678208448322 44.8705544239446  48.3678208448322 44.8705544239446  C 48.3678208448322 44.8705544239446  47.2079214074186 48.6861494128389  47.2079214074186 48.6861494128389  C 47.2079214074186 48.6861494128389  52.5444875551638 43.2127303957509  52.5444875551638 43.2127303957509  Z M 16.140104990667 50.1839904226304  C 16.140104990667 50.1839904226304  12.3543578246524 55.5184085952948  12.3543578246524 55.5184085952948  C 12.3543578246524 55.5184085952948  0.892976901616066 60.8678407731211  0.892976901616066 60.8678407731211  C 0.892976901616066 60.8678407731211  4.42925567421816 56.9262591572349  4.42925567421816 56.9262591572349  C 4.42925567421816 56.9262591572349  9.63722986659588 53.4406291437952  9.63722986659588 53.4406291437952  C 9.63722986659588 53.4406291437952  15.836627976 48.0742143674504  15.836627976 48.0742143674504  C 15.836627976 48.0742143674504  19.6172314638002 42.4388125442298  19.6172314638002 42.4388125442298  C 19.6172314638002 42.4388125442298  20.9005791783665 47.0663213515157  20.9005791783665 47.0663213515157  C 20.9005791783665 47.0663213515157  16.140104990667 50.1839904226304  16.140104990667 50.1839904226304  Z M 35.9677186476146 42.176840351596  C 35.9677186476146 42.176840351596  34.8515404750262 39.4671279774073  34.8515404750262 39.4671279774073  C 34.8515404750262 39.4671279774073  39.1825175317983 41.2289409675624  39.1825175317983 41.2289409675624  C 39.1825175317983 41.2289409675624  45.6390995519371 41.2209418166421  45.6390995519371 41.2209418166421  C 45.6390995519371 41.2209418166421  45.4976484010335 45.0475200408654  45.4976484010335 45.0475200408654  C 45.4976484010335 45.0475200408654  42.1594012396966 47.4572642555497  42.1594012396966 47.4572642555497  C 42.1594012396966 47.4572642555497  35.71053473688 49.1590836138038  35.71053473688 49.1590836138038  C 35.71053473688 49.1590836138038  35.4559226652526 46.5253631733563  35.4559226652526 46.5253631733563  C 35.4559226652526 46.5253631733563  35.9677186476146 42.176840351596  35.9677186476146 42.176840351596  Z M 60.8335249981437 35.7975174928048  C 60.8335249981437 35.7975174928048  62.8189847890157 37.9232918498252  62.8189847890157 37.9232918498252  C 62.8189847890157 37.9232918498252  64.8455940056052 45.7254480813451  64.8455940056052 45.7254480813451  C 64.8455940056052 45.7254480813451  57.4117131246744 44.2196079206336  57.4117131246744 44.2196079206336  C 57.4117131246744 44.2196079206336  59.4318726846397 46.1254056273507  59.4318726846397 46.1254056273507  C 59.4318726846397 46.1254056273507  61.1987261513869 49.6230343671706  61.1987261513869 49.6230343671706  C 61.1987261513869 49.6230343671706  55.8994717295545 50.8908997880088  55.8994717295545 50.8908997880088  C 55.8994717295545 50.8908997880088  55.6011383931019 46.9073226297922  55.6011383931019 46.9073226297922  C 55.6011383931019 46.9073226297922  53.427934347394 46.6133538334779  53.427934347394 46.6133538334779  C 53.427934347394 46.6133538334779  52.3014688183759 41.7228885368795  52.3014688183759 41.7228885368795  C 52.3014688183759 41.7228885368795  56.5424315063913 42.176840351596  56.5424315063913 42.176840351596  C 56.5424315063913 42.176840351596  56.4498452985269 40.0230689663553  56.4498452985269 40.0230689663553  C 56.4498452985269 40.0230689663553  52.0417130685336 35.6715308658132  52.0417130685336 35.6715308658132  C 52.0417130685336 35.6715308658132  60.8335249981437 35.7975174928048  60.8335249981437 35.7975174928048  Z M 31.6482948079696 30.6860600548521  C 31.6482948079696 30.6860600548521  34.1532660985256 32.7458414167814  34.1532660985256 32.7458414167814  C 34.1532660985256 32.7458414167814  32.2398178026595 39.132147935441  32.2398178026595 39.132147935441  C 32.2398178026595 39.132147935441  27.2851898212109 36.2864499956105  27.2851898212109 36.2864499956105  C 27.2851898212109 36.2864499956105  23.6023162194899 30.476082343199  23.6023162194899 30.476082343199  C 23.6023162194899 30.476082343199  31.6482948079696 30.6860600548521  31.6482948079696 30.6860600548521  Z M 26.4313392375715 1.25518403202153  C 26.4313392375715 1.25518403202153  30.7983220418472 1.26318318294189  30.7983220418472 1.26318318294189  C 30.7983220418472 1.26318318294189  35.2450318584504 2.93900530070596  35.2450318584504 2.93900530070596  C 35.2450318584504 2.93900530070596  39.3355218998299 1.41116747496397  39.3355218998299 1.41116747496397  C 39.3355218998299 1.41116747496397  39.9913408722036 2.90300912156532  39.9913408722036 2.90300912156532  C 39.9913408722036 2.90300912156532  38.818582239253 5.33275121354992  38.818582239253 5.33275121354992  C 38.818582239253 5.33275121354992  41.2798322649843 9.52030672022983  41.2798322649843 9.52030672022983  C 41.2798322649843 9.52030672022983  39.3818150037619 14.3537936637087  39.3818150037619 14.3537936637087  C 39.3818150037619 14.3537936637087  33.2621439066852 16.2755896722661  33.2621439066852 16.2755896722661  C 33.2621439066852 16.2755896722661  32.1279628603455 22.391924847372  32.1279628603455 22.391924847372  C 32.1279628603455 22.391924847372  33.7405059806518 26.9794379000575  33.7405059806518 26.9794379000575  C 33.7405059806518 26.9794379000575  39.4306799468011 27.6133706104765  39.4306799468011 27.6133706104765  C 39.4306799468011 27.6133706104765  42.6197604399114 26.9334427822669  42.6197604399114 26.9334427822669  C 42.6197604399114 26.9334427822669  51.6263409938407 30.117104848472  51.6263409938407 30.117104848472  C 51.6263409938407 30.117104848472  50.9396599521792 33.2367737073166  50.9396599521792 33.2367737073166  C 50.9396599521792 33.2367737073166  53.2928927354015 34.6106278778464  53.2928927354015 34.6106278778464  C 53.2928927354015 34.6106278778464  52.5419157160562 37.242348530564  52.5419157160562 37.242348530564  C 52.5419157160562 37.242348530564  46.9224472665029 34.4386461330639  46.9224472665029 34.4386461330639  C 46.9224472665029 34.4386461330639  44.2580219512915 31.4309653871008  44.2580219512915 31.4309653871008  C 44.2580219512915 31.4309653871008  42.4011541157871 33.5327422913607  42.4011541157871 33.5327422913607  C 42.4011541157871 33.5327422913607  37.8104213091727 30.1031063343619  37.8104213091727 30.1031063343619  C 37.8104213091727 30.1031063343619  29.3915260501278 30.9510163318939  29.3915260501278 30.9510163318939  C 29.3915260501278 30.9510163318939  25.8012386562717 29.6831509110561  25.8012386562717 29.6831509110561  C 25.8012386562717 29.6831509110561  26.169011648622 27.309402875512  26.169011648622 27.309402875512  C 26.169011648622 27.309402875512  28.4219427066583 25.845558257131  28.4219427066583 25.845558257131  C 28.4219427066583 25.845558257131  26.2693133738085 24.5136996289319  26.2693133738085 24.5136996289319  C 26.2693133738085 24.5136996289319  25.3383076169493 26.5894792927015  25.3383076169493 26.5894792927015  C 25.3383076169493 26.5894792927015  21.778882292381 23.2798305995045  21.778882292381 23.2798305995045  C 21.778882292381 23.2798305995045  20.6987098672953 20.7660974228587  20.6987098672953 20.7660974228587  C 20.6987098672953 20.7660974228587  20.431238600131 13.7658560710802  20.431238600131 13.7658560710802  C 20.431238600131 13.7658560710802  23.334844952326 15.6756533532575  23.334844952326 15.6756533532575  C 23.334844952326 15.6756533532575  24.0806782934564 6.56662024297735  24.0806782934564 6.56662024297735  C 24.0806782934564 6.56662024297735  26.4313392375715 1.25518403202153  26.4313392375715 1.25518403202153  Z " fill-rule="nonzero" fill="#f2f2f2" stroke="none" transform="matrix(1 0 0 1 2673 4237 )" />
    <path d="M 68.6159101369752 57.0752589403086  C 68.6159101369752 57.0752589403086  69.1225624411232 59.1490388163483  69.1225624411232 59.1490388163483  C 69.1225624411232 59.1490388163483  69.8555365867172 62.8866420837715  69.8555365867172 62.8866420837715  C 69.8555365867172 62.8866420837715  70.2798900394292 67.4911377349758  70.2798900394292 67.4911377349758  C 70.2798900394292 67.4911377349758  67.8237836919128 72.622593050229  67.8237836919128 72.622593050229  C 67.8237836919128 72.622593050229  65.1902204459893 66.9051999300775  65.1902204459893 66.9051999300775  C 65.1902204459893 66.9051999300775  61.8185393762574 69.752897657638  61.8185393762574 69.752897657638  C 61.8185393762574 69.752897657638  64.1229072164401 73.8824593201471  64.1229072164401 73.8824593201471  C 64.1229072164401 73.8824593201471  62.055148574133 76.5061808219444  62.055148574133 76.5061808219444  C 62.055148574133 76.5061808219444  51.6996584672563 73.2565257606481  51.6996584672563 73.2565257606481  C 51.6996584672563 73.2565257606481  49.6730492506668 69.1989564564203  49.6730492506668 69.1989564564203  C 49.6730492506668 69.1989564564203  53.7403927400806 66.531239624562  53.7403927400806 66.531239624562  C 53.7403927400806 66.531239624562  47.3043854328004 62.4206915426751  47.3043854328004 62.4206915426751  C 47.3043854328004 62.4206915426751  45.0385951792276 66.2032744368374  45.0385951792276 66.2032744368374  C 45.0385951792276 66.2032744368374  41.6463393966372 65.9872973619942  41.6463393966372 65.9872973619942  C 41.6463393966372 65.9872973619942  36.3097732488919 69.118964947219  36.3097732488919 69.118964947219  C 36.3097732488919 69.118964947219  35.1164399030828 67.4751394331357  35.1164399030828 67.4751394331357  C 35.1164399030828 67.4751394331357  37.9480347602717 61.2868118997489  37.9480347602717 61.2868118997489  C 37.9480347602717 61.2868118997489  42.4899026238464 59.702980017566  42.4899026238464 59.702980017566  C 42.4899026238464 59.702980017566  46.4222446189799 57.5792054482759  46.4222446189799 57.5792054482759  C 46.4222446189799 57.5792054482759  48.9709371743611 60.1289348040623  48.9709371743611 60.1289348040623  C 48.9709371743611 60.1289348040623  56.3225192038564 58.5870984642101  56.3225192038564 58.5870984642101  C 56.3225192038564 58.5870984642101  57.4978496759141 56.0733652875644  57.4978496759141 56.0733652875644  C 57.4978496759141 56.0733652875644  62.5952347866757 55.923381207812  62.5952347866757 55.923381207812  C 62.5952347866757 55.923381207812  62.1657376557488 51.5558448054296  62.1657376557488 51.5558448054296  C 62.1657376557488 51.5558448054296  68.0115279467488 54.2355603636681  68.0115279467488 54.2355603636681  C 68.0115279467488 54.2355603636681  68.6159101369752 57.0752589403086  68.6159101369752 57.0752589403086  Z " stroke-width="2" stroke="#505050" fill="none" stroke-opacity="0.211764705882353" transform="matrix(1 0 0 1 2673 4237 )" mask="url(#clip195)" />
    <path d="M 52.5444875551638 43.2127303957509  C 52.5444875551638 43.2127303957509  51.8578065135023 48.6241559932079  51.8578065135023 48.6241559932079  C 51.8578065135023 48.6241559932079  49.2653926932963 51.9367887708136  49.2653926932963 51.9367887708136  C 49.2653926932963 51.9367887708136  47.0073179570457 55.5064098689149  47.0073179570457 55.5064098689149  C 47.0073179570457 55.5064098689149  42.8731066508413 57.1762326234885  42.8731066508413 57.1762326234885  C 42.8731066508413 57.1762326234885  38.431540512453 53.2726469744729  38.431540512453 53.2726469744729  C 38.431540512453 53.2726469744729  39.9154916773922 51.7588076628413  39.9154916773922 51.7588076628413  C 39.9154916773922 51.7588076628413  41.7260664089642 48.7221455919796  41.7260664089642 48.7221455919796  C 41.7260664089642 48.7221455919796  42.5233365322419 45.2045189748594  42.5233365322419 45.2045189748594  C 42.5233365322419 45.2045189748594  48.3678208448322 44.8705544239446  48.3678208448322 44.8705544239446  C 48.3678208448322 44.8705544239446  47.2079214074186 48.6861494128389  47.2079214074186 48.6861494128389  C 47.2079214074186 48.6861494128389  52.5444875551638 43.2127303957509  52.5444875551638 43.2127303957509  Z " stroke-width="2" stroke="#505050" fill="none" stroke-opacity="0.211764705882353" transform="matrix(1 0 0 1 2673 4237 )" mask="url(#clip195)" />
    <path d="M 16.140104990667 50.1839904226304  C 16.140104990667 50.1839904226304  12.3543578246524 55.5184085952948  12.3543578246524 55.5184085952948  C 12.3543578246524 55.5184085952948  0.892976901616066 60.8678407731211  0.892976901616066 60.8678407731211  C 0.892976901616066 60.8678407731211  4.42925567421816 56.9262591572349  4.42925567421816 56.9262591572349  C 4.42925567421816 56.9262591572349  9.63722986659588 53.4406291437952  9.63722986659588 53.4406291437952  C 9.63722986659588 53.4406291437952  15.836627976 48.0742143674504  15.836627976 48.0742143674504  C 15.836627976 48.0742143674504  19.6172314638002 42.4388125442298  19.6172314638002 42.4388125442298  C 19.6172314638002 42.4388125442298  20.9005791783665 47.0663213515157  20.9005791783665 47.0663213515157  C 20.9005791783665 47.0663213515157  16.140104990667 50.1839904226304  16.140104990667 50.1839904226304  Z " stroke-width="2" stroke="#505050" fill="none" stroke-opacity="0.211764705882353" transform="matrix(1 0 0 1 2673 4237 )" mask="url(#clip195)" />
    <path d="M 35.9677186476146 42.176840351596  C 35.9677186476146 42.176840351596  34.8515404750262 39.4671279774073  34.8515404750262 39.4671279774073  C 34.8515404750262 39.4671279774073  39.1825175317983 41.2289409675624  39.1825175317983 41.2289409675624  C 39.1825175317983 41.2289409675624  45.6390995519371 41.2209418166421  45.6390995519371 41.2209418166421  C 45.6390995519371 41.2209418166421  45.4976484010335 45.0475200408654  45.4976484010335 45.0475200408654  C 45.4976484010335 45.0475200408654  42.1594012396966 47.4572642555497  42.1594012396966 47.4572642555497  C 42.1594012396966 47.4572642555497  35.71053473688 49.1590836138038  35.71053473688 49.1590836138038  C 35.71053473688 49.1590836138038  35.4559226652526 46.5253631733563  35.4559226652526 46.5253631733563  C 35.4559226652526 46.5253631733563  35.9677186476146 42.176840351596  35.9677186476146 42.176840351596  Z " stroke-width="2" stroke="#505050" fill="none" stroke-opacity="0.211764705882353" transform="matrix(1 0 0 1 2673 4237 )" mask="url(#clip195)" />
    <path d="M 60.8335249981437 35.7975174928048  C 60.8335249981437 35.7975174928048  62.8189847890157 37.9232918498252  62.8189847890157 37.9232918498252  C 62.8189847890157 37.9232918498252  64.8455940056052 45.7254480813451  64.8455940056052 45.7254480813451  C 64.8455940056052 45.7254480813451  57.4117131246744 44.2196079206336  57.4117131246744 44.2196079206336  C 57.4117131246744 44.2196079206336  59.4318726846397 46.1254056273507  59.4318726846397 46.1254056273507  C 59.4318726846397 46.1254056273507  61.1987261513869 49.6230343671706  61.1987261513869 49.6230343671706  C 61.1987261513869 49.6230343671706  55.8994717295545 50.8908997880088  55.8994717295545 50.8908997880088  C 55.8994717295545 50.8908997880088  55.6011383931019 46.9073226297922  55.6011383931019 46.9073226297922  C 55.6011383931019 46.9073226297922  53.427934347394 46.6133538334779  53.427934347394 46.6133538334779  C 53.427934347394 46.6133538334779  52.3014688183759 41.7228885368795  52.3014688183759 41.7228885368795  C 52.3014688183759 41.7228885368795  56.5424315063913 42.176840351596  56.5424315063913 42.176840351596  C 56.5424315063913 42.176840351596  56.4498452985269 40.0230689663553  56.4498452985269 40.0230689663553  C 56.4498452985269 40.0230689663553  52.0417130685336 35.6715308658132  52.0417130685336 35.6715308658132  C 52.0417130685336 35.6715308658132  60.8335249981437 35.7975174928048  60.8335249981437 35.7975174928048  Z " stroke-width="2" stroke="#505050" fill="none" stroke-opacity="0.211764705882353" transform="matrix(1 0 0 1 2673 4237 )" mask="url(#clip195)" />
    <path d="M 31.6482948079696 30.6860600548521  C 31.6482948079696 30.6860600548521  34.1532660985256 32.7458414167814  34.1532660985256 32.7458414167814  C 34.1532660985256 32.7458414167814  32.2398178026595 39.132147935441  32.2398178026595 39.132147935441  C 32.2398178026595 39.132147935441  27.2851898212109 36.2864499956105  27.2851898212109 36.2864499956105  C 27.2851898212109 36.2864499956105  23.6023162194899 30.476082343199  23.6023162194899 30.476082343199  C 23.6023162194899 30.476082343199  31.6482948079696 30.6860600548521  31.6482948079696 30.6860600548521  Z " stroke-width="2" stroke="#505050" fill="none" stroke-opacity="0.211764705882353" transform="matrix(1 0 0 1 2673 4237 )" mask="url(#clip195)" />
    <path d="M 26.4313392375715 1.25518403202153  C 26.4313392375715 1.25518403202153  30.7983220418472 1.26318318294189  30.7983220418472 1.26318318294189  C 30.7983220418472 1.26318318294189  35.2450318584504 2.93900530070596  35.2450318584504 2.93900530070596  C 35.2450318584504 2.93900530070596  39.3355218998299 1.41116747496397  39.3355218998299 1.41116747496397  C 39.3355218998299 1.41116747496397  39.9913408722036 2.90300912156532  39.9913408722036 2.90300912156532  C 39.9913408722036 2.90300912156532  38.818582239253 5.33275121354992  38.818582239253 5.33275121354992  C 38.818582239253 5.33275121354992  41.2798322649843 9.52030672022983  41.2798322649843 9.52030672022983  C 41.2798322649843 9.52030672022983  39.3818150037619 14.3537936637087  39.3818150037619 14.3537936637087  C 39.3818150037619 14.3537936637087  33.2621439066852 16.2755896722661  33.2621439066852 16.2755896722661  C 33.2621439066852 16.2755896722661  32.1279628603455 22.391924847372  32.1279628603455 22.391924847372  C 32.1279628603455 22.391924847372  33.7405059806518 26.9794379000575  33.7405059806518 26.9794379000575  C 33.7405059806518 26.9794379000575  39.4306799468011 27.6133706104765  39.4306799468011 27.6133706104765  C 39.4306799468011 27.6133706104765  42.6197604399114 26.9334427822669  42.6197604399114 26.9334427822669  C 42.6197604399114 26.9334427822669  51.6263409938407 30.117104848472  51.6263409938407 30.117104848472  C 51.6263409938407 30.117104848472  50.9396599521792 33.2367737073166  50.9396599521792 33.2367737073166  C 50.9396599521792 33.2367737073166  53.2928927354015 34.6106278778464  53.2928927354015 34.6106278778464  C 53.2928927354015 34.6106278778464  52.5419157160562 37.242348530564  52.5419157160562 37.242348530564  C 52.5419157160562 37.242348530564  46.9224472665029 34.4386461330639  46.9224472665029 34.4386461330639  C 46.9224472665029 34.4386461330639  44.2580219512915 31.4309653871008  44.2580219512915 31.4309653871008  C 44.2580219512915 31.4309653871008  42.4011541157871 33.5327422913607  42.4011541157871 33.5327422913607  C 42.4011541157871 33.5327422913607  37.8104213091727 30.1031063343619  37.8104213091727 30.1031063343619  C 37.8104213091727 30.1031063343619  29.3915260501278 30.9510163318939  29.3915260501278 30.9510163318939  C 29.3915260501278 30.9510163318939  25.8012386562717 29.6831509110561  25.8012386562717 29.6831509110561  C 25.8012386562717 29.6831509110561  26.169011648622 27.309402875512  26.169011648622 27.309402875512  C 26.169011648622 27.309402875512  28.4219427066583 25.845558257131  28.4219427066583 25.845558257131  C 28.4219427066583 25.845558257131  26.2693133738085 24.5136996289319  26.2693133738085 24.5136996289319  C 26.2693133738085 24.5136996289319  25.3383076169493 26.5894792927015  25.3383076169493 26.5894792927015  C 25.3383076169493 26.5894792927015  21.778882292381 23.2798305995045  21.778882292381 23.2798305995045  C 21.778882292381 23.2798305995045  20.6987098672953 20.7660974228587  20.6987098672953 20.7660974228587  C 20.6987098672953 20.7660974228587  20.431238600131 13.7658560710802  20.431238600131 13.7658560710802  C 20.431238600131 13.7658560710802  23.334844952326 15.6756533532575  23.334844952326 15.6756533532575  C 23.334844952326 15.6756533532575  24.0806782934564 6.56662024297735  24.0806782934564 6.56662024297735  C 24.0806782934564 6.56662024297735  26.4313392375715 1.25518403202153  26.4313392375715 1.25518403202153  Z " stroke-width="2" stroke="#505050" fill="none" stroke-opacity="0.211764705882353" transform="matrix(1 0 0 1 2673 4237 )" mask="url(#clip195)" />
  </g>
</svg>