<?xml version="1.0" encoding="utf-8"?>
<svg version="1.1" xmlns:xlink="http://www.w3.org/1999/xlink" width="125px" height="89px" xmlns="http://www.w3.org/2000/svg">
  <defs>
    <mask fill="white" id="clip196">
      <path d="M 100.882206717715 1.40196190771537  C 100.882206717715 1.40196190771537  105.073271834418 0.62740482785828  105.073271834418 0.62740482785828  C 105.073271834418 0.62740482785828  110.394280977682 3.84221189144865  110.394280977682 3.84221189144865  C 110.394280977682 3.84221189144865  112.525766300515 9.10011084425368  112.525766300515 9.10011084425368  C 112.525766300515 9.10011084425368  124.367066087964 11.8486029311954  124.367066087964 11.8486029311954  C 124.367066087964 11.8486029311954  117.412774215395 17.511563622191  117.412774215395 17.511563622191  C 117.412774215395 17.511563622191  109.3876035722 18.5074227248644  109.3876035722 18.5074227248644  C 109.3876035722 18.5074227248644  98.4630992790301 16.8713684847581  98.4630992790301 16.8713684847581  C 98.4630992790301 16.8713684847581  94.9345922506297 19.75817433596  94.9345922506297 19.75817433596  C 94.9345922506297 19.75817433596  97.4846704742116 25.5792079003958  97.4846704742116 25.5792079003958  C 97.4846704742116 25.5792079003958  99.9859556602829 30.0329111095737  99.9859556602829 30.0329111095737  C 99.9859556602829 30.0329111095737  105.800031287866 33.2615495495901  105.800031287866 33.2615495495901  C 105.800031287866 33.2615495495901  99.6572446707376 37.0217080265492  99.6572446707376 37.0217080265492  C 99.6572446707376 37.0217080265492  99.7702390733939 41.6216286436594  99.7702390733939 41.6216286436594  C 99.7702390733939 41.6216286436594  92.7774263817387 49.4768470872178  92.7774263817387 49.4768470872178  C 92.7774263817387 49.4768470872178  88.2653544393085 55.9005334816442  88.2653544393085 55.9005334816442  C 88.2653544393085 55.9005334816442  80.7332502804304 62.4724131949209  80.7332502804304 62.4724131949209  C 80.7332502804304 62.4724131949209  72.3716644838719 61.9981945746006  72.3716644838719 61.9981945746006  C 72.3716644838719 61.9981945746006  64.4363757518797 68.5088210494192  64.4363757518797 68.5088210494192  C 64.4363757518797 68.5088210494192  69.1487559535643 71.279048156459  69.1487559535643 71.279048156459  C 69.1487559535643 71.279048156459  69.967965372822 76.0034511614033  69.967965372822 76.0034511614033  C 69.967965372822 76.0034511614033  74.0152194315981 79.0977276589955  74.0152194315981 79.0977276589955  C 74.0152194315981 79.0977276589955  75.4430577924357 84.3082047497684  75.4430577924357 84.3082047497684  C 75.4430577924357 84.3082047497684  57.7324892327187 84.2923974624243  57.7324892327187 84.2923974624243  C 57.7324892327187 84.2923974624243  52.9379312836477 88.3173280023957  52.9379312836477 88.3173280023957  C 52.9379312836477 88.3173280023957  47.6605790686823 86.7939006846156  47.6605790686823 86.7939006846156  C 47.6605790686823 86.7939006846156  45.5136854182145 82.4488725759279  45.5136854182145 82.4488725759279  C 45.5136854182145 82.4488725759279  39.9512791420023 77.8173373841295  39.9512791420023 77.8173373841295  C 39.9512791420023 77.8173373841295  26.6847090483226 78.9633657165714  26.6847090483226 78.9633657165714  C 26.6847090483226 78.9633657165714  14.9846522641945 79.0759926388973  14.9846522641945 79.0759926388973  C 14.9846522641945 79.0759926388973  4.84597268040677 79.9315620663924  4.84597268040677 79.9315620663924  C 4.84597268040677 79.9315620663924  7.55783834415567 72.8281623161729  7.55783834415567 72.8281623161729  C 7.55783834415567 72.8281623161729  17.9430511701024 69.6489216491067  17.9430511701024 69.6489216491067  C 17.9430511701024 69.6489216491067  17.3498305561574 66.7996581053469  17.3498305561574 66.7996581053469  C 17.3498305561574 66.7996581053469  13.9035012751434 65.7958953590014  13.9035012751434 65.7958953590014  C 13.9035012751434 65.7958953590014  13.705761070495 60.3087907397083  13.705761070495 60.3087907397083  C 13.705761070495 60.3087907397083  6.82080667228438 57.5504190981765  6.82080667228438 57.5504190981765  C 6.82080667228438 57.5504190981765  3.92147302231034 53.7448146701034  3.92147302231034 53.7448146701034  C 3.92147302231034 53.7448146701034  0.359581284034696 50.413428862351  0.359581284034696 50.413428862351  C 0.359581284034696 50.413428862351  12.4243018221894 53.6479950351214  12.4243018221894 53.6479950351214  C 12.4243018221894 53.6479950351214  19.6251269369161 52.701533705398  19.6251269369161 52.701533705398  C 19.6251269369161 52.701533705398  23.9291864562748 53.5077053599429  23.9291864562748 53.5077053599429  C 23.9291864562748 53.5077053599429  25.3878414723824 52.1206158955051  25.3878414723824 52.1206158955051  C 25.3878414723824 52.1206158955051  30.4032521175538 52.6778227743819  30.4032521175538 52.6778227743819  C 30.4032521175538 52.6778227743819  39.7586750465657 50.0399816988482  39.7586750465657 50.0399816988482  C 39.7586750465657 50.0399816988482  40.0129124525422 43.1707428033733  40.0129124525422 43.1707428033733  C 40.0129124525422 43.1707428033733  44.024213746837 39.5291389814946  44.024213746837 39.5291389814946  C 44.024213746837 39.5291389814946  49.3863117637952 39.5390185360846  49.3863117637952 39.5390185360846  C 49.3863117637952 39.5390185360846  50.1747045277825 37.7330359570301  50.1747045277825 37.7330359570301  C 50.1747045277825 37.7330359570301  55.6780455480605 36.8873460841249  55.6780455480605 36.8873460841249  C 55.6780455480605 36.8873460841249  58.3411181742987 37.4919748250338  58.3411181742987 37.4919748250338  C 58.3411181742987 37.4919748250338  61.1531379676746 35.6662331367993  61.1531379676746 35.6662331367993  C 61.1531379676746 35.6662331367993  60.757657558378 31.7539295191541  60.757657558378 31.7539295191541  C 60.757657558378 31.7539295191541  65.6818822357039 27.7942040394767  65.6818822357039 27.7942040394767  C 65.6818822357039 27.7942040394767  70.2632916524912 26.1265352246826  70.2632916524912 26.1265352246826  C 70.2632916524912 26.1265352246826  67.4332954768746 21.7419888976347  67.4332954768746 21.7419888976347  C 67.4332954768746 21.7419888976347  74.2822971106039 21.9494595440249  74.2822971106039 21.9494595440249  C 74.2822971106039 21.9494595440249  76.2622672116929 19.5507036895697  76.2622672116929 19.5507036895697  C 76.2622672116929 19.5507036895697  75.9618048228118 16.9780676743303  75.9618048228118 16.9780676743303  C 75.9618048228118 16.9780676743303  79.5493771071465 14.1525150615865  79.5493771071465 14.1525150615865  C 79.5493771071465 14.1525150615865  78.7250315786771 10.7855628573099  78.7250315786771 10.7855628573099  C 78.7250315786771 10.7855628573099  77.0249794296223 7.90073291702614  77.0249794296223 7.90073291702614  C 77.0249794296223 7.90073291702614  81.2263167647484 4.92105925267804  81.2263167647484 4.92105925267804  C 81.2263167647484 4.92105925267804  88.9587291828805 3.47666837161816  88.9587291828805 3.47666837161816  C 88.9587291828805 3.47666837161816  97.2227289044176 2.67642444982714  97.2227289044176 2.67642444982714  C 97.2227289044176 2.67642444982714  100.882206717715 1.40196190771537  100.882206717715 1.40196190771537  Z " fill-rule="evenodd" />
    </mask>
  </defs>
  <g transform="matrix(1 0 0 1 -2273 -4120 )">
    <path d="M 100.882206717715 1.40196190771537  C 100.882206717715 1.40196190771537  105.073271834418 0.62740482785828  105.073271834418 0.62740482785828  C 105.073271834418 0.62740482785828  110.394280977682 3.84221189144865  110.394280977682 3.84221189144865  C 110.394280977682 3.84221189144865  112.525766300515 9.10011084425368  112.525766300515 9.10011084425368  C 112.525766300515 9.10011084425368  124.367066087964 11.8486029311954  124.367066087964 11.8486029311954  C 124.367066087964 11.8486029311954  117.412774215395 17.511563622191  117.412774215395 17.511563622191  C 117.412774215395 17.511563622191  109.3876035722 18.5074227248644  109.3876035722 18.5074227248644  C 109.3876035722 18.5074227248644  98.4630992790301 16.8713684847581  98.4630992790301 16.8713684847581  C 98.4630992790301 16.8713684847581  94.9345922506297 19.75817433596  94.9345922506297 19.75817433596  C 94.9345922506297 19.75817433596  97.4846704742116 25.5792079003958  97.4846704742116 25.5792079003958  C 97.4846704742116 25.5792079003958  99.9859556602829 30.0329111095737  99.9859556602829 30.0329111095737  C 99.9859556602829 30.0329111095737  105.800031287866 33.2615495495901  105.800031287866 33.2615495495901  C 105.800031287866 33.2615495495901  99.6572446707376 37.0217080265492  99.6572446707376 37.0217080265492  C 99.6572446707376 37.0217080265492  99.7702390733939 41.6216286436594  99.7702390733939 41.6216286436594  C 99.7702390733939 41.6216286436594  92.7774263817387 49.4768470872178  92.7774263817387 49.4768470872178  C 92.7774263817387 49.4768470872178  88.2653544393085 55.9005334816442  88.2653544393085 55.9005334816442  C 88.2653544393085 55.9005334816442  80.7332502804304 62.4724131949209  80.7332502804304 62.4724131949209  C 80.7332502804304 62.4724131949209  72.3716644838719 61.9981945746006  72.3716644838719 61.9981945746006  C 72.3716644838719 61.9981945746006  64.4363757518797 68.5088210494192  64.4363757518797 68.5088210494192  C 64.4363757518797 68.5088210494192  69.1487559535643 71.279048156459  69.1487559535643 71.279048156459  C 69.1487559535643 71.279048156459  69.967965372822 76.0034511614033  69.967965372822 76.0034511614033  C 69.967965372822 76.0034511614033  74.0152194315981 79.0977276589955  74.0152194315981 79.0977276589955  C 74.0152194315981 79.0977276589955  75.4430577924357 84.3082047497684  75.4430577924357 84.3082047497684  C 75.4430577924357 84.3082047497684  57.7324892327187 84.2923974624243  57.7324892327187 84.2923974624243  C 57.7324892327187 84.2923974624243  52.9379312836477 88.3173280023957  52.9379312836477 88.3173280023957  C 52.9379312836477 88.3173280023957  47.6605790686823 86.7939006846156  47.6605790686823 86.7939006846156  C 47.6605790686823 86.7939006846156  45.5136854182145 82.4488725759279  45.5136854182145 82.4488725759279  C 45.5136854182145 82.4488725759279  39.9512791420023 77.8173373841295  39.9512791420023 77.8173373841295  C 39.9512791420023 77.8173373841295  26.6847090483226 78.9633657165714  26.6847090483226 78.9633657165714  C 26.6847090483226 78.9633657165714  14.9846522641945 79.0759926388973  14.9846522641945 79.0759926388973  C 14.9846522641945 79.0759926388973  4.84597268040677 79.9315620663924  4.84597268040677 79.9315620663924  C 4.84597268040677 79.9315620663924  7.55783834415567 72.8281623161729  7.55783834415567 72.8281623161729  C 7.55783834415567 72.8281623161729  17.9430511701024 69.6489216491067  17.9430511701024 69.6489216491067  C 17.9430511701024 69.6489216491067  17.3498305561574 66.7996581053469  17.3498305561574 66.7996581053469  C 17.3498305561574 66.7996581053469  13.9035012751434 65.7958953590014  13.9035012751434 65.7958953590014  C 13.9035012751434 65.7958953590014  13.705761070495 60.3087907397083  13.705761070495 60.3087907397083  C 13.705761070495 60.3087907397083  6.82080667228438 57.5504190981765  6.82080667228438 57.5504190981765  C 6.82080667228438 57.5504190981765  3.92147302231034 53.7448146701034  3.92147302231034 53.7448146701034  C 3.92147302231034 53.7448146701034  0.359581284034696 50.413428862351  0.359581284034696 50.413428862351  C 0.359581284034696 50.413428862351  12.4243018221894 53.6479950351214  12.4243018221894 53.6479950351214  C 12.4243018221894 53.6479950351214  19.6251269369161 52.701533705398  19.6251269369161 52.701533705398  C 19.6251269369161 52.701533705398  23.9291864562748 53.5077053599429  23.9291864562748 53.5077053599429  C 23.9291864562748 53.5077053599429  25.3878414723824 52.1206158955051  25.3878414723824 52.1206158955051  C 25.3878414723824 52.1206158955051  30.4032521175538 52.6778227743819  30.4032521175538 52.6778227743819  C 30.4032521175538 52.6778227743819  39.7586750465657 50.0399816988482  39.7586750465657 50.0399816988482  C 39.7586750465657 50.0399816988482  40.0129124525422 43.1707428033733  40.0129124525422 43.1707428033733  C 40.0129124525422 43.1707428033733  44.024213746837 39.5291389814946  44.024213746837 39.5291389814946  C 44.024213746837 39.5291389814946  49.3863117637952 39.5390185360846  49.3863117637952 39.5390185360846  C 49.3863117637952 39.5390185360846  50.1747045277825 37.7330359570301  50.1747045277825 37.7330359570301  C 50.1747045277825 37.7330359570301  55.6780455480605 36.8873460841249  55.6780455480605 36.8873460841249  C 55.6780455480605 36.8873460841249  58.3411181742987 37.4919748250338  58.3411181742987 37.4919748250338  C 58.3411181742987 37.4919748250338  61.1531379676746 35.6662331367993  61.1531379676746 35.6662331367993  C 61.1531379676746 35.6662331367993  60.757657558378 31.7539295191541  60.757657558378 31.7539295191541  C 60.757657558378 31.7539295191541  65.6818822357039 27.7942040394767  65.6818822357039 27.7942040394767  C 65.6818822357039 27.7942040394767  70.2632916524912 26.1265352246826  70.2632916524912 26.1265352246826  C 70.2632916524912 26.1265352246826  67.4332954768746 21.7419888976347  67.4332954768746 21.7419888976347  C 67.4332954768746 21.7419888976347  74.2822971106039 21.9494595440249  74.2822971106039 21.9494595440249  C 74.2822971106039 21.9494595440249  76.2622672116929 19.5507036895697  76.2622672116929 19.5507036895697  C 76.2622672116929 19.5507036895697  75.9618048228118 16.9780676743303  75.9618048228118 16.9780676743303  C 75.9618048228118 16.9780676743303  79.5493771071465 14.1525150615865  79.5493771071465 14.1525150615865  C 79.5493771071465 14.1525150615865  78.7250315786771 10.7855628573099  78.7250315786771 10.7855628573099  C 78.7250315786771 10.7855628573099  77.0249794296223 7.90073291702614  77.0249794296223 7.90073291702614  C 77.0249794296223 7.90073291702614  81.2263167647484 4.92105925267804  81.2263167647484 4.92105925267804  C 81.2263167647484 4.92105925267804  88.9587291828805 3.47666837161816  88.9587291828805 3.47666837161816  C 88.9587291828805 3.47666837161816  97.2227289044176 2.67642444982714  97.2227289044176 2.67642444982714  C 97.2227289044176 2.67642444982714  100.882206717715 1.40196190771537  100.882206717715 1.40196190771537  Z " fill-rule="nonzero" fill="#f2f2f2" stroke="none" transform="matrix(1 0 0 1 2273 4120 )" />
    <path d="M 100.882206717715 1.40196190771537  C 100.882206717715 1.40196190771537  105.073271834418 0.62740482785828  105.073271834418 0.62740482785828  C 105.073271834418 0.62740482785828  110.394280977682 3.84221189144865  110.394280977682 3.84221189144865  C 110.394280977682 3.84221189144865  112.525766300515 9.10011084425368  112.525766300515 9.10011084425368  C 112.525766300515 9.10011084425368  124.367066087964 11.8486029311954  124.367066087964 11.8486029311954  C 124.367066087964 11.8486029311954  117.412774215395 17.511563622191  117.412774215395 17.511563622191  C 117.412774215395 17.511563622191  109.3876035722 18.5074227248644  109.3876035722 18.5074227248644  C 109.3876035722 18.5074227248644  98.4630992790301 16.8713684847581  98.4630992790301 16.8713684847581  C 98.4630992790301 16.8713684847581  94.9345922506297 19.75817433596  94.9345922506297 19.75817433596  C 94.9345922506297 19.75817433596  97.4846704742116 25.5792079003958  97.4846704742116 25.5792079003958  C 97.4846704742116 25.5792079003958  99.9859556602829 30.0329111095737  99.9859556602829 30.0329111095737  C 99.9859556602829 30.0329111095737  105.800031287866 33.2615495495901  105.800031287866 33.2615495495901  C 105.800031287866 33.2615495495901  99.6572446707376 37.0217080265492  99.6572446707376 37.0217080265492  C 99.6572446707376 37.0217080265492  99.7702390733939 41.6216286436594  99.7702390733939 41.6216286436594  C 99.7702390733939 41.6216286436594  92.7774263817387 49.4768470872178  92.7774263817387 49.4768470872178  C 92.7774263817387 49.4768470872178  88.2653544393085 55.9005334816442  88.2653544393085 55.9005334816442  C 88.2653544393085 55.9005334816442  80.7332502804304 62.4724131949209  80.7332502804304 62.4724131949209  C 80.7332502804304 62.4724131949209  72.3716644838719 61.9981945746006  72.3716644838719 61.9981945746006  C 72.3716644838719 61.9981945746006  64.4363757518797 68.5088210494192  64.4363757518797 68.5088210494192  C 64.4363757518797 68.5088210494192  69.1487559535643 71.279048156459  69.1487559535643 71.279048156459  C 69.1487559535643 71.279048156459  69.967965372822 76.0034511614033  69.967965372822 76.0034511614033  C 69.967965372822 76.0034511614033  74.0152194315981 79.0977276589955  74.0152194315981 79.0977276589955  C 74.0152194315981 79.0977276589955  75.4430577924357 84.3082047497684  75.4430577924357 84.3082047497684  C 75.4430577924357 84.3082047497684  57.7324892327187 84.2923974624243  57.7324892327187 84.2923974624243  C 57.7324892327187 84.2923974624243  52.9379312836477 88.3173280023957  52.9379312836477 88.3173280023957  C 52.9379312836477 88.3173280023957  47.6605790686823 86.7939006846156  47.6605790686823 86.7939006846156  C 47.6605790686823 86.7939006846156  45.5136854182145 82.4488725759279  45.5136854182145 82.4488725759279  C 45.5136854182145 82.4488725759279  39.9512791420023 77.8173373841295  39.9512791420023 77.8173373841295  C 39.9512791420023 77.8173373841295  26.6847090483226 78.9633657165714  26.6847090483226 78.9633657165714  C 26.6847090483226 78.9633657165714  14.9846522641945 79.0759926388973  14.9846522641945 79.0759926388973  C 14.9846522641945 79.0759926388973  4.84597268040677 79.9315620663924  4.84597268040677 79.9315620663924  C 4.84597268040677 79.9315620663924  7.55783834415567 72.8281623161729  7.55783834415567 72.8281623161729  C 7.55783834415567 72.8281623161729  17.9430511701024 69.6489216491067  17.9430511701024 69.6489216491067  C 17.9430511701024 69.6489216491067  17.3498305561574 66.7996581053469  17.3498305561574 66.7996581053469  C 17.3498305561574 66.7996581053469  13.9035012751434 65.7958953590014  13.9035012751434 65.7958953590014  C 13.9035012751434 65.7958953590014  13.705761070495 60.3087907397083  13.705761070495 60.3087907397083  C 13.705761070495 60.3087907397083  6.82080667228438 57.5504190981765  6.82080667228438 57.5504190981765  C 6.82080667228438 57.5504190981765  3.92147302231034 53.7448146701034  3.92147302231034 53.7448146701034  C 3.92147302231034 53.7448146701034  0.359581284034696 50.413428862351  0.359581284034696 50.413428862351  C 0.359581284034696 50.413428862351  12.4243018221894 53.6479950351214  12.4243018221894 53.6479950351214  C 12.4243018221894 53.6479950351214  19.6251269369161 52.701533705398  19.6251269369161 52.701533705398  C 19.6251269369161 52.701533705398  23.9291864562748 53.5077053599429  23.9291864562748 53.5077053599429  C 23.9291864562748 53.5077053599429  25.3878414723824 52.1206158955051  25.3878414723824 52.1206158955051  C 25.3878414723824 52.1206158955051  30.4032521175538 52.6778227743819  30.4032521175538 52.6778227743819  C 30.4032521175538 52.6778227743819  39.7586750465657 50.0399816988482  39.7586750465657 50.0399816988482  C 39.7586750465657 50.0399816988482  40.0129124525422 43.1707428033733  40.0129124525422 43.1707428033733  C 40.0129124525422 43.1707428033733  44.024213746837 39.5291389814946  44.024213746837 39.5291389814946  C 44.024213746837 39.5291389814946  49.3863117637952 39.5390185360846  49.3863117637952 39.5390185360846  C 49.3863117637952 39.5390185360846  50.1747045277825 37.7330359570301  50.1747045277825 37.7330359570301  C 50.1747045277825 37.7330359570301  55.6780455480605 36.8873460841249  55.6780455480605 36.8873460841249  C 55.6780455480605 36.8873460841249  58.3411181742987 37.4919748250338  58.3411181742987 37.4919748250338  C 58.3411181742987 37.4919748250338  61.1531379676746 35.6662331367993  61.1531379676746 35.6662331367993  C 61.1531379676746 35.6662331367993  60.757657558378 31.7539295191541  60.757657558378 31.7539295191541  C 60.757657558378 31.7539295191541  65.6818822357039 27.7942040394767  65.6818822357039 27.7942040394767  C 65.6818822357039 27.7942040394767  70.2632916524912 26.1265352246826  70.2632916524912 26.1265352246826  C 70.2632916524912 26.1265352246826  67.4332954768746 21.7419888976347  67.4332954768746 21.7419888976347  C 67.4332954768746 21.7419888976347  74.2822971106039 21.9494595440249  74.2822971106039 21.9494595440249  C 74.2822971106039 21.9494595440249  76.2622672116929 19.5507036895697  76.2622672116929 19.5507036895697  C 76.2622672116929 19.5507036895697  75.9618048228118 16.9780676743303  75.9618048228118 16.9780676743303  C 75.9618048228118 16.9780676743303  79.5493771071465 14.1525150615865  79.5493771071465 14.1525150615865  C 79.5493771071465 14.1525150615865  78.7250315786771 10.7855628573099  78.7250315786771 10.7855628573099  C 78.7250315786771 10.7855628573099  77.0249794296223 7.90073291702614  77.0249794296223 7.90073291702614  C 77.0249794296223 7.90073291702614  81.2263167647484 4.92105925267804  81.2263167647484 4.92105925267804  C 81.2263167647484 4.92105925267804  88.9587291828805 3.47666837161816  88.9587291828805 3.47666837161816  C 88.9587291828805 3.47666837161816  97.2227289044176 2.67642444982714  97.2227289044176 2.67642444982714  C 97.2227289044176 2.67642444982714  100.882206717715 1.40196190771537  100.882206717715 1.40196190771537  Z " stroke-width="2" stroke="#505050" fill="none" stroke-opacity="0.211764705882353" transform="matrix(1 0 0 1 2273 4120 )" mask="url(#clip196)" />
  </g>
</svg>