<?xml version="1.0" encoding="utf-8"?>
<svg version="1.1" xmlns:xlink="http://www.w3.org/1999/xlink" width="17px" height="8px" xmlns="http://www.w3.org/2000/svg">
  <defs>
    <mask fill="white" id="clip197">
      <path d="M 2.41712818268867 1.28322618100865  C 2.41712818268867 1.28322618100865  10.2730460314827 1.32066636271775  10.2730460314827 1.32066636271775  C 10.2730460314827 1.32066636271775  13.9988641140727 1.89107854287577  13.9988641140727 1.89107854287577  C 13.9988641140727 1.89107854287577  15.3144704991325 4.77725890276852  15.3144704991325 4.77725890276852  C 15.3144704991325 4.77725890276852  13.4450614262909 6.40480562530429  13.4450614262909 6.40480562530429  C 13.4450614262909 6.40480562530429  6.07014591195509 6.36516307996499  6.07014591195509 6.36516307996499  C 6.07014591195509 6.36516307996499  1.80872522991381 6.59420889748035  1.80872522991381 6.59420889748035  C 1.80872522991381 6.59420889748035  1.38492317306645 2.22804017825874  1.38492317306645 2.22804017825874  C 1.38492317306645 2.22804017825874  2.41712818268867 1.28322618100865  2.41712818268867 1.28322618100865  Z " fill-rule="evenodd" />
    </mask>
  </defs>
  <g transform="matrix(1 0 0 1 -1361 -4237 )">
    <path d="M 2.41712818268867 1.28322618100865  C 2.41712818268867 1.28322618100865  10.2730460314827 1.32066636271775  10.2730460314827 1.32066636271775  C 10.2730460314827 1.32066636271775  13.9988641140727 1.89107854287577  13.9988641140727 1.89107854287577  C 13.9988641140727 1.89107854287577  15.3144704991325 4.77725890276852  15.3144704991325 4.77725890276852  C 15.3144704991325 4.77725890276852  13.4450614262909 6.40480562530429  13.4450614262909 6.40480562530429  C 13.4450614262909 6.40480562530429  6.07014591195509 6.36516307996499  6.07014591195509 6.36516307996499  C 6.07014591195509 6.36516307996499  1.80872522991381 6.59420889748035  1.80872522991381 6.59420889748035  C 1.80872522991381 6.59420889748035  1.38492317306645 2.22804017825874  1.38492317306645 2.22804017825874  C 1.38492317306645 2.22804017825874  2.41712818268867 1.28322618100865  2.41712818268867 1.28322618100865  Z " fill-rule="nonzero" fill="#f2f2f2" stroke="none" transform="matrix(1 0 0 1 1361 4237 )" />
    <path d="M 2.41712818268867 1.28322618100865  C 2.41712818268867 1.28322618100865  10.2730460314827 1.32066636271775  10.2730460314827 1.32066636271775  C 10.2730460314827 1.32066636271775  13.9988641140727 1.89107854287577  13.9988641140727 1.89107854287577  C 13.9988641140727 1.89107854287577  15.3144704991325 4.77725890276852  15.3144704991325 4.77725890276852  C 15.3144704991325 4.77725890276852  13.4450614262909 6.40480562530429  13.4450614262909 6.40480562530429  C 13.4450614262909 6.40480562530429  6.07014591195509 6.36516307996499  6.07014591195509 6.36516307996499  C 6.07014591195509 6.36516307996499  1.80872522991381 6.59420889748035  1.80872522991381 6.59420889748035  C 1.80872522991381 6.59420889748035  1.38492317306645 2.22804017825874  1.38492317306645 2.22804017825874  C 1.38492317306645 2.22804017825874  2.41712818268867 1.28322618100865  2.41712818268867 1.28322618100865  Z " stroke-width="2" stroke="#505050" fill="none" stroke-opacity="0.211764705882353" transform="matrix(1 0 0 1 1361 4237 )" mask="url(#clip197)" />
  </g>
</svg>