<?xml version="1.0" encoding="utf-8"?>
<svg version="1.1" xmlns:xlink="http://www.w3.org/1999/xlink" width="6px" height="12px" xmlns="http://www.w3.org/2000/svg">
  <defs>
    <mask fill="white" id="clip198">
      <path d="M 1.56142270569967 1.47253611268019  C 1.56142270569967 1.47253611268019  5.15710934732772 2.41817599629141  5.15710934732772 2.41817599629141  C 5.15710934732772 2.41817599629141  5.15504463142474 8.07651382509735  5.15504463142474 8.07651382509735  C 5.15504463142474 8.07651382509735  4.29818753164579 10.0627705238617  4.29818753164579 10.0627705238617  C 4.29818753164579 10.0627705238617  0.0768919713842706 10.9774396689267  0.0768919713842706 10.9774396689267  C 0.0768919713842706 10.9774396689267  0.326722595656861 9.19971927637363  0.326722595656861 9.19971927637363  C 0.326722595656861 9.19971927637363  1.80505918226334 8.268532404084  1.80505918226334 8.268532404084  C 1.80505918226334 8.268532404084  0.351499186494266 7.50665223584684  0.351499186494266 7.50665223584684  C 0.351499186494266 7.50665223584684  1.56142270569967 1.47253611268019  1.56142270569967 1.47253611268019  Z " fill-rule="evenodd" />
    </mask>
  </defs>
  <g transform="matrix(1 0 0 1 -2088 -4150 )">
    <path d="M 1.56142270569967 1.47253611268019  C 1.56142270569967 1.47253611268019  5.15710934732772 2.41817599629141  5.15710934732772 2.41817599629141  C 5.15710934732772 2.41817599629141  5.15504463142474 8.07651382509735  5.15504463142474 8.07651382509735  C 5.15504463142474 8.07651382509735  4.29818753164579 10.0627705238617  4.29818753164579 10.0627705238617  C 4.29818753164579 10.0627705238617  0.0768919713842706 10.9774396689267  0.0768919713842706 10.9774396689267  C 0.0768919713842706 10.9774396689267  0.326722595656861 9.19971927637363  0.326722595656861 9.19971927637363  C 0.326722595656861 9.19971927637363  1.80505918226334 8.268532404084  1.80505918226334 8.268532404084  C 1.80505918226334 8.268532404084  0.351499186494266 7.50665223584684  0.351499186494266 7.50665223584684  C 0.351499186494266 7.50665223584684  1.56142270569967 1.47253611268019  1.56142270569967 1.47253611268019  Z " fill-rule="nonzero" fill="#f2f2f2" stroke="none" transform="matrix(1 0 0 1 2088 4150 )" />
    <path d="M 1.56142270569967 1.47253611268019  C 1.56142270569967 1.47253611268019  5.15710934732772 2.41817599629141  5.15710934732772 2.41817599629141  C 5.15710934732772 2.41817599629141  5.15504463142474 8.07651382509735  5.15504463142474 8.07651382509735  C 5.15504463142474 8.07651382509735  4.29818753164579 10.0627705238617  4.29818753164579 10.0627705238617  C 4.29818753164579 10.0627705238617  0.0768919713842706 10.9774396689267  0.0768919713842706 10.9774396689267  C 0.0768919713842706 10.9774396689267  0.326722595656861 9.19971927637363  0.326722595656861 9.19971927637363  C 0.326722595656861 9.19971927637363  1.80505918226334 8.268532404084  1.80505918226334 8.268532404084  C 1.80505918226334 8.268532404084  0.351499186494266 7.50665223584684  0.351499186494266 7.50665223584684  C 0.351499186494266 7.50665223584684  1.56142270569967 1.47253611268019  1.56142270569967 1.47253611268019  Z " stroke-width="2" stroke="#505050" fill="none" stroke-opacity="0.211764705882353" transform="matrix(1 0 0 1 2088 4150 )" mask="url(#clip198)" />
  </g>
</svg>