<?xml version="1.0" encoding="utf-8"?>
<svg version="1.1" xmlns:xlink="http://www.w3.org/1999/xlink" width="26px" height="42px" xmlns="http://www.w3.org/2000/svg">
  <defs>
    <mask fill="white" id="clip199">
      <path d="M 4.73915082449483 6.52343961181414  C 4.73915082449483 6.52343961181414  4.42472408839696 4.00761888245953  4.42472408839696 4.00761888245953  C 4.42472408839696 4.00761888245953  7.02449636979122 2.10380842561827  7.02449636979122 2.10380842561827  C 7.02449636979122 2.10380842561827  9.95147696192146 1.0073730839819  9.95147696192146 1.0073730839819  C 9.95147696192146 1.0073730839819  11.7460100411141 4.67744120025923  11.7460100411141 4.67744120025923  C 11.7460100411141 4.67744120025923  17.836410418403 4.66946712504724  17.836410418403 4.66946712504724  C 17.836410418403 4.66946712504724  19.0634415836628 3.72453921243708  19.0634415836628 3.72453921243708  C 19.0634415836628 3.72453921243708  23.2404601754017 3.98768369442982  23.2404601754017 3.98768369442982  C 23.2404601754017 3.98768369442982  25.2446110786593 7.72353793120514  25.2446110786593 7.72353793120514  C 25.2446110786593 7.72353793120514  21.9316269324578 9.72901784699823  21.9316269324578 9.72901784699823  C 21.9316269324578 9.72901784699823  21.8395995950632 15.4603844055519  21.8395995950632 15.4603844055519  C 21.8395995950632 15.4603844055519  20.6764763029942 16.5289104839466  20.6764763029942 16.5289104839466  C 20.6764763029942 16.5289104839466  20.3876127161725 19.9597563438668  20.3876127161725 19.9597563438668  C 20.3876127161725 19.9597563438668  17.2919153388191 20.5558184659563  17.2919153388191 20.5558184659563  C 17.2919153388191 20.5558184659563  20.1626570025416 26.3200625364665  20.1626570025416 26.3200625364665  C 20.1626570025416 26.3200625364665  18.1840692485601 31.0048317234581  18.1840692485601 31.0048317234581  C 18.1840692485601 31.0048317234581  20.656025783573 33.1119810982029  20.656025783573 33.1119810982029  C 20.656025783573 33.1119810982029  19.6718445364376 35.031739705468  19.6718445364376 35.031739705468  C 19.6718445364376 35.031739705468  17.0158333266355 37.6671715630012  17.0158333266355 37.6671715630012  C 17.0158333266355 37.6671715630012  17.6140110196997 39.9816468932552  17.6140110196997 39.9816468932552  C 17.6140110196997 39.9816468932552  14.7330440962668 41.7897684475538  14.7330440962668 41.7897684475538  C 14.7330440962668 41.7897684475538  9.09766777609494 40.810950715293  9.09766777609494 40.810950715293  C 9.09766777609494 40.810950715293  5.39868007582197 41.5784554544384  5.39868007582197 41.5784554544384  C 5.39868007582197 41.5784554544384  6.49278286484548 36.1062463402716  6.49278286484548 36.1062463402716  C 6.49278286484548 36.1062463402716  5.82047203888003 31.7643623873917  5.82047203888003 31.7643623873917  C 5.82047203888003 31.7643623873917  2.61229680471123 31.1104882200158  2.61229680471123 31.1104882200158  C 2.61229680471123 31.1104882200158  0.899565803202579 28.4132572795904  0.899565803202579 28.4132572795904  C 0.899565803202579 28.4132572795904  1.46962403206304 23.7185204985839  1.46962403206304 23.7185204985839  C 1.46962403206304 23.7185204985839  4.32758412114716 19.6487674106027  4.32758412114716 19.6487674106027  C 4.32758412114716 19.6487674106027  4.83629079174463 16.7123142138202  4.83629079174463 16.7123142138202  C 4.83629079174463 16.7123142138202  6.33173502440499 12.312618215654  6.33173502440499 12.312618215654  C 6.33173502440499 12.312618215654  6.17068718396471 9.18678073258904  6.17068718396471 9.18678073258904  C 6.17068718396471 9.18678073258904  4.73915082449483 6.52343961181414  4.73915082449483 6.52343961181414  Z " fill-rule="evenodd" />
    </mask>
  </defs>
  <g transform="matrix(1 0 0 1 -1770 -4082 )">
    <path d="M 4.73915082449483 6.52343961181414  C 4.73915082449483 6.52343961181414  4.42472408839696 4.00761888245953  4.42472408839696 4.00761888245953  C 4.42472408839696 4.00761888245953  7.02449636979122 2.10380842561827  7.02449636979122 2.10380842561827  C 7.02449636979122 2.10380842561827  9.95147696192146 1.0073730839819  9.95147696192146 1.0073730839819  C 9.95147696192146 1.0073730839819  11.7460100411141 4.67744120025923  11.7460100411141 4.67744120025923  C 11.7460100411141 4.67744120025923  17.836410418403 4.66946712504724  17.836410418403 4.66946712504724  C 17.836410418403 4.66946712504724  19.0634415836628 3.72453921243708  19.0634415836628 3.72453921243708  C 19.0634415836628 3.72453921243708  23.2404601754017 3.98768369442982  23.2404601754017 3.98768369442982  C 23.2404601754017 3.98768369442982  25.2446110786593 7.72353793120514  25.2446110786593 7.72353793120514  C 25.2446110786593 7.72353793120514  21.9316269324578 9.72901784699823  21.9316269324578 9.72901784699823  C 21.9316269324578 9.72901784699823  21.8395995950632 15.4603844055519  21.8395995950632 15.4603844055519  C 21.8395995950632 15.4603844055519  20.6764763029942 16.5289104839466  20.6764763029942 16.5289104839466  C 20.6764763029942 16.5289104839466  20.3876127161725 19.9597563438668  20.3876127161725 19.9597563438668  C 20.3876127161725 19.9597563438668  17.2919153388191 20.5558184659563  17.2919153388191 20.5558184659563  C 17.2919153388191 20.5558184659563  20.1626570025416 26.3200625364665  20.1626570025416 26.3200625364665  C 20.1626570025416 26.3200625364665  18.1840692485601 31.0048317234581  18.1840692485601 31.0048317234581  C 18.1840692485601 31.0048317234581  20.656025783573 33.1119810982029  20.656025783573 33.1119810982029  C 20.656025783573 33.1119810982029  19.6718445364376 35.031739705468  19.6718445364376 35.031739705468  C 19.6718445364376 35.031739705468  17.0158333266355 37.6671715630012  17.0158333266355 37.6671715630012  C 17.0158333266355 37.6671715630012  17.6140110196997 39.9816468932552  17.6140110196997 39.9816468932552  C 17.6140110196997 39.9816468932552  14.7330440962668 41.7897684475538  14.7330440962668 41.7897684475538  C 14.7330440962668 41.7897684475538  9.09766777609494 40.810950715293  9.09766777609494 40.810950715293  C 9.09766777609494 40.810950715293  5.39868007582197 41.5784554544384  5.39868007582197 41.5784554544384  C 5.39868007582197 41.5784554544384  6.49278286484548 36.1062463402716  6.49278286484548 36.1062463402716  C 6.49278286484548 36.1062463402716  5.82047203888003 31.7643623873917  5.82047203888003 31.7643623873917  C 5.82047203888003 31.7643623873917  2.61229680471123 31.1104882200158  2.61229680471123 31.1104882200158  C 2.61229680471123 31.1104882200158  0.899565803202579 28.4132572795904  0.899565803202579 28.4132572795904  C 0.899565803202579 28.4132572795904  1.46962403206304 23.7185204985839  1.46962403206304 23.7185204985839  C 1.46962403206304 23.7185204985839  4.32758412114716 19.6487674106027  4.32758412114716 19.6487674106027  C 4.32758412114716 19.6487674106027  4.83629079174463 16.7123142138202  4.83629079174463 16.7123142138202  C 4.83629079174463 16.7123142138202  6.33173502440499 12.312618215654  6.33173502440499 12.312618215654  C 6.33173502440499 12.312618215654  6.17068718396471 9.18678073258904  6.17068718396471 9.18678073258904  C 6.17068718396471 9.18678073258904  4.73915082449483 6.52343961181414  4.73915082449483 6.52343961181414  Z " fill-rule="nonzero" fill="#f2f2f2" stroke="none" transform="matrix(1 0 0 1 1770 4082 )" />
    <path d="M 4.73915082449483 6.52343961181414  C 4.73915082449483 6.52343961181414  4.42472408839696 4.00761888245953  4.42472408839696 4.00761888245953  C 4.42472408839696 4.00761888245953  7.02449636979122 2.10380842561827  7.02449636979122 2.10380842561827  C 7.02449636979122 2.10380842561827  9.95147696192146 1.0073730839819  9.95147696192146 1.0073730839819  C 9.95147696192146 1.0073730839819  11.7460100411141 4.67744120025923  11.7460100411141 4.67744120025923  C 11.7460100411141 4.67744120025923  17.836410418403 4.66946712504724  17.836410418403 4.66946712504724  C 17.836410418403 4.66946712504724  19.0634415836628 3.72453921243708  19.0634415836628 3.72453921243708  C 19.0634415836628 3.72453921243708  23.2404601754017 3.98768369442982  23.2404601754017 3.98768369442982  C 23.2404601754017 3.98768369442982  25.2446110786593 7.72353793120514  25.2446110786593 7.72353793120514  C 25.2446110786593 7.72353793120514  21.9316269324578 9.72901784699823  21.9316269324578 9.72901784699823  C 21.9316269324578 9.72901784699823  21.8395995950632 15.4603844055519  21.8395995950632 15.4603844055519  C 21.8395995950632 15.4603844055519  20.6764763029942 16.5289104839466  20.6764763029942 16.5289104839466  C 20.6764763029942 16.5289104839466  20.3876127161725 19.9597563438668  20.3876127161725 19.9597563438668  C 20.3876127161725 19.9597563438668  17.2919153388191 20.5558184659563  17.2919153388191 20.5558184659563  C 17.2919153388191 20.5558184659563  20.1626570025416 26.3200625364665  20.1626570025416 26.3200625364665  C 20.1626570025416 26.3200625364665  18.1840692485601 31.0048317234581  18.1840692485601 31.0048317234581  C 18.1840692485601 31.0048317234581  20.656025783573 33.1119810982029  20.656025783573 33.1119810982029  C 20.656025783573 33.1119810982029  19.6718445364376 35.031739705468  19.6718445364376 35.031739705468  C 19.6718445364376 35.031739705468  17.0158333266355 37.6671715630012  17.0158333266355 37.6671715630012  C 17.0158333266355 37.6671715630012  17.6140110196997 39.9816468932552  17.6140110196997 39.9816468932552  C 17.6140110196997 39.9816468932552  14.7330440962668 41.7897684475538  14.7330440962668 41.7897684475538  C 14.7330440962668 41.7897684475538  9.09766777609494 40.810950715293  9.09766777609494 40.810950715293  C 9.09766777609494 40.810950715293  5.39868007582197 41.5784554544384  5.39868007582197 41.5784554544384  C 5.39868007582197 41.5784554544384  6.49278286484548 36.1062463402716  6.49278286484548 36.1062463402716  C 6.49278286484548 36.1062463402716  5.82047203888003 31.7643623873917  5.82047203888003 31.7643623873917  C 5.82047203888003 31.7643623873917  2.61229680471123 31.1104882200158  2.61229680471123 31.1104882200158  C 2.61229680471123 31.1104882200158  0.899565803202579 28.4132572795904  0.899565803202579 28.4132572795904  C 0.899565803202579 28.4132572795904  1.46962403206304 23.7185204985839  1.46962403206304 23.7185204985839  C 1.46962403206304 23.7185204985839  4.32758412114716 19.6487674106027  4.32758412114716 19.6487674106027  C 4.32758412114716 19.6487674106027  4.83629079174463 16.7123142138202  4.83629079174463 16.7123142138202  C 4.83629079174463 16.7123142138202  6.33173502440499 12.312618215654  6.33173502440499 12.312618215654  C 6.33173502440499 12.312618215654  6.17068718396471 9.18678073258904  6.17068718396471 9.18678073258904  C 6.17068718396471 9.18678073258904  4.73915082449483 6.52343961181414  4.73915082449483 6.52343961181414  Z " stroke-width="2" stroke="#505050" fill="none" stroke-opacity="0.211764705882353" transform="matrix(1 0 0 1 1770 4082 )" mask="url(#clip199)" />
  </g>
</svg>