<?xml version="1.0" encoding="utf-8"?>
<svg version="1.1" xmlns:xlink="http://www.w3.org/1999/xlink" width="62px" height="54px" xmlns="http://www.w3.org/2000/svg">
  <defs>
    <mask fill="white" id="clip200">
      <path d="M 13.5261415241912 29.841003308579  C 13.5261415241912 29.841003308579  0.586850351958587 18.4474701986723  0.586850351958587 18.4474701986723  C 0.586850351958587 18.4474701986723  3.36045204843134 11.2334644395708  3.36045204843134 11.2334644395708  C 3.36045204843134 11.2334644395708  3.53615532332107 8.01116835558327  3.53615532332107 8.01116835558327  C 3.53615532332107 8.01116835558327  6.91216824798682 2.7658971116362  6.91216824798682 2.7658971116362  C 6.91216824798682 2.7658971116362  19.176256835286 1.03823212894983  19.176256835286 1.03823212894983  C 19.176256835286 1.03823212894983  25.712418661182 1.12059755254309  25.712418661182 1.12059755254309  C 25.712418661182 1.12059755254309  34.0921902731156 4.16209148717939  34.0921902731156 4.16209148717939  C 34.0921902731156 4.16209148717939  34.2126725187542 5.99823775947635  34.2126725187542 5.99823775947635  C 34.2126725187542 5.99823775947635  36.2935013028049 9.32097948199228  36.2935013028049 9.32097948199228  C 36.2935013028049 9.32097948199228  35.826632600955 17.4872098943416  35.826632600955 17.4872098943416  C 35.826632600955 17.4872098943416  43.2563710820043 18.6483614757288  43.2563710820043 18.6483614757288  C 43.2563710820043 18.6483614757288  46.1278646030584 17.4631029410951  46.1278646030584 17.4631029410951  C 46.1278646030584 17.4631029410951  50.8818932122161 19.100366849106  50.8818932122161 19.100366849106  C 50.8818932122161 19.100366849106  52.1996677738887 20.9124061681564  52.1996677738887 20.9124061681564  C 52.1996677738887 20.9124061681564  52.8547899845485 27.9526253042474  52.8547899845485 27.9526253042474  C 52.8547899845485 27.9526253042474  53.6755752829617 30.3070710713505  53.6755752829617 30.3070710713505  C 53.6755752829617 30.3070710713505  56.3010842191705 30.5802832081476  56.3010842191705 30.5802832081476  C 56.3010842191705 30.5802832081476  58.9416534360837 29.5898892122583  58.9416534360837 29.5898892122583  C 58.9416534360837 29.5898892122583  61.4717805944952 30.7008179743816  61.4717805944952 30.7008179743816  C 61.4717805944952 30.7008179743816  61.469270547711 34.0798092544728  61.469270547711 34.0798092544728  C 61.469270547711 34.0798092544728  60.5154527697385 37.7300037585906  60.5154527697385 37.7300037585906  C 60.5154527697385 37.7300037585906  59.1349270384623 41.3118952285095  59.1349270384623 41.3118952285095  C 59.1349270384623 41.3118952285095  57.982815564543 46.8203340454003  57.982815564543 46.8203340454003  C 57.982815564543 46.8203340454003  51.5997665924795 51.6377068692171  51.5997665924795 51.6377068692171  C 51.5997665924795 51.6377068692171  46.0349928720451 52.6522078183529  46.0349928720451 52.6522078183529  C 46.0349928720451 52.6522078183529  38.1308555487941 51.6899386012521  38.1308555487941 51.6899386012521  C 38.1308555487941 51.6899386012521  29.2089138314866 49.9743270951888  29.2089138314866 49.9743270951888  C 29.2089138314866 49.9743270951888  37.9626824142568 40.4681518648719  37.9626824142568 40.4681518648719  C 37.9626824142568 40.4681518648719  36.9511335602492 37.7320126713614  36.9511335602492 37.7320126713614  C 36.9511335602492 37.7320126713614  27.8785890358933 35.3172995211412  27.8785890358933 35.3172995211412  C 27.8785890358933 35.3172995211412  19.2791687534358 30.7731388341219  19.2791687534358 30.7731388341219  C 19.2791687534358 30.7731388341219  13.5261415241912 29.841003308579  13.5261415241912 29.841003308579  Z " fill-rule="evenodd" />
    </mask>
  </defs>
  <g transform="matrix(1 0 0 1 -1393 -4451 )">
    <path d="M 13.5261415241912 29.841003308579  C 13.5261415241912 29.841003308579  0.586850351958587 18.4474701986723  0.586850351958587 18.4474701986723  C 0.586850351958587 18.4474701986723  3.36045204843134 11.2334644395708  3.36045204843134 11.2334644395708  C 3.36045204843134 11.2334644395708  3.53615532332107 8.01116835558327  3.53615532332107 8.01116835558327  C 3.53615532332107 8.01116835558327  6.91216824798682 2.7658971116362  6.91216824798682 2.7658971116362  C 6.91216824798682 2.7658971116362  19.176256835286 1.03823212894983  19.176256835286 1.03823212894983  C 19.176256835286 1.03823212894983  25.712418661182 1.12059755254309  25.712418661182 1.12059755254309  C 25.712418661182 1.12059755254309  34.0921902731156 4.16209148717939  34.0921902731156 4.16209148717939  C 34.0921902731156 4.16209148717939  34.2126725187542 5.99823775947635  34.2126725187542 5.99823775947635  C 34.2126725187542 5.99823775947635  36.2935013028049 9.32097948199228  36.2935013028049 9.32097948199228  C 36.2935013028049 9.32097948199228  35.826632600955 17.4872098943416  35.826632600955 17.4872098943416  C 35.826632600955 17.4872098943416  43.2563710820043 18.6483614757288  43.2563710820043 18.6483614757288  C 43.2563710820043 18.6483614757288  46.1278646030584 17.4631029410951  46.1278646030584 17.4631029410951  C 46.1278646030584 17.4631029410951  50.8818932122161 19.100366849106  50.8818932122161 19.100366849106  C 50.8818932122161 19.100366849106  52.1996677738887 20.9124061681564  52.1996677738887 20.9124061681564  C 52.1996677738887 20.9124061681564  52.8547899845485 27.9526253042474  52.8547899845485 27.9526253042474  C 52.8547899845485 27.9526253042474  53.6755752829617 30.3070710713505  53.6755752829617 30.3070710713505  C 53.6755752829617 30.3070710713505  56.3010842191705 30.5802832081476  56.3010842191705 30.5802832081476  C 56.3010842191705 30.5802832081476  58.9416534360837 29.5898892122583  58.9416534360837 29.5898892122583  C 58.9416534360837 29.5898892122583  61.4717805944952 30.7008179743816  61.4717805944952 30.7008179743816  C 61.4717805944952 30.7008179743816  61.469270547711 34.0798092544728  61.469270547711 34.0798092544728  C 61.469270547711 34.0798092544728  60.5154527697385 37.7300037585906  60.5154527697385 37.7300037585906  C 60.5154527697385 37.7300037585906  59.1349270384623 41.3118952285095  59.1349270384623 41.3118952285095  C 59.1349270384623 41.3118952285095  57.982815564543 46.8203340454003  57.982815564543 46.8203340454003  C 57.982815564543 46.8203340454003  51.5997665924795 51.6377068692171  51.5997665924795 51.6377068692171  C 51.5997665924795 51.6377068692171  46.0349928720451 52.6522078183529  46.0349928720451 52.6522078183529  C 46.0349928720451 52.6522078183529  38.1308555487941 51.6899386012521  38.1308555487941 51.6899386012521  C 38.1308555487941 51.6899386012521  29.2089138314866 49.9743270951888  29.2089138314866 49.9743270951888  C 29.2089138314866 49.9743270951888  37.9626824142568 40.4681518648719  37.9626824142568 40.4681518648719  C 37.9626824142568 40.4681518648719  36.9511335602492 37.7320126713614  36.9511335602492 37.7320126713614  C 36.9511335602492 37.7320126713614  27.8785890358933 35.3172995211412  27.8785890358933 35.3172995211412  C 27.8785890358933 35.3172995211412  19.2791687534358 30.7731388341219  19.2791687534358 30.7731388341219  C 19.2791687534358 30.7731388341219  13.5261415241912 29.841003308579  13.5261415241912 29.841003308579  Z " fill-rule="nonzero" fill="#f2f2f2" stroke="none" transform="matrix(1 0 0 1 1393 4451 )" />
    <path d="M 13.5261415241912 29.841003308579  C 13.5261415241912 29.841003308579  0.586850351958587 18.4474701986723  0.586850351958587 18.4474701986723  C 0.586850351958587 18.4474701986723  3.36045204843134 11.2334644395708  3.36045204843134 11.2334644395708  C 3.36045204843134 11.2334644395708  3.53615532332107 8.01116835558327  3.53615532332107 8.01116835558327  C 3.53615532332107 8.01116835558327  6.91216824798682 2.7658971116362  6.91216824798682 2.7658971116362  C 6.91216824798682 2.7658971116362  19.176256835286 1.03823212894983  19.176256835286 1.03823212894983  C 19.176256835286 1.03823212894983  25.712418661182 1.12059755254309  25.712418661182 1.12059755254309  C 25.712418661182 1.12059755254309  34.0921902731156 4.16209148717939  34.0921902731156 4.16209148717939  C 34.0921902731156 4.16209148717939  34.2126725187542 5.99823775947635  34.2126725187542 5.99823775947635  C 34.2126725187542 5.99823775947635  36.2935013028049 9.32097948199228  36.2935013028049 9.32097948199228  C 36.2935013028049 9.32097948199228  35.826632600955 17.4872098943416  35.826632600955 17.4872098943416  C 35.826632600955 17.4872098943416  43.2563710820043 18.6483614757288  43.2563710820043 18.6483614757288  C 43.2563710820043 18.6483614757288  46.1278646030584 17.4631029410951  46.1278646030584 17.4631029410951  C 46.1278646030584 17.4631029410951  50.8818932122161 19.100366849106  50.8818932122161 19.100366849106  C 50.8818932122161 19.100366849106  52.1996677738887 20.9124061681564  52.1996677738887 20.9124061681564  C 52.1996677738887 20.9124061681564  52.8547899845485 27.9526253042474  52.8547899845485 27.9526253042474  C 52.8547899845485 27.9526253042474  53.6755752829617 30.3070710713505  53.6755752829617 30.3070710713505  C 53.6755752829617 30.3070710713505  56.3010842191705 30.5802832081476  56.3010842191705 30.5802832081476  C 56.3010842191705 30.5802832081476  58.9416534360837 29.5898892122583  58.9416534360837 29.5898892122583  C 58.9416534360837 29.5898892122583  61.4717805944952 30.7008179743816  61.4717805944952 30.7008179743816  C 61.4717805944952 30.7008179743816  61.469270547711 34.0798092544728  61.469270547711 34.0798092544728  C 61.469270547711 34.0798092544728  60.5154527697385 37.7300037585906  60.5154527697385 37.7300037585906  C 60.5154527697385 37.7300037585906  59.1349270384623 41.3118952285095  59.1349270384623 41.3118952285095  C 59.1349270384623 41.3118952285095  57.982815564543 46.8203340454003  57.982815564543 46.8203340454003  C 57.982815564543 46.8203340454003  51.5997665924795 51.6377068692171  51.5997665924795 51.6377068692171  C 51.5997665924795 51.6377068692171  46.0349928720451 52.6522078183529  46.0349928720451 52.6522078183529  C 46.0349928720451 52.6522078183529  38.1308555487941 51.6899386012521  38.1308555487941 51.6899386012521  C 38.1308555487941 51.6899386012521  29.2089138314866 49.9743270951888  29.2089138314866 49.9743270951888  C 29.2089138314866 49.9743270951888  37.9626824142568 40.4681518648719  37.9626824142568 40.4681518648719  C 37.9626824142568 40.4681518648719  36.9511335602492 37.7320126713614  36.9511335602492 37.7320126713614  C 36.9511335602492 37.7320126713614  27.8785890358933 35.3172995211412  27.8785890358933 35.3172995211412  C 27.8785890358933 35.3172995211412  19.2791687534358 30.7731388341219  19.2791687534358 30.7731388341219  C 19.2791687534358 30.7731388341219  13.5261415241912 29.841003308579  13.5261415241912 29.841003308579  Z " stroke-width="2" stroke="#505050" fill="none" stroke-opacity="0.211764705882353" transform="matrix(1 0 0 1 1393 4451 )" mask="url(#clip200)" />
  </g>
</svg>