<?xml version="1.0" encoding="utf-8"?>
<svg version="1.1" xmlns:xlink="http://www.w3.org/1999/xlink" width="9px" height="12px" xmlns="http://www.w3.org/2000/svg">
  <defs>
    <mask fill="white" id="clip201">
      <path d="M 2.72843958386288 11.833731414825  C 2.72843958386288 11.833731414825  0.629862339971078 10.5763194298485  0.629862339971078 10.5763194298485  C 0.629862339971078 10.5763194298485  0.169017750402918 4.44929109104282  0.169017750402918 4.44929109104282  C 0.169017750402918 4.44929109104282  2.04212801767881 1.09619246443856  2.04212801767881 1.09619246443856  C 2.04212801767881 1.09619246443856  5.74001487579121 0.40657735280945  5.74001487579121 0.40657735280945  C 5.74001487579121 0.40657735280945  7.841069778767 2.4134812106048  7.841069778767 2.4134812106048  C 7.841069778767 2.4134812106048  7.96247507386847 7.64855227927887  7.96247507386847 7.64855227927887  C 7.96247507386847 7.64855227927887  6.45605835097977 11.3836233479533  6.45605835097977 11.3836233479533  C 6.45605835097977 11.3836233479533  2.72843958386288 11.833731414825  2.72843958386288 11.833731414825  Z " fill-rule="evenodd" />
    </mask>
  </defs>
  <g transform="matrix(1 0 0 1 -2201 -4192 )">
    <path d="M 2.72843958386288 11.833731414825  C 2.72843958386288 11.833731414825  0.629862339971078 10.5763194298485  0.629862339971078 10.5763194298485  C 0.629862339971078 10.5763194298485  0.169017750402918 4.44929109104282  0.169017750402918 4.44929109104282  C 0.169017750402918 4.44929109104282  2.04212801767881 1.09619246443856  2.04212801767881 1.09619246443856  C 2.04212801767881 1.09619246443856  5.74001487579121 0.40657735280945  5.74001487579121 0.40657735280945  C 5.74001487579121 0.40657735280945  7.841069778767 2.4134812106048  7.841069778767 2.4134812106048  C 7.841069778767 2.4134812106048  7.96247507386847 7.64855227927887  7.96247507386847 7.64855227927887  C 7.96247507386847 7.64855227927887  6.45605835097977 11.3836233479533  6.45605835097977 11.3836233479533  C 6.45605835097977 11.3836233479533  2.72843958386288 11.833731414825  2.72843958386288 11.833731414825  Z " fill-rule="nonzero" fill="#f2f2f2" stroke="none" transform="matrix(1 0 0 1 2201 4192 )" />
    <path d="M 2.72843958386288 11.833731414825  C 2.72843958386288 11.833731414825  0.629862339971078 10.5763194298485  0.629862339971078 10.5763194298485  C 0.629862339971078 10.5763194298485  0.169017750402918 4.44929109104282  0.169017750402918 4.44929109104282  C 0.169017750402918 4.44929109104282  2.04212801767881 1.09619246443856  2.04212801767881 1.09619246443856  C 2.04212801767881 1.09619246443856  5.74001487579121 0.40657735280945  5.74001487579121 0.40657735280945  C 5.74001487579121 0.40657735280945  7.841069778767 2.4134812106048  7.841069778767 2.4134812106048  C 7.841069778767 2.4134812106048  7.96247507386847 7.64855227927887  7.96247507386847 7.64855227927887  C 7.96247507386847 7.64855227927887  6.45605835097977 11.3836233479533  6.45605835097977 11.3836233479533  C 6.45605835097977 11.3836233479533  2.72843958386288 11.833731414825  2.72843958386288 11.833731414825  Z " stroke-width="2" stroke="#505050" fill="none" stroke-opacity="0.211764705882353" transform="matrix(1 0 0 1 2201 4192 )" mask="url(#clip201)" />
  </g>
</svg>