<?xml version="1.0" encoding="utf-8"?>
<svg version="1.1" xmlns:xlink="http://www.w3.org/1999/xlink" width="71px" height="39px" xmlns="http://www.w3.org/2000/svg">
  <defs>
    <mask fill="white" id="clip202">
      <path d="M 14.0944405447909 4.82959511841531  C 14.0944405447909 4.82959511841531  18.5000009356763 3.09584552750188  18.5000009356763 3.09584552750188  C 18.5000009356763 3.09584552750188  21.6144980946736 1.31636630288322  21.6144980946736 1.31636630288322  C 21.6144980946736 1.31636630288322  26.0740671068135 2.23891195676372  26.0740671068135 2.23891195676372  C 26.0740671068135 2.23891195676372  30.6982338218234 2.26873563091928  30.6982338218234 2.26873563091928  C 30.6982338218234 2.26873563091928  34.0467683395892 4.29276898361415  34.0467683395892 4.29276898361415  C 34.0467683395892 4.29276898361415  38.3764394179523 3.0222804645847  38.3764394179523 3.0222804645847  C 38.3764394179523 3.0222804645847  43.6975745310532 2.22499424215775  43.6975745310532 2.22499424215775  C 43.6975745310532 2.22499424215775  45.5132929408402 0.278502442267603  45.5132929408402 0.278502442267603  C 45.5132929408402 0.278502442267603  48.5557786048317 0.28049068721129  48.5557786048317 0.28049068721129  C 48.5557786048317 0.28049068721129  50.7521292025062 1.09368286918782  50.7521292025062 1.09368286918782  C 50.7521292025062 1.09368286918782  52.9870573867909 3.5551301094984  52.9870573867909 3.5551301094984  C 52.9870573867909 3.5551301094984  55.273422353222 7.03058227110001  55.273422353222 7.03058227110001  C 55.273422353222 7.03058227110001  59.4346580289097 11.885876423635  59.4346580289097 11.885876423635  C 59.4346580289097 11.885876423635  59.6635517094635 15.4348936481539  59.6635517094635 15.4348936481539  C 59.6635517094635 15.4348936481539  58.9048591727961 20.307072375551  58.9048591727961 20.307072375551  C 58.9048591727961 20.307072375551  60.1959224046845 23.9376076427619  60.1959224046845 23.9376076427619  C 60.1959224046845 23.9376076427619  63.4132931279756 25.3949911864999  63.4132931279756 25.3949911864999  C 63.4132931279756 25.3949911864999  66.8004052323516 24.1225144225266  66.8004052323516 24.1225144225266  C 66.8004052323516 24.1225144225266  70.0717845768968 25.4804857190792  70.0717845768968 25.4804857190792  C 70.0717845768968 25.4804857190792  70.2389541188747 27.5124720515489  70.2389541188747 27.5124720515489  C 70.2389541188747 27.5124720515489  66.7438247719899 29.2004920087571  66.7438247719899 29.2004920087571  C 66.7438247719899 29.2004920087571  64.5526178525302 28.4668296245288  64.5526178525302 28.4668296245288  C 64.5526178525302 28.4668296245288  62.5362959923703 37.8334515543373  62.5362959923703 37.8334515543373  C 62.5362959923703 37.8334515543373  58.2953333043551 37.0262241071918  58.2953333043551 37.0262241071918  C 58.2953333043551 37.0262241071918  53.0487815253668 34.2188222466761  53.0487815253668 34.2188222466761  C 53.0487815253668 34.2188222466761  44.5591406320144 36.0161956757882  44.5591406320144 36.0161956757882  C 44.5591406320144 36.0161956757882  40.981712433695 37.9805816801717  40.981712433695 37.9805816801717  C 40.981712433695 37.9805816801717  28.525029776115 37.5749797116553  28.525029776115 37.5749797116553  C 28.525029776115 37.5749797116553  22.9827164997822 36.3740797656557  22.9827164997822 36.3740797656557  C 22.9827164997822 36.3740797656557  20.1896992292033 36.9387413296687  20.1896992292033 36.9387413296687  C 20.1896992292033 36.9387413296687  18.1142250695742 33.7615259096233  18.1142250695742 33.7615259096233  C 18.1142250695742 33.7615259096233  16.7948716075054 32.4075311029581  16.7948716075054 32.4075311029581  C 16.7948716075054 32.4075311029581  18.4665670272811 31.0933011951671  18.4665670272811 31.0933011951671  C 18.4665670272811 31.0933011951671  16.6868543649969 30.1230376626376  16.6868543649969 30.1230376626376  C 16.6868543649969 30.1230376626376  14.4236359505314 31.8687167232132  14.4236359505314 31.8687167232132  C 14.4236359505314 31.8687167232132  10.2186790100191 29.6021174873861  10.2186790100191 29.6021174873861  C 10.2186790100191 29.6021174873861  9.65287440640264 26.3652547190294  9.65287440640264 26.3652547190294  C 9.65287440640264 26.3652547190294  5.25760137194653 24.5062456966624  5.25760137194653 24.5062456966624  C 5.25760137194653 24.5062456966624  4.45004389223956 21.9811746181531  4.45004389223956 21.9811746181531  C 4.45004389223956 21.9811746181531  0.540848449072042 17.3972914075937  0.540848449072042 17.3972914075937  C 0.540848449072042 17.3972914075937  6.32234276238832 15.8822487604882  6.32234276238832 15.8822487604882  C 6.32234276238832 15.8822487604882  10.6841818884487 10.3927044709104  10.6841818884487 10.3927044709104  C 10.6841818884487 10.3927044709104  14.0944405447909 4.82959511841531  14.0944405447909 4.82959511841531  Z " fill-rule="evenodd" />
    </mask>
  </defs>
  <g transform="matrix(1 0 0 1 -1984 -4037 )">
    <path d="M 14.0944405447909 4.82959511841531  C 14.0944405447909 4.82959511841531  18.5000009356763 3.09584552750188  18.5000009356763 3.09584552750188  C 18.5000009356763 3.09584552750188  21.6144980946736 1.31636630288322  21.6144980946736 1.31636630288322  C 21.6144980946736 1.31636630288322  26.0740671068135 2.23891195676372  26.0740671068135 2.23891195676372  C 26.0740671068135 2.23891195676372  30.6982338218234 2.26873563091928  30.6982338218234 2.26873563091928  C 30.6982338218234 2.26873563091928  34.0467683395892 4.29276898361415  34.0467683395892 4.29276898361415  C 34.0467683395892 4.29276898361415  38.3764394179523 3.0222804645847  38.3764394179523 3.0222804645847  C 38.3764394179523 3.0222804645847  43.6975745310532 2.22499424215775  43.6975745310532 2.22499424215775  C 43.6975745310532 2.22499424215775  45.5132929408402 0.278502442267603  45.5132929408402 0.278502442267603  C 45.5132929408402 0.278502442267603  48.5557786048317 0.28049068721129  48.5557786048317 0.28049068721129  C 48.5557786048317 0.28049068721129  50.7521292025062 1.09368286918782  50.7521292025062 1.09368286918782  C 50.7521292025062 1.09368286918782  52.9870573867909 3.5551301094984  52.9870573867909 3.5551301094984  C 52.9870573867909 3.5551301094984  55.273422353222 7.03058227110001  55.273422353222 7.03058227110001  C 55.273422353222 7.03058227110001  59.4346580289097 11.885876423635  59.4346580289097 11.885876423635  C 59.4346580289097 11.885876423635  59.6635517094635 15.4348936481539  59.6635517094635 15.4348936481539  C 59.6635517094635 15.4348936481539  58.9048591727961 20.307072375551  58.9048591727961 20.307072375551  C 58.9048591727961 20.307072375551  60.1959224046845 23.9376076427619  60.1959224046845 23.9376076427619  C 60.1959224046845 23.9376076427619  63.4132931279756 25.3949911864999  63.4132931279756 25.3949911864999  C 63.4132931279756 25.3949911864999  66.8004052323516 24.1225144225266  66.8004052323516 24.1225144225266  C 66.8004052323516 24.1225144225266  70.0717845768968 25.4804857190792  70.0717845768968 25.4804857190792  C 70.0717845768968 25.4804857190792  70.2389541188747 27.5124720515489  70.2389541188747 27.5124720515489  C 70.2389541188747 27.5124720515489  66.7438247719899 29.2004920087571  66.7438247719899 29.2004920087571  C 66.7438247719899 29.2004920087571  64.5526178525302 28.4668296245288  64.5526178525302 28.4668296245288  C 64.5526178525302 28.4668296245288  62.5362959923703 37.8334515543373  62.5362959923703 37.8334515543373  C 62.5362959923703 37.8334515543373  58.2953333043551 37.0262241071918  58.2953333043551 37.0262241071918  C 58.2953333043551 37.0262241071918  53.0487815253668 34.2188222466761  53.0487815253668 34.2188222466761  C 53.0487815253668 34.2188222466761  44.5591406320144 36.0161956757882  44.5591406320144 36.0161956757882  C 44.5591406320144 36.0161956757882  40.981712433695 37.9805816801717  40.981712433695 37.9805816801717  C 40.981712433695 37.9805816801717  28.525029776115 37.5749797116553  28.525029776115 37.5749797116553  C 28.525029776115 37.5749797116553  22.9827164997822 36.3740797656557  22.9827164997822 36.3740797656557  C 22.9827164997822 36.3740797656557  20.1896992292033 36.9387413296687  20.1896992292033 36.9387413296687  C 20.1896992292033 36.9387413296687  18.1142250695742 33.7615259096233  18.1142250695742 33.7615259096233  C 18.1142250695742 33.7615259096233  16.7948716075054 32.4075311029581  16.7948716075054 32.4075311029581  C 16.7948716075054 32.4075311029581  18.4665670272811 31.0933011951671  18.4665670272811 31.0933011951671  C 18.4665670272811 31.0933011951671  16.6868543649969 30.1230376626376  16.6868543649969 30.1230376626376  C 16.6868543649969 30.1230376626376  14.4236359505314 31.8687167232132  14.4236359505314 31.8687167232132  C 14.4236359505314 31.8687167232132  10.2186790100191 29.6021174873861  10.2186790100191 29.6021174873861  C 10.2186790100191 29.6021174873861  9.65287440640264 26.3652547190294  9.65287440640264 26.3652547190294  C 9.65287440640264 26.3652547190294  5.25760137194653 24.5062456966624  5.25760137194653 24.5062456966624  C 5.25760137194653 24.5062456966624  4.45004389223956 21.9811746181531  4.45004389223956 21.9811746181531  C 4.45004389223956 21.9811746181531  0.540848449072042 17.3972914075937  0.540848449072042 17.3972914075937  C 0.540848449072042 17.3972914075937  6.32234276238832 15.8822487604882  6.32234276238832 15.8822487604882  C 6.32234276238832 15.8822487604882  10.6841818884487 10.3927044709104  10.6841818884487 10.3927044709104  C 10.6841818884487 10.3927044709104  14.0944405447909 4.82959511841531  14.0944405447909 4.82959511841531  Z " fill-rule="nonzero" fill="#f2f2f2" stroke="none" transform="matrix(1 0 0 1 1984 4037 )" />
    <path d="M 14.0944405447909 4.82959511841531  C 14.0944405447909 4.82959511841531  18.5000009356763 3.09584552750188  18.5000009356763 3.09584552750188  C 18.5000009356763 3.09584552750188  21.6144980946736 1.31636630288322  21.6144980946736 1.31636630288322  C 21.6144980946736 1.31636630288322  26.0740671068135 2.23891195676372  26.0740671068135 2.23891195676372  C 26.0740671068135 2.23891195676372  30.6982338218234 2.26873563091928  30.6982338218234 2.26873563091928  C 30.6982338218234 2.26873563091928  34.0467683395892 4.29276898361415  34.0467683395892 4.29276898361415  C 34.0467683395892 4.29276898361415  38.3764394179523 3.0222804645847  38.3764394179523 3.0222804645847  C 38.3764394179523 3.0222804645847  43.6975745310532 2.22499424215775  43.6975745310532 2.22499424215775  C 43.6975745310532 2.22499424215775  45.5132929408402 0.278502442267603  45.5132929408402 0.278502442267603  C 45.5132929408402 0.278502442267603  48.5557786048317 0.28049068721129  48.5557786048317 0.28049068721129  C 48.5557786048317 0.28049068721129  50.7521292025062 1.09368286918782  50.7521292025062 1.09368286918782  C 50.7521292025062 1.09368286918782  52.9870573867909 3.5551301094984  52.9870573867909 3.5551301094984  C 52.9870573867909 3.5551301094984  55.273422353222 7.03058227110001  55.273422353222 7.03058227110001  C 55.273422353222 7.03058227110001  59.4346580289097 11.885876423635  59.4346580289097 11.885876423635  C 59.4346580289097 11.885876423635  59.6635517094635 15.4348936481539  59.6635517094635 15.4348936481539  C 59.6635517094635 15.4348936481539  58.9048591727961 20.307072375551  58.9048591727961 20.307072375551  C 58.9048591727961 20.307072375551  60.1959224046845 23.9376076427619  60.1959224046845 23.9376076427619  C 60.1959224046845 23.9376076427619  63.4132931279756 25.3949911864999  63.4132931279756 25.3949911864999  C 63.4132931279756 25.3949911864999  66.8004052323516 24.1225144225266  66.8004052323516 24.1225144225266  C 66.8004052323516 24.1225144225266  70.0717845768968 25.4804857190792  70.0717845768968 25.4804857190792  C 70.0717845768968 25.4804857190792  70.2389541188747 27.5124720515489  70.2389541188747 27.5124720515489  C 70.2389541188747 27.5124720515489  66.7438247719899 29.2004920087571  66.7438247719899 29.2004920087571  C 66.7438247719899 29.2004920087571  64.5526178525302 28.4668296245288  64.5526178525302 28.4668296245288  C 64.5526178525302 28.4668296245288  62.5362959923703 37.8334515543373  62.5362959923703 37.8334515543373  C 62.5362959923703 37.8334515543373  58.2953333043551 37.0262241071918  58.2953333043551 37.0262241071918  C 58.2953333043551 37.0262241071918  53.0487815253668 34.2188222466761  53.0487815253668 34.2188222466761  C 53.0487815253668 34.2188222466761  44.5591406320144 36.0161956757882  44.5591406320144 36.0161956757882  C 44.5591406320144 36.0161956757882  40.981712433695 37.9805816801717  40.981712433695 37.9805816801717  C 40.981712433695 37.9805816801717  28.525029776115 37.5749797116553  28.525029776115 37.5749797116553  C 28.525029776115 37.5749797116553  22.9827164997822 36.3740797656557  22.9827164997822 36.3740797656557  C 22.9827164997822 36.3740797656557  20.1896992292033 36.9387413296687  20.1896992292033 36.9387413296687  C 20.1896992292033 36.9387413296687  18.1142250695742 33.7615259096233  18.1142250695742 33.7615259096233  C 18.1142250695742 33.7615259096233  16.7948716075054 32.4075311029581  16.7948716075054 32.4075311029581  C 16.7948716075054 32.4075311029581  18.4665670272811 31.0933011951671  18.4665670272811 31.0933011951671  C 18.4665670272811 31.0933011951671  16.6868543649969 30.1230376626376  16.6868543649969 30.1230376626376  C 16.6868543649969 30.1230376626376  14.4236359505314 31.8687167232132  14.4236359505314 31.8687167232132  C 14.4236359505314 31.8687167232132  10.2186790100191 29.6021174873861  10.2186790100191 29.6021174873861  C 10.2186790100191 29.6021174873861  9.65287440640264 26.3652547190294  9.65287440640264 26.3652547190294  C 9.65287440640264 26.3652547190294  5.25760137194653 24.5062456966624  5.25760137194653 24.5062456966624  C 5.25760137194653 24.5062456966624  4.45004389223956 21.9811746181531  4.45004389223956 21.9811746181531  C 4.45004389223956 21.9811746181531  0.540848449072042 17.3972914075937  0.540848449072042 17.3972914075937  C 0.540848449072042 17.3972914075937  6.32234276238832 15.8822487604882  6.32234276238832 15.8822487604882  C 6.32234276238832 15.8822487604882  10.6841818884487 10.3927044709104  10.6841818884487 10.3927044709104  C 10.6841818884487 10.3927044709104  14.0944405447909 4.82959511841531  14.0944405447909 4.82959511841531  Z " stroke-width="2" stroke="#505050" fill="none" stroke-opacity="0.211764705882353" transform="matrix(1 0 0 1 1984 4037 )" mask="url(#clip202)" />
  </g>
</svg>