<?xml version="1.0" encoding="utf-8"?>
<svg version="1.1" xmlns:xlink="http://www.w3.org/1999/xlink" width="33px" height="33px" xmlns="http://www.w3.org/2000/svg">
  <defs>
    <mask fill="white" id="clip203">
      <path d="M 15.3664749928548 4.61675204545646  C 15.3664749928548 4.61675204545646  16.1588670738818 7.12493301641722  16.1588670738818 7.12493301641722  C 16.1588670738818 7.12493301641722  22.3049331029962 8.97150719582523  22.3049331029962 8.97150719582523  C 22.3049331029962 8.97150719582523  22.8601122680471 12.1867187082062  22.8601122680471 12.1867187082062  C 22.8601122680471 12.1867187082062  26.9861028810381 14.4381567451315  26.9861028810381 14.4381567451315  C 26.9861028810381 14.4381567451315  29.2068195412413 12.7041544675698  29.2068195412413 12.7041544675698  C 29.2068195412413 12.7041544675698  30.953110369492 13.6679279430256  30.953110369492 13.6679279430256  C 30.953110369492 13.6679279430256  29.3128082909328 14.9733670153129  29.3128082909328 14.9733670153129  C 29.3128082909328 14.9733670153129  30.6073851621648 17.7530876092245  30.6073851621648 17.7530876092245  C 30.6073851621648 17.7530876092245  28.8610943339141 19.4969646150183  28.8610943339141 19.4969646150183  C 28.8610943339141 19.4969646150183  29.4970268320634 22.2915127047107  29.4970268320634 22.2915127047107  C 29.4970268320634 22.2915127047107  32.9340905720593 25.5718974234238  32.9340905720593 25.5718974234238  C 32.9340905720593 25.5718974234238  30.2364245382446 27.9319574709025  30.2364245382446 27.9319574709025  C 30.2364245382446 27.9319574709025  29.0478364167041 30.3216417030777  29.0478364167041 30.3216417030777  C 29.0478364167041 30.3216417030777  29.8149930811378 31.2123421896156  29.8149930811378 31.2123421896156  C 29.8149930811378 31.2123421896156  28.6516403761904 32.2669631648069  28.6516403761904 32.2669631648069  C 28.6516403761904 32.2669631648069  25.3710362190722 32.3913847405318  25.3710362190722 32.3913847405318  C 25.3710362190722 32.3913847405318  22.9610539344198 32.8258727827454  22.9610539344198 32.8258727827454  C 22.9610539344198 32.8258727827454  22.7263645601031 32.2669631648069  22.7263645601031 32.2669631648069  C 22.7263645601031 32.2669631648069  23.5742745576353 31.3782376239154  23.5742745576353 31.3782376239154  C 23.5742745576353 31.3782376239154  24.3666666386621 29.5533878466181  24.3666666386621 29.5533878466181  C 24.3666666386621 29.5533878466181  23.3622970582521 29.5948617051929  23.3622970582521 29.5948617051929  C 23.3622970582521 29.5948617051929  21.9869668539218 28.2025250244628  21.9869668539218 28.2025250244628  C 21.9869668539218 28.2025250244628  20.8236141489745 27.8470348081062  20.8236141489745 27.8470348081062  C 20.8236141489745 27.8470348081062  19.8974743600032 26.6482428007258  19.8974743600032 26.6482428007258  C 19.8974743600032 26.6482428007258  18.5751385305186 26.1782057368765  18.5751385305186 26.1782057368765  C 18.5751385305186 26.1782057368765  15.7374356167751 25.1097601421603  15.7374356167751 25.1097601421603  C 15.7374356167751 25.1097601421603  14.4680941621363 25.5284486192025  14.4680941621363 25.5284486192025  C 14.4680941621363 25.5284486192025  13.4889599983193 28.0366295901631  13.4889599983193 28.0366295901631  C 13.4889599983193 28.0366295901631  11.7956635449146 28.5777646972837  11.7956635449146 28.5777646972837  C 11.7956635449146 28.5777646972837  12.3786016682179 27.9319574709025  12.3786016682179 27.9319574709025  C 12.3786016682179 27.9319574709025  9.680935634403 26.3658255732869  9.680935634403 26.3658255732869  C 9.680935634403 26.3658255732869  7.35423022450847 25.5501730213131  7.35423022450847 25.5501730213131  C 7.35423022450847 25.5501730213131  6.32210168584574 24.5014768830611  6.32210168584574 24.5014768830611  C 6.32210168584574 24.5014768830611  4.44458669131046 23.1960378107737  4.44458669131046 23.1960378107737  C 4.44458669131046 23.1960378107737  6.1101241864626 22.8602970508813  6.1101241864626 22.8602970508813  C 6.1101241864626 22.8602970508813  7.14225272512512 19.2639210287401  7.14225272512512 19.2639210287401  C 7.14225272512512 19.2639210287401  3.73042440172234 14.8667199504059  3.73042440172234 14.8667199504059  C 3.73042440172234 14.8667199504059  5.50195064656615 11.4559888190287  5.50195064656615 11.4559888190287  C 5.50195064656615 11.4559888190287  2.93803232069532 11.475738275493  2.93803232069532 11.475738275493  C 2.93803232069532 11.475738275493  5.66093377110335 8.53701915361155  5.66093377110335 8.53701915361155  C 5.66093377110335 8.53701915361155  3.41245815264773 6.29743079056478  3.41245815264773 6.29743079056478  C 3.41245815264773 6.29743079056478  1.69392628264965 3.23626503860503  1.69392628264965 3.23626503860503  C 1.69392628264965 3.23626503860503  7.11449376687276 1.14479759904014  7.11449376687276 1.14479759904014  C 7.11449376687276 1.14479759904014  11.5306916706857 1.4983128697503  11.5306916706857 1.4983128697503  C 11.5306916706857 1.4983128697503  15.3664749928548 4.61675204545646  15.3664749928548 4.61675204545646  Z " fill-rule="evenodd" />
    </mask>
  </defs>
  <g transform="matrix(1 0 0 1 -1972 -4052 )">
    <path d="M 15.3664749928548 4.61675204545646  C 15.3664749928548 4.61675204545646  16.1588670738818 7.12493301641722  16.1588670738818 7.12493301641722  C 16.1588670738818 7.12493301641722  22.3049331029962 8.97150719582523  22.3049331029962 8.97150719582523  C 22.3049331029962 8.97150719582523  22.8601122680471 12.1867187082062  22.8601122680471 12.1867187082062  C 22.8601122680471 12.1867187082062  26.9861028810381 14.4381567451315  26.9861028810381 14.4381567451315  C 26.9861028810381 14.4381567451315  29.2068195412413 12.7041544675698  29.2068195412413 12.7041544675698  C 29.2068195412413 12.7041544675698  30.953110369492 13.6679279430256  30.953110369492 13.6679279430256  C 30.953110369492 13.6679279430256  29.3128082909328 14.9733670153129  29.3128082909328 14.9733670153129  C 29.3128082909328 14.9733670153129  30.6073851621648 17.7530876092245  30.6073851621648 17.7530876092245  C 30.6073851621648 17.7530876092245  28.8610943339141 19.4969646150183  28.8610943339141 19.4969646150183  C 28.8610943339141 19.4969646150183  29.4970268320634 22.2915127047107  29.4970268320634 22.2915127047107  C 29.4970268320634 22.2915127047107  32.9340905720593 25.5718974234238  32.9340905720593 25.5718974234238  C 32.9340905720593 25.5718974234238  30.2364245382446 27.9319574709025  30.2364245382446 27.9319574709025  C 30.2364245382446 27.9319574709025  29.0478364167041 30.3216417030777  29.0478364167041 30.3216417030777  C 29.0478364167041 30.3216417030777  29.8149930811378 31.2123421896156  29.8149930811378 31.2123421896156  C 29.8149930811378 31.2123421896156  28.6516403761904 32.2669631648069  28.6516403761904 32.2669631648069  C 28.6516403761904 32.2669631648069  25.3710362190722 32.3913847405318  25.3710362190722 32.3913847405318  C 25.3710362190722 32.3913847405318  22.9610539344198 32.8258727827454  22.9610539344198 32.8258727827454  C 22.9610539344198 32.8258727827454  22.7263645601031 32.2669631648069  22.7263645601031 32.2669631648069  C 22.7263645601031 32.2669631648069  23.5742745576353 31.3782376239154  23.5742745576353 31.3782376239154  C 23.5742745576353 31.3782376239154  24.3666666386621 29.5533878466181  24.3666666386621 29.5533878466181  C 24.3666666386621 29.5533878466181  23.3622970582521 29.5948617051929  23.3622970582521 29.5948617051929  C 23.3622970582521 29.5948617051929  21.9869668539218 28.2025250244628  21.9869668539218 28.2025250244628  C 21.9869668539218 28.2025250244628  20.8236141489745 27.8470348081062  20.8236141489745 27.8470348081062  C 20.8236141489745 27.8470348081062  19.8974743600032 26.6482428007258  19.8974743600032 26.6482428007258  C 19.8974743600032 26.6482428007258  18.5751385305186 26.1782057368765  18.5751385305186 26.1782057368765  C 18.5751385305186 26.1782057368765  15.7374356167751 25.1097601421603  15.7374356167751 25.1097601421603  C 15.7374356167751 25.1097601421603  14.4680941621363 25.5284486192025  14.4680941621363 25.5284486192025  C 14.4680941621363 25.5284486192025  13.4889599983193 28.0366295901631  13.4889599983193 28.0366295901631  C 13.4889599983193 28.0366295901631  11.7956635449146 28.5777646972837  11.7956635449146 28.5777646972837  C 11.7956635449146 28.5777646972837  12.3786016682179 27.9319574709025  12.3786016682179 27.9319574709025  C 12.3786016682179 27.9319574709025  9.680935634403 26.3658255732869  9.680935634403 26.3658255732869  C 9.680935634403 26.3658255732869  7.35423022450847 25.5501730213131  7.35423022450847 25.5501730213131  C 7.35423022450847 25.5501730213131  6.32210168584574 24.5014768830611  6.32210168584574 24.5014768830611  C 6.32210168584574 24.5014768830611  4.44458669131046 23.1960378107737  4.44458669131046 23.1960378107737  C 4.44458669131046 23.1960378107737  6.1101241864626 22.8602970508813  6.1101241864626 22.8602970508813  C 6.1101241864626 22.8602970508813  7.14225272512512 19.2639210287401  7.14225272512512 19.2639210287401  C 7.14225272512512 19.2639210287401  3.73042440172234 14.8667199504059  3.73042440172234 14.8667199504059  C 3.73042440172234 14.8667199504059  5.50195064656615 11.4559888190287  5.50195064656615 11.4559888190287  C 5.50195064656615 11.4559888190287  2.93803232069532 11.475738275493  2.93803232069532 11.475738275493  C 2.93803232069532 11.475738275493  5.66093377110335 8.53701915361155  5.66093377110335 8.53701915361155  C 5.66093377110335 8.53701915361155  3.41245815264773 6.29743079056478  3.41245815264773 6.29743079056478  C 3.41245815264773 6.29743079056478  1.69392628264965 3.23626503860503  1.69392628264965 3.23626503860503  C 1.69392628264965 3.23626503860503  7.11449376687276 1.14479759904014  7.11449376687276 1.14479759904014  C 7.11449376687276 1.14479759904014  11.5306916706857 1.4983128697503  11.5306916706857 1.4983128697503  C 11.5306916706857 1.4983128697503  15.3664749928548 4.61675204545646  15.3664749928548 4.61675204545646  Z " fill-rule="nonzero" fill="#f2f2f2" stroke="none" transform="matrix(1 0 0 1 1972 4052 )" />
    <path d="M 15.3664749928548 4.61675204545646  C 15.3664749928548 4.61675204545646  16.1588670738818 7.12493301641722  16.1588670738818 7.12493301641722  C 16.1588670738818 7.12493301641722  22.3049331029962 8.97150719582523  22.3049331029962 8.97150719582523  C 22.3049331029962 8.97150719582523  22.8601122680471 12.1867187082062  22.8601122680471 12.1867187082062  C 22.8601122680471 12.1867187082062  26.9861028810381 14.4381567451315  26.9861028810381 14.4381567451315  C 26.9861028810381 14.4381567451315  29.2068195412413 12.7041544675698  29.2068195412413 12.7041544675698  C 29.2068195412413 12.7041544675698  30.953110369492 13.6679279430256  30.953110369492 13.6679279430256  C 30.953110369492 13.6679279430256  29.3128082909328 14.9733670153129  29.3128082909328 14.9733670153129  C 29.3128082909328 14.9733670153129  30.6073851621648 17.7530876092245  30.6073851621648 17.7530876092245  C 30.6073851621648 17.7530876092245  28.8610943339141 19.4969646150183  28.8610943339141 19.4969646150183  C 28.8610943339141 19.4969646150183  29.4970268320634 22.2915127047107  29.4970268320634 22.2915127047107  C 29.4970268320634 22.2915127047107  32.9340905720593 25.5718974234238  32.9340905720593 25.5718974234238  C 32.9340905720593 25.5718974234238  30.2364245382446 27.9319574709025  30.2364245382446 27.9319574709025  C 30.2364245382446 27.9319574709025  29.0478364167041 30.3216417030777  29.0478364167041 30.3216417030777  C 29.0478364167041 30.3216417030777  29.8149930811378 31.2123421896156  29.8149930811378 31.2123421896156  C 29.8149930811378 31.2123421896156  28.6516403761904 32.2669631648069  28.6516403761904 32.2669631648069  C 28.6516403761904 32.2669631648069  25.3710362190722 32.3913847405318  25.3710362190722 32.3913847405318  C 25.3710362190722 32.3913847405318  22.9610539344198 32.8258727827454  22.9610539344198 32.8258727827454  C 22.9610539344198 32.8258727827454  22.7263645601031 32.2669631648069  22.7263645601031 32.2669631648069  C 22.7263645601031 32.2669631648069  23.5742745576353 31.3782376239154  23.5742745576353 31.3782376239154  C 23.5742745576353 31.3782376239154  24.3666666386621 29.5533878466181  24.3666666386621 29.5533878466181  C 24.3666666386621 29.5533878466181  23.3622970582521 29.5948617051929  23.3622970582521 29.5948617051929  C 23.3622970582521 29.5948617051929  21.9869668539218 28.2025250244628  21.9869668539218 28.2025250244628  C 21.9869668539218 28.2025250244628  20.8236141489745 27.8470348081062  20.8236141489745 27.8470348081062  C 20.8236141489745 27.8470348081062  19.8974743600032 26.6482428007258  19.8974743600032 26.6482428007258  C 19.8974743600032 26.6482428007258  18.5751385305186 26.1782057368765  18.5751385305186 26.1782057368765  C 18.5751385305186 26.1782057368765  15.7374356167751 25.1097601421603  15.7374356167751 25.1097601421603  C 15.7374356167751 25.1097601421603  14.4680941621363 25.5284486192025  14.4680941621363 25.5284486192025  C 14.4680941621363 25.5284486192025  13.4889599983193 28.0366295901631  13.4889599983193 28.0366295901631  C 13.4889599983193 28.0366295901631  11.7956635449146 28.5777646972837  11.7956635449146 28.5777646972837  C 11.7956635449146 28.5777646972837  12.3786016682179 27.9319574709025  12.3786016682179 27.9319574709025  C 12.3786016682179 27.9319574709025  9.680935634403 26.3658255732869  9.680935634403 26.3658255732869  C 9.680935634403 26.3658255732869  7.35423022450847 25.5501730213131  7.35423022450847 25.5501730213131  C 7.35423022450847 25.5501730213131  6.32210168584574 24.5014768830611  6.32210168584574 24.5014768830611  C 6.32210168584574 24.5014768830611  4.44458669131046 23.1960378107737  4.44458669131046 23.1960378107737  C 4.44458669131046 23.1960378107737  6.1101241864626 22.8602970508813  6.1101241864626 22.8602970508813  C 6.1101241864626 22.8602970508813  7.14225272512512 19.2639210287401  7.14225272512512 19.2639210287401  C 7.14225272512512 19.2639210287401  3.73042440172234 14.8667199504059  3.73042440172234 14.8667199504059  C 3.73042440172234 14.8667199504059  5.50195064656615 11.4559888190287  5.50195064656615 11.4559888190287  C 5.50195064656615 11.4559888190287  2.93803232069532 11.475738275493  2.93803232069532 11.475738275493  C 2.93803232069532 11.475738275493  5.66093377110335 8.53701915361155  5.66093377110335 8.53701915361155  C 5.66093377110335 8.53701915361155  3.41245815264773 6.29743079056478  3.41245815264773 6.29743079056478  C 3.41245815264773 6.29743079056478  1.69392628264965 3.23626503860503  1.69392628264965 3.23626503860503  C 1.69392628264965 3.23626503860503  7.11449376687276 1.14479759904014  7.11449376687276 1.14479759904014  C 7.11449376687276 1.14479759904014  11.5306916706857 1.4983128697503  11.5306916706857 1.4983128697503  C 11.5306916706857 1.4983128697503  15.3664749928548 4.61675204545646  15.3664749928548 4.61675204545646  Z " stroke-width="2" stroke="#505050" fill="none" stroke-opacity="0.211764705882353" transform="matrix(1 0 0 1 1972 4052 )" mask="url(#clip203)" />
  </g>
</svg>