<?xml version="1.0" encoding="utf-8"?>
<svg version="1.1" xmlns:xlink="http://www.w3.org/1999/xlink" width="155px" height="99px" xmlns="http://www.w3.org/2000/svg">
  <defs>
    <mask fill="white" id="clip204">
      <path d="M 62.8307785587246 96.5070984463794  C 62.8307785587246 96.5070984463794  59.7041268294592 98.3378730606163  59.7041268294592 98.3378730606163  C 59.7041268294592 98.3378730606163  58.7795929306348 95.8889404590484  58.7795929306348 95.8889404590484  C 58.7795929306348 95.8889404590484  56.6308135943565 94.1549381814866  56.6308135943565 94.1549381814866  C 56.6308135943565 94.1549381814866  56.0821890829665 91.8561014490472  56.0821890829665 91.8561014490472  C 56.0821890829665 91.8561014490472  52.4043729140173 89.7863584115928  52.4043729140173 89.7863584115928  C 52.4043729140173 89.7863584115928  48.6097200435681 84.9260171757392  48.6097200435681 84.9260171757392  C 48.6097200435681 84.9260171757392  46.6006367634312 80.1802227873782  46.6006367634312 80.1802227873782  C 46.6006367634312 80.1802227873782  41.6757158023864 76.1533086143163  41.6757158023864 76.1533086143163  C 41.6757158023864 76.1533086143163  38.4982655072516 75.1895351388604  38.4982655072516 75.1895351388604  C 38.4982655072516 75.1895351388604  33.7816186662718 69.5767396117185  33.7816186662718 69.5767396117185  C 33.7816186662718 69.5767396117185  32.9586818991865 65.4609528845675  32.9586818991865 65.4609528845675  C 32.9586818991865 65.4609528845675  33.2609333661098 61.9336999600513  33.2609333661098 61.9336999600513  C 33.2609333661098 61.9336999600513  29.1767286702049 55.2939326967679  29.1767286702049 55.2939326967679  C 29.1767286702049 55.2939326967679  25.8367229642878 52.9437473775215  25.8367229642878 52.9437473775215  C 25.8367229642878 52.9437473775215  21.9912715279693 51.6955817289802  21.9912715279693 51.6955817289802  C 21.9912715279693 51.6955817289802  19.6494576413869 46.7908196195147  19.6494576413869 46.7908196195147  C 19.6494576413869 46.7908196195147  20.0380666702884 45.4182323952488  20.0380666702884 45.4182323952488  C 20.0380666702884 45.4182323952488  18.0594625296729 42.2583193609678  18.0594625296729 42.2583193609678  C 18.0594625296729 42.2583193609678  15.9792612573186 40.8936319192875  15.9792612573186 40.8936319192875  C 15.9792612573186 40.8936319192875  13.1980397759654 36.3275575847512  13.1980397759654 36.3275575847512  C 13.1980397759654 36.3275575847512  8.86238217900657 31.3447697188193  8.86238217900657 31.3447697188193  C 8.86238217900657 31.3447697188193  5.23028471934007 27.0709873399542  5.23028471934007 27.0709873399542  C 5.23028471934007 27.0709873399542  1.6845448216514 27.1006115246503  1.6845448216514 27.1006115246503  C 1.6845448216514 27.1006115246503  2.79195355760567 23.666181045516  2.79195355760567 23.666181045516  C 2.79195355760567 23.666181045516  3.10690466599647 21.466091595398  3.10690466599647 21.466091595398  C 3.10690466599647 21.466091595398  3.99079971212488 18.9480358962052  3.99079971212488 18.9480358962052  C 3.99079971212488 18.9480358962052  11.9153759877613 19.9513082845892  11.9153759877613 19.9513082845892  C 11.9153759877613 19.9513082845892  14.9937690794506 18.0079617685064  14.9937690794506 18.0079617685064  C 14.9937690794506 18.0079617685064  16.6980609643714 15.7229496555919  16.6980609643714 15.7229496555919  C 16.6980609643714 15.7229496555919  22.1309675841106 14.8440988429324  22.1309675841106 14.8440988429324  C 22.1309675841106 14.8440988429324  23.3044144556952 12.7091825991464  23.3044144556952 12.7091825991464  C 23.3044144556952 12.7091825991464  25.6589279837447 11.6249374392584  25.6589279837447 11.6249374392584  C 25.6589279837447 11.6249374392584  18.5598284034869 5.19451441449643  18.5598284034869 5.19451441449643  C 18.5598284034869 5.19451441449643  32.8240656996323 1.9437538804798  32.8240656996323 1.9437538804798  C 32.8240656996323 1.9437538804798  34.1803874083471 0.962205894206188  34.1803874083471 0.962205894206188  C 34.1803874083471 0.962205894206188  42.757725255406 2.72385741081795  42.757725255406 2.72385741081795  C 42.757725255406 2.72385741081795  53.3695456655369 7.2504328324257  53.3695456655369 7.2504328324257  C 53.3695456655369 7.2504328324257  73.450218753736 20.0698050233749  73.450218753736 20.0698050233749  C 73.450218753736 20.0698050233749  88.5361030428501 20.5734161632136  88.5361030428501 20.5734161632136  C 88.5361030428501 20.5734161632136  94.8808439199458 21.1816994223126  94.8808439199458 21.1816994223126  C 94.8808439199458 21.1816994223126  96.6537138687901 24.175717022294  96.6537138687901 24.175717022294  C 96.6537138687901 24.175717022294  101.690391674747 24.0137714792872  101.690391674747 24.0137714792872  C 101.690391674747 24.0137714792872  104.479232940981 29.3994482570901  104.479232940981 29.3994482570901  C 104.479232940981 29.3994482570901  107.98179405768 30.81943417687  107.98179405768 30.81943417687  C 107.98179405768 30.81943417687  109.203499566841 32.9958242792312  109.203499566841 32.9958242792312  C 109.203499566841 32.9958242792312  114.057302535668 35.5909028586345  114.057302535668 35.5909028586345  C 114.057302535668 35.5909028586345  114.489090345559 38.1306829599378  114.489090345559 38.1306829599378  C 114.489090345559 38.1306829599378  113.78045035168 40.1727767583421  113.78045035168 40.1727767583421  C 113.78045035168 40.1727767583421  114.67958496757 42.2286951762713  114.67958496757 42.2286951762713  C 114.67958496757 42.2286951762713  116.726767172109 43.9370231604295  116.726767172109 43.9370231604295  C 116.726767172109 43.9370231604295  117.676700353868 45.9336932089661  117.676700353868 45.9336932089661  C 117.676700353868 45.9336932089661  118.740930308833 47.4208272807246  118.740930308833 47.4208272807246  C 118.740930308833 47.4208272807246  120.892249573405 48.6235691793978  120.892249573405 48.6235691793978  C 120.892249573405 48.6235691793978  122.868313785727 48.1930310284771  122.868313785727 48.1930310284771  C 122.868313785727 48.1930310284771  124.219555637855 51.9385000434907  124.219555637855 51.9385000434907  C 124.219555637855 51.9385000434907  124.491327965256 53.3328116698672  124.491327965256 53.3328116698672  C 124.491327965256 53.3328116698672  127.22175088074 59.4156442608582  127.22175088074 59.4156442608582  C 127.22175088074 59.4156442608582  148.628266538132 62.4254614260111  148.628266538132 62.4254614260111  C 148.628266538132 62.4254614260111  150.063326023944 61.1654461035915  150.063326023944 61.1654461035915  C 150.063326023944 61.1654461035915  153.327133881057 65.3819550587103  153.327133881057 65.3819550587103  C 153.327133881057 65.3819550587103  148.580007900556 77.1763304591646  148.580007900556 77.1763304591646  C 148.580007900556 77.1763304591646  127.216671024153 83.0162447356458  127.216671024153 83.0162447356458  C 127.216671024153 83.0162447356458  106.681350771423 85.2459583704603  106.681350771423 85.2459583704603  C 106.681350771423 85.2459583704603  100.034358427403 87.8548615693885  100.034358427403 87.8548615693885  C 100.034358427403 87.8548615693885  94.9316424858152 93.919919649562  94.9316424858152 93.919919649562  C 94.9316424858152 93.919919649562  91.606876349659 94.8797432337247  91.606876349659 94.8797432337247  C 91.606876349659 94.8797432337247  89.8263866159343 92.960096065399  89.8263866159343 92.960096065399  C 89.8263866159343 92.960096065399  87.0959637004508 93.2484381297773  87.0959637004508 93.2484381297773  C 87.0959637004508 93.2484381297773  80.2127580251384 92.6717540010207  80.2127580251384 92.6717540010207  C 80.2127580251384 92.6717540010207  78.907234882293 92.0950698722645  78.907234882293 92.0950698722645  C 78.907234882293 92.0950698722645  68.8427888293757 92.227391230575  68.8427888293757 92.227391230575  C 68.8427888293757 92.227391230575  66.9124433263362 92.7487768812316  66.9124433263362 92.7487768812316  C 66.9124433263362 92.7487768812316  63.9864459322549 91.2478181899478  63.9864459322549 91.2478181899478  C 63.9864459322549 91.2478181899478  62.1018191384976 94.0818651925688  62.1018191384976 94.0818651925688  C 62.1018191384976 94.0818651925688  62.8307785587246 96.5070984463794  62.8307785587246 96.5070984463794  Z " fill-rule="evenodd" />
    </mask>
  </defs>
  <g transform="matrix(1 0 0 1 -2085 -4153 )">
    <path d="M 62.8307785587246 96.5070984463794  C 62.8307785587246 96.5070984463794  59.7041268294592 98.3378730606163  59.7041268294592 98.3378730606163  C 59.7041268294592 98.3378730606163  58.7795929306348 95.8889404590484  58.7795929306348 95.8889404590484  C 58.7795929306348 95.8889404590484  56.6308135943565 94.1549381814866  56.6308135943565 94.1549381814866  C 56.6308135943565 94.1549381814866  56.0821890829665 91.8561014490472  56.0821890829665 91.8561014490472  C 56.0821890829665 91.8561014490472  52.4043729140173 89.7863584115928  52.4043729140173 89.7863584115928  C 52.4043729140173 89.7863584115928  48.6097200435681 84.9260171757392  48.6097200435681 84.9260171757392  C 48.6097200435681 84.9260171757392  46.6006367634312 80.1802227873782  46.6006367634312 80.1802227873782  C 46.6006367634312 80.1802227873782  41.6757158023864 76.1533086143163  41.6757158023864 76.1533086143163  C 41.6757158023864 76.1533086143163  38.4982655072516 75.1895351388604  38.4982655072516 75.1895351388604  C 38.4982655072516 75.1895351388604  33.7816186662718 69.5767396117185  33.7816186662718 69.5767396117185  C 33.7816186662718 69.5767396117185  32.9586818991865 65.4609528845675  32.9586818991865 65.4609528845675  C 32.9586818991865 65.4609528845675  33.2609333661098 61.9336999600513  33.2609333661098 61.9336999600513  C 33.2609333661098 61.9336999600513  29.1767286702049 55.2939326967679  29.1767286702049 55.2939326967679  C 29.1767286702049 55.2939326967679  25.8367229642878 52.9437473775215  25.8367229642878 52.9437473775215  C 25.8367229642878 52.9437473775215  21.9912715279693 51.6955817289802  21.9912715279693 51.6955817289802  C 21.9912715279693 51.6955817289802  19.6494576413869 46.7908196195147  19.6494576413869 46.7908196195147  C 19.6494576413869 46.7908196195147  20.0380666702884 45.4182323952488  20.0380666702884 45.4182323952488  C 20.0380666702884 45.4182323952488  18.0594625296729 42.2583193609678  18.0594625296729 42.2583193609678  C 18.0594625296729 42.2583193609678  15.9792612573186 40.8936319192875  15.9792612573186 40.8936319192875  C 15.9792612573186 40.8936319192875  13.1980397759654 36.3275575847512  13.1980397759654 36.3275575847512  C 13.1980397759654 36.3275575847512  8.86238217900657 31.3447697188193  8.86238217900657 31.3447697188193  C 8.86238217900657 31.3447697188193  5.23028471934007 27.0709873399542  5.23028471934007 27.0709873399542  C 5.23028471934007 27.0709873399542  1.6845448216514 27.1006115246503  1.6845448216514 27.1006115246503  C 1.6845448216514 27.1006115246503  2.79195355760567 23.666181045516  2.79195355760567 23.666181045516  C 2.79195355760567 23.666181045516  3.10690466599647 21.466091595398  3.10690466599647 21.466091595398  C 3.10690466599647 21.466091595398  3.99079971212488 18.9480358962052  3.99079971212488 18.9480358962052  C 3.99079971212488 18.9480358962052  11.9153759877613 19.9513082845892  11.9153759877613 19.9513082845892  C 11.9153759877613 19.9513082845892  14.9937690794506 18.0079617685064  14.9937690794506 18.0079617685064  C 14.9937690794506 18.0079617685064  16.6980609643714 15.7229496555919  16.6980609643714 15.7229496555919  C 16.6980609643714 15.7229496555919  22.1309675841106 14.8440988429324  22.1309675841106 14.8440988429324  C 22.1309675841106 14.8440988429324  23.3044144556952 12.7091825991464  23.3044144556952 12.7091825991464  C 23.3044144556952 12.7091825991464  25.6589279837447 11.6249374392584  25.6589279837447 11.6249374392584  C 25.6589279837447 11.6249374392584  18.5598284034869 5.19451441449643  18.5598284034869 5.19451441449643  C 18.5598284034869 5.19451441449643  32.8240656996323 1.9437538804798  32.8240656996323 1.9437538804798  C 32.8240656996323 1.9437538804798  34.1803874083471 0.962205894206188  34.1803874083471 0.962205894206188  C 34.1803874083471 0.962205894206188  42.757725255406 2.72385741081795  42.757725255406 2.72385741081795  C 42.757725255406 2.72385741081795  53.3695456655369 7.2504328324257  53.3695456655369 7.2504328324257  C 53.3695456655369 7.2504328324257  73.450218753736 20.0698050233749  73.450218753736 20.0698050233749  C 73.450218753736 20.0698050233749  88.5361030428501 20.5734161632136  88.5361030428501 20.5734161632136  C 88.5361030428501 20.5734161632136  94.8808439199458 21.1816994223126  94.8808439199458 21.1816994223126  C 94.8808439199458 21.1816994223126  96.6537138687901 24.175717022294  96.6537138687901 24.175717022294  C 96.6537138687901 24.175717022294  101.690391674747 24.0137714792872  101.690391674747 24.0137714792872  C 101.690391674747 24.0137714792872  104.479232940981 29.3994482570901  104.479232940981 29.3994482570901  C 104.479232940981 29.3994482570901  107.98179405768 30.81943417687  107.98179405768 30.81943417687  C 107.98179405768 30.81943417687  109.203499566841 32.9958242792312  109.203499566841 32.9958242792312  C 109.203499566841 32.9958242792312  114.057302535668 35.5909028586345  114.057302535668 35.5909028586345  C 114.057302535668 35.5909028586345  114.489090345559 38.1306829599378  114.489090345559 38.1306829599378  C 114.489090345559 38.1306829599378  113.78045035168 40.1727767583421  113.78045035168 40.1727767583421  C 113.78045035168 40.1727767583421  114.67958496757 42.2286951762713  114.67958496757 42.2286951762713  C 114.67958496757 42.2286951762713  116.726767172109 43.9370231604295  116.726767172109 43.9370231604295  C 116.726767172109 43.9370231604295  117.676700353868 45.9336932089661  117.676700353868 45.9336932089661  C 117.676700353868 45.9336932089661  118.740930308833 47.4208272807246  118.740930308833 47.4208272807246  C 118.740930308833 47.4208272807246  120.892249573405 48.6235691793978  120.892249573405 48.6235691793978  C 120.892249573405 48.6235691793978  122.868313785727 48.1930310284771  122.868313785727 48.1930310284771  C 122.868313785727 48.1930310284771  124.219555637855 51.9385000434907  124.219555637855 51.9385000434907  C 124.219555637855 51.9385000434907  124.491327965256 53.3328116698672  124.491327965256 53.3328116698672  C 124.491327965256 53.3328116698672  127.22175088074 59.4156442608582  127.22175088074 59.4156442608582  C 127.22175088074 59.4156442608582  148.628266538132 62.4254614260111  148.628266538132 62.4254614260111  C 148.628266538132 62.4254614260111  150.063326023944 61.1654461035915  150.063326023944 61.1654461035915  C 150.063326023944 61.1654461035915  153.327133881057 65.3819550587103  153.327133881057 65.3819550587103  C 153.327133881057 65.3819550587103  148.580007900556 77.1763304591646  148.580007900556 77.1763304591646  C 148.580007900556 77.1763304591646  127.216671024153 83.0162447356458  127.216671024153 83.0162447356458  C 127.216671024153 83.0162447356458  106.681350771423 85.2459583704603  106.681350771423 85.2459583704603  C 106.681350771423 85.2459583704603  100.034358427403 87.8548615693885  100.034358427403 87.8548615693885  C 100.034358427403 87.8548615693885  94.9316424858152 93.919919649562  94.9316424858152 93.919919649562  C 94.9316424858152 93.919919649562  91.606876349659 94.8797432337247  91.606876349659 94.8797432337247  C 91.606876349659 94.8797432337247  89.8263866159343 92.960096065399  89.8263866159343 92.960096065399  C 89.8263866159343 92.960096065399  87.0959637004508 93.2484381297773  87.0959637004508 93.2484381297773  C 87.0959637004508 93.2484381297773  80.2127580251384 92.6717540010207  80.2127580251384 92.6717540010207  C 80.2127580251384 92.6717540010207  78.907234882293 92.0950698722645  78.907234882293 92.0950698722645  C 78.907234882293 92.0950698722645  68.8427888293757 92.227391230575  68.8427888293757 92.227391230575  C 68.8427888293757 92.227391230575  66.9124433263362 92.7487768812316  66.9124433263362 92.7487768812316  C 66.9124433263362 92.7487768812316  63.9864459322549 91.2478181899478  63.9864459322549 91.2478181899478  C 63.9864459322549 91.2478181899478  62.1018191384976 94.0818651925688  62.1018191384976 94.0818651925688  C 62.1018191384976 94.0818651925688  62.8307785587246 96.5070984463794  62.8307785587246 96.5070984463794  Z " fill-rule="nonzero" fill="#f2f2f2" stroke="none" transform="matrix(1 0 0 1 2085 4153 )" />
    <path d="M 62.8307785587246 96.5070984463794  C 62.8307785587246 96.5070984463794  59.7041268294592 98.3378730606163  59.7041268294592 98.3378730606163  C 59.7041268294592 98.3378730606163  58.7795929306348 95.8889404590484  58.7795929306348 95.8889404590484  C 58.7795929306348 95.8889404590484  56.6308135943565 94.1549381814866  56.6308135943565 94.1549381814866  C 56.6308135943565 94.1549381814866  56.0821890829665 91.8561014490472  56.0821890829665 91.8561014490472  C 56.0821890829665 91.8561014490472  52.4043729140173 89.7863584115928  52.4043729140173 89.7863584115928  C 52.4043729140173 89.7863584115928  48.6097200435681 84.9260171757392  48.6097200435681 84.9260171757392  C 48.6097200435681 84.9260171757392  46.6006367634312 80.1802227873782  46.6006367634312 80.1802227873782  C 46.6006367634312 80.1802227873782  41.6757158023864 76.1533086143163  41.6757158023864 76.1533086143163  C 41.6757158023864 76.1533086143163  38.4982655072516 75.1895351388604  38.4982655072516 75.1895351388604  C 38.4982655072516 75.1895351388604  33.7816186662718 69.5767396117185  33.7816186662718 69.5767396117185  C 33.7816186662718 69.5767396117185  32.9586818991865 65.4609528845675  32.9586818991865 65.4609528845675  C 32.9586818991865 65.4609528845675  33.2609333661098 61.9336999600513  33.2609333661098 61.9336999600513  C 33.2609333661098 61.9336999600513  29.1767286702049 55.2939326967679  29.1767286702049 55.2939326967679  C 29.1767286702049 55.2939326967679  25.8367229642878 52.9437473775215  25.8367229642878 52.9437473775215  C 25.8367229642878 52.9437473775215  21.9912715279693 51.6955817289802  21.9912715279693 51.6955817289802  C 21.9912715279693 51.6955817289802  19.6494576413869 46.7908196195147  19.6494576413869 46.7908196195147  C 19.6494576413869 46.7908196195147  20.0380666702884 45.4182323952488  20.0380666702884 45.4182323952488  C 20.0380666702884 45.4182323952488  18.0594625296729 42.2583193609678  18.0594625296729 42.2583193609678  C 18.0594625296729 42.2583193609678  15.9792612573186 40.8936319192875  15.9792612573186 40.8936319192875  C 15.9792612573186 40.8936319192875  13.1980397759654 36.3275575847512  13.1980397759654 36.3275575847512  C 13.1980397759654 36.3275575847512  8.86238217900657 31.3447697188193  8.86238217900657 31.3447697188193  C 8.86238217900657 31.3447697188193  5.23028471934007 27.0709873399542  5.23028471934007 27.0709873399542  C 5.23028471934007 27.0709873399542  1.6845448216514 27.1006115246503  1.6845448216514 27.1006115246503  C 1.6845448216514 27.1006115246503  2.79195355760567 23.666181045516  2.79195355760567 23.666181045516  C 2.79195355760567 23.666181045516  3.10690466599647 21.466091595398  3.10690466599647 21.466091595398  C 3.10690466599647 21.466091595398  3.99079971212488 18.9480358962052  3.99079971212488 18.9480358962052  C 3.99079971212488 18.9480358962052  11.9153759877613 19.9513082845892  11.9153759877613 19.9513082845892  C 11.9153759877613 19.9513082845892  14.9937690794506 18.0079617685064  14.9937690794506 18.0079617685064  C 14.9937690794506 18.0079617685064  16.6980609643714 15.7229496555919  16.6980609643714 15.7229496555919  C 16.6980609643714 15.7229496555919  22.1309675841106 14.8440988429324  22.1309675841106 14.8440988429324  C 22.1309675841106 14.8440988429324  23.3044144556952 12.7091825991464  23.3044144556952 12.7091825991464  C 23.3044144556952 12.7091825991464  25.6589279837447 11.6249374392584  25.6589279837447 11.6249374392584  C 25.6589279837447 11.6249374392584  18.5598284034869 5.19451441449643  18.5598284034869 5.19451441449643  C 18.5598284034869 5.19451441449643  32.8240656996323 1.9437538804798  32.8240656996323 1.9437538804798  C 32.8240656996323 1.9437538804798  34.1803874083471 0.962205894206188  34.1803874083471 0.962205894206188  C 34.1803874083471 0.962205894206188  42.757725255406 2.72385741081795  42.757725255406 2.72385741081795  C 42.757725255406 2.72385741081795  53.3695456655369 7.2504328324257  53.3695456655369 7.2504328324257  C 53.3695456655369 7.2504328324257  73.450218753736 20.0698050233749  73.450218753736 20.0698050233749  C 73.450218753736 20.0698050233749  88.5361030428501 20.5734161632136  88.5361030428501 20.5734161632136  C 88.5361030428501 20.5734161632136  94.8808439199458 21.1816994223126  94.8808439199458 21.1816994223126  C 94.8808439199458 21.1816994223126  96.6537138687901 24.175717022294  96.6537138687901 24.175717022294  C 96.6537138687901 24.175717022294  101.690391674747 24.0137714792872  101.690391674747 24.0137714792872  C 101.690391674747 24.0137714792872  104.479232940981 29.3994482570901  104.479232940981 29.3994482570901  C 104.479232940981 29.3994482570901  107.98179405768 30.81943417687  107.98179405768 30.81943417687  C 107.98179405768 30.81943417687  109.203499566841 32.9958242792312  109.203499566841 32.9958242792312  C 109.203499566841 32.9958242792312  114.057302535668 35.5909028586345  114.057302535668 35.5909028586345  C 114.057302535668 35.5909028586345  114.489090345559 38.1306829599378  114.489090345559 38.1306829599378  C 114.489090345559 38.1306829599378  113.78045035168 40.1727767583421  113.78045035168 40.1727767583421  C 113.78045035168 40.1727767583421  114.67958496757 42.2286951762713  114.67958496757 42.2286951762713  C 114.67958496757 42.2286951762713  116.726767172109 43.9370231604295  116.726767172109 43.9370231604295  C 116.726767172109 43.9370231604295  117.676700353868 45.9336932089661  117.676700353868 45.9336932089661  C 117.676700353868 45.9336932089661  118.740930308833 47.4208272807246  118.740930308833 47.4208272807246  C 118.740930308833 47.4208272807246  120.892249573405 48.6235691793978  120.892249573405 48.6235691793978  C 120.892249573405 48.6235691793978  122.868313785727 48.1930310284771  122.868313785727 48.1930310284771  C 122.868313785727 48.1930310284771  124.219555637855 51.9385000434907  124.219555637855 51.9385000434907  C 124.219555637855 51.9385000434907  124.491327965256 53.3328116698672  124.491327965256 53.3328116698672  C 124.491327965256 53.3328116698672  127.22175088074 59.4156442608582  127.22175088074 59.4156442608582  C 127.22175088074 59.4156442608582  148.628266538132 62.4254614260111  148.628266538132 62.4254614260111  C 148.628266538132 62.4254614260111  150.063326023944 61.1654461035915  150.063326023944 61.1654461035915  C 150.063326023944 61.1654461035915  153.327133881057 65.3819550587103  153.327133881057 65.3819550587103  C 153.327133881057 65.3819550587103  148.580007900556 77.1763304591646  148.580007900556 77.1763304591646  C 148.580007900556 77.1763304591646  127.216671024153 83.0162447356458  127.216671024153 83.0162447356458  C 127.216671024153 83.0162447356458  106.681350771423 85.2459583704603  106.681350771423 85.2459583704603  C 106.681350771423 85.2459583704603  100.034358427403 87.8548615693885  100.034358427403 87.8548615693885  C 100.034358427403 87.8548615693885  94.9316424858152 93.919919649562  94.9316424858152 93.919919649562  C 94.9316424858152 93.919919649562  91.606876349659 94.8797432337247  91.606876349659 94.8797432337247  C 91.606876349659 94.8797432337247  89.8263866159343 92.960096065399  89.8263866159343 92.960096065399  C 89.8263866159343 92.960096065399  87.0959637004508 93.2484381297773  87.0959637004508 93.2484381297773  C 87.0959637004508 93.2484381297773  80.2127580251384 92.6717540010207  80.2127580251384 92.6717540010207  C 80.2127580251384 92.6717540010207  78.907234882293 92.0950698722645  78.907234882293 92.0950698722645  C 78.907234882293 92.0950698722645  68.8427888293757 92.227391230575  68.8427888293757 92.227391230575  C 68.8427888293757 92.227391230575  66.9124433263362 92.7487768812316  66.9124433263362 92.7487768812316  C 66.9124433263362 92.7487768812316  63.9864459322549 91.2478181899478  63.9864459322549 91.2478181899478  C 63.9864459322549 91.2478181899478  62.1018191384976 94.0818651925688  62.1018191384976 94.0818651925688  C 62.1018191384976 94.0818651925688  62.8307785587246 96.5070984463794  62.8307785587246 96.5070984463794  Z " stroke-width="2" stroke="#505050" fill="none" stroke-opacity="0.211764705882353" transform="matrix(1 0 0 1 2085 4153 )" mask="url(#clip204)" />
  </g>
</svg>