<?xml version="1.0" encoding="utf-8"?>
<svg version="1.1" xmlns:xlink="http://www.w3.org/1999/xlink" width="45px" height="26px" xmlns="http://www.w3.org/2000/svg">
  <defs>
    <mask fill="white" id="clip205">
      <path d="M 39.8925190252334 22.1936310411899  C 39.8925190252334 22.1936310411899  41.2923964075229 22.3964320254481  41.2923964075229 22.3964320254481  C 41.2923964075229 22.3964320254481  43.234881129142 25.7774270450642  43.234881129142 25.7774270450642  C 43.234881129142 25.7774270450642  36.581146984178 25.7416386360773  36.581146984178 25.7416386360773  C 36.581146984178 25.7416386360773  33.9424400600397 20.8316832547501  33.9424400600397 20.8316832547501  C 33.9424400600397 20.8316832547501  39.8925190252334 22.1936310411899  39.8925190252334 22.1936310411899  Z M 31.3545058228114 18.9318997038776  C 31.3545058228114 18.9318997038776  32.4917513422285 20.4091656970524  32.4917513422285 20.4091656970524  C 32.4917513422285 20.4091656970524  29.783669963747 20.5344251285061  29.783669963747 20.5344251285061  C 29.783669963747 20.5344251285061  23.7245739988704 19.9657870746057  23.7245739988704 19.9657870746057  C 23.7245739988704 19.9657870746057  22.27018811674 19.098912279149  22.27018811674 19.098912279149  C 22.27018811674 19.098912279149  22.7062561154708 15.4256452528079  22.7062561154708 15.4256452528079  C 22.7062561154708 15.4256452528079  29.0924030793954 16.3084260078144  29.0924030793954 16.3084260078144  C 29.0924030793954 16.3084260078144  31.3545058228114 18.9318997038776  31.3545058228114 18.9318997038776  Z M 35.4624645835824 16.1821569467293  C 35.4624645835824 16.1821569467293  38.2423980754911 18.8762288454537  38.2423980754911 18.8762288454537  C 38.2423980754911 18.8762288454537  37.194348283087 19.9121044611254  37.194348283087 19.9121044611254  C 37.194348283087 19.9121044611254  30.245772707163 13.6024246394277  30.245772707163 13.6024246394277  C 30.245772707163 13.6024246394277  28.8012974613672 10.2562083991668  28.8012974613672 10.2562083991668  C 28.8012974613672 10.2562083991668  31.162506568131 10.2562083991668  31.162506568131 10.2562083991668  C 31.162506568131 10.2562083991668  35.4624645835824 16.1821569467293  35.4624645835824 16.1821569467293  Z M 24.0726657758235 10.0205858661779  C 24.0726657758235 10.0205858661779  25.7029654528969 11.7960886009092  25.7029654528969 11.7960886009092  C 25.7029654528969 11.7960886009092  25.9978068838569 12.9214352390481  25.9978068838569 12.9214352390481  C 25.9978068838569 12.9214352390481  20.5543898769729 10.5474707762606  20.5543898769729 10.5474707762606  C 20.5543898769729 10.5474707762606  14.951183183497 7.09489893867112  14.951183183497 7.09489893867112  C 14.951183183497 7.09489893867112  12.3446858274467 5.23390167136045  12.3446858274467 5.23390167136045  C 12.3446858274467 5.23390167136045  13.3803473244326 4.66526361745971  13.3803473244326 4.66526361745971  C 13.3803473244326 4.66526361745971  16.5740498833188 6.00534070951913  16.5740498833188 6.00534070951913  C 16.5740498833188 6.00534070951913  24.0726657758235 10.0205858661779  24.0726657758235 10.0205858661779  Z M 6.70427559910263 4.44554704402061  C 6.70427559910263 4.44554704402061  9.47182079559311 6.2647911675136  9.47182079559311 6.2647911675136  C 9.47182079559311 6.2647911675136  8.08680936780629 6.5829103585069  8.08680936780629 6.5829103585069  C 8.08680936780629 6.5829103585069  3.24919933119236 5.31043359453368  3.24919933119236 5.31043359453368  C 3.24919933119236 5.31043359453368  0.394936066772425 1.57354272999383  0.394936066772425 1.57354272999383  C 0.394936066772425 1.57354272999383  0.754196633908896 0.645032341282104  0.754196633908896 0.645032341282104  C 0.754196633908896 0.645032341282104  6.70427559910263 4.44554704402061  6.70427559910263 4.44554704402061  Z " fill-rule="evenodd" />
    </mask>
  </defs>
  <g transform="matrix(1 0 0 1 -2953 -4379 )">
    <path d="M 39.8925190252334 22.1936310411899  C 39.8925190252334 22.1936310411899  41.2923964075229 22.3964320254481  41.2923964075229 22.3964320254481  C 41.2923964075229 22.3964320254481  43.234881129142 25.7774270450642  43.234881129142 25.7774270450642  C 43.234881129142 25.7774270450642  36.581146984178 25.7416386360773  36.581146984178 25.7416386360773  C 36.581146984178 25.7416386360773  33.9424400600397 20.8316832547501  33.9424400600397 20.8316832547501  C 33.9424400600397 20.8316832547501  39.8925190252334 22.1936310411899  39.8925190252334 22.1936310411899  Z M 31.3545058228114 18.9318997038776  C 31.3545058228114 18.9318997038776  32.4917513422285 20.4091656970524  32.4917513422285 20.4091656970524  C 32.4917513422285 20.4091656970524  29.783669963747 20.5344251285061  29.783669963747 20.5344251285061  C 29.783669963747 20.5344251285061  23.7245739988704 19.9657870746057  23.7245739988704 19.9657870746057  C 23.7245739988704 19.9657870746057  22.27018811674 19.098912279149  22.27018811674 19.098912279149  C 22.27018811674 19.098912279149  22.7062561154708 15.4256452528079  22.7062561154708 15.4256452528079  C 22.7062561154708 15.4256452528079  29.0924030793954 16.3084260078144  29.0924030793954 16.3084260078144  C 29.0924030793954 16.3084260078144  31.3545058228114 18.9318997038776  31.3545058228114 18.9318997038776  Z M 35.4624645835824 16.1821569467293  C 35.4624645835824 16.1821569467293  38.2423980754911 18.8762288454537  38.2423980754911 18.8762288454537  C 38.2423980754911 18.8762288454537  37.194348283087 19.9121044611254  37.194348283087 19.9121044611254  C 37.194348283087 19.9121044611254  30.245772707163 13.6024246394277  30.245772707163 13.6024246394277  C 30.245772707163 13.6024246394277  28.8012974613672 10.2562083991668  28.8012974613672 10.2562083991668  C 28.8012974613672 10.2562083991668  31.162506568131 10.2562083991668  31.162506568131 10.2562083991668  C 31.162506568131 10.2562083991668  35.4624645835824 16.1821569467293  35.4624645835824 16.1821569467293  Z M 24.0726657758235 10.0205858661779  C 24.0726657758235 10.0205858661779  25.7029654528969 11.7960886009092  25.7029654528969 11.7960886009092  C 25.7029654528969 11.7960886009092  25.9978068838569 12.9214352390481  25.9978068838569 12.9214352390481  C 25.9978068838569 12.9214352390481  20.5543898769729 10.5474707762606  20.5543898769729 10.5474707762606  C 20.5543898769729 10.5474707762606  14.951183183497 7.09489893867112  14.951183183497 7.09489893867112  C 14.951183183497 7.09489893867112  12.3446858274467 5.23390167136045  12.3446858274467 5.23390167136045  C 12.3446858274467 5.23390167136045  13.3803473244326 4.66526361745971  13.3803473244326 4.66526361745971  C 13.3803473244326 4.66526361745971  16.5740498833188 6.00534070951913  16.5740498833188 6.00534070951913  C 16.5740498833188 6.00534070951913  24.0726657758235 10.0205858661779  24.0726657758235 10.0205858661779  Z M 6.70427559910263 4.44554704402061  C 6.70427559910263 4.44554704402061  9.47182079559311 6.2647911675136  9.47182079559311 6.2647911675136  C 9.47182079559311 6.2647911675136  8.08680936780629 6.5829103585069  8.08680936780629 6.5829103585069  C 8.08680936780629 6.5829103585069  3.24919933119236 5.31043359453368  3.24919933119236 5.31043359453368  C 3.24919933119236 5.31043359453368  0.394936066772425 1.57354272999383  0.394936066772425 1.57354272999383  C 0.394936066772425 1.57354272999383  0.754196633908896 0.645032341282104  0.754196633908896 0.645032341282104  C 0.754196633908896 0.645032341282104  6.70427559910263 4.44554704402061  6.70427559910263 4.44554704402061  Z " fill-rule="nonzero" fill="#f2f2f2" stroke="none" transform="matrix(1 0 0 1 2953 4379 )" />
    <path d="M 39.8925190252334 22.1936310411899  C 39.8925190252334 22.1936310411899  41.2923964075229 22.3964320254481  41.2923964075229 22.3964320254481  C 41.2923964075229 22.3964320254481  43.234881129142 25.7774270450642  43.234881129142 25.7774270450642  C 43.234881129142 25.7774270450642  36.581146984178 25.7416386360773  36.581146984178 25.7416386360773  C 36.581146984178 25.7416386360773  33.9424400600397 20.8316832547501  33.9424400600397 20.8316832547501  C 33.9424400600397 20.8316832547501  39.8925190252334 22.1936310411899  39.8925190252334 22.1936310411899  Z " stroke-width="2" stroke="#505050" fill="none" stroke-opacity="0.211764705882353" transform="matrix(1 0 0 1 2953 4379 )" mask="url(#clip205)" />
    <path d="M 31.3545058228114 18.9318997038776  C 31.3545058228114 18.9318997038776  32.4917513422285 20.4091656970524  32.4917513422285 20.4091656970524  C 32.4917513422285 20.4091656970524  29.783669963747 20.5344251285061  29.783669963747 20.5344251285061  C 29.783669963747 20.5344251285061  23.7245739988704 19.9657870746057  23.7245739988704 19.9657870746057  C 23.7245739988704 19.9657870746057  22.27018811674 19.098912279149  22.27018811674 19.098912279149  C 22.27018811674 19.098912279149  22.7062561154708 15.4256452528079  22.7062561154708 15.4256452528079  C 22.7062561154708 15.4256452528079  29.0924030793954 16.3084260078144  29.0924030793954 16.3084260078144  C 29.0924030793954 16.3084260078144  31.3545058228114 18.9318997038776  31.3545058228114 18.9318997038776  Z " stroke-width="2" stroke="#505050" fill="none" stroke-opacity="0.211764705882353" transform="matrix(1 0 0 1 2953 4379 )" mask="url(#clip205)" />
    <path d="M 35.4624645835824 16.1821569467293  C 35.4624645835824 16.1821569467293  38.2423980754911 18.8762288454537  38.2423980754911 18.8762288454537  C 38.2423980754911 18.8762288454537  37.194348283087 19.9121044611254  37.194348283087 19.9121044611254  C 37.194348283087 19.9121044611254  30.245772707163 13.6024246394277  30.245772707163 13.6024246394277  C 30.245772707163 13.6024246394277  28.8012974613672 10.2562083991668  28.8012974613672 10.2562083991668  C 28.8012974613672 10.2562083991668  31.162506568131 10.2562083991668  31.162506568131 10.2562083991668  C 31.162506568131 10.2562083991668  35.4624645835824 16.1821569467293  35.4624645835824 16.1821569467293  Z " stroke-width="2" stroke="#505050" fill="none" stroke-opacity="0.211764705882353" transform="matrix(1 0 0 1 2953 4379 )" mask="url(#clip205)" />
    <path d="M 24.0726657758235 10.0205858661779  C 24.0726657758235 10.0205858661779  25.7029654528969 11.7960886009092  25.7029654528969 11.7960886009092  C 25.7029654528969 11.7960886009092  25.9978068838569 12.9214352390481  25.9978068838569 12.9214352390481  C 25.9978068838569 12.9214352390481  20.5543898769729 10.5474707762606  20.5543898769729 10.5474707762606  C 20.5543898769729 10.5474707762606  14.951183183497 7.09489893867112  14.951183183497 7.09489893867112  C 14.951183183497 7.09489893867112  12.3446858274467 5.23390167136045  12.3446858274467 5.23390167136045  C 12.3446858274467 5.23390167136045  13.3803473244326 4.66526361745971  13.3803473244326 4.66526361745971  C 13.3803473244326 4.66526361745971  16.5740498833188 6.00534070951913  16.5740498833188 6.00534070951913  C 16.5740498833188 6.00534070951913  24.0726657758235 10.0205858661779  24.0726657758235 10.0205858661779  Z " stroke-width="2" stroke="#505050" fill="none" stroke-opacity="0.211764705882353" transform="matrix(1 0 0 1 2953 4379 )" mask="url(#clip205)" />
    <path d="M 6.70427559910263 4.44554704402061  C 6.70427559910263 4.44554704402061  9.47182079559311 6.2647911675136  9.47182079559311 6.2647911675136  C 9.47182079559311 6.2647911675136  8.08680936780629 6.5829103585069  8.08680936780629 6.5829103585069  C 8.08680936780629 6.5829103585069  3.24919933119236 5.31043359453368  3.24919933119236 5.31043359453368  C 3.24919933119236 5.31043359453368  0.394936066772425 1.57354272999383  0.394936066772425 1.57354272999383  C 0.394936066772425 1.57354272999383  0.754196633908896 0.645032341282104  0.754196633908896 0.645032341282104  C 0.754196633908896 0.645032341282104  6.70427559910263 4.44554704402061  6.70427559910263 4.44554704402061  Z " stroke-width="2" stroke="#505050" fill="none" stroke-opacity="0.211764705882353" transform="matrix(1 0 0 1 2953 4379 )" mask="url(#clip205)" />
  </g>
</svg>