<?xml version="1.0" encoding="utf-8"?>
<svg version="1.1" xmlns:xlink="http://www.w3.org/1999/xlink" width="120px" height="80px" xmlns="http://www.w3.org/2000/svg">
  <defs>
    <mask fill="white" id="clip206">
      <path d="M 87.863886086961 74.4359697668674  C 87.863886086961 74.4359697668674  87.8738968307338 75.1106938971349  87.8738968307338 75.1106938971349  C 87.8738968307338 75.1106938971349  86.9028546847998 74.9985735668829  86.9028546847998 74.9985735668829  C 86.9028546847998 74.9985735668829  87.02298361007 72.1815502692966  87.02298361007 72.1815502692966  C 87.02298361007 72.1815502692966  86.1795784472352 70.2354616799196  86.1795784472352 70.2354616799196  C 86.1795784472352 70.2354616799196  82.5656999453573 67.997059372385  82.5656999453573 67.997059372385  C 82.5656999453573 67.997059372385  81.7222947825229 63.8986608719169  81.7222947825229 63.8986608719169  C 81.7222947825229 63.8986608719169  82.5656999453573 59.6921463387057  82.5656999453573 59.6921463387057  C 82.5656999453573 59.6921463387057  79.3147109052329 59.2997251828231  79.3147109052329 59.2997251828231  C 79.3147109052329 59.2997251828231  78.8316925182087 60.573091790687  78.8316925182087 60.573091790687  C 78.8316925182087 60.573091790687  74.6171693899793 60.8674076575993  74.6171693899793 60.8674076575993  C 74.6171693899793 60.8674076575993  76.3014770297051 62.5311932725913  76.3014770297051 62.5311932725913  C 76.3014770297051 62.5311932725913  76.9046243419995 65.9488611965283  76.9046243419995 65.9488611965283  C 76.9046243419995 65.9488611965283  73.0504879895807 69.0682089560442  73.0504879895807 69.0682089560442  C 73.0504879895807 69.0682089560442  69.5567384129727 73.1545945639852  69.5567384129727 73.1545945639852  C 69.5567384129727 73.1545945639852  65.9428599110941 73.7372198515457  65.9428599110941 73.7372198515457  C 65.9428599110941 73.7372198515457  58.2208419530711 70.4296701091063  58.2208419530711 70.4296701091063  C 58.2208419530711 70.4296701091063  55.5704975392973 71.5989249817361  55.5704975392973 71.5989249817361  C 55.5704975392973 71.5989249817361  54.8472213017329 73.2506977042014  54.8472213017329 73.2506977042014  C 54.8472213017329 73.2506977042014  51.2333427998547 74.3198451391062  51.2333427998547 74.3198451391062  C 51.2333427998547 74.3198451391062  50.9930849493143 75.4850957142269  50.9930849493143 75.4850957142269  C 50.9930849493143 75.4850957142269  44.0055857960982 75.4850957142269  44.0055857960982 75.4850957142269  C 44.0055857960982 75.4850957142269  43.0420517079936 74.3198451391062  43.0420517079936 74.3198451391062  C 43.0420517079936 74.3198451391062  37.9816207309868 74.1256367099192  37.9816207309868 74.1256367099192  C 37.9816207309868 74.1256367099192  35.4539079284264 75.094676707099  35.4539079284264 75.094676707099  C 35.4539079284264 75.094676707099  33.524337066274 74.6101567085091  33.524337066274 74.6101567085091  C 33.524337066274 74.6101567085091  29.9104585643958 71.3066112635788  29.9104585643958 71.3066112635788  C 29.9104585643958 71.3066112635788  28.7066666257508 69.7509416813297  28.7066666257508 69.7509416813297  C 28.7066666257508 69.7509416813297  23.6462356487438 70.5277753980772  23.6462356487438 70.5277753980772  C 23.6462356487438 70.5277753980772  21.7191674725347 73.1545945639852  21.7191674725347 73.1545945639852  C 21.7191674725347 73.1545945639852  19.9122282215955 78.2000094253334  19.9122282215955 78.2000094253334  C 19.9122282215955 78.2000094253334  17.5021416583623 79.2651525627291  17.5021416583623 79.2651525627291  C 17.5021416583623 79.2651525627291  15.3498317472713 79.8798122303613  15.3498317472713 79.8798122303613  C 15.3498317472713 79.8798122303613  14.7792193522378 79.6175307435214  14.7792193522378 79.6175307435214  C 14.7792193522378 79.6175307435214  12.3441059295733 77.9917859548649  12.3441059295733 77.9917859548649  C 12.3441059295733 77.9917859548649  11.8961251457534 76.2359014971655  11.8961251457534 76.2359014971655  C 11.8961251457534 76.2359014971655  13.0348472498769 73.8833767106245  13.0348472498769 73.8833767106245  C 13.0348472498769 73.8833767106245  13.014825762332 71.5748991966823  13.014825762332 71.5748991966823  C 13.014825762332 71.5748991966823  8.96798259229234 68.0290937524571  8.96798259229234 68.0290937524571  C 8.96798259229234 68.0290937524571  8.17212846237722 65.5964830157358  8.17212846237722 65.5964830157358  C 8.17212846237722 65.5964830157358  8.25721978444356 64.2190046726375  8.25721978444356 64.2190046726375  C 8.25721978444356 64.2190046726375  5.67695057707769 62.5412040163637  5.67695057707769 62.5412040163637  C 5.67695057707769 62.5412040163637  5.59936731284055 59.2296499764154  5.59936731284055 59.2296499764154  C 5.59936731284055 59.2296499764154  4.12778797828092 57.027286346462  4.12778797828092 57.027286346462  C 4.12778797828092 57.027286346462  1.66514501024184 57.3576408909549  1.66514501024184 57.3576408909549  C 1.66514501024184 57.3576408909549  2.37090244620442 55.2553846987268  2.37090244620442 55.2553846987268  C 2.37090244620442 55.2553846987268  4.19035512685902 52.868823383359  4.19035512685902 52.868823383359  C 4.19035512685902 52.868823383359  3.39450099694411 50.4922728117635  3.39450099694411 50.4922728117635  C 3.39450099694411 50.4922728117635  5.70197743650913 48.7303819078006  5.70197743650913 48.7303819078006  C 5.70197743650913 48.7303819078006  4.2379061597785 47.3849379447747  4.2379061597785 47.3849379447747  C 4.2379061597785 47.3849379447747  6.09239644363697 43.8231153105133  6.09239644363697 43.8231153105133  C 6.09239644363697 43.8231153105133  9.29833713678549 38.1099994551395  9.29833713678549 38.1099994551395  C 9.29833713678549 38.1099994551395  15.3498317472713 38.5164356523039  15.3498317472713 38.5164356523039  C 15.3498317472713 38.5164356523039  15.0019584011763 15.2734907612764  15.0019584011763 15.2734907612764  C 15.0019584011763 15.2734907612764  15.0895524091859 12.7848198594286  15.0895524091859 12.7848198594286  C 15.0895524091859 12.7848198594286  23.1582118898338 12.7668005206383  23.1582118898338 12.7668005206383  C 23.1582118898338 12.7668005206383  23.1582118898338 0.827987497535518  23.1582118898338 0.827987497535518  C 23.1582118898338 0.827987497535518  51.3684878407838 0.827987497535518  51.3684878407838 0.827987497535518  C 51.3684878407838 0.827987497535518  80.4133900342661 0.827987497535518  80.4133900342661 0.827987497535518  C 80.4133900342661 0.827987497535518  108.245760407804 0.827987497535518  108.245760407804 0.827987497535518  C 108.245760407804 0.827987497535518  110.505685814449 6.71430483577503  110.505685814449 6.71430483577503  C 110.505685814449 6.71430483577503  108.969036645368 7.79946946071571  108.969036645368 7.79946946071571  C 108.969036645368 7.79946946071571  109.987629824222 13.9240425007411  109.987629824222 13.9240425007411  C 109.987629824222 13.9240425007411  112.562893659701 20.9796147116103  112.562893659701 20.9796147116103  C 112.562893659701 20.9796147116103  115.238264932906 22.4291704098707  115.238264932906 22.4291704098707  C 115.238264932906 22.4291704098707  119.077385169666 24.599499659752  119.077385169666 24.599499659752  C 119.077385169666 24.599499659752  115.526073816366 27.9430880797726  115.526073816366 27.9430880797726  C 115.526073816366 27.9430880797726  110.358027343805 28.9041194819342  110.358027343805 28.9041194819342  C 110.358027343805 28.9041194819342  108.148155656022 30.69404046846  108.148155656022 30.69404046846  C 108.148155656022 30.69404046846  107.457414335718 34.5641940109146  107.457414335718 34.5641940109146  C 107.457414335718 34.5641940109146  104.434169716418 44.5278716720985  104.434169716418 44.5278716720985  C 104.434169716418 44.5278716720985  105.179970127471 46.8363491860407  105.179970127471 46.8363491860407  C 105.179970127471 46.8363491860407  104.061269510892 51.7736480146457  104.061269510892 51.7736480146457  C 104.061269510892 51.7736480146457  101.208207535725 57.4137010560811  101.208207535725 57.4137010560811  C 101.208207535725 57.4137010560811  96.9761656058939 60.2427372461941  96.9761656058939 60.2427372461941  C 96.9761656058939 60.2427372461941  93.9679371022529 64.5934064897295  93.9679371022529 64.5934064897295  C 93.9679371022529 64.5934064897295  93.2621796662906 66.9179011937079  93.2621796662906 66.9179011937079  C 93.2621796662906 66.9179011937079  89.9386127338155 68.5076073047835  89.9386127338155 68.5076073047835  C 89.9386127338155 68.5076073047835  87.863886086961 74.4359697668674  87.863886086961 74.4359697668674  Z " fill-rule="evenodd" />
    </mask>
  </defs>
  <g transform="matrix(1 0 0 1 -1995 -4216 )">
    <path d="M 87.863886086961 74.4359697668674  C 87.863886086961 74.4359697668674  87.8738968307338 75.1106938971349  87.8738968307338 75.1106938971349  C 87.8738968307338 75.1106938971349  86.9028546847998 74.9985735668829  86.9028546847998 74.9985735668829  C 86.9028546847998 74.9985735668829  87.02298361007 72.1815502692966  87.02298361007 72.1815502692966  C 87.02298361007 72.1815502692966  86.1795784472352 70.2354616799196  86.1795784472352 70.2354616799196  C 86.1795784472352 70.2354616799196  82.5656999453573 67.997059372385  82.5656999453573 67.997059372385  C 82.5656999453573 67.997059372385  81.7222947825229 63.8986608719169  81.7222947825229 63.8986608719169  C 81.7222947825229 63.8986608719169  82.5656999453573 59.6921463387057  82.5656999453573 59.6921463387057  C 82.5656999453573 59.6921463387057  79.3147109052329 59.2997251828231  79.3147109052329 59.2997251828231  C 79.3147109052329 59.2997251828231  78.8316925182087 60.573091790687  78.8316925182087 60.573091790687  C 78.8316925182087 60.573091790687  74.6171693899793 60.8674076575993  74.6171693899793 60.8674076575993  C 74.6171693899793 60.8674076575993  76.3014770297051 62.5311932725913  76.3014770297051 62.5311932725913  C 76.3014770297051 62.5311932725913  76.9046243419995 65.9488611965283  76.9046243419995 65.9488611965283  C 76.9046243419995 65.9488611965283  73.0504879895807 69.0682089560442  73.0504879895807 69.0682089560442  C 73.0504879895807 69.0682089560442  69.5567384129727 73.1545945639852  69.5567384129727 73.1545945639852  C 69.5567384129727 73.1545945639852  65.9428599110941 73.7372198515457  65.9428599110941 73.7372198515457  C 65.9428599110941 73.7372198515457  58.2208419530711 70.4296701091063  58.2208419530711 70.4296701091063  C 58.2208419530711 70.4296701091063  55.5704975392973 71.5989249817361  55.5704975392973 71.5989249817361  C 55.5704975392973 71.5989249817361  54.8472213017329 73.2506977042014  54.8472213017329 73.2506977042014  C 54.8472213017329 73.2506977042014  51.2333427998547 74.3198451391062  51.2333427998547 74.3198451391062  C 51.2333427998547 74.3198451391062  50.9930849493143 75.4850957142269  50.9930849493143 75.4850957142269  C 50.9930849493143 75.4850957142269  44.0055857960982 75.4850957142269  44.0055857960982 75.4850957142269  C 44.0055857960982 75.4850957142269  43.0420517079936 74.3198451391062  43.0420517079936 74.3198451391062  C 43.0420517079936 74.3198451391062  37.9816207309868 74.1256367099192  37.9816207309868 74.1256367099192  C 37.9816207309868 74.1256367099192  35.4539079284264 75.094676707099  35.4539079284264 75.094676707099  C 35.4539079284264 75.094676707099  33.524337066274 74.6101567085091  33.524337066274 74.6101567085091  C 33.524337066274 74.6101567085091  29.9104585643958 71.3066112635788  29.9104585643958 71.3066112635788  C 29.9104585643958 71.3066112635788  28.7066666257508 69.7509416813297  28.7066666257508 69.7509416813297  C 28.7066666257508 69.7509416813297  23.6462356487438 70.5277753980772  23.6462356487438 70.5277753980772  C 23.6462356487438 70.5277753980772  21.7191674725347 73.1545945639852  21.7191674725347 73.1545945639852  C 21.7191674725347 73.1545945639852  19.9122282215955 78.2000094253334  19.9122282215955 78.2000094253334  C 19.9122282215955 78.2000094253334  17.5021416583623 79.2651525627291  17.5021416583623 79.2651525627291  C 17.5021416583623 79.2651525627291  15.3498317472713 79.8798122303613  15.3498317472713 79.8798122303613  C 15.3498317472713 79.8798122303613  14.7792193522378 79.6175307435214  14.7792193522378 79.6175307435214  C 14.7792193522378 79.6175307435214  12.3441059295733 77.9917859548649  12.3441059295733 77.9917859548649  C 12.3441059295733 77.9917859548649  11.8961251457534 76.2359014971655  11.8961251457534 76.2359014971655  C 11.8961251457534 76.2359014971655  13.0348472498769 73.8833767106245  13.0348472498769 73.8833767106245  C 13.0348472498769 73.8833767106245  13.014825762332 71.5748991966823  13.014825762332 71.5748991966823  C 13.014825762332 71.5748991966823  8.96798259229234 68.0290937524571  8.96798259229234 68.0290937524571  C 8.96798259229234 68.0290937524571  8.17212846237722 65.5964830157358  8.17212846237722 65.5964830157358  C 8.17212846237722 65.5964830157358  8.25721978444356 64.2190046726375  8.25721978444356 64.2190046726375  C 8.25721978444356 64.2190046726375  5.67695057707769 62.5412040163637  5.67695057707769 62.5412040163637  C 5.67695057707769 62.5412040163637  5.59936731284055 59.2296499764154  5.59936731284055 59.2296499764154  C 5.59936731284055 59.2296499764154  4.12778797828092 57.027286346462  4.12778797828092 57.027286346462  C 4.12778797828092 57.027286346462  1.66514501024184 57.3576408909549  1.66514501024184 57.3576408909549  C 1.66514501024184 57.3576408909549  2.37090244620442 55.2553846987268  2.37090244620442 55.2553846987268  C 2.37090244620442 55.2553846987268  4.19035512685902 52.868823383359  4.19035512685902 52.868823383359  C 4.19035512685902 52.868823383359  3.39450099694411 50.4922728117635  3.39450099694411 50.4922728117635  C 3.39450099694411 50.4922728117635  5.70197743650913 48.7303819078006  5.70197743650913 48.7303819078006  C 5.70197743650913 48.7303819078006  4.2379061597785 47.3849379447747  4.2379061597785 47.3849379447747  C 4.2379061597785 47.3849379447747  6.09239644363697 43.8231153105133  6.09239644363697 43.8231153105133  C 6.09239644363697 43.8231153105133  9.29833713678549 38.1099994551395  9.29833713678549 38.1099994551395  C 9.29833713678549 38.1099994551395  15.3498317472713 38.5164356523039  15.3498317472713 38.5164356523039  C 15.3498317472713 38.5164356523039  15.0019584011763 15.2734907612764  15.0019584011763 15.2734907612764  C 15.0019584011763 15.2734907612764  15.0895524091859 12.7848198594286  15.0895524091859 12.7848198594286  C 15.0895524091859 12.7848198594286  23.1582118898338 12.7668005206383  23.1582118898338 12.7668005206383  C 23.1582118898338 12.7668005206383  23.1582118898338 0.827987497535518  23.1582118898338 0.827987497535518  C 23.1582118898338 0.827987497535518  51.3684878407838 0.827987497535518  51.3684878407838 0.827987497535518  C 51.3684878407838 0.827987497535518  80.4133900342661 0.827987497535518  80.4133900342661 0.827987497535518  C 80.4133900342661 0.827987497535518  108.245760407804 0.827987497535518  108.245760407804 0.827987497535518  C 108.245760407804 0.827987497535518  110.505685814449 6.71430483577503  110.505685814449 6.71430483577503  C 110.505685814449 6.71430483577503  108.969036645368 7.79946946071571  108.969036645368 7.79946946071571  C 108.969036645368 7.79946946071571  109.987629824222 13.9240425007411  109.987629824222 13.9240425007411  C 109.987629824222 13.9240425007411  112.562893659701 20.9796147116103  112.562893659701 20.9796147116103  C 112.562893659701 20.9796147116103  115.238264932906 22.4291704098707  115.238264932906 22.4291704098707  C 115.238264932906 22.4291704098707  119.077385169666 24.599499659752  119.077385169666 24.599499659752  C 119.077385169666 24.599499659752  115.526073816366 27.9430880797726  115.526073816366 27.9430880797726  C 115.526073816366 27.9430880797726  110.358027343805 28.9041194819342  110.358027343805 28.9041194819342  C 110.358027343805 28.9041194819342  108.148155656022 30.69404046846  108.148155656022 30.69404046846  C 108.148155656022 30.69404046846  107.457414335718 34.5641940109146  107.457414335718 34.5641940109146  C 107.457414335718 34.5641940109146  104.434169716418 44.5278716720985  104.434169716418 44.5278716720985  C 104.434169716418 44.5278716720985  105.179970127471 46.8363491860407  105.179970127471 46.8363491860407  C 105.179970127471 46.8363491860407  104.061269510892 51.7736480146457  104.061269510892 51.7736480146457  C 104.061269510892 51.7736480146457  101.208207535725 57.4137010560811  101.208207535725 57.4137010560811  C 101.208207535725 57.4137010560811  96.9761656058939 60.2427372461941  96.9761656058939 60.2427372461941  C 96.9761656058939 60.2427372461941  93.9679371022529 64.5934064897295  93.9679371022529 64.5934064897295  C 93.9679371022529 64.5934064897295  93.2621796662906 66.9179011937079  93.2621796662906 66.9179011937079  C 93.2621796662906 66.9179011937079  89.9386127338155 68.5076073047835  89.9386127338155 68.5076073047835  C 89.9386127338155 68.5076073047835  87.863886086961 74.4359697668674  87.863886086961 74.4359697668674  Z " fill-rule="nonzero" fill="#f2f2f2" stroke="none" transform="matrix(1 0 0 1 1995 4216 )" />
    <path d="M 87.863886086961 74.4359697668674  C 87.863886086961 74.4359697668674  87.8738968307338 75.1106938971349  87.8738968307338 75.1106938971349  C 87.8738968307338 75.1106938971349  86.9028546847998 74.9985735668829  86.9028546847998 74.9985735668829  C 86.9028546847998 74.9985735668829  87.02298361007 72.1815502692966  87.02298361007 72.1815502692966  C 87.02298361007 72.1815502692966  86.1795784472352 70.2354616799196  86.1795784472352 70.2354616799196  C 86.1795784472352 70.2354616799196  82.5656999453573 67.997059372385  82.5656999453573 67.997059372385  C 82.5656999453573 67.997059372385  81.7222947825229 63.8986608719169  81.7222947825229 63.8986608719169  C 81.7222947825229 63.8986608719169  82.5656999453573 59.6921463387057  82.5656999453573 59.6921463387057  C 82.5656999453573 59.6921463387057  79.3147109052329 59.2997251828231  79.3147109052329 59.2997251828231  C 79.3147109052329 59.2997251828231  78.8316925182087 60.573091790687  78.8316925182087 60.573091790687  C 78.8316925182087 60.573091790687  74.6171693899793 60.8674076575993  74.6171693899793 60.8674076575993  C 74.6171693899793 60.8674076575993  76.3014770297051 62.5311932725913  76.3014770297051 62.5311932725913  C 76.3014770297051 62.5311932725913  76.9046243419995 65.9488611965283  76.9046243419995 65.9488611965283  C 76.9046243419995 65.9488611965283  73.0504879895807 69.0682089560442  73.0504879895807 69.0682089560442  C 73.0504879895807 69.0682089560442  69.5567384129727 73.1545945639852  69.5567384129727 73.1545945639852  C 69.5567384129727 73.1545945639852  65.9428599110941 73.7372198515457  65.9428599110941 73.7372198515457  C 65.9428599110941 73.7372198515457  58.2208419530711 70.4296701091063  58.2208419530711 70.4296701091063  C 58.2208419530711 70.4296701091063  55.5704975392973 71.5989249817361  55.5704975392973 71.5989249817361  C 55.5704975392973 71.5989249817361  54.8472213017329 73.2506977042014  54.8472213017329 73.2506977042014  C 54.8472213017329 73.2506977042014  51.2333427998547 74.3198451391062  51.2333427998547 74.3198451391062  C 51.2333427998547 74.3198451391062  50.9930849493143 75.4850957142269  50.9930849493143 75.4850957142269  C 50.9930849493143 75.4850957142269  44.0055857960982 75.4850957142269  44.0055857960982 75.4850957142269  C 44.0055857960982 75.4850957142269  43.0420517079936 74.3198451391062  43.0420517079936 74.3198451391062  C 43.0420517079936 74.3198451391062  37.9816207309868 74.1256367099192  37.9816207309868 74.1256367099192  C 37.9816207309868 74.1256367099192  35.4539079284264 75.094676707099  35.4539079284264 75.094676707099  C 35.4539079284264 75.094676707099  33.524337066274 74.6101567085091  33.524337066274 74.6101567085091  C 33.524337066274 74.6101567085091  29.9104585643958 71.3066112635788  29.9104585643958 71.3066112635788  C 29.9104585643958 71.3066112635788  28.7066666257508 69.7509416813297  28.7066666257508 69.7509416813297  C 28.7066666257508 69.7509416813297  23.6462356487438 70.5277753980772  23.6462356487438 70.5277753980772  C 23.6462356487438 70.5277753980772  21.7191674725347 73.1545945639852  21.7191674725347 73.1545945639852  C 21.7191674725347 73.1545945639852  19.9122282215955 78.2000094253334  19.9122282215955 78.2000094253334  C 19.9122282215955 78.2000094253334  17.5021416583623 79.2651525627291  17.5021416583623 79.2651525627291  C 17.5021416583623 79.2651525627291  15.3498317472713 79.8798122303613  15.3498317472713 79.8798122303613  C 15.3498317472713 79.8798122303613  14.7792193522378 79.6175307435214  14.7792193522378 79.6175307435214  C 14.7792193522378 79.6175307435214  12.3441059295733 77.9917859548649  12.3441059295733 77.9917859548649  C 12.3441059295733 77.9917859548649  11.8961251457534 76.2359014971655  11.8961251457534 76.2359014971655  C 11.8961251457534 76.2359014971655  13.0348472498769 73.8833767106245  13.0348472498769 73.8833767106245  C 13.0348472498769 73.8833767106245  13.014825762332 71.5748991966823  13.014825762332 71.5748991966823  C 13.014825762332 71.5748991966823  8.96798259229234 68.0290937524571  8.96798259229234 68.0290937524571  C 8.96798259229234 68.0290937524571  8.17212846237722 65.5964830157358  8.17212846237722 65.5964830157358  C 8.17212846237722 65.5964830157358  8.25721978444356 64.2190046726375  8.25721978444356 64.2190046726375  C 8.25721978444356 64.2190046726375  5.67695057707769 62.5412040163637  5.67695057707769 62.5412040163637  C 5.67695057707769 62.5412040163637  5.59936731284055 59.2296499764154  5.59936731284055 59.2296499764154  C 5.59936731284055 59.2296499764154  4.12778797828092 57.027286346462  4.12778797828092 57.027286346462  C 4.12778797828092 57.027286346462  1.66514501024184 57.3576408909549  1.66514501024184 57.3576408909549  C 1.66514501024184 57.3576408909549  2.37090244620442 55.2553846987268  2.37090244620442 55.2553846987268  C 2.37090244620442 55.2553846987268  4.19035512685902 52.868823383359  4.19035512685902 52.868823383359  C 4.19035512685902 52.868823383359  3.39450099694411 50.4922728117635  3.39450099694411 50.4922728117635  C 3.39450099694411 50.4922728117635  5.70197743650913 48.7303819078006  5.70197743650913 48.7303819078006  C 5.70197743650913 48.7303819078006  4.2379061597785 47.3849379447747  4.2379061597785 47.3849379447747  C 4.2379061597785 47.3849379447747  6.09239644363697 43.8231153105133  6.09239644363697 43.8231153105133  C 6.09239644363697 43.8231153105133  9.29833713678549 38.1099994551395  9.29833713678549 38.1099994551395  C 9.29833713678549 38.1099994551395  15.3498317472713 38.5164356523039  15.3498317472713 38.5164356523039  C 15.3498317472713 38.5164356523039  15.0019584011763 15.2734907612764  15.0019584011763 15.2734907612764  C 15.0019584011763 15.2734907612764  15.0895524091859 12.7848198594286  15.0895524091859 12.7848198594286  C 15.0895524091859 12.7848198594286  23.1582118898338 12.7668005206383  23.1582118898338 12.7668005206383  C 23.1582118898338 12.7668005206383  23.1582118898338 0.827987497535518  23.1582118898338 0.827987497535518  C 23.1582118898338 0.827987497535518  51.3684878407838 0.827987497535518  51.3684878407838 0.827987497535518  C 51.3684878407838 0.827987497535518  80.4133900342661 0.827987497535518  80.4133900342661 0.827987497535518  C 80.4133900342661 0.827987497535518  108.245760407804 0.827987497535518  108.245760407804 0.827987497535518  C 108.245760407804 0.827987497535518  110.505685814449 6.71430483577503  110.505685814449 6.71430483577503  C 110.505685814449 6.71430483577503  108.969036645368 7.79946946071571  108.969036645368 7.79946946071571  C 108.969036645368 7.79946946071571  109.987629824222 13.9240425007411  109.987629824222 13.9240425007411  C 109.987629824222 13.9240425007411  112.562893659701 20.9796147116103  112.562893659701 20.9796147116103  C 112.562893659701 20.9796147116103  115.238264932906 22.4291704098707  115.238264932906 22.4291704098707  C 115.238264932906 22.4291704098707  119.077385169666 24.599499659752  119.077385169666 24.599499659752  C 119.077385169666 24.599499659752  115.526073816366 27.9430880797726  115.526073816366 27.9430880797726  C 115.526073816366 27.9430880797726  110.358027343805 28.9041194819342  110.358027343805 28.9041194819342  C 110.358027343805 28.9041194819342  108.148155656022 30.69404046846  108.148155656022 30.69404046846  C 108.148155656022 30.69404046846  107.457414335718 34.5641940109146  107.457414335718 34.5641940109146  C 107.457414335718 34.5641940109146  104.434169716418 44.5278716720985  104.434169716418 44.5278716720985  C 104.434169716418 44.5278716720985  105.179970127471 46.8363491860407  105.179970127471 46.8363491860407  C 105.179970127471 46.8363491860407  104.061269510892 51.7736480146457  104.061269510892 51.7736480146457  C 104.061269510892 51.7736480146457  101.208207535725 57.4137010560811  101.208207535725 57.4137010560811  C 101.208207535725 57.4137010560811  96.9761656058939 60.2427372461941  96.9761656058939 60.2427372461941  C 96.9761656058939 60.2427372461941  93.9679371022529 64.5934064897295  93.9679371022529 64.5934064897295  C 93.9679371022529 64.5934064897295  93.2621796662906 66.9179011937079  93.2621796662906 66.9179011937079  C 93.2621796662906 66.9179011937079  89.9386127338155 68.5076073047835  89.9386127338155 68.5076073047835  C 89.9386127338155 68.5076073047835  87.863886086961 74.4359697668674  87.863886086961 74.4359697668674  Z " stroke-width="2" stroke="#505050" fill="none" stroke-opacity="0.211764705882353" transform="matrix(1 0 0 1 1995 4216 )" mask="url(#clip206)" />
  </g>
</svg>