<?xml version="1.0" encoding="utf-8"?>
<svg version="1.1" xmlns:xlink="http://www.w3.org/1999/xlink" width="38px" height="24px" xmlns="http://www.w3.org/2000/svg">
  <defs>
    <mask fill="white" id="clip33">
      <path d="M 0.885909311321439 14.3595580067142  C 0.885909311321439 14.3595580067142  0.606071482590642 12.987615016055  0.606071482590642 12.987615016055  C 0.606071482590642 12.987615016055  1.91110958106508 11.2863042682345  1.91110958106508 11.2863042682345  C 1.91110958106508 11.2863042682345  2.18310148936414 14.326522552265  2.18310148936414 14.326522552265  C 2.18310148936414 14.326522552265  7.92108463175437 13.3918135175524  7.92108463175437 13.3918135175524  C 7.92108463175437 13.3918135175524  13.9859811254658 13.5453312176401  13.9859811254658 13.5453312176401  C 13.9859811254658 13.5453312176401  20.3163108625712 13.7221680620454  20.3163108625712 13.7221680620454  C 20.3163108625712 13.7221680620454  25.3376999388655 8.28396443740091  25.3376999388655 8.28396443740091  C 25.3376999388655 8.28396443740091  30.8063064797667 4.44796519722898  30.8063064797667 4.44796519722898  C 30.8063064797667 4.44796519722898  35.4406301480963 0.74022125080153  35.4406301480963 0.74022125080153  C 35.4406301480963 0.74022125080153  36.8372039849407 2.79230595071096  36.8372039849407 2.79230595071096  C 36.8372039849407 2.79230595071096  37.8336358797674 7.52803550911995  37.8336358797674 7.52803550911995  C 37.8336358797674 7.52803550911995  34.085901220221 7.55135465343718  34.085901220221 7.55135465343718  C 34.085901220221 7.55135465343718  33.4869959606007 12.8438136260993  33.4869959606007 12.8438136260993  C 33.4869959606007 12.8438136260993  34.7841881386434 13.6696999873316  34.7841881386434 13.6696999873316  C 34.7841881386434 13.6696999873316  31.4653637960304 14.837600465216  31.4653637960304 14.837600465216  C 31.4653637960304 14.837600465216  31.4444413415456 17.2569616881206  31.4444413415456 17.2569616881206  C 31.4444413415456 17.2569616881206  29.3077356773101 19.6976987933164  29.3077356773101 19.6976987933164  C 29.3077356773101 19.6976987933164  29.1168182801384 22.0665352035339  29.1168182801384 22.0665352035339  C 29.1168182801384 22.0665352035339  27.6391699321666 23.306336376396  27.6391699321666 23.306336376396  C 27.6391699321666 23.306336376396  3.69736413268417 20.3448050481172  3.69736413268417 20.3448050481172  C 3.69736413268417 20.3448050481172  0.885909311321439 14.3595580067142  0.885909311321439 14.3595580067142  Z " fill-rule="evenodd" />
    </mask>
  </defs>
  <g transform="matrix(1 0 0 1 -2205 -4192 )">
    <path d="M 0.885909311321439 14.3595580067142  C 0.885909311321439 14.3595580067142  0.606071482590642 12.987615016055  0.606071482590642 12.987615016055  C 0.606071482590642 12.987615016055  1.91110958106508 11.2863042682345  1.91110958106508 11.2863042682345  C 1.91110958106508 11.2863042682345  2.18310148936414 14.326522552265  2.18310148936414 14.326522552265  C 2.18310148936414 14.326522552265  7.92108463175437 13.3918135175524  7.92108463175437 13.3918135175524  C 7.92108463175437 13.3918135175524  13.9859811254658 13.5453312176401  13.9859811254658 13.5453312176401  C 13.9859811254658 13.5453312176401  20.3163108625712 13.7221680620454  20.3163108625712 13.7221680620454  C 20.3163108625712 13.7221680620454  25.3376999388655 8.28396443740091  25.3376999388655 8.28396443740091  C 25.3376999388655 8.28396443740091  30.8063064797667 4.44796519722898  30.8063064797667 4.44796519722898  C 30.8063064797667 4.44796519722898  35.4406301480963 0.74022125080153  35.4406301480963 0.74022125080153  C 35.4406301480963 0.74022125080153  36.8372039849407 2.79230595071096  36.8372039849407 2.79230595071096  C 36.8372039849407 2.79230595071096  37.8336358797674 7.52803550911995  37.8336358797674 7.52803550911995  C 37.8336358797674 7.52803550911995  34.085901220221 7.55135465343718  34.085901220221 7.55135465343718  C 34.085901220221 7.55135465343718  33.4869959606007 12.8438136260993  33.4869959606007 12.8438136260993  C 33.4869959606007 12.8438136260993  34.7841881386434 13.6696999873316  34.7841881386434 13.6696999873316  C 34.7841881386434 13.6696999873316  31.4653637960304 14.837600465216  31.4653637960304 14.837600465216  C 31.4653637960304 14.837600465216  31.4444413415456 17.2569616881206  31.4444413415456 17.2569616881206  C 31.4444413415456 17.2569616881206  29.3077356773101 19.6976987933164  29.3077356773101 19.6976987933164  C 29.3077356773101 19.6976987933164  29.1168182801384 22.0665352035339  29.1168182801384 22.0665352035339  C 29.1168182801384 22.0665352035339  27.6391699321666 23.306336376396  27.6391699321666 23.306336376396  C 27.6391699321666 23.306336376396  3.69736413268417 20.3448050481172  3.69736413268417 20.3448050481172  C 3.69736413268417 20.3448050481172  0.885909311321439 14.3595580067142  0.885909311321439 14.3595580067142  Z " fill-rule="nonzero" fill="#f2f2f2" stroke="none" transform="matrix(1 0 0 1 2205 4192 )" />
    <path d="M 0.885909311321439 14.3595580067142  C 0.885909311321439 14.3595580067142  0.606071482590642 12.987615016055  0.606071482590642 12.987615016055  C 0.606071482590642 12.987615016055  1.91110958106508 11.2863042682345  1.91110958106508 11.2863042682345  C 1.91110958106508 11.2863042682345  2.18310148936414 14.326522552265  2.18310148936414 14.326522552265  C 2.18310148936414 14.326522552265  7.92108463175437 13.3918135175524  7.92108463175437 13.3918135175524  C 7.92108463175437 13.3918135175524  13.9859811254658 13.5453312176401  13.9859811254658 13.5453312176401  C 13.9859811254658 13.5453312176401  20.3163108625712 13.7221680620454  20.3163108625712 13.7221680620454  C 20.3163108625712 13.7221680620454  25.3376999388655 8.28396443740091  25.3376999388655 8.28396443740091  C 25.3376999388655 8.28396443740091  30.8063064797667 4.44796519722898  30.8063064797667 4.44796519722898  C 30.8063064797667 4.44796519722898  35.4406301480963 0.74022125080153  35.4406301480963 0.74022125080153  C 35.4406301480963 0.74022125080153  36.8372039849407 2.79230595071096  36.8372039849407 2.79230595071096  C 36.8372039849407 2.79230595071096  37.8336358797674 7.52803550911995  37.8336358797674 7.52803550911995  C 37.8336358797674 7.52803550911995  34.085901220221 7.55135465343718  34.085901220221 7.55135465343718  C 34.085901220221 7.55135465343718  33.4869959606007 12.8438136260993  33.4869959606007 12.8438136260993  C 33.4869959606007 12.8438136260993  34.7841881386434 13.6696999873316  34.7841881386434 13.6696999873316  C 34.7841881386434 13.6696999873316  31.4653637960304 14.837600465216  31.4653637960304 14.837600465216  C 31.4653637960304 14.837600465216  31.4444413415456 17.2569616881206  31.4444413415456 17.2569616881206  C 31.4444413415456 17.2569616881206  29.3077356773101 19.6976987933164  29.3077356773101 19.6976987933164  C 29.3077356773101 19.6976987933164  29.1168182801384 22.0665352035339  29.1168182801384 22.0665352035339  C 29.1168182801384 22.0665352035339  27.6391699321666 23.306336376396  27.6391699321666 23.306336376396  C 27.6391699321666 23.306336376396  3.69736413268417 20.3448050481172  3.69736413268417 20.3448050481172  C 3.69736413268417 20.3448050481172  0.885909311321439 14.3595580067142  0.885909311321439 14.3595580067142  Z " stroke-width="2" stroke="#505050" fill="none" stroke-opacity="0.211764705882353" transform="matrix(1 0 0 1 2205 4192 )" mask="url(#clip33)" />
  </g>
</svg>