<?xml version="1.0" encoding="utf-8"?>
<svg version="1.1" xmlns:xlink="http://www.w3.org/1999/xlink" width="96px" height="170px" xmlns="http://www.w3.org/2000/svg">
  <defs>
    <mask fill="white" id="clip207">
      <path d="M 95.0849518857079 46.0274657645284  C 95.0849518857079 46.0274657645284  82.8287982850167 49.8746030799874  82.8287982850167 49.8746030799874  C 82.8287982850167 49.8746030799874  75.9193059275047 59.1751566931333  75.9193059275047 59.1751566931333  C 75.9193059275047 59.1751566931333  77.0323466235658 67.1391275482279  77.0323466235658 67.1391275482279  C 77.0323466235658 67.1391275482279  65.6986445586514 77.3300753132507  65.6986445586514 77.3300753132507  C 65.6986445586514 77.3300753132507  51.9381071861145 89.3563300782804  51.9381071861145 89.3563300782804  C 51.9381071861145 89.3563300782804  44.9053869914202 106.037834767786  44.9053869914202 106.037834767786  C 44.9053869914202 106.037834767786  51.8237536899441 114.102941706947  51.8237536899441 114.102941706947  C 51.8237536899441 114.102941706947  58.6366808729119 120.32975158867  58.6366808729119 120.32975158867  C 58.6366808729119 120.32975158867  52.0905785143424 132.676286086632  52.0905785143424 132.676286086632  C 52.0905785143424 132.676286086632  42.8343181163292 135.184857583568  42.8343181163292 135.184857583568  C 42.8343181163292 135.184857583568  40.1177872850751 152.711146034098  40.1177872850751 152.711146034098  C 40.1177872850751 152.711146034098  36.0696735206337 162.146547759332  36.0696735206337 162.146547759332  C 36.0696735206337 162.146547759332  27.4270903989352 161.184763430467  27.4270903989352 161.184763430467  C 27.4270903989352 161.184763430467  23.3942237673164 169.015869233945  23.3942237673164 169.015869233945  C 23.3942237673164 169.015869233945  15.1455249102061 169.464040900592  15.1455249102061 169.464040900592  C 15.1455249102061 169.464040900592  12.8813256860268 160.123826078008  12.8813256860268 160.123826078008  C 12.8813256860268 160.123826078008  6.91715556352602 148.600261675878  6.91715556352602 148.600261675878  C 6.91715556352602 148.600261675878  1.49679984503648 133.72532507626  1.49679984503648 133.72532507626  C 1.49679984503648 133.72532507626  4.63770920652412 127.488599892178  4.63770920652412 127.488599892178  C 4.63770920652412 127.488599892178  10.566302685772 119.929173373349  10.566302685772 119.929173373349  C 10.566302685772 119.929173373349  12.9245258956914 106.589125578971  12.9245258956914 106.589125578971  C 12.9245258956914 106.589125578971  8.37071555929533 100.683571493694  8.37071555929533 100.683571493694  C 8.37071555929533 100.683571493694  7.93363108504288 83.2911550917403  7.93363108504288 83.2911550917403  C 7.93363108504288 83.2911550917403  12.5585947079452 71.5791999447809  12.5585947079452 71.5791999447809  C 12.5585947079452 71.5791999447809  19.6281819600961 71.7953535362165  19.6281819600961 71.7953535362165  C 19.6281819600961 71.7953535362165  22.1058410437937 66.7306170910194  22.1058410437937 66.7306170910194  C 22.1058410437937 66.7306170910194  19.5112872751214 62.3044261177696  19.5112872751214 62.3044261177696  C 19.5112872751214 62.3044261177696  30.5756233268342 43.4653516348515  30.5756233268342 43.4653516348515  C 30.5756233268342 43.4653516348515  37.7011167326683 27.8646149025235  37.7011167326683 27.8646149025235  C 37.7011167326683 27.8646149025235  42.4073983972921 17.4674288484246  42.4073983972921 17.4674288484246  C 42.4073983972921 17.4674288484246  51.0944325032555 17.5170053602218  51.0944325032555 17.5170053602218  C 51.0944325032555 17.5170053602218  52.9799945956697 9.1544393502781  52.9799945956697 9.1544393502781  C 52.9799945956697 9.1544393502781  66.4076362349094 11.5817053678667  66.4076362349094 11.5817053678667  C 66.4076362349094 11.5817053678667  67.4546060220717 1.50379204974146  67.4546060220717 1.50379204974146  C 67.4546060220717 1.50379204974146  71.873733351867 0.863263517322267  71.873733351867 0.863263517322267  C 71.873733351867 0.863263517322267  81.3701559116395 8.40285943143319  81.3701559116395 8.40285943143319  C 81.3701559116395 8.40285943143319  92.4929393058397 18.6215700430624  92.4929393058397 18.6215700430624  C 92.4929393058397 18.6215700430624  92.6809872773201 40.6732024904359  92.6809872773201 40.6732024904359  C 92.6809872773201 40.6732024904359  95.0849518857079 46.0274657645284  95.0849518857079 46.0274657645284  Z " fill-rule="evenodd" />
    </mask>
  </defs>
  <g transform="matrix(1 0 0 1 -1916 -3804 )">
    <path d="M 95.0849518857079 46.0274657645284  C 95.0849518857079 46.0274657645284  82.8287982850167 49.8746030799874  82.8287982850167 49.8746030799874  C 82.8287982850167 49.8746030799874  75.9193059275047 59.1751566931333  75.9193059275047 59.1751566931333  C 75.9193059275047 59.1751566931333  77.0323466235658 67.1391275482279  77.0323466235658 67.1391275482279  C 77.0323466235658 67.1391275482279  65.6986445586514 77.3300753132507  65.6986445586514 77.3300753132507  C 65.6986445586514 77.3300753132507  51.9381071861145 89.3563300782804  51.9381071861145 89.3563300782804  C 51.9381071861145 89.3563300782804  44.9053869914202 106.037834767786  44.9053869914202 106.037834767786  C 44.9053869914202 106.037834767786  51.8237536899441 114.102941706947  51.8237536899441 114.102941706947  C 51.8237536899441 114.102941706947  58.6366808729119 120.32975158867  58.6366808729119 120.32975158867  C 58.6366808729119 120.32975158867  52.0905785143424 132.676286086632  52.0905785143424 132.676286086632  C 52.0905785143424 132.676286086632  42.8343181163292 135.184857583568  42.8343181163292 135.184857583568  C 42.8343181163292 135.184857583568  40.1177872850751 152.711146034098  40.1177872850751 152.711146034098  C 40.1177872850751 152.711146034098  36.0696735206337 162.146547759332  36.0696735206337 162.146547759332  C 36.0696735206337 162.146547759332  27.4270903989352 161.184763430467  27.4270903989352 161.184763430467  C 27.4270903989352 161.184763430467  23.3942237673164 169.015869233945  23.3942237673164 169.015869233945  C 23.3942237673164 169.015869233945  15.1455249102061 169.464040900592  15.1455249102061 169.464040900592  C 15.1455249102061 169.464040900592  12.8813256860268 160.123826078008  12.8813256860268 160.123826078008  C 12.8813256860268 160.123826078008  6.91715556352602 148.600261675878  6.91715556352602 148.600261675878  C 6.91715556352602 148.600261675878  1.49679984503648 133.72532507626  1.49679984503648 133.72532507626  C 1.49679984503648 133.72532507626  4.63770920652412 127.488599892178  4.63770920652412 127.488599892178  C 4.63770920652412 127.488599892178  10.566302685772 119.929173373349  10.566302685772 119.929173373349  C 10.566302685772 119.929173373349  12.9245258956914 106.589125578971  12.9245258956914 106.589125578971  C 12.9245258956914 106.589125578971  8.37071555929533 100.683571493694  8.37071555929533 100.683571493694  C 8.37071555929533 100.683571493694  7.93363108504288 83.2911550917403  7.93363108504288 83.2911550917403  C 7.93363108504288 83.2911550917403  12.5585947079452 71.5791999447809  12.5585947079452 71.5791999447809  C 12.5585947079452 71.5791999447809  19.6281819600961 71.7953535362165  19.6281819600961 71.7953535362165  C 19.6281819600961 71.7953535362165  22.1058410437937 66.7306170910194  22.1058410437937 66.7306170910194  C 22.1058410437937 66.7306170910194  19.5112872751214 62.3044261177696  19.5112872751214 62.3044261177696  C 19.5112872751214 62.3044261177696  30.5756233268342 43.4653516348515  30.5756233268342 43.4653516348515  C 30.5756233268342 43.4653516348515  37.7011167326683 27.8646149025235  37.7011167326683 27.8646149025235  C 37.7011167326683 27.8646149025235  42.4073983972921 17.4674288484246  42.4073983972921 17.4674288484246  C 42.4073983972921 17.4674288484246  51.0944325032555 17.5170053602218  51.0944325032555 17.5170053602218  C 51.0944325032555 17.5170053602218  52.9799945956697 9.1544393502781  52.9799945956697 9.1544393502781  C 52.9799945956697 9.1544393502781  66.4076362349094 11.5817053678667  66.4076362349094 11.5817053678667  C 66.4076362349094 11.5817053678667  67.4546060220717 1.50379204974146  67.4546060220717 1.50379204974146  C 67.4546060220717 1.50379204974146  71.873733351867 0.863263517322267  71.873733351867 0.863263517322267  C 71.873733351867 0.863263517322267  81.3701559116395 8.40285943143319  81.3701559116395 8.40285943143319  C 81.3701559116395 8.40285943143319  92.4929393058397 18.6215700430624  92.4929393058397 18.6215700430624  C 92.4929393058397 18.6215700430624  92.6809872773201 40.6732024904359  92.6809872773201 40.6732024904359  C 92.6809872773201 40.6732024904359  95.0849518857079 46.0274657645284  95.0849518857079 46.0274657645284  Z " fill-rule="nonzero" fill="#a29bfe" stroke="none" transform="matrix(1 0 0 1 1916 3804 )" />
    <path d="M 95.0849518857079 46.0274657645284  C 95.0849518857079 46.0274657645284  82.8287982850167 49.8746030799874  82.8287982850167 49.8746030799874  C 82.8287982850167 49.8746030799874  75.9193059275047 59.1751566931333  75.9193059275047 59.1751566931333  C 75.9193059275047 59.1751566931333  77.0323466235658 67.1391275482279  77.0323466235658 67.1391275482279  C 77.0323466235658 67.1391275482279  65.6986445586514 77.3300753132507  65.6986445586514 77.3300753132507  C 65.6986445586514 77.3300753132507  51.9381071861145 89.3563300782804  51.9381071861145 89.3563300782804  C 51.9381071861145 89.3563300782804  44.9053869914202 106.037834767786  44.9053869914202 106.037834767786  C 44.9053869914202 106.037834767786  51.8237536899441 114.102941706947  51.8237536899441 114.102941706947  C 51.8237536899441 114.102941706947  58.6366808729119 120.32975158867  58.6366808729119 120.32975158867  C 58.6366808729119 120.32975158867  52.0905785143424 132.676286086632  52.0905785143424 132.676286086632  C 52.0905785143424 132.676286086632  42.8343181163292 135.184857583568  42.8343181163292 135.184857583568  C 42.8343181163292 135.184857583568  40.1177872850751 152.711146034098  40.1177872850751 152.711146034098  C 40.1177872850751 152.711146034098  36.0696735206337 162.146547759332  36.0696735206337 162.146547759332  C 36.0696735206337 162.146547759332  27.4270903989352 161.184763430467  27.4270903989352 161.184763430467  C 27.4270903989352 161.184763430467  23.3942237673164 169.015869233945  23.3942237673164 169.015869233945  C 23.3942237673164 169.015869233945  15.1455249102061 169.464040900592  15.1455249102061 169.464040900592  C 15.1455249102061 169.464040900592  12.8813256860268 160.123826078008  12.8813256860268 160.123826078008  C 12.8813256860268 160.123826078008  6.91715556352602 148.600261675878  6.91715556352602 148.600261675878  C 6.91715556352602 148.600261675878  1.49679984503648 133.72532507626  1.49679984503648 133.72532507626  C 1.49679984503648 133.72532507626  4.63770920652412 127.488599892178  4.63770920652412 127.488599892178  C 4.63770920652412 127.488599892178  10.566302685772 119.929173373349  10.566302685772 119.929173373349  C 10.566302685772 119.929173373349  12.9245258956914 106.589125578971  12.9245258956914 106.589125578971  C 12.9245258956914 106.589125578971  8.37071555929533 100.683571493694  8.37071555929533 100.683571493694  C 8.37071555929533 100.683571493694  7.93363108504288 83.2911550917403  7.93363108504288 83.2911550917403  C 7.93363108504288 83.2911550917403  12.5585947079452 71.5791999447809  12.5585947079452 71.5791999447809  C 12.5585947079452 71.5791999447809  19.6281819600961 71.7953535362165  19.6281819600961 71.7953535362165  C 19.6281819600961 71.7953535362165  22.1058410437937 66.7306170910194  22.1058410437937 66.7306170910194  C 22.1058410437937 66.7306170910194  19.5112872751214 62.3044261177696  19.5112872751214 62.3044261177696  C 19.5112872751214 62.3044261177696  30.5756233268342 43.4653516348515  30.5756233268342 43.4653516348515  C 30.5756233268342 43.4653516348515  37.7011167326683 27.8646149025235  37.7011167326683 27.8646149025235  C 37.7011167326683 27.8646149025235  42.4073983972921 17.4674288484246  42.4073983972921 17.4674288484246  C 42.4073983972921 17.4674288484246  51.0944325032555 17.5170053602218  51.0944325032555 17.5170053602218  C 51.0944325032555 17.5170053602218  52.9799945956697 9.1544393502781  52.9799945956697 9.1544393502781  C 52.9799945956697 9.1544393502781  66.4076362349094 11.5817053678667  66.4076362349094 11.5817053678667  C 66.4076362349094 11.5817053678667  67.4546060220717 1.50379204974146  67.4546060220717 1.50379204974146  C 67.4546060220717 1.50379204974146  71.873733351867 0.863263517322267  71.873733351867 0.863263517322267  C 71.873733351867 0.863263517322267  81.3701559116395 8.40285943143319  81.3701559116395 8.40285943143319  C 81.3701559116395 8.40285943143319  92.4929393058397 18.6215700430624  92.4929393058397 18.6215700430624  C 92.4929393058397 18.6215700430624  92.6809872773201 40.6732024904359  92.6809872773201 40.6732024904359  C 92.6809872773201 40.6732024904359  95.0849518857079 46.0274657645284  95.0849518857079 46.0274657645284  Z " stroke-width="2" stroke="#505050" fill="none" stroke-opacity="0.211764705882353" transform="matrix(1 0 0 1 1916 3804 )" mask="url(#clip207)" />
  </g>
</svg>