<?xml version="1.0" encoding="utf-8"?>
<svg version="1.1" xmlns:xlink="http://www.w3.org/1999/xlink" width="24px" height="14px" xmlns="http://www.w3.org/2000/svg">
  <defs>
    <mask fill="white" id="clip211">
      <path d="M 0.220070488946126 9.3214625401033  C 0.220070488946126 9.3214625401033  0.990050696495438 4.08466980127059  0.990050696495438 4.08466980127059  C 0.990050696495438 4.08466980127059  6.87544396607875 4.68976920860024  6.87544396607875 4.68976920860024  C 6.87544396607875 4.68976920860024  12.3173799695994 2.91301235013533  12.3173799695994 2.91301235013533  C 12.3173799695994 2.91301235013533  18.5483749164987 2.7183784643382  18.5483749164987 2.7183784643382  C 18.5483749164987 2.7183784643382  19.9079109265277 1.39062849092991  19.9079109265277 1.39062849092991  C 19.9079109265277 1.39062849092991  21.104810853114 1.47734655885931  21.104810853114 1.47734655885931  C 21.104810853114 1.47734655885931  22.4897587511806 4.12706530114716  22.4897587511806 4.12706530114716  C 22.4897587511806 4.12706530114716  16.8178253411158 6.20059065874845  16.8178253411158 6.20059065874845  C 16.8178253411158 6.20059065874845  16.1240807976805 10.7359305814409  16.1240807976805 10.7359305814409  C 16.1240807976805 10.7359305814409  13.6489629027866 11.5260285336867  13.6489629027866 11.5260285336867  C 13.6489629027866 11.5260285336867  13.6743747908247 13.6766366183363  13.6743747908247 13.6766366183363  C 13.6743747908247 13.6766366183363  9.0329132604986 13.5282523687682  9.0329132604986 13.5282523687682  C 9.0329132604986 13.5282523687682  6.60861914168044 12.2718039178797  6.60861914168044 12.2718039178797  C 6.60861914168044 12.2718039178797  5.30498928533514 13.5706478686448  5.30498928533514 13.5706478686448  C 5.30498928533514 13.5706478686448  0.339506362724303 13.3085665966804  0.339506362724303 13.3085665966804  C 0.339506362724303 13.3085665966804  1.92520817629093 12.6109679168926  1.92520817629093 12.6109679168926  C 1.92520817629093 12.6109679168926  0.220070488946126 9.3214625401033  0.220070488946126 9.3214625401033  Z " fill-rule="evenodd" />
    </mask>
  </defs>
  <g transform="matrix(1 0 0 1 -1937 -4046 )">
    <path d="M 0.220070488946126 9.3214625401033  C 0.220070488946126 9.3214625401033  0.990050696495438 4.08466980127059  0.990050696495438 4.08466980127059  C 0.990050696495438 4.08466980127059  6.87544396607875 4.68976920860024  6.87544396607875 4.68976920860024  C 6.87544396607875 4.68976920860024  12.3173799695994 2.91301235013533  12.3173799695994 2.91301235013533  C 12.3173799695994 2.91301235013533  18.5483749164987 2.7183784643382  18.5483749164987 2.7183784643382  C 18.5483749164987 2.7183784643382  19.9079109265277 1.39062849092991  19.9079109265277 1.39062849092991  C 19.9079109265277 1.39062849092991  21.104810853114 1.47734655885931  21.104810853114 1.47734655885931  C 21.104810853114 1.47734655885931  22.4897587511806 4.12706530114716  22.4897587511806 4.12706530114716  C 22.4897587511806 4.12706530114716  16.8178253411158 6.20059065874845  16.8178253411158 6.20059065874845  C 16.8178253411158 6.20059065874845  16.1240807976805 10.7359305814409  16.1240807976805 10.7359305814409  C 16.1240807976805 10.7359305814409  13.6489629027866 11.5260285336867  13.6489629027866 11.5260285336867  C 13.6489629027866 11.5260285336867  13.6743747908247 13.6766366183363  13.6743747908247 13.6766366183363  C 13.6743747908247 13.6766366183363  9.0329132604986 13.5282523687682  9.0329132604986 13.5282523687682  C 9.0329132604986 13.5282523687682  6.60861914168044 12.2718039178797  6.60861914168044 12.2718039178797  C 6.60861914168044 12.2718039178797  5.30498928533514 13.5706478686448  5.30498928533514 13.5706478686448  C 5.30498928533514 13.5706478686448  0.339506362724303 13.3085665966804  0.339506362724303 13.3085665966804  C 0.339506362724303 13.3085665966804  1.92520817629093 12.6109679168926  1.92520817629093 12.6109679168926  C 1.92520817629093 12.6109679168926  0.220070488946126 9.3214625401033  0.220070488946126 9.3214625401033  Z " fill-rule="nonzero" fill="#55efc4" stroke="none" transform="matrix(1 0 0 1 1937 4046 )" />
    <path d="M 0.220070488946126 9.3214625401033  C 0.220070488946126 9.3214625401033  0.990050696495438 4.08466980127059  0.990050696495438 4.08466980127059  C 0.990050696495438 4.08466980127059  6.87544396607875 4.68976920860024  6.87544396607875 4.68976920860024  C 6.87544396607875 4.68976920860024  12.3173799695994 2.91301235013533  12.3173799695994 2.91301235013533  C 12.3173799695994 2.91301235013533  18.5483749164987 2.7183784643382  18.5483749164987 2.7183784643382  C 18.5483749164987 2.7183784643382  19.9079109265277 1.39062849092991  19.9079109265277 1.39062849092991  C 19.9079109265277 1.39062849092991  21.104810853114 1.47734655885931  21.104810853114 1.47734655885931  C 21.104810853114 1.47734655885931  22.4897587511806 4.12706530114716  22.4897587511806 4.12706530114716  C 22.4897587511806 4.12706530114716  16.8178253411158 6.20059065874845  16.8178253411158 6.20059065874845  C 16.8178253411158 6.20059065874845  16.1240807976805 10.7359305814409  16.1240807976805 10.7359305814409  C 16.1240807976805 10.7359305814409  13.6489629027866 11.5260285336867  13.6489629027866 11.5260285336867  C 13.6489629027866 11.5260285336867  13.6743747908247 13.6766366183363  13.6743747908247 13.6766366183363  C 13.6743747908247 13.6766366183363  9.0329132604986 13.5282523687682  9.0329132604986 13.5282523687682  C 9.0329132604986 13.5282523687682  6.60861914168044 12.2718039178797  6.60861914168044 12.2718039178797  C 6.60861914168044 12.2718039178797  5.30498928533514 13.5706478686448  5.30498928533514 13.5706478686448  C 5.30498928533514 13.5706478686448  0.339506362724303 13.3085665966804  0.339506362724303 13.3085665966804  C 0.339506362724303 13.3085665966804  1.92520817629093 12.6109679168926  1.92520817629093 12.6109679168926  C 1.92520817629093 12.6109679168926  0.220070488946126 9.3214625401033  0.220070488946126 9.3214625401033  Z " stroke-width="2" stroke="#505050" fill="none" stroke-opacity="0.211764705882353" transform="matrix(1 0 0 1 1937 4046 )" mask="url(#clip211)" />
  </g>
</svg>