<?xml version="1.0" encoding="utf-8"?>
<svg version="1.1" xmlns:xlink="http://www.w3.org/1999/xlink" width="126px" height="116px" xmlns="http://www.w3.org/2000/svg">
  <defs>
    <mask fill="white" id="clip215">
      <path d="M 94.6948350205533 79.5999964955866  C 94.6948350205533 79.5999964955866  105.011734572744 87.10952472795  105.011734572744 87.10952472795  C 105.011734572744 87.10952472795  87.1848151773924 97.8055101684095  87.1848151773924 97.8055101684095  C 87.1848151773924 97.8055101684095  74.5673362936618 91.7759203166409  74.5673362936618 91.7759203166409  C 74.5673362936618 91.7759203166409  79.5026145714095 84.9419859728951  79.5026145714095 84.9419859728951  C 79.5026145714095 84.9419859728951  75.1820143633967 74.8238268447152  75.1820143633967 74.8238268447152  C 75.1820143633967 74.8238268447152  91.8560935615693 69.2712551904218  91.8560935615693 69.2712551904218  C 91.8560935615693 69.2712551904218  94.6948350205533 79.5999964955866  94.6948350205533 79.5999964955866  Z M 49.7034609536423 21.3059776936641  C 49.7034609536423 21.3059776936641  58.7246905497116 32.41710867837  58.7246905497116 32.41710867837  C 58.7246905497116 32.41710867837  82.2660954611394 54.9547215900455  82.2660954611394 54.9547215900455  C 82.2660954611394 54.9547215900455  64.2695458343751 66.2514705344383  64.2695458343751 66.2514705344383  C 64.2695458343751 66.2514705344383  60.2958178980801 87.8320376463016  60.2958178980801 87.8320376463016  C 60.2958178980801 87.8320376463016  54.0215106302453 92.8018088250186  54.0215106302453 92.8018088250186  C 54.0215106302453 92.8018088250186  50.6165511983108 113.768654701493  50.6165511983108 113.768654701493  C 50.6165511983108 113.768654701493  40.1453643885014 114.722691096444  40.1453643885014 114.722691096444  C 40.1453643885014 114.722691096444  24.7656599880779 99.4660923453944  24.7656599880779 99.4660923453944  C 24.7656599880779 99.4660923453944  31.2516613629166 90.2390834461139  31.2516613629166 90.2390834461139  C 31.2516613629166 90.2390834461139  20.5317778479947 82.5309483890035  20.5317778479947 82.5309483890035  C 20.5317778479947 82.5309483890035  6.59822475686455 57.4835168042762  6.59822475686455 57.4835168042762  C 6.59822475686455 57.4835168042762  1.03551575233335 33.9599332250158  1.03551575233335 33.9599332250158  C 1.03551575233335 33.9599332250158  20.5317778479947 22.6112910875922  20.5317778479947 22.6112910875922  C 20.5317778479947 22.6112910875922  24.4493940932763 33.7104467200601  24.4493940932763 33.7104467200601  C 24.4493940932763 33.7104467200601  34.633666012164 33.2773381474571  34.633666012164 33.2773381474571  C 34.633666012164 33.2773381474571  37.3499819634827 22.4296649119845  37.3499819634827 22.4296649119845  C 37.3499819634827 22.4296649119845  49.7034609536423 21.3059776936641  49.7034609536423 21.3059776936641  Z M 92.1009445768999 1.04966938330334  C 92.1009445768999 1.04966938330334  110.184212271593 9.54817768811328  110.184212271593 9.54817768811328  C 110.184212271593 9.54817768811328  124.199382367833 21.1223556260168  124.199382367833 21.1223556260168  C 124.199382367833 21.1223556260168  113.594272766347 39.5713681276765  113.594272766347 39.5713681276765  C 113.594272766347 39.5713681276765  92.8533513427579 43.175949151276  92.8533513427579 43.175949151276  C 92.8533513427579 43.175949151276  69.9100659395702 38.0624737457046  69.9100659395702 38.0624737457046  C 69.9100659395702 38.0624737457046  68.6373507661354 29.4362283503573  68.6373507661354 29.4362283503573  C 68.6373507661354 29.4362283503573  58.3765629049574 28.8793744712962  58.3765629049574 28.8793744712962  C 58.3765629049574 28.8793744712962  50.5515325400322 12.5040937988281  50.5515325400322 12.5040937988281  C 50.5515325400322 12.5040937988281  72.634033485118 3.07749569558302  72.634033485118 3.07749569558302  C 72.634033485118 3.07749569558302  83.0172468539611 11.2107557571379  83.0172468539611 11.2107557571379  C 83.0172468539611 11.2107557571379  92.1009445768999 1.04966938330334  92.1009445768999 1.04966938330334  Z " fill-rule="evenodd" />
    </mask>
  </defs>
  <g transform="matrix(1 0 0 1 -1913 -3545 )">
    <path d="M 94.6948350205533 79.5999964955866  C 94.6948350205533 79.5999964955866  105.011734572744 87.10952472795  105.011734572744 87.10952472795  C 105.011734572744 87.10952472795  87.1848151773924 97.8055101684095  87.1848151773924 97.8055101684095  C 87.1848151773924 97.8055101684095  74.5673362936618 91.7759203166409  74.5673362936618 91.7759203166409  C 74.5673362936618 91.7759203166409  79.5026145714095 84.9419859728951  79.5026145714095 84.9419859728951  C 79.5026145714095 84.9419859728951  75.1820143633967 74.8238268447152  75.1820143633967 74.8238268447152  C 75.1820143633967 74.8238268447152  91.8560935615693 69.2712551904218  91.8560935615693 69.2712551904218  C 91.8560935615693 69.2712551904218  94.6948350205533 79.5999964955866  94.6948350205533 79.5999964955866  Z M 49.7034609536423 21.3059776936641  C 49.7034609536423 21.3059776936641  58.7246905497116 32.41710867837  58.7246905497116 32.41710867837  C 58.7246905497116 32.41710867837  82.2660954611394 54.9547215900455  82.2660954611394 54.9547215900455  C 82.2660954611394 54.9547215900455  64.2695458343751 66.2514705344383  64.2695458343751 66.2514705344383  C 64.2695458343751 66.2514705344383  60.2958178980801 87.8320376463016  60.2958178980801 87.8320376463016  C 60.2958178980801 87.8320376463016  54.0215106302453 92.8018088250186  54.0215106302453 92.8018088250186  C 54.0215106302453 92.8018088250186  50.6165511983108 113.768654701493  50.6165511983108 113.768654701493  C 50.6165511983108 113.768654701493  40.1453643885014 114.722691096444  40.1453643885014 114.722691096444  C 40.1453643885014 114.722691096444  24.7656599880779 99.4660923453944  24.7656599880779 99.4660923453944  C 24.7656599880779 99.4660923453944  31.2516613629166 90.2390834461139  31.2516613629166 90.2390834461139  C 31.2516613629166 90.2390834461139  20.5317778479947 82.5309483890035  20.5317778479947 82.5309483890035  C 20.5317778479947 82.5309483890035  6.59822475686455 57.4835168042762  6.59822475686455 57.4835168042762  C 6.59822475686455 57.4835168042762  1.03551575233335 33.9599332250158  1.03551575233335 33.9599332250158  C 1.03551575233335 33.9599332250158  20.5317778479947 22.6112910875922  20.5317778479947 22.6112910875922  C 20.5317778479947 22.6112910875922  24.4493940932763 33.7104467200601  24.4493940932763 33.7104467200601  C 24.4493940932763 33.7104467200601  34.633666012164 33.2773381474571  34.633666012164 33.2773381474571  C 34.633666012164 33.2773381474571  37.3499819634827 22.4296649119845  37.3499819634827 22.4296649119845  C 37.3499819634827 22.4296649119845  49.7034609536423 21.3059776936641  49.7034609536423 21.3059776936641  Z M 92.1009445768999 1.04966938330334  C 92.1009445768999 1.04966938330334  110.184212271593 9.54817768811328  110.184212271593 9.54817768811328  C 110.184212271593 9.54817768811328  124.199382367833 21.1223556260168  124.199382367833 21.1223556260168  C 124.199382367833 21.1223556260168  113.594272766347 39.5713681276765  113.594272766347 39.5713681276765  C 113.594272766347 39.5713681276765  92.8533513427579 43.175949151276  92.8533513427579 43.175949151276  C 92.8533513427579 43.175949151276  69.9100659395702 38.0624737457046  69.9100659395702 38.0624737457046  C 69.9100659395702 38.0624737457046  68.6373507661354 29.4362283503573  68.6373507661354 29.4362283503573  C 68.6373507661354 29.4362283503573  58.3765629049574 28.8793744712962  58.3765629049574 28.8793744712962  C 58.3765629049574 28.8793744712962  50.5515325400322 12.5040937988281  50.5515325400322 12.5040937988281  C 50.5515325400322 12.5040937988281  72.634033485118 3.07749569558302  72.634033485118 3.07749569558302  C 72.634033485118 3.07749569558302  83.0172468539611 11.2107557571379  83.0172468539611 11.2107557571379  C 83.0172468539611 11.2107557571379  92.1009445768999 1.04966938330334  92.1009445768999 1.04966938330334  Z " fill-rule="nonzero" fill="#f2f2f2" stroke="none" transform="matrix(1 0 0 1 1913 3545 )" />
    <path d="M 94.6948350205533 79.5999964955866  C 94.6948350205533 79.5999964955866  105.011734572744 87.10952472795  105.011734572744 87.10952472795  C 105.011734572744 87.10952472795  87.1848151773924 97.8055101684095  87.1848151773924 97.8055101684095  C 87.1848151773924 97.8055101684095  74.5673362936618 91.7759203166409  74.5673362936618 91.7759203166409  C 74.5673362936618 91.7759203166409  79.5026145714095 84.9419859728951  79.5026145714095 84.9419859728951  C 79.5026145714095 84.9419859728951  75.1820143633967 74.8238268447152  75.1820143633967 74.8238268447152  C 75.1820143633967 74.8238268447152  91.8560935615693 69.2712551904218  91.8560935615693 69.2712551904218  C 91.8560935615693 69.2712551904218  94.6948350205533 79.5999964955866  94.6948350205533 79.5999964955866  Z " stroke-width="2" stroke="#505050" fill="none" stroke-opacity="0.211764705882353" transform="matrix(1 0 0 1 1913 3545 )" mask="url(#clip215)" />
    <path d="M 49.7034609536423 21.3059776936641  C 49.7034609536423 21.3059776936641  58.7246905497116 32.41710867837  58.7246905497116 32.41710867837  C 58.7246905497116 32.41710867837  82.2660954611394 54.9547215900455  82.2660954611394 54.9547215900455  C 82.2660954611394 54.9547215900455  64.2695458343751 66.2514705344383  64.2695458343751 66.2514705344383  C 64.2695458343751 66.2514705344383  60.2958178980801 87.8320376463016  60.2958178980801 87.8320376463016  C 60.2958178980801 87.8320376463016  54.0215106302453 92.8018088250186  54.0215106302453 92.8018088250186  C 54.0215106302453 92.8018088250186  50.6165511983108 113.768654701493  50.6165511983108 113.768654701493  C 50.6165511983108 113.768654701493  40.1453643885014 114.722691096444  40.1453643885014 114.722691096444  C 40.1453643885014 114.722691096444  24.7656599880779 99.4660923453944  24.7656599880779 99.4660923453944  C 24.7656599880779 99.4660923453944  31.2516613629166 90.2390834461139  31.2516613629166 90.2390834461139  C 31.2516613629166 90.2390834461139  20.5317778479947 82.5309483890035  20.5317778479947 82.5309483890035  C 20.5317778479947 82.5309483890035  6.59822475686455 57.4835168042762  6.59822475686455 57.4835168042762  C 6.59822475686455 57.4835168042762  1.03551575233335 33.9599332250158  1.03551575233335 33.9599332250158  C 1.03551575233335 33.9599332250158  20.5317778479947 22.6112910875922  20.5317778479947 22.6112910875922  C 20.5317778479947 22.6112910875922  24.4493940932763 33.7104467200601  24.4493940932763 33.7104467200601  C 24.4493940932763 33.7104467200601  34.633666012164 33.2773381474571  34.633666012164 33.2773381474571  C 34.633666012164 33.2773381474571  37.3499819634827 22.4296649119845  37.3499819634827 22.4296649119845  C 37.3499819634827 22.4296649119845  49.7034609536423 21.3059776936641  49.7034609536423 21.3059776936641  Z " stroke-width="2" stroke="#505050" fill="none" stroke-opacity="0.211764705882353" transform="matrix(1 0 0 1 1913 3545 )" mask="url(#clip215)" />
    <path d="M 92.1009445768999 1.04966938330334  C 92.1009445768999 1.04966938330334  110.184212271593 9.54817768811328  110.184212271593 9.54817768811328  C 110.184212271593 9.54817768811328  124.199382367833 21.1223556260168  124.199382367833 21.1223556260168  C 124.199382367833 21.1223556260168  113.594272766347 39.5713681276765  113.594272766347 39.5713681276765  C 113.594272766347 39.5713681276765  92.8533513427579 43.175949151276  92.8533513427579 43.175949151276  C 92.8533513427579 43.175949151276  69.9100659395702 38.0624737457046  69.9100659395702 38.0624737457046  C 69.9100659395702 38.0624737457046  68.6373507661354 29.4362283503573  68.6373507661354 29.4362283503573  C 68.6373507661354 29.4362283503573  58.3765629049574 28.8793744712962  58.3765629049574 28.8793744712962  C 58.3765629049574 28.8793744712962  50.5515325400322 12.5040937988281  50.5515325400322 12.5040937988281  C 50.5515325400322 12.5040937988281  72.634033485118 3.07749569558302  72.634033485118 3.07749569558302  C 72.634033485118 3.07749569558302  83.0172468539611 11.2107557571379  83.0172468539611 11.2107557571379  C 83.0172468539611 11.2107557571379  92.1009445768999 1.04966938330334  92.1009445768999 1.04966938330334  Z " stroke-width="2" stroke="#505050" fill="none" stroke-opacity="0.211764705882353" transform="matrix(1 0 0 1 1913 3545 )" mask="url(#clip215)" />
  </g>
</svg>