<?xml version="1.0" encoding="utf-8"?>
<svg version="1.1" xmlns:xlink="http://www.w3.org/1999/xlink" width="44px" height="18px" xmlns="http://www.w3.org/2000/svg">
  <defs>
    <mask fill="white" id="clip216">
      <path d="M 12.581608996646 1.11084217537964  C 12.581608996646 1.11084217537964  14.691289823839 1.10051859586426  14.691289823839 1.10051859586426  C 14.691289823839 1.10051859586426  15.0900094060119 1.63734473066546  15.0900094060119 1.63734473066546  C 15.0900094060119 1.63734473066546  17.9996529392095 0.429485927362776  17.9996529392095 0.429485927362776  C 17.9996529392095 0.429485927362776  23.4012741788242 3.57404824775583  23.4012741788242 3.57404824775583  C 23.4012741788242 3.57404824775583  27.5827827083203 1.67657433282395  27.5827827083203 1.67657433282395  C 27.5827827083203 1.67657433282395  30.9239518652624 2.58711404608289  30.9239518652624 2.58711404608289  C 30.9239518652624 2.58711404608289  36.0164589337735 1.33176677700939  36.0164589337735 1.33176677700939  C 36.0164589337735 1.33176677700939  42.7391739142066 4.73441858528761  42.7391739142066 4.73441858528761  C 42.7391739142066 4.73441858528761  40.7783820449138 7.02212380590171  40.7783820449138 7.02212380590171  C 40.7783820449138 7.02212380590171  39.3980047572647 12.0424644206556  39.3980047572647 12.0424644206556  C 39.3980047572647 12.0424644206556  37.8889268449904 12.9302922589807  37.8889268449904 12.9302922589807  C 37.8889268449904 12.9302922589807  30.3107312420471 10.2853911871333  30.3107312420471 10.2853911871333  C 30.3107312420471 10.2853911871333  27.9915964571304 10.8180878901283  27.9915964571304 10.8180878901283  C 27.9915964571304 10.8180878901283  26.3311060452968 12.8662860659851  26.3311060452968 12.8662860659851  C 26.3311060452968 12.8662860659851  23.0101252216293 13.9481971991998  23.0101252216293 13.9481971991998  C 23.0101252216293 13.9481971991998  20.4096352238619 13.3927886212709  20.4096352238619 13.3927886212709  C 20.4096352238619 13.3927886212709  16.9650008588878 14.7369186741769  16.9650008588878 14.7369186741769  C 16.9650008588878 14.7369186741769  14.1537754504032 14.9929434461589  14.1537754504032 14.9929434461589  C 14.1537754504032 14.9929434461589  13.5834550353965 16.7252400888442  13.5834550353965 16.7252400888442  C 13.5834550353965 16.7252400888442  7.64556151101268 17.7782451994157  7.64556151101268 17.7782451994157  C 7.64556151101268 17.7782451994157  5.03621943527389 16.8408641794168  5.03621943527389 16.8408641794168  C 5.03621943527389 16.8408641794168  1.43512548742173 14.6336828790228  1.43512548742173 14.6336828790228  C 1.43512548742173 14.6336828790228  0.731057364471004 11.6253918082331  0.731057364471004 11.6253918082331  C 0.731057364471004 11.6253918082331  1.29885423781851 10.5207688000846  1.29885423781851 10.5207688000846  C 1.29885423781851 10.5207688000846  2.30322381822867 7.09645357841265  2.30322381822867 7.09645357841265  C 2.30322381822867 7.09645357841265  5.437462559106 7.24304840753146  5.437462559106 7.24304840753146  C 5.437462559106 7.24304840753146  7.85249192707702 6.33663812607873  7.85249192707702 6.33663812607873  C 7.85249192707702 6.33663812607873  8.04428109318538 5.51901062845852  8.04428109318538 5.51901062845852  C 8.04428109318538 5.51901062845852  9.39942296424131 5.10193801603609  9.39942296424131 5.10193801603609  C 9.39942296424131 5.10193801603609  9.86123108789714 3.09296944233785  9.86123108789714 3.09296944233785  C 9.86123108789714 3.09296944233785  11.4863919165003 2.70893228436464  11.4863919165003 2.70893228436464  C 11.4863919165003 2.70893228436464  12.581608996646 1.11084217537964  12.581608996646 1.11084217537964  Z " fill-rule="evenodd" />
    </mask>
  </defs>
  <g transform="matrix(1 0 0 1 -1959 -4025 )">
    <path d="M 12.581608996646 1.11084217537964  C 12.581608996646 1.11084217537964  14.691289823839 1.10051859586426  14.691289823839 1.10051859586426  C 14.691289823839 1.10051859586426  15.0900094060119 1.63734473066546  15.0900094060119 1.63734473066546  C 15.0900094060119 1.63734473066546  17.9996529392095 0.429485927362776  17.9996529392095 0.429485927362776  C 17.9996529392095 0.429485927362776  23.4012741788242 3.57404824775583  23.4012741788242 3.57404824775583  C 23.4012741788242 3.57404824775583  27.5827827083203 1.67657433282395  27.5827827083203 1.67657433282395  C 27.5827827083203 1.67657433282395  30.9239518652624 2.58711404608289  30.9239518652624 2.58711404608289  C 30.9239518652624 2.58711404608289  36.0164589337735 1.33176677700939  36.0164589337735 1.33176677700939  C 36.0164589337735 1.33176677700939  42.7391739142066 4.73441858528761  42.7391739142066 4.73441858528761  C 42.7391739142066 4.73441858528761  40.7783820449138 7.02212380590171  40.7783820449138 7.02212380590171  C 40.7783820449138 7.02212380590171  39.3980047572647 12.0424644206556  39.3980047572647 12.0424644206556  C 39.3980047572647 12.0424644206556  37.8889268449904 12.9302922589807  37.8889268449904 12.9302922589807  C 37.8889268449904 12.9302922589807  30.3107312420471 10.2853911871333  30.3107312420471 10.2853911871333  C 30.3107312420471 10.2853911871333  27.9915964571304 10.8180878901283  27.9915964571304 10.8180878901283  C 27.9915964571304 10.8180878901283  26.3311060452968 12.8662860659851  26.3311060452968 12.8662860659851  C 26.3311060452968 12.8662860659851  23.0101252216293 13.9481971991998  23.0101252216293 13.9481971991998  C 23.0101252216293 13.9481971991998  20.4096352238619 13.3927886212709  20.4096352238619 13.3927886212709  C 20.4096352238619 13.3927886212709  16.9650008588878 14.7369186741769  16.9650008588878 14.7369186741769  C 16.9650008588878 14.7369186741769  14.1537754504032 14.9929434461589  14.1537754504032 14.9929434461589  C 14.1537754504032 14.9929434461589  13.5834550353965 16.7252400888442  13.5834550353965 16.7252400888442  C 13.5834550353965 16.7252400888442  7.64556151101268 17.7782451994157  7.64556151101268 17.7782451994157  C 7.64556151101268 17.7782451994157  5.03621943527389 16.8408641794168  5.03621943527389 16.8408641794168  C 5.03621943527389 16.8408641794168  1.43512548742173 14.6336828790228  1.43512548742173 14.6336828790228  C 1.43512548742173 14.6336828790228  0.731057364471004 11.6253918082331  0.731057364471004 11.6253918082331  C 0.731057364471004 11.6253918082331  1.29885423781851 10.5207688000846  1.29885423781851 10.5207688000846  C 1.29885423781851 10.5207688000846  2.30322381822867 7.09645357841265  2.30322381822867 7.09645357841265  C 2.30322381822867 7.09645357841265  5.437462559106 7.24304840753146  5.437462559106 7.24304840753146  C 5.437462559106 7.24304840753146  7.85249192707702 6.33663812607873  7.85249192707702 6.33663812607873  C 7.85249192707702 6.33663812607873  8.04428109318538 5.51901062845852  8.04428109318538 5.51901062845852  C 8.04428109318538 5.51901062845852  9.39942296424131 5.10193801603609  9.39942296424131 5.10193801603609  C 9.39942296424131 5.10193801603609  9.86123108789714 3.09296944233785  9.86123108789714 3.09296944233785  C 9.86123108789714 3.09296944233785  11.4863919165003 2.70893228436464  11.4863919165003 2.70893228436464  C 11.4863919165003 2.70893228436464  12.581608996646 1.11084217537964  12.581608996646 1.11084217537964  Z " fill-rule="nonzero" fill="#74b9ff" stroke="none" transform="matrix(1 0 0 1 1959 4025 )" />
    <path d="M 12.581608996646 1.11084217537964  C 12.581608996646 1.11084217537964  14.691289823839 1.10051859586426  14.691289823839 1.10051859586426  C 14.691289823839 1.10051859586426  15.0900094060119 1.63734473066546  15.0900094060119 1.63734473066546  C 15.0900094060119 1.63734473066546  17.9996529392095 0.429485927362776  17.9996529392095 0.429485927362776  C 17.9996529392095 0.429485927362776  23.4012741788242 3.57404824775583  23.4012741788242 3.57404824775583  C 23.4012741788242 3.57404824775583  27.5827827083203 1.67657433282395  27.5827827083203 1.67657433282395  C 27.5827827083203 1.67657433282395  30.9239518652624 2.58711404608289  30.9239518652624 2.58711404608289  C 30.9239518652624 2.58711404608289  36.0164589337735 1.33176677700939  36.0164589337735 1.33176677700939  C 36.0164589337735 1.33176677700939  42.7391739142066 4.73441858528761  42.7391739142066 4.73441858528761  C 42.7391739142066 4.73441858528761  40.7783820449138 7.02212380590171  40.7783820449138 7.02212380590171  C 40.7783820449138 7.02212380590171  39.3980047572647 12.0424644206556  39.3980047572647 12.0424644206556  C 39.3980047572647 12.0424644206556  37.8889268449904 12.9302922589807  37.8889268449904 12.9302922589807  C 37.8889268449904 12.9302922589807  30.3107312420471 10.2853911871333  30.3107312420471 10.2853911871333  C 30.3107312420471 10.2853911871333  27.9915964571304 10.8180878901283  27.9915964571304 10.8180878901283  C 27.9915964571304 10.8180878901283  26.3311060452968 12.8662860659851  26.3311060452968 12.8662860659851  C 26.3311060452968 12.8662860659851  23.0101252216293 13.9481971991998  23.0101252216293 13.9481971991998  C 23.0101252216293 13.9481971991998  20.4096352238619 13.3927886212709  20.4096352238619 13.3927886212709  C 20.4096352238619 13.3927886212709  16.9650008588878 14.7369186741769  16.9650008588878 14.7369186741769  C 16.9650008588878 14.7369186741769  14.1537754504032 14.9929434461589  14.1537754504032 14.9929434461589  C 14.1537754504032 14.9929434461589  13.5834550353965 16.7252400888442  13.5834550353965 16.7252400888442  C 13.5834550353965 16.7252400888442  7.64556151101268 17.7782451994157  7.64556151101268 17.7782451994157  C 7.64556151101268 17.7782451994157  5.03621943527389 16.8408641794168  5.03621943527389 16.8408641794168  C 5.03621943527389 16.8408641794168  1.43512548742173 14.6336828790228  1.43512548742173 14.6336828790228  C 1.43512548742173 14.6336828790228  0.731057364471004 11.6253918082331  0.731057364471004 11.6253918082331  C 0.731057364471004 11.6253918082331  1.29885423781851 10.5207688000846  1.29885423781851 10.5207688000846  C 1.29885423781851 10.5207688000846  2.30322381822867 7.09645357841265  2.30322381822867 7.09645357841265  C 2.30322381822867 7.09645357841265  5.437462559106 7.24304840753146  5.437462559106 7.24304840753146  C 5.437462559106 7.24304840753146  7.85249192707702 6.33663812607873  7.85249192707702 6.33663812607873  C 7.85249192707702 6.33663812607873  8.04428109318538 5.51901062845852  8.04428109318538 5.51901062845852  C 8.04428109318538 5.51901062845852  9.39942296424131 5.10193801603609  9.39942296424131 5.10193801603609  C 9.39942296424131 5.10193801603609  9.86123108789714 3.09296944233785  9.86123108789714 3.09296944233785  C 9.86123108789714 3.09296944233785  11.4863919165003 2.70893228436464  11.4863919165003 2.70893228436464  C 11.4863919165003 2.70893228436464  12.581608996646 1.11084217537964  12.581608996646 1.11084217537964  Z " stroke-width="2" stroke="#505050" fill="none" stroke-opacity="0.211764705882353" transform="matrix(1 0 0 1 1959 4025 )" mask="url(#clip216)" />
  </g>
</svg>