<?xml version="1.0" encoding="utf-8"?>
<svg version="1.1" xmlns:xlink="http://www.w3.org/1999/xlink" width="24px" height="23px" xmlns="http://www.w3.org/2000/svg">
  <defs>
    <mask fill="white" id="clip220">
      <path d="M 16.6658339423445 19.5914531166884  C 16.6658339423445 19.5914531166884  14.9606962549997 21.4867705505658  14.9606962549997 21.4867705505658  C 14.9606962549997 21.4867705505658  13.0420987081364 21.0477660669954  13.0420987081364 21.0477660669954  C 13.0420987081364 21.0477660669954  6.06528466712552 18.6606791875792  6.06528466712552 18.6606791875792  C 6.06528466712552 18.6606791875792  2.35514901358853 15.4842284771278  2.35514901358853 15.4842284771278  C 2.35514901358853 15.4842284771278  1.1074253109263 13.3145332410185  1.1074253109263 13.3145332410185  C 1.1074253109263 13.3145332410185  0.235797551225495 7.38904447349898  0.235797551225495 7.38904447349898  C 0.235797551225495 7.38904447349898  4.04249837930666 4.76979176142563  4.04249837930666 4.76979176142563  C 4.04249837930666 4.76979176142563  4.86584355173538 3.1171931525994  4.86584355173538 3.1171931525994  C 4.86584355173538 3.1171931525994  6.08307298875199 1.82972808058886  6.08307298875199 1.82972808058886  C 6.08307298875199 1.82972808058886  8.04487074527984 1.69464977795171  8.04487074527984 1.69464977795171  C 8.04487074527984 1.69464977795171  9.70680822296009 0.569700788801826  9.70680822296009 0.569700788801826  C 9.70680822296009 0.569700788801826  17.2503073672168 0.576032584237964  17.2503073672168 0.576032584237964  C 17.2503073672168 0.576032584237964  19.2324346341748 2.70984764620933  19.2324346341748 2.70984764620933  C 19.2324346341748 2.70984764620933  20.7774774268808 5.21512804043253  20.7774774268808 5.21512804043253  C 20.7774774268808 5.21512804043253  20.5462292457356 6.94792939144962  20.5462292457356 6.94792939144962  C 20.5462292457356 6.94792939144962  21.6923053962461 8.50344047025552  21.6923053962461 8.50344047025552  C 21.6923053962461 8.50344047025552  21.6109873545248 12.2170220320914  21.6109873545248 12.2170220320914  C 21.6109873545248 12.2170220320914  23.5727851110526 11.87721567702  23.5727851110526 11.87721567702  C 23.5727851110526 11.87721567702  20.2565337221033 14.6484314795603  20.2565337221033 14.6484314795603  C 20.2565337221033 14.6484314795603  17.0419298853059 17.8692047580647  17.0419298853059 17.8692047580647  C 17.0419298853059 17.8692047580647  16.6658339423445 19.5914531166884  16.6658339423445 19.5914531166884  Z " fill-rule="evenodd" />
    </mask>
  </defs>
  <g transform="matrix(1 0 0 1 -1745 -4285 )">
    <path d="M 16.6658339423445 19.5914531166884  C 16.6658339423445 19.5914531166884  14.9606962549997 21.4867705505658  14.9606962549997 21.4867705505658  C 14.9606962549997 21.4867705505658  13.0420987081364 21.0477660669954  13.0420987081364 21.0477660669954  C 13.0420987081364 21.0477660669954  6.06528466712552 18.6606791875792  6.06528466712552 18.6606791875792  C 6.06528466712552 18.6606791875792  2.35514901358853 15.4842284771278  2.35514901358853 15.4842284771278  C 2.35514901358853 15.4842284771278  1.1074253109263 13.3145332410185  1.1074253109263 13.3145332410185  C 1.1074253109263 13.3145332410185  0.235797551225495 7.38904447349898  0.235797551225495 7.38904447349898  C 0.235797551225495 7.38904447349898  4.04249837930666 4.76979176142563  4.04249837930666 4.76979176142563  C 4.04249837930666 4.76979176142563  4.86584355173538 3.1171931525994  4.86584355173538 3.1171931525994  C 4.86584355173538 3.1171931525994  6.08307298875199 1.82972808058886  6.08307298875199 1.82972808058886  C 6.08307298875199 1.82972808058886  8.04487074527984 1.69464977795171  8.04487074527984 1.69464977795171  C 8.04487074527984 1.69464977795171  9.70680822296009 0.569700788801826  9.70680822296009 0.569700788801826  C 9.70680822296009 0.569700788801826  17.2503073672168 0.576032584237964  17.2503073672168 0.576032584237964  C 17.2503073672168 0.576032584237964  19.2324346341748 2.70984764620933  19.2324346341748 2.70984764620933  C 19.2324346341748 2.70984764620933  20.7774774268808 5.21512804043253  20.7774774268808 5.21512804043253  C 20.7774774268808 5.21512804043253  20.5462292457356 6.94792939144962  20.5462292457356 6.94792939144962  C 20.5462292457356 6.94792939144962  21.6923053962461 8.50344047025552  21.6923053962461 8.50344047025552  C 21.6923053962461 8.50344047025552  21.6109873545248 12.2170220320914  21.6109873545248 12.2170220320914  C 21.6109873545248 12.2170220320914  23.5727851110526 11.87721567702  23.5727851110526 11.87721567702  C 23.5727851110526 11.87721567702  20.2565337221033 14.6484314795603  20.2565337221033 14.6484314795603  C 20.2565337221033 14.6484314795603  17.0419298853059 17.8692047580647  17.0419298853059 17.8692047580647  C 17.0419298853059 17.8692047580647  16.6658339423445 19.5914531166884  16.6658339423445 19.5914531166884  Z " fill-rule="nonzero" fill="#f2f2f2" stroke="none" transform="matrix(1 0 0 1 1745 4285 )" />
    <path d="M 16.6658339423445 19.5914531166884  C 16.6658339423445 19.5914531166884  14.9606962549997 21.4867705505658  14.9606962549997 21.4867705505658  C 14.9606962549997 21.4867705505658  13.0420987081364 21.0477660669954  13.0420987081364 21.0477660669954  C 13.0420987081364 21.0477660669954  6.06528466712552 18.6606791875792  6.06528466712552 18.6606791875792  C 6.06528466712552 18.6606791875792  2.35514901358853 15.4842284771278  2.35514901358853 15.4842284771278  C 2.35514901358853 15.4842284771278  1.1074253109263 13.3145332410185  1.1074253109263 13.3145332410185  C 1.1074253109263 13.3145332410185  0.235797551225495 7.38904447349898  0.235797551225495 7.38904447349898  C 0.235797551225495 7.38904447349898  4.04249837930666 4.76979176142563  4.04249837930666 4.76979176142563  C 4.04249837930666 4.76979176142563  4.86584355173538 3.1171931525994  4.86584355173538 3.1171931525994  C 4.86584355173538 3.1171931525994  6.08307298875199 1.82972808058886  6.08307298875199 1.82972808058886  C 6.08307298875199 1.82972808058886  8.04487074527984 1.69464977795171  8.04487074527984 1.69464977795171  C 8.04487074527984 1.69464977795171  9.70680822296009 0.569700788801826  9.70680822296009 0.569700788801826  C 9.70680822296009 0.569700788801826  17.2503073672168 0.576032584237964  17.2503073672168 0.576032584237964  C 17.2503073672168 0.576032584237964  19.2324346341748 2.70984764620933  19.2324346341748 2.70984764620933  C 19.2324346341748 2.70984764620933  20.7774774268808 5.21512804043253  20.7774774268808 5.21512804043253  C 20.7774774268808 5.21512804043253  20.5462292457356 6.94792939144962  20.5462292457356 6.94792939144962  C 20.5462292457356 6.94792939144962  21.6923053962461 8.50344047025552  21.6923053962461 8.50344047025552  C 21.6923053962461 8.50344047025552  21.6109873545248 12.2170220320914  21.6109873545248 12.2170220320914  C 21.6109873545248 12.2170220320914  23.5727851110526 11.87721567702  23.5727851110526 11.87721567702  C 23.5727851110526 11.87721567702  20.2565337221033 14.6484314795603  20.2565337221033 14.6484314795603  C 20.2565337221033 14.6484314795603  17.0419298853059 17.8692047580647  17.0419298853059 17.8692047580647  C 17.0419298853059 17.8692047580647  16.6658339423445 19.5914531166884  16.6658339423445 19.5914531166884  Z " stroke-width="2" stroke="#505050" fill="none" stroke-opacity="0.211764705882353" transform="matrix(1 0 0 1 1745 4285 )" mask="url(#clip220)" />
  </g>
</svg>