<?xml version="1.0" encoding="utf-8"?>
<svg version="1.1" xmlns:xlink="http://www.w3.org/1999/xlink" width="45px" height="27px" xmlns="http://www.w3.org/2000/svg">
  <defs>
    <mask fill="white" id="clip221">
      <path d="M 14.3088718423485 18.9799376815613  C 14.3088718423485 18.9799376815613  6.74210100073576 19.1403335064531  6.74210100073576 19.1403335064531  C 6.74210100073576 19.1403335064531  3.87792709998114 14.7666132081783  3.87792709998114 14.7666132081783  C 3.87792709998114 14.7666132081783  0.411682041888116 11.3406127654495  0.411682041888116 11.3406127654495  C 0.411682041888116 11.3406127654495  3.46663569208724 10.270655250621  3.46663569208724 10.270655250621  C 3.46663569208724 10.270655250621  6.83377438683256 6.30379265451134  6.83377438683256 6.30379265451134  C 6.83377438683256 6.30379265451134  8.48389533657528 3.39515129335995  8.48389533657528 3.39515129335995  C 8.48389533657528 3.39515129335995  10.862448056925 1.574071866842  10.862448056925 1.574071866842  C 10.862448056925 1.574071866842  14.313827160516 2.06503957474336  14.313827160516 2.06503957474336  C 14.313827160516 2.06503957474336  17.7032647870145 0.826862048442715  17.7032647870145 0.826862048442715  C 17.7032647870145 0.826862048442715  21.583278912085 0.762312509157003  21.583278912085 0.762312509157003  C 21.583278912085 0.762312509157003  26.70334208424 2.434732390653  26.70334208424 2.434732390653  C 26.70334208424 2.434732390653  31.3142656390013 3.93697621403159  31.3142656390013 3.93697621403159  C 31.3142656390013 3.93697621403159  35.5188531040364 8.10139952128891  35.5188531040364 8.10139952128891  C 35.5188531040364 8.10139952128891  40.102522408877 11.9763279250824  40.102522408877 11.9763279250824  C 40.102522408877 11.9763279250824  40.4196627715903 16.89674800461  40.4196627715903 16.89674800461  C 40.4196627715903 16.89674800461  41.7922859039589 20.1085765957404  41.7922859039589 20.1085765957404  C 41.7922859039589 20.1085765957404  44.3913502827578 21.6812380983401  44.3913502827578 21.6812380983401  C 44.3913502827578 21.6812380983401  44.9859884628451 23.8446256877372  44.9859884628451 23.8446256877372  C 44.9859884628451 23.8446256877372  44.6663704410482 25.5835511551641  44.6663704410482 25.5835511551641  C 44.6663704410482 25.5835511551641  43.6629185121506 25.898474665013  43.6629185121506 25.898474665013  C 43.6629185121506 25.898474665013  39.8745777731769 25.4564081232373  39.8745777731769 25.4564081232373  C 39.8745777731769 25.4564081232373  39.3542693656004 26.0784309563553  39.3542693656004 26.0784309563553  C 39.3542693656004 26.0784309563553  37.8230760518752 26.2036179416366  37.8230760518752 26.2036179416366  C 37.8230760518752 26.2036179416366  32.8281153391405 24.8422094766996  32.8281153391405 24.8422094766996  C 32.8281153391405 24.8422094766996  29.4758425988976 24.783528077349  29.4758425988976 24.783528077349  C 29.4758425988976 24.783528077349  14.8366132271761 24.5507585265911  14.8366132271761 24.5507585265911  C 14.8366132271761 24.5507585265911  12.9758912553191 25.1786494996439  12.9758912553191 25.1786494996439  C 12.9758912553191 25.1786494996439  10.6741459665639 24.9986932083016  10.6741459665639 24.9986932083016  C 10.6741459665639 24.9986932083016  6.99482222727299 25.9082548982379  6.99482222727299 25.9082548982379  C 6.99482222727299 25.9082548982379  5.85509904877188 21.6245127456344  5.85509904877188 21.6245127456344  C 5.85509904877188 21.6245127456344  12.1780850303684 21.7438315909809  12.1780850303684 21.7438315909809  C 12.1780850303684 21.7438315909809  13.8480272527807 20.9594568863261  13.8480272527807 20.9594568863261  C 13.8480272527807 20.9594568863261  15.0918121127969 20.9125117668454  15.0918121127969 20.9125117668454  C 15.0918121127969 20.9125117668454  17.6660999007589 19.6195649344843  17.6660999007589 19.6195649344843  C 17.6660999007589 19.6195649344843  20.6467237784472 20.8029731547242  20.6467237784472 20.8029731547242  C 20.6467237784472 20.8029731547242  25.464512542391 20.9027315336204  25.464512542391 20.9027315336204  C 25.464512542391 20.9027315336204  28.47239067 19.6449935408696  28.47239067 19.6449935408696  C 28.47239067 19.6449935408696  27.0675579695434 18.0234308721442  27.0675579695434 18.0234308721442  C 27.0675579695434 18.0234308721442  24.7782009762067 18.9682014016911  24.7782009762067 18.9682014016911  C 24.7782009762067 18.9682014016911  20.8226375733897 18.9427727953058  20.8226375733897 18.9427727953058  C 20.8226375733897 18.9427727953058  18.0798689677363 17.5618038639186  18.0798689677363 17.5618038639186  C 18.0798689677363 17.5618038639186  15.8772300423291 17.6517820095896  15.8772300423291 17.6517820095896  C 15.8772300423291 17.6517820095896  14.3088718423485 18.9799376815613  14.3088718423485 18.9799376815613  Z " fill-rule="evenodd" />
    </mask>
  </defs>
  <g transform="matrix(1 0 0 1 -1713 -4248 )">
    <path d="M 14.3088718423485 18.9799376815613  C 14.3088718423485 18.9799376815613  6.74210100073576 19.1403335064531  6.74210100073576 19.1403335064531  C 6.74210100073576 19.1403335064531  3.87792709998114 14.7666132081783  3.87792709998114 14.7666132081783  C 3.87792709998114 14.7666132081783  0.411682041888116 11.3406127654495  0.411682041888116 11.3406127654495  C 0.411682041888116 11.3406127654495  3.46663569208724 10.270655250621  3.46663569208724 10.270655250621  C 3.46663569208724 10.270655250621  6.83377438683256 6.30379265451134  6.83377438683256 6.30379265451134  C 6.83377438683256 6.30379265451134  8.48389533657528 3.39515129335995  8.48389533657528 3.39515129335995  C 8.48389533657528 3.39515129335995  10.862448056925 1.574071866842  10.862448056925 1.574071866842  C 10.862448056925 1.574071866842  14.313827160516 2.06503957474336  14.313827160516 2.06503957474336  C 14.313827160516 2.06503957474336  17.7032647870145 0.826862048442715  17.7032647870145 0.826862048442715  C 17.7032647870145 0.826862048442715  21.583278912085 0.762312509157003  21.583278912085 0.762312509157003  C 21.583278912085 0.762312509157003  26.70334208424 2.434732390653  26.70334208424 2.434732390653  C 26.70334208424 2.434732390653  31.3142656390013 3.93697621403159  31.3142656390013 3.93697621403159  C 31.3142656390013 3.93697621403159  35.5188531040364 8.10139952128891  35.5188531040364 8.10139952128891  C 35.5188531040364 8.10139952128891  40.102522408877 11.9763279250824  40.102522408877 11.9763279250824  C 40.102522408877 11.9763279250824  40.4196627715903 16.89674800461  40.4196627715903 16.89674800461  C 40.4196627715903 16.89674800461  41.7922859039589 20.1085765957404  41.7922859039589 20.1085765957404  C 41.7922859039589 20.1085765957404  44.3913502827578 21.6812380983401  44.3913502827578 21.6812380983401  C 44.3913502827578 21.6812380983401  44.9859884628451 23.8446256877372  44.9859884628451 23.8446256877372  C 44.9859884628451 23.8446256877372  44.6663704410482 25.5835511551641  44.6663704410482 25.5835511551641  C 44.6663704410482 25.5835511551641  43.6629185121506 25.898474665013  43.6629185121506 25.898474665013  C 43.6629185121506 25.898474665013  39.8745777731769 25.4564081232373  39.8745777731769 25.4564081232373  C 39.8745777731769 25.4564081232373  39.3542693656004 26.0784309563553  39.3542693656004 26.0784309563553  C 39.3542693656004 26.0784309563553  37.8230760518752 26.2036179416366  37.8230760518752 26.2036179416366  C 37.8230760518752 26.2036179416366  32.8281153391405 24.8422094766996  32.8281153391405 24.8422094766996  C 32.8281153391405 24.8422094766996  29.4758425988976 24.783528077349  29.4758425988976 24.783528077349  C 29.4758425988976 24.783528077349  14.8366132271761 24.5507585265911  14.8366132271761 24.5507585265911  C 14.8366132271761 24.5507585265911  12.9758912553191 25.1786494996439  12.9758912553191 25.1786494996439  C 12.9758912553191 25.1786494996439  10.6741459665639 24.9986932083016  10.6741459665639 24.9986932083016  C 10.6741459665639 24.9986932083016  6.99482222727299 25.9082548982379  6.99482222727299 25.9082548982379  C 6.99482222727299 25.9082548982379  5.85509904877188 21.6245127456344  5.85509904877188 21.6245127456344  C 5.85509904877188 21.6245127456344  12.1780850303684 21.7438315909809  12.1780850303684 21.7438315909809  C 12.1780850303684 21.7438315909809  13.8480272527807 20.9594568863261  13.8480272527807 20.9594568863261  C 13.8480272527807 20.9594568863261  15.0918121127969 20.9125117668454  15.0918121127969 20.9125117668454  C 15.0918121127969 20.9125117668454  17.6660999007589 19.6195649344843  17.6660999007589 19.6195649344843  C 17.6660999007589 19.6195649344843  20.6467237784472 20.8029731547242  20.6467237784472 20.8029731547242  C 20.6467237784472 20.8029731547242  25.464512542391 20.9027315336204  25.464512542391 20.9027315336204  C 25.464512542391 20.9027315336204  28.47239067 19.6449935408696  28.47239067 19.6449935408696  C 28.47239067 19.6449935408696  27.0675579695434 18.0234308721442  27.0675579695434 18.0234308721442  C 27.0675579695434 18.0234308721442  24.7782009762067 18.9682014016911  24.7782009762067 18.9682014016911  C 24.7782009762067 18.9682014016911  20.8226375733897 18.9427727953058  20.8226375733897 18.9427727953058  C 20.8226375733897 18.9427727953058  18.0798689677363 17.5618038639186  18.0798689677363 17.5618038639186  C 18.0798689677363 17.5618038639186  15.8772300423291 17.6517820095896  15.8772300423291 17.6517820095896  C 15.8772300423291 17.6517820095896  14.3088718423485 18.9799376815613  14.3088718423485 18.9799376815613  Z " fill-rule="nonzero" fill="#f2f2f2" stroke="none" transform="matrix(1 0 0 1 1713 4248 )" />
    <path d="M 14.3088718423485 18.9799376815613  C 14.3088718423485 18.9799376815613  6.74210100073576 19.1403335064531  6.74210100073576 19.1403335064531  C 6.74210100073576 19.1403335064531  3.87792709998114 14.7666132081783  3.87792709998114 14.7666132081783  C 3.87792709998114 14.7666132081783  0.411682041888116 11.3406127654495  0.411682041888116 11.3406127654495  C 0.411682041888116 11.3406127654495  3.46663569208724 10.270655250621  3.46663569208724 10.270655250621  C 3.46663569208724 10.270655250621  6.83377438683256 6.30379265451134  6.83377438683256 6.30379265451134  C 6.83377438683256 6.30379265451134  8.48389533657528 3.39515129335995  8.48389533657528 3.39515129335995  C 8.48389533657528 3.39515129335995  10.862448056925 1.574071866842  10.862448056925 1.574071866842  C 10.862448056925 1.574071866842  14.313827160516 2.06503957474336  14.313827160516 2.06503957474336  C 14.313827160516 2.06503957474336  17.7032647870145 0.826862048442715  17.7032647870145 0.826862048442715  C 17.7032647870145 0.826862048442715  21.583278912085 0.762312509157003  21.583278912085 0.762312509157003  C 21.583278912085 0.762312509157003  26.70334208424 2.434732390653  26.70334208424 2.434732390653  C 26.70334208424 2.434732390653  31.3142656390013 3.93697621403159  31.3142656390013 3.93697621403159  C 31.3142656390013 3.93697621403159  35.5188531040364 8.10139952128891  35.5188531040364 8.10139952128891  C 35.5188531040364 8.10139952128891  40.102522408877 11.9763279250824  40.102522408877 11.9763279250824  C 40.102522408877 11.9763279250824  40.4196627715903 16.89674800461  40.4196627715903 16.89674800461  C 40.4196627715903 16.89674800461  41.7922859039589 20.1085765957404  41.7922859039589 20.1085765957404  C 41.7922859039589 20.1085765957404  44.3913502827578 21.6812380983401  44.3913502827578 21.6812380983401  C 44.3913502827578 21.6812380983401  44.9859884628451 23.8446256877372  44.9859884628451 23.8446256877372  C 44.9859884628451 23.8446256877372  44.6663704410482 25.5835511551641  44.6663704410482 25.5835511551641  C 44.6663704410482 25.5835511551641  43.6629185121506 25.898474665013  43.6629185121506 25.898474665013  C 43.6629185121506 25.898474665013  39.8745777731769 25.4564081232373  39.8745777731769 25.4564081232373  C 39.8745777731769 25.4564081232373  39.3542693656004 26.0784309563553  39.3542693656004 26.0784309563553  C 39.3542693656004 26.0784309563553  37.8230760518752 26.2036179416366  37.8230760518752 26.2036179416366  C 37.8230760518752 26.2036179416366  32.8281153391405 24.8422094766996  32.8281153391405 24.8422094766996  C 32.8281153391405 24.8422094766996  29.4758425988976 24.783528077349  29.4758425988976 24.783528077349  C 29.4758425988976 24.783528077349  14.8366132271761 24.5507585265911  14.8366132271761 24.5507585265911  C 14.8366132271761 24.5507585265911  12.9758912553191 25.1786494996439  12.9758912553191 25.1786494996439  C 12.9758912553191 25.1786494996439  10.6741459665639 24.9986932083016  10.6741459665639 24.9986932083016  C 10.6741459665639 24.9986932083016  6.99482222727299 25.9082548982379  6.99482222727299 25.9082548982379  C 6.99482222727299 25.9082548982379  5.85509904877188 21.6245127456344  5.85509904877188 21.6245127456344  C 5.85509904877188 21.6245127456344  12.1780850303684 21.7438315909809  12.1780850303684 21.7438315909809  C 12.1780850303684 21.7438315909809  13.8480272527807 20.9594568863261  13.8480272527807 20.9594568863261  C 13.8480272527807 20.9594568863261  15.0918121127969 20.9125117668454  15.0918121127969 20.9125117668454  C 15.0918121127969 20.9125117668454  17.6660999007589 19.6195649344843  17.6660999007589 19.6195649344843  C 17.6660999007589 19.6195649344843  20.6467237784472 20.8029731547242  20.6467237784472 20.8029731547242  C 20.6467237784472 20.8029731547242  25.464512542391 20.9027315336204  25.464512542391 20.9027315336204  C 25.464512542391 20.9027315336204  28.47239067 19.6449935408696  28.47239067 19.6449935408696  C 28.47239067 19.6449935408696  27.0675579695434 18.0234308721442  27.0675579695434 18.0234308721442  C 27.0675579695434 18.0234308721442  24.7782009762067 18.9682014016911  24.7782009762067 18.9682014016911  C 24.7782009762067 18.9682014016911  20.8226375733897 18.9427727953058  20.8226375733897 18.9427727953058  C 20.8226375733897 18.9427727953058  18.0798689677363 17.5618038639186  18.0798689677363 17.5618038639186  C 18.0798689677363 17.5618038639186  15.8772300423291 17.6517820095896  15.8772300423291 17.6517820095896  C 15.8772300423291 17.6517820095896  14.3088718423485 18.9799376815613  14.3088718423485 18.9799376815613  Z " stroke-width="2" stroke="#505050" fill="none" stroke-opacity="0.211764705882353" transform="matrix(1 0 0 1 1713 4248 )" mask="url(#clip221)" />
  </g>
</svg>