<?xml version="1.0" encoding="utf-8"?>
<svg version="1.1" xmlns:xlink="http://www.w3.org/1999/xlink" width="75px" height="80px" xmlns="http://www.w3.org/2000/svg">
  <defs>
    <mask fill="white" id="clip222">
      <path d="M 73.6157145175722 5.82397326406598  C 73.6157145175722 5.82397326406598  74.2678625893992 2.51442137287218  74.2678625893992 2.51442137287218  C 74.2678625893992 2.51442137287218  74.1092319773331 0.938730303078046  74.1092319773331 0.938730303078046  C 74.1092319773331 0.938730303078046  71.4301371957738 0.952745344359507  71.4301371957738 0.952745344359507  C 71.4301371957738 0.952745344359507  68.0888225574946 2.90484038000002  68.0888225574946 2.90484038000002  C 68.0888225574946 2.90484038000002  64.3471544697152 3.47745492378817  64.3471544697152 3.47745492378817  C 64.3471544697152 3.47745492378817  61.0939679492505 4.32236169818862  61.0939679492505 4.32236169818862  C 61.0939679492505 4.32236169818862  58.8378881332004 4.43648417719504  58.8378881332004 4.43648417719504  C 58.8378881332004 4.43648417719504  54.8167280146379 4.63469690389089  54.8167280146379 4.63469690389089  C 54.8167280146379 4.63469690389089  52.2937458989217 5.67381210747805  52.2937458989217 5.67381210747805  C 52.2937458989217 5.67381210747805  48.7938006485763 6.04821392457035  48.7938006485763 6.04821392457035  C 48.7938006485763 6.04821392457035  42.5795093695456 7.81210697728767  42.5795093695456 7.81210697728767  C 42.5795093695456 7.81210697728767  33.0654692034428 8.48482895880046  33.0654692034428 8.48482895880046  C 33.0654692034428 8.48482895880046  26.4105373353401 9.93638680581551  26.4105373353401 9.93638680581551  C 26.4105373353401 9.93638680581551  22.905556192548 9.91836746702492  22.905556192548 9.91836746702492  C 22.905556192548 9.91836746702492  19.7203542201113 7.54181689542946  19.7203542201113 7.54181689542946  C 19.7203542201113 7.54181689542946  18.3354837973131 5.19329640639725  18.3354837973131 5.19329640639725  C 18.3354837973131 5.19329640639725  16.0391168416907 4.14417045903776  16.0391168416907 4.14417045903776  C 16.0391168416907 4.14417045903776  13.4380783930525 7.18543441712807  13.4380783930525 7.18543441712807  C 13.4380783930525 7.18543441712807  11.8996132506348 9.19759391540389  11.8996132506348 9.19759391540389  C 11.8996132506348 9.19759391540389  14.5056875917193 12.3189438236742  14.5056875917193 12.3189438236742  C 14.5056875917193 12.3189438236742  17.1092439865802 15.0438682785531  17.1092439865802 15.0438682785531  C 17.1092439865802 15.0438682785531  19.8059643917027 17.0600320743377  19.8059643917027 17.0600320743377  C 19.8059643917027 17.0600320743377  44.7172457131023 23.7552175093965  44.7172457131023 23.7552175093965  C 44.7172457131023 23.7552175093965  50.6570808537961 23.7191788318153  50.6570808537961 23.7191788318153  C 50.6570808537961 23.7191788318153  28.8756066879212 42.0238082042597  28.8756066879212 42.0238082042597  C 28.8756066879212 42.0238082042597  19.680067080539 42.2700725010635  19.680067080539 42.2700725010635  C 19.680067080539 42.2700725010635  13.3877194685872 46.2123033986804  13.3877194685872 46.2123033986804  C 13.3877194685872 46.2123033986804  8.8604521591478 46.3164151339145  8.8604521591478 46.3164151339145  C 8.8604521591478 46.3164151339145  6.92918740589945 48.0783060378774  6.92918740589945 48.0783060378774  C 6.92918740589945 48.0783060378774  0.760219158888176 54.4151068458801  0.760219158888176 54.4151068458801  C 0.760219158888176 54.4151068458801  0.843311384255962 74.7329124065784  0.843311384255962 74.7329124065784  C 0.843311384255962 74.7329124065784  5.02562006110771 79.3358523931813  5.02562006110771 79.3358523931813  C 5.02562006110771 79.3358523931813  6.61948002043739 78.0144342152092  6.61948002043739 78.0144342152092  C 6.61948002043739 78.0144342152092  8.24607328066998 75.0732776948439  8.24607328066998 75.0732776948439  C 8.24607328066998 75.0732776948439  15.9736502398857 68.3180277971501  15.9736502398857 68.3180277971501  C 15.9736502398857 68.3180277971501  22.5530437212901 64.0774767351124  22.5530437212901 64.0774767351124  C 22.5530437212901 64.0774767351124  33.1158281279081 58.5395332801566  33.1158281279081 58.5395332801566  C 33.1158281279081 58.5395332801566  42.0079355768636 54.0206835412428  42.0079355768636 54.0206835412428  C 42.0079355768636 54.0206835412428  50.312122221208 46.3985032328492  50.312122221208 46.3985032328492  C 50.312122221208 46.3985032328492  56.3400854797164 38.6792343254634  56.3400854797164 38.6792343254634  C 56.3400854797164 38.6792343254634  62.3982640929041 30.4584115394732  62.3982640929041 30.4584115394732  C 62.3982640929041 30.4584115394732  66.7643828440546 23.2767039570701  66.7643828440546 23.2767039570701  C 66.7643828440546 23.2767039570701  70.1610922992459 16.9759418266486  70.1610922992459 16.9759418266486  C 70.1610922992459 16.9759418266486  72.1502698156289 10.8593773816415  72.1502698156289 10.8593773816415  C 72.1502698156289 10.8593773816415  73.643411926028 8.80917705703012  73.643411926028 8.80917705703012  C 73.643411926028 8.80917705703012  73.6157145175722 5.82397326406598  73.6157145175722 5.82397326406598  Z " fill-rule="evenodd" />
    </mask>
  </defs>
  <g transform="matrix(1 0 0 1 -2130 -4275 )">
    <path d="M 73.6157145175722 5.82397326406598  C 73.6157145175722 5.82397326406598  74.2678625893992 2.51442137287218  74.2678625893992 2.51442137287218  C 74.2678625893992 2.51442137287218  74.1092319773331 0.938730303078046  74.1092319773331 0.938730303078046  C 74.1092319773331 0.938730303078046  71.4301371957738 0.952745344359507  71.4301371957738 0.952745344359507  C 71.4301371957738 0.952745344359507  68.0888225574946 2.90484038000002  68.0888225574946 2.90484038000002  C 68.0888225574946 2.90484038000002  64.3471544697152 3.47745492378817  64.3471544697152 3.47745492378817  C 64.3471544697152 3.47745492378817  61.0939679492505 4.32236169818862  61.0939679492505 4.32236169818862  C 61.0939679492505 4.32236169818862  58.8378881332004 4.43648417719504  58.8378881332004 4.43648417719504  C 58.8378881332004 4.43648417719504  54.8167280146379 4.63469690389089  54.8167280146379 4.63469690389089  C 54.8167280146379 4.63469690389089  52.2937458989217 5.67381210747805  52.2937458989217 5.67381210747805  C 52.2937458989217 5.67381210747805  48.7938006485763 6.04821392457035  48.7938006485763 6.04821392457035  C 48.7938006485763 6.04821392457035  42.5795093695456 7.81210697728767  42.5795093695456 7.81210697728767  C 42.5795093695456 7.81210697728767  33.0654692034428 8.48482895880046  33.0654692034428 8.48482895880046  C 33.0654692034428 8.48482895880046  26.4105373353401 9.93638680581551  26.4105373353401 9.93638680581551  C 26.4105373353401 9.93638680581551  22.905556192548 9.91836746702492  22.905556192548 9.91836746702492  C 22.905556192548 9.91836746702492  19.7203542201113 7.54181689542946  19.7203542201113 7.54181689542946  C 19.7203542201113 7.54181689542946  18.3354837973131 5.19329640639725  18.3354837973131 5.19329640639725  C 18.3354837973131 5.19329640639725  16.0391168416907 4.14417045903776  16.0391168416907 4.14417045903776  C 16.0391168416907 4.14417045903776  13.4380783930525 7.18543441712807  13.4380783930525 7.18543441712807  C 13.4380783930525 7.18543441712807  11.8996132506348 9.19759391540389  11.8996132506348 9.19759391540389  C 11.8996132506348 9.19759391540389  14.5056875917193 12.3189438236742  14.5056875917193 12.3189438236742  C 14.5056875917193 12.3189438236742  17.1092439865802 15.0438682785531  17.1092439865802 15.0438682785531  C 17.1092439865802 15.0438682785531  19.8059643917027 17.0600320743377  19.8059643917027 17.0600320743377  C 19.8059643917027 17.0600320743377  44.7172457131023 23.7552175093965  44.7172457131023 23.7552175093965  C 44.7172457131023 23.7552175093965  50.6570808537961 23.7191788318153  50.6570808537961 23.7191788318153  C 50.6570808537961 23.7191788318153  28.8756066879212 42.0238082042597  28.8756066879212 42.0238082042597  C 28.8756066879212 42.0238082042597  19.680067080539 42.2700725010635  19.680067080539 42.2700725010635  C 19.680067080539 42.2700725010635  13.3877194685872 46.2123033986804  13.3877194685872 46.2123033986804  C 13.3877194685872 46.2123033986804  8.8604521591478 46.3164151339145  8.8604521591478 46.3164151339145  C 8.8604521591478 46.3164151339145  6.92918740589945 48.0783060378774  6.92918740589945 48.0783060378774  C 6.92918740589945 48.0783060378774  0.760219158888176 54.4151068458801  0.760219158888176 54.4151068458801  C 0.760219158888176 54.4151068458801  0.843311384255962 74.7329124065784  0.843311384255962 74.7329124065784  C 0.843311384255962 74.7329124065784  5.02562006110771 79.3358523931813  5.02562006110771 79.3358523931813  C 5.02562006110771 79.3358523931813  6.61948002043739 78.0144342152092  6.61948002043739 78.0144342152092  C 6.61948002043739 78.0144342152092  8.24607328066998 75.0732776948439  8.24607328066998 75.0732776948439  C 8.24607328066998 75.0732776948439  15.9736502398857 68.3180277971501  15.9736502398857 68.3180277971501  C 15.9736502398857 68.3180277971501  22.5530437212901 64.0774767351124  22.5530437212901 64.0774767351124  C 22.5530437212901 64.0774767351124  33.1158281279081 58.5395332801566  33.1158281279081 58.5395332801566  C 33.1158281279081 58.5395332801566  42.0079355768636 54.0206835412428  42.0079355768636 54.0206835412428  C 42.0079355768636 54.0206835412428  50.312122221208 46.3985032328492  50.312122221208 46.3985032328492  C 50.312122221208 46.3985032328492  56.3400854797164 38.6792343254634  56.3400854797164 38.6792343254634  C 56.3400854797164 38.6792343254634  62.3982640929041 30.4584115394732  62.3982640929041 30.4584115394732  C 62.3982640929041 30.4584115394732  66.7643828440546 23.2767039570701  66.7643828440546 23.2767039570701  C 66.7643828440546 23.2767039570701  70.1610922992459 16.9759418266486  70.1610922992459 16.9759418266486  C 70.1610922992459 16.9759418266486  72.1502698156289 10.8593773816415  72.1502698156289 10.8593773816415  C 72.1502698156289 10.8593773816415  73.643411926028 8.80917705703012  73.643411926028 8.80917705703012  C 73.643411926028 8.80917705703012  73.6157145175722 5.82397326406598  73.6157145175722 5.82397326406598  Z " fill-rule="nonzero" fill="#f2f2f2" stroke="none" transform="matrix(1 0 0 1 2130 4275 )" />
    <path d="M 73.6157145175722 5.82397326406598  C 73.6157145175722 5.82397326406598  74.2678625893992 2.51442137287218  74.2678625893992 2.51442137287218  C 74.2678625893992 2.51442137287218  74.1092319773331 0.938730303078046  74.1092319773331 0.938730303078046  C 74.1092319773331 0.938730303078046  71.4301371957738 0.952745344359507  71.4301371957738 0.952745344359507  C 71.4301371957738 0.952745344359507  68.0888225574946 2.90484038000002  68.0888225574946 2.90484038000002  C 68.0888225574946 2.90484038000002  64.3471544697152 3.47745492378817  64.3471544697152 3.47745492378817  C 64.3471544697152 3.47745492378817  61.0939679492505 4.32236169818862  61.0939679492505 4.32236169818862  C 61.0939679492505 4.32236169818862  58.8378881332004 4.43648417719504  58.8378881332004 4.43648417719504  C 58.8378881332004 4.43648417719504  54.8167280146379 4.63469690389089  54.8167280146379 4.63469690389089  C 54.8167280146379 4.63469690389089  52.2937458989217 5.67381210747805  52.2937458989217 5.67381210747805  C 52.2937458989217 5.67381210747805  48.7938006485763 6.04821392457035  48.7938006485763 6.04821392457035  C 48.7938006485763 6.04821392457035  42.5795093695456 7.81210697728767  42.5795093695456 7.81210697728767  C 42.5795093695456 7.81210697728767  33.0654692034428 8.48482895880046  33.0654692034428 8.48482895880046  C 33.0654692034428 8.48482895880046  26.4105373353401 9.93638680581551  26.4105373353401 9.93638680581551  C 26.4105373353401 9.93638680581551  22.905556192548 9.91836746702492  22.905556192548 9.91836746702492  C 22.905556192548 9.91836746702492  19.7203542201113 7.54181689542946  19.7203542201113 7.54181689542946  C 19.7203542201113 7.54181689542946  18.3354837973131 5.19329640639725  18.3354837973131 5.19329640639725  C 18.3354837973131 5.19329640639725  16.0391168416907 4.14417045903776  16.0391168416907 4.14417045903776  C 16.0391168416907 4.14417045903776  13.4380783930525 7.18543441712807  13.4380783930525 7.18543441712807  C 13.4380783930525 7.18543441712807  11.8996132506348 9.19759391540389  11.8996132506348 9.19759391540389  C 11.8996132506348 9.19759391540389  14.5056875917193 12.3189438236742  14.5056875917193 12.3189438236742  C 14.5056875917193 12.3189438236742  17.1092439865802 15.0438682785531  17.1092439865802 15.0438682785531  C 17.1092439865802 15.0438682785531  19.8059643917027 17.0600320743377  19.8059643917027 17.0600320743377  C 19.8059643917027 17.0600320743377  44.7172457131023 23.7552175093965  44.7172457131023 23.7552175093965  C 44.7172457131023 23.7552175093965  50.6570808537961 23.7191788318153  50.6570808537961 23.7191788318153  C 50.6570808537961 23.7191788318153  28.8756066879212 42.0238082042597  28.8756066879212 42.0238082042597  C 28.8756066879212 42.0238082042597  19.680067080539 42.2700725010635  19.680067080539 42.2700725010635  C 19.680067080539 42.2700725010635  13.3877194685872 46.2123033986804  13.3877194685872 46.2123033986804  C 13.3877194685872 46.2123033986804  8.8604521591478 46.3164151339145  8.8604521591478 46.3164151339145  C 8.8604521591478 46.3164151339145  6.92918740589945 48.0783060378774  6.92918740589945 48.0783060378774  C 6.92918740589945 48.0783060378774  0.760219158888176 54.4151068458801  0.760219158888176 54.4151068458801  C 0.760219158888176 54.4151068458801  0.843311384255962 74.7329124065784  0.843311384255962 74.7329124065784  C 0.843311384255962 74.7329124065784  5.02562006110771 79.3358523931813  5.02562006110771 79.3358523931813  C 5.02562006110771 79.3358523931813  6.61948002043739 78.0144342152092  6.61948002043739 78.0144342152092  C 6.61948002043739 78.0144342152092  8.24607328066998 75.0732776948439  8.24607328066998 75.0732776948439  C 8.24607328066998 75.0732776948439  15.9736502398857 68.3180277971501  15.9736502398857 68.3180277971501  C 15.9736502398857 68.3180277971501  22.5530437212901 64.0774767351124  22.5530437212901 64.0774767351124  C 22.5530437212901 64.0774767351124  33.1158281279081 58.5395332801566  33.1158281279081 58.5395332801566  C 33.1158281279081 58.5395332801566  42.0079355768636 54.0206835412428  42.0079355768636 54.0206835412428  C 42.0079355768636 54.0206835412428  50.312122221208 46.3985032328492  50.312122221208 46.3985032328492  C 50.312122221208 46.3985032328492  56.3400854797164 38.6792343254634  56.3400854797164 38.6792343254634  C 56.3400854797164 38.6792343254634  62.3982640929041 30.4584115394732  62.3982640929041 30.4584115394732  C 62.3982640929041 30.4584115394732  66.7643828440546 23.2767039570701  66.7643828440546 23.2767039570701  C 66.7643828440546 23.2767039570701  70.1610922992459 16.9759418266486  70.1610922992459 16.9759418266486  C 70.1610922992459 16.9759418266486  72.1502698156289 10.8593773816415  72.1502698156289 10.8593773816415  C 72.1502698156289 10.8593773816415  73.643411926028 8.80917705703012  73.643411926028 8.80917705703012  C 73.643411926028 8.80917705703012  73.6157145175722 5.82397326406598  73.6157145175722 5.82397326406598  Z " stroke-width="2" stroke="#505050" fill="none" stroke-opacity="0.211764705882353" transform="matrix(1 0 0 1 2130 4275 )" mask="url(#clip222)" />
  </g>
</svg>