<?xml version="1.0" encoding="utf-8"?>
<svg version="1.1" xmlns:xlink="http://www.w3.org/1999/xlink" width="33px" height="27px" xmlns="http://www.w3.org/2000/svg">
  <defs>
    <mask fill="white" id="clip223">
      <path d="M 5.64249014229017 6.55577014568247  C 5.64249014229017 6.55577014568247  6.77303680566638 1.63240074015567  6.77303680566638 1.63240074015567  C 6.77303680566638 1.63240074015567  17.0829465726615 2.72974290801438  17.0829465726615 2.72974290801438  C 17.0829465726615 2.72974290801438  17.8450561537765 1.74193935227721  17.8450561537765 1.74193935227721  C 17.8450561537765 1.74193935227721  23.5659250954589 1.34681792998227  23.5659250954589 1.34681792998227  C 23.5659250954589 1.34681792998227  31.1718796566547 2.81776500704079  31.1718796566547 2.81776500704079  C 31.1718796566547 2.81776500704079  27.4900323757042 7.52205718832451  27.4900323757042 7.52205718832451  C 27.4900323757042 7.52205718832451  28.0502586240737 11.2620183736114  28.0502586240737 11.2620183736114  C 28.0502586240737 11.2620183736114  30.8286779909869 15.9183721560608  30.8286779909869 15.9183721560608  C 30.8286779909869 15.9183721560608  29.5896190362598 18.2675841767353  29.5896190362598 18.2675841767353  C 29.5896190362598 18.2675841767353  28.9688277880668 20.7615436491416  28.9688277880668 20.7615436491416  C 28.9688277880668 20.7615436491416  27.1644955016518 23.0559863637553  27.1644955016518 23.0559863637553  C 27.1644955016518 23.0559863637553  23.111687596781 21.8999627965459  23.111687596781 21.8999627965459  C 23.111687596781 21.8999627965459  19.7679948981797 22.4574360903779  19.7679948981797 22.4574360903779  C 19.7679948981797 22.4574360903779  16.9138692814869 21.9723365224117  16.9138692814869 21.9723365224117  C 16.9138692814869 21.9723365224117  14.3739442835434 23.5508661649465  14.3739442835434 23.5508661649465  C 14.3739442835434 23.5508661649465  17.3933421967581 24.6345160062901  17.3933421967581 24.6345160062901  C 17.3933421967581 24.6345160062901  16.7574096986089 25.7494625939541  16.7574096986089 25.7494625939541  C 16.7574096986089 25.7494625939541  11.0756753348101 25.3034839588885  11.0756753348101 25.3034839588885  C 11.0756753348101 25.3034839588885  6.755372014051 20.562026891349  6.755372014051 20.562026891349  C 6.755372014051 20.562026891349  5.82670868342075 17.4832094720805  5.82670868342075 17.4832094720805  C 5.82670868342075 17.4832094720805  3.56056827334974 17.4773413321454  3.56056827334974 17.4773413321454  C 3.56056827334974 17.4773413321454  0.423805990813018 12.0913821511017  0.423805990813018 12.0913821511017  C 0.423805990813018 12.0913821511017  1.7284770286822 9.27271893562165  1.7284770286822 9.27271893562165  C 1.7284770286822 9.27271893562165  1.34742223812467 7.9836841965504  1.34742223812467 7.9836841965504  C 1.34742223812467 7.9836841965504  5.64249014229017 6.55577014568247  5.64249014229017 6.55577014568247  Z " fill-rule="evenodd" />
    </mask>
  </defs>
  <g transform="matrix(1 0 0 1 -1426 -4306 )">
    <path d="M 5.64249014229017 6.55577014568247  C 5.64249014229017 6.55577014568247  6.77303680566638 1.63240074015567  6.77303680566638 1.63240074015567  C 6.77303680566638 1.63240074015567  17.0829465726615 2.72974290801438  17.0829465726615 2.72974290801438  C 17.0829465726615 2.72974290801438  17.8450561537765 1.74193935227721  17.8450561537765 1.74193935227721  C 17.8450561537765 1.74193935227721  23.5659250954589 1.34681792998227  23.5659250954589 1.34681792998227  C 23.5659250954589 1.34681792998227  31.1718796566547 2.81776500704079  31.1718796566547 2.81776500704079  C 31.1718796566547 2.81776500704079  27.4900323757042 7.52205718832451  27.4900323757042 7.52205718832451  C 27.4900323757042 7.52205718832451  28.0502586240737 11.2620183736114  28.0502586240737 11.2620183736114  C 28.0502586240737 11.2620183736114  30.8286779909869 15.9183721560608  30.8286779909869 15.9183721560608  C 30.8286779909869 15.9183721560608  29.5896190362598 18.2675841767353  29.5896190362598 18.2675841767353  C 29.5896190362598 18.2675841767353  28.9688277880668 20.7615436491416  28.9688277880668 20.7615436491416  C 28.9688277880668 20.7615436491416  27.1644955016518 23.0559863637553  27.1644955016518 23.0559863637553  C 27.1644955016518 23.0559863637553  23.111687596781 21.8999627965459  23.111687596781 21.8999627965459  C 23.111687596781 21.8999627965459  19.7679948981797 22.4574360903779  19.7679948981797 22.4574360903779  C 19.7679948981797 22.4574360903779  16.9138692814869 21.9723365224117  16.9138692814869 21.9723365224117  C 16.9138692814869 21.9723365224117  14.3739442835434 23.5508661649465  14.3739442835434 23.5508661649465  C 14.3739442835434 23.5508661649465  17.3933421967581 24.6345160062901  17.3933421967581 24.6345160062901  C 17.3933421967581 24.6345160062901  16.7574096986089 25.7494625939541  16.7574096986089 25.7494625939541  C 16.7574096986089 25.7494625939541  11.0756753348101 25.3034839588885  11.0756753348101 25.3034839588885  C 11.0756753348101 25.3034839588885  6.755372014051 20.562026891349  6.755372014051 20.562026891349  C 6.755372014051 20.562026891349  5.82670868342075 17.4832094720805  5.82670868342075 17.4832094720805  C 5.82670868342075 17.4832094720805  3.56056827334974 17.4773413321454  3.56056827334974 17.4773413321454  C 3.56056827334974 17.4773413321454  0.423805990813018 12.0913821511017  0.423805990813018 12.0913821511017  C 0.423805990813018 12.0913821511017  1.7284770286822 9.27271893562165  1.7284770286822 9.27271893562165  C 1.7284770286822 9.27271893562165  1.34742223812467 7.9836841965504  1.34742223812467 7.9836841965504  C 1.34742223812467 7.9836841965504  5.64249014229017 6.55577014568247  5.64249014229017 6.55577014568247  Z " fill-rule="nonzero" fill="#f2f2f2" stroke="none" transform="matrix(1 0 0 1 1426 4306 )" />
    <path d="M 5.64249014229017 6.55577014568247  C 5.64249014229017 6.55577014568247  6.77303680566638 1.63240074015567  6.77303680566638 1.63240074015567  C 6.77303680566638 1.63240074015567  17.0829465726615 2.72974290801438  17.0829465726615 2.72974290801438  C 17.0829465726615 2.72974290801438  17.8450561537765 1.74193935227721  17.8450561537765 1.74193935227721  C 17.8450561537765 1.74193935227721  23.5659250954589 1.34681792998227  23.5659250954589 1.34681792998227  C 23.5659250954589 1.34681792998227  31.1718796566547 2.81776500704079  31.1718796566547 2.81776500704079  C 31.1718796566547 2.81776500704079  27.4900323757042 7.52205718832451  27.4900323757042 7.52205718832451  C 27.4900323757042 7.52205718832451  28.0502586240737 11.2620183736114  28.0502586240737 11.2620183736114  C 28.0502586240737 11.2620183736114  30.8286779909869 15.9183721560608  30.8286779909869 15.9183721560608  C 30.8286779909869 15.9183721560608  29.5896190362598 18.2675841767353  29.5896190362598 18.2675841767353  C 29.5896190362598 18.2675841767353  28.9688277880668 20.7615436491416  28.9688277880668 20.7615436491416  C 28.9688277880668 20.7615436491416  27.1644955016518 23.0559863637553  27.1644955016518 23.0559863637553  C 27.1644955016518 23.0559863637553  23.111687596781 21.8999627965459  23.111687596781 21.8999627965459  C 23.111687596781 21.8999627965459  19.7679948981797 22.4574360903779  19.7679948981797 22.4574360903779  C 19.7679948981797 22.4574360903779  16.9138692814869 21.9723365224117  16.9138692814869 21.9723365224117  C 16.9138692814869 21.9723365224117  14.3739442835434 23.5508661649465  14.3739442835434 23.5508661649465  C 14.3739442835434 23.5508661649465  17.3933421967581 24.6345160062901  17.3933421967581 24.6345160062901  C 17.3933421967581 24.6345160062901  16.7574096986089 25.7494625939541  16.7574096986089 25.7494625939541  C 16.7574096986089 25.7494625939541  11.0756753348101 25.3034839588885  11.0756753348101 25.3034839588885  C 11.0756753348101 25.3034839588885  6.755372014051 20.562026891349  6.755372014051 20.562026891349  C 6.755372014051 20.562026891349  5.82670868342075 17.4832094720805  5.82670868342075 17.4832094720805  C 5.82670868342075 17.4832094720805  3.56056827334974 17.4773413321454  3.56056827334974 17.4773413321454  C 3.56056827334974 17.4773413321454  0.423805990813018 12.0913821511017  0.423805990813018 12.0913821511017  C 0.423805990813018 12.0913821511017  1.7284770286822 9.27271893562165  1.7284770286822 9.27271893562165  C 1.7284770286822 9.27271893562165  1.34742223812467 7.9836841965504  1.34742223812467 7.9836841965504  C 1.34742223812467 7.9836841965504  5.64249014229017 6.55577014568247  5.64249014229017 6.55577014568247  Z " stroke-width="2" stroke="#505050" fill="none" stroke-opacity="0.211764705882353" transform="matrix(1 0 0 1 1426 4306 )" mask="url(#clip223)" />
  </g>
</svg>