<?xml version="1.0" encoding="utf-8"?>
<svg version="1.1" xmlns:xlink="http://www.w3.org/1999/xlink" width="84px" height="51px" xmlns="http://www.w3.org/2000/svg">
  <defs>
    <mask fill="white" id="clip224">
      <path d="M 72.6719975312555 16.3788190469119  C 72.6719975312555 16.3788190469119  73.6472615995631 16.488019576897  73.6472615995631 16.488019576897  C 73.6472615995631 16.488019576897  73.7302093167129 20.778040397744  73.7302093167129 20.778040397744  C 73.7302093167129 20.778040397744  72.6770246656284 22.4550485368023  72.6770246656284 22.4550485368023  C 72.6770246656284 22.4550485368023  68.9343231251382 22.5895991898199  68.9343231251382 22.5895991898199  C 68.9343231251382 22.5895991898199  66.5338664621641 27.1301810178487  66.5338664621641 27.1301810178487  C 66.5338664621641 27.1301810178487  70.8647427242624 27.524082929581  70.8647427242624 27.524082929581  C 70.8647427242624 27.524082929581  74.4340081288935 30.1936458858261  74.4340081288935 30.1936458858261  C 74.4340081288935 30.1936458858261  75.6706831845828 32.381556504458  75.6706831845828 32.381556504458  C 75.6706831845828 32.381556504458  78.8880491831238 33.6510126655359  78.8880491831238 33.6510126655359  C 78.8880491831238 33.6510126655359  83.0555435781085 39.5926915024089  83.0555435781085 39.5926915024089  C 83.0555435781085 39.5926915024089  78.2772523568383 43.1865589446004  78.2772523568383 43.1865589446004  C 78.2772523568383 43.1865589446004  73.941348960367 46.4411247400521  73.941348960367 46.4411247400521  C 73.941348960367 46.4411247400521  69.6079591310824 48.9449368918552  69.6079591310824 48.9449368918552  C 69.6079591310824 48.9449368918552  64.6486910723941 48.9312868256072  64.6486910723941 48.9312868256072  C 64.6486910723941 48.9312868256072  58.9755699327798 50.2065930150771  58.9755699327798 50.2065930150771  C 58.9755699327798 50.2065930150771  54.4938796394997 48.989787109528  54.4938796394997 48.989787109528  C 54.4938796394997 48.989787109528  51.5932231064404 50.4717943021842  51.5932231064404 50.4717943021842  C 51.5932231064404 50.4717943021842  45.3872257233178 46.8545267464246  45.3872257233178 46.8545267464246  C 45.3872257233178 46.8545267464246  43.7131899772018 44.5301154653111  43.7131899772018 44.5301154653111  C 43.7131899772018 44.5301154653111  37.9634246427718 45.6806210490837  37.9634246427718 45.6806210490837  C 37.9634246427718 45.6806210490837  34.703328002063 45.3237693171678  34.703328002063 45.3237693171678  C 34.703328002063 45.3237693171678  32.8181526122931 46.2383237557937  32.8181526122931 46.2383237557937  C 32.8181526122931 46.2383237557937  29.6535715246659 45.5772705474904  29.6535715246659 45.5772705474904  C 29.6535715246659 45.5772705474904  25.3830208750401 41.0785987139932  25.3830208750401 41.0785987139932  C 25.3830208750401 41.0785987139932  24.2494020739917 39.3489403194062  24.2494020739917 39.3489403194062  C 24.2494020739917 39.3489403194062  18.980965251381 37.1883298332708  18.980965251381 37.1883298332708  C 18.980965251381 37.1883298332708  17.2013596834384 33.9103639242509  17.2013596834384 33.9103639242509  C 17.2013596834384 33.9103639242509  14.2655132097699 31.5430524349289  14.2655132097699 31.5430524349289  C 14.2655132097699 31.5430524349289  9.52492549629504 28.6921385985295  9.52492549629504 28.6921385985295  C 9.52492549629504 28.6921385985295  9.45957274944973 26.9098299484141  9.45957274944973 26.9098299484141  C 9.45957274944973 26.9098299484141  5.60124711838699 23.2779525306194  5.60124711838699 23.2779525306194  C 5.60124711838699 23.2779525306194  0.807874493998576 21.132942120196  0.807874493998576 21.132942120196  C 0.807874493998576 21.132942120196  2.9695422742682 20.5342892147414  2.9695422742682 20.5342892147414  C 2.9695422742682 20.5342892147414  5.39010747473284 19.496884179882  5.39010747473284 19.496884179882  C 5.39010747473284 19.496884179882  7.20490298328481 14.5828603305481  7.20490298328481 14.5828603305481  C 7.20490298328481 14.5828603305481  9.14034971678186 12.0244479137523  9.14034971678186 12.0244479137523  C 9.14034971678186 12.0244479137523  14.2227825676019 11.2678442417117  14.2227825676019 11.2678442417117  C 14.2227825676019 11.2678442417117  15.431808384241 12.7830015952565  15.431808384241 12.7830015952565  C 15.431808384241 12.7830015952565  19.0613994013448 16.0005172108917  19.0613994013448 16.0005172108917  C 19.0613994013448 16.0005172108917  20.9993597020283 16.472419501185  20.9993597020283 16.472419501185  C 20.9993597020283 16.472419501185  23.538062560252 15.5286149205983  23.538062560252 15.5286149205983  C 23.538062560252 15.5286149205983  28.6204954110718 15.7177658386087  28.6204954110718 15.7177658386087  C 28.6204954110718 15.7177658386087  29.5882187778203 16.8526713466689  29.5882187778203 16.8526713466689  C 29.5882187778203 16.8526713466689  36.6060983621374 16.8526713466689  36.6060983621374 16.8526713466689  C 36.6060983621374 16.8526713466689  36.847400812028 15.7177658386087  36.847400812028 15.7177658386087  C 36.847400812028 15.7177658386087  40.4769918291318 14.6764607848212  40.4769918291318 14.6764607848212  C 40.4769918291318 14.6764607848212  43.0294997025119 13.0677029770034  43.0294997025119 13.0677029770034  C 43.0294997025119 13.0677029770034  45.6913673528673 11.928897450015  45.6913673528673 11.928897450015  C 45.6913673528673 11.928897450015  51.6208723454902 15.1503130845784  51.6208723454902 15.1503130845784  C 51.6208723454902 15.1503130845784  55.2504633625943 14.5828603305481  55.2504633625943 14.5828603305481  C 55.2504633625943 14.5828603305481  58.7594031547528 10.6028910144806  58.7594031547528 10.6028910144806  C 58.7594031547528 10.6028910144806  62.6302966217473 7.56477626953542  62.6302966217473 7.56477626953542  C 62.6302966217473 7.56477626953542  62.0245269298342 4.23611011445092  62.0245269298342 4.23611011445092  C 62.0245269298342 4.23611011445092  60.332896213414 2.61565224984931  60.332896213414 2.61565224984931  C 60.332896213414 2.61565224984931  64.5657433552444 2.32900085863813  64.5657433552444 2.32900085863813  C 64.5657433552444 2.32900085863813  65.0508618222121 1.0887948395204  65.0508618222121 1.0887948395204  C 65.0508618222121 1.0887948395204  68.3159855972936 1.47099669446853  68.3159855972936 1.47099669446853  C 68.3159855972936 1.47099669446853  67.4689134554904 5.56796657837744  67.4689134554904 5.56796657837744  C 67.4689134554904 5.56796657837744  68.3159855972936 9.55963595122915  68.3159855972936 9.55963595122915  C 68.3159855972936 9.55963595122915  71.9455766143971 11.739746532005  71.9455766143971 11.739746532005  C 71.9455766143971 11.739746532005  72.7926487562008 13.6351557310336  72.7926487562008 13.6351557310336  C 72.7926487562008 13.6351557310336  72.6719975312555 16.3788190469119  72.6719975312555 16.3788190469119  Z " fill-rule="evenodd" />
    </mask>
  </defs>
  <g transform="matrix(1 0 0 1 -2010 -4273 )">
    <path d="M 72.6719975312555 16.3788190469119  C 72.6719975312555 16.3788190469119  73.6472615995631 16.488019576897  73.6472615995631 16.488019576897  C 73.6472615995631 16.488019576897  73.7302093167129 20.778040397744  73.7302093167129 20.778040397744  C 73.7302093167129 20.778040397744  72.6770246656284 22.4550485368023  72.6770246656284 22.4550485368023  C 72.6770246656284 22.4550485368023  68.9343231251382 22.5895991898199  68.9343231251382 22.5895991898199  C 68.9343231251382 22.5895991898199  66.5338664621641 27.1301810178487  66.5338664621641 27.1301810178487  C 66.5338664621641 27.1301810178487  70.8647427242624 27.524082929581  70.8647427242624 27.524082929581  C 70.8647427242624 27.524082929581  74.4340081288935 30.1936458858261  74.4340081288935 30.1936458858261  C 74.4340081288935 30.1936458858261  75.6706831845828 32.381556504458  75.6706831845828 32.381556504458  C 75.6706831845828 32.381556504458  78.8880491831238 33.6510126655359  78.8880491831238 33.6510126655359  C 78.8880491831238 33.6510126655359  83.0555435781085 39.5926915024089  83.0555435781085 39.5926915024089  C 83.0555435781085 39.5926915024089  78.2772523568383 43.1865589446004  78.2772523568383 43.1865589446004  C 78.2772523568383 43.1865589446004  73.941348960367 46.4411247400521  73.941348960367 46.4411247400521  C 73.941348960367 46.4411247400521  69.6079591310824 48.9449368918552  69.6079591310824 48.9449368918552  C 69.6079591310824 48.9449368918552  64.6486910723941 48.9312868256072  64.6486910723941 48.9312868256072  C 64.6486910723941 48.9312868256072  58.9755699327798 50.2065930150771  58.9755699327798 50.2065930150771  C 58.9755699327798 50.2065930150771  54.4938796394997 48.989787109528  54.4938796394997 48.989787109528  C 54.4938796394997 48.989787109528  51.5932231064404 50.4717943021842  51.5932231064404 50.4717943021842  C 51.5932231064404 50.4717943021842  45.3872257233178 46.8545267464246  45.3872257233178 46.8545267464246  C 45.3872257233178 46.8545267464246  43.7131899772018 44.5301154653111  43.7131899772018 44.5301154653111  C 43.7131899772018 44.5301154653111  37.9634246427718 45.6806210490837  37.9634246427718 45.6806210490837  C 37.9634246427718 45.6806210490837  34.703328002063 45.3237693171678  34.703328002063 45.3237693171678  C 34.703328002063 45.3237693171678  32.8181526122931 46.2383237557937  32.8181526122931 46.2383237557937  C 32.8181526122931 46.2383237557937  29.6535715246659 45.5772705474904  29.6535715246659 45.5772705474904  C 29.6535715246659 45.5772705474904  25.3830208750401 41.0785987139932  25.3830208750401 41.0785987139932  C 25.3830208750401 41.0785987139932  24.2494020739917 39.3489403194062  24.2494020739917 39.3489403194062  C 24.2494020739917 39.3489403194062  18.980965251381 37.1883298332708  18.980965251381 37.1883298332708  C 18.980965251381 37.1883298332708  17.2013596834384 33.9103639242509  17.2013596834384 33.9103639242509  C 17.2013596834384 33.9103639242509  14.2655132097699 31.5430524349289  14.2655132097699 31.5430524349289  C 14.2655132097699 31.5430524349289  9.52492549629504 28.6921385985295  9.52492549629504 28.6921385985295  C 9.52492549629504 28.6921385985295  9.45957274944973 26.9098299484141  9.45957274944973 26.9098299484141  C 9.45957274944973 26.9098299484141  5.60124711838699 23.2779525306194  5.60124711838699 23.2779525306194  C 5.60124711838699 23.2779525306194  0.807874493998576 21.132942120196  0.807874493998576 21.132942120196  C 0.807874493998576 21.132942120196  2.9695422742682 20.5342892147414  2.9695422742682 20.5342892147414  C 2.9695422742682 20.5342892147414  5.39010747473284 19.496884179882  5.39010747473284 19.496884179882  C 5.39010747473284 19.496884179882  7.20490298328481 14.5828603305481  7.20490298328481 14.5828603305481  C 7.20490298328481 14.5828603305481  9.14034971678186 12.0244479137523  9.14034971678186 12.0244479137523  C 9.14034971678186 12.0244479137523  14.2227825676019 11.2678442417117  14.2227825676019 11.2678442417117  C 14.2227825676019 11.2678442417117  15.431808384241 12.7830015952565  15.431808384241 12.7830015952565  C 15.431808384241 12.7830015952565  19.0613994013448 16.0005172108917  19.0613994013448 16.0005172108917  C 19.0613994013448 16.0005172108917  20.9993597020283 16.472419501185  20.9993597020283 16.472419501185  C 20.9993597020283 16.472419501185  23.538062560252 15.5286149205983  23.538062560252 15.5286149205983  C 23.538062560252 15.5286149205983  28.6204954110718 15.7177658386087  28.6204954110718 15.7177658386087  C 28.6204954110718 15.7177658386087  29.5882187778203 16.8526713466689  29.5882187778203 16.8526713466689  C 29.5882187778203 16.8526713466689  36.6060983621374 16.8526713466689  36.6060983621374 16.8526713466689  C 36.6060983621374 16.8526713466689  36.847400812028 15.7177658386087  36.847400812028 15.7177658386087  C 36.847400812028 15.7177658386087  40.4769918291318 14.6764607848212  40.4769918291318 14.6764607848212  C 40.4769918291318 14.6764607848212  43.0294997025119 13.0677029770034  43.0294997025119 13.0677029770034  C 43.0294997025119 13.0677029770034  45.6913673528673 11.928897450015  45.6913673528673 11.928897450015  C 45.6913673528673 11.928897450015  51.6208723454902 15.1503130845784  51.6208723454902 15.1503130845784  C 51.6208723454902 15.1503130845784  55.2504633625943 14.5828603305481  55.2504633625943 14.5828603305481  C 55.2504633625943 14.5828603305481  58.7594031547528 10.6028910144806  58.7594031547528 10.6028910144806  C 58.7594031547528 10.6028910144806  62.6302966217473 7.56477626953542  62.6302966217473 7.56477626953542  C 62.6302966217473 7.56477626953542  62.0245269298342 4.23611011445092  62.0245269298342 4.23611011445092  C 62.0245269298342 4.23611011445092  60.332896213414 2.61565224984931  60.332896213414 2.61565224984931  C 60.332896213414 2.61565224984931  64.5657433552444 2.32900085863813  64.5657433552444 2.32900085863813  C 64.5657433552444 2.32900085863813  65.0508618222121 1.0887948395204  65.0508618222121 1.0887948395204  C 65.0508618222121 1.0887948395204  68.3159855972936 1.47099669446853  68.3159855972936 1.47099669446853  C 68.3159855972936 1.47099669446853  67.4689134554904 5.56796657837744  67.4689134554904 5.56796657837744  C 67.4689134554904 5.56796657837744  68.3159855972936 9.55963595122915  68.3159855972936 9.55963595122915  C 68.3159855972936 9.55963595122915  71.9455766143971 11.739746532005  71.9455766143971 11.739746532005  C 71.9455766143971 11.739746532005  72.7926487562008 13.6351557310336  72.7926487562008 13.6351557310336  C 72.7926487562008 13.6351557310336  72.6719975312555 16.3788190469119  72.6719975312555 16.3788190469119  Z " fill-rule="nonzero" fill="#f2f2f2" stroke="none" transform="matrix(1 0 0 1 2010 4273 )" />
    <path d="M 72.6719975312555 16.3788190469119  C 72.6719975312555 16.3788190469119  73.6472615995631 16.488019576897  73.6472615995631 16.488019576897  C 73.6472615995631 16.488019576897  73.7302093167129 20.778040397744  73.7302093167129 20.778040397744  C 73.7302093167129 20.778040397744  72.6770246656284 22.4550485368023  72.6770246656284 22.4550485368023  C 72.6770246656284 22.4550485368023  68.9343231251382 22.5895991898199  68.9343231251382 22.5895991898199  C 68.9343231251382 22.5895991898199  66.5338664621641 27.1301810178487  66.5338664621641 27.1301810178487  C 66.5338664621641 27.1301810178487  70.8647427242624 27.524082929581  70.8647427242624 27.524082929581  C 70.8647427242624 27.524082929581  74.4340081288935 30.1936458858261  74.4340081288935 30.1936458858261  C 74.4340081288935 30.1936458858261  75.6706831845828 32.381556504458  75.6706831845828 32.381556504458  C 75.6706831845828 32.381556504458  78.8880491831238 33.6510126655359  78.8880491831238 33.6510126655359  C 78.8880491831238 33.6510126655359  83.0555435781085 39.5926915024089  83.0555435781085 39.5926915024089  C 83.0555435781085 39.5926915024089  78.2772523568383 43.1865589446004  78.2772523568383 43.1865589446004  C 78.2772523568383 43.1865589446004  73.941348960367 46.4411247400521  73.941348960367 46.4411247400521  C 73.941348960367 46.4411247400521  69.6079591310824 48.9449368918552  69.6079591310824 48.9449368918552  C 69.6079591310824 48.9449368918552  64.6486910723941 48.9312868256072  64.6486910723941 48.9312868256072  C 64.6486910723941 48.9312868256072  58.9755699327798 50.2065930150771  58.9755699327798 50.2065930150771  C 58.9755699327798 50.2065930150771  54.4938796394997 48.989787109528  54.4938796394997 48.989787109528  C 54.4938796394997 48.989787109528  51.5932231064404 50.4717943021842  51.5932231064404 50.4717943021842  C 51.5932231064404 50.4717943021842  45.3872257233178 46.8545267464246  45.3872257233178 46.8545267464246  C 45.3872257233178 46.8545267464246  43.7131899772018 44.5301154653111  43.7131899772018 44.5301154653111  C 43.7131899772018 44.5301154653111  37.9634246427718 45.6806210490837  37.9634246427718 45.6806210490837  C 37.9634246427718 45.6806210490837  34.703328002063 45.3237693171678  34.703328002063 45.3237693171678  C 34.703328002063 45.3237693171678  32.8181526122931 46.2383237557937  32.8181526122931 46.2383237557937  C 32.8181526122931 46.2383237557937  29.6535715246659 45.5772705474904  29.6535715246659 45.5772705474904  C 29.6535715246659 45.5772705474904  25.3830208750401 41.0785987139932  25.3830208750401 41.0785987139932  C 25.3830208750401 41.0785987139932  24.2494020739917 39.3489403194062  24.2494020739917 39.3489403194062  C 24.2494020739917 39.3489403194062  18.980965251381 37.1883298332708  18.980965251381 37.1883298332708  C 18.980965251381 37.1883298332708  17.2013596834384 33.9103639242509  17.2013596834384 33.9103639242509  C 17.2013596834384 33.9103639242509  14.2655132097699 31.5430524349289  14.2655132097699 31.5430524349289  C 14.2655132097699 31.5430524349289  9.52492549629504 28.6921385985295  9.52492549629504 28.6921385985295  C 9.52492549629504 28.6921385985295  9.45957274944973 26.9098299484141  9.45957274944973 26.9098299484141  C 9.45957274944973 26.9098299484141  5.60124711838699 23.2779525306194  5.60124711838699 23.2779525306194  C 5.60124711838699 23.2779525306194  0.807874493998576 21.132942120196  0.807874493998576 21.132942120196  C 0.807874493998576 21.132942120196  2.9695422742682 20.5342892147414  2.9695422742682 20.5342892147414  C 2.9695422742682 20.5342892147414  5.39010747473284 19.496884179882  5.39010747473284 19.496884179882  C 5.39010747473284 19.496884179882  7.20490298328481 14.5828603305481  7.20490298328481 14.5828603305481  C 7.20490298328481 14.5828603305481  9.14034971678186 12.0244479137523  9.14034971678186 12.0244479137523  C 9.14034971678186 12.0244479137523  14.2227825676019 11.2678442417117  14.2227825676019 11.2678442417117  C 14.2227825676019 11.2678442417117  15.431808384241 12.7830015952565  15.431808384241 12.7830015952565  C 15.431808384241 12.7830015952565  19.0613994013448 16.0005172108917  19.0613994013448 16.0005172108917  C 19.0613994013448 16.0005172108917  20.9993597020283 16.472419501185  20.9993597020283 16.472419501185  C 20.9993597020283 16.472419501185  23.538062560252 15.5286149205983  23.538062560252 15.5286149205983  C 23.538062560252 15.5286149205983  28.6204954110718 15.7177658386087  28.6204954110718 15.7177658386087  C 28.6204954110718 15.7177658386087  29.5882187778203 16.8526713466689  29.5882187778203 16.8526713466689  C 29.5882187778203 16.8526713466689  36.6060983621374 16.8526713466689  36.6060983621374 16.8526713466689  C 36.6060983621374 16.8526713466689  36.847400812028 15.7177658386087  36.847400812028 15.7177658386087  C 36.847400812028 15.7177658386087  40.4769918291318 14.6764607848212  40.4769918291318 14.6764607848212  C 40.4769918291318 14.6764607848212  43.0294997025119 13.0677029770034  43.0294997025119 13.0677029770034  C 43.0294997025119 13.0677029770034  45.6913673528673 11.928897450015  45.6913673528673 11.928897450015  C 45.6913673528673 11.928897450015  51.6208723454902 15.1503130845784  51.6208723454902 15.1503130845784  C 51.6208723454902 15.1503130845784  55.2504633625943 14.5828603305481  55.2504633625943 14.5828603305481  C 55.2504633625943 14.5828603305481  58.7594031547528 10.6028910144806  58.7594031547528 10.6028910144806  C 58.7594031547528 10.6028910144806  62.6302966217473 7.56477626953542  62.6302966217473 7.56477626953542  C 62.6302966217473 7.56477626953542  62.0245269298342 4.23611011445092  62.0245269298342 4.23611011445092  C 62.0245269298342 4.23611011445092  60.332896213414 2.61565224984931  60.332896213414 2.61565224984931  C 60.332896213414 2.61565224984931  64.5657433552444 2.32900085863813  64.5657433552444 2.32900085863813  C 64.5657433552444 2.32900085863813  65.0508618222121 1.0887948395204  65.0508618222121 1.0887948395204  C 65.0508618222121 1.0887948395204  68.3159855972936 1.47099669446853  68.3159855972936 1.47099669446853  C 68.3159855972936 1.47099669446853  67.4689134554904 5.56796657837744  67.4689134554904 5.56796657837744  C 67.4689134554904 5.56796657837744  68.3159855972936 9.55963595122915  68.3159855972936 9.55963595122915  C 68.3159855972936 9.55963595122915  71.9455766143971 11.739746532005  71.9455766143971 11.739746532005  C 71.9455766143971 11.739746532005  72.7926487562008 13.6351557310336  72.7926487562008 13.6351557310336  C 72.7926487562008 13.6351557310336  72.6719975312555 16.3788190469119  72.6719975312555 16.3788190469119  Z " stroke-width="2" stroke="#505050" fill="none" stroke-opacity="0.211764705882353" transform="matrix(1 0 0 1 2010 4273 )" mask="url(#clip224)" />
  </g>
</svg>