<?xml version="1.0" encoding="utf-8"?>
<svg version="1.1" xmlns:xlink="http://www.w3.org/1999/xlink" width="20px" height="11px" xmlns="http://www.w3.org/2000/svg">
  <defs>
    <mask fill="white" id="clip225">
      <path d="M 19.4320199772111 5.84405401982641  C 19.4320199772111 5.84405401982641  18.9439962183011 8.32721901259924  18.9439962183011 8.32721901259924  C 18.9439962183011 8.32721901259924  18.1656608899878 9.78510507978441  18.1656608899878 9.78510507978441  C 18.1656608899878 9.78510507978441  14.1012989183464 9.69209454434099  14.1012989183464 9.69209454434099  C 14.1012989183464 9.69209454434099  11.5735861157861 9.09942276035154  11.5735861157861 9.09942276035154  C 11.5735861157861 9.09942276035154  6.85479128951783 7.86865544250506  6.85479128951783 7.86865544250506  C 6.85479128951783 7.86865544250506  2.95560659012277 7.48363508648302  2.95560659012277 7.48363508648302  C 2.95560659012277 7.48363508648302  0.968473951278487 6.15120509036124  0.968473951278487 6.15120509036124  C 0.968473951278487 6.15120509036124  1.18620762833065 3.67130152157688  1.18620762833065 3.67130152157688  C 1.18620762833065 3.67130152157688  3.59128881967763 2.10310063328383  3.59128881967763 2.10310063328383  C 3.59128881967763 2.10310063328383  4.90770162576341 1.41741831385096  4.90770162576341 1.41741831385096  C 4.90770162576341 1.41741831385096  4.53480142023719 0.684149208842265  4.53480142023719 0.684149208842265  C 4.53480142023719 0.684149208842265  6.17656339892991 0.301291888528112  6.17656339892991 0.301291888528112  C 6.17656339892991 0.301291888528112  8.24628467389754 0.824746529861873  8.24628467389754 0.824746529861873  C 8.24628467389754 0.824746529861873  11.5760888017293 2.06416599054023  11.5760888017293 2.06416599054023  C 11.5760888017293 2.06416599054023  13.6958637955596 3.06132545192369  13.6958637955596 3.06132545192369  C 13.6958637955596 3.06132545192369  13.9561431336448 3.89625723520768  13.9561431336448 3.89625723520768  C 13.9561431336448 3.89625723520768  17.0344468436935 3.15866205878323  17.0344468436935 3.15866205878323  C 17.0344468436935 3.15866205878323  18.4784966328789 3.59992134321296  18.4784966328789 3.59992134321296  C 18.4784966328789 3.59992134321296  19.4320199772111 5.84405401982641  19.4320199772111 5.84405401982641  Z " fill-rule="evenodd" />
    </mask>
  </defs>
  <g transform="matrix(1 0 0 1 -1197 -4261 )">
    <path d="M 19.4320199772111 5.84405401982641  C 19.4320199772111 5.84405401982641  18.9439962183011 8.32721901259924  18.9439962183011 8.32721901259924  C 18.9439962183011 8.32721901259924  18.1656608899878 9.78510507978441  18.1656608899878 9.78510507978441  C 18.1656608899878 9.78510507978441  14.1012989183464 9.69209454434099  14.1012989183464 9.69209454434099  C 14.1012989183464 9.69209454434099  11.5735861157861 9.09942276035154  11.5735861157861 9.09942276035154  C 11.5735861157861 9.09942276035154  6.85479128951783 7.86865544250506  6.85479128951783 7.86865544250506  C 6.85479128951783 7.86865544250506  2.95560659012277 7.48363508648302  2.95560659012277 7.48363508648302  C 2.95560659012277 7.48363508648302  0.968473951278487 6.15120509036124  0.968473951278487 6.15120509036124  C 0.968473951278487 6.15120509036124  1.18620762833065 3.67130152157688  1.18620762833065 3.67130152157688  C 1.18620762833065 3.67130152157688  3.59128881967763 2.10310063328383  3.59128881967763 2.10310063328383  C 3.59128881967763 2.10310063328383  4.90770162576341 1.41741831385096  4.90770162576341 1.41741831385096  C 4.90770162576341 1.41741831385096  4.53480142023719 0.684149208842265  4.53480142023719 0.684149208842265  C 4.53480142023719 0.684149208842265  6.17656339892991 0.301291888528112  6.17656339892991 0.301291888528112  C 6.17656339892991 0.301291888528112  8.24628467389754 0.824746529861873  8.24628467389754 0.824746529861873  C 8.24628467389754 0.824746529861873  11.5760888017293 2.06416599054023  11.5760888017293 2.06416599054023  C 11.5760888017293 2.06416599054023  13.6958637955596 3.06132545192369  13.6958637955596 3.06132545192369  C 13.6958637955596 3.06132545192369  13.9561431336448 3.89625723520768  13.9561431336448 3.89625723520768  C 13.9561431336448 3.89625723520768  17.0344468436935 3.15866205878323  17.0344468436935 3.15866205878323  C 17.0344468436935 3.15866205878323  18.4784966328789 3.59992134321296  18.4784966328789 3.59992134321296  C 18.4784966328789 3.59992134321296  19.4320199772111 5.84405401982641  19.4320199772111 5.84405401982641  Z " fill-rule="nonzero" fill="#f2f2f2" stroke="none" transform="matrix(1 0 0 1 1197 4261 )" />
    <path d="M 19.4320199772111 5.84405401982641  C 19.4320199772111 5.84405401982641  18.9439962183011 8.32721901259924  18.9439962183011 8.32721901259924  C 18.9439962183011 8.32721901259924  18.1656608899878 9.78510507978441  18.1656608899878 9.78510507978441  C 18.1656608899878 9.78510507978441  14.1012989183464 9.69209454434099  14.1012989183464 9.69209454434099  C 14.1012989183464 9.69209454434099  11.5735861157861 9.09942276035154  11.5735861157861 9.09942276035154  C 11.5735861157861 9.09942276035154  6.85479128951783 7.86865544250506  6.85479128951783 7.86865544250506  C 6.85479128951783 7.86865544250506  2.95560659012277 7.48363508648302  2.95560659012277 7.48363508648302  C 2.95560659012277 7.48363508648302  0.968473951278487 6.15120509036124  0.968473951278487 6.15120509036124  C 0.968473951278487 6.15120509036124  1.18620762833065 3.67130152157688  1.18620762833065 3.67130152157688  C 1.18620762833065 3.67130152157688  3.59128881967763 2.10310063328383  3.59128881967763 2.10310063328383  C 3.59128881967763 2.10310063328383  4.90770162576341 1.41741831385096  4.90770162576341 1.41741831385096  C 4.90770162576341 1.41741831385096  4.53480142023719 0.684149208842265  4.53480142023719 0.684149208842265  C 4.53480142023719 0.684149208842265  6.17656339892991 0.301291888528112  6.17656339892991 0.301291888528112  C 6.17656339892991 0.301291888528112  8.24628467389754 0.824746529861873  8.24628467389754 0.824746529861873  C 8.24628467389754 0.824746529861873  11.5760888017293 2.06416599054023  11.5760888017293 2.06416599054023  C 11.5760888017293 2.06416599054023  13.6958637955596 3.06132545192369  13.6958637955596 3.06132545192369  C 13.6958637955596 3.06132545192369  13.9561431336448 3.89625723520768  13.9561431336448 3.89625723520768  C 13.9561431336448 3.89625723520768  17.0344468436935 3.15866205878323  17.0344468436935 3.15866205878323  C 17.0344468436935 3.15866205878323  18.4784966328789 3.59992134321296  18.4784966328789 3.59992134321296  C 18.4784966328789 3.59992134321296  19.4320199772111 5.84405401982641  19.4320199772111 5.84405401982641  Z " stroke-width="2" stroke="#505050" fill="none" stroke-opacity="0.211764705882353" transform="matrix(1 0 0 1 1197 4261 )" mask="url(#clip225)" />
  </g>
</svg>