<?xml version="1.0" encoding="utf-8"?>
<svg version="1.1" xmlns:xlink="http://www.w3.org/1999/xlink" width="110px" height="66px" xmlns="http://www.w3.org/2000/svg">
  <defs>
    <mask fill="white" id="clip34">
      <path d="M 3.57488834906458 29.8645454580825  C 3.57488834906458 29.8645454580825  6.50818473883222 21.2905603163709  6.50818473883222 21.2905603163709  C 6.50818473883222 21.2905603163709  13.8452751835791 23.9150436420655  13.8452751835791 23.9150436420655  C 13.8452751835791 23.9150436420655  19.2730283457469 22.9944556447449  19.2730283457469 22.9944556447449  C 19.2730283457469 22.9944556447449  20.7743217735809 19.8511321538937  20.7743217735809 19.8511321538937  C 20.7743217735809 19.8511321538937  26.4535736638304 18.8033576569433  26.4535736638304 18.8033576569433  C 26.4535736638304 18.8033576569433  30.5083490757579 16.6795449964583  30.5083490757579 16.6795449964583  C 30.5083490757579 16.6795449964583  31.9454846647954 11.0570941794893  31.9454846647954 11.0570941794893  C 31.9454846647954 11.0570941794893  38.0096835878229 9.68832518347328  38.0096835878229 9.68832518347328  C 38.0096835878229 9.68832518347328  39.1388615506383 7.16074585749655  39.1388615506383 7.16074585749655  C 39.1388615506383 7.16074585749655  42.5340943797394 9.06046801863405  42.5340943797394 9.06046801863405  C 42.5340943797394 9.06046801863405  44.7026293310545 9.28052085132682  44.7026293310545 9.28052085132682  C 44.7026293310545 9.28052085132682  48.7086447854964 9.32695401785844  48.7086447854964 9.32695401785844  C 48.7086447854964 9.32695401785844  54.136397947665 10.8229095135043  54.136397947665 10.8229095135043  C 54.136397947665 10.8229095135043  58.2001354412635 11.6849513443286  58.2001354412635 11.6849513443286  C 58.2001354412635 11.6849513443286  63.4071856379727 9.41174501761154  63.4071856379727 9.41174501761154  C 63.4071856379727 9.41174501761154  65.8349182580252 10.7784951803003  65.8349182580252 10.7784951803003  C 65.8349182580252 10.7784951803003  68.1548657088999 7.53019235642122  68.1548657088999 7.53019235642122  C 68.1548657088999 7.53019235642122  72.4560072218052 7.67958602265311  72.4560072218052 7.67958602265311  C 72.4560072218052 7.67958602265311  73.5620883626535 6.63383035903025  73.5620883626535 6.63383035903025  C 73.5620883626535 6.63383035903025  74.3242834875539 3.75093636742108  74.3242834875539 3.75093636742108  C 74.3242834875539 3.75093636742108  77.4218239446396 1.25162070802889  77.4218239446396 1.25162070802889  C 77.4218239446396 1.25162070802889  81.317487916352 2.88687570326935  81.317487916352 2.88687570326935  C 81.317487916352 2.88687570326935  80.534762283037 5.07529103023313  80.534762283037 5.07529103023313  C 80.534762283037 5.07529103023313  82.7109961750082 5.41647386257343  82.7109961750082 5.41647386257343  C 82.7109961750082 5.41647386257343  82.0411883379748 11.3841451785375  82.0411883379748 11.3841451785375  C 82.0411883379748 11.3841451785375  84.8872300669789 13.6916716718212  84.8872300669789 13.6916716718212  C 84.8872300669789 13.6916716718212  87.3970847206911 12.211866842795  87.3970847206911 12.211866842795  C 87.3970847206911 12.211866842795  90.5895787791956 11.5113316781673  90.5895787791956 11.5113316781673  C 90.5895787791956 11.5113316781673  95.072928554282 8.33974452073166  95.072928554282 8.33974452073166  C 95.072928554282 8.33974452073166  100.02848002291 8.86262235254318  100.02848002291 8.86262235254318  C 100.02848002291 8.86262235254318  107.450258814867 8.87473535250788  107.450258814867 8.87473535250788  C 107.450258814867 8.87473535250788  108.730849277242 10.9077005132574  108.730849277242 10.9077005132574  C 108.730849277242 10.9077005132574  104.542625560618 11.6990831776208  104.542625560618 11.6990831776208  C 104.542625560618 11.6990831776208  100.885628749228 13.0012306738309  100.885628749228 13.0012306738309  C 100.885628749228 13.0012306738309  92.6272317393667 13.8188581714511  92.6272317393667 13.8188581714511  C 92.6272317393667 13.8188581714511  84.9000616347384 15.2946253338224  84.9000616347384 15.2946253338224  C 84.9000616347384 15.2946253338224  80.7015726639073 18.3390259916282  80.7015726639073 18.3390259916282  C 80.7015726639073 18.3390259916282  82.4004722352339 21.2865226497159  82.4004722352339 21.2865226497159  C 82.4004722352339 21.2865226497159  83.2242588853789 24.7266146397034  83.2242588853789 24.7266146397034  C 83.2242588853789 24.7266146397034  79.6391188534404 27.6135462979674  79.6391188534404 27.6135462979674  C 79.6391188534404 27.6135462979674  79.939377539007 30.2420672903169  79.939377539007 30.2420672903169  C 79.939377539007 30.2420672903169  77.9607497905289 34.1595976165168  77.9607497905289 34.1595976165168  C 77.9607497905289 34.1595976165168  71.1163915477377 33.9476201171338  71.1163915477377 33.9476201171338  C 71.1163915477377 33.9476201171338  73.9444690818793 38.4274112707617  73.9444690818793 38.4274112707617  C 73.9444690818793 38.4274112707617  69.3661657053746 40.1313065991358  69.3661657053746 40.1313065991358  C 69.3661657053746 40.1313065991358  66.309686265118 44.1770485873604  66.309686265118 44.1770485873604  C 66.309686265118 44.1770485873604  66.7048985521033 48.174338575726  66.7048985521033 48.174338575726  C 66.7048985521033 48.174338575726  63.8947852128246 50.0397405702967  63.8947852128246 50.0397405702967  C 63.8947852128246 50.0397405702967  61.2335180595537 49.4219775720946  61.2335180595537 49.4219775720946  C 61.2335180595537 49.4219775720946  53.8695013382721 50.2860382362464  53.8695013382721 50.2860382362464  C 53.8695013382721 50.2860382362464  53.0816430778537 52.1312518975425  53.0816430778537 52.1312518975425  C 53.0816430778537 52.1312518975425  47.7231803815849 52.1211577309052  47.7231803815849 52.1211577309052  C 47.7231803815849 52.1211577309052  43.7145986135913 55.8418675534091  43.7145986135913 55.8418675534091  C 43.7145986135913 55.8418675534091  43.4605335719579 61.3936592039168  43.4605335719579 61.3936592039168  C 43.4605335719579 61.3936592039168  34.1114533025588 64.0888016960726  34.1114533025588 64.0888016960726  C 34.1114533025588 64.0888016960726  29.0994429357909 63.5194906977296  29.0994429357909 63.5194906977296  C 29.0994429357909 63.5194906977296  27.6417768383383 64.9367116936046  27.6417768383383 64.9367116936046  C 27.6417768383383 64.9367116936046  23.3406353254334 64.1130276960021  23.3406353254334 64.1130276960021  C 23.3406353254334 64.1130276960021  16.1446921260388 65.0800488598544  16.1446921260388 65.0800488598544  C 16.1446921260388 65.0800488598544  4.08815105943535 61.7752187028066  4.08815105943535 61.7752187028066  C 4.08815105943535 61.7752187028066  10.6142864217967 55.8600370533563  10.6142864217967 55.8600370533563  C 10.6142864217967 55.8600370533563  10.0240343048705 51.6285623990056  10.0240343048705 51.6285623990056  C 10.0240343048705 51.6285623990056  4.5731843207355 50.5141664022491  4.5731843207355 50.5141664022491  C 4.5731843207355 50.5141664022491  4.00859533932778 46.3048989145005  4.00859533932778 46.3048989145005  C 4.00859533932778 46.3048989145005  1.65271949872688 40.9671035967032  1.65271949872688 40.9671035967032  C 1.65271949872688 40.9671035967032  4.73229576095021 37.2786951074385  4.73229576095021 37.2786951074385  C 4.73229576095021 37.2786951074385  1.59882691413821 36.279372610347  1.59882691413821 36.279372610347  C 1.59882691413821 36.279372610347  3.57488834906458 29.8645454580825  3.57488834906458 29.8645454580825  Z " fill-rule="evenodd" />
    </mask>
  </defs>
  <g transform="matrix(1 0 0 1 -2270 -4109 )">
    <path d="M 3.57488834906458 29.8645454580825  C 3.57488834906458 29.8645454580825  6.50818473883222 21.2905603163709  6.50818473883222 21.2905603163709  C 6.50818473883222 21.2905603163709  13.8452751835791 23.9150436420655  13.8452751835791 23.9150436420655  C 13.8452751835791 23.9150436420655  19.2730283457469 22.9944556447449  19.2730283457469 22.9944556447449  C 19.2730283457469 22.9944556447449  20.7743217735809 19.8511321538937  20.7743217735809 19.8511321538937  C 20.7743217735809 19.8511321538937  26.4535736638304 18.8033576569433  26.4535736638304 18.8033576569433  C 26.4535736638304 18.8033576569433  30.5083490757579 16.6795449964583  30.5083490757579 16.6795449964583  C 30.5083490757579 16.6795449964583  31.9454846647954 11.0570941794893  31.9454846647954 11.0570941794893  C 31.9454846647954 11.0570941794893  38.0096835878229 9.68832518347328  38.0096835878229 9.68832518347328  C 38.0096835878229 9.68832518347328  39.1388615506383 7.16074585749655  39.1388615506383 7.16074585749655  C 39.1388615506383 7.16074585749655  42.5340943797394 9.06046801863405  42.5340943797394 9.06046801863405  C 42.5340943797394 9.06046801863405  44.7026293310545 9.28052085132682  44.7026293310545 9.28052085132682  C 44.7026293310545 9.28052085132682  48.7086447854964 9.32695401785844  48.7086447854964 9.32695401785844  C 48.7086447854964 9.32695401785844  54.136397947665 10.8229095135043  54.136397947665 10.8229095135043  C 54.136397947665 10.8229095135043  58.2001354412635 11.6849513443286  58.2001354412635 11.6849513443286  C 58.2001354412635 11.6849513443286  63.4071856379727 9.41174501761154  63.4071856379727 9.41174501761154  C 63.4071856379727 9.41174501761154  65.8349182580252 10.7784951803003  65.8349182580252 10.7784951803003  C 65.8349182580252 10.7784951803003  68.1548657088999 7.53019235642122  68.1548657088999 7.53019235642122  C 68.1548657088999 7.53019235642122  72.4560072218052 7.67958602265311  72.4560072218052 7.67958602265311  C 72.4560072218052 7.67958602265311  73.5620883626535 6.63383035903025  73.5620883626535 6.63383035903025  C 73.5620883626535 6.63383035903025  74.3242834875539 3.75093636742108  74.3242834875539 3.75093636742108  C 74.3242834875539 3.75093636742108  77.4218239446396 1.25162070802889  77.4218239446396 1.25162070802889  C 77.4218239446396 1.25162070802889  81.317487916352 2.88687570326935  81.317487916352 2.88687570326935  C 81.317487916352 2.88687570326935  80.534762283037 5.07529103023313  80.534762283037 5.07529103023313  C 80.534762283037 5.07529103023313  82.7109961750082 5.41647386257343  82.7109961750082 5.41647386257343  C 82.7109961750082 5.41647386257343  82.0411883379748 11.3841451785375  82.0411883379748 11.3841451785375  C 82.0411883379748 11.3841451785375  84.8872300669789 13.6916716718212  84.8872300669789 13.6916716718212  C 84.8872300669789 13.6916716718212  87.3970847206911 12.211866842795  87.3970847206911 12.211866842795  C 87.3970847206911 12.211866842795  90.5895787791956 11.5113316781673  90.5895787791956 11.5113316781673  C 90.5895787791956 11.5113316781673  95.072928554282 8.33974452073166  95.072928554282 8.33974452073166  C 95.072928554282 8.33974452073166  100.02848002291 8.86262235254318  100.02848002291 8.86262235254318  C 100.02848002291 8.86262235254318  107.450258814867 8.87473535250788  107.450258814867 8.87473535250788  C 107.450258814867 8.87473535250788  108.730849277242 10.9077005132574  108.730849277242 10.9077005132574  C 108.730849277242 10.9077005132574  104.542625560618 11.6990831776208  104.542625560618 11.6990831776208  C 104.542625560618 11.6990831776208  100.885628749228 13.0012306738309  100.885628749228 13.0012306738309  C 100.885628749228 13.0012306738309  92.6272317393667 13.8188581714511  92.6272317393667 13.8188581714511  C 92.6272317393667 13.8188581714511  84.9000616347384 15.2946253338224  84.9000616347384 15.2946253338224  C 84.9000616347384 15.2946253338224  80.7015726639073 18.3390259916282  80.7015726639073 18.3390259916282  C 80.7015726639073 18.3390259916282  82.4004722352339 21.2865226497159  82.4004722352339 21.2865226497159  C 82.4004722352339 21.2865226497159  83.2242588853789 24.7266146397034  83.2242588853789 24.7266146397034  C 83.2242588853789 24.7266146397034  79.6391188534404 27.6135462979674  79.6391188534404 27.6135462979674  C 79.6391188534404 27.6135462979674  79.939377539007 30.2420672903169  79.939377539007 30.2420672903169  C 79.939377539007 30.2420672903169  77.9607497905289 34.1595976165168  77.9607497905289 34.1595976165168  C 77.9607497905289 34.1595976165168  71.1163915477377 33.9476201171338  71.1163915477377 33.9476201171338  C 71.1163915477377 33.9476201171338  73.9444690818793 38.4274112707617  73.9444690818793 38.4274112707617  C 73.9444690818793 38.4274112707617  69.3661657053746 40.1313065991358  69.3661657053746 40.1313065991358  C 69.3661657053746 40.1313065991358  66.309686265118 44.1770485873604  66.309686265118 44.1770485873604  C 66.309686265118 44.1770485873604  66.7048985521033 48.174338575726  66.7048985521033 48.174338575726  C 66.7048985521033 48.174338575726  63.8947852128246 50.0397405702967  63.8947852128246 50.0397405702967  C 63.8947852128246 50.0397405702967  61.2335180595537 49.4219775720946  61.2335180595537 49.4219775720946  C 61.2335180595537 49.4219775720946  53.8695013382721 50.2860382362464  53.8695013382721 50.2860382362464  C 53.8695013382721 50.2860382362464  53.0816430778537 52.1312518975425  53.0816430778537 52.1312518975425  C 53.0816430778537 52.1312518975425  47.7231803815849 52.1211577309052  47.7231803815849 52.1211577309052  C 47.7231803815849 52.1211577309052  43.7145986135913 55.8418675534091  43.7145986135913 55.8418675534091  C 43.7145986135913 55.8418675534091  43.4605335719579 61.3936592039168  43.4605335719579 61.3936592039168  C 43.4605335719579 61.3936592039168  34.1114533025588 64.0888016960726  34.1114533025588 64.0888016960726  C 34.1114533025588 64.0888016960726  29.0994429357909 63.5194906977296  29.0994429357909 63.5194906977296  C 29.0994429357909 63.5194906977296  27.6417768383383 64.9367116936046  27.6417768383383 64.9367116936046  C 27.6417768383383 64.9367116936046  23.3406353254334 64.1130276960021  23.3406353254334 64.1130276960021  C 23.3406353254334 64.1130276960021  16.1446921260388 65.0800488598544  16.1446921260388 65.0800488598544  C 16.1446921260388 65.0800488598544  4.08815105943535 61.7752187028066  4.08815105943535 61.7752187028066  C 4.08815105943535 61.7752187028066  10.6142864217967 55.8600370533563  10.6142864217967 55.8600370533563  C 10.6142864217967 55.8600370533563  10.0240343048705 51.6285623990056  10.0240343048705 51.6285623990056  C 10.0240343048705 51.6285623990056  4.5731843207355 50.5141664022491  4.5731843207355 50.5141664022491  C 4.5731843207355 50.5141664022491  4.00859533932778 46.3048989145005  4.00859533932778 46.3048989145005  C 4.00859533932778 46.3048989145005  1.65271949872688 40.9671035967032  1.65271949872688 40.9671035967032  C 1.65271949872688 40.9671035967032  4.73229576095021 37.2786951074385  4.73229576095021 37.2786951074385  C 4.73229576095021 37.2786951074385  1.59882691413821 36.279372610347  1.59882691413821 36.279372610347  C 1.59882691413821 36.279372610347  3.57488834906458 29.8645454580825  3.57488834906458 29.8645454580825  Z " fill-rule="nonzero" fill="#f2f2f2" stroke="none" transform="matrix(1 0 0 1 2270 4109 )" />
    <path d="M 3.57488834906458 29.8645454580825  C 3.57488834906458 29.8645454580825  6.50818473883222 21.2905603163709  6.50818473883222 21.2905603163709  C 6.50818473883222 21.2905603163709  13.8452751835791 23.9150436420655  13.8452751835791 23.9150436420655  C 13.8452751835791 23.9150436420655  19.2730283457469 22.9944556447449  19.2730283457469 22.9944556447449  C 19.2730283457469 22.9944556447449  20.7743217735809 19.8511321538937  20.7743217735809 19.8511321538937  C 20.7743217735809 19.8511321538937  26.4535736638304 18.8033576569433  26.4535736638304 18.8033576569433  C 26.4535736638304 18.8033576569433  30.5083490757579 16.6795449964583  30.5083490757579 16.6795449964583  C 30.5083490757579 16.6795449964583  31.9454846647954 11.0570941794893  31.9454846647954 11.0570941794893  C 31.9454846647954 11.0570941794893  38.0096835878229 9.68832518347328  38.0096835878229 9.68832518347328  C 38.0096835878229 9.68832518347328  39.1388615506383 7.16074585749655  39.1388615506383 7.16074585749655  C 39.1388615506383 7.16074585749655  42.5340943797394 9.06046801863405  42.5340943797394 9.06046801863405  C 42.5340943797394 9.06046801863405  44.7026293310545 9.28052085132682  44.7026293310545 9.28052085132682  C 44.7026293310545 9.28052085132682  48.7086447854964 9.32695401785844  48.7086447854964 9.32695401785844  C 48.7086447854964 9.32695401785844  54.136397947665 10.8229095135043  54.136397947665 10.8229095135043  C 54.136397947665 10.8229095135043  58.2001354412635 11.6849513443286  58.2001354412635 11.6849513443286  C 58.2001354412635 11.6849513443286  63.4071856379727 9.41174501761154  63.4071856379727 9.41174501761154  C 63.4071856379727 9.41174501761154  65.8349182580252 10.7784951803003  65.8349182580252 10.7784951803003  C 65.8349182580252 10.7784951803003  68.1548657088999 7.53019235642122  68.1548657088999 7.53019235642122  C 68.1548657088999 7.53019235642122  72.4560072218052 7.67958602265311  72.4560072218052 7.67958602265311  C 72.4560072218052 7.67958602265311  73.5620883626535 6.63383035903025  73.5620883626535 6.63383035903025  C 73.5620883626535 6.63383035903025  74.3242834875539 3.75093636742108  74.3242834875539 3.75093636742108  C 74.3242834875539 3.75093636742108  77.4218239446396 1.25162070802889  77.4218239446396 1.25162070802889  C 77.4218239446396 1.25162070802889  81.317487916352 2.88687570326935  81.317487916352 2.88687570326935  C 81.317487916352 2.88687570326935  80.534762283037 5.07529103023313  80.534762283037 5.07529103023313  C 80.534762283037 5.07529103023313  82.7109961750082 5.41647386257343  82.7109961750082 5.41647386257343  C 82.7109961750082 5.41647386257343  82.0411883379748 11.3841451785375  82.0411883379748 11.3841451785375  C 82.0411883379748 11.3841451785375  84.8872300669789 13.6916716718212  84.8872300669789 13.6916716718212  C 84.8872300669789 13.6916716718212  87.3970847206911 12.211866842795  87.3970847206911 12.211866842795  C 87.3970847206911 12.211866842795  90.5895787791956 11.5113316781673  90.5895787791956 11.5113316781673  C 90.5895787791956 11.5113316781673  95.072928554282 8.33974452073166  95.072928554282 8.33974452073166  C 95.072928554282 8.33974452073166  100.02848002291 8.86262235254318  100.02848002291 8.86262235254318  C 100.02848002291 8.86262235254318  107.450258814867 8.87473535250788  107.450258814867 8.87473535250788  C 107.450258814867 8.87473535250788  108.730849277242 10.9077005132574  108.730849277242 10.9077005132574  C 108.730849277242 10.9077005132574  104.542625560618 11.6990831776208  104.542625560618 11.6990831776208  C 104.542625560618 11.6990831776208  100.885628749228 13.0012306738309  100.885628749228 13.0012306738309  C 100.885628749228 13.0012306738309  92.6272317393667 13.8188581714511  92.6272317393667 13.8188581714511  C 92.6272317393667 13.8188581714511  84.9000616347384 15.2946253338224  84.9000616347384 15.2946253338224  C 84.9000616347384 15.2946253338224  80.7015726639073 18.3390259916282  80.7015726639073 18.3390259916282  C 80.7015726639073 18.3390259916282  82.4004722352339 21.2865226497159  82.4004722352339 21.2865226497159  C 82.4004722352339 21.2865226497159  83.2242588853789 24.7266146397034  83.2242588853789 24.7266146397034  C 83.2242588853789 24.7266146397034  79.6391188534404 27.6135462979674  79.6391188534404 27.6135462979674  C 79.6391188534404 27.6135462979674  79.939377539007 30.2420672903169  79.939377539007 30.2420672903169  C 79.939377539007 30.2420672903169  77.9607497905289 34.1595976165168  77.9607497905289 34.1595976165168  C 77.9607497905289 34.1595976165168  71.1163915477377 33.9476201171338  71.1163915477377 33.9476201171338  C 71.1163915477377 33.9476201171338  73.9444690818793 38.4274112707617  73.9444690818793 38.4274112707617  C 73.9444690818793 38.4274112707617  69.3661657053746 40.1313065991358  69.3661657053746 40.1313065991358  C 69.3661657053746 40.1313065991358  66.309686265118 44.1770485873604  66.309686265118 44.1770485873604  C 66.309686265118 44.1770485873604  66.7048985521033 48.174338575726  66.7048985521033 48.174338575726  C 66.7048985521033 48.174338575726  63.8947852128246 50.0397405702967  63.8947852128246 50.0397405702967  C 63.8947852128246 50.0397405702967  61.2335180595537 49.4219775720946  61.2335180595537 49.4219775720946  C 61.2335180595537 49.4219775720946  53.8695013382721 50.2860382362464  53.8695013382721 50.2860382362464  C 53.8695013382721 50.2860382362464  53.0816430778537 52.1312518975425  53.0816430778537 52.1312518975425  C 53.0816430778537 52.1312518975425  47.7231803815849 52.1211577309052  47.7231803815849 52.1211577309052  C 47.7231803815849 52.1211577309052  43.7145986135913 55.8418675534091  43.7145986135913 55.8418675534091  C 43.7145986135913 55.8418675534091  43.4605335719579 61.3936592039168  43.4605335719579 61.3936592039168  C 43.4605335719579 61.3936592039168  34.1114533025588 64.0888016960726  34.1114533025588 64.0888016960726  C 34.1114533025588 64.0888016960726  29.0994429357909 63.5194906977296  29.0994429357909 63.5194906977296  C 29.0994429357909 63.5194906977296  27.6417768383383 64.9367116936046  27.6417768383383 64.9367116936046  C 27.6417768383383 64.9367116936046  23.3406353254334 64.1130276960021  23.3406353254334 64.1130276960021  C 23.3406353254334 64.1130276960021  16.1446921260388 65.0800488598544  16.1446921260388 65.0800488598544  C 16.1446921260388 65.0800488598544  4.08815105943535 61.7752187028066  4.08815105943535 61.7752187028066  C 4.08815105943535 61.7752187028066  10.6142864217967 55.8600370533563  10.6142864217967 55.8600370533563  C 10.6142864217967 55.8600370533563  10.0240343048705 51.6285623990056  10.0240343048705 51.6285623990056  C 10.0240343048705 51.6285623990056  4.5731843207355 50.5141664022491  4.5731843207355 50.5141664022491  C 4.5731843207355 50.5141664022491  4.00859533932778 46.3048989145005  4.00859533932778 46.3048989145005  C 4.00859533932778 46.3048989145005  1.65271949872688 40.9671035967032  1.65271949872688 40.9671035967032  C 1.65271949872688 40.9671035967032  4.73229576095021 37.2786951074385  4.73229576095021 37.2786951074385  C 4.73229576095021 37.2786951074385  1.59882691413821 36.279372610347  1.59882691413821 36.279372610347  C 1.59882691413821 36.279372610347  3.57488834906458 29.8645454580825  3.57488834906458 29.8645454580825  Z " stroke-width="2" stroke="#505050" fill="none" stroke-opacity="0.211764705882353" transform="matrix(1 0 0 1 2270 4109 )" mask="url(#clip34)" />
  </g>
</svg>