<?xml version="1.0" encoding="utf-8"?>
<svg version="1.1" xmlns:xlink="http://www.w3.org/1999/xlink" width="51px" height="36px" xmlns="http://www.w3.org/2000/svg">
  <defs>
    <mask fill="white" id="clip226">
      <path d="M 40.6336642221903 22.020465231866  C 40.6336642221903 22.020465231866  22.6064970090605 28.9559285389526  22.6064970090605 28.9559285389526  C 22.6064970090605 28.9559285389526  8.32982771980553 35.9726590639846  8.32982771980553 35.9726590639846  C 8.32982771980553 35.9726590639846  0.207388299002004 33.3740902170023  0.207388299002004 33.3740902170023  C 0.207388299002004 33.3740902170023  0.0695876302113953 33.3285012898623  0.0695876302113953 33.3285012898623  C 0.0695876302113953 33.3285012898623  1.05759242531528 32.3275270200485  1.05759242531528 32.3275270200485  C 1.05759242531528 32.3275270200485  0.945791882711572 29.6258875551845  0.945791882711572 29.6258875551845  C 0.945791882711572 29.6258875551845  2.73460056437393 25.9926482748502  2.73460056437393 25.9926482748502  C 2.73460056437393 25.9926482748502  6.71001985835867 23.4773287730802  6.71001985835867 23.4773287730802  C 6.71001985835867 23.4773287730802  5.51661406637772 20.8470458898268  5.51661406637772 20.8470458898268  C 5.51661406637772 20.8470458898268  2.23799815420299 20.504137872643  2.23799815420299 20.504137872643  C 2.23799815420299 20.504137872643  1.55679484810478 13.8947499604161  1.55679484810478 13.8947499604161  C 1.55679484810478 13.8947499604161  3.34040350453001 11.0959862594713  3.34040350453001 11.0959862594713  C 3.34040350453001 11.0959862594713  5.29301298116987 9.5974980456508  5.29301298116987 9.5974980456508  C 5.29301298116987 9.5974980456508  7.24562245781016 8.09702770456348  7.24562245781016 8.09702770456348  C 7.24562245781016 8.09702770456348  7.64082437585163 4.25368293393167  7.64082437585163 4.25368293393167  C 7.64082437585163 4.25368293393167  10.0276359598135 5.59756522092926  10.0276359598135 5.59756522092926  C 10.0276359598135 5.59756522092926  18.0538749137256 3.67490177197985  18.0538749137256 3.67490177197985  C 18.0538749137256 3.67490177197985  21.9330937408184 4.97715938637142  21.9330937408184 4.97715938637142  C 21.9330937408184 4.97715938637142  29.8176117284188 4.95535598643478  29.8176117284188 4.95535598643478  C 29.8176117284188 4.95535598643478  38.2078524489478 2.35876926671963  38.2078524489478 2.35876926671963  C 38.2078524489478 2.35876926671963  42.1364715157963 2.47571477547019  42.1364715157963 2.47571477547019  C 42.1364715157963 2.47571477547019  50.4279117568149 1.39545541497794  50.4279117568149 1.39545541497794  C 50.4279117568149 1.39545541497794  46.6916936237502 5.71649285694676  46.6916936237502 5.71649285694676  C 46.6916936237502 5.71649285694676  42.7006742540533 7.41517592472983  42.7006742540533 7.41517592472983  C 42.7006742540533 7.41517592472983  43.3896775980072 12.4121187647314  43.3896775980072 12.4121187647314  C 43.3896775980072 12.4121187647314  40.6336642221903 22.020465231866  40.6336642221903 22.020465231866  Z " fill-rule="evenodd" />
    </mask>
  </defs>
  <g transform="matrix(1 0 0 1 -2092 -4118 )">
    <path d="M 40.6336642221903 22.020465231866  C 40.6336642221903 22.020465231866  22.6064970090605 28.9559285389526  22.6064970090605 28.9559285389526  C 22.6064970090605 28.9559285389526  8.32982771980553 35.9726590639846  8.32982771980553 35.9726590639846  C 8.32982771980553 35.9726590639846  0.207388299002004 33.3740902170023  0.207388299002004 33.3740902170023  C 0.207388299002004 33.3740902170023  0.0695876302113953 33.3285012898623  0.0695876302113953 33.3285012898623  C 0.0695876302113953 33.3285012898623  1.05759242531528 32.3275270200485  1.05759242531528 32.3275270200485  C 1.05759242531528 32.3275270200485  0.945791882711572 29.6258875551845  0.945791882711572 29.6258875551845  C 0.945791882711572 29.6258875551845  2.73460056437393 25.9926482748502  2.73460056437393 25.9926482748502  C 2.73460056437393 25.9926482748502  6.71001985835867 23.4773287730802  6.71001985835867 23.4773287730802  C 6.71001985835867 23.4773287730802  5.51661406637772 20.8470458898268  5.51661406637772 20.8470458898268  C 5.51661406637772 20.8470458898268  2.23799815420299 20.504137872643  2.23799815420299 20.504137872643  C 2.23799815420299 20.504137872643  1.55679484810478 13.8947499604161  1.55679484810478 13.8947499604161  C 1.55679484810478 13.8947499604161  3.34040350453001 11.0959862594713  3.34040350453001 11.0959862594713  C 3.34040350453001 11.0959862594713  5.29301298116987 9.5974980456508  5.29301298116987 9.5974980456508  C 5.29301298116987 9.5974980456508  7.24562245781016 8.09702770456348  7.24562245781016 8.09702770456348  C 7.24562245781016 8.09702770456348  7.64082437585163 4.25368293393167  7.64082437585163 4.25368293393167  C 7.64082437585163 4.25368293393167  10.0276359598135 5.59756522092926  10.0276359598135 5.59756522092926  C 10.0276359598135 5.59756522092926  18.0538749137256 3.67490177197985  18.0538749137256 3.67490177197985  C 18.0538749137256 3.67490177197985  21.9330937408184 4.97715938637142  21.9330937408184 4.97715938637142  C 21.9330937408184 4.97715938637142  29.8176117284188 4.95535598643478  29.8176117284188 4.95535598643478  C 29.8176117284188 4.95535598643478  38.2078524489478 2.35876926671963  38.2078524489478 2.35876926671963  C 38.2078524489478 2.35876926671963  42.1364715157963 2.47571477547019  42.1364715157963 2.47571477547019  C 42.1364715157963 2.47571477547019  50.4279117568149 1.39545541497794  50.4279117568149 1.39545541497794  C 50.4279117568149 1.39545541497794  46.6916936237502 5.71649285694676  46.6916936237502 5.71649285694676  C 46.6916936237502 5.71649285694676  42.7006742540533 7.41517592472983  42.7006742540533 7.41517592472983  C 42.7006742540533 7.41517592472983  43.3896775980072 12.4121187647314  43.3896775980072 12.4121187647314  C 43.3896775980072 12.4121187647314  40.6336642221903 22.020465231866  40.6336642221903 22.020465231866  Z " fill-rule="nonzero" fill="#f2f2f2" stroke="none" transform="matrix(1 0 0 1 2092 4118 )" />
    <path d="M 40.6336642221903 22.020465231866  C 40.6336642221903 22.020465231866  22.6064970090605 28.9559285389526  22.6064970090605 28.9559285389526  C 22.6064970090605 28.9559285389526  8.32982771980553 35.9726590639846  8.32982771980553 35.9726590639846  C 8.32982771980553 35.9726590639846  0.207388299002004 33.3740902170023  0.207388299002004 33.3740902170023  C 0.207388299002004 33.3740902170023  0.0695876302113953 33.3285012898623  0.0695876302113953 33.3285012898623  C 0.0695876302113953 33.3285012898623  1.05759242531528 32.3275270200485  1.05759242531528 32.3275270200485  C 1.05759242531528 32.3275270200485  0.945791882711572 29.6258875551845  0.945791882711572 29.6258875551845  C 0.945791882711572 29.6258875551845  2.73460056437393 25.9926482748502  2.73460056437393 25.9926482748502  C 2.73460056437393 25.9926482748502  6.71001985835867 23.4773287730802  6.71001985835867 23.4773287730802  C 6.71001985835867 23.4773287730802  5.51661406637772 20.8470458898268  5.51661406637772 20.8470458898268  C 5.51661406637772 20.8470458898268  2.23799815420299 20.504137872643  2.23799815420299 20.504137872643  C 2.23799815420299 20.504137872643  1.55679484810478 13.8947499604161  1.55679484810478 13.8947499604161  C 1.55679484810478 13.8947499604161  3.34040350453001 11.0959862594713  3.34040350453001 11.0959862594713  C 3.34040350453001 11.0959862594713  5.29301298116987 9.5974980456508  5.29301298116987 9.5974980456508  C 5.29301298116987 9.5974980456508  7.24562245781016 8.09702770456348  7.24562245781016 8.09702770456348  C 7.24562245781016 8.09702770456348  7.64082437585163 4.25368293393167  7.64082437585163 4.25368293393167  C 7.64082437585163 4.25368293393167  10.0276359598135 5.59756522092926  10.0276359598135 5.59756522092926  C 10.0276359598135 5.59756522092926  18.0538749137256 3.67490177197985  18.0538749137256 3.67490177197985  C 18.0538749137256 3.67490177197985  21.9330937408184 4.97715938637142  21.9330937408184 4.97715938637142  C 21.9330937408184 4.97715938637142  29.8176117284188 4.95535598643478  29.8176117284188 4.95535598643478  C 29.8176117284188 4.95535598643478  38.2078524489478 2.35876926671963  38.2078524489478 2.35876926671963  C 38.2078524489478 2.35876926671963  42.1364715157963 2.47571477547019  42.1364715157963 2.47571477547019  C 42.1364715157963 2.47571477547019  50.4279117568149 1.39545541497794  50.4279117568149 1.39545541497794  C 50.4279117568149 1.39545541497794  46.6916936237502 5.71649285694676  46.6916936237502 5.71649285694676  C 46.6916936237502 5.71649285694676  42.7006742540533 7.41517592472983  42.7006742540533 7.41517592472983  C 42.7006742540533 7.41517592472983  43.3896775980072 12.4121187647314  43.3896775980072 12.4121187647314  C 43.3896775980072 12.4121187647314  40.6336642221903 22.020465231866  40.6336642221903 22.020465231866  Z " stroke-width="2" stroke="#505050" fill="none" stroke-opacity="0.211764705882353" transform="matrix(1 0 0 1 2092 4118 )" mask="url(#clip226)" />
  </g>
</svg>