<?xml version="1.0" encoding="utf-8"?>
<svg version="1.1" xmlns:xlink="http://www.w3.org/1999/xlink" width="15px" height="14px" xmlns="http://www.w3.org/2000/svg">
  <defs>
    <mask fill="white" id="clip227">
      <path d="M 12.56147489834 5.70201429946544  C 12.56147489834 5.70201429946544  13.1808896692642 10.2081253514837  13.1808896692642 10.2081253514837  C 13.1808896692642 10.2081253514837  11.70719869344 13.1822339034332  11.70719869344 13.1822339034332  C 11.70719869344 13.1822339034332  5.59695019724408 13.9080962498058  5.59695019724408 13.9080962498058  C 5.59695019724408 13.9080962498058  1.27911306492493 10.2745021442199  1.27911306492493 10.2745021442199  C 1.27911306492493 10.2745021442199  1.21200979807462 6.41074715093787  1.21200979807462 6.41074715093787  C 1.21200979807462 6.41074715093787  3.18639438039632 3.9119820824532  3.18639438039632 3.9119820824532  C 3.18639438039632 3.9119820824532  3.87033152329217 1.9806315325188  3.87033152329217 1.9806315325188  C 3.87033152329217 1.9806315325188  5.96085637516197 1.50742923591628  5.96085637516197 1.50742923591628  C 5.96085637516197 1.50742923591628  11.4878226287374 2.72148218692817  11.4878226287374 2.72148218692817  C 11.4878226287374 2.72148218692817  12.56147489834 5.70201429946544  12.56147489834 5.70201429946544  Z " fill-rule="evenodd" />
    </mask>
  </defs>
  <g transform="matrix(1 0 0 1 -2056 -4488 )">
    <path d="M 12.56147489834 5.70201429946544  C 12.56147489834 5.70201429946544  13.1808896692642 10.2081253514837  13.1808896692642 10.2081253514837  C 13.1808896692642 10.2081253514837  11.70719869344 13.1822339034332  11.70719869344 13.1822339034332  C 11.70719869344 13.1822339034332  5.59695019724408 13.9080962498058  5.59695019724408 13.9080962498058  C 5.59695019724408 13.9080962498058  1.27911306492493 10.2745021442199  1.27911306492493 10.2745021442199  C 1.27911306492493 10.2745021442199  1.21200979807462 6.41074715093787  1.21200979807462 6.41074715093787  C 1.21200979807462 6.41074715093787  3.18639438039632 3.9119820824532  3.18639438039632 3.9119820824532  C 3.18639438039632 3.9119820824532  3.87033152329217 1.9806315325188  3.87033152329217 1.9806315325188  C 3.87033152329217 1.9806315325188  5.96085637516197 1.50742923591628  5.96085637516197 1.50742923591628  C 5.96085637516197 1.50742923591628  11.4878226287374 2.72148218692817  11.4878226287374 2.72148218692817  C 11.4878226287374 2.72148218692817  12.56147489834 5.70201429946544  12.56147489834 5.70201429946544  Z " fill-rule="nonzero" fill="#f2f2f2" stroke="none" transform="matrix(1 0 0 1 2056 4488 )" />
    <path d="M 12.56147489834 5.70201429946544  C 12.56147489834 5.70201429946544  13.1808896692642 10.2081253514837  13.1808896692642 10.2081253514837  C 13.1808896692642 10.2081253514837  11.70719869344 13.1822339034332  11.70719869344 13.1822339034332  C 11.70719869344 13.1822339034332  5.59695019724408 13.9080962498058  5.59695019724408 13.9080962498058  C 5.59695019724408 13.9080962498058  1.27911306492493 10.2745021442199  1.27911306492493 10.2745021442199  C 1.27911306492493 10.2745021442199  1.21200979807462 6.41074715093787  1.21200979807462 6.41074715093787  C 1.21200979807462 6.41074715093787  3.18639438039632 3.9119820824532  3.18639438039632 3.9119820824532  C 3.18639438039632 3.9119820824532  3.87033152329217 1.9806315325188  3.87033152329217 1.9806315325188  C 3.87033152329217 1.9806315325188  5.96085637516197 1.50742923591628  5.96085637516197 1.50742923591628  C 5.96085637516197 1.50742923591628  11.4878226287374 2.72148218692817  11.4878226287374 2.72148218692817  C 11.4878226287374 2.72148218692817  12.56147489834 5.70201429946544  12.56147489834 5.70201429946544  Z " stroke-width="2" stroke="#505050" fill="none" stroke-opacity="0.211764705882353" transform="matrix(1 0 0 1 2056 4488 )" mask="url(#clip227)" />
  </g>
</svg>