<?xml version="1.0" encoding="utf-8"?>
<svg version="1.1" xmlns:xlink="http://www.w3.org/1999/xlink" width="77px" height="95px" xmlns="http://www.w3.org/2000/svg">
  <defs>
    <mask fill="white" id="clip228">
      <path d="M 10.5082636553821 67.4828306707121  C 10.5082636553821 67.4828306707121  7.69451470523876 63.8610269966805  7.69451470523876 63.8610269966805  C 7.69451470523876 63.8610269966805  8.40110636984868 61.1922252740764  8.40110636984868 61.1922252740764  C 8.40110636984868 61.1922252740764  3.86377846638828 61.0614599335478  3.86377846638828 61.0614599335478  C 3.86377846638828 61.0614599335478  3.88144325800325 57.4059742778653  3.88144325800325 57.4059742778653  C 3.88144325800325 57.4059742778653  0.933946599915487 55.2978784851027  0.933946599915487 55.2978784851027  C 0.933946599915487 55.2978784851027  3.98995554935412 46.329571000129  3.98995554935412 46.329571000129  C 3.98995554935412 46.329571000129  13.0141405230888 40.9087532473116  13.0141405230888 40.9087532473116  C 13.0141405230888 40.9087532473116  13.3876246886685 33.3877648738854  13.3876246886685 33.3877648738854  C 13.3876246886685 33.3877648738854  16.1130496807358 21.5396325047887  16.1130496807358 21.5396325047887  C 16.1130496807358 21.5396325047887  17.6524100929221 19.0075400018279  17.6524100929221 19.0075400018279  C 17.6524100929221 19.0075400018279  14.7099605181531 16.9866211027514  14.7099605181531 16.9866211027514  C 14.7099605181531 16.9866211027514  14.593877601824 15.1063740093948  14.593877601824 15.1063740093948  C 14.593877601824 15.1063740093948  11.9492059428549 13.5669093186275  11.9492059428549 13.5669093186275  C 11.9492059428549 13.5669093186275  10.2104857395825 4.30040177844973  10.2104857395825 4.30040177844973  C 10.2104857395825 4.30040177844973  17.3546321771222 1.01541792093084  17.3546321771222 1.01541792093084  C 17.3546321771222 1.01541792093084  47.4062083449916 12.4593665102121  47.4062083449916 12.4593665102121  C 47.4062083449916 12.4593665102121  75.6269747211866 23.7507555355434  75.6269747211866 23.7507555355434  C 75.6269747211866 23.7507555355434  75.9777470118321 46.7515864172893  75.9777470118321 46.7515864172893  C 75.9777470118321 46.7515864172893  69.8758232795922 46.3493839305121  69.8758232795922 46.3493839305121  C 69.8758232795922 46.3493839305121  66.643166414001 52.0029881623924  66.643166414001 52.0029881623924  C 66.643166414001 52.0029881623924  64.7732220444435 55.527708477547  64.7732220444435 55.527708477547  C 64.7732220444435 55.527708477547  66.2494939151469 56.8591373992913  66.2494939151469 56.8591373992913  C 66.2494939151469 56.8591373992913  63.9227885052522 58.6026752730046  63.9227885052522 58.6026752730046  C 63.9227885052522 58.6026752730046  64.7252747529164 60.9544701094793  64.7252747529164 60.9544701094793  C 64.7252747529164 60.9544701094793  62.8906599665897 63.3161714111454  62.8906599665897 63.3161714111454  C 62.8906599665897 63.3161714111454  62.1790212186607 65.3965291013711  62.1790212186607 65.3965291013711  C 62.1790212186607 65.3965291013711  64.6621862114335 65.06961575005  64.6621862114335 65.06961575005  C 64.6621862114335 65.06961575005  66.1460287071146 67.2490380921914  66.1460287071146 67.2490380921914  C 66.1460287071146 67.2490380921914  66.2242584985538 70.5260967775568  66.2242584985538 70.5260967775568  C 66.2242584985538 70.5260967775568  68.8260299493143 72.1864203436611  68.8260299493143 72.1864203436611  C 68.8260299493143 72.1864203436611  68.7402295328974 73.5495499540188  68.7402295328974 73.5495499540188  C 68.7402295328974 73.5495499540188  64.2609430876014 74.5104770775993  64.2609430876014 74.5104770775993  C 64.2609430876014 74.5104770775993  60.6699433063864 76.7850014855799  60.6699433063864 76.7850014855799  C 60.6699433063864 76.7850014855799  55.5547243629413 82.8992718018059  55.5547243629413 82.8992718018059  C 55.5547243629413 82.8992718018059  48.8976214656507 85.4908030959159  48.8976214656507 85.4908030959159  C 48.8976214656507 85.4908030959159  42.0638706522072 85.1420955211732  42.0638706522072 85.1420955211732  C 42.0638706522072 85.1420955211732  40.0677491996838 85.6572317111339  40.0677491996838 85.6572317111339  C 40.0677491996838 85.6572317111339  40.7692937809754 87.622674405138  40.7692937809754 87.622674405138  C 40.7692937809754 87.622674405138  35.244019000054 89.5722667548354  35.244019000054 89.5722667548354  C 35.244019000054 89.5722667548354  32.2410044254611 91.7477265109004  32.2410044254611 91.7477265109004  C 32.2410044254611 91.7477265109004  23.3329023680555 93.8795978201222  23.3329023680555 93.8795978201222  C 23.3329023680555 93.8795978201222  21.5664232065302 92.6175141547187  21.5664232065302 92.6175141547187  C 21.5664232065302 92.6175141547187  20.3929763349455 92.5105243306499  20.3929763349455 92.5105243306499  C 20.3929763349455 92.5105243306499  19.0908288387355 93.9410179043099  19.0908288387355 93.9410179043099  C 19.0908288387355 93.9410179043099  13.2387357307685 94.3610520284316  13.2387357307685 94.3610520284316  C 13.2387357307685 94.3610520284316  14.3490940608699 92.8532880262776  14.3490940608699 92.8532880262776  C 14.3490940608699 92.8532880262776  12.1157596923703 89.0095795319551  12.1157596923703 89.0095795319551  C 12.1157596923703 89.0095795319551  11.1214842785975 86.6993918492851  11.1214842785975 86.6993918492851  C 11.1214842785975 86.6993918492851  8.04023991256573 85.7523337769728  8.04023991256573 85.7523337769728  C 8.04023991256573 85.7523337769728  3.86125492472888 82.4891441428755  3.86125492472888 82.4891441428755  C 3.86125492472888 82.4891441428755  5.40061533691519 79.8460992297695  5.40061533691519 79.8460992297695  C 5.40061533691519 79.8460992297695  8.6257015775282 80.4087864526494  8.6257015775282 80.4087864526494  C 8.6257015775282 80.4087864526494  10.6218230300517 80.0085652589107  10.6218230300517 80.0085652589107  C 10.6218230300517 80.0085652589107  14.5736892685497 80.0640414639835  14.5736892685497 80.0640414639835  C 14.5736892685497 80.0640414639835  10.7227646964246 74.962211890334  10.7227646964246 74.962211890334  C 10.7227646964246 74.962211890334  10.9801659456753 71.2254932200807  10.9801659456753 71.2254932200807  C 10.9801659456753 71.2254932200807  10.5082636553821 67.4828306707121  10.5082636553821 67.4828306707121  Z " fill-rule="evenodd" />
    </mask>
  </defs>
  <g transform="matrix(1 0 0 1 -1936 -4207 )">
    <path d="M 10.5082636553821 67.4828306707121  C 10.5082636553821 67.4828306707121  7.69451470523876 63.8610269966805  7.69451470523876 63.8610269966805  C 7.69451470523876 63.8610269966805  8.40110636984868 61.1922252740764  8.40110636984868 61.1922252740764  C 8.40110636984868 61.1922252740764  3.86377846638828 61.0614599335478  3.86377846638828 61.0614599335478  C 3.86377846638828 61.0614599335478  3.88144325800325 57.4059742778653  3.88144325800325 57.4059742778653  C 3.88144325800325 57.4059742778653  0.933946599915487 55.2978784851027  0.933946599915487 55.2978784851027  C 0.933946599915487 55.2978784851027  3.98995554935412 46.329571000129  3.98995554935412 46.329571000129  C 3.98995554935412 46.329571000129  13.0141405230888 40.9087532473116  13.0141405230888 40.9087532473116  C 13.0141405230888 40.9087532473116  13.3876246886685 33.3877648738854  13.3876246886685 33.3877648738854  C 13.3876246886685 33.3877648738854  16.1130496807358 21.5396325047887  16.1130496807358 21.5396325047887  C 16.1130496807358 21.5396325047887  17.6524100929221 19.0075400018279  17.6524100929221 19.0075400018279  C 17.6524100929221 19.0075400018279  14.7099605181531 16.9866211027514  14.7099605181531 16.9866211027514  C 14.7099605181531 16.9866211027514  14.593877601824 15.1063740093948  14.593877601824 15.1063740093948  C 14.593877601824 15.1063740093948  11.9492059428549 13.5669093186275  11.9492059428549 13.5669093186275  C 11.9492059428549 13.5669093186275  10.2104857395825 4.30040177844973  10.2104857395825 4.30040177844973  C 10.2104857395825 4.30040177844973  17.3546321771222 1.01541792093084  17.3546321771222 1.01541792093084  C 17.3546321771222 1.01541792093084  47.4062083449916 12.4593665102121  47.4062083449916 12.4593665102121  C 47.4062083449916 12.4593665102121  75.6269747211866 23.7507555355434  75.6269747211866 23.7507555355434  C 75.6269747211866 23.7507555355434  75.9777470118321 46.7515864172893  75.9777470118321 46.7515864172893  C 75.9777470118321 46.7515864172893  69.8758232795922 46.3493839305121  69.8758232795922 46.3493839305121  C 69.8758232795922 46.3493839305121  66.643166414001 52.0029881623924  66.643166414001 52.0029881623924  C 66.643166414001 52.0029881623924  64.7732220444435 55.527708477547  64.7732220444435 55.527708477547  C 64.7732220444435 55.527708477547  66.2494939151469 56.8591373992913  66.2494939151469 56.8591373992913  C 66.2494939151469 56.8591373992913  63.9227885052522 58.6026752730046  63.9227885052522 58.6026752730046  C 63.9227885052522 58.6026752730046  64.7252747529164 60.9544701094793  64.7252747529164 60.9544701094793  C 64.7252747529164 60.9544701094793  62.8906599665897 63.3161714111454  62.8906599665897 63.3161714111454  C 62.8906599665897 63.3161714111454  62.1790212186607 65.3965291013711  62.1790212186607 65.3965291013711  C 62.1790212186607 65.3965291013711  64.6621862114335 65.06961575005  64.6621862114335 65.06961575005  C 64.6621862114335 65.06961575005  66.1460287071146 67.2490380921914  66.1460287071146 67.2490380921914  C 66.1460287071146 67.2490380921914  66.2242584985538 70.5260967775568  66.2242584985538 70.5260967775568  C 66.2242584985538 70.5260967775568  68.8260299493143 72.1864203436611  68.8260299493143 72.1864203436611  C 68.8260299493143 72.1864203436611  68.7402295328974 73.5495499540188  68.7402295328974 73.5495499540188  C 68.7402295328974 73.5495499540188  64.2609430876014 74.5104770775993  64.2609430876014 74.5104770775993  C 64.2609430876014 74.5104770775993  60.6699433063864 76.7850014855799  60.6699433063864 76.7850014855799  C 60.6699433063864 76.7850014855799  55.5547243629413 82.8992718018059  55.5547243629413 82.8992718018059  C 55.5547243629413 82.8992718018059  48.8976214656507 85.4908030959159  48.8976214656507 85.4908030959159  C 48.8976214656507 85.4908030959159  42.0638706522072 85.1420955211732  42.0638706522072 85.1420955211732  C 42.0638706522072 85.1420955211732  40.0677491996838 85.6572317111339  40.0677491996838 85.6572317111339  C 40.0677491996838 85.6572317111339  40.7692937809754 87.622674405138  40.7692937809754 87.622674405138  C 40.7692937809754 87.622674405138  35.244019000054 89.5722667548354  35.244019000054 89.5722667548354  C 35.244019000054 89.5722667548354  32.2410044254611 91.7477265109004  32.2410044254611 91.7477265109004  C 32.2410044254611 91.7477265109004  23.3329023680555 93.8795978201222  23.3329023680555 93.8795978201222  C 23.3329023680555 93.8795978201222  21.5664232065302 92.6175141547187  21.5664232065302 92.6175141547187  C 21.5664232065302 92.6175141547187  20.3929763349455 92.5105243306499  20.3929763349455 92.5105243306499  C 20.3929763349455 92.5105243306499  19.0908288387355 93.9410179043099  19.0908288387355 93.9410179043099  C 19.0908288387355 93.9410179043099  13.2387357307685 94.3610520284316  13.2387357307685 94.3610520284316  C 13.2387357307685 94.3610520284316  14.3490940608699 92.8532880262776  14.3490940608699 92.8532880262776  C 14.3490940608699 92.8532880262776  12.1157596923703 89.0095795319551  12.1157596923703 89.0095795319551  C 12.1157596923703 89.0095795319551  11.1214842785975 86.6993918492851  11.1214842785975 86.6993918492851  C 11.1214842785975 86.6993918492851  8.04023991256573 85.7523337769728  8.04023991256573 85.7523337769728  C 8.04023991256573 85.7523337769728  3.86125492472888 82.4891441428755  3.86125492472888 82.4891441428755  C 3.86125492472888 82.4891441428755  5.40061533691519 79.8460992297695  5.40061533691519 79.8460992297695  C 5.40061533691519 79.8460992297695  8.6257015775282 80.4087864526494  8.6257015775282 80.4087864526494  C 8.6257015775282 80.4087864526494  10.6218230300517 80.0085652589107  10.6218230300517 80.0085652589107  C 10.6218230300517 80.0085652589107  14.5736892685497 80.0640414639835  14.5736892685497 80.0640414639835  C 14.5736892685497 80.0640414639835  10.7227646964246 74.962211890334  10.7227646964246 74.962211890334  C 10.7227646964246 74.962211890334  10.9801659456753 71.2254932200807  10.9801659456753 71.2254932200807  C 10.9801659456753 71.2254932200807  10.5082636553821 67.4828306707121  10.5082636553821 67.4828306707121  Z " fill-rule="nonzero" fill="#f2f2f2" stroke="none" transform="matrix(1 0 0 1 1936 4207 )" />
    <path d="M 10.5082636553821 67.4828306707121  C 10.5082636553821 67.4828306707121  7.69451470523876 63.8610269966805  7.69451470523876 63.8610269966805  C 7.69451470523876 63.8610269966805  8.40110636984868 61.1922252740764  8.40110636984868 61.1922252740764  C 8.40110636984868 61.1922252740764  3.86377846638828 61.0614599335478  3.86377846638828 61.0614599335478  C 3.86377846638828 61.0614599335478  3.88144325800325 57.4059742778653  3.88144325800325 57.4059742778653  C 3.88144325800325 57.4059742778653  0.933946599915487 55.2978784851027  0.933946599915487 55.2978784851027  C 0.933946599915487 55.2978784851027  3.98995554935412 46.329571000129  3.98995554935412 46.329571000129  C 3.98995554935412 46.329571000129  13.0141405230888 40.9087532473116  13.0141405230888 40.9087532473116  C 13.0141405230888 40.9087532473116  13.3876246886685 33.3877648738854  13.3876246886685 33.3877648738854  C 13.3876246886685 33.3877648738854  16.1130496807358 21.5396325047887  16.1130496807358 21.5396325047887  C 16.1130496807358 21.5396325047887  17.6524100929221 19.0075400018279  17.6524100929221 19.0075400018279  C 17.6524100929221 19.0075400018279  14.7099605181531 16.9866211027514  14.7099605181531 16.9866211027514  C 14.7099605181531 16.9866211027514  14.593877601824 15.1063740093948  14.593877601824 15.1063740093948  C 14.593877601824 15.1063740093948  11.9492059428549 13.5669093186275  11.9492059428549 13.5669093186275  C 11.9492059428549 13.5669093186275  10.2104857395825 4.30040177844973  10.2104857395825 4.30040177844973  C 10.2104857395825 4.30040177844973  17.3546321771222 1.01541792093084  17.3546321771222 1.01541792093084  C 17.3546321771222 1.01541792093084  47.4062083449916 12.4593665102121  47.4062083449916 12.4593665102121  C 47.4062083449916 12.4593665102121  75.6269747211866 23.7507555355434  75.6269747211866 23.7507555355434  C 75.6269747211866 23.7507555355434  75.9777470118321 46.7515864172893  75.9777470118321 46.7515864172893  C 75.9777470118321 46.7515864172893  69.8758232795922 46.3493839305121  69.8758232795922 46.3493839305121  C 69.8758232795922 46.3493839305121  66.643166414001 52.0029881623924  66.643166414001 52.0029881623924  C 66.643166414001 52.0029881623924  64.7732220444435 55.527708477547  64.7732220444435 55.527708477547  C 64.7732220444435 55.527708477547  66.2494939151469 56.8591373992913  66.2494939151469 56.8591373992913  C 66.2494939151469 56.8591373992913  63.9227885052522 58.6026752730046  63.9227885052522 58.6026752730046  C 63.9227885052522 58.6026752730046  64.7252747529164 60.9544701094793  64.7252747529164 60.9544701094793  C 64.7252747529164 60.9544701094793  62.8906599665897 63.3161714111454  62.8906599665897 63.3161714111454  C 62.8906599665897 63.3161714111454  62.1790212186607 65.3965291013711  62.1790212186607 65.3965291013711  C 62.1790212186607 65.3965291013711  64.6621862114335 65.06961575005  64.6621862114335 65.06961575005  C 64.6621862114335 65.06961575005  66.1460287071146 67.2490380921914  66.1460287071146 67.2490380921914  C 66.1460287071146 67.2490380921914  66.2242584985538 70.5260967775568  66.2242584985538 70.5260967775568  C 66.2242584985538 70.5260967775568  68.8260299493143 72.1864203436611  68.8260299493143 72.1864203436611  C 68.8260299493143 72.1864203436611  68.7402295328974 73.5495499540188  68.7402295328974 73.5495499540188  C 68.7402295328974 73.5495499540188  64.2609430876014 74.5104770775993  64.2609430876014 74.5104770775993  C 64.2609430876014 74.5104770775993  60.6699433063864 76.7850014855799  60.6699433063864 76.7850014855799  C 60.6699433063864 76.7850014855799  55.5547243629413 82.8992718018059  55.5547243629413 82.8992718018059  C 55.5547243629413 82.8992718018059  48.8976214656507 85.4908030959159  48.8976214656507 85.4908030959159  C 48.8976214656507 85.4908030959159  42.0638706522072 85.1420955211732  42.0638706522072 85.1420955211732  C 42.0638706522072 85.1420955211732  40.0677491996838 85.6572317111339  40.0677491996838 85.6572317111339  C 40.0677491996838 85.6572317111339  40.7692937809754 87.622674405138  40.7692937809754 87.622674405138  C 40.7692937809754 87.622674405138  35.244019000054 89.5722667548354  35.244019000054 89.5722667548354  C 35.244019000054 89.5722667548354  32.2410044254611 91.7477265109004  32.2410044254611 91.7477265109004  C 32.2410044254611 91.7477265109004  23.3329023680555 93.8795978201222  23.3329023680555 93.8795978201222  C 23.3329023680555 93.8795978201222  21.5664232065302 92.6175141547187  21.5664232065302 92.6175141547187  C 21.5664232065302 92.6175141547187  20.3929763349455 92.5105243306499  20.3929763349455 92.5105243306499  C 20.3929763349455 92.5105243306499  19.0908288387355 93.9410179043099  19.0908288387355 93.9410179043099  C 19.0908288387355 93.9410179043099  13.2387357307685 94.3610520284316  13.2387357307685 94.3610520284316  C 13.2387357307685 94.3610520284316  14.3490940608699 92.8532880262776  14.3490940608699 92.8532880262776  C 14.3490940608699 92.8532880262776  12.1157596923703 89.0095795319551  12.1157596923703 89.0095795319551  C 12.1157596923703 89.0095795319551  11.1214842785975 86.6993918492851  11.1214842785975 86.6993918492851  C 11.1214842785975 86.6993918492851  8.04023991256573 85.7523337769728  8.04023991256573 85.7523337769728  C 8.04023991256573 85.7523337769728  3.86125492472888 82.4891441428755  3.86125492472888 82.4891441428755  C 3.86125492472888 82.4891441428755  5.40061533691519 79.8460992297695  5.40061533691519 79.8460992297695  C 5.40061533691519 79.8460992297695  8.6257015775282 80.4087864526494  8.6257015775282 80.4087864526494  C 8.6257015775282 80.4087864526494  10.6218230300517 80.0085652589107  10.6218230300517 80.0085652589107  C 10.6218230300517 80.0085652589107  14.5736892685497 80.0640414639835  14.5736892685497 80.0640414639835  C 14.5736892685497 80.0640414639835  10.7227646964246 74.962211890334  10.7227646964246 74.962211890334  C 10.7227646964246 74.962211890334  10.9801659456753 71.2254932200807  10.9801659456753 71.2254932200807  C 10.9801659456753 71.2254932200807  10.5082636553821 67.4828306707121  10.5082636553821 67.4828306707121  Z " stroke-width="2" stroke="#505050" fill="none" stroke-opacity="0.211764705882353" transform="matrix(1 0 0 1 1936 4207 )" mask="url(#clip228)" />
  </g>
</svg>