<?xml version="1.0" encoding="utf-8"?>
<svg version="1.1" xmlns:xlink="http://www.w3.org/1999/xlink" width="17px" height="14px" xmlns="http://www.w3.org/2000/svg">
  <defs>
    <mask fill="white" id="clip229">
      <path d="M 1.9688722168754 2.36900286321022  C 1.9688722168754 2.36900286321022  2.45767458918979 0.510452666599425  2.45767458918979 0.510452666599425  C 2.45767458918979 0.510452666599425  7.16109741640942 3.37107831483905  7.16109741640942 3.37107831483905  C 7.16109741640942 3.37107831483905  15.9374197322222 4.51233091252768  15.9374197322222 4.51233091252768  C 15.9374197322222 4.51233091252768  16.1948209814726 7.80867138725908  16.1948209814726 7.80867138725908  C 16.1948209814726 7.80867138725908  14.153811075797 12.0011152639455  14.153811075797 12.0011152639455  C 14.153811075797 12.0011152639455  1.07446787604444 12.6027887722951  1.07446787604444 12.6027887722951  C 1.07446787604444 12.6027887722951  0.892466992735712 7.69304729668647  0.892466992735712 7.69304729668647  C 0.892466992735712 7.69304729668647  1.9688722168754 2.36900286321022  1.9688722168754 2.36900286321022  Z " fill-rule="evenodd" />
    </mask>
  </defs>
  <g transform="matrix(1 0 0 1 -2329 -4651 )">
    <path d="M 1.9688722168754 2.36900286321022  C 1.9688722168754 2.36900286321022  2.45767458918979 0.510452666599425  2.45767458918979 0.510452666599425  C 2.45767458918979 0.510452666599425  7.16109741640942 3.37107831483905  7.16109741640942 3.37107831483905  C 7.16109741640942 3.37107831483905  15.9374197322222 4.51233091252768  15.9374197322222 4.51233091252768  C 15.9374197322222 4.51233091252768  16.1948209814726 7.80867138725908  16.1948209814726 7.80867138725908  C 16.1948209814726 7.80867138725908  14.153811075797 12.0011152639455  14.153811075797 12.0011152639455  C 14.153811075797 12.0011152639455  1.07446787604444 12.6027887722951  1.07446787604444 12.6027887722951  C 1.07446787604444 12.6027887722951  0.892466992735712 7.69304729668647  0.892466992735712 7.69304729668647  C 0.892466992735712 7.69304729668647  1.9688722168754 2.36900286321022  1.9688722168754 2.36900286321022  Z " fill-rule="nonzero" fill="#f2f2f2" stroke="none" transform="matrix(1 0 0 1 2329 4651 )" />
    <path d="M 1.9688722168754 2.36900286321022  C 1.9688722168754 2.36900286321022  2.45767458918979 0.510452666599425  2.45767458918979 0.510452666599425  C 2.45767458918979 0.510452666599425  7.16109741640942 3.37107831483905  7.16109741640942 3.37107831483905  C 7.16109741640942 3.37107831483905  15.9374197322222 4.51233091252768  15.9374197322222 4.51233091252768  C 15.9374197322222 4.51233091252768  16.1948209814726 7.80867138725908  16.1948209814726 7.80867138725908  C 16.1948209814726 7.80867138725908  14.153811075797 12.0011152639455  14.153811075797 12.0011152639455  C 14.153811075797 12.0011152639455  1.07446787604444 12.6027887722951  1.07446787604444 12.6027887722951  C 1.07446787604444 12.6027887722951  0.892466992735712 7.69304729668647  0.892466992735712 7.69304729668647  C 0.892466992735712 7.69304729668647  1.9688722168754 2.36900286321022  1.9688722168754 2.36900286321022  Z " stroke-width="2" stroke="#505050" fill="none" stroke-opacity="0.211764705882353" transform="matrix(1 0 0 1 2329 4651 )" mask="url(#clip229)" />
  </g>
</svg>