<?xml version="1.0" encoding="utf-8"?>
<svg version="1.1" xmlns:xlink="http://www.w3.org/1999/xlink" width="17px" height="32px" xmlns="http://www.w3.org/2000/svg">
  <defs>
    <mask fill="white" id="clip230">
      <path d="M 14.1653373306423 25.9426118704945  C 14.1653373306423 25.9426118704945  15.9619460501608 29.8147675617038  15.9619460501608 29.8147675617038  C 15.9619460501608 29.8147675617038  10.0937175697659 31.0100503681421  10.0937175697659 31.0100503681421  C 10.0937175697659 31.0100503681421  6.57722078157382 29.039935993711  6.57722078157382 29.039935993711  C 6.57722078157382 29.039935993711  4.63241134278985 25.4801155082043  4.63241134278985 25.4801155082043  C 4.63241134278985 25.4801155082043  4.05260852882088 22.6831136981633  4.05260852882088 22.6831136981633  C 4.05260852882088 22.6831136981633  5.66721636503041 17.6116709030066  5.66721636503041 17.6116709030066  C 5.66721636503041 17.6116709030066  3.83680748146915 14.1009186775865  3.83680748146915 14.1009186775865  C 3.83680748146915 14.1009186775865  3.14260411227748 9.65214414508029  3.14260411227748 9.65214414508029  C 3.14260411227748 9.65214414508029  3.15560417537093 5.54173275208549  3.15560417537093 5.54173275208549  C 3.15560417537093 5.54173275208549  0.110989398878941 2.616593421756  0.110989398878941 2.616593421756  C 0.110989398878941 2.616593421756  0.649192010948999 0.846693922775475  0.649192010948999 0.846693922775475  C 0.649192010948999 0.846693922775475  7.03222298984541 0.966822848045757  7.03222298984541 0.966822848045757  C 7.03222298984541 0.966822848045757  6.10401848497122 3.95603093851903  6.10401848497122 3.95603093851903  C 6.10401848497122 3.95603093851903  10.2211181880818 5.62982729728339  10.2211181880818 5.62982729728339  C 10.2211181880818 5.62982729728339  12.7535304786909 7.61395671299628  12.7535304786909 7.61395671299628  C 12.7535304786909 7.61395671299628  13.0291318162727 10.3889348867375  13.0291318162727 10.3889348867375  C 13.0291318162727 10.3889348867375  14.4981389458353 11.5541854618585  14.4981389458353 11.5541854618585  C 14.4981389458353 11.5541854618585  14.1653373306423 25.9426118704945  14.1653373306423 25.9426118704945  Z " fill-rule="evenodd" />
    </mask>
  </defs>
  <g transform="matrix(1 0 0 1 -1840 -4279 )">
    <path d="M 14.1653373306423 25.9426118704945  C 14.1653373306423 25.9426118704945  15.9619460501608 29.8147675617038  15.9619460501608 29.8147675617038  C 15.9619460501608 29.8147675617038  10.0937175697659 31.0100503681421  10.0937175697659 31.0100503681421  C 10.0937175697659 31.0100503681421  6.57722078157382 29.039935993711  6.57722078157382 29.039935993711  C 6.57722078157382 29.039935993711  4.63241134278985 25.4801155082043  4.63241134278985 25.4801155082043  C 4.63241134278985 25.4801155082043  4.05260852882088 22.6831136981633  4.05260852882088 22.6831136981633  C 4.05260852882088 22.6831136981633  5.66721636503041 17.6116709030066  5.66721636503041 17.6116709030066  C 5.66721636503041 17.6116709030066  3.83680748146915 14.1009186775865  3.83680748146915 14.1009186775865  C 3.83680748146915 14.1009186775865  3.14260411227748 9.65214414508029  3.14260411227748 9.65214414508029  C 3.14260411227748 9.65214414508029  3.15560417537093 5.54173275208549  3.15560417537093 5.54173275208549  C 3.15560417537093 5.54173275208549  0.110989398878941 2.616593421756  0.110989398878941 2.616593421756  C 0.110989398878941 2.616593421756  0.649192010948999 0.846693922775475  0.649192010948999 0.846693922775475  C 0.649192010948999 0.846693922775475  7.03222298984541 0.966822848045757  7.03222298984541 0.966822848045757  C 7.03222298984541 0.966822848045757  6.10401848497122 3.95603093851903  6.10401848497122 3.95603093851903  C 6.10401848497122 3.95603093851903  10.2211181880818 5.62982729728339  10.2211181880818 5.62982729728339  C 10.2211181880818 5.62982729728339  12.7535304786909 7.61395671299628  12.7535304786909 7.61395671299628  C 12.7535304786909 7.61395671299628  13.0291318162727 10.3889348867375  13.0291318162727 10.3889348867375  C 13.0291318162727 10.3889348867375  14.4981389458353 11.5541854618585  14.4981389458353 11.5541854618585  C 14.4981389458353 11.5541854618585  14.1653373306423 25.9426118704945  14.1653373306423 25.9426118704945  Z " fill-rule="nonzero" fill="#f2f2f2" stroke="none" transform="matrix(1 0 0 1 1840 4279 )" />
    <path d="M 14.1653373306423 25.9426118704945  C 14.1653373306423 25.9426118704945  15.9619460501608 29.8147675617038  15.9619460501608 29.8147675617038  C 15.9619460501608 29.8147675617038  10.0937175697659 31.0100503681421  10.0937175697659 31.0100503681421  C 10.0937175697659 31.0100503681421  6.57722078157382 29.039935993711  6.57722078157382 29.039935993711  C 6.57722078157382 29.039935993711  4.63241134278985 25.4801155082043  4.63241134278985 25.4801155082043  C 4.63241134278985 25.4801155082043  4.05260852882088 22.6831136981633  4.05260852882088 22.6831136981633  C 4.05260852882088 22.6831136981633  5.66721636503041 17.6116709030066  5.66721636503041 17.6116709030066  C 5.66721636503041 17.6116709030066  3.83680748146915 14.1009186775865  3.83680748146915 14.1009186775865  C 3.83680748146915 14.1009186775865  3.14260411227748 9.65214414508029  3.14260411227748 9.65214414508029  C 3.14260411227748 9.65214414508029  3.15560417537093 5.54173275208549  3.15560417537093 5.54173275208549  C 3.15560417537093 5.54173275208549  0.110989398878941 2.616593421756  0.110989398878941 2.616593421756  C 0.110989398878941 2.616593421756  0.649192010948999 0.846693922775475  0.649192010948999 0.846693922775475  C 0.649192010948999 0.846693922775475  7.03222298984541 0.966822848045757  7.03222298984541 0.966822848045757  C 7.03222298984541 0.966822848045757  6.10401848497122 3.95603093851903  6.10401848497122 3.95603093851903  C 6.10401848497122 3.95603093851903  10.2211181880818 5.62982729728339  10.2211181880818 5.62982729728339  C 10.2211181880818 5.62982729728339  12.7535304786909 7.61395671299628  12.7535304786909 7.61395671299628  C 12.7535304786909 7.61395671299628  13.0291318162727 10.3889348867375  13.0291318162727 10.3889348867375  C 13.0291318162727 10.3889348867375  14.4981389458353 11.5541854618585  14.4981389458353 11.5541854618585  C 14.4981389458353 11.5541854618585  14.1653373306423 25.9426118704945  14.1653373306423 25.9426118704945  Z " stroke-width="2" stroke="#505050" fill="none" stroke-opacity="0.211764705882353" transform="matrix(1 0 0 1 1840 4279 )" mask="url(#clip230)" />
  </g>
</svg>