<?xml version="1.0" encoding="utf-8"?>
<svg version="1.1" xmlns:xlink="http://www.w3.org/1999/xlink" width="20px" height="11px" xmlns="http://www.w3.org/2000/svg">
  <defs>
    <mask fill="white" id="clip231">
      <path d="M 1.73047554849001 7.99233468708664  C 1.73047554849001 7.99233468708664  1.01721005469782 6.78968683344436  1.01721005469782 6.78968683344436  C 1.01721005469782 6.78968683344436  1.8455991018738 3.77983951620224  1.8455991018738 3.77983951620224  C 1.8455991018738 3.77983951620224  7.884580282644 2.41063791304474  7.884580282644 2.41063791304474  C 7.884580282644 2.41063791304474  14.5980158055863 2.20298648507768  14.5980158055863 2.20298648507768  C 14.5980158055863 2.20298648507768  16.7928713777106 1.44376095157301  16.7928713777106 1.44376095157301  C 16.7928713777106 1.44376095157301  19.4482211633704 2.19649737795368  19.4482211633704 2.19649737795368  C 19.4482211633704 2.19649737795368  16.8679519560047 3.84905665885792  16.8679519560047 3.84905665885792  C 16.8679519560047 3.84905665885792  7.73441912605656 8.08967129394617  7.73441912605656 8.08967129394617  C 7.73441912605656 8.08967129394617  1.85811253158921 9.84389325312606  1.85811253158921 9.84389325312606  C 1.85811253158921 9.84389325312606  1.73047554849001 7.99233468708664  1.73047554849001 7.99233468708664  Z " fill-rule="evenodd" />
    </mask>
  </defs>
  <g transform="matrix(1 0 0 1 -2729 -4386 )">
    <path d="M 1.73047554849001 7.99233468708664  C 1.73047554849001 7.99233468708664  1.01721005469782 6.78968683344436  1.01721005469782 6.78968683344436  C 1.01721005469782 6.78968683344436  1.8455991018738 3.77983951620224  1.8455991018738 3.77983951620224  C 1.8455991018738 3.77983951620224  7.884580282644 2.41063791304474  7.884580282644 2.41063791304474  C 7.884580282644 2.41063791304474  14.5980158055863 2.20298648507768  14.5980158055863 2.20298648507768  C 14.5980158055863 2.20298648507768  16.7928713777106 1.44376095157301  16.7928713777106 1.44376095157301  C 16.7928713777106 1.44376095157301  19.4482211633704 2.19649737795368  19.4482211633704 2.19649737795368  C 19.4482211633704 2.19649737795368  16.8679519560047 3.84905665885792  16.8679519560047 3.84905665885792  C 16.8679519560047 3.84905665885792  7.73441912605656 8.08967129394617  7.73441912605656 8.08967129394617  C 7.73441912605656 8.08967129394617  1.85811253158921 9.84389325312606  1.85811253158921 9.84389325312606  C 1.85811253158921 9.84389325312606  1.73047554849001 7.99233468708664  1.73047554849001 7.99233468708664  Z " fill-rule="nonzero" fill="#f2f2f2" stroke="none" transform="matrix(1 0 0 1 2729 4386 )" />
    <path d="M 1.73047554849001 7.99233468708664  C 1.73047554849001 7.99233468708664  1.01721005469782 6.78968683344436  1.01721005469782 6.78968683344436  C 1.01721005469782 6.78968683344436  1.8455991018738 3.77983951620224  1.8455991018738 3.77983951620224  C 1.8455991018738 3.77983951620224  7.884580282644 2.41063791304474  7.884580282644 2.41063791304474  C 7.884580282644 2.41063791304474  14.5980158055863 2.20298648507768  14.5980158055863 2.20298648507768  C 14.5980158055863 2.20298648507768  16.7928713777106 1.44376095157301  16.7928713777106 1.44376095157301  C 16.7928713777106 1.44376095157301  19.4482211633704 2.19649737795368  19.4482211633704 2.19649737795368  C 19.4482211633704 2.19649737795368  16.8679519560047 3.84905665885792  16.8679519560047 3.84905665885792  C 16.8679519560047 3.84905665885792  7.73441912605656 8.08967129394617  7.73441912605656 8.08967129394617  C 7.73441912605656 8.08967129394617  1.85811253158921 9.84389325312606  1.85811253158921 9.84389325312606  C 1.85811253158921 9.84389325312606  1.73047554849001 7.99233468708664  1.73047554849001 7.99233468708664  Z " stroke-width="2" stroke="#505050" fill="none" stroke-opacity="0.211764705882353" transform="matrix(1 0 0 1 2729 4386 )" mask="url(#clip231)" />
  </g>
</svg>