<?xml version="1.0" encoding="utf-8"?>
<svg version="1.1" xmlns:xlink="http://www.w3.org/1999/xlink" width="105px" height="56px" xmlns="http://www.w3.org/2000/svg">
  <defs>
    <mask fill="white" id="clip232">
      <path d="M 72.6270302651152 55.003073029528  C 72.6270302651152 55.003073029528  65.3777040601385 52.4336487945822  65.3777040601385 52.4336487945822  C 65.3777040601385 52.4336487945822  64.7539425188917 46.689997389388  64.7539425188917 46.689997389388  C 64.7539425188917 46.689997389388  59.4545050343158 46.4429373667971  59.4545050343158 46.4429373667971  C 59.4545050343158 46.4429373667971  49.4882860388228 40.3257312074453  49.4882860388228 40.3257312074453  C 49.4882860388228 40.3257312074453  43.8110417670692 39.5667628180461  43.8110417670692 39.5667628180461  C 43.8110417670692 39.5667628180461  35.9480964849308 36.0268868143631  35.9480964849308 36.0268868143631  C 35.9480964849308 36.0268868143631  30.8920781384028 35.3805777952652  30.8920781384028 35.3805777952652  C 30.8920781384028 35.3805777952652  27.7707348161477 36.6870311947261  27.7707348161477 36.6870311947261  C 27.7707348161477 36.6870311947261  23.0164547761577 36.4834537361111  23.0164547761577 36.4834537361111  C 23.0164547761577 36.4834537361111  17.9604364296297 40.4700142606385  17.9604364296297 40.4700142606385  C 17.9604364296297 40.4700142606385  11.7126785530773 41.8120443033525  11.7126785530773 41.8120443033525  C 11.7126785530773 41.8120443033525  10.3916226059653 36.8886321731603  10.3916226059653 36.8886321731603  C 10.3916226059653 36.8886321731603  11.4236183266458 29.5203140594081  11.4236183266458 29.5203140594081  C 11.4236183266458 29.5203140594081  5.88076170402276 25.6750872832039  5.88076170402276 25.6750872832039  C 5.88076170402276 25.6750872832039  7.70386962335746 20.7674869944574  7.70386962335746 20.7674869944574  C 7.70386962335746 20.7674869944574  2.9850882076663 20.3484731961432  2.9850882076663 20.3484731961432  C 2.9850882076663 20.3484731961432  4.55717014088948 14.2332435169723  4.55717014088948 14.2332435169723  C 4.55717014088948 14.2332435169723  11.2638745173024 16.0219580805306  11.2638745173024 16.0219580805306  C 11.2638745173024 16.0219580805306  17.5090967778331 13.6877349870915  17.5090967778331 13.6877349870915  C 17.5090967778331 13.6877349870915  12.3313688622813 9.28216066424986  12.3313688622813 9.28216066424986  C 12.3313688622813 9.28216066424986  10.2927335811335 5.04261067658926  10.2927335811335 5.04261067658926  C 10.2927335811335 5.04261067658926  4.56984822099631 6.938055169907  4.56984822099631 6.938055169907  C 4.56984822099631 6.938055169907  3.84466203889618 12.3397755038353  3.84466203889618 12.3397755038353  C 3.84466203889618 12.3397755038353  1.62346240421297 7.56657586737843  1.62346240421297 7.56657586737843  C 1.62346240421297 7.56657586737843  4.76509065463855 5.09597564146901  4.76509065463855 5.09597564146901  C 4.76509065463855 5.09597564146901  12.8359564505256 3.54443869959784  12.8359564505256 3.54443869959784  C 12.8359564505256 3.54443869959784  17.640948810942 5.63160177044606  17.640948810942 5.63160177044606  C 17.640948810942 5.63160177044606  22.615827444788 11.4266416603392  22.615827444788 11.4266416603392  C 22.615827444788 11.4266416603392  26.264578899479 11.0669222674468  26.264578899479 11.0669222674468  C 26.264578899479 11.0669222674468  34.2847323749395 10.9661217782296  34.2847323749395 10.9661217782296  C 34.2847323749395 10.9661217782296  33.1183490051289 7.25033903846193  33.1183490051289 7.25033903846193  C 33.1183490051289 7.25033903846193  39.1911493762093 4.69079720441978  39.1911493762093 4.69079720441978  C 39.1911493762093 4.69079720441978  45.1802744185861 0.340564326638602  45.1802744185861 0.340564326638602  C 45.1802744185861 0.340564326638602  56.6019370103217 4.29747764845513  56.6019370103217 4.29747764845513  C 56.6019370103217 4.29747764845513  57.3626218167203 10.2111063491917  57.3626218167203 10.2111063491917  C 57.3626218167203 10.2111063491917  60.0833378076054 11.7152077667254  60.0833378076054 11.7152077667254  C 60.0833378076054 11.7152077667254  67.7687899682507 11.3772296558211  67.7687899682507 11.3772296558211  C 67.7687899682507 11.3772296558211  70.1548046443205 12.7093772976314  70.1548046443205 12.7093772976314  C 70.1548046443205 12.7093772976314  73.6514191377318 20.2022136627694  73.6514191377318 20.2022136627694  C 73.6514191377318 20.2022136627694  81.7806041021092 25.1572494758533  81.7806041021092 25.1572494758533  C 81.7806041021092 25.1572494758533  86.4182458051187 29.9432808180837  86.4182458051187 29.9432808180837  C 86.4182458051187 29.9432808180837  93.8526719796525 33.4040976145377  93.8526719796525 33.4040976145377  C 93.8526719796525 33.4040976145377  103.310519739206 36.4083474892435  103.310519739206 36.4083474892435  C 103.310519739206 36.4083474892435  103.115277305564 40.6755681994342  103.115277305564 40.6755681994342  C 103.115277305564 40.6755681994342  100.972681767542 40.4601318597349  100.972681767542 40.4601318597349  C 100.972681767542 40.4601318597349  97.6180617713245 38.6002640096703  97.6180617713245 38.6002640096703  C 97.6180617713245 38.6002640096703  96.5023907219403 41.0748171959411  96.5023907219403 41.0748171959411  C 96.5023907219403 41.0748171959411  90.5107300635423 42.4148707584744  90.5107300635423 42.4148707584744  C 90.5107300635423 42.4148707584744  89.0907850915981 47.9193680618005  89.0907850915981 47.9193680618005  C 89.0907850915981 47.9193680618005  85.0845117778998 49.9986252119258  85.0845117778998 49.9986252119258  C 85.0845117778998 49.9986252119258  79.4731935227011 51.0244184257234  79.4731935227011 51.0244184257234  C 79.4731935227011 51.0244184257234  77.989858150224 54.1017980671162  77.989858150224 54.1017980671162  C 77.989858150224 54.1017980671162  72.6270302651152 55.003073029528  72.6270302651152 55.003073029528  Z " fill-rule="evenodd" />
    </mask>
  </defs>
  <g transform="matrix(1 0 0 1 -2213 -4081 )">
    <path d="M 72.6270302651152 55.003073029528  C 72.6270302651152 55.003073029528  65.3777040601385 52.4336487945822  65.3777040601385 52.4336487945822  C 65.3777040601385 52.4336487945822  64.7539425188917 46.689997389388  64.7539425188917 46.689997389388  C 64.7539425188917 46.689997389388  59.4545050343158 46.4429373667971  59.4545050343158 46.4429373667971  C 59.4545050343158 46.4429373667971  49.4882860388228 40.3257312074453  49.4882860388228 40.3257312074453  C 49.4882860388228 40.3257312074453  43.8110417670692 39.5667628180461  43.8110417670692 39.5667628180461  C 43.8110417670692 39.5667628180461  35.9480964849308 36.0268868143631  35.9480964849308 36.0268868143631  C 35.9480964849308 36.0268868143631  30.8920781384028 35.3805777952652  30.8920781384028 35.3805777952652  C 30.8920781384028 35.3805777952652  27.7707348161477 36.6870311947261  27.7707348161477 36.6870311947261  C 27.7707348161477 36.6870311947261  23.0164547761577 36.4834537361111  23.0164547761577 36.4834537361111  C 23.0164547761577 36.4834537361111  17.9604364296297 40.4700142606385  17.9604364296297 40.4700142606385  C 17.9604364296297 40.4700142606385  11.7126785530773 41.8120443033525  11.7126785530773 41.8120443033525  C 11.7126785530773 41.8120443033525  10.3916226059653 36.8886321731603  10.3916226059653 36.8886321731603  C 10.3916226059653 36.8886321731603  11.4236183266458 29.5203140594081  11.4236183266458 29.5203140594081  C 11.4236183266458 29.5203140594081  5.88076170402276 25.6750872832039  5.88076170402276 25.6750872832039  C 5.88076170402276 25.6750872832039  7.70386962335746 20.7674869944574  7.70386962335746 20.7674869944574  C 7.70386962335746 20.7674869944574  2.9850882076663 20.3484731961432  2.9850882076663 20.3484731961432  C 2.9850882076663 20.3484731961432  4.55717014088948 14.2332435169723  4.55717014088948 14.2332435169723  C 4.55717014088948 14.2332435169723  11.2638745173024 16.0219580805306  11.2638745173024 16.0219580805306  C 11.2638745173024 16.0219580805306  17.5090967778331 13.6877349870915  17.5090967778331 13.6877349870915  C 17.5090967778331 13.6877349870915  12.3313688622813 9.28216066424986  12.3313688622813 9.28216066424986  C 12.3313688622813 9.28216066424986  10.2927335811335 5.04261067658926  10.2927335811335 5.04261067658926  C 10.2927335811335 5.04261067658926  4.56984822099631 6.938055169907  4.56984822099631 6.938055169907  C 4.56984822099631 6.938055169907  3.84466203889618 12.3397755038353  3.84466203889618 12.3397755038353  C 3.84466203889618 12.3397755038353  1.62346240421297 7.56657586737843  1.62346240421297 7.56657586737843  C 1.62346240421297 7.56657586737843  4.76509065463855 5.09597564146901  4.76509065463855 5.09597564146901  C 4.76509065463855 5.09597564146901  12.8359564505256 3.54443869959784  12.8359564505256 3.54443869959784  C 12.8359564505256 3.54443869959784  17.640948810942 5.63160177044606  17.640948810942 5.63160177044606  C 17.640948810942 5.63160177044606  22.615827444788 11.4266416603392  22.615827444788 11.4266416603392  C 22.615827444788 11.4266416603392  26.264578899479 11.0669222674468  26.264578899479 11.0669222674468  C 26.264578899479 11.0669222674468  34.2847323749395 10.9661217782296  34.2847323749395 10.9661217782296  C 34.2847323749395 10.9661217782296  33.1183490051289 7.25033903846193  33.1183490051289 7.25033903846193  C 33.1183490051289 7.25033903846193  39.1911493762093 4.69079720441978  39.1911493762093 4.69079720441978  C 39.1911493762093 4.69079720441978  45.1802744185861 0.340564326638602  45.1802744185861 0.340564326638602  C 45.1802744185861 0.340564326638602  56.6019370103217 4.29747764845513  56.6019370103217 4.29747764845513  C 56.6019370103217 4.29747764845513  57.3626218167203 10.2111063491917  57.3626218167203 10.2111063491917  C 57.3626218167203 10.2111063491917  60.0833378076054 11.7152077667254  60.0833378076054 11.7152077667254  C 60.0833378076054 11.7152077667254  67.7687899682507 11.3772296558211  67.7687899682507 11.3772296558211  C 67.7687899682507 11.3772296558211  70.1548046443205 12.7093772976314  70.1548046443205 12.7093772976314  C 70.1548046443205 12.7093772976314  73.6514191377318 20.2022136627694  73.6514191377318 20.2022136627694  C 73.6514191377318 20.2022136627694  81.7806041021092 25.1572494758533  81.7806041021092 25.1572494758533  C 81.7806041021092 25.1572494758533  86.4182458051187 29.9432808180837  86.4182458051187 29.9432808180837  C 86.4182458051187 29.9432808180837  93.8526719796525 33.4040976145377  93.8526719796525 33.4040976145377  C 93.8526719796525 33.4040976145377  103.310519739206 36.4083474892435  103.310519739206 36.4083474892435  C 103.310519739206 36.4083474892435  103.115277305564 40.6755681994342  103.115277305564 40.6755681994342  C 103.115277305564 40.6755681994342  100.972681767542 40.4601318597349  100.972681767542 40.4601318597349  C 100.972681767542 40.4601318597349  97.6180617713245 38.6002640096703  97.6180617713245 38.6002640096703  C 97.6180617713245 38.6002640096703  96.5023907219403 41.0748171959411  96.5023907219403 41.0748171959411  C 96.5023907219403 41.0748171959411  90.5107300635423 42.4148707584744  90.5107300635423 42.4148707584744  C 90.5107300635423 42.4148707584744  89.0907850915981 47.9193680618005  89.0907850915981 47.9193680618005  C 89.0907850915981 47.9193680618005  85.0845117778998 49.9986252119258  85.0845117778998 49.9986252119258  C 85.0845117778998 49.9986252119258  79.4731935227011 51.0244184257234  79.4731935227011 51.0244184257234  C 79.4731935227011 51.0244184257234  77.989858150224 54.1017980671162  77.989858150224 54.1017980671162  C 77.989858150224 54.1017980671162  72.6270302651152 55.003073029528  72.6270302651152 55.003073029528  Z " fill-rule="nonzero" fill="#f2f2f2" stroke="none" transform="matrix(1 0 0 1 2213 4081 )" />
    <path d="M 72.6270302651152 55.003073029528  C 72.6270302651152 55.003073029528  65.3777040601385 52.4336487945822  65.3777040601385 52.4336487945822  C 65.3777040601385 52.4336487945822  64.7539425188917 46.689997389388  64.7539425188917 46.689997389388  C 64.7539425188917 46.689997389388  59.4545050343158 46.4429373667971  59.4545050343158 46.4429373667971  C 59.4545050343158 46.4429373667971  49.4882860388228 40.3257312074453  49.4882860388228 40.3257312074453  C 49.4882860388228 40.3257312074453  43.8110417670692 39.5667628180461  43.8110417670692 39.5667628180461  C 43.8110417670692 39.5667628180461  35.9480964849308 36.0268868143631  35.9480964849308 36.0268868143631  C 35.9480964849308 36.0268868143631  30.8920781384028 35.3805777952652  30.8920781384028 35.3805777952652  C 30.8920781384028 35.3805777952652  27.7707348161477 36.6870311947261  27.7707348161477 36.6870311947261  C 27.7707348161477 36.6870311947261  23.0164547761577 36.4834537361111  23.0164547761577 36.4834537361111  C 23.0164547761577 36.4834537361111  17.9604364296297 40.4700142606385  17.9604364296297 40.4700142606385  C 17.9604364296297 40.4700142606385  11.7126785530773 41.8120443033525  11.7126785530773 41.8120443033525  C 11.7126785530773 41.8120443033525  10.3916226059653 36.8886321731603  10.3916226059653 36.8886321731603  C 10.3916226059653 36.8886321731603  11.4236183266458 29.5203140594081  11.4236183266458 29.5203140594081  C 11.4236183266458 29.5203140594081  5.88076170402276 25.6750872832039  5.88076170402276 25.6750872832039  C 5.88076170402276 25.6750872832039  7.70386962335746 20.7674869944574  7.70386962335746 20.7674869944574  C 7.70386962335746 20.7674869944574  2.9850882076663 20.3484731961432  2.9850882076663 20.3484731961432  C 2.9850882076663 20.3484731961432  4.55717014088948 14.2332435169723  4.55717014088948 14.2332435169723  C 4.55717014088948 14.2332435169723  11.2638745173024 16.0219580805306  11.2638745173024 16.0219580805306  C 11.2638745173024 16.0219580805306  17.5090967778331 13.6877349870915  17.5090967778331 13.6877349870915  C 17.5090967778331 13.6877349870915  12.3313688622813 9.28216066424986  12.3313688622813 9.28216066424986  C 12.3313688622813 9.28216066424986  10.2927335811335 5.04261067658926  10.2927335811335 5.04261067658926  C 10.2927335811335 5.04261067658926  4.56984822099631 6.938055169907  4.56984822099631 6.938055169907  C 4.56984822099631 6.938055169907  3.84466203889618 12.3397755038353  3.84466203889618 12.3397755038353  C 3.84466203889618 12.3397755038353  1.62346240421297 7.56657586737843  1.62346240421297 7.56657586737843  C 1.62346240421297 7.56657586737843  4.76509065463855 5.09597564146901  4.76509065463855 5.09597564146901  C 4.76509065463855 5.09597564146901  12.8359564505256 3.54443869959784  12.8359564505256 3.54443869959784  C 12.8359564505256 3.54443869959784  17.640948810942 5.63160177044606  17.640948810942 5.63160177044606  C 17.640948810942 5.63160177044606  22.615827444788 11.4266416603392  22.615827444788 11.4266416603392  C 22.615827444788 11.4266416603392  26.264578899479 11.0669222674468  26.264578899479 11.0669222674468  C 26.264578899479 11.0669222674468  34.2847323749395 10.9661217782296  34.2847323749395 10.9661217782296  C 34.2847323749395 10.9661217782296  33.1183490051289 7.25033903846193  33.1183490051289 7.25033903846193  C 33.1183490051289 7.25033903846193  39.1911493762093 4.69079720441978  39.1911493762093 4.69079720441978  C 39.1911493762093 4.69079720441978  45.1802744185861 0.340564326638602  45.1802744185861 0.340564326638602  C 45.1802744185861 0.340564326638602  56.6019370103217 4.29747764845513  56.6019370103217 4.29747764845513  C 56.6019370103217 4.29747764845513  57.3626218167203 10.2111063491917  57.3626218167203 10.2111063491917  C 57.3626218167203 10.2111063491917  60.0833378076054 11.7152077667254  60.0833378076054 11.7152077667254  C 60.0833378076054 11.7152077667254  67.7687899682507 11.3772296558211  67.7687899682507 11.3772296558211  C 67.7687899682507 11.3772296558211  70.1548046443205 12.7093772976314  70.1548046443205 12.7093772976314  C 70.1548046443205 12.7093772976314  73.6514191377318 20.2022136627694  73.6514191377318 20.2022136627694  C 73.6514191377318 20.2022136627694  81.7806041021092 25.1572494758533  81.7806041021092 25.1572494758533  C 81.7806041021092 25.1572494758533  86.4182458051187 29.9432808180837  86.4182458051187 29.9432808180837  C 86.4182458051187 29.9432808180837  93.8526719796525 33.4040976145377  93.8526719796525 33.4040976145377  C 93.8526719796525 33.4040976145377  103.310519739206 36.4083474892435  103.310519739206 36.4083474892435  C 103.310519739206 36.4083474892435  103.115277305564 40.6755681994342  103.115277305564 40.6755681994342  C 103.115277305564 40.6755681994342  100.972681767542 40.4601318597349  100.972681767542 40.4601318597349  C 100.972681767542 40.4601318597349  97.6180617713245 38.6002640096703  97.6180617713245 38.6002640096703  C 97.6180617713245 38.6002640096703  96.5023907219403 41.0748171959411  96.5023907219403 41.0748171959411  C 96.5023907219403 41.0748171959411  90.5107300635423 42.4148707584744  90.5107300635423 42.4148707584744  C 90.5107300635423 42.4148707584744  89.0907850915981 47.9193680618005  89.0907850915981 47.9193680618005  C 89.0907850915981 47.9193680618005  85.0845117778998 49.9986252119258  85.0845117778998 49.9986252119258  C 85.0845117778998 49.9986252119258  79.4731935227011 51.0244184257234  79.4731935227011 51.0244184257234  C 79.4731935227011 51.0244184257234  77.989858150224 54.1017980671162  77.989858150224 54.1017980671162  C 77.989858150224 54.1017980671162  72.6270302651152 55.003073029528  72.6270302651152 55.003073029528  Z " stroke-width="2" stroke="#505050" fill="none" stroke-opacity="0.211764705882353" transform="matrix(1 0 0 1 2213 4081 )" mask="url(#clip232)" />
  </g>
</svg>