<?xml version="1.0" encoding="utf-8"?>
<svg version="1.1" xmlns:xlink="http://www.w3.org/1999/xlink" width="32px" height="50px" xmlns="http://www.w3.org/2000/svg">
  <defs>
    <mask fill="white" id="clip233">
      <path d="M 20.1993185096268 48.4773255844994  C 20.1993185096268 48.4773255844994  14.7698646162075 49.9954990426475  14.7698646162075 49.9954990426475  C 14.7698646162075 49.9954990426475  11.6736004540963 38.1395764501497  11.6736004540963 38.1395764501497  C 11.6736004540963 38.1395764501497  7.19373372916743 35.4433003884786  7.19373372916743 35.4433003884786  C 7.19373372916743 35.4433003884786  7.13154934432168 33.8198669038989  7.13154934432168 33.8198669038989  C 7.13154934432168 33.8198669038989  1.19034957551776 29.8037920492778  1.19034957551776 29.8037920492778  C 1.19034957551776 29.8037920492778  0.550368614813445 23.2179713756634  0.550368614813445 23.2179713756634  C 0.550368614813445 23.2179713756634  5.02764432370724 19.3982469549628  5.02764432370724 19.3982469549628  C 5.02764432370724 19.3982469549628  6.73771490696527 13.7061086025461  6.73771490696527 13.7061086025461  C 6.73771490696527 13.7061086025461  5.58471277128367 7.05043616202483  5.58471277128367 7.05043616202483  C 5.58471277128367 7.05043616202483  7.06159191137019 3.43313486907729  7.06159191137019 3.43313486907729  C 7.06159191137019 3.43313486907729  16.8543168081325 0.572896073926272  16.8543168081325 0.572896073926272  C 16.8543168081325 0.572896073926272  21.9404812853076 1.42509744176669  21.9404812853076 1.42509744176669  C 21.9404812853076 1.42509744176669  21.728017970418 5.00393834044112  21.728017970418 5.00393834044112  C 21.728017970418 5.00393834044112  27.8894541022173 2.40280114881407  27.8894541022173 2.40280114881407  C 27.8894541022173 2.40280114881407  28.4076573092652 3.76308456731477  28.4076573092652 3.76308456731477  C 28.4076573092652 3.76308456731477  24.7750528278595 7.21439889550481  24.7750528278595 7.21439889550481  C 24.7750528278595 7.21439889550481  24.72582352319 10.4511447082765  24.72582352319 10.4511447082765  C 24.72582352319 10.4511447082765  27.2417000934074 12.1838866818429  27.2417000934074 12.1838866818429  C 27.2417000934074 12.1838866818429  26.2856151764041 18.1735870320566  26.2856151764041 18.1735870320566  C 26.2856151764041 18.1735870320566  21.5025995753522 21.6228771289691  21.5025995753522 21.6228771289691  C 21.5025995753522 21.6228771289691  22.8836111221349 26.8099539898098  22.8836111221349 26.8099539898098  C 22.8836111221349 26.8099539898098  26.640584373232 26.9253351726289  26.640584373232 26.9253351726289  C 26.640584373232 26.9253351726289  28.4672506780756 30.147911366458  28.4672506780756 30.147911366458  C 28.4672506780756 30.147911366458  31.2318647876763 31.2025358620515  31.2318647876763 31.2025358620515  C 31.2318647876763 31.2025358620515  30.8198932380733 36.3623013884776  30.8198932380733 36.3623013884776  C 30.8198932380733 36.3623013884776  27.2779743179008 38.2792484082993  27.2779743179008 38.2792484082993  C 27.2779743179008 38.2792484082993  25.0419274794891 40.4107639435393  25.0419274794891 40.4107639435393  C 25.0419274794891 40.4107639435393  20.0542216116532 42.9653438157831  20.0542216116532 42.9653438157831  C 20.0542216116532 42.9653438157831  20.8263443901545 45.7000802717272  20.8263443901545 45.7000802717272  C 20.8263443901545 45.7000802717272  20.1993185096268 48.4773255844994  20.1993185096268 48.4773255844994  Z " fill-rule="evenodd" />
    </mask>
  </defs>
  <g transform="matrix(1 0 0 1 -1894 -4118 )">
    <path d="M 20.1993185096268 48.4773255844994  C 20.1993185096268 48.4773255844994  14.7698646162075 49.9954990426475  14.7698646162075 49.9954990426475  C 14.7698646162075 49.9954990426475  11.6736004540963 38.1395764501497  11.6736004540963 38.1395764501497  C 11.6736004540963 38.1395764501497  7.19373372916743 35.4433003884786  7.19373372916743 35.4433003884786  C 7.19373372916743 35.4433003884786  7.13154934432168 33.8198669038989  7.13154934432168 33.8198669038989  C 7.13154934432168 33.8198669038989  1.19034957551776 29.8037920492778  1.19034957551776 29.8037920492778  C 1.19034957551776 29.8037920492778  0.550368614813445 23.2179713756634  0.550368614813445 23.2179713756634  C 0.550368614813445 23.2179713756634  5.02764432370724 19.3982469549628  5.02764432370724 19.3982469549628  C 5.02764432370724 19.3982469549628  6.73771490696527 13.7061086025461  6.73771490696527 13.7061086025461  C 6.73771490696527 13.7061086025461  5.58471277128367 7.05043616202483  5.58471277128367 7.05043616202483  C 5.58471277128367 7.05043616202483  7.06159191137019 3.43313486907729  7.06159191137019 3.43313486907729  C 7.06159191137019 3.43313486907729  16.8543168081325 0.572896073926272  16.8543168081325 0.572896073926272  C 16.8543168081325 0.572896073926272  21.9404812853076 1.42509744176669  21.9404812853076 1.42509744176669  C 21.9404812853076 1.42509744176669  21.728017970418 5.00393834044112  21.728017970418 5.00393834044112  C 21.728017970418 5.00393834044112  27.8894541022173 2.40280114881407  27.8894541022173 2.40280114881407  C 27.8894541022173 2.40280114881407  28.4076573092652 3.76308456731477  28.4076573092652 3.76308456731477  C 28.4076573092652 3.76308456731477  24.7750528278595 7.21439889550481  24.7750528278595 7.21439889550481  C 24.7750528278595 7.21439889550481  24.72582352319 10.4511447082765  24.72582352319 10.4511447082765  C 24.72582352319 10.4511447082765  27.2417000934074 12.1838866818429  27.2417000934074 12.1838866818429  C 27.2417000934074 12.1838866818429  26.2856151764041 18.1735870320566  26.2856151764041 18.1735870320566  C 26.2856151764041 18.1735870320566  21.5025995753522 21.6228771289691  21.5025995753522 21.6228771289691  C 21.5025995753522 21.6228771289691  22.8836111221349 26.8099539898098  22.8836111221349 26.8099539898098  C 22.8836111221349 26.8099539898098  26.640584373232 26.9253351726289  26.640584373232 26.9253351726289  C 26.640584373232 26.9253351726289  28.4672506780756 30.147911366458  28.4672506780756 30.147911366458  C 28.4672506780756 30.147911366458  31.2318647876763 31.2025358620515  31.2318647876763 31.2025358620515  C 31.2318647876763 31.2025358620515  30.8198932380733 36.3623013884776  30.8198932380733 36.3623013884776  C 30.8198932380733 36.3623013884776  27.2779743179008 38.2792484082993  27.2779743179008 38.2792484082993  C 27.2779743179008 38.2792484082993  25.0419274794891 40.4107639435393  25.0419274794891 40.4107639435393  C 25.0419274794891 40.4107639435393  20.0542216116532 42.9653438157831  20.0542216116532 42.9653438157831  C 20.0542216116532 42.9653438157831  20.8263443901545 45.7000802717272  20.8263443901545 45.7000802717272  C 20.8263443901545 45.7000802717272  20.1993185096268 48.4773255844994  20.1993185096268 48.4773255844994  Z " fill-rule="nonzero" fill="#f2f2f2" stroke="none" transform="matrix(1 0 0 1 1894 4118 )" />
    <path d="M 20.1993185096268 48.4773255844994  C 20.1993185096268 48.4773255844994  14.7698646162075 49.9954990426475  14.7698646162075 49.9954990426475  C 14.7698646162075 49.9954990426475  11.6736004540963 38.1395764501497  11.6736004540963 38.1395764501497  C 11.6736004540963 38.1395764501497  7.19373372916743 35.4433003884786  7.19373372916743 35.4433003884786  C 7.19373372916743 35.4433003884786  7.13154934432168 33.8198669038989  7.13154934432168 33.8198669038989  C 7.13154934432168 33.8198669038989  1.19034957551776 29.8037920492778  1.19034957551776 29.8037920492778  C 1.19034957551776 29.8037920492778  0.550368614813445 23.2179713756634  0.550368614813445 23.2179713756634  C 0.550368614813445 23.2179713756634  5.02764432370724 19.3982469549628  5.02764432370724 19.3982469549628  C 5.02764432370724 19.3982469549628  6.73771490696527 13.7061086025461  6.73771490696527 13.7061086025461  C 6.73771490696527 13.7061086025461  5.58471277128367 7.05043616202483  5.58471277128367 7.05043616202483  C 5.58471277128367 7.05043616202483  7.06159191137019 3.43313486907729  7.06159191137019 3.43313486907729  C 7.06159191137019 3.43313486907729  16.8543168081325 0.572896073926272  16.8543168081325 0.572896073926272  C 16.8543168081325 0.572896073926272  21.9404812853076 1.42509744176669  21.9404812853076 1.42509744176669  C 21.9404812853076 1.42509744176669  21.728017970418 5.00393834044112  21.728017970418 5.00393834044112  C 21.728017970418 5.00393834044112  27.8894541022173 2.40280114881407  27.8894541022173 2.40280114881407  C 27.8894541022173 2.40280114881407  28.4076573092652 3.76308456731477  28.4076573092652 3.76308456731477  C 28.4076573092652 3.76308456731477  24.7750528278595 7.21439889550481  24.7750528278595 7.21439889550481  C 24.7750528278595 7.21439889550481  24.72582352319 10.4511447082765  24.72582352319 10.4511447082765  C 24.72582352319 10.4511447082765  27.2417000934074 12.1838866818429  27.2417000934074 12.1838866818429  C 27.2417000934074 12.1838866818429  26.2856151764041 18.1735870320566  26.2856151764041 18.1735870320566  C 26.2856151764041 18.1735870320566  21.5025995753522 21.6228771289691  21.5025995753522 21.6228771289691  C 21.5025995753522 21.6228771289691  22.8836111221349 26.8099539898098  22.8836111221349 26.8099539898098  C 22.8836111221349 26.8099539898098  26.640584373232 26.9253351726289  26.640584373232 26.9253351726289  C 26.640584373232 26.9253351726289  28.4672506780756 30.147911366458  28.4672506780756 30.147911366458  C 28.4672506780756 30.147911366458  31.2318647876763 31.2025358620515  31.2318647876763 31.2025358620515  C 31.2318647876763 31.2025358620515  30.8198932380733 36.3623013884776  30.8198932380733 36.3623013884776  C 30.8198932380733 36.3623013884776  27.2779743179008 38.2792484082993  27.2779743179008 38.2792484082993  C 27.2779743179008 38.2792484082993  25.0419274794891 40.4107639435393  25.0419274794891 40.4107639435393  C 25.0419274794891 40.4107639435393  20.0542216116532 42.9653438157831  20.0542216116532 42.9653438157831  C 20.0542216116532 42.9653438157831  20.8263443901545 45.7000802717272  20.8263443901545 45.7000802717272  C 20.8263443901545 45.7000802717272  20.1993185096268 48.4773255844994  20.1993185096268 48.4773255844994  Z " stroke-width="2" stroke="#505050" fill="none" stroke-opacity="0.211764705882353" transform="matrix(1 0 0 1 1894 4118 )" mask="url(#clip233)" />
  </g>
</svg>