<?xml version="1.0" encoding="utf-8"?>
<svg version="1.1" xmlns:xlink="http://www.w3.org/1999/xlink" width="138px" height="48px" xmlns="http://www.w3.org/2000/svg">
  <defs>
    <mask fill="white" id="clip234">
      <path d="M 66.2064383041581 1.3691331747035  C 66.2064383041581 1.3691331747035  80.4364956135498 6.64879944032815  80.4364956135498 6.64879944032815  C 80.4364956135498 6.64879944032815  90.623088111174 9.52188290304027  90.623088111174 9.52188290304027  C 90.623088111174 9.52188290304027  98.8949456689163 8.37865596421894  98.8949456689163 8.37865596421894  C 98.8949456689163 8.37865596421894  105.00892734203 9.03936505320491  105.00892734203 9.03936505320491  C 105.00892734203 9.03936505320491  113.394757217623 5.15519646946872  113.394757217623 5.15519646946872  C 113.394757217623 5.15519646946872  120.959986404694 4.80081613992165  120.959986404694 4.80081613992165  C 120.959986404694 4.80081613992165  127.800858193875 8.45874191439899  127.800858193875 8.45874191439899  C 127.800858193875 8.45874191439899  129.006432044911 11.0635374440076  129.006432044911 11.0635374440076  C 129.006432044911 11.0635374440076  128.322598137811 14.6433794170593  128.322598137811 14.6433794170593  C 128.322598137811 14.6433794170593  133.603315531532 16.4613304861482  133.603315531532 16.4613304861482  C 133.603315531532 16.4613304861482  136.399436396121 18.5896146121851  136.399436396121 18.5896146121851  C 136.399436396121 18.5896146121851  131.536617501184 20.6558321268324  131.536617501184 20.6558321268324  C 131.536617501184 20.6558321268324  133.752745903825 30.343213259895  133.752745903825 30.343213259895  C 133.752745903825 30.343213259895  132.362283626053 32.5455768898486  132.362283626053 32.5455768898486  C 132.362283626053 32.5455768898486  136.247473305654 38.1956406750566  136.247473305654 38.1956406750566  C 136.247473305654 38.1956406750566  132.843500079198 39.378910588968  132.843500079198 39.378910588968  C 132.843500079198 39.378910588968  130.348772677368 37.5929938999512  130.348772677368 37.5929938999512  C 130.348772677368 37.5929938999512  122.089578710498 36.6860205141613  122.089578710498 36.6860205141613  C 122.089578710498 36.6860205141613  119.040186028465 37.7771915853656  119.040186028465 37.7771915853656  C 119.040186028465 37.7771915853656  110.963347770155 38.8663605078152  110.963347770155 38.8663605078152  C 110.963347770155 38.8663605078152  107.136410608566 38.7482337312995  107.136410608566 38.7482337312995  C 107.136410608566 38.7482337312995  98.963329059627 41.3710485996987  98.963329059627 41.3710485996987  C 98.963329059627 41.3710485996987  93.1203482311788 41.3930722359983  93.1203482311788 41.3930722359983  C 93.1203482311788 41.3930722359983  89.3415327149045 40.0796626530442  89.3415327149045 40.0796626530442  C 89.3415327149045 40.0796626530442  81.5230317103882 42.0197447961578  81.5230317103882 42.0197447961578  C 81.5230317103882 42.0197447961578  79.2005291444208 40.6642900893591  79.2005291444208 40.6642900893591  C 79.2005291444208 40.6642900893591  78.8155559819047 44.5444543755862  78.8155559819047 44.5444543755862  C 78.8155559819047 44.5444543755862  76.9134846328955 46.0600809827451  76.9134846328955 46.0600809827451  C 76.9134846328955 46.0600809827451  75.0114132838859 47.5717032923951  75.0114132838859 47.5717032923951  C 75.0114132838859 47.5717032923951  72.4001808460319 44.4363383428431  72.4001808460319 44.4363383428431  C 72.4001808460319 44.4363383428431  75.0899275472939 41.825536366971  75.0899275472939 41.825536366971  C 75.0899275472939 41.825536366971  70.7589794689902 42.4181723983039  70.7589794689902 42.4181723983039  C 70.7589794689902 42.4181723983039  62.979755349913 40.8144512459469  62.979755349913 40.8144512459469  C 62.979755349913 40.8144512459469  58.09667470958 44.8167466061988  58.09667470958 44.8167466061988  C 58.09667470958 44.8167466061988  47.31995887731 45.5955824717006  47.31995887731 45.5955824717006  C 47.31995887731 45.5955824717006  41.5706886213164 41.8695836395702  41.5706886213164 41.8695836395702  C 41.5706886213164 41.8695836395702  33.9168142981386 41.6353322352932  33.9168142981386 41.6353322352932  C 33.9168142981386 41.6353322352932  32.2806783574464 44.5184264417778  32.2806783574464 44.5184264417778  C 32.2806783574464 44.5184264417778  27.3722705353689 45.3413095798786  27.3722705353689 45.3413095798786  C 27.3722705353689 45.3413095798786  20.5060715644444 41.6433408303113  20.5060715644444 41.6433408303113  C 20.5060715644444 41.6433408303113  12.7534212324633 41.769476201845  12.7534212324633 41.769476201845  C 12.7534212324633 41.769476201845  8.5465763447078 34.7939899411559  8.5465763447078 34.7939899411559  C 8.5465763447078 34.7939899411559  3.35956952344138 30.8617697873116  3.35956952344138 30.8617697873116  C 3.35956952344138 30.8617697873116  6.81419711338657 25.2998005473017  6.81419711338657 25.2998005473017  C 6.81419711338657 25.2998005473017  2.31355691739492 20.3955527887472  2.31355691739492 20.3955527887472  C 2.31355691739492 20.3955527887472  10.1903104399236 13.4200665280581  10.1903104399236 13.4200665280581  C 10.1903104399236 13.4200665280581  21.1265875171839 13.1257506611462  21.1265875171839 13.1257506611462  C 21.1265875171839 13.1257506611462  24.1101295266818 7.50772125601022  24.1101295266818 7.50772125601022  C 24.1101295266818 7.50772125601022  37.6449754509243 8.49077629447129  37.6449754509243 8.49077629447129  C 37.6449754509243 8.49077629447129  46.1827684169836 3.6535849035916  46.1827684169836 3.6535849035916  C 46.1827684169836 3.6535849035916  54.4571586929005 1.52930507506368  54.4571586929005 1.52930507506368  C 54.4571586929005 1.52930507506368  66.2064383041581 1.3691331747035  66.2064383041581 1.3691331747035  Z M 14.4338599874731 10.59602009423  C 14.4338599874731 10.59602009423  9.56726176900901 12.8824739718727  9.56726176900901 12.8824739718727  C 9.56726176900901 12.8824739718727  3.64070124080405 16.838719910771  3.64070124080405 16.838719910771  C 3.64070124080405 16.838719910771  1.40684381094232 13.4190498380795  1.40684381094232 13.4190498380795  C 1.40684381094232 13.4190498380795  1.50561981974566 11.8954146359025  1.50561981974566 11.8954146359025  C 1.50561981974566 11.8954146359025  3.19241012392711 11.0665250515383  3.19241012392711 11.0665250515383  C 3.19241012392711 11.0665250515383  5.39080949934695 4.95698374277295  5.39080949934695 4.95698374277295  C 5.39080949934695 4.95698374277295  1.93111647305292 2.97485647581479  1.93111647305292 2.97485647581479  C 1.93111647305292 2.97485647581479  9.16455957927227 0.606314499237504  9.16455957927227 0.606314499237504  C 9.16455957927227 0.606314499237504  17.1185412523864 1.61739962026158  17.1185412523864 1.61739962026158  C 17.1185412523864 1.61739962026158  17.9619364044772 4.50249597550068  17.9619364044772 4.50249597550068  C 17.9619364044772 4.50249597550068  24.1594977773477 6.91308307592251  24.1594977773477 6.91308307592251  C 24.1594977773477 6.91308307592251  22.8678115083801 10.1875817483113  22.8678115083801 10.1875817483113  C 22.8678115083801 10.1875817483113  14.4338599874731 10.59602009423  14.4338599874731 10.59602009423  Z " fill-rule="evenodd" />
    </mask>
  </defs>
  <g transform="matrix(1 0 0 1 -2025 -4084 )">
    <path d="M 66.2064383041581 1.3691331747035  C 66.2064383041581 1.3691331747035  80.4364956135498 6.64879944032815  80.4364956135498 6.64879944032815  C 80.4364956135498 6.64879944032815  90.623088111174 9.52188290304027  90.623088111174 9.52188290304027  C 90.623088111174 9.52188290304027  98.8949456689163 8.37865596421894  98.8949456689163 8.37865596421894  C 98.8949456689163 8.37865596421894  105.00892734203 9.03936505320491  105.00892734203 9.03936505320491  C 105.00892734203 9.03936505320491  113.394757217623 5.15519646946872  113.394757217623 5.15519646946872  C 113.394757217623 5.15519646946872  120.959986404694 4.80081613992165  120.959986404694 4.80081613992165  C 120.959986404694 4.80081613992165  127.800858193875 8.45874191439899  127.800858193875 8.45874191439899  C 127.800858193875 8.45874191439899  129.006432044911 11.0635374440076  129.006432044911 11.0635374440076  C 129.006432044911 11.0635374440076  128.322598137811 14.6433794170593  128.322598137811 14.6433794170593  C 128.322598137811 14.6433794170593  133.603315531532 16.4613304861482  133.603315531532 16.4613304861482  C 133.603315531532 16.4613304861482  136.399436396121 18.5896146121851  136.399436396121 18.5896146121851  C 136.399436396121 18.5896146121851  131.536617501184 20.6558321268324  131.536617501184 20.6558321268324  C 131.536617501184 20.6558321268324  133.752745903825 30.343213259895  133.752745903825 30.343213259895  C 133.752745903825 30.343213259895  132.362283626053 32.5455768898486  132.362283626053 32.5455768898486  C 132.362283626053 32.5455768898486  136.247473305654 38.1956406750566  136.247473305654 38.1956406750566  C 136.247473305654 38.1956406750566  132.843500079198 39.378910588968  132.843500079198 39.378910588968  C 132.843500079198 39.378910588968  130.348772677368 37.5929938999512  130.348772677368 37.5929938999512  C 130.348772677368 37.5929938999512  122.089578710498 36.6860205141613  122.089578710498 36.6860205141613  C 122.089578710498 36.6860205141613  119.040186028465 37.7771915853656  119.040186028465 37.7771915853656  C 119.040186028465 37.7771915853656  110.963347770155 38.8663605078152  110.963347770155 38.8663605078152  C 110.963347770155 38.8663605078152  107.136410608566 38.7482337312995  107.136410608566 38.7482337312995  C 107.136410608566 38.7482337312995  98.963329059627 41.3710485996987  98.963329059627 41.3710485996987  C 98.963329059627 41.3710485996987  93.1203482311788 41.3930722359983  93.1203482311788 41.3930722359983  C 93.1203482311788 41.3930722359983  89.3415327149045 40.0796626530442  89.3415327149045 40.0796626530442  C 89.3415327149045 40.0796626530442  81.5230317103882 42.0197447961578  81.5230317103882 42.0197447961578  C 81.5230317103882 42.0197447961578  79.2005291444208 40.6642900893591  79.2005291444208 40.6642900893591  C 79.2005291444208 40.6642900893591  78.8155559819047 44.5444543755862  78.8155559819047 44.5444543755862  C 78.8155559819047 44.5444543755862  76.9134846328955 46.0600809827451  76.9134846328955 46.0600809827451  C 76.9134846328955 46.0600809827451  75.0114132838859 47.5717032923951  75.0114132838859 47.5717032923951  C 75.0114132838859 47.5717032923951  72.4001808460319 44.4363383428431  72.4001808460319 44.4363383428431  C 72.4001808460319 44.4363383428431  75.0899275472939 41.825536366971  75.0899275472939 41.825536366971  C 75.0899275472939 41.825536366971  70.7589794689902 42.4181723983039  70.7589794689902 42.4181723983039  C 70.7589794689902 42.4181723983039  62.979755349913 40.8144512459469  62.979755349913 40.8144512459469  C 62.979755349913 40.8144512459469  58.09667470958 44.8167466061988  58.09667470958 44.8167466061988  C 58.09667470958 44.8167466061988  47.31995887731 45.5955824717006  47.31995887731 45.5955824717006  C 47.31995887731 45.5955824717006  41.5706886213164 41.8695836395702  41.5706886213164 41.8695836395702  C 41.5706886213164 41.8695836395702  33.9168142981386 41.6353322352932  33.9168142981386 41.6353322352932  C 33.9168142981386 41.6353322352932  32.2806783574464 44.5184264417778  32.2806783574464 44.5184264417778  C 32.2806783574464 44.5184264417778  27.3722705353689 45.3413095798786  27.3722705353689 45.3413095798786  C 27.3722705353689 45.3413095798786  20.5060715644444 41.6433408303113  20.5060715644444 41.6433408303113  C 20.5060715644444 41.6433408303113  12.7534212324633 41.769476201845  12.7534212324633 41.769476201845  C 12.7534212324633 41.769476201845  8.5465763447078 34.7939899411559  8.5465763447078 34.7939899411559  C 8.5465763447078 34.7939899411559  3.35956952344138 30.8617697873116  3.35956952344138 30.8617697873116  C 3.35956952344138 30.8617697873116  6.81419711338657 25.2998005473017  6.81419711338657 25.2998005473017  C 6.81419711338657 25.2998005473017  2.31355691739492 20.3955527887472  2.31355691739492 20.3955527887472  C 2.31355691739492 20.3955527887472  10.1903104399236 13.4200665280581  10.1903104399236 13.4200665280581  C 10.1903104399236 13.4200665280581  21.1265875171839 13.1257506611462  21.1265875171839 13.1257506611462  C 21.1265875171839 13.1257506611462  24.1101295266818 7.50772125601022  24.1101295266818 7.50772125601022  C 24.1101295266818 7.50772125601022  37.6449754509243 8.49077629447129  37.6449754509243 8.49077629447129  C 37.6449754509243 8.49077629447129  46.1827684169836 3.6535849035916  46.1827684169836 3.6535849035916  C 46.1827684169836 3.6535849035916  54.4571586929005 1.52930507506368  54.4571586929005 1.52930507506368  C 54.4571586929005 1.52930507506368  66.2064383041581 1.3691331747035  66.2064383041581 1.3691331747035  Z M 14.4338599874731 10.59602009423  C 14.4338599874731 10.59602009423  9.56726176900901 12.8824739718727  9.56726176900901 12.8824739718727  C 9.56726176900901 12.8824739718727  3.64070124080405 16.838719910771  3.64070124080405 16.838719910771  C 3.64070124080405 16.838719910771  1.40684381094232 13.4190498380795  1.40684381094232 13.4190498380795  C 1.40684381094232 13.4190498380795  1.50561981974566 11.8954146359025  1.50561981974566 11.8954146359025  C 1.50561981974566 11.8954146359025  3.19241012392711 11.0665250515383  3.19241012392711 11.0665250515383  C 3.19241012392711 11.0665250515383  5.39080949934695 4.95698374277295  5.39080949934695 4.95698374277295  C 5.39080949934695 4.95698374277295  1.93111647305292 2.97485647581479  1.93111647305292 2.97485647581479  C 1.93111647305292 2.97485647581479  9.16455957927227 0.606314499237504  9.16455957927227 0.606314499237504  C 9.16455957927227 0.606314499237504  17.1185412523864 1.61739962026158  17.1185412523864 1.61739962026158  C 17.1185412523864 1.61739962026158  17.9619364044772 4.50249597550068  17.9619364044772 4.50249597550068  C 17.9619364044772 4.50249597550068  24.1594977773477 6.91308307592251  24.1594977773477 6.91308307592251  C 24.1594977773477 6.91308307592251  22.8678115083801 10.1875817483113  22.8678115083801 10.1875817483113  C 22.8678115083801 10.1875817483113  14.4338599874731 10.59602009423  14.4338599874731 10.59602009423  Z " fill-rule="nonzero" fill="#f2f2f2" stroke="none" transform="matrix(1 0 0 1 2025 4084 )" />
    <path d="M 66.2064383041581 1.3691331747035  C 66.2064383041581 1.3691331747035  80.4364956135498 6.64879944032815  80.4364956135498 6.64879944032815  C 80.4364956135498 6.64879944032815  90.623088111174 9.52188290304027  90.623088111174 9.52188290304027  C 90.623088111174 9.52188290304027  98.8949456689163 8.37865596421894  98.8949456689163 8.37865596421894  C 98.8949456689163 8.37865596421894  105.00892734203 9.03936505320491  105.00892734203 9.03936505320491  C 105.00892734203 9.03936505320491  113.394757217623 5.15519646946872  113.394757217623 5.15519646946872  C 113.394757217623 5.15519646946872  120.959986404694 4.80081613992165  120.959986404694 4.80081613992165  C 120.959986404694 4.80081613992165  127.800858193875 8.45874191439899  127.800858193875 8.45874191439899  C 127.800858193875 8.45874191439899  129.006432044911 11.0635374440076  129.006432044911 11.0635374440076  C 129.006432044911 11.0635374440076  128.322598137811 14.6433794170593  128.322598137811 14.6433794170593  C 128.322598137811 14.6433794170593  133.603315531532 16.4613304861482  133.603315531532 16.4613304861482  C 133.603315531532 16.4613304861482  136.399436396121 18.5896146121851  136.399436396121 18.5896146121851  C 136.399436396121 18.5896146121851  131.536617501184 20.6558321268324  131.536617501184 20.6558321268324  C 131.536617501184 20.6558321268324  133.752745903825 30.343213259895  133.752745903825 30.343213259895  C 133.752745903825 30.343213259895  132.362283626053 32.5455768898486  132.362283626053 32.5455768898486  C 132.362283626053 32.5455768898486  136.247473305654 38.1956406750566  136.247473305654 38.1956406750566  C 136.247473305654 38.1956406750566  132.843500079198 39.378910588968  132.843500079198 39.378910588968  C 132.843500079198 39.378910588968  130.348772677368 37.5929938999512  130.348772677368 37.5929938999512  C 130.348772677368 37.5929938999512  122.089578710498 36.6860205141613  122.089578710498 36.6860205141613  C 122.089578710498 36.6860205141613  119.040186028465 37.7771915853656  119.040186028465 37.7771915853656  C 119.040186028465 37.7771915853656  110.963347770155 38.8663605078152  110.963347770155 38.8663605078152  C 110.963347770155 38.8663605078152  107.136410608566 38.7482337312995  107.136410608566 38.7482337312995  C 107.136410608566 38.7482337312995  98.963329059627 41.3710485996987  98.963329059627 41.3710485996987  C 98.963329059627 41.3710485996987  93.1203482311788 41.3930722359983  93.1203482311788 41.3930722359983  C 93.1203482311788 41.3930722359983  89.3415327149045 40.0796626530442  89.3415327149045 40.0796626530442  C 89.3415327149045 40.0796626530442  81.5230317103882 42.0197447961578  81.5230317103882 42.0197447961578  C 81.5230317103882 42.0197447961578  79.2005291444208 40.6642900893591  79.2005291444208 40.6642900893591  C 79.2005291444208 40.6642900893591  78.8155559819047 44.5444543755862  78.8155559819047 44.5444543755862  C 78.8155559819047 44.5444543755862  76.9134846328955 46.0600809827451  76.9134846328955 46.0600809827451  C 76.9134846328955 46.0600809827451  75.0114132838859 47.5717032923951  75.0114132838859 47.5717032923951  C 75.0114132838859 47.5717032923951  72.4001808460319 44.4363383428431  72.4001808460319 44.4363383428431  C 72.4001808460319 44.4363383428431  75.0899275472939 41.825536366971  75.0899275472939 41.825536366971  C 75.0899275472939 41.825536366971  70.7589794689902 42.4181723983039  70.7589794689902 42.4181723983039  C 70.7589794689902 42.4181723983039  62.979755349913 40.8144512459469  62.979755349913 40.8144512459469  C 62.979755349913 40.8144512459469  58.09667470958 44.8167466061988  58.09667470958 44.8167466061988  C 58.09667470958 44.8167466061988  47.31995887731 45.5955824717006  47.31995887731 45.5955824717006  C 47.31995887731 45.5955824717006  41.5706886213164 41.8695836395702  41.5706886213164 41.8695836395702  C 41.5706886213164 41.8695836395702  33.9168142981386 41.6353322352932  33.9168142981386 41.6353322352932  C 33.9168142981386 41.6353322352932  32.2806783574464 44.5184264417778  32.2806783574464 44.5184264417778  C 32.2806783574464 44.5184264417778  27.3722705353689 45.3413095798786  27.3722705353689 45.3413095798786  C 27.3722705353689 45.3413095798786  20.5060715644444 41.6433408303113  20.5060715644444 41.6433408303113  C 20.5060715644444 41.6433408303113  12.7534212324633 41.769476201845  12.7534212324633 41.769476201845  C 12.7534212324633 41.769476201845  8.5465763447078 34.7939899411559  8.5465763447078 34.7939899411559  C 8.5465763447078 34.7939899411559  3.35956952344138 30.8617697873116  3.35956952344138 30.8617697873116  C 3.35956952344138 30.8617697873116  6.81419711338657 25.2998005473017  6.81419711338657 25.2998005473017  C 6.81419711338657 25.2998005473017  2.31355691739492 20.3955527887472  2.31355691739492 20.3955527887472  C 2.31355691739492 20.3955527887472  10.1903104399236 13.4200665280581  10.1903104399236 13.4200665280581  C 10.1903104399236 13.4200665280581  21.1265875171839 13.1257506611462  21.1265875171839 13.1257506611462  C 21.1265875171839 13.1257506611462  24.1101295266818 7.50772125601022  24.1101295266818 7.50772125601022  C 24.1101295266818 7.50772125601022  37.6449754509243 8.49077629447129  37.6449754509243 8.49077629447129  C 37.6449754509243 8.49077629447129  46.1827684169836 3.6535849035916  46.1827684169836 3.6535849035916  C 46.1827684169836 3.6535849035916  54.4571586929005 1.52930507506368  54.4571586929005 1.52930507506368  C 54.4571586929005 1.52930507506368  66.2064383041581 1.3691331747035  66.2064383041581 1.3691331747035  Z " stroke-width="2" stroke="#505050" fill="none" stroke-opacity="0.211764705882353" transform="matrix(1 0 0 1 2025 4084 )" mask="url(#clip234)" />
    <path d="M 14.4338599874731 10.59602009423  C 14.4338599874731 10.59602009423  9.56726176900901 12.8824739718727  9.56726176900901 12.8824739718727  C 9.56726176900901 12.8824739718727  3.64070124080405 16.838719910771  3.64070124080405 16.838719910771  C 3.64070124080405 16.838719910771  1.40684381094232 13.4190498380795  1.40684381094232 13.4190498380795  C 1.40684381094232 13.4190498380795  1.50561981974566 11.8954146359025  1.50561981974566 11.8954146359025  C 1.50561981974566 11.8954146359025  3.19241012392711 11.0665250515383  3.19241012392711 11.0665250515383  C 3.19241012392711 11.0665250515383  5.39080949934695 4.95698374277295  5.39080949934695 4.95698374277295  C 5.39080949934695 4.95698374277295  1.93111647305292 2.97485647581479  1.93111647305292 2.97485647581479  C 1.93111647305292 2.97485647581479  9.16455957927227 0.606314499237504  9.16455957927227 0.606314499237504  C 9.16455957927227 0.606314499237504  17.1185412523864 1.61739962026158  17.1185412523864 1.61739962026158  C 17.1185412523864 1.61739962026158  17.9619364044772 4.50249597550068  17.9619364044772 4.50249597550068  C 17.9619364044772 4.50249597550068  24.1594977773477 6.91308307592251  24.1594977773477 6.91308307592251  C 24.1594977773477 6.91308307592251  22.8678115083801 10.1875817483113  22.8678115083801 10.1875817483113  C 22.8678115083801 10.1875817483113  14.4338599874731 10.59602009423  14.4338599874731 10.59602009423  Z " stroke-width="2" stroke="#505050" fill="none" stroke-opacity="0.211764705882353" transform="matrix(1 0 0 1 2025 4084 )" mask="url(#clip234)" />
  </g>
</svg>