<?xml version="1.0" encoding="utf-8"?>
<svg version="1.1" xmlns:xlink="http://www.w3.org/1999/xlink" width="12px" height="8px" xmlns="http://www.w3.org/2000/svg">
  <defs>
    <mask fill="white" id="clip235">
      <path d="M 2.55563366211118 5.01234312135675  C 2.55563366211118 5.01234312135675  2.40422116255172 0.947898219438866  2.40422116255172 0.947898219438866  C 2.40422116255172 0.947898219438866  8.83923092237069 0.135226039986082  8.83923092237069 0.135226039986082  C 8.83923092237069 0.135226039986082  10.4607211449238 0.353260039351517  10.4607211449238 0.353260039351517  C 10.4607211449238 0.353260039351517  10.1523902367303 6.60244966218306  10.1523902367303 6.60244966218306  C 10.1523902367303 6.60244966218306  1.70772366457891 7.28738475109858  1.70772366457891 7.28738475109858  C 1.70772366457891 7.28738475109858  0.317481623170806 6.72578202546065  0.317481623170806 6.72578202546065  C 0.317481623170806 6.72578202546065  2.55563366211118 5.01234312135675  2.55563366211118 5.01234312135675  Z " fill-rule="evenodd" />
    </mask>
  </defs>
  <g transform="matrix(1 0 0 1 -1399 -4281 )">
    <path d="M 2.55563366211118 5.01234312135675  C 2.55563366211118 5.01234312135675  2.40422116255172 0.947898219438866  2.40422116255172 0.947898219438866  C 2.40422116255172 0.947898219438866  8.83923092237069 0.135226039986082  8.83923092237069 0.135226039986082  C 8.83923092237069 0.135226039986082  10.4607211449238 0.353260039351517  10.4607211449238 0.353260039351517  C 10.4607211449238 0.353260039351517  10.1523902367303 6.60244966218306  10.1523902367303 6.60244966218306  C 10.1523902367303 6.60244966218306  1.70772366457891 7.28738475109858  1.70772366457891 7.28738475109858  C 1.70772366457891 7.28738475109858  0.317481623170806 6.72578202546065  0.317481623170806 6.72578202546065  C 0.317481623170806 6.72578202546065  2.55563366211118 5.01234312135675  2.55563366211118 5.01234312135675  Z " fill-rule="nonzero" fill="#f2f2f2" stroke="none" transform="matrix(1 0 0 1 1399 4281 )" />
    <path d="M 2.55563366211118 5.01234312135675  C 2.55563366211118 5.01234312135675  2.40422116255172 0.947898219438866  2.40422116255172 0.947898219438866  C 2.40422116255172 0.947898219438866  8.83923092237069 0.135226039986082  8.83923092237069 0.135226039986082  C 8.83923092237069 0.135226039986082  10.4607211449238 0.353260039351517  10.4607211449238 0.353260039351517  C 10.4607211449238 0.353260039351517  10.1523902367303 6.60244966218306  10.1523902367303 6.60244966218306  C 10.1523902367303 6.60244966218306  1.70772366457891 7.28738475109858  1.70772366457891 7.28738475109858  C 1.70772366457891 7.28738475109858  0.317481623170806 6.72578202546065  0.317481623170806 6.72578202546065  C 0.317481623170806 6.72578202546065  2.55563366211118 5.01234312135675  2.55563366211118 5.01234312135675  Z " stroke-width="2" stroke="#505050" fill="none" stroke-opacity="0.211764705882353" transform="matrix(1 0 0 1 1399 4281 )" mask="url(#clip235)" />
  </g>
</svg>