<?xml version="1.0" encoding="utf-8"?>
<svg version="1.1" xmlns:xlink="http://www.w3.org/1999/xlink" width="17px" height="26px" xmlns="http://www.w3.org/2000/svg">
  <defs>
    <mask fill="white" id="clip35">
      <path d="M 12.1986283941811 4.36282277142715  C 12.1986283941811 4.36282277142715  12.6900307791145 7.07478887464492  12.6900307791145 7.07478887464492  C 12.6900307791145 7.07478887464492  11.7644262868589 9.6058246879853  11.7644262868589 9.6058246879853  C 11.7644262868589 9.6058246879853  12.7992313090996 14.2195315727003  12.7992313090996 14.2195315727003  C 12.7992313090996 14.2195315727003  15.8230459846421 16.0109402669812  15.8230459846421 16.0109402669812  C 15.8230459846421 16.0109402669812  15.6774452779951 17.9355613724905  15.6774452779951 17.9355613724905  C 15.6774452779951 17.9355613724905  13.3088337823636 18.9933076825433  13.3088337823636 18.9933076825433  C 13.3088337823636 18.9933076825433  12.8694316498042 21.3593191655559  12.8694316498042 21.3593191655559  C 12.8694316498042 21.3593191655559  7.59012630613668 24.8685714912005  7.59012630613668 24.8685714912005  C 7.59012630613668 24.8685714912005  6.35252029963783 24.3635572754986  6.35252029963783 24.3635572754986  C 6.35252029963783 24.3635572754986  6.20691959299089 22.7729613205323  6.20691959299089 22.7729613205323  C 6.20691959299089 22.7729613205323  2.16909999615725 20.3373612644899  2.16909999615725 20.3373612644899  C 2.16909999615725 20.3373612644899  1.53469691719593 16.8579326130008  1.53469691719593 16.8579326130008  C 1.53469691719593 16.8579326130008  2.15089990782668 10.3872049508625  2.15089990782668 10.3872049508625  C 2.15089990782668 10.3872049508625  3.1467047407869 8.08282906110489  3.1467047407869 8.08282906110489  C 3.1467047407869 8.08282906110489  1.91689877214395 6.90777629937343  1.91689877214395 6.90777629937343  C 1.91689877214395 6.90777629937343  1.42809639982934 4.52983534669864  1.42809639982934 4.52983534669864  C 1.42809639982934 4.52983534669864  4.58971174416259 0.821758526683191  4.58971174416259 0.821758526683191  C 4.58971174416259 0.821758526683191  5.0525139902903 2.24335366143438  5.0525139902903 2.24335366143438  C 5.0525139902903 2.24335366143438  7.01292350478649 1.57530336034852  7.01292350478649 1.57530336034852  C 7.01292350478649 1.57530336034852  10.4540199270366 3.59536022315585  10.4540199270366 3.59536022315585  C 10.4540199270366 3.59536022315585  12.1986283941811 4.36282277142715  12.1986283941811 4.36282277142715  Z " fill-rule="evenodd" />
    </mask>
  </defs>
  <g transform="matrix(1 0 0 1 -1975 -4081 )">
    <path d="M 12.1986283941811 4.36282277142715  C 12.1986283941811 4.36282277142715  12.6900307791145 7.07478887464492  12.6900307791145 7.07478887464492  C 12.6900307791145 7.07478887464492  11.7644262868589 9.6058246879853  11.7644262868589 9.6058246879853  C 11.7644262868589 9.6058246879853  12.7992313090996 14.2195315727003  12.7992313090996 14.2195315727003  C 12.7992313090996 14.2195315727003  15.8230459846421 16.0109402669812  15.8230459846421 16.0109402669812  C 15.8230459846421 16.0109402669812  15.6774452779951 17.9355613724905  15.6774452779951 17.9355613724905  C 15.6774452779951 17.9355613724905  13.3088337823636 18.9933076825433  13.3088337823636 18.9933076825433  C 13.3088337823636 18.9933076825433  12.8694316498042 21.3593191655559  12.8694316498042 21.3593191655559  C 12.8694316498042 21.3593191655559  7.59012630613668 24.8685714912005  7.59012630613668 24.8685714912005  C 7.59012630613668 24.8685714912005  6.35252029963783 24.3635572754986  6.35252029963783 24.3635572754986  C 6.35252029963783 24.3635572754986  6.20691959299089 22.7729613205323  6.20691959299089 22.7729613205323  C 6.20691959299089 22.7729613205323  2.16909999615725 20.3373612644899  2.16909999615725 20.3373612644899  C 2.16909999615725 20.3373612644899  1.53469691719593 16.8579326130008  1.53469691719593 16.8579326130008  C 1.53469691719593 16.8579326130008  2.15089990782668 10.3872049508625  2.15089990782668 10.3872049508625  C 2.15089990782668 10.3872049508625  3.1467047407869 8.08282906110489  3.1467047407869 8.08282906110489  C 3.1467047407869 8.08282906110489  1.91689877214395 6.90777629937343  1.91689877214395 6.90777629937343  C 1.91689877214395 6.90777629937343  1.42809639982934 4.52983534669864  1.42809639982934 4.52983534669864  C 1.42809639982934 4.52983534669864  4.58971174416259 0.821758526683191  4.58971174416259 0.821758526683191  C 4.58971174416259 0.821758526683191  5.0525139902903 2.24335366143438  5.0525139902903 2.24335366143438  C 5.0525139902903 2.24335366143438  7.01292350478649 1.57530336034852  7.01292350478649 1.57530336034852  C 7.01292350478649 1.57530336034852  10.4540199270366 3.59536022315585  10.4540199270366 3.59536022315585  C 10.4540199270366 3.59536022315585  12.1986283941811 4.36282277142715  12.1986283941811 4.36282277142715  Z " fill-rule="nonzero" fill="#f2f2f2" stroke="none" transform="matrix(1 0 0 1 1975 4081 )" />
    <path d="M 12.1986283941811 4.36282277142715  C 12.1986283941811 4.36282277142715  12.6900307791145 7.07478887464492  12.6900307791145 7.07478887464492  C 12.6900307791145 7.07478887464492  11.7644262868589 9.6058246879853  11.7644262868589 9.6058246879853  C 11.7644262868589 9.6058246879853  12.7992313090996 14.2195315727003  12.7992313090996 14.2195315727003  C 12.7992313090996 14.2195315727003  15.8230459846421 16.0109402669812  15.8230459846421 16.0109402669812  C 15.8230459846421 16.0109402669812  15.6774452779951 17.9355613724905  15.6774452779951 17.9355613724905  C 15.6774452779951 17.9355613724905  13.3088337823636 18.9933076825433  13.3088337823636 18.9933076825433  C 13.3088337823636 18.9933076825433  12.8694316498042 21.3593191655559  12.8694316498042 21.3593191655559  C 12.8694316498042 21.3593191655559  7.59012630613668 24.8685714912005  7.59012630613668 24.8685714912005  C 7.59012630613668 24.8685714912005  6.35252029963783 24.3635572754986  6.35252029963783 24.3635572754986  C 6.35252029963783 24.3635572754986  6.20691959299089 22.7729613205323  6.20691959299089 22.7729613205323  C 6.20691959299089 22.7729613205323  2.16909999615725 20.3373612644899  2.16909999615725 20.3373612644899  C 2.16909999615725 20.3373612644899  1.53469691719593 16.8579326130008  1.53469691719593 16.8579326130008  C 1.53469691719593 16.8579326130008  2.15089990782668 10.3872049508625  2.15089990782668 10.3872049508625  C 2.15089990782668 10.3872049508625  3.1467047407869 8.08282906110489  3.1467047407869 8.08282906110489  C 3.1467047407869 8.08282906110489  1.91689877214395 6.90777629937343  1.91689877214395 6.90777629937343  C 1.91689877214395 6.90777629937343  1.42809639982934 4.52983534669864  1.42809639982934 4.52983534669864  C 1.42809639982934 4.52983534669864  4.58971174416259 0.821758526683191  4.58971174416259 0.821758526683191  C 4.58971174416259 0.821758526683191  5.0525139902903 2.24335366143438  5.0525139902903 2.24335366143438  C 5.0525139902903 2.24335366143438  7.01292350478649 1.57530336034852  7.01292350478649 1.57530336034852  C 7.01292350478649 1.57530336034852  10.4540199270366 3.59536022315585  10.4540199270366 3.59536022315585  C 10.4540199270366 3.59536022315585  12.1986283941811 4.36282277142715  12.1986283941811 4.36282277142715  Z " stroke-width="2" stroke="#505050" fill="none" stroke-opacity="0.211764705882353" transform="matrix(1 0 0 1 1975 4081 )" mask="url(#clip35)" />
  </g>
</svg>