<?xml version="1.0" encoding="utf-8"?>
<svg version="1.1" xmlns:xlink="http://www.w3.org/1999/xlink" width="17px" height="24px" xmlns="http://www.w3.org/2000/svg">
  <defs>
    <mask fill="white" id="clip236">
      <path d="M 16.8410392597279 3.03604136614968  C 16.8410392597279 3.03604136614968  15.5748331144234 6.85783050275347  15.5748331144234 6.85783050275347  C 15.5748331144234 6.85783050275347  11.186011814066 18.4315793938874  11.186011814066 18.4315793938874  C 11.186011814066 18.4315793938874  6.17190775750517 23.5376218222078  6.17190775750517 23.5376218222078  C 6.17190775750517 23.5376218222078  2.32908910707392 18.2808551329628  2.32908910707392 18.2808551329628  C 2.32908910707392 18.2808551329628  1.49968508171042 13.6373090669323  1.49968508171042 13.6373090669323  C 1.49968508171042 13.6373090669323  5.78970590255737 5.94729078949445  5.78970590255737 5.94729078949445  C 5.78970590255737 5.94729078949445  13.5130231077984 1.14063216712077  13.5130231077984 1.14063216712077  C 13.5130231077984 1.14063216712077  16.8410392597279 3.03604136614968  16.8410392597279 3.03604136614968  Z " fill-rule="evenodd" />
    </mask>
  </defs>
  <g transform="matrix(1 0 0 1 -2693 -4197 )">
    <path d="M 16.8410392597279 3.03604136614968  C 16.8410392597279 3.03604136614968  15.5748331144234 6.85783050275347  15.5748331144234 6.85783050275347  C 15.5748331144234 6.85783050275347  11.186011814066 18.4315793938874  11.186011814066 18.4315793938874  C 11.186011814066 18.4315793938874  6.17190775750517 23.5376218222078  6.17190775750517 23.5376218222078  C 6.17190775750517 23.5376218222078  2.32908910707392 18.2808551329628  2.32908910707392 18.2808551329628  C 2.32908910707392 18.2808551329628  1.49968508171042 13.6373090669323  1.49968508171042 13.6373090669323  C 1.49968508171042 13.6373090669323  5.78970590255737 5.94729078949445  5.78970590255737 5.94729078949445  C 5.78970590255737 5.94729078949445  13.5130231077984 1.14063216712077  13.5130231077984 1.14063216712077  C 13.5130231077984 1.14063216712077  16.8410392597279 3.03604136614968  16.8410392597279 3.03604136614968  Z " fill-rule="nonzero" fill="#f2f2f2" stroke="none" transform="matrix(1 0 0 1 2693 4197 )" />
    <path d="M 16.8410392597279 3.03604136614968  C 16.8410392597279 3.03604136614968  15.5748331144234 6.85783050275347  15.5748331144234 6.85783050275347  C 15.5748331144234 6.85783050275347  11.186011814066 18.4315793938874  11.186011814066 18.4315793938874  C 11.186011814066 18.4315793938874  6.17190775750517 23.5376218222078  6.17190775750517 23.5376218222078  C 6.17190775750517 23.5376218222078  2.32908910707392 18.2808551329628  2.32908910707392 18.2808551329628  C 2.32908910707392 18.2808551329628  1.49968508171042 13.6373090669323  1.49968508171042 13.6373090669323  C 1.49968508171042 13.6373090669323  5.78970590255737 5.94729078949445  5.78970590255737 5.94729078949445  C 5.78970590255737 5.94729078949445  13.5130231077984 1.14063216712077  13.5130231077984 1.14063216712077  C 13.5130231077984 1.14063216712077  16.8410392597279 3.03604136614968  16.8410392597279 3.03604136614968  Z " stroke-width="2" stroke="#505050" fill="none" stroke-opacity="0.211764705882353" transform="matrix(1 0 0 1 2693 4197 )" mask="url(#clip236)" />
  </g>
</svg>