<?xml version="1.0" encoding="utf-8"?>
<svg version="1.1" xmlns:xlink="http://www.w3.org/1999/xlink" width="81px" height="63px" xmlns="http://www.w3.org/2000/svg">
  <defs>
    <mask fill="white" id="clip237">
      <path d="M 18.8453070514263 1.47273174255955  C 18.8453070514263 1.47273174255955  33.3218749044361 1.04702486363312  33.3218749044361 1.04702486363312  C 33.3218749044361 1.04702486363312  34.5229764556923 1.65010960877879  34.5229764556923 1.65010960877879  C 34.5229764556923 1.65010960877879  62.1267536301916 12.8406821020343  62.1267536301916 12.8406821020343  C 62.1267536301916 12.8406821020343  62.6107418080182 16.0295419636207  62.6107418080182 16.0295419636207  C 62.6107418080182 16.0295419636207  72.8074351461086 21.5321975467786  72.8074351461086 21.5321975467786  C 72.8074351461086 21.5321975467786  69.52847859057 28.3257698229762  69.52847859057 28.3257698229762  C 69.52847859057 28.3257698229762  69.9491175304615 32.8853510457944  69.9491175304615 32.8853510457944  C 69.9491175304615 32.8853510457944  74.4975928142268 34.8995752599732  74.4975928142268 34.8995752599732  C 74.4975928142268 34.8995752599732  74.7104462536899 36.3383068415295  74.7104462536899 36.3383068415295  C 74.7104462536899 36.3383068415295  72.7542217862431 39.6808941871725  72.7542217862431 39.6808941871725  C 72.7542217862431 39.6808941871725  73.1621908785473 41.3659839162555  73.1621908785473 41.3659839162555  C 73.1621908785473 41.3659839162555  72.6959404873425 44.0148267184631  72.6959404873425 44.0148267184631  C 72.6959404873425 44.0148267184631  75.176696644895 47.4973454919015  75.176696644895 47.4973454919015  C 75.176696644895 47.4973454919015  78.1186352546173 52.9881758839778  78.1186352546173 52.9881758839778  C 78.1186352546173 52.9881758839778  80.7260898880405 54.2081414305306  80.7260898880405 54.2081414305306  C 80.7260898880405 54.2081414305306  75.0728038946804 57.446272921622  75.0728038946804 57.446272921622  C 75.0728038946804 57.446272921622  67.3036533542769 59.618166350218  67.3036533542769 59.618166350218  C 67.3036533542769 59.618166350218  63.0415166259796 59.5275065519282  63.0415166259796 59.5275065519282  C 63.0415166259796 59.5275065519282  60.5100810780789 61.2066836854707  60.5100810780789 61.2066836854707  C 60.5100810780789 61.2066836854707  55.5637725800788 61.3505568436264  55.5637725800788 61.3505568436264  C 55.5637725800788 61.3505568436264  53.7089068933286 62.0600683085033  53.7089068933286 62.0600683085033  C 53.7089068933286 62.0600683085033  45.1719635891472 60.4814052991518  45.1719635891472 60.4814052991518  C 45.1719635891472 60.4814052991518  37.9843788164853 60.9327334254207  37.9843788164853 60.9327334254207  C 37.9843788164853 60.9327334254207  35.9952127453125 53.3311064253353  35.9952127453125 53.3311064253353  C 35.9952127453125 53.3311064253353  33.5854077342478 50.7315352526328  33.5854077342478 50.7315352526328  C 33.5854077342478 50.7315352526328  32.156248926424 49.1922895468855  32.156248926424 49.1922895468855  C 32.156248926424 49.1922895468855  25.1903667230416 48.155614462093  25.1903667230416 48.155614462093  C 25.1903667230416 48.155614462093  21.1588212208293 46.4843207892713  21.1588212208293 46.4843207892713  C 21.1588212208293 46.4843207892713  16.6432875407901 45.5501306938498  16.6432875407901 45.5501306938498  C 16.6432875407901 45.5501306938498  13.8128435898341 44.6198823287889  13.8128435898341 44.6198823287889  C 13.8128435898341 44.6198823287889  10.84303131542 43.2067719945753  10.84303131542 43.2067719945753  C 10.84303131542 43.2067719945753  7.00660146604902 36.2279383914373  7.00660146604902 36.2279383914373  C 7.00660146604902 36.2279383914373  2.88636703072718 33.1317091933211  2.88636703072718 33.1317091933211  C 2.88636703072718 33.1317091933211  1.46481013145546 28.4952642284747  1.46481013145546 28.4952642284747  C 1.46481013145546 28.4952642284747  2.17432159633278 25.6276553912632  2.17432159633278 25.6276553912632  C 2.17432159633278 25.6276553912632  0.897200959553976 20.5585901477525  0.897200959553976 20.5585901477525  C 0.897200959553976 20.5585901477525  3.83407163024167 20.2964650787842  3.83407163024167 20.2964650787842  C 3.83407163024167 20.2964650787842  6.41365259897341 18.3019495164075  6.41365259897341 18.3019495164075  C 6.41365259897341 18.3019495164075  9.17821334247613 15.4343406791961  9.17821334247613 15.4343406791961  C 9.17821334247613 15.4343406791961  10.9317202485295 14.2833554139512  10.9317202485295 14.2833554139512  C 10.9317202485295 14.2833554139512  10.8658370410769 12.4957806954967  10.8658370410769 12.4957806954967  C 10.8658370410769 12.4957806954967  9.33531945255612 11.2501939016015  9.33531945255612 11.2501939016015  C 9.33531945255612 11.2501939016015  8.92481639073462 9.08618393372664  8.92481639073462 9.08618393372664  C 8.92481639073462 9.08618393372664  10.9747977303259 8.3904685251108  10.9747977303259 8.3904685251108  C 10.9747977303259 8.3904685251108  11.3853007921476 5.16022049474011  11.3853007921476 5.16022049474011  C 11.3853007921476 5.16022049474011  8.56245874974367 2.06004956626335  8.56245874974367 2.06004956626335  C 8.56245874974367 2.06004956626335  11.0558847548832 1.40178059607192  11.0558847548832 1.40178059607192  C 11.0558847548832 1.40178059607192  18.8453070514263 1.47273174255955  18.8453070514263 1.47273174255955  Z " fill-rule="evenodd" />
    </mask>
  </defs>
  <g transform="matrix(1 0 0 1 -2047 -4347 )">
    <path d="M 18.8453070514263 1.47273174255955  C 18.8453070514263 1.47273174255955  33.3218749044361 1.04702486363312  33.3218749044361 1.04702486363312  C 33.3218749044361 1.04702486363312  34.5229764556923 1.65010960877879  34.5229764556923 1.65010960877879  C 34.5229764556923 1.65010960877879  62.1267536301916 12.8406821020343  62.1267536301916 12.8406821020343  C 62.1267536301916 12.8406821020343  62.6107418080182 16.0295419636207  62.6107418080182 16.0295419636207  C 62.6107418080182 16.0295419636207  72.8074351461086 21.5321975467786  72.8074351461086 21.5321975467786  C 72.8074351461086 21.5321975467786  69.52847859057 28.3257698229762  69.52847859057 28.3257698229762  C 69.52847859057 28.3257698229762  69.9491175304615 32.8853510457944  69.9491175304615 32.8853510457944  C 69.9491175304615 32.8853510457944  74.4975928142268 34.8995752599732  74.4975928142268 34.8995752599732  C 74.4975928142268 34.8995752599732  74.7104462536899 36.3383068415295  74.7104462536899 36.3383068415295  C 74.7104462536899 36.3383068415295  72.7542217862431 39.6808941871725  72.7542217862431 39.6808941871725  C 72.7542217862431 39.6808941871725  73.1621908785473 41.3659839162555  73.1621908785473 41.3659839162555  C 73.1621908785473 41.3659839162555  72.6959404873425 44.0148267184631  72.6959404873425 44.0148267184631  C 72.6959404873425 44.0148267184631  75.176696644895 47.4973454919015  75.176696644895 47.4973454919015  C 75.176696644895 47.4973454919015  78.1186352546173 52.9881758839778  78.1186352546173 52.9881758839778  C 78.1186352546173 52.9881758839778  80.7260898880405 54.2081414305306  80.7260898880405 54.2081414305306  C 80.7260898880405 54.2081414305306  75.0728038946804 57.446272921622  75.0728038946804 57.446272921622  C 75.0728038946804 57.446272921622  67.3036533542769 59.618166350218  67.3036533542769 59.618166350218  C 67.3036533542769 59.618166350218  63.0415166259796 59.5275065519282  63.0415166259796 59.5275065519282  C 63.0415166259796 59.5275065519282  60.5100810780789 61.2066836854707  60.5100810780789 61.2066836854707  C 60.5100810780789 61.2066836854707  55.5637725800788 61.3505568436264  55.5637725800788 61.3505568436264  C 55.5637725800788 61.3505568436264  53.7089068933286 62.0600683085033  53.7089068933286 62.0600683085033  C 53.7089068933286 62.0600683085033  45.1719635891472 60.4814052991518  45.1719635891472 60.4814052991518  C 45.1719635891472 60.4814052991518  37.9843788164853 60.9327334254207  37.9843788164853 60.9327334254207  C 37.9843788164853 60.9327334254207  35.9952127453125 53.3311064253353  35.9952127453125 53.3311064253353  C 35.9952127453125 53.3311064253353  33.5854077342478 50.7315352526328  33.5854077342478 50.7315352526328  C 33.5854077342478 50.7315352526328  32.156248926424 49.1922895468855  32.156248926424 49.1922895468855  C 32.156248926424 49.1922895468855  25.1903667230416 48.155614462093  25.1903667230416 48.155614462093  C 25.1903667230416 48.155614462093  21.1588212208293 46.4843207892713  21.1588212208293 46.4843207892713  C 21.1588212208293 46.4843207892713  16.6432875407901 45.5501306938498  16.6432875407901 45.5501306938498  C 16.6432875407901 45.5501306938498  13.8128435898341 44.6198823287889  13.8128435898341 44.6198823287889  C 13.8128435898341 44.6198823287889  10.84303131542 43.2067719945753  10.84303131542 43.2067719945753  C 10.84303131542 43.2067719945753  7.00660146604902 36.2279383914373  7.00660146604902 36.2279383914373  C 7.00660146604902 36.2279383914373  2.88636703072718 33.1317091933211  2.88636703072718 33.1317091933211  C 2.88636703072718 33.1317091933211  1.46481013145546 28.4952642284747  1.46481013145546 28.4952642284747  C 1.46481013145546 28.4952642284747  2.17432159633278 25.6276553912632  2.17432159633278 25.6276553912632  C 2.17432159633278 25.6276553912632  0.897200959553976 20.5585901477525  0.897200959553976 20.5585901477525  C 0.897200959553976 20.5585901477525  3.83407163024167 20.2964650787842  3.83407163024167 20.2964650787842  C 3.83407163024167 20.2964650787842  6.41365259897341 18.3019495164075  6.41365259897341 18.3019495164075  C 6.41365259897341 18.3019495164075  9.17821334247613 15.4343406791961  9.17821334247613 15.4343406791961  C 9.17821334247613 15.4343406791961  10.9317202485295 14.2833554139512  10.9317202485295 14.2833554139512  C 10.9317202485295 14.2833554139512  10.8658370410769 12.4957806954967  10.8658370410769 12.4957806954967  C 10.8658370410769 12.4957806954967  9.33531945255612 11.2501939016015  9.33531945255612 11.2501939016015  C 9.33531945255612 11.2501939016015  8.92481639073462 9.08618393372664  8.92481639073462 9.08618393372664  C 8.92481639073462 9.08618393372664  10.9747977303259 8.3904685251108  10.9747977303259 8.3904685251108  C 10.9747977303259 8.3904685251108  11.3853007921476 5.16022049474011  11.3853007921476 5.16022049474011  C 11.3853007921476 5.16022049474011  8.56245874974367 2.06004956626335  8.56245874974367 2.06004956626335  C 8.56245874974367 2.06004956626335  11.0558847548832 1.40178059607192  11.0558847548832 1.40178059607192  C 11.0558847548832 1.40178059607192  18.8453070514263 1.47273174255955  18.8453070514263 1.47273174255955  Z " fill-rule="nonzero" fill="#f2f2f2" stroke="none" transform="matrix(1 0 0 1 2047 4347 )" />
    <path d="M 18.8453070514263 1.47273174255955  C 18.8453070514263 1.47273174255955  33.3218749044361 1.04702486363312  33.3218749044361 1.04702486363312  C 33.3218749044361 1.04702486363312  34.5229764556923 1.65010960877879  34.5229764556923 1.65010960877879  C 34.5229764556923 1.65010960877879  62.1267536301916 12.8406821020343  62.1267536301916 12.8406821020343  C 62.1267536301916 12.8406821020343  62.6107418080182 16.0295419636207  62.6107418080182 16.0295419636207  C 62.6107418080182 16.0295419636207  72.8074351461086 21.5321975467786  72.8074351461086 21.5321975467786  C 72.8074351461086 21.5321975467786  69.52847859057 28.3257698229762  69.52847859057 28.3257698229762  C 69.52847859057 28.3257698229762  69.9491175304615 32.8853510457944  69.9491175304615 32.8853510457944  C 69.9491175304615 32.8853510457944  74.4975928142268 34.8995752599732  74.4975928142268 34.8995752599732  C 74.4975928142268 34.8995752599732  74.7104462536899 36.3383068415295  74.7104462536899 36.3383068415295  C 74.7104462536899 36.3383068415295  72.7542217862431 39.6808941871725  72.7542217862431 39.6808941871725  C 72.7542217862431 39.6808941871725  73.1621908785473 41.3659839162555  73.1621908785473 41.3659839162555  C 73.1621908785473 41.3659839162555  72.6959404873425 44.0148267184631  72.6959404873425 44.0148267184631  C 72.6959404873425 44.0148267184631  75.176696644895 47.4973454919015  75.176696644895 47.4973454919015  C 75.176696644895 47.4973454919015  78.1186352546173 52.9881758839778  78.1186352546173 52.9881758839778  C 78.1186352546173 52.9881758839778  80.7260898880405 54.2081414305306  80.7260898880405 54.2081414305306  C 80.7260898880405 54.2081414305306  75.0728038946804 57.446272921622  75.0728038946804 57.446272921622  C 75.0728038946804 57.446272921622  67.3036533542769 59.618166350218  67.3036533542769 59.618166350218  C 67.3036533542769 59.618166350218  63.0415166259796 59.5275065519282  63.0415166259796 59.5275065519282  C 63.0415166259796 59.5275065519282  60.5100810780789 61.2066836854707  60.5100810780789 61.2066836854707  C 60.5100810780789 61.2066836854707  55.5637725800788 61.3505568436264  55.5637725800788 61.3505568436264  C 55.5637725800788 61.3505568436264  53.7089068933286 62.0600683085033  53.7089068933286 62.0600683085033  C 53.7089068933286 62.0600683085033  45.1719635891472 60.4814052991518  45.1719635891472 60.4814052991518  C 45.1719635891472 60.4814052991518  37.9843788164853 60.9327334254207  37.9843788164853 60.9327334254207  C 37.9843788164853 60.9327334254207  35.9952127453125 53.3311064253353  35.9952127453125 53.3311064253353  C 35.9952127453125 53.3311064253353  33.5854077342478 50.7315352526328  33.5854077342478 50.7315352526328  C 33.5854077342478 50.7315352526328  32.156248926424 49.1922895468855  32.156248926424 49.1922895468855  C 32.156248926424 49.1922895468855  25.1903667230416 48.155614462093  25.1903667230416 48.155614462093  C 25.1903667230416 48.155614462093  21.1588212208293 46.4843207892713  21.1588212208293 46.4843207892713  C 21.1588212208293 46.4843207892713  16.6432875407901 45.5501306938498  16.6432875407901 45.5501306938498  C 16.6432875407901 45.5501306938498  13.8128435898341 44.6198823287889  13.8128435898341 44.6198823287889  C 13.8128435898341 44.6198823287889  10.84303131542 43.2067719945753  10.84303131542 43.2067719945753  C 10.84303131542 43.2067719945753  7.00660146604902 36.2279383914373  7.00660146604902 36.2279383914373  C 7.00660146604902 36.2279383914373  2.88636703072718 33.1317091933211  2.88636703072718 33.1317091933211  C 2.88636703072718 33.1317091933211  1.46481013145546 28.4952642284747  1.46481013145546 28.4952642284747  C 1.46481013145546 28.4952642284747  2.17432159633278 25.6276553912632  2.17432159633278 25.6276553912632  C 2.17432159633278 25.6276553912632  0.897200959553976 20.5585901477525  0.897200959553976 20.5585901477525  C 0.897200959553976 20.5585901477525  3.83407163024167 20.2964650787842  3.83407163024167 20.2964650787842  C 3.83407163024167 20.2964650787842  6.41365259897341 18.3019495164075  6.41365259897341 18.3019495164075  C 6.41365259897341 18.3019495164075  9.17821334247613 15.4343406791961  9.17821334247613 15.4343406791961  C 9.17821334247613 15.4343406791961  10.9317202485295 14.2833554139512  10.9317202485295 14.2833554139512  C 10.9317202485295 14.2833554139512  10.8658370410769 12.4957806954967  10.8658370410769 12.4957806954967  C 10.8658370410769 12.4957806954967  9.33531945255612 11.2501939016015  9.33531945255612 11.2501939016015  C 9.33531945255612 11.2501939016015  8.92481639073462 9.08618393372664  8.92481639073462 9.08618393372664  C 8.92481639073462 9.08618393372664  10.9747977303259 8.3904685251108  10.9747977303259 8.3904685251108  C 10.9747977303259 8.3904685251108  11.3853007921476 5.16022049474011  11.3853007921476 5.16022049474011  C 11.3853007921476 5.16022049474011  8.56245874974367 2.06004956626335  8.56245874974367 2.06004956626335  C 8.56245874974367 2.06004956626335  11.0558847548832 1.40178059607192  11.0558847548832 1.40178059607192  C 11.0558847548832 1.40178059607192  18.8453070514263 1.47273174255955  18.8453070514263 1.47273174255955  Z " stroke-width="2" stroke="#505050" fill="none" stroke-opacity="0.211764705882353" transform="matrix(1 0 0 1 2047 4347 )" mask="url(#clip237)" />
  </g>
</svg>