<?xml version="1.0" encoding="utf-8"?>
<svg version="1.1" xmlns:xlink="http://www.w3.org/1999/xlink" width="131px" height="69px" xmlns="http://www.w3.org/2000/svg">
  <defs>
    <mask fill="white" id="clip238">
      <path d="M 63.8653944460162 3.21017977746173  C 63.8653944460162 3.21017977746173  71.8235167409639 2.67593453753942  71.8235167409639 2.67593453753942  C 71.8235167409639 2.67593453753942  74.4825800190761 3.04001277511605  74.4825800190761 3.04001277511605  C 74.4825800190761 3.04001277511605  76.2832255436046 0.988115316599647  76.2832255436046 0.988115316599647  C 76.2832255436046 0.988115316599647  78.4445081125383 1.44123442749673  78.4445081125383 1.44123442749673  C 78.4445081125383 1.44123442749673  85.8299484303508 0.566655182883146  85.8299484303508 0.566655182883146  C 85.8299484303508 0.566655182883146  90.3785466453453 5.66177182288295  90.3785466453453 5.66177182288295  C 90.3785466453453 5.66177182288295  88.6007583982787 7.46831220824999  88.6007583982787 7.46831220824999  C 88.6007583982787 7.46831220824999  89.1899682173066 10.2226432229605  89.1899682173066 10.2226432229605  C 89.1899682173066 10.2226432229605  94.8687318179358 10.6500394148984  94.8687318179358 10.6500394148984  C 94.8687318179358 10.6500394148984  97.4008102212573 14.4629674790848  97.4008102212573 14.4629674790848  C 97.4008102212573 14.4629674790848  97.245888674013 16.1804669911313  97.245888674013 16.1804669911313  C 97.245888674013 16.1804669911313  106.289751456589 19.2316009169099  106.289751456589 19.2316009169099  C 106.289751456589 19.2316009169099  111.75518046757 17.860371467776  111.75518046757 17.860371467776  C 111.75518046757 17.860371467776  116.14885713532 21.9028271165215  116.14885713532 21.9028271165215  C 116.14885713532 21.9028271165215  120.311421330951 21.8118075571274  120.311421330951 21.8118075571274  C 120.311421330951 21.8118075571274  130.80799108113 24.5977975490184  130.80799108113 24.5977975490184  C 130.80799108113 24.5977975490184  130.891801098492 27.0968780602107  130.891801098492 27.0968780602107  C 130.891801098492 27.0968780602107  127.999085650765 31.5152840629756  127.999085650765 31.5152840629756  C 127.999085650765 31.5152840629756  129.571158400671 37.5571865566765  129.571158400671 37.5571865566765  C 129.571158400671 37.5571865566765  128.451151805019 40.3174536296084  128.451151805019 40.3174536296084  C 128.451151805019 40.3174536296084  121.560952498889 40.922931568187  121.560952498889 40.922931568187  C 121.560952498889 40.922931568187  117.891089617445 43.2162287277054  117.891089617445 43.2162287277054  C 117.891089617445 43.2162287277054  117.665056540318 46.8411816148821  117.665056540318 46.8411816148821  C 117.665056540318 46.8411816148821  111.981213544697 47.490190647084  111.981213544697 47.490190647084  C 111.981213544697 47.490190647084  107.242138017517 50.1060136366295  107.242138017517 50.1060136366295  C 107.242138017517 50.1060136366295  100.575432091019 50.5314311424935  100.575432091019 50.5314311424935  C 100.575432091019 50.5314311424935  94.4420626386396 53.5251831721324  94.4420626386396 53.5251831721324  C 94.4420626386396 53.5251831721324  91.0795031541885 55.5632298281323  91.0795031541885 55.5632298281323  C 91.0795031541885 55.5632298281323  94.8585730279522 58.4718983565983  94.8585730279522 58.4718983565983  C 94.8585730279522 58.4718983565983  98.3430379922022 60.3773730456545  98.3430379922022 60.3773730456545  C 98.3430379922022 60.3773730456545  105.606572830216 59.9024883879458  105.606572830216 59.9024883879458  C 105.606572830216 59.9024883879458  104.214818602513 62.708265240575  104.214818602513 62.708265240575  C 104.214818602513 62.708265240575  96.4204869878748 64.0636652011185  96.4204869878748 64.0636652011185  C 96.4204869878748 64.0636652011185  86.7518586213298 68.5592399607612  86.7518586213298 68.5592399607612  C 86.7518586213298 68.5592399607612  82.7924702253637 66.9842058460271  82.7924702253637 66.9842058460271  C 82.7924702253637 66.9842058460271  84.3620032777733 63.3216579234486  84.3620032777733 63.3216579234486  C 84.3620032777733 63.3216579234486  76.5829098481101 61.0263820778565  76.5829098481101 61.0263820778565  C 76.5829098481101 61.0263820778565  77.8400601085359 59.5166446035575  77.8400601085359 59.5166446035575  C 77.8400601085359 59.5166446035575  85.8731232877798 56.279514186843  85.8731232877798 56.279514186843  C 85.8731232877798 56.279514186843  84.8750221719267 54.6649063506332  84.8750221719267 54.6649063506332  C 84.8750221719267 54.6649063506332  83.7270789038211 55.4781463269595  83.7270789038211 55.4781463269595  C 83.7270789038211 55.4781463269595  82.5943738206903 55.0626222514644  82.5943738206903 55.0626222514644  C 82.5943738206903 55.0626222514644  71.5263721339543 53.0423837701285  71.5263721339543 53.0423837701285  C 71.5263721339543 53.0423837701285  71.0362105172632 50.046653054416  71.0362105172632 50.046653054416  C 71.0362105172632 50.046653054416  62.5930060006156 51.037974777383  62.5930060006156 51.037974777383  C 62.5930060006156 51.037974777383  59.9491809074785 55.4464873497789  59.9491809074785 55.4464873497789  C 59.9491809074785 55.4464873497789  54.4354976440768 61.2954833838914  54.4354976440768 61.2954833838914  C 54.4354976440768 61.2954833838914  51.2050024294079 59.9440407954953  51.2050024294079 59.9440407954953  C 51.2050024294079 59.9440407954953  47.8602208274274 61.2103998827187  47.8602208274274 61.2103998827187  C 47.8602208274274 61.2103998827187  44.6830592601703 59.7600229906332  44.6830592601703 59.7600229906332  C 44.6830592601703 59.7600229906332  46.4760856922113 58.9032519206838  46.4760856922113 58.9032519206838  C 46.4760856922113 58.9032519206838  47.7179977676619 56.1825585692275  47.7179977676619 56.1825585692275  C 47.7179977676619 56.1825585692275  49.6684854444434 53.6379682783383  49.6684854444434 53.6379682783383  C 49.6684854444434 53.6379682783383  49.1656253402733 52.2053995609169  49.1656253402733 52.2053995609169  C 49.1656253402733 52.2053995609169  50.6538880728175 51.5643052730101  50.6538880728175 51.5643052730101  C 50.6538880728175 51.5643052730101  51.3548445816605 52.6743481604043  51.3548445816605 52.6743481604043  C 51.3548445816605 52.6743481604043  55.5504248447372 52.9098118031848  55.5504248447372 52.9098118031848  C 55.5504248447372 52.9098118031848  57.4374200841232 52.3162059810489  57.4374200841232 52.3162059810489  C 57.4374200841232 52.3162059810489  56.1091582938152 51.5029660047227  56.1091582938152 51.5029660047227  C 56.1091582938152 51.5029660047227  56.6120183979854 50.3019035579344  56.6120183979854 50.3019035579344  C 56.6120183979854 50.3019035579344  54.1256545495884 48.2480274133441  54.1256545495884 48.2480274133441  C 54.1256545495884 48.2480274133441  53.0970770637857 44.8506234246529  53.0970770637857 44.8506234246529  C 53.0970770637857 44.8506234246529  50.5040459205645 43.5130316387734  50.5040459205645 43.5130316387734  C 50.5040459205645 43.5130316387734  51.0145251172222 40.729020332956  51.0145251172222 40.729020332956  C 51.0145251172222 40.729020332956  47.7967283900321 38.5049771860202  47.7967283900321 38.5049771860202  C 47.7967283900321 38.5049771860202  44.8684571773642 38.1943234724357  44.8684571773642 38.1943234724357  C 44.8684571773642 38.1943234724357  39.6189024535269 35.6042234018493  39.6189024535269 35.6042234018493  C 39.6189024535269 35.6042234018493  34.8874460188344 36.4293354946182  34.8874460188344 36.4293354946182  C 34.8874460188344 36.4293354946182  33.1883883941383 37.654142174292  33.1883883941383 37.654142174292  C 33.1883883941383 37.654142174292  30.1839262565962 37.6521634882182  30.1839262565962 37.6521634882182  C 30.1839262565962 37.6521634882182  28.390899824555 39.5892971544551  28.390899824555 39.5892971544551  C 28.390899824555 39.5892971544551  23.1362657057261 40.3827502700434  23.1362657057261 40.3827502700434  C 23.1362657057261 40.3827502700434  20.7057752022367 41.6471306711929  20.7057752022367 41.6471306711929  C 20.7057752022367 41.6471306711929  17.3990890626933 39.6328282480783  17.3990890626933 39.6328282480783  C 17.3990890626933 39.6328282480783  12.8327129652286 39.6031479569716  12.8327129652286 39.6031479569716  C 12.8327129652286 39.6031479569716  8.42887750749558 38.6850376187347  8.42887750749558 38.6850376187347  C 8.42887750749558 38.6850376187347  5.35330384007079 40.4559616547734  5.35330384007079 40.4559616547734  C 5.35330384007079 40.4559616547734  4.85552313089249 38.2398332521327  4.85552313089249 38.2398332521327  C 4.85552313089249 38.2398332521327  0.903753827413438 35.978195069795  0.903753827413438 35.978195069795  C 0.903753827413438 35.978195069795  2.2929683576209 31.1670353139891  2.2929683576209 31.1670353139891  C 2.2929683576209 31.1670353139891  4.26631331186454 28.974651144234  4.26631331186454 28.974651144234  C 4.26631331186454 28.974651144234  5.82314787679557 29.465365290533  5.82314787679557 29.465365290533  C 5.82314787679557 29.465365290533  3.98694658732568 25.6563945984942  3.98694658732568 25.6563945984942  C 3.98694658732568 25.6563945984942  10.4530164116555 18.5153165581993  10.4530164116555 18.5153165581993  C 10.4530164116555 18.5153165581993  13.9857356283259 17.5042079744944  13.9857356283259 17.5042079744944  C 13.9857356283259 17.5042079744944  14.7476448770687 15.0605306733682  14.7476448770687 15.0605306733682  C 14.7476448770687 15.0605306733682  11.166671407978 7.36146316026556  11.166671407978 7.36146316026556  C 11.166671407978 7.36146316026556  14.5724057498577 7.01519309735291  14.5724057498577 7.01519309735291  C 14.5724057498577 7.01519309735291  18.4733811034205 4.59130265696457  18.4733811034205 4.59130265696457  C 18.4733811034205 4.59130265696457  23.9921437618137 4.39145536351215  23.9921437618137 4.39145536351215  C 23.9921437618137 4.39145536351215  31.184567069945 5.09388891970638  31.184567069945 5.09388891970638  C 31.184567069945 5.09388891970638  39.1312805343315 7.23878462369076  39.1312805343315 7.23878462369076  C 39.1312805343315 7.23878462369076  44.7389326050779 7.4168663703315  44.7389326050779 7.4168663703315  C 44.7389326050779 7.4168663703315  47.4183134631566 8.70103363221883  47.4183134631566 8.70103363221883  C 47.4183134631566 8.70103363221883  50.0875355312519 7.15172243644408  50.0875355312519 7.15172243644408  C 50.0875355312519 7.15172243644408  51.9542131906716 9.22934281391976  51.9542131906716 9.22934281391976  C 51.9542131906716 9.22934281391976  58.3821875525641 8.80392530805581  58.3821875525641 8.80392530805581  C 58.3821875525641 8.80392530805581  61.2139502603912 9.66069637800526  61.2139502603912 9.66069637800526  C 61.2139502603912 9.66069637800526  61.671095809637 5.17897242087922  61.671095809637 5.17897242087922  C 61.671095809637 5.17897242087922  63.8653944460162 3.21017977746173  63.8653944460162 3.21017977746173  Z " fill-rule="evenodd" />
    </mask>
  </defs>
  <g transform="matrix(1 0 0 1 -1996 -4001 )">
    <path d="M 63.8653944460162 3.21017977746173  C 63.8653944460162 3.21017977746173  71.8235167409639 2.67593453753942  71.8235167409639 2.67593453753942  C 71.8235167409639 2.67593453753942  74.4825800190761 3.04001277511605  74.4825800190761 3.04001277511605  C 74.4825800190761 3.04001277511605  76.2832255436046 0.988115316599647  76.2832255436046 0.988115316599647  C 76.2832255436046 0.988115316599647  78.4445081125383 1.44123442749673  78.4445081125383 1.44123442749673  C 78.4445081125383 1.44123442749673  85.8299484303508 0.566655182883146  85.8299484303508 0.566655182883146  C 85.8299484303508 0.566655182883146  90.3785466453453 5.66177182288295  90.3785466453453 5.66177182288295  C 90.3785466453453 5.66177182288295  88.6007583982787 7.46831220824999  88.6007583982787 7.46831220824999  C 88.6007583982787 7.46831220824999  89.1899682173066 10.2226432229605  89.1899682173066 10.2226432229605  C 89.1899682173066 10.2226432229605  94.8687318179358 10.6500394148984  94.8687318179358 10.6500394148984  C 94.8687318179358 10.6500394148984  97.4008102212573 14.4629674790848  97.4008102212573 14.4629674790848  C 97.4008102212573 14.4629674790848  97.245888674013 16.1804669911313  97.245888674013 16.1804669911313  C 97.245888674013 16.1804669911313  106.289751456589 19.2316009169099  106.289751456589 19.2316009169099  C 106.289751456589 19.2316009169099  111.75518046757 17.860371467776  111.75518046757 17.860371467776  C 111.75518046757 17.860371467776  116.14885713532 21.9028271165215  116.14885713532 21.9028271165215  C 116.14885713532 21.9028271165215  120.311421330951 21.8118075571274  120.311421330951 21.8118075571274  C 120.311421330951 21.8118075571274  130.80799108113 24.5977975490184  130.80799108113 24.5977975490184  C 130.80799108113 24.5977975490184  130.891801098492 27.0968780602107  130.891801098492 27.0968780602107  C 130.891801098492 27.0968780602107  127.999085650765 31.5152840629756  127.999085650765 31.5152840629756  C 127.999085650765 31.5152840629756  129.571158400671 37.5571865566765  129.571158400671 37.5571865566765  C 129.571158400671 37.5571865566765  128.451151805019 40.3174536296084  128.451151805019 40.3174536296084  C 128.451151805019 40.3174536296084  121.560952498889 40.922931568187  121.560952498889 40.922931568187  C 121.560952498889 40.922931568187  117.891089617445 43.2162287277054  117.891089617445 43.2162287277054  C 117.891089617445 43.2162287277054  117.665056540318 46.8411816148821  117.665056540318 46.8411816148821  C 117.665056540318 46.8411816148821  111.981213544697 47.490190647084  111.981213544697 47.490190647084  C 111.981213544697 47.490190647084  107.242138017517 50.1060136366295  107.242138017517 50.1060136366295  C 107.242138017517 50.1060136366295  100.575432091019 50.5314311424935  100.575432091019 50.5314311424935  C 100.575432091019 50.5314311424935  94.4420626386396 53.5251831721324  94.4420626386396 53.5251831721324  C 94.4420626386396 53.5251831721324  91.0795031541885 55.5632298281323  91.0795031541885 55.5632298281323  C 91.0795031541885 55.5632298281323  94.8585730279522 58.4718983565983  94.8585730279522 58.4718983565983  C 94.8585730279522 58.4718983565983  98.3430379922022 60.3773730456545  98.3430379922022 60.3773730456545  C 98.3430379922022 60.3773730456545  105.606572830216 59.9024883879458  105.606572830216 59.9024883879458  C 105.606572830216 59.9024883879458  104.214818602513 62.708265240575  104.214818602513 62.708265240575  C 104.214818602513 62.708265240575  96.4204869878748 64.0636652011185  96.4204869878748 64.0636652011185  C 96.4204869878748 64.0636652011185  86.7518586213298 68.5592399607612  86.7518586213298 68.5592399607612  C 86.7518586213298 68.5592399607612  82.7924702253637 66.9842058460271  82.7924702253637 66.9842058460271  C 82.7924702253637 66.9842058460271  84.3620032777733 63.3216579234486  84.3620032777733 63.3216579234486  C 84.3620032777733 63.3216579234486  76.5829098481101 61.0263820778565  76.5829098481101 61.0263820778565  C 76.5829098481101 61.0263820778565  77.8400601085359 59.5166446035575  77.8400601085359 59.5166446035575  C 77.8400601085359 59.5166446035575  85.8731232877798 56.279514186843  85.8731232877798 56.279514186843  C 85.8731232877798 56.279514186843  84.8750221719267 54.6649063506332  84.8750221719267 54.6649063506332  C 84.8750221719267 54.6649063506332  83.7270789038211 55.4781463269595  83.7270789038211 55.4781463269595  C 83.7270789038211 55.4781463269595  82.5943738206903 55.0626222514644  82.5943738206903 55.0626222514644  C 82.5943738206903 55.0626222514644  71.5263721339543 53.0423837701285  71.5263721339543 53.0423837701285  C 71.5263721339543 53.0423837701285  71.0362105172632 50.046653054416  71.0362105172632 50.046653054416  C 71.0362105172632 50.046653054416  62.5930060006156 51.037974777383  62.5930060006156 51.037974777383  C 62.5930060006156 51.037974777383  59.9491809074785 55.4464873497789  59.9491809074785 55.4464873497789  C 59.9491809074785 55.4464873497789  54.4354976440768 61.2954833838914  54.4354976440768 61.2954833838914  C 54.4354976440768 61.2954833838914  51.2050024294079 59.9440407954953  51.2050024294079 59.9440407954953  C 51.2050024294079 59.9440407954953  47.8602208274274 61.2103998827187  47.8602208274274 61.2103998827187  C 47.8602208274274 61.2103998827187  44.6830592601703 59.7600229906332  44.6830592601703 59.7600229906332  C 44.6830592601703 59.7600229906332  46.4760856922113 58.9032519206838  46.4760856922113 58.9032519206838  C 46.4760856922113 58.9032519206838  47.7179977676619 56.1825585692275  47.7179977676619 56.1825585692275  C 47.7179977676619 56.1825585692275  49.6684854444434 53.6379682783383  49.6684854444434 53.6379682783383  C 49.6684854444434 53.6379682783383  49.1656253402733 52.2053995609169  49.1656253402733 52.2053995609169  C 49.1656253402733 52.2053995609169  50.6538880728175 51.5643052730101  50.6538880728175 51.5643052730101  C 50.6538880728175 51.5643052730101  51.3548445816605 52.6743481604043  51.3548445816605 52.6743481604043  C 51.3548445816605 52.6743481604043  55.5504248447372 52.9098118031848  55.5504248447372 52.9098118031848  C 55.5504248447372 52.9098118031848  57.4374200841232 52.3162059810489  57.4374200841232 52.3162059810489  C 57.4374200841232 52.3162059810489  56.1091582938152 51.5029660047227  56.1091582938152 51.5029660047227  C 56.1091582938152 51.5029660047227  56.6120183979854 50.3019035579344  56.6120183979854 50.3019035579344  C 56.6120183979854 50.3019035579344  54.1256545495884 48.2480274133441  54.1256545495884 48.2480274133441  C 54.1256545495884 48.2480274133441  53.0970770637857 44.8506234246529  53.0970770637857 44.8506234246529  C 53.0970770637857 44.8506234246529  50.5040459205645 43.5130316387734  50.5040459205645 43.5130316387734  C 50.5040459205645 43.5130316387734  51.0145251172222 40.729020332956  51.0145251172222 40.729020332956  C 51.0145251172222 40.729020332956  47.7967283900321 38.5049771860202  47.7967283900321 38.5049771860202  C 47.7967283900321 38.5049771860202  44.8684571773642 38.1943234724357  44.8684571773642 38.1943234724357  C 44.8684571773642 38.1943234724357  39.6189024535269 35.6042234018493  39.6189024535269 35.6042234018493  C 39.6189024535269 35.6042234018493  34.8874460188344 36.4293354946182  34.8874460188344 36.4293354946182  C 34.8874460188344 36.4293354946182  33.1883883941383 37.654142174292  33.1883883941383 37.654142174292  C 33.1883883941383 37.654142174292  30.1839262565962 37.6521634882182  30.1839262565962 37.6521634882182  C 30.1839262565962 37.6521634882182  28.390899824555 39.5892971544551  28.390899824555 39.5892971544551  C 28.390899824555 39.5892971544551  23.1362657057261 40.3827502700434  23.1362657057261 40.3827502700434  C 23.1362657057261 40.3827502700434  20.7057752022367 41.6471306711929  20.7057752022367 41.6471306711929  C 20.7057752022367 41.6471306711929  17.3990890626933 39.6328282480783  17.3990890626933 39.6328282480783  C 17.3990890626933 39.6328282480783  12.8327129652286 39.6031479569716  12.8327129652286 39.6031479569716  C 12.8327129652286 39.6031479569716  8.42887750749558 38.6850376187347  8.42887750749558 38.6850376187347  C 8.42887750749558 38.6850376187347  5.35330384007079 40.4559616547734  5.35330384007079 40.4559616547734  C 5.35330384007079 40.4559616547734  4.85552313089249 38.2398332521327  4.85552313089249 38.2398332521327  C 4.85552313089249 38.2398332521327  0.903753827413438 35.978195069795  0.903753827413438 35.978195069795  C 0.903753827413438 35.978195069795  2.2929683576209 31.1670353139891  2.2929683576209 31.1670353139891  C 2.2929683576209 31.1670353139891  4.26631331186454 28.974651144234  4.26631331186454 28.974651144234  C 4.26631331186454 28.974651144234  5.82314787679557 29.465365290533  5.82314787679557 29.465365290533  C 5.82314787679557 29.465365290533  3.98694658732568 25.6563945984942  3.98694658732568 25.6563945984942  C 3.98694658732568 25.6563945984942  10.4530164116555 18.5153165581993  10.4530164116555 18.5153165581993  C 10.4530164116555 18.5153165581993  13.9857356283259 17.5042079744944  13.9857356283259 17.5042079744944  C 13.9857356283259 17.5042079744944  14.7476448770687 15.0605306733682  14.7476448770687 15.0605306733682  C 14.7476448770687 15.0605306733682  11.166671407978 7.36146316026556  11.166671407978 7.36146316026556  C 11.166671407978 7.36146316026556  14.5724057498577 7.01519309735291  14.5724057498577 7.01519309735291  C 14.5724057498577 7.01519309735291  18.4733811034205 4.59130265696457  18.4733811034205 4.59130265696457  C 18.4733811034205 4.59130265696457  23.9921437618137 4.39145536351215  23.9921437618137 4.39145536351215  C 23.9921437618137 4.39145536351215  31.184567069945 5.09388891970638  31.184567069945 5.09388891970638  C 31.184567069945 5.09388891970638  39.1312805343315 7.23878462369076  39.1312805343315 7.23878462369076  C 39.1312805343315 7.23878462369076  44.7389326050779 7.4168663703315  44.7389326050779 7.4168663703315  C 44.7389326050779 7.4168663703315  47.4183134631566 8.70103363221883  47.4183134631566 8.70103363221883  C 47.4183134631566 8.70103363221883  50.0875355312519 7.15172243644408  50.0875355312519 7.15172243644408  C 50.0875355312519 7.15172243644408  51.9542131906716 9.22934281391976  51.9542131906716 9.22934281391976  C 51.9542131906716 9.22934281391976  58.3821875525641 8.80392530805581  58.3821875525641 8.80392530805581  C 58.3821875525641 8.80392530805581  61.2139502603912 9.66069637800526  61.2139502603912 9.66069637800526  C 61.2139502603912 9.66069637800526  61.671095809637 5.17897242087922  61.671095809637 5.17897242087922  C 61.671095809637 5.17897242087922  63.8653944460162 3.21017977746173  63.8653944460162 3.21017977746173  Z " fill-rule="nonzero" fill="#81ecec" stroke="none" transform="matrix(1 0 0 1 1996 4001 )" />
    <path d="M 63.8653944460162 3.21017977746173  C 63.8653944460162 3.21017977746173  71.8235167409639 2.67593453753942  71.8235167409639 2.67593453753942  C 71.8235167409639 2.67593453753942  74.4825800190761 3.04001277511605  74.4825800190761 3.04001277511605  C 74.4825800190761 3.04001277511605  76.2832255436046 0.988115316599647  76.2832255436046 0.988115316599647  C 76.2832255436046 0.988115316599647  78.4445081125383 1.44123442749673  78.4445081125383 1.44123442749673  C 78.4445081125383 1.44123442749673  85.8299484303508 0.566655182883146  85.8299484303508 0.566655182883146  C 85.8299484303508 0.566655182883146  90.3785466453453 5.66177182288295  90.3785466453453 5.66177182288295  C 90.3785466453453 5.66177182288295  88.6007583982787 7.46831220824999  88.6007583982787 7.46831220824999  C 88.6007583982787 7.46831220824999  89.1899682173066 10.2226432229605  89.1899682173066 10.2226432229605  C 89.1899682173066 10.2226432229605  94.8687318179358 10.6500394148984  94.8687318179358 10.6500394148984  C 94.8687318179358 10.6500394148984  97.4008102212573 14.4629674790848  97.4008102212573 14.4629674790848  C 97.4008102212573 14.4629674790848  97.245888674013 16.1804669911313  97.245888674013 16.1804669911313  C 97.245888674013 16.1804669911313  106.289751456589 19.2316009169099  106.289751456589 19.2316009169099  C 106.289751456589 19.2316009169099  111.75518046757 17.860371467776  111.75518046757 17.860371467776  C 111.75518046757 17.860371467776  116.14885713532 21.9028271165215  116.14885713532 21.9028271165215  C 116.14885713532 21.9028271165215  120.311421330951 21.8118075571274  120.311421330951 21.8118075571274  C 120.311421330951 21.8118075571274  130.80799108113 24.5977975490184  130.80799108113 24.5977975490184  C 130.80799108113 24.5977975490184  130.891801098492 27.0968780602107  130.891801098492 27.0968780602107  C 130.891801098492 27.0968780602107  127.999085650765 31.5152840629756  127.999085650765 31.5152840629756  C 127.999085650765 31.5152840629756  129.571158400671 37.5571865566765  129.571158400671 37.5571865566765  C 129.571158400671 37.5571865566765  128.451151805019 40.3174536296084  128.451151805019 40.3174536296084  C 128.451151805019 40.3174536296084  121.560952498889 40.922931568187  121.560952498889 40.922931568187  C 121.560952498889 40.922931568187  117.891089617445 43.2162287277054  117.891089617445 43.2162287277054  C 117.891089617445 43.2162287277054  117.665056540318 46.8411816148821  117.665056540318 46.8411816148821  C 117.665056540318 46.8411816148821  111.981213544697 47.490190647084  111.981213544697 47.490190647084  C 111.981213544697 47.490190647084  107.242138017517 50.1060136366295  107.242138017517 50.1060136366295  C 107.242138017517 50.1060136366295  100.575432091019 50.5314311424935  100.575432091019 50.5314311424935  C 100.575432091019 50.5314311424935  94.4420626386396 53.5251831721324  94.4420626386396 53.5251831721324  C 94.4420626386396 53.5251831721324  91.0795031541885 55.5632298281323  91.0795031541885 55.5632298281323  C 91.0795031541885 55.5632298281323  94.8585730279522 58.4718983565983  94.8585730279522 58.4718983565983  C 94.8585730279522 58.4718983565983  98.3430379922022 60.3773730456545  98.3430379922022 60.3773730456545  C 98.3430379922022 60.3773730456545  105.606572830216 59.9024883879458  105.606572830216 59.9024883879458  C 105.606572830216 59.9024883879458  104.214818602513 62.708265240575  104.214818602513 62.708265240575  C 104.214818602513 62.708265240575  96.4204869878748 64.0636652011185  96.4204869878748 64.0636652011185  C 96.4204869878748 64.0636652011185  86.7518586213298 68.5592399607612  86.7518586213298 68.5592399607612  C 86.7518586213298 68.5592399607612  82.7924702253637 66.9842058460271  82.7924702253637 66.9842058460271  C 82.7924702253637 66.9842058460271  84.3620032777733 63.3216579234486  84.3620032777733 63.3216579234486  C 84.3620032777733 63.3216579234486  76.5829098481101 61.0263820778565  76.5829098481101 61.0263820778565  C 76.5829098481101 61.0263820778565  77.8400601085359 59.5166446035575  77.8400601085359 59.5166446035575  C 77.8400601085359 59.5166446035575  85.8731232877798 56.279514186843  85.8731232877798 56.279514186843  C 85.8731232877798 56.279514186843  84.8750221719267 54.6649063506332  84.8750221719267 54.6649063506332  C 84.8750221719267 54.6649063506332  83.7270789038211 55.4781463269595  83.7270789038211 55.4781463269595  C 83.7270789038211 55.4781463269595  82.5943738206903 55.0626222514644  82.5943738206903 55.0626222514644  C 82.5943738206903 55.0626222514644  71.5263721339543 53.0423837701285  71.5263721339543 53.0423837701285  C 71.5263721339543 53.0423837701285  71.0362105172632 50.046653054416  71.0362105172632 50.046653054416  C 71.0362105172632 50.046653054416  62.5930060006156 51.037974777383  62.5930060006156 51.037974777383  C 62.5930060006156 51.037974777383  59.9491809074785 55.4464873497789  59.9491809074785 55.4464873497789  C 59.9491809074785 55.4464873497789  54.4354976440768 61.2954833838914  54.4354976440768 61.2954833838914  C 54.4354976440768 61.2954833838914  51.2050024294079 59.9440407954953  51.2050024294079 59.9440407954953  C 51.2050024294079 59.9440407954953  47.8602208274274 61.2103998827187  47.8602208274274 61.2103998827187  C 47.8602208274274 61.2103998827187  44.6830592601703 59.7600229906332  44.6830592601703 59.7600229906332  C 44.6830592601703 59.7600229906332  46.4760856922113 58.9032519206838  46.4760856922113 58.9032519206838  C 46.4760856922113 58.9032519206838  47.7179977676619 56.1825585692275  47.7179977676619 56.1825585692275  C 47.7179977676619 56.1825585692275  49.6684854444434 53.6379682783383  49.6684854444434 53.6379682783383  C 49.6684854444434 53.6379682783383  49.1656253402733 52.2053995609169  49.1656253402733 52.2053995609169  C 49.1656253402733 52.2053995609169  50.6538880728175 51.5643052730101  50.6538880728175 51.5643052730101  C 50.6538880728175 51.5643052730101  51.3548445816605 52.6743481604043  51.3548445816605 52.6743481604043  C 51.3548445816605 52.6743481604043  55.5504248447372 52.9098118031848  55.5504248447372 52.9098118031848  C 55.5504248447372 52.9098118031848  57.4374200841232 52.3162059810489  57.4374200841232 52.3162059810489  C 57.4374200841232 52.3162059810489  56.1091582938152 51.5029660047227  56.1091582938152 51.5029660047227  C 56.1091582938152 51.5029660047227  56.6120183979854 50.3019035579344  56.6120183979854 50.3019035579344  C 56.6120183979854 50.3019035579344  54.1256545495884 48.2480274133441  54.1256545495884 48.2480274133441  C 54.1256545495884 48.2480274133441  53.0970770637857 44.8506234246529  53.0970770637857 44.8506234246529  C 53.0970770637857 44.8506234246529  50.5040459205645 43.5130316387734  50.5040459205645 43.5130316387734  C 50.5040459205645 43.5130316387734  51.0145251172222 40.729020332956  51.0145251172222 40.729020332956  C 51.0145251172222 40.729020332956  47.7967283900321 38.5049771860202  47.7967283900321 38.5049771860202  C 47.7967283900321 38.5049771860202  44.8684571773642 38.1943234724357  44.8684571773642 38.1943234724357  C 44.8684571773642 38.1943234724357  39.6189024535269 35.6042234018493  39.6189024535269 35.6042234018493  C 39.6189024535269 35.6042234018493  34.8874460188344 36.4293354946182  34.8874460188344 36.4293354946182  C 34.8874460188344 36.4293354946182  33.1883883941383 37.654142174292  33.1883883941383 37.654142174292  C 33.1883883941383 37.654142174292  30.1839262565962 37.6521634882182  30.1839262565962 37.6521634882182  C 30.1839262565962 37.6521634882182  28.390899824555 39.5892971544551  28.390899824555 39.5892971544551  C 28.390899824555 39.5892971544551  23.1362657057261 40.3827502700434  23.1362657057261 40.3827502700434  C 23.1362657057261 40.3827502700434  20.7057752022367 41.6471306711929  20.7057752022367 41.6471306711929  C 20.7057752022367 41.6471306711929  17.3990890626933 39.6328282480783  17.3990890626933 39.6328282480783  C 17.3990890626933 39.6328282480783  12.8327129652286 39.6031479569716  12.8327129652286 39.6031479569716  C 12.8327129652286 39.6031479569716  8.42887750749558 38.6850376187347  8.42887750749558 38.6850376187347  C 8.42887750749558 38.6850376187347  5.35330384007079 40.4559616547734  5.35330384007079 40.4559616547734  C 5.35330384007079 40.4559616547734  4.85552313089249 38.2398332521327  4.85552313089249 38.2398332521327  C 4.85552313089249 38.2398332521327  0.903753827413438 35.978195069795  0.903753827413438 35.978195069795  C 0.903753827413438 35.978195069795  2.2929683576209 31.1670353139891  2.2929683576209 31.1670353139891  C 2.2929683576209 31.1670353139891  4.26631331186454 28.974651144234  4.26631331186454 28.974651144234  C 4.26631331186454 28.974651144234  5.82314787679557 29.465365290533  5.82314787679557 29.465365290533  C 5.82314787679557 29.465365290533  3.98694658732568 25.6563945984942  3.98694658732568 25.6563945984942  C 3.98694658732568 25.6563945984942  10.4530164116555 18.5153165581993  10.4530164116555 18.5153165581993  C 10.4530164116555 18.5153165581993  13.9857356283259 17.5042079744944  13.9857356283259 17.5042079744944  C 13.9857356283259 17.5042079744944  14.7476448770687 15.0605306733682  14.7476448770687 15.0605306733682  C 14.7476448770687 15.0605306733682  11.166671407978 7.36146316026556  11.166671407978 7.36146316026556  C 11.166671407978 7.36146316026556  14.5724057498577 7.01519309735291  14.5724057498577 7.01519309735291  C 14.5724057498577 7.01519309735291  18.4733811034205 4.59130265696457  18.4733811034205 4.59130265696457  C 18.4733811034205 4.59130265696457  23.9921437618137 4.39145536351215  23.9921437618137 4.39145536351215  C 23.9921437618137 4.39145536351215  31.184567069945 5.09388891970638  31.184567069945 5.09388891970638  C 31.184567069945 5.09388891970638  39.1312805343315 7.23878462369076  39.1312805343315 7.23878462369076  C 39.1312805343315 7.23878462369076  44.7389326050779 7.4168663703315  44.7389326050779 7.4168663703315  C 44.7389326050779 7.4168663703315  47.4183134631566 8.70103363221883  47.4183134631566 8.70103363221883  C 47.4183134631566 8.70103363221883  50.0875355312519 7.15172243644408  50.0875355312519 7.15172243644408  C 50.0875355312519 7.15172243644408  51.9542131906716 9.22934281391976  51.9542131906716 9.22934281391976  C 51.9542131906716 9.22934281391976  58.3821875525641 8.80392530805581  58.3821875525641 8.80392530805581  C 58.3821875525641 8.80392530805581  61.2139502603912 9.66069637800526  61.2139502603912 9.66069637800526  C 61.2139502603912 9.66069637800526  61.671095809637 5.17897242087922  61.671095809637 5.17897242087922  C 61.671095809637 5.17897242087922  63.8653944460162 3.21017977746173  63.8653944460162 3.21017977746173  Z " stroke-width="2" stroke="#505050" fill="none" stroke-opacity="0.211764705882353" transform="matrix(1 0 0 1 1996 4001 )" mask="url(#clip238)" />
  </g>
</svg>