<?xml version="1.0" encoding="utf-8"?>
<svg version="1.1" xmlns:xlink="http://www.w3.org/1999/xlink" width="42px" height="35px" xmlns="http://www.w3.org/2000/svg">
  <defs>
    <mask fill="white" id="clip242">
      <path d="M 33.0535828359628 31.6914142129597  C 33.0535828359628 31.6914142129597  16.8674865437659 32.125004552607  16.8674865437659 32.125004552607  C 16.8674865437659 32.125004552607  9.14078101289546 32.0527394959989  9.14078101289546 32.0527394959989  C 9.14078101289546 32.0527394959989  6.66743090151708 32.7231986323053  6.66743090151708 32.7231986323053  C 6.66743090151708 32.7231986323053  2.45720586436422 34.4495305401593  2.45720586436422 34.4495305401593  C 2.45720586436422 34.4495305401593  0.750493744825551 33.8794395380306  0.750493744825551 33.8794395380306  C 0.750493744825551 33.8794395380306  0.810819357298195 29.6639779025728  0.810819357298195 29.6639779025728  C 0.810819357298195 29.6639779025728  2.44212446124601 27.5281440072742  2.44212446124601 27.5281440072742  C 2.44212446124601 27.5281440072742  2.84178164387719 23.0396810468533  2.84178164387719 23.0396810468533  C 2.84178164387719 23.0396810468533  4.32227271664329 20.4401463716543  4.32227271664329 20.4401463716543  C 4.32227271664329 20.4401463716543  7.01681674042116 16.0671224218044  7.01681674042116 16.0671224218044  C 7.01681674042116 16.0671224218044  9.72392860013101 14.5796666732926  9.72392860013101 14.5796666732926  C 9.72392860013101 14.5796666732926  11.9911662022275 12.5943849792606  11.9911662022275 12.5943849792606  C 11.9911662022275 12.5943849792606  9.16591668475901 11.8376092475616  9.16591668475901 11.8376092475616  C 9.16591668475901 11.8376092475616  9.59322310644018 5.28959217381702  9.59322310644018 5.28959217381702  C 9.59322310644018 5.28959217381702  12.4938796394995 3.76399653431804  12.4938796394995 3.76399653431804  C 12.4938796394995 3.76399653431804  16.9755699327794 5.01659084885385  16.9755699327794 5.01659084885385  C 16.9755699327794 5.01659084885385  24.4747780289158 3.70377565381129  24.4747780289158 3.70377565381129  C 24.4747780289158 3.70377565381129  29.4340460876042 3.71782719259609  29.4340460876042 3.71782719259609  C 29.4340460876042 3.71782719259609  33.7674359168888 1.14037350691637  33.7674359168888 1.14037350691637  C 33.7674359168888 1.14037350691637  37.1079667075613 5.03064238763898  37.1079667075613 5.03064238763898  C 37.1079667075613 5.03064238763898  37.9324167446876 7.84095014461059  37.9324167446876 7.84095014461059  C 37.9324167446876 7.84095014461059  41.0341586526558 14.2645107319751  41.0341586526558 14.2645107319751  C 41.0341586526558 14.2645107319751  38.4678065553821 19.7997976756013  38.4678065553821 19.7997976756013  C 38.4678065553821 19.7997976756013  35.0015974053918 23.5013744640702  35.0015974053918 23.5013744640702  C 35.0015974053918 23.5013744640702  32.9832029547446 25.7656795711161  32.9832029547446 25.7656795711161  C 32.9832029547446 25.7656795711161  33.0535828359628 31.6914142129597  33.0535828359628 31.6914142129597  Z " fill-rule="evenodd" />
    </mask>
  </defs>
  <g transform="matrix(1 0 0 1 -2049 -4317 )">
    <path d="M 33.0535828359628 31.6914142129597  C 33.0535828359628 31.6914142129597  16.8674865437659 32.125004552607  16.8674865437659 32.125004552607  C 16.8674865437659 32.125004552607  9.14078101289546 32.0527394959989  9.14078101289546 32.0527394959989  C 9.14078101289546 32.0527394959989  6.66743090151708 32.7231986323053  6.66743090151708 32.7231986323053  C 6.66743090151708 32.7231986323053  2.45720586436422 34.4495305401593  2.45720586436422 34.4495305401593  C 2.45720586436422 34.4495305401593  0.750493744825551 33.8794395380306  0.750493744825551 33.8794395380306  C 0.750493744825551 33.8794395380306  0.810819357298195 29.6639779025728  0.810819357298195 29.6639779025728  C 0.810819357298195 29.6639779025728  2.44212446124601 27.5281440072742  2.44212446124601 27.5281440072742  C 2.44212446124601 27.5281440072742  2.84178164387719 23.0396810468533  2.84178164387719 23.0396810468533  C 2.84178164387719 23.0396810468533  4.32227271664329 20.4401463716543  4.32227271664329 20.4401463716543  C 4.32227271664329 20.4401463716543  7.01681674042116 16.0671224218044  7.01681674042116 16.0671224218044  C 7.01681674042116 16.0671224218044  9.72392860013101 14.5796666732926  9.72392860013101 14.5796666732926  C 9.72392860013101 14.5796666732926  11.9911662022275 12.5943849792606  11.9911662022275 12.5943849792606  C 11.9911662022275 12.5943849792606  9.16591668475901 11.8376092475616  9.16591668475901 11.8376092475616  C 9.16591668475901 11.8376092475616  9.59322310644018 5.28959217381702  9.59322310644018 5.28959217381702  C 9.59322310644018 5.28959217381702  12.4938796394995 3.76399653431804  12.4938796394995 3.76399653431804  C 12.4938796394995 3.76399653431804  16.9755699327794 5.01659084885385  16.9755699327794 5.01659084885385  C 16.9755699327794 5.01659084885385  24.4747780289158 3.70377565381129  24.4747780289158 3.70377565381129  C 24.4747780289158 3.70377565381129  29.4340460876042 3.71782719259609  29.4340460876042 3.71782719259609  C 29.4340460876042 3.71782719259609  33.7674359168888 1.14037350691637  33.7674359168888 1.14037350691637  C 33.7674359168888 1.14037350691637  37.1079667075613 5.03064238763898  37.1079667075613 5.03064238763898  C 37.1079667075613 5.03064238763898  37.9324167446876 7.84095014461059  37.9324167446876 7.84095014461059  C 37.9324167446876 7.84095014461059  41.0341586526558 14.2645107319751  41.0341586526558 14.2645107319751  C 41.0341586526558 14.2645107319751  38.4678065553821 19.7997976756013  38.4678065553821 19.7997976756013  C 38.4678065553821 19.7997976756013  35.0015974053918 23.5013744640702  35.0015974053918 23.5013744640702  C 35.0015974053918 23.5013744640702  32.9832029547446 25.7656795711161  32.9832029547446 25.7656795711161  C 32.9832029547446 25.7656795711161  33.0535828359628 31.6914142129597  33.0535828359628 31.6914142129597  Z " fill-rule="nonzero" fill="#f2f2f2" stroke="none" transform="matrix(1 0 0 1 2049 4317 )" />
    <path d="M 33.0535828359628 31.6914142129597  C 33.0535828359628 31.6914142129597  16.8674865437659 32.125004552607  16.8674865437659 32.125004552607  C 16.8674865437659 32.125004552607  9.14078101289546 32.0527394959989  9.14078101289546 32.0527394959989  C 9.14078101289546 32.0527394959989  6.66743090151708 32.7231986323053  6.66743090151708 32.7231986323053  C 6.66743090151708 32.7231986323053  2.45720586436422 34.4495305401593  2.45720586436422 34.4495305401593  C 2.45720586436422 34.4495305401593  0.750493744825551 33.8794395380306  0.750493744825551 33.8794395380306  C 0.750493744825551 33.8794395380306  0.810819357298195 29.6639779025728  0.810819357298195 29.6639779025728  C 0.810819357298195 29.6639779025728  2.44212446124601 27.5281440072742  2.44212446124601 27.5281440072742  C 2.44212446124601 27.5281440072742  2.84178164387719 23.0396810468533  2.84178164387719 23.0396810468533  C 2.84178164387719 23.0396810468533  4.32227271664329 20.4401463716543  4.32227271664329 20.4401463716543  C 4.32227271664329 20.4401463716543  7.01681674042116 16.0671224218044  7.01681674042116 16.0671224218044  C 7.01681674042116 16.0671224218044  9.72392860013101 14.5796666732926  9.72392860013101 14.5796666732926  C 9.72392860013101 14.5796666732926  11.9911662022275 12.5943849792606  11.9911662022275 12.5943849792606  C 11.9911662022275 12.5943849792606  9.16591668475901 11.8376092475616  9.16591668475901 11.8376092475616  C 9.16591668475901 11.8376092475616  9.59322310644018 5.28959217381702  9.59322310644018 5.28959217381702  C 9.59322310644018 5.28959217381702  12.4938796394995 3.76399653431804  12.4938796394995 3.76399653431804  C 12.4938796394995 3.76399653431804  16.9755699327794 5.01659084885385  16.9755699327794 5.01659084885385  C 16.9755699327794 5.01659084885385  24.4747780289158 3.70377565381129  24.4747780289158 3.70377565381129  C 24.4747780289158 3.70377565381129  29.4340460876042 3.71782719259609  29.4340460876042 3.71782719259609  C 29.4340460876042 3.71782719259609  33.7674359168888 1.14037350691637  33.7674359168888 1.14037350691637  C 33.7674359168888 1.14037350691637  37.1079667075613 5.03064238763898  37.1079667075613 5.03064238763898  C 37.1079667075613 5.03064238763898  37.9324167446876 7.84095014461059  37.9324167446876 7.84095014461059  C 37.9324167446876 7.84095014461059  41.0341586526558 14.2645107319751  41.0341586526558 14.2645107319751  C 41.0341586526558 14.2645107319751  38.4678065553821 19.7997976756013  38.4678065553821 19.7997976756013  C 38.4678065553821 19.7997976756013  35.0015974053918 23.5013744640702  35.0015974053918 23.5013744640702  C 35.0015974053918 23.5013744640702  32.9832029547446 25.7656795711161  32.9832029547446 25.7656795711161  C 32.9832029547446 25.7656795711161  33.0535828359628 31.6914142129597  33.0535828359628 31.6914142129597  Z " stroke-width="2" stroke="#505050" fill="none" stroke-opacity="0.211764705882353" transform="matrix(1 0 0 1 2049 4317 )" mask="url(#clip242)" />
  </g>
</svg>