<?xml version="1.0" encoding="utf-8"?>
<svg version="1.1" xmlns:xlink="http://www.w3.org/1999/xlink" width="41px" height="35px" xmlns="http://www.w3.org/2000/svg">
  <defs>
    <mask fill="white" id="clip243">
      <path d="M 5.37914424743774 6.33959605944147  C 5.37914424743774 6.33959605944147  7.17738666472437 1.13249725830907  7.17738666472437 1.13249725830907  C 7.17738666472437 1.13249725830907  11.8435820385399 0.441964495167516  11.8435820385399 0.441964495167516  C 11.8435820385399 0.441964495167516  19.0596389855121 5.46840065478032  19.0596389855121 5.46840065478032  C 19.0596389855121 5.46840065478032  23.5937038176157 5.27770119984282  23.5937038176157 5.27770119984282  C 23.5937038176157 5.27770119984282  30.9970242402828 9.47108184578165  30.9970242402828 9.47108184578165  C 30.9970242402828 9.47108184578165  36.6380157889471 13.1144451164276  36.6380157889471 13.1144451164276  C 36.6380157889471 13.1144451164276  40.7988563036961 19.0853297623842  40.7988563036961 19.0853297623842  C 40.7988563036961 19.0853297623842  37.6282034823459 22.2529480770284  37.6282034823459 22.2529480770284  C 37.6282034823459 22.2529480770284  39.6188398815108 26.0569003623585  39.6188398815108 26.0569003623585  C 39.6188398815108 26.0569003623585  36.5071878812698 30.3084945261203  36.5071878812698 30.3084945261203  C 36.5071878812698 30.3084945261203  28.3830313398332 34.0943805472983  28.3830313398332 34.0943805472983  C 28.3830313398332 34.0943805472983  23.0729574399993 32.7293739224831  23.0729574399993 32.7293739224831  C 23.0729574399993 32.7293739224831  17.3178321362431 33.4600539392959  17.3178321362431 33.4600539392959  C 17.3178321362431 33.4600539392959  10.6686961225378 30.5353265093615  10.6686961225378 30.5353265093615  C 10.6686961225378 30.5353265093615  5.78958474211071 30.7541290418686  5.78958474211071 30.7541290418686  C 5.78958474211071 30.7541290418686  1.40813246147482 27.0083902743615  1.40813246147482 27.0083902743615  C 1.40813246147482 27.0083902743615  1.9647923823754 22.662450064473  1.9647923823754 22.662450064473  C 1.9647923823754 22.662450064473  3.52703151522507 21.1729869532778  3.52703151522507 21.1729869532778  C 3.52703151522507 21.1729869532778  3.45520442865737 13.0963788522755  3.45520442865737 13.0963788522755  C 3.45520442865737 13.0963788522755  5.37914424743774 6.33959605944147  5.37914424743774 6.33959605944147  Z " fill-rule="evenodd" />
    </mask>
  </defs>
  <g transform="matrix(1 0 0 1 -1423 -4516 )">
    <path d="M 5.37914424743774 6.33959605944147  C 5.37914424743774 6.33959605944147  7.17738666472437 1.13249725830907  7.17738666472437 1.13249725830907  C 7.17738666472437 1.13249725830907  11.8435820385399 0.441964495167516  11.8435820385399 0.441964495167516  C 11.8435820385399 0.441964495167516  19.0596389855121 5.46840065478032  19.0596389855121 5.46840065478032  C 19.0596389855121 5.46840065478032  23.5937038176157 5.27770119984282  23.5937038176157 5.27770119984282  C 23.5937038176157 5.27770119984282  30.9970242402828 9.47108184578165  30.9970242402828 9.47108184578165  C 30.9970242402828 9.47108184578165  36.6380157889471 13.1144451164276  36.6380157889471 13.1144451164276  C 36.6380157889471 13.1144451164276  40.7988563036961 19.0853297623842  40.7988563036961 19.0853297623842  C 40.7988563036961 19.0853297623842  37.6282034823459 22.2529480770284  37.6282034823459 22.2529480770284  C 37.6282034823459 22.2529480770284  39.6188398815108 26.0569003623585  39.6188398815108 26.0569003623585  C 39.6188398815108 26.0569003623585  36.5071878812698 30.3084945261203  36.5071878812698 30.3084945261203  C 36.5071878812698 30.3084945261203  28.3830313398332 34.0943805472983  28.3830313398332 34.0943805472983  C 28.3830313398332 34.0943805472983  23.0729574399993 32.7293739224831  23.0729574399993 32.7293739224831  C 23.0729574399993 32.7293739224831  17.3178321362431 33.4600539392959  17.3178321362431 33.4600539392959  C 17.3178321362431 33.4600539392959  10.6686961225378 30.5353265093615  10.6686961225378 30.5353265093615  C 10.6686961225378 30.5353265093615  5.78958474211071 30.7541290418686  5.78958474211071 30.7541290418686  C 5.78958474211071 30.7541290418686  1.40813246147482 27.0083902743615  1.40813246147482 27.0083902743615  C 1.40813246147482 27.0083902743615  1.9647923823754 22.662450064473  1.9647923823754 22.662450064473  C 1.9647923823754 22.662450064473  3.52703151522507 21.1729869532778  3.52703151522507 21.1729869532778  C 3.52703151522507 21.1729869532778  3.45520442865737 13.0963788522755  3.45520442865737 13.0963788522755  C 3.45520442865737 13.0963788522755  5.37914424743774 6.33959605944147  5.37914424743774 6.33959605944147  Z " fill-rule="nonzero" fill="#f2f2f2" stroke="none" transform="matrix(1 0 0 1 1423 4516 )" />
    <path d="M 5.37914424743774 6.33959605944147  C 5.37914424743774 6.33959605944147  7.17738666472437 1.13249725830907  7.17738666472437 1.13249725830907  C 7.17738666472437 1.13249725830907  11.8435820385399 0.441964495167516  11.8435820385399 0.441964495167516  C 11.8435820385399 0.441964495167516  19.0596389855121 5.46840065478032  19.0596389855121 5.46840065478032  C 19.0596389855121 5.46840065478032  23.5937038176157 5.27770119984282  23.5937038176157 5.27770119984282  C 23.5937038176157 5.27770119984282  30.9970242402828 9.47108184578165  30.9970242402828 9.47108184578165  C 30.9970242402828 9.47108184578165  36.6380157889471 13.1144451164276  36.6380157889471 13.1144451164276  C 36.6380157889471 13.1144451164276  40.7988563036961 19.0853297623842  40.7988563036961 19.0853297623842  C 40.7988563036961 19.0853297623842  37.6282034823459 22.2529480770284  37.6282034823459 22.2529480770284  C 37.6282034823459 22.2529480770284  39.6188398815108 26.0569003623585  39.6188398815108 26.0569003623585  C 39.6188398815108 26.0569003623585  36.5071878812698 30.3084945261203  36.5071878812698 30.3084945261203  C 36.5071878812698 30.3084945261203  28.3830313398332 34.0943805472983  28.3830313398332 34.0943805472983  C 28.3830313398332 34.0943805472983  23.0729574399993 32.7293739224831  23.0729574399993 32.7293739224831  C 23.0729574399993 32.7293739224831  17.3178321362431 33.4600539392959  17.3178321362431 33.4600539392959  C 17.3178321362431 33.4600539392959  10.6686961225378 30.5353265093615  10.6686961225378 30.5353265093615  C 10.6686961225378 30.5353265093615  5.78958474211071 30.7541290418686  5.78958474211071 30.7541290418686  C 5.78958474211071 30.7541290418686  1.40813246147482 27.0083902743615  1.40813246147482 27.0083902743615  C 1.40813246147482 27.0083902743615  1.9647923823754 22.662450064473  1.9647923823754 22.662450064473  C 1.9647923823754 22.662450064473  3.52703151522507 21.1729869532778  3.52703151522507 21.1729869532778  C 3.52703151522507 21.1729869532778  3.45520442865737 13.0963788522755  3.45520442865737 13.0963788522755  C 3.45520442865737 13.0963788522755  5.37914424743774 6.33959605944147  5.37914424743774 6.33959605944147  Z " stroke-width="2" stroke="#505050" fill="none" stroke-opacity="0.211764705882353" transform="matrix(1 0 0 1 1423 4516 )" mask="url(#clip243)" />
  </g>
</svg>