<?xml version="1.0" encoding="utf-8"?>
<svg version="1.1" xmlns:xlink="http://www.w3.org/1999/xlink" width="56px" height="87px" xmlns="http://www.w3.org/2000/svg">
  <defs>
    <mask fill="white" id="clip244">
      <path d="M 38.0409763653509 10.4804015715198  C 38.0409763653509 10.4804015715198  45.2944609806031 12.0077497749731  45.2944609806031 12.0077497749731  C 45.2944609806031 12.0077497749731  35.674536644966 17.0275818523893  35.674536644966 17.0275818523893  C 35.674536644966 17.0275818523893  29.6723616321327 22.5362438818106  29.6723616321327 22.5362438818106  C 29.6723616321327 22.5362438818106  26.2229296367392 26.5627106752328  26.2229296367392 26.5627106752328  C 26.2229296367392 26.5627106752328  33.5984418631299 32.6446190740735  33.5984418631299 32.6446190740735  C 33.5984418631299 32.6446190740735  40.3354722071575 40.1341221539888  40.3354722071575 40.1341221539888  C 40.3354722071575 40.1341221539888  46.8720874608596 45.0822831236188  46.8720874608596 45.0822831236188  C 46.8720874608596 45.0822831236188  51.2503863572072 49.6446960089982  51.2503863572072 49.6446960089982  C 51.2503863572072 49.6446960089982  54.5520964991125 60.0946632159154  54.5520964991125 60.0946632159154  C 54.5520964991125 60.0946632159154  53.5782847140677 69.9517523284328  53.5782847140677 69.9517523284328  C 53.5782847140677 69.9517523284328  47.5709708527649 73.624848072213  47.5709708527649 73.624848072213  C 47.5709708527649 73.624848072213  39.3205496343541 77.2076378810844  39.3205496343541 77.2076378810844  C 39.3205496343541 77.2076378810844  33.444276409033 81.8367986313963  33.444276409033 81.8367986313963  C 33.444276409033 81.8367986313963  22.5949026169956 86.9920896111755  22.5949026169956 86.9920896111755  C 22.5949026169956 86.9920896111755  19.9766593215859 83.4426737347702  19.9766593215859 83.4426737347702  C 19.9766593215859 83.4426737347702  22.0013656187232 79.6871247460733  22.0013656187232 79.6871247460733  C 22.0013656187232 79.6871247460733  16.6569632100361 76.5303433692702  16.6569632100361 76.5303433692702  C 16.6569632100361 76.5303433692702  22.8929558282493 74.2884003765408  22.8929558282493 74.2884003765408  C 22.8929558282493 74.2884003765408  32.3214380183615 73.8839868419504  32.3214380183615 73.8839868419504  C 32.3214380183615 73.8839868419504  29.1584767851433 70.5053669728721  29.1584767851433 70.5053669728721  C 29.1584767851433 70.5053669728721  41.2681732044427 66.2040560297281  41.2681732044427 66.2040560297281  C 41.2681732044427 66.2040560297281  42.1546245654992 59.4782270515393  42.1546245654992 59.4782270515393  C 42.1546245654992 59.4782270515393  40.4844988127844 55.7207148903448  40.4844988127844 55.7207148903448  C 40.4844988127844 55.7207148903448  41.7949051726066 50.0667780960707  41.7949051726066 50.0667780960707  C 41.7949051726066 50.0667780960707  39.9808916627351 46.0560166826327  39.9808916627351 46.0560166826327  C 39.9808916627351 46.0560166826327  34.5311428604151 40.6661419009498  34.5311428604151 40.6661419009498  C 34.5311428604151 40.6661419009498  29.9884008130309 35.6247149260556  29.9884008130309 35.6247149260556  C 29.9884008130309 35.6247149260556  22.1349756789403 28.8223222204444  22.1349756789403 28.8223222204444  C 22.1349756789403 28.8223222204444  13.5017102495224 25.3632122789475  13.5017102495224 25.3632122789475  C 13.5017102495224 25.3632122789475  15.570096758654 23.2763599135612  15.570096758654 23.2763599135612  C 15.570096758654 23.2763599135612  20.1745049876767 21.7529380551037  20.1745049876767 21.7529380551037  C 20.1745049876767 21.7529380551037  17.3815408442908 16.664394940257  17.3815408442908 16.664394940257  C 17.3815408442908 16.664394940257  8.51188838525777 16.6192419728028  8.51188838525777 16.6192419728028  C 8.51188838525777 16.6192419728028  5.27698327346103 11.2853022957046  5.27698327346103 11.2853022957046  C 5.27698327346103 11.2853022957046  1.06826637661998 6.62080444042871  1.06826637661998 6.62080444042871  C 1.06826637661998 6.62080444042871  4.93524985021346 5.1759094818919  4.93524985021346 5.1759094818919  C 4.93524985021346 5.1759094818919  10.6804824395522 5.20535706936218  10.6804824395522 5.20535706936218  C 10.6804824395522 5.20535706936218  17.6821634797797 4.52020986755603  17.6821634797797 4.52020986755603  C 17.6821634797797 4.52020986755603  23.8230874012996 1.34968628326693  23.8230874012996 1.34968628326693  C 23.8230874012996 1.34968628326693  29.1636156336134 3.58377658600434  29.1636156336134 3.58377658600434  C 29.1636156336134 3.58377658600434  35.7490499477794 4.66744780490678  35.7490499477794 4.66744780490678  C 35.7490499477794 4.66744780490678  34.6107950116985 8.08140477894945  34.6107950116985 8.08140477894945  C 34.6107950116985 8.08140477894945  38.0409763653509 10.4804015715198  38.0409763653509 10.4804015715198  Z " fill-rule="evenodd" />
    </mask>
  </defs>
  <g transform="matrix(1 0 0 1 -2565 -4207 )">
    <path d="M 38.0409763653509 10.4804015715198  C 38.0409763653509 10.4804015715198  45.2944609806031 12.0077497749731  45.2944609806031 12.0077497749731  C 45.2944609806031 12.0077497749731  35.674536644966 17.0275818523893  35.674536644966 17.0275818523893  C 35.674536644966 17.0275818523893  29.6723616321327 22.5362438818106  29.6723616321327 22.5362438818106  C 29.6723616321327 22.5362438818106  26.2229296367392 26.5627106752328  26.2229296367392 26.5627106752328  C 26.2229296367392 26.5627106752328  33.5984418631299 32.6446190740735  33.5984418631299 32.6446190740735  C 33.5984418631299 32.6446190740735  40.3354722071575 40.1341221539888  40.3354722071575 40.1341221539888  C 40.3354722071575 40.1341221539888  46.8720874608596 45.0822831236188  46.8720874608596 45.0822831236188  C 46.8720874608596 45.0822831236188  51.2503863572072 49.6446960089982  51.2503863572072 49.6446960089982  C 51.2503863572072 49.6446960089982  54.5520964991125 60.0946632159154  54.5520964991125 60.0946632159154  C 54.5520964991125 60.0946632159154  53.5782847140677 69.9517523284328  53.5782847140677 69.9517523284328  C 53.5782847140677 69.9517523284328  47.5709708527649 73.624848072213  47.5709708527649 73.624848072213  C 47.5709708527649 73.624848072213  39.3205496343541 77.2076378810844  39.3205496343541 77.2076378810844  C 39.3205496343541 77.2076378810844  33.444276409033 81.8367986313963  33.444276409033 81.8367986313963  C 33.444276409033 81.8367986313963  22.5949026169956 86.9920896111755  22.5949026169956 86.9920896111755  C 22.5949026169956 86.9920896111755  19.9766593215859 83.4426737347702  19.9766593215859 83.4426737347702  C 19.9766593215859 83.4426737347702  22.0013656187232 79.6871247460733  22.0013656187232 79.6871247460733  C 22.0013656187232 79.6871247460733  16.6569632100361 76.5303433692702  16.6569632100361 76.5303433692702  C 16.6569632100361 76.5303433692702  22.8929558282493 74.2884003765408  22.8929558282493 74.2884003765408  C 22.8929558282493 74.2884003765408  32.3214380183615 73.8839868419504  32.3214380183615 73.8839868419504  C 32.3214380183615 73.8839868419504  29.1584767851433 70.5053669728721  29.1584767851433 70.5053669728721  C 29.1584767851433 70.5053669728721  41.2681732044427 66.2040560297281  41.2681732044427 66.2040560297281  C 41.2681732044427 66.2040560297281  42.1546245654992 59.4782270515393  42.1546245654992 59.4782270515393  C 42.1546245654992 59.4782270515393  40.4844988127844 55.7207148903448  40.4844988127844 55.7207148903448  C 40.4844988127844 55.7207148903448  41.7949051726066 50.0667780960707  41.7949051726066 50.0667780960707  C 41.7949051726066 50.0667780960707  39.9808916627351 46.0560166826327  39.9808916627351 46.0560166826327  C 39.9808916627351 46.0560166826327  34.5311428604151 40.6661419009498  34.5311428604151 40.6661419009498  C 34.5311428604151 40.6661419009498  29.9884008130309 35.6247149260556  29.9884008130309 35.6247149260556  C 29.9884008130309 35.6247149260556  22.1349756789403 28.8223222204444  22.1349756789403 28.8223222204444  C 22.1349756789403 28.8223222204444  13.5017102495224 25.3632122789475  13.5017102495224 25.3632122789475  C 13.5017102495224 25.3632122789475  15.570096758654 23.2763599135612  15.570096758654 23.2763599135612  C 15.570096758654 23.2763599135612  20.1745049876767 21.7529380551037  20.1745049876767 21.7529380551037  C 20.1745049876767 21.7529380551037  17.3815408442908 16.664394940257  17.3815408442908 16.664394940257  C 17.3815408442908 16.664394940257  8.51188838525777 16.6192419728028  8.51188838525777 16.6192419728028  C 8.51188838525777 16.6192419728028  5.27698327346103 11.2853022957046  5.27698327346103 11.2853022957046  C 5.27698327346103 11.2853022957046  1.06826637661998 6.62080444042871  1.06826637661998 6.62080444042871  C 1.06826637661998 6.62080444042871  4.93524985021346 5.1759094818919  4.93524985021346 5.1759094818919  C 4.93524985021346 5.1759094818919  10.6804824395522 5.20535706936218  10.6804824395522 5.20535706936218  C 10.6804824395522 5.20535706936218  17.6821634797797 4.52020986755603  17.6821634797797 4.52020986755603  C 17.6821634797797 4.52020986755603  23.8230874012996 1.34968628326693  23.8230874012996 1.34968628326693  C 23.8230874012996 1.34968628326693  29.1636156336134 3.58377658600434  29.1636156336134 3.58377658600434  C 29.1636156336134 3.58377658600434  35.7490499477794 4.66744780490678  35.7490499477794 4.66744780490678  C 35.7490499477794 4.66744780490678  34.6107950116985 8.08140477894945  34.6107950116985 8.08140477894945  C 34.6107950116985 8.08140477894945  38.0409763653509 10.4804015715198  38.0409763653509 10.4804015715198  Z " fill-rule="nonzero" fill="#f2f2f2" stroke="none" transform="matrix(1 0 0 1 2565 4207 )" />
    <path d="M 38.0409763653509 10.4804015715198  C 38.0409763653509 10.4804015715198  45.2944609806031 12.0077497749731  45.2944609806031 12.0077497749731  C 45.2944609806031 12.0077497749731  35.674536644966 17.0275818523893  35.674536644966 17.0275818523893  C 35.674536644966 17.0275818523893  29.6723616321327 22.5362438818106  29.6723616321327 22.5362438818106  C 29.6723616321327 22.5362438818106  26.2229296367392 26.5627106752328  26.2229296367392 26.5627106752328  C 26.2229296367392 26.5627106752328  33.5984418631299 32.6446190740735  33.5984418631299 32.6446190740735  C 33.5984418631299 32.6446190740735  40.3354722071575 40.1341221539888  40.3354722071575 40.1341221539888  C 40.3354722071575 40.1341221539888  46.8720874608596 45.0822831236188  46.8720874608596 45.0822831236188  C 46.8720874608596 45.0822831236188  51.2503863572072 49.6446960089982  51.2503863572072 49.6446960089982  C 51.2503863572072 49.6446960089982  54.5520964991125 60.0946632159154  54.5520964991125 60.0946632159154  C 54.5520964991125 60.0946632159154  53.5782847140677 69.9517523284328  53.5782847140677 69.9517523284328  C 53.5782847140677 69.9517523284328  47.5709708527649 73.624848072213  47.5709708527649 73.624848072213  C 47.5709708527649 73.624848072213  39.3205496343541 77.2076378810844  39.3205496343541 77.2076378810844  C 39.3205496343541 77.2076378810844  33.444276409033 81.8367986313963  33.444276409033 81.8367986313963  C 33.444276409033 81.8367986313963  22.5949026169956 86.9920896111755  22.5949026169956 86.9920896111755  C 22.5949026169956 86.9920896111755  19.9766593215859 83.4426737347702  19.9766593215859 83.4426737347702  C 19.9766593215859 83.4426737347702  22.0013656187232 79.6871247460733  22.0013656187232 79.6871247460733  C 22.0013656187232 79.6871247460733  16.6569632100361 76.5303433692702  16.6569632100361 76.5303433692702  C 16.6569632100361 76.5303433692702  22.8929558282493 74.2884003765408  22.8929558282493 74.2884003765408  C 22.8929558282493 74.2884003765408  32.3214380183615 73.8839868419504  32.3214380183615 73.8839868419504  C 32.3214380183615 73.8839868419504  29.1584767851433 70.5053669728721  29.1584767851433 70.5053669728721  C 29.1584767851433 70.5053669728721  41.2681732044427 66.2040560297281  41.2681732044427 66.2040560297281  C 41.2681732044427 66.2040560297281  42.1546245654992 59.4782270515393  42.1546245654992 59.4782270515393  C 42.1546245654992 59.4782270515393  40.4844988127844 55.7207148903448  40.4844988127844 55.7207148903448  C 40.4844988127844 55.7207148903448  41.7949051726066 50.0667780960707  41.7949051726066 50.0667780960707  C 41.7949051726066 50.0667780960707  39.9808916627351 46.0560166826327  39.9808916627351 46.0560166826327  C 39.9808916627351 46.0560166826327  34.5311428604151 40.6661419009498  34.5311428604151 40.6661419009498  C 34.5311428604151 40.6661419009498  29.9884008130309 35.6247149260556  29.9884008130309 35.6247149260556  C 29.9884008130309 35.6247149260556  22.1349756789403 28.8223222204444  22.1349756789403 28.8223222204444  C 22.1349756789403 28.8223222204444  13.5017102495224 25.3632122789475  13.5017102495224 25.3632122789475  C 13.5017102495224 25.3632122789475  15.570096758654 23.2763599135612  15.570096758654 23.2763599135612  C 15.570096758654 23.2763599135612  20.1745049876767 21.7529380551037  20.1745049876767 21.7529380551037  C 20.1745049876767 21.7529380551037  17.3815408442908 16.664394940257  17.3815408442908 16.664394940257  C 17.3815408442908 16.664394940257  8.51188838525777 16.6192419728028  8.51188838525777 16.6192419728028  C 8.51188838525777 16.6192419728028  5.27698327346103 11.2853022957046  5.27698327346103 11.2853022957046  C 5.27698327346103 11.2853022957046  1.06826637661998 6.62080444042871  1.06826637661998 6.62080444042871  C 1.06826637661998 6.62080444042871  4.93524985021346 5.1759094818919  4.93524985021346 5.1759094818919  C 4.93524985021346 5.1759094818919  10.6804824395522 5.20535706936218  10.6804824395522 5.20535706936218  C 10.6804824395522 5.20535706936218  17.6821634797797 4.52020986755603  17.6821634797797 4.52020986755603  C 17.6821634797797 4.52020986755603  23.8230874012996 1.34968628326693  23.8230874012996 1.34968628326693  C 23.8230874012996 1.34968628326693  29.1636156336134 3.58377658600434  29.1636156336134 3.58377658600434  C 29.1636156336134 3.58377658600434  35.7490499477794 4.66744780490678  35.7490499477794 4.66744780490678  C 35.7490499477794 4.66744780490678  34.6107950116985 8.08140477894945  34.6107950116985 8.08140477894945  C 34.6107950116985 8.08140477894945  38.0409763653509 10.4804015715198  38.0409763653509 10.4804015715198  Z " stroke-width="2" stroke="#505050" fill="none" stroke-opacity="0.211764705882353" transform="matrix(1 0 0 1 2565 4207 )" mask="url(#clip244)" />
  </g>
</svg>