<?xml version="1.0" encoding="utf-8"?>
<svg version="1.1" xmlns:xlink="http://www.w3.org/1999/xlink" width="14px" height="14px" xmlns="http://www.w3.org/2000/svg">
  <defs>
    <mask fill="white" id="clip245">
      <path d="M 5.23117261099742 8.14603468047494  C 5.23117261099742 8.14603468047494  12.0763725968955 12.7584573302158  12.0763725968955 12.7584573302158  C 12.0763725968955 12.7584573302158  9.52988964976157 13.494597373528  9.52988964976157 13.494597373528  C 9.52988964976157 13.494597373528  4.94486533910367 9.64336665338974  4.94486533910367 9.64336665338974  C 4.94486533910367 9.64336665338974  5.23117261099742 8.14603468047494  5.23117261099742 8.14603468047494  Z M 0.691550578756051 1.10452756460622  C 0.691550578756051 1.10452756460622  6.38876852254043 2.81190996872751  6.38876852254043 2.81190996872751  C 6.38876852254043 2.81190996872751  7.64136283707649 8.70005175111905  7.64136283707649 8.70005175111905  C 7.64136283707649 8.70005175111905  5.565635115845 8.00052600315516  5.565635115845 8.00052600315516  C 5.565635115845 8.00052600315516  1.95790966597906 8.30307570682003  1.95790966597906 8.30307570682003  C 1.95790966597906 8.30307570682003  0.853974896464933 6.76334823402858  0.853974896464933 6.76334823402858  C 0.853974896464933 6.76334823402858  0.691550578756051 1.10452756460622  0.691550578756051 1.10452756460622  Z " fill-rule="evenodd" />
    </mask>
  </defs>
  <g transform="matrix(1 0 0 1 -3025 -4422 )">
    <path d="M 5.23117261099742 8.14603468047494  C 5.23117261099742 8.14603468047494  12.0763725968955 12.7584573302158  12.0763725968955 12.7584573302158  C 12.0763725968955 12.7584573302158  9.52988964976157 13.494597373528  9.52988964976157 13.494597373528  C 9.52988964976157 13.494597373528  4.94486533910367 9.64336665338974  4.94486533910367 9.64336665338974  C 4.94486533910367 9.64336665338974  5.23117261099742 8.14603468047494  5.23117261099742 8.14603468047494  Z M 0.691550578756051 1.10452756460622  C 0.691550578756051 1.10452756460622  6.38876852254043 2.81190996872751  6.38876852254043 2.81190996872751  C 6.38876852254043 2.81190996872751  7.64136283707649 8.70005175111905  7.64136283707649 8.70005175111905  C 7.64136283707649 8.70005175111905  5.565635115845 8.00052600315516  5.565635115845 8.00052600315516  C 5.565635115845 8.00052600315516  1.95790966597906 8.30307570682003  1.95790966597906 8.30307570682003  C 1.95790966597906 8.30307570682003  0.853974896464933 6.76334823402858  0.853974896464933 6.76334823402858  C 0.853974896464933 6.76334823402858  0.691550578756051 1.10452756460622  0.691550578756051 1.10452756460622  Z " fill-rule="nonzero" fill="#f2f2f2" stroke="none" transform="matrix(1 0 0 1 3025 4422 )" />
    <path d="M 5.23117261099742 8.14603468047494  C 5.23117261099742 8.14603468047494  12.0763725968955 12.7584573302158  12.0763725968955 12.7584573302158  C 12.0763725968955 12.7584573302158  9.52988964976157 13.494597373528  9.52988964976157 13.494597373528  C 9.52988964976157 13.494597373528  4.94486533910367 9.64336665338974  4.94486533910367 9.64336665338974  C 4.94486533910367 9.64336665338974  5.23117261099742 8.14603468047494  5.23117261099742 8.14603468047494  Z " stroke-width="2" stroke="#505050" fill="none" stroke-opacity="0.211764705882353" transform="matrix(1 0 0 1 3025 4422 )" mask="url(#clip245)" />
    <path d="M 0.691550578756051 1.10452756460622  C 0.691550578756051 1.10452756460622  6.38876852254043 2.81190996872751  6.38876852254043 2.81190996872751  C 6.38876852254043 2.81190996872751  7.64136283707649 8.70005175111905  7.64136283707649 8.70005175111905  C 7.64136283707649 8.70005175111905  5.565635115845 8.00052600315516  5.565635115845 8.00052600315516  C 5.565635115845 8.00052600315516  1.95790966597906 8.30307570682003  1.95790966597906 8.30307570682003  C 1.95790966597906 8.30307570682003  0.853974896464933 6.76334823402858  0.853974896464933 6.76334823402858  C 0.853974896464933 6.76334823402858  0.691550578756051 1.10452756460622  0.691550578756051 1.10452756460622  Z " stroke-width="2" stroke="#505050" fill="none" stroke-opacity="0.211764705882353" transform="matrix(1 0 0 1 3025 4422 )" mask="url(#clip245)" />
  </g>
</svg>