<?xml version="1.0" encoding="utf-8"?>
<svg version="1.1" xmlns:xlink="http://www.w3.org/1999/xlink" width="78px" height="41px" xmlns="http://www.w3.org/2000/svg">
  <defs>
    <mask fill="white" id="clip246">
      <path d="M 74.30038080454 11.0163096138774  C 74.30038080454 11.0163096138774  76.5850129596238 15.1199816311544  76.5850129596238 15.1199816311544  C 76.5850129596238 15.1199816311544  71.5238660980335 16.6941308676442  71.5238660980335 16.6941308676442  C 71.5238660980335 16.6941308676442  70.1680679994428 19.2901669964519  70.1680679994428 19.2901669964519  C 70.1680679994428 19.2901669964519  70.0007779946443 22.7438064833566  70.0007779946443 22.7438064833566  C 70.0007779946443 22.7438064833566  63.0320257052018 25.2027848041214  63.0320257052018 25.2027848041214  C 63.0320257052018 25.2027848041214  51.8460671753915 27.9157231809657  51.8460671753915 27.9157231809657  C 51.8460671753915 27.9157231809657  45.5764372940624 32.005286306238  45.5764372940624 32.005286306238  C 45.5764372940624 32.005286306238  42.495304966878 32.323744154337  42.495304966878 32.323744154337  C 42.495304966878 32.323744154337  40.3954408767955 31.9810996342304  40.3954408767955 31.9810996342304  C 40.3954408767955 31.9810996342304  34.4891244352181 34.3816268309774  34.4891244352181 34.3816268309774  C 34.4891244352181 34.3816268309774  30.0272253520101 35.4921981873229  30.0272253520101 35.4921981873229  C 30.0272253520101 35.4921981873229  24.149603392373 35.7925160314162  24.149603392373 35.7925160314162  C 24.149603392373 35.7925160314162  22.381822446144 36.1210516595184  22.381822446144 36.1210516595184  C 22.381822446144 36.1210516595184  20.851243745525 37.642796439992  20.851243745525 37.642796439992  C 20.851243745525 37.642796439992  19.0160474242278 38.064047644123  19.0160474242278 38.064047644123  C 19.0160474242278 38.064047644123  17.9324076916526 39.5293568565789  17.9324076916526 39.5293568565789  C 17.9324076916526 39.5293568565789  14.4667580400061 39.4023768285393  14.4667580400061 39.4023768285393  C 14.4667580400061 39.4023768285393  12.2295663340438 40.1823970007821  12.2295663340438 40.1823970007821  C 12.2295663340438 40.1823970007821  7.38564679211722 39.8901413806912  7.38564679211722 39.8901413806912  C 7.38564679211722 39.8901413806912  5.56293479953644 36.5241628596441  5.56293479953644 36.5241628596441  C 5.56293479953644 36.5241628596441  5.76268405899735 33.3678021626619  5.76268405899735 33.3678021626619  C 5.76268405899735 33.3678021626619  4.61911954858368 31.6606262301309  4.61911954858368 31.6606262301309  C 4.61911954858368 31.6606262301309  3.25083712127653 27.3715230607962  3.25083712127653 27.3715230607962  C 3.25083712127653 27.3715230607962  1.23836333220779 24.9810736440525  1.23836333220779 24.9810736440525  C 1.23836333220779 24.9810736440525  2.63910501417731 24.6988958039646  2.63910501417731 24.6988958039646  C 2.63910501417731 24.6988958039646  1.92000768011802 22.0363463271363  1.92000768011802 22.0363463271363  C 1.92000768011802 22.0363463271363  2.7689420328268 19.4453648085002  2.7689420328268 19.4453648085002  C 2.7689420328268 19.4453648085002  2.45933068066269 16.8956864677069  2.45933068066269 16.8956864677069  C 2.45933068066269 16.8956864677069  5.5329724106172 15.0272660551256  5.5329724106172 15.0272660551256  C 5.5329724106172 15.0272660551256  4.81637194230105 12.5521632863553  4.81637194230105 12.5521632863553  C 4.81637194230105 12.5521632863553  6.66904632380107 9.65984042545541  6.66904632380107 9.65984042545541  C 6.66904632380107 9.65984042545541  9.54543566003821 11.1916629859323  9.54543566003821 11.1916629859323  C 9.54543566003821 11.1916629859323  11.4430536249167 10.6595562017665  11.4430536249167 10.6595562017665  C 11.4430536249167 10.6595562017665  19.5229111701101 10.5245139497245  19.5229111701101 10.5245139497245  C 19.5229111701101 10.5245139497245  20.8063001621462 11.1130563019075  20.8063001621462 11.1130563019075  C 20.8063001621462 11.1130563019075  27.5728063263842 11.7015986540909  27.5728063263842 11.7015986540909  C 27.5728063263842 11.7015986540909  30.2569370003899 11.4073274779992  30.2569370003899 11.4073274779992  C 30.2569370003899 11.4073274779992  32.0072398864161 13.3664479106086  32.0072398864161 13.3664479106086  C 32.0072398864161 13.3664479106086  35.2756371443452 12.3868876943041  35.2756371443452 12.3868876943041  C 35.2756371443452 12.3868876943041  42.1057939109292 6.19711521637812  42.1057939109292 6.19711521637812  C 42.1057939109292 6.19711521637812  48.6400915610443 3.53456573954983  48.6400915610443 3.53456573954983  C 48.6400915610443 3.53456573954983  68.8272510953114 1.25900301484196  68.8272510953114 1.25900301484196  C 68.8272510953114 1.25900301484196  74.30038080454 11.0163096138774  74.30038080454 11.0163096138774  Z " fill-rule="evenodd" />
    </mask>
  </defs>
  <g transform="matrix(1 0 0 1 -2142 -4234 )">
    <path d="M 74.30038080454 11.0163096138774  C 74.30038080454 11.0163096138774  76.5850129596238 15.1199816311544  76.5850129596238 15.1199816311544  C 76.5850129596238 15.1199816311544  71.5238660980335 16.6941308676442  71.5238660980335 16.6941308676442  C 71.5238660980335 16.6941308676442  70.1680679994428 19.2901669964519  70.1680679994428 19.2901669964519  C 70.1680679994428 19.2901669964519  70.0007779946443 22.7438064833566  70.0007779946443 22.7438064833566  C 70.0007779946443 22.7438064833566  63.0320257052018 25.2027848041214  63.0320257052018 25.2027848041214  C 63.0320257052018 25.2027848041214  51.8460671753915 27.9157231809657  51.8460671753915 27.9157231809657  C 51.8460671753915 27.9157231809657  45.5764372940624 32.005286306238  45.5764372940624 32.005286306238  C 45.5764372940624 32.005286306238  42.495304966878 32.323744154337  42.495304966878 32.323744154337  C 42.495304966878 32.323744154337  40.3954408767955 31.9810996342304  40.3954408767955 31.9810996342304  C 40.3954408767955 31.9810996342304  34.4891244352181 34.3816268309774  34.4891244352181 34.3816268309774  C 34.4891244352181 34.3816268309774  30.0272253520101 35.4921981873229  30.0272253520101 35.4921981873229  C 30.0272253520101 35.4921981873229  24.149603392373 35.7925160314162  24.149603392373 35.7925160314162  C 24.149603392373 35.7925160314162  22.381822446144 36.1210516595184  22.381822446144 36.1210516595184  C 22.381822446144 36.1210516595184  20.851243745525 37.642796439992  20.851243745525 37.642796439992  C 20.851243745525 37.642796439992  19.0160474242278 38.064047644123  19.0160474242278 38.064047644123  C 19.0160474242278 38.064047644123  17.9324076916526 39.5293568565789  17.9324076916526 39.5293568565789  C 17.9324076916526 39.5293568565789  14.4667580400061 39.4023768285393  14.4667580400061 39.4023768285393  C 14.4667580400061 39.4023768285393  12.2295663340438 40.1823970007821  12.2295663340438 40.1823970007821  C 12.2295663340438 40.1823970007821  7.38564679211722 39.8901413806912  7.38564679211722 39.8901413806912  C 7.38564679211722 39.8901413806912  5.56293479953644 36.5241628596441  5.56293479953644 36.5241628596441  C 5.56293479953644 36.5241628596441  5.76268405899735 33.3678021626619  5.76268405899735 33.3678021626619  C 5.76268405899735 33.3678021626619  4.61911954858368 31.6606262301309  4.61911954858368 31.6606262301309  C 4.61911954858368 31.6606262301309  3.25083712127653 27.3715230607962  3.25083712127653 27.3715230607962  C 3.25083712127653 27.3715230607962  1.23836333220779 24.9810736440525  1.23836333220779 24.9810736440525  C 1.23836333220779 24.9810736440525  2.63910501417731 24.6988958039646  2.63910501417731 24.6988958039646  C 2.63910501417731 24.6988958039646  1.92000768011802 22.0363463271363  1.92000768011802 22.0363463271363  C 1.92000768011802 22.0363463271363  2.7689420328268 19.4453648085002  2.7689420328268 19.4453648085002  C 2.7689420328268 19.4453648085002  2.45933068066269 16.8956864677069  2.45933068066269 16.8956864677069  C 2.45933068066269 16.8956864677069  5.5329724106172 15.0272660551256  5.5329724106172 15.0272660551256  C 5.5329724106172 15.0272660551256  4.81637194230105 12.5521632863553  4.81637194230105 12.5521632863553  C 4.81637194230105 12.5521632863553  6.66904632380107 9.65984042545541  6.66904632380107 9.65984042545541  C 6.66904632380107 9.65984042545541  9.54543566003821 11.1916629859323  9.54543566003821 11.1916629859323  C 9.54543566003821 11.1916629859323  11.4430536249167 10.6595562017665  11.4430536249167 10.6595562017665  C 11.4430536249167 10.6595562017665  19.5229111701101 10.5245139497245  19.5229111701101 10.5245139497245  C 19.5229111701101 10.5245139497245  20.8063001621462 11.1130563019075  20.8063001621462 11.1130563019075  C 20.8063001621462 11.1130563019075  27.5728063263842 11.7015986540909  27.5728063263842 11.7015986540909  C 27.5728063263842 11.7015986540909  30.2569370003899 11.4073274779992  30.2569370003899 11.4073274779992  C 30.2569370003899 11.4073274779992  32.0072398864161 13.3664479106086  32.0072398864161 13.3664479106086  C 32.0072398864161 13.3664479106086  35.2756371443452 12.3868876943041  35.2756371443452 12.3868876943041  C 35.2756371443452 12.3868876943041  42.1057939109292 6.19711521637812  42.1057939109292 6.19711521637812  C 42.1057939109292 6.19711521637812  48.6400915610443 3.53456573954983  48.6400915610443 3.53456573954983  C 48.6400915610443 3.53456573954983  68.8272510953114 1.25900301484196  68.8272510953114 1.25900301484196  C 68.8272510953114 1.25900301484196  74.30038080454 11.0163096138774  74.30038080454 11.0163096138774  Z " fill-rule="nonzero" fill="#f2f2f2" stroke="none" transform="matrix(1 0 0 1 2142 4234 )" />
    <path d="M 74.30038080454 11.0163096138774  C 74.30038080454 11.0163096138774  76.5850129596238 15.1199816311544  76.5850129596238 15.1199816311544  C 76.5850129596238 15.1199816311544  71.5238660980335 16.6941308676442  71.5238660980335 16.6941308676442  C 71.5238660980335 16.6941308676442  70.1680679994428 19.2901669964519  70.1680679994428 19.2901669964519  C 70.1680679994428 19.2901669964519  70.0007779946443 22.7438064833566  70.0007779946443 22.7438064833566  C 70.0007779946443 22.7438064833566  63.0320257052018 25.2027848041214  63.0320257052018 25.2027848041214  C 63.0320257052018 25.2027848041214  51.8460671753915 27.9157231809657  51.8460671753915 27.9157231809657  C 51.8460671753915 27.9157231809657  45.5764372940624 32.005286306238  45.5764372940624 32.005286306238  C 45.5764372940624 32.005286306238  42.495304966878 32.323744154337  42.495304966878 32.323744154337  C 42.495304966878 32.323744154337  40.3954408767955 31.9810996342304  40.3954408767955 31.9810996342304  C 40.3954408767955 31.9810996342304  34.4891244352181 34.3816268309774  34.4891244352181 34.3816268309774  C 34.4891244352181 34.3816268309774  30.0272253520101 35.4921981873229  30.0272253520101 35.4921981873229  C 30.0272253520101 35.4921981873229  24.149603392373 35.7925160314162  24.149603392373 35.7925160314162  C 24.149603392373 35.7925160314162  22.381822446144 36.1210516595184  22.381822446144 36.1210516595184  C 22.381822446144 36.1210516595184  20.851243745525 37.642796439992  20.851243745525 37.642796439992  C 20.851243745525 37.642796439992  19.0160474242278 38.064047644123  19.0160474242278 38.064047644123  C 19.0160474242278 38.064047644123  17.9324076916526 39.5293568565789  17.9324076916526 39.5293568565789  C 17.9324076916526 39.5293568565789  14.4667580400061 39.4023768285393  14.4667580400061 39.4023768285393  C 14.4667580400061 39.4023768285393  12.2295663340438 40.1823970007821  12.2295663340438 40.1823970007821  C 12.2295663340438 40.1823970007821  7.38564679211722 39.8901413806912  7.38564679211722 39.8901413806912  C 7.38564679211722 39.8901413806912  5.56293479953644 36.5241628596441  5.56293479953644 36.5241628596441  C 5.56293479953644 36.5241628596441  5.76268405899735 33.3678021626619  5.76268405899735 33.3678021626619  C 5.76268405899735 33.3678021626619  4.61911954858368 31.6606262301309  4.61911954858368 31.6606262301309  C 4.61911954858368 31.6606262301309  3.25083712127653 27.3715230607962  3.25083712127653 27.3715230607962  C 3.25083712127653 27.3715230607962  1.23836333220779 24.9810736440525  1.23836333220779 24.9810736440525  C 1.23836333220779 24.9810736440525  2.63910501417731 24.6988958039646  2.63910501417731 24.6988958039646  C 2.63910501417731 24.6988958039646  1.92000768011802 22.0363463271363  1.92000768011802 22.0363463271363  C 1.92000768011802 22.0363463271363  2.7689420328268 19.4453648085002  2.7689420328268 19.4453648085002  C 2.7689420328268 19.4453648085002  2.45933068066269 16.8956864677069  2.45933068066269 16.8956864677069  C 2.45933068066269 16.8956864677069  5.5329724106172 15.0272660551256  5.5329724106172 15.0272660551256  C 5.5329724106172 15.0272660551256  4.81637194230105 12.5521632863553  4.81637194230105 12.5521632863553  C 4.81637194230105 12.5521632863553  6.66904632380107 9.65984042545541  6.66904632380107 9.65984042545541  C 6.66904632380107 9.65984042545541  9.54543566003821 11.1916629859323  9.54543566003821 11.1916629859323  C 9.54543566003821 11.1916629859323  11.4430536249167 10.6595562017665  11.4430536249167 10.6595562017665  C 11.4430536249167 10.6595562017665  19.5229111701101 10.5245139497245  19.5229111701101 10.5245139497245  C 19.5229111701101 10.5245139497245  20.8063001621462 11.1130563019075  20.8063001621462 11.1130563019075  C 20.8063001621462 11.1130563019075  27.5728063263842 11.7015986540909  27.5728063263842 11.7015986540909  C 27.5728063263842 11.7015986540909  30.2569370003899 11.4073274779992  30.2569370003899 11.4073274779992  C 30.2569370003899 11.4073274779992  32.0072398864161 13.3664479106086  32.0072398864161 13.3664479106086  C 32.0072398864161 13.3664479106086  35.2756371443452 12.3868876943041  35.2756371443452 12.3868876943041  C 35.2756371443452 12.3868876943041  42.1057939109292 6.19711521637812  42.1057939109292 6.19711521637812  C 42.1057939109292 6.19711521637812  48.6400915610443 3.53456573954983  48.6400915610443 3.53456573954983  C 48.6400915610443 3.53456573954983  68.8272510953114 1.25900301484196  68.8272510953114 1.25900301484196  C 68.8272510953114 1.25900301484196  74.30038080454 11.0163096138774  74.30038080454 11.0163096138774  Z " stroke-width="2" stroke="#505050" fill="none" stroke-opacity="0.211764705882353" transform="matrix(1 0 0 1 2142 4234 )" mask="url(#clip246)" />
  </g>
</svg>