<?xml version="1.0" encoding="utf-8"?>
<svg version="1.1" xmlns:xlink="http://www.w3.org/1999/xlink" width="119px" height="84px" xmlns="http://www.w3.org/2000/svg">
  <defs>
    <mask fill="white" id="clip247">
      <path d="M 114.479548005865 43.9050407057074  C 114.479548005865 43.9050407057074  109.671364670209 47.1205865349062  109.671364670209 47.1205865349062  C 109.671364670209 47.1205865349062  108.290397967935 48.0415922218806  108.290397967935 48.0415922218806  C 108.290397967935 48.0415922218806  105.296623438187 51.2930213895331  105.296623438187 51.2930213895331  C 105.296623438187 51.2930213895331  103.325973873993 54.5982755648661  103.325973873993 54.5982755648661  C 103.325973873993 54.5982755648661  99.3191544276127 59.2371938193892  99.3191544276127 59.2371938193892  C 99.3191544276127 59.2371938193892  91.3332356693877 65.979274411051  91.3332356693877 65.979274411051  C 91.3332356693877 65.979274411051  86.3461314653714 69.934415716154  86.3461314653714 69.934415716154  C 86.3461314653714 69.934415716154  81.0112655735563 72.9526031838582  81.0112655735563 72.9526031838582  C 81.0112655735563 72.9526031838582  73.625109726173 75.5381970713171  73.625109726173 75.5381970713171  C 73.625109726173 75.5381970713171  70.024012248892 75.8850693430346  70.024012248892 75.8850693430346  C 70.024012248892 75.8850693430346  69.1117678214772 77.7450223862107  69.1117678214772 77.7450223862107  C 69.1117678214772 77.7450223862107  64.8176669808288 76.7542435411321  64.8176669808288 76.7542435411321  C 64.8176669808288 76.7542435411321  61.3198900049952 78.030095575036  61.3198900049952 78.030095575036  C 61.3198900049952 78.030095575036  51.8308036059564 76.7382953907081  51.8308036059564 76.7382953907081  C 51.8308036059564 76.7382953907081  47.54930282646 77.555638099928  47.54930282646 77.555638099928  C 47.54930282646 77.555638099928  44.6235686269338 77.2047787906043  44.6235686269338 77.2047787906043  C 44.6235686269338 77.2047787906043  37.3356932565371 79.8561587985612  37.3356932565371 79.8561587985612  C 37.3356932565371 79.8561587985612  31.3027839768935 80.922691358153  31.3027839768935 80.922691358153  C 31.3027839768935 80.922691358153  26.938122793793 83.4783824635671  26.938122793793 83.4783824635671  C 26.938122793793 83.4783824635671  23.7251071999978 83.6418510054112  23.7251071999978 83.6418510054112  C 23.7251071999978 83.6418510054112  20.7338526824803 81.2316867726143  20.7338526824803 81.2316867726143  C 20.7338526824803 81.2316867726143  18.3474011002654 81.1080886068296  18.3474011002654 81.1080886068296  C 18.3474011002654 81.1080886068296  15.3032263259089 78.1038557707462  15.3032263259089 78.1038557707462  C 15.3032263259089 78.1038557707462  14.968064699262 79.0348290517357  14.968064699262 79.0348290517357  C 14.968064699262 79.0348290517357  14.0281001373123 77.2306945350433  14.0281001373123 77.2306945350433  C 14.0281001373123 77.2306945350433  14.0684203329991 73.3154236059998  14.0684203329991 73.3154236059998  C 14.0684203329991 73.3154236059998  11.7726891910798 68.871870194168  11.7726891910798 68.871870194168  C 11.7726891910798 68.871870194168  14.0533002596165 67.6697783559741  14.0533002596165 67.6697783559741  C 14.0533002596165 67.6697783559741  13.8693393667954 62.6321563408557  13.8693393667954 62.6321563408557  C 13.8693393667954 62.6321563408557  9.24259691173043 56.5459434353725  9.24259691173043 56.5459434353725  C 9.24259691173043 56.5459434353725  5.69189967905787 51.0896824716296  5.69189967905787 51.0896824716296  C 5.69189967905787 51.0896824716296  5.68181963013606 51.0717408024028  5.68181963013606 51.0717408024028  C 5.68181963013606 51.0717408024028  0.60903501028526 41.3443813515777  0.60903501028526 41.3443813515777  C 0.60903501028526 41.3443813515777  3.99341143574942 38.2205373873156  3.99341143574942 38.2205373873156  C 3.99341143574942 38.2205373873156  6.78306497483275 39.9489181894952  6.78306497483275 39.9489181894952  C 6.78306497483275 39.9489181894952  7.97503075982494 44.1043925860045  7.97503075982494 44.1043925860045  C 7.97503075982494 44.1043925860045  11.145206145703 44.5668889482946  11.145206145703 44.5668889482946  C 11.145206145703 44.5668889482946  15.5879877079467 45.7689807864886  15.5879877079467 45.7689807864886  C 15.5879877079467 45.7689807864886  19.3831261269706 45.3044909053956  19.3831261269706 45.3044909053956  C 19.3831261269706 45.3044909053956  25.6881967275004 40.6147534696889  25.6881967275004 40.6147534696889  C 25.6881967275004 40.6147534696889  25.6957567641917 17.641442784203  25.6957567641917 17.641442784203  C 25.6957567641917 17.641442784203  27.6034060226253 18.5604549523746  27.6034060226253 18.5604549523746  C 27.6034060226253 18.5604549523746  31.791666349596 24.4074456015006  31.791666349596 24.4074456015006  C 31.791666349596 24.4074456015006  31.1415031941455 28.1811766955327  31.1415031941455 28.1811766955327  C 31.1415031941455 28.1811766955327  32.7165108381627 30.3660733035934  32.7165108381627 30.3660733035934  C 32.7165108381627 30.3660733035934  37.7766953968614 29.7301408054445  37.7766953968614 29.7301408054445  C 37.7766953968614 29.7301408054445  41.3097525439211 26.9571561505061  41.3097525439211 26.9571561505061  C 41.3097525439211 26.9571561505061  44.6563287859289 25.0932160697243  44.6563287859289 25.0932160697243  C 44.6563287859289 25.0932160697243  46.3875771882327 22.1388212037153  46.3875771882327 22.1388212037153  C 46.3875771882327 22.1388212037153  49.8349539194576 20.7114617407852  49.8349539194576 20.7114617407852  C 49.8349539194576 20.7114617407852  52.813608375823 21.4590312919009  52.813608375823 21.4590312919009  C 52.813608375823 21.4590312919009  56.1879047523658 23.1834250564744  56.1879047523658 23.1834250564744  C 56.1879047523658 23.1834250564744  63.7693418929711 23.4884334333297  63.7693418929711 23.4884334333297  C 63.7693418929711 23.4884334333297  68.2877238221279 22.0530998951875  68.2877238221279 22.0530998951875  C 68.2877238221279 22.0530998951875  69.0034072955692 20.1353348067251  69.0034072955692 20.1353348067251  C 69.0034072955692 20.1353348067251  70.2457733251701 17.2028686475487  70.2457733251701 17.2028686475487  C 70.2457733251701 17.2028686475487  74.0913119888024 16.7124630220171  74.0913119888024 16.7124630220171  C 74.0913119888024 16.7124630220171  76.2156822990528 14.4199163985956  76.2156822990528 14.4199163985956  C 76.2156822990528 14.4199163985956  78.5693737222722 10.3690861909498  78.5693737222722 10.3690861909498  C 78.5693737222722 10.3690861909498  84.9122445062584 5.85376610221107  84.9122445062584 5.85376610221107  C 84.9122445062584 5.85376610221107  94.9091330243647 1.42416732200044  94.9091330243647 1.42416732200044  C 94.9091330243647 1.42416732200044  97.7844669792823 1.48995344249852  97.7844669792823 1.48995344249852  C 97.7844669792823 1.48995344249852  101.204123575973 2.50664803201612  101.204123575973 2.50664803201612  C 101.204123575973 2.50664803201612  103.585535133727 1.78698774414198  103.585535133727 1.78698774414198  C 103.585535133727 1.78698774414198  107.340353357064 2.38703690383752  107.340353357064 2.38703690383752  C 107.340353357064 2.38703690383752  110.724729782528 10.8814205233147  110.724729782528 10.8814205233147  C 110.724729782528 10.8814205233147  112.56181869851 15.203369288165  112.56181869851 15.203369288165  C 112.56181869851 15.203369288165  111.301812583296 22.0371517447638  111.301812583296 22.0371517447638  C 111.301812583296 22.0371517447638  111.904095506368 24.251951134869  111.904095506368 24.251951134869  C 111.904095506368 24.251951134869  108.338278200313 23.1216259735821  108.338278200313 23.1216259735821  C 108.338278200313 23.1216259735821  106.294548281436 23.5621936290396  106.294548281436 23.5621936290396  C 106.294548281436 23.5621936290396  105.626745040373 25.3603475893233  105.626745040373 25.3603475893233  C 105.626745040373 25.3603475893233  103.696415671866 27.6867840323953  103.696415671866 27.6867840323953  C 103.696415671866 27.6867840323953  103.761935989857 29.8357973020027  103.761935989857 29.8357973020027  C 103.761935989857 29.8357973020027  107.977916451362 33.2187987106513  107.977916451362 33.2187987106513  C 107.977916451362 33.2187987106513  112.113256521494 32.5449893552459  112.113256521494 32.5449893552459  C 112.113256521494 32.5449893552459  113.552183505068 29.7739982191103  113.552183505068 29.7739982191103  C 113.552183505068 29.7739982191103  118.909729506957 29.8258297079877  118.909729506957 29.8258297079877  C 118.909729506957 29.8258297079877  117.143200933427 34.373046097574  117.143200933427 34.373046097574  C 117.143200933427 34.373046097574  116.309076885156 39.6000523989748  116.309076885156 39.6000523989748  C 116.309076885156 39.6000523989748  114.479548005865 43.9050407057074  114.479548005865 43.9050407057074  Z M 94.1581693796967 45.6743041916401  C 94.1581693796967 45.6743041916401  91.7061974794909 43.752552065572  91.7061974794909 43.752552065572  C 91.7061974794909 43.752552065572  88.6217025094476 41.7989036386563  88.6217025094476 41.7989036386563  C 88.6217025094476 41.7989036386563  83.4871972445874 43.0926973417873  83.4871972445874 43.0926973417873  C 83.4871972445874 43.0926973417873  79.6592986665678 45.5806088079002  79.6592986665678 45.5806088079002  C 79.6592986665678 45.5806088079002  75.8918803820786 51.077721358812  75.8918803820786 51.077721358812  C 75.8918803820786 51.077721358812  81.1914661026677 56.0296220654022  81.1914661026677 56.0296220654022  C 81.1914661026677 56.0296220654022  83.7190383697867 55.3877090108444  83.7190383697867 55.3877090108444  C 83.7190383697867 55.3877090108444  86.8501339114567 53.3284040873709  86.8501339114567 53.3284040873709  C 86.8501339114567 53.3284040873709  90.7889130276149 52.3236706106715  90.7889130276149 52.3236706106715  C 90.7889130276149 52.3236706106715  91.9909588615289 50.2304758675475  91.9909588615289 50.2304758675475  C 91.9909588615289 50.2304758675475  94.1581693796967 45.6743041916401  94.1581693796967 45.6743041916401  Z " fill-rule="evenodd" />
    </mask>
  </defs>
  <g transform="matrix(1 0 0 1 -1956 -4466 )">
    <path d="M 114.479548005865 43.9050407057074  C 114.479548005865 43.9050407057074  109.671364670209 47.1205865349062  109.671364670209 47.1205865349062  C 109.671364670209 47.1205865349062  108.290397967935 48.0415922218806  108.290397967935 48.0415922218806  C 108.290397967935 48.0415922218806  105.296623438187 51.2930213895331  105.296623438187 51.2930213895331  C 105.296623438187 51.2930213895331  103.325973873993 54.5982755648661  103.325973873993 54.5982755648661  C 103.325973873993 54.5982755648661  99.3191544276127 59.2371938193892  99.3191544276127 59.2371938193892  C 99.3191544276127 59.2371938193892  91.3332356693877 65.979274411051  91.3332356693877 65.979274411051  C 91.3332356693877 65.979274411051  86.3461314653714 69.934415716154  86.3461314653714 69.934415716154  C 86.3461314653714 69.934415716154  81.0112655735563 72.9526031838582  81.0112655735563 72.9526031838582  C 81.0112655735563 72.9526031838582  73.625109726173 75.5381970713171  73.625109726173 75.5381970713171  C 73.625109726173 75.5381970713171  70.024012248892 75.8850693430346  70.024012248892 75.8850693430346  C 70.024012248892 75.8850693430346  69.1117678214772 77.7450223862107  69.1117678214772 77.7450223862107  C 69.1117678214772 77.7450223862107  64.8176669808288 76.7542435411321  64.8176669808288 76.7542435411321  C 64.8176669808288 76.7542435411321  61.3198900049952 78.030095575036  61.3198900049952 78.030095575036  C 61.3198900049952 78.030095575036  51.8308036059564 76.7382953907081  51.8308036059564 76.7382953907081  C 51.8308036059564 76.7382953907081  47.54930282646 77.555638099928  47.54930282646 77.555638099928  C 47.54930282646 77.555638099928  44.6235686269338 77.2047787906043  44.6235686269338 77.2047787906043  C 44.6235686269338 77.2047787906043  37.3356932565371 79.8561587985612  37.3356932565371 79.8561587985612  C 37.3356932565371 79.8561587985612  31.3027839768935 80.922691358153  31.3027839768935 80.922691358153  C 31.3027839768935 80.922691358153  26.938122793793 83.4783824635671  26.938122793793 83.4783824635671  C 26.938122793793 83.4783824635671  23.7251071999978 83.6418510054112  23.7251071999978 83.6418510054112  C 23.7251071999978 83.6418510054112  20.7338526824803 81.2316867726143  20.7338526824803 81.2316867726143  C 20.7338526824803 81.2316867726143  18.3474011002654 81.1080886068296  18.3474011002654 81.1080886068296  C 18.3474011002654 81.1080886068296  15.3032263259089 78.1038557707462  15.3032263259089 78.1038557707462  C 15.3032263259089 78.1038557707462  14.968064699262 79.0348290517357  14.968064699262 79.0348290517357  C 14.968064699262 79.0348290517357  14.0281001373123 77.2306945350433  14.0281001373123 77.2306945350433  C 14.0281001373123 77.2306945350433  14.0684203329991 73.3154236059998  14.0684203329991 73.3154236059998  C 14.0684203329991 73.3154236059998  11.7726891910798 68.871870194168  11.7726891910798 68.871870194168  C 11.7726891910798 68.871870194168  14.0533002596165 67.6697783559741  14.0533002596165 67.6697783559741  C 14.0533002596165 67.6697783559741  13.8693393667954 62.6321563408557  13.8693393667954 62.6321563408557  C 13.8693393667954 62.6321563408557  9.24259691173043 56.5459434353725  9.24259691173043 56.5459434353725  C 9.24259691173043 56.5459434353725  5.69189967905787 51.0896824716296  5.69189967905787 51.0896824716296  C 5.69189967905787 51.0896824716296  5.68181963013606 51.0717408024028  5.68181963013606 51.0717408024028  C 5.68181963013606 51.0717408024028  0.60903501028526 41.3443813515777  0.60903501028526 41.3443813515777  C 0.60903501028526 41.3443813515777  3.99341143574942 38.2205373873156  3.99341143574942 38.2205373873156  C 3.99341143574942 38.2205373873156  6.78306497483275 39.9489181894952  6.78306497483275 39.9489181894952  C 6.78306497483275 39.9489181894952  7.97503075982494 44.1043925860045  7.97503075982494 44.1043925860045  C 7.97503075982494 44.1043925860045  11.145206145703 44.5668889482946  11.145206145703 44.5668889482946  C 11.145206145703 44.5668889482946  15.5879877079467 45.7689807864886  15.5879877079467 45.7689807864886  C 15.5879877079467 45.7689807864886  19.3831261269706 45.3044909053956  19.3831261269706 45.3044909053956  C 19.3831261269706 45.3044909053956  25.6881967275004 40.6147534696889  25.6881967275004 40.6147534696889  C 25.6881967275004 40.6147534696889  25.6957567641917 17.641442784203  25.6957567641917 17.641442784203  C 25.6957567641917 17.641442784203  27.6034060226253 18.5604549523746  27.6034060226253 18.5604549523746  C 27.6034060226253 18.5604549523746  31.791666349596 24.4074456015006  31.791666349596 24.4074456015006  C 31.791666349596 24.4074456015006  31.1415031941455 28.1811766955327  31.1415031941455 28.1811766955327  C 31.1415031941455 28.1811766955327  32.7165108381627 30.3660733035934  32.7165108381627 30.3660733035934  C 32.7165108381627 30.3660733035934  37.7766953968614 29.7301408054445  37.7766953968614 29.7301408054445  C 37.7766953968614 29.7301408054445  41.3097525439211 26.9571561505061  41.3097525439211 26.9571561505061  C 41.3097525439211 26.9571561505061  44.6563287859289 25.0932160697243  44.6563287859289 25.0932160697243  C 44.6563287859289 25.0932160697243  46.3875771882327 22.1388212037153  46.3875771882327 22.1388212037153  C 46.3875771882327 22.1388212037153  49.8349539194576 20.7114617407852  49.8349539194576 20.7114617407852  C 49.8349539194576 20.7114617407852  52.813608375823 21.4590312919009  52.813608375823 21.4590312919009  C 52.813608375823 21.4590312919009  56.1879047523658 23.1834250564744  56.1879047523658 23.1834250564744  C 56.1879047523658 23.1834250564744  63.7693418929711 23.4884334333297  63.7693418929711 23.4884334333297  C 63.7693418929711 23.4884334333297  68.2877238221279 22.0530998951875  68.2877238221279 22.0530998951875  C 68.2877238221279 22.0530998951875  69.0034072955692 20.1353348067251  69.0034072955692 20.1353348067251  C 69.0034072955692 20.1353348067251  70.2457733251701 17.2028686475487  70.2457733251701 17.2028686475487  C 70.2457733251701 17.2028686475487  74.0913119888024 16.7124630220171  74.0913119888024 16.7124630220171  C 74.0913119888024 16.7124630220171  76.2156822990528 14.4199163985956  76.2156822990528 14.4199163985956  C 76.2156822990528 14.4199163985956  78.5693737222722 10.3690861909498  78.5693737222722 10.3690861909498  C 78.5693737222722 10.3690861909498  84.9122445062584 5.85376610221107  84.9122445062584 5.85376610221107  C 84.9122445062584 5.85376610221107  94.9091330243647 1.42416732200044  94.9091330243647 1.42416732200044  C 94.9091330243647 1.42416732200044  97.7844669792823 1.48995344249852  97.7844669792823 1.48995344249852  C 97.7844669792823 1.48995344249852  101.204123575973 2.50664803201612  101.204123575973 2.50664803201612  C 101.204123575973 2.50664803201612  103.585535133727 1.78698774414198  103.585535133727 1.78698774414198  C 103.585535133727 1.78698774414198  107.340353357064 2.38703690383752  107.340353357064 2.38703690383752  C 107.340353357064 2.38703690383752  110.724729782528 10.8814205233147  110.724729782528 10.8814205233147  C 110.724729782528 10.8814205233147  112.56181869851 15.203369288165  112.56181869851 15.203369288165  C 112.56181869851 15.203369288165  111.301812583296 22.0371517447638  111.301812583296 22.0371517447638  C 111.301812583296 22.0371517447638  111.904095506368 24.251951134869  111.904095506368 24.251951134869  C 111.904095506368 24.251951134869  108.338278200313 23.1216259735821  108.338278200313 23.1216259735821  C 108.338278200313 23.1216259735821  106.294548281436 23.5621936290396  106.294548281436 23.5621936290396  C 106.294548281436 23.5621936290396  105.626745040373 25.3603475893233  105.626745040373 25.3603475893233  C 105.626745040373 25.3603475893233  103.696415671866 27.6867840323953  103.696415671866 27.6867840323953  C 103.696415671866 27.6867840323953  103.761935989857 29.8357973020027  103.761935989857 29.8357973020027  C 103.761935989857 29.8357973020027  107.977916451362 33.2187987106513  107.977916451362 33.2187987106513  C 107.977916451362 33.2187987106513  112.113256521494 32.5449893552459  112.113256521494 32.5449893552459  C 112.113256521494 32.5449893552459  113.552183505068 29.7739982191103  113.552183505068 29.7739982191103  C 113.552183505068 29.7739982191103  118.909729506957 29.8258297079877  118.909729506957 29.8258297079877  C 118.909729506957 29.8258297079877  117.143200933427 34.373046097574  117.143200933427 34.373046097574  C 117.143200933427 34.373046097574  116.309076885156 39.6000523989748  116.309076885156 39.6000523989748  C 116.309076885156 39.6000523989748  114.479548005865 43.9050407057074  114.479548005865 43.9050407057074  Z M 94.1581693796967 45.6743041916401  C 94.1581693796967 45.6743041916401  91.7061974794909 43.752552065572  91.7061974794909 43.752552065572  C 91.7061974794909 43.752552065572  88.6217025094476 41.7989036386563  88.6217025094476 41.7989036386563  C 88.6217025094476 41.7989036386563  83.4871972445874 43.0926973417873  83.4871972445874 43.0926973417873  C 83.4871972445874 43.0926973417873  79.6592986665678 45.5806088079002  79.6592986665678 45.5806088079002  C 79.6592986665678 45.5806088079002  75.8918803820786 51.077721358812  75.8918803820786 51.077721358812  C 75.8918803820786 51.077721358812  81.1914661026677 56.0296220654022  81.1914661026677 56.0296220654022  C 81.1914661026677 56.0296220654022  83.7190383697867 55.3877090108444  83.7190383697867 55.3877090108444  C 83.7190383697867 55.3877090108444  86.8501339114567 53.3284040873709  86.8501339114567 53.3284040873709  C 86.8501339114567 53.3284040873709  90.7889130276149 52.3236706106715  90.7889130276149 52.3236706106715  C 90.7889130276149 52.3236706106715  91.9909588615289 50.2304758675475  91.9909588615289 50.2304758675475  C 91.9909588615289 50.2304758675475  94.1581693796967 45.6743041916401  94.1581693796967 45.6743041916401  Z " fill-rule="nonzero" fill="#f2f2f2" stroke="none" transform="matrix(1 0 0 1 1956 4466 )" />
    <path d="M 114.479548005865 43.9050407057074  C 114.479548005865 43.9050407057074  109.671364670209 47.1205865349062  109.671364670209 47.1205865349062  C 109.671364670209 47.1205865349062  108.290397967935 48.0415922218806  108.290397967935 48.0415922218806  C 108.290397967935 48.0415922218806  105.296623438187 51.2930213895331  105.296623438187 51.2930213895331  C 105.296623438187 51.2930213895331  103.325973873993 54.5982755648661  103.325973873993 54.5982755648661  C 103.325973873993 54.5982755648661  99.3191544276127 59.2371938193892  99.3191544276127 59.2371938193892  C 99.3191544276127 59.2371938193892  91.3332356693877 65.979274411051  91.3332356693877 65.979274411051  C 91.3332356693877 65.979274411051  86.3461314653714 69.934415716154  86.3461314653714 69.934415716154  C 86.3461314653714 69.934415716154  81.0112655735563 72.9526031838582  81.0112655735563 72.9526031838582  C 81.0112655735563 72.9526031838582  73.625109726173 75.5381970713171  73.625109726173 75.5381970713171  C 73.625109726173 75.5381970713171  70.024012248892 75.8850693430346  70.024012248892 75.8850693430346  C 70.024012248892 75.8850693430346  69.1117678214772 77.7450223862107  69.1117678214772 77.7450223862107  C 69.1117678214772 77.7450223862107  64.8176669808288 76.7542435411321  64.8176669808288 76.7542435411321  C 64.8176669808288 76.7542435411321  61.3198900049952 78.030095575036  61.3198900049952 78.030095575036  C 61.3198900049952 78.030095575036  51.8308036059564 76.7382953907081  51.8308036059564 76.7382953907081  C 51.8308036059564 76.7382953907081  47.54930282646 77.555638099928  47.54930282646 77.555638099928  C 47.54930282646 77.555638099928  44.6235686269338 77.2047787906043  44.6235686269338 77.2047787906043  C 44.6235686269338 77.2047787906043  37.3356932565371 79.8561587985612  37.3356932565371 79.8561587985612  C 37.3356932565371 79.8561587985612  31.3027839768935 80.922691358153  31.3027839768935 80.922691358153  C 31.3027839768935 80.922691358153  26.938122793793 83.4783824635671  26.938122793793 83.4783824635671  C 26.938122793793 83.4783824635671  23.7251071999978 83.6418510054112  23.7251071999978 83.6418510054112  C 23.7251071999978 83.6418510054112  20.7338526824803 81.2316867726143  20.7338526824803 81.2316867726143  C 20.7338526824803 81.2316867726143  18.3474011002654 81.1080886068296  18.3474011002654 81.1080886068296  C 18.3474011002654 81.1080886068296  15.3032263259089 78.1038557707462  15.3032263259089 78.1038557707462  C 15.3032263259089 78.1038557707462  14.968064699262 79.0348290517357  14.968064699262 79.0348290517357  C 14.968064699262 79.0348290517357  14.0281001373123 77.2306945350433  14.0281001373123 77.2306945350433  C 14.0281001373123 77.2306945350433  14.0684203329991 73.3154236059998  14.0684203329991 73.3154236059998  C 14.0684203329991 73.3154236059998  11.7726891910798 68.871870194168  11.7726891910798 68.871870194168  C 11.7726891910798 68.871870194168  14.0533002596165 67.6697783559741  14.0533002596165 67.6697783559741  C 14.0533002596165 67.6697783559741  13.8693393667954 62.6321563408557  13.8693393667954 62.6321563408557  C 13.8693393667954 62.6321563408557  9.24259691173043 56.5459434353725  9.24259691173043 56.5459434353725  C 9.24259691173043 56.5459434353725  5.69189967905787 51.0896824716296  5.69189967905787 51.0896824716296  C 5.69189967905787 51.0896824716296  5.68181963013606 51.0717408024028  5.68181963013606 51.0717408024028  C 5.68181963013606 51.0717408024028  0.60903501028526 41.3443813515777  0.60903501028526 41.3443813515777  C 0.60903501028526 41.3443813515777  3.99341143574942 38.2205373873156  3.99341143574942 38.2205373873156  C 3.99341143574942 38.2205373873156  6.78306497483275 39.9489181894952  6.78306497483275 39.9489181894952  C 6.78306497483275 39.9489181894952  7.97503075982494 44.1043925860045  7.97503075982494 44.1043925860045  C 7.97503075982494 44.1043925860045  11.145206145703 44.5668889482946  11.145206145703 44.5668889482946  C 11.145206145703 44.5668889482946  15.5879877079467 45.7689807864886  15.5879877079467 45.7689807864886  C 15.5879877079467 45.7689807864886  19.3831261269706 45.3044909053956  19.3831261269706 45.3044909053956  C 19.3831261269706 45.3044909053956  25.6881967275004 40.6147534696889  25.6881967275004 40.6147534696889  C 25.6881967275004 40.6147534696889  25.6957567641917 17.641442784203  25.6957567641917 17.641442784203  C 25.6957567641917 17.641442784203  27.6034060226253 18.5604549523746  27.6034060226253 18.5604549523746  C 27.6034060226253 18.5604549523746  31.791666349596 24.4074456015006  31.791666349596 24.4074456015006  C 31.791666349596 24.4074456015006  31.1415031941455 28.1811766955327  31.1415031941455 28.1811766955327  C 31.1415031941455 28.1811766955327  32.7165108381627 30.3660733035934  32.7165108381627 30.3660733035934  C 32.7165108381627 30.3660733035934  37.7766953968614 29.7301408054445  37.7766953968614 29.7301408054445  C 37.7766953968614 29.7301408054445  41.3097525439211 26.9571561505061  41.3097525439211 26.9571561505061  C 41.3097525439211 26.9571561505061  44.6563287859289 25.0932160697243  44.6563287859289 25.0932160697243  C 44.6563287859289 25.0932160697243  46.3875771882327 22.1388212037153  46.3875771882327 22.1388212037153  C 46.3875771882327 22.1388212037153  49.8349539194576 20.7114617407852  49.8349539194576 20.7114617407852  C 49.8349539194576 20.7114617407852  52.813608375823 21.4590312919009  52.813608375823 21.4590312919009  C 52.813608375823 21.4590312919009  56.1879047523658 23.1834250564744  56.1879047523658 23.1834250564744  C 56.1879047523658 23.1834250564744  63.7693418929711 23.4884334333297  63.7693418929711 23.4884334333297  C 63.7693418929711 23.4884334333297  68.2877238221279 22.0530998951875  68.2877238221279 22.0530998951875  C 68.2877238221279 22.0530998951875  69.0034072955692 20.1353348067251  69.0034072955692 20.1353348067251  C 69.0034072955692 20.1353348067251  70.2457733251701 17.2028686475487  70.2457733251701 17.2028686475487  C 70.2457733251701 17.2028686475487  74.0913119888024 16.7124630220171  74.0913119888024 16.7124630220171  C 74.0913119888024 16.7124630220171  76.2156822990528 14.4199163985956  76.2156822990528 14.4199163985956  C 76.2156822990528 14.4199163985956  78.5693737222722 10.3690861909498  78.5693737222722 10.3690861909498  C 78.5693737222722 10.3690861909498  84.9122445062584 5.85376610221107  84.9122445062584 5.85376610221107  C 84.9122445062584 5.85376610221107  94.9091330243647 1.42416732200044  94.9091330243647 1.42416732200044  C 94.9091330243647 1.42416732200044  97.7844669792823 1.48995344249852  97.7844669792823 1.48995344249852  C 97.7844669792823 1.48995344249852  101.204123575973 2.50664803201612  101.204123575973 2.50664803201612  C 101.204123575973 2.50664803201612  103.585535133727 1.78698774414198  103.585535133727 1.78698774414198  C 103.585535133727 1.78698774414198  107.340353357064 2.38703690383752  107.340353357064 2.38703690383752  C 107.340353357064 2.38703690383752  110.724729782528 10.8814205233147  110.724729782528 10.8814205233147  C 110.724729782528 10.8814205233147  112.56181869851 15.203369288165  112.56181869851 15.203369288165  C 112.56181869851 15.203369288165  111.301812583296 22.0371517447638  111.301812583296 22.0371517447638  C 111.301812583296 22.0371517447638  111.904095506368 24.251951134869  111.904095506368 24.251951134869  C 111.904095506368 24.251951134869  108.338278200313 23.1216259735821  108.338278200313 23.1216259735821  C 108.338278200313 23.1216259735821  106.294548281436 23.5621936290396  106.294548281436 23.5621936290396  C 106.294548281436 23.5621936290396  105.626745040373 25.3603475893233  105.626745040373 25.3603475893233  C 105.626745040373 25.3603475893233  103.696415671866 27.6867840323953  103.696415671866 27.6867840323953  C 103.696415671866 27.6867840323953  103.761935989857 29.8357973020027  103.761935989857 29.8357973020027  C 103.761935989857 29.8357973020027  107.977916451362 33.2187987106513  107.977916451362 33.2187987106513  C 107.977916451362 33.2187987106513  112.113256521494 32.5449893552459  112.113256521494 32.5449893552459  C 112.113256521494 32.5449893552459  113.552183505068 29.7739982191103  113.552183505068 29.7739982191103  C 113.552183505068 29.7739982191103  118.909729506957 29.8258297079877  118.909729506957 29.8258297079877  C 118.909729506957 29.8258297079877  117.143200933427 34.373046097574  117.143200933427 34.373046097574  C 117.143200933427 34.373046097574  116.309076885156 39.6000523989748  116.309076885156 39.6000523989748  C 116.309076885156 39.6000523989748  114.479548005865 43.9050407057074  114.479548005865 43.9050407057074  Z " stroke-width="2" stroke="#505050" fill="none" stroke-opacity="0.211764705882353" transform="matrix(1 0 0 1 1956 4466 )" mask="url(#clip247)" />
    <path d="M 94.1581693796967 45.6743041916401  C 94.1581693796967 45.6743041916401  91.7061974794909 43.752552065572  91.7061974794909 43.752552065572  C 91.7061974794909 43.752552065572  88.6217025094476 41.7989036386563  88.6217025094476 41.7989036386563  C 88.6217025094476 41.7989036386563  83.4871972445874 43.0926973417873  83.4871972445874 43.0926973417873  C 83.4871972445874 43.0926973417873  79.6592986665678 45.5806088079002  79.6592986665678 45.5806088079002  C 79.6592986665678 45.5806088079002  75.8918803820786 51.077721358812  75.8918803820786 51.077721358812  C 75.8918803820786 51.077721358812  81.1914661026677 56.0296220654022  81.1914661026677 56.0296220654022  C 81.1914661026677 56.0296220654022  83.7190383697867 55.3877090108444  83.7190383697867 55.3877090108444  C 83.7190383697867 55.3877090108444  86.8501339114567 53.3284040873709  86.8501339114567 53.3284040873709  C 86.8501339114567 53.3284040873709  90.7889130276149 52.3236706106715  90.7889130276149 52.3236706106715  C 90.7889130276149 52.3236706106715  91.9909588615289 50.2304758675475  91.9909588615289 50.2304758675475  C 91.9909588615289 50.2304758675475  94.1581693796967 45.6743041916401  94.1581693796967 45.6743041916401  Z " stroke-width="2" stroke="#505050" fill="none" stroke-opacity="0.211764705882353" transform="matrix(1 0 0 1 1956 4466 )" mask="url(#clip247)" />
  </g>
</svg>