<?xml version="1.0" encoding="utf-8"?>
<svg version="1.1" xmlns:xlink="http://www.w3.org/1999/xlink" width="87px" height="60px" xmlns="http://www.w3.org/2000/svg">
  <defs>
    <mask fill="white" id="clip248">
      <path d="M 76.8074514403299 5.07108280436558  C 76.8074514403299 5.07108280436558  80.8612355702137 6.77925752223207  80.8612355702137 6.77925752223207  C 80.8612355702137 6.77925752223207  84.234717775095 9.31533295830965  84.234717775095 9.31533295830965  C 84.234717775095 9.31533295830965  86.0514041890533 14.1538184209454  86.0514041890533 14.1538184209454  C 86.0514041890533 14.1538184209454  84.8334853869889 15.7008445805226  84.8334853869889 15.7008445805226  C 84.8334853869889 15.7008445805226  83.3989910657288 20.3378943452965  83.3989910657288 20.3378943452965  C 83.3989910657288 20.3378943452965  84.7697867048725 25.093791171809  84.7697867048725 25.093791171809  C 84.7697867048725 25.093791171809  82.5224971998076 27.0940476515747  82.5224971998076 27.0940476515747  C 82.5224971998076 27.0940476515747  80.3541940605676 33.9136374918611  80.3541940605676 33.9136374918611  C 80.3541940605676 33.9136374918611  84.1098683581471 35.4123190839513  84.1098683581471 35.4123190839513  C 84.1098683581471 35.4123190839513  62.4319328603135 40.1863451232714  62.4319328603135 40.1863451232714  C 62.4319328603135 40.1863451232714  63.1096868380316 44.3258487143272  63.1096868380316 44.3258487143272  C 63.1096868380316 44.3258487143272  57.6978468054272 45.1235340778592  57.6978468054272 45.1235340778592  C 57.6978468054272 45.1235340778592  53.6287749918353 47.448102031182  53.6287749918353 47.448102031182  C 53.6287749918353 47.448102031182  52.7599249677683 49.4745451516698  52.7599249677683 49.4745451516698  C 52.7599249677683 49.4745451516698  50.2043338412607 49.9338185427942  50.2043338412607 49.9338185427942  C 50.2043338412607 49.9338185427942  42.1388265842029 54.7582035065797  42.1388265842029 54.7582035065797  C 42.1388265842029 54.7582035065797  38.1844123984204 58.5713812670999  38.1844123984204 58.5713812670999  C 38.1844123984204 58.5713812670999  35.7715063198534 58.7083575416457  35.7715063198534 58.7083575416457  C 35.7715063198534 58.7083575416457  33.450326343534 58.0275048828736  33.450326343534 58.0275048828736  C 33.450326343534 58.0275048828736  25.4650595534293 57.3829106497161  25.4650595534293 57.3829106497161  C 25.4650595534293 57.3829106497161  24.180894121964 56.9417664713993  24.180894121964 56.9417664713993  C 24.180894121964 56.9417664713993  24.1273872289863 56.4542920825741  24.1273872289863 56.4542920825741  C 24.1273872289863 56.4542920825741  21.3068095848745 55.1268308336664  21.3068095848745 55.1268308336664  C 21.3068095848745 55.1268308336664  16.6771893686588 54.7884188612587  16.6771893686588 54.7884188612587  C 16.6771893686588 54.7884188612587  10.827102403094 56.12595189506  10.827102403094 56.12595189506  C 10.827102403094 56.12595189506  6.1643588721777 52.4537791230427  6.1643588721777 52.4537791230427  C 6.1643588721777 52.4537791230427  1.34364260961319 47.6656525848727  1.34364260961319 47.6656525848727  C 1.34364260961319 47.6656525848727  1.67232780933319 27.7547567405606  1.67232780933319 27.7547567405606  C 1.67232780933319 27.7547567405606  16.5497920044262 27.8272735917907  16.5497920044262 27.8272735917907  C 16.5497920044262 27.8272735917907  15.9408326033938 25.8411176108756  15.9408326033938 25.8411176108756  C 15.9408326033938 25.8411176108756  17.005874568379 23.6897843577135  17.005874568379 23.6897843577135  C 17.005874568379 23.6897843577135  15.7497365570449 20.9986034342825  15.7497365570449 20.9986034342825  C 15.7497365570449 20.9986034342825  16.5625317408494 18.2208051607711  16.5625317408494 18.2208051607711  C 16.5625317408494 18.2208051607711  15.8057913973071 16.4461566626104  15.8057913973071 16.4461566626104  C 15.8057913973071 16.4461566626104  18.272204368852 16.5891760080921  18.272204368852 16.5891760080921  C 18.272204368852 16.5891760080921  18.6798759343967 18.3678532202101  18.6798759343967 18.3678532202101  C 18.6798759343967 18.3678532202101  22.0278786664315 18.2288625886855  22.0278786664315 18.2288625886855  C 22.0278786664315 18.2288625886855  26.563224833115 18.756624117083  26.563224833115 18.756624117083  C 26.563224833115 18.756624117083  28.9506514388355 21.3571589764763  28.9506514388355 21.3571589764763  C 28.9506514388355 21.3571589764763  34.6733410401674 22.1568586969868  34.6733410401674 22.1568586969868  C 34.6733410401674 22.1568586969868  39.040522686064 20.3479661301894  39.040522686064 20.3479661301894  C 39.040522686064 20.3479661301894  40.6431815281113 23.3533867422846  40.6431815281113 23.3533867422846  C 40.6431815281113 23.3533867422846  47.9697840726196 24.1551008197741  47.9697840726196 24.1551008197741  C 47.9697840726196 24.1551008197741  50.6018136176668 26.604558905771  50.6018136176668 26.604558905771  C 50.6018136176668 26.604558905771  53.5345009423031 31.2365570672803  53.5345009423031 31.2365570672803  C 53.5345009423031 31.2365570672803  59.0023958151697 31.2849016347669  59.0023958151697 31.2849016347669  C 59.0023958151697 31.2849016347669  58.406176150561 23.6172675064834  58.406176150561 23.6172675064834  C 58.406176150561 23.6172675064834  56.4442567413776 24.6607044214066  56.4442567413776 24.6607044214066  C 56.4442567413776 24.6607044214066  51.4502800634563 22.4287968891  51.4502800634563 22.4287968891  C 51.4502800634563 22.4287968891  49.5214839689734 21.4075179009417  49.5214839689734 21.4075179009417  C 49.5214839689734 21.4075179009417  50.4056216767485 15.6645861549074  50.4056216767485 15.6645861549074  C 50.4056216767485 15.6645861549074  51.6744994245058 8.9144759195651  51.6744994245058 8.9144759195651  C 51.6744994245058 8.9144759195651  50.0743885297436 6.40458712420951  50.0743885297436 6.40458712420951  C 50.0743885297436 6.40458712420951  52.1101984101817 2.78075891967912  52.1101984101817 2.78075891967912  C 52.1101984101817 2.78075891967912  54.0262547682411 2.10192061788559  54.0262547682411 2.10192061788559  C 54.0262547682411 2.10192061788559  63.6218242422471 1.14510105304306  63.6218242422471 1.14510105304306  C 63.6218242422471 1.14510105304306  66.4347580445045 1.72120714892716  66.4347580445045 1.72120714892716  C 66.4347580445045 1.72120714892716  69.4209522621187 3.16550110259491  69.4209522621187 3.16550110259491  C 69.4209522621187 3.16550110259491  72.2670093790768 4.11627759650156  72.2670093790768 4.11627759650156  C 72.2670093790768 4.11627759650156  76.8074514403299 5.07108280436558  76.8074514403299 5.07108280436558  Z " fill-rule="evenodd" />
    </mask>
  </defs>
  <g transform="matrix(1 0 0 1 -1995 -4386 )">
    <path d="M 76.8074514403299 5.07108280436558  C 76.8074514403299 5.07108280436558  80.8612355702137 6.77925752223207  80.8612355702137 6.77925752223207  C 80.8612355702137 6.77925752223207  84.234717775095 9.31533295830965  84.234717775095 9.31533295830965  C 84.234717775095 9.31533295830965  86.0514041890533 14.1538184209454  86.0514041890533 14.1538184209454  C 86.0514041890533 14.1538184209454  84.8334853869889 15.7008445805226  84.8334853869889 15.7008445805226  C 84.8334853869889 15.7008445805226  83.3989910657288 20.3378943452965  83.3989910657288 20.3378943452965  C 83.3989910657288 20.3378943452965  84.7697867048725 25.093791171809  84.7697867048725 25.093791171809  C 84.7697867048725 25.093791171809  82.5224971998076 27.0940476515747  82.5224971998076 27.0940476515747  C 82.5224971998076 27.0940476515747  80.3541940605676 33.9136374918611  80.3541940605676 33.9136374918611  C 80.3541940605676 33.9136374918611  84.1098683581471 35.4123190839513  84.1098683581471 35.4123190839513  C 84.1098683581471 35.4123190839513  62.4319328603135 40.1863451232714  62.4319328603135 40.1863451232714  C 62.4319328603135 40.1863451232714  63.1096868380316 44.3258487143272  63.1096868380316 44.3258487143272  C 63.1096868380316 44.3258487143272  57.6978468054272 45.1235340778592  57.6978468054272 45.1235340778592  C 57.6978468054272 45.1235340778592  53.6287749918353 47.448102031182  53.6287749918353 47.448102031182  C 53.6287749918353 47.448102031182  52.7599249677683 49.4745451516698  52.7599249677683 49.4745451516698  C 52.7599249677683 49.4745451516698  50.2043338412607 49.9338185427942  50.2043338412607 49.9338185427942  C 50.2043338412607 49.9338185427942  42.1388265842029 54.7582035065797  42.1388265842029 54.7582035065797  C 42.1388265842029 54.7582035065797  38.1844123984204 58.5713812670999  38.1844123984204 58.5713812670999  C 38.1844123984204 58.5713812670999  35.7715063198534 58.7083575416457  35.7715063198534 58.7083575416457  C 35.7715063198534 58.7083575416457  33.450326343534 58.0275048828736  33.450326343534 58.0275048828736  C 33.450326343534 58.0275048828736  25.4650595534293 57.3829106497161  25.4650595534293 57.3829106497161  C 25.4650595534293 57.3829106497161  24.180894121964 56.9417664713993  24.180894121964 56.9417664713993  C 24.180894121964 56.9417664713993  24.1273872289863 56.4542920825741  24.1273872289863 56.4542920825741  C 24.1273872289863 56.4542920825741  21.3068095848745 55.1268308336664  21.3068095848745 55.1268308336664  C 21.3068095848745 55.1268308336664  16.6771893686588 54.7884188612587  16.6771893686588 54.7884188612587  C 16.6771893686588 54.7884188612587  10.827102403094 56.12595189506  10.827102403094 56.12595189506  C 10.827102403094 56.12595189506  6.1643588721777 52.4537791230427  6.1643588721777 52.4537791230427  C 6.1643588721777 52.4537791230427  1.34364260961319 47.6656525848727  1.34364260961319 47.6656525848727  C 1.34364260961319 47.6656525848727  1.67232780933319 27.7547567405606  1.67232780933319 27.7547567405606  C 1.67232780933319 27.7547567405606  16.5497920044262 27.8272735917907  16.5497920044262 27.8272735917907  C 16.5497920044262 27.8272735917907  15.9408326033938 25.8411176108756  15.9408326033938 25.8411176108756  C 15.9408326033938 25.8411176108756  17.005874568379 23.6897843577135  17.005874568379 23.6897843577135  C 17.005874568379 23.6897843577135  15.7497365570449 20.9986034342825  15.7497365570449 20.9986034342825  C 15.7497365570449 20.9986034342825  16.5625317408494 18.2208051607711  16.5625317408494 18.2208051607711  C 16.5625317408494 18.2208051607711  15.8057913973071 16.4461566626104  15.8057913973071 16.4461566626104  C 15.8057913973071 16.4461566626104  18.272204368852 16.5891760080921  18.272204368852 16.5891760080921  C 18.272204368852 16.5891760080921  18.6798759343967 18.3678532202101  18.6798759343967 18.3678532202101  C 18.6798759343967 18.3678532202101  22.0278786664315 18.2288625886855  22.0278786664315 18.2288625886855  C 22.0278786664315 18.2288625886855  26.563224833115 18.756624117083  26.563224833115 18.756624117083  C 26.563224833115 18.756624117083  28.9506514388355 21.3571589764763  28.9506514388355 21.3571589764763  C 28.9506514388355 21.3571589764763  34.6733410401674 22.1568586969868  34.6733410401674 22.1568586969868  C 34.6733410401674 22.1568586969868  39.040522686064 20.3479661301894  39.040522686064 20.3479661301894  C 39.040522686064 20.3479661301894  40.6431815281113 23.3533867422846  40.6431815281113 23.3533867422846  C 40.6431815281113 23.3533867422846  47.9697840726196 24.1551008197741  47.9697840726196 24.1551008197741  C 47.9697840726196 24.1551008197741  50.6018136176668 26.604558905771  50.6018136176668 26.604558905771  C 50.6018136176668 26.604558905771  53.5345009423031 31.2365570672803  53.5345009423031 31.2365570672803  C 53.5345009423031 31.2365570672803  59.0023958151697 31.2849016347669  59.0023958151697 31.2849016347669  C 59.0023958151697 31.2849016347669  58.406176150561 23.6172675064834  58.406176150561 23.6172675064834  C 58.406176150561 23.6172675064834  56.4442567413776 24.6607044214066  56.4442567413776 24.6607044214066  C 56.4442567413776 24.6607044214066  51.4502800634563 22.4287968891  51.4502800634563 22.4287968891  C 51.4502800634563 22.4287968891  49.5214839689734 21.4075179009417  49.5214839689734 21.4075179009417  C 49.5214839689734 21.4075179009417  50.4056216767485 15.6645861549074  50.4056216767485 15.6645861549074  C 50.4056216767485 15.6645861549074  51.6744994245058 8.9144759195651  51.6744994245058 8.9144759195651  C 51.6744994245058 8.9144759195651  50.0743885297436 6.40458712420951  50.0743885297436 6.40458712420951  C 50.0743885297436 6.40458712420951  52.1101984101817 2.78075891967912  52.1101984101817 2.78075891967912  C 52.1101984101817 2.78075891967912  54.0262547682411 2.10192061788559  54.0262547682411 2.10192061788559  C 54.0262547682411 2.10192061788559  63.6218242422471 1.14510105304306  63.6218242422471 1.14510105304306  C 63.6218242422471 1.14510105304306  66.4347580445045 1.72120714892716  66.4347580445045 1.72120714892716  C 66.4347580445045 1.72120714892716  69.4209522621187 3.16550110259491  69.4209522621187 3.16550110259491  C 69.4209522621187 3.16550110259491  72.2670093790768 4.11627759650156  72.2670093790768 4.11627759650156  C 72.2670093790768 4.11627759650156  76.8074514403299 5.07108280436558  76.8074514403299 5.07108280436558  Z " fill-rule="nonzero" fill="#f2f2f2" stroke="none" transform="matrix(1 0 0 1 1995 4386 )" />
    <path d="M 76.8074514403299 5.07108280436558  C 76.8074514403299 5.07108280436558  80.8612355702137 6.77925752223207  80.8612355702137 6.77925752223207  C 80.8612355702137 6.77925752223207  84.234717775095 9.31533295830965  84.234717775095 9.31533295830965  C 84.234717775095 9.31533295830965  86.0514041890533 14.1538184209454  86.0514041890533 14.1538184209454  C 86.0514041890533 14.1538184209454  84.8334853869889 15.7008445805226  84.8334853869889 15.7008445805226  C 84.8334853869889 15.7008445805226  83.3989910657288 20.3378943452965  83.3989910657288 20.3378943452965  C 83.3989910657288 20.3378943452965  84.7697867048725 25.093791171809  84.7697867048725 25.093791171809  C 84.7697867048725 25.093791171809  82.5224971998076 27.0940476515747  82.5224971998076 27.0940476515747  C 82.5224971998076 27.0940476515747  80.3541940605676 33.9136374918611  80.3541940605676 33.9136374918611  C 80.3541940605676 33.9136374918611  84.1098683581471 35.4123190839513  84.1098683581471 35.4123190839513  C 84.1098683581471 35.4123190839513  62.4319328603135 40.1863451232714  62.4319328603135 40.1863451232714  C 62.4319328603135 40.1863451232714  63.1096868380316 44.3258487143272  63.1096868380316 44.3258487143272  C 63.1096868380316 44.3258487143272  57.6978468054272 45.1235340778592  57.6978468054272 45.1235340778592  C 57.6978468054272 45.1235340778592  53.6287749918353 47.448102031182  53.6287749918353 47.448102031182  C 53.6287749918353 47.448102031182  52.7599249677683 49.4745451516698  52.7599249677683 49.4745451516698  C 52.7599249677683 49.4745451516698  50.2043338412607 49.9338185427942  50.2043338412607 49.9338185427942  C 50.2043338412607 49.9338185427942  42.1388265842029 54.7582035065797  42.1388265842029 54.7582035065797  C 42.1388265842029 54.7582035065797  38.1844123984204 58.5713812670999  38.1844123984204 58.5713812670999  C 38.1844123984204 58.5713812670999  35.7715063198534 58.7083575416457  35.7715063198534 58.7083575416457  C 35.7715063198534 58.7083575416457  33.450326343534 58.0275048828736  33.450326343534 58.0275048828736  C 33.450326343534 58.0275048828736  25.4650595534293 57.3829106497161  25.4650595534293 57.3829106497161  C 25.4650595534293 57.3829106497161  24.180894121964 56.9417664713993  24.180894121964 56.9417664713993  C 24.180894121964 56.9417664713993  24.1273872289863 56.4542920825741  24.1273872289863 56.4542920825741  C 24.1273872289863 56.4542920825741  21.3068095848745 55.1268308336664  21.3068095848745 55.1268308336664  C 21.3068095848745 55.1268308336664  16.6771893686588 54.7884188612587  16.6771893686588 54.7884188612587  C 16.6771893686588 54.7884188612587  10.827102403094 56.12595189506  10.827102403094 56.12595189506  C 10.827102403094 56.12595189506  6.1643588721777 52.4537791230427  6.1643588721777 52.4537791230427  C 6.1643588721777 52.4537791230427  1.34364260961319 47.6656525848727  1.34364260961319 47.6656525848727  C 1.34364260961319 47.6656525848727  1.67232780933319 27.7547567405606  1.67232780933319 27.7547567405606  C 1.67232780933319 27.7547567405606  16.5497920044262 27.8272735917907  16.5497920044262 27.8272735917907  C 16.5497920044262 27.8272735917907  15.9408326033938 25.8411176108756  15.9408326033938 25.8411176108756  C 15.9408326033938 25.8411176108756  17.005874568379 23.6897843577135  17.005874568379 23.6897843577135  C 17.005874568379 23.6897843577135  15.7497365570449 20.9986034342825  15.7497365570449 20.9986034342825  C 15.7497365570449 20.9986034342825  16.5625317408494 18.2208051607711  16.5625317408494 18.2208051607711  C 16.5625317408494 18.2208051607711  15.8057913973071 16.4461566626104  15.8057913973071 16.4461566626104  C 15.8057913973071 16.4461566626104  18.272204368852 16.5891760080921  18.272204368852 16.5891760080921  C 18.272204368852 16.5891760080921  18.6798759343967 18.3678532202101  18.6798759343967 18.3678532202101  C 18.6798759343967 18.3678532202101  22.0278786664315 18.2288625886855  22.0278786664315 18.2288625886855  C 22.0278786664315 18.2288625886855  26.563224833115 18.756624117083  26.563224833115 18.756624117083  C 26.563224833115 18.756624117083  28.9506514388355 21.3571589764763  28.9506514388355 21.3571589764763  C 28.9506514388355 21.3571589764763  34.6733410401674 22.1568586969868  34.6733410401674 22.1568586969868  C 34.6733410401674 22.1568586969868  39.040522686064 20.3479661301894  39.040522686064 20.3479661301894  C 39.040522686064 20.3479661301894  40.6431815281113 23.3533867422846  40.6431815281113 23.3533867422846  C 40.6431815281113 23.3533867422846  47.9697840726196 24.1551008197741  47.9697840726196 24.1551008197741  C 47.9697840726196 24.1551008197741  50.6018136176668 26.604558905771  50.6018136176668 26.604558905771  C 50.6018136176668 26.604558905771  53.5345009423031 31.2365570672803  53.5345009423031 31.2365570672803  C 53.5345009423031 31.2365570672803  59.0023958151697 31.2849016347669  59.0023958151697 31.2849016347669  C 59.0023958151697 31.2849016347669  58.406176150561 23.6172675064834  58.406176150561 23.6172675064834  C 58.406176150561 23.6172675064834  56.4442567413776 24.6607044214066  56.4442567413776 24.6607044214066  C 56.4442567413776 24.6607044214066  51.4502800634563 22.4287968891  51.4502800634563 22.4287968891  C 51.4502800634563 22.4287968891  49.5214839689734 21.4075179009417  49.5214839689734 21.4075179009417  C 49.5214839689734 21.4075179009417  50.4056216767485 15.6645861549074  50.4056216767485 15.6645861549074  C 50.4056216767485 15.6645861549074  51.6744994245058 8.9144759195651  51.6744994245058 8.9144759195651  C 51.6744994245058 8.9144759195651  50.0743885297436 6.40458712420951  50.0743885297436 6.40458712420951  C 50.0743885297436 6.40458712420951  52.1101984101817 2.78075891967912  52.1101984101817 2.78075891967912  C 52.1101984101817 2.78075891967912  54.0262547682411 2.10192061788559  54.0262547682411 2.10192061788559  C 54.0262547682411 2.10192061788559  63.6218242422471 1.14510105304306  63.6218242422471 1.14510105304306  C 63.6218242422471 1.14510105304306  66.4347580445045 1.72120714892716  66.4347580445045 1.72120714892716  C 66.4347580445045 1.72120714892716  69.4209522621187 3.16550110259491  69.4209522621187 3.16550110259491  C 69.4209522621187 3.16550110259491  72.2670093790768 4.11627759650156  72.2670093790768 4.11627759650156  C 72.2670093790768 4.11627759650156  76.8074514403299 5.07108280436558  76.8074514403299 5.07108280436558  Z " stroke-width="2" stroke="#505050" fill="none" stroke-opacity="0.211764705882353" transform="matrix(1 0 0 1 1995 4386 )" mask="url(#clip248)" />
  </g>
</svg>