<?xml version="1.0" encoding="utf-8"?>
<svg version="1.1" xmlns:xlink="http://www.w3.org/1999/xlink" width="24px" height="20px" xmlns="http://www.w3.org/2000/svg">
  <defs>
    <mask fill="white" id="clip36">
      <path d="M 2.05327629924166 3.72115073640941  C 2.05327629924166 3.72115073640941  0.84367042863666 1.16286941268665  0.84367042863666 1.16286941268665  C 0.84367042863666 1.16286941268665  10.7441420082123 0.0243260718445981  10.7441420082123 0.0243260718445981  C 10.7441420082123 0.0243260718445981  14.0667265493699 1.93959587146488  14.0667265493699 1.93959587146488  C 14.0667265493699 1.93959587146488  16.7807161918201 3.19808937429546  16.7807161918201 3.19808937429546  C 16.7807161918201 3.19808937429546  15.3474857064812 5.01503936900714  15.3474857064812 5.01503936900714  C 15.3474857064812 5.01503936900714  19.1414805905434 7.48876566050845  19.1414805905434 7.48876566050845  C 19.1414805905434 7.48876566050845  17.1339414355471 11.2022893551566  17.1339414355471 11.2022893551566  C 17.1339414355471 11.2022893551566  20.1579561120605 13.1450887001514  20.1579561120605 13.1450887001514  C 20.1579561120605 13.1450887001514  23.3573128160353 14.3111615863679  23.3573128160353 14.3111615863679  C 23.3573128160353 14.3111615863679  23.5148665218702 19.2192862474072  23.5148665218702 19.2192862474072  C 23.5148665218702 19.2192862474072  20.9355598860212 19.4277242338135  20.9355598860212 19.4277242338135  C 20.9355598860212 19.4277242338135  18.0258987056785 15.337620349614  18.0258987056785 15.337620349614  C 18.0258987056785 15.337620349614  18.0589341601278 14.2423377229319  18.0589341601278 14.2423377229319  C 18.0589341601278 14.2423377229319  14.9104012322287 14.2580688917172  14.9104012322287 14.2580688917172  C 14.9104012322287 14.2580688917172  10.9550606789271 12.344765488195  10.9550606789271 12.344765488195  C 10.9550606789271 12.344765488195  9.47354760631606 12.5394387019141  9.47354760631606 12.5394387019141  C 9.47354760631606 12.5394387019141  6.66553397812528 10.4491596495564  6.66553397812528 10.4491596495564  C 6.66553397812528 10.4491596495564  1.36715532221779 7.23510056384417  1.36715532221779 7.23510056384417  C 1.36715532221779 7.23510056384417  2.05327629924166 3.72115073640941  2.05327629924166 3.72115073640941  Z " fill-rule="evenodd" />
    </mask>
  </defs>
  <g transform="matrix(1 0 0 1 -2148 -4091 )">
    <path d="M 2.05327629924166 3.72115073640941  C 2.05327629924166 3.72115073640941  0.84367042863666 1.16286941268665  0.84367042863666 1.16286941268665  C 0.84367042863666 1.16286941268665  10.7441420082123 0.0243260718445981  10.7441420082123 0.0243260718445981  C 10.7441420082123 0.0243260718445981  14.0667265493699 1.93959587146488  14.0667265493699 1.93959587146488  C 14.0667265493699 1.93959587146488  16.7807161918201 3.19808937429546  16.7807161918201 3.19808937429546  C 16.7807161918201 3.19808937429546  15.3474857064812 5.01503936900714  15.3474857064812 5.01503936900714  C 15.3474857064812 5.01503936900714  19.1414805905434 7.48876566050845  19.1414805905434 7.48876566050845  C 19.1414805905434 7.48876566050845  17.1339414355471 11.2022893551566  17.1339414355471 11.2022893551566  C 17.1339414355471 11.2022893551566  20.1579561120605 13.1450887001514  20.1579561120605 13.1450887001514  C 20.1579561120605 13.1450887001514  23.3573128160353 14.3111615863679  23.3573128160353 14.3111615863679  C 23.3573128160353 14.3111615863679  23.5148665218702 19.2192862474072  23.5148665218702 19.2192862474072  C 23.5148665218702 19.2192862474072  20.9355598860212 19.4277242338135  20.9355598860212 19.4277242338135  C 20.9355598860212 19.4277242338135  18.0258987056785 15.337620349614  18.0258987056785 15.337620349614  C 18.0258987056785 15.337620349614  18.0589341601278 14.2423377229319  18.0589341601278 14.2423377229319  C 18.0589341601278 14.2423377229319  14.9104012322287 14.2580688917172  14.9104012322287 14.2580688917172  C 14.9104012322287 14.2580688917172  10.9550606789271 12.344765488195  10.9550606789271 12.344765488195  C 10.9550606789271 12.344765488195  9.47354760631606 12.5394387019141  9.47354760631606 12.5394387019141  C 9.47354760631606 12.5394387019141  6.66553397812528 10.4491596495564  6.66553397812528 10.4491596495564  C 6.66553397812528 10.4491596495564  1.36715532221779 7.23510056384417  1.36715532221779 7.23510056384417  C 1.36715532221779 7.23510056384417  2.05327629924166 3.72115073640941  2.05327629924166 3.72115073640941  Z " fill-rule="nonzero" fill="#f2f2f2" stroke="none" transform="matrix(1 0 0 1 2148 4091 )" />
    <path d="M 2.05327629924166 3.72115073640941  C 2.05327629924166 3.72115073640941  0.84367042863666 1.16286941268665  0.84367042863666 1.16286941268665  C 0.84367042863666 1.16286941268665  10.7441420082123 0.0243260718445981  10.7441420082123 0.0243260718445981  C 10.7441420082123 0.0243260718445981  14.0667265493699 1.93959587146488  14.0667265493699 1.93959587146488  C 14.0667265493699 1.93959587146488  16.7807161918201 3.19808937429546  16.7807161918201 3.19808937429546  C 16.7807161918201 3.19808937429546  15.3474857064812 5.01503936900714  15.3474857064812 5.01503936900714  C 15.3474857064812 5.01503936900714  19.1414805905434 7.48876566050845  19.1414805905434 7.48876566050845  C 19.1414805905434 7.48876566050845  17.1339414355471 11.2022893551566  17.1339414355471 11.2022893551566  C 17.1339414355471 11.2022893551566  20.1579561120605 13.1450887001514  20.1579561120605 13.1450887001514  C 20.1579561120605 13.1450887001514  23.3573128160353 14.3111615863679  23.3573128160353 14.3111615863679  C 23.3573128160353 14.3111615863679  23.5148665218702 19.2192862474072  23.5148665218702 19.2192862474072  C 23.5148665218702 19.2192862474072  20.9355598860212 19.4277242338135  20.9355598860212 19.4277242338135  C 20.9355598860212 19.4277242338135  18.0258987056785 15.337620349614  18.0258987056785 15.337620349614  C 18.0258987056785 15.337620349614  18.0589341601278 14.2423377229319  18.0589341601278 14.2423377229319  C 18.0589341601278 14.2423377229319  14.9104012322287 14.2580688917172  14.9104012322287 14.2580688917172  C 14.9104012322287 14.2580688917172  10.9550606789271 12.344765488195  10.9550606789271 12.344765488195  C 10.9550606789271 12.344765488195  9.47354760631606 12.5394387019141  9.47354760631606 12.5394387019141  C 9.47354760631606 12.5394387019141  6.66553397812528 10.4491596495564  6.66553397812528 10.4491596495564  C 6.66553397812528 10.4491596495564  1.36715532221779 7.23510056384417  1.36715532221779 7.23510056384417  C 1.36715532221779 7.23510056384417  2.05327629924166 3.72115073640941  2.05327629924166 3.72115073640941  Z " stroke-width="2" stroke="#505050" fill="none" stroke-opacity="0.211764705882353" transform="matrix(1 0 0 1 2148 4091 )" mask="url(#clip36)" />
  </g>
</svg>