<?xml version="1.0" encoding="utf-8"?>
<svg version="1.1" xmlns:xlink="http://www.w3.org/1999/xlink" width="59px" height="42px" xmlns="http://www.w3.org/2000/svg">
  <defs>
    <mask fill="white" id="clip249">
      <path d="M 52.9133678373799 34.7065406931752  C 52.9133678373799 34.7065406931752  45.4164704231204 41.4944722173057  45.4164704231204 41.4944722173057  C 45.4164704231204 41.4944722173057  41.6350292764563 40.8944230576101  41.6350292764563 40.8944230576101  C 41.6350292764563 40.8944230576101  39.2367327102832 41.6160768642871  39.2367327102832 41.6160768642871  C 39.2367327102832 41.6160768642871  35.7928295988581 40.5973887559667  35.7928295988581 40.5973887559667  C 35.7928295988581 40.5973887559667  32.8971085597009 40.5335961542715  32.8971085597009 40.5335961542715  C 32.8971085597009 40.5335961542715  26.5181670636678 37.8263976198315  26.5181670636678 37.8263976198315  C 26.5181670636678 37.8263976198315  21.0160433012729 36.9093789704627  21.0160433012729 36.9093789704627  C 21.0160433012729 36.9093789704627  18.9222923308044 33.1316608388246  18.9222923308044 33.1316608388246  C 18.9222923308044 33.1316608388246  18.904527171055 31.0364725768978  18.904527171055 31.0364725768978  C 18.904527171055 31.0364725768978  15.8565333340457 30.398546559946  15.8565333340457 30.398546559946  C 15.8565333340457 30.398546559946  7.80384020762553 23.9096428562618  7.80384020762553 23.9096428562618  C 7.80384020762553 23.9096428562618  5.5654300791973 19.0604239163167  5.5654300791973 19.0604239163167  C 5.5654300791973 19.0604239163167  4.13406577938612 18.013826544755  4.13406577938612 18.013826544755  C 4.13406577938612 18.013826544755  1.39569329800986 13.3410184705811  1.39569329800986 13.3410184705811  C 1.39569329800986 13.3410184705811  9.34940910582609 13.9789444875332  9.34940910582609 13.9789444875332  C 9.34940910582609 13.9789444875332  11.661417753216 14.6527538429387  11.661417753216 14.6527538429387  C 11.661417753216 14.6527538429387  14.0647900793174 14.5171945643364  14.0647900793174 14.5171945643364  C 14.0647900793174 14.5171945643364  18.0035797837624 10.7434634703044  18.0035797837624 10.7434634703044  C 18.0035797837624 10.7434634703044  24.1934690164565 5.96898593717905  24.1934690164565 5.96898593717905  C 24.1934690164565 5.96898593717905  26.7389626205535 5.51446365010077  26.7389626205535 5.51446365010077  C 26.7389626205535 5.51446365010077  27.6043796883472 3.50898373430775  27.6043796883472 3.50898373430775  C 27.6043796883472 3.50898373430775  33.5011239911816 1.20846303567448  33.5011239911816 1.20846303567448  C 33.5011239911816 1.20846303567448  38.8915810351514 0.419029589696179  38.8915810351514 0.419029589696179  C 38.8915810351514 0.419029589696179  39.3509373086722 2.57202989690933  39.3509373086722 2.57202989690933  C 39.3509373086722 2.57202989690933  45.2870385449461 2.4564058063368  45.2870385449461 2.4564058063368  C 45.2870385449461 2.4564058063368  48.5837446184475 3.67643931375759  48.5837446184475 3.67643931375759  C 48.5837446184475 3.67643931375759  50.1191619967909 5.10778581429373  50.1191619967909 5.10778581429373  C 50.1191619967909 5.10778581429373  53.5046938690396 5.52841828172154  53.5046938690396 5.52841828172154  C 53.5046938690396 5.52841828172154  57.2023849768849 7.3903648437005  57.2023849768849 7.3903648437005  C 57.2023849768849 7.3903648437005  57.2176122566706 14.7564168206936  57.2176122566706 14.7564168206936  C 57.2176122566706 14.7564168206936  55.8319297962148 18.813227584748  55.8319297962148 18.813227584748  C 55.8319297962148 18.813227584748  55.524846320546 24.6532253697714  55.524846320546 24.6532253697714  C 55.524846320546 24.6532253697714  56.6694301844022 26.3995478411778  56.6694301844022 26.3995478411778  C 56.6694301844022 26.3995478411778  55.8649222357494 29.8802316711725  55.8649222357494 29.8802316711725  C 55.8649222357494 29.8802316711725  54.788861130927 30.4204752667786  54.788861130927 30.4204752667786  C 54.788861130927 30.4204752667786  52.9133678373799 34.7065406931752  52.9133678373799 34.7065406931752  Z " fill-rule="evenodd" />
    </mask>
  </defs>
  <g transform="matrix(1 0 0 1 -2017 -4428 )">
    <path d="M 52.9133678373799 34.7065406931752  C 52.9133678373799 34.7065406931752  45.4164704231204 41.4944722173057  45.4164704231204 41.4944722173057  C 45.4164704231204 41.4944722173057  41.6350292764563 40.8944230576101  41.6350292764563 40.8944230576101  C 41.6350292764563 40.8944230576101  39.2367327102832 41.6160768642871  39.2367327102832 41.6160768642871  C 39.2367327102832 41.6160768642871  35.7928295988581 40.5973887559667  35.7928295988581 40.5973887559667  C 35.7928295988581 40.5973887559667  32.8971085597009 40.5335961542715  32.8971085597009 40.5335961542715  C 32.8971085597009 40.5335961542715  26.5181670636678 37.8263976198315  26.5181670636678 37.8263976198315  C 26.5181670636678 37.8263976198315  21.0160433012729 36.9093789704627  21.0160433012729 36.9093789704627  C 21.0160433012729 36.9093789704627  18.9222923308044 33.1316608388246  18.9222923308044 33.1316608388246  C 18.9222923308044 33.1316608388246  18.904527171055 31.0364725768978  18.904527171055 31.0364725768978  C 18.904527171055 31.0364725768978  15.8565333340457 30.398546559946  15.8565333340457 30.398546559946  C 15.8565333340457 30.398546559946  7.80384020762553 23.9096428562618  7.80384020762553 23.9096428562618  C 7.80384020762553 23.9096428562618  5.5654300791973 19.0604239163167  5.5654300791973 19.0604239163167  C 5.5654300791973 19.0604239163167  4.13406577938612 18.013826544755  4.13406577938612 18.013826544755  C 4.13406577938612 18.013826544755  1.39569329800986 13.3410184705811  1.39569329800986 13.3410184705811  C 1.39569329800986 13.3410184705811  9.34940910582609 13.9789444875332  9.34940910582609 13.9789444875332  C 9.34940910582609 13.9789444875332  11.661417753216 14.6527538429387  11.661417753216 14.6527538429387  C 11.661417753216 14.6527538429387  14.0647900793174 14.5171945643364  14.0647900793174 14.5171945643364  C 14.0647900793174 14.5171945643364  18.0035797837624 10.7434634703044  18.0035797837624 10.7434634703044  C 18.0035797837624 10.7434634703044  24.1934690164565 5.96898593717905  24.1934690164565 5.96898593717905  C 24.1934690164565 5.96898593717905  26.7389626205535 5.51446365010077  26.7389626205535 5.51446365010077  C 26.7389626205535 5.51446365010077  27.6043796883472 3.50898373430775  27.6043796883472 3.50898373430775  C 27.6043796883472 3.50898373430775  33.5011239911816 1.20846303567448  33.5011239911816 1.20846303567448  C 33.5011239911816 1.20846303567448  38.8915810351514 0.419029589696179  38.8915810351514 0.419029589696179  C 38.8915810351514 0.419029589696179  39.3509373086722 2.57202989690933  39.3509373086722 2.57202989690933  C 39.3509373086722 2.57202989690933  45.2870385449461 2.4564058063368  45.2870385449461 2.4564058063368  C 45.2870385449461 2.4564058063368  48.5837446184475 3.67643931375759  48.5837446184475 3.67643931375759  C 48.5837446184475 3.67643931375759  50.1191619967909 5.10778581429373  50.1191619967909 5.10778581429373  C 50.1191619967909 5.10778581429373  53.5046938690396 5.52841828172154  53.5046938690396 5.52841828172154  C 53.5046938690396 5.52841828172154  57.2023849768849 7.3903648437005  57.2023849768849 7.3903648437005  C 57.2023849768849 7.3903648437005  57.2176122566706 14.7564168206936  57.2176122566706 14.7564168206936  C 57.2176122566706 14.7564168206936  55.8319297962148 18.813227584748  55.8319297962148 18.813227584748  C 55.8319297962148 18.813227584748  55.524846320546 24.6532253697714  55.524846320546 24.6532253697714  C 55.524846320546 24.6532253697714  56.6694301844022 26.3995478411778  56.6694301844022 26.3995478411778  C 56.6694301844022 26.3995478411778  55.8649222357494 29.8802316711725  55.8649222357494 29.8802316711725  C 55.8649222357494 29.8802316711725  54.788861130927 30.4204752667786  54.788861130927 30.4204752667786  C 54.788861130927 30.4204752667786  52.9133678373799 34.7065406931752  52.9133678373799 34.7065406931752  Z " fill-rule="nonzero" fill="#f2f2f2" stroke="none" transform="matrix(1 0 0 1 2017 4428 )" />
    <path d="M 52.9133678373799 34.7065406931752  C 52.9133678373799 34.7065406931752  45.4164704231204 41.4944722173057  45.4164704231204 41.4944722173057  C 45.4164704231204 41.4944722173057  41.6350292764563 40.8944230576101  41.6350292764563 40.8944230576101  C 41.6350292764563 40.8944230576101  39.2367327102832 41.6160768642871  39.2367327102832 41.6160768642871  C 39.2367327102832 41.6160768642871  35.7928295988581 40.5973887559667  35.7928295988581 40.5973887559667  C 35.7928295988581 40.5973887559667  32.8971085597009 40.5335961542715  32.8971085597009 40.5335961542715  C 32.8971085597009 40.5335961542715  26.5181670636678 37.8263976198315  26.5181670636678 37.8263976198315  C 26.5181670636678 37.8263976198315  21.0160433012729 36.9093789704627  21.0160433012729 36.9093789704627  C 21.0160433012729 36.9093789704627  18.9222923308044 33.1316608388246  18.9222923308044 33.1316608388246  C 18.9222923308044 33.1316608388246  18.904527171055 31.0364725768978  18.904527171055 31.0364725768978  C 18.904527171055 31.0364725768978  15.8565333340457 30.398546559946  15.8565333340457 30.398546559946  C 15.8565333340457 30.398546559946  7.80384020762553 23.9096428562618  7.80384020762553 23.9096428562618  C 7.80384020762553 23.9096428562618  5.5654300791973 19.0604239163167  5.5654300791973 19.0604239163167  C 5.5654300791973 19.0604239163167  4.13406577938612 18.013826544755  4.13406577938612 18.013826544755  C 4.13406577938612 18.013826544755  1.39569329800986 13.3410184705811  1.39569329800986 13.3410184705811  C 1.39569329800986 13.3410184705811  9.34940910582609 13.9789444875332  9.34940910582609 13.9789444875332  C 9.34940910582609 13.9789444875332  11.661417753216 14.6527538429387  11.661417753216 14.6527538429387  C 11.661417753216 14.6527538429387  14.0647900793174 14.5171945643364  14.0647900793174 14.5171945643364  C 14.0647900793174 14.5171945643364  18.0035797837624 10.7434634703044  18.0035797837624 10.7434634703044  C 18.0035797837624 10.7434634703044  24.1934690164565 5.96898593717905  24.1934690164565 5.96898593717905  C 24.1934690164565 5.96898593717905  26.7389626205535 5.51446365010077  26.7389626205535 5.51446365010077  C 26.7389626205535 5.51446365010077  27.6043796883472 3.50898373430775  27.6043796883472 3.50898373430775  C 27.6043796883472 3.50898373430775  33.5011239911816 1.20846303567448  33.5011239911816 1.20846303567448  C 33.5011239911816 1.20846303567448  38.8915810351514 0.419029589696179  38.8915810351514 0.419029589696179  C 38.8915810351514 0.419029589696179  39.3509373086722 2.57202989690933  39.3509373086722 2.57202989690933  C 39.3509373086722 2.57202989690933  45.2870385449461 2.4564058063368  45.2870385449461 2.4564058063368  C 45.2870385449461 2.4564058063368  48.5837446184475 3.67643931375759  48.5837446184475 3.67643931375759  C 48.5837446184475 3.67643931375759  50.1191619967909 5.10778581429373  50.1191619967909 5.10778581429373  C 50.1191619967909 5.10778581429373  53.5046938690396 5.52841828172154  53.5046938690396 5.52841828172154  C 53.5046938690396 5.52841828172154  57.2023849768849 7.3903648437005  57.2023849768849 7.3903648437005  C 57.2023849768849 7.3903648437005  57.2176122566706 14.7564168206936  57.2176122566706 14.7564168206936  C 57.2176122566706 14.7564168206936  55.8319297962148 18.813227584748  55.8319297962148 18.813227584748  C 55.8319297962148 18.813227584748  55.524846320546 24.6532253697714  55.524846320546 24.6532253697714  C 55.524846320546 24.6532253697714  56.6694301844022 26.3995478411778  56.6694301844022 26.3995478411778  C 56.6694301844022 26.3995478411778  55.8649222357494 29.8802316711725  55.8649222357494 29.8802316711725  C 55.8649222357494 29.8802316711725  54.788861130927 30.4204752667786  54.788861130927 30.4204752667786  C 54.788861130927 30.4204752667786  52.9133678373799 34.7065406931752  52.9133678373799 34.7065406931752  Z " stroke-width="2" stroke="#505050" fill="none" stroke-opacity="0.211764705882353" transform="matrix(1 0 0 1 2017 4428 )" mask="url(#clip249)" />
  </g>
</svg>