<?xml version="1.0" encoding="utf-8"?>
<svg version="1.1" xmlns:xlink="http://www.w3.org/1999/xlink" width="60px" height="29px" xmlns="http://www.w3.org/2000/svg">
  <defs>
    <mask fill="white" id="clip250">
      <path d="M 50.6320651699306 17.7689495354877  C 50.6320651699306 17.7689495354877  58.8133455180196 18.3856801757384  58.8133455180196 18.3856801757384  C 58.8133455180196 18.3856801757384  58.2702626683605 21.0921097814974  58.2702626683605 21.0921097814974  C 58.2702626683605 21.0921097814974  59.193753781375 25.0659308324312  59.193753781375 25.0659308324312  C 59.193753781375 25.0659308324312  58.3903915936307 27.5308575013934  58.3903915936307 27.5308575013934  C 58.3903915936307 27.5308575013934  52.5466199164244 27.6346438874549  52.5466199164244 27.6346438874549  C 52.5466199164244 27.6346438874549  44.1050602302502 26.1836303746327  44.1050602302502 26.1836303746327  C 44.1050602302502 26.1836303746327  38.6817397914898 25.5928463308978  38.6817397914898 25.5928463308978  C 38.6817397914898 25.5928463308978  34.6348966214501 22.4133903117424  34.6348966214501 22.4133903117424  C 34.6348966214501 22.4133903117424  23.1988927238234 21.6030581436466  23.1988927238234 21.6030581436466  C 23.1988927238234 21.6030581436466  14.0465702298008 18.0763169095931  14.0465702298008 18.0763169095931  C 14.0465702298008 18.0763169095931  7.42946859616743 14.9786924640636  7.42946859616743 14.9786924640636  C 7.42946859616743 14.9786924640636  0.632173574628971 11.12963023241  0.632173574628971 11.12963023241  C 0.632173574628971 11.12963023241  3.3550958807539 5.1599171418305  3.3550958807539 5.1599171418305  C 3.3550958807539 5.1599171418305  7.80987685952327 2.24391887190861  7.80987685952327 2.24391887190861  C 7.80987685952327 2.24391887190861  10.7179979254393 0.701094325262829  10.7179979254393 0.701094325262829  C 10.7179979254393 0.701094325262829  16.344035925593 2.6830151206307  16.344035925593 2.6830151206307  C 16.344035925593 2.6830151206307  23.4291398305913 6.86241305164792  23.4291398305913 6.86241305164792  C 23.4291398305913 6.86241305164792  27.3708701910197 7.78052338988493  27.3708701910197 7.78052338988493  C 27.3708701910197 7.78052338988493  31.546582167629 10.8402258866611  31.546582167629 10.8402258866611  C 31.546582167629 10.8402258866611  36.997432151764 12.0936460875587  36.997432151764 12.0936460875587  C 36.997432151764 12.0936460875587  42.6935453583255 16.321927806745  42.6935453583255 16.321927806745  C 42.6935453583255 16.321927806745  50.6320651699306 17.7689495354877  50.6320651699306 17.7689495354877  Z " fill-rule="evenodd" />
    </mask>
  </defs>
  <g transform="matrix(1 0 0 1 -2408 -4165 )">
    <path d="M 50.6320651699306 17.7689495354877  C 50.6320651699306 17.7689495354877  58.8133455180196 18.3856801757384  58.8133455180196 18.3856801757384  C 58.8133455180196 18.3856801757384  58.2702626683605 21.0921097814974  58.2702626683605 21.0921097814974  C 58.2702626683605 21.0921097814974  59.193753781375 25.0659308324312  59.193753781375 25.0659308324312  C 59.193753781375 25.0659308324312  58.3903915936307 27.5308575013934  58.3903915936307 27.5308575013934  C 58.3903915936307 27.5308575013934  52.5466199164244 27.6346438874549  52.5466199164244 27.6346438874549  C 52.5466199164244 27.6346438874549  44.1050602302502 26.1836303746327  44.1050602302502 26.1836303746327  C 44.1050602302502 26.1836303746327  38.6817397914898 25.5928463308978  38.6817397914898 25.5928463308978  C 38.6817397914898 25.5928463308978  34.6348966214501 22.4133903117424  34.6348966214501 22.4133903117424  C 34.6348966214501 22.4133903117424  23.1988927238234 21.6030581436466  23.1988927238234 21.6030581436466  C 23.1988927238234 21.6030581436466  14.0465702298008 18.0763169095931  14.0465702298008 18.0763169095931  C 14.0465702298008 18.0763169095931  7.42946859616743 14.9786924640636  7.42946859616743 14.9786924640636  C 7.42946859616743 14.9786924640636  0.632173574628971 11.12963023241  0.632173574628971 11.12963023241  C 0.632173574628971 11.12963023241  3.3550958807539 5.1599171418305  3.3550958807539 5.1599171418305  C 3.3550958807539 5.1599171418305  7.80987685952327 2.24391887190861  7.80987685952327 2.24391887190861  C 7.80987685952327 2.24391887190861  10.7179979254393 0.701094325262829  10.7179979254393 0.701094325262829  C 10.7179979254393 0.701094325262829  16.344035925593 2.6830151206307  16.344035925593 2.6830151206307  C 16.344035925593 2.6830151206307  23.4291398305913 6.86241305164792  23.4291398305913 6.86241305164792  C 23.4291398305913 6.86241305164792  27.3708701910197 7.78052338988493  27.3708701910197 7.78052338988493  C 27.3708701910197 7.78052338988493  31.546582167629 10.8402258866611  31.546582167629 10.8402258866611  C 31.546582167629 10.8402258866611  36.997432151764 12.0936460875587  36.997432151764 12.0936460875587  C 36.997432151764 12.0936460875587  42.6935453583255 16.321927806745  42.6935453583255 16.321927806745  C 42.6935453583255 16.321927806745  50.6320651699306 17.7689495354877  50.6320651699306 17.7689495354877  Z " fill-rule="nonzero" fill="#f2f2f2" stroke="none" transform="matrix(1 0 0 1 2408 4165 )" />
    <path d="M 50.6320651699306 17.7689495354877  C 50.6320651699306 17.7689495354877  58.8133455180196 18.3856801757384  58.8133455180196 18.3856801757384  C 58.8133455180196 18.3856801757384  58.2702626683605 21.0921097814974  58.2702626683605 21.0921097814974  C 58.2702626683605 21.0921097814974  59.193753781375 25.0659308324312  59.193753781375 25.0659308324312  C 59.193753781375 25.0659308324312  58.3903915936307 27.5308575013934  58.3903915936307 27.5308575013934  C 58.3903915936307 27.5308575013934  52.5466199164244 27.6346438874549  52.5466199164244 27.6346438874549  C 52.5466199164244 27.6346438874549  44.1050602302502 26.1836303746327  44.1050602302502 26.1836303746327  C 44.1050602302502 26.1836303746327  38.6817397914898 25.5928463308978  38.6817397914898 25.5928463308978  C 38.6817397914898 25.5928463308978  34.6348966214501 22.4133903117424  34.6348966214501 22.4133903117424  C 34.6348966214501 22.4133903117424  23.1988927238234 21.6030581436466  23.1988927238234 21.6030581436466  C 23.1988927238234 21.6030581436466  14.0465702298008 18.0763169095931  14.0465702298008 18.0763169095931  C 14.0465702298008 18.0763169095931  7.42946859616743 14.9786924640636  7.42946859616743 14.9786924640636  C 7.42946859616743 14.9786924640636  0.632173574628971 11.12963023241  0.632173574628971 11.12963023241  C 0.632173574628971 11.12963023241  3.3550958807539 5.1599171418305  3.3550958807539 5.1599171418305  C 3.3550958807539 5.1599171418305  7.80987685952327 2.24391887190861  7.80987685952327 2.24391887190861  C 7.80987685952327 2.24391887190861  10.7179979254393 0.701094325262829  10.7179979254393 0.701094325262829  C 10.7179979254393 0.701094325262829  16.344035925593 2.6830151206307  16.344035925593 2.6830151206307  C 16.344035925593 2.6830151206307  23.4291398305913 6.86241305164792  23.4291398305913 6.86241305164792  C 23.4291398305913 6.86241305164792  27.3708701910197 7.78052338988493  27.3708701910197 7.78052338988493  C 27.3708701910197 7.78052338988493  31.546582167629 10.8402258866611  31.546582167629 10.8402258866611  C 31.546582167629 10.8402258866611  36.997432151764 12.0936460875587  36.997432151764 12.0936460875587  C 36.997432151764 12.0936460875587  42.6935453583255 16.321927806745  42.6935453583255 16.321927806745  C 42.6935453583255 16.321927806745  50.6320651699306 17.7689495354877  50.6320651699306 17.7689495354877  Z " stroke-width="2" stroke="#505050" fill="none" stroke-opacity="0.211764705882353" transform="matrix(1 0 0 1 2408 4165 )" mask="url(#clip250)" />
  </g>
</svg>