<?xml version="1.0" encoding="utf-8"?>
<svg version="1.1" xmlns:xlink="http://www.w3.org/1999/xlink" width="17px" height="14px" xmlns="http://www.w3.org/2000/svg">
  <defs>
    <mask fill="white" id="clip251">
      <path d="M 6.31949072213336 2.52394368728104  C 6.31949072213336 2.52394368728104  12.5634007473369 0.682522985570055  12.5634007473369 0.682522985570055  C 12.5634007473369 0.682522985570055  15.4598148045632 4.05060992021148  15.4598148045632 4.05060992021148  C 15.4598148045632 4.05060992021148  15.0386127603346 9.11557074333026  15.0386127603346 9.11557074333026  C 15.0386127603346 9.11557074333026  12.9352025518102 9.87140970577674  12.9352025518102 9.87140970577674  C 12.9352025518102 9.87140970577674  9.06118374995452 9.48171369681025  9.06118374995452 9.48171369681025  C 9.06118374995452 9.48171369681025  4.93888402160614 12.8797772475259  4.93888402160614 12.8797772475259  C 4.93888402160614 12.8797772475259  0.513662544587141 12.4108573246481  0.513662544587141 12.4108573246481  C 0.513662544587141 12.4108573246481  1.18706581282903 9.14554735940485  1.18706581282903 9.14554735940485  C 1.18706581282903 9.14554735940485  2.1880706710268 8.68519218397675  2.1880706710268 8.68519218397675  C 2.1880706710268 8.68519218397675  2.45847198337111 3.5795488104713  2.45847198337111 3.5795488104713  C 2.45847198337111 3.5795488104713  4.55408215403913 1.91584661834375  4.55408215403913 1.91584661834375  C 4.55408215403913 1.91584661834375  6.31949072213336 2.52394368728104  6.31949072213336 2.52394368728104  Z " fill-rule="evenodd" />
    </mask>
  </defs>
  <g transform="matrix(1 0 0 1 -2046 -4349 )">
    <path d="M 6.31949072213336 2.52394368728104  C 6.31949072213336 2.52394368728104  12.5634007473369 0.682522985570055  12.5634007473369 0.682522985570055  C 12.5634007473369 0.682522985570055  15.4598148045632 4.05060992021148  15.4598148045632 4.05060992021148  C 15.4598148045632 4.05060992021148  15.0386127603346 9.11557074333026  15.0386127603346 9.11557074333026  C 15.0386127603346 9.11557074333026  12.9352025518102 9.87140970577674  12.9352025518102 9.87140970577674  C 12.9352025518102 9.87140970577674  9.06118374995452 9.48171369681025  9.06118374995452 9.48171369681025  C 9.06118374995452 9.48171369681025  4.93888402160614 12.8797772475259  4.93888402160614 12.8797772475259  C 4.93888402160614 12.8797772475259  0.513662544587141 12.4108573246481  0.513662544587141 12.4108573246481  C 0.513662544587141 12.4108573246481  1.18706581282903 9.14554735940485  1.18706581282903 9.14554735940485  C 1.18706581282903 9.14554735940485  2.1880706710268 8.68519218397675  2.1880706710268 8.68519218397675  C 2.1880706710268 8.68519218397675  2.45847198337111 3.5795488104713  2.45847198337111 3.5795488104713  C 2.45847198337111 3.5795488104713  4.55408215403913 1.91584661834375  4.55408215403913 1.91584661834375  C 4.55408215403913 1.91584661834375  6.31949072213336 2.52394368728104  6.31949072213336 2.52394368728104  Z " fill-rule="nonzero" fill="#f2f2f2" stroke="none" transform="matrix(1 0 0 1 2046 4349 )" />
    <path d="M 6.31949072213336 2.52394368728104  C 6.31949072213336 2.52394368728104  12.5634007473369 0.682522985570055  12.5634007473369 0.682522985570055  C 12.5634007473369 0.682522985570055  15.4598148045632 4.05060992021148  15.4598148045632 4.05060992021148  C 15.4598148045632 4.05060992021148  15.0386127603346 9.11557074333026  15.0386127603346 9.11557074333026  C 15.0386127603346 9.11557074333026  12.9352025518102 9.87140970577674  12.9352025518102 9.87140970577674  C 12.9352025518102 9.87140970577674  9.06118374995452 9.48171369681025  9.06118374995452 9.48171369681025  C 9.06118374995452 9.48171369681025  4.93888402160614 12.8797772475259  4.93888402160614 12.8797772475259  C 4.93888402160614 12.8797772475259  0.513662544587141 12.4108573246481  0.513662544587141 12.4108573246481  C 0.513662544587141 12.4108573246481  1.18706581282903 9.14554735940485  1.18706581282903 9.14554735940485  C 1.18706581282903 9.14554735940485  2.1880706710268 8.68519218397675  2.1880706710268 8.68519218397675  C 2.1880706710268 8.68519218397675  2.45847198337111 3.5795488104713  2.45847198337111 3.5795488104713  C 2.45847198337111 3.5795488104713  4.55408215403913 1.91584661834375  4.55408215403913 1.91584661834375  C 4.55408215403913 1.91584661834375  6.31949072213336 2.52394368728104  6.31949072213336 2.52394368728104  Z " stroke-width="2" stroke="#505050" fill="none" stroke-opacity="0.211764705882353" transform="matrix(1 0 0 1 2046 4349 )" mask="url(#clip251)" />
  </g>
</svg>