<?xml version="1.0" encoding="utf-8"?>
<svg version="1.1" xmlns:xlink="http://www.w3.org/1999/xlink" width="296px" height="125px" xmlns="http://www.w3.org/2000/svg">
  <defs>
    <mask fill="white" id="clip252">
      <path d="M 179.433022251727 109.892161833118  C 179.433022251727 109.892161833118  177.833830960927 113.175139226906  177.833830960927 113.175139226906  C 177.833830960927 113.175139226906  173.739086381936 114.553594192853  173.739086381936 114.553594192853  C 173.739086381936 114.553594192853  164.322192443435 119.713406253331  164.322192443435 119.713406253331  C 164.322192443435 119.713406253331  161.197657867302 124.952326202816  161.197657867302 124.952326202816  C 161.197657867302 124.952326202816  158.539129670495 124.999790936221  158.539129670495 124.999790936221  C 158.539129670495 124.999790936221  156.580884284149 121.536843094941  156.580884284149 121.536843094941  C 156.580884284149 121.536843094941  145.652672577617 121.29951942792  145.652672577617 121.29951942792  C 145.652672577617 121.29951942792  144.198630814803 115.249743616114  144.198630814803 115.249743616114  C 144.198630814803 115.249743616114  140.720135109019 115.198323488259  140.720135109019 115.198323488259  C 140.720135109019 115.198323488259  141.25235004497 107.681096335374  141.25235004497 107.681096335374  C 141.25235004497 107.681096335374  132.706353274388 102.129700224311  132.706353274388 102.129700224311  C 132.706353274388 102.129700224311  120.460316781623 102.726964786313  120.460316781623 102.726964786313  C 120.460316781623 102.726964786313  112.087480851447 103.836452929636  112.087480851447 103.836452929636  C 112.087480851447 103.836452929636  105.267999519022 96.9184680359781  105.267999519022 96.9184680359781  C 105.267999519022 96.9184680359781  99.426367638298 93.9835653538202  99.426367638298 93.9835653538202  C 99.426367638298 93.9835653538202  88.3593527500545 88.3728383260022  88.3593527500545 88.3728383260022  C 88.3593527500545 88.3728383260022  87.0249956857562 87.6885550860921  87.0249956857562 87.6885550860921  C 87.0249956857562 87.6885550860921  68.6444817733447 92.330210473575  68.6444817733447 92.330210473575  C 68.6444817733447 92.330210473575  68.9271413804767 120.269139173605  68.9271413804767 120.269139173605  C 68.9271413804767 120.269139173605  65.2627524195513 120.629080068587  65.2627524195513 120.629080068587  C 65.2627524195513 120.629080068587  60.2665528772746 114.830471804377  60.2665528772746 114.830471804377  C 60.2665528772746 114.830471804377  55.4409676924564 112.742023534593  55.4409676924564 112.742023534593  C 55.4409676924564 112.742023534593  47.3355124717299 114.294515856355  47.3355124717299 114.294515856355  C 47.3355124717299 114.294515856355  44.180420100231 116.766637387822  44.180420100231 116.766637387822  C 44.180420100231 116.766637387822  43.7806222775306 114.957044426788  43.7806222775306 114.957044426788  C 43.7806222775306 114.957044426788  45.5351490281062 111.84612669159  45.5351490281062 111.84612669159  C 45.5351490281062 111.84612669159  44.1727806513896 109.23161095991  44.1727806513896 109.23161095991  C 44.1727806513896 109.23161095991  35.8992575561521 106.658626869959  35.8992575561521 106.658626869959  C 35.8992575561521 106.658626869959  32.6754101450804 99.8078836819569  32.6754101450804 99.8078836819569  C 32.6754101450804 99.8078836819569  28.7334545429174 97.8598519151609  28.7334545429174 97.8598519151609  C 28.7334545429174 97.8598519151609  28.496631628834 95.3363102558391  28.496631628834 95.3363102558391  C 28.496631628834 95.3363102558391  35.4408906256677 96.0739913208289  35.4408906256677 96.0739913208289  C 35.4408906256677 96.0739913208289  35.7159107839586 90.372290220653  35.7159107839586 90.372290220653  C 35.7159107839586 90.372290220653  41.7867261299255 89.0946978131907  41.7867261299255 89.0946978131907  C 41.7867261299255 89.0946978131907  48.0256093504029 90.2694499649439  48.0256093504029 90.2694499649439  C 48.0256093504029 90.2694499649439  49.3115832387056 82.54258690619  49.3115832387056 82.54258690619  C 49.3115832387056 82.54258690619  48.0383417651387 77.5706560821031  48.0383417651387 77.5706560821031  C 48.0383417651387 77.5706560821031  40.8929106154813 77.9622401326875  40.8929106154813 77.9622401326875  C 40.8929106154813 77.9622401326875  34.8220952695145 75.9865206047389  34.8220952695145 75.9865206047389  C 34.8220952695145 75.9865206047389  26.5562116231184 79.5404425183761  26.5562116231184 79.5404425183761  C 26.5562116231184 79.5404425183761  19.8946122334163 81.223462856999  19.8946122334163 81.223462856999  C 19.8946122334163 81.223462856999  16.2684205166976 79.926093477285  16.2684205166976 79.926093477285  C 16.2684205166976 79.926093477285  16.9941681566308 75.7689739099698  16.9941681566308 75.7689739099698  C 16.9941681566308 75.7689739099698  12.4436031301031 70.3105295684902  12.4436031301031 70.3105295684902  C 12.4436031301031 70.3105295684902  7.14437211711754 70.5399424466103  7.14437211711754 70.5399424466103  C 7.14437211711754 70.5399424466103  1.08374270293915 64.9292154187924  1.08374270293915 64.9292154187924  C 1.08374270293915 64.9292154187924  5.20395211140155 57.1341372306632  5.20395211140155 57.1341372306632  C 5.20395211140155 57.1341372306632  3.11838257769928 55.4056298558614  3.11838257769928 55.4056298558614  C 3.11838257769928 55.4056298558614  8.81741141338481 45.9720140917825  8.81741141338481 45.9720140917825  C 8.81741141338481 45.9720140917825  16.1589217499711 50.9795434659225  16.1589217499711 50.9795434659225  C 16.1589217499711 50.9795434659225  17.0476442985208 44.6647562259427  17.0476442985208 44.6647562259427  C 17.0476442985208 44.6647562259427  31.7866875965311 35.074902381075  31.7866875965311 35.074902381075  C 31.7866875965311 35.074902381075  42.9402829049769 34.8435118057297  42.9402829049769 34.8435118057297  C 42.9402829049769 34.8435118057297  58.6775475182635 40.9783285982187  58.6775475182635 40.9783285982187  C 58.6775475182635 40.9783285982187  67.1318709027475 44.5203843285049  67.1318709027475 44.5203843285049  C 67.1318709027475 44.5203843285049  74.7076576704706 40.8260459118803  74.7076576704706 40.8260459118803  C 74.7076576704706 40.8260459118803  86.0267743704799 40.6500308588399  86.0267743704799 40.6500308588399  C 86.0267743704799 40.6500308588399  95.1584622189014 45.1829128989382  95.1584622189014 45.1829128989382  C 95.1584622189014 45.1829128989382  97.2338458208157 42.5921295339605  97.2338458208157 42.5921295339605  C 97.2338458208157 42.5921295339605  107.261895666628 42.9698697039687  107.261895666628 42.9698697039687  C 107.261895666628 42.9698697039687  109.052073178463 38.8048393477527  109.052073178463 38.8048393477527  C 109.052073178463 38.8048393477527  97.4808546666876 32.6799110413896  97.4808546666876 32.6799110413896  C 97.4808546666876 32.6799110413896  104.333440277424 28.2834901098283  104.333440277424 28.2834901098283  C 104.333440277424 28.2834901098283  102.996536730179 25.8034577894603  102.996536730179 25.8034577894603  C 102.996536730179 25.8034577894603  109.851668823863 23.4223103303511  109.851668823863 23.4223103303511  C 109.851668823863 23.4223103303511  104.697587338864 17.0778576319936  104.697587338864 17.0778576319936  C 104.697587338864 17.0778576319936  107.969817925931 13.8779435216625  107.969817925931 13.8779435216625  C 107.969817925931 13.8779435216625  134.687517007259 10.5890330361985  134.687517007259 10.5890330361985  C 134.687517007259 10.5890330361985  138.173652161885 8.2355733382417  138.173652161885 8.2355733382417  C 138.173652161885 8.2355733382417  157.889776518975 4.69351760795548  157.889776518975 4.69351760795548  C 157.889776518975 4.69351760795548  164.3094600287 0.674836846402281  164.3094600287 0.674836846402281  C 164.3094600287 0.674836846402281  177.141187599306 2.76724051063622  177.141187599306 2.76724051063622  C 177.141187599306 2.76724051063622  179.389732041626 12.6794590032072  179.389732041626 12.6794590032072  C 179.389732041626 12.6794590032072  186.843287627886 10.3754417358797  186.843287627886 10.3754417358797  C 186.843287627886 10.3754417358797  196.013172720515 13.6010659101381  196.013172720515 13.6010659101381  C 196.013172720515 13.6010659101381  195.42238867678 18.709457842762  195.42238867678 18.709457842762  C 195.42238867678 18.709457842762  202.269881321623 18.1794349864154  202.269881321623 18.1794349864154  C 202.269881321623 18.1794349864154  220.164016991131 9.29166365648452  220.164016991131 9.29166365648452  C 220.164016991131 9.29166365648452  217.551325487372 12.2661202831459  217.551325487372 12.2661202831459  C 217.551325487372 12.2661202831459  226.662641472217 19.5025144300567  226.662641472217 19.5025144300567  C 226.662641472217 19.5025144300567  242.61635713601 42.3963375086683  242.61635713601 42.3963375086683  C 242.61635713601 42.3963375086683  246.420802659027 37.7823698823379  246.420802659027 37.7823698823379  C 246.420802659027 37.7823698823379  256.257866283805 42.8551632649086  256.257866283805 42.8551632649086  C 256.257866283805 42.8551632649086  266.517646077807 40.6005884282106  266.517646077807 40.6005884282106  C 266.517646077807 40.6005884282106  270.45960167997 42.1807685111243  270.45960167997 42.1807685111243  C 270.45960167997 42.1807685111243  273.894807175654 47.2159856464168  273.894807175654 47.2159856464168  C 273.894807175654 47.2159856464168  278.885913752036 48.8930728933642  278.885913752036 48.8930728933642  C 278.885913752036 48.8930728933642  281.926414390913 52.5379688793595  281.926414390913 52.5379688793595  C 281.926414390913 52.5379688793595  291.124310795961 51.3928821859838  291.124310795961 51.3928821859838  C 291.124310795961 51.3928821859838  294.910930938349 56.6021366770916  294.910930938349 56.6021366770916  C 294.910930938349 56.6021366770916  289.476736329165 63.6377791307538  289.476736329165 63.6377791307538  C 289.476736329165 63.6377791307538  283.545977545291 64.4169918374723  283.545977545291 64.4169918374723  C 283.545977545291 64.4169918374723  283.207295313322 72.6956324220497  283.207295313322 72.6956324220497  C 283.207295313322 72.6956324220497  279.234781915793 76.3741492608729  279.234781915793 76.3741492608729  C 279.234781915793 76.3741492608729  265.071243763835 73.6983249152128  265.071243763835 73.6983249152128  C 265.071243763835 73.6983249152128  259.919708761784 88.0603621644247  259.919708761784 88.0603621644247  C 259.919708761784 88.0603621644247  256.265505732647 89.8126019059287  256.265505732647 89.8126019059287  C 256.265505732647 89.8126019059287  242.119792961319 92.9413189161536  242.119792961319 92.9413189161536  C 242.119792961319 92.9413189161536  248.547115919884 106.298685974977  248.547115919884 106.298685974977  C 248.547115919884 106.298685974977  243.647682729599 108.266494714025  243.647682729599 108.266494714025  C 243.647682729599 108.266494714025  244.218094909757 112.548209206526  244.218094909757 112.548209206526  C 244.218094909757 112.548209206526  239.820318860057 111.450587246555  239.820318860057 111.450587246555  C 239.820318860057 111.450587246555  236.23741735344 108.751030534193  236.23741735344 108.751030534193  C 236.23741735344 108.751030534193  225.644048293363 107.961929341349  225.644048293363 107.961929341349  C 225.644048293363 107.961929341349  213.805449072139 107.754271132705  213.805449072139 107.754271132705  C 213.805449072139 107.754271132705  211.210582949009 108.586881664503  211.210582949009 108.586881664503  C 211.210582949009 108.586881664503  201.042476541104 105.404766829199  201.042476541104 105.404766829199  C 201.042476541104 105.404766829199  196.988475689267 106.975058425987  196.988475689267 106.975058425987  C 196.988475689267 106.975058425987  195.880755607264 111.418944090952  195.880755607264 111.418944090952  C 195.880755607264 111.418944090952  184.131283289189 108.8301384232  184.131283289189 108.8301384232  C 184.131283289189 108.8301384232  179.433022251727 109.892161833118  179.433022251727 109.892161833118  Z " fill-rule="evenodd" />
    </mask>
  </defs>
  <g transform="matrix(1 0 0 1 -2168 -3972 )">
    <path d="M 179.433022251727 109.892161833118  C 179.433022251727 109.892161833118  177.833830960927 113.175139226906  177.833830960927 113.175139226906  C 177.833830960927 113.175139226906  173.739086381936 114.553594192853  173.739086381936 114.553594192853  C 173.739086381936 114.553594192853  164.322192443435 119.713406253331  164.322192443435 119.713406253331  C 164.322192443435 119.713406253331  161.197657867302 124.952326202816  161.197657867302 124.952326202816  C 161.197657867302 124.952326202816  158.539129670495 124.999790936221  158.539129670495 124.999790936221  C 158.539129670495 124.999790936221  156.580884284149 121.536843094941  156.580884284149 121.536843094941  C 156.580884284149 121.536843094941  145.652672577617 121.29951942792  145.652672577617 121.29951942792  C 145.652672577617 121.29951942792  144.198630814803 115.249743616114  144.198630814803 115.249743616114  C 144.198630814803 115.249743616114  140.720135109019 115.198323488259  140.720135109019 115.198323488259  C 140.720135109019 115.198323488259  141.25235004497 107.681096335374  141.25235004497 107.681096335374  C 141.25235004497 107.681096335374  132.706353274388 102.129700224311  132.706353274388 102.129700224311  C 132.706353274388 102.129700224311  120.460316781623 102.726964786313  120.460316781623 102.726964786313  C 120.460316781623 102.726964786313  112.087480851447 103.836452929636  112.087480851447 103.836452929636  C 112.087480851447 103.836452929636  105.267999519022 96.9184680359781  105.267999519022 96.9184680359781  C 105.267999519022 96.9184680359781  99.426367638298 93.9835653538202  99.426367638298 93.9835653538202  C 99.426367638298 93.9835653538202  88.3593527500545 88.3728383260022  88.3593527500545 88.3728383260022  C 88.3593527500545 88.3728383260022  87.0249956857562 87.6885550860921  87.0249956857562 87.6885550860921  C 87.0249956857562 87.6885550860921  68.6444817733447 92.330210473575  68.6444817733447 92.330210473575  C 68.6444817733447 92.330210473575  68.9271413804767 120.269139173605  68.9271413804767 120.269139173605  C 68.9271413804767 120.269139173605  65.2627524195513 120.629080068587  65.2627524195513 120.629080068587  C 65.2627524195513 120.629080068587  60.2665528772746 114.830471804377  60.2665528772746 114.830471804377  C 60.2665528772746 114.830471804377  55.4409676924564 112.742023534593  55.4409676924564 112.742023534593  C 55.4409676924564 112.742023534593  47.3355124717299 114.294515856355  47.3355124717299 114.294515856355  C 47.3355124717299 114.294515856355  44.180420100231 116.766637387822  44.180420100231 116.766637387822  C 44.180420100231 116.766637387822  43.7806222775306 114.957044426788  43.7806222775306 114.957044426788  C 43.7806222775306 114.957044426788  45.5351490281062 111.84612669159  45.5351490281062 111.84612669159  C 45.5351490281062 111.84612669159  44.1727806513896 109.23161095991  44.1727806513896 109.23161095991  C 44.1727806513896 109.23161095991  35.8992575561521 106.658626869959  35.8992575561521 106.658626869959  C 35.8992575561521 106.658626869959  32.6754101450804 99.8078836819569  32.6754101450804 99.8078836819569  C 32.6754101450804 99.8078836819569  28.7334545429174 97.8598519151609  28.7334545429174 97.8598519151609  C 28.7334545429174 97.8598519151609  28.496631628834 95.3363102558391  28.496631628834 95.3363102558391  C 28.496631628834 95.3363102558391  35.4408906256677 96.0739913208289  35.4408906256677 96.0739913208289  C 35.4408906256677 96.0739913208289  35.7159107839586 90.372290220653  35.7159107839586 90.372290220653  C 35.7159107839586 90.372290220653  41.7867261299255 89.0946978131907  41.7867261299255 89.0946978131907  C 41.7867261299255 89.0946978131907  48.0256093504029 90.2694499649439  48.0256093504029 90.2694499649439  C 48.0256093504029 90.2694499649439  49.3115832387056 82.54258690619  49.3115832387056 82.54258690619  C 49.3115832387056 82.54258690619  48.0383417651387 77.5706560821031  48.0383417651387 77.5706560821031  C 48.0383417651387 77.5706560821031  40.8929106154813 77.9622401326875  40.8929106154813 77.9622401326875  C 40.8929106154813 77.9622401326875  34.8220952695145 75.9865206047389  34.8220952695145 75.9865206047389  C 34.8220952695145 75.9865206047389  26.5562116231184 79.5404425183761  26.5562116231184 79.5404425183761  C 26.5562116231184 79.5404425183761  19.8946122334163 81.223462856999  19.8946122334163 81.223462856999  C 19.8946122334163 81.223462856999  16.2684205166976 79.926093477285  16.2684205166976 79.926093477285  C 16.2684205166976 79.926093477285  16.9941681566308 75.7689739099698  16.9941681566308 75.7689739099698  C 16.9941681566308 75.7689739099698  12.4436031301031 70.3105295684902  12.4436031301031 70.3105295684902  C 12.4436031301031 70.3105295684902  7.14437211711754 70.5399424466103  7.14437211711754 70.5399424466103  C 7.14437211711754 70.5399424466103  1.08374270293915 64.9292154187924  1.08374270293915 64.9292154187924  C 1.08374270293915 64.9292154187924  5.20395211140155 57.1341372306632  5.20395211140155 57.1341372306632  C 5.20395211140155 57.1341372306632  3.11838257769928 55.4056298558614  3.11838257769928 55.4056298558614  C 3.11838257769928 55.4056298558614  8.81741141338481 45.9720140917825  8.81741141338481 45.9720140917825  C 8.81741141338481 45.9720140917825  16.1589217499711 50.9795434659225  16.1589217499711 50.9795434659225  C 16.1589217499711 50.9795434659225  17.0476442985208 44.6647562259427  17.0476442985208 44.6647562259427  C 17.0476442985208 44.6647562259427  31.7866875965311 35.074902381075  31.7866875965311 35.074902381075  C 31.7866875965311 35.074902381075  42.9402829049769 34.8435118057297  42.9402829049769 34.8435118057297  C 42.9402829049769 34.8435118057297  58.6775475182635 40.9783285982187  58.6775475182635 40.9783285982187  C 58.6775475182635 40.9783285982187  67.1318709027475 44.5203843285049  67.1318709027475 44.5203843285049  C 67.1318709027475 44.5203843285049  74.7076576704706 40.8260459118803  74.7076576704706 40.8260459118803  C 74.7076576704706 40.8260459118803  86.0267743704799 40.6500308588399  86.0267743704799 40.6500308588399  C 86.0267743704799 40.6500308588399  95.1584622189014 45.1829128989382  95.1584622189014 45.1829128989382  C 95.1584622189014 45.1829128989382  97.2338458208157 42.5921295339605  97.2338458208157 42.5921295339605  C 97.2338458208157 42.5921295339605  107.261895666628 42.9698697039687  107.261895666628 42.9698697039687  C 107.261895666628 42.9698697039687  109.052073178463 38.8048393477527  109.052073178463 38.8048393477527  C 109.052073178463 38.8048393477527  97.4808546666876 32.6799110413896  97.4808546666876 32.6799110413896  C 97.4808546666876 32.6799110413896  104.333440277424 28.2834901098283  104.333440277424 28.2834901098283  C 104.333440277424 28.2834901098283  102.996536730179 25.8034577894603  102.996536730179 25.8034577894603  C 102.996536730179 25.8034577894603  109.851668823863 23.4223103303511  109.851668823863 23.4223103303511  C 109.851668823863 23.4223103303511  104.697587338864 17.0778576319936  104.697587338864 17.0778576319936  C 104.697587338864 17.0778576319936  107.969817925931 13.8779435216625  107.969817925931 13.8779435216625  C 107.969817925931 13.8779435216625  134.687517007259 10.5890330361985  134.687517007259 10.5890330361985  C 134.687517007259 10.5890330361985  138.173652161885 8.2355733382417  138.173652161885 8.2355733382417  C 138.173652161885 8.2355733382417  157.889776518975 4.69351760795548  157.889776518975 4.69351760795548  C 157.889776518975 4.69351760795548  164.3094600287 0.674836846402281  164.3094600287 0.674836846402281  C 164.3094600287 0.674836846402281  177.141187599306 2.76724051063622  177.141187599306 2.76724051063622  C 177.141187599306 2.76724051063622  179.389732041626 12.6794590032072  179.389732041626 12.6794590032072  C 179.389732041626 12.6794590032072  186.843287627886 10.3754417358797  186.843287627886 10.3754417358797  C 186.843287627886 10.3754417358797  196.013172720515 13.6010659101381  196.013172720515 13.6010659101381  C 196.013172720515 13.6010659101381  195.42238867678 18.709457842762  195.42238867678 18.709457842762  C 195.42238867678 18.709457842762  202.269881321623 18.1794349864154  202.269881321623 18.1794349864154  C 202.269881321623 18.1794349864154  220.164016991131 9.29166365648452  220.164016991131 9.29166365648452  C 220.164016991131 9.29166365648452  217.551325487372 12.2661202831459  217.551325487372 12.2661202831459  C 217.551325487372 12.2661202831459  226.662641472217 19.5025144300567  226.662641472217 19.5025144300567  C 226.662641472217 19.5025144300567  242.61635713601 42.3963375086683  242.61635713601 42.3963375086683  C 242.61635713601 42.3963375086683  246.420802659027 37.7823698823379  246.420802659027 37.7823698823379  C 246.420802659027 37.7823698823379  256.257866283805 42.8551632649086  256.257866283805 42.8551632649086  C 256.257866283805 42.8551632649086  266.517646077807 40.6005884282106  266.517646077807 40.6005884282106  C 266.517646077807 40.6005884282106  270.45960167997 42.1807685111243  270.45960167997 42.1807685111243  C 270.45960167997 42.1807685111243  273.894807175654 47.2159856464168  273.894807175654 47.2159856464168  C 273.894807175654 47.2159856464168  278.885913752036 48.8930728933642  278.885913752036 48.8930728933642  C 278.885913752036 48.8930728933642  281.926414390913 52.5379688793595  281.926414390913 52.5379688793595  C 281.926414390913 52.5379688793595  291.124310795961 51.3928821859838  291.124310795961 51.3928821859838  C 291.124310795961 51.3928821859838  294.910930938349 56.6021366770916  294.910930938349 56.6021366770916  C 294.910930938349 56.6021366770916  289.476736329165 63.6377791307538  289.476736329165 63.6377791307538  C 289.476736329165 63.6377791307538  283.545977545291 64.4169918374723  283.545977545291 64.4169918374723  C 283.545977545291 64.4169918374723  283.207295313322 72.6956324220497  283.207295313322 72.6956324220497  C 283.207295313322 72.6956324220497  279.234781915793 76.3741492608729  279.234781915793 76.3741492608729  C 279.234781915793 76.3741492608729  265.071243763835 73.6983249152128  265.071243763835 73.6983249152128  C 265.071243763835 73.6983249152128  259.919708761784 88.0603621644247  259.919708761784 88.0603621644247  C 259.919708761784 88.0603621644247  256.265505732647 89.8126019059287  256.265505732647 89.8126019059287  C 256.265505732647 89.8126019059287  242.119792961319 92.9413189161536  242.119792961319 92.9413189161536  C 242.119792961319 92.9413189161536  248.547115919884 106.298685974977  248.547115919884 106.298685974977  C 248.547115919884 106.298685974977  243.647682729599 108.266494714025  243.647682729599 108.266494714025  C 243.647682729599 108.266494714025  244.218094909757 112.548209206526  244.218094909757 112.548209206526  C 244.218094909757 112.548209206526  239.820318860057 111.450587246555  239.820318860057 111.450587246555  C 239.820318860057 111.450587246555  236.23741735344 108.751030534193  236.23741735344 108.751030534193  C 236.23741735344 108.751030534193  225.644048293363 107.961929341349  225.644048293363 107.961929341349  C 225.644048293363 107.961929341349  213.805449072139 107.754271132705  213.805449072139 107.754271132705  C 213.805449072139 107.754271132705  211.210582949009 108.586881664503  211.210582949009 108.586881664503  C 211.210582949009 108.586881664503  201.042476541104 105.404766829199  201.042476541104 105.404766829199  C 201.042476541104 105.404766829199  196.988475689267 106.975058425987  196.988475689267 106.975058425987  C 196.988475689267 106.975058425987  195.880755607264 111.418944090952  195.880755607264 111.418944090952  C 195.880755607264 111.418944090952  184.131283289189 108.8301384232  184.131283289189 108.8301384232  C 184.131283289189 108.8301384232  179.433022251727 109.892161833118  179.433022251727 109.892161833118  Z " fill-rule="nonzero" fill="#f2f2f2" stroke="none" transform="matrix(1 0 0 1 2168 3972 )" />
    <path d="M 179.433022251727 109.892161833118  C 179.433022251727 109.892161833118  177.833830960927 113.175139226906  177.833830960927 113.175139226906  C 177.833830960927 113.175139226906  173.739086381936 114.553594192853  173.739086381936 114.553594192853  C 173.739086381936 114.553594192853  164.322192443435 119.713406253331  164.322192443435 119.713406253331  C 164.322192443435 119.713406253331  161.197657867302 124.952326202816  161.197657867302 124.952326202816  C 161.197657867302 124.952326202816  158.539129670495 124.999790936221  158.539129670495 124.999790936221  C 158.539129670495 124.999790936221  156.580884284149 121.536843094941  156.580884284149 121.536843094941  C 156.580884284149 121.536843094941  145.652672577617 121.29951942792  145.652672577617 121.29951942792  C 145.652672577617 121.29951942792  144.198630814803 115.249743616114  144.198630814803 115.249743616114  C 144.198630814803 115.249743616114  140.720135109019 115.198323488259  140.720135109019 115.198323488259  C 140.720135109019 115.198323488259  141.25235004497 107.681096335374  141.25235004497 107.681096335374  C 141.25235004497 107.681096335374  132.706353274388 102.129700224311  132.706353274388 102.129700224311  C 132.706353274388 102.129700224311  120.460316781623 102.726964786313  120.460316781623 102.726964786313  C 120.460316781623 102.726964786313  112.087480851447 103.836452929636  112.087480851447 103.836452929636  C 112.087480851447 103.836452929636  105.267999519022 96.9184680359781  105.267999519022 96.9184680359781  C 105.267999519022 96.9184680359781  99.426367638298 93.9835653538202  99.426367638298 93.9835653538202  C 99.426367638298 93.9835653538202  88.3593527500545 88.3728383260022  88.3593527500545 88.3728383260022  C 88.3593527500545 88.3728383260022  87.0249956857562 87.6885550860921  87.0249956857562 87.6885550860921  C 87.0249956857562 87.6885550860921  68.6444817733447 92.330210473575  68.6444817733447 92.330210473575  C 68.6444817733447 92.330210473575  68.9271413804767 120.269139173605  68.9271413804767 120.269139173605  C 68.9271413804767 120.269139173605  65.2627524195513 120.629080068587  65.2627524195513 120.629080068587  C 65.2627524195513 120.629080068587  60.2665528772746 114.830471804377  60.2665528772746 114.830471804377  C 60.2665528772746 114.830471804377  55.4409676924564 112.742023534593  55.4409676924564 112.742023534593  C 55.4409676924564 112.742023534593  47.3355124717299 114.294515856355  47.3355124717299 114.294515856355  C 47.3355124717299 114.294515856355  44.180420100231 116.766637387822  44.180420100231 116.766637387822  C 44.180420100231 116.766637387822  43.7806222775306 114.957044426788  43.7806222775306 114.957044426788  C 43.7806222775306 114.957044426788  45.5351490281062 111.84612669159  45.5351490281062 111.84612669159  C 45.5351490281062 111.84612669159  44.1727806513896 109.23161095991  44.1727806513896 109.23161095991  C 44.1727806513896 109.23161095991  35.8992575561521 106.658626869959  35.8992575561521 106.658626869959  C 35.8992575561521 106.658626869959  32.6754101450804 99.8078836819569  32.6754101450804 99.8078836819569  C 32.6754101450804 99.8078836819569  28.7334545429174 97.8598519151609  28.7334545429174 97.8598519151609  C 28.7334545429174 97.8598519151609  28.496631628834 95.3363102558391  28.496631628834 95.3363102558391  C 28.496631628834 95.3363102558391  35.4408906256677 96.0739913208289  35.4408906256677 96.0739913208289  C 35.4408906256677 96.0739913208289  35.7159107839586 90.372290220653  35.7159107839586 90.372290220653  C 35.7159107839586 90.372290220653  41.7867261299255 89.0946978131907  41.7867261299255 89.0946978131907  C 41.7867261299255 89.0946978131907  48.0256093504029 90.2694499649439  48.0256093504029 90.2694499649439  C 48.0256093504029 90.2694499649439  49.3115832387056 82.54258690619  49.3115832387056 82.54258690619  C 49.3115832387056 82.54258690619  48.0383417651387 77.5706560821031  48.0383417651387 77.5706560821031  C 48.0383417651387 77.5706560821031  40.8929106154813 77.9622401326875  40.8929106154813 77.9622401326875  C 40.8929106154813 77.9622401326875  34.8220952695145 75.9865206047389  34.8220952695145 75.9865206047389  C 34.8220952695145 75.9865206047389  26.5562116231184 79.5404425183761  26.5562116231184 79.5404425183761  C 26.5562116231184 79.5404425183761  19.8946122334163 81.223462856999  19.8946122334163 81.223462856999  C 19.8946122334163 81.223462856999  16.2684205166976 79.926093477285  16.2684205166976 79.926093477285  C 16.2684205166976 79.926093477285  16.9941681566308 75.7689739099698  16.9941681566308 75.7689739099698  C 16.9941681566308 75.7689739099698  12.4436031301031 70.3105295684902  12.4436031301031 70.3105295684902  C 12.4436031301031 70.3105295684902  7.14437211711754 70.5399424466103  7.14437211711754 70.5399424466103  C 7.14437211711754 70.5399424466103  1.08374270293915 64.9292154187924  1.08374270293915 64.9292154187924  C 1.08374270293915 64.9292154187924  5.20395211140155 57.1341372306632  5.20395211140155 57.1341372306632  C 5.20395211140155 57.1341372306632  3.11838257769928 55.4056298558614  3.11838257769928 55.4056298558614  C 3.11838257769928 55.4056298558614  8.81741141338481 45.9720140917825  8.81741141338481 45.9720140917825  C 8.81741141338481 45.9720140917825  16.1589217499711 50.9795434659225  16.1589217499711 50.9795434659225  C 16.1589217499711 50.9795434659225  17.0476442985208 44.6647562259427  17.0476442985208 44.6647562259427  C 17.0476442985208 44.6647562259427  31.7866875965311 35.074902381075  31.7866875965311 35.074902381075  C 31.7866875965311 35.074902381075  42.9402829049769 34.8435118057297  42.9402829049769 34.8435118057297  C 42.9402829049769 34.8435118057297  58.6775475182635 40.9783285982187  58.6775475182635 40.9783285982187  C 58.6775475182635 40.9783285982187  67.1318709027475 44.5203843285049  67.1318709027475 44.5203843285049  C 67.1318709027475 44.5203843285049  74.7076576704706 40.8260459118803  74.7076576704706 40.8260459118803  C 74.7076576704706 40.8260459118803  86.0267743704799 40.6500308588399  86.0267743704799 40.6500308588399  C 86.0267743704799 40.6500308588399  95.1584622189014 45.1829128989382  95.1584622189014 45.1829128989382  C 95.1584622189014 45.1829128989382  97.2338458208157 42.5921295339605  97.2338458208157 42.5921295339605  C 97.2338458208157 42.5921295339605  107.261895666628 42.9698697039687  107.261895666628 42.9698697039687  C 107.261895666628 42.9698697039687  109.052073178463 38.8048393477527  109.052073178463 38.8048393477527  C 109.052073178463 38.8048393477527  97.4808546666876 32.6799110413896  97.4808546666876 32.6799110413896  C 97.4808546666876 32.6799110413896  104.333440277424 28.2834901098283  104.333440277424 28.2834901098283  C 104.333440277424 28.2834901098283  102.996536730179 25.8034577894603  102.996536730179 25.8034577894603  C 102.996536730179 25.8034577894603  109.851668823863 23.4223103303511  109.851668823863 23.4223103303511  C 109.851668823863 23.4223103303511  104.697587338864 17.0778576319936  104.697587338864 17.0778576319936  C 104.697587338864 17.0778576319936  107.969817925931 13.8779435216625  107.969817925931 13.8779435216625  C 107.969817925931 13.8779435216625  134.687517007259 10.5890330361985  134.687517007259 10.5890330361985  C 134.687517007259 10.5890330361985  138.173652161885 8.2355733382417  138.173652161885 8.2355733382417  C 138.173652161885 8.2355733382417  157.889776518975 4.69351760795548  157.889776518975 4.69351760795548  C 157.889776518975 4.69351760795548  164.3094600287 0.674836846402281  164.3094600287 0.674836846402281  C 164.3094600287 0.674836846402281  177.141187599306 2.76724051063622  177.141187599306 2.76724051063622  C 177.141187599306 2.76724051063622  179.389732041626 12.6794590032072  179.389732041626 12.6794590032072  C 179.389732041626 12.6794590032072  186.843287627886 10.3754417358797  186.843287627886 10.3754417358797  C 186.843287627886 10.3754417358797  196.013172720515 13.6010659101381  196.013172720515 13.6010659101381  C 196.013172720515 13.6010659101381  195.42238867678 18.709457842762  195.42238867678 18.709457842762  C 195.42238867678 18.709457842762  202.269881321623 18.1794349864154  202.269881321623 18.1794349864154  C 202.269881321623 18.1794349864154  220.164016991131 9.29166365648452  220.164016991131 9.29166365648452  C 220.164016991131 9.29166365648452  217.551325487372 12.2661202831459  217.551325487372 12.2661202831459  C 217.551325487372 12.2661202831459  226.662641472217 19.5025144300567  226.662641472217 19.5025144300567  C 226.662641472217 19.5025144300567  242.61635713601 42.3963375086683  242.61635713601 42.3963375086683  C 242.61635713601 42.3963375086683  246.420802659027 37.7823698823379  246.420802659027 37.7823698823379  C 246.420802659027 37.7823698823379  256.257866283805 42.8551632649086  256.257866283805 42.8551632649086  C 256.257866283805 42.8551632649086  266.517646077807 40.6005884282106  266.517646077807 40.6005884282106  C 266.517646077807 40.6005884282106  270.45960167997 42.1807685111243  270.45960167997 42.1807685111243  C 270.45960167997 42.1807685111243  273.894807175654 47.2159856464168  273.894807175654 47.2159856464168  C 273.894807175654 47.2159856464168  278.885913752036 48.8930728933642  278.885913752036 48.8930728933642  C 278.885913752036 48.8930728933642  281.926414390913 52.5379688793595  281.926414390913 52.5379688793595  C 281.926414390913 52.5379688793595  291.124310795961 51.3928821859838  291.124310795961 51.3928821859838  C 291.124310795961 51.3928821859838  294.910930938349 56.6021366770916  294.910930938349 56.6021366770916  C 294.910930938349 56.6021366770916  289.476736329165 63.6377791307538  289.476736329165 63.6377791307538  C 289.476736329165 63.6377791307538  283.545977545291 64.4169918374723  283.545977545291 64.4169918374723  C 283.545977545291 64.4169918374723  283.207295313322 72.6956324220497  283.207295313322 72.6956324220497  C 283.207295313322 72.6956324220497  279.234781915793 76.3741492608729  279.234781915793 76.3741492608729  C 279.234781915793 76.3741492608729  265.071243763835 73.6983249152128  265.071243763835 73.6983249152128  C 265.071243763835 73.6983249152128  259.919708761784 88.0603621644247  259.919708761784 88.0603621644247  C 259.919708761784 88.0603621644247  256.265505732647 89.8126019059287  256.265505732647 89.8126019059287  C 256.265505732647 89.8126019059287  242.119792961319 92.9413189161536  242.119792961319 92.9413189161536  C 242.119792961319 92.9413189161536  248.547115919884 106.298685974977  248.547115919884 106.298685974977  C 248.547115919884 106.298685974977  243.647682729599 108.266494714025  243.647682729599 108.266494714025  C 243.647682729599 108.266494714025  244.218094909757 112.548209206526  244.218094909757 112.548209206526  C 244.218094909757 112.548209206526  239.820318860057 111.450587246555  239.820318860057 111.450587246555  C 239.820318860057 111.450587246555  236.23741735344 108.751030534193  236.23741735344 108.751030534193  C 236.23741735344 108.751030534193  225.644048293363 107.961929341349  225.644048293363 107.961929341349  C 225.644048293363 107.961929341349  213.805449072139 107.754271132705  213.805449072139 107.754271132705  C 213.805449072139 107.754271132705  211.210582949009 108.586881664503  211.210582949009 108.586881664503  C 211.210582949009 108.586881664503  201.042476541104 105.404766829199  201.042476541104 105.404766829199  C 201.042476541104 105.404766829199  196.988475689267 106.975058425987  196.988475689267 106.975058425987  C 196.988475689267 106.975058425987  195.880755607264 111.418944090952  195.880755607264 111.418944090952  C 195.880755607264 111.418944090952  184.131283289189 108.8301384232  184.131283289189 108.8301384232  C 184.131283289189 108.8301384232  179.433022251727 109.892161833118  179.433022251727 109.892161833118  Z " stroke-width="2" stroke="#505050" fill="none" stroke-opacity="0.211764705882353" transform="matrix(1 0 0 1 2168 3972 )" mask="url(#clip252)" />
  </g>
</svg>