<?xml version="1.0" encoding="utf-8"?>
<svg version="1.1" xmlns:xlink="http://www.w3.org/1999/xlink" width="57px" height="54px" xmlns="http://www.w3.org/2000/svg">
  <defs>
    <mask fill="white" id="clip253">
      <path d="M 45.089215965983 53.035349459831  C 45.089215965983 53.035349459831  39.2326160050229 50.7733136801742  39.2326160050229 50.7733136801742  C 39.2326160050229 50.7733136801742  41.543366119265 48.1677538167504  41.543366119265 48.1677538167504  C 41.543366119265 48.1677538167504  41.8597338786081 43.2599799182585  41.8597338786081 43.2599799182585  C 41.8597338786081 43.2599799182585  36.1144953689373 38.1834573470389  36.1144953689373 38.1834573470389  C 36.1144953689373 38.1834573470389  35.6715805058568 32.4078331316623  35.6715805058568 32.4078331316623  C 35.6715805058568 32.4078331316623  30.2730810604256 26.1711791037977  30.2730810604256 26.1711791037977  C 30.2730810604256 26.1711791037977  23.0687741845468 25.7673876369139  23.0687741845468 25.7673876369139  C 23.0687741845468 25.7673876369139  21.6387919123161 29.2759381223506  21.6387919123161 29.2759381223506  C 21.6387919123161 29.2759381223506  17.4829850255846 29.4466957078485  17.4829850255846 29.4466957078485  C 17.4829850255846 29.4466957078485  15.3569936827989 28.4080878054661  15.3569936827989 28.4080878054661  C 15.3569936827989 28.4080878054661  7.8780598519277 31.9156495028738  7.8780598519277 31.9156495028738  C 7.8780598519277 31.9156495028738  7.71101767499436 25.1807851079087  7.71101767499436 25.1807851079087  C 7.71101767499436 25.1807851079087  9.45483676449362 18.945119868073  9.45483676449362 18.945119868073  C 9.45483676449362 18.945119868073  4.66123247492672 18.6719077312759  4.66123247492672 18.6719077312759  C 4.66123247492672 18.6719077312759  4.25375080089289 15.0960429996692  4.25375080089289 15.0960429996692  C 4.25375080089289 15.0960429996692  1.1837180642275 13.2538699890601  1.1837180642275 13.2538699890601  C 1.1837180642275 13.2538699890601  2.6946904828501 11.0521015925202  2.6946904828501 11.0521015925202  C 2.6946904828501 11.0521015925202  8.73351827319128 7.14677516654035  8.73351827319128 7.14677516654035  C 8.73351827319128 7.14677516654035  9.37131567602716 8.55904084424824  9.37131567602716 8.55904084424824  C 9.37131567602716 8.55904084424824  13.1550740777706 8.72176277866397  13.1550740777706 8.72176277866397  C 13.1550740777706 8.72176277866397  12.0844855801535 1.82516523731207  12.0844855801535 1.82516523731207  C 12.0844855801535 1.82516523731207  15.7619444147582 0.937225792722013  15.7619444147582 0.937225792722013  C 15.7619444147582 0.937225792722013  19.9076275331903 5.71040253558593  19.9076275331903 5.71040253558593  C 19.9076275331903 5.71040253558593  23.0940836052942 11.1686185332129  23.0940836052942 11.1686185332129  C 23.0940836052942 11.1686185332129  33.6696053247334 11.2148235269359  33.6696053247334 11.2148235269359  C 33.6696053247334 11.2148235269359  36.4207393599811 16.4219254282422  36.4207393599811 16.4219254282422  C 36.4207393599811 16.4219254282422  31.8852911620387 17.9808417382014  31.8852911620387 17.9808417382014  C 31.8852911620387 17.9808417382014  29.8478827918687 20.1163160133125  29.8478827918687 20.1163160133125  C 29.8478827918687 20.1163160133125  38.3518481630119 23.6560203150493  38.3518481630119 23.6560203150493  C 38.3518481630119 23.6560203150493  44.2489431971675 32.0763625245191  44.2489431971675 32.0763625245191  C 44.2489431971675 32.0763625245191  48.7236487853167 37.2352505193317  48.7236487853167 37.2352505193317  C 48.7236487853167 37.2352505193317  54.0917769258508 41.2912454031041  54.0917769258508 41.2912454031041  C 54.0917769258508 41.2912454031041  55.8786220306206 45.3954541933696  55.8786220306206 45.3954541933696  C 55.8786220306206 45.3954541933696  54.5878415725007 51.1811229725989  54.5878415725007 51.1811229725989  C 54.5878415725007 51.1811229725989  48.3009814588344 49.0536843485696  48.3009814588344 49.0536843485696  C 48.3009814588344 49.0536843485696  45.089215965983 53.035349459831  45.089215965983 53.035349459831  Z " fill-rule="evenodd" />
    </mask>
  </defs>
  <g transform="matrix(1 0 0 1 -2551 -4213 )">
    <path d="M 45.089215965983 53.035349459831  C 45.089215965983 53.035349459831  39.2326160050229 50.7733136801742  39.2326160050229 50.7733136801742  C 39.2326160050229 50.7733136801742  41.543366119265 48.1677538167504  41.543366119265 48.1677538167504  C 41.543366119265 48.1677538167504  41.8597338786081 43.2599799182585  41.8597338786081 43.2599799182585  C 41.8597338786081 43.2599799182585  36.1144953689373 38.1834573470389  36.1144953689373 38.1834573470389  C 36.1144953689373 38.1834573470389  35.6715805058568 32.4078331316623  35.6715805058568 32.4078331316623  C 35.6715805058568 32.4078331316623  30.2730810604256 26.1711791037977  30.2730810604256 26.1711791037977  C 30.2730810604256 26.1711791037977  23.0687741845468 25.7673876369139  23.0687741845468 25.7673876369139  C 23.0687741845468 25.7673876369139  21.6387919123161 29.2759381223506  21.6387919123161 29.2759381223506  C 21.6387919123161 29.2759381223506  17.4829850255846 29.4466957078485  17.4829850255846 29.4466957078485  C 17.4829850255846 29.4466957078485  15.3569936827989 28.4080878054661  15.3569936827989 28.4080878054661  C 15.3569936827989 28.4080878054661  7.8780598519277 31.9156495028738  7.8780598519277 31.9156495028738  C 7.8780598519277 31.9156495028738  7.71101767499436 25.1807851079087  7.71101767499436 25.1807851079087  C 7.71101767499436 25.1807851079087  9.45483676449362 18.945119868073  9.45483676449362 18.945119868073  C 9.45483676449362 18.945119868073  4.66123247492672 18.6719077312759  4.66123247492672 18.6719077312759  C 4.66123247492672 18.6719077312759  4.25375080089289 15.0960429996692  4.25375080089289 15.0960429996692  C 4.25375080089289 15.0960429996692  1.1837180642275 13.2538699890601  1.1837180642275 13.2538699890601  C 1.1837180642275 13.2538699890601  2.6946904828501 11.0521015925202  2.6946904828501 11.0521015925202  C 2.6946904828501 11.0521015925202  8.73351827319128 7.14677516654035  8.73351827319128 7.14677516654035  C 8.73351827319128 7.14677516654035  9.37131567602716 8.55904084424824  9.37131567602716 8.55904084424824  C 9.37131567602716 8.55904084424824  13.1550740777706 8.72176277866397  13.1550740777706 8.72176277866397  C 13.1550740777706 8.72176277866397  12.0844855801535 1.82516523731207  12.0844855801535 1.82516523731207  C 12.0844855801535 1.82516523731207  15.7619444147582 0.937225792722013  15.7619444147582 0.937225792722013  C 15.7619444147582 0.937225792722013  19.9076275331903 5.71040253558593  19.9076275331903 5.71040253558593  C 19.9076275331903 5.71040253558593  23.0940836052942 11.1686185332129  23.0940836052942 11.1686185332129  C 23.0940836052942 11.1686185332129  33.6696053247334 11.2148235269359  33.6696053247334 11.2148235269359  C 33.6696053247334 11.2148235269359  36.4207393599811 16.4219254282422  36.4207393599811 16.4219254282422  C 36.4207393599811 16.4219254282422  31.8852911620387 17.9808417382014  31.8852911620387 17.9808417382014  C 31.8852911620387 17.9808417382014  29.8478827918687 20.1163160133125  29.8478827918687 20.1163160133125  C 29.8478827918687 20.1163160133125  38.3518481630119 23.6560203150493  38.3518481630119 23.6560203150493  C 38.3518481630119 23.6560203150493  44.2489431971675 32.0763625245191  44.2489431971675 32.0763625245191  C 44.2489431971675 32.0763625245191  48.7236487853167 37.2352505193317  48.7236487853167 37.2352505193317  C 48.7236487853167 37.2352505193317  54.0917769258508 41.2912454031041  54.0917769258508 41.2912454031041  C 54.0917769258508 41.2912454031041  55.8786220306206 45.3954541933696  55.8786220306206 45.3954541933696  C 55.8786220306206 45.3954541933696  54.5878415725007 51.1811229725989  54.5878415725007 51.1811229725989  C 54.5878415725007 51.1811229725989  48.3009814588344 49.0536843485696  48.3009814588344 49.0536843485696  C 48.3009814588344 49.0536843485696  45.089215965983 53.035349459831  45.089215965983 53.035349459831  Z " fill-rule="nonzero" fill="#f2f2f2" stroke="none" transform="matrix(1 0 0 1 2551 4213 )" />
    <path d="M 45.089215965983 53.035349459831  C 45.089215965983 53.035349459831  39.2326160050229 50.7733136801742  39.2326160050229 50.7733136801742  C 39.2326160050229 50.7733136801742  41.543366119265 48.1677538167504  41.543366119265 48.1677538167504  C 41.543366119265 48.1677538167504  41.8597338786081 43.2599799182585  41.8597338786081 43.2599799182585  C 41.8597338786081 43.2599799182585  36.1144953689373 38.1834573470389  36.1144953689373 38.1834573470389  C 36.1144953689373 38.1834573470389  35.6715805058568 32.4078331316623  35.6715805058568 32.4078331316623  C 35.6715805058568 32.4078331316623  30.2730810604256 26.1711791037977  30.2730810604256 26.1711791037977  C 30.2730810604256 26.1711791037977  23.0687741845468 25.7673876369139  23.0687741845468 25.7673876369139  C 23.0687741845468 25.7673876369139  21.6387919123161 29.2759381223506  21.6387919123161 29.2759381223506  C 21.6387919123161 29.2759381223506  17.4829850255846 29.4466957078485  17.4829850255846 29.4466957078485  C 17.4829850255846 29.4466957078485  15.3569936827989 28.4080878054661  15.3569936827989 28.4080878054661  C 15.3569936827989 28.4080878054661  7.8780598519277 31.9156495028738  7.8780598519277 31.9156495028738  C 7.8780598519277 31.9156495028738  7.71101767499436 25.1807851079087  7.71101767499436 25.1807851079087  C 7.71101767499436 25.1807851079087  9.45483676449362 18.945119868073  9.45483676449362 18.945119868073  C 9.45483676449362 18.945119868073  4.66123247492672 18.6719077312759  4.66123247492672 18.6719077312759  C 4.66123247492672 18.6719077312759  4.25375080089289 15.0960429996692  4.25375080089289 15.0960429996692  C 4.25375080089289 15.0960429996692  1.1837180642275 13.2538699890601  1.1837180642275 13.2538699890601  C 1.1837180642275 13.2538699890601  2.6946904828501 11.0521015925202  2.6946904828501 11.0521015925202  C 2.6946904828501 11.0521015925202  8.73351827319128 7.14677516654035  8.73351827319128 7.14677516654035  C 8.73351827319128 7.14677516654035  9.37131567602716 8.55904084424824  9.37131567602716 8.55904084424824  C 9.37131567602716 8.55904084424824  13.1550740777706 8.72176277866397  13.1550740777706 8.72176277866397  C 13.1550740777706 8.72176277866397  12.0844855801535 1.82516523731207  12.0844855801535 1.82516523731207  C 12.0844855801535 1.82516523731207  15.7619444147582 0.937225792722013  15.7619444147582 0.937225792722013  C 15.7619444147582 0.937225792722013  19.9076275331903 5.71040253558593  19.9076275331903 5.71040253558593  C 19.9076275331903 5.71040253558593  23.0940836052942 11.1686185332129  23.0940836052942 11.1686185332129  C 23.0940836052942 11.1686185332129  33.6696053247334 11.2148235269359  33.6696053247334 11.2148235269359  C 33.6696053247334 11.2148235269359  36.4207393599811 16.4219254282422  36.4207393599811 16.4219254282422  C 36.4207393599811 16.4219254282422  31.8852911620387 17.9808417382014  31.8852911620387 17.9808417382014  C 31.8852911620387 17.9808417382014  29.8478827918687 20.1163160133125  29.8478827918687 20.1163160133125  C 29.8478827918687 20.1163160133125  38.3518481630119 23.6560203150493  38.3518481630119 23.6560203150493  C 38.3518481630119 23.6560203150493  44.2489431971675 32.0763625245191  44.2489431971675 32.0763625245191  C 44.2489431971675 32.0763625245191  48.7236487853167 37.2352505193317  48.7236487853167 37.2352505193317  C 48.7236487853167 37.2352505193317  54.0917769258508 41.2912454031041  54.0917769258508 41.2912454031041  C 54.0917769258508 41.2912454031041  55.8786220306206 45.3954541933696  55.8786220306206 45.3954541933696  C 55.8786220306206 45.3954541933696  54.5878415725007 51.1811229725989  54.5878415725007 51.1811229725989  C 54.5878415725007 51.1811229725989  48.3009814588344 49.0536843485696  48.3009814588344 49.0536843485696  C 48.3009814588344 49.0536843485696  45.089215965983 53.035349459831  45.089215965983 53.035349459831  Z " stroke-width="2" stroke="#505050" fill="none" stroke-opacity="0.211764705882353" transform="matrix(1 0 0 1 2551 4213 )" mask="url(#clip253)" />
  </g>
</svg>