<?xml version="1.0" encoding="utf-8"?>
<svg version="1.1" xmlns:xlink="http://www.w3.org/1999/xlink" width="126px" height="66px" xmlns="http://www.w3.org/2000/svg">
  <defs>
    <mask fill="white" id="clip254">
      <path d="M 81.7620408202384 63.593620684525  C 81.7620408202384 63.593620684525  77.7806612897142 63.5471875179935  77.7806612897142 63.5471875179935  C 77.7806612897142 63.5471875179935  77.9770522082603 59.188526364013  77.9770522082603 59.188526364013  C 77.9770522082603 59.188526364013  68.4635700501211 56.1198997062778  68.4635700501211 56.1198997062778  C 68.4635700501211 56.1198997062778  59.1324707804425 52.5849225498998  59.1324707804425 52.5849225498998  C 59.1324707804425 52.5849225498998  54.4675488321216 49.1630000598595  54.4675488321216 49.1630000598595  C 54.4675488321216 49.1630000598595  46.2905451326596 44.1017849079239  46.2905451326596 44.1017849079239  C 46.2905451326596 44.1017849079239  42.7733623186985 36.4483877635329  42.7733623186985 36.4483877635329  C 42.7733623186985 36.4483877635329  40.3733122621812 35.0876941008267  40.3733122621812 35.0876941008267  C 40.3733122621812 35.0876941008267  32.6426515594148 35.4329145998219  32.6426515594148 35.4329145998219  C 32.6426515594148 35.4329145998219  29.9059313568183 33.8965824376268  29.9059313568183 33.8965824376268  C 29.9059313568183 33.8965824376268  29.1407719339119 26.3895664552077  29.1407719339119 26.3895664552077  C 29.1407719339119 26.3895664552077  19.5048642681072 22.347862133638  19.5048642681072 22.347862133638  C 19.5048642681072 22.347862133638  13.4805090784223 26.7913142873716  13.4805090784223 26.7913142873716  C 13.4805090784223 26.7913142873716  7.37198635221785 29.405703446429  7.37198635221785 29.405703446429  C 7.37198635221785 29.405703446429  8.54523080067446 34.6677767687155  8.54523080067446 34.6677767687155  C 8.54523080067446 34.6677767687155  0.477899951828844 34.7707372684158  0.477899951828844 34.7707372684158  C 0.477899951828844 34.7707372684158  0.194790965353237 4.78401218475871  0.194790965353237 4.78401218475871  C 0.194790965353237 4.78401218475871  18.6045266804871 0.0458103652161526  18.6045266804871 0.0458103652161526  C 18.6045266804871 0.0458103652161526  19.9410051391643 0.744326696516411  19.9410051391643 0.744326696516411  C 19.9410051391643 0.744326696516411  31.0256146456721 6.47175684651302  31.0256146456721 6.47175684651302  C 31.0256146456721 6.47175684651302  36.8765336994978 9.46770550445989  36.8765336994978 9.46770550445989  C 36.8765336994978 9.46770550445989  43.7068568146445 16.5295844839058  43.7068568146445 16.5295844839058  C 43.7068568146445 16.5295844839058  52.0930040897016 15.3970189872022  52.0930040897016 15.3970189872022  C 52.0930040897016 15.3970189872022  66.2114508153657 14.78733132231  66.2114508153657 14.78733132231  C 66.2114508153657 14.78733132231  74.7710342262816 20.454196472483  74.7710342262816 20.454196472483  C 74.7710342262816 20.454196472483  74.2379731616567 28.1277819501485  74.2379731616567 28.1277819501485  C 74.2379731616567 28.1277819501485  77.7219990672915 28.1802716166624  77.7219990672915 28.1802716166624  C 77.7219990672915 28.1802716166624  79.1783525022237 35.8225494320211  79.1783525022237 35.8225494320211  C 79.1783525022237 35.8225494320211  88.2709969777644 36.064809431316  88.2709969777644 36.064809431316  C 88.2709969777644 36.064809431316  90.2323556318151 39.5997865876939  90.2323556318151 39.5997865876939  C 90.2323556318151 39.5997865876939  92.8951104235299 39.5513345878349  92.8951104235299 39.5513345878349  C 92.8951104235299 39.5513345878349  96.024612463218 34.2034451034002  96.024612463218 34.2034451034002  C 96.024612463218 34.2034451034002  105.456477616248 27.4696422853974  105.456477616248 27.4696422853974  C 105.456477616248 27.4696422853974  109.557732123027 26.0625154561596  109.557732123027 26.0625154561596  C 109.557732123027 26.0625154561596  111.682324787298 26.8115026206463  111.682324787298 26.8115026206463  C 111.682324787298 26.8115026206463  105.67837384889 31.7152487730403  105.67837384889 31.7152487730403  C 105.67837384889 31.7152487730403  110.957973866946 36.0103009314747  110.957973866946 36.0103009314747  C 110.957973866946 36.0103009314747  116.051385092095 34.1388424369217  116.051385092095 34.1388424369217  C 116.051385092095 34.1388424369217  124.526800966491 38.0836427587735  124.526800966491 38.0836427587735  C 124.526800966491 38.0836427587735  115.367842674298 43.4234569098982  115.367842674298 43.4234569098982  C 115.367842674298 43.4234569098982  109.927559177432 42.6966769120136  109.927559177432 42.6966769120136  C 109.927559177432 42.6966769120136  106.976594336422 42.888466078122  106.976594336422 42.888466078122  C 106.976594336422 42.888466078122  105.953831241137 40.831274917443  105.953831241137 40.831274917443  C 105.953831241137 40.831274917443  107.443341584395 37.3810887608182  107.443341584395 37.3810887608182  C 107.443341584395 37.3810887608182  97.8813993294718 39.1132477557767  97.8813993294718 39.1132477557767  C 97.8813993294718 39.1132477557767  95.6063253120292 43.8635625752839  95.6063253120292 43.8635625752839  C 95.6063253120292 43.8635625752839  92.2090174743236 47.9193987301459  92.2090174743236 47.9193987301459  C 92.2090174743236 47.9193987301459  86.2382234442423 47.5761970644781  86.2382234442423 47.5761970644781  C 86.2382234442423 47.5761970644781  84.3839871093985 50.7881608884628  84.3839871093985 50.7881608884628  C 84.3839871093985 50.7881608884628  89.6304302191284 52.5183010500937  89.6304302191284 52.5183010500937  C 89.6304302191284 52.5183010500937  91.1760522533998 57.8843600344755  91.1760522533998 57.8843600344755  C 91.1760522533998 57.8843600344755  87.1564147517302 65.0895761801709  87.1564147517302 65.0895761801709  C 87.1564147517302 65.0895761801709  81.7620408202384 63.593620684525  81.7620408202384 63.593620684525  Z " fill-rule="evenodd" />
    </mask>
  </defs>
  <g transform="matrix(1 0 0 1 -2235 -4058 )">
    <path d="M 81.7620408202384 63.593620684525  C 81.7620408202384 63.593620684525  77.7806612897142 63.5471875179935  77.7806612897142 63.5471875179935  C 77.7806612897142 63.5471875179935  77.9770522082603 59.188526364013  77.9770522082603 59.188526364013  C 77.9770522082603 59.188526364013  68.4635700501211 56.1198997062778  68.4635700501211 56.1198997062778  C 68.4635700501211 56.1198997062778  59.1324707804425 52.5849225498998  59.1324707804425 52.5849225498998  C 59.1324707804425 52.5849225498998  54.4675488321216 49.1630000598595  54.4675488321216 49.1630000598595  C 54.4675488321216 49.1630000598595  46.2905451326596 44.1017849079239  46.2905451326596 44.1017849079239  C 46.2905451326596 44.1017849079239  42.7733623186985 36.4483877635329  42.7733623186985 36.4483877635329  C 42.7733623186985 36.4483877635329  40.3733122621812 35.0876941008267  40.3733122621812 35.0876941008267  C 40.3733122621812 35.0876941008267  32.6426515594148 35.4329145998219  32.6426515594148 35.4329145998219  C 32.6426515594148 35.4329145998219  29.9059313568183 33.8965824376268  29.9059313568183 33.8965824376268  C 29.9059313568183 33.8965824376268  29.1407719339119 26.3895664552077  29.1407719339119 26.3895664552077  C 29.1407719339119 26.3895664552077  19.5048642681072 22.347862133638  19.5048642681072 22.347862133638  C 19.5048642681072 22.347862133638  13.4805090784223 26.7913142873716  13.4805090784223 26.7913142873716  C 13.4805090784223 26.7913142873716  7.37198635221785 29.405703446429  7.37198635221785 29.405703446429  C 7.37198635221785 29.405703446429  8.54523080067446 34.6677767687155  8.54523080067446 34.6677767687155  C 8.54523080067446 34.6677767687155  0.477899951828844 34.7707372684158  0.477899951828844 34.7707372684158  C 0.477899951828844 34.7707372684158  0.194790965353237 4.78401218475871  0.194790965353237 4.78401218475871  C 0.194790965353237 4.78401218475871  18.6045266804871 0.0458103652161526  18.6045266804871 0.0458103652161526  C 18.6045266804871 0.0458103652161526  19.9410051391643 0.744326696516411  19.9410051391643 0.744326696516411  C 19.9410051391643 0.744326696516411  31.0256146456721 6.47175684651302  31.0256146456721 6.47175684651302  C 31.0256146456721 6.47175684651302  36.8765336994978 9.46770550445989  36.8765336994978 9.46770550445989  C 36.8765336994978 9.46770550445989  43.7068568146445 16.5295844839058  43.7068568146445 16.5295844839058  C 43.7068568146445 16.5295844839058  52.0930040897016 15.3970189872022  52.0930040897016 15.3970189872022  C 52.0930040897016 15.3970189872022  66.2114508153657 14.78733132231  66.2114508153657 14.78733132231  C 66.2114508153657 14.78733132231  74.7710342262816 20.454196472483  74.7710342262816 20.454196472483  C 74.7710342262816 20.454196472483  74.2379731616567 28.1277819501485  74.2379731616567 28.1277819501485  C 74.2379731616567 28.1277819501485  77.7219990672915 28.1802716166624  77.7219990672915 28.1802716166624  C 77.7219990672915 28.1802716166624  79.1783525022237 35.8225494320211  79.1783525022237 35.8225494320211  C 79.1783525022237 35.8225494320211  88.2709969777644 36.064809431316  88.2709969777644 36.064809431316  C 88.2709969777644 36.064809431316  90.2323556318151 39.5997865876939  90.2323556318151 39.5997865876939  C 90.2323556318151 39.5997865876939  92.8951104235299 39.5513345878349  92.8951104235299 39.5513345878349  C 92.8951104235299 39.5513345878349  96.024612463218 34.2034451034002  96.024612463218 34.2034451034002  C 96.024612463218 34.2034451034002  105.456477616248 27.4696422853974  105.456477616248 27.4696422853974  C 105.456477616248 27.4696422853974  109.557732123027 26.0625154561596  109.557732123027 26.0625154561596  C 109.557732123027 26.0625154561596  111.682324787298 26.8115026206463  111.682324787298 26.8115026206463  C 111.682324787298 26.8115026206463  105.67837384889 31.7152487730403  105.67837384889 31.7152487730403  C 105.67837384889 31.7152487730403  110.957973866946 36.0103009314747  110.957973866946 36.0103009314747  C 110.957973866946 36.0103009314747  116.051385092095 34.1388424369217  116.051385092095 34.1388424369217  C 116.051385092095 34.1388424369217  124.526800966491 38.0836427587735  124.526800966491 38.0836427587735  C 124.526800966491 38.0836427587735  115.367842674298 43.4234569098982  115.367842674298 43.4234569098982  C 115.367842674298 43.4234569098982  109.927559177432 42.6966769120136  109.927559177432 42.6966769120136  C 109.927559177432 42.6966769120136  106.976594336422 42.888466078122  106.976594336422 42.888466078122  C 106.976594336422 42.888466078122  105.953831241137 40.831274917443  105.953831241137 40.831274917443  C 105.953831241137 40.831274917443  107.443341584395 37.3810887608182  107.443341584395 37.3810887608182  C 107.443341584395 37.3810887608182  97.8813993294718 39.1132477557767  97.8813993294718 39.1132477557767  C 97.8813993294718 39.1132477557767  95.6063253120292 43.8635625752839  95.6063253120292 43.8635625752839  C 95.6063253120292 43.8635625752839  92.2090174743236 47.9193987301459  92.2090174743236 47.9193987301459  C 92.2090174743236 47.9193987301459  86.2382234442423 47.5761970644781  86.2382234442423 47.5761970644781  C 86.2382234442423 47.5761970644781  84.3839871093985 50.7881608884628  84.3839871093985 50.7881608884628  C 84.3839871093985 50.7881608884628  89.6304302191284 52.5183010500937  89.6304302191284 52.5183010500937  C 89.6304302191284 52.5183010500937  91.1760522533998 57.8843600344755  91.1760522533998 57.8843600344755  C 91.1760522533998 57.8843600344755  87.1564147517302 65.0895761801709  87.1564147517302 65.0895761801709  C 87.1564147517302 65.0895761801709  81.7620408202384 63.593620684525  81.7620408202384 63.593620684525  Z " fill-rule="nonzero" fill="#f2f2f2" stroke="none" transform="matrix(1 0 0 1 2235 4058 )" />
    <path d="M 81.7620408202384 63.593620684525  C 81.7620408202384 63.593620684525  77.7806612897142 63.5471875179935  77.7806612897142 63.5471875179935  C 77.7806612897142 63.5471875179935  77.9770522082603 59.188526364013  77.9770522082603 59.188526364013  C 77.9770522082603 59.188526364013  68.4635700501211 56.1198997062778  68.4635700501211 56.1198997062778  C 68.4635700501211 56.1198997062778  59.1324707804425 52.5849225498998  59.1324707804425 52.5849225498998  C 59.1324707804425 52.5849225498998  54.4675488321216 49.1630000598595  54.4675488321216 49.1630000598595  C 54.4675488321216 49.1630000598595  46.2905451326596 44.1017849079239  46.2905451326596 44.1017849079239  C 46.2905451326596 44.1017849079239  42.7733623186985 36.4483877635329  42.7733623186985 36.4483877635329  C 42.7733623186985 36.4483877635329  40.3733122621812 35.0876941008267  40.3733122621812 35.0876941008267  C 40.3733122621812 35.0876941008267  32.6426515594148 35.4329145998219  32.6426515594148 35.4329145998219  C 32.6426515594148 35.4329145998219  29.9059313568183 33.8965824376268  29.9059313568183 33.8965824376268  C 29.9059313568183 33.8965824376268  29.1407719339119 26.3895664552077  29.1407719339119 26.3895664552077  C 29.1407719339119 26.3895664552077  19.5048642681072 22.347862133638  19.5048642681072 22.347862133638  C 19.5048642681072 22.347862133638  13.4805090784223 26.7913142873716  13.4805090784223 26.7913142873716  C 13.4805090784223 26.7913142873716  7.37198635221785 29.405703446429  7.37198635221785 29.405703446429  C 7.37198635221785 29.405703446429  8.54523080067446 34.6677767687155  8.54523080067446 34.6677767687155  C 8.54523080067446 34.6677767687155  0.477899951828844 34.7707372684158  0.477899951828844 34.7707372684158  C 0.477899951828844 34.7707372684158  0.194790965353237 4.78401218475871  0.194790965353237 4.78401218475871  C 0.194790965353237 4.78401218475871  18.6045266804871 0.0458103652161526  18.6045266804871 0.0458103652161526  C 18.6045266804871 0.0458103652161526  19.9410051391643 0.744326696516411  19.9410051391643 0.744326696516411  C 19.9410051391643 0.744326696516411  31.0256146456721 6.47175684651302  31.0256146456721 6.47175684651302  C 31.0256146456721 6.47175684651302  36.8765336994978 9.46770550445989  36.8765336994978 9.46770550445989  C 36.8765336994978 9.46770550445989  43.7068568146445 16.5295844839058  43.7068568146445 16.5295844839058  C 43.7068568146445 16.5295844839058  52.0930040897016 15.3970189872022  52.0930040897016 15.3970189872022  C 52.0930040897016 15.3970189872022  66.2114508153657 14.78733132231  66.2114508153657 14.78733132231  C 66.2114508153657 14.78733132231  74.7710342262816 20.454196472483  74.7710342262816 20.454196472483  C 74.7710342262816 20.454196472483  74.2379731616567 28.1277819501485  74.2379731616567 28.1277819501485  C 74.2379731616567 28.1277819501485  77.7219990672915 28.1802716166624  77.7219990672915 28.1802716166624  C 77.7219990672915 28.1802716166624  79.1783525022237 35.8225494320211  79.1783525022237 35.8225494320211  C 79.1783525022237 35.8225494320211  88.2709969777644 36.064809431316  88.2709969777644 36.064809431316  C 88.2709969777644 36.064809431316  90.2323556318151 39.5997865876939  90.2323556318151 39.5997865876939  C 90.2323556318151 39.5997865876939  92.8951104235299 39.5513345878349  92.8951104235299 39.5513345878349  C 92.8951104235299 39.5513345878349  96.024612463218 34.2034451034002  96.024612463218 34.2034451034002  C 96.024612463218 34.2034451034002  105.456477616248 27.4696422853974  105.456477616248 27.4696422853974  C 105.456477616248 27.4696422853974  109.557732123027 26.0625154561596  109.557732123027 26.0625154561596  C 109.557732123027 26.0625154561596  111.682324787298 26.8115026206463  111.682324787298 26.8115026206463  C 111.682324787298 26.8115026206463  105.67837384889 31.7152487730403  105.67837384889 31.7152487730403  C 105.67837384889 31.7152487730403  110.957973866946 36.0103009314747  110.957973866946 36.0103009314747  C 110.957973866946 36.0103009314747  116.051385092095 34.1388424369217  116.051385092095 34.1388424369217  C 116.051385092095 34.1388424369217  124.526800966491 38.0836427587735  124.526800966491 38.0836427587735  C 124.526800966491 38.0836427587735  115.367842674298 43.4234569098982  115.367842674298 43.4234569098982  C 115.367842674298 43.4234569098982  109.927559177432 42.6966769120136  109.927559177432 42.6966769120136  C 109.927559177432 42.6966769120136  106.976594336422 42.888466078122  106.976594336422 42.888466078122  C 106.976594336422 42.888466078122  105.953831241137 40.831274917443  105.953831241137 40.831274917443  C 105.953831241137 40.831274917443  107.443341584395 37.3810887608182  107.443341584395 37.3810887608182  C 107.443341584395 37.3810887608182  97.8813993294718 39.1132477557767  97.8813993294718 39.1132477557767  C 97.8813993294718 39.1132477557767  95.6063253120292 43.8635625752839  95.6063253120292 43.8635625752839  C 95.6063253120292 43.8635625752839  92.2090174743236 47.9193987301459  92.2090174743236 47.9193987301459  C 92.2090174743236 47.9193987301459  86.2382234442423 47.5761970644781  86.2382234442423 47.5761970644781  C 86.2382234442423 47.5761970644781  84.3839871093985 50.7881608884628  84.3839871093985 50.7881608884628  C 84.3839871093985 50.7881608884628  89.6304302191284 52.5183010500937  89.6304302191284 52.5183010500937  C 89.6304302191284 52.5183010500937  91.1760522533998 57.8843600344755  91.1760522533998 57.8843600344755  C 91.1760522533998 57.8843600344755  87.1564147517302 65.0895761801709  87.1564147517302 65.0895761801709  C 87.1564147517302 65.0895761801709  81.7620408202384 63.593620684525  81.7620408202384 63.593620684525  Z " stroke-width="2" stroke="#505050" fill="none" stroke-opacity="0.211764705882353" transform="matrix(1 0 0 1 2235 4058 )" mask="url(#clip254)" />
  </g>
</svg>