<?xml version="1.0" encoding="utf-8"?>
<svg version="1.1" xmlns:xlink="http://www.w3.org/1999/xlink" width="99px" height="66px" xmlns="http://www.w3.org/2000/svg">
  <defs>
    <mask fill="white" id="clip255">
      <path d="M 10.0335531526693 3.26431146063234  C 10.0335531526693 3.26431146063234  14.5784516811077 2.32226238728757  14.5784516811077 2.32226238728757  C 14.5784516811077 2.32226238728757  14.3765683483619 3.64942586168572  14.3765683483619 3.64942586168572  C 14.3765683483619 3.64942586168572  10.2228187771182 4.30313287065253  10.2228187771182 4.30313287065253  C 10.2228187771182 4.30313287065253  12.5293358537384 6.85081275454148  12.5293358537384 6.85081275454148  C 12.5293358537384 6.85081275454148  12.4435354373213 9.77768220254452  12.4435354373213 9.77768220254452  C 12.4435354373213 9.77768220254452  9.32191440474035 13.0244928452683  9.32191440474035 13.0244928452683  C 9.32191440474035 13.0244928452683  12.00191564694 17.4503460389085  12.00191564694 17.4503460389085  C 12.00191564694 17.4503460389085  15.0528775130601 17.086956039966  15.0528775130601 17.086956039966  C 15.0528775130601 17.086956039966  16.6401852167735 13.0560919756112  16.6401852167735 13.0560919756112  C 16.6401852167735 13.0560919756112  14.4472275148228 11.0890461117711  14.4472275148228 11.0890461117711  C 14.4472275148228 11.0890461117711  14.0888845991991 6.85278770018813  14.0888845991991 6.85278770018813  C 14.0888845991991 6.85278770018813  22.9010920735506 4.57172547856628  22.9010920735506 4.57172547856628  C 22.9010920735506 4.57172547856628  21.9194343680744 1.92529831235591  21.9194343680744 1.92529831235591  C 21.9194343680744 1.92529831235591  24.4025993608469 0.149822176219073  24.4025993608469 0.149822176219073  C 24.4025993608469 0.149822176219073  26.9412822701248 4.09971346907041  26.9412822701248 4.09971346907041  C 26.9412822701248 4.09971346907041  31.9025651723513 4.1905609688062  31.9025651723513 4.1905609688062  C 31.9025651723513 4.1905609688062  36.5004580756356 7.31887487274439  36.5004580756356 7.31887487274439  C 36.5004580756356 7.31887487274439  36.7780476581609 9.1733488347381  36.7780476581609 9.1733488347381  C 36.7780476581609 9.1733488347381  43.1298020146738 9.2227224758988  43.1298020146738 9.2227224758988  C 43.1298020146738 9.2227224758988  52.5236661593348 8.64603834714254  52.5236661593348 8.64603834714254  C 52.5236661593348 8.64603834714254  56.5764740642056 11.1522443724567  56.5764740642056 11.1522443724567  C 56.5764740642056 11.1522443724567  61.9869473817914 11.8415004030593  61.9869473817914 11.8415004030593  C 61.9869473817914 11.8415004030593  65.9564784119045 10.095648451619  65.9564784119045 10.095648451619  C 65.9564784119045 10.095648451619  66.037231745003 8.68751220571763  66.037231745003 8.68751220571763  C 66.037231745003 8.68751220571763  74.8014919278272 8.34979650017863  74.8014919278272 8.34979650017863  C 74.8014919278272 8.34979650017863  83.2805919031483 8.27079867432176  83.2805919031483 8.27079867432176  C 83.2805919031483 8.27079867432176  77.2720392123033 9.92382818037999  77.2720392123033 9.92382818037999  C 77.2720392123033 9.92382818037999  79.6895921219333 12.5643305096511  79.6895921219333 12.5643305096511  C 79.6895921219333 12.5643305096511  85.3473725221327 12.9830189866936  85.3473725221327 12.9830189866936  C 85.3473725221327 12.9830189866936  90.7124220898507 15.7262184895787  90.7124220898507 15.7262184895787  C 90.7124220898507 15.7262184895787  91.8404452115675 20.1876207048544  91.8404452115675 20.1876207048544  C 91.8404452115675 20.1876207048544  95.5273395758366 20.0631991291298  95.5273395758366 20.0631991291298  C 95.5273395758366 20.0631991291298  98.3007118594312 21.3745630383563  98.3007118594312 21.3745630383563  C 98.3007118594312 21.3745630383563  92.6934022924183 24.6371732462514  92.6934022924183 24.6371732462514  C 92.6934022924183 24.6371732462514  92.0751345858845 26.6614925338378  92.0751345858845 26.6614925338378  C 92.0751345858845 26.6614925338378  94.4977345788332 28.7193858974133  94.4977345788332 28.7193858974133  C 94.4977345788332 28.7193858974133  92.7413495839454 29.7582073074335  92.7413495839454 29.7582073074335  C 92.7413495839454 29.7582073074335  88.3857166799562 30.6469328483249  88.3857166799562 30.6469328483249  C 88.3857166799562 30.6469328483249  88.5270350128782 34.6372951234954  88.5270350128782 34.6372951234954  C 88.5270350128782 34.6372951234954  86.6091433517936 36.1599782168895  86.6091433517936 36.1599782168895  C 86.6091433517936 36.1599782168895  91.3988254211863 40.354762769898  91.3988254211863 40.354762769898  C 91.3988254211863 40.354762769898  92.3350593767947 41.9129948849278  92.3350593767947 41.9129948849278  C 92.3350593767947 41.9129948849278  89.7484291759897 44.0182869440177  89.7484291759897 44.0182869440177  C 89.7484291759897 44.0182869440177  81.8346025323569 46.0840800901788  81.8346025323569 46.0840800901788  C 81.8346025323569 46.0840800901788  76.744619005505 46.9392315550811  76.744619005505 46.9392315550811  C 76.744619005505 46.9392315550811  74.7030738031137 48.2426956817221  74.7030738031137 48.2426956817221  C 74.7030738031137 48.2426956817221  69.0780994444856 46.8641836205169  69.0780994444856 46.8641836205169  C 69.0780994444856 46.8641836205169  63.8392269597335 46.159128024743  63.8392269597335 46.159128024743  C 63.8392269597335 46.159128024743  62.5118440469303 46.6666890558744  62.5118440469303 46.6666890558744  C 62.5118440469303 46.6666890558744  65.6788888293792 48.0965497038866  65.6788888293792 48.0965497038866  C 65.6788888293792 48.0965497038866  65.3937286218758 51.7896980627028  65.3937286218758 51.7896980627028  C 65.3937286218758 51.7896980627028  66.375386327352 55.2596775634726  66.375386327352 55.2596775634726  C 66.375386327352 55.2596775634726  72.3713213099004 55.7316895729685  72.3713213099004 55.7316895729685  C 72.3713213099004 55.7316895729685  72.7523761004581 56.889007721774  72.7523761004581 56.889007721774  C 72.7523761004581 56.889007721774  67.6977221568365 58.4551396193894  67.6977221568365 58.4551396193894  C 67.6977221568365 58.4551396193894  66.8775711175569 60.7855754821716  66.8775711175569 60.7855754821716  C 66.8775711175569 60.7855754821716  63.9628805010403 61.6881256425883  63.9628805010403 61.6881256425883  C 63.9628805010403 61.6881256425883  58.7012961413544 62.971840312765  58.7012961413544 62.971840312765  C 58.7012961413544 62.971840312765  57.3310130203427 64.6564689491661  57.3310130203427 64.6564689491661  C 57.3310130203427 64.6564689491661  51.8296922030215 65.011959165523  51.8296922030215 65.011959165523  C 51.8296922030215 65.011959165523  46.1025340893548 62.1028642283378  46.1025340893548 62.1028642283378  C 46.1025340893548 62.1028642283378  43.9449059706346 56.6144902769206  43.9449059706346 56.6144902769206  C 43.9449059706346 56.6144902769206  42.0623438927808 54.690893217302  42.0623438927808 54.690893217302  C 42.0623438927808 54.690893217302  39.4959020252505 53.4763016447501  39.4959020252505 53.4763016447501  C 39.4959020252505 53.4763016447501  43.0818547231467 50.7350770875113  43.0818547231467 50.7350770875113  C 43.0818547231467 50.7350770875113  42.8370711821924 49.5007360584953  42.8370711821924 49.5007360584953  C 42.8370711821924 49.5007360584953  40.8258084797131 47.8635061176083  40.8258084797131 47.8635061176083  C 40.8258084797131 47.8635061176083  39.4025309838554 44.1980069978423  39.4025309838554 44.1980069978423  C 39.4025309838554 44.1980069978423  39.9577101489064 40.2382409767587  39.9577101489064 40.2382409767587  C 39.9577101489064 40.2382409767587  41.5374472276416 38.383767014765  41.5374472276416 38.383767014765  C 41.5374472276416 38.383767014765  42.8118357655992 35.4055489799549  42.8118357655992 35.4055489799549  C 42.8118357655992 35.4055489799549  40.3084824395521 34.4556001240242  40.3084824395521 34.4556001240242  C 40.3084824395521 34.4556001240242  36.2758628679559 35.0856077852341  36.2758628679559 35.0856077852341  C 36.2758628679559 35.0856077852341  31.178308716126 34.7893659382702  31.178308716126 34.7893659382702  C 31.178308716126 34.7893659382702  28.3191360161145 35.3818496321977  28.3191360161145 35.3818496321977  C 28.3191360161145 35.3818496321977  23.3401883222727 29.1815231786772  23.3401883222727 29.1815231786772  C 23.3401883222727 29.1815231786772  19.2293389592375 28.476467582903  19.2293389592375 28.476467582903  C 19.2293389592375 28.476467582903  10.1294477357234 29.0097029074379  10.1294477357234 29.0097029074379  C 10.1294477357234 29.0097029074379  8.44372190729644 27.0762311195873  8.44372190729644 27.0762311195873  C 8.44372190729644 27.0762311195873  6.70247816236459 26.6121188926771  6.70247816236459 26.6121188926771  C 6.70247816236459 26.6121188926771  6.45517107975089 25.4548007438719  6.45517107975089 25.4548007438719  C 6.45517107975089 25.4548007438719  7.29551045230505 23.3988823259427  7.29551045230505 23.3988823259427  C 7.29551045230505 23.3988823259427  6.73528420393554 21.1612689085423  6.73528420393554 21.1612689085423  C 6.73528420393554 21.1612689085423  5.17321191681547 19.9387775534048  5.17321191681547 19.9387775534048  C 5.17321191681547 19.9387775534048  4.26726046111899 17.3792479956369  4.26726046111899 17.3792479956369  C 4.26726046111899 17.3792479956369  0.615695680080288 17.0059832684625  0.615695680080288 17.0059832684625  C 0.615695680080288 17.0059832684625  2.57648754937348 13.7433730605674  2.57648754937348 13.7433730605674  C 2.57648754937348 13.7433730605674  3.44206233852081 9.75595780043398  3.44206233852081 9.75595780043398  C 3.44206233852081 9.75595780043398  5.49874879086786 7.6763400347476  5.49874879086786 7.6763400347476  C 5.49874879086786 7.6763400347476  8.23679149123209 6.0687342785571  8.23679149123209 6.0687342785571  C 8.23679149123209 6.0687342785571  10.0335531526693 3.26431146063234  10.0335531526693 3.26431146063234  Z " fill-rule="evenodd" />
    </mask>
  </defs>
  <g transform="matrix(1 0 0 1 -1318 -4275 )">
    <path d="M 10.0335531526693 3.26431146063234  C 10.0335531526693 3.26431146063234  14.5784516811077 2.32226238728757  14.5784516811077 2.32226238728757  C 14.5784516811077 2.32226238728757  14.3765683483619 3.64942586168572  14.3765683483619 3.64942586168572  C 14.3765683483619 3.64942586168572  10.2228187771182 4.30313287065253  10.2228187771182 4.30313287065253  C 10.2228187771182 4.30313287065253  12.5293358537384 6.85081275454148  12.5293358537384 6.85081275454148  C 12.5293358537384 6.85081275454148  12.4435354373213 9.77768220254452  12.4435354373213 9.77768220254452  C 12.4435354373213 9.77768220254452  9.32191440474035 13.0244928452683  9.32191440474035 13.0244928452683  C 9.32191440474035 13.0244928452683  12.00191564694 17.4503460389085  12.00191564694 17.4503460389085  C 12.00191564694 17.4503460389085  15.0528775130601 17.086956039966  15.0528775130601 17.086956039966  C 15.0528775130601 17.086956039966  16.6401852167735 13.0560919756112  16.6401852167735 13.0560919756112  C 16.6401852167735 13.0560919756112  14.4472275148228 11.0890461117711  14.4472275148228 11.0890461117711  C 14.4472275148228 11.0890461117711  14.0888845991991 6.85278770018813  14.0888845991991 6.85278770018813  C 14.0888845991991 6.85278770018813  22.9010920735506 4.57172547856628  22.9010920735506 4.57172547856628  C 22.9010920735506 4.57172547856628  21.9194343680744 1.92529831235591  21.9194343680744 1.92529831235591  C 21.9194343680744 1.92529831235591  24.4025993608469 0.149822176219073  24.4025993608469 0.149822176219073  C 24.4025993608469 0.149822176219073  26.9412822701248 4.09971346907041  26.9412822701248 4.09971346907041  C 26.9412822701248 4.09971346907041  31.9025651723513 4.1905609688062  31.9025651723513 4.1905609688062  C 31.9025651723513 4.1905609688062  36.5004580756356 7.31887487274439  36.5004580756356 7.31887487274439  C 36.5004580756356 7.31887487274439  36.7780476581609 9.1733488347381  36.7780476581609 9.1733488347381  C 36.7780476581609 9.1733488347381  43.1298020146738 9.2227224758988  43.1298020146738 9.2227224758988  C 43.1298020146738 9.2227224758988  52.5236661593348 8.64603834714254  52.5236661593348 8.64603834714254  C 52.5236661593348 8.64603834714254  56.5764740642056 11.1522443724567  56.5764740642056 11.1522443724567  C 56.5764740642056 11.1522443724567  61.9869473817914 11.8415004030593  61.9869473817914 11.8415004030593  C 61.9869473817914 11.8415004030593  65.9564784119045 10.095648451619  65.9564784119045 10.095648451619  C 65.9564784119045 10.095648451619  66.037231745003 8.68751220571763  66.037231745003 8.68751220571763  C 66.037231745003 8.68751220571763  74.8014919278272 8.34979650017863  74.8014919278272 8.34979650017863  C 74.8014919278272 8.34979650017863  83.2805919031483 8.27079867432176  83.2805919031483 8.27079867432176  C 83.2805919031483 8.27079867432176  77.2720392123033 9.92382818037999  77.2720392123033 9.92382818037999  C 77.2720392123033 9.92382818037999  79.6895921219333 12.5643305096511  79.6895921219333 12.5643305096511  C 79.6895921219333 12.5643305096511  85.3473725221327 12.9830189866936  85.3473725221327 12.9830189866936  C 85.3473725221327 12.9830189866936  90.7124220898507 15.7262184895787  90.7124220898507 15.7262184895787  C 90.7124220898507 15.7262184895787  91.8404452115675 20.1876207048544  91.8404452115675 20.1876207048544  C 91.8404452115675 20.1876207048544  95.5273395758366 20.0631991291298  95.5273395758366 20.0631991291298  C 95.5273395758366 20.0631991291298  98.3007118594312 21.3745630383563  98.3007118594312 21.3745630383563  C 98.3007118594312 21.3745630383563  92.6934022924183 24.6371732462514  92.6934022924183 24.6371732462514  C 92.6934022924183 24.6371732462514  92.0751345858845 26.6614925338378  92.0751345858845 26.6614925338378  C 92.0751345858845 26.6614925338378  94.4977345788332 28.7193858974133  94.4977345788332 28.7193858974133  C 94.4977345788332 28.7193858974133  92.7413495839454 29.7582073074335  92.7413495839454 29.7582073074335  C 92.7413495839454 29.7582073074335  88.3857166799562 30.6469328483249  88.3857166799562 30.6469328483249  C 88.3857166799562 30.6469328483249  88.5270350128782 34.6372951234954  88.5270350128782 34.6372951234954  C 88.5270350128782 34.6372951234954  86.6091433517936 36.1599782168895  86.6091433517936 36.1599782168895  C 86.6091433517936 36.1599782168895  91.3988254211863 40.354762769898  91.3988254211863 40.354762769898  C 91.3988254211863 40.354762769898  92.3350593767947 41.9129948849278  92.3350593767947 41.9129948849278  C 92.3350593767947 41.9129948849278  89.7484291759897 44.0182869440177  89.7484291759897 44.0182869440177  C 89.7484291759897 44.0182869440177  81.8346025323569 46.0840800901788  81.8346025323569 46.0840800901788  C 81.8346025323569 46.0840800901788  76.744619005505 46.9392315550811  76.744619005505 46.9392315550811  C 76.744619005505 46.9392315550811  74.7030738031137 48.2426956817221  74.7030738031137 48.2426956817221  C 74.7030738031137 48.2426956817221  69.0780994444856 46.8641836205169  69.0780994444856 46.8641836205169  C 69.0780994444856 46.8641836205169  63.8392269597335 46.159128024743  63.8392269597335 46.159128024743  C 63.8392269597335 46.159128024743  62.5118440469303 46.6666890558744  62.5118440469303 46.6666890558744  C 62.5118440469303 46.6666890558744  65.6788888293792 48.0965497038866  65.6788888293792 48.0965497038866  C 65.6788888293792 48.0965497038866  65.3937286218758 51.7896980627028  65.3937286218758 51.7896980627028  C 65.3937286218758 51.7896980627028  66.375386327352 55.2596775634726  66.375386327352 55.2596775634726  C 66.375386327352 55.2596775634726  72.3713213099004 55.7316895729685  72.3713213099004 55.7316895729685  C 72.3713213099004 55.7316895729685  72.7523761004581 56.889007721774  72.7523761004581 56.889007721774  C 72.7523761004581 56.889007721774  67.6977221568365 58.4551396193894  67.6977221568365 58.4551396193894  C 67.6977221568365 58.4551396193894  66.8775711175569 60.7855754821716  66.8775711175569 60.7855754821716  C 66.8775711175569 60.7855754821716  63.9628805010403 61.6881256425883  63.9628805010403 61.6881256425883  C 63.9628805010403 61.6881256425883  58.7012961413544 62.971840312765  58.7012961413544 62.971840312765  C 58.7012961413544 62.971840312765  57.3310130203427 64.6564689491661  57.3310130203427 64.6564689491661  C 57.3310130203427 64.6564689491661  51.8296922030215 65.011959165523  51.8296922030215 65.011959165523  C 51.8296922030215 65.011959165523  46.1025340893548 62.1028642283378  46.1025340893548 62.1028642283378  C 46.1025340893548 62.1028642283378  43.9449059706346 56.6144902769206  43.9449059706346 56.6144902769206  C 43.9449059706346 56.6144902769206  42.0623438927808 54.690893217302  42.0623438927808 54.690893217302  C 42.0623438927808 54.690893217302  39.4959020252505 53.4763016447501  39.4959020252505 53.4763016447501  C 39.4959020252505 53.4763016447501  43.0818547231467 50.7350770875113  43.0818547231467 50.7350770875113  C 43.0818547231467 50.7350770875113  42.8370711821924 49.5007360584953  42.8370711821924 49.5007360584953  C 42.8370711821924 49.5007360584953  40.8258084797131 47.8635061176083  40.8258084797131 47.8635061176083  C 40.8258084797131 47.8635061176083  39.4025309838554 44.1980069978423  39.4025309838554 44.1980069978423  C 39.4025309838554 44.1980069978423  39.9577101489064 40.2382409767587  39.9577101489064 40.2382409767587  C 39.9577101489064 40.2382409767587  41.5374472276416 38.383767014765  41.5374472276416 38.383767014765  C 41.5374472276416 38.383767014765  42.8118357655992 35.4055489799549  42.8118357655992 35.4055489799549  C 42.8118357655992 35.4055489799549  40.3084824395521 34.4556001240242  40.3084824395521 34.4556001240242  C 40.3084824395521 34.4556001240242  36.2758628679559 35.0856077852341  36.2758628679559 35.0856077852341  C 36.2758628679559 35.0856077852341  31.178308716126 34.7893659382702  31.178308716126 34.7893659382702  C 31.178308716126 34.7893659382702  28.3191360161145 35.3818496321977  28.3191360161145 35.3818496321977  C 28.3191360161145 35.3818496321977  23.3401883222727 29.1815231786772  23.3401883222727 29.1815231786772  C 23.3401883222727 29.1815231786772  19.2293389592375 28.476467582903  19.2293389592375 28.476467582903  C 19.2293389592375 28.476467582903  10.1294477357234 29.0097029074379  10.1294477357234 29.0097029074379  C 10.1294477357234 29.0097029074379  8.44372190729644 27.0762311195873  8.44372190729644 27.0762311195873  C 8.44372190729644 27.0762311195873  6.70247816236459 26.6121188926771  6.70247816236459 26.6121188926771  C 6.70247816236459 26.6121188926771  6.45517107975089 25.4548007438719  6.45517107975089 25.4548007438719  C 6.45517107975089 25.4548007438719  7.29551045230505 23.3988823259427  7.29551045230505 23.3988823259427  C 7.29551045230505 23.3988823259427  6.73528420393554 21.1612689085423  6.73528420393554 21.1612689085423  C 6.73528420393554 21.1612689085423  5.17321191681547 19.9387775534048  5.17321191681547 19.9387775534048  C 5.17321191681547 19.9387775534048  4.26726046111899 17.3792479956369  4.26726046111899 17.3792479956369  C 4.26726046111899 17.3792479956369  0.615695680080288 17.0059832684625  0.615695680080288 17.0059832684625  C 0.615695680080288 17.0059832684625  2.57648754937348 13.7433730605674  2.57648754937348 13.7433730605674  C 2.57648754937348 13.7433730605674  3.44206233852081 9.75595780043398  3.44206233852081 9.75595780043398  C 3.44206233852081 9.75595780043398  5.49874879086786 7.6763400347476  5.49874879086786 7.6763400347476  C 5.49874879086786 7.6763400347476  8.23679149123209 6.0687342785571  8.23679149123209 6.0687342785571  C 8.23679149123209 6.0687342785571  10.0335531526693 3.26431146063234  10.0335531526693 3.26431146063234  Z " fill-rule="nonzero" fill="#f2f2f2" stroke="none" transform="matrix(1 0 0 1 1318 4275 )" />
    <path d="M 10.0335531526693 3.26431146063234  C 10.0335531526693 3.26431146063234  14.5784516811077 2.32226238728757  14.5784516811077 2.32226238728757  C 14.5784516811077 2.32226238728757  14.3765683483619 3.64942586168572  14.3765683483619 3.64942586168572  C 14.3765683483619 3.64942586168572  10.2228187771182 4.30313287065253  10.2228187771182 4.30313287065253  C 10.2228187771182 4.30313287065253  12.5293358537384 6.85081275454148  12.5293358537384 6.85081275454148  C 12.5293358537384 6.85081275454148  12.4435354373213 9.77768220254452  12.4435354373213 9.77768220254452  C 12.4435354373213 9.77768220254452  9.32191440474035 13.0244928452683  9.32191440474035 13.0244928452683  C 9.32191440474035 13.0244928452683  12.00191564694 17.4503460389085  12.00191564694 17.4503460389085  C 12.00191564694 17.4503460389085  15.0528775130601 17.086956039966  15.0528775130601 17.086956039966  C 15.0528775130601 17.086956039966  16.6401852167735 13.0560919756112  16.6401852167735 13.0560919756112  C 16.6401852167735 13.0560919756112  14.4472275148228 11.0890461117711  14.4472275148228 11.0890461117711  C 14.4472275148228 11.0890461117711  14.0888845991991 6.85278770018813  14.0888845991991 6.85278770018813  C 14.0888845991991 6.85278770018813  22.9010920735506 4.57172547856628  22.9010920735506 4.57172547856628  C 22.9010920735506 4.57172547856628  21.9194343680744 1.92529831235591  21.9194343680744 1.92529831235591  C 21.9194343680744 1.92529831235591  24.4025993608469 0.149822176219073  24.4025993608469 0.149822176219073  C 24.4025993608469 0.149822176219073  26.9412822701248 4.09971346907041  26.9412822701248 4.09971346907041  C 26.9412822701248 4.09971346907041  31.9025651723513 4.1905609688062  31.9025651723513 4.1905609688062  C 31.9025651723513 4.1905609688062  36.5004580756356 7.31887487274439  36.5004580756356 7.31887487274439  C 36.5004580756356 7.31887487274439  36.7780476581609 9.1733488347381  36.7780476581609 9.1733488347381  C 36.7780476581609 9.1733488347381  43.1298020146738 9.2227224758988  43.1298020146738 9.2227224758988  C 43.1298020146738 9.2227224758988  52.5236661593348 8.64603834714254  52.5236661593348 8.64603834714254  C 52.5236661593348 8.64603834714254  56.5764740642056 11.1522443724567  56.5764740642056 11.1522443724567  C 56.5764740642056 11.1522443724567  61.9869473817914 11.8415004030593  61.9869473817914 11.8415004030593  C 61.9869473817914 11.8415004030593  65.9564784119045 10.095648451619  65.9564784119045 10.095648451619  C 65.9564784119045 10.095648451619  66.037231745003 8.68751220571763  66.037231745003 8.68751220571763  C 66.037231745003 8.68751220571763  74.8014919278272 8.34979650017863  74.8014919278272 8.34979650017863  C 74.8014919278272 8.34979650017863  83.2805919031483 8.27079867432176  83.2805919031483 8.27079867432176  C 83.2805919031483 8.27079867432176  77.2720392123033 9.92382818037999  77.2720392123033 9.92382818037999  C 77.2720392123033 9.92382818037999  79.6895921219333 12.5643305096511  79.6895921219333 12.5643305096511  C 79.6895921219333 12.5643305096511  85.3473725221327 12.9830189866936  85.3473725221327 12.9830189866936  C 85.3473725221327 12.9830189866936  90.7124220898507 15.7262184895787  90.7124220898507 15.7262184895787  C 90.7124220898507 15.7262184895787  91.8404452115675 20.1876207048544  91.8404452115675 20.1876207048544  C 91.8404452115675 20.1876207048544  95.5273395758366 20.0631991291298  95.5273395758366 20.0631991291298  C 95.5273395758366 20.0631991291298  98.3007118594312 21.3745630383563  98.3007118594312 21.3745630383563  C 98.3007118594312 21.3745630383563  92.6934022924183 24.6371732462514  92.6934022924183 24.6371732462514  C 92.6934022924183 24.6371732462514  92.0751345858845 26.6614925338378  92.0751345858845 26.6614925338378  C 92.0751345858845 26.6614925338378  94.4977345788332 28.7193858974133  94.4977345788332 28.7193858974133  C 94.4977345788332 28.7193858974133  92.7413495839454 29.7582073074335  92.7413495839454 29.7582073074335  C 92.7413495839454 29.7582073074335  88.3857166799562 30.6469328483249  88.3857166799562 30.6469328483249  C 88.3857166799562 30.6469328483249  88.5270350128782 34.6372951234954  88.5270350128782 34.6372951234954  C 88.5270350128782 34.6372951234954  86.6091433517936 36.1599782168895  86.6091433517936 36.1599782168895  C 86.6091433517936 36.1599782168895  91.3988254211863 40.354762769898  91.3988254211863 40.354762769898  C 91.3988254211863 40.354762769898  92.3350593767947 41.9129948849278  92.3350593767947 41.9129948849278  C 92.3350593767947 41.9129948849278  89.7484291759897 44.0182869440177  89.7484291759897 44.0182869440177  C 89.7484291759897 44.0182869440177  81.8346025323569 46.0840800901788  81.8346025323569 46.0840800901788  C 81.8346025323569 46.0840800901788  76.744619005505 46.9392315550811  76.744619005505 46.9392315550811  C 76.744619005505 46.9392315550811  74.7030738031137 48.2426956817221  74.7030738031137 48.2426956817221  C 74.7030738031137 48.2426956817221  69.0780994444856 46.8641836205169  69.0780994444856 46.8641836205169  C 69.0780994444856 46.8641836205169  63.8392269597335 46.159128024743  63.8392269597335 46.159128024743  C 63.8392269597335 46.159128024743  62.5118440469303 46.6666890558744  62.5118440469303 46.6666890558744  C 62.5118440469303 46.6666890558744  65.6788888293792 48.0965497038866  65.6788888293792 48.0965497038866  C 65.6788888293792 48.0965497038866  65.3937286218758 51.7896980627028  65.3937286218758 51.7896980627028  C 65.3937286218758 51.7896980627028  66.375386327352 55.2596775634726  66.375386327352 55.2596775634726  C 66.375386327352 55.2596775634726  72.3713213099004 55.7316895729685  72.3713213099004 55.7316895729685  C 72.3713213099004 55.7316895729685  72.7523761004581 56.889007721774  72.7523761004581 56.889007721774  C 72.7523761004581 56.889007721774  67.6977221568365 58.4551396193894  67.6977221568365 58.4551396193894  C 67.6977221568365 58.4551396193894  66.8775711175569 60.7855754821716  66.8775711175569 60.7855754821716  C 66.8775711175569 60.7855754821716  63.9628805010403 61.6881256425883  63.9628805010403 61.6881256425883  C 63.9628805010403 61.6881256425883  58.7012961413544 62.971840312765  58.7012961413544 62.971840312765  C 58.7012961413544 62.971840312765  57.3310130203427 64.6564689491661  57.3310130203427 64.6564689491661  C 57.3310130203427 64.6564689491661  51.8296922030215 65.011959165523  51.8296922030215 65.011959165523  C 51.8296922030215 65.011959165523  46.1025340893548 62.1028642283378  46.1025340893548 62.1028642283378  C 46.1025340893548 62.1028642283378  43.9449059706346 56.6144902769206  43.9449059706346 56.6144902769206  C 43.9449059706346 56.6144902769206  42.0623438927808 54.690893217302  42.0623438927808 54.690893217302  C 42.0623438927808 54.690893217302  39.4959020252505 53.4763016447501  39.4959020252505 53.4763016447501  C 39.4959020252505 53.4763016447501  43.0818547231467 50.7350770875113  43.0818547231467 50.7350770875113  C 43.0818547231467 50.7350770875113  42.8370711821924 49.5007360584953  42.8370711821924 49.5007360584953  C 42.8370711821924 49.5007360584953  40.8258084797131 47.8635061176083  40.8258084797131 47.8635061176083  C 40.8258084797131 47.8635061176083  39.4025309838554 44.1980069978423  39.4025309838554 44.1980069978423  C 39.4025309838554 44.1980069978423  39.9577101489064 40.2382409767587  39.9577101489064 40.2382409767587  C 39.9577101489064 40.2382409767587  41.5374472276416 38.383767014765  41.5374472276416 38.383767014765  C 41.5374472276416 38.383767014765  42.8118357655992 35.4055489799549  42.8118357655992 35.4055489799549  C 42.8118357655992 35.4055489799549  40.3084824395521 34.4556001240242  40.3084824395521 34.4556001240242  C 40.3084824395521 34.4556001240242  36.2758628679559 35.0856077852341  36.2758628679559 35.0856077852341  C 36.2758628679559 35.0856077852341  31.178308716126 34.7893659382702  31.178308716126 34.7893659382702  C 31.178308716126 34.7893659382702  28.3191360161145 35.3818496321977  28.3191360161145 35.3818496321977  C 28.3191360161145 35.3818496321977  23.3401883222727 29.1815231786772  23.3401883222727 29.1815231786772  C 23.3401883222727 29.1815231786772  19.2293389592375 28.476467582903  19.2293389592375 28.476467582903  C 19.2293389592375 28.476467582903  10.1294477357234 29.0097029074379  10.1294477357234 29.0097029074379  C 10.1294477357234 29.0097029074379  8.44372190729644 27.0762311195873  8.44372190729644 27.0762311195873  C 8.44372190729644 27.0762311195873  6.70247816236459 26.6121188926771  6.70247816236459 26.6121188926771  C 6.70247816236459 26.6121188926771  6.45517107975089 25.4548007438719  6.45517107975089 25.4548007438719  C 6.45517107975089 25.4548007438719  7.29551045230505 23.3988823259427  7.29551045230505 23.3988823259427  C 7.29551045230505 23.3988823259427  6.73528420393554 21.1612689085423  6.73528420393554 21.1612689085423  C 6.73528420393554 21.1612689085423  5.17321191681547 19.9387775534048  5.17321191681547 19.9387775534048  C 5.17321191681547 19.9387775534048  4.26726046111899 17.3792479956369  4.26726046111899 17.3792479956369  C 4.26726046111899 17.3792479956369  0.615695680080288 17.0059832684625  0.615695680080288 17.0059832684625  C 0.615695680080288 17.0059832684625  2.57648754937348 13.7433730605674  2.57648754937348 13.7433730605674  C 2.57648754937348 13.7433730605674  3.44206233852081 9.75595780043398  3.44206233852081 9.75595780043398  C 3.44206233852081 9.75595780043398  5.49874879086786 7.6763400347476  5.49874879086786 7.6763400347476  C 5.49874879086786 7.6763400347476  8.23679149123209 6.0687342785571  8.23679149123209 6.0687342785571  C 8.23679149123209 6.0687342785571  10.0335531526693 3.26431146063234  10.0335531526693 3.26431146063234  Z " stroke-width="2" stroke="#505050" fill="none" stroke-opacity="0.211764705882353" transform="matrix(1 0 0 1 1318 4275 )" mask="url(#clip255)" />
  </g>
</svg>