<?xml version="1.0" encoding="utf-8"?>
<svg version="1.1" xmlns:xlink="http://www.w3.org/1999/xlink" width="90px" height="95px" xmlns="http://www.w3.org/2000/svg">
  <defs>
    <mask fill="white" id="clip256">
      <path d="M 28.2524158391113 70.9735737399333  C 28.2524158391113 70.9735737399333  26.3613046201257 71.4986163950856  26.3613046201257 71.4986163950856  C 26.3613046201257 71.4986163950856  23.3274363543734 70.1909629898007  23.3274363543734 70.1909629898007  C 23.3274363543734 70.1909629898007  19.8486007429775 68.3642108084784  19.8486007429775 68.3642108084784  C 19.8486007429775 68.3642108084784  17.8336065698069 69.2399423314116  17.8336065698069 69.2399423314116  C 17.8336065698069 69.2399423314116  11.8189627329532 68.4751632186236  11.8189627329532 68.4751632186236  C 11.8189627329532 68.4751632186236  10.0896578214742 66.1015741587277  10.0896578214742 66.1015741587277  C 10.0896578214742 66.1015741587277  8.7699251258721 66.1887510524134  8.7699251258721 66.1887510524134  C 8.7699251258721 66.1887510524134  1.67825805467591 63.0384951214999  1.67825805467591 63.0384951214999  C 1.67825805467591 63.0384951214999  0.7175331038544 61.3246766433614  0.7175331038544 61.3246766433614  C 0.7175331038544 61.3246766433614  3.36205494216849 60.9105863983542  3.36205494216849 60.9105863983542  C 3.36205494216849 60.9105863983542  3.04855522137417 58.1447013168731  3.04855522137417 58.1447013168731  C 3.04855522137417 58.1447013168731  4.71212632042839 56.1435953481796  4.71212632042839 56.1435953481796  C 4.71212632042839 56.1435953481796  8.22888528514619 55.7730935500153  8.22888528514619 55.7730935500153  C 8.22888528514619 55.7730935500153  11.2121890798027 52.3018681468954  11.2121890798027 52.3018681468954  C 11.2121890798027 52.3018681468954  13.924972954096 49.3992738457706  13.924972954096 49.3992738457706  C 13.924972954096 49.3992738457706  11.3133180219942 48.0836952683326  11.3133180219942 48.0836952683326  C 11.3133180219942 48.0836952683326  12.6507482824802 43.4326253138374  12.6507482824802 43.4326253138374  C 12.6507482824802 43.4326253138374  11.0503827722957 38.3644777218394  11.0503827722957 38.3644777218394  C 11.0503827722957 38.3644777218394  12.5698451287268 36.908227338681  12.5698451287268 36.908227338681  C 12.5698451287268 36.908227338681  11.452370317508 32.2125628378851  11.452370317508 32.2125628378851  C 11.452370317508 32.2125628378851  8.58283658281721 29.2505297456112  8.58283658281721 29.2505297456112  C 8.58283658281721 29.2505297456112  9.49046883898829 26.5460647483174  9.49046883898829 26.5460647483174  C 9.49046883898829 26.5460647483174  11.7734547089667 26.9443046490179  11.7734547089667 26.9443046490179  C 11.7734547089667 26.9443046490179  13.1108849694525 25.2899249620286  13.1108849694525 25.2899249620286  C 13.1108849694525 25.2899249620286  11.465011435282 22.00494110451  11.465011435282 22.00494110451  C 11.465011435282 22.00494110451  12.3271356674666 21.188648372726  12.3271356674666 21.188648372726  C 12.3271356674666 21.188648372726  15.9880033748077 21.3649834531357  15.9880033748077 21.3649834531357  C 15.9880033748077 21.3649834531357  21.3073857340933 17.4657987537405  21.3073857340933 17.4657987537405  C 21.3073857340933 17.4657987537405  24.2274839398799 16.8694295492093  24.2274839398799 16.8694295492093  C 24.2274839398799 16.8694295492093  24.2957459758593 15.0189018514272  24.2957459758593 15.0189018514272  C 24.2957459758593 15.0189018514272  25.6028375536877 10.2796489037885  25.6028375536877 10.2796489037885  C 25.6028375536877 10.2796489037885  29.6682210297958 7.67226726537215  29.6682210297958 7.67226726537215  C 29.6682210297958 7.67226726537215  34.135592051116 7.56527744130334  34.135592051116 7.56527744130334  C 34.135592051116 7.56527744130334  34.6993859038348 6.39235196262348  34.6993859038348 6.39235196262348  C 34.6993859038348 6.39235196262348  40.2463083830519 6.86191841270307  40.2463083830519 6.86191841270307  C 40.2463083830519 6.86191841270307  47.6603042388041 4.01876290272753  47.6603042388041 4.01876290272753  C 47.6603042388041 4.01876290272753  50.4236525841936 2.75667923732371  50.4236525841936 2.75667923732371  C 50.4236525841936 2.75667923732371  53.8544519480485 0.036363895723639  53.8544519480485 0.036363895723639  C 53.8544519480485 0.036363895723639  56.3675061615134 0.383090177427765  56.3675061615134 0.383090177427765  C 56.3675061615134 0.383090177427765  58.2257504742865 1.86905995616058  58.2257504742865 1.86905995616058  C 58.2257504742865 1.86905995616058  56.8503968604787 3.76911997990052  56.8503968604787 3.76911997990052  C 56.8503968604787 3.76911997990052  52.2970662382955 4.71419675917432  52.2970662382955 4.71419675917432  C 52.2970662382955 4.71419675917432  50.4969710672826 7.52763287357542  50.4969710672826 7.52763287357542  C 50.4969710672826 7.52763287357542  47.7538485103314 9.14040540676011  47.7538485103314 9.14040540676011  C 47.7538485103314 9.14040540676011  45.6933463131746 11.2267069761011  45.6933463131746 11.2267069761011  C 45.6933463131746 11.2267069761011  42.9894309400031 15.2269376204499  42.9894309400031 15.2269376204499  C 42.9894309400031 15.2269376204499  41.0250012379283 18.5000337197385  41.0250012379283 18.5000337197385  C 41.0250012379283 18.5000337197385  46.5200754155923 18.8744981039792  46.5200754155923 18.8744981039792  C 46.5200754155923 18.8744981039792  47.4277076717632 21.4422538816297  47.4277076717632 21.4422538816297  C 47.4277076717632 21.4422538816297  48.9926780521803 22.6686742723438  48.9926780521803 22.6686742723438  C 48.9926780521803 22.6686742723438  49.5539436813446 24.9134792847497  49.5539436813446 24.9134792847497  C 49.5539436813446 24.9134792847497  48.7120452375983 26.9760053376309  48.7120452375983 26.9760053376309  C 48.7120452375983 26.9760053376309  48.959811145968 28.1370430580805  48.959811145968 28.1370430580805  C 48.959811145968 28.1370430580805  50.7042853987757 28.6026469220837  50.7042853987757 28.6026469220837  C 50.7042853987757 28.6026469220837  52.3931387333778 30.5423328065894  52.3931387333778 30.5423328065894  C 52.3931387333778 30.5423328065894  61.5099128719634 30.0073836862457  61.5099128719634 30.0073836862457  C 61.5099128719634 30.0073836862457  65.6283890427221 30.7147053009227  65.6283890427221 30.7147053009227  C 65.6283890427221 30.7147053009227  70.6165741163297 35.4955654023658  70.6165741163297 35.4955654023658  C 70.6165741163297 35.4955654023658  73.4810514039108 34.9011774908726  73.4810514039108 34.9011774908726  C 73.4810514039108 34.9011774908726  78.588062984594 35.1983714466192  78.588062984594 35.1983714466192  C 78.588062984594 35.1983714466192  82.6281642251543 34.566338967398  82.6281642251543 34.566338967398  C 82.6281642251543 34.566338967398  85.1361619915092 35.5193409188253  85.1361619915092 35.5193409188253  C 85.1361619915092 35.5193409188253  83.8594090963385 38.5071308205976  83.8594090963385 38.5071308205976  C 83.8594090963385 38.5071308205976  82.2767411510379 40.367564983571  82.2767411510379 40.367564983571  C 82.2767411510379 40.367564983571  81.7205319689832 44.3400575253836  81.7205319689832 44.3400575253836  C 81.7205319689832 44.3400575253836  83.1464500538867 49.4567313438816  83.1464500538867 49.4567313438816  C 83.1464500538867 49.4567313438816  85.1614442270573 51.0992232726411  85.1614442270573 51.0992232726411  C 85.1614442270573 51.0992232726411  85.4066819118724 52.3375314215851  85.4066819118724 52.3375314215851  C 85.4066819118724 52.3375314215851  81.8140762405107 55.0875661587599  81.8140762405107 55.0875661587599  C 81.8140762405107 55.0875661587599  84.3852795957356 56.3060613773208  84.3852795957356 56.3060613773208  C 84.3852795957356 56.3060613773208  86.2713343676117 58.2358407966352  86.2713343676117 58.2358407966352  C 86.2713343676117 58.2358407966352  88.4329655069603 63.7418541501002  88.4329655069603 63.7418541501002  C 88.4329655069603 63.7418541501002  87.0930070229196 64.4214376622406  87.0930070229196 64.4214376622406  C 87.0930070229196 64.4214376622406  85.7125969620023 61.1661732002965  85.7125969620023 61.1661732002965  C 85.7125969620023 61.1661732002965  83.7431108128182 59.41471015443  83.7431108128182 59.41471015443  C 83.7431108128182 59.41471015443  81.3969193539696 61.3187327642464  81.3969193539696 61.3187327642464  C 81.3969193539696 61.3187327642464  67.5877622976872 61.1939113028327  67.5877622976872 61.1939113028327  C 67.5877622976872 61.1939113028327  67.6737218985501 64.649286361646  67.6737218985501 64.649286361646  C 67.6737218985501 64.649286361646  71.8275931990758 65.2198987566795  71.8275931990758 65.2198987566795  C 71.8275931990758 65.2198987566795  71.5874119613705 67.3339384285571  71.5874119613705 67.3339384285571  C 71.5874119613705 67.3339384285571  70.1716067706863 66.7613447404851  70.1716067706863 66.7613447404851  C 70.1716067706863 66.7613447404851  66.1770135541125 67.6707582450698  66.1770135541125 67.6707582450698  C 66.1770135541125 67.6707582450698  66.1416184243453 71.6808953546099  66.1416184243453 71.6808953546099  C 66.1416184243453 71.6808953546099  69.2867285265084 73.6938890815333  69.2867285265084 73.6938890815333  C 69.2867285265084 73.6938890815333  70.3966186670628 76.8540514776385  70.3966186670628 76.8540514776385  C 70.3966186670628 76.8540514776385  70.2297559124464 79.2474534679179  70.2297559124464 79.2474534679179  C 70.2297559124464 79.2474534679179  67.0441942334064 94.3984013318777  67.0441942334064 94.3984013318777  C 67.0441942334064 94.3984013318777  63.4945683624763 91.458162463025  63.4945683624763 91.458162463025  C 63.4945683624763 91.458162463025  61.378445247114 91.3273971224964  61.378445247114 91.3273971224964  C 61.378445247114 91.3273971224964  65.9520016577357 85.7025061867331  65.9520016577357 85.7025061867331  C 65.9520016577357 85.7025061867331  60.5239056855938 83.1149374786998  60.5239056855938 83.1149374786998  C 60.5239056855938 83.1149374786998  56.2689054428763 83.590447807894  56.2689054428763 83.590447807894  C 56.2689054428763 83.590447807894  53.7078149818705 82.6354645634285  53.7078149818705 82.6354645634285  C 53.7078149818705 82.6354645634285  49.8017095897143 84.0956775326633  49.8017095897143 84.0956775326633  C 49.8017095897143 84.0956775326633  42.6885723369825 83.4022249692547  42.6885723369825 83.4022249692547  C 42.6885723369825 83.4022249692547  38.5119470244636 77.6148680043498  38.5119470244636 77.6148680043498  C 38.5119470244636 77.6148680043498  35.2303128503416 76.1922996028429  35.2303128503416 76.1922996028429  C 35.2303128503416 76.1922996028429  32.9675527688013 73.588880550503  32.9675527688013 73.588880550503  C 32.9675527688013 73.588880550503  28.2524158391113 70.9735737399333  28.2524158391113 70.9735737399333  Z " fill-rule="evenodd" />
    </mask>
  </defs>
  <g transform="matrix(1 0 0 1 -1277 -4273 )">
    <path d="M 28.2524158391113 70.9735737399333  C 28.2524158391113 70.9735737399333  26.3613046201257 71.4986163950856  26.3613046201257 71.4986163950856  C 26.3613046201257 71.4986163950856  23.3274363543734 70.1909629898007  23.3274363543734 70.1909629898007  C 23.3274363543734 70.1909629898007  19.8486007429775 68.3642108084784  19.8486007429775 68.3642108084784  C 19.8486007429775 68.3642108084784  17.8336065698069 69.2399423314116  17.8336065698069 69.2399423314116  C 17.8336065698069 69.2399423314116  11.8189627329532 68.4751632186236  11.8189627329532 68.4751632186236  C 11.8189627329532 68.4751632186236  10.0896578214742 66.1015741587277  10.0896578214742 66.1015741587277  C 10.0896578214742 66.1015741587277  8.7699251258721 66.1887510524134  8.7699251258721 66.1887510524134  C 8.7699251258721 66.1887510524134  1.67825805467591 63.0384951214999  1.67825805467591 63.0384951214999  C 1.67825805467591 63.0384951214999  0.7175331038544 61.3246766433614  0.7175331038544 61.3246766433614  C 0.7175331038544 61.3246766433614  3.36205494216849 60.9105863983542  3.36205494216849 60.9105863983542  C 3.36205494216849 60.9105863983542  3.04855522137417 58.1447013168731  3.04855522137417 58.1447013168731  C 3.04855522137417 58.1447013168731  4.71212632042839 56.1435953481796  4.71212632042839 56.1435953481796  C 4.71212632042839 56.1435953481796  8.22888528514619 55.7730935500153  8.22888528514619 55.7730935500153  C 8.22888528514619 55.7730935500153  11.2121890798027 52.3018681468954  11.2121890798027 52.3018681468954  C 11.2121890798027 52.3018681468954  13.924972954096 49.3992738457706  13.924972954096 49.3992738457706  C 13.924972954096 49.3992738457706  11.3133180219942 48.0836952683326  11.3133180219942 48.0836952683326  C 11.3133180219942 48.0836952683326  12.6507482824802 43.4326253138374  12.6507482824802 43.4326253138374  C 12.6507482824802 43.4326253138374  11.0503827722957 38.3644777218394  11.0503827722957 38.3644777218394  C 11.0503827722957 38.3644777218394  12.5698451287268 36.908227338681  12.5698451287268 36.908227338681  C 12.5698451287268 36.908227338681  11.452370317508 32.2125628378851  11.452370317508 32.2125628378851  C 11.452370317508 32.2125628378851  8.58283658281721 29.2505297456112  8.58283658281721 29.2505297456112  C 8.58283658281721 29.2505297456112  9.49046883898829 26.5460647483174  9.49046883898829 26.5460647483174  C 9.49046883898829 26.5460647483174  11.7734547089667 26.9443046490179  11.7734547089667 26.9443046490179  C 11.7734547089667 26.9443046490179  13.1108849694525 25.2899249620286  13.1108849694525 25.2899249620286  C 13.1108849694525 25.2899249620286  11.465011435282 22.00494110451  11.465011435282 22.00494110451  C 11.465011435282 22.00494110451  12.3271356674666 21.188648372726  12.3271356674666 21.188648372726  C 12.3271356674666 21.188648372726  15.9880033748077 21.3649834531357  15.9880033748077 21.3649834531357  C 15.9880033748077 21.3649834531357  21.3073857340933 17.4657987537405  21.3073857340933 17.4657987537405  C 21.3073857340933 17.4657987537405  24.2274839398799 16.8694295492093  24.2274839398799 16.8694295492093  C 24.2274839398799 16.8694295492093  24.2957459758593 15.0189018514272  24.2957459758593 15.0189018514272  C 24.2957459758593 15.0189018514272  25.6028375536877 10.2796489037885  25.6028375536877 10.2796489037885  C 25.6028375536877 10.2796489037885  29.6682210297958 7.67226726537215  29.6682210297958 7.67226726537215  C 29.6682210297958 7.67226726537215  34.135592051116 7.56527744130334  34.135592051116 7.56527744130334  C 34.135592051116 7.56527744130334  34.6993859038348 6.39235196262348  34.6993859038348 6.39235196262348  C 34.6993859038348 6.39235196262348  40.2463083830519 6.86191841270307  40.2463083830519 6.86191841270307  C 40.2463083830519 6.86191841270307  47.6603042388041 4.01876290272753  47.6603042388041 4.01876290272753  C 47.6603042388041 4.01876290272753  50.4236525841936 2.75667923732371  50.4236525841936 2.75667923732371  C 50.4236525841936 2.75667923732371  53.8544519480485 0.036363895723639  53.8544519480485 0.036363895723639  C 53.8544519480485 0.036363895723639  56.3675061615134 0.383090177427765  56.3675061615134 0.383090177427765  C 56.3675061615134 0.383090177427765  58.2257504742865 1.86905995616058  58.2257504742865 1.86905995616058  C 58.2257504742865 1.86905995616058  56.8503968604787 3.76911997990052  56.8503968604787 3.76911997990052  C 56.8503968604787 3.76911997990052  52.2970662382955 4.71419675917432  52.2970662382955 4.71419675917432  C 52.2970662382955 4.71419675917432  50.4969710672826 7.52763287357542  50.4969710672826 7.52763287357542  C 50.4969710672826 7.52763287357542  47.7538485103314 9.14040540676011  47.7538485103314 9.14040540676011  C 47.7538485103314 9.14040540676011  45.6933463131746 11.2267069761011  45.6933463131746 11.2267069761011  C 45.6933463131746 11.2267069761011  42.9894309400031 15.2269376204499  42.9894309400031 15.2269376204499  C 42.9894309400031 15.2269376204499  41.0250012379283 18.5000337197385  41.0250012379283 18.5000337197385  C 41.0250012379283 18.5000337197385  46.5200754155923 18.8744981039792  46.5200754155923 18.8744981039792  C 46.5200754155923 18.8744981039792  47.4277076717632 21.4422538816297  47.4277076717632 21.4422538816297  C 47.4277076717632 21.4422538816297  48.9926780521803 22.6686742723438  48.9926780521803 22.6686742723438  C 48.9926780521803 22.6686742723438  49.5539436813446 24.9134792847497  49.5539436813446 24.9134792847497  C 49.5539436813446 24.9134792847497  48.7120452375983 26.9760053376309  48.7120452375983 26.9760053376309  C 48.7120452375983 26.9760053376309  48.959811145968 28.1370430580805  48.959811145968 28.1370430580805  C 48.959811145968 28.1370430580805  50.7042853987757 28.6026469220837  50.7042853987757 28.6026469220837  C 50.7042853987757 28.6026469220837  52.3931387333778 30.5423328065894  52.3931387333778 30.5423328065894  C 52.3931387333778 30.5423328065894  61.5099128719634 30.0073836862457  61.5099128719634 30.0073836862457  C 61.5099128719634 30.0073836862457  65.6283890427221 30.7147053009227  65.6283890427221 30.7147053009227  C 65.6283890427221 30.7147053009227  70.6165741163297 35.4955654023658  70.6165741163297 35.4955654023658  C 70.6165741163297 35.4955654023658  73.4810514039108 34.9011774908726  73.4810514039108 34.9011774908726  C 73.4810514039108 34.9011774908726  78.588062984594 35.1983714466192  78.588062984594 35.1983714466192  C 78.588062984594 35.1983714466192  82.6281642251543 34.566338967398  82.6281642251543 34.566338967398  C 82.6281642251543 34.566338967398  85.1361619915092 35.5193409188253  85.1361619915092 35.5193409188253  C 85.1361619915092 35.5193409188253  83.8594090963385 38.5071308205976  83.8594090963385 38.5071308205976  C 83.8594090963385 38.5071308205976  82.2767411510379 40.367564983571  82.2767411510379 40.367564983571  C 82.2767411510379 40.367564983571  81.7205319689832 44.3400575253836  81.7205319689832 44.3400575253836  C 81.7205319689832 44.3400575253836  83.1464500538867 49.4567313438816  83.1464500538867 49.4567313438816  C 83.1464500538867 49.4567313438816  85.1614442270573 51.0992232726411  85.1614442270573 51.0992232726411  C 85.1614442270573 51.0992232726411  85.4066819118724 52.3375314215851  85.4066819118724 52.3375314215851  C 85.4066819118724 52.3375314215851  81.8140762405107 55.0875661587599  81.8140762405107 55.0875661587599  C 81.8140762405107 55.0875661587599  84.3852795957356 56.3060613773208  84.3852795957356 56.3060613773208  C 84.3852795957356 56.3060613773208  86.2713343676117 58.2358407966352  86.2713343676117 58.2358407966352  C 86.2713343676117 58.2358407966352  88.4329655069603 63.7418541501002  88.4329655069603 63.7418541501002  C 88.4329655069603 63.7418541501002  87.0930070229196 64.4214376622406  87.0930070229196 64.4214376622406  C 87.0930070229196 64.4214376622406  85.7125969620023 61.1661732002965  85.7125969620023 61.1661732002965  C 85.7125969620023 61.1661732002965  83.7431108128182 59.41471015443  83.7431108128182 59.41471015443  C 83.7431108128182 59.41471015443  81.3969193539696 61.3187327642464  81.3969193539696 61.3187327642464  C 81.3969193539696 61.3187327642464  67.5877622976872 61.1939113028327  67.5877622976872 61.1939113028327  C 67.5877622976872 61.1939113028327  67.6737218985501 64.649286361646  67.6737218985501 64.649286361646  C 67.6737218985501 64.649286361646  71.8275931990758 65.2198987566795  71.8275931990758 65.2198987566795  C 71.8275931990758 65.2198987566795  71.5874119613705 67.3339384285571  71.5874119613705 67.3339384285571  C 71.5874119613705 67.3339384285571  70.1716067706863 66.7613447404851  70.1716067706863 66.7613447404851  C 70.1716067706863 66.7613447404851  66.1770135541125 67.6707582450698  66.1770135541125 67.6707582450698  C 66.1770135541125 67.6707582450698  66.1416184243453 71.6808953546099  66.1416184243453 71.6808953546099  C 66.1416184243453 71.6808953546099  69.2867285265084 73.6938890815333  69.2867285265084 73.6938890815333  C 69.2867285265084 73.6938890815333  70.3966186670628 76.8540514776385  70.3966186670628 76.8540514776385  C 70.3966186670628 76.8540514776385  70.2297559124464 79.2474534679179  70.2297559124464 79.2474534679179  C 70.2297559124464 79.2474534679179  67.0441942334064 94.3984013318777  67.0441942334064 94.3984013318777  C 67.0441942334064 94.3984013318777  63.4945683624763 91.458162463025  63.4945683624763 91.458162463025  C 63.4945683624763 91.458162463025  61.378445247114 91.3273971224964  61.378445247114 91.3273971224964  C 61.378445247114 91.3273971224964  65.9520016577357 85.7025061867331  65.9520016577357 85.7025061867331  C 65.9520016577357 85.7025061867331  60.5239056855938 83.1149374786998  60.5239056855938 83.1149374786998  C 60.5239056855938 83.1149374786998  56.2689054428763 83.590447807894  56.2689054428763 83.590447807894  C 56.2689054428763 83.590447807894  53.7078149818705 82.6354645634285  53.7078149818705 82.6354645634285  C 53.7078149818705 82.6354645634285  49.8017095897143 84.0956775326633  49.8017095897143 84.0956775326633  C 49.8017095897143 84.0956775326633  42.6885723369825 83.4022249692547  42.6885723369825 83.4022249692547  C 42.6885723369825 83.4022249692547  38.5119470244636 77.6148680043498  38.5119470244636 77.6148680043498  C 38.5119470244636 77.6148680043498  35.2303128503416 76.1922996028429  35.2303128503416 76.1922996028429  C 35.2303128503416 76.1922996028429  32.9675527688013 73.588880550503  32.9675527688013 73.588880550503  C 32.9675527688013 73.588880550503  28.2524158391113 70.9735737399333  28.2524158391113 70.9735737399333  Z " fill-rule="nonzero" fill="#f2f2f2" stroke="none" transform="matrix(1 0 0 1 1277 4273 )" />
    <path d="M 28.2524158391113 70.9735737399333  C 28.2524158391113 70.9735737399333  26.3613046201257 71.4986163950856  26.3613046201257 71.4986163950856  C 26.3613046201257 71.4986163950856  23.3274363543734 70.1909629898007  23.3274363543734 70.1909629898007  C 23.3274363543734 70.1909629898007  19.8486007429775 68.3642108084784  19.8486007429775 68.3642108084784  C 19.8486007429775 68.3642108084784  17.8336065698069 69.2399423314116  17.8336065698069 69.2399423314116  C 17.8336065698069 69.2399423314116  11.8189627329532 68.4751632186236  11.8189627329532 68.4751632186236  C 11.8189627329532 68.4751632186236  10.0896578214742 66.1015741587277  10.0896578214742 66.1015741587277  C 10.0896578214742 66.1015741587277  8.7699251258721 66.1887510524134  8.7699251258721 66.1887510524134  C 8.7699251258721 66.1887510524134  1.67825805467591 63.0384951214999  1.67825805467591 63.0384951214999  C 1.67825805467591 63.0384951214999  0.7175331038544 61.3246766433614  0.7175331038544 61.3246766433614  C 0.7175331038544 61.3246766433614  3.36205494216849 60.9105863983542  3.36205494216849 60.9105863983542  C 3.36205494216849 60.9105863983542  3.04855522137417 58.1447013168731  3.04855522137417 58.1447013168731  C 3.04855522137417 58.1447013168731  4.71212632042839 56.1435953481796  4.71212632042839 56.1435953481796  C 4.71212632042839 56.1435953481796  8.22888528514619 55.7730935500153  8.22888528514619 55.7730935500153  C 8.22888528514619 55.7730935500153  11.2121890798027 52.3018681468954  11.2121890798027 52.3018681468954  C 11.2121890798027 52.3018681468954  13.924972954096 49.3992738457706  13.924972954096 49.3992738457706  C 13.924972954096 49.3992738457706  11.3133180219942 48.0836952683326  11.3133180219942 48.0836952683326  C 11.3133180219942 48.0836952683326  12.6507482824802 43.4326253138374  12.6507482824802 43.4326253138374  C 12.6507482824802 43.4326253138374  11.0503827722957 38.3644777218394  11.0503827722957 38.3644777218394  C 11.0503827722957 38.3644777218394  12.5698451287268 36.908227338681  12.5698451287268 36.908227338681  C 12.5698451287268 36.908227338681  11.452370317508 32.2125628378851  11.452370317508 32.2125628378851  C 11.452370317508 32.2125628378851  8.58283658281721 29.2505297456112  8.58283658281721 29.2505297456112  C 8.58283658281721 29.2505297456112  9.49046883898829 26.5460647483174  9.49046883898829 26.5460647483174  C 9.49046883898829 26.5460647483174  11.7734547089667 26.9443046490179  11.7734547089667 26.9443046490179  C 11.7734547089667 26.9443046490179  13.1108849694525 25.2899249620286  13.1108849694525 25.2899249620286  C 13.1108849694525 25.2899249620286  11.465011435282 22.00494110451  11.465011435282 22.00494110451  C 11.465011435282 22.00494110451  12.3271356674666 21.188648372726  12.3271356674666 21.188648372726  C 12.3271356674666 21.188648372726  15.9880033748077 21.3649834531357  15.9880033748077 21.3649834531357  C 15.9880033748077 21.3649834531357  21.3073857340933 17.4657987537405  21.3073857340933 17.4657987537405  C 21.3073857340933 17.4657987537405  24.2274839398799 16.8694295492093  24.2274839398799 16.8694295492093  C 24.2274839398799 16.8694295492093  24.2957459758593 15.0189018514272  24.2957459758593 15.0189018514272  C 24.2957459758593 15.0189018514272  25.6028375536877 10.2796489037885  25.6028375536877 10.2796489037885  C 25.6028375536877 10.2796489037885  29.6682210297958 7.67226726537215  29.6682210297958 7.67226726537215  C 29.6682210297958 7.67226726537215  34.135592051116 7.56527744130334  34.135592051116 7.56527744130334  C 34.135592051116 7.56527744130334  34.6993859038348 6.39235196262348  34.6993859038348 6.39235196262348  C 34.6993859038348 6.39235196262348  40.2463083830519 6.86191841270307  40.2463083830519 6.86191841270307  C 40.2463083830519 6.86191841270307  47.6603042388041 4.01876290272753  47.6603042388041 4.01876290272753  C 47.6603042388041 4.01876290272753  50.4236525841936 2.75667923732371  50.4236525841936 2.75667923732371  C 50.4236525841936 2.75667923732371  53.8544519480485 0.036363895723639  53.8544519480485 0.036363895723639  C 53.8544519480485 0.036363895723639  56.3675061615134 0.383090177427765  56.3675061615134 0.383090177427765  C 56.3675061615134 0.383090177427765  58.2257504742865 1.86905995616058  58.2257504742865 1.86905995616058  C 58.2257504742865 1.86905995616058  56.8503968604787 3.76911997990052  56.8503968604787 3.76911997990052  C 56.8503968604787 3.76911997990052  52.2970662382955 4.71419675917432  52.2970662382955 4.71419675917432  C 52.2970662382955 4.71419675917432  50.4969710672826 7.52763287357542  50.4969710672826 7.52763287357542  C 50.4969710672826 7.52763287357542  47.7538485103314 9.14040540676011  47.7538485103314 9.14040540676011  C 47.7538485103314 9.14040540676011  45.6933463131746 11.2267069761011  45.6933463131746 11.2267069761011  C 45.6933463131746 11.2267069761011  42.9894309400031 15.2269376204499  42.9894309400031 15.2269376204499  C 42.9894309400031 15.2269376204499  41.0250012379283 18.5000337197385  41.0250012379283 18.5000337197385  C 41.0250012379283 18.5000337197385  46.5200754155923 18.8744981039792  46.5200754155923 18.8744981039792  C 46.5200754155923 18.8744981039792  47.4277076717632 21.4422538816297  47.4277076717632 21.4422538816297  C 47.4277076717632 21.4422538816297  48.9926780521803 22.6686742723438  48.9926780521803 22.6686742723438  C 48.9926780521803 22.6686742723438  49.5539436813446 24.9134792847497  49.5539436813446 24.9134792847497  C 49.5539436813446 24.9134792847497  48.7120452375983 26.9760053376309  48.7120452375983 26.9760053376309  C 48.7120452375983 26.9760053376309  48.959811145968 28.1370430580805  48.959811145968 28.1370430580805  C 48.959811145968 28.1370430580805  50.7042853987757 28.6026469220837  50.7042853987757 28.6026469220837  C 50.7042853987757 28.6026469220837  52.3931387333778 30.5423328065894  52.3931387333778 30.5423328065894  C 52.3931387333778 30.5423328065894  61.5099128719634 30.0073836862457  61.5099128719634 30.0073836862457  C 61.5099128719634 30.0073836862457  65.6283890427221 30.7147053009227  65.6283890427221 30.7147053009227  C 65.6283890427221 30.7147053009227  70.6165741163297 35.4955654023658  70.6165741163297 35.4955654023658  C 70.6165741163297 35.4955654023658  73.4810514039108 34.9011774908726  73.4810514039108 34.9011774908726  C 73.4810514039108 34.9011774908726  78.588062984594 35.1983714466192  78.588062984594 35.1983714466192  C 78.588062984594 35.1983714466192  82.6281642251543 34.566338967398  82.6281642251543 34.566338967398  C 82.6281642251543 34.566338967398  85.1361619915092 35.5193409188253  85.1361619915092 35.5193409188253  C 85.1361619915092 35.5193409188253  83.8594090963385 38.5071308205976  83.8594090963385 38.5071308205976  C 83.8594090963385 38.5071308205976  82.2767411510379 40.367564983571  82.2767411510379 40.367564983571  C 82.2767411510379 40.367564983571  81.7205319689832 44.3400575253836  81.7205319689832 44.3400575253836  C 81.7205319689832 44.3400575253836  83.1464500538867 49.4567313438816  83.1464500538867 49.4567313438816  C 83.1464500538867 49.4567313438816  85.1614442270573 51.0992232726411  85.1614442270573 51.0992232726411  C 85.1614442270573 51.0992232726411  85.4066819118724 52.3375314215851  85.4066819118724 52.3375314215851  C 85.4066819118724 52.3375314215851  81.8140762405107 55.0875661587599  81.8140762405107 55.0875661587599  C 81.8140762405107 55.0875661587599  84.3852795957356 56.3060613773208  84.3852795957356 56.3060613773208  C 84.3852795957356 56.3060613773208  86.2713343676117 58.2358407966352  86.2713343676117 58.2358407966352  C 86.2713343676117 58.2358407966352  88.4329655069603 63.7418541501002  88.4329655069603 63.7418541501002  C 88.4329655069603 63.7418541501002  87.0930070229196 64.4214376622406  87.0930070229196 64.4214376622406  C 87.0930070229196 64.4214376622406  85.7125969620023 61.1661732002965  85.7125969620023 61.1661732002965  C 85.7125969620023 61.1661732002965  83.7431108128182 59.41471015443  83.7431108128182 59.41471015443  C 83.7431108128182 59.41471015443  81.3969193539696 61.3187327642464  81.3969193539696 61.3187327642464  C 81.3969193539696 61.3187327642464  67.5877622976872 61.1939113028327  67.5877622976872 61.1939113028327  C 67.5877622976872 61.1939113028327  67.6737218985501 64.649286361646  67.6737218985501 64.649286361646  C 67.6737218985501 64.649286361646  71.8275931990758 65.2198987566795  71.8275931990758 65.2198987566795  C 71.8275931990758 65.2198987566795  71.5874119613705 67.3339384285571  71.5874119613705 67.3339384285571  C 71.5874119613705 67.3339384285571  70.1716067706863 66.7613447404851  70.1716067706863 66.7613447404851  C 70.1716067706863 66.7613447404851  66.1770135541125 67.6707582450698  66.1770135541125 67.6707582450698  C 66.1770135541125 67.6707582450698  66.1416184243453 71.6808953546099  66.1416184243453 71.6808953546099  C 66.1416184243453 71.6808953546099  69.2867285265084 73.6938890815333  69.2867285265084 73.6938890815333  C 69.2867285265084 73.6938890815333  70.3966186670628 76.8540514776385  70.3966186670628 76.8540514776385  C 70.3966186670628 76.8540514776385  70.2297559124464 79.2474534679179  70.2297559124464 79.2474534679179  C 70.2297559124464 79.2474534679179  67.0441942334064 94.3984013318777  67.0441942334064 94.3984013318777  C 67.0441942334064 94.3984013318777  63.4945683624763 91.458162463025  63.4945683624763 91.458162463025  C 63.4945683624763 91.458162463025  61.378445247114 91.3273971224964  61.378445247114 91.3273971224964  C 61.378445247114 91.3273971224964  65.9520016577357 85.7025061867331  65.9520016577357 85.7025061867331  C 65.9520016577357 85.7025061867331  60.5239056855938 83.1149374786998  60.5239056855938 83.1149374786998  C 60.5239056855938 83.1149374786998  56.2689054428763 83.590447807894  56.2689054428763 83.590447807894  C 56.2689054428763 83.590447807894  53.7078149818705 82.6354645634285  53.7078149818705 82.6354645634285  C 53.7078149818705 82.6354645634285  49.8017095897143 84.0956775326633  49.8017095897143 84.0956775326633  C 49.8017095897143 84.0956775326633  42.6885723369825 83.4022249692547  42.6885723369825 83.4022249692547  C 42.6885723369825 83.4022249692547  38.5119470244636 77.6148680043498  38.5119470244636 77.6148680043498  C 38.5119470244636 77.6148680043498  35.2303128503416 76.1922996028429  35.2303128503416 76.1922996028429  C 35.2303128503416 76.1922996028429  32.9675527688013 73.588880550503  32.9675527688013 73.588880550503  C 32.9675527688013 73.588880550503  28.2524158391113 70.9735737399333  28.2524158391113 70.9735737399333  Z " stroke-width="2" stroke="#505050" fill="none" stroke-opacity="0.211764705882353" transform="matrix(1 0 0 1 1277 4273 )" mask="url(#clip256)" />
  </g>
</svg>