<?xml version="1.0" encoding="utf-8"?>
<svg version="1.1" xmlns:xlink="http://www.w3.org/1999/xlink" width="60px" height="87px" xmlns="http://www.w3.org/2000/svg">
  <defs>
    <mask fill="white" id="clip257">
      <path d="M 36.8323113431395 40.9778671117882  C 36.8323113431395 40.9778671117882  38.494094809377 49.3136946485648  38.494094809377 49.3136946485648  C 38.494094809377 49.3136946485648  32.1948342905216 46.7010719686689  32.1948342905216 46.7010719686689  C 32.1948342905216 46.7010719686689  24.3752115807162 46.8068542467703  24.3752115807162 46.8068542467703  C 24.3752115807162 46.8068542467703  25.4038155033421 40.8720848336869  25.4038155033421 40.8720848336869  C 25.4038155033421 40.8720848336869  19.2221812238135 40.9060149983611  19.2221812238135 40.9060149983611  C 19.2221812238135 40.9060149983611  18.666584944439 48.6291036789665  18.666584944439 48.6291036789665  C 18.666584944439 48.6291036789665  14.8800211124849 56.9200392116532  14.8800211124849 56.9200392116532  C 14.8800211124849 56.9200392116532  12.6000742182941 61.9137610948459  12.6000742182941 61.9137610948459  C 12.6000742182941 61.9137610948459  13.0805899193749 65.9933644238811  13.0805899193749 65.9933644238811  C 13.0805899193749 65.9933644238811  17.6504944515285 66.1709988154096  17.6504944515285 66.1709988154096  C 17.6504944515285 66.1709988154096  20.4985510548092 71.3044331413776  20.4985510548092 71.3044331413776  C 20.4985510548092 71.3044331413776  21.7599047701465 76.1624343658742  21.7599047701465 76.1624343658742  C 21.7599047701465 76.1624343658742  25.6741055852002 79.371828765624  25.6741055852002 79.371828765624  C 25.6741055852002 79.371828765624  31.7443508207581 80.0224895705484  31.7443508207581 80.0224895705484  C 31.7443508207581 80.0224895705484  35.3807534961247 82.9265124882324  35.3807534961247 82.9265124882324  C 35.3807534961247 82.9265124882324  33.0882931722185 85.2217883338246  33.0882931722185 85.2217883338246  C 33.0882931722185 85.2217883338246  26.6351369873618 85.8904121671059  26.6351369873618 85.8904121671059  C 26.6351369873618 85.8904121671059  26.0845460798733 83.0203194140959  26.0845460798733 83.0203194140959  C 26.0845460798733 83.0203194140959  20.3584006419942 80.5693639894111  20.3584006419942 80.5693639894111  C 20.3584006419942 80.5693639894111  19.1395925876904 81.5673100092341  19.1395925876904 81.5673100092341  C 19.1395925876904 81.5673100092341  16.3666165627034 79.4197301745756  16.3666165627034 79.4197301745756  C 16.3666165627034 79.4197301745756  15.1653273100014 76.6454402394685  15.1653273100014 76.6454402394685  C 15.1653273100014 76.6454402394685  11.4388279406822 73.4799554645909  11.4388279406822 73.4799554645909  C 11.4388279406822 73.4799554645909  8.03767774396998 70.8154395916643  8.03767774396998 70.8154395916643  C 8.03767774396998 70.8154395916643  6.88393952418747 74.1146491331981  6.88393952418747 74.1146491331981  C 6.88393952418747 74.1146491331981  5.55501328838628 70.9970657672722  5.55501328838628 70.9970657672722  C 5.55501328838628 70.9970657672722  6.32083518698354 67.4882875615755  6.32083518698354 67.4882875615755  C 6.32083518698354 67.4882875615755  8.38805377600817 62.0834119182159  8.38805377600817 62.0834119182159  C 8.38805377600817 62.0834119182159  11.7867012867774 56.2733701908081  11.7867012867774 56.2733701908081  C 11.7867012867774 56.2733701908081  15.6408376391958 50.9842562857479  15.6408376391958 50.9842562857479  C 15.6408376391958 50.9842562857479  12.8978938455264 45.7929410906303  12.8978938455264 45.7929410906303  C 12.8978938455264 45.7929410906303  13.0080120270242 41.6923964619814  13.0080120270242 41.6923964619814  C 13.0080120270242 41.6923964619814  12.2046498392795 38.4989691985486  12.2046498392795 38.4989691985486  C 12.2046498392795 38.4989691985486  7.52462712562853 33.9403517799988  7.52462712562853 33.9403517799988  C 7.52462712562853 33.9403517799988  5.85033022967516 31.0542918906714  5.85033022967516 31.0542918906714  C 5.85033022967516 31.0542918906714  8.27293022262438 29.9904814335405  8.27293022262438 29.9904814335405  C 8.27293022262438 29.9904814335405  10.8406860002746 24.9648252777135  10.8406860002746 24.9648252777135  C 10.8406860002746 24.9648252777135  7.96760253756226 21.1387002377131  7.96760253756226 21.1387002377131  C 7.96760253756226 21.1387002377131  3.51532424473589 16.8874501932687  3.51532424473589 16.8874501932687  C 3.51532424473589 16.8874501932687  0.121682105853076 11.7540158673007  0.121682105853076 11.7540158673007  C 0.121682105853076 11.7540158673007  3.08486226251799 10.68820951813  3.08486226251799 10.68820951813  C 3.08486226251799 10.68820951813  6.28329489783648 4.32131391166114  6.28329489783648 4.32131391166114  C 6.28329489783648 4.32131391166114  11.2386130652319 4.05586027038847  11.2386130652319 4.05586027038847  C 11.2386130652319 4.05586027038847  15.3305045822477 1.48914310740465  15.3305045822477 1.48914310740465  C 15.3305045822477 1.48914310740465  19.3523208928565 0.117965276168093  19.3523208928565 0.117965276168093  C 19.3523208928565 0.117965276168093  22.3880789418718 1.94819827652316  22.3880789418718 1.94819827652316  C 22.3880789418718 1.94819827652316  22.7910113787154 5.50088610709173  22.7910113787154 5.50088610709173  C 22.7910113787154 5.50088610709173  27.5310985550017 5.77232742448368  27.5310985550017 5.77232742448368  C 27.5310985550017 5.77232742448368  25.8067479401858 11.9675763155426  25.8067479401858 11.9675763155426  C 25.8067479401858 11.9675763155426  25.9719252124325 17.2087888116515  25.9719252124325 17.2087888116515  C 25.9719252124325 17.2087888116515  35.1855439925608 13.7239613104307  35.1855439925608 13.7239613104307  C 35.1855439925608 13.7239613104307  37.287800184789 14.7558374949272  37.287800184789 14.7558374949272  C 37.287800184789 14.7558374949272  41.3972105034071 14.5861866715575  41.3972105034071 14.5861866715575  C 41.3972105034071 14.5861866715575  42.8112280612748 12.550376791119  42.8112280612748 12.550376791119  C 42.8112280612748 12.550376791119  48.116922260708 12.9515510910879  48.116922260708 12.9515510910879  C 48.116922260708 12.9515510910879  53.4551513774022 17.6977823613645  53.4551513774022 17.6977823613645  C 53.4551513774022 17.6977823613645  53.8931214174499 23.4359719753451  53.8931214174499 23.4359719753451  C 53.8931214174499 23.4359719753451  59.5742185083526 28.4795911595291  59.5742185083526 28.4795911595291  C 59.5742185083526 28.4795911595291  59.2613827654614 33.3555554123826  59.2613827654614 33.3555554123826  C 59.2613827654614 33.3555554123826  56.9764304993846 35.9442273878027  56.9764304993846 35.9442273878027  C 56.9764304993846 35.9442273878027  50.3993718408418 35.1199239754291  50.3993718408418 35.1199239754291  C 50.3993718408418 35.1199239754291  41.3271352969993 36.2176645972338  41.3271352969993 36.2176645972338  C 41.3271352969993 36.2176645972338  36.8323113431395 40.9778671117882  36.8323113431395 40.9778671117882  Z " fill-rule="evenodd" />
    </mask>
  </defs>
  <g transform="matrix(1 0 0 1 -2533 -4227 )">
    <path d="M 36.8323113431395 40.9778671117882  C 36.8323113431395 40.9778671117882  38.494094809377 49.3136946485648  38.494094809377 49.3136946485648  C 38.494094809377 49.3136946485648  32.1948342905216 46.7010719686689  32.1948342905216 46.7010719686689  C 32.1948342905216 46.7010719686689  24.3752115807162 46.8068542467703  24.3752115807162 46.8068542467703  C 24.3752115807162 46.8068542467703  25.4038155033421 40.8720848336869  25.4038155033421 40.8720848336869  C 25.4038155033421 40.8720848336869  19.2221812238135 40.9060149983611  19.2221812238135 40.9060149983611  C 19.2221812238135 40.9060149983611  18.666584944439 48.6291036789665  18.666584944439 48.6291036789665  C 18.666584944439 48.6291036789665  14.8800211124849 56.9200392116532  14.8800211124849 56.9200392116532  C 14.8800211124849 56.9200392116532  12.6000742182941 61.9137610948459  12.6000742182941 61.9137610948459  C 12.6000742182941 61.9137610948459  13.0805899193749 65.9933644238811  13.0805899193749 65.9933644238811  C 13.0805899193749 65.9933644238811  17.6504944515285 66.1709988154096  17.6504944515285 66.1709988154096  C 17.6504944515285 66.1709988154096  20.4985510548092 71.3044331413776  20.4985510548092 71.3044331413776  C 20.4985510548092 71.3044331413776  21.7599047701465 76.1624343658742  21.7599047701465 76.1624343658742  C 21.7599047701465 76.1624343658742  25.6741055852002 79.371828765624  25.6741055852002 79.371828765624  C 25.6741055852002 79.371828765624  31.7443508207581 80.0224895705484  31.7443508207581 80.0224895705484  C 31.7443508207581 80.0224895705484  35.3807534961247 82.9265124882324  35.3807534961247 82.9265124882324  C 35.3807534961247 82.9265124882324  33.0882931722185 85.2217883338246  33.0882931722185 85.2217883338246  C 33.0882931722185 85.2217883338246  26.6351369873618 85.8904121671059  26.6351369873618 85.8904121671059  C 26.6351369873618 85.8904121671059  26.0845460798733 83.0203194140959  26.0845460798733 83.0203194140959  C 26.0845460798733 83.0203194140959  20.3584006419942 80.5693639894111  20.3584006419942 80.5693639894111  C 20.3584006419942 80.5693639894111  19.1395925876904 81.5673100092341  19.1395925876904 81.5673100092341  C 19.1395925876904 81.5673100092341  16.3666165627034 79.4197301745756  16.3666165627034 79.4197301745756  C 16.3666165627034 79.4197301745756  15.1653273100014 76.6454402394685  15.1653273100014 76.6454402394685  C 15.1653273100014 76.6454402394685  11.4388279406822 73.4799554645909  11.4388279406822 73.4799554645909  C 11.4388279406822 73.4799554645909  8.03767774396998 70.8154395916643  8.03767774396998 70.8154395916643  C 8.03767774396998 70.8154395916643  6.88393952418747 74.1146491331981  6.88393952418747 74.1146491331981  C 6.88393952418747 74.1146491331981  5.55501328838628 70.9970657672722  5.55501328838628 70.9970657672722  C 5.55501328838628 70.9970657672722  6.32083518698354 67.4882875615755  6.32083518698354 67.4882875615755  C 6.32083518698354 67.4882875615755  8.38805377600817 62.0834119182159  8.38805377600817 62.0834119182159  C 8.38805377600817 62.0834119182159  11.7867012867774 56.2733701908081  11.7867012867774 56.2733701908081  C 11.7867012867774 56.2733701908081  15.6408376391958 50.9842562857479  15.6408376391958 50.9842562857479  C 15.6408376391958 50.9842562857479  12.8978938455264 45.7929410906303  12.8978938455264 45.7929410906303  C 12.8978938455264 45.7929410906303  13.0080120270242 41.6923964619814  13.0080120270242 41.6923964619814  C 13.0080120270242 41.6923964619814  12.2046498392795 38.4989691985486  12.2046498392795 38.4989691985486  C 12.2046498392795 38.4989691985486  7.52462712562853 33.9403517799988  7.52462712562853 33.9403517799988  C 7.52462712562853 33.9403517799988  5.85033022967516 31.0542918906714  5.85033022967516 31.0542918906714  C 5.85033022967516 31.0542918906714  8.27293022262438 29.9904814335405  8.27293022262438 29.9904814335405  C 8.27293022262438 29.9904814335405  10.8406860002746 24.9648252777135  10.8406860002746 24.9648252777135  C 10.8406860002746 24.9648252777135  7.96760253756226 21.1387002377131  7.96760253756226 21.1387002377131  C 7.96760253756226 21.1387002377131  3.51532424473589 16.8874501932687  3.51532424473589 16.8874501932687  C 3.51532424473589 16.8874501932687  0.121682105853076 11.7540158673007  0.121682105853076 11.7540158673007  C 0.121682105853076 11.7540158673007  3.08486226251799 10.68820951813  3.08486226251799 10.68820951813  C 3.08486226251799 10.68820951813  6.28329489783648 4.32131391166114  6.28329489783648 4.32131391166114  C 6.28329489783648 4.32131391166114  11.2386130652319 4.05586027038847  11.2386130652319 4.05586027038847  C 11.2386130652319 4.05586027038847  15.3305045822477 1.48914310740465  15.3305045822477 1.48914310740465  C 15.3305045822477 1.48914310740465  19.3523208928565 0.117965276168093  19.3523208928565 0.117965276168093  C 19.3523208928565 0.117965276168093  22.3880789418718 1.94819827652316  22.3880789418718 1.94819827652316  C 22.3880789418718 1.94819827652316  22.7910113787154 5.50088610709173  22.7910113787154 5.50088610709173  C 22.7910113787154 5.50088610709173  27.5310985550017 5.77232742448368  27.5310985550017 5.77232742448368  C 27.5310985550017 5.77232742448368  25.8067479401858 11.9675763155426  25.8067479401858 11.9675763155426  C 25.8067479401858 11.9675763155426  25.9719252124325 17.2087888116515  25.9719252124325 17.2087888116515  C 25.9719252124325 17.2087888116515  35.1855439925608 13.7239613104307  35.1855439925608 13.7239613104307  C 35.1855439925608 13.7239613104307  37.287800184789 14.7558374949272  37.287800184789 14.7558374949272  C 37.287800184789 14.7558374949272  41.3972105034071 14.5861866715575  41.3972105034071 14.5861866715575  C 41.3972105034071 14.5861866715575  42.8112280612748 12.550376791119  42.8112280612748 12.550376791119  C 42.8112280612748 12.550376791119  48.116922260708 12.9515510910879  48.116922260708 12.9515510910879  C 48.116922260708 12.9515510910879  53.4551513774022 17.6977823613645  53.4551513774022 17.6977823613645  C 53.4551513774022 17.6977823613645  53.8931214174499 23.4359719753451  53.8931214174499 23.4359719753451  C 53.8931214174499 23.4359719753451  59.5742185083526 28.4795911595291  59.5742185083526 28.4795911595291  C 59.5742185083526 28.4795911595291  59.2613827654614 33.3555554123826  59.2613827654614 33.3555554123826  C 59.2613827654614 33.3555554123826  56.9764304993846 35.9442273878027  56.9764304993846 35.9442273878027  C 56.9764304993846 35.9442273878027  50.3993718408418 35.1199239754291  50.3993718408418 35.1199239754291  C 50.3993718408418 35.1199239754291  41.3271352969993 36.2176645972338  41.3271352969993 36.2176645972338  C 41.3271352969993 36.2176645972338  36.8323113431395 40.9778671117882  36.8323113431395 40.9778671117882  Z " fill-rule="nonzero" fill="#f2f2f2" stroke="none" transform="matrix(1 0 0 1 2533 4227 )" />
    <path d="M 36.8323113431395 40.9778671117882  C 36.8323113431395 40.9778671117882  38.494094809377 49.3136946485648  38.494094809377 49.3136946485648  C 38.494094809377 49.3136946485648  32.1948342905216 46.7010719686689  32.1948342905216 46.7010719686689  C 32.1948342905216 46.7010719686689  24.3752115807162 46.8068542467703  24.3752115807162 46.8068542467703  C 24.3752115807162 46.8068542467703  25.4038155033421 40.8720848336869  25.4038155033421 40.8720848336869  C 25.4038155033421 40.8720848336869  19.2221812238135 40.9060149983611  19.2221812238135 40.9060149983611  C 19.2221812238135 40.9060149983611  18.666584944439 48.6291036789665  18.666584944439 48.6291036789665  C 18.666584944439 48.6291036789665  14.8800211124849 56.9200392116532  14.8800211124849 56.9200392116532  C 14.8800211124849 56.9200392116532  12.6000742182941 61.9137610948459  12.6000742182941 61.9137610948459  C 12.6000742182941 61.9137610948459  13.0805899193749 65.9933644238811  13.0805899193749 65.9933644238811  C 13.0805899193749 65.9933644238811  17.6504944515285 66.1709988154096  17.6504944515285 66.1709988154096  C 17.6504944515285 66.1709988154096  20.4985510548092 71.3044331413776  20.4985510548092 71.3044331413776  C 20.4985510548092 71.3044331413776  21.7599047701465 76.1624343658742  21.7599047701465 76.1624343658742  C 21.7599047701465 76.1624343658742  25.6741055852002 79.371828765624  25.6741055852002 79.371828765624  C 25.6741055852002 79.371828765624  31.7443508207581 80.0224895705484  31.7443508207581 80.0224895705484  C 31.7443508207581 80.0224895705484  35.3807534961247 82.9265124882324  35.3807534961247 82.9265124882324  C 35.3807534961247 82.9265124882324  33.0882931722185 85.2217883338246  33.0882931722185 85.2217883338246  C 33.0882931722185 85.2217883338246  26.6351369873618 85.8904121671059  26.6351369873618 85.8904121671059  C 26.6351369873618 85.8904121671059  26.0845460798733 83.0203194140959  26.0845460798733 83.0203194140959  C 26.0845460798733 83.0203194140959  20.3584006419942 80.5693639894111  20.3584006419942 80.5693639894111  C 20.3584006419942 80.5693639894111  19.1395925876904 81.5673100092341  19.1395925876904 81.5673100092341  C 19.1395925876904 81.5673100092341  16.3666165627034 79.4197301745756  16.3666165627034 79.4197301745756  C 16.3666165627034 79.4197301745756  15.1653273100014 76.6454402394685  15.1653273100014 76.6454402394685  C 15.1653273100014 76.6454402394685  11.4388279406822 73.4799554645909  11.4388279406822 73.4799554645909  C 11.4388279406822 73.4799554645909  8.03767774396998 70.8154395916643  8.03767774396998 70.8154395916643  C 8.03767774396998 70.8154395916643  6.88393952418747 74.1146491331981  6.88393952418747 74.1146491331981  C 6.88393952418747 74.1146491331981  5.55501328838628 70.9970657672722  5.55501328838628 70.9970657672722  C 5.55501328838628 70.9970657672722  6.32083518698354 67.4882875615755  6.32083518698354 67.4882875615755  C 6.32083518698354 67.4882875615755  8.38805377600817 62.0834119182159  8.38805377600817 62.0834119182159  C 8.38805377600817 62.0834119182159  11.7867012867774 56.2733701908081  11.7867012867774 56.2733701908081  C 11.7867012867774 56.2733701908081  15.6408376391958 50.9842562857479  15.6408376391958 50.9842562857479  C 15.6408376391958 50.9842562857479  12.8978938455264 45.7929410906303  12.8978938455264 45.7929410906303  C 12.8978938455264 45.7929410906303  13.0080120270242 41.6923964619814  13.0080120270242 41.6923964619814  C 13.0080120270242 41.6923964619814  12.2046498392795 38.4989691985486  12.2046498392795 38.4989691985486  C 12.2046498392795 38.4989691985486  7.52462712562853 33.9403517799988  7.52462712562853 33.9403517799988  C 7.52462712562853 33.9403517799988  5.85033022967516 31.0542918906714  5.85033022967516 31.0542918906714  C 5.85033022967516 31.0542918906714  8.27293022262438 29.9904814335405  8.27293022262438 29.9904814335405  C 8.27293022262438 29.9904814335405  10.8406860002746 24.9648252777135  10.8406860002746 24.9648252777135  C 10.8406860002746 24.9648252777135  7.96760253756226 21.1387002377131  7.96760253756226 21.1387002377131  C 7.96760253756226 21.1387002377131  3.51532424473589 16.8874501932687  3.51532424473589 16.8874501932687  C 3.51532424473589 16.8874501932687  0.121682105853076 11.7540158673007  0.121682105853076 11.7540158673007  C 0.121682105853076 11.7540158673007  3.08486226251799 10.68820951813  3.08486226251799 10.68820951813  C 3.08486226251799 10.68820951813  6.28329489783648 4.32131391166114  6.28329489783648 4.32131391166114  C 6.28329489783648 4.32131391166114  11.2386130652319 4.05586027038847  11.2386130652319 4.05586027038847  C 11.2386130652319 4.05586027038847  15.3305045822477 1.48914310740465  15.3305045822477 1.48914310740465  C 15.3305045822477 1.48914310740465  19.3523208928565 0.117965276168093  19.3523208928565 0.117965276168093  C 19.3523208928565 0.117965276168093  22.3880789418718 1.94819827652316  22.3880789418718 1.94819827652316  C 22.3880789418718 1.94819827652316  22.7910113787154 5.50088610709173  22.7910113787154 5.50088610709173  C 22.7910113787154 5.50088610709173  27.5310985550017 5.77232742448368  27.5310985550017 5.77232742448368  C 27.5310985550017 5.77232742448368  25.8067479401858 11.9675763155426  25.8067479401858 11.9675763155426  C 25.8067479401858 11.9675763155426  25.9719252124325 17.2087888116515  25.9719252124325 17.2087888116515  C 25.9719252124325 17.2087888116515  35.1855439925608 13.7239613104307  35.1855439925608 13.7239613104307  C 35.1855439925608 13.7239613104307  37.287800184789 14.7558374949272  37.287800184789 14.7558374949272  C 37.287800184789 14.7558374949272  41.3972105034071 14.5861866715575  41.3972105034071 14.5861866715575  C 41.3972105034071 14.5861866715575  42.8112280612748 12.550376791119  42.8112280612748 12.550376791119  C 42.8112280612748 12.550376791119  48.116922260708 12.9515510910879  48.116922260708 12.9515510910879  C 48.116922260708 12.9515510910879  53.4551513774022 17.6977823613645  53.4551513774022 17.6977823613645  C 53.4551513774022 17.6977823613645  53.8931214174499 23.4359719753451  53.8931214174499 23.4359719753451  C 53.8931214174499 23.4359719753451  59.5742185083526 28.4795911595291  59.5742185083526 28.4795911595291  C 59.5742185083526 28.4795911595291  59.2613827654614 33.3555554123826  59.2613827654614 33.3555554123826  C 59.2613827654614 33.3555554123826  56.9764304993846 35.9442273878027  56.9764304993846 35.9442273878027  C 56.9764304993846 35.9442273878027  50.3993718408418 35.1199239754291  50.3993718408418 35.1199239754291  C 50.3993718408418 35.1199239754291  41.3271352969993 36.2176645972338  41.3271352969993 36.2176645972338  C 41.3271352969993 36.2176645972338  36.8323113431395 40.9778671117882  36.8323113431395 40.9778671117882  Z " stroke-width="2" stroke="#505050" fill="none" stroke-opacity="0.211764705882353" transform="matrix(1 0 0 1 2533 4227 )" mask="url(#clip257)" />
  </g>
</svg>