<?xml version="1.0" encoding="utf-8"?>
<svg version="1.1" xmlns:xlink="http://www.w3.org/1999/xlink" width="57px" height="33px" xmlns="http://www.w3.org/2000/svg">
  <defs>
    <mask fill="white" id="clip258">
      <path d="M 23.413026023546 6.08654290251066  C 23.413026023546 6.08654290251066  26.3413260040258 5.89892306610035  26.3413260040258 5.89892306610035  C 26.3413260040258 5.89892306610035  23.7445794353376 8.12271186397563  23.7445794353376 8.12271186397563  C 23.7445794353376 8.12271186397563  16.0201442232162 6.91799501965592  16.0201442232162 6.91799501965592  C 16.0201442232162 6.91799501965592  15.3469136313341 11.0574810945642  15.3469136313341 11.0574810945642  C 15.3469136313341 11.0574810945642  23.0435084806334 10.5025213679186  23.0435084806334 10.5025213679186  C 23.0435084806334 10.5025213679186  33.6468705628947 12.8211075568224  33.6468705628947 12.8211075568224  C 33.6468705628947 12.8211075568224  47.0659254431925 11.7408122882275  47.0659254431925 11.7408122882275  C 47.0659254431925 11.7408122882275  48.8654252583362 19.7383392799957  48.8654252583362 19.7383392799957  C 48.8654252583362 19.7383392799957  51.1964229091766 19.0293337929289  51.1964229091766 19.0293337929289  C 51.1964229091766 19.0293337929289  55.506617262467 20.6329896578266  55.506617262467 20.6329896578266  C 55.506617262467 20.6329896578266  55.2585849391423 23.3603895955404  55.2585849391423 23.3603895955404  C 55.2585849391423 23.3603895955404  56.3241115526097 27.3339802361489  56.3241115526097 27.3339802361489  C 56.3241115526097 27.3339802361489  49.0046270724471 27.3221305622705  49.0046270724471 27.3221305622705  C 49.0046270724471 27.3221305622705  44.1173779261145 26.8106196398462  44.1173779261145 26.8106196398462  C 44.1173779261145 26.8106196398462  39.6958221215351 29.913259250381  39.6958221215351 29.913259250381  C 39.6958221215351 29.913259250381  36.5473301805525 30.5985653896907  36.5473301805525 30.5985653896907  C 36.5473301805525 30.5985653896907  34.0720688314516 32.0462005485208  34.0720688314516 32.0462005485208  C 34.0720688314516 32.0462005485208  31.2652540705599 29.7888376746563  31.2652540705599 29.7888376746563  C 31.2652540705599 29.7888376746563  31.9258299520682 23.9508983438218  31.9258299520682 23.9508983438218  C 31.9258299520682 23.9508983438218  29.7795910726843 23.6171325295759  29.7795910726843 23.6171325295759  C 29.7795910726843 23.6171325295759  30.5515284054814 21.4762914488505  30.5515284054814 21.4762914488505  C 30.5515284054814 21.4762914488505  24.8708486585992 19.8765854752456  24.8708486585992 19.8765854752456  C 24.8708486585992 19.8765854752456  21.8160015743819 22.3215681855206  21.8160015743819 22.3215681855206  C 21.8160015743819 22.3215681855206  21.0643117781825 25.1417905686165  21.0643117781825 25.1417905686165  C 21.0643117781825 25.1417905686165  19.9734757439676 26.164812413465  19.9734757439676 26.164812413465  C 19.9734757439676 26.164812413465  15.7316168266951 26.0186664356294  15.7316168266951 26.0186664356294  C 15.7316168266951 26.0186664356294  13.4436451911257 29.1963539807285  13.4436451911257 29.1963539807285  C 13.4436451911257 29.1963539807285  11.0493739884167 27.8593157780982  11.0493739884167 27.8593157780982  C 11.0493739884167 27.8593157780982  5.91409251875927 30.0831045759735  5.91409251875927 30.0831045759735  C 5.91409251875927 30.0831045759735  3.74507516070304 29.2398027849498  3.74507516070304 29.2398027849498  C 3.74507516070304 29.2398027849498  7.73383987050115 22.1912217728565  7.73383987050115 22.1912217728565  C 7.73383987050115 22.1912217728565  6.20008897320534 15.5070336359613  6.20008897320534 15.5070336359613  C 6.20008897320534 15.5070336359613  0.99394112545496 13.8145052169745  0.99394112545496 13.8145052169745  C 0.99394112545496 13.8145052169745  2.83393601379459 10.6723666935112  2.83393601379459 10.6723666935112  C 2.83393601379459 10.6723666935112  8.75887141077269 11.0081074534036  8.75887141077269 11.0081074534036  C 8.75887141077269 11.0081074534036  12.1300862543331 7.04044164973436  12.1300862543331 7.04044164973436  C 12.1300862543331 7.04044164973436  14.3876865850054 2.39339454369465  14.3876865850054 2.39339454369465  C 14.3876865850054 2.39339454369465  23.8761884232247 0.698891179061327  23.8761884232247 0.698891179061327  C 23.8761884232247 0.698891179061327  22.3981182515733 4.07407328880289  22.3981182515733 4.07407328880289  C 22.3981182515733 4.07407328880289  23.413026023546 6.08654290251066  23.413026023546 6.08654290251066  Z " fill-rule="evenodd" />
    </mask>
  </defs>
  <g transform="matrix(1 0 0 1 -2318 -4094 )">
    <path d="M 23.413026023546 6.08654290251066  C 23.413026023546 6.08654290251066  26.3413260040258 5.89892306610035  26.3413260040258 5.89892306610035  C 26.3413260040258 5.89892306610035  23.7445794353376 8.12271186397563  23.7445794353376 8.12271186397563  C 23.7445794353376 8.12271186397563  16.0201442232162 6.91799501965592  16.0201442232162 6.91799501965592  C 16.0201442232162 6.91799501965592  15.3469136313341 11.0574810945642  15.3469136313341 11.0574810945642  C 15.3469136313341 11.0574810945642  23.0435084806334 10.5025213679186  23.0435084806334 10.5025213679186  C 23.0435084806334 10.5025213679186  33.6468705628947 12.8211075568224  33.6468705628947 12.8211075568224  C 33.6468705628947 12.8211075568224  47.0659254431925 11.7408122882275  47.0659254431925 11.7408122882275  C 47.0659254431925 11.7408122882275  48.8654252583362 19.7383392799957  48.8654252583362 19.7383392799957  C 48.8654252583362 19.7383392799957  51.1964229091766 19.0293337929289  51.1964229091766 19.0293337929289  C 51.1964229091766 19.0293337929289  55.506617262467 20.6329896578266  55.506617262467 20.6329896578266  C 55.506617262467 20.6329896578266  55.2585849391423 23.3603895955404  55.2585849391423 23.3603895955404  C 55.2585849391423 23.3603895955404  56.3241115526097 27.3339802361489  56.3241115526097 27.3339802361489  C 56.3241115526097 27.3339802361489  49.0046270724471 27.3221305622705  49.0046270724471 27.3221305622705  C 49.0046270724471 27.3221305622705  44.1173779261145 26.8106196398462  44.1173779261145 26.8106196398462  C 44.1173779261145 26.8106196398462  39.6958221215351 29.913259250381  39.6958221215351 29.913259250381  C 39.6958221215351 29.913259250381  36.5473301805525 30.5985653896907  36.5473301805525 30.5985653896907  C 36.5473301805525 30.5985653896907  34.0720688314516 32.0462005485208  34.0720688314516 32.0462005485208  C 34.0720688314516 32.0462005485208  31.2652540705599 29.7888376746563  31.2652540705599 29.7888376746563  C 31.2652540705599 29.7888376746563  31.9258299520682 23.9508983438218  31.9258299520682 23.9508983438218  C 31.9258299520682 23.9508983438218  29.7795910726843 23.6171325295759  29.7795910726843 23.6171325295759  C 29.7795910726843 23.6171325295759  30.5515284054814 21.4762914488505  30.5515284054814 21.4762914488505  C 30.5515284054814 21.4762914488505  24.8708486585992 19.8765854752456  24.8708486585992 19.8765854752456  C 24.8708486585992 19.8765854752456  21.8160015743819 22.3215681855206  21.8160015743819 22.3215681855206  C 21.8160015743819 22.3215681855206  21.0643117781825 25.1417905686165  21.0643117781825 25.1417905686165  C 21.0643117781825 25.1417905686165  19.9734757439676 26.164812413465  19.9734757439676 26.164812413465  C 19.9734757439676 26.164812413465  15.7316168266951 26.0186664356294  15.7316168266951 26.0186664356294  C 15.7316168266951 26.0186664356294  13.4436451911257 29.1963539807285  13.4436451911257 29.1963539807285  C 13.4436451911257 29.1963539807285  11.0493739884167 27.8593157780982  11.0493739884167 27.8593157780982  C 11.0493739884167 27.8593157780982  5.91409251875927 30.0831045759735  5.91409251875927 30.0831045759735  C 5.91409251875927 30.0831045759735  3.74507516070304 29.2398027849498  3.74507516070304 29.2398027849498  C 3.74507516070304 29.2398027849498  7.73383987050115 22.1912217728565  7.73383987050115 22.1912217728565  C 7.73383987050115 22.1912217728565  6.20008897320534 15.5070336359613  6.20008897320534 15.5070336359613  C 6.20008897320534 15.5070336359613  0.99394112545496 13.8145052169745  0.99394112545496 13.8145052169745  C 0.99394112545496 13.8145052169745  2.83393601379459 10.6723666935112  2.83393601379459 10.6723666935112  C 2.83393601379459 10.6723666935112  8.75887141077269 11.0081074534036  8.75887141077269 11.0081074534036  C 8.75887141077269 11.0081074534036  12.1300862543331 7.04044164973436  12.1300862543331 7.04044164973436  C 12.1300862543331 7.04044164973436  14.3876865850054 2.39339454369465  14.3876865850054 2.39339454369465  C 14.3876865850054 2.39339454369465  23.8761884232247 0.698891179061327  23.8761884232247 0.698891179061327  C 23.8761884232247 0.698891179061327  22.3981182515733 4.07407328880289  22.3981182515733 4.07407328880289  C 22.3981182515733 4.07407328880289  23.413026023546 6.08654290251066  23.413026023546 6.08654290251066  Z " fill-rule="nonzero" fill="#f2f2f2" stroke="none" transform="matrix(1 0 0 1 2318 4094 )" />
    <path d="M 23.413026023546 6.08654290251066  C 23.413026023546 6.08654290251066  26.3413260040258 5.89892306610035  26.3413260040258 5.89892306610035  C 26.3413260040258 5.89892306610035  23.7445794353376 8.12271186397563  23.7445794353376 8.12271186397563  C 23.7445794353376 8.12271186397563  16.0201442232162 6.91799501965592  16.0201442232162 6.91799501965592  C 16.0201442232162 6.91799501965592  15.3469136313341 11.0574810945642  15.3469136313341 11.0574810945642  C 15.3469136313341 11.0574810945642  23.0435084806334 10.5025213679186  23.0435084806334 10.5025213679186  C 23.0435084806334 10.5025213679186  33.6468705628947 12.8211075568224  33.6468705628947 12.8211075568224  C 33.6468705628947 12.8211075568224  47.0659254431925 11.7408122882275  47.0659254431925 11.7408122882275  C 47.0659254431925 11.7408122882275  48.8654252583362 19.7383392799957  48.8654252583362 19.7383392799957  C 48.8654252583362 19.7383392799957  51.1964229091766 19.0293337929289  51.1964229091766 19.0293337929289  C 51.1964229091766 19.0293337929289  55.506617262467 20.6329896578266  55.506617262467 20.6329896578266  C 55.506617262467 20.6329896578266  55.2585849391423 23.3603895955404  55.2585849391423 23.3603895955404  C 55.2585849391423 23.3603895955404  56.3241115526097 27.3339802361489  56.3241115526097 27.3339802361489  C 56.3241115526097 27.3339802361489  49.0046270724471 27.3221305622705  49.0046270724471 27.3221305622705  C 49.0046270724471 27.3221305622705  44.1173779261145 26.8106196398462  44.1173779261145 26.8106196398462  C 44.1173779261145 26.8106196398462  39.6958221215351 29.913259250381  39.6958221215351 29.913259250381  C 39.6958221215351 29.913259250381  36.5473301805525 30.5985653896907  36.5473301805525 30.5985653896907  C 36.5473301805525 30.5985653896907  34.0720688314516 32.0462005485208  34.0720688314516 32.0462005485208  C 34.0720688314516 32.0462005485208  31.2652540705599 29.7888376746563  31.2652540705599 29.7888376746563  C 31.2652540705599 29.7888376746563  31.9258299520682 23.9508983438218  31.9258299520682 23.9508983438218  C 31.9258299520682 23.9508983438218  29.7795910726843 23.6171325295759  29.7795910726843 23.6171325295759  C 29.7795910726843 23.6171325295759  30.5515284054814 21.4762914488505  30.5515284054814 21.4762914488505  C 30.5515284054814 21.4762914488505  24.8708486585992 19.8765854752456  24.8708486585992 19.8765854752456  C 24.8708486585992 19.8765854752456  21.8160015743819 22.3215681855206  21.8160015743819 22.3215681855206  C 21.8160015743819 22.3215681855206  21.0643117781825 25.1417905686165  21.0643117781825 25.1417905686165  C 21.0643117781825 25.1417905686165  19.9734757439676 26.164812413465  19.9734757439676 26.164812413465  C 19.9734757439676 26.164812413465  15.7316168266951 26.0186664356294  15.7316168266951 26.0186664356294  C 15.7316168266951 26.0186664356294  13.4436451911257 29.1963539807285  13.4436451911257 29.1963539807285  C 13.4436451911257 29.1963539807285  11.0493739884167 27.8593157780982  11.0493739884167 27.8593157780982  C 11.0493739884167 27.8593157780982  5.91409251875927 30.0831045759735  5.91409251875927 30.0831045759735  C 5.91409251875927 30.0831045759735  3.74507516070304 29.2398027849498  3.74507516070304 29.2398027849498  C 3.74507516070304 29.2398027849498  7.73383987050115 22.1912217728565  7.73383987050115 22.1912217728565  C 7.73383987050115 22.1912217728565  6.20008897320534 15.5070336359613  6.20008897320534 15.5070336359613  C 6.20008897320534 15.5070336359613  0.99394112545496 13.8145052169745  0.99394112545496 13.8145052169745  C 0.99394112545496 13.8145052169745  2.83393601379459 10.6723666935112  2.83393601379459 10.6723666935112  C 2.83393601379459 10.6723666935112  8.75887141077269 11.0081074534036  8.75887141077269 11.0081074534036  C 8.75887141077269 11.0081074534036  12.1300862543331 7.04044164973436  12.1300862543331 7.04044164973436  C 12.1300862543331 7.04044164973436  14.3876865850054 2.39339454369465  14.3876865850054 2.39339454369465  C 14.3876865850054 2.39339454369465  23.8761884232247 0.698891179061327  23.8761884232247 0.698891179061327  C 23.8761884232247 0.698891179061327  22.3981182515733 4.07407328880289  22.3981182515733 4.07407328880289  C 22.3981182515733 4.07407328880289  23.413026023546 6.08654290251066  23.413026023546 6.08654290251066  Z " stroke-width="2" stroke="#505050" fill="none" stroke-opacity="0.211764705882353" transform="matrix(1 0 0 1 2318 4094 )" mask="url(#clip258)" />
  </g>
</svg>