<?xml version="1.0" encoding="utf-8"?>
<svg version="1.1" xmlns:xlink="http://www.w3.org/1999/xlink" width="92px" height="78px" xmlns="http://www.w3.org/2000/svg">
  <defs>
    <mask fill="white" id="clip37">
      <path d="M 12.6421615364267 8.1067915577427  C 12.6421615364267 8.1067915577427  33.6029371481462 8.17836837571645  33.6029371481462 8.17836837571645  C 33.6029371481462 8.17836837571645  35.3530454066889 12.3298238181789  35.3530454066889 12.3298238181789  C 35.3530454066889 12.3298238181789  37.3918835371182 15.6760400584394  37.3918835371182 15.6760400584394  C 37.3918835371182 15.6760400584394  39.0254867596361 17.4813664673262  39.0254867596361 17.4813664673262  C 39.0254867596361 17.4813664673262  41.7456260789916 20.4040865345771  41.7456260789916 20.4040865345771  C 41.7456260789916 20.4040865345771  48.2812855744159 19.9507666874117  48.2812855744159 19.9507666874117  C 48.2812855744159 19.9507666874117  50.6240498857788 19.1634216897035  50.6240498857788 19.1634216897035  C 50.6240498857788 19.1634216897035  54.5472303379965 19.9527549323553  54.5472303379965 19.9527549323553  C 54.5472303379965 19.9527549323553  55.6109719712638 18.5550187369287  55.6109719712638 18.5550187369287  C 55.6109719712638 18.5550187369287  57.3940055660741 15.3002617640786  57.3940055660741 15.3002617640786  C 57.3940055660741 15.3002617640786  61.7984024714367 15.0835430652144  61.7984024714367 15.0835430652144  C 61.7984024714367 15.0835430652144  62.1808429157781 14.1172560225726  62.1808429157781 14.1172560225726  C 62.1808429157781 14.1172560225726  65.8051626234112 14.0953853281916  65.8051626234112 14.0953853281916  C 65.8051626234112 14.0953853281916  65.1871793888461 16.1055009662806  65.1871793888461 16.1055009662806  C 65.1871793888461 16.1055009662806  73.8034866183133 16.0577830876314  73.8034866183133 16.0577830876314  C 73.8034866183133 16.0577830876314  73.9326552452104 19.5730001481073  73.9326552452104 19.5730001481073  C 73.9326552452104 19.5730001481073  75.3712391682959 21.7322341569742  75.3712391682959 21.7322341569742  C 75.3712391682959 21.7322341569742  74.3252265622494 25.1082740713904  74.3252265622494 25.1082740713904  C 74.3252265622494 25.1082740713904  74.8469665061855 28.5578790487237  74.8469665061855 28.5578790487237  C 74.8469665061855 28.5578790487237  77.2150579992929 30.6435479946736  77.2150579992929 30.6435479946736  C 77.2150579992929 30.6435479946736  76.8351502731258 37.3459216999134  76.8351502731258 37.3459216999134  C 76.8351502731258 37.3459216999134  78.5928566861917 36.8289780145493  78.5928566861917 36.8289780145493  C 78.5928566861917 36.8289780145493  81.6802401408422 36.9681551606089  81.6802401408422 36.9681551606089  C 81.6802401408422 36.9681551606089  86.0795716098558 36.1231510595329  86.0795716098558 36.1231510595329  C 86.0795716098558 36.1231510595329  89.313852718624 36.4551879651321  89.313852718624 36.4551879651321  C 89.313852718624 36.4551879651321  90.0635372982604 38.2068317605389  90.0635372982604 38.2068317605389  C 90.0635372982604 38.2068317605389  89.255600200612 40.9486215379121  89.255600200612 40.9486215379121  C 89.255600200612 40.9486215379121  90.5042302606142 45.0473729822069  90.5042302606142 45.0473729822069  C 90.5042302606142 45.0473729822069  89.4455540636955 47.170818582087  89.4455540636955 47.170818582087  C 89.4455540636955 47.170818582087  90.0508737073884 49.1312280965832  90.0508737073884 49.1312280965832  C 90.0508737073884 49.1312280965832  75.2648650049696 49.0596512786094  75.2648650049696 49.0596512786094  C 75.2648650049696 49.0596512786094  74.9381443604659 67.2679984730878  74.9381443604659 67.2679984730878  C 74.9381443604659 67.2679984730878  79.7300471465189 71.9940567042818  79.7300471465189 71.9940567042818  C 79.7300471465189 71.9940567042818  84.3649214057562 75.6186272366616  84.3649214057562 75.6186272366616  C 84.3649214057562 75.6186272366616  71.3138246528331 77.9886152095615  71.3138246528331 77.9886152095615  C 71.3138246528331 77.9886152095615  54.1217336846899 77.1654818028665  54.1217336846899 77.1654818028665  C 54.1217336846899 77.1654818028665  49.2006622717405 74.3819388816752  49.2006622717405 74.3819388816752  C 49.2006622717405 74.3819388816752  18.5737875009809 74.6324577445827  18.5737875009809 74.6324577445827  C 18.5737875009809 74.6324577445827  17.4999149950155 75.0400479580428  17.4999149950155 75.0400479580428  C 17.4999149950155 75.0400479580428  13.2652102073406 72.4175528772918  13.2652102073406 72.4175528772918  C 13.2652102073406 72.4175528772918  8.66072856619698 72.2445755671893  8.66072856619698 72.2445755671893  C 8.66072856619698 72.2445755671893  4.41082746947557 73.2327333042121  4.41082746947557 73.2327333042121  C 4.41082746947557 73.2327333042121  0.991657933972683 74.33620924797  0.991657933972683 74.33620924797  C 0.991657933972683 74.33620924797  0.323020335918754 70.6917562661532  0.323020335918754 70.6917562661532  C 0.323020335918754 70.6917562661532  1.30571498760397 65.6177551698102  1.30571498760397 65.6177551698102  C 1.30571498760397 65.6177551698102  3.75485346229385 60.3588472937023  3.75485346229385 60.3588472937023  C 3.75485346229385 60.3588472937023  4.12463031576302 57.9013765432794  4.12463031576302 57.9013765432794  C 4.12463031576302 57.9013765432794  6.42940385450936 52.7557986289629  6.42940385450936 52.7557986289629  C 6.42940385450936 52.7557986289629  8.12125959503965 50.4235873099934  8.12125959503965 50.4235873099934  C 8.12125959503965 50.4235873099934  12.2014685740731 46.7055692652593  12.2014685740731 46.7055692652593  C 12.2014685740731 46.7055692652593  14.4783822129005 44.1824864316938  14.4783822129005 44.1824864316938  C 14.4783822129005 44.1824864316938  15.2230013561877 38.5488098908564  15.2230013561877 38.5488098908564  C 15.2230013561877 38.5488098908564  14.850691784544 35.3497237764303  14.850691784544 35.3497237764303  C 14.850691784544 35.3497237764303  12.7282739543578 33.3356316484541  12.7282739543578 33.3356316484541  C 12.7282739543578 33.3356316484541  10.8363334780465 29.923803325051  10.8363334780465 29.923803325051  C 10.8363334780465 29.923803325051  9.09129065585286 26.5557163904095  9.09129065585286 26.5557163904095  C 9.09129065585286 26.5557163904095  9.47119838201971 25.3906048533966  9.47119838201971 25.3906048533966  C 9.47119838201971 25.3906048533966  11.6544014483926 23.1697352512749  11.6544014483926 23.1697352512749  C 11.6544014483926 23.1697352512749  9.49905828193865 17.7656854942762  9.49905828193865 17.7656854942762  C 9.49905828193865 17.7656854942762  8.0452780498064 14.0277850001051  8.0452780498064 14.0277850001051  C 8.0452780498064 14.0277850001051  4.48680901470902 10.5006384699672  4.48680901470902 10.5006384699672  C 4.48680901470902 10.5006384699672  5.16304476728632 9.41903322059001  5.16304476728632 9.41903322059001  C 5.16304476728632 9.41903322059001  8.09339969512092 8.6714531217559  8.09339969512092 8.6714531217559  C 8.09339969512092 8.6714531217559  10.1524995709458 8.77484185882865  10.1524995709458 8.77484185882865  C 10.1524995709458 8.77484185882865  12.6421615364267 8.1067915577427  12.6421615364267 8.1067915577427  Z M 8.04399193698352 6.12151347429093  C 8.04399193698352 6.12151347429093  5.98111273763242 8.5471723056148  5.98111273763242 8.5471723056148  C 5.98111273763242 8.5471723056148  4.17528467925205 9.13569280895225  4.17528467925205 9.13569280895225  C 4.17528467925205 9.13569280895225  2.27574604841719 3.50798100294633  2.27574604841719 3.50798100294633  C 2.27574604841719 3.50798100294633  5.14278302189054 1.10816935589065  5.14278302189054 1.10816935589065  C 5.14278302189054 1.10816935589065  9.12799531564681 0.173694232347771  9.12799531564681 0.173694232347771  C 9.12799531564681 0.173694232347771  11.7898821169901 2.080421133364  11.7898821169901 2.080421133364  C 11.7898821169901 2.080421133364  9.20397686088006 3.24752091532054  9.20397686088006 3.24752091532054  C 9.20397686088006 3.24752091532054  8.04399193698352 6.12151347429093  8.04399193698352 6.12151347429093  Z " fill-rule="evenodd" />
    </mask>
  </defs>
  <g transform="matrix(1 0 0 1 -1922 -4367 )">
    <path d="M 12.6421615364267 8.1067915577427  C 12.6421615364267 8.1067915577427  33.6029371481462 8.17836837571645  33.6029371481462 8.17836837571645  C 33.6029371481462 8.17836837571645  35.3530454066889 12.3298238181789  35.3530454066889 12.3298238181789  C 35.3530454066889 12.3298238181789  37.3918835371182 15.6760400584394  37.3918835371182 15.6760400584394  C 37.3918835371182 15.6760400584394  39.0254867596361 17.4813664673262  39.0254867596361 17.4813664673262  C 39.0254867596361 17.4813664673262  41.7456260789916 20.4040865345771  41.7456260789916 20.4040865345771  C 41.7456260789916 20.4040865345771  48.2812855744159 19.9507666874117  48.2812855744159 19.9507666874117  C 48.2812855744159 19.9507666874117  50.6240498857788 19.1634216897035  50.6240498857788 19.1634216897035  C 50.6240498857788 19.1634216897035  54.5472303379965 19.9527549323553  54.5472303379965 19.9527549323553  C 54.5472303379965 19.9527549323553  55.6109719712638 18.5550187369287  55.6109719712638 18.5550187369287  C 55.6109719712638 18.5550187369287  57.3940055660741 15.3002617640786  57.3940055660741 15.3002617640786  C 57.3940055660741 15.3002617640786  61.7984024714367 15.0835430652144  61.7984024714367 15.0835430652144  C 61.7984024714367 15.0835430652144  62.1808429157781 14.1172560225726  62.1808429157781 14.1172560225726  C 62.1808429157781 14.1172560225726  65.8051626234112 14.0953853281916  65.8051626234112 14.0953853281916  C 65.8051626234112 14.0953853281916  65.1871793888461 16.1055009662806  65.1871793888461 16.1055009662806  C 65.1871793888461 16.1055009662806  73.8034866183133 16.0577830876314  73.8034866183133 16.0577830876314  C 73.8034866183133 16.0577830876314  73.9326552452104 19.5730001481073  73.9326552452104 19.5730001481073  C 73.9326552452104 19.5730001481073  75.3712391682959 21.7322341569742  75.3712391682959 21.7322341569742  C 75.3712391682959 21.7322341569742  74.3252265622494 25.1082740713904  74.3252265622494 25.1082740713904  C 74.3252265622494 25.1082740713904  74.8469665061855 28.5578790487237  74.8469665061855 28.5578790487237  C 74.8469665061855 28.5578790487237  77.2150579992929 30.6435479946736  77.2150579992929 30.6435479946736  C 77.2150579992929 30.6435479946736  76.8351502731258 37.3459216999134  76.8351502731258 37.3459216999134  C 76.8351502731258 37.3459216999134  78.5928566861917 36.8289780145493  78.5928566861917 36.8289780145493  C 78.5928566861917 36.8289780145493  81.6802401408422 36.9681551606089  81.6802401408422 36.9681551606089  C 81.6802401408422 36.9681551606089  86.0795716098558 36.1231510595329  86.0795716098558 36.1231510595329  C 86.0795716098558 36.1231510595329  89.313852718624 36.4551879651321  89.313852718624 36.4551879651321  C 89.313852718624 36.4551879651321  90.0635372982604 38.2068317605389  90.0635372982604 38.2068317605389  C 90.0635372982604 38.2068317605389  89.255600200612 40.9486215379121  89.255600200612 40.9486215379121  C 89.255600200612 40.9486215379121  90.5042302606142 45.0473729822069  90.5042302606142 45.0473729822069  C 90.5042302606142 45.0473729822069  89.4455540636955 47.170818582087  89.4455540636955 47.170818582087  C 89.4455540636955 47.170818582087  90.0508737073884 49.1312280965832  90.0508737073884 49.1312280965832  C 90.0508737073884 49.1312280965832  75.2648650049696 49.0596512786094  75.2648650049696 49.0596512786094  C 75.2648650049696 49.0596512786094  74.9381443604659 67.2679984730878  74.9381443604659 67.2679984730878  C 74.9381443604659 67.2679984730878  79.7300471465189 71.9940567042818  79.7300471465189 71.9940567042818  C 79.7300471465189 71.9940567042818  84.3649214057562 75.6186272366616  84.3649214057562 75.6186272366616  C 84.3649214057562 75.6186272366616  71.3138246528331 77.9886152095615  71.3138246528331 77.9886152095615  C 71.3138246528331 77.9886152095615  54.1217336846899 77.1654818028665  54.1217336846899 77.1654818028665  C 54.1217336846899 77.1654818028665  49.2006622717405 74.3819388816752  49.2006622717405 74.3819388816752  C 49.2006622717405 74.3819388816752  18.5737875009809 74.6324577445827  18.5737875009809 74.6324577445827  C 18.5737875009809 74.6324577445827  17.4999149950155 75.0400479580428  17.4999149950155 75.0400479580428  C 17.4999149950155 75.0400479580428  13.2652102073406 72.4175528772918  13.2652102073406 72.4175528772918  C 13.2652102073406 72.4175528772918  8.66072856619698 72.2445755671893  8.66072856619698 72.2445755671893  C 8.66072856619698 72.2445755671893  4.41082746947557 73.2327333042121  4.41082746947557 73.2327333042121  C 4.41082746947557 73.2327333042121  0.991657933972683 74.33620924797  0.991657933972683 74.33620924797  C 0.991657933972683 74.33620924797  0.323020335918754 70.6917562661532  0.323020335918754 70.6917562661532  C 0.323020335918754 70.6917562661532  1.30571498760397 65.6177551698102  1.30571498760397 65.6177551698102  C 1.30571498760397 65.6177551698102  3.75485346229385 60.3588472937023  3.75485346229385 60.3588472937023  C 3.75485346229385 60.3588472937023  4.12463031576302 57.9013765432794  4.12463031576302 57.9013765432794  C 4.12463031576302 57.9013765432794  6.42940385450936 52.7557986289629  6.42940385450936 52.7557986289629  C 6.42940385450936 52.7557986289629  8.12125959503965 50.4235873099934  8.12125959503965 50.4235873099934  C 8.12125959503965 50.4235873099934  12.2014685740731 46.7055692652593  12.2014685740731 46.7055692652593  C 12.2014685740731 46.7055692652593  14.4783822129005 44.1824864316938  14.4783822129005 44.1824864316938  C 14.4783822129005 44.1824864316938  15.2230013561877 38.5488098908564  15.2230013561877 38.5488098908564  C 15.2230013561877 38.5488098908564  14.850691784544 35.3497237764303  14.850691784544 35.3497237764303  C 14.850691784544 35.3497237764303  12.7282739543578 33.3356316484541  12.7282739543578 33.3356316484541  C 12.7282739543578 33.3356316484541  10.8363334780465 29.923803325051  10.8363334780465 29.923803325051  C 10.8363334780465 29.923803325051  9.09129065585286 26.5557163904095  9.09129065585286 26.5557163904095  C 9.09129065585286 26.5557163904095  9.47119838201971 25.3906048533966  9.47119838201971 25.3906048533966  C 9.47119838201971 25.3906048533966  11.6544014483926 23.1697352512749  11.6544014483926 23.1697352512749  C 11.6544014483926 23.1697352512749  9.49905828193865 17.7656854942762  9.49905828193865 17.7656854942762  C 9.49905828193865 17.7656854942762  8.0452780498064 14.0277850001051  8.0452780498064 14.0277850001051  C 8.0452780498064 14.0277850001051  4.48680901470902 10.5006384699672  4.48680901470902 10.5006384699672  C 4.48680901470902 10.5006384699672  5.16304476728632 9.41903322059001  5.16304476728632 9.41903322059001  C 5.16304476728632 9.41903322059001  8.09339969512092 8.6714531217559  8.09339969512092 8.6714531217559  C 8.09339969512092 8.6714531217559  10.1524995709458 8.77484185882865  10.1524995709458 8.77484185882865  C 10.1524995709458 8.77484185882865  12.6421615364267 8.1067915577427  12.6421615364267 8.1067915577427  Z M 8.04399193698352 6.12151347429093  C 8.04399193698352 6.12151347429093  5.98111273763242 8.5471723056148  5.98111273763242 8.5471723056148  C 5.98111273763242 8.5471723056148  4.17528467925205 9.13569280895225  4.17528467925205 9.13569280895225  C 4.17528467925205 9.13569280895225  2.27574604841719 3.50798100294633  2.27574604841719 3.50798100294633  C 2.27574604841719 3.50798100294633  5.14278302189054 1.10816935589065  5.14278302189054 1.10816935589065  C 5.14278302189054 1.10816935589065  9.12799531564681 0.173694232347771  9.12799531564681 0.173694232347771  C 9.12799531564681 0.173694232347771  11.7898821169901 2.080421133364  11.7898821169901 2.080421133364  C 11.7898821169901 2.080421133364  9.20397686088006 3.24752091532054  9.20397686088006 3.24752091532054  C 9.20397686088006 3.24752091532054  8.04399193698352 6.12151347429093  8.04399193698352 6.12151347429093  Z " fill-rule="nonzero" fill="#f2f2f2" stroke="none" transform="matrix(1 0 0 1 1922 4367 )" />
    <path d="M 12.6421615364267 8.1067915577427  C 12.6421615364267 8.1067915577427  33.6029371481462 8.17836837571645  33.6029371481462 8.17836837571645  C 33.6029371481462 8.17836837571645  35.3530454066889 12.3298238181789  35.3530454066889 12.3298238181789  C 35.3530454066889 12.3298238181789  37.3918835371182 15.6760400584394  37.3918835371182 15.6760400584394  C 37.3918835371182 15.6760400584394  39.0254867596361 17.4813664673262  39.0254867596361 17.4813664673262  C 39.0254867596361 17.4813664673262  41.7456260789916 20.4040865345771  41.7456260789916 20.4040865345771  C 41.7456260789916 20.4040865345771  48.2812855744159 19.9507666874117  48.2812855744159 19.9507666874117  C 48.2812855744159 19.9507666874117  50.6240498857788 19.1634216897035  50.6240498857788 19.1634216897035  C 50.6240498857788 19.1634216897035  54.5472303379965 19.9527549323553  54.5472303379965 19.9527549323553  C 54.5472303379965 19.9527549323553  55.6109719712638 18.5550187369287  55.6109719712638 18.5550187369287  C 55.6109719712638 18.5550187369287  57.3940055660741 15.3002617640786  57.3940055660741 15.3002617640786  C 57.3940055660741 15.3002617640786  61.7984024714367 15.0835430652144  61.7984024714367 15.0835430652144  C 61.7984024714367 15.0835430652144  62.1808429157781 14.1172560225726  62.1808429157781 14.1172560225726  C 62.1808429157781 14.1172560225726  65.8051626234112 14.0953853281916  65.8051626234112 14.0953853281916  C 65.8051626234112 14.0953853281916  65.1871793888461 16.1055009662806  65.1871793888461 16.1055009662806  C 65.1871793888461 16.1055009662806  73.8034866183133 16.0577830876314  73.8034866183133 16.0577830876314  C 73.8034866183133 16.0577830876314  73.9326552452104 19.5730001481073  73.9326552452104 19.5730001481073  C 73.9326552452104 19.5730001481073  75.3712391682959 21.7322341569742  75.3712391682959 21.7322341569742  C 75.3712391682959 21.7322341569742  74.3252265622494 25.1082740713904  74.3252265622494 25.1082740713904  C 74.3252265622494 25.1082740713904  74.8469665061855 28.5578790487237  74.8469665061855 28.5578790487237  C 74.8469665061855 28.5578790487237  77.2150579992929 30.6435479946736  77.2150579992929 30.6435479946736  C 77.2150579992929 30.6435479946736  76.8351502731258 37.3459216999134  76.8351502731258 37.3459216999134  C 76.8351502731258 37.3459216999134  78.5928566861917 36.8289780145493  78.5928566861917 36.8289780145493  C 78.5928566861917 36.8289780145493  81.6802401408422 36.9681551606089  81.6802401408422 36.9681551606089  C 81.6802401408422 36.9681551606089  86.0795716098558 36.1231510595329  86.0795716098558 36.1231510595329  C 86.0795716098558 36.1231510595329  89.313852718624 36.4551879651321  89.313852718624 36.4551879651321  C 89.313852718624 36.4551879651321  90.0635372982604 38.2068317605389  90.0635372982604 38.2068317605389  C 90.0635372982604 38.2068317605389  89.255600200612 40.9486215379121  89.255600200612 40.9486215379121  C 89.255600200612 40.9486215379121  90.5042302606142 45.0473729822069  90.5042302606142 45.0473729822069  C 90.5042302606142 45.0473729822069  89.4455540636955 47.170818582087  89.4455540636955 47.170818582087  C 89.4455540636955 47.170818582087  90.0508737073884 49.1312280965832  90.0508737073884 49.1312280965832  C 90.0508737073884 49.1312280965832  75.2648650049696 49.0596512786094  75.2648650049696 49.0596512786094  C 75.2648650049696 49.0596512786094  74.9381443604659 67.2679984730878  74.9381443604659 67.2679984730878  C 74.9381443604659 67.2679984730878  79.7300471465189 71.9940567042818  79.7300471465189 71.9940567042818  C 79.7300471465189 71.9940567042818  84.3649214057562 75.6186272366616  84.3649214057562 75.6186272366616  C 84.3649214057562 75.6186272366616  71.3138246528331 77.9886152095615  71.3138246528331 77.9886152095615  C 71.3138246528331 77.9886152095615  54.1217336846899 77.1654818028665  54.1217336846899 77.1654818028665  C 54.1217336846899 77.1654818028665  49.2006622717405 74.3819388816752  49.2006622717405 74.3819388816752  C 49.2006622717405 74.3819388816752  18.5737875009809 74.6324577445827  18.5737875009809 74.6324577445827  C 18.5737875009809 74.6324577445827  17.4999149950155 75.0400479580428  17.4999149950155 75.0400479580428  C 17.4999149950155 75.0400479580428  13.2652102073406 72.4175528772918  13.2652102073406 72.4175528772918  C 13.2652102073406 72.4175528772918  8.66072856619698 72.2445755671893  8.66072856619698 72.2445755671893  C 8.66072856619698 72.2445755671893  4.41082746947557 73.2327333042121  4.41082746947557 73.2327333042121  C 4.41082746947557 73.2327333042121  0.991657933972683 74.33620924797  0.991657933972683 74.33620924797  C 0.991657933972683 74.33620924797  0.323020335918754 70.6917562661532  0.323020335918754 70.6917562661532  C 0.323020335918754 70.6917562661532  1.30571498760397 65.6177551698102  1.30571498760397 65.6177551698102  C 1.30571498760397 65.6177551698102  3.75485346229385 60.3588472937023  3.75485346229385 60.3588472937023  C 3.75485346229385 60.3588472937023  4.12463031576302 57.9013765432794  4.12463031576302 57.9013765432794  C 4.12463031576302 57.9013765432794  6.42940385450936 52.7557986289629  6.42940385450936 52.7557986289629  C 6.42940385450936 52.7557986289629  8.12125959503965 50.4235873099934  8.12125959503965 50.4235873099934  C 8.12125959503965 50.4235873099934  12.2014685740731 46.7055692652593  12.2014685740731 46.7055692652593  C 12.2014685740731 46.7055692652593  14.4783822129005 44.1824864316938  14.4783822129005 44.1824864316938  C 14.4783822129005 44.1824864316938  15.2230013561877 38.5488098908564  15.2230013561877 38.5488098908564  C 15.2230013561877 38.5488098908564  14.850691784544 35.3497237764303  14.850691784544 35.3497237764303  C 14.850691784544 35.3497237764303  12.7282739543578 33.3356316484541  12.7282739543578 33.3356316484541  C 12.7282739543578 33.3356316484541  10.8363334780465 29.923803325051  10.8363334780465 29.923803325051  C 10.8363334780465 29.923803325051  9.09129065585286 26.5557163904095  9.09129065585286 26.5557163904095  C 9.09129065585286 26.5557163904095  9.47119838201971 25.3906048533966  9.47119838201971 25.3906048533966  C 9.47119838201971 25.3906048533966  11.6544014483926 23.1697352512749  11.6544014483926 23.1697352512749  C 11.6544014483926 23.1697352512749  9.49905828193865 17.7656854942762  9.49905828193865 17.7656854942762  C 9.49905828193865 17.7656854942762  8.0452780498064 14.0277850001051  8.0452780498064 14.0277850001051  C 8.0452780498064 14.0277850001051  4.48680901470902 10.5006384699672  4.48680901470902 10.5006384699672  C 4.48680901470902 10.5006384699672  5.16304476728632 9.41903322059001  5.16304476728632 9.41903322059001  C 5.16304476728632 9.41903322059001  8.09339969512092 8.6714531217559  8.09339969512092 8.6714531217559  C 8.09339969512092 8.6714531217559  10.1524995709458 8.77484185882865  10.1524995709458 8.77484185882865  C 10.1524995709458 8.77484185882865  12.6421615364267 8.1067915577427  12.6421615364267 8.1067915577427  Z " stroke-width="2" stroke="#505050" fill="none" stroke-opacity="0.211764705882353" transform="matrix(1 0 0 1 1922 4367 )" mask="url(#clip37)" />
    <path d="M 8.04399193698352 6.12151347429093  C 8.04399193698352 6.12151347429093  5.98111273763242 8.5471723056148  5.98111273763242 8.5471723056148  C 5.98111273763242 8.5471723056148  4.17528467925205 9.13569280895225  4.17528467925205 9.13569280895225  C 4.17528467925205 9.13569280895225  2.27574604841719 3.50798100294633  2.27574604841719 3.50798100294633  C 2.27574604841719 3.50798100294633  5.14278302189054 1.10816935589065  5.14278302189054 1.10816935589065  C 5.14278302189054 1.10816935589065  9.12799531564681 0.173694232347771  9.12799531564681 0.173694232347771  C 9.12799531564681 0.173694232347771  11.7898821169901 2.080421133364  11.7898821169901 2.080421133364  C 11.7898821169901 2.080421133364  9.20397686088006 3.24752091532054  9.20397686088006 3.24752091532054  C 9.20397686088006 3.24752091532054  8.04399193698352 6.12151347429093  8.04399193698352 6.12151347429093  Z " stroke-width="2" stroke="#505050" fill="none" stroke-opacity="0.211764705882353" transform="matrix(1 0 0 1 1922 4367 )" mask="url(#clip37)" />
  </g>
</svg>