<?xml version="1.0" encoding="utf-8"?>
<svg version="1.1" xmlns:xlink="http://www.w3.org/1999/xlink" width="289px" height="212px" xmlns="http://www.w3.org/2000/svg">
  <defs>
    <mask fill="white" id="clip259">
      <path d="M 224.351664876357 188.047883349085  C 224.351664876357 188.047883349085  229.003667071851 188.693048545104  229.003667071851 188.693048545104  C 229.003667071851 188.693048545104  235.867650703436 191.228051484541  235.867650703436 191.228051484541  C 235.867650703436 191.228051484541  241.574948449855 190.219608655071  241.574948449855 190.219608655071  C 241.574948449855 190.219608655071  247.11883777651 188.810170842228  247.11883777651 188.810170842228  C 247.11883777651 188.810170842228  251.38063935212 189.302481514883  251.38063935212 189.302481514883  C 251.38063935212 189.302481514883  251.884859633657 198.086653799149  251.884859633657 198.086653799149  C 251.884859633657 198.086653799149  249.449906414774 202.109491453976  249.449906414774 202.109491453976  C 249.449906414774 202.109491453976  248.717646809928 208.19191040968  248.717646809928 208.19191040968  C 248.717646809928 208.19191040968  246.234551956125 206.113485916657  246.234551956125 206.113485916657  C 246.234551956125 206.113485916657  241.303835032144 211.423691760818  241.303835032144 211.423691760818  C 241.303835032144 211.423691760818  239.834248281933 211.010786035365  239.834248281933 211.010786035365  C 239.834248281933 211.010786035365  233.622730253977 210.772571193758  233.622730253977 210.772571193758  C 233.622730253977 210.772571193758  229.241841476195 204.269306017881  229.241841476195 204.269306017881  C 229.241841476195 204.269306017881  228.268873696745 197.872260441702  228.268873696745 197.872260441702  C 228.268873696745 197.872260441702  224.17176718797 191.412667986787  224.17176718797 191.412667986787  C 224.17176718797 191.412667986787  224.351664876357 188.047883349085  224.351664876357 188.047883349085  Z M 218.041290284421 15.7947313829073  C 218.041290284421 15.7947313829073  217.798048339557 17.8473492680886  217.798048339557 17.8473492680886  C 217.798048339557 17.8473492680886  220.35715630113 22.3218180429443  220.35715630113 22.3218180429443  C 220.35715630113 22.3218180429443  224.915408997041 20.1699439737589  224.915408997041 20.1699439737589  C 224.915408997041 20.1699439737589  227.269281567636 22.5878246160725  227.269281567636 22.5878246160725  C 227.269281567636 22.5878246160725  230.679736336228 24.8210887561401  230.679736336228 24.8210887561401  C 230.679736336228 24.8210887561401  229.950010501641 27.3620470666169  229.950010501641 27.3620470666169  C 229.950010501641 27.3620470666169  231.465205116512 32.2930942878862  231.465205116512 32.2930942878862  C 231.465205116512 32.2930942878862  232.544591246839 35.1754938713338  232.544591246839 35.1754938713338  C 232.544591246839 35.1754938713338  234.333433049681 35.8802127777552  234.333433049681 35.8802127777552  C 234.333433049681 35.8802127777552  236.261632216767 40.833096359505  236.261632216767 40.833096359505  C 236.261632216767 40.833096359505  235.574980476583 43.8504843531963  235.574980476583 43.8504843531963  C 235.574980476583 43.8504843531963  237.87564387174 47.8108060949163  237.87564387174 47.8108060949163  C 237.87564387174 47.8108060949163  245.573237918531 50.871866809569  245.573237918531 50.871866809569  C 245.573237918531 50.871866809569  250.590103031317 53.6649358274139  250.590103031317 53.6649358274139  C 250.590103031317 53.6649358274139  255.356124888465 56.2297156220515  255.356124888465 56.2297156220515  C 255.356124888465 56.2297156220515  254.426231203418 57.6609897953748  254.426231203418 57.6609897953748  C 254.426231203418 57.6609897953748  258.490398698827 61.3771413244473  258.490398698827 61.3771413244473  C 258.490398698827 61.3771413244473  261.252208281119 67.8268081609627  261.252208281119 67.8268081609627  C 261.252208281119 67.8268081609627  264.087497200921 66.5126562847631  264.087497200921 66.5126562847631  C 264.087497200921 66.5126562847631  266.968393985385 69.1052278109214  266.968393985385 69.1052278109214  C 266.968393985385 69.1052278109214  268.706560383047 68.1841304233735  268.706560383047 68.1841304233735  C 268.706560383047 68.1841304233735  269.930371418136 74.5524071890063  269.930371418136 74.5524071890063  C 269.930371418136 74.5524071890063  274.970040463253 78.2665735943988  274.970040463253 78.2665735943988  C 274.970040463253 78.2665735943988  278.269009340449 80.5832129290293  278.269009340449 80.5832129290293  C 278.269009340449 80.5832129290293  283.820499977882 85.522200645019  283.820499977882 85.522200645019  C 283.820499977882 85.522200645019  285.81711094196 91.9013801080768  285.81711094196 91.9013801080768  C 285.81711094196 91.9013801080768  285.999542400607 95.4229895165036  285.999542400607 95.4229895165036  C 285.999542400607 95.4229895165036  285.510524740623 99.2681740847802  285.510524740623 99.2681740847802  C 285.510524740623 99.2681740847802  288.895641806625 104.580365052621  288.895641806625 104.580365052621  C 288.895641806625 104.580365052621  288.490238565188 110.16054771727  288.490238565188 110.16054771727  C 288.490238565188 110.16054771727  287.261359989581 113.098530763759  287.261359989581 113.098530763759  C 287.261359989581 113.098530763759  285.343295903531 118.797820849212  285.343295903531 118.797820849212  C 285.343295903531 118.797820849212  285.487720808293 122.488165770444  285.487720808293 122.488165770444  C 285.487720808293 122.488165770444  284.081478314557 127.133355181785  284.081478314557 127.133355181785  C 284.081478314557 127.133355181785  280.944670733936 133.080785727245  280.944670733936 133.080785727245  C 280.944670733936 133.080785727245  275.682029906028 136.318522449423  275.682029906028 136.318522449423  C 275.682029906028 136.318522449423  273.089982931088 141.459992780779  273.089982931088 141.459992780779  C 273.089982931088 141.459992780779  270.71837396868 144.767208831759  270.71837396868 144.767208831759  C 270.71837396868 144.767208831759  268.612810883465 150.587591461695  268.612810883465 150.587591461695  C 268.612810883465 150.587591461695  265.871271463245 153.976197583558  265.871271463245 153.976197583558  C 265.871271463245 153.976197583558  264.074828349626 159.103772049153  264.074828349626 159.103772049153  C 264.074828349626 159.103772049153  263.157603515874 163.870054004978  263.157603515874 163.870054004978  C 263.157603515874 163.870054004978  263.522466433168 166.071556166164  263.522466433168 166.071556166164  C 263.522466433168 166.071556166164  259.450697626982 168.501347550558  259.450697626982 168.501347550558  C 259.450697626982 168.501347550558  251.497192784034 168.755443381606  251.497192784034 168.755443381606  C 251.497192784034 168.755443381606  244.939795353786 171.641813212413  244.939795353786 171.641813212413  C 244.939795353786 171.641813212413  241.676299260216 174.381283890896  241.676299260216 174.381283890896  C 241.676299260216 174.381283890896  237.384092441498 177.436389234509  237.384092441498 177.436389234509  C 237.384092441498 177.436389234509  231.500677900139 174.291953325293  231.500677900139 174.291953325293  C 231.500677900139 174.291953325293  227.147660595206 173.043310530536  227.147660595206 173.043310530536  C 227.147660595206 173.043310530536  228.252384428123 169.368846598744  228.252384428123 169.368846598744  C 228.252384428123 169.368846598744  224.368114621102 170.698879464385  224.368114621102 170.698879464385  C 224.368114621102 170.698879464385  218.147708635298 175.8244688063  218.147708635298 175.8244688063  C 218.147708635298 175.8244688063  212.005849527523 173.898898836641  212.005849527523 173.898898836641  C 212.005849527523 173.898898836641  207.97715481574 172.779289081088  207.97715481574 172.779289081088  C 207.97715481574 172.779289081088  203.912987320331 172.275067666352  203.912987320331 172.275067666352  C 203.912987320331 172.275067666352  197.03633483745 170.23634564693  197.03633483745 170.23634564693  C 197.03633483745 170.23634564693  192.442609357914 165.9187016428  192.442609357914 165.9187016428  C 192.442609357914 165.9187016428  191.122515052984 160.64819827224  191.122515052984 160.64819827224  C 191.122515052984 160.64819827224  189.473030614386 157.170261584775  189.473030614386 157.170261584775  C 189.473030614386 157.170261584775  185.981495197507 154.39505868005  185.981495197507 154.39505868005  C 185.981495197507 154.39505868005  179.147916809029 153.573217476506  179.147916809029 153.573217476506  C 179.147916809029 153.573217476506  181.484052987812 150.275927043926  181.484052987812 150.275927043926  C 181.484052987812 150.275927043926  179.763622981962 145.269445122814  179.763622981962 145.269445122814  C 179.763622981962 145.269445122814  176.294891497415 149.936470894636  176.294891497415 149.936470894636  C 176.294891497415 149.936470894636  169.973134701251 151.181143442033  169.973134701251 151.181143442033  C 169.973134701251 151.181143442033  173.69017567118 147.43918530512  173.69017567118 147.43918530512  C 173.69017567118 147.43918530512  174.767028031247 143.562238757962  174.767028031247 143.562238757962  C 174.767028031247 143.562238757962  177.511101221726 140.294725180584  177.511101221726 140.294725180584  C 177.511101221726 140.294725180584  176.941002913455 135.387499443475  176.941002913455 135.387499443475  C 176.941002913455 135.387499443475  171.164006722973 141.043116807966  171.164006722973 141.043116807966  C 171.164006722973 141.043116807966  166.724841229235 143.326009040036  166.724841229235 143.326009040036  C 166.724841229235 143.326009040036  164.003571971087 148.671947110437  164.003571971087 148.671947110437  C 164.003571971087 148.671947110437  158.457148874173 145.900714453074  158.457148874173 145.900714453074  C 158.457148874173 145.900714453074  158.677586886705 142.345357942086  158.677586886705 142.345357942086  C 158.677586886705 142.345357942086  154.233353852448 137.52150739954  154.233353852448 137.52150739954  C 154.233353852448 137.52150739954  150.485907639412 135.046058170505  150.485907639412 135.046058170505  C 150.485907639412 135.046058170505  151.821204565896 133.525453431579  151.821204565896 133.525453431579  C 151.821204565896 133.525453431579  140.863934842865 129.553220947778  140.863934842865 129.553220947778  C 140.863934842865 129.553220947778  135.869873662409 129.366619321853  135.869873662409 129.366619321853  C 135.869873662409 129.366619321853  129.03882904419 126.196376804797  129.03882904419 126.196376804797  C 129.03882904419 126.196376804797  116.316768573836 126.811765145615  116.316768573836 126.811765145615  C 116.316768573836 126.811765145615  107.116648763468 129.144285469686  107.116648763468 129.144285469686  C 107.116648763468 129.144285469686  99.0339216373119 131.327921517752  99.0339216373119 131.327921517752  C 99.0339216373119 131.327921517752  92.2535524242727 130.893179431819  92.2535524242727 130.893179431819  C 92.2535524242727 130.893179431819  84.7231872145751 134.259949193201  84.7231872145751 134.259949193201  C 84.7231872145751 134.259949193201  78.5610579447277 135.780553932127  78.5610579447277 135.780553932127  C 78.5610579447277 135.780553932127  77.192822004877 139.254520372232  77.192822004877 139.254520372232  C 77.192822004877 139.254520372232  74.5703697868295 141.960243948154  74.5703697868295 141.960243948154  C 74.5703697868295 141.960243948154  68.5399965704495 142.123024089919  68.5399965704495 142.123024089919  C 68.5399965704495 142.123024089919  64.0780271443805 142.716576070257  64.0780271443805 142.716576070257  C 64.0780271443805 142.716576070257  57.7993444426205 141.49969525438  57.7993444426205 141.49969525438  C 57.7993444426205 141.49969525438  52.6887298302513 142.228235644962  52.6887298302513 142.228235644962  C 52.6887298302513 142.228235644962  47.8112220817086 142.533944691691  47.8112220817086 142.533944691691  C 47.8112220817086 142.533944691691  43.584893289725 146.10915243948  43.584893289725 146.10915243948  C 43.584893289725 146.10915243948  41.5148029881358 145.80542851643  41.5148029881358 145.80542851643  C 41.5148029881358 145.80542851643  37.9523220040054 147.709162125608  37.9523220040054 147.709162125608  C 37.9523220040054 147.709162125608  34.5367996948965 149.857065947433  34.5367996948965 149.857065947433  C 34.5367996948965 149.857065947433  29.3527057450168 149.591059374305  29.3527057450168 149.591059374305  C 29.3527057450168 149.591059374305  24.5917514283872 149.589074250625  24.5917514283872 149.589074250625  C 24.5917514283872 149.589074250625  17.0537849079122 145.285326112255  17.0537849079122 145.285326112255  C 17.0537849079122 145.285326112255  13.2353931276248 144.010876709656  13.2353931276248 144.010876709656  C 13.2353931276248 144.010876709656  13.3899531134231 140.18554337818  13.3899531134231 140.18554337818  C 13.3899531134231 140.18554337818  16.9194950841867 139.280326980072  16.9194950841867 139.280326980072  C 16.9194950841867 139.280326980072  18.1255697274625 137.769647859547  18.1255697274625 137.769647859547  C 18.1255697274625 137.769647859547  17.8721927015642 135.395439938195  17.8721927015642 135.395439938195  C 17.8721927015642 135.395439938195  18.7412759003954 130.825685226696  18.7412759003954 130.825685226696  C 18.7412759003954 130.825685226696  17.9482058093336 126.958664297939  17.9482058093336 126.958664297939  C 17.9482058093336 126.958664297939  14.1931582855208 120.419666895821  14.1931582855208 120.419666895821  C 14.1931582855208 120.419666895821  13.0276239663884 116.75711370611  13.0276239663884 116.75711370611  C 13.0276239663884 116.75711370611  13.334210167725 113.1243373716  13.334210167725 113.1243373716  C 13.334210167725 113.1243373716  10.5065225587 108.997265240755  10.5065225587 108.997265240755  C 10.5065225587 108.997265240755  10.3266248703122 107.143159723579  10.3266248703122 107.143159723579  C 10.3266248703122 107.143159723579  7.17968220865503 104.637933639343  7.17968220865503 104.637933639343  C 7.17968220865503 104.637933639343  6.29286261801103 99.7386483969548  6.29286261801103 99.7386483969548  C 6.29286261801103 99.7386483969548  2.23122889286119 94.8214970414459  2.23122889286119 94.8214970414459  C 2.23122889286119 94.8214970414459  1.24812603237577 92.1872379180062  1.24812603237577 92.1872379180062  C 1.24812603237577 92.1872379180062  4.36719722118393 94.8592143913671  4.36719722118393 94.8592143913671  C 4.36719722118393 94.8592143913671  1.97025055618599 87.6978961983652  1.97025055618599 87.6978961983652  C 1.97025055618599 87.6978961983652  5.49472498643105 90.9227141338078  5.49472498643105 90.9227141338078  C 5.49472498643105 90.9227141338078  7.59775430138745 93.31081792092  7.59775430138745 93.31081792092  C 7.59775430138745 93.31081792092  7.47866709921511 90.1544712696245  7.47866709921511 90.1544712696245  C 7.47866709921511 90.1544712696245  3.9617939797466 83.8884438563298  3.9617939797466 83.8884438563298  C 3.9617939797466 83.8884438563298  3.28020978008012 81.9668441340316  3.28020978008012 81.9668441340316  C 3.28020978008012 81.9668441340316  1.63325911174102 80.1464857194166  1.63325911174102 80.1464857194166  C 1.63325911174102 80.1464857194166  2.4060590407308 76.6387721767502  2.4060590407308 76.6387721767502  C 2.4060590407308 76.6387721767502  3.86044316938706 75.1499294167051  3.86044316938706 75.1499294167051  C 3.86044316938706 75.1499294167051  4.83087717857738 72.1345265466938  4.83087717857738 72.1345265466938  C 4.83087717857738 72.1345265466938  4.0707461008827 68.6248278803474  4.0707461008827 68.6248278803474  C 4.0707461008827 68.6248278803474  7.00738583104427 64.3270351130171  7.00738583104427 64.3270351130171  C 7.00738583104427 64.3270351130171  7.54201135568977 68.8769385877151  7.54201135568977 68.8769385877151  C 7.54201135568977 68.8769385877151  10.5445291125844 64.7657474463104  10.5445291125844 64.7657474463104  C 10.5445291125844 64.7657474463104  16.316457762548 62.7766535188904  16.316457762548 62.7766535188904  C 16.316457762548 62.7766535188904  19.7775879363193 60.2436357031337  19.7775879363193 60.2436357031337  C 19.7775879363193 60.2436357031337  25.2074576013202 58.0699252734678  25.2074576013202 58.0699252734678  C 25.2074576013202 58.0699252734678  28.4354809112645 57.609376579694  28.4354809112645 57.609376579694  C 28.4354809112645 57.609376579694  30.3915515511999 58.3379169702759  30.3915515511999 58.3379169702759  C 30.3915515511999 58.3379169702759  35.9886500532934 56.1364148090892  35.9886500532934 56.1364148090892  C 35.9886500532934 56.1364148090892  40.2985932638238 55.481323994669  40.2985932638238 55.481323994669  C 40.2985932638238 55.481323994669  41.3754456238914 54.1909936026302  41.3754456238914 54.1909936026302  C 41.3754456238914 54.1909936026302  43.2555031560566 53.6530250853338  43.2555031560566 53.6530250853338  C 43.2555031560566 53.6530250853338  47.1828470574806 53.7919837429381  47.1828470574806 53.7919837429381  C 47.1828470574806 53.7919837429381  54.649868010704 52.0708815123261  54.649868010704 52.0708815123261  C 54.649868010704 52.0708815123261  58.5113338853944 49.4644141204071  58.5113338853944 49.4644141204071  C 58.5113338853944 49.4644141204071  60.3255133908262 46.3378443243122  60.3255133908262 46.3378443243122  C 60.3255133908262 46.3378443243122  64.4935654668532 43.3780249173427  64.4935654668532 43.3780249173427  C 64.4935654668532 43.3780249173427  64.8128205194854 41.0574153353524  64.8128205194854 41.0574153353524  C 64.8128205194854 41.0574153353524  64.9977857483908 37.9030538077368  64.9977857483908 37.9030538077368  C 64.9977857483908 37.9030538077368  69.969042996516 32.991857823268  69.969042996516 32.991857823268  C 69.969042996516 32.991857823268  72.9614256723748 37.9824587549394  72.9614256723748 37.9824587549394  C 72.9614256723748 37.9824587549394  75.984213591342 36.8271167731442  75.984213591342 36.8271167731442  C 75.984213591342 36.8271167731442  73.4555108728766 34.0975717130616  73.4555108728766 34.0975717130616  C 73.4555108728766 34.0975717130616  75.6852287007819 31.3005324478568  75.6852287007819 31.3005324478568  C 75.6852287007819 31.3005324478568  78.8195025111436 32.5491752426148  78.8195025111436 32.5491752426148  C 78.8195025111436 32.5491752426148  79.6809843991983 28.171977528082  79.6809843991983 28.171977528082  C 79.6809843991983 28.171977528082  83.5627204359604 25.3511167787167  83.5627204359604 25.3511167787167  C 83.5627204359604 25.3511167787167  85.275549131033 23.0920460308083  85.275549131033 23.0920460308083  C 85.275549131033 23.0920460308083  88.8481651961992 22.1173503038989  88.8481651961992 22.1173503038989  C 88.8481651961992 22.1173503038989  88.9596510875945 20.5213108651305  88.9596510875945 20.5213108651305  C 88.9596510875945 20.5213108651305  92.0812560466616 21.1863272979505  92.0812560466616 21.1863272979505  C 92.0812560466616 21.1863272979505  92.2054107893516 19.7530680009471  92.2054107893516 19.7530680009471  C 92.2054107893516 19.7530680009471  95.3295495186779 18.9351970447626  95.3295495186779 18.9351970447626  C 95.3295495186779 18.9351970447626  98.7628082196001 18.1669541805792  98.7628082196001 18.1669541805792  C 98.7628082196001 18.1669541805792  104.010246425954 20.7833471908984  104.010246425954 20.7833471908984  C 104.010246425954 20.7833471908984  107.952792948932 24.1679830654008  107.952792948932 24.1679830654008  C 107.952792948932 24.1679830654008  112.399559753447 24.207685539002  112.399559753447 24.207685539002  C 112.399559753447 24.207685539002  116.917272125215 24.7456540562984  116.917272125215 24.7456540562984  C 116.917272125215 24.7456540562984  115.412212591378 21.6051883944432  115.412212591378 21.6051883944432  C 115.412212591378 21.6051883944432  118.815066049193 17.033448559265  118.815066049193 17.033448559265  C 118.815066049193 17.033448559265  122.017751656548 15.5465909228998  122.017751656548 15.5465909228998  C 122.017751656548 15.5465909228998  120.910494053372 14.1272274916569  120.910494053372 14.1272274916569  C 120.910494053372 14.1272274916569  123.996626228813 10.8875056457985  123.996626228813 10.8875056457985  C 123.996626228813 10.8875056457985  128.298968128566 8.89047122365803  128.298968128566 8.89047122365803  C 128.298968128566 8.89047122365803  131.934928450207 9.56342815119848  131.934928450207 9.56342815119848  C 131.934928450207 9.56342815119848  137.901957410113 8.49741673500639  137.901957410113 8.49741673500639  C 137.901957410113 8.49741673500639  137.772735126904 5.60906178051893  137.772735126904 5.60906178051893  C 137.772735126904 5.60906178051893  132.568371014953 3.75098601598269  132.568371014953 3.75098601598269  C 132.568371014953 3.75098601598269  136.351290011615 2.93112993611782  136.351290011615 2.93112993611782  C 136.351290011615 2.93112993611782  141.056501382546 4.32865700687992  141.056501382546 4.32865700687992  C 141.056501382546 4.32865700687992  146.670049629383 6.64529634151002  146.670049629383 6.64529634151002  C 146.670049629383 6.64529634151002  152.652281210842 8.09245150427401  152.652281210842 8.09245150427401  C 152.652281210842 8.09245150427401  154.681831188288 7.52073588441666  154.681831188288 7.52073588441666  C 154.681831188288 7.52073588441666  159.085523898401 9.25771910446924  159.085523898401 9.25771910446924  C 159.085523898401 9.25771910446924  163.235839582615 7.63984330522035  163.235839582615 7.63984330522035  C 163.235839582615 7.63984330522035  165.906433435583 8.13215397787514  165.906433435583 8.13215397787514  C 165.906433435583 8.13215397787514  167.568586725476 7.04629132488215  167.568586725476 7.04629132488215  C 167.568586725476 7.04629132488215  170.829549048788 9.84531571376692  170.829549048788 9.84531571376692  C 170.829549048788 9.84531571376692  168.936822665327 12.8785846968988  168.936822665327 12.8785846968988  C 168.936822665327 12.8785846968988  166.240891109769 15.1714025473685  166.240891109769 15.1714025473685  C 166.240891109769 15.1714025473685  163.798336580109 15.3619744206543  163.798336580109 15.3619744206543  C 163.798336580109 15.3619744206543  164.621811914279 17.6369261580033  164.621811914279 17.6369261580033  C 164.621811914279 17.6369261580033  162.533985220877 20.4855786388893  162.533985220877 20.4855786388893  C 162.533985220877 20.4855786388893  160.01035004293 23.2925435224945  160.01035004293 23.2925435224945  C 160.01035004293 23.2925435224945  160.519637864985 24.9084341980635  160.519637864985 24.9084341980635  C 160.519637864985 24.9084341980635  166.167411772259 28.0766915914394  166.167411772259 28.0766915914394  C 166.167411772259 28.0766915914394  171.640355531662 29.9188863665353  171.640355531662 29.9188863665353  C 171.640355531662 29.9188863665353  175.296586015375 31.9020249229155  175.296586015375 31.9020249229155  C 175.296586015375 31.9020249229155  180.432538330334 35.3204078999789  180.432538330334 35.3204078999789  C 180.432538330334 35.3204078999789  182.434216834931 35.3144525289387  182.434216834931 35.3144525289387  C 182.434216834931 35.3144525289387  186.153791575118 36.7953547942636  186.153791575118 36.7953547942636  C 186.153791575118 36.7953547942636  187.233177705445 38.5839512299977  187.233177705445 38.5839512299977  C 187.233177705445 38.5839512299977  194.016080688743 40.5531939206172  194.016080688743 40.5531939206172  C 194.016080688743 40.5531939206172  198.708623208379 38.570055364237  198.708623208379 38.570055364237  C 198.708623208379 38.570055364237  200.099663080561 35.4613516812631  200.099663080561 35.4613516812631  C 200.099663080561 35.4613516812631  201.538844587663 32.9025272576654  201.538844587663 32.9025272576654  C 201.538844587663 32.9025272576654  202.423130408048 29.7461806063698  202.423130408048 29.7461806063698  C 202.423130408048 29.7461806063698  204.584436438961 25.1803961422315  204.584436438961 25.1803961422315  C 204.584436438961 25.1803961422315  203.596266037958 22.4131337322277  203.596266037958 22.4131337322277  C 203.596266037958 22.4131337322277  204.108087630272 20.7515852120174  204.108087630272 20.7515852120174  C 204.108087630272 20.7515852120174  203.287146066362 17.4900270056785  203.287146066362 17.4900270056785  C 203.287146066362 17.4900270056785  204.217039751409 13.2081152277889  204.217039751409 13.2081152277889  C 204.217039751409 13.2081152277889  205.580208150741 12.0547583696741  205.580208150741 12.0547583696741  C 205.580208150741 12.0547583696741  204.472950547566 10.1629355025769  204.472950547566 10.1629355025769  C 204.472950547566 10.1629355025769  206.190846783156 7.16341362200589  206.190846783156 7.16341362200589  C 206.190846783156 7.16341362200589  207.538812560936 4.06066531007184  207.538812560936 4.06066531007184  C 207.538812560936 4.06066531007184  207.716176479065 2.45271512922307  207.716176479065 2.45271512922307  C 207.716176479065 2.45271512922307  210.356365088925 0.342528657319068  210.356365088925 0.342528657319068  C 210.356365088925 0.342528657319068  212.360577363781 3.09788032524247  212.360577363781 3.09788032524247  C 212.360577363781 3.09788032524247  212.852128794024 6.63735584678986  212.852128794024 6.63735584678986  C 212.852128794024 6.63735584678986  214.623234205053 7.32023839273043  214.623234205053 7.32023839273043  C 214.623234205053 7.32023839273043  214.924752865872 9.69643143776254  214.924752865872 9.69643143776254  C 214.924752865872 9.69643143776254  217.509198530034 12.5788310212098  217.509198530034 12.5788310212098  C 217.509198530034 12.5788310212098  218.041290284421 15.7947313829073  218.041290284421 15.7947313829073  Z " fill-rule="evenodd" />
    </mask>
  </defs>
  <g transform="matrix(1 0 0 1 -2646 -4401 )">
    <path d="M 224.351664876357 188.047883349085  C 224.351664876357 188.047883349085  229.003667071851 188.693048545104  229.003667071851 188.693048545104  C 229.003667071851 188.693048545104  235.867650703436 191.228051484541  235.867650703436 191.228051484541  C 235.867650703436 191.228051484541  241.574948449855 190.219608655071  241.574948449855 190.219608655071  C 241.574948449855 190.219608655071  247.11883777651 188.810170842228  247.11883777651 188.810170842228  C 247.11883777651 188.810170842228  251.38063935212 189.302481514883  251.38063935212 189.302481514883  C 251.38063935212 189.302481514883  251.884859633657 198.086653799149  251.884859633657 198.086653799149  C 251.884859633657 198.086653799149  249.449906414774 202.109491453976  249.449906414774 202.109491453976  C 249.449906414774 202.109491453976  248.717646809928 208.19191040968  248.717646809928 208.19191040968  C 248.717646809928 208.19191040968  246.234551956125 206.113485916657  246.234551956125 206.113485916657  C 246.234551956125 206.113485916657  241.303835032144 211.423691760818  241.303835032144 211.423691760818  C 241.303835032144 211.423691760818  239.834248281933 211.010786035365  239.834248281933 211.010786035365  C 239.834248281933 211.010786035365  233.622730253977 210.772571193758  233.622730253977 210.772571193758  C 233.622730253977 210.772571193758  229.241841476195 204.269306017881  229.241841476195 204.269306017881  C 229.241841476195 204.269306017881  228.268873696745 197.872260441702  228.268873696745 197.872260441702  C 228.268873696745 197.872260441702  224.17176718797 191.412667986787  224.17176718797 191.412667986787  C 224.17176718797 191.412667986787  224.351664876357 188.047883349085  224.351664876357 188.047883349085  Z M 218.041290284421 15.7947313829073  C 218.041290284421 15.7947313829073  217.798048339557 17.8473492680886  217.798048339557 17.8473492680886  C 217.798048339557 17.8473492680886  220.35715630113 22.3218180429443  220.35715630113 22.3218180429443  C 220.35715630113 22.3218180429443  224.915408997041 20.1699439737589  224.915408997041 20.1699439737589  C 224.915408997041 20.1699439737589  227.269281567636 22.5878246160725  227.269281567636 22.5878246160725  C 227.269281567636 22.5878246160725  230.679736336228 24.8210887561401  230.679736336228 24.8210887561401  C 230.679736336228 24.8210887561401  229.950010501641 27.3620470666169  229.950010501641 27.3620470666169  C 229.950010501641 27.3620470666169  231.465205116512 32.2930942878862  231.465205116512 32.2930942878862  C 231.465205116512 32.2930942878862  232.544591246839 35.1754938713338  232.544591246839 35.1754938713338  C 232.544591246839 35.1754938713338  234.333433049681 35.8802127777552  234.333433049681 35.8802127777552  C 234.333433049681 35.8802127777552  236.261632216767 40.833096359505  236.261632216767 40.833096359505  C 236.261632216767 40.833096359505  235.574980476583 43.8504843531963  235.574980476583 43.8504843531963  C 235.574980476583 43.8504843531963  237.87564387174 47.8108060949163  237.87564387174 47.8108060949163  C 237.87564387174 47.8108060949163  245.573237918531 50.871866809569  245.573237918531 50.871866809569  C 245.573237918531 50.871866809569  250.590103031317 53.6649358274139  250.590103031317 53.6649358274139  C 250.590103031317 53.6649358274139  255.356124888465 56.2297156220515  255.356124888465 56.2297156220515  C 255.356124888465 56.2297156220515  254.426231203418 57.6609897953748  254.426231203418 57.6609897953748  C 254.426231203418 57.6609897953748  258.490398698827 61.3771413244473  258.490398698827 61.3771413244473  C 258.490398698827 61.3771413244473  261.252208281119 67.8268081609627  261.252208281119 67.8268081609627  C 261.252208281119 67.8268081609627  264.087497200921 66.5126562847631  264.087497200921 66.5126562847631  C 264.087497200921 66.5126562847631  266.968393985385 69.1052278109214  266.968393985385 69.1052278109214  C 266.968393985385 69.1052278109214  268.706560383047 68.1841304233735  268.706560383047 68.1841304233735  C 268.706560383047 68.1841304233735  269.930371418136 74.5524071890063  269.930371418136 74.5524071890063  C 269.930371418136 74.5524071890063  274.970040463253 78.2665735943988  274.970040463253 78.2665735943988  C 274.970040463253 78.2665735943988  278.269009340449 80.5832129290293  278.269009340449 80.5832129290293  C 278.269009340449 80.5832129290293  283.820499977882 85.522200645019  283.820499977882 85.522200645019  C 283.820499977882 85.522200645019  285.81711094196 91.9013801080768  285.81711094196 91.9013801080768  C 285.81711094196 91.9013801080768  285.999542400607 95.4229895165036  285.999542400607 95.4229895165036  C 285.999542400607 95.4229895165036  285.510524740623 99.2681740847802  285.510524740623 99.2681740847802  C 285.510524740623 99.2681740847802  288.895641806625 104.580365052621  288.895641806625 104.580365052621  C 288.895641806625 104.580365052621  288.490238565188 110.16054771727  288.490238565188 110.16054771727  C 288.490238565188 110.16054771727  287.261359989581 113.098530763759  287.261359989581 113.098530763759  C 287.261359989581 113.098530763759  285.343295903531 118.797820849212  285.343295903531 118.797820849212  C 285.343295903531 118.797820849212  285.487720808293 122.488165770444  285.487720808293 122.488165770444  C 285.487720808293 122.488165770444  284.081478314557 127.133355181785  284.081478314557 127.133355181785  C 284.081478314557 127.133355181785  280.944670733936 133.080785727245  280.944670733936 133.080785727245  C 280.944670733936 133.080785727245  275.682029906028 136.318522449423  275.682029906028 136.318522449423  C 275.682029906028 136.318522449423  273.089982931088 141.459992780779  273.089982931088 141.459992780779  C 273.089982931088 141.459992780779  270.71837396868 144.767208831759  270.71837396868 144.767208831759  C 270.71837396868 144.767208831759  268.612810883465 150.587591461695  268.612810883465 150.587591461695  C 268.612810883465 150.587591461695  265.871271463245 153.976197583558  265.871271463245 153.976197583558  C 265.871271463245 153.976197583558  264.074828349626 159.103772049153  264.074828349626 159.103772049153  C 264.074828349626 159.103772049153  263.157603515874 163.870054004978  263.157603515874 163.870054004978  C 263.157603515874 163.870054004978  263.522466433168 166.071556166164  263.522466433168 166.071556166164  C 263.522466433168 166.071556166164  259.450697626982 168.501347550558  259.450697626982 168.501347550558  C 259.450697626982 168.501347550558  251.497192784034 168.755443381606  251.497192784034 168.755443381606  C 251.497192784034 168.755443381606  244.939795353786 171.641813212413  244.939795353786 171.641813212413  C 244.939795353786 171.641813212413  241.676299260216 174.381283890896  241.676299260216 174.381283890896  C 241.676299260216 174.381283890896  237.384092441498 177.436389234509  237.384092441498 177.436389234509  C 237.384092441498 177.436389234509  231.500677900139 174.291953325293  231.500677900139 174.291953325293  C 231.500677900139 174.291953325293  227.147660595206 173.043310530536  227.147660595206 173.043310530536  C 227.147660595206 173.043310530536  228.252384428123 169.368846598744  228.252384428123 169.368846598744  C 228.252384428123 169.368846598744  224.368114621102 170.698879464385  224.368114621102 170.698879464385  C 224.368114621102 170.698879464385  218.147708635298 175.8244688063  218.147708635298 175.8244688063  C 218.147708635298 175.8244688063  212.005849527523 173.898898836641  212.005849527523 173.898898836641  C 212.005849527523 173.898898836641  207.97715481574 172.779289081088  207.97715481574 172.779289081088  C 207.97715481574 172.779289081088  203.912987320331 172.275067666352  203.912987320331 172.275067666352  C 203.912987320331 172.275067666352  197.03633483745 170.23634564693  197.03633483745 170.23634564693  C 197.03633483745 170.23634564693  192.442609357914 165.9187016428  192.442609357914 165.9187016428  C 192.442609357914 165.9187016428  191.122515052984 160.64819827224  191.122515052984 160.64819827224  C 191.122515052984 160.64819827224  189.473030614386 157.170261584775  189.473030614386 157.170261584775  C 189.473030614386 157.170261584775  185.981495197507 154.39505868005  185.981495197507 154.39505868005  C 185.981495197507 154.39505868005  179.147916809029 153.573217476506  179.147916809029 153.573217476506  C 179.147916809029 153.573217476506  181.484052987812 150.275927043926  181.484052987812 150.275927043926  C 181.484052987812 150.275927043926  179.763622981962 145.269445122814  179.763622981962 145.269445122814  C 179.763622981962 145.269445122814  176.294891497415 149.936470894636  176.294891497415 149.936470894636  C 176.294891497415 149.936470894636  169.973134701251 151.181143442033  169.973134701251 151.181143442033  C 169.973134701251 151.181143442033  173.69017567118 147.43918530512  173.69017567118 147.43918530512  C 173.69017567118 147.43918530512  174.767028031247 143.562238757962  174.767028031247 143.562238757962  C 174.767028031247 143.562238757962  177.511101221726 140.294725180584  177.511101221726 140.294725180584  C 177.511101221726 140.294725180584  176.941002913455 135.387499443475  176.941002913455 135.387499443475  C 176.941002913455 135.387499443475  171.164006722973 141.043116807966  171.164006722973 141.043116807966  C 171.164006722973 141.043116807966  166.724841229235 143.326009040036  166.724841229235 143.326009040036  C 166.724841229235 143.326009040036  164.003571971087 148.671947110437  164.003571971087 148.671947110437  C 164.003571971087 148.671947110437  158.457148874173 145.900714453074  158.457148874173 145.900714453074  C 158.457148874173 145.900714453074  158.677586886705 142.345357942086  158.677586886705 142.345357942086  C 158.677586886705 142.345357942086  154.233353852448 137.52150739954  154.233353852448 137.52150739954  C 154.233353852448 137.52150739954  150.485907639412 135.046058170505  150.485907639412 135.046058170505  C 150.485907639412 135.046058170505  151.821204565896 133.525453431579  151.821204565896 133.525453431579  C 151.821204565896 133.525453431579  140.863934842865 129.553220947778  140.863934842865 129.553220947778  C 140.863934842865 129.553220947778  135.869873662409 129.366619321853  135.869873662409 129.366619321853  C 135.869873662409 129.366619321853  129.03882904419 126.196376804797  129.03882904419 126.196376804797  C 129.03882904419 126.196376804797  116.316768573836 126.811765145615  116.316768573836 126.811765145615  C 116.316768573836 126.811765145615  107.116648763468 129.144285469686  107.116648763468 129.144285469686  C 107.116648763468 129.144285469686  99.0339216373119 131.327921517752  99.0339216373119 131.327921517752  C 99.0339216373119 131.327921517752  92.2535524242727 130.893179431819  92.2535524242727 130.893179431819  C 92.2535524242727 130.893179431819  84.7231872145751 134.259949193201  84.7231872145751 134.259949193201  C 84.7231872145751 134.259949193201  78.5610579447277 135.780553932127  78.5610579447277 135.780553932127  C 78.5610579447277 135.780553932127  77.192822004877 139.254520372232  77.192822004877 139.254520372232  C 77.192822004877 139.254520372232  74.5703697868295 141.960243948154  74.5703697868295 141.960243948154  C 74.5703697868295 141.960243948154  68.5399965704495 142.123024089919  68.5399965704495 142.123024089919  C 68.5399965704495 142.123024089919  64.0780271443805 142.716576070257  64.0780271443805 142.716576070257  C 64.0780271443805 142.716576070257  57.7993444426205 141.49969525438  57.7993444426205 141.49969525438  C 57.7993444426205 141.49969525438  52.6887298302513 142.228235644962  52.6887298302513 142.228235644962  C 52.6887298302513 142.228235644962  47.8112220817086 142.533944691691  47.8112220817086 142.533944691691  C 47.8112220817086 142.533944691691  43.584893289725 146.10915243948  43.584893289725 146.10915243948  C 43.584893289725 146.10915243948  41.5148029881358 145.80542851643  41.5148029881358 145.80542851643  C 41.5148029881358 145.80542851643  37.9523220040054 147.709162125608  37.9523220040054 147.709162125608  C 37.9523220040054 147.709162125608  34.5367996948965 149.857065947433  34.5367996948965 149.857065947433  C 34.5367996948965 149.857065947433  29.3527057450168 149.591059374305  29.3527057450168 149.591059374305  C 29.3527057450168 149.591059374305  24.5917514283872 149.589074250625  24.5917514283872 149.589074250625  C 24.5917514283872 149.589074250625  17.0537849079122 145.285326112255  17.0537849079122 145.285326112255  C 17.0537849079122 145.285326112255  13.2353931276248 144.010876709656  13.2353931276248 144.010876709656  C 13.2353931276248 144.010876709656  13.3899531134231 140.18554337818  13.3899531134231 140.18554337818  C 13.3899531134231 140.18554337818  16.9194950841867 139.280326980072  16.9194950841867 139.280326980072  C 16.9194950841867 139.280326980072  18.1255697274625 137.769647859547  18.1255697274625 137.769647859547  C 18.1255697274625 137.769647859547  17.8721927015642 135.395439938195  17.8721927015642 135.395439938195  C 17.8721927015642 135.395439938195  18.7412759003954 130.825685226696  18.7412759003954 130.825685226696  C 18.7412759003954 130.825685226696  17.9482058093336 126.958664297939  17.9482058093336 126.958664297939  C 17.9482058093336 126.958664297939  14.1931582855208 120.419666895821  14.1931582855208 120.419666895821  C 14.1931582855208 120.419666895821  13.0276239663884 116.75711370611  13.0276239663884 116.75711370611  C 13.0276239663884 116.75711370611  13.334210167725 113.1243373716  13.334210167725 113.1243373716  C 13.334210167725 113.1243373716  10.5065225587 108.997265240755  10.5065225587 108.997265240755  C 10.5065225587 108.997265240755  10.3266248703122 107.143159723579  10.3266248703122 107.143159723579  C 10.3266248703122 107.143159723579  7.17968220865503 104.637933639343  7.17968220865503 104.637933639343  C 7.17968220865503 104.637933639343  6.29286261801103 99.7386483969548  6.29286261801103 99.7386483969548  C 6.29286261801103 99.7386483969548  2.23122889286119 94.8214970414459  2.23122889286119 94.8214970414459  C 2.23122889286119 94.8214970414459  1.24812603237577 92.1872379180062  1.24812603237577 92.1872379180062  C 1.24812603237577 92.1872379180062  4.36719722118393 94.8592143913671  4.36719722118393 94.8592143913671  C 4.36719722118393 94.8592143913671  1.97025055618599 87.6978961983652  1.97025055618599 87.6978961983652  C 1.97025055618599 87.6978961983652  5.49472498643105 90.9227141338078  5.49472498643105 90.9227141338078  C 5.49472498643105 90.9227141338078  7.59775430138745 93.31081792092  7.59775430138745 93.31081792092  C 7.59775430138745 93.31081792092  7.47866709921511 90.1544712696245  7.47866709921511 90.1544712696245  C 7.47866709921511 90.1544712696245  3.9617939797466 83.8884438563298  3.9617939797466 83.8884438563298  C 3.9617939797466 83.8884438563298  3.28020978008012 81.9668441340316  3.28020978008012 81.9668441340316  C 3.28020978008012 81.9668441340316  1.63325911174102 80.1464857194166  1.63325911174102 80.1464857194166  C 1.63325911174102 80.1464857194166  2.4060590407308 76.6387721767502  2.4060590407308 76.6387721767502  C 2.4060590407308 76.6387721767502  3.86044316938706 75.1499294167051  3.86044316938706 75.1499294167051  C 3.86044316938706 75.1499294167051  4.83087717857738 72.1345265466938  4.83087717857738 72.1345265466938  C 4.83087717857738 72.1345265466938  4.0707461008827 68.6248278803474  4.0707461008827 68.6248278803474  C 4.0707461008827 68.6248278803474  7.00738583104427 64.3270351130171  7.00738583104427 64.3270351130171  C 7.00738583104427 64.3270351130171  7.54201135568977 68.8769385877151  7.54201135568977 68.8769385877151  C 7.54201135568977 68.8769385877151  10.5445291125844 64.7657474463104  10.5445291125844 64.7657474463104  C 10.5445291125844 64.7657474463104  16.316457762548 62.7766535188904  16.316457762548 62.7766535188904  C 16.316457762548 62.7766535188904  19.7775879363193 60.2436357031337  19.7775879363193 60.2436357031337  C 19.7775879363193 60.2436357031337  25.2074576013202 58.0699252734678  25.2074576013202 58.0699252734678  C 25.2074576013202 58.0699252734678  28.4354809112645 57.609376579694  28.4354809112645 57.609376579694  C 28.4354809112645 57.609376579694  30.3915515511999 58.3379169702759  30.3915515511999 58.3379169702759  C 30.3915515511999 58.3379169702759  35.9886500532934 56.1364148090892  35.9886500532934 56.1364148090892  C 35.9886500532934 56.1364148090892  40.2985932638238 55.481323994669  40.2985932638238 55.481323994669  C 40.2985932638238 55.481323994669  41.3754456238914 54.1909936026302  41.3754456238914 54.1909936026302  C 41.3754456238914 54.1909936026302  43.2555031560566 53.6530250853338  43.2555031560566 53.6530250853338  C 43.2555031560566 53.6530250853338  47.1828470574806 53.7919837429381  47.1828470574806 53.7919837429381  C 47.1828470574806 53.7919837429381  54.649868010704 52.0708815123261  54.649868010704 52.0708815123261  C 54.649868010704 52.0708815123261  58.5113338853944 49.4644141204071  58.5113338853944 49.4644141204071  C 58.5113338853944 49.4644141204071  60.3255133908262 46.3378443243122  60.3255133908262 46.3378443243122  C 60.3255133908262 46.3378443243122  64.4935654668532 43.3780249173427  64.4935654668532 43.3780249173427  C 64.4935654668532 43.3780249173427  64.8128205194854 41.0574153353524  64.8128205194854 41.0574153353524  C 64.8128205194854 41.0574153353524  64.9977857483908 37.9030538077368  64.9977857483908 37.9030538077368  C 64.9977857483908 37.9030538077368  69.969042996516 32.991857823268  69.969042996516 32.991857823268  C 69.969042996516 32.991857823268  72.9614256723748 37.9824587549394  72.9614256723748 37.9824587549394  C 72.9614256723748 37.9824587549394  75.984213591342 36.8271167731442  75.984213591342 36.8271167731442  C 75.984213591342 36.8271167731442  73.4555108728766 34.0975717130616  73.4555108728766 34.0975717130616  C 73.4555108728766 34.0975717130616  75.6852287007819 31.3005324478568  75.6852287007819 31.3005324478568  C 75.6852287007819 31.3005324478568  78.8195025111436 32.5491752426148  78.8195025111436 32.5491752426148  C 78.8195025111436 32.5491752426148  79.6809843991983 28.171977528082  79.6809843991983 28.171977528082  C 79.6809843991983 28.171977528082  83.5627204359604 25.3511167787167  83.5627204359604 25.3511167787167  C 83.5627204359604 25.3511167787167  85.275549131033 23.0920460308083  85.275549131033 23.0920460308083  C 85.275549131033 23.0920460308083  88.8481651961992 22.1173503038989  88.8481651961992 22.1173503038989  C 88.8481651961992 22.1173503038989  88.9596510875945 20.5213108651305  88.9596510875945 20.5213108651305  C 88.9596510875945 20.5213108651305  92.0812560466616 21.1863272979505  92.0812560466616 21.1863272979505  C 92.0812560466616 21.1863272979505  92.2054107893516 19.7530680009471  92.2054107893516 19.7530680009471  C 92.2054107893516 19.7530680009471  95.3295495186779 18.9351970447626  95.3295495186779 18.9351970447626  C 95.3295495186779 18.9351970447626  98.7628082196001 18.1669541805792  98.7628082196001 18.1669541805792  C 98.7628082196001 18.1669541805792  104.010246425954 20.7833471908984  104.010246425954 20.7833471908984  C 104.010246425954 20.7833471908984  107.952792948932 24.1679830654008  107.952792948932 24.1679830654008  C 107.952792948932 24.1679830654008  112.399559753447 24.207685539002  112.399559753447 24.207685539002  C 112.399559753447 24.207685539002  116.917272125215 24.7456540562984  116.917272125215 24.7456540562984  C 116.917272125215 24.7456540562984  115.412212591378 21.6051883944432  115.412212591378 21.6051883944432  C 115.412212591378 21.6051883944432  118.815066049193 17.033448559265  118.815066049193 17.033448559265  C 118.815066049193 17.033448559265  122.017751656548 15.5465909228998  122.017751656548 15.5465909228998  C 122.017751656548 15.5465909228998  120.910494053372 14.1272274916569  120.910494053372 14.1272274916569  C 120.910494053372 14.1272274916569  123.996626228813 10.8875056457985  123.996626228813 10.8875056457985  C 123.996626228813 10.8875056457985  128.298968128566 8.89047122365803  128.298968128566 8.89047122365803  C 128.298968128566 8.89047122365803  131.934928450207 9.56342815119848  131.934928450207 9.56342815119848  C 131.934928450207 9.56342815119848  137.901957410113 8.49741673500639  137.901957410113 8.49741673500639  C 137.901957410113 8.49741673500639  137.772735126904 5.60906178051893  137.772735126904 5.60906178051893  C 137.772735126904 5.60906178051893  132.568371014953 3.75098601598269  132.568371014953 3.75098601598269  C 132.568371014953 3.75098601598269  136.351290011615 2.93112993611782  136.351290011615 2.93112993611782  C 136.351290011615 2.93112993611782  141.056501382546 4.32865700687992  141.056501382546 4.32865700687992  C 141.056501382546 4.32865700687992  146.670049629383 6.64529634151002  146.670049629383 6.64529634151002  C 146.670049629383 6.64529634151002  152.652281210842 8.09245150427401  152.652281210842 8.09245150427401  C 152.652281210842 8.09245150427401  154.681831188288 7.52073588441666  154.681831188288 7.52073588441666  C 154.681831188288 7.52073588441666  159.085523898401 9.25771910446924  159.085523898401 9.25771910446924  C 159.085523898401 9.25771910446924  163.235839582615 7.63984330522035  163.235839582615 7.63984330522035  C 163.235839582615 7.63984330522035  165.906433435583 8.13215397787514  165.906433435583 8.13215397787514  C 165.906433435583 8.13215397787514  167.568586725476 7.04629132488215  167.568586725476 7.04629132488215  C 167.568586725476 7.04629132488215  170.829549048788 9.84531571376692  170.829549048788 9.84531571376692  C 170.829549048788 9.84531571376692  168.936822665327 12.8785846968988  168.936822665327 12.8785846968988  C 168.936822665327 12.8785846968988  166.240891109769 15.1714025473685  166.240891109769 15.1714025473685  C 166.240891109769 15.1714025473685  163.798336580109 15.3619744206543  163.798336580109 15.3619744206543  C 163.798336580109 15.3619744206543  164.621811914279 17.6369261580033  164.621811914279 17.6369261580033  C 164.621811914279 17.6369261580033  162.533985220877 20.4855786388893  162.533985220877 20.4855786388893  C 162.533985220877 20.4855786388893  160.01035004293 23.2925435224945  160.01035004293 23.2925435224945  C 160.01035004293 23.2925435224945  160.519637864985 24.9084341980635  160.519637864985 24.9084341980635  C 160.519637864985 24.9084341980635  166.167411772259 28.0766915914394  166.167411772259 28.0766915914394  C 166.167411772259 28.0766915914394  171.640355531662 29.9188863665353  171.640355531662 29.9188863665353  C 171.640355531662 29.9188863665353  175.296586015375 31.9020249229155  175.296586015375 31.9020249229155  C 175.296586015375 31.9020249229155  180.432538330334 35.3204078999789  180.432538330334 35.3204078999789  C 180.432538330334 35.3204078999789  182.434216834931 35.3144525289387  182.434216834931 35.3144525289387  C 182.434216834931 35.3144525289387  186.153791575118 36.7953547942636  186.153791575118 36.7953547942636  C 186.153791575118 36.7953547942636  187.233177705445 38.5839512299977  187.233177705445 38.5839512299977  C 187.233177705445 38.5839512299977  194.016080688743 40.5531939206172  194.016080688743 40.5531939206172  C 194.016080688743 40.5531939206172  198.708623208379 38.570055364237  198.708623208379 38.570055364237  C 198.708623208379 38.570055364237  200.099663080561 35.4613516812631  200.099663080561 35.4613516812631  C 200.099663080561 35.4613516812631  201.538844587663 32.9025272576654  201.538844587663 32.9025272576654  C 201.538844587663 32.9025272576654  202.423130408048 29.7461806063698  202.423130408048 29.7461806063698  C 202.423130408048 29.7461806063698  204.584436438961 25.1803961422315  204.584436438961 25.1803961422315  C 204.584436438961 25.1803961422315  203.596266037958 22.4131337322277  203.596266037958 22.4131337322277  C 203.596266037958 22.4131337322277  204.108087630272 20.7515852120174  204.108087630272 20.7515852120174  C 204.108087630272 20.7515852120174  203.287146066362 17.4900270056785  203.287146066362 17.4900270056785  C 203.287146066362 17.4900270056785  204.217039751409 13.2081152277889  204.217039751409 13.2081152277889  C 204.217039751409 13.2081152277889  205.580208150741 12.0547583696741  205.580208150741 12.0547583696741  C 205.580208150741 12.0547583696741  204.472950547566 10.1629355025769  204.472950547566 10.1629355025769  C 204.472950547566 10.1629355025769  206.190846783156 7.16341362200589  206.190846783156 7.16341362200589  C 206.190846783156 7.16341362200589  207.538812560936 4.06066531007184  207.538812560936 4.06066531007184  C 207.538812560936 4.06066531007184  207.716176479065 2.45271512922307  207.716176479065 2.45271512922307  C 207.716176479065 2.45271512922307  210.356365088925 0.342528657319068  210.356365088925 0.342528657319068  C 210.356365088925 0.342528657319068  212.360577363781 3.09788032524247  212.360577363781 3.09788032524247  C 212.360577363781 3.09788032524247  212.852128794024 6.63735584678986  212.852128794024 6.63735584678986  C 212.852128794024 6.63735584678986  214.623234205053 7.32023839273043  214.623234205053 7.32023839273043  C 214.623234205053 7.32023839273043  214.924752865872 9.69643143776254  214.924752865872 9.69643143776254  C 214.924752865872 9.69643143776254  217.509198530034 12.5788310212098  217.509198530034 12.5788310212098  C 217.509198530034 12.5788310212098  218.041290284421 15.7947313829073  218.041290284421 15.7947313829073  Z " fill-rule="nonzero" fill="#74b9ff" stroke="none" transform="matrix(1 0 0 1 2646 4401 )" />
    <path d="M 224.351664876357 188.047883349085  C 224.351664876357 188.047883349085  229.003667071851 188.693048545104  229.003667071851 188.693048545104  C 229.003667071851 188.693048545104  235.867650703436 191.228051484541  235.867650703436 191.228051484541  C 235.867650703436 191.228051484541  241.574948449855 190.219608655071  241.574948449855 190.219608655071  C 241.574948449855 190.219608655071  247.11883777651 188.810170842228  247.11883777651 188.810170842228  C 247.11883777651 188.810170842228  251.38063935212 189.302481514883  251.38063935212 189.302481514883  C 251.38063935212 189.302481514883  251.884859633657 198.086653799149  251.884859633657 198.086653799149  C 251.884859633657 198.086653799149  249.449906414774 202.109491453976  249.449906414774 202.109491453976  C 249.449906414774 202.109491453976  248.717646809928 208.19191040968  248.717646809928 208.19191040968  C 248.717646809928 208.19191040968  246.234551956125 206.113485916657  246.234551956125 206.113485916657  C 246.234551956125 206.113485916657  241.303835032144 211.423691760818  241.303835032144 211.423691760818  C 241.303835032144 211.423691760818  239.834248281933 211.010786035365  239.834248281933 211.010786035365  C 239.834248281933 211.010786035365  233.622730253977 210.772571193758  233.622730253977 210.772571193758  C 233.622730253977 210.772571193758  229.241841476195 204.269306017881  229.241841476195 204.269306017881  C 229.241841476195 204.269306017881  228.268873696745 197.872260441702  228.268873696745 197.872260441702  C 228.268873696745 197.872260441702  224.17176718797 191.412667986787  224.17176718797 191.412667986787  C 224.17176718797 191.412667986787  224.351664876357 188.047883349085  224.351664876357 188.047883349085  Z " stroke-width="2" stroke="#505050" fill="none" stroke-opacity="0.211764705882353" transform="matrix(1 0 0 1 2646 4401 )" mask="url(#clip259)" />
    <path d="M 218.041290284421 15.7947313829073  C 218.041290284421 15.7947313829073  217.798048339557 17.8473492680886  217.798048339557 17.8473492680886  C 217.798048339557 17.8473492680886  220.35715630113 22.3218180429443  220.35715630113 22.3218180429443  C 220.35715630113 22.3218180429443  224.915408997041 20.1699439737589  224.915408997041 20.1699439737589  C 224.915408997041 20.1699439737589  227.269281567636 22.5878246160725  227.269281567636 22.5878246160725  C 227.269281567636 22.5878246160725  230.679736336228 24.8210887561401  230.679736336228 24.8210887561401  C 230.679736336228 24.8210887561401  229.950010501641 27.3620470666169  229.950010501641 27.3620470666169  C 229.950010501641 27.3620470666169  231.465205116512 32.2930942878862  231.465205116512 32.2930942878862  C 231.465205116512 32.2930942878862  232.544591246839 35.1754938713338  232.544591246839 35.1754938713338  C 232.544591246839 35.1754938713338  234.333433049681 35.8802127777552  234.333433049681 35.8802127777552  C 234.333433049681 35.8802127777552  236.261632216767 40.833096359505  236.261632216767 40.833096359505  C 236.261632216767 40.833096359505  235.574980476583 43.8504843531963  235.574980476583 43.8504843531963  C 235.574980476583 43.8504843531963  237.87564387174 47.8108060949163  237.87564387174 47.8108060949163  C 237.87564387174 47.8108060949163  245.573237918531 50.871866809569  245.573237918531 50.871866809569  C 245.573237918531 50.871866809569  250.590103031317 53.6649358274139  250.590103031317 53.6649358274139  C 250.590103031317 53.6649358274139  255.356124888465 56.2297156220515  255.356124888465 56.2297156220515  C 255.356124888465 56.2297156220515  254.426231203418 57.6609897953748  254.426231203418 57.6609897953748  C 254.426231203418 57.6609897953748  258.490398698827 61.3771413244473  258.490398698827 61.3771413244473  C 258.490398698827 61.3771413244473  261.252208281119 67.8268081609627  261.252208281119 67.8268081609627  C 261.252208281119 67.8268081609627  264.087497200921 66.5126562847631  264.087497200921 66.5126562847631  C 264.087497200921 66.5126562847631  266.968393985385 69.1052278109214  266.968393985385 69.1052278109214  C 266.968393985385 69.1052278109214  268.706560383047 68.1841304233735  268.706560383047 68.1841304233735  C 268.706560383047 68.1841304233735  269.930371418136 74.5524071890063  269.930371418136 74.5524071890063  C 269.930371418136 74.5524071890063  274.970040463253 78.2665735943988  274.970040463253 78.2665735943988  C 274.970040463253 78.2665735943988  278.269009340449 80.5832129290293  278.269009340449 80.5832129290293  C 278.269009340449 80.5832129290293  283.820499977882 85.522200645019  283.820499977882 85.522200645019  C 283.820499977882 85.522200645019  285.81711094196 91.9013801080768  285.81711094196 91.9013801080768  C 285.81711094196 91.9013801080768  285.999542400607 95.4229895165036  285.999542400607 95.4229895165036  C 285.999542400607 95.4229895165036  285.510524740623 99.2681740847802  285.510524740623 99.2681740847802  C 285.510524740623 99.2681740847802  288.895641806625 104.580365052621  288.895641806625 104.580365052621  C 288.895641806625 104.580365052621  288.490238565188 110.16054771727  288.490238565188 110.16054771727  C 288.490238565188 110.16054771727  287.261359989581 113.098530763759  287.261359989581 113.098530763759  C 287.261359989581 113.098530763759  285.343295903531 118.797820849212  285.343295903531 118.797820849212  C 285.343295903531 118.797820849212  285.487720808293 122.488165770444  285.487720808293 122.488165770444  C 285.487720808293 122.488165770444  284.081478314557 127.133355181785  284.081478314557 127.133355181785  C 284.081478314557 127.133355181785  280.944670733936 133.080785727245  280.944670733936 133.080785727245  C 280.944670733936 133.080785727245  275.682029906028 136.318522449423  275.682029906028 136.318522449423  C 275.682029906028 136.318522449423  273.089982931088 141.459992780779  273.089982931088 141.459992780779  C 273.089982931088 141.459992780779  270.71837396868 144.767208831759  270.71837396868 144.767208831759  C 270.71837396868 144.767208831759  268.612810883465 150.587591461695  268.612810883465 150.587591461695  C 268.612810883465 150.587591461695  265.871271463245 153.976197583558  265.871271463245 153.976197583558  C 265.871271463245 153.976197583558  264.074828349626 159.103772049153  264.074828349626 159.103772049153  C 264.074828349626 159.103772049153  263.157603515874 163.870054004978  263.157603515874 163.870054004978  C 263.157603515874 163.870054004978  263.522466433168 166.071556166164  263.522466433168 166.071556166164  C 263.522466433168 166.071556166164  259.450697626982 168.501347550558  259.450697626982 168.501347550558  C 259.450697626982 168.501347550558  251.497192784034 168.755443381606  251.497192784034 168.755443381606  C 251.497192784034 168.755443381606  244.939795353786 171.641813212413  244.939795353786 171.641813212413  C 244.939795353786 171.641813212413  241.676299260216 174.381283890896  241.676299260216 174.381283890896  C 241.676299260216 174.381283890896  237.384092441498 177.436389234509  237.384092441498 177.436389234509  C 237.384092441498 177.436389234509  231.500677900139 174.291953325293  231.500677900139 174.291953325293  C 231.500677900139 174.291953325293  227.147660595206 173.043310530536  227.147660595206 173.043310530536  C 227.147660595206 173.043310530536  228.252384428123 169.368846598744  228.252384428123 169.368846598744  C 228.252384428123 169.368846598744  224.368114621102 170.698879464385  224.368114621102 170.698879464385  C 224.368114621102 170.698879464385  218.147708635298 175.8244688063  218.147708635298 175.8244688063  C 218.147708635298 175.8244688063  212.005849527523 173.898898836641  212.005849527523 173.898898836641  C 212.005849527523 173.898898836641  207.97715481574 172.779289081088  207.97715481574 172.779289081088  C 207.97715481574 172.779289081088  203.912987320331 172.275067666352  203.912987320331 172.275067666352  C 203.912987320331 172.275067666352  197.03633483745 170.23634564693  197.03633483745 170.23634564693  C 197.03633483745 170.23634564693  192.442609357914 165.9187016428  192.442609357914 165.9187016428  C 192.442609357914 165.9187016428  191.122515052984 160.64819827224  191.122515052984 160.64819827224  C 191.122515052984 160.64819827224  189.473030614386 157.170261584775  189.473030614386 157.170261584775  C 189.473030614386 157.170261584775  185.981495197507 154.39505868005  185.981495197507 154.39505868005  C 185.981495197507 154.39505868005  179.147916809029 153.573217476506  179.147916809029 153.573217476506  C 179.147916809029 153.573217476506  181.484052987812 150.275927043926  181.484052987812 150.275927043926  C 181.484052987812 150.275927043926  179.763622981962 145.269445122814  179.763622981962 145.269445122814  C 179.763622981962 145.269445122814  176.294891497415 149.936470894636  176.294891497415 149.936470894636  C 176.294891497415 149.936470894636  169.973134701251 151.181143442033  169.973134701251 151.181143442033  C 169.973134701251 151.181143442033  173.69017567118 147.43918530512  173.69017567118 147.43918530512  C 173.69017567118 147.43918530512  174.767028031247 143.562238757962  174.767028031247 143.562238757962  C 174.767028031247 143.562238757962  177.511101221726 140.294725180584  177.511101221726 140.294725180584  C 177.511101221726 140.294725180584  176.941002913455 135.387499443475  176.941002913455 135.387499443475  C 176.941002913455 135.387499443475  171.164006722973 141.043116807966  171.164006722973 141.043116807966  C 171.164006722973 141.043116807966  166.724841229235 143.326009040036  166.724841229235 143.326009040036  C 166.724841229235 143.326009040036  164.003571971087 148.671947110437  164.003571971087 148.671947110437  C 164.003571971087 148.671947110437  158.457148874173 145.900714453074  158.457148874173 145.900714453074  C 158.457148874173 145.900714453074  158.677586886705 142.345357942086  158.677586886705 142.345357942086  C 158.677586886705 142.345357942086  154.233353852448 137.52150739954  154.233353852448 137.52150739954  C 154.233353852448 137.52150739954  150.485907639412 135.046058170505  150.485907639412 135.046058170505  C 150.485907639412 135.046058170505  151.821204565896 133.525453431579  151.821204565896 133.525453431579  C 151.821204565896 133.525453431579  140.863934842865 129.553220947778  140.863934842865 129.553220947778  C 140.863934842865 129.553220947778  135.869873662409 129.366619321853  135.869873662409 129.366619321853  C 135.869873662409 129.366619321853  129.03882904419 126.196376804797  129.03882904419 126.196376804797  C 129.03882904419 126.196376804797  116.316768573836 126.811765145615  116.316768573836 126.811765145615  C 116.316768573836 126.811765145615  107.116648763468 129.144285469686  107.116648763468 129.144285469686  C 107.116648763468 129.144285469686  99.0339216373119 131.327921517752  99.0339216373119 131.327921517752  C 99.0339216373119 131.327921517752  92.2535524242727 130.893179431819  92.2535524242727 130.893179431819  C 92.2535524242727 130.893179431819  84.7231872145751 134.259949193201  84.7231872145751 134.259949193201  C 84.7231872145751 134.259949193201  78.5610579447277 135.780553932127  78.5610579447277 135.780553932127  C 78.5610579447277 135.780553932127  77.192822004877 139.254520372232  77.192822004877 139.254520372232  C 77.192822004877 139.254520372232  74.5703697868295 141.960243948154  74.5703697868295 141.960243948154  C 74.5703697868295 141.960243948154  68.5399965704495 142.123024089919  68.5399965704495 142.123024089919  C 68.5399965704495 142.123024089919  64.0780271443805 142.716576070257  64.0780271443805 142.716576070257  C 64.0780271443805 142.716576070257  57.7993444426205 141.49969525438  57.7993444426205 141.49969525438  C 57.7993444426205 141.49969525438  52.6887298302513 142.228235644962  52.6887298302513 142.228235644962  C 52.6887298302513 142.228235644962  47.8112220817086 142.533944691691  47.8112220817086 142.533944691691  C 47.8112220817086 142.533944691691  43.584893289725 146.10915243948  43.584893289725 146.10915243948  C 43.584893289725 146.10915243948  41.5148029881358 145.80542851643  41.5148029881358 145.80542851643  C 41.5148029881358 145.80542851643  37.9523220040054 147.709162125608  37.9523220040054 147.709162125608  C 37.9523220040054 147.709162125608  34.5367996948965 149.857065947433  34.5367996948965 149.857065947433  C 34.5367996948965 149.857065947433  29.3527057450168 149.591059374305  29.3527057450168 149.591059374305  C 29.3527057450168 149.591059374305  24.5917514283872 149.589074250625  24.5917514283872 149.589074250625  C 24.5917514283872 149.589074250625  17.0537849079122 145.285326112255  17.0537849079122 145.285326112255  C 17.0537849079122 145.285326112255  13.2353931276248 144.010876709656  13.2353931276248 144.010876709656  C 13.2353931276248 144.010876709656  13.3899531134231 140.18554337818  13.3899531134231 140.18554337818  C 13.3899531134231 140.18554337818  16.9194950841867 139.280326980072  16.9194950841867 139.280326980072  C 16.9194950841867 139.280326980072  18.1255697274625 137.769647859547  18.1255697274625 137.769647859547  C 18.1255697274625 137.769647859547  17.8721927015642 135.395439938195  17.8721927015642 135.395439938195  C 17.8721927015642 135.395439938195  18.7412759003954 130.825685226696  18.7412759003954 130.825685226696  C 18.7412759003954 130.825685226696  17.9482058093336 126.958664297939  17.9482058093336 126.958664297939  C 17.9482058093336 126.958664297939  14.1931582855208 120.419666895821  14.1931582855208 120.419666895821  C 14.1931582855208 120.419666895821  13.0276239663884 116.75711370611  13.0276239663884 116.75711370611  C 13.0276239663884 116.75711370611  13.334210167725 113.1243373716  13.334210167725 113.1243373716  C 13.334210167725 113.1243373716  10.5065225587 108.997265240755  10.5065225587 108.997265240755  C 10.5065225587 108.997265240755  10.3266248703122 107.143159723579  10.3266248703122 107.143159723579  C 10.3266248703122 107.143159723579  7.17968220865503 104.637933639343  7.17968220865503 104.637933639343  C 7.17968220865503 104.637933639343  6.29286261801103 99.7386483969548  6.29286261801103 99.7386483969548  C 6.29286261801103 99.7386483969548  2.23122889286119 94.8214970414459  2.23122889286119 94.8214970414459  C 2.23122889286119 94.8214970414459  1.24812603237577 92.1872379180062  1.24812603237577 92.1872379180062  C 1.24812603237577 92.1872379180062  4.36719722118393 94.8592143913671  4.36719722118393 94.8592143913671  C 4.36719722118393 94.8592143913671  1.97025055618599 87.6978961983652  1.97025055618599 87.6978961983652  C 1.97025055618599 87.6978961983652  5.49472498643105 90.9227141338078  5.49472498643105 90.9227141338078  C 5.49472498643105 90.9227141338078  7.59775430138745 93.31081792092  7.59775430138745 93.31081792092  C 7.59775430138745 93.31081792092  7.47866709921511 90.1544712696245  7.47866709921511 90.1544712696245  C 7.47866709921511 90.1544712696245  3.9617939797466 83.8884438563298  3.9617939797466 83.8884438563298  C 3.9617939797466 83.8884438563298  3.28020978008012 81.9668441340316  3.28020978008012 81.9668441340316  C 3.28020978008012 81.9668441340316  1.63325911174102 80.1464857194166  1.63325911174102 80.1464857194166  C 1.63325911174102 80.1464857194166  2.4060590407308 76.6387721767502  2.4060590407308 76.6387721767502  C 2.4060590407308 76.6387721767502  3.86044316938706 75.1499294167051  3.86044316938706 75.1499294167051  C 3.86044316938706 75.1499294167051  4.83087717857738 72.1345265466938  4.83087717857738 72.1345265466938  C 4.83087717857738 72.1345265466938  4.0707461008827 68.6248278803474  4.0707461008827 68.6248278803474  C 4.0707461008827 68.6248278803474  7.00738583104427 64.3270351130171  7.00738583104427 64.3270351130171  C 7.00738583104427 64.3270351130171  7.54201135568977 68.8769385877151  7.54201135568977 68.8769385877151  C 7.54201135568977 68.8769385877151  10.5445291125844 64.7657474463104  10.5445291125844 64.7657474463104  C 10.5445291125844 64.7657474463104  16.316457762548 62.7766535188904  16.316457762548 62.7766535188904  C 16.316457762548 62.7766535188904  19.7775879363193 60.2436357031337  19.7775879363193 60.2436357031337  C 19.7775879363193 60.2436357031337  25.2074576013202 58.0699252734678  25.2074576013202 58.0699252734678  C 25.2074576013202 58.0699252734678  28.4354809112645 57.609376579694  28.4354809112645 57.609376579694  C 28.4354809112645 57.609376579694  30.3915515511999 58.3379169702759  30.3915515511999 58.3379169702759  C 30.3915515511999 58.3379169702759  35.9886500532934 56.1364148090892  35.9886500532934 56.1364148090892  C 35.9886500532934 56.1364148090892  40.2985932638238 55.481323994669  40.2985932638238 55.481323994669  C 40.2985932638238 55.481323994669  41.3754456238914 54.1909936026302  41.3754456238914 54.1909936026302  C 41.3754456238914 54.1909936026302  43.2555031560566 53.6530250853338  43.2555031560566 53.6530250853338  C 43.2555031560566 53.6530250853338  47.1828470574806 53.7919837429381  47.1828470574806 53.7919837429381  C 47.1828470574806 53.7919837429381  54.649868010704 52.0708815123261  54.649868010704 52.0708815123261  C 54.649868010704 52.0708815123261  58.5113338853944 49.4644141204071  58.5113338853944 49.4644141204071  C 58.5113338853944 49.4644141204071  60.3255133908262 46.3378443243122  60.3255133908262 46.3378443243122  C 60.3255133908262 46.3378443243122  64.4935654668532 43.3780249173427  64.4935654668532 43.3780249173427  C 64.4935654668532 43.3780249173427  64.8128205194854 41.0574153353524  64.8128205194854 41.0574153353524  C 64.8128205194854 41.0574153353524  64.9977857483908 37.9030538077368  64.9977857483908 37.9030538077368  C 64.9977857483908 37.9030538077368  69.969042996516 32.991857823268  69.969042996516 32.991857823268  C 69.969042996516 32.991857823268  72.9614256723748 37.9824587549394  72.9614256723748 37.9824587549394  C 72.9614256723748 37.9824587549394  75.984213591342 36.8271167731442  75.984213591342 36.8271167731442  C 75.984213591342 36.8271167731442  73.4555108728766 34.0975717130616  73.4555108728766 34.0975717130616  C 73.4555108728766 34.0975717130616  75.6852287007819 31.3005324478568  75.6852287007819 31.3005324478568  C 75.6852287007819 31.3005324478568  78.8195025111436 32.5491752426148  78.8195025111436 32.5491752426148  C 78.8195025111436 32.5491752426148  79.6809843991983 28.171977528082  79.6809843991983 28.171977528082  C 79.6809843991983 28.171977528082  83.5627204359604 25.3511167787167  83.5627204359604 25.3511167787167  C 83.5627204359604 25.3511167787167  85.275549131033 23.0920460308083  85.275549131033 23.0920460308083  C 85.275549131033 23.0920460308083  88.8481651961992 22.1173503038989  88.8481651961992 22.1173503038989  C 88.8481651961992 22.1173503038989  88.9596510875945 20.5213108651305  88.9596510875945 20.5213108651305  C 88.9596510875945 20.5213108651305  92.0812560466616 21.1863272979505  92.0812560466616 21.1863272979505  C 92.0812560466616 21.1863272979505  92.2054107893516 19.7530680009471  92.2054107893516 19.7530680009471  C 92.2054107893516 19.7530680009471  95.3295495186779 18.9351970447626  95.3295495186779 18.9351970447626  C 95.3295495186779 18.9351970447626  98.7628082196001 18.1669541805792  98.7628082196001 18.1669541805792  C 98.7628082196001 18.1669541805792  104.010246425954 20.7833471908984  104.010246425954 20.7833471908984  C 104.010246425954 20.7833471908984  107.952792948932 24.1679830654008  107.952792948932 24.1679830654008  C 107.952792948932 24.1679830654008  112.399559753447 24.207685539002  112.399559753447 24.207685539002  C 112.399559753447 24.207685539002  116.917272125215 24.7456540562984  116.917272125215 24.7456540562984  C 116.917272125215 24.7456540562984  115.412212591378 21.6051883944432  115.412212591378 21.6051883944432  C 115.412212591378 21.6051883944432  118.815066049193 17.033448559265  118.815066049193 17.033448559265  C 118.815066049193 17.033448559265  122.017751656548 15.5465909228998  122.017751656548 15.5465909228998  C 122.017751656548 15.5465909228998  120.910494053372 14.1272274916569  120.910494053372 14.1272274916569  C 120.910494053372 14.1272274916569  123.996626228813 10.8875056457985  123.996626228813 10.8875056457985  C 123.996626228813 10.8875056457985  128.298968128566 8.89047122365803  128.298968128566 8.89047122365803  C 128.298968128566 8.89047122365803  131.934928450207 9.56342815119848  131.934928450207 9.56342815119848  C 131.934928450207 9.56342815119848  137.901957410113 8.49741673500639  137.901957410113 8.49741673500639  C 137.901957410113 8.49741673500639  137.772735126904 5.60906178051893  137.772735126904 5.60906178051893  C 137.772735126904 5.60906178051893  132.568371014953 3.75098601598269  132.568371014953 3.75098601598269  C 132.568371014953 3.75098601598269  136.351290011615 2.93112993611782  136.351290011615 2.93112993611782  C 136.351290011615 2.93112993611782  141.056501382546 4.32865700687992  141.056501382546 4.32865700687992  C 141.056501382546 4.32865700687992  146.670049629383 6.64529634151002  146.670049629383 6.64529634151002  C 146.670049629383 6.64529634151002  152.652281210842 8.09245150427401  152.652281210842 8.09245150427401  C 152.652281210842 8.09245150427401  154.681831188288 7.52073588441666  154.681831188288 7.52073588441666  C 154.681831188288 7.52073588441666  159.085523898401 9.25771910446924  159.085523898401 9.25771910446924  C 159.085523898401 9.25771910446924  163.235839582615 7.63984330522035  163.235839582615 7.63984330522035  C 163.235839582615 7.63984330522035  165.906433435583 8.13215397787514  165.906433435583 8.13215397787514  C 165.906433435583 8.13215397787514  167.568586725476 7.04629132488215  167.568586725476 7.04629132488215  C 167.568586725476 7.04629132488215  170.829549048788 9.84531571376692  170.829549048788 9.84531571376692  C 170.829549048788 9.84531571376692  168.936822665327 12.8785846968988  168.936822665327 12.8785846968988  C 168.936822665327 12.8785846968988  166.240891109769 15.1714025473685  166.240891109769 15.1714025473685  C 166.240891109769 15.1714025473685  163.798336580109 15.3619744206543  163.798336580109 15.3619744206543  C 163.798336580109 15.3619744206543  164.621811914279 17.6369261580033  164.621811914279 17.6369261580033  C 164.621811914279 17.6369261580033  162.533985220877 20.4855786388893  162.533985220877 20.4855786388893  C 162.533985220877 20.4855786388893  160.01035004293 23.2925435224945  160.01035004293 23.2925435224945  C 160.01035004293 23.2925435224945  160.519637864985 24.9084341980635  160.519637864985 24.9084341980635  C 160.519637864985 24.9084341980635  166.167411772259 28.0766915914394  166.167411772259 28.0766915914394  C 166.167411772259 28.0766915914394  171.640355531662 29.9188863665353  171.640355531662 29.9188863665353  C 171.640355531662 29.9188863665353  175.296586015375 31.9020249229155  175.296586015375 31.9020249229155  C 175.296586015375 31.9020249229155  180.432538330334 35.3204078999789  180.432538330334 35.3204078999789  C 180.432538330334 35.3204078999789  182.434216834931 35.3144525289387  182.434216834931 35.3144525289387  C 182.434216834931 35.3144525289387  186.153791575118 36.7953547942636  186.153791575118 36.7953547942636  C 186.153791575118 36.7953547942636  187.233177705445 38.5839512299977  187.233177705445 38.5839512299977  C 187.233177705445 38.5839512299977  194.016080688743 40.5531939206172  194.016080688743 40.5531939206172  C 194.016080688743 40.5531939206172  198.708623208379 38.570055364237  198.708623208379 38.570055364237  C 198.708623208379 38.570055364237  200.099663080561 35.4613516812631  200.099663080561 35.4613516812631  C 200.099663080561 35.4613516812631  201.538844587663 32.9025272576654  201.538844587663 32.9025272576654  C 201.538844587663 32.9025272576654  202.423130408048 29.7461806063698  202.423130408048 29.7461806063698  C 202.423130408048 29.7461806063698  204.584436438961 25.1803961422315  204.584436438961 25.1803961422315  C 204.584436438961 25.1803961422315  203.596266037958 22.4131337322277  203.596266037958 22.4131337322277  C 203.596266037958 22.4131337322277  204.108087630272 20.7515852120174  204.108087630272 20.7515852120174  C 204.108087630272 20.7515852120174  203.287146066362 17.4900270056785  203.287146066362 17.4900270056785  C 203.287146066362 17.4900270056785  204.217039751409 13.2081152277889  204.217039751409 13.2081152277889  C 204.217039751409 13.2081152277889  205.580208150741 12.0547583696741  205.580208150741 12.0547583696741  C 205.580208150741 12.0547583696741  204.472950547566 10.1629355025769  204.472950547566 10.1629355025769  C 204.472950547566 10.1629355025769  206.190846783156 7.16341362200589  206.190846783156 7.16341362200589  C 206.190846783156 7.16341362200589  207.538812560936 4.06066531007184  207.538812560936 4.06066531007184  C 207.538812560936 4.06066531007184  207.716176479065 2.45271512922307  207.716176479065 2.45271512922307  C 207.716176479065 2.45271512922307  210.356365088925 0.342528657319068  210.356365088925 0.342528657319068  C 210.356365088925 0.342528657319068  212.360577363781 3.09788032524247  212.360577363781 3.09788032524247  C 212.360577363781 3.09788032524247  212.852128794024 6.63735584678986  212.852128794024 6.63735584678986  C 212.852128794024 6.63735584678986  214.623234205053 7.32023839273043  214.623234205053 7.32023839273043  C 214.623234205053 7.32023839273043  214.924752865872 9.69643143776254  214.924752865872 9.69643143776254  C 214.924752865872 9.69643143776254  217.509198530034 12.5788310212098  217.509198530034 12.5788310212098  C 217.509198530034 12.5788310212098  218.041290284421 15.7947313829073  218.041290284421 15.7947313829073  Z " stroke-width="2" stroke="#505050" fill="none" stroke-opacity="0.211764705882353" transform="matrix(1 0 0 1 2646 4401 )" mask="url(#clip259)" />
  </g>
</svg>