<?xml version="1.0" encoding="utf-8"?>
<svg version="1.1" xmlns:xlink="http://www.w3.org/1999/xlink" width="42px" height="29px" xmlns="http://www.w3.org/2000/svg">
  <defs>
    <mask fill="white" id="clip263">
      <path d="M 0.240139480160036 17.077530282443  C 0.240139480160036 17.077530282443  1.70554914980834 16.879936970518  1.70554914980834 16.879936970518  C 1.70554914980834 16.879936970518  3.79432348167333 18.821939925093  3.79432348167333 18.821939925093  C 3.79432348167333 18.821939925093  8.73472018209563 18.8059727887758  8.73472018209563 18.8059727887758  C 8.73472018209563 18.8059727887758  8.70204380867298 19.9196805468979  8.70204380867298 19.9196805468979  C 8.70204380867298 19.9196805468979  11.580078237055 25.5211359893603  11.580078237055 25.5211359893603  C 11.580078237055 25.5211359893603  4.92040158116268 24.5690954864495  4.92040158116268 24.5690954864495  C 4.92040158116268 24.5690954864495  1.35867687809069 19.8039188085985  1.35867687809069 19.8039188085985  C 1.35867687809069 19.8039188085985  0.240139480160036 17.077530282443  0.240139480160036 17.077530282443  Z M 13.572099836614 1.51156826524853  C 13.572099836614 1.51156826524853  18.4182573719158 6.03625551912465  18.4182573719158 6.03625551912465  C 18.4182573719158 6.03625551912465  23.3636812067105 6.54121620515494  23.3636812067105 6.54121620515494  C 23.3636812067105 6.54121620515494  24.5727070233496 4.65509822769005  24.5727070233496 4.65509822769005  C 24.5727070233496 4.65509822769005  28.7804184933165 1.64928481598422  28.7804184933165 1.64928481598422  C 28.7804184933165 1.64928481598422  32.4854165260111 5.57121267388727  32.4854165260111 5.57121267388727  C 32.4854165260111 5.57121267388727  36.0697633337604 10.8064374938771  36.0697633337604 10.8064374938771  C 36.0697633337604 10.8064374938771  39.3549956463329 11.1497309246961  39.3549956463329 11.1497309246961  C 39.3549956463329 11.1497309246961  41.5242041281618 13.1216722598658  41.5242041281618 13.1216722598658  C 41.5242041281618 13.1216722598658  35.7178639276703 13.7084645195215  35.7178639276703 13.7084645195215  C 35.7178639276703 13.7084645195215  34.4937567079134 20.7928677474403  34.4937567079134 20.7928677474403  C 34.4937567079134 20.7928677474403  33.2822173240876 23.3136793935123  33.2822173240876 23.3136793935123  C 33.2822173240876 23.3136793935123  30.6982702565095 24.9882328147748  30.6982702565095 24.9882328147748  C 30.6982702565095 24.9882328147748  30.8867877954867 28.5189658329075  30.8867877954867 28.5189658329075  C 30.8867877954867 28.5189658329075  29.1323178994074 28.8742346159644  29.1323178994074 28.8742346159644  C 29.1323178994074 28.8742346159644  24.7360888904638 25.1439123938671  24.7360888904638 25.1439123938671  C 24.7360888904638 25.1439123938671  27.1667083596739 21.593220455338  27.1667083596739 21.593220455338  C 27.1667083596739 21.593220455338  25.0829611621814 19.4735831092346  25.0829611621814 19.4735831092346  C 25.0829611621814 19.4735831092346  22.4412020493171 20.0084821758595  22.4412020493171 20.0084821758595  C 22.4412020493171 20.0084821758595  12.3027484075025 25.3095714331577  12.3027484075025 25.3095714331577  C 12.3027484075025 25.3095714331577  12.1469072419483 20.3278249022028  12.1469072419483 20.3278249022028  C 12.1469072419483 20.3278249022028  8.98232615432109 19.1442609226931  8.98232615432109 19.1442609226931  C 8.98232615432109 19.1442609226931  5.99118120255247 17.1723195875235  5.99118120255247 17.1723195875235  C 5.99118120255247 17.1723195875235  7.97941284696326 13.4030930374556  7.97941284696326 13.4030930374556  C 7.97941284696326 13.4030930374556  4.22414347054157 10.8922608515818  4.22414347054157 10.8922608515818  C 4.22414347054157 10.8922608515818  5.64179536364859 9.04805660694944  5.64179536364859 9.04805660694944  C 5.64179536364859 9.04805660694944  2.95730560861585 7.77068570157648  2.95730560861585 7.77068570157648  C 2.95730560861585 7.77068570157648  1.49692307334084 5.82668685496189  1.49692307334084 5.82668685496189  C 1.49692307334084 5.82668685496189  3.22374373036997 4.61518038689706  3.22374373036997 4.61518038689706  C 3.22374373036997 4.61518038689706  8.47458558267639 6.74679308523828  8.47458558267639 6.74679308523828  C 8.47458558267639 6.74679308523828  12.2725856012661 7.18588933396037  12.2725856012661 7.18588933396037  C 12.2725856012661 7.18588933396037  13.2327682664555 6.31767629671464  13.2327682664555 6.31767629671464  C 13.2327682664555 6.31767629671464  9.76153198209238 2.29196205274994  9.76153198209238 2.29196205274994  C 9.76153198209238 2.29196205274994  11.5914088937624 1.26008586825324  11.5914088937624 1.26008586825324  C 11.5914088937624 1.26008586825324  13.572099836614 1.51156826524853  13.572099836614 1.51156826524853  Z " fill-rule="evenodd" />
    </mask>
  </defs>
  <g transform="matrix(1 0 0 1 -2159 -4085 )">
    <path d="M 0.240139480160036 17.077530282443  C 0.240139480160036 17.077530282443  1.70554914980834 16.879936970518  1.70554914980834 16.879936970518  C 1.70554914980834 16.879936970518  3.79432348167333 18.821939925093  3.79432348167333 18.821939925093  C 3.79432348167333 18.821939925093  8.73472018209563 18.8059727887758  8.73472018209563 18.8059727887758  C 8.73472018209563 18.8059727887758  8.70204380867298 19.9196805468979  8.70204380867298 19.9196805468979  C 8.70204380867298 19.9196805468979  11.580078237055 25.5211359893603  11.580078237055 25.5211359893603  C 11.580078237055 25.5211359893603  4.92040158116268 24.5690954864495  4.92040158116268 24.5690954864495  C 4.92040158116268 24.5690954864495  1.35867687809069 19.8039188085985  1.35867687809069 19.8039188085985  C 1.35867687809069 19.8039188085985  0.240139480160036 17.077530282443  0.240139480160036 17.077530282443  Z M 13.572099836614 1.51156826524853  C 13.572099836614 1.51156826524853  18.4182573719158 6.03625551912465  18.4182573719158 6.03625551912465  C 18.4182573719158 6.03625551912465  23.3636812067105 6.54121620515494  23.3636812067105 6.54121620515494  C 23.3636812067105 6.54121620515494  24.5727070233496 4.65509822769005  24.5727070233496 4.65509822769005  C 24.5727070233496 4.65509822769005  28.7804184933165 1.64928481598422  28.7804184933165 1.64928481598422  C 28.7804184933165 1.64928481598422  32.4854165260111 5.57121267388727  32.4854165260111 5.57121267388727  C 32.4854165260111 5.57121267388727  36.0697633337604 10.8064374938771  36.0697633337604 10.8064374938771  C 36.0697633337604 10.8064374938771  39.3549956463329 11.1497309246961  39.3549956463329 11.1497309246961  C 39.3549956463329 11.1497309246961  41.5242041281618 13.1216722598658  41.5242041281618 13.1216722598658  C 41.5242041281618 13.1216722598658  35.7178639276703 13.7084645195215  35.7178639276703 13.7084645195215  C 35.7178639276703 13.7084645195215  34.4937567079134 20.7928677474403  34.4937567079134 20.7928677474403  C 34.4937567079134 20.7928677474403  33.2822173240876 23.3136793935123  33.2822173240876 23.3136793935123  C 33.2822173240876 23.3136793935123  30.6982702565095 24.9882328147748  30.6982702565095 24.9882328147748  C 30.6982702565095 24.9882328147748  30.8867877954867 28.5189658329075  30.8867877954867 28.5189658329075  C 30.8867877954867 28.5189658329075  29.1323178994074 28.8742346159644  29.1323178994074 28.8742346159644  C 29.1323178994074 28.8742346159644  24.7360888904638 25.1439123938671  24.7360888904638 25.1439123938671  C 24.7360888904638 25.1439123938671  27.1667083596739 21.593220455338  27.1667083596739 21.593220455338  C 27.1667083596739 21.593220455338  25.0829611621814 19.4735831092346  25.0829611621814 19.4735831092346  C 25.0829611621814 19.4735831092346  22.4412020493171 20.0084821758595  22.4412020493171 20.0084821758595  C 22.4412020493171 20.0084821758595  12.3027484075025 25.3095714331577  12.3027484075025 25.3095714331577  C 12.3027484075025 25.3095714331577  12.1469072419483 20.3278249022028  12.1469072419483 20.3278249022028  C 12.1469072419483 20.3278249022028  8.98232615432109 19.1442609226931  8.98232615432109 19.1442609226931  C 8.98232615432109 19.1442609226931  5.99118120255247 17.1723195875235  5.99118120255247 17.1723195875235  C 5.99118120255247 17.1723195875235  7.97941284696326 13.4030930374556  7.97941284696326 13.4030930374556  C 7.97941284696326 13.4030930374556  4.22414347054157 10.8922608515818  4.22414347054157 10.8922608515818  C 4.22414347054157 10.8922608515818  5.64179536364859 9.04805660694944  5.64179536364859 9.04805660694944  C 5.64179536364859 9.04805660694944  2.95730560861585 7.77068570157648  2.95730560861585 7.77068570157648  C 2.95730560861585 7.77068570157648  1.49692307334084 5.82668685496189  1.49692307334084 5.82668685496189  C 1.49692307334084 5.82668685496189  3.22374373036997 4.61518038689706  3.22374373036997 4.61518038689706  C 3.22374373036997 4.61518038689706  8.47458558267639 6.74679308523828  8.47458558267639 6.74679308523828  C 8.47458558267639 6.74679308523828  12.2725856012661 7.18588933396037  12.2725856012661 7.18588933396037  C 12.2725856012661 7.18588933396037  13.2327682664555 6.31767629671464  13.2327682664555 6.31767629671464  C 13.2327682664555 6.31767629671464  9.76153198209238 2.29196205274994  9.76153198209238 2.29196205274994  C 9.76153198209238 2.29196205274994  11.5914088937624 1.26008586825324  11.5914088937624 1.26008586825324  C 11.5914088937624 1.26008586825324  13.572099836614 1.51156826524853  13.572099836614 1.51156826524853  Z " fill-rule="nonzero" fill="#f2f2f2" stroke="none" transform="matrix(1 0 0 1 2159 4085 )" />
    <path d="M 0.240139480160036 17.077530282443  C 0.240139480160036 17.077530282443  1.70554914980834 16.879936970518  1.70554914980834 16.879936970518  C 1.70554914980834 16.879936970518  3.79432348167333 18.821939925093  3.79432348167333 18.821939925093  C 3.79432348167333 18.821939925093  8.73472018209563 18.8059727887758  8.73472018209563 18.8059727887758  C 8.73472018209563 18.8059727887758  8.70204380867298 19.9196805468979  8.70204380867298 19.9196805468979  C 8.70204380867298 19.9196805468979  11.580078237055 25.5211359893603  11.580078237055 25.5211359893603  C 11.580078237055 25.5211359893603  4.92040158116268 24.5690954864495  4.92040158116268 24.5690954864495  C 4.92040158116268 24.5690954864495  1.35867687809069 19.8039188085985  1.35867687809069 19.8039188085985  C 1.35867687809069 19.8039188085985  0.240139480160036 17.077530282443  0.240139480160036 17.077530282443  Z " stroke-width="2" stroke="#505050" fill="none" stroke-opacity="0.211764705882353" transform="matrix(1 0 0 1 2159 4085 )" mask="url(#clip263)" />
    <path d="M 13.572099836614 1.51156826524853  C 13.572099836614 1.51156826524853  18.4182573719158 6.03625551912465  18.4182573719158 6.03625551912465  C 18.4182573719158 6.03625551912465  23.3636812067105 6.54121620515494  23.3636812067105 6.54121620515494  C 23.3636812067105 6.54121620515494  24.5727070233496 4.65509822769005  24.5727070233496 4.65509822769005  C 24.5727070233496 4.65509822769005  28.7804184933165 1.64928481598422  28.7804184933165 1.64928481598422  C 28.7804184933165 1.64928481598422  32.4854165260111 5.57121267388727  32.4854165260111 5.57121267388727  C 32.4854165260111 5.57121267388727  36.0697633337604 10.8064374938771  36.0697633337604 10.8064374938771  C 36.0697633337604 10.8064374938771  39.3549956463329 11.1497309246961  39.3549956463329 11.1497309246961  C 39.3549956463329 11.1497309246961  41.5242041281618 13.1216722598658  41.5242041281618 13.1216722598658  C 41.5242041281618 13.1216722598658  35.7178639276703 13.7084645195215  35.7178639276703 13.7084645195215  C 35.7178639276703 13.7084645195215  34.4937567079134 20.7928677474403  34.4937567079134 20.7928677474403  C 34.4937567079134 20.7928677474403  33.2822173240876 23.3136793935123  33.2822173240876 23.3136793935123  C 33.2822173240876 23.3136793935123  30.6982702565095 24.9882328147748  30.6982702565095 24.9882328147748  C 30.6982702565095 24.9882328147748  30.8867877954867 28.5189658329075  30.8867877954867 28.5189658329075  C 30.8867877954867 28.5189658329075  29.1323178994074 28.8742346159644  29.1323178994074 28.8742346159644  C 29.1323178994074 28.8742346159644  24.7360888904638 25.1439123938671  24.7360888904638 25.1439123938671  C 24.7360888904638 25.1439123938671  27.1667083596739 21.593220455338  27.1667083596739 21.593220455338  C 27.1667083596739 21.593220455338  25.0829611621814 19.4735831092346  25.0829611621814 19.4735831092346  C 25.0829611621814 19.4735831092346  22.4412020493171 20.0084821758595  22.4412020493171 20.0084821758595  C 22.4412020493171 20.0084821758595  12.3027484075025 25.3095714331577  12.3027484075025 25.3095714331577  C 12.3027484075025 25.3095714331577  12.1469072419483 20.3278249022028  12.1469072419483 20.3278249022028  C 12.1469072419483 20.3278249022028  8.98232615432109 19.1442609226931  8.98232615432109 19.1442609226931  C 8.98232615432109 19.1442609226931  5.99118120255247 17.1723195875235  5.99118120255247 17.1723195875235  C 5.99118120255247 17.1723195875235  7.97941284696326 13.4030930374556  7.97941284696326 13.4030930374556  C 7.97941284696326 13.4030930374556  4.22414347054157 10.8922608515818  4.22414347054157 10.8922608515818  C 4.22414347054157 10.8922608515818  5.64179536364859 9.04805660694944  5.64179536364859 9.04805660694944  C 5.64179536364859 9.04805660694944  2.95730560861585 7.77068570157648  2.95730560861585 7.77068570157648  C 2.95730560861585 7.77068570157648  1.49692307334084 5.82668685496189  1.49692307334084 5.82668685496189  C 1.49692307334084 5.82668685496189  3.22374373036997 4.61518038689706  3.22374373036997 4.61518038689706  C 3.22374373036997 4.61518038689706  8.47458558267639 6.74679308523828  8.47458558267639 6.74679308523828  C 8.47458558267639 6.74679308523828  12.2725856012661 7.18588933396037  12.2725856012661 7.18588933396037  C 12.2725856012661 7.18588933396037  13.2327682664555 6.31767629671464  13.2327682664555 6.31767629671464  C 13.2327682664555 6.31767629671464  9.76153198209238 2.29196205274994  9.76153198209238 2.29196205274994  C 9.76153198209238 2.29196205274994  11.5914088937624 1.26008586825324  11.5914088937624 1.26008586825324  C 11.5914088937624 1.26008586825324  13.572099836614 1.51156826524853  13.572099836614 1.51156826524853  Z " stroke-width="2" stroke="#505050" fill="none" stroke-opacity="0.211764705882353" transform="matrix(1 0 0 1 2159 4085 )" mask="url(#clip263)" />
  </g>
</svg>