<?xml version="1.0" encoding="utf-8"?>
<svg version="1.1" xmlns:xlink="http://www.w3.org/1999/xlink" width="146px" height="248px" xmlns="http://www.w3.org/2000/svg">
  <defs>
    <mask fill="white" id="clip38">
      <path d="M 63.1972585176356 242.378816645706  C 63.1972585176356 242.378816645706  59.9868953566688 247.215501679198  59.9868953566688 247.215501679198  C 59.9868953566688 247.215501679198  53.2100273211576 247.701750277148  53.2100273211576 247.701750277148  C 53.2100273211576 247.701750277148  47.7241928380745 244.276178521791  47.7241928380745 244.276178521791  C 47.7241928380745 244.276178521791  43.427597450695 244.018169061654  43.427597450695 244.018169061654  C 43.427597450695 244.018169061654  35.7909015638312 244.012214997189  35.7909015638312 244.012214997189  C 35.7909015638312 244.012214997189  35.7858138250658 221.59617011109  35.7858138250658 221.59617011109  C 35.7858138250658 221.59617011109  38.5255611502331 225.859280267815  38.5255611502331 225.859280267815  C 38.5255611502331 225.859280267815  42.0920660247777 232.855306013837  42.0920660247777 232.855306013837  C 42.0920660247777 232.855306013837  53.21257119054 239.983298042742  53.21257119054 239.983298042742  C 53.21257119054 239.983298042742  63.1972585176356 242.378816645706  63.1972585176356 242.378816645706  Z M 52.6033343140916 1.31761648689693  C 52.6033343140916 1.31761648689693  61.9545981648954 2.77239290443835  61.9545981648954 2.77239290443835  C 61.9545981648954 2.77239290443835  66.1468949075841 7.09504370581055  66.1468949075841 7.09504370581055  C 66.1468949075841 7.09504370581055  68.9298880122574 2.28019024202329  68.9298880122574 2.28019024202329  C 68.9298880122574 2.28019024202329  78.9107396945704 2.52827626138578  78.9107396945704 2.52827626138578  C 78.9107396945704 2.52827626138578  80.0631125249331 3.80641543314136  80.0631125249331 3.80641543314136  C 80.0631125249331 3.80641543314136  93.1767591927489 13.6206983591219  93.1767591927489 13.6206983591219  C 93.1767591927489 13.6206983591219  99.0073078178959 14.5415936629955  99.0073078178959 14.5415936629955  C 99.0073078178959 14.5415936629955  107.722604323024 19.0309582693789  107.722604323024 19.0309582693789  C 107.722604323024 19.0309582693789  115.06929910026 21.416553431569  115.06929910026 21.416553431569  C 115.06929910026 21.416553431569  116.091934592105 24.1196986985424  116.091934592105 24.1196986985424  C 116.091934592105 24.1196986985424  109.070855095855 33.5092583593742  109.070855095855 33.5092583593742  C 109.070855095855 33.5092583593742  116.262373840746 35.204182043659  116.262373840746 35.204182043659  C 116.262373840746 35.204182043659  124.273018526867 36.1548476698562  124.273018526867 36.1548476698562  C 124.273018526867 36.1548476698562  129.912776948312 35.1525801516316  129.912776948312 35.1525801516316  C 129.912776948312 35.1525801516316  136.381836788516 30.3932979561813  136.381836788516 30.3932979561813  C 136.381836788516 30.3932979561813  137.546928965793 24.9492983472907  137.546928965793 24.9492983472907  C 137.546928965793 24.9492983472907  141.080363538362 23.7723782714351  141.080363538362 23.7723782714351  C 141.080363538362 23.7723782714351  144.659587759821 27.322985380551  144.659587759821 27.322985380551  C 144.659587759821 27.322985380551  144.514587205007 32.2628741980971  144.514587205007 32.2628741980971  C 144.514587205007 32.2628741980971  138.508511592453 35.6944000179192  138.508511592453 35.6944000179192  C 138.508511592453 35.6944000179192  133.71840554483 38.2387702325013  133.71840554483 38.2387702325013  C 133.71840554483 38.2387702325013  125.667058948586 44.3476403732831  125.667058948586 44.3476403732831  C 125.667058948586 44.3476403732831  116.150443587908 53.0246969865059  116.150443587908 53.0246969865059  C 116.150443587908 53.0246969865059  114.367191150635 58.1729780603166  114.367191150635 58.1729780603166  C 114.367191150635 58.1729780603166  112.459289113611 64.8514537015549  112.459289113611 64.8514537015549  C 112.459289113611 64.8514537015549  112.530517456326 71.39497054826  112.530517456326 71.39497054826  C 112.530517456326 71.39497054826  110.983844871645 72.867609159196  110.983844871645 72.867609159196  C 110.983844871645 72.867609159196  110.431825215599 77.1644590145541  110.431825215599 77.1644590145541  C 110.431825215599 77.1644590145541  109.943402294121 80.6594948553331  109.943402294121 80.6594948553331  C 109.943402294121 80.6594948553331  118.999577296531 86.4428761387114  118.999577296531 86.4428761387114  C 118.999577296531 86.4428761387114  118.025275322957 91.1426176895145  118.025275322957 91.1426176895145  C 118.025275322957 91.1426176895145  122.482134481447 94.1335427389487  122.482134481447 94.1335427389487  C 122.482134481447 94.1335427389487  122.118361159721 97.5075126022787  122.118361159721 97.5075126022787  C 122.118361159721 97.5075126022787  115.265177042728 106.470364309807  115.265177042728 106.470364309807  C 115.265177042728 106.470364309807  104.690312018847 111.708933215247  104.690312018847 111.708933215247  C 104.690312018847 111.708933215247  90.3835906105448 113.189510578802  90.3835906105448 113.189510578802  C 90.3835906105448 113.189510578802  82.5484729118305 112.473038154884  82.5484729118305 112.473038154884  C 82.5484729118305 112.473038154884  84.0468119782404 116.734163623454  84.0468119782404 116.734163623454  C 84.0468119782404 116.734163623454  82.5866309525709 122.134500092937  82.5866309525709 122.134500092937  C 82.5866309525709 122.134500092937  83.9043552928092 125.808157867657  83.9043552928092 125.808157867657  C 83.9043552928092 125.808157867657  79.6255669911087 128.386267780872  79.6255669911087 128.386267780872  C 79.6255669911087 128.386267780872  70.4663851194074 129.40242811618  70.4663851194074 129.40242811618  C 70.4663851194074 129.40242811618  63.6081132636496 126.72905317153  63.6081132636496 126.72905317153  C 63.6081132636496 126.72905317153  60.8531027221861 128.648246617318  60.8531027221861 128.648246617318  C 60.8531027221861 128.648246617318  61.8477556508216 136.011439671997  61.8477556508216 136.011439671997  C 61.8477556508216 136.011439671997  66.6633003922716 138.264060727809  66.6633003922716 138.264060727809  C 66.6633003922716 138.264060727809  70.5681398947154 135.904266511633  70.5681398947154 135.904266511633  C 70.5681398947154 135.904266511633  74.5403720950922 139.798224671547  74.5403720950922 139.798224671547  C 74.5403720950922 139.798224671547  66.1240000831393 142.140156694328  66.1240000831393 142.140156694328  C 66.1240000831393 142.140156694328  60.3977501026829 146.869668567455  60.3977501026829 146.869668567455  C 60.3977501026829 146.869668567455  59.3496759170107 154.623845188649  59.3496759170107 154.623845188649  C 59.3496759170107 154.623845188649  57.663090516281 158.805583131023  57.663090516281 158.805583131023  C 57.663090516281 158.805583131023  50.9269243908928 158.827414700727  50.9269243908928 158.827414700727  C 50.9269243908928 158.827414700727  45.3354994877193 162.866255095949  45.3354994877193 162.866255095949  C 45.3354994877193 162.866255095949  43.2902285040291 168.846120506662  43.2902285040291 168.846120506662  C 43.2902285040291 168.846120506662  50.3036763921316 174.764460584574  50.3036763921316 174.764460584574  C 50.3036763921316 174.764460584574  57.1237902071487 176.413736441296  57.1237902071487 176.413736441296  C 57.1237902071487 176.413736441296  54.6715001222264 183.808684506453  54.6715001222264 183.808684506453  C 54.6715001222264 183.808684506453  46.2462047267259 188.522318874341  46.2462047267259 188.522318874341  C 46.2462047267259 188.522318874341  41.6112747114473 198.495376852713  41.6112747114473 198.495376852713  C 41.6112747114473 198.495376852713  35.1015129611194 201.907055790986  35.1015129611194 201.907055790986  C 35.1015129611194 201.907055790986  32.1786070403976 205.993528701925  32.1786070403976 205.993528701925  C 32.1786070403976 205.993528701925  34.4808088317406 215.204466428816  34.4808088317406 215.204466428816  C 34.4808088317406 215.204466428816  39.2276690998579 220.430150340667  39.2276690998579 220.430150340667  C 39.2276690998579 220.430150340667  36.2208154895071 219.971687376886  36.2208154895071 219.971687376886  C 36.2208154895071 219.971687376886  29.609298963871 218.552635346132  29.609298963871 218.552635346132  C 29.609298963871 218.552635346132  12.3745838960821 217.345944947953  12.3745838960821 217.345944947953  C 12.3745838960821 217.345944947953  9.41860767338544 212.122245724256  9.41860767338544 212.122245724256  C 9.41860767338544 212.122245724256  9.55597662005127 205.50926479213  9.55597662005127 205.50926479213  C 9.55597662005127 205.50926479213  4.80657248255125 206.072916228121  4.80657248255125 206.072916228121  C 4.80657248255125 206.072916228121  2.29322953244412 202.905353932901  2.29322953244412 202.905353932901  C 2.29322953244412 202.905353932901  1.66998153368273 193.777773108516  1.66998153368273 193.777773108516  C 1.66998153368273 193.777773108516  7.14184457586935 190.050528753614  7.14184457586935 190.050528753614  C 7.14184457586935 190.050528753614  9.40334445708919 184.731564498482  9.40334445708919 184.731564498482  C 9.40334445708919 184.731564498482  8.57404303832906 180.539903115333  8.57404303832906 180.539903115333  C 8.57404303832906 180.539903115333  12.3542329410205 173.553800810085  12.3542329410205 173.553800810085  C 12.3542329410205 173.553800810085  14.9591551889048 162.93571918137  14.9591551889048 162.93571918137  C 14.9591551889048 162.93571918137  14.1934505047122 158.309411092298  14.1934505047122 158.309411092298  C 14.1934505047122 158.309411092298  17.3071466291363 156.824864352433  17.3071466291363 156.824864352433  C 17.3071466291363 156.824864352433  16.5439858143266 153.891495259491  16.5439858143266 153.891495259491  C 16.5439858143266 153.891495259491  13.2344117474346 152.339469122359  13.2344117474346 152.339469122359  C 13.2344117474346 152.339469122359  15.5849470570487 149.104427429872  15.5849470570487 149.104427429872  C 15.5849470570487 149.104427429872  12.3644084185512 146.202813347409  12.3644084185512 146.202813347409  C 12.3644084185512 146.202813347409  10.6981739728831 137.480108906623  10.6981739728831 137.480108906623  C 10.6981739728831 137.480108906623  13.5651147671855 135.957853091815  13.5651147671855 135.957853091815  C 13.5651147671855 135.957853091815  12.3593206797859 126.941414804104  12.3593206797859 126.941414804104  C 12.3593206797859 126.941414804104  14.0357306029848 119.496849535075  14.0357306029848 119.496849535075  C 14.0357306029848 119.496849535075  15.9436326400095 113.100199611832  15.9436326400095 113.100199611832  C 15.9436326400095 113.100199611832  20.2147893335617 109.078244545346  20.2147893335617 109.078244545346  C 20.2147893335617 109.078244545346  18.0448687501192 102.207254153082  18.0448687501192 102.207254153082  C 18.0448687501192 102.207254153082  18.0219739256748 95.822512358769  18.0219739256748 95.822512358769  C 18.0219739256748 95.822512358769  23.4226086251457 91.3311630642301  23.4226086251457 91.3311630642301  C 23.4226086251457 91.3311630642301  23.2572571152704 85.6390774359771  23.2572571152704 85.6390774359771  C 23.2572571152704 85.6390774359771  27.3274481275896 79.0638055787935  27.3274481275896 79.0638055787935  C 27.3274481275896 79.0638055787935  27.3452552132684 72.9390579327719  27.3452552132684 72.9390579327719  C 27.3452552132684 72.9390579327719  25.4933183026633 71.7303828464379  25.4933183026633 71.7303828464379  C 25.4933183026633 71.7303828464379  22.2066390602155 60.4295684924375  22.2066390602155 60.4295684924375  C 22.2066390602155 60.4295684924375  26.6024453535202 53.7947559906071  26.6024453535202 53.7947559906071  C 26.6024453535202 53.7947559906071  25.9283199671049 47.6124523880938  25.9283199671049 47.6124523880938  C 25.9283199671049 47.6124523880938  28.4772770885699 41.8647954915034  28.4772770885699 41.8647954915034  C 28.4772770885699 41.8647954915034  33.1478212752061 35.9841644885347  33.1478212752061 35.9841644885347  C 33.1478212752061 35.9841644885347  38.1821387835683 32.1140225864797  38.1821387835683 32.1140225864797  C 38.1821387835683 32.1140225864797  36.0478323714834 29.6827795967273  36.0478323714834 29.6827795967273  C 36.0478323714834 29.6827795967273  37.5359959603625 27.6961067536726  37.5359959603625 27.6961067536726  C 37.5359959603625 27.6961067536726  37.3095915853024 17.4888555730218  37.3095915853024 17.4888555730218  C 37.3095915853024 17.4888555730218  45.0785686800665 14.4939611472778  45.0785686800665 14.4939611472778  C 45.0785686800665 14.4939611472778  47.5257710262233 8.22433126594876  47.5257710262233 8.22433126594876  C 47.5257710262233 8.22433126594876  46.6608554361055 6.71993764453445  46.6608554361055 6.71993764453445  C 46.6608554361055 6.71993764453445  52.6033343140916 1.31761648689693  52.6033343140916 1.31761648689693  Z " fill-rule="evenodd" />
    </mask>
  </defs>
  <g transform="matrix(1 0 0 1 -1315 -4464 )">
    <path d="M 63.1972585176356 242.378816645706  C 63.1972585176356 242.378816645706  59.9868953566688 247.215501679198  59.9868953566688 247.215501679198  C 59.9868953566688 247.215501679198  53.2100273211576 247.701750277148  53.2100273211576 247.701750277148  C 53.2100273211576 247.701750277148  47.7241928380745 244.276178521791  47.7241928380745 244.276178521791  C 47.7241928380745 244.276178521791  43.427597450695 244.018169061654  43.427597450695 244.018169061654  C 43.427597450695 244.018169061654  35.7909015638312 244.012214997189  35.7909015638312 244.012214997189  C 35.7909015638312 244.012214997189  35.7858138250658 221.59617011109  35.7858138250658 221.59617011109  C 35.7858138250658 221.59617011109  38.5255611502331 225.859280267815  38.5255611502331 225.859280267815  C 38.5255611502331 225.859280267815  42.0920660247777 232.855306013837  42.0920660247777 232.855306013837  C 42.0920660247777 232.855306013837  53.21257119054 239.983298042742  53.21257119054 239.983298042742  C 53.21257119054 239.983298042742  63.1972585176356 242.378816645706  63.1972585176356 242.378816645706  Z M 52.6033343140916 1.31761648689693  C 52.6033343140916 1.31761648689693  61.9545981648954 2.77239290443835  61.9545981648954 2.77239290443835  C 61.9545981648954 2.77239290443835  66.1468949075841 7.09504370581055  66.1468949075841 7.09504370581055  C 66.1468949075841 7.09504370581055  68.9298880122574 2.28019024202329  68.9298880122574 2.28019024202329  C 68.9298880122574 2.28019024202329  78.9107396945704 2.52827626138578  78.9107396945704 2.52827626138578  C 78.9107396945704 2.52827626138578  80.0631125249331 3.80641543314136  80.0631125249331 3.80641543314136  C 80.0631125249331 3.80641543314136  93.1767591927489 13.6206983591219  93.1767591927489 13.6206983591219  C 93.1767591927489 13.6206983591219  99.0073078178959 14.5415936629955  99.0073078178959 14.5415936629955  C 99.0073078178959 14.5415936629955  107.722604323024 19.0309582693789  107.722604323024 19.0309582693789  C 107.722604323024 19.0309582693789  115.06929910026 21.416553431569  115.06929910026 21.416553431569  C 115.06929910026 21.416553431569  116.091934592105 24.1196986985424  116.091934592105 24.1196986985424  C 116.091934592105 24.1196986985424  109.070855095855 33.5092583593742  109.070855095855 33.5092583593742  C 109.070855095855 33.5092583593742  116.262373840746 35.204182043659  116.262373840746 35.204182043659  C 116.262373840746 35.204182043659  124.273018526867 36.1548476698562  124.273018526867 36.1548476698562  C 124.273018526867 36.1548476698562  129.912776948312 35.1525801516316  129.912776948312 35.1525801516316  C 129.912776948312 35.1525801516316  136.381836788516 30.3932979561813  136.381836788516 30.3932979561813  C 136.381836788516 30.3932979561813  137.546928965793 24.9492983472907  137.546928965793 24.9492983472907  C 137.546928965793 24.9492983472907  141.080363538362 23.7723782714351  141.080363538362 23.7723782714351  C 141.080363538362 23.7723782714351  144.659587759821 27.322985380551  144.659587759821 27.322985380551  C 144.659587759821 27.322985380551  144.514587205007 32.2628741980971  144.514587205007 32.2628741980971  C 144.514587205007 32.2628741980971  138.508511592453 35.6944000179192  138.508511592453 35.6944000179192  C 138.508511592453 35.6944000179192  133.71840554483 38.2387702325013  133.71840554483 38.2387702325013  C 133.71840554483 38.2387702325013  125.667058948586 44.3476403732831  125.667058948586 44.3476403732831  C 125.667058948586 44.3476403732831  116.150443587908 53.0246969865059  116.150443587908 53.0246969865059  C 116.150443587908 53.0246969865059  114.367191150635 58.1729780603166  114.367191150635 58.1729780603166  C 114.367191150635 58.1729780603166  112.459289113611 64.8514537015549  112.459289113611 64.8514537015549  C 112.459289113611 64.8514537015549  112.530517456326 71.39497054826  112.530517456326 71.39497054826  C 112.530517456326 71.39497054826  110.983844871645 72.867609159196  110.983844871645 72.867609159196  C 110.983844871645 72.867609159196  110.431825215599 77.1644590145541  110.431825215599 77.1644590145541  C 110.431825215599 77.1644590145541  109.943402294121 80.6594948553331  109.943402294121 80.6594948553331  C 109.943402294121 80.6594948553331  118.999577296531 86.4428761387114  118.999577296531 86.4428761387114  C 118.999577296531 86.4428761387114  118.025275322957 91.1426176895145  118.025275322957 91.1426176895145  C 118.025275322957 91.1426176895145  122.482134481447 94.1335427389487  122.482134481447 94.1335427389487  C 122.482134481447 94.1335427389487  122.118361159721 97.5075126022787  122.118361159721 97.5075126022787  C 122.118361159721 97.5075126022787  115.265177042728 106.470364309807  115.265177042728 106.470364309807  C 115.265177042728 106.470364309807  104.690312018847 111.708933215247  104.690312018847 111.708933215247  C 104.690312018847 111.708933215247  90.3835906105448 113.189510578802  90.3835906105448 113.189510578802  C 90.3835906105448 113.189510578802  82.5484729118305 112.473038154884  82.5484729118305 112.473038154884  C 82.5484729118305 112.473038154884  84.0468119782404 116.734163623454  84.0468119782404 116.734163623454  C 84.0468119782404 116.734163623454  82.5866309525709 122.134500092937  82.5866309525709 122.134500092937  C 82.5866309525709 122.134500092937  83.9043552928092 125.808157867657  83.9043552928092 125.808157867657  C 83.9043552928092 125.808157867657  79.6255669911087 128.386267780872  79.6255669911087 128.386267780872  C 79.6255669911087 128.386267780872  70.4663851194074 129.40242811618  70.4663851194074 129.40242811618  C 70.4663851194074 129.40242811618  63.6081132636496 126.72905317153  63.6081132636496 126.72905317153  C 63.6081132636496 126.72905317153  60.8531027221861 128.648246617318  60.8531027221861 128.648246617318  C 60.8531027221861 128.648246617318  61.8477556508216 136.011439671997  61.8477556508216 136.011439671997  C 61.8477556508216 136.011439671997  66.6633003922716 138.264060727809  66.6633003922716 138.264060727809  C 66.6633003922716 138.264060727809  70.5681398947154 135.904266511633  70.5681398947154 135.904266511633  C 70.5681398947154 135.904266511633  74.5403720950922 139.798224671547  74.5403720950922 139.798224671547  C 74.5403720950922 139.798224671547  66.1240000831393 142.140156694328  66.1240000831393 142.140156694328  C 66.1240000831393 142.140156694328  60.3977501026829 146.869668567455  60.3977501026829 146.869668567455  C 60.3977501026829 146.869668567455  59.3496759170107 154.623845188649  59.3496759170107 154.623845188649  C 59.3496759170107 154.623845188649  57.663090516281 158.805583131023  57.663090516281 158.805583131023  C 57.663090516281 158.805583131023  50.9269243908928 158.827414700727  50.9269243908928 158.827414700727  C 50.9269243908928 158.827414700727  45.3354994877193 162.866255095949  45.3354994877193 162.866255095949  C 45.3354994877193 162.866255095949  43.2902285040291 168.846120506662  43.2902285040291 168.846120506662  C 43.2902285040291 168.846120506662  50.3036763921316 174.764460584574  50.3036763921316 174.764460584574  C 50.3036763921316 174.764460584574  57.1237902071487 176.413736441296  57.1237902071487 176.413736441296  C 57.1237902071487 176.413736441296  54.6715001222264 183.808684506453  54.6715001222264 183.808684506453  C 54.6715001222264 183.808684506453  46.2462047267259 188.522318874341  46.2462047267259 188.522318874341  C 46.2462047267259 188.522318874341  41.6112747114473 198.495376852713  41.6112747114473 198.495376852713  C 41.6112747114473 198.495376852713  35.1015129611194 201.907055790986  35.1015129611194 201.907055790986  C 35.1015129611194 201.907055790986  32.1786070403976 205.993528701925  32.1786070403976 205.993528701925  C 32.1786070403976 205.993528701925  34.4808088317406 215.204466428816  34.4808088317406 215.204466428816  C 34.4808088317406 215.204466428816  39.2276690998579 220.430150340667  39.2276690998579 220.430150340667  C 39.2276690998579 220.430150340667  36.2208154895071 219.971687376886  36.2208154895071 219.971687376886  C 36.2208154895071 219.971687376886  29.609298963871 218.552635346132  29.609298963871 218.552635346132  C 29.609298963871 218.552635346132  12.3745838960821 217.345944947953  12.3745838960821 217.345944947953  C 12.3745838960821 217.345944947953  9.41860767338544 212.122245724256  9.41860767338544 212.122245724256  C 9.41860767338544 212.122245724256  9.55597662005127 205.50926479213  9.55597662005127 205.50926479213  C 9.55597662005127 205.50926479213  4.80657248255125 206.072916228121  4.80657248255125 206.072916228121  C 4.80657248255125 206.072916228121  2.29322953244412 202.905353932901  2.29322953244412 202.905353932901  C 2.29322953244412 202.905353932901  1.66998153368273 193.777773108516  1.66998153368273 193.777773108516  C 1.66998153368273 193.777773108516  7.14184457586935 190.050528753614  7.14184457586935 190.050528753614  C 7.14184457586935 190.050528753614  9.40334445708919 184.731564498482  9.40334445708919 184.731564498482  C 9.40334445708919 184.731564498482  8.57404303832906 180.539903115333  8.57404303832906 180.539903115333  C 8.57404303832906 180.539903115333  12.3542329410205 173.553800810085  12.3542329410205 173.553800810085  C 12.3542329410205 173.553800810085  14.9591551889048 162.93571918137  14.9591551889048 162.93571918137  C 14.9591551889048 162.93571918137  14.1934505047122 158.309411092298  14.1934505047122 158.309411092298  C 14.1934505047122 158.309411092298  17.3071466291363 156.824864352433  17.3071466291363 156.824864352433  C 17.3071466291363 156.824864352433  16.5439858143266 153.891495259491  16.5439858143266 153.891495259491  C 16.5439858143266 153.891495259491  13.2344117474346 152.339469122359  13.2344117474346 152.339469122359  C 13.2344117474346 152.339469122359  15.5849470570487 149.104427429872  15.5849470570487 149.104427429872  C 15.5849470570487 149.104427429872  12.3644084185512 146.202813347409  12.3644084185512 146.202813347409  C 12.3644084185512 146.202813347409  10.6981739728831 137.480108906623  10.6981739728831 137.480108906623  C 10.6981739728831 137.480108906623  13.5651147671855 135.957853091815  13.5651147671855 135.957853091815  C 13.5651147671855 135.957853091815  12.3593206797859 126.941414804104  12.3593206797859 126.941414804104  C 12.3593206797859 126.941414804104  14.0357306029848 119.496849535075  14.0357306029848 119.496849535075  C 14.0357306029848 119.496849535075  15.9436326400095 113.100199611832  15.9436326400095 113.100199611832  C 15.9436326400095 113.100199611832  20.2147893335617 109.078244545346  20.2147893335617 109.078244545346  C 20.2147893335617 109.078244545346  18.0448687501192 102.207254153082  18.0448687501192 102.207254153082  C 18.0448687501192 102.207254153082  18.0219739256748 95.822512358769  18.0219739256748 95.822512358769  C 18.0219739256748 95.822512358769  23.4226086251457 91.3311630642301  23.4226086251457 91.3311630642301  C 23.4226086251457 91.3311630642301  23.2572571152704 85.6390774359771  23.2572571152704 85.6390774359771  C 23.2572571152704 85.6390774359771  27.3274481275896 79.0638055787935  27.3274481275896 79.0638055787935  C 27.3274481275896 79.0638055787935  27.3452552132684 72.9390579327719  27.3452552132684 72.9390579327719  C 27.3452552132684 72.9390579327719  25.4933183026633 71.7303828464379  25.4933183026633 71.7303828464379  C 25.4933183026633 71.7303828464379  22.2066390602155 60.4295684924375  22.2066390602155 60.4295684924375  C 22.2066390602155 60.4295684924375  26.6024453535202 53.7947559906071  26.6024453535202 53.7947559906071  C 26.6024453535202 53.7947559906071  25.9283199671049 47.6124523880938  25.9283199671049 47.6124523880938  C 25.9283199671049 47.6124523880938  28.4772770885699 41.8647954915034  28.4772770885699 41.8647954915034  C 28.4772770885699 41.8647954915034  33.1478212752061 35.9841644885347  33.1478212752061 35.9841644885347  C 33.1478212752061 35.9841644885347  38.1821387835683 32.1140225864797  38.1821387835683 32.1140225864797  C 38.1821387835683 32.1140225864797  36.0478323714834 29.6827795967273  36.0478323714834 29.6827795967273  C 36.0478323714834 29.6827795967273  37.5359959603625 27.6961067536726  37.5359959603625 27.6961067536726  C 37.5359959603625 27.6961067536726  37.3095915853024 17.4888555730218  37.3095915853024 17.4888555730218  C 37.3095915853024 17.4888555730218  45.0785686800665 14.4939611472778  45.0785686800665 14.4939611472778  C 45.0785686800665 14.4939611472778  47.5257710262233 8.22433126594876  47.5257710262233 8.22433126594876  C 47.5257710262233 8.22433126594876  46.6608554361055 6.71993764453445  46.6608554361055 6.71993764453445  C 46.6608554361055 6.71993764453445  52.6033343140916 1.31761648689693  52.6033343140916 1.31761648689693  Z " fill-rule="nonzero" fill="#f2f2f2" stroke="none" transform="matrix(1 0 0 1 1315 4464 )" />
    <path d="M 63.1972585176356 242.378816645706  C 63.1972585176356 242.378816645706  59.9868953566688 247.215501679198  59.9868953566688 247.215501679198  C 59.9868953566688 247.215501679198  53.2100273211576 247.701750277148  53.2100273211576 247.701750277148  C 53.2100273211576 247.701750277148  47.7241928380745 244.276178521791  47.7241928380745 244.276178521791  C 47.7241928380745 244.276178521791  43.427597450695 244.018169061654  43.427597450695 244.018169061654  C 43.427597450695 244.018169061654  35.7909015638312 244.012214997189  35.7909015638312 244.012214997189  C 35.7909015638312 244.012214997189  35.7858138250658 221.59617011109  35.7858138250658 221.59617011109  C 35.7858138250658 221.59617011109  38.5255611502331 225.859280267815  38.5255611502331 225.859280267815  C 38.5255611502331 225.859280267815  42.0920660247777 232.855306013837  42.0920660247777 232.855306013837  C 42.0920660247777 232.855306013837  53.21257119054 239.983298042742  53.21257119054 239.983298042742  C 53.21257119054 239.983298042742  63.1972585176356 242.378816645706  63.1972585176356 242.378816645706  Z " stroke-width="2" stroke="#505050" fill="none" stroke-opacity="0.211764705882353" transform="matrix(1 0 0 1 1315 4464 )" mask="url(#clip38)" />
    <path d="M 52.6033343140916 1.31761648689693  C 52.6033343140916 1.31761648689693  61.9545981648954 2.77239290443835  61.9545981648954 2.77239290443835  C 61.9545981648954 2.77239290443835  66.1468949075841 7.09504370581055  66.1468949075841 7.09504370581055  C 66.1468949075841 7.09504370581055  68.9298880122574 2.28019024202329  68.9298880122574 2.28019024202329  C 68.9298880122574 2.28019024202329  78.9107396945704 2.52827626138578  78.9107396945704 2.52827626138578  C 78.9107396945704 2.52827626138578  80.0631125249331 3.80641543314136  80.0631125249331 3.80641543314136  C 80.0631125249331 3.80641543314136  93.1767591927489 13.6206983591219  93.1767591927489 13.6206983591219  C 93.1767591927489 13.6206983591219  99.0073078178959 14.5415936629955  99.0073078178959 14.5415936629955  C 99.0073078178959 14.5415936629955  107.722604323024 19.0309582693789  107.722604323024 19.0309582693789  C 107.722604323024 19.0309582693789  115.06929910026 21.416553431569  115.06929910026 21.416553431569  C 115.06929910026 21.416553431569  116.091934592105 24.1196986985424  116.091934592105 24.1196986985424  C 116.091934592105 24.1196986985424  109.070855095855 33.5092583593742  109.070855095855 33.5092583593742  C 109.070855095855 33.5092583593742  116.262373840746 35.204182043659  116.262373840746 35.204182043659  C 116.262373840746 35.204182043659  124.273018526867 36.1548476698562  124.273018526867 36.1548476698562  C 124.273018526867 36.1548476698562  129.912776948312 35.1525801516316  129.912776948312 35.1525801516316  C 129.912776948312 35.1525801516316  136.381836788516 30.3932979561813  136.381836788516 30.3932979561813  C 136.381836788516 30.3932979561813  137.546928965793 24.9492983472907  137.546928965793 24.9492983472907  C 137.546928965793 24.9492983472907  141.080363538362 23.7723782714351  141.080363538362 23.7723782714351  C 141.080363538362 23.7723782714351  144.659587759821 27.322985380551  144.659587759821 27.322985380551  C 144.659587759821 27.322985380551  144.514587205007 32.2628741980971  144.514587205007 32.2628741980971  C 144.514587205007 32.2628741980971  138.508511592453 35.6944000179192  138.508511592453 35.6944000179192  C 138.508511592453 35.6944000179192  133.71840554483 38.2387702325013  133.71840554483 38.2387702325013  C 133.71840554483 38.2387702325013  125.667058948586 44.3476403732831  125.667058948586 44.3476403732831  C 125.667058948586 44.3476403732831  116.150443587908 53.0246969865059  116.150443587908 53.0246969865059  C 116.150443587908 53.0246969865059  114.367191150635 58.1729780603166  114.367191150635 58.1729780603166  C 114.367191150635 58.1729780603166  112.459289113611 64.8514537015549  112.459289113611 64.8514537015549  C 112.459289113611 64.8514537015549  112.530517456326 71.39497054826  112.530517456326 71.39497054826  C 112.530517456326 71.39497054826  110.983844871645 72.867609159196  110.983844871645 72.867609159196  C 110.983844871645 72.867609159196  110.431825215599 77.1644590145541  110.431825215599 77.1644590145541  C 110.431825215599 77.1644590145541  109.943402294121 80.6594948553331  109.943402294121 80.6594948553331  C 109.943402294121 80.6594948553331  118.999577296531 86.4428761387114  118.999577296531 86.4428761387114  C 118.999577296531 86.4428761387114  118.025275322957 91.1426176895145  118.025275322957 91.1426176895145  C 118.025275322957 91.1426176895145  122.482134481447 94.1335427389487  122.482134481447 94.1335427389487  C 122.482134481447 94.1335427389487  122.118361159721 97.5075126022787  122.118361159721 97.5075126022787  C 122.118361159721 97.5075126022787  115.265177042728 106.470364309807  115.265177042728 106.470364309807  C 115.265177042728 106.470364309807  104.690312018847 111.708933215247  104.690312018847 111.708933215247  C 104.690312018847 111.708933215247  90.3835906105448 113.189510578802  90.3835906105448 113.189510578802  C 90.3835906105448 113.189510578802  82.5484729118305 112.473038154884  82.5484729118305 112.473038154884  C 82.5484729118305 112.473038154884  84.0468119782404 116.734163623454  84.0468119782404 116.734163623454  C 84.0468119782404 116.734163623454  82.5866309525709 122.134500092937  82.5866309525709 122.134500092937  C 82.5866309525709 122.134500092937  83.9043552928092 125.808157867657  83.9043552928092 125.808157867657  C 83.9043552928092 125.808157867657  79.6255669911087 128.386267780872  79.6255669911087 128.386267780872  C 79.6255669911087 128.386267780872  70.4663851194074 129.40242811618  70.4663851194074 129.40242811618  C 70.4663851194074 129.40242811618  63.6081132636496 126.72905317153  63.6081132636496 126.72905317153  C 63.6081132636496 126.72905317153  60.8531027221861 128.648246617318  60.8531027221861 128.648246617318  C 60.8531027221861 128.648246617318  61.8477556508216 136.011439671997  61.8477556508216 136.011439671997  C 61.8477556508216 136.011439671997  66.6633003922716 138.264060727809  66.6633003922716 138.264060727809  C 66.6633003922716 138.264060727809  70.5681398947154 135.904266511633  70.5681398947154 135.904266511633  C 70.5681398947154 135.904266511633  74.5403720950922 139.798224671547  74.5403720950922 139.798224671547  C 74.5403720950922 139.798224671547  66.1240000831393 142.140156694328  66.1240000831393 142.140156694328  C 66.1240000831393 142.140156694328  60.3977501026829 146.869668567455  60.3977501026829 146.869668567455  C 60.3977501026829 146.869668567455  59.3496759170107 154.623845188649  59.3496759170107 154.623845188649  C 59.3496759170107 154.623845188649  57.663090516281 158.805583131023  57.663090516281 158.805583131023  C 57.663090516281 158.805583131023  50.9269243908928 158.827414700727  50.9269243908928 158.827414700727  C 50.9269243908928 158.827414700727  45.3354994877193 162.866255095949  45.3354994877193 162.866255095949  C 45.3354994877193 162.866255095949  43.2902285040291 168.846120506662  43.2902285040291 168.846120506662  C 43.2902285040291 168.846120506662  50.3036763921316 174.764460584574  50.3036763921316 174.764460584574  C 50.3036763921316 174.764460584574  57.1237902071487 176.413736441296  57.1237902071487 176.413736441296  C 57.1237902071487 176.413736441296  54.6715001222264 183.808684506453  54.6715001222264 183.808684506453  C 54.6715001222264 183.808684506453  46.2462047267259 188.522318874341  46.2462047267259 188.522318874341  C 46.2462047267259 188.522318874341  41.6112747114473 198.495376852713  41.6112747114473 198.495376852713  C 41.6112747114473 198.495376852713  35.1015129611194 201.907055790986  35.1015129611194 201.907055790986  C 35.1015129611194 201.907055790986  32.1786070403976 205.993528701925  32.1786070403976 205.993528701925  C 32.1786070403976 205.993528701925  34.4808088317406 215.204466428816  34.4808088317406 215.204466428816  C 34.4808088317406 215.204466428816  39.2276690998579 220.430150340667  39.2276690998579 220.430150340667  C 39.2276690998579 220.430150340667  36.2208154895071 219.971687376886  36.2208154895071 219.971687376886  C 36.2208154895071 219.971687376886  29.609298963871 218.552635346132  29.609298963871 218.552635346132  C 29.609298963871 218.552635346132  12.3745838960821 217.345944947953  12.3745838960821 217.345944947953  C 12.3745838960821 217.345944947953  9.41860767338544 212.122245724256  9.41860767338544 212.122245724256  C 9.41860767338544 212.122245724256  9.55597662005127 205.50926479213  9.55597662005127 205.50926479213  C 9.55597662005127 205.50926479213  4.80657248255125 206.072916228121  4.80657248255125 206.072916228121  C 4.80657248255125 206.072916228121  2.29322953244412 202.905353932901  2.29322953244412 202.905353932901  C 2.29322953244412 202.905353932901  1.66998153368273 193.777773108516  1.66998153368273 193.777773108516  C 1.66998153368273 193.777773108516  7.14184457586935 190.050528753614  7.14184457586935 190.050528753614  C 7.14184457586935 190.050528753614  9.40334445708919 184.731564498482  9.40334445708919 184.731564498482  C 9.40334445708919 184.731564498482  8.57404303832906 180.539903115333  8.57404303832906 180.539903115333  C 8.57404303832906 180.539903115333  12.3542329410205 173.553800810085  12.3542329410205 173.553800810085  C 12.3542329410205 173.553800810085  14.9591551889048 162.93571918137  14.9591551889048 162.93571918137  C 14.9591551889048 162.93571918137  14.1934505047122 158.309411092298  14.1934505047122 158.309411092298  C 14.1934505047122 158.309411092298  17.3071466291363 156.824864352433  17.3071466291363 156.824864352433  C 17.3071466291363 156.824864352433  16.5439858143266 153.891495259491  16.5439858143266 153.891495259491  C 16.5439858143266 153.891495259491  13.2344117474346 152.339469122359  13.2344117474346 152.339469122359  C 13.2344117474346 152.339469122359  15.5849470570487 149.104427429872  15.5849470570487 149.104427429872  C 15.5849470570487 149.104427429872  12.3644084185512 146.202813347409  12.3644084185512 146.202813347409  C 12.3644084185512 146.202813347409  10.6981739728831 137.480108906623  10.6981739728831 137.480108906623  C 10.6981739728831 137.480108906623  13.5651147671855 135.957853091815  13.5651147671855 135.957853091815  C 13.5651147671855 135.957853091815  12.3593206797859 126.941414804104  12.3593206797859 126.941414804104  C 12.3593206797859 126.941414804104  14.0357306029848 119.496849535075  14.0357306029848 119.496849535075  C 14.0357306029848 119.496849535075  15.9436326400095 113.100199611832  15.9436326400095 113.100199611832  C 15.9436326400095 113.100199611832  20.2147893335617 109.078244545346  20.2147893335617 109.078244545346  C 20.2147893335617 109.078244545346  18.0448687501192 102.207254153082  18.0448687501192 102.207254153082  C 18.0448687501192 102.207254153082  18.0219739256748 95.822512358769  18.0219739256748 95.822512358769  C 18.0219739256748 95.822512358769  23.4226086251457 91.3311630642301  23.4226086251457 91.3311630642301  C 23.4226086251457 91.3311630642301  23.2572571152704 85.6390774359771  23.2572571152704 85.6390774359771  C 23.2572571152704 85.6390774359771  27.3274481275896 79.0638055787935  27.3274481275896 79.0638055787935  C 27.3274481275896 79.0638055787935  27.3452552132684 72.9390579327719  27.3452552132684 72.9390579327719  C 27.3452552132684 72.9390579327719  25.4933183026633 71.7303828464379  25.4933183026633 71.7303828464379  C 25.4933183026633 71.7303828464379  22.2066390602155 60.4295684924375  22.2066390602155 60.4295684924375  C 22.2066390602155 60.4295684924375  26.6024453535202 53.7947559906071  26.6024453535202 53.7947559906071  C 26.6024453535202 53.7947559906071  25.9283199671049 47.6124523880938  25.9283199671049 47.6124523880938  C 25.9283199671049 47.6124523880938  28.4772770885699 41.8647954915034  28.4772770885699 41.8647954915034  C 28.4772770885699 41.8647954915034  33.1478212752061 35.9841644885347  33.1478212752061 35.9841644885347  C 33.1478212752061 35.9841644885347  38.1821387835683 32.1140225864797  38.1821387835683 32.1140225864797  C 38.1821387835683 32.1140225864797  36.0478323714834 29.6827795967273  36.0478323714834 29.6827795967273  C 36.0478323714834 29.6827795967273  37.5359959603625 27.6961067536726  37.5359959603625 27.6961067536726  C 37.5359959603625 27.6961067536726  37.3095915853024 17.4888555730218  37.3095915853024 17.4888555730218  C 37.3095915853024 17.4888555730218  45.0785686800665 14.4939611472778  45.0785686800665 14.4939611472778  C 45.0785686800665 14.4939611472778  47.5257710262233 8.22433126594876  47.5257710262233 8.22433126594876  C 47.5257710262233 8.22433126594876  46.6608554361055 6.71993764453445  46.6608554361055 6.71993764453445  C 46.6608554361055 6.71993764453445  52.6033343140916 1.31761648689693  52.6033343140916 1.31761648689693  Z " stroke-width="2" stroke="#505050" fill="none" stroke-opacity="0.211764705882353" transform="matrix(1 0 0 1 1315 4464 )" mask="url(#clip38)" />
  </g>
</svg>