<?xml version="1.0" encoding="utf-8"?>
<svg version="1.1" xmlns:xlink="http://www.w3.org/1999/xlink" width="84px" height="84px" xmlns="http://www.w3.org/2000/svg">
  <g transform="matrix(1 0 0 1 -633 -4843 )">
    <path d="M 675 4843.5  C 698.24 4843.5  716.5 4861.76  716.5 4885  C 716.5 4908.24  698.24 4926.5  675 4926.5  C 651.76 4926.5  633.5 4908.24  633.5 4885  C 633.5 4861.76  651.76 4843.5  675 4843.5  Z " fill-rule="nonzero" fill="#74b9ff" stroke="none" />
    <path d="M 675 4843.5  C 698.24 4843.5  716.5 4861.76  716.5 4885  C 716.5 4908.24  698.24 4926.5  675 4926.5  C 651.76 4926.5  633.5 4908.24  633.5 4885  C 633.5 4861.76  651.76 4843.5  675 4843.5  Z " stroke-width="1" stroke="#505050" fill="none" stroke-opacity="0.211764705882353" />
  </g>
</svg>