<?xml version="1.0" encoding="utf-8"?>
<svg version="1.1" xmlns:xlink="http://www.w3.org/1999/xlink" width="57px" height="24px" xmlns="http://www.w3.org/2000/svg">
  <defs>
    <mask fill="white" id="clip39">
      <path d="M 55.8944915502908 5.29448640774891  C 55.8944915502908 5.29448640774891  56.6006243891446 8.12581918025679  56.6006243891446 8.12581918025679  C 56.6006243891446 8.12581918025679  56.0615337272241 12.8489023791751  56.0615337272241 12.8489023791751  C 56.0615337272241 12.8489023791751  52.0651761912015 12.8644484753865  52.0651761912015 12.8644484753865  C 52.0651761912015 12.8644484753865  53.4420086798631 14.6114410371467  53.4420086798631 14.6114410371467  C 53.4420086798631 14.6114410371467  51.0857016082756 19.7552556211057  51.0857016082756 19.7552556211057  C 51.0857016082756 19.7552556211057  49.731647598287 21.0941631573157  49.731647598287 21.0941631573157  C 49.731647598287 21.0941631573157  43.5257776310123 21.2904326219851  43.5257776310123 21.2904326219851  C 43.5257776310123 21.2904326219851  39.944494595248 23.0821202103532  39.944494595248 23.0821202103532  C 39.944494595248 23.0821202103532  34.0828327501388 22.4719359340543  34.0828327501388 22.4719359340543  C 34.0828327501388 22.4719359340543  22.0975762950666 20.4295675442769  22.0975762950666 20.4295675442769  C 22.0975762950666 20.4295675442769  20.5132065562764 17.6623624186411  20.5132065562764 17.6623624186411  C 20.5132065562764 17.6623624186411  13.4999660671581 19.0459649814589  13.4999660671581 19.0459649814589  C 13.4999660671581 19.0459649814589  12.6723480087165 20.5558795759948  12.6723480087165 20.5558795759948  C 12.6723480087165 20.5558795759948  8.37480836579952 19.4287876006656  8.37480836579952 19.4287876006656  C 8.37480836579952 19.4287876006656  4.75303025683933 19.2130855157319  4.75303025683933 19.2130855157319  C 4.75303025683933 19.2130855157319  1.54126476398821 17.761468781989  1.54126476398821 17.761468781989  C 1.54126476398821 17.761468781989  2.62703891405363 15.8046039213744  2.62703891405363 15.8046039213744  C 2.62703891405363 15.8046039213744  2.35369716998126 14.3782495939751  2.35369716998126 14.3782495939751  C 2.35369716998126 14.3782495939751  4.49487416521548 13.9351858519492  4.49487416521548 13.9351858519492  C 4.49487416521548 13.9351858519492  8.08628096927842 16.1660506582904  8.08628096927842 16.1660506582904  C 8.08628096927842 16.1660506582904  9.09612685710186 14.0459517874557  9.09612685710186 14.0459517874557  C 9.09612685710186 14.0459517874557  15.355146607946 14.3899091661337  15.355146607946 14.3899091661337  C 15.355146607946 14.3899091661337  20.4271545257351 12.9441222184701  20.4271545257351 12.9441222184701  C 20.4271545257351 12.9441222184701  23.831271616267 13.1909164958266  23.831271616267 13.1909164958266  C 23.831271616267 13.1909164958266  26.0433149895942 14.8407459562654  26.0433149895942 14.8407459562654  C 26.0433149895942 14.8407459562654  26.7038908711024 13.4726894896589  26.7038908711024 13.4726894896589  C 26.7038908711024 13.4726894896589  25.6991068674288 6.77525207188822  25.6991068674288 6.77525207188822  C 25.6991068674288 6.77525207188822  30.0864752141164 5.73755014977488  30.0864752141164 5.73755014977488  C 30.0864752141164 5.73755014977488  32.5895769260393 1.94624593621069  32.5895769260393 1.94624593621069  C 32.5895769260393 1.94624593621069  37.861529267733 4.59685534026063  37.861529267733 4.59685534026063  C 37.861529267733 4.59685534026063  41.8528249196058 1.22529572440541  41.8528249196058 1.22529572440541  C 41.8528249196058 1.22529572440541  44.350864747379 0.605395137974323  44.350864747379 0.605395137974323  C 44.350864747379 0.605395137974323  49.8607256440988 3.12774924827986  49.8607256440988 3.12774924827986  C 49.8607256440988 3.12774924827986  53.1939763565379 2.70023160246533  53.1939763565379 2.70023160246533  C 53.1939763565379 2.70023160246533  56.4639535171085 4.25484122360901  56.4639535171085 4.25484122360901  C 56.4639535171085 4.25484122360901  55.8944915502908 5.29448640774891  55.8944915502908 5.29448640774891  Z " fill-rule="evenodd" />
    </mask>
  </defs>
  <g transform="matrix(1 0 0 1 -1904 -4028 )">
    <path d="M 55.8944915502908 5.29448640774891  C 55.8944915502908 5.29448640774891  56.6006243891446 8.12581918025679  56.6006243891446 8.12581918025679  C 56.6006243891446 8.12581918025679  56.0615337272241 12.8489023791751  56.0615337272241 12.8489023791751  C 56.0615337272241 12.8489023791751  52.0651761912015 12.8644484753865  52.0651761912015 12.8644484753865  C 52.0651761912015 12.8644484753865  53.4420086798631 14.6114410371467  53.4420086798631 14.6114410371467  C 53.4420086798631 14.6114410371467  51.0857016082756 19.7552556211057  51.0857016082756 19.7552556211057  C 51.0857016082756 19.7552556211057  49.731647598287 21.0941631573157  49.731647598287 21.0941631573157  C 49.731647598287 21.0941631573157  43.5257776310123 21.2904326219851  43.5257776310123 21.2904326219851  C 43.5257776310123 21.2904326219851  39.944494595248 23.0821202103532  39.944494595248 23.0821202103532  C 39.944494595248 23.0821202103532  34.0828327501388 22.4719359340543  34.0828327501388 22.4719359340543  C 34.0828327501388 22.4719359340543  22.0975762950666 20.4295675442769  22.0975762950666 20.4295675442769  C 22.0975762950666 20.4295675442769  20.5132065562764 17.6623624186411  20.5132065562764 17.6623624186411  C 20.5132065562764 17.6623624186411  13.4999660671581 19.0459649814589  13.4999660671581 19.0459649814589  C 13.4999660671581 19.0459649814589  12.6723480087165 20.5558795759948  12.6723480087165 20.5558795759948  C 12.6723480087165 20.5558795759948  8.37480836579952 19.4287876006656  8.37480836579952 19.4287876006656  C 8.37480836579952 19.4287876006656  4.75303025683933 19.2130855157319  4.75303025683933 19.2130855157319  C 4.75303025683933 19.2130855157319  1.54126476398821 17.761468781989  1.54126476398821 17.761468781989  C 1.54126476398821 17.761468781989  2.62703891405363 15.8046039213744  2.62703891405363 15.8046039213744  C 2.62703891405363 15.8046039213744  2.35369716998126 14.3782495939751  2.35369716998126 14.3782495939751  C 2.35369716998126 14.3782495939751  4.49487416521548 13.9351858519492  4.49487416521548 13.9351858519492  C 4.49487416521548 13.9351858519492  8.08628096927842 16.1660506582904  8.08628096927842 16.1660506582904  C 8.08628096927842 16.1660506582904  9.09612685710186 14.0459517874557  9.09612685710186 14.0459517874557  C 9.09612685710186 14.0459517874557  15.355146607946 14.3899091661337  15.355146607946 14.3899091661337  C 15.355146607946 14.3899091661337  20.4271545257351 12.9441222184701  20.4271545257351 12.9441222184701  C 20.4271545257351 12.9441222184701  23.831271616267 13.1909164958266  23.831271616267 13.1909164958266  C 23.831271616267 13.1909164958266  26.0433149895942 14.8407459562654  26.0433149895942 14.8407459562654  C 26.0433149895942 14.8407459562654  26.7038908711024 13.4726894896589  26.7038908711024 13.4726894896589  C 26.7038908711024 13.4726894896589  25.6991068674288 6.77525207188822  25.6991068674288 6.77525207188822  C 25.6991068674288 6.77525207188822  30.0864752141164 5.73755014977488  30.0864752141164 5.73755014977488  C 30.0864752141164 5.73755014977488  32.5895769260393 1.94624593621069  32.5895769260393 1.94624593621069  C 32.5895769260393 1.94624593621069  37.861529267733 4.59685534026063  37.861529267733 4.59685534026063  C 37.861529267733 4.59685534026063  41.8528249196058 1.22529572440541  41.8528249196058 1.22529572440541  C 41.8528249196058 1.22529572440541  44.350864747379 0.605395137974323  44.350864747379 0.605395137974323  C 44.350864747379 0.605395137974323  49.8607256440988 3.12774924827986  49.8607256440988 3.12774924827986  C 49.8607256440988 3.12774924827986  53.1939763565379 2.70023160246533  53.1939763565379 2.70023160246533  C 53.1939763565379 2.70023160246533  56.4639535171085 4.25484122360901  56.4639535171085 4.25484122360901  C 56.4639535171085 4.25484122360901  55.8944915502908 5.29448640774891  55.8944915502908 5.29448640774891  Z " fill-rule="nonzero" fill="#a29bfe" stroke="none" transform="matrix(1 0 0 1 1904 4028 )" />
    <path d="M 55.8944915502908 5.29448640774891  C 55.8944915502908 5.29448640774891  56.6006243891446 8.12581918025679  56.6006243891446 8.12581918025679  C 56.6006243891446 8.12581918025679  56.0615337272241 12.8489023791751  56.0615337272241 12.8489023791751  C 56.0615337272241 12.8489023791751  52.0651761912015 12.8644484753865  52.0651761912015 12.8644484753865  C 52.0651761912015 12.8644484753865  53.4420086798631 14.6114410371467  53.4420086798631 14.6114410371467  C 53.4420086798631 14.6114410371467  51.0857016082756 19.7552556211057  51.0857016082756 19.7552556211057  C 51.0857016082756 19.7552556211057  49.731647598287 21.0941631573157  49.731647598287 21.0941631573157  C 49.731647598287 21.0941631573157  43.5257776310123 21.2904326219851  43.5257776310123 21.2904326219851  C 43.5257776310123 21.2904326219851  39.944494595248 23.0821202103532  39.944494595248 23.0821202103532  C 39.944494595248 23.0821202103532  34.0828327501388 22.4719359340543  34.0828327501388 22.4719359340543  C 34.0828327501388 22.4719359340543  22.0975762950666 20.4295675442769  22.0975762950666 20.4295675442769  C 22.0975762950666 20.4295675442769  20.5132065562764 17.6623624186411  20.5132065562764 17.6623624186411  C 20.5132065562764 17.6623624186411  13.4999660671581 19.0459649814589  13.4999660671581 19.0459649814589  C 13.4999660671581 19.0459649814589  12.6723480087165 20.5558795759948  12.6723480087165 20.5558795759948  C 12.6723480087165 20.5558795759948  8.37480836579952 19.4287876006656  8.37480836579952 19.4287876006656  C 8.37480836579952 19.4287876006656  4.75303025683933 19.2130855157319  4.75303025683933 19.2130855157319  C 4.75303025683933 19.2130855157319  1.54126476398821 17.761468781989  1.54126476398821 17.761468781989  C 1.54126476398821 17.761468781989  2.62703891405363 15.8046039213744  2.62703891405363 15.8046039213744  C 2.62703891405363 15.8046039213744  2.35369716998126 14.3782495939751  2.35369716998126 14.3782495939751  C 2.35369716998126 14.3782495939751  4.49487416521548 13.9351858519492  4.49487416521548 13.9351858519492  C 4.49487416521548 13.9351858519492  8.08628096927842 16.1660506582904  8.08628096927842 16.1660506582904  C 8.08628096927842 16.1660506582904  9.09612685710186 14.0459517874557  9.09612685710186 14.0459517874557  C 9.09612685710186 14.0459517874557  15.355146607946 14.3899091661337  15.355146607946 14.3899091661337  C 15.355146607946 14.3899091661337  20.4271545257351 12.9441222184701  20.4271545257351 12.9441222184701  C 20.4271545257351 12.9441222184701  23.831271616267 13.1909164958266  23.831271616267 13.1909164958266  C 23.831271616267 13.1909164958266  26.0433149895942 14.8407459562654  26.0433149895942 14.8407459562654  C 26.0433149895942 14.8407459562654  26.7038908711024 13.4726894896589  26.7038908711024 13.4726894896589  C 26.7038908711024 13.4726894896589  25.6991068674288 6.77525207188822  25.6991068674288 6.77525207188822  C 25.6991068674288 6.77525207188822  30.0864752141164 5.73755014977488  30.0864752141164 5.73755014977488  C 30.0864752141164 5.73755014977488  32.5895769260393 1.94624593621069  32.5895769260393 1.94624593621069  C 32.5895769260393 1.94624593621069  37.861529267733 4.59685534026063  37.861529267733 4.59685534026063  C 37.861529267733 4.59685534026063  41.8528249196058 1.22529572440541  41.8528249196058 1.22529572440541  C 41.8528249196058 1.22529572440541  44.350864747379 0.605395137974323  44.350864747379 0.605395137974323  C 44.350864747379 0.605395137974323  49.8607256440988 3.12774924827986  49.8607256440988 3.12774924827986  C 49.8607256440988 3.12774924827986  53.1939763565379 2.70023160246533  53.1939763565379 2.70023160246533  C 53.1939763565379 2.70023160246533  56.4639535171085 4.25484122360901  56.4639535171085 4.25484122360901  C 56.4639535171085 4.25484122360901  55.8944915502908 5.29448640774891  55.8944915502908 5.29448640774891  Z " stroke-width="2" stroke="#505050" fill="none" stroke-opacity="0.211764705882353" transform="matrix(1 0 0 1 1904 4028 )" mask="url(#clip39)" />
  </g>
</svg>