<?xml version="1.0" encoding="utf-8"?>
<svg version="1.1" xmlns:xlink="http://www.w3.org/1999/xlink" width="84px" height="84px" xmlns="http://www.w3.org/2000/svg">
  <g transform="matrix(1 0 0 1 -633 -5328 )">
    <path d="M 675 5328.5  C 698.24 5328.5  716.5 5346.76  716.5 5370  C 716.5 5393.24  698.24 5411.5  675 5411.5  C 651.76 5411.5  633.5 5393.24  633.5 5370  C 633.5 5346.76  651.76 5328.5  675 5328.5  Z " fill-rule="nonzero" fill="#0984e3" stroke="none" />
    <path d="M 675 5328.5  C 698.24 5328.5  716.5 5346.76  716.5 5370  C 716.5 5393.24  698.24 5411.5  675 5411.5  C 651.76 5411.5  633.5 5393.24  633.5 5370  C 633.5 5346.76  651.76 5328.5  675 5328.5  Z " stroke-width="1" stroke="#505050" fill="none" stroke-opacity="0.211764705882353" />
  </g>
</svg>