<?xml version="1.0" encoding="utf-8"?>
<svg version="1.1" xmlns:xlink="http://www.w3.org/1999/xlink" width="30px" height="24px" xmlns="http://www.w3.org/2000/svg">
  <defs>
    <mask fill="white" id="clip43">
      <path d="M 22.2296501812666 2.69280104326774  C 22.2296501812666 2.69280104326774  25.5048057825295 4.49736274256088  25.5048057825295 4.49736274256088  C 25.5048057825295 4.49736274256088  28.1269949794429 4.47671558353002  28.1269949794429 4.47671558353002  C 28.1269949794429 4.47671558353002  26.315206774489 8.04247994815162  26.315206774489 8.04247994815162  C 26.315206774489 8.04247994815162  29.8045766506966 11.1395538027738  29.8045766506966 11.1395538027738  C 29.8045766506966 11.1395538027738  28.7489906452461 16.399401462285  28.7489906452461 16.399401462285  C 28.7489906452461 16.399401462285  27.0456000252041 16.7504031658089  27.0456000252041 16.7504031658089  C 27.0456000252041 16.7504031658089  25.6932111086858 17.4771831636935  25.6932111086858 17.4771831636935  C 25.6932111086858 17.4771831636935  23.3394349791728 19.3209744651453  23.3394349791728 19.3209744651453  C 23.3394349791728 19.3209744651453  22.2786871839649 23.6548131457132  22.2786871839649 23.6548131457132  C 22.2786871839649 23.6548131457132  15.8754869895336 20.6754280975666  15.8754869895336 20.6754280975666  C 15.8754869895336 20.6754280975666  11.2673193128291 17.3677532208302  11.2673193128291 17.3677532208302  C 11.2673193128291 17.3677532208302  8.51092358221557 15.6065505555018  8.51092358221557 15.6065505555018  C 8.51092358221557 15.6065505555018  5.18415008337556 11.1189066437429  5.18415008337556 11.1189066437429  C 5.18415008337556 11.1189066437429  3.61496599703379 8.62266511691752  3.61496599703379 8.62266511691752  C 3.61496599703379 8.62266511691752  0.0713973283701108 4.83597615066617  0.0713973283701108 4.83597615066617  C 0.0713973283701108 4.83597615066617  1.58380172737729 1.44777735370963  1.58380172737729 1.44777735370963  C 1.58380172737729 1.44777735370963  4.1827628703809 3.32666882551371  4.1827628703809 3.32666882551371  C 4.1827628703809 3.32666882551371  5.74936606184416 1.62947235318072  5.74936606184416 1.62947235318072  C 5.74936606184416 1.62947235318072  9.13033835313982 1.44777735370963  9.13033835313982 1.44777735370963  C 9.13033835313982 1.44777735370963  17.2278759060519 2.80636041793716  17.2278759060519 2.80636041793716  C 17.2278759060519 2.80636041793716  22.2296501812666 2.69280104326774  22.2296501812666 2.69280104326774  Z " fill-rule="evenodd" />
    </mask>
  </defs>
  <g transform="matrix(1 0 0 1 -1952 -4060 )">
    <path d="M 22.2296501812666 2.69280104326774  C 22.2296501812666 2.69280104326774  25.5048057825295 4.49736274256088  25.5048057825295 4.49736274256088  C 25.5048057825295 4.49736274256088  28.1269949794429 4.47671558353002  28.1269949794429 4.47671558353002  C 28.1269949794429 4.47671558353002  26.315206774489 8.04247994815162  26.315206774489 8.04247994815162  C 26.315206774489 8.04247994815162  29.8045766506966 11.1395538027738  29.8045766506966 11.1395538027738  C 29.8045766506966 11.1395538027738  28.7489906452461 16.399401462285  28.7489906452461 16.399401462285  C 28.7489906452461 16.399401462285  27.0456000252041 16.7504031658089  27.0456000252041 16.7504031658089  C 27.0456000252041 16.7504031658089  25.6932111086858 17.4771831636935  25.6932111086858 17.4771831636935  C 25.6932111086858 17.4771831636935  23.3394349791728 19.3209744651453  23.3394349791728 19.3209744651453  C 23.3394349791728 19.3209744651453  22.2786871839649 23.6548131457132  22.2786871839649 23.6548131457132  C 22.2786871839649 23.6548131457132  15.8754869895336 20.6754280975666  15.8754869895336 20.6754280975666  C 15.8754869895336 20.6754280975666  11.2673193128291 17.3677532208302  11.2673193128291 17.3677532208302  C 11.2673193128291 17.3677532208302  8.51092358221557 15.6065505555018  8.51092358221557 15.6065505555018  C 8.51092358221557 15.6065505555018  5.18415008337556 11.1189066437429  5.18415008337556 11.1189066437429  C 5.18415008337556 11.1189066437429  3.61496599703379 8.62266511691752  3.61496599703379 8.62266511691752  C 3.61496599703379 8.62266511691752  0.0713973283701108 4.83597615066617  0.0713973283701108 4.83597615066617  C 0.0713973283701108 4.83597615066617  1.58380172737729 1.44777735370963  1.58380172737729 1.44777735370963  C 1.58380172737729 1.44777735370963  4.1827628703809 3.32666882551371  4.1827628703809 3.32666882551371  C 4.1827628703809 3.32666882551371  5.74936606184416 1.62947235318072  5.74936606184416 1.62947235318072  C 5.74936606184416 1.62947235318072  9.13033835313982 1.44777735370963  9.13033835313982 1.44777735370963  C 9.13033835313982 1.44777735370963  17.2278759060519 2.80636041793716  17.2278759060519 2.80636041793716  C 17.2278759060519 2.80636041793716  22.2296501812666 2.69280104326774  22.2296501812666 2.69280104326774  Z " fill-rule="nonzero" fill="#f2f2f2" stroke="none" transform="matrix(1 0 0 1 1952 4060 )" />
    <path d="M 22.2296501812666 2.69280104326774  C 22.2296501812666 2.69280104326774  25.5048057825295 4.49736274256088  25.5048057825295 4.49736274256088  C 25.5048057825295 4.49736274256088  28.1269949794429 4.47671558353002  28.1269949794429 4.47671558353002  C 28.1269949794429 4.47671558353002  26.315206774489 8.04247994815162  26.315206774489 8.04247994815162  C 26.315206774489 8.04247994815162  29.8045766506966 11.1395538027738  29.8045766506966 11.1395538027738  C 29.8045766506966 11.1395538027738  28.7489906452461 16.399401462285  28.7489906452461 16.399401462285  C 28.7489906452461 16.399401462285  27.0456000252041 16.7504031658089  27.0456000252041 16.7504031658089  C 27.0456000252041 16.7504031658089  25.6932111086858 17.4771831636935  25.6932111086858 17.4771831636935  C 25.6932111086858 17.4771831636935  23.3394349791728 19.3209744651453  23.3394349791728 19.3209744651453  C 23.3394349791728 19.3209744651453  22.2786871839649 23.6548131457132  22.2786871839649 23.6548131457132  C 22.2786871839649 23.6548131457132  15.8754869895336 20.6754280975666  15.8754869895336 20.6754280975666  C 15.8754869895336 20.6754280975666  11.2673193128291 17.3677532208302  11.2673193128291 17.3677532208302  C 11.2673193128291 17.3677532208302  8.51092358221557 15.6065505555018  8.51092358221557 15.6065505555018  C 8.51092358221557 15.6065505555018  5.18415008337556 11.1189066437429  5.18415008337556 11.1189066437429  C 5.18415008337556 11.1189066437429  3.61496599703379 8.62266511691752  3.61496599703379 8.62266511691752  C 3.61496599703379 8.62266511691752  0.0713973283701108 4.83597615066617  0.0713973283701108 4.83597615066617  C 0.0713973283701108 4.83597615066617  1.58380172737729 1.44777735370963  1.58380172737729 1.44777735370963  C 1.58380172737729 1.44777735370963  4.1827628703809 3.32666882551371  4.1827628703809 3.32666882551371  C 4.1827628703809 3.32666882551371  5.74936606184416 1.62947235318072  5.74936606184416 1.62947235318072  C 5.74936606184416 1.62947235318072  9.13033835313982 1.44777735370963  9.13033835313982 1.44777735370963  C 9.13033835313982 1.44777735370963  17.2278759060519 2.80636041793716  17.2278759060519 2.80636041793716  C 17.2278759060519 2.80636041793716  22.2296501812666 2.69280104326774  22.2296501812666 2.69280104326774  Z " stroke-width="2" stroke="#505050" fill="none" stroke-opacity="0.211764705882353" transform="matrix(1 0 0 1 1952 4060 )" mask="url(#clip43)" />
  </g>
</svg>