<?xml version="1.0" encoding="utf-8"?>
<svg version="1.1" xmlns:xlink="http://www.w3.org/1999/xlink" width="866px" height="164px" xmlns="http://www.w3.org/2000/svg">
  <g transform="matrix(1 0 0 1 -10 -533 )">
    <path d="M 13 615  A 79 79 0 0 1 92 536 L 794 536  A 79 79 0 0 1 873 615 A 79 79 0 0 1 794 694 L 92 694  A 79 79 0 0 1 13 615 Z " fill-rule="nonzero" fill="#ffffff" stroke="none" />
    <path d="M 11.5 615  A 80.5 80.5 0 0 1 92 534.5 L 794 534.5  A 80.5 80.5 0 0 1 874.5 615 A 80.5 80.5 0 0 1 794 695.5 L 92 695.5  A 80.5 80.5 0 0 1 11.5 615 Z " stroke-width="3" stroke-dasharray="9,3" stroke="#333333" fill="none" stroke-dashoffset="0.5" />
  </g>
</svg>