<?xml version="1.0" encoding="utf-8"?>
<svg version="1.1" xmlns:xlink="http://www.w3.org/1999/xlink" width="35px" height="39px" xmlns="http://www.w3.org/2000/svg">
  <defs>
    <mask fill="white" id="clip44">
      <path d="M 31.1014402023019 18.4785521709282  C 31.1014402023019 18.4785521709282  34.8465450658038 29.4645841002275  34.8465450658038 29.4645841002275  C 34.8465450658038 29.4645841002275  34.6994793365664 33.7432872190873  34.6994793365664 33.7432872190873  C 34.6994793365664 33.7432872190873  32.2196468677077 32.8426122595874  32.2196468677077 32.8426122595874  C 32.2196468677077 32.8426122595874  32.6836645996107 37.6203648593178  32.6836645996107 37.6203648593178  C 32.6836645996107 37.6203648593178  30.6501005505057 34.5266557269083  30.6501005505057 34.5266557269083  C 30.6501005505057 34.5266557269083  30.241866371072 31.4945821877532  30.241866371072 31.4945821877532  C 30.241866371072 31.4945821877532  28.8878474156827 28.6175917542079  28.8878474156827 28.6175917542079  C 28.8878474156827 28.6175917542079  25.9186410547073 25.1262336330566  25.9186410547073 25.1262336330566  C 25.9186410547073 25.1262336330566  19.369144871617 24.8856559948678  19.369144871617 24.8856559948678  C 19.369144871617 24.8856559948678  20.0157269570558 27.3610209497842  20.0157269570558 27.3610209497842  C 20.0157269570558 27.3610209497842  15.9422795951291 30.6893429855516  15.9422795951291 30.6893429855516  C 15.9422795951291 30.6893429855516  12.9172896816845 29.4785018148334  12.9172896816845 29.4785018148334  C 12.9172896816845 29.4785018148334  11.885293961004 30.5640835540979  11.885293961004 30.5640835540979  C 11.885293961004 30.5640835540979  9.87201484006942 29.9139274575054  9.87201484006942 29.9139274575054  C 9.87201484006942 29.9139274575054  7.12087145692874 29.3790895676479  7.12087145692874 29.3790895676479  C 7.12087145692874 29.3790895676479  6.01280725560813 24.4383008825336  6.01280725560813 24.4383008825336  C 6.01280725560813 24.4383008825336  3.55072409889861 18.4586697214911  3.55072409889861 18.4586697214911  C 3.55072409889861 18.4586697214911  4.75767732505095 14.8022872700121  4.75767732505095 14.8022872700121  C 4.75767732505095 14.8022872700121  0.383739688260221 13.1739146611151  0.383739688260221 13.1739146611151  C 0.383739688260221 13.1739146611151  1.96089285352621 10.9490685691058  1.96089285352621 10.9490685691058  C 1.96089285352621 10.9490685691058  6.40582773891424 8.66855161867274  6.40582773891424 8.66855161867274  C 6.40582773891424 8.66855161867274  1.27374091174614 5.41777113570988  1.27374091174614 5.41777113570988  C 1.27374091174614 5.41777113570988  3.78400077286092 1.22853903931726  3.78400077286092 1.22853903931726  C 3.78400077286092 1.22853903931726  9.41560395623086 3.89875199871709  9.41560395623086 3.89875199871709  C 9.41560395623086 3.89875199871709  12.8107938087887 4.2029534751045  12.8107938087887 4.2029534751045  C 12.8107938087887 4.2029534751045  13.4370909660567 8.47768010407675  13.4370909660567 8.47768010407675  C 13.4370909660567 8.47768010407675  22.044219774118 9.31870771526524  22.044219774118 9.31870771526524  C 22.044219774118 9.31870771526524  28.6393570455924 9.22724844785446  28.6393570455924 9.22724844785446  C 28.6393570455924 9.22724844785446  32.7369125360588 10.2730652882452  32.7369125360588 10.2730652882452  C 32.7369125360588 10.2730652882452  29.460896636503 15.4305726722236  29.460896636503 15.4305726722236  C 29.460896636503 15.4305726722236  26.2786985297362 15.7824920272602  26.2786985297362 15.7824920272602  C 26.2786985297362 15.7824920272602  24.0853906712874 20.6745532040943  24.0853906712874 20.6745532040943  C 24.0853906712874 20.6745532040943  27.9775612640259 23.8000742556031  27.9775612640259 23.8000742556031  C 27.9775612640259 23.8000742556031  29.1388734017942 18.4984346203652  29.1388734017942 18.4984346203652  C 29.1388734017942 18.4984346203652  31.1014402023019 18.4785521709282  31.1014402023019 18.4785521709282  Z " fill-rule="evenodd" />
    </mask>
  </defs>
  <g transform="matrix(1 0 0 1 -2465 -4189 )">
    <path d="M 31.1014402023019 18.4785521709282  C 31.1014402023019 18.4785521709282  34.8465450658038 29.4645841002275  34.8465450658038 29.4645841002275  C 34.8465450658038 29.4645841002275  34.6994793365664 33.7432872190873  34.6994793365664 33.7432872190873  C 34.6994793365664 33.7432872190873  32.2196468677077 32.8426122595874  32.2196468677077 32.8426122595874  C 32.2196468677077 32.8426122595874  32.6836645996107 37.6203648593178  32.6836645996107 37.6203648593178  C 32.6836645996107 37.6203648593178  30.6501005505057 34.5266557269083  30.6501005505057 34.5266557269083  C 30.6501005505057 34.5266557269083  30.241866371072 31.4945821877532  30.241866371072 31.4945821877532  C 30.241866371072 31.4945821877532  28.8878474156827 28.6175917542079  28.8878474156827 28.6175917542079  C 28.8878474156827 28.6175917542079  25.9186410547073 25.1262336330566  25.9186410547073 25.1262336330566  C 25.9186410547073 25.1262336330566  19.369144871617 24.8856559948678  19.369144871617 24.8856559948678  C 19.369144871617 24.8856559948678  20.0157269570558 27.3610209497842  20.0157269570558 27.3610209497842  C 20.0157269570558 27.3610209497842  15.9422795951291 30.6893429855516  15.9422795951291 30.6893429855516  C 15.9422795951291 30.6893429855516  12.9172896816845 29.4785018148334  12.9172896816845 29.4785018148334  C 12.9172896816845 29.4785018148334  11.885293961004 30.5640835540979  11.885293961004 30.5640835540979  C 11.885293961004 30.5640835540979  9.87201484006942 29.9139274575054  9.87201484006942 29.9139274575054  C 9.87201484006942 29.9139274575054  7.12087145692874 29.3790895676479  7.12087145692874 29.3790895676479  C 7.12087145692874 29.3790895676479  6.01280725560813 24.4383008825336  6.01280725560813 24.4383008825336  C 6.01280725560813 24.4383008825336  3.55072409889861 18.4586697214911  3.55072409889861 18.4586697214911  C 3.55072409889861 18.4586697214911  4.75767732505095 14.8022872700121  4.75767732505095 14.8022872700121  C 4.75767732505095 14.8022872700121  0.383739688260221 13.1739146611151  0.383739688260221 13.1739146611151  C 0.383739688260221 13.1739146611151  1.96089285352621 10.9490685691058  1.96089285352621 10.9490685691058  C 1.96089285352621 10.9490685691058  6.40582773891424 8.66855161867274  6.40582773891424 8.66855161867274  C 6.40582773891424 8.66855161867274  1.27374091174614 5.41777113570988  1.27374091174614 5.41777113570988  C 1.27374091174614 5.41777113570988  3.78400077286092 1.22853903931726  3.78400077286092 1.22853903931726  C 3.78400077286092 1.22853903931726  9.41560395623086 3.89875199871709  9.41560395623086 3.89875199871709  C 9.41560395623086 3.89875199871709  12.8107938087887 4.2029534751045  12.8107938087887 4.2029534751045  C 12.8107938087887 4.2029534751045  13.4370909660567 8.47768010407675  13.4370909660567 8.47768010407675  C 13.4370909660567 8.47768010407675  22.044219774118 9.31870771526524  22.044219774118 9.31870771526524  C 22.044219774118 9.31870771526524  28.6393570455924 9.22724844785446  28.6393570455924 9.22724844785446  C 28.6393570455924 9.22724844785446  32.7369125360588 10.2730652882452  32.7369125360588 10.2730652882452  C 32.7369125360588 10.2730652882452  29.460896636503 15.4305726722236  29.460896636503 15.4305726722236  C 29.460896636503 15.4305726722236  26.2786985297362 15.7824920272602  26.2786985297362 15.7824920272602  C 26.2786985297362 15.7824920272602  24.0853906712874 20.6745532040943  24.0853906712874 20.6745532040943  C 24.0853906712874 20.6745532040943  27.9775612640259 23.8000742556031  27.9775612640259 23.8000742556031  C 27.9775612640259 23.8000742556031  29.1388734017942 18.4984346203652  29.1388734017942 18.4984346203652  C 29.1388734017942 18.4984346203652  31.1014402023019 18.4785521709282  31.1014402023019 18.4785521709282  Z " fill-rule="nonzero" fill="#f2f2f2" stroke="none" transform="matrix(1 0 0 1 2465 4189 )" />
    <path d="M 31.1014402023019 18.4785521709282  C 31.1014402023019 18.4785521709282  34.8465450658038 29.4645841002275  34.8465450658038 29.4645841002275  C 34.8465450658038 29.4645841002275  34.6994793365664 33.7432872190873  34.6994793365664 33.7432872190873  C 34.6994793365664 33.7432872190873  32.2196468677077 32.8426122595874  32.2196468677077 32.8426122595874  C 32.2196468677077 32.8426122595874  32.6836645996107 37.6203648593178  32.6836645996107 37.6203648593178  C 32.6836645996107 37.6203648593178  30.6501005505057 34.5266557269083  30.6501005505057 34.5266557269083  C 30.6501005505057 34.5266557269083  30.241866371072 31.4945821877532  30.241866371072 31.4945821877532  C 30.241866371072 31.4945821877532  28.8878474156827 28.6175917542079  28.8878474156827 28.6175917542079  C 28.8878474156827 28.6175917542079  25.9186410547073 25.1262336330566  25.9186410547073 25.1262336330566  C 25.9186410547073 25.1262336330566  19.369144871617 24.8856559948678  19.369144871617 24.8856559948678  C 19.369144871617 24.8856559948678  20.0157269570558 27.3610209497842  20.0157269570558 27.3610209497842  C 20.0157269570558 27.3610209497842  15.9422795951291 30.6893429855516  15.9422795951291 30.6893429855516  C 15.9422795951291 30.6893429855516  12.9172896816845 29.4785018148334  12.9172896816845 29.4785018148334  C 12.9172896816845 29.4785018148334  11.885293961004 30.5640835540979  11.885293961004 30.5640835540979  C 11.885293961004 30.5640835540979  9.87201484006942 29.9139274575054  9.87201484006942 29.9139274575054  C 9.87201484006942 29.9139274575054  7.12087145692874 29.3790895676479  7.12087145692874 29.3790895676479  C 7.12087145692874 29.3790895676479  6.01280725560813 24.4383008825336  6.01280725560813 24.4383008825336  C 6.01280725560813 24.4383008825336  3.55072409889861 18.4586697214911  3.55072409889861 18.4586697214911  C 3.55072409889861 18.4586697214911  4.75767732505095 14.8022872700121  4.75767732505095 14.8022872700121  C 4.75767732505095 14.8022872700121  0.383739688260221 13.1739146611151  0.383739688260221 13.1739146611151  C 0.383739688260221 13.1739146611151  1.96089285352621 10.9490685691058  1.96089285352621 10.9490685691058  C 1.96089285352621 10.9490685691058  6.40582773891424 8.66855161867274  6.40582773891424 8.66855161867274  C 6.40582773891424 8.66855161867274  1.27374091174614 5.41777113570988  1.27374091174614 5.41777113570988  C 1.27374091174614 5.41777113570988  3.78400077286092 1.22853903931726  3.78400077286092 1.22853903931726  C 3.78400077286092 1.22853903931726  9.41560395623086 3.89875199871709  9.41560395623086 3.89875199871709  C 9.41560395623086 3.89875199871709  12.8107938087887 4.2029534751045  12.8107938087887 4.2029534751045  C 12.8107938087887 4.2029534751045  13.4370909660567 8.47768010407675  13.4370909660567 8.47768010407675  C 13.4370909660567 8.47768010407675  22.044219774118 9.31870771526524  22.044219774118 9.31870771526524  C 22.044219774118 9.31870771526524  28.6393570455924 9.22724844785446  28.6393570455924 9.22724844785446  C 28.6393570455924 9.22724844785446  32.7369125360588 10.2730652882452  32.7369125360588 10.2730652882452  C 32.7369125360588 10.2730652882452  29.460896636503 15.4305726722236  29.460896636503 15.4305726722236  C 29.460896636503 15.4305726722236  26.2786985297362 15.7824920272602  26.2786985297362 15.7824920272602  C 26.2786985297362 15.7824920272602  24.0853906712874 20.6745532040943  24.0853906712874 20.6745532040943  C 24.0853906712874 20.6745532040943  27.9775612640259 23.8000742556031  27.9775612640259 23.8000742556031  C 27.9775612640259 23.8000742556031  29.1388734017942 18.4984346203652  29.1388734017942 18.4984346203652  C 29.1388734017942 18.4984346203652  31.1014402023019 18.4785521709282  31.1014402023019 18.4785521709282  Z " stroke-width="2" stroke="#505050" fill="none" stroke-opacity="0.211764705882353" transform="matrix(1 0 0 1 2465 4189 )" mask="url(#clip44)" />
  </g>
</svg>