<?xml version="1.0" encoding="utf-8"?>
<svg version="1.1" xmlns:xlink="http://www.w3.org/1999/xlink" width="32px" height="20px" xmlns="http://www.w3.org/2000/svg">
  <defs>
    <mask fill="white" id="clip45">
      <path d="M 1.7936521432288 3.9601615288229  C 1.7936521432288 3.9601615288229  7.61566517441187 2.22580017023453  7.61566517441187 2.22580017023453  C 7.61566517441187 2.22580017023453  12.9350210947585 2.91797159679131  12.9350210947585 2.91797159679131  C 12.9350210947585 2.91797159679131  21.5488336954871 1.08725682939247  21.5488336954871 1.08725682939247  C 21.5488336954871 1.08725682939247  26.1478871580368 4.93352759741843  26.1478871580368 4.93352759741843  C 26.1478871580368 4.93352759741843  30.1406428683408 6.97071395512548  30.1406428683408 6.97071395512548  C 30.1406428683408 6.97071395512548  29.3166997691348 14.2355490030736  29.3166997691348 14.2355490030736  C 29.3166997691348 14.2355490030736  27.4226670473748 14.5600043592721  27.4226670473748 14.5600043592721  C 27.4226670473748 14.5600043592721  26.634998172662 19.338346877832  26.634998172662 19.338346877832  C 26.634998172662 19.338346877832  20.2792358382197 15.4586473761371  20.2792358382197 15.4586473761371  C 20.2792358382197 15.4586473761371  14.6710018383689 16.1232892573195  14.6710018383689 16.1232892573195  C 14.6710018383689 16.1232892573195  9.59779244137013 12.0784124833781  9.59779244137013 12.0784124833781  C 9.59779244137013 12.0784124833781  6.22169854745302 7.17325275323731  6.22169854745302 7.17325275323731  C 6.22169854745302 7.17325275323731  2.84560465353613 7.03167223416886  2.84560465353613 7.03167223416886  C 2.84560465353613 7.03167223416886  1.7936521432288 3.9601615288229  1.7936521432288 3.9601615288229  Z " fill-rule="evenodd" />
    </mask>
  </defs>
  <g transform="matrix(1 0 0 1 -1856 -4007 )">
    <path d="M 1.7936521432288 3.9601615288229  C 1.7936521432288 3.9601615288229  7.61566517441187 2.22580017023453  7.61566517441187 2.22580017023453  C 7.61566517441187 2.22580017023453  12.9350210947585 2.91797159679131  12.9350210947585 2.91797159679131  C 12.9350210947585 2.91797159679131  21.5488336954871 1.08725682939247  21.5488336954871 1.08725682939247  C 21.5488336954871 1.08725682939247  26.1478871580368 4.93352759741843  26.1478871580368 4.93352759741843  C 26.1478871580368 4.93352759741843  30.1406428683408 6.97071395512548  30.1406428683408 6.97071395512548  C 30.1406428683408 6.97071395512548  29.3166997691348 14.2355490030736  29.3166997691348 14.2355490030736  C 29.3166997691348 14.2355490030736  27.4226670473748 14.5600043592721  27.4226670473748 14.5600043592721  C 27.4226670473748 14.5600043592721  26.634998172662 19.338346877832  26.634998172662 19.338346877832  C 26.634998172662 19.338346877832  20.2792358382197 15.4586473761371  20.2792358382197 15.4586473761371  C 20.2792358382197 15.4586473761371  14.6710018383689 16.1232892573195  14.6710018383689 16.1232892573195  C 14.6710018383689 16.1232892573195  9.59779244137013 12.0784124833781  9.59779244137013 12.0784124833781  C 9.59779244137013 12.0784124833781  6.22169854745302 7.17325275323731  6.22169854745302 7.17325275323731  C 6.22169854745302 7.17325275323731  2.84560465353613 7.03167223416886  2.84560465353613 7.03167223416886  C 2.84560465353613 7.03167223416886  1.7936521432288 3.9601615288229  1.7936521432288 3.9601615288229  Z " fill-rule="nonzero" fill="#74b9ff" stroke="none" transform="matrix(1 0 0 1 1856 4007 )" />
    <path d="M 1.7936521432288 3.9601615288229  C 1.7936521432288 3.9601615288229  7.61566517441187 2.22580017023453  7.61566517441187 2.22580017023453  C 7.61566517441187 2.22580017023453  12.9350210947585 2.91797159679131  12.9350210947585 2.91797159679131  C 12.9350210947585 2.91797159679131  21.5488336954871 1.08725682939247  21.5488336954871 1.08725682939247  C 21.5488336954871 1.08725682939247  26.1478871580368 4.93352759741843  26.1478871580368 4.93352759741843  C 26.1478871580368 4.93352759741843  30.1406428683408 6.97071395512548  30.1406428683408 6.97071395512548  C 30.1406428683408 6.97071395512548  29.3166997691348 14.2355490030736  29.3166997691348 14.2355490030736  C 29.3166997691348 14.2355490030736  27.4226670473748 14.5600043592721  27.4226670473748 14.5600043592721  C 27.4226670473748 14.5600043592721  26.634998172662 19.338346877832  26.634998172662 19.338346877832  C 26.634998172662 19.338346877832  20.2792358382197 15.4586473761371  20.2792358382197 15.4586473761371  C 20.2792358382197 15.4586473761371  14.6710018383689 16.1232892573195  14.6710018383689 16.1232892573195  C 14.6710018383689 16.1232892573195  9.59779244137013 12.0784124833781  9.59779244137013 12.0784124833781  C 9.59779244137013 12.0784124833781  6.22169854745302 7.17325275323731  6.22169854745302 7.17325275323731  C 6.22169854745302 7.17325275323731  2.84560465353613 7.03167223416886  2.84560465353613 7.03167223416886  C 2.84560465353613 7.03167223416886  1.7936521432288 3.9601615288229  1.7936521432288 3.9601615288229  Z " stroke-width="2" stroke="#505050" fill="none" stroke-opacity="0.211764705882353" transform="matrix(1 0 0 1 1856 4007 )" mask="url(#clip45)" />
  </g>
</svg>