<?xml version="1.0" encoding="utf-8"?>
<svg version="1.1" xmlns:xlink="http://www.w3.org/1999/xlink" width="57px" height="35px" xmlns="http://www.w3.org/2000/svg">
  <defs>
    <mask fill="white" id="clip49">
      <path d="M 18.0406164469647 29.1875753833678  C 18.0406164469647 29.1875753833678  19.009967261592 33.4632578993323  19.009967261592 33.4632578993323  C 19.009967261592 33.4632578993323  14.1530894201564 31.9998905030235  14.1530894201564 31.9998905030235  C 14.1530894201564 31.9998905030235  10.8274315339414 32.2146783101634  10.8274315339414 32.2146783101634  C 10.8274315339414 32.2146783101634  8.34710830069146 33.6419131781685  8.34710830069146 33.6419131781685  C 8.34710830069146 33.6419131781685  5.1555903444381 32.4455250187718  5.1555903444381 32.4455250187718  C 5.1555903444381 32.4455250187718  3.91542872781304 30.5666335469678  3.91542872781304 30.5666335469678  C 3.91542872781304 30.5666335469678  0.72391077155967 29.3280907712165  0.72391077155967 29.3280907712165  C 0.72391077155967 29.3280907712165  0.25315554565692 26.0239717940908  0.25315554565692 26.0239717940908  C 0.25315554565692 26.0239717940908  2.18932623283691 23.6071071230949  2.18932623283691 23.6071071230949  C 2.18932623283691 23.6071071230949  2.0248149979784 21.6740168588351  2.0248149979784 21.6740168588351  C 2.0248149979784 21.6740168588351  7.65869205636079 15.4763002296369  7.65869205636079 15.4763002296369  C 7.65869205636079 15.4763002296369  8.69890924908085 11.5418693698761  8.69890924908085 11.5418693698761  C 8.69890924908085 11.5418693698761  10.6452037045597 10.1387228540738  10.6452037045597 10.1387228540738  C 10.6452037045597 10.1387228540738  14.0746302158394 10.9135648499248  14.0746302158394 10.9135648499248  C 14.0746302158394 10.9135648499248  17.0510180957392 9.74327240541399  17.0510180957392 9.74327240541399  C 17.0510180957392 9.74327240541399  18.0153070262173 8.26384610763697  18.0153070262173 8.26384610763697  C 18.0153070262173 8.26384610763697  23.5201060387877 5.68037033390624  23.5201060387877 5.68037033390624  C 23.5201060387877 5.68037033390624  24.8766909908506 3.87575128139342  24.8766909908506 3.87575128139342  C 24.8766909908506 3.87575128139342  33.3464689041019 1.47494551186606  33.3464689041019 1.47494551186606  C 33.3464689041019 1.47494551186606  37.2542434675082 0.651926811609987  37.2542434675082 0.651926811609987  C 37.2542434675082 0.651926811609987  39.0233719777548 1.7619983756137  39.0233719777548 1.7619983756137  C 39.0233719777548 1.7619983756137  43.5740058281462 1.73590266072788  43.5740058281462 1.73590266072788  C 43.5740058281462 1.73590266072788  43.0121366875529 4.53818096696537  43.0121366875529 4.53818096696537  C 43.0121366875529 4.53818096696537  43.9637709076571 7.16581871973427  43.9637709076571 7.16581871973427  C 43.9637709076571 7.16581871973427  47.9601284436793 10.9236016633424  47.9601284436793 10.9236016633424  C 47.9601284436793 10.9236016633424  48.1828513462568 13.7037989800609  48.1828513462568 13.7037989800609  C 48.1828513462568 13.7037989800609  56.3628561318327 15.0045699990025  56.3628561318327 15.0045699990025  C 56.3628561318327 15.0045699990025  56.2034067811238 20.381275290628  56.2034067811238 20.381275290628  C 56.2034067811238 20.381275290628  54.6519392893051 22.0895409343304  54.6519392893051 22.0895409343304  C 54.6519392893051 22.0895409343304  51.1845486469045 22.6234994081547  51.1845486469045 22.6234994081547  C 51.1845486469045 22.6234994081547  49.7368497801502 25.1166438611256  49.7368497801502 25.1166438611256  C 49.7368497801502 25.1166438611256  47.2970216200962 25.7610072825455  47.2970216200962 25.7610072825455  C 47.2970216200962 25.7610072825455  41.0835588265972 25.6405655215327  41.0835588265972 25.6405655215327  C 41.0835588265972 25.6405655215327  37.8009269556531 25.1869015550499  37.8009269556531 25.1869015550499  C 37.8009269556531 25.1869015550499  35.5104243780089 26.1062736641165  35.5104243780089 26.1062736641165  C 35.5104243780089 26.1062736641165  32.3745871474 25.6907495886212  32.3745871474 25.6907495886212  C 32.3745871474 25.6907495886212  18.2076586238978 25.9597361882172  18.2076586238978 25.9597361882172  C 18.2076586238978 25.9597361882172  18.0406164469647 29.1875753833678  18.0406164469647 29.1875753833678  Z " fill-rule="evenodd" />
    </mask>
  </defs>
  <g transform="matrix(1 0 0 1 -1801 -4257 )">
    <path d="M 18.0406164469647 29.1875753833678  C 18.0406164469647 29.1875753833678  19.009967261592 33.4632578993323  19.009967261592 33.4632578993323  C 19.009967261592 33.4632578993323  14.1530894201564 31.9998905030235  14.1530894201564 31.9998905030235  C 14.1530894201564 31.9998905030235  10.8274315339414 32.2146783101634  10.8274315339414 32.2146783101634  C 10.8274315339414 32.2146783101634  8.34710830069146 33.6419131781685  8.34710830069146 33.6419131781685  C 8.34710830069146 33.6419131781685  5.1555903444381 32.4455250187718  5.1555903444381 32.4455250187718  C 5.1555903444381 32.4455250187718  3.91542872781304 30.5666335469678  3.91542872781304 30.5666335469678  C 3.91542872781304 30.5666335469678  0.72391077155967 29.3280907712165  0.72391077155967 29.3280907712165  C 0.72391077155967 29.3280907712165  0.25315554565692 26.0239717940908  0.25315554565692 26.0239717940908  C 0.25315554565692 26.0239717940908  2.18932623283691 23.6071071230949  2.18932623283691 23.6071071230949  C 2.18932623283691 23.6071071230949  2.0248149979784 21.6740168588351  2.0248149979784 21.6740168588351  C 2.0248149979784 21.6740168588351  7.65869205636079 15.4763002296369  7.65869205636079 15.4763002296369  C 7.65869205636079 15.4763002296369  8.69890924908085 11.5418693698761  8.69890924908085 11.5418693698761  C 8.69890924908085 11.5418693698761  10.6452037045597 10.1387228540738  10.6452037045597 10.1387228540738  C 10.6452037045597 10.1387228540738  14.0746302158394 10.9135648499248  14.0746302158394 10.9135648499248  C 14.0746302158394 10.9135648499248  17.0510180957392 9.74327240541399  17.0510180957392 9.74327240541399  C 17.0510180957392 9.74327240541399  18.0153070262173 8.26384610763697  18.0153070262173 8.26384610763697  C 18.0153070262173 8.26384610763697  23.5201060387877 5.68037033390624  23.5201060387877 5.68037033390624  C 23.5201060387877 5.68037033390624  24.8766909908506 3.87575128139342  24.8766909908506 3.87575128139342  C 24.8766909908506 3.87575128139342  33.3464689041019 1.47494551186606  33.3464689041019 1.47494551186606  C 33.3464689041019 1.47494551186606  37.2542434675082 0.651926811609987  37.2542434675082 0.651926811609987  C 37.2542434675082 0.651926811609987  39.0233719777548 1.7619983756137  39.0233719777548 1.7619983756137  C 39.0233719777548 1.7619983756137  43.5740058281462 1.73590266072788  43.5740058281462 1.73590266072788  C 43.5740058281462 1.73590266072788  43.0121366875529 4.53818096696537  43.0121366875529 4.53818096696537  C 43.0121366875529 4.53818096696537  43.9637709076571 7.16581871973427  43.9637709076571 7.16581871973427  C 43.9637709076571 7.16581871973427  47.9601284436793 10.9236016633424  47.9601284436793 10.9236016633424  C 47.9601284436793 10.9236016633424  48.1828513462568 13.7037989800609  48.1828513462568 13.7037989800609  C 48.1828513462568 13.7037989800609  56.3628561318327 15.0045699990025  56.3628561318327 15.0045699990025  C 56.3628561318327 15.0045699990025  56.2034067811238 20.381275290628  56.2034067811238 20.381275290628  C 56.2034067811238 20.381275290628  54.6519392893051 22.0895409343304  54.6519392893051 22.0895409343304  C 54.6519392893051 22.0895409343304  51.1845486469045 22.6234994081547  51.1845486469045 22.6234994081547  C 51.1845486469045 22.6234994081547  49.7368497801502 25.1166438611256  49.7368497801502 25.1166438611256  C 49.7368497801502 25.1166438611256  47.2970216200962 25.7610072825455  47.2970216200962 25.7610072825455  C 47.2970216200962 25.7610072825455  41.0835588265972 25.6405655215327  41.0835588265972 25.6405655215327  C 41.0835588265972 25.6405655215327  37.8009269556531 25.1869015550499  37.8009269556531 25.1869015550499  C 37.8009269556531 25.1869015550499  35.5104243780089 26.1062736641165  35.5104243780089 26.1062736641165  C 35.5104243780089 26.1062736641165  32.3745871474 25.6907495886212  32.3745871474 25.6907495886212  C 32.3745871474 25.6907495886212  18.2076586238978 25.9597361882172  18.2076586238978 25.9597361882172  C 18.2076586238978 25.9597361882172  18.0406164469647 29.1875753833678  18.0406164469647 29.1875753833678  Z " fill-rule="nonzero" fill="#f2f2f2" stroke="none" transform="matrix(1 0 0 1 1801 4257 )" />
    <path d="M 18.0406164469647 29.1875753833678  C 18.0406164469647 29.1875753833678  19.009967261592 33.4632578993323  19.009967261592 33.4632578993323  C 19.009967261592 33.4632578993323  14.1530894201564 31.9998905030235  14.1530894201564 31.9998905030235  C 14.1530894201564 31.9998905030235  10.8274315339414 32.2146783101634  10.8274315339414 32.2146783101634  C 10.8274315339414 32.2146783101634  8.34710830069146 33.6419131781685  8.34710830069146 33.6419131781685  C 8.34710830069146 33.6419131781685  5.1555903444381 32.4455250187718  5.1555903444381 32.4455250187718  C 5.1555903444381 32.4455250187718  3.91542872781304 30.5666335469678  3.91542872781304 30.5666335469678  C 3.91542872781304 30.5666335469678  0.72391077155967 29.3280907712165  0.72391077155967 29.3280907712165  C 0.72391077155967 29.3280907712165  0.25315554565692 26.0239717940908  0.25315554565692 26.0239717940908  C 0.25315554565692 26.0239717940908  2.18932623283691 23.6071071230949  2.18932623283691 23.6071071230949  C 2.18932623283691 23.6071071230949  2.0248149979784 21.6740168588351  2.0248149979784 21.6740168588351  C 2.0248149979784 21.6740168588351  7.65869205636079 15.4763002296369  7.65869205636079 15.4763002296369  C 7.65869205636079 15.4763002296369  8.69890924908085 11.5418693698761  8.69890924908085 11.5418693698761  C 8.69890924908085 11.5418693698761  10.6452037045597 10.1387228540738  10.6452037045597 10.1387228540738  C 10.6452037045597 10.1387228540738  14.0746302158394 10.9135648499248  14.0746302158394 10.9135648499248  C 14.0746302158394 10.9135648499248  17.0510180957392 9.74327240541399  17.0510180957392 9.74327240541399  C 17.0510180957392 9.74327240541399  18.0153070262173 8.26384610763697  18.0153070262173 8.26384610763697  C 18.0153070262173 8.26384610763697  23.5201060387877 5.68037033390624  23.5201060387877 5.68037033390624  C 23.5201060387877 5.68037033390624  24.8766909908506 3.87575128139342  24.8766909908506 3.87575128139342  C 24.8766909908506 3.87575128139342  33.3464689041019 1.47494551186606  33.3464689041019 1.47494551186606  C 33.3464689041019 1.47494551186606  37.2542434675082 0.651926811609987  37.2542434675082 0.651926811609987  C 37.2542434675082 0.651926811609987  39.0233719777548 1.7619983756137  39.0233719777548 1.7619983756137  C 39.0233719777548 1.7619983756137  43.5740058281462 1.73590266072788  43.5740058281462 1.73590266072788  C 43.5740058281462 1.73590266072788  43.0121366875529 4.53818096696537  43.0121366875529 4.53818096696537  C 43.0121366875529 4.53818096696537  43.9637709076571 7.16581871973427  43.9637709076571 7.16581871973427  C 43.9637709076571 7.16581871973427  47.9601284436793 10.9236016633424  47.9601284436793 10.9236016633424  C 47.9601284436793 10.9236016633424  48.1828513462568 13.7037989800609  48.1828513462568 13.7037989800609  C 48.1828513462568 13.7037989800609  56.3628561318327 15.0045699990025  56.3628561318327 15.0045699990025  C 56.3628561318327 15.0045699990025  56.2034067811238 20.381275290628  56.2034067811238 20.381275290628  C 56.2034067811238 20.381275290628  54.6519392893051 22.0895409343304  54.6519392893051 22.0895409343304  C 54.6519392893051 22.0895409343304  51.1845486469045 22.6234994081547  51.1845486469045 22.6234994081547  C 51.1845486469045 22.6234994081547  49.7368497801502 25.1166438611256  49.7368497801502 25.1166438611256  C 49.7368497801502 25.1166438611256  47.2970216200962 25.7610072825455  47.2970216200962 25.7610072825455  C 47.2970216200962 25.7610072825455  41.0835588265972 25.6405655215327  41.0835588265972 25.6405655215327  C 41.0835588265972 25.6405655215327  37.8009269556531 25.1869015550499  37.8009269556531 25.1869015550499  C 37.8009269556531 25.1869015550499  35.5104243780089 26.1062736641165  35.5104243780089 26.1062736641165  C 35.5104243780089 26.1062736641165  32.3745871474 25.6907495886212  32.3745871474 25.6907495886212  C 32.3745871474 25.6907495886212  18.2076586238978 25.9597361882172  18.2076586238978 25.9597361882172  C 18.2076586238978 25.9597361882172  18.0406164469647 29.1875753833678  18.0406164469647 29.1875753833678  Z " stroke-width="2" stroke="#505050" fill="none" stroke-opacity="0.211764705882353" transform="matrix(1 0 0 1 1801 4257 )" mask="url(#clip49)" />
  </g>
</svg>