<?xml version="1.0" encoding="utf-8"?>
<svg version="1.1" xmlns:xlink="http://www.w3.org/1999/xlink" width="48px" height="26px" xmlns="http://www.w3.org/2000/svg">
  <defs>
    <mask fill="white" id="clip50">
      <path d="M 1.37061247610892 2.29492397269523  C 1.37061247610892 2.29492397269523  3.12911512833335 0.539303687401072  3.12911512833335 0.539303687401072  C 3.12911512833335 0.539303687401072  5.17985449299396 3.7165191074465  5.17985449299396 3.7165191074465  C 5.17985449299396 3.7165191074465  7.93958553391265 3.15185754343347  7.93958553391265 3.15185754343347  C 7.93958553391265 3.15185754343347  13.4158474060855 4.35275748943311  13.4158474060855 4.35275748943311  C 13.4158474060855 4.35275748943311  25.7240755574537 4.75835945794958  25.7240755574537 4.75835945794958  C 25.7240755574537 4.75835945794958  29.2588691835288 2.793973453566  29.2588691835288 2.793973453566  C 29.2588691835288 2.793973453566  37.6473334248478 0.996600024453989  37.6473334248478 0.996600024453989  C 37.6473334248478 0.996600024453989  42.8313585845849 3.80400188496966  42.8313585845849 3.80400188496966  C 42.8313585845849 3.80400188496966  47.0217789220386 4.61122933211513  47.0217789220386 4.61122933211513  C 47.0217789220386 4.61122933211513  43.3243492125204 7.78446826227319  43.3243492125204 7.78446826227319  C 43.3243492125204 7.78446826227319  40.7221718774369 14.6548331580968  40.7221718774369 14.6548331580968  C 40.7221718774369 14.6548331580968  43.0194065560653 18.9395010117876  43.0194065560653 18.9395010117876  C 43.0194065560653 18.9395010117876  36.8849767837103 17.9354373152151  36.8849767837103 17.9354373152151  C 36.8849767837103 17.9354373152151  29.6273415600789 20.2875310836217  29.6273415600789 20.2875310836217  C 29.6273415600789 20.2875310836217  29.551105895965 23.9836784339749  29.551105895965 23.9836784339749  C 29.551105895965 23.9836784339749  21.2274617889439 24.6815524092164  21.2274617889439 24.6815524092164  C 21.2274617889439 24.6815524092164  16.2086139014536 22.0948457374522  16.2086139014536 22.0948457374522  C 16.2086139014536 22.0948457374522  10.5036450369395 24.1308085598093  10.5036450369395 24.1308085598093  C 10.5036450369395 24.1308085598093  5.23321945787358 23.9160781058888  5.23321945787358 23.9160781058888  C 5.23321945787358 23.9160781058888  4.72752288591892 18.9991483600988  4.72752288591892 18.9991483600988  C 4.72752288591892 18.9991483600988  1.15969380539431 16.5953602231558  1.15969380539431 16.5953602231558  C 1.15969380539431 16.5953602231558  2.33118184394271 15.5336374232157  2.33118184394271 15.5336374232157  C 2.33118184394271 15.5336374232157  1.55866044758974 14.6369389536035  1.55866044758974 14.6369389536035  C 1.55866044758974 14.6369389536035  2.75556037417601 10.7867181272723  2.75556037417601 10.7867181272723  C 2.75556037417601 10.7867181272723  5.47209120543014 8.4107654195412  5.47209120543014 8.4107654195412  C 5.47209120543014 8.4107654195412  2.01099205466478 5.10829056804213  2.01099205466478 5.10829056804213  C 2.01099205466478 5.10829056804213  1.37061247610892 2.29492397269523  1.37061247610892 2.29492397269523  Z " fill-rule="evenodd" />
    </mask>
  </defs>
  <g transform="matrix(1 0 0 1 -1998 -4069 )">
    <path d="M 1.37061247610892 2.29492397269523  C 1.37061247610892 2.29492397269523  3.12911512833335 0.539303687401072  3.12911512833335 0.539303687401072  C 3.12911512833335 0.539303687401072  5.17985449299396 3.7165191074465  5.17985449299396 3.7165191074465  C 5.17985449299396 3.7165191074465  7.93958553391265 3.15185754343347  7.93958553391265 3.15185754343347  C 7.93958553391265 3.15185754343347  13.4158474060855 4.35275748943311  13.4158474060855 4.35275748943311  C 13.4158474060855 4.35275748943311  25.7240755574537 4.75835945794958  25.7240755574537 4.75835945794958  C 25.7240755574537 4.75835945794958  29.2588691835288 2.793973453566  29.2588691835288 2.793973453566  C 29.2588691835288 2.793973453566  37.6473334248478 0.996600024453989  37.6473334248478 0.996600024453989  C 37.6473334248478 0.996600024453989  42.8313585845849 3.80400188496966  42.8313585845849 3.80400188496966  C 42.8313585845849 3.80400188496966  47.0217789220386 4.61122933211513  47.0217789220386 4.61122933211513  C 47.0217789220386 4.61122933211513  43.3243492125204 7.78446826227319  43.3243492125204 7.78446826227319  C 43.3243492125204 7.78446826227319  40.7221718774369 14.6548331580968  40.7221718774369 14.6548331580968  C 40.7221718774369 14.6548331580968  43.0194065560653 18.9395010117876  43.0194065560653 18.9395010117876  C 43.0194065560653 18.9395010117876  36.8849767837103 17.9354373152151  36.8849767837103 17.9354373152151  C 36.8849767837103 17.9354373152151  29.6273415600789 20.2875310836217  29.6273415600789 20.2875310836217  C 29.6273415600789 20.2875310836217  29.551105895965 23.9836784339749  29.551105895965 23.9836784339749  C 29.551105895965 23.9836784339749  21.2274617889439 24.6815524092164  21.2274617889439 24.6815524092164  C 21.2274617889439 24.6815524092164  16.2086139014536 22.0948457374522  16.2086139014536 22.0948457374522  C 16.2086139014536 22.0948457374522  10.5036450369395 24.1308085598093  10.5036450369395 24.1308085598093  C 10.5036450369395 24.1308085598093  5.23321945787358 23.9160781058888  5.23321945787358 23.9160781058888  C 5.23321945787358 23.9160781058888  4.72752288591892 18.9991483600988  4.72752288591892 18.9991483600988  C 4.72752288591892 18.9991483600988  1.15969380539431 16.5953602231558  1.15969380539431 16.5953602231558  C 1.15969380539431 16.5953602231558  2.33118184394271 15.5336374232157  2.33118184394271 15.5336374232157  C 2.33118184394271 15.5336374232157  1.55866044758974 14.6369389536035  1.55866044758974 14.6369389536035  C 1.55866044758974 14.6369389536035  2.75556037417601 10.7867181272723  2.75556037417601 10.7867181272723  C 2.75556037417601 10.7867181272723  5.47209120543014 8.4107654195412  5.47209120543014 8.4107654195412  C 5.47209120543014 8.4107654195412  2.01099205466478 5.10829056804213  2.01099205466478 5.10829056804213  C 2.01099205466478 5.10829056804213  1.37061247610892 2.29492397269523  1.37061247610892 2.29492397269523  Z " fill-rule="nonzero" fill="#f2f2f2" stroke="none" transform="matrix(1 0 0 1 1998 4069 )" />
    <path d="M 1.37061247610892 2.29492397269523  C 1.37061247610892 2.29492397269523  3.12911512833335 0.539303687401072  3.12911512833335 0.539303687401072  C 3.12911512833335 0.539303687401072  5.17985449299396 3.7165191074465  5.17985449299396 3.7165191074465  C 5.17985449299396 3.7165191074465  7.93958553391265 3.15185754343347  7.93958553391265 3.15185754343347  C 7.93958553391265 3.15185754343347  13.4158474060855 4.35275748943311  13.4158474060855 4.35275748943311  C 13.4158474060855 4.35275748943311  25.7240755574537 4.75835945794958  25.7240755574537 4.75835945794958  C 25.7240755574537 4.75835945794958  29.2588691835288 2.793973453566  29.2588691835288 2.793973453566  C 29.2588691835288 2.793973453566  37.6473334248478 0.996600024453989  37.6473334248478 0.996600024453989  C 37.6473334248478 0.996600024453989  42.8313585845849 3.80400188496966  42.8313585845849 3.80400188496966  C 42.8313585845849 3.80400188496966  47.0217789220386 4.61122933211513  47.0217789220386 4.61122933211513  C 47.0217789220386 4.61122933211513  43.3243492125204 7.78446826227319  43.3243492125204 7.78446826227319  C 43.3243492125204 7.78446826227319  40.7221718774369 14.6548331580968  40.7221718774369 14.6548331580968  C 40.7221718774369 14.6548331580968  43.0194065560653 18.9395010117876  43.0194065560653 18.9395010117876  C 43.0194065560653 18.9395010117876  36.8849767837103 17.9354373152151  36.8849767837103 17.9354373152151  C 36.8849767837103 17.9354373152151  29.6273415600789 20.2875310836217  29.6273415600789 20.2875310836217  C 29.6273415600789 20.2875310836217  29.551105895965 23.9836784339749  29.551105895965 23.9836784339749  C 29.551105895965 23.9836784339749  21.2274617889439 24.6815524092164  21.2274617889439 24.6815524092164  C 21.2274617889439 24.6815524092164  16.2086139014536 22.0948457374522  16.2086139014536 22.0948457374522  C 16.2086139014536 22.0948457374522  10.5036450369395 24.1308085598093  10.5036450369395 24.1308085598093  C 10.5036450369395 24.1308085598093  5.23321945787358 23.9160781058888  5.23321945787358 23.9160781058888  C 5.23321945787358 23.9160781058888  4.72752288591892 18.9991483600988  4.72752288591892 18.9991483600988  C 4.72752288591892 18.9991483600988  1.15969380539431 16.5953602231558  1.15969380539431 16.5953602231558  C 1.15969380539431 16.5953602231558  2.33118184394271 15.5336374232157  2.33118184394271 15.5336374232157  C 2.33118184394271 15.5336374232157  1.55866044758974 14.6369389536035  1.55866044758974 14.6369389536035  C 1.55866044758974 14.6369389536035  2.75556037417601 10.7867181272723  2.75556037417601 10.7867181272723  C 2.75556037417601 10.7867181272723  5.47209120543014 8.4107654195412  5.47209120543014 8.4107654195412  C 5.47209120543014 8.4107654195412  2.01099205466478 5.10829056804213  2.01099205466478 5.10829056804213  C 2.01099205466478 5.10829056804213  1.37061247610892 2.29492397269523  1.37061247610892 2.29492397269523  Z " stroke-width="2" stroke="#505050" fill="none" stroke-opacity="0.211764705882353" transform="matrix(1 0 0 1 1998 4069 )" mask="url(#clip50)" />
  </g>
</svg>