<?xml version="1.0" encoding="utf-8"?>
<svg version="1.1" xmlns:xlink="http://www.w3.org/1999/xlink" width="15px" height="14px" xmlns="http://www.w3.org/2000/svg">
  <defs>
    <mask fill="white" id="clip51">
      <path d="M 5.78007295672762 12.8454325214779  C 5.78007295672762 12.8454325214779  2.78881579213831 13.1017325889136  2.78881579213831 13.1017325889136  C 2.78881579213831 13.1017325889136  2.32941650370272 5.21329403961709  2.32941650370272 5.21329403961709  C 2.32941650370272 5.21329403961709  0.509885614112235 2.76977159218359  0.509885614112235 2.76977159218359  C 0.509885614112235 2.76977159218359  4.90256869791786 3.19179952277332  4.90256869791786 3.19179952277332  C 4.90256869791786 3.19179952277332  8.99455739885191 0.133542327129226  8.99455739885191 0.133542327129226  C 8.99455739885191 0.133542327129226  12.840090768341 0.484268735199385  12.840090768341 0.484268735199385  C 12.840090768341 0.484268735199385  13.2581957387148 2.600189592677  13.2581957387148 2.600189592677  C 13.2581957387148 2.600189592677  14.8170562455415 3.81809668004121  14.8170562455415 3.81809668004121  C 14.8170562455415 3.81809668004121  14.8841595123915 5.56594751586335  14.8841595123915 5.56594751586335  C 14.8841595123915 5.56594751586335  13.0981802562259 8.09135533076951  13.0981802562259 8.09135533076951  C 13.0981802562259 8.09135533076951  10.2824239433991 10.895239527154  10.2824239433991 10.895239527154  C 10.2824239433991 10.895239527154  5.78007295672762 12.8454325214779  5.78007295672762 12.8454325214779  Z " fill-rule="evenodd" />
    </mask>
  </defs>
  <g transform="matrix(1 0 0 1 -2046 -4355 )">
    <path d="M 5.78007295672762 12.8454325214779  C 5.78007295672762 12.8454325214779  2.78881579213831 13.1017325889136  2.78881579213831 13.1017325889136  C 2.78881579213831 13.1017325889136  2.32941650370272 5.21329403961709  2.32941650370272 5.21329403961709  C 2.32941650370272 5.21329403961709  0.509885614112235 2.76977159218359  0.509885614112235 2.76977159218359  C 0.509885614112235 2.76977159218359  4.90256869791786 3.19179952277332  4.90256869791786 3.19179952277332  C 4.90256869791786 3.19179952277332  8.99455739885191 0.133542327129226  8.99455739885191 0.133542327129226  C 8.99455739885191 0.133542327129226  12.840090768341 0.484268735199385  12.840090768341 0.484268735199385  C 12.840090768341 0.484268735199385  13.2581957387148 2.600189592677  13.2581957387148 2.600189592677  C 13.2581957387148 2.600189592677  14.8170562455415 3.81809668004121  14.8170562455415 3.81809668004121  C 14.8170562455415 3.81809668004121  14.8841595123915 5.56594751586335  14.8841595123915 5.56594751586335  C 14.8841595123915 5.56594751586335  13.0981802562259 8.09135533076951  13.0981802562259 8.09135533076951  C 13.0981802562259 8.09135533076951  10.2824239433991 10.895239527154  10.2824239433991 10.895239527154  C 10.2824239433991 10.895239527154  5.78007295672762 12.8454325214779  5.78007295672762 12.8454325214779  Z " fill-rule="nonzero" fill="#f2f2f2" stroke="none" transform="matrix(1 0 0 1 2046 4355 )" />
    <path d="M 5.78007295672762 12.8454325214779  C 5.78007295672762 12.8454325214779  2.78881579213831 13.1017325889136  2.78881579213831 13.1017325889136  C 2.78881579213831 13.1017325889136  2.32941650370272 5.21329403961709  2.32941650370272 5.21329403961709  C 2.32941650370272 5.21329403961709  0.509885614112235 2.76977159218359  0.509885614112235 2.76977159218359  C 0.509885614112235 2.76977159218359  4.90256869791786 3.19179952277332  4.90256869791786 3.19179952277332  C 4.90256869791786 3.19179952277332  8.99455739885191 0.133542327129226  8.99455739885191 0.133542327129226  C 8.99455739885191 0.133542327129226  12.840090768341 0.484268735199385  12.840090768341 0.484268735199385  C 12.840090768341 0.484268735199385  13.2581957387148 2.600189592677  13.2581957387148 2.600189592677  C 13.2581957387148 2.600189592677  14.8170562455415 3.81809668004121  14.8170562455415 3.81809668004121  C 14.8170562455415 3.81809668004121  14.8841595123915 5.56594751586335  14.8841595123915 5.56594751586335  C 14.8841595123915 5.56594751586335  13.0981802562259 8.09135533076951  13.0981802562259 8.09135533076951  C 13.0981802562259 8.09135533076951  10.2824239433991 10.895239527154  10.2824239433991 10.895239527154  C 10.2824239433991 10.895239527154  5.78007295672762 12.8454325214779  5.78007295672762 12.8454325214779  Z " stroke-width="2" stroke="#505050" fill="none" stroke-opacity="0.211764705882353" transform="matrix(1 0 0 1 2046 4355 )" mask="url(#clip51)" />
  </g>
</svg>