<?xml version="1.0" encoding="utf-8"?>
<svg version="1.1" xmlns:xlink="http://www.w3.org/1999/xlink" width="24px" height="38px" xmlns="http://www.w3.org/2000/svg">
  <defs>
    <mask fill="white" id="clip52">
      <path d="M 16.3594203663623 27.5066821456935  C 16.3594203663623 27.5066821456935  15.9502889689516 36.6059380720065  15.9502889689516 36.6059380720065  C 15.9502889689516 36.6059380720065  8.21620066441056 37.2658000980581  8.21620066441056 37.2658000980581  C 8.21620066441056 37.2658000980581  6.4602392009898 33.375028273718  6.4602392009898 33.375028273718  C 6.4602392009898 33.375028273718  6.78551136787526 20.3789651996559  6.78551136787526 20.3789651996559  C 6.78551136787526 20.3789651996559  5.34973969373263 17.7465739967699  5.34973969373263 17.7465739967699  C 5.34973969373263 17.7465739967699  5.08037368053066 14.9582545818088  5.08037368053066 14.9582545818088  C 5.08037368053066 14.9582545818088  2.60525578563654 12.9645860823665  2.60525578563654 12.9645860823665  C 2.60525578563654 12.9645860823665  0.427456980786351 11.2827426257234  0.427456980786351 11.2827426257234  C 0.427456980786351 11.2827426257234  1.33466138374031 8.27916334250751  1.33466138374031 8.27916334250751  C 1.33466138374031 8.27916334250751  3.78436739059634 7.63338373774347  3.78436739059634 7.63338373774347  C 3.78436739059634 7.63338373774347  5.23792738636565 5.13475984641437  5.23792738636565 5.13475984641437  C 5.23792738636565 5.13475984641437  8.71935604756135 4.59962783748273  8.71935604756135 4.59962783748273  C 8.71935604756135 4.59962783748273  10.2771047842862 2.88760776379422  10.2771047842862 2.88760776379422  C 10.2771047842862 2.88760776379422  14.5145172948088 1.20978785609032  14.5145172948088 1.20978785609032  C 14.5145172948088 1.20978785609032  17.0684120426204 1.1936936603328  17.0684120426204 1.1936936603328  C 17.0684120426204 1.1936936603328  22.5014737051286 4.49099201612055  22.5014737051286 4.49099201612055  C 22.5014737051286 4.49099201612055  22.2244841255153 6.39010711548795  22.2244841255153 6.39010711548795  C 22.2244841255153 6.39010711548795  23.8254330719045 9.7779353224108  23.8254330719045 9.7779353224108  C 23.8254330719045 9.7779353224108  22.4226968522111 12.0733699923032  22.4226968522111 12.0733699923032  C 22.4226968522111 12.0733699923032  23.1748887381336 13.6043303637215  23.1748887381336 13.6043303637215  C 23.1748887381336 13.6043303637215  19.7163307761721 17.1249356856423  19.7163307761721 17.1249356856423  C 19.7163307761721 17.1249356856423  17.5207436496954 20.3266590634445  17.5207436496954 20.3266590634445  C 17.5207436496954 20.3266590634445  16.1789959612929 23.9035940705162  16.1789959612929 23.9035940705162  C 16.1789959612929 23.9035940705162  16.3594203663623 27.5066821456935  16.3594203663623 27.5066821456935  Z " fill-rule="evenodd" />
    </mask>
  </defs>
  <g transform="matrix(1 0 0 1 -1844 -4273 )">
    <path d="M 16.3594203663623 27.5066821456935  C 16.3594203663623 27.5066821456935  15.9502889689516 36.6059380720065  15.9502889689516 36.6059380720065  C 15.9502889689516 36.6059380720065  8.21620066441056 37.2658000980581  8.21620066441056 37.2658000980581  C 8.21620066441056 37.2658000980581  6.4602392009898 33.375028273718  6.4602392009898 33.375028273718  C 6.4602392009898 33.375028273718  6.78551136787526 20.3789651996559  6.78551136787526 20.3789651996559  C 6.78551136787526 20.3789651996559  5.34973969373263 17.7465739967699  5.34973969373263 17.7465739967699  C 5.34973969373263 17.7465739967699  5.08037368053066 14.9582545818088  5.08037368053066 14.9582545818088  C 5.08037368053066 14.9582545818088  2.60525578563654 12.9645860823665  2.60525578563654 12.9645860823665  C 2.60525578563654 12.9645860823665  0.427456980786351 11.2827426257234  0.427456980786351 11.2827426257234  C 0.427456980786351 11.2827426257234  1.33466138374031 8.27916334250751  1.33466138374031 8.27916334250751  C 1.33466138374031 8.27916334250751  3.78436739059634 7.63338373774347  3.78436739059634 7.63338373774347  C 3.78436739059634 7.63338373774347  5.23792738636565 5.13475984641437  5.23792738636565 5.13475984641437  C 5.23792738636565 5.13475984641437  8.71935604756135 4.59962783748273  8.71935604756135 4.59962783748273  C 8.71935604756135 4.59962783748273  10.2771047842862 2.88760776379422  10.2771047842862 2.88760776379422  C 10.2771047842862 2.88760776379422  14.5145172948088 1.20978785609032  14.5145172948088 1.20978785609032  C 14.5145172948088 1.20978785609032  17.0684120426204 1.1936936603328  17.0684120426204 1.1936936603328  C 17.0684120426204 1.1936936603328  22.5014737051286 4.49099201612055  22.5014737051286 4.49099201612055  C 22.5014737051286 4.49099201612055  22.2244841255153 6.39010711548795  22.2244841255153 6.39010711548795  C 22.2244841255153 6.39010711548795  23.8254330719045 9.7779353224108  23.8254330719045 9.7779353224108  C 23.8254330719045 9.7779353224108  22.4226968522111 12.0733699923032  22.4226968522111 12.0733699923032  C 22.4226968522111 12.0733699923032  23.1748887381336 13.6043303637215  23.1748887381336 13.6043303637215  C 23.1748887381336 13.6043303637215  19.7163307761721 17.1249356856423  19.7163307761721 17.1249356856423  C 19.7163307761721 17.1249356856423  17.5207436496954 20.3266590634445  17.5207436496954 20.3266590634445  C 17.5207436496954 20.3266590634445  16.1789959612929 23.9035940705162  16.1789959612929 23.9035940705162  C 16.1789959612929 23.9035940705162  16.3594203663623 27.5066821456935  16.3594203663623 27.5066821456935  Z " fill-rule="nonzero" fill="#f2f2f2" stroke="none" transform="matrix(1 0 0 1 1844 4273 )" />
    <path d="M 16.3594203663623 27.5066821456935  C 16.3594203663623 27.5066821456935  15.9502889689516 36.6059380720065  15.9502889689516 36.6059380720065  C 15.9502889689516 36.6059380720065  8.21620066441056 37.2658000980581  8.21620066441056 37.2658000980581  C 8.21620066441056 37.2658000980581  6.4602392009898 33.375028273718  6.4602392009898 33.375028273718  C 6.4602392009898 33.375028273718  6.78551136787526 20.3789651996559  6.78551136787526 20.3789651996559  C 6.78551136787526 20.3789651996559  5.34973969373263 17.7465739967699  5.34973969373263 17.7465739967699  C 5.34973969373263 17.7465739967699  5.08037368053066 14.9582545818088  5.08037368053066 14.9582545818088  C 5.08037368053066 14.9582545818088  2.60525578563654 12.9645860823665  2.60525578563654 12.9645860823665  C 2.60525578563654 12.9645860823665  0.427456980786351 11.2827426257234  0.427456980786351 11.2827426257234  C 0.427456980786351 11.2827426257234  1.33466138374031 8.27916334250751  1.33466138374031 8.27916334250751  C 1.33466138374031 8.27916334250751  3.78436739059634 7.63338373774347  3.78436739059634 7.63338373774347  C 3.78436739059634 7.63338373774347  5.23792738636565 5.13475984641437  5.23792738636565 5.13475984641437  C 5.23792738636565 5.13475984641437  8.71935604756135 4.59962783748273  8.71935604756135 4.59962783748273  C 8.71935604756135 4.59962783748273  10.2771047842862 2.88760776379422  10.2771047842862 2.88760776379422  C 10.2771047842862 2.88760776379422  14.5145172948088 1.20978785609032  14.5145172948088 1.20978785609032  C 14.5145172948088 1.20978785609032  17.0684120426204 1.1936936603328  17.0684120426204 1.1936936603328  C 17.0684120426204 1.1936936603328  22.5014737051286 4.49099201612055  22.5014737051286 4.49099201612055  C 22.5014737051286 4.49099201612055  22.2244841255153 6.39010711548795  22.2244841255153 6.39010711548795  C 22.2244841255153 6.39010711548795  23.8254330719045 9.7779353224108  23.8254330719045 9.7779353224108  C 23.8254330719045 9.7779353224108  22.4226968522111 12.0733699923032  22.4226968522111 12.0733699923032  C 22.4226968522111 12.0733699923032  23.1748887381336 13.6043303637215  23.1748887381336 13.6043303637215  C 23.1748887381336 13.6043303637215  19.7163307761721 17.1249356856423  19.7163307761721 17.1249356856423  C 19.7163307761721 17.1249356856423  17.5207436496954 20.3266590634445  17.5207436496954 20.3266590634445  C 17.5207436496954 20.3266590634445  16.1789959612929 23.9035940705162  16.1789959612929 23.9035940705162  C 16.1789959612929 23.9035940705162  16.3594203663623 27.5066821456935  16.3594203663623 27.5066821456935  Z " stroke-width="2" stroke="#505050" fill="none" stroke-opacity="0.211764705882353" transform="matrix(1 0 0 1 1844 4273 )" mask="url(#clip52)" />
  </g>
</svg>