<?xml version="1.0" encoding="utf-8"?>
<svg version="1.1" xmlns:xlink="http://www.w3.org/1999/xlink" width="12px" height="11px" xmlns="http://www.w3.org/2000/svg">
  <defs>
    <mask fill="white" id="clip53">
      <path d="M 3.54478015541008 10.5481656317683  C 3.54478015541008 10.5481656317683  0.0292572110965921 7.41825296230656  0.0292572110965921 7.41825296230656  C 0.0292572110965921 7.41825296230656  3.08503674765689 3.58428904032056  3.08503674765689 3.58428904032056  C 3.08503674765689 3.58428904032056  11.6535862739938 0.270518335679494  11.6535862739938 0.270518335679494  C 11.6535862739938 0.270518335679494  11.3067140022758 3.25118154129011  11.3067140022758 3.25118154129011  C 11.3067140022758 3.25118154129011  10.8552294581355 8.68362885148053  10.8552294581355 8.68362885148053  C 10.8552294581355 8.68362885148053  7.16627037796343 8.4911186734697  7.16627037796343 8.4911186734697  C 7.16627037796343 8.4911186734697  3.54478015541008 10.5481656317683  3.54478015541008 10.5481656317683  Z " fill-rule="evenodd" />
    </mask>
  </defs>
  <g transform="matrix(1 0 0 1 -2652 -4311 )">
    <path d="M 3.54478015541008 10.5481656317683  C 3.54478015541008 10.5481656317683  0.0292572110965921 7.41825296230656  0.0292572110965921 7.41825296230656  C 0.0292572110965921 7.41825296230656  3.08503674765689 3.58428904032056  3.08503674765689 3.58428904032056  C 3.08503674765689 3.58428904032056  11.6535862739938 0.270518335679494  11.6535862739938 0.270518335679494  C 11.6535862739938 0.270518335679494  11.3067140022758 3.25118154129011  11.3067140022758 3.25118154129011  C 11.3067140022758 3.25118154129011  10.8552294581355 8.68362885148053  10.8552294581355 8.68362885148053  C 10.8552294581355 8.68362885148053  7.16627037796343 8.4911186734697  7.16627037796343 8.4911186734697  C 7.16627037796343 8.4911186734697  3.54478015541008 10.5481656317683  3.54478015541008 10.5481656317683  Z " fill-rule="nonzero" fill="#f2f2f2" stroke="none" transform="matrix(1 0 0 1 2652 4311 )" />
    <path d="M 3.54478015541008 10.5481656317683  C 3.54478015541008 10.5481656317683  0.0292572110965921 7.41825296230656  0.0292572110965921 7.41825296230656  C 0.0292572110965921 7.41825296230656  3.08503674765689 3.58428904032056  3.08503674765689 3.58428904032056  C 3.08503674765689 3.58428904032056  11.6535862739938 0.270518335679494  11.6535862739938 0.270518335679494  C 11.6535862739938 0.270518335679494  11.3067140022758 3.25118154129011  11.3067140022758 3.25118154129011  C 11.3067140022758 3.25118154129011  10.8552294581355 8.68362885148053  10.8552294581355 8.68362885148053  C 10.8552294581355 8.68362885148053  7.16627037796343 8.4911186734697  7.16627037796343 8.4911186734697  C 7.16627037796343 8.4911186734697  3.54478015541008 10.5481656317683  3.54478015541008 10.5481656317683  Z " stroke-width="2" stroke="#505050" fill="none" stroke-opacity="0.211764705882353" transform="matrix(1 0 0 1 2652 4311 )" mask="url(#clip53)" />
  </g>
</svg>