<?xml version="1.0" encoding="utf-8"?>
<svg version="1.1" xmlns:xlink="http://www.w3.org/1999/xlink" width="90px" height="80px" xmlns="http://www.w3.org/2000/svg">
  <defs>
    <mask fill="white" id="clip54">
      <path d="M 52.0196715197476 75.1126302316734  C 52.0196715197476 75.1126302316734  50.876914472981 73.8232464337733  50.876914472981 73.8232464337733  C 50.876914472981 73.8232464337733  40.9549208508736 73.5749799882148  40.9549208508736 73.5749799882148  C 40.9549208508736 73.5749799882148  38.1915725054841 78.4301907178855  38.1915725054841 78.4301907178855  C 38.1915725054841 78.4301907178855  34.0225318636296 74.0695107305774  34.0225318636296 74.0695107305774  C 34.0225318636296 74.0695107305774  24.746479641092 72.6039378422809  24.746479641092 72.6039378422809  C 24.746479641092 72.6039378422809  18.8405494170943 78.0537867520384  18.8405494170943 78.0537867520384  C 18.8405494170943 78.0537867520384  13.7259531657466 78.8846784851574  13.7259531657466 78.8846784851574  C 13.7259531657466 78.8846784851574  10.9499637025834 70.5757611539692  10.9499637025834 70.5757611539692  C 10.9499637025834 70.5757611539692  7.13993080550961 63.8725671238925  7.13993080550961 63.8725671238925  C 7.13993080550961 63.8725671238925  9.37235220439229 58.1304044959774  9.37235220439229 58.1304044959774  C 9.37235220439229 58.1304044959774  5.65333535529079 55.6277185528485  5.65333535529079 55.6277185528485  C 5.65333535529079 55.6277185528485  4.70777974579809 51.3791588957925  4.70777974579809 51.3791588957925  C 4.70777974579809 51.3791588957925  1.23400058151166 47.3908785768224  1.23400058151166 47.3908785768224  C 1.23400058151166 47.3908785768224  5.70389982638677 41.092118595155  5.70389982638677 41.092118595155  C 5.70389982638677 41.092118595155  2.65486221930568 34.7583366258854  2.65486221930568 34.7583366258854  C 2.65486221930568 34.7583366258854  4.28050996503787 32.8122480365081  4.28050996503787 32.8122480365081  C 4.28050996503787 32.8122480365081  3.01134174053157 30.6699488691897  3.01134174053157 30.6699488691897  C 3.01134174053157 30.6699488691897  5.7822747565853 27.7868546627052  5.7822747565853 27.7868546627052  C 5.7822747565853 27.7868546627052  5.91879882854421 22.8956052554541  5.91879882854421 22.8956052554541  C 5.91879882854421 22.8956052554541  6.27022190266057 18.8672819613937  6.27022190266057 18.8672819613937  C 6.27022190266057 18.8672819613937  7.79221248264613 16.931204115789  7.79221248264613 16.931204115789  C 7.79221248264613 16.931204115789  1.66379858582675 7.76136282016424  1.66379858582675 7.76136282016424  C 1.66379858582675 7.76136282016424  6.93514469757124 8.24187852124504  6.93514469757124 8.24187852124504  C 6.93514469757124 8.24187852124504  10.5858995106933 8.11774529846596  10.5858995106933 8.11774529846596  C 10.5858995106933 8.11774529846596  12.1660392324392 6.39990166710215  12.1660392324392 6.39990166710215  C 12.1660392324392 6.39990166710215  18.3652433887929 4.10143489693258  18.3652433887929 4.10143489693258  C 18.3652433887929 4.10143489693258  22.0994295792231 1.97315077089562  22.0994295792231 1.97315077089562  C 22.0994295792231 1.97315077089562  31.3754818017606 1.01612366624315  31.3754818017606 1.01612366624315  C 31.3754818017606 1.01612366624315  30.6195429588775 5.2606790257897  30.6195429588775 5.2606790257897  C 30.6195429588775 5.2606790257897  31.4917800852812 7.44302116819844  31.4917800852812 7.44302116819844  C 31.4917800852812 7.44302116819844  30.9229297854527 11.2551123967724  30.9229297854527 11.2551123967724  C 30.9229297854527 11.2551123967724  38.6188422862443 16.3645960182644  38.6188422862443 16.3645960182644  C 38.6188422862443 16.3645960182644  48.3941989421737 17.3076080816354  48.3941989421737 17.3076080816354  C 48.3941989421737 17.3076080816354  51.1853577466657 19.4439008026903  51.1853577466657 19.4439008026903  C 51.1853577466657 19.4439008026903  55.9763413829996 20.5791191464936  55.9763413829996 20.5791191464936  C 55.9763413829996 20.5791191464936  58.9090807065601 22.2449069102404  58.9090807065601 22.2449069102404  C 58.9090807065601 22.2449069102404  63.3688670572161 22.1868445963598  63.3688670572161 22.1868445963598  C 63.3688670572161 22.1868445963598  67.4873432279747 23.8886710376874  67.4873432279747 23.8886710376874  C 67.4873432279747 23.8886710376874  67.7983147252143 27.2142401189174  67.7983147252143 27.2142401189174  C 67.7983147252143 27.2142401189174  69.1812530096865 28.8960450727  69.1812530096865 28.8960450727  C 69.1812530096865 28.8960450727  69.272269057659 31.3847159745475  69.272269057659 31.3847159745475  C 69.272269057659 31.3847159745475  67.2067104133927 31.4808191147637  67.2067104133927 31.4808191147637  C 67.2067104133927 31.4808191147637  69.9321354054601 38.2280604174395  69.9321354054601 38.2280604174395  C 69.9321354054601 38.2280604174395  83.5213370124756 38.4683182679797  83.5213370124756 38.4683182679797  C 83.5213370124756 38.4683182679797  82.4822371314553 43.284471481336  82.4822371314553 43.284471481336  C 82.4822371314553 43.284471481336  83.2407041978935 45.5889446977695  83.2407041978935 45.5889446977695  C 83.2407041978935 45.5889446977695  87.1139426838374 47.2287045277074  87.1139426838374 47.2287045277074  C 87.1139426838374 47.2287045277074  88.7876266771107 50.8746174096579  88.7876266771107 50.8746174096579  C 88.7876266771107 50.8746174096579  87.5285713468235 55.5115939250873  87.5285713468235 55.5115939250873  C 87.5285713468235 55.5115939250873  85.5868956567419 58.1003722646598  85.5868956567419 58.1003722646598  C 85.5868956567419 58.1003722646598  86.2695160165363 61.4779972135065  86.2695160165363 61.4779972135065  C 86.2695160165363 61.4779972135065  84.0522639589822 62.7053144000172  84.0522639589822 62.7053144000172  C 84.0522639589822 62.7053144000172  83.9309092283521 60.8753504384013  83.9309092283521 60.8753504384013  C 83.9309092283521 60.8753504384013  77.3271893032314 57.8440972240833  77.3271893032314 57.8440972240833  C 77.3271893032314 57.8440972240833  70.7436951665488 57.7620091251487  70.7436951665488 57.7620091251487  C 70.7436951665488 57.7620091251487  58.3907948778274 59.4838570540216  58.3907948778274 59.4838570540216  C 58.3907948778274 59.4838570540216  54.9903341966302 64.7114674520295  54.9903341966302 64.7114674520295  C 54.9903341966302 64.7114674520295  54.8133585477946 67.9229140542524  54.8133585477946 67.9229140542524  C 54.8133585477946 67.9229140542524  52.0196715197476 75.1126302316734  52.0196715197476 75.1126302316734  Z " fill-rule="evenodd" />
    </mask>
  </defs>
  <g transform="matrix(1 0 0 1 -1343 -4395 )">
    <path d="M 52.0196715197476 75.1126302316734  C 52.0196715197476 75.1126302316734  50.876914472981 73.8232464337733  50.876914472981 73.8232464337733  C 50.876914472981 73.8232464337733  40.9549208508736 73.5749799882148  40.9549208508736 73.5749799882148  C 40.9549208508736 73.5749799882148  38.1915725054841 78.4301907178855  38.1915725054841 78.4301907178855  C 38.1915725054841 78.4301907178855  34.0225318636296 74.0695107305774  34.0225318636296 74.0695107305774  C 34.0225318636296 74.0695107305774  24.746479641092 72.6039378422809  24.746479641092 72.6039378422809  C 24.746479641092 72.6039378422809  18.8405494170943 78.0537867520384  18.8405494170943 78.0537867520384  C 18.8405494170943 78.0537867520384  13.7259531657466 78.8846784851574  13.7259531657466 78.8846784851574  C 13.7259531657466 78.8846784851574  10.9499637025834 70.5757611539692  10.9499637025834 70.5757611539692  C 10.9499637025834 70.5757611539692  7.13993080550961 63.8725671238925  7.13993080550961 63.8725671238925  C 7.13993080550961 63.8725671238925  9.37235220439229 58.1304044959774  9.37235220439229 58.1304044959774  C 9.37235220439229 58.1304044959774  5.65333535529079 55.6277185528485  5.65333535529079 55.6277185528485  C 5.65333535529079 55.6277185528485  4.70777974579809 51.3791588957925  4.70777974579809 51.3791588957925  C 4.70777974579809 51.3791588957925  1.23400058151166 47.3908785768224  1.23400058151166 47.3908785768224  C 1.23400058151166 47.3908785768224  5.70389982638677 41.092118595155  5.70389982638677 41.092118595155  C 5.70389982638677 41.092118595155  2.65486221930568 34.7583366258854  2.65486221930568 34.7583366258854  C 2.65486221930568 34.7583366258854  4.28050996503787 32.8122480365081  4.28050996503787 32.8122480365081  C 4.28050996503787 32.8122480365081  3.01134174053157 30.6699488691897  3.01134174053157 30.6699488691897  C 3.01134174053157 30.6699488691897  5.7822747565853 27.7868546627052  5.7822747565853 27.7868546627052  C 5.7822747565853 27.7868546627052  5.91879882854421 22.8956052554541  5.91879882854421 22.8956052554541  C 5.91879882854421 22.8956052554541  6.27022190266057 18.8672819613937  6.27022190266057 18.8672819613937  C 6.27022190266057 18.8672819613937  7.79221248264613 16.931204115789  7.79221248264613 16.931204115789  C 7.79221248264613 16.931204115789  1.66379858582675 7.76136282016424  1.66379858582675 7.76136282016424  C 1.66379858582675 7.76136282016424  6.93514469757124 8.24187852124504  6.93514469757124 8.24187852124504  C 6.93514469757124 8.24187852124504  10.5858995106933 8.11774529846596  10.5858995106933 8.11774529846596  C 10.5858995106933 8.11774529846596  12.1660392324392 6.39990166710215  12.1660392324392 6.39990166710215  C 12.1660392324392 6.39990166710215  18.3652433887929 4.10143489693258  18.3652433887929 4.10143489693258  C 18.3652433887929 4.10143489693258  22.0994295792231 1.97315077089562  22.0994295792231 1.97315077089562  C 22.0994295792231 1.97315077089562  31.3754818017606 1.01612366624315  31.3754818017606 1.01612366624315  C 31.3754818017606 1.01612366624315  30.6195429588775 5.2606790257897  30.6195429588775 5.2606790257897  C 30.6195429588775 5.2606790257897  31.4917800852812 7.44302116819844  31.4917800852812 7.44302116819844  C 31.4917800852812 7.44302116819844  30.9229297854527 11.2551123967724  30.9229297854527 11.2551123967724  C 30.9229297854527 11.2551123967724  38.6188422862443 16.3645960182644  38.6188422862443 16.3645960182644  C 38.6188422862443 16.3645960182644  48.3941989421737 17.3076080816354  48.3941989421737 17.3076080816354  C 48.3941989421737 17.3076080816354  51.1853577466657 19.4439008026903  51.1853577466657 19.4439008026903  C 51.1853577466657 19.4439008026903  55.9763413829996 20.5791191464936  55.9763413829996 20.5791191464936  C 55.9763413829996 20.5791191464936  58.9090807065601 22.2449069102404  58.9090807065601 22.2449069102404  C 58.9090807065601 22.2449069102404  63.3688670572161 22.1868445963598  63.3688670572161 22.1868445963598  C 63.3688670572161 22.1868445963598  67.4873432279747 23.8886710376874  67.4873432279747 23.8886710376874  C 67.4873432279747 23.8886710376874  67.7983147252143 27.2142401189174  67.7983147252143 27.2142401189174  C 67.7983147252143 27.2142401189174  69.1812530096865 28.8960450727  69.1812530096865 28.8960450727  C 69.1812530096865 28.8960450727  69.272269057659 31.3847159745475  69.272269057659 31.3847159745475  C 69.272269057659 31.3847159745475  67.2067104133927 31.4808191147637  67.2067104133927 31.4808191147637  C 67.2067104133927 31.4808191147637  69.9321354054601 38.2280604174395  69.9321354054601 38.2280604174395  C 69.9321354054601 38.2280604174395  83.5213370124756 38.4683182679797  83.5213370124756 38.4683182679797  C 83.5213370124756 38.4683182679797  82.4822371314553 43.284471481336  82.4822371314553 43.284471481336  C 82.4822371314553 43.284471481336  83.2407041978935 45.5889446977695  83.2407041978935 45.5889446977695  C 83.2407041978935 45.5889446977695  87.1139426838374 47.2287045277074  87.1139426838374 47.2287045277074  C 87.1139426838374 47.2287045277074  88.7876266771107 50.8746174096579  88.7876266771107 50.8746174096579  C 88.7876266771107 50.8746174096579  87.5285713468235 55.5115939250873  87.5285713468235 55.5115939250873  C 87.5285713468235 55.5115939250873  85.5868956567419 58.1003722646598  85.5868956567419 58.1003722646598  C 85.5868956567419 58.1003722646598  86.2695160165363 61.4779972135065  86.2695160165363 61.4779972135065  C 86.2695160165363 61.4779972135065  84.0522639589822 62.7053144000172  84.0522639589822 62.7053144000172  C 84.0522639589822 62.7053144000172  83.9309092283521 60.8753504384013  83.9309092283521 60.8753504384013  C 83.9309092283521 60.8753504384013  77.3271893032314 57.8440972240833  77.3271893032314 57.8440972240833  C 77.3271893032314 57.8440972240833  70.7436951665488 57.7620091251487  70.7436951665488 57.7620091251487  C 70.7436951665488 57.7620091251487  58.3907948778274 59.4838570540216  58.3907948778274 59.4838570540216  C 58.3907948778274 59.4838570540216  54.9903341966302 64.7114674520295  54.9903341966302 64.7114674520295  C 54.9903341966302 64.7114674520295  54.8133585477946 67.9229140542524  54.8133585477946 67.9229140542524  C 54.8133585477946 67.9229140542524  52.0196715197476 75.1126302316734  52.0196715197476 75.1126302316734  Z " fill-rule="nonzero" fill="#f2f2f2" stroke="none" transform="matrix(1 0 0 1 1343 4395 )" />
    <path d="M 52.0196715197476 75.1126302316734  C 52.0196715197476 75.1126302316734  50.876914472981 73.8232464337733  50.876914472981 73.8232464337733  C 50.876914472981 73.8232464337733  40.9549208508736 73.5749799882148  40.9549208508736 73.5749799882148  C 40.9549208508736 73.5749799882148  38.1915725054841 78.4301907178855  38.1915725054841 78.4301907178855  C 38.1915725054841 78.4301907178855  34.0225318636296 74.0695107305774  34.0225318636296 74.0695107305774  C 34.0225318636296 74.0695107305774  24.746479641092 72.6039378422809  24.746479641092 72.6039378422809  C 24.746479641092 72.6039378422809  18.8405494170943 78.0537867520384  18.8405494170943 78.0537867520384  C 18.8405494170943 78.0537867520384  13.7259531657466 78.8846784851574  13.7259531657466 78.8846784851574  C 13.7259531657466 78.8846784851574  10.9499637025834 70.5757611539692  10.9499637025834 70.5757611539692  C 10.9499637025834 70.5757611539692  7.13993080550961 63.8725671238925  7.13993080550961 63.8725671238925  C 7.13993080550961 63.8725671238925  9.37235220439229 58.1304044959774  9.37235220439229 58.1304044959774  C 9.37235220439229 58.1304044959774  5.65333535529079 55.6277185528485  5.65333535529079 55.6277185528485  C 5.65333535529079 55.6277185528485  4.70777974579809 51.3791588957925  4.70777974579809 51.3791588957925  C 4.70777974579809 51.3791588957925  1.23400058151166 47.3908785768224  1.23400058151166 47.3908785768224  C 1.23400058151166 47.3908785768224  5.70389982638677 41.092118595155  5.70389982638677 41.092118595155  C 5.70389982638677 41.092118595155  2.65486221930568 34.7583366258854  2.65486221930568 34.7583366258854  C 2.65486221930568 34.7583366258854  4.28050996503787 32.8122480365081  4.28050996503787 32.8122480365081  C 4.28050996503787 32.8122480365081  3.01134174053157 30.6699488691897  3.01134174053157 30.6699488691897  C 3.01134174053157 30.6699488691897  5.7822747565853 27.7868546627052  5.7822747565853 27.7868546627052  C 5.7822747565853 27.7868546627052  5.91879882854421 22.8956052554541  5.91879882854421 22.8956052554541  C 5.91879882854421 22.8956052554541  6.27022190266057 18.8672819613937  6.27022190266057 18.8672819613937  C 6.27022190266057 18.8672819613937  7.79221248264613 16.931204115789  7.79221248264613 16.931204115789  C 7.79221248264613 16.931204115789  1.66379858582675 7.76136282016424  1.66379858582675 7.76136282016424  C 1.66379858582675 7.76136282016424  6.93514469757124 8.24187852124504  6.93514469757124 8.24187852124504  C 6.93514469757124 8.24187852124504  10.5858995106933 8.11774529846596  10.5858995106933 8.11774529846596  C 10.5858995106933 8.11774529846596  12.1660392324392 6.39990166710215  12.1660392324392 6.39990166710215  C 12.1660392324392 6.39990166710215  18.3652433887929 4.10143489693258  18.3652433887929 4.10143489693258  C 18.3652433887929 4.10143489693258  22.0994295792231 1.97315077089562  22.0994295792231 1.97315077089562  C 22.0994295792231 1.97315077089562  31.3754818017606 1.01612366624315  31.3754818017606 1.01612366624315  C 31.3754818017606 1.01612366624315  30.6195429588775 5.2606790257897  30.6195429588775 5.2606790257897  C 30.6195429588775 5.2606790257897  31.4917800852812 7.44302116819844  31.4917800852812 7.44302116819844  C 31.4917800852812 7.44302116819844  30.9229297854527 11.2551123967724  30.9229297854527 11.2551123967724  C 30.9229297854527 11.2551123967724  38.6188422862443 16.3645960182644  38.6188422862443 16.3645960182644  C 38.6188422862443 16.3645960182644  48.3941989421737 17.3076080816354  48.3941989421737 17.3076080816354  C 48.3941989421737 17.3076080816354  51.1853577466657 19.4439008026903  51.1853577466657 19.4439008026903  C 51.1853577466657 19.4439008026903  55.9763413829996 20.5791191464936  55.9763413829996 20.5791191464936  C 55.9763413829996 20.5791191464936  58.9090807065601 22.2449069102404  58.9090807065601 22.2449069102404  C 58.9090807065601 22.2449069102404  63.3688670572161 22.1868445963598  63.3688670572161 22.1868445963598  C 63.3688670572161 22.1868445963598  67.4873432279747 23.8886710376874  67.4873432279747 23.8886710376874  C 67.4873432279747 23.8886710376874  67.7983147252143 27.2142401189174  67.7983147252143 27.2142401189174  C 67.7983147252143 27.2142401189174  69.1812530096865 28.8960450727  69.1812530096865 28.8960450727  C 69.1812530096865 28.8960450727  69.272269057659 31.3847159745475  69.272269057659 31.3847159745475  C 69.272269057659 31.3847159745475  67.2067104133927 31.4808191147637  67.2067104133927 31.4808191147637  C 67.2067104133927 31.4808191147637  69.9321354054601 38.2280604174395  69.9321354054601 38.2280604174395  C 69.9321354054601 38.2280604174395  83.5213370124756 38.4683182679797  83.5213370124756 38.4683182679797  C 83.5213370124756 38.4683182679797  82.4822371314553 43.284471481336  82.4822371314553 43.284471481336  C 82.4822371314553 43.284471481336  83.2407041978935 45.5889446977695  83.2407041978935 45.5889446977695  C 83.2407041978935 45.5889446977695  87.1139426838374 47.2287045277074  87.1139426838374 47.2287045277074  C 87.1139426838374 47.2287045277074  88.7876266771107 50.8746174096579  88.7876266771107 50.8746174096579  C 88.7876266771107 50.8746174096579  87.5285713468235 55.5115939250873  87.5285713468235 55.5115939250873  C 87.5285713468235 55.5115939250873  85.5868956567419 58.1003722646598  85.5868956567419 58.1003722646598  C 85.5868956567419 58.1003722646598  86.2695160165363 61.4779972135065  86.2695160165363 61.4779972135065  C 86.2695160165363 61.4779972135065  84.0522639589822 62.7053144000172  84.0522639589822 62.7053144000172  C 84.0522639589822 62.7053144000172  83.9309092283521 60.8753504384013  83.9309092283521 60.8753504384013  C 83.9309092283521 60.8753504384013  77.3271893032314 57.8440972240833  77.3271893032314 57.8440972240833  C 77.3271893032314 57.8440972240833  70.7436951665488 57.7620091251487  70.7436951665488 57.7620091251487  C 70.7436951665488 57.7620091251487  58.3907948778274 59.4838570540216  58.3907948778274 59.4838570540216  C 58.3907948778274 59.4838570540216  54.9903341966302 64.7114674520295  54.9903341966302 64.7114674520295  C 54.9903341966302 64.7114674520295  54.8133585477946 67.9229140542524  54.8133585477946 67.9229140542524  C 54.8133585477946 67.9229140542524  52.0196715197476 75.1126302316734  52.0196715197476 75.1126302316734  Z " stroke-width="2" stroke="#505050" fill="none" stroke-opacity="0.211764705882353" transform="matrix(1 0 0 1 1343 4395 )" mask="url(#clip54)" />
  </g>
</svg>