<?xml version="1.0" encoding="utf-8"?>
<svg version="1.1" xmlns:xlink="http://www.w3.org/1999/xlink" width="284px" height="230px" xmlns="http://www.w3.org/2000/svg">
  <defs>
    <mask fill="white" id="clip55">
      <path d="M 122.369132178777 205.998150716665  C 122.369132178777 205.998150716665  117.75171236636 206.678818726048  117.75171236636 206.678818726048  C 117.75171236636 206.678818726048  127.245472728338 198.028003211454  127.245472728338 198.028003211454  C 127.245472728338 198.028003211454  135.279630895627 191.93760747634  135.279630895627 191.93760747634  C 135.279630895627 191.93760747634  140.059510778409 189.400931929745  140.059510778409 189.400931929745  C 140.059510778409 189.400931929745  147.896920155889 185.981762394242  147.896920155889 185.981762394242  C 147.896920155889 185.981762394242  148.041611156058 181.054834070514  148.041611156058 181.054834070514  C 148.041611156058 181.054834070514  144.470028046619 177.516943370584  144.470028046619 177.516943370584  C 144.470028046619 177.516943370584  139.102519426413 178.69030421234  139.102519426413 178.69030421234  C 139.102519426413 178.69030421234  140.498660656116 175.162306942779  140.498660656116 175.162306942779  C 140.498660656116 175.162306942779  143.307423168066 171.567034346709  143.307423168066 171.567034346709  C 143.307423168066 171.567034346709  143.309961606666 168.2388843706  143.309961606666 168.2388843706  C 143.309961606666 168.2388843706  138.907059654255 167.144670971796  138.907059654255 167.144670971796  C 138.907059654255 167.144670971796  136.236622247624 168.120163206173  136.236622247624 168.120163206173  C 136.236622247624 168.120163206173  133.581415472589 167.851061900138  133.581415472589 167.851061900138  C 133.581415472589 167.851061900138  132.751346050566 165.53204182166  132.751346050566 165.53204182166  C 132.751346050566 165.53204182166  132.088813576107 160.035251908682  132.088813576107 160.035251908682  C 132.088813576107 160.035251908682  130.756133311391 158.250477070127  130.756133311391 158.250477070127  C 130.756133311391 158.250477070127  125.948330604015 156.637847919991  125.948330604015 156.637847919991  C 125.948330604015 156.637847919991  123.044356846233 157.805272703525  123.044356846233 157.805272703525  C 123.044356846233 157.805272703525  115.530578591833 156.661592152876  115.530578591833 156.661592152876  C 115.530578591833 156.661592152876  116.002728171333 148.618233262935  116.002728171333 148.618233262935  C 116.002728171333 148.618233262935  113.898362572381 145.345486496892  113.898362572381 145.345486496892  C 113.898362572381 145.345486496892  116.124573224107 144.132551933661  116.124573224107 144.132551933661  C 116.124573224107 144.132551933661  115.439194802253 140.794508527183  115.439194802253 140.794508527183  C 115.439194802253 140.794508527183  117.388715646637 138.236067433778  117.388715646637 138.236067433778  C 117.388715646637 138.236067433778  118.652858069168 133.653430486888  118.652858069168 133.653430486888  C 118.652858069168 133.653430486888  116.972411716326 130.050243146523  116.972411716326 130.050243146523  C 116.972411716326 130.050243146523  113.083523781954 128.429699252092  113.083523781954 128.429699252092  C 113.083523781954 128.429699252092  112.321992202117 126.152231581164  112.321992202117 126.152231581164  C 112.321992202117 126.152231581164  113.365290466494 122.830017663277  113.365290466494 122.830017663277  C 113.365290466494 122.830017663277  99.7211829944 122.592575334422  99.7211829944 122.592575334422  C 99.7211829944 122.592575334422  96.9847461841827 114.486903265763  96.9847461841827 114.486903265763  C 96.9847461841827 114.486903265763  99.058650519941 114.391926334221  99.058650519941 114.391926334221  C 99.058650519941 114.391926334221  98.9672667303606 111.932419544504  98.9672667303606 111.932419544504  C 98.9672667303606 111.932419544504  97.5787408164562 110.270323242524  97.5787408164562 110.270323242524  C 97.5787408164562 110.270323242524  97.2665128687226 106.983725673965  97.2665128687226 106.983725673965  C 97.2665128687226 106.983725673965  93.1313963902035 105.301842511246  93.1313963902035 105.301842511246  C 93.1313963902035 105.301842511246  88.6535907007571 105.359224407386  88.6535907007571 105.359224407386  C 88.6535907007571 105.359224407386  85.709001925384 103.712957593996  85.709001925384 103.712957593996  C 85.709001925384 103.712957593996  80.8986607794084 102.591042590159  80.8986607794084 102.591042590159  C 80.8986607794084 102.591042590159  78.0962245656053 100.479784549429  78.0962245656053 100.479784549429  C 78.0962245656053 100.479784549429  70.1255273633027 99.5478234086754  70.1255273633027 99.5478234086754  C 70.1255273633027 99.5478234086754  62.3985202665483 94.4982165483728  62.3985202665483 94.4982165483728  C 62.3985202665483 94.4982165483728  62.9696689514266 90.7307982638836  62.9696689514266 90.7307982638836  C 62.9696689514266 90.7307982638836  62.0939076346132 88.5740304434562  62.0939076346132 88.5740304434562  C 62.0939076346132 88.5740304434562  62.8529007758514 84.3792159670294  62.8529007758514 84.3792159670294  C 62.8529007758514 84.3792159670294  53.5393695544349 85.3250279102992  53.5393695544349 85.3250279102992  C 53.5393695544349 85.3250279102992  49.7900957430334 87.4283712067342  49.7900957430334 87.4283712067342  C 49.7900957430334 87.4283712067342  43.565844297159 89.6999028194408  43.565844297159 89.6999028194408  C 43.565844297159 89.6999028194408  41.979320172497 91.3976154707496  41.979320172497 91.3976154707496  C 41.979320172497 91.3976154707496  38.3138148348774 91.5202940073242  38.3138148348774 91.5202940073242  C 38.3138148348774 91.5202940073242  33.0211703550047 91.0454093496154  33.0211703550047 91.0454093496154  C 33.0211703550047 91.0454093496154  29.0053604906598 92.0110081536231  29.0053604906598 92.0110081536231  C 29.0053604906598 92.0110081536231  25.7688512763491 91.365956493569  25.7688512763491 91.365956493569  C 25.7688512763491 91.365956493569  26.243539294448 82.8576063762877  26.243539294448 82.8576063762877  C 26.243539294448 82.8576063762877  20.4051305156913 86.1540973752157  20.4051305156913 86.1540973752157  C 20.4051305156913 86.1540973752157  14.1224949820293 86.0096532918293  14.1224949820293 86.0096532918293  C 14.1224949820293 86.0096532918293  11.4317500666023 83.0257946925593  11.4317500666023 83.0257946925593  C 11.4317500666023 83.0257946925593  6.70771583300824 82.7012901764584  6.70771583300824 82.7012901764584  C 6.70771583300824 82.7012901764584  8.21300992248784 80.3031226550295  8.21300992248784 80.3031226550295  C 8.21300992248784 80.3031226550295  4.25812258453 76.9116547245596  4.25812258453 76.9116547245596  C 4.25812258453 76.9116547245596  1.29576473896076 71.8996428996586  1.29576473896076 71.8996428996586  C 1.29576473896076 71.8996428996586  3.17167086396141 70.8825982577326  3.17167086396141 70.8825982577326  C 3.17167086396141 70.8825982577326  3.16659398676254 68.5378552602957  3.16659398676254 68.5378552602957  C 3.16659398676254 68.5378552602957  7.46670897424668 66.9351195405287  7.46670897424668 66.9351195405287  C 7.46670897424668 66.9351195405287  6.75848460499754 63.9354314526686  6.75848460499754 63.9354314526686  C 6.75848460499754 63.9354314526686  8.57346820361095 62.0081912168007  8.57346820361095 62.0081912168007  C 8.57346820361095 62.0081912168007  9.0913096779008 59.4240272044356  9.0913096779008 59.4240272044356  C 9.0913096779008 59.4240272044356  17.2295438277676 55.6605662920938  17.2295438277676 55.6605662920938  C 17.2295438277676 55.6605662920938  23.0628757293254 54.5960331843968  23.0628757293254 54.5960331843968  C 23.0628757293254 54.5960331843968  24.017328642722 53.7649850334065  24.017328642722 53.7649850334065  C 24.017328642722 53.7649850334065  30.4319629835558 54.0241929090726  30.4319629835558 54.0241929090726  C 30.4319629835558 54.0241929090726  33.6303956188748 38.8931805028285  33.6303956188748 38.8931805028285  C 33.6303956188748 38.8931805028285  33.7979325664391 36.5029277256943  33.7979325664391 36.5029277256943  C 33.7979325664391 36.5029277256943  32.6835580212764 33.346923438005  32.6835580212764 33.346923438005  C 32.6835580212764 33.346923438005  29.525740403549 31.3365783870384  29.525740403549 31.3365783870384  C 29.525740403549 31.3365783870384  29.5612785439415 27.3317177736947  29.5612785439415 27.3317177736947  C 29.5612785439415 27.3317177736947  33.5720115310873 26.4235008658266  33.5720115310873 26.4235008658266  C 33.5720115310873 26.4235008658266  34.9935371467844 26.9953411411511  34.9935371467844 26.9953411411511  C 34.9935371467844 26.9953411411511  35.234688813733 24.884083100421  35.234688813733 24.884083100421  C 35.234688813733 24.884083100421  31.0640341948213 24.3142215111705  31.0640341948213 24.3142215111705  C 31.0640341948213 24.3142215111705  30.9777272824398 20.8633929984869  30.9777272824398 20.8633929984869  C 30.9777272824398 20.8633929984869  44.8426789126869 20.9880502211356  44.8426789126869 20.9880502211356  C 44.8426789126869 20.9880502211356  47.1983499329854 19.0865329042268  47.1983499329854 19.0865329042268  C 47.1983499329854 19.0865329042268  49.1757936019642 20.835691393454  49.1757936019642 20.835691393454  C 49.1757936019642 20.835691393454  50.5617810772691 24.0866726126851  50.5617810772691 24.0866726126851  C 50.5617810772691 24.0866726126851  51.9071535349826 23.4079832893764  51.9071535349826 23.4079832893764  C 51.9071535349826 23.4079832893764  55.8239642939484 26.3225878760638  55.8239642939484 26.3225878760638  C 55.8239642939484 26.3225878760638  61.35776044077 25.9664243827819  61.35776044077 25.9664243827819  C 61.35776044077 25.9664243827819  62.7361326002764 24.2786051618423  62.7361326002764 24.2786051618423  C 62.7361326002764 24.2786051618423  68.0287770801494 22.9924592138811  68.0287770801494 22.9924592138811  C 68.0287770801494 22.9924592138811  70.9606736625248 22.0881996781606  70.9606736625248 22.0881996781606  C 70.9606736625248 22.0881996781606  71.7856662073491 19.7533501110928  71.7856662073491 19.7533501110928  C 71.7856662073491 19.7533501110928  76.8701587220665 18.1842520545804  76.8701587220665 18.1842520545804  C 76.8701587220665 18.1842520545804  76.4868544935479 17.0247420153415  76.4868544935479 17.0247420153415  C 76.4868544935479 17.0247420153415  70.4555243812324 16.5518360437065  70.4555243812324 16.5518360437065  C 70.4555243812324 16.5518360437065  69.4680717660429 13.075284612064  69.4680717660429 13.075284612064  C 69.4680717660429 13.075284612064  69.7549153277817 9.37514165408335  69.7549153277817 9.37514165408335  C 69.7549153277817 9.37514165408335  66.56917488546 7.94257293666202  66.56917488546 7.94257293666202  C 66.56917488546 7.94257293666202  67.9043935887758 7.43405061569899  67.9043935887758 7.43405061569899  C 67.9043935887758 7.43405061569899  73.1741921212536 8.14044154404058  73.1741921212536 8.14044154404058  C 73.1741921212536 8.14044154404058  78.8323717594485 9.52156442354351  78.8323717594485 9.52156442354351  C 78.8323717594485 9.52156442354351  80.8859685864111 8.21563161484451  80.8859685864111 8.21563161484451  C 80.8859685864111 8.21563161484451  86.0059992415207 7.35886054489507  86.0059992415207 7.35886054489507  C 86.0059992415207 7.35886054489507  93.9665426894255 5.28915491171469  93.9665426894255 5.28915491171469  C 93.9665426894255 5.28915491171469  96.5684422538715 3.17987555705834  96.5684422538715 3.17987555705834  C 96.5684422538715 3.17987555705834  95.6266815334719 1.61869224484099  95.6266815334719 1.61869224484099  C 95.6266815334719 1.61869224484099  99.3277250114837 1.37333517169138  99.3277250114837 1.37333517169138  C 99.3277250114837 1.37333517169138  100.982786978331 2.64760900320979  100.982786978331 2.64760900320979  C 100.982786978331 2.64760900320979  100.056256889529 5.07743550181935  100.056256889529 5.07743550181935  C 100.056256889529 5.07743550181935  102.503311699407 5.91441971103097  102.503311699407 5.91441971103097  C 102.503311699407 5.91441971103097  104.13552771886 8.48275423480563  104.13552771886 8.48275423480563  C 104.13552771886 8.48275423480563  102.16316092708 10.4278026453377  102.16316092708 10.4278026453377  C 102.16316092708 10.4278026453377  101.028478873122 15.1252033845065  101.028478873122 15.1252033845065  C 101.028478873122 15.1252033845065  102.851077787533 17.9151507485452  102.851077787533 17.9151507485452  C 102.851077787533 17.9151507485452  103.366380823224 20.4676557837298  103.366380823224 20.4676557837298  C 103.366380823224 20.4676557837298  107.745187407291 23.0537984821686  107.745187407291 23.0537984821686  C 107.745187407291 23.0537984821686  111.238078920147 23.3268571603511  111.238078920147 23.3268571603511  C 111.238078920147 23.3268571603511  112.02499488598 22.2484732501375  112.02499488598 22.2484732501375  C 112.02499488598 22.2484732501375  114.2765899237 22.0090522352093  114.2765899237 22.0090522352093  C 114.2765899237 22.0090522352093  117.495330067815 21.0414747451276  117.495330067815 21.0414747451276  C 117.495330067815 21.0414747451276  119.810386070522 19.575268364452  119.810386070522 19.575268364452  C 119.810386070522 19.575268364452  123.744965899684 20.0442169639394  123.744965899684 20.0442169639394  C 123.744965899684 20.0442169639394  125.478719463115 19.8463483565609  125.478719463115 19.8463483565609  C 125.478719463115 19.8463483565609  129.34983832729 20.2974887813841  129.34983832729 20.2974887813841  C 129.34983832729 20.2974887813841  129.989524854354 19.1696377193258  129.989524854354 19.1696377193258  C 129.989524854354 19.1696377193258  128.796458712608 18.0734456344482  128.796458712608 18.0734456344482  C 128.796458712608 18.0734456344482  129.507221520457 16.4766459729029  129.507221520457 16.4766459729029  C 129.507221520457 16.4766459729029  132.378195576445 16.9673601192017  132.378195576445 16.9673601192017  C 132.378195576445 16.9673601192017  135.741626720729 16.4034345881726  135.741626720729 16.4034345881726  C 135.741626720729 16.4034345881726  139.818359111461 17.5728380577802  139.818359111461 17.5728380577802  C 139.818359111461 17.5728380577802  144.769563801355 18.7105825502075  144.769563801355 18.7105825502075  C 144.769563801355 18.7105825502075  146.972928505686 17.214695878425  146.972928505686 17.214695878425  C 146.972928505686 17.214695878425  148.564529507547 17.4442234629842  148.564529507547 17.4442234629842  C 148.564529507547 17.4442234629842  149.53675149114 18.9974920309065  149.53675149114 18.9974920309065  C 149.53675149114 18.9974920309065  152.943336091614 18.603733502223  152.943336091614 18.603733502223  C 152.943336091614 18.603733502223  155.672157586033 16.5083049500831  155.672157586033 16.5083049500831  C 155.672157586033 16.5083049500831  157.855214781568 12.4460624406  157.855214781568 12.4460624406  C 157.855214781568 12.4460624406  162.066484418071 7.39051952207565  162.066484418071 7.39051952207565  C 162.066484418071 7.39051952207565  164.490693280555 7.12933296033592  164.490693280555 7.12933296033592  C 164.490693280555 7.12933296033592  166.25236966858 10.1844242582621  166.25236966858 10.1844242582621  C 166.25236966858 10.1844242582621  170.24279514693 19.8344762401181  170.24279514693 19.8344762401181  C 170.24279514693 19.8344762401181  174.050453046119 20.74467183406  174.050453046119 20.74467183406  C 174.050453046119 20.74467183406  174.240835941079 24.5496851539511  174.240835941079 24.5496851539511  C 174.240835941079 24.5496851539511  168.889807373418 29.0868123211433  168.889807373418 29.0868123211433  C 168.889807373418 29.0868123211433  171.103325832147 30.7489086231238  171.103325832147 30.7489086231238  C 171.103325832147 30.7489086231238  183.683827531068 31.6135944373683  183.683827531068 31.6135944373683  C 183.683827531068 31.6135944373683  183.940209829613 37.13808595538  183.940209829613 37.13808595538  C 183.940209829613 37.13808595538  189.347084046462 33.5210478124984  189.347084046462 33.5210478124984  C 189.347084046462 33.5210478124984  198.302695425354 35.5017125723584  198.302695425354 35.5017125723584  C 198.302695425354 35.5017125723584  210.124203983037 38.869436269943  210.124203983037 38.869436269943  C 210.124203983037 38.869436269943  213.596787987097 42.0986519423622  213.596787987097 42.0986519423622  C 213.596787987097 42.0986519423622  212.431644669945 45.1517645542147  212.431644669945 45.1517645542147  C 212.431644669945 45.1517645542147  220.706954504183 43.4520732168323  220.706954504183 43.4520732168323  C 220.706954504183 43.4520732168323  234.559213941433 46.370635175667  234.559213941433 46.370635175667  C 234.559213941433 46.370635175667  245.192733234568 46.1549583936243  245.192733234568 46.1549583936243  C 245.192733234568 46.1549583936243  255.714561229328 50.7237445379971  255.714561229328 50.7237445379971  C 255.714561229328 50.7237445379971  264.802171415393 56.9150532628744  264.802171415393 56.9150532628744  C 264.802171415393 56.9150532628744  270.285198790225 58.5098742383464  270.285198790225 58.5098742383464  C 270.285198790225 58.5098742383464  276.372374551728 58.7334657646842  276.372374551728 58.7334657646842  C 276.372374551728 58.7334657646842  278.951428168779 60.478666881764  278.951428168779 60.478666881764  C 278.951428168779 60.478666881764  281.368021715465 67.5346614208858  281.368021715465 67.5346614208858  C 281.368021715465 67.5346614208858  282.548395664213 70.896449060249  282.548395664213 70.896449060249  C 282.548395664213 70.896449060249  279.715498187217 80.1012966755032  279.715498187217 80.1012966755032  C 279.715498187217 80.1012966755032  276.093146305788 83.7480151094914  276.093146305788 83.7480151094914  C 276.093146305788 83.7480151094914  266.061236960724 91.5440382402097  266.061236960724 91.5440382402097  C 266.061236960724 91.5440382402097  261.52758562209 97.9055139674327  261.52758562209 97.9055139674327  C 261.52758562209 97.9055139674327  256.257787089612 102.802762000054  256.257787089612 102.802762000054  C 256.257787089612 102.802762000054  254.478341631391 102.913568420186  254.478341631391 102.913568420186  C 254.478341631391 102.913568420186  252.490744208014 107.084638663728  252.490744208014 107.084638663728  C 252.490744208014 107.084638663728  252.995893489307 119.203086090026  252.995893489307 119.203086090026  C 252.995893489307 119.203086090026  251.010834504529 128.063642328442  251.010834504529 128.063642328442  C 251.010834504529 128.063642328442  250.254379801891 131.876570392628  250.254379801891 131.876570392628  C 250.254379801891 131.876570392628  248.00532320277 134.165910179999  248.00532320277 134.165910179999  C 248.00532320277 134.165910179999  246.743719218838 141.959954624644  246.743719218838 141.959954624644  C 246.743719218838 141.959954624644  239.526938280575 149.633299218787  239.526938280575 149.633299218787  C 239.526938280575 149.633299218787  238.316103068633 155.753375245008  238.316103068633 155.753375245008  C 238.316103068633 155.753375245008  232.55638588646 158.333581885226  232.55638588646 158.333581885226  C 232.55638588646 158.333581885226  230.888631726615 161.916982364853  230.888631726615 161.916982364853  C 230.888631726615 161.916982364853  223.156547752661 161.903131562336  223.156547752661 161.903131562336  C 223.156547752661 161.903131562336  211.959495090446 164.208300838298  211.959495090446 164.208300838298  C 211.959495090446 164.208300838298  206.946078856514 166.88546309613  206.946078856514 166.88546309613  C 206.946078856514 166.88546309613  198.975381654211 168.648472387874  198.975381654211 168.648472387874  C 198.975381654211 168.648472387874  190.598534275995 173.476466407913  190.598534275995 173.476466407913  C 190.598534275995 173.476466407913  184.574819479478 179.533224479773  184.574819479478 179.533224479773  C 184.574819479478 179.533224479773  183.539136530898 184.127733543105  183.539136530898 184.127733543105  C 183.539136530898 184.127733543105  184.722048918246 187.544924392534  184.722048918246 187.544924392534  C 184.722048918246 187.544924392534  183.39190709213 193.841103479322  183.39190709213 193.841103479322  C 183.39190709213 193.841103479322  181.777460142874 196.904109521543  181.777460142874 196.904109521543  C 181.777460142874 196.904109521543  176.802120487933 200.374724894965  176.802120487933 200.374724894965  C 176.802120487933 200.374724894965  168.905038005015 211.605747049776  168.905038005015 211.605747049776  C 168.905038005015 211.605747049776  162.647786857347 216.736480039104  162.647786857347 216.736480039104  C 162.647786857347 216.736480039104  157.806984448178 219.781677906661  157.806984448178 219.781677906661  C 157.806984448178 219.781677906661  154.562859918069 226.022453783383  154.562859918069 226.022453783383  C 154.562859918069 226.022453783383  149.854056316072 229.80965892861  149.854056316072 229.80965892861  C 149.854056316072 229.80965892861  147.884227962891 226.060048818785  147.884227962891 226.060048818785  C 147.884227962891 226.060048818785  151.021738071823 222.93768219435  151.021738071823 222.93768219435  C 151.021738071823 222.93768219435  146.9043906635 218.489595900479  146.9043906635 218.489595900479  C 146.9043906635 218.489595900479  139.478208339133 214.898280676556  139.478208339133 214.898280676556  C 139.478208339133 214.898280676556  132.152274541093 210.764805468417  132.152274541093 210.764805468417  C 132.152274541093 210.764805468417  129.509759959056 210.952780645426  129.509759959056 210.952780645426  C 129.509759959056 210.952780645426  122.369132178777 205.998150716665  122.369132178777 205.998150716665  Z " fill-rule="evenodd" />
    </mask>
  </defs>
  <g transform="matrix(1 0 0 1 -1312 -4311 )">
    <path d="M 122.369132178777 205.998150716665  C 122.369132178777 205.998150716665  117.75171236636 206.678818726048  117.75171236636 206.678818726048  C 117.75171236636 206.678818726048  127.245472728338 198.028003211454  127.245472728338 198.028003211454  C 127.245472728338 198.028003211454  135.279630895627 191.93760747634  135.279630895627 191.93760747634  C 135.279630895627 191.93760747634  140.059510778409 189.400931929745  140.059510778409 189.400931929745  C 140.059510778409 189.400931929745  147.896920155889 185.981762394242  147.896920155889 185.981762394242  C 147.896920155889 185.981762394242  148.041611156058 181.054834070514  148.041611156058 181.054834070514  C 148.041611156058 181.054834070514  144.470028046619 177.516943370584  144.470028046619 177.516943370584  C 144.470028046619 177.516943370584  139.102519426413 178.69030421234  139.102519426413 178.69030421234  C 139.102519426413 178.69030421234  140.498660656116 175.162306942779  140.498660656116 175.162306942779  C 140.498660656116 175.162306942779  143.307423168066 171.567034346709  143.307423168066 171.567034346709  C 143.307423168066 171.567034346709  143.309961606666 168.2388843706  143.309961606666 168.2388843706  C 143.309961606666 168.2388843706  138.907059654255 167.144670971796  138.907059654255 167.144670971796  C 138.907059654255 167.144670971796  136.236622247624 168.120163206173  136.236622247624 168.120163206173  C 136.236622247624 168.120163206173  133.581415472589 167.851061900138  133.581415472589 167.851061900138  C 133.581415472589 167.851061900138  132.751346050566 165.53204182166  132.751346050566 165.53204182166  C 132.751346050566 165.53204182166  132.088813576107 160.035251908682  132.088813576107 160.035251908682  C 132.088813576107 160.035251908682  130.756133311391 158.250477070127  130.756133311391 158.250477070127  C 130.756133311391 158.250477070127  125.948330604015 156.637847919991  125.948330604015 156.637847919991  C 125.948330604015 156.637847919991  123.044356846233 157.805272703525  123.044356846233 157.805272703525  C 123.044356846233 157.805272703525  115.530578591833 156.661592152876  115.530578591833 156.661592152876  C 115.530578591833 156.661592152876  116.002728171333 148.618233262935  116.002728171333 148.618233262935  C 116.002728171333 148.618233262935  113.898362572381 145.345486496892  113.898362572381 145.345486496892  C 113.898362572381 145.345486496892  116.124573224107 144.132551933661  116.124573224107 144.132551933661  C 116.124573224107 144.132551933661  115.439194802253 140.794508527183  115.439194802253 140.794508527183  C 115.439194802253 140.794508527183  117.388715646637 138.236067433778  117.388715646637 138.236067433778  C 117.388715646637 138.236067433778  118.652858069168 133.653430486888  118.652858069168 133.653430486888  C 118.652858069168 133.653430486888  116.972411716326 130.050243146523  116.972411716326 130.050243146523  C 116.972411716326 130.050243146523  113.083523781954 128.429699252092  113.083523781954 128.429699252092  C 113.083523781954 128.429699252092  112.321992202117 126.152231581164  112.321992202117 126.152231581164  C 112.321992202117 126.152231581164  113.365290466494 122.830017663277  113.365290466494 122.830017663277  C 113.365290466494 122.830017663277  99.7211829944 122.592575334422  99.7211829944 122.592575334422  C 99.7211829944 122.592575334422  96.9847461841827 114.486903265763  96.9847461841827 114.486903265763  C 96.9847461841827 114.486903265763  99.058650519941 114.391926334221  99.058650519941 114.391926334221  C 99.058650519941 114.391926334221  98.9672667303606 111.932419544504  98.9672667303606 111.932419544504  C 98.9672667303606 111.932419544504  97.5787408164562 110.270323242524  97.5787408164562 110.270323242524  C 97.5787408164562 110.270323242524  97.2665128687226 106.983725673965  97.2665128687226 106.983725673965  C 97.2665128687226 106.983725673965  93.1313963902035 105.301842511246  93.1313963902035 105.301842511246  C 93.1313963902035 105.301842511246  88.6535907007571 105.359224407386  88.6535907007571 105.359224407386  C 88.6535907007571 105.359224407386  85.709001925384 103.712957593996  85.709001925384 103.712957593996  C 85.709001925384 103.712957593996  80.8986607794084 102.591042590159  80.8986607794084 102.591042590159  C 80.8986607794084 102.591042590159  78.0962245656053 100.479784549429  78.0962245656053 100.479784549429  C 78.0962245656053 100.479784549429  70.1255273633027 99.5478234086754  70.1255273633027 99.5478234086754  C 70.1255273633027 99.5478234086754  62.3985202665483 94.4982165483728  62.3985202665483 94.4982165483728  C 62.3985202665483 94.4982165483728  62.9696689514266 90.7307982638836  62.9696689514266 90.7307982638836  C 62.9696689514266 90.7307982638836  62.0939076346132 88.5740304434562  62.0939076346132 88.5740304434562  C 62.0939076346132 88.5740304434562  62.8529007758514 84.3792159670294  62.8529007758514 84.3792159670294  C 62.8529007758514 84.3792159670294  53.5393695544349 85.3250279102992  53.5393695544349 85.3250279102992  C 53.5393695544349 85.3250279102992  49.7900957430334 87.4283712067342  49.7900957430334 87.4283712067342  C 49.7900957430334 87.4283712067342  43.565844297159 89.6999028194408  43.565844297159 89.6999028194408  C 43.565844297159 89.6999028194408  41.979320172497 91.3976154707496  41.979320172497 91.3976154707496  C 41.979320172497 91.3976154707496  38.3138148348774 91.5202940073242  38.3138148348774 91.5202940073242  C 38.3138148348774 91.5202940073242  33.0211703550047 91.0454093496154  33.0211703550047 91.0454093496154  C 33.0211703550047 91.0454093496154  29.0053604906598 92.0110081536231  29.0053604906598 92.0110081536231  C 29.0053604906598 92.0110081536231  25.7688512763491 91.365956493569  25.7688512763491 91.365956493569  C 25.7688512763491 91.365956493569  26.243539294448 82.8576063762877  26.243539294448 82.8576063762877  C 26.243539294448 82.8576063762877  20.4051305156913 86.1540973752157  20.4051305156913 86.1540973752157  C 20.4051305156913 86.1540973752157  14.1224949820293 86.0096532918293  14.1224949820293 86.0096532918293  C 14.1224949820293 86.0096532918293  11.4317500666023 83.0257946925593  11.4317500666023 83.0257946925593  C 11.4317500666023 83.0257946925593  6.70771583300824 82.7012901764584  6.70771583300824 82.7012901764584  C 6.70771583300824 82.7012901764584  8.21300992248784 80.3031226550295  8.21300992248784 80.3031226550295  C 8.21300992248784 80.3031226550295  4.25812258453 76.9116547245596  4.25812258453 76.9116547245596  C 4.25812258453 76.9116547245596  1.29576473896076 71.8996428996586  1.29576473896076 71.8996428996586  C 1.29576473896076 71.8996428996586  3.17167086396141 70.8825982577326  3.17167086396141 70.8825982577326  C 3.17167086396141 70.8825982577326  3.16659398676254 68.5378552602957  3.16659398676254 68.5378552602957  C 3.16659398676254 68.5378552602957  7.46670897424668 66.9351195405287  7.46670897424668 66.9351195405287  C 7.46670897424668 66.9351195405287  6.75848460499754 63.9354314526686  6.75848460499754 63.9354314526686  C 6.75848460499754 63.9354314526686  8.57346820361095 62.0081912168007  8.57346820361095 62.0081912168007  C 8.57346820361095 62.0081912168007  9.0913096779008 59.4240272044356  9.0913096779008 59.4240272044356  C 9.0913096779008 59.4240272044356  17.2295438277676 55.6605662920938  17.2295438277676 55.6605662920938  C 17.2295438277676 55.6605662920938  23.0628757293254 54.5960331843968  23.0628757293254 54.5960331843968  C 23.0628757293254 54.5960331843968  24.017328642722 53.7649850334065  24.017328642722 53.7649850334065  C 24.017328642722 53.7649850334065  30.4319629835558 54.0241929090726  30.4319629835558 54.0241929090726  C 30.4319629835558 54.0241929090726  33.6303956188748 38.8931805028285  33.6303956188748 38.8931805028285  C 33.6303956188748 38.8931805028285  33.7979325664391 36.5029277256943  33.7979325664391 36.5029277256943  C 33.7979325664391 36.5029277256943  32.6835580212764 33.346923438005  32.6835580212764 33.346923438005  C 32.6835580212764 33.346923438005  29.525740403549 31.3365783870384  29.525740403549 31.3365783870384  C 29.525740403549 31.3365783870384  29.5612785439415 27.3317177736947  29.5612785439415 27.3317177736947  C 29.5612785439415 27.3317177736947  33.5720115310873 26.4235008658266  33.5720115310873 26.4235008658266  C 33.5720115310873 26.4235008658266  34.9935371467844 26.9953411411511  34.9935371467844 26.9953411411511  C 34.9935371467844 26.9953411411511  35.234688813733 24.884083100421  35.234688813733 24.884083100421  C 35.234688813733 24.884083100421  31.0640341948213 24.3142215111705  31.0640341948213 24.3142215111705  C 31.0640341948213 24.3142215111705  30.9777272824398 20.8633929984869  30.9777272824398 20.8633929984869  C 30.9777272824398 20.8633929984869  44.8426789126869 20.9880502211356  44.8426789126869 20.9880502211356  C 44.8426789126869 20.9880502211356  47.1983499329854 19.0865329042268  47.1983499329854 19.0865329042268  C 47.1983499329854 19.0865329042268  49.1757936019642 20.835691393454  49.1757936019642 20.835691393454  C 49.1757936019642 20.835691393454  50.5617810772691 24.0866726126851  50.5617810772691 24.0866726126851  C 50.5617810772691 24.0866726126851  51.9071535349826 23.4079832893764  51.9071535349826 23.4079832893764  C 51.9071535349826 23.4079832893764  55.8239642939484 26.3225878760638  55.8239642939484 26.3225878760638  C 55.8239642939484 26.3225878760638  61.35776044077 25.9664243827819  61.35776044077 25.9664243827819  C 61.35776044077 25.9664243827819  62.7361326002764 24.2786051618423  62.7361326002764 24.2786051618423  C 62.7361326002764 24.2786051618423  68.0287770801494 22.9924592138811  68.0287770801494 22.9924592138811  C 68.0287770801494 22.9924592138811  70.9606736625248 22.0881996781606  70.9606736625248 22.0881996781606  C 70.9606736625248 22.0881996781606  71.7856662073491 19.7533501110928  71.7856662073491 19.7533501110928  C 71.7856662073491 19.7533501110928  76.8701587220665 18.1842520545804  76.8701587220665 18.1842520545804  C 76.8701587220665 18.1842520545804  76.4868544935479 17.0247420153415  76.4868544935479 17.0247420153415  C 76.4868544935479 17.0247420153415  70.4555243812324 16.5518360437065  70.4555243812324 16.5518360437065  C 70.4555243812324 16.5518360437065  69.4680717660429 13.075284612064  69.4680717660429 13.075284612064  C 69.4680717660429 13.075284612064  69.7549153277817 9.37514165408335  69.7549153277817 9.37514165408335  C 69.7549153277817 9.37514165408335  66.56917488546 7.94257293666202  66.56917488546 7.94257293666202  C 66.56917488546 7.94257293666202  67.9043935887758 7.43405061569899  67.9043935887758 7.43405061569899  C 67.9043935887758 7.43405061569899  73.1741921212536 8.14044154404058  73.1741921212536 8.14044154404058  C 73.1741921212536 8.14044154404058  78.8323717594485 9.52156442354351  78.8323717594485 9.52156442354351  C 78.8323717594485 9.52156442354351  80.8859685864111 8.21563161484451  80.8859685864111 8.21563161484451  C 80.8859685864111 8.21563161484451  86.0059992415207 7.35886054489507  86.0059992415207 7.35886054489507  C 86.0059992415207 7.35886054489507  93.9665426894255 5.28915491171469  93.9665426894255 5.28915491171469  C 93.9665426894255 5.28915491171469  96.5684422538715 3.17987555705834  96.5684422538715 3.17987555705834  C 96.5684422538715 3.17987555705834  95.6266815334719 1.61869224484099  95.6266815334719 1.61869224484099  C 95.6266815334719 1.61869224484099  99.3277250114837 1.37333517169138  99.3277250114837 1.37333517169138  C 99.3277250114837 1.37333517169138  100.982786978331 2.64760900320979  100.982786978331 2.64760900320979  C 100.982786978331 2.64760900320979  100.056256889529 5.07743550181935  100.056256889529 5.07743550181935  C 100.056256889529 5.07743550181935  102.503311699407 5.91441971103097  102.503311699407 5.91441971103097  C 102.503311699407 5.91441971103097  104.13552771886 8.48275423480563  104.13552771886 8.48275423480563  C 104.13552771886 8.48275423480563  102.16316092708 10.4278026453377  102.16316092708 10.4278026453377  C 102.16316092708 10.4278026453377  101.028478873122 15.1252033845065  101.028478873122 15.1252033845065  C 101.028478873122 15.1252033845065  102.851077787533 17.9151507485452  102.851077787533 17.9151507485452  C 102.851077787533 17.9151507485452  103.366380823224 20.4676557837298  103.366380823224 20.4676557837298  C 103.366380823224 20.4676557837298  107.745187407291 23.0537984821686  107.745187407291 23.0537984821686  C 107.745187407291 23.0537984821686  111.238078920147 23.3268571603511  111.238078920147 23.3268571603511  C 111.238078920147 23.3268571603511  112.02499488598 22.2484732501375  112.02499488598 22.2484732501375  C 112.02499488598 22.2484732501375  114.2765899237 22.0090522352093  114.2765899237 22.0090522352093  C 114.2765899237 22.0090522352093  117.495330067815 21.0414747451276  117.495330067815 21.0414747451276  C 117.495330067815 21.0414747451276  119.810386070522 19.575268364452  119.810386070522 19.575268364452  C 119.810386070522 19.575268364452  123.744965899684 20.0442169639394  123.744965899684 20.0442169639394  C 123.744965899684 20.0442169639394  125.478719463115 19.8463483565609  125.478719463115 19.8463483565609  C 125.478719463115 19.8463483565609  129.34983832729 20.2974887813841  129.34983832729 20.2974887813841  C 129.34983832729 20.2974887813841  129.989524854354 19.1696377193258  129.989524854354 19.1696377193258  C 129.989524854354 19.1696377193258  128.796458712608 18.0734456344482  128.796458712608 18.0734456344482  C 128.796458712608 18.0734456344482  129.507221520457 16.4766459729029  129.507221520457 16.4766459729029  C 129.507221520457 16.4766459729029  132.378195576445 16.9673601192017  132.378195576445 16.9673601192017  C 132.378195576445 16.9673601192017  135.741626720729 16.4034345881726  135.741626720729 16.4034345881726  C 135.741626720729 16.4034345881726  139.818359111461 17.5728380577802  139.818359111461 17.5728380577802  C 139.818359111461 17.5728380577802  144.769563801355 18.7105825502075  144.769563801355 18.7105825502075  C 144.769563801355 18.7105825502075  146.972928505686 17.214695878425  146.972928505686 17.214695878425  C 146.972928505686 17.214695878425  148.564529507547 17.4442234629842  148.564529507547 17.4442234629842  C 148.564529507547 17.4442234629842  149.53675149114 18.9974920309065  149.53675149114 18.9974920309065  C 149.53675149114 18.9974920309065  152.943336091614 18.603733502223  152.943336091614 18.603733502223  C 152.943336091614 18.603733502223  155.672157586033 16.5083049500831  155.672157586033 16.5083049500831  C 155.672157586033 16.5083049500831  157.855214781568 12.4460624406  157.855214781568 12.4460624406  C 157.855214781568 12.4460624406  162.066484418071 7.39051952207565  162.066484418071 7.39051952207565  C 162.066484418071 7.39051952207565  164.490693280555 7.12933296033592  164.490693280555 7.12933296033592  C 164.490693280555 7.12933296033592  166.25236966858 10.1844242582621  166.25236966858 10.1844242582621  C 166.25236966858 10.1844242582621  170.24279514693 19.8344762401181  170.24279514693 19.8344762401181  C 170.24279514693 19.8344762401181  174.050453046119 20.74467183406  174.050453046119 20.74467183406  C 174.050453046119 20.74467183406  174.240835941079 24.5496851539511  174.240835941079 24.5496851539511  C 174.240835941079 24.5496851539511  168.889807373418 29.0868123211433  168.889807373418 29.0868123211433  C 168.889807373418 29.0868123211433  171.103325832147 30.7489086231238  171.103325832147 30.7489086231238  C 171.103325832147 30.7489086231238  183.683827531068 31.6135944373683  183.683827531068 31.6135944373683  C 183.683827531068 31.6135944373683  183.940209829613 37.13808595538  183.940209829613 37.13808595538  C 183.940209829613 37.13808595538  189.347084046462 33.5210478124984  189.347084046462 33.5210478124984  C 189.347084046462 33.5210478124984  198.302695425354 35.5017125723584  198.302695425354 35.5017125723584  C 198.302695425354 35.5017125723584  210.124203983037 38.869436269943  210.124203983037 38.869436269943  C 210.124203983037 38.869436269943  213.596787987097 42.0986519423622  213.596787987097 42.0986519423622  C 213.596787987097 42.0986519423622  212.431644669945 45.1517645542147  212.431644669945 45.1517645542147  C 212.431644669945 45.1517645542147  220.706954504183 43.4520732168323  220.706954504183 43.4520732168323  C 220.706954504183 43.4520732168323  234.559213941433 46.370635175667  234.559213941433 46.370635175667  C 234.559213941433 46.370635175667  245.192733234568 46.1549583936243  245.192733234568 46.1549583936243  C 245.192733234568 46.1549583936243  255.714561229328 50.7237445379971  255.714561229328 50.7237445379971  C 255.714561229328 50.7237445379971  264.802171415393 56.9150532628744  264.802171415393 56.9150532628744  C 264.802171415393 56.9150532628744  270.285198790225 58.5098742383464  270.285198790225 58.5098742383464  C 270.285198790225 58.5098742383464  276.372374551728 58.7334657646842  276.372374551728 58.7334657646842  C 276.372374551728 58.7334657646842  278.951428168779 60.478666881764  278.951428168779 60.478666881764  C 278.951428168779 60.478666881764  281.368021715465 67.5346614208858  281.368021715465 67.5346614208858  C 281.368021715465 67.5346614208858  282.548395664213 70.896449060249  282.548395664213 70.896449060249  C 282.548395664213 70.896449060249  279.715498187217 80.1012966755032  279.715498187217 80.1012966755032  C 279.715498187217 80.1012966755032  276.093146305788 83.7480151094914  276.093146305788 83.7480151094914  C 276.093146305788 83.7480151094914  266.061236960724 91.5440382402097  266.061236960724 91.5440382402097  C 266.061236960724 91.5440382402097  261.52758562209 97.9055139674327  261.52758562209 97.9055139674327  C 261.52758562209 97.9055139674327  256.257787089612 102.802762000054  256.257787089612 102.802762000054  C 256.257787089612 102.802762000054  254.478341631391 102.913568420186  254.478341631391 102.913568420186  C 254.478341631391 102.913568420186  252.490744208014 107.084638663728  252.490744208014 107.084638663728  C 252.490744208014 107.084638663728  252.995893489307 119.203086090026  252.995893489307 119.203086090026  C 252.995893489307 119.203086090026  251.010834504529 128.063642328442  251.010834504529 128.063642328442  C 251.010834504529 128.063642328442  250.254379801891 131.876570392628  250.254379801891 131.876570392628  C 250.254379801891 131.876570392628  248.00532320277 134.165910179999  248.00532320277 134.165910179999  C 248.00532320277 134.165910179999  246.743719218838 141.959954624644  246.743719218838 141.959954624644  C 246.743719218838 141.959954624644  239.526938280575 149.633299218787  239.526938280575 149.633299218787  C 239.526938280575 149.633299218787  238.316103068633 155.753375245008  238.316103068633 155.753375245008  C 238.316103068633 155.753375245008  232.55638588646 158.333581885226  232.55638588646 158.333581885226  C 232.55638588646 158.333581885226  230.888631726615 161.916982364853  230.888631726615 161.916982364853  C 230.888631726615 161.916982364853  223.156547752661 161.903131562336  223.156547752661 161.903131562336  C 223.156547752661 161.903131562336  211.959495090446 164.208300838298  211.959495090446 164.208300838298  C 211.959495090446 164.208300838298  206.946078856514 166.88546309613  206.946078856514 166.88546309613  C 206.946078856514 166.88546309613  198.975381654211 168.648472387874  198.975381654211 168.648472387874  C 198.975381654211 168.648472387874  190.598534275995 173.476466407913  190.598534275995 173.476466407913  C 190.598534275995 173.476466407913  184.574819479478 179.533224479773  184.574819479478 179.533224479773  C 184.574819479478 179.533224479773  183.539136530898 184.127733543105  183.539136530898 184.127733543105  C 183.539136530898 184.127733543105  184.722048918246 187.544924392534  184.722048918246 187.544924392534  C 184.722048918246 187.544924392534  183.39190709213 193.841103479322  183.39190709213 193.841103479322  C 183.39190709213 193.841103479322  181.777460142874 196.904109521543  181.777460142874 196.904109521543  C 181.777460142874 196.904109521543  176.802120487933 200.374724894965  176.802120487933 200.374724894965  C 176.802120487933 200.374724894965  168.905038005015 211.605747049776  168.905038005015 211.605747049776  C 168.905038005015 211.605747049776  162.647786857347 216.736480039104  162.647786857347 216.736480039104  C 162.647786857347 216.736480039104  157.806984448178 219.781677906661  157.806984448178 219.781677906661  C 157.806984448178 219.781677906661  154.562859918069 226.022453783383  154.562859918069 226.022453783383  C 154.562859918069 226.022453783383  149.854056316072 229.80965892861  149.854056316072 229.80965892861  C 149.854056316072 229.80965892861  147.884227962891 226.060048818785  147.884227962891 226.060048818785  C 147.884227962891 226.060048818785  151.021738071823 222.93768219435  151.021738071823 222.93768219435  C 151.021738071823 222.93768219435  146.9043906635 218.489595900479  146.9043906635 218.489595900479  C 146.9043906635 218.489595900479  139.478208339133 214.898280676556  139.478208339133 214.898280676556  C 139.478208339133 214.898280676556  132.152274541093 210.764805468417  132.152274541093 210.764805468417  C 132.152274541093 210.764805468417  129.509759959056 210.952780645426  129.509759959056 210.952780645426  C 129.509759959056 210.952780645426  122.369132178777 205.998150716665  122.369132178777 205.998150716665  Z " fill-rule="nonzero" fill="#f2f2f2" stroke="none" transform="matrix(1 0 0 1 1312 4311 )" />
    <path d="M 122.369132178777 205.998150716665  C 122.369132178777 205.998150716665  117.75171236636 206.678818726048  117.75171236636 206.678818726048  C 117.75171236636 206.678818726048  127.245472728338 198.028003211454  127.245472728338 198.028003211454  C 127.245472728338 198.028003211454  135.279630895627 191.93760747634  135.279630895627 191.93760747634  C 135.279630895627 191.93760747634  140.059510778409 189.400931929745  140.059510778409 189.400931929745  C 140.059510778409 189.400931929745  147.896920155889 185.981762394242  147.896920155889 185.981762394242  C 147.896920155889 185.981762394242  148.041611156058 181.054834070514  148.041611156058 181.054834070514  C 148.041611156058 181.054834070514  144.470028046619 177.516943370584  144.470028046619 177.516943370584  C 144.470028046619 177.516943370584  139.102519426413 178.69030421234  139.102519426413 178.69030421234  C 139.102519426413 178.69030421234  140.498660656116 175.162306942779  140.498660656116 175.162306942779  C 140.498660656116 175.162306942779  143.307423168066 171.567034346709  143.307423168066 171.567034346709  C 143.307423168066 171.567034346709  143.309961606666 168.2388843706  143.309961606666 168.2388843706  C 143.309961606666 168.2388843706  138.907059654255 167.144670971796  138.907059654255 167.144670971796  C 138.907059654255 167.144670971796  136.236622247624 168.120163206173  136.236622247624 168.120163206173  C 136.236622247624 168.120163206173  133.581415472589 167.851061900138  133.581415472589 167.851061900138  C 133.581415472589 167.851061900138  132.751346050566 165.53204182166  132.751346050566 165.53204182166  C 132.751346050566 165.53204182166  132.088813576107 160.035251908682  132.088813576107 160.035251908682  C 132.088813576107 160.035251908682  130.756133311391 158.250477070127  130.756133311391 158.250477070127  C 130.756133311391 158.250477070127  125.948330604015 156.637847919991  125.948330604015 156.637847919991  C 125.948330604015 156.637847919991  123.044356846233 157.805272703525  123.044356846233 157.805272703525  C 123.044356846233 157.805272703525  115.530578591833 156.661592152876  115.530578591833 156.661592152876  C 115.530578591833 156.661592152876  116.002728171333 148.618233262935  116.002728171333 148.618233262935  C 116.002728171333 148.618233262935  113.898362572381 145.345486496892  113.898362572381 145.345486496892  C 113.898362572381 145.345486496892  116.124573224107 144.132551933661  116.124573224107 144.132551933661  C 116.124573224107 144.132551933661  115.439194802253 140.794508527183  115.439194802253 140.794508527183  C 115.439194802253 140.794508527183  117.388715646637 138.236067433778  117.388715646637 138.236067433778  C 117.388715646637 138.236067433778  118.652858069168 133.653430486888  118.652858069168 133.653430486888  C 118.652858069168 133.653430486888  116.972411716326 130.050243146523  116.972411716326 130.050243146523  C 116.972411716326 130.050243146523  113.083523781954 128.429699252092  113.083523781954 128.429699252092  C 113.083523781954 128.429699252092  112.321992202117 126.152231581164  112.321992202117 126.152231581164  C 112.321992202117 126.152231581164  113.365290466494 122.830017663277  113.365290466494 122.830017663277  C 113.365290466494 122.830017663277  99.7211829944 122.592575334422  99.7211829944 122.592575334422  C 99.7211829944 122.592575334422  96.9847461841827 114.486903265763  96.9847461841827 114.486903265763  C 96.9847461841827 114.486903265763  99.058650519941 114.391926334221  99.058650519941 114.391926334221  C 99.058650519941 114.391926334221  98.9672667303606 111.932419544504  98.9672667303606 111.932419544504  C 98.9672667303606 111.932419544504  97.5787408164562 110.270323242524  97.5787408164562 110.270323242524  C 97.5787408164562 110.270323242524  97.2665128687226 106.983725673965  97.2665128687226 106.983725673965  C 97.2665128687226 106.983725673965  93.1313963902035 105.301842511246  93.1313963902035 105.301842511246  C 93.1313963902035 105.301842511246  88.6535907007571 105.359224407386  88.6535907007571 105.359224407386  C 88.6535907007571 105.359224407386  85.709001925384 103.712957593996  85.709001925384 103.712957593996  C 85.709001925384 103.712957593996  80.8986607794084 102.591042590159  80.8986607794084 102.591042590159  C 80.8986607794084 102.591042590159  78.0962245656053 100.479784549429  78.0962245656053 100.479784549429  C 78.0962245656053 100.479784549429  70.1255273633027 99.5478234086754  70.1255273633027 99.5478234086754  C 70.1255273633027 99.5478234086754  62.3985202665483 94.4982165483728  62.3985202665483 94.4982165483728  C 62.3985202665483 94.4982165483728  62.9696689514266 90.7307982638836  62.9696689514266 90.7307982638836  C 62.9696689514266 90.7307982638836  62.0939076346132 88.5740304434562  62.0939076346132 88.5740304434562  C 62.0939076346132 88.5740304434562  62.8529007758514 84.3792159670294  62.8529007758514 84.3792159670294  C 62.8529007758514 84.3792159670294  53.5393695544349 85.3250279102992  53.5393695544349 85.3250279102992  C 53.5393695544349 85.3250279102992  49.7900957430334 87.4283712067342  49.7900957430334 87.4283712067342  C 49.7900957430334 87.4283712067342  43.565844297159 89.6999028194408  43.565844297159 89.6999028194408  C 43.565844297159 89.6999028194408  41.979320172497 91.3976154707496  41.979320172497 91.3976154707496  C 41.979320172497 91.3976154707496  38.3138148348774 91.5202940073242  38.3138148348774 91.5202940073242  C 38.3138148348774 91.5202940073242  33.0211703550047 91.0454093496154  33.0211703550047 91.0454093496154  C 33.0211703550047 91.0454093496154  29.0053604906598 92.0110081536231  29.0053604906598 92.0110081536231  C 29.0053604906598 92.0110081536231  25.7688512763491 91.365956493569  25.7688512763491 91.365956493569  C 25.7688512763491 91.365956493569  26.243539294448 82.8576063762877  26.243539294448 82.8576063762877  C 26.243539294448 82.8576063762877  20.4051305156913 86.1540973752157  20.4051305156913 86.1540973752157  C 20.4051305156913 86.1540973752157  14.1224949820293 86.0096532918293  14.1224949820293 86.0096532918293  C 14.1224949820293 86.0096532918293  11.4317500666023 83.0257946925593  11.4317500666023 83.0257946925593  C 11.4317500666023 83.0257946925593  6.70771583300824 82.7012901764584  6.70771583300824 82.7012901764584  C 6.70771583300824 82.7012901764584  8.21300992248784 80.3031226550295  8.21300992248784 80.3031226550295  C 8.21300992248784 80.3031226550295  4.25812258453 76.9116547245596  4.25812258453 76.9116547245596  C 4.25812258453 76.9116547245596  1.29576473896076 71.8996428996586  1.29576473896076 71.8996428996586  C 1.29576473896076 71.8996428996586  3.17167086396141 70.8825982577326  3.17167086396141 70.8825982577326  C 3.17167086396141 70.8825982577326  3.16659398676254 68.5378552602957  3.16659398676254 68.5378552602957  C 3.16659398676254 68.5378552602957  7.46670897424668 66.9351195405287  7.46670897424668 66.9351195405287  C 7.46670897424668 66.9351195405287  6.75848460499754 63.9354314526686  6.75848460499754 63.9354314526686  C 6.75848460499754 63.9354314526686  8.57346820361095 62.0081912168007  8.57346820361095 62.0081912168007  C 8.57346820361095 62.0081912168007  9.0913096779008 59.4240272044356  9.0913096779008 59.4240272044356  C 9.0913096779008 59.4240272044356  17.2295438277676 55.6605662920938  17.2295438277676 55.6605662920938  C 17.2295438277676 55.6605662920938  23.0628757293254 54.5960331843968  23.0628757293254 54.5960331843968  C 23.0628757293254 54.5960331843968  24.017328642722 53.7649850334065  24.017328642722 53.7649850334065  C 24.017328642722 53.7649850334065  30.4319629835558 54.0241929090726  30.4319629835558 54.0241929090726  C 30.4319629835558 54.0241929090726  33.6303956188748 38.8931805028285  33.6303956188748 38.8931805028285  C 33.6303956188748 38.8931805028285  33.7979325664391 36.5029277256943  33.7979325664391 36.5029277256943  C 33.7979325664391 36.5029277256943  32.6835580212764 33.346923438005  32.6835580212764 33.346923438005  C 32.6835580212764 33.346923438005  29.525740403549 31.3365783870384  29.525740403549 31.3365783870384  C 29.525740403549 31.3365783870384  29.5612785439415 27.3317177736947  29.5612785439415 27.3317177736947  C 29.5612785439415 27.3317177736947  33.5720115310873 26.4235008658266  33.5720115310873 26.4235008658266  C 33.5720115310873 26.4235008658266  34.9935371467844 26.9953411411511  34.9935371467844 26.9953411411511  C 34.9935371467844 26.9953411411511  35.234688813733 24.884083100421  35.234688813733 24.884083100421  C 35.234688813733 24.884083100421  31.0640341948213 24.3142215111705  31.0640341948213 24.3142215111705  C 31.0640341948213 24.3142215111705  30.9777272824398 20.8633929984869  30.9777272824398 20.8633929984869  C 30.9777272824398 20.8633929984869  44.8426789126869 20.9880502211356  44.8426789126869 20.9880502211356  C 44.8426789126869 20.9880502211356  47.1983499329854 19.0865329042268  47.1983499329854 19.0865329042268  C 47.1983499329854 19.0865329042268  49.1757936019642 20.835691393454  49.1757936019642 20.835691393454  C 49.1757936019642 20.835691393454  50.5617810772691 24.0866726126851  50.5617810772691 24.0866726126851  C 50.5617810772691 24.0866726126851  51.9071535349826 23.4079832893764  51.9071535349826 23.4079832893764  C 51.9071535349826 23.4079832893764  55.8239642939484 26.3225878760638  55.8239642939484 26.3225878760638  C 55.8239642939484 26.3225878760638  61.35776044077 25.9664243827819  61.35776044077 25.9664243827819  C 61.35776044077 25.9664243827819  62.7361326002764 24.2786051618423  62.7361326002764 24.2786051618423  C 62.7361326002764 24.2786051618423  68.0287770801494 22.9924592138811  68.0287770801494 22.9924592138811  C 68.0287770801494 22.9924592138811  70.9606736625248 22.0881996781606  70.9606736625248 22.0881996781606  C 70.9606736625248 22.0881996781606  71.7856662073491 19.7533501110928  71.7856662073491 19.7533501110928  C 71.7856662073491 19.7533501110928  76.8701587220665 18.1842520545804  76.8701587220665 18.1842520545804  C 76.8701587220665 18.1842520545804  76.4868544935479 17.0247420153415  76.4868544935479 17.0247420153415  C 76.4868544935479 17.0247420153415  70.4555243812324 16.5518360437065  70.4555243812324 16.5518360437065  C 70.4555243812324 16.5518360437065  69.4680717660429 13.075284612064  69.4680717660429 13.075284612064  C 69.4680717660429 13.075284612064  69.7549153277817 9.37514165408335  69.7549153277817 9.37514165408335  C 69.7549153277817 9.37514165408335  66.56917488546 7.94257293666202  66.56917488546 7.94257293666202  C 66.56917488546 7.94257293666202  67.9043935887758 7.43405061569899  67.9043935887758 7.43405061569899  C 67.9043935887758 7.43405061569899  73.1741921212536 8.14044154404058  73.1741921212536 8.14044154404058  C 73.1741921212536 8.14044154404058  78.8323717594485 9.52156442354351  78.8323717594485 9.52156442354351  C 78.8323717594485 9.52156442354351  80.8859685864111 8.21563161484451  80.8859685864111 8.21563161484451  C 80.8859685864111 8.21563161484451  86.0059992415207 7.35886054489507  86.0059992415207 7.35886054489507  C 86.0059992415207 7.35886054489507  93.9665426894255 5.28915491171469  93.9665426894255 5.28915491171469  C 93.9665426894255 5.28915491171469  96.5684422538715 3.17987555705834  96.5684422538715 3.17987555705834  C 96.5684422538715 3.17987555705834  95.6266815334719 1.61869224484099  95.6266815334719 1.61869224484099  C 95.6266815334719 1.61869224484099  99.3277250114837 1.37333517169138  99.3277250114837 1.37333517169138  C 99.3277250114837 1.37333517169138  100.982786978331 2.64760900320979  100.982786978331 2.64760900320979  C 100.982786978331 2.64760900320979  100.056256889529 5.07743550181935  100.056256889529 5.07743550181935  C 100.056256889529 5.07743550181935  102.503311699407 5.91441971103097  102.503311699407 5.91441971103097  C 102.503311699407 5.91441971103097  104.13552771886 8.48275423480563  104.13552771886 8.48275423480563  C 104.13552771886 8.48275423480563  102.16316092708 10.4278026453377  102.16316092708 10.4278026453377  C 102.16316092708 10.4278026453377  101.028478873122 15.1252033845065  101.028478873122 15.1252033845065  C 101.028478873122 15.1252033845065  102.851077787533 17.9151507485452  102.851077787533 17.9151507485452  C 102.851077787533 17.9151507485452  103.366380823224 20.4676557837298  103.366380823224 20.4676557837298  C 103.366380823224 20.4676557837298  107.745187407291 23.0537984821686  107.745187407291 23.0537984821686  C 107.745187407291 23.0537984821686  111.238078920147 23.3268571603511  111.238078920147 23.3268571603511  C 111.238078920147 23.3268571603511  112.02499488598 22.2484732501375  112.02499488598 22.2484732501375  C 112.02499488598 22.2484732501375  114.2765899237 22.0090522352093  114.2765899237 22.0090522352093  C 114.2765899237 22.0090522352093  117.495330067815 21.0414747451276  117.495330067815 21.0414747451276  C 117.495330067815 21.0414747451276  119.810386070522 19.575268364452  119.810386070522 19.575268364452  C 119.810386070522 19.575268364452  123.744965899684 20.0442169639394  123.744965899684 20.0442169639394  C 123.744965899684 20.0442169639394  125.478719463115 19.8463483565609  125.478719463115 19.8463483565609  C 125.478719463115 19.8463483565609  129.34983832729 20.2974887813841  129.34983832729 20.2974887813841  C 129.34983832729 20.2974887813841  129.989524854354 19.1696377193258  129.989524854354 19.1696377193258  C 129.989524854354 19.1696377193258  128.796458712608 18.0734456344482  128.796458712608 18.0734456344482  C 128.796458712608 18.0734456344482  129.507221520457 16.4766459729029  129.507221520457 16.4766459729029  C 129.507221520457 16.4766459729029  132.378195576445 16.9673601192017  132.378195576445 16.9673601192017  C 132.378195576445 16.9673601192017  135.741626720729 16.4034345881726  135.741626720729 16.4034345881726  C 135.741626720729 16.4034345881726  139.818359111461 17.5728380577802  139.818359111461 17.5728380577802  C 139.818359111461 17.5728380577802  144.769563801355 18.7105825502075  144.769563801355 18.7105825502075  C 144.769563801355 18.7105825502075  146.972928505686 17.214695878425  146.972928505686 17.214695878425  C 146.972928505686 17.214695878425  148.564529507547 17.4442234629842  148.564529507547 17.4442234629842  C 148.564529507547 17.4442234629842  149.53675149114 18.9974920309065  149.53675149114 18.9974920309065  C 149.53675149114 18.9974920309065  152.943336091614 18.603733502223  152.943336091614 18.603733502223  C 152.943336091614 18.603733502223  155.672157586033 16.5083049500831  155.672157586033 16.5083049500831  C 155.672157586033 16.5083049500831  157.855214781568 12.4460624406  157.855214781568 12.4460624406  C 157.855214781568 12.4460624406  162.066484418071 7.39051952207565  162.066484418071 7.39051952207565  C 162.066484418071 7.39051952207565  164.490693280555 7.12933296033592  164.490693280555 7.12933296033592  C 164.490693280555 7.12933296033592  166.25236966858 10.1844242582621  166.25236966858 10.1844242582621  C 166.25236966858 10.1844242582621  170.24279514693 19.8344762401181  170.24279514693 19.8344762401181  C 170.24279514693 19.8344762401181  174.050453046119 20.74467183406  174.050453046119 20.74467183406  C 174.050453046119 20.74467183406  174.240835941079 24.5496851539511  174.240835941079 24.5496851539511  C 174.240835941079 24.5496851539511  168.889807373418 29.0868123211433  168.889807373418 29.0868123211433  C 168.889807373418 29.0868123211433  171.103325832147 30.7489086231238  171.103325832147 30.7489086231238  C 171.103325832147 30.7489086231238  183.683827531068 31.6135944373683  183.683827531068 31.6135944373683  C 183.683827531068 31.6135944373683  183.940209829613 37.13808595538  183.940209829613 37.13808595538  C 183.940209829613 37.13808595538  189.347084046462 33.5210478124984  189.347084046462 33.5210478124984  C 189.347084046462 33.5210478124984  198.302695425354 35.5017125723584  198.302695425354 35.5017125723584  C 198.302695425354 35.5017125723584  210.124203983037 38.869436269943  210.124203983037 38.869436269943  C 210.124203983037 38.869436269943  213.596787987097 42.0986519423622  213.596787987097 42.0986519423622  C 213.596787987097 42.0986519423622  212.431644669945 45.1517645542147  212.431644669945 45.1517645542147  C 212.431644669945 45.1517645542147  220.706954504183 43.4520732168323  220.706954504183 43.4520732168323  C 220.706954504183 43.4520732168323  234.559213941433 46.370635175667  234.559213941433 46.370635175667  C 234.559213941433 46.370635175667  245.192733234568 46.1549583936243  245.192733234568 46.1549583936243  C 245.192733234568 46.1549583936243  255.714561229328 50.7237445379971  255.714561229328 50.7237445379971  C 255.714561229328 50.7237445379971  264.802171415393 56.9150532628744  264.802171415393 56.9150532628744  C 264.802171415393 56.9150532628744  270.285198790225 58.5098742383464  270.285198790225 58.5098742383464  C 270.285198790225 58.5098742383464  276.372374551728 58.7334657646842  276.372374551728 58.7334657646842  C 276.372374551728 58.7334657646842  278.951428168779 60.478666881764  278.951428168779 60.478666881764  C 278.951428168779 60.478666881764  281.368021715465 67.5346614208858  281.368021715465 67.5346614208858  C 281.368021715465 67.5346614208858  282.548395664213 70.896449060249  282.548395664213 70.896449060249  C 282.548395664213 70.896449060249  279.715498187217 80.1012966755032  279.715498187217 80.1012966755032  C 279.715498187217 80.1012966755032  276.093146305788 83.7480151094914  276.093146305788 83.7480151094914  C 276.093146305788 83.7480151094914  266.061236960724 91.5440382402097  266.061236960724 91.5440382402097  C 266.061236960724 91.5440382402097  261.52758562209 97.9055139674327  261.52758562209 97.9055139674327  C 261.52758562209 97.9055139674327  256.257787089612 102.802762000054  256.257787089612 102.802762000054  C 256.257787089612 102.802762000054  254.478341631391 102.913568420186  254.478341631391 102.913568420186  C 254.478341631391 102.913568420186  252.490744208014 107.084638663728  252.490744208014 107.084638663728  C 252.490744208014 107.084638663728  252.995893489307 119.203086090026  252.995893489307 119.203086090026  C 252.995893489307 119.203086090026  251.010834504529 128.063642328442  251.010834504529 128.063642328442  C 251.010834504529 128.063642328442  250.254379801891 131.876570392628  250.254379801891 131.876570392628  C 250.254379801891 131.876570392628  248.00532320277 134.165910179999  248.00532320277 134.165910179999  C 248.00532320277 134.165910179999  246.743719218838 141.959954624644  246.743719218838 141.959954624644  C 246.743719218838 141.959954624644  239.526938280575 149.633299218787  239.526938280575 149.633299218787  C 239.526938280575 149.633299218787  238.316103068633 155.753375245008  238.316103068633 155.753375245008  C 238.316103068633 155.753375245008  232.55638588646 158.333581885226  232.55638588646 158.333581885226  C 232.55638588646 158.333581885226  230.888631726615 161.916982364853  230.888631726615 161.916982364853  C 230.888631726615 161.916982364853  223.156547752661 161.903131562336  223.156547752661 161.903131562336  C 223.156547752661 161.903131562336  211.959495090446 164.208300838298  211.959495090446 164.208300838298  C 211.959495090446 164.208300838298  206.946078856514 166.88546309613  206.946078856514 166.88546309613  C 206.946078856514 166.88546309613  198.975381654211 168.648472387874  198.975381654211 168.648472387874  C 198.975381654211 168.648472387874  190.598534275995 173.476466407913  190.598534275995 173.476466407913  C 190.598534275995 173.476466407913  184.574819479478 179.533224479773  184.574819479478 179.533224479773  C 184.574819479478 179.533224479773  183.539136530898 184.127733543105  183.539136530898 184.127733543105  C 183.539136530898 184.127733543105  184.722048918246 187.544924392534  184.722048918246 187.544924392534  C 184.722048918246 187.544924392534  183.39190709213 193.841103479322  183.39190709213 193.841103479322  C 183.39190709213 193.841103479322  181.777460142874 196.904109521543  181.777460142874 196.904109521543  C 181.777460142874 196.904109521543  176.802120487933 200.374724894965  176.802120487933 200.374724894965  C 176.802120487933 200.374724894965  168.905038005015 211.605747049776  168.905038005015 211.605747049776  C 168.905038005015 211.605747049776  162.647786857347 216.736480039104  162.647786857347 216.736480039104  C 162.647786857347 216.736480039104  157.806984448178 219.781677906661  157.806984448178 219.781677906661  C 157.806984448178 219.781677906661  154.562859918069 226.022453783383  154.562859918069 226.022453783383  C 154.562859918069 226.022453783383  149.854056316072 229.80965892861  149.854056316072 229.80965892861  C 149.854056316072 229.80965892861  147.884227962891 226.060048818785  147.884227962891 226.060048818785  C 147.884227962891 226.060048818785  151.021738071823 222.93768219435  151.021738071823 222.93768219435  C 151.021738071823 222.93768219435  146.9043906635 218.489595900479  146.9043906635 218.489595900479  C 146.9043906635 218.489595900479  139.478208339133 214.898280676556  139.478208339133 214.898280676556  C 139.478208339133 214.898280676556  132.152274541093 210.764805468417  132.152274541093 210.764805468417  C 132.152274541093 210.764805468417  129.509759959056 210.952780645426  129.509759959056 210.952780645426  C 129.509759959056 210.952780645426  122.369132178777 205.998150716665  122.369132178777 205.998150716665  Z " stroke-width="2" stroke="#505050" fill="none" stroke-opacity="0.211764705882353" transform="matrix(1 0 0 1 1312 4311 )" mask="url(#clip55)" />
  </g>
</svg>