<?xml version="1.0" encoding="utf-8"?>
<svg version="1.1" xmlns:xlink="http://www.w3.org/1999/xlink" width="18px" height="24px" xmlns="http://www.w3.org/2000/svg">
  <defs>
    <mask fill="white" id="clip56">
      <path d="M 12.5822995942597 19.2005733426647  C 12.5822995942597 19.2005733426647  12.6194644805151 22.859249922925  12.6194644805151 22.859249922925  C 12.6194644805151 22.859249922925  10.9148350309312 23.1710220242906  10.9148350309312 23.1710220242906  C 10.9148350309312 23.1710220242906  7.35074176333849 19.5412514666733  7.35074176333849 19.5412514666733  C 7.35074176333849 19.5412514666733  4.74919972545579 16.20984846064  4.74919972545579 16.20984846064  C 4.74919972545579 16.20984846064  6.26057176651143 12.1815877337282  6.26057176651143 12.1815877337282  C 6.26057176651143 12.1815877337282  10.1517160331523 12.4376125057104  10.1517160331523 12.4376125057104  C 10.1517160331523 12.4376125057104  12.5822995942597 19.2005733426647  12.5822995942597 19.2005733426647  Z M 10.43169150961 1.74238412774855  C 10.43169150961 1.74238412774855  10.637337213557 4.91686872514754  10.637337213557 4.91686872514754  C 10.637337213557 4.91686872514754  1.26561105377675 5.94716196078525  1.26561105377675 5.94716196078525  C 1.26561105377675 5.94716196078525  0.779989873372074 2.06447980862936  0.779989873372074 2.06447980862936  C 0.779989873372074 2.06447980862936  4.0455445456857 1.54830083285901  4.0455445456857 1.54830083285901  C 4.0455445456857 1.54830083285901  10.43169150961 1.74238412774855  10.43169150961 1.74238412774855  Z M 9.04298291750395 0.449871972419714  C 9.04298291750395 0.449871972419714  16.333475446978 3.35079781624893  16.333475446978 3.35079781624893  C 16.333475446978 3.35079781624893  15.1342884504683 9.41381996205894  15.1342884504683 9.41381996205894  C 15.1342884504683 9.41381996205894  13.8558163632801 8.59412774853558  13.8558163632801 8.59412774853558  C 13.8558163632801 8.59412774853558  13.9697886811303 3.73896440602834  13.9697886811303 3.73896440602834  C 13.9697886811303 3.73896440602834  9.05784887200598 1.19110498162593  9.05784887200598 1.19110498162593  C 9.05784887200598 1.19110498162593  9.04298291750395 0.449871972419714  9.04298291750395 0.449871972419714  Z " fill-rule="evenodd" />
    </mask>
  </defs>
  <g transform="matrix(1 0 0 1 -1277 -4186 )">
    <path d="M 12.5822995942597 19.2005733426647  C 12.5822995942597 19.2005733426647  12.6194644805151 22.859249922925  12.6194644805151 22.859249922925  C 12.6194644805151 22.859249922925  10.9148350309312 23.1710220242906  10.9148350309312 23.1710220242906  C 10.9148350309312 23.1710220242906  7.35074176333849 19.5412514666733  7.35074176333849 19.5412514666733  C 7.35074176333849 19.5412514666733  4.74919972545579 16.20984846064  4.74919972545579 16.20984846064  C 4.74919972545579 16.20984846064  6.26057176651143 12.1815877337282  6.26057176651143 12.1815877337282  C 6.26057176651143 12.1815877337282  10.1517160331523 12.4376125057104  10.1517160331523 12.4376125057104  C 10.1517160331523 12.4376125057104  12.5822995942597 19.2005733426647  12.5822995942597 19.2005733426647  Z M 10.43169150961 1.74238412774855  C 10.43169150961 1.74238412774855  10.637337213557 4.91686872514754  10.637337213557 4.91686872514754  C 10.637337213557 4.91686872514754  1.26561105377675 5.94716196078525  1.26561105377675 5.94716196078525  C 1.26561105377675 5.94716196078525  0.779989873372074 2.06447980862936  0.779989873372074 2.06447980862936  C 0.779989873372074 2.06447980862936  4.0455445456857 1.54830083285901  4.0455445456857 1.54830083285901  C 4.0455445456857 1.54830083285901  10.43169150961 1.74238412774855  10.43169150961 1.74238412774855  Z M 9.04298291750395 0.449871972419714  C 9.04298291750395 0.449871972419714  16.333475446978 3.35079781624893  16.333475446978 3.35079781624893  C 16.333475446978 3.35079781624893  15.1342884504683 9.41381996205894  15.1342884504683 9.41381996205894  C 15.1342884504683 9.41381996205894  13.8558163632801 8.59412774853558  13.8558163632801 8.59412774853558  C 13.8558163632801 8.59412774853558  13.9697886811303 3.73896440602834  13.9697886811303 3.73896440602834  C 13.9697886811303 3.73896440602834  9.05784887200598 1.19110498162593  9.05784887200598 1.19110498162593  C 9.05784887200598 1.19110498162593  9.04298291750395 0.449871972419714  9.04298291750395 0.449871972419714  Z " fill-rule="nonzero" fill="#f2f2f2" stroke="none" transform="matrix(1 0 0 1 1277 4186 )" />
    <path d="M 12.5822995942597 19.2005733426647  C 12.5822995942597 19.2005733426647  12.6194644805151 22.859249922925  12.6194644805151 22.859249922925  C 12.6194644805151 22.859249922925  10.9148350309312 23.1710220242906  10.9148350309312 23.1710220242906  C 10.9148350309312 23.1710220242906  7.35074176333849 19.5412514666733  7.35074176333849 19.5412514666733  C 7.35074176333849 19.5412514666733  4.74919972545579 16.20984846064  4.74919972545579 16.20984846064  C 4.74919972545579 16.20984846064  6.26057176651143 12.1815877337282  6.26057176651143 12.1815877337282  C 6.26057176651143 12.1815877337282  10.1517160331523 12.4376125057104  10.1517160331523 12.4376125057104  C 10.1517160331523 12.4376125057104  12.5822995942597 19.2005733426647  12.5822995942597 19.2005733426647  Z " stroke-width="2" stroke="#505050" fill="none" stroke-opacity="0.211764705882353" transform="matrix(1 0 0 1 1277 4186 )" mask="url(#clip56)" />
    <path d="M 10.43169150961 1.74238412774855  C 10.43169150961 1.74238412774855  10.637337213557 4.91686872514754  10.637337213557 4.91686872514754  C 10.637337213557 4.91686872514754  1.26561105377675 5.94716196078525  1.26561105377675 5.94716196078525  C 1.26561105377675 5.94716196078525  0.779989873372074 2.06447980862936  0.779989873372074 2.06447980862936  C 0.779989873372074 2.06447980862936  4.0455445456857 1.54830083285901  4.0455445456857 1.54830083285901  C 4.0455445456857 1.54830083285901  10.43169150961 1.74238412774855  10.43169150961 1.74238412774855  Z " stroke-width="2" stroke="#505050" fill="none" stroke-opacity="0.211764705882353" transform="matrix(1 0 0 1 1277 4186 )" mask="url(#clip56)" />
    <path d="M 9.04298291750395 0.449871972419714  C 9.04298291750395 0.449871972419714  16.333475446978 3.35079781624893  16.333475446978 3.35079781624893  C 16.333475446978 3.35079781624893  15.1342884504683 9.41381996205894  15.1342884504683 9.41381996205894  C 15.1342884504683 9.41381996205894  13.8558163632801 8.59412774853558  13.8558163632801 8.59412774853558  C 13.8558163632801 8.59412774853558  13.9697886811303 3.73896440602834  13.9697886811303 3.73896440602834  C 13.9697886811303 3.73896440602834  9.05784887200598 1.19110498162593  9.05784887200598 1.19110498162593  C 9.05784887200598 1.19110498162593  9.04298291750395 0.449871972419714  9.04298291750395 0.449871972419714  Z " stroke-width="2" stroke="#505050" fill="none" stroke-opacity="0.211764705882353" transform="matrix(1 0 0 1 1277 4186 )" mask="url(#clip56)" />
  </g>
</svg>