<?xml version="1.0" encoding="utf-8"?>
<svg version="1.1" xmlns:xlink="http://www.w3.org/1999/xlink" width="26px" height="14px" xmlns="http://www.w3.org/2000/svg">
  <defs>
    <mask fill="white" id="clip57">
      <path d="M 19.4237893987174 3.0594109876496  C 19.4237893987174 3.0594109876496  22.5603878149128 4.87513744701139  22.5603878149128 4.87513744701139  C 22.5603878149128 4.87513744701139  25.4796994622603 8.58258579933378  25.4796994622603 8.58258579933378  C 25.4796994622603 8.58258579933378  24.9761054215181 12.7043705095593  24.9761054215181 12.7043705095593  C 24.9761054215181 12.7043705095593  19.1298131820405 12.9035008877676  19.1298131820405 12.9035008877676  C 19.1298131820405 12.9035008877676  11.2193165762822 12.453851646652  11.2193165762822 12.453851646652  C 11.2193165762822 12.453851646652  6.71508967380802 13.5008920223925  6.71508967380802 13.5008920223925  C 6.71508967380802 13.5008920223925  0.199042923292706 10.9593032166588  0.199042923292706 10.9593032166588  C 0.199042923292706 10.9593032166588  0.0456640276351144 9.61249668017449  0.0456640276351144 9.61249668017449  C 0.0456640276351144 9.61249668017449  4.78762821837878 3.04442267961248  4.78762821837878 3.04442267961248  C 4.78762821837878 3.04442267961248  8.66044533373013 1.32504962906114  8.66044533373013 1.32504962906114  C 8.66044533373013 1.32504962906114  15.6378869909054 2.89453959924059  15.6378869909054 2.89453959924059  C 15.6378869909054 2.89453959924059  19.4237893987174 3.0594109876496  19.4237893987174 3.0594109876496  Z " fill-rule="evenodd" />
    </mask>
  </defs>
  <g transform="matrix(1 0 0 1 -2471 -4177 )">
    <path d="M 19.4237893987174 3.0594109876496  C 19.4237893987174 3.0594109876496  22.5603878149128 4.87513744701139  22.5603878149128 4.87513744701139  C 22.5603878149128 4.87513744701139  25.4796994622603 8.58258579933378  25.4796994622603 8.58258579933378  C 25.4796994622603 8.58258579933378  24.9761054215181 12.7043705095593  24.9761054215181 12.7043705095593  C 24.9761054215181 12.7043705095593  19.1298131820405 12.9035008877676  19.1298131820405 12.9035008877676  C 19.1298131820405 12.9035008877676  11.2193165762822 12.453851646652  11.2193165762822 12.453851646652  C 11.2193165762822 12.453851646652  6.71508967380802 13.5008920223925  6.71508967380802 13.5008920223925  C 6.71508967380802 13.5008920223925  0.199042923292706 10.9593032166588  0.199042923292706 10.9593032166588  C 0.199042923292706 10.9593032166588  0.0456640276351144 9.61249668017449  0.0456640276351144 9.61249668017449  C 0.0456640276351144 9.61249668017449  4.78762821837878 3.04442267961248  4.78762821837878 3.04442267961248  C 4.78762821837878 3.04442267961248  8.66044533373013 1.32504962906114  8.66044533373013 1.32504962906114  C 8.66044533373013 1.32504962906114  15.6378869909054 2.89453959924059  15.6378869909054 2.89453959924059  C 15.6378869909054 2.89453959924059  19.4237893987174 3.0594109876496  19.4237893987174 3.0594109876496  Z " fill-rule="nonzero" fill="#f2f2f2" stroke="none" transform="matrix(1 0 0 1 2471 4177 )" />
    <path d="M 19.4237893987174 3.0594109876496  C 19.4237893987174 3.0594109876496  22.5603878149128 4.87513744701139  22.5603878149128 4.87513744701139  C 22.5603878149128 4.87513744701139  25.4796994622603 8.58258579933378  25.4796994622603 8.58258579933378  C 25.4796994622603 8.58258579933378  24.9761054215181 12.7043705095593  24.9761054215181 12.7043705095593  C 24.9761054215181 12.7043705095593  19.1298131820405 12.9035008877676  19.1298131820405 12.9035008877676  C 19.1298131820405 12.9035008877676  11.2193165762822 12.453851646652  11.2193165762822 12.453851646652  C 11.2193165762822 12.453851646652  6.71508967380802 13.5008920223925  6.71508967380802 13.5008920223925  C 6.71508967380802 13.5008920223925  0.199042923292706 10.9593032166588  0.199042923292706 10.9593032166588  C 0.199042923292706 10.9593032166588  0.0456640276351144 9.61249668017449  0.0456640276351144 9.61249668017449  C 0.0456640276351144 9.61249668017449  4.78762821837878 3.04442267961248  4.78762821837878 3.04442267961248  C 4.78762821837878 3.04442267961248  8.66044533373013 1.32504962906114  8.66044533373013 1.32504962906114  C 8.66044533373013 1.32504962906114  15.6378869909054 2.89453959924059  15.6378869909054 2.89453959924059  C 15.6378869909054 2.89453959924059  19.4237893987174 3.0594109876496  19.4237893987174 3.0594109876496  Z " stroke-width="2" stroke="#505050" fill="none" stroke-opacity="0.211764705882353" transform="matrix(1 0 0 1 2471 4177 )" mask="url(#clip57)" />
  </g>
</svg>