<?xml version="1.0" encoding="utf-8"?>
<svg version="1.1" xmlns:xlink="http://www.w3.org/1999/xlink" width="71px" height="57px" xmlns="http://www.w3.org/2000/svg">
  <defs>
    <mask fill="white" id="clip58">
      <path d="M 40.6512110495448 1.72660924516108  C 40.6512110495448 1.72660924516108  43.4262254463721 6.32431861814291  43.4262254463721 6.32431861814291  C 43.4262254463721 6.32431861814291  44.8767427029156 7.35409567480449  44.8767427029156 7.35409567480449  C 44.8767427029156 7.35409567480449  47.145104795596 10.7003807389287  47.145104795596 10.7003807389287  C 47.145104795596 10.7003807389287  55.305550283208 17.0849984902322  55.305550283208 17.0849984902322  C 55.305550283208 17.0849984902322  58.3943290511318 17.712672124769  58.3943290511318 17.712672124769  C 58.3943290511318 17.712672124769  58.4123319248831 19.7741877182007  58.4123319248831 19.7741877182007  C 58.4123319248831 19.7741877182007  60.5340991884447 23.4911925227228  60.5340991884447 23.4911925227228  C 60.5340991884447 23.4911925227228  66.1098463731729 24.3934733723696  66.1098463731729 24.3934733723696  C 66.1098463731729 24.3934733723696  70.705722858002 27.0571633589349  70.705722858002 27.0571633589349  C 70.705722858002 27.0571633589349  60.5032371191562 32.8386106786415  60.5032371191562 32.8386106786415  C 60.5032371191562 32.8386106786415  54.029918085964 37.281363123097  54.029918085964 37.281363123097  C 54.029918085964 37.281363123097  51.6278203597016 41.2670907024056  51.6278203597016 41.2670907024056  C 51.6278203597016 41.2670907024056  49.4597599922081 43.5247543066299  49.4597599922081 43.5247543066299  C 49.4597599922081 43.5247543066299  45.5351335143967 44.0053169330719  45.5351335143967 44.0053169330719  C 45.5351335143967 44.0053169330719  44.2697886735818 46.890654171833  44.2697886735818 46.890654171833  C 44.2697886735818 46.890654171833  43.5393863670953 48.7795595157672  43.5393863670953 48.7795595157672  C 43.5393863670953 48.7795595157672  38.9280788476219 50.191825193475  38.9280788476219 50.191825193475  C 38.9280788476219 50.191825193475  31.1907209520245 49.891718736962  31.1907209520245 49.891718736962  C 31.1907209520245 49.891718736962  27.7444565481794 48.193076963497  27.7444565481794 48.193076963497  C 27.7444565481794 48.193076963497  24.7071145624023 47.4575219230243  24.7071145624023 47.4575219230243  C 24.7071145624023 47.4575219230243  21.1888386635518 48.8619416803001  21.1888386635518 48.8619416803001  C 21.1888386635518 48.8619416803001  19.4245570359116 51.7708166803564  19.4245570359116 51.7708166803564  C 19.4245570359116 51.7708166803564  16.0091547013547 53.6028391011607  16.0091547013547 53.6028391011607  C 16.0091547013547 53.6028391011607  12.4034362728542 56.3312579312876  12.4034362728542 56.3312579312876  C 12.4034362728542 56.3312579312876  7.23661150619385 56.9569700857166  7.23661150619385 56.9569700857166  C 7.23661150619385 56.9569700857166  5.62921206410199 54.8071878874279  5.62921206410199 54.8071878874279  C 5.62921206410199 54.8071878874279  6.29274655379772 51.0941060431214  6.29274655379772 51.0941060431214  C 6.29274655379772 51.0941060431214  2.01834995738685 45.3410848865706  2.01834995738685 45.3410848865706  C 2.01834995738685 45.3410848865706  0.0714677531252619 44.4348810767082  0.0714677531252619 44.4348810767082  C 0.0714677531252619 44.4348810767082  0.0688959140180474 25.6292058403639  0.0688959140180474 25.6292058403639  C 0.0688959140180474 25.6292058403639  7.17745920672516 25.4232504290315  7.17745920672516 25.4232504290315  C 7.17745920672516 25.4232504290315  7.38835001352757 4.69040568823943  7.38835001352757 4.69040568823943  C 7.38835001352757 4.69040568823943  12.7583500696681 4.50014211777024  12.7583500696681 4.50014211777024  C 12.7583500696681 4.50014211777024  23.873838691622 2.48766352703686  23.873838691622 2.48766352703686  C 23.873838691622 2.48766352703686  26.6308502146982 4.85713149741308  26.6308502146982 4.85713149741308  C 26.6308502146982 4.85713149741308  31.2344422168493 2.60339085340444  31.2344422168493 2.60339085340444  C 31.2344422168493 2.60339085340444  33.4205054580941 2.59162197275716  33.4205054580941 2.59162197275716  C 33.4205054580941 2.59162197275716  39.3550041394418 1.29704510152511  39.3550041394418 1.29704510152511  C 39.3550041394418 1.29704510152511  40.6512110495448 1.72660924516108  40.6512110495448 1.72660924516108  Z " fill-rule="evenodd" />
    </mask>
  </defs>
  <g transform="matrix(1 0 0 1 -1981 -4440 )">
    <path d="M 40.6512110495448 1.72660924516108  C 40.6512110495448 1.72660924516108  43.4262254463721 6.32431861814291  43.4262254463721 6.32431861814291  C 43.4262254463721 6.32431861814291  44.8767427029156 7.35409567480449  44.8767427029156 7.35409567480449  C 44.8767427029156 7.35409567480449  47.145104795596 10.7003807389287  47.145104795596 10.7003807389287  C 47.145104795596 10.7003807389287  55.305550283208 17.0849984902322  55.305550283208 17.0849984902322  C 55.305550283208 17.0849984902322  58.3943290511318 17.712672124769  58.3943290511318 17.712672124769  C 58.3943290511318 17.712672124769  58.4123319248831 19.7741877182007  58.4123319248831 19.7741877182007  C 58.4123319248831 19.7741877182007  60.5340991884447 23.4911925227228  60.5340991884447 23.4911925227228  C 60.5340991884447 23.4911925227228  66.1098463731729 24.3934733723696  66.1098463731729 24.3934733723696  C 66.1098463731729 24.3934733723696  70.705722858002 27.0571633589349  70.705722858002 27.0571633589349  C 70.705722858002 27.0571633589349  60.5032371191562 32.8386106786415  60.5032371191562 32.8386106786415  C 60.5032371191562 32.8386106786415  54.029918085964 37.281363123097  54.029918085964 37.281363123097  C 54.029918085964 37.281363123097  51.6278203597016 41.2670907024056  51.6278203597016 41.2670907024056  C 51.6278203597016 41.2670907024056  49.4597599922081 43.5247543066299  49.4597599922081 43.5247543066299  C 49.4597599922081 43.5247543066299  45.5351335143967 44.0053169330719  45.5351335143967 44.0053169330719  C 45.5351335143967 44.0053169330719  44.2697886735818 46.890654171833  44.2697886735818 46.890654171833  C 44.2697886735818 46.890654171833  43.5393863670953 48.7795595157672  43.5393863670953 48.7795595157672  C 43.5393863670953 48.7795595157672  38.9280788476219 50.191825193475  38.9280788476219 50.191825193475  C 38.9280788476219 50.191825193475  31.1907209520245 49.891718736962  31.1907209520245 49.891718736962  C 31.1907209520245 49.891718736962  27.7444565481794 48.193076963497  27.7444565481794 48.193076963497  C 27.7444565481794 48.193076963497  24.7071145624023 47.4575219230243  24.7071145624023 47.4575219230243  C 24.7071145624023 47.4575219230243  21.1888386635518 48.8619416803001  21.1888386635518 48.8619416803001  C 21.1888386635518 48.8619416803001  19.4245570359116 51.7708166803564  19.4245570359116 51.7708166803564  C 19.4245570359116 51.7708166803564  16.0091547013547 53.6028391011607  16.0091547013547 53.6028391011607  C 16.0091547013547 53.6028391011607  12.4034362728542 56.3312579312876  12.4034362728542 56.3312579312876  C 12.4034362728542 56.3312579312876  7.23661150619385 56.9569700857166  7.23661150619385 56.9569700857166  C 7.23661150619385 56.9569700857166  5.62921206410199 54.8071878874279  5.62921206410199 54.8071878874279  C 5.62921206410199 54.8071878874279  6.29274655379772 51.0941060431214  6.29274655379772 51.0941060431214  C 6.29274655379772 51.0941060431214  2.01834995738685 45.3410848865706  2.01834995738685 45.3410848865706  C 2.01834995738685 45.3410848865706  0.0714677531252619 44.4348810767082  0.0714677531252619 44.4348810767082  C 0.0714677531252619 44.4348810767082  0.0688959140180474 25.6292058403639  0.0688959140180474 25.6292058403639  C 0.0688959140180474 25.6292058403639  7.17745920672516 25.4232504290315  7.17745920672516 25.4232504290315  C 7.17745920672516 25.4232504290315  7.38835001352757 4.69040568823943  7.38835001352757 4.69040568823943  C 7.38835001352757 4.69040568823943  12.7583500696681 4.50014211777024  12.7583500696681 4.50014211777024  C 12.7583500696681 4.50014211777024  23.873838691622 2.48766352703686  23.873838691622 2.48766352703686  C 23.873838691622 2.48766352703686  26.6308502146982 4.85713149741308  26.6308502146982 4.85713149741308  C 26.6308502146982 4.85713149741308  31.2344422168493 2.60339085340444  31.2344422168493 2.60339085340444  C 31.2344422168493 2.60339085340444  33.4205054580941 2.59162197275716  33.4205054580941 2.59162197275716  C 33.4205054580941 2.59162197275716  39.3550041394418 1.29704510152511  39.3550041394418 1.29704510152511  C 39.3550041394418 1.29704510152511  40.6512110495448 1.72660924516108  40.6512110495448 1.72660924516108  Z " fill-rule="nonzero" fill="#f2f2f2" stroke="none" transform="matrix(1 0 0 1 1981 4440 )" />
    <path d="M 40.6512110495448 1.72660924516108  C 40.6512110495448 1.72660924516108  43.4262254463721 6.32431861814291  43.4262254463721 6.32431861814291  C 43.4262254463721 6.32431861814291  44.8767427029156 7.35409567480449  44.8767427029156 7.35409567480449  C 44.8767427029156 7.35409567480449  47.145104795596 10.7003807389287  47.145104795596 10.7003807389287  C 47.145104795596 10.7003807389287  55.305550283208 17.0849984902322  55.305550283208 17.0849984902322  C 55.305550283208 17.0849984902322  58.3943290511318 17.712672124769  58.3943290511318 17.712672124769  C 58.3943290511318 17.712672124769  58.4123319248831 19.7741877182007  58.4123319248831 19.7741877182007  C 58.4123319248831 19.7741877182007  60.5340991884447 23.4911925227228  60.5340991884447 23.4911925227228  C 60.5340991884447 23.4911925227228  66.1098463731729 24.3934733723696  66.1098463731729 24.3934733723696  C 66.1098463731729 24.3934733723696  70.705722858002 27.0571633589349  70.705722858002 27.0571633589349  C 70.705722858002 27.0571633589349  60.5032371191562 32.8386106786415  60.5032371191562 32.8386106786415  C 60.5032371191562 32.8386106786415  54.029918085964 37.281363123097  54.029918085964 37.281363123097  C 54.029918085964 37.281363123097  51.6278203597016 41.2670907024056  51.6278203597016 41.2670907024056  C 51.6278203597016 41.2670907024056  49.4597599922081 43.5247543066299  49.4597599922081 43.5247543066299  C 49.4597599922081 43.5247543066299  45.5351335143967 44.0053169330719  45.5351335143967 44.0053169330719  C 45.5351335143967 44.0053169330719  44.2697886735818 46.890654171833  44.2697886735818 46.890654171833  C 44.2697886735818 46.890654171833  43.5393863670953 48.7795595157672  43.5393863670953 48.7795595157672  C 43.5393863670953 48.7795595157672  38.9280788476219 50.191825193475  38.9280788476219 50.191825193475  C 38.9280788476219 50.191825193475  31.1907209520245 49.891718736962  31.1907209520245 49.891718736962  C 31.1907209520245 49.891718736962  27.7444565481794 48.193076963497  27.7444565481794 48.193076963497  C 27.7444565481794 48.193076963497  24.7071145624023 47.4575219230243  24.7071145624023 47.4575219230243  C 24.7071145624023 47.4575219230243  21.1888386635518 48.8619416803001  21.1888386635518 48.8619416803001  C 21.1888386635518 48.8619416803001  19.4245570359116 51.7708166803564  19.4245570359116 51.7708166803564  C 19.4245570359116 51.7708166803564  16.0091547013547 53.6028391011607  16.0091547013547 53.6028391011607  C 16.0091547013547 53.6028391011607  12.4034362728542 56.3312579312876  12.4034362728542 56.3312579312876  C 12.4034362728542 56.3312579312876  7.23661150619385 56.9569700857166  7.23661150619385 56.9569700857166  C 7.23661150619385 56.9569700857166  5.62921206410199 54.8071878874279  5.62921206410199 54.8071878874279  C 5.62921206410199 54.8071878874279  6.29274655379772 51.0941060431214  6.29274655379772 51.0941060431214  C 6.29274655379772 51.0941060431214  2.01834995738685 45.3410848865706  2.01834995738685 45.3410848865706  C 2.01834995738685 45.3410848865706  0.0714677531252619 44.4348810767082  0.0714677531252619 44.4348810767082  C 0.0714677531252619 44.4348810767082  0.0688959140180474 25.6292058403639  0.0688959140180474 25.6292058403639  C 0.0688959140180474 25.6292058403639  7.17745920672516 25.4232504290315  7.17745920672516 25.4232504290315  C 7.17745920672516 25.4232504290315  7.38835001352757 4.69040568823943  7.38835001352757 4.69040568823943  C 7.38835001352757 4.69040568823943  12.7583500696681 4.50014211777024  12.7583500696681 4.50014211777024  C 12.7583500696681 4.50014211777024  23.873838691622 2.48766352703686  23.873838691622 2.48766352703686  C 23.873838691622 2.48766352703686  26.6308502146982 4.85713149741308  26.6308502146982 4.85713149741308  C 26.6308502146982 4.85713149741308  31.2344422168493 2.60339085340444  31.2344422168493 2.60339085340444  C 31.2344422168493 2.60339085340444  33.4205054580941 2.59162197275716  33.4205054580941 2.59162197275716  C 33.4205054580941 2.59162197275716  39.3550041394418 1.29704510152511  39.3550041394418 1.29704510152511  C 39.3550041394418 1.29704510152511  40.6512110495448 1.72660924516108  40.6512110495448 1.72660924516108  Z " stroke-width="2" stroke="#505050" fill="none" stroke-opacity="0.211764705882353" transform="matrix(1 0 0 1 1981 4440 )" mask="url(#clip58)" />
  </g>
</svg>