<?xml version="1.0" encoding="utf-8"?>
<svg version="1.1" xmlns:xlink="http://www.w3.org/1999/xlink" width="72px" height="48px" xmlns="http://www.w3.org/2000/svg">
  <defs>
    <mask fill="white" id="clip59">
      <path d="M 3.7936954599296 27.8542473375322  C 3.7936954599296 27.8542473375322  3.48367042586695 22.215210986075  3.48367042586695 22.215210986075  C 3.48367042586695 22.215210986075  10.3702920841445 22.2792797462192  10.3702920841445 22.2792797462192  C 10.3702920841445 22.2792797462192  18.1056708028889 18.6814184343769  18.1056708028889 18.6814184343769  C 18.1056708028889 18.6814184343769  19.759984714158 13.2275652271103  19.759984714158 13.2275652271103  C 19.759984714158 13.2275652271103  25.6021777740769 10.1002088725762  25.6021777740769 10.1002088725762  C 25.6021777740769 10.1002088725762  24.9313039298757 5.68146657138773  24.9313039298757 5.68146657138773  C 24.9313039298757 5.68146657138773  29.264030840342 4.0096723613776  29.264030840342 4.0096723613776  C 29.264030840342 4.0096723613776  38.7642453635189 0.147527413940886  38.7642453635189 0.147527413940886  C 38.7642453635189 0.147527413940886  46.2658347123145 2.66222624959697  46.2658347123145 2.66222624959697  C 46.2658347123145 2.66222624959697  47.277227856224 5.13688211016283  47.277227856224 5.13688211016283  C 47.277227856224 5.13688211016283  51.0178577754066 3.94960789874246  51.0178577754066 3.94960789874246  C 51.0178577754066 3.94960789874246  57.9832562866019 6.31814987531966  57.9832562866019 6.31814987531966  C 57.9832562866019 6.31814987531966  58.679542018841 10.9391092007131  58.679542018841 10.9391092007131  C 58.679542018841 10.9391092007131  57.1548287365656 13.5699326641303  57.1548287365656 13.5699326641303  C 57.1548287365656 13.5699326641303  61.6196974648289 19.8827076870789  61.6196974648289 19.8827076870789  C 61.6196974648289 19.8827076870789  64.5217350787602 21.6225749547421  64.5217350787602 21.6225749547421  C 64.5217350787602 21.6225749547421  64.0922741709189 24.7949640406513  64.0922741709189 24.7949640406513  C 64.0922741709189 24.7949640406513  68.8951210100873 26.4587496556435  68.8951210100873 26.4587496556435  C 68.8951210100873 26.4587496556435  70.9484015635515 28.9694441937905  70.9484015635515 28.9694441937905  C 70.9484015635515 28.9694441937905  68.1759645786137 31.0156402208928  68.1759645786137 31.0156402208928  C 68.1759645786137 31.0156402208928  62.427795504435 30.6912921226632  62.427795504435 30.6912921226632  C 62.427795504435 30.6912921226632  61.0555535503871 31.5622268308721  61.0555535503871 31.5622268308721  C 61.0555535503871 31.5622268308721  62.7301969720863 34.6455359128071  62.7301969720863 34.6455359128071  C 62.7301969720863 34.6455359128071  64.4810760578993 40.525846804783  64.4810760578993 40.525846804783  C 64.4810760578993 40.525846804783  58.3644346071708 41.0664269684988  58.3644346071708 41.0664269684988  C 58.3644346071708 41.0664269684988  56.1688474806942 43.0585649792295  56.1688474806942 43.0585649792295  C 56.1688474806942 43.0585649792295  55.7114334960112 47.5934319081792  55.7114334960112 47.5934319081792  C 55.7114334960112 47.5934319081792  52.8780079797825 46.7265014974793  52.8780079797825 46.7265014974793  C 52.8780079797825 46.7265014974793  46.4462591173839 47.1569634796975  46.4462591173839 47.1569634796975  C 46.4462591173839 47.1569634796975  44.5784853465963 45.0547072874691  44.5784853465963 45.0547072874691  C 44.5784853465963 45.0547072874691  41.9076959138106 46.6223897622451  41.9076959138106 46.6223897622451  C 41.9076959138106 46.6223897622451  39.2267417258092 45.3229952205725  39.2267417258092 45.3229952205725  C 39.2267417258092 45.3229952205725  31.7696430008814 45.1428018326673  31.7696430008814 45.1428018326673  C 31.7696430008814 45.1428018326673  23.8182632338146 42.9724725827858  23.8182632338146 42.9724725827858  C 23.8182632338146 42.9724725827858  16.6216165414742 42.2617097749372  16.6216165414742 42.2617097749372  C 16.6216165414742 42.2617097749372  11.0996132708329 42.463926799142  11.0996132708329 42.463926799142  C 11.0996132708329 42.463926799142  7.1963472682076 44.9165590234085  7.1963472682076 44.9165590234085  C 7.1963472682076 44.9165590234085  3.78861308232207 45.2669350554465  3.78861308232207 45.2669350554465  C 3.78861308232207 45.2669350554465  3.65393007572108 41.2366096126315  3.65393007572108 41.2366096126315  C 3.65393007572108 41.2366096126315  1.45580176044055 36.9980606993483  1.45580176044055 36.9980606993483  C 1.45580176044055 36.9980606993483  5.72754013961548 35.1160408701152  5.72754013961548 35.1160408701152  C 5.72754013961548 35.1160408701152  5.77074034928025 31.4160699717934  5.77074034928025 31.4160699717934  C 5.77074034928025 31.4160699717934  3.7936954599296 27.8542473375322  3.7936954599296 27.8542473375322  Z " fill-rule="evenodd" />
    </mask>
  </defs>
  <g transform="matrix(1 0 0 1 -2004 -3965 )">
    <path d="M 3.7936954599296 27.8542473375322  C 3.7936954599296 27.8542473375322  3.48367042586695 22.215210986075  3.48367042586695 22.215210986075  C 3.48367042586695 22.215210986075  10.3702920841445 22.2792797462192  10.3702920841445 22.2792797462192  C 10.3702920841445 22.2792797462192  18.1056708028889 18.6814184343769  18.1056708028889 18.6814184343769  C 18.1056708028889 18.6814184343769  19.759984714158 13.2275652271103  19.759984714158 13.2275652271103  C 19.759984714158 13.2275652271103  25.6021777740769 10.1002088725762  25.6021777740769 10.1002088725762  C 25.6021777740769 10.1002088725762  24.9313039298757 5.68146657138773  24.9313039298757 5.68146657138773  C 24.9313039298757 5.68146657138773  29.264030840342 4.0096723613776  29.264030840342 4.0096723613776  C 29.264030840342 4.0096723613776  38.7642453635189 0.147527413940886  38.7642453635189 0.147527413940886  C 38.7642453635189 0.147527413940886  46.2658347123145 2.66222624959697  46.2658347123145 2.66222624959697  C 46.2658347123145 2.66222624959697  47.277227856224 5.13688211016283  47.277227856224 5.13688211016283  C 47.277227856224 5.13688211016283  51.0178577754066 3.94960789874246  51.0178577754066 3.94960789874246  C 51.0178577754066 3.94960789874246  57.9832562866019 6.31814987531966  57.9832562866019 6.31814987531966  C 57.9832562866019 6.31814987531966  58.679542018841 10.9391092007131  58.679542018841 10.9391092007131  C 58.679542018841 10.9391092007131  57.1548287365656 13.5699326641303  57.1548287365656 13.5699326641303  C 57.1548287365656 13.5699326641303  61.6196974648289 19.8827076870789  61.6196974648289 19.8827076870789  C 61.6196974648289 19.8827076870789  64.5217350787602 21.6225749547421  64.5217350787602 21.6225749547421  C 64.5217350787602 21.6225749547421  64.0922741709189 24.7949640406513  64.0922741709189 24.7949640406513  C 64.0922741709189 24.7949640406513  68.8951210100873 26.4587496556435  68.8951210100873 26.4587496556435  C 68.8951210100873 26.4587496556435  70.9484015635515 28.9694441937905  70.9484015635515 28.9694441937905  C 70.9484015635515 28.9694441937905  68.1759645786137 31.0156402208928  68.1759645786137 31.0156402208928  C 68.1759645786137 31.0156402208928  62.427795504435 30.6912921226632  62.427795504435 30.6912921226632  C 62.427795504435 30.6912921226632  61.0555535503871 31.5622268308721  61.0555535503871 31.5622268308721  C 61.0555535503871 31.5622268308721  62.7301969720863 34.6455359128071  62.7301969720863 34.6455359128071  C 62.7301969720863 34.6455359128071  64.4810760578993 40.525846804783  64.4810760578993 40.525846804783  C 64.4810760578993 40.525846804783  58.3644346071708 41.0664269684988  58.3644346071708 41.0664269684988  C 58.3644346071708 41.0664269684988  56.1688474806942 43.0585649792295  56.1688474806942 43.0585649792295  C 56.1688474806942 43.0585649792295  55.7114334960112 47.5934319081792  55.7114334960112 47.5934319081792  C 55.7114334960112 47.5934319081792  52.8780079797825 46.7265014974793  52.8780079797825 46.7265014974793  C 52.8780079797825 46.7265014974793  46.4462591173839 47.1569634796975  46.4462591173839 47.1569634796975  C 46.4462591173839 47.1569634796975  44.5784853465963 45.0547072874691  44.5784853465963 45.0547072874691  C 44.5784853465963 45.0547072874691  41.9076959138106 46.6223897622451  41.9076959138106 46.6223897622451  C 41.9076959138106 46.6223897622451  39.2267417258092 45.3229952205725  39.2267417258092 45.3229952205725  C 39.2267417258092 45.3229952205725  31.7696430008814 45.1428018326673  31.7696430008814 45.1428018326673  C 31.7696430008814 45.1428018326673  23.8182632338146 42.9724725827858  23.8182632338146 42.9724725827858  C 23.8182632338146 42.9724725827858  16.6216165414742 42.2617097749372  16.6216165414742 42.2617097749372  C 16.6216165414742 42.2617097749372  11.0996132708329 42.463926799142  11.0996132708329 42.463926799142  C 11.0996132708329 42.463926799142  7.1963472682076 44.9165590234085  7.1963472682076 44.9165590234085  C 7.1963472682076 44.9165590234085  3.78861308232207 45.2669350554465  3.78861308232207 45.2669350554465  C 3.78861308232207 45.2669350554465  3.65393007572108 41.2366096126315  3.65393007572108 41.2366096126315  C 3.65393007572108 41.2366096126315  1.45580176044055 36.9980606993483  1.45580176044055 36.9980606993483  C 1.45580176044055 36.9980606993483  5.72754013961548 35.1160408701152  5.72754013961548 35.1160408701152  C 5.72754013961548 35.1160408701152  5.77074034928025 31.4160699717934  5.77074034928025 31.4160699717934  C 5.77074034928025 31.4160699717934  3.7936954599296 27.8542473375322  3.7936954599296 27.8542473375322  Z " fill-rule="nonzero" fill="#74b9ff" stroke="none" transform="matrix(1 0 0 1 2004 3965 )" />
    <path d="M 3.7936954599296 27.8542473375322  C 3.7936954599296 27.8542473375322  3.48367042586695 22.215210986075  3.48367042586695 22.215210986075  C 3.48367042586695 22.215210986075  10.3702920841445 22.2792797462192  10.3702920841445 22.2792797462192  C 10.3702920841445 22.2792797462192  18.1056708028889 18.6814184343769  18.1056708028889 18.6814184343769  C 18.1056708028889 18.6814184343769  19.759984714158 13.2275652271103  19.759984714158 13.2275652271103  C 19.759984714158 13.2275652271103  25.6021777740769 10.1002088725762  25.6021777740769 10.1002088725762  C 25.6021777740769 10.1002088725762  24.9313039298757 5.68146657138773  24.9313039298757 5.68146657138773  C 24.9313039298757 5.68146657138773  29.264030840342 4.0096723613776  29.264030840342 4.0096723613776  C 29.264030840342 4.0096723613776  38.7642453635189 0.147527413940886  38.7642453635189 0.147527413940886  C 38.7642453635189 0.147527413940886  46.2658347123145 2.66222624959697  46.2658347123145 2.66222624959697  C 46.2658347123145 2.66222624959697  47.277227856224 5.13688211016283  47.277227856224 5.13688211016283  C 47.277227856224 5.13688211016283  51.0178577754066 3.94960789874246  51.0178577754066 3.94960789874246  C 51.0178577754066 3.94960789874246  57.9832562866019 6.31814987531966  57.9832562866019 6.31814987531966  C 57.9832562866019 6.31814987531966  58.679542018841 10.9391092007131  58.679542018841 10.9391092007131  C 58.679542018841 10.9391092007131  57.1548287365656 13.5699326641303  57.1548287365656 13.5699326641303  C 57.1548287365656 13.5699326641303  61.6196974648289 19.8827076870789  61.6196974648289 19.8827076870789  C 61.6196974648289 19.8827076870789  64.5217350787602 21.6225749547421  64.5217350787602 21.6225749547421  C 64.5217350787602 21.6225749547421  64.0922741709189 24.7949640406513  64.0922741709189 24.7949640406513  C 64.0922741709189 24.7949640406513  68.8951210100873 26.4587496556435  68.8951210100873 26.4587496556435  C 68.8951210100873 26.4587496556435  70.9484015635515 28.9694441937905  70.9484015635515 28.9694441937905  C 70.9484015635515 28.9694441937905  68.1759645786137 31.0156402208928  68.1759645786137 31.0156402208928  C 68.1759645786137 31.0156402208928  62.427795504435 30.6912921226632  62.427795504435 30.6912921226632  C 62.427795504435 30.6912921226632  61.0555535503871 31.5622268308721  61.0555535503871 31.5622268308721  C 61.0555535503871 31.5622268308721  62.7301969720863 34.6455359128071  62.7301969720863 34.6455359128071  C 62.7301969720863 34.6455359128071  64.4810760578993 40.525846804783  64.4810760578993 40.525846804783  C 64.4810760578993 40.525846804783  58.3644346071708 41.0664269684988  58.3644346071708 41.0664269684988  C 58.3644346071708 41.0664269684988  56.1688474806942 43.0585649792295  56.1688474806942 43.0585649792295  C 56.1688474806942 43.0585649792295  55.7114334960112 47.5934319081792  55.7114334960112 47.5934319081792  C 55.7114334960112 47.5934319081792  52.8780079797825 46.7265014974793  52.8780079797825 46.7265014974793  C 52.8780079797825 46.7265014974793  46.4462591173839 47.1569634796975  46.4462591173839 47.1569634796975  C 46.4462591173839 47.1569634796975  44.5784853465963 45.0547072874691  44.5784853465963 45.0547072874691  C 44.5784853465963 45.0547072874691  41.9076959138106 46.6223897622451  41.9076959138106 46.6223897622451  C 41.9076959138106 46.6223897622451  39.2267417258092 45.3229952205725  39.2267417258092 45.3229952205725  C 39.2267417258092 45.3229952205725  31.7696430008814 45.1428018326673  31.7696430008814 45.1428018326673  C 31.7696430008814 45.1428018326673  23.8182632338146 42.9724725827858  23.8182632338146 42.9724725827858  C 23.8182632338146 42.9724725827858  16.6216165414742 42.2617097749372  16.6216165414742 42.2617097749372  C 16.6216165414742 42.2617097749372  11.0996132708329 42.463926799142  11.0996132708329 42.463926799142  C 11.0996132708329 42.463926799142  7.1963472682076 44.9165590234085  7.1963472682076 44.9165590234085  C 7.1963472682076 44.9165590234085  3.78861308232207 45.2669350554465  3.78861308232207 45.2669350554465  C 3.78861308232207 45.2669350554465  3.65393007572108 41.2366096126315  3.65393007572108 41.2366096126315  C 3.65393007572108 41.2366096126315  1.45580176044055 36.9980606993483  1.45580176044055 36.9980606993483  C 1.45580176044055 36.9980606993483  5.72754013961548 35.1160408701152  5.72754013961548 35.1160408701152  C 5.72754013961548 35.1160408701152  5.77074034928025 31.4160699717934  5.77074034928025 31.4160699717934  C 5.77074034928025 31.4160699717934  3.7936954599296 27.8542473375322  3.7936954599296 27.8542473375322  Z " stroke-width="2" stroke="#505050" fill="none" stroke-opacity="0.211764705882353" transform="matrix(1 0 0 1 2004 3965 )" mask="url(#clip59)" />
  </g>
</svg>