<?xml version="1.0" encoding="utf-8"?>
<svg version="1.1" xmlns:xlink="http://www.w3.org/1999/xlink" width="14px" height="18px" xmlns="http://www.w3.org/2000/svg">
  <defs>
    <mask fill="white" id="clip63">
      <path d="M 2.35789791608977 10.8886461986458  C 2.35789791608977 10.8886461986458  2.41846291591355 5.09189175344556  2.41846291591355 5.09189175344556  C 2.41846291591355 5.09189175344556  2.35789791608977 4.27045247261948  2.35789791608977 4.27045247261948  C 2.35789791608977 4.27045247261948  3.29114950428266 4.01506299783827  3.29114950428266 4.01506299783827  C 3.29114950428266 4.01506299783827  4.69240336384064 4.67450149242243  4.69240336384064 4.67450149242243  C 4.69240336384064 4.67450149242243  9.45912267396966 1.29916746378526  9.45912267396966 1.29916746378526  C 9.45912267396966 1.29916746378526  10.9264474424263 1.22674358287713  10.9264474424263 1.22674358287713  C 10.9264474424263 1.22674358287713  10.9539769878006 2.0481828637029  10.9539769878006 2.0481828637029  C 10.9539769878006 2.0481828637029  12.4157958471822 2.07295945454017  12.4157958471822 2.07295945454017  C 12.4157958471822 2.07295945454017  12.28915993846 3.59386095360997  12.28915993846 3.59386095360997  C 12.28915993846 3.59386095360997  11.0393185784612 6.00671972281092  11.0393185784612 6.00671972281092  C 11.0393185784612 6.00671972281092  11.7137924401345 6.8700886188993  11.7137924401345 6.8700886188993  C 11.7137924401345 6.8700886188993  10.907176760664 10.2444548368843  10.907176760664 10.2444548368843  C 10.907176760664 10.2444548368843  11.3916967592538 10.7761985940778  11.3916967592538 10.7761985940778  C 11.3916967592538 10.7761985940778  10.4997394891227 13.5797651418619  10.4997394891227 13.5797651418619  C 10.4997394891227 13.5797651418619  8.98286153899221 15.047301676052  8.98286153899221 15.047301676052  C 8.98286153899221 15.047301676052  5.58711358850928 15.2245495951165  5.58711358850928 15.2245495951165  C 5.58711358850928 15.2245495951165  4.05922382022891 17.1380647643724  4.05922382022891 17.1380647643724  C 4.05922382022891 17.1380647643724  1.75500087239016 17.1399706559752  1.75500087239016 17.1399706559752  C 1.75500087239016 17.1399706559752  2.35789791608977 10.8886461986458  2.35789791608977 10.8886461986458  Z " fill-rule="evenodd" />
    </mask>
  </defs>
  <g transform="matrix(1 0 0 1 -1203 -4237 )">
    <path d="M 2.35789791608977 10.8886461986458  C 2.35789791608977 10.8886461986458  2.41846291591355 5.09189175344556  2.41846291591355 5.09189175344556  C 2.41846291591355 5.09189175344556  2.35789791608977 4.27045247261948  2.35789791608977 4.27045247261948  C 2.35789791608977 4.27045247261948  3.29114950428266 4.01506299783827  3.29114950428266 4.01506299783827  C 3.29114950428266 4.01506299783827  4.69240336384064 4.67450149242243  4.69240336384064 4.67450149242243  C 4.69240336384064 4.67450149242243  9.45912267396966 1.29916746378526  9.45912267396966 1.29916746378526  C 9.45912267396966 1.29916746378526  10.9264474424263 1.22674358287713  10.9264474424263 1.22674358287713  C 10.9264474424263 1.22674358287713  10.9539769878006 2.0481828637029  10.9539769878006 2.0481828637029  C 10.9539769878006 2.0481828637029  12.4157958471822 2.07295945454017  12.4157958471822 2.07295945454017  C 12.4157958471822 2.07295945454017  12.28915993846 3.59386095360997  12.28915993846 3.59386095360997  C 12.28915993846 3.59386095360997  11.0393185784612 6.00671972281092  11.0393185784612 6.00671972281092  C 11.0393185784612 6.00671972281092  11.7137924401345 6.8700886188993  11.7137924401345 6.8700886188993  C 11.7137924401345 6.8700886188993  10.907176760664 10.2444548368843  10.907176760664 10.2444548368843  C 10.907176760664 10.2444548368843  11.3916967592538 10.7761985940778  11.3916967592538 10.7761985940778  C 11.3916967592538 10.7761985940778  10.4997394891227 13.5797651418619  10.4997394891227 13.5797651418619  C 10.4997394891227 13.5797651418619  8.98286153899221 15.047301676052  8.98286153899221 15.047301676052  C 8.98286153899221 15.047301676052  5.58711358850928 15.2245495951165  5.58711358850928 15.2245495951165  C 5.58711358850928 15.2245495951165  4.05922382022891 17.1380647643724  4.05922382022891 17.1380647643724  C 4.05922382022891 17.1380647643724  1.75500087239016 17.1399706559752  1.75500087239016 17.1399706559752  C 1.75500087239016 17.1399706559752  2.35789791608977 10.8886461986458  2.35789791608977 10.8886461986458  Z " fill-rule="nonzero" fill="#f2f2f2" stroke="none" transform="matrix(1 0 0 1 1203 4237 )" />
    <path d="M 2.35789791608977 10.8886461986458  C 2.35789791608977 10.8886461986458  2.41846291591355 5.09189175344556  2.41846291591355 5.09189175344556  C 2.41846291591355 5.09189175344556  2.35789791608977 4.27045247261948  2.35789791608977 4.27045247261948  C 2.35789791608977 4.27045247261948  3.29114950428266 4.01506299783827  3.29114950428266 4.01506299783827  C 3.29114950428266 4.01506299783827  4.69240336384064 4.67450149242243  4.69240336384064 4.67450149242243  C 4.69240336384064 4.67450149242243  9.45912267396966 1.29916746378526  9.45912267396966 1.29916746378526  C 9.45912267396966 1.29916746378526  10.9264474424263 1.22674358287713  10.9264474424263 1.22674358287713  C 10.9264474424263 1.22674358287713  10.9539769878006 2.0481828637029  10.9539769878006 2.0481828637029  C 10.9539769878006 2.0481828637029  12.4157958471822 2.07295945454017  12.4157958471822 2.07295945454017  C 12.4157958471822 2.07295945454017  12.28915993846 3.59386095360997  12.28915993846 3.59386095360997  C 12.28915993846 3.59386095360997  11.0393185784612 6.00671972281092  11.0393185784612 6.00671972281092  C 11.0393185784612 6.00671972281092  11.7137924401345 6.8700886188993  11.7137924401345 6.8700886188993  C 11.7137924401345 6.8700886188993  10.907176760664 10.2444548368843  10.907176760664 10.2444548368843  C 10.907176760664 10.2444548368843  11.3916967592538 10.7761985940778  11.3916967592538 10.7761985940778  C 11.3916967592538 10.7761985940778  10.4997394891227 13.5797651418619  10.4997394891227 13.5797651418619  C 10.4997394891227 13.5797651418619  8.98286153899221 15.047301676052  8.98286153899221 15.047301676052  C 8.98286153899221 15.047301676052  5.58711358850928 15.2245495951165  5.58711358850928 15.2245495951165  C 5.58711358850928 15.2245495951165  4.05922382022891 17.1380647643724  4.05922382022891 17.1380647643724  C 4.05922382022891 17.1380647643724  1.75500087239016 17.1399706559752  1.75500087239016 17.1399706559752  C 1.75500087239016 17.1399706559752  2.35789791608977 10.8886461986458  2.35789791608977 10.8886461986458  Z " stroke-width="2" stroke="#505050" fill="none" stroke-opacity="0.211764705882353" transform="matrix(1 0 0 1 1203 4237 )" mask="url(#clip63)" />
  </g>
</svg>