<?xml version="1.0" encoding="utf-8"?>
<svg version="1.1" xmlns:xlink="http://www.w3.org/1999/xlink" width="138px" height="107px" xmlns="http://www.w3.org/2000/svg">
  <defs>
    <mask fill="white" id="clip68">
      <path d="M 128.5330331574 7.33641680636656  C 128.5330331574 7.33641680636656  134.786314330108 11.0284450588271  134.786314330108 11.0284450588271  C 134.786314330108 11.0284450588271  134.355752240453 17.5208419103236  134.355752240453 17.5208419103236  C 134.355752240453 17.5208419103236  137.20252746853 18.2711894311742  137.20252746853 18.2711894311742  C 137.20252746853 18.2711894311742  134.91801567518 20.2396077285774  134.91801567518 20.2396077285774  C 134.91801567518 20.2396077285774  132.190278201301 21.7144287178355  132.190278201301 21.7144287178355  C 132.190278201301 21.7144287178355  129.475204318294 24.6043613445592  129.475204318294 24.6043613445592  C 129.475204318294 24.6043613445592  127.983433313545 27.1818150302391  127.983433313545 27.1818150302391  C 127.983433313545 27.1818150302391  127.580731123808 31.6321520504557  127.580731123808 31.6321520504557  C 127.580731123808 31.6321520504557  125.936997028592 33.7498437273386  125.936997028592 33.7498437273386  C 125.936997028592 33.7498437273386  125.876211792406 37.9294983527655  125.876211792406 37.9294983527655  C 125.876211792406 37.9294983527655  123.834840943802 39.4759705641736  123.834840943802 39.4759705641736  C 123.834840943802 39.4759705641736  123.571438253659 42.7759074065344  123.571438253659 42.7759074065344  C 123.571438253659 42.7759074065344  122.596341756497 43.2038244277093  122.596341756497 43.2038244277093  C 122.596341756497 43.2038244277093  121.940367749316 46.2390498104599  121.940367749316 46.2390498104599  C 121.940367749316 46.2390498104599  123.7259340623 48.7627650795273  123.7259340623 48.7627650795273  C 123.7259340623 48.7627650795273  124.176757897352 56.9100906082409  124.176757897352 56.9100906082409  C 124.176757897352 56.9100906082409  125.453247857273 62.0291723685258  125.453247857273 62.0291723685258  C 125.453247857273 62.0291723685258  124.744086768428 64.9250759304287  124.744086768428 64.9250759304287  C 124.744086768428 64.9250759304287  126.164941664292 68.1613227975452  126.164941664292 68.1613227975452  C 126.164941664292 68.1613227975452  130.283141415943 71.2861122079835  130.283141415943 71.2861122079835  C 130.283141415943 71.2861122079835  134.117676732055 78.3357963428701  134.117676732055 78.3357963428701  C 134.117676732055 78.3357963428701  131.321555867466 77.7665671891216  131.321555867466 77.7665671891216  C 131.321555867466 77.7665671891216  121.7833392225 78.7119652591586  121.7833392225 78.7119652591586  C 121.7833392225 78.7119652591586  119.878735155316 79.3827003109532  119.878735155316 79.3827003109532  C 119.878735155316 79.3827003109532  117.855093333934 82.9632711067358  117.855093333934 82.9632711067358  C 117.855093333934 82.9632711067358  119.445640347486 85.4431995178225  119.445640347486 85.4431995178225  C 119.445640347486 85.4431995178225  118.184346696612 92.1127341129682  118.184346696612 92.1127341129682  C 118.184346696612 92.1127341129682  117.305493490078 97.787112844917  117.305493490078 97.787112844917  C 117.305493490078 97.787112844917  119.222761148135 98.7962008901985  119.222761148135 98.7962008901985  C 119.222761148135 98.7962008901985  124.18688877005 101.001466283043  124.18688877005 101.001466283043  C 124.18688877005 101.001466283043  126.137081764374 99.9704848087708  126.137081764374 99.9704848087708  C 126.137081764374 99.9704848087708  126.729737817194 106.100644926064  126.729737817194 106.100644926064  C 126.729737817194 106.100644926064  121.294524614832 106.05287744463  121.294524614832 106.05287744463  C 121.294524614832 106.05287744463  118.379365996044 102.922117099013  118.379365996044 102.922117099013  C 118.379365996044 102.922117099013  115.763068121841 100.501898039718  115.763068121841 100.501898039718  C 115.763068121841 100.501898039718  110.320256764955 99.7097539726132  110.320256764955 99.7097539726132  C 110.320256764955 99.7097539726132  108.727177033228 96.7402088768335  108.727177033228 96.7402088768335  C 108.727177033228 96.7402088768335  104.386098082227 98.5275088071354  104.386098082227 98.5275088071354  C 104.386098082227 98.5275088071354  98.6976130624197 97.737355051757  98.6976130624197 97.737355051757  C 98.6976130624197 97.737355051757  96.3244561329633 95.1678626129826  96.3244561329633 95.1678626129826  C 96.3244561329633 95.1678626129826  91.8162177824485 94.6464009406674  91.8162177824485 94.6464009406674  C 91.8162177824485 94.6464009406674  88.4882261012258 94.7837324497884  88.4882261012258 94.7837324497884  C 88.4882261012258 94.7837324497884  88.0829911933145 93.0262871953829  88.0829911933145 93.0262871953829  C 88.0829911933145 93.0262871953829  85.6313200004499 92.884975062809  85.6313200004499 92.884975062809  C 85.6313200004499 92.884975062809  82.3970388916819 92.5525930045012  82.3970388916819 92.5525930045012  C 82.3970388916819 92.5525930045012  78.0002401408424 93.3984754882184  78.0002401408424 93.3984754882184  C 78.0002401408424 93.3984754882184  74.9128566861923 93.2591536673711  74.9128566861923 93.2591536673711  C 74.9128566861923 93.2591536673711  73.1551502731264 93.7766347162334  73.1551502731264 93.7766347162334  C 73.1551502731264 93.7766347162334  73.5350579992935 87.06729388656  73.5350579992935 87.06729388656  C 73.5350579992935 87.06729388656  71.1669665061857 84.9794568855727  71.1669665061857 84.9794568855727  C 71.1669665061857 84.9794568855727  70.6452265622496 81.5262660402793  70.6452265622496 81.5262660402793  C 70.6452265622496 81.5262660402793  71.6912391682961 78.146716728863  71.6912391682961 78.146716728863  C 71.6912391682961 78.146716728863  70.2526552452106 75.9852381939993  70.2526552452106 75.9852381939993  C 70.2526552452106 75.9852381939993  70.1209539001392 72.466367061735  70.1209539001392 72.466367061735  C 70.1209539001392 72.466367061735  59.664646670672 72.5141345431683  59.664646670672 72.5141345431683  C 59.664646670672 72.5141345431683  60.2851626234115 70.5019293877843  60.2851626234115 70.5019293877843  C 60.2851626234115 70.5019293877843  56.6608429157783 70.5238228167745  56.6608429157783 70.5238228167745  C 56.6608429157783 70.5238228167745  56.2784024714371 71.491114315802  56.2784024714371 71.491114315802  C 56.2784024714371 71.491114315802  51.8740055660745 71.7080582939789  51.8740055660745 71.7080582939789  C 51.8740055660745 71.7080582939789  50.0909719712642 74.9661985900856  50.0909719712642 74.9661985900856  C 50.0909719712642 74.9661985900856  49.0272303379965 76.3673780454666  49.0272303379965 76.3673780454666  C 49.0272303379965 76.3673780454666  45.1040498857788 75.5772242900885  45.1040498857788 75.5772242900885  C 45.1040498857788 75.5772242900885  42.7612855744159 76.363397422014  42.7612855744159 76.363397422014  C 42.7612855744159 76.363397422014  38.0656260789918 76.8171884956317  38.0656260789918 76.8171884956317  C 38.0656260789918 76.8171884956317  35.3454867596363 73.8894399461065  35.3454867596363 73.8894399461065  C 35.3454867596363 73.8894399461065  33.7118835371182 72.0822368985407  33.7118835371182 72.0822368985407  C 33.7118835371182 72.0822368985407  31.6755781248632 68.7345325747467  31.6755781248632 68.7345325747467  C 31.6755781248632 68.7345325747467  29.9229371481462 64.5787616900363  29.9229371481462 64.5787616900363  C 29.9229371481462 64.5787616900363  8.96722697277551 64.5051201561596  8.96722697277551 64.5051201561596  C 8.96722697277551 64.5051201561596  6.4775650072949 65.173864896228  6.4775650072949 65.173864896228  C 6.4775650072949 65.173864896228  4.41846513146976 65.0703686864556  4.41846513146976 65.0703686864556  C 4.41846513146976 65.0703686864556  1.48811020363516 65.8187258955795  1.48811020363516 65.8187258955795  C 1.48811020363516 65.8187258955795  0.495284679252054 64.0911353170697  0.495284679252054 64.0911353170697  C 0.495284679252054 64.0911353170697  2.30111273763242 63.5020030460572  2.30111273763242 63.5020030460572  C 2.30111273763242 63.5020030460572  2.5214592188092 61.0738227398567  2.5214592188092 61.0738227398567  C 2.5214592188092 61.0738227398567  3.68397686088027 59.6427886085797  3.68397686088027 59.6427886085797  C 3.68397686088027 59.6427886085797  6.26734939881579 58.4744756251863  6.26734939881579 58.4744756251863  C 6.26734939881579 58.4744756251863  8.13396269338267 59.0397241554823  8.13396269338267 59.0397241554823  C 8.13396269338267 59.0397241554823  10.5628394226768 56.9120809199675  10.5628394226768 56.9120809199675  C 10.5628394226768 56.9120809199675  14.4303000750568 56.96581933658  14.4303000750568 56.96581933658  C 14.4303000750568 56.96581933658  14.8861893464571 58.5401559121575  14.8861893464571 58.5401559121575  C 14.8861893464571 58.5401559121575  17.540477993277 59.5253602167223  17.540477993277 59.5253602167223  C 17.540477993277 59.5253602167223  21.7169302629393 56.0403243838069  21.7169302629393 56.0403243838069  C 21.7169302629393 56.0403243838069  25.8553917599852 51.8795932430597  25.8553917599852 51.8795932430597  C 25.8553917599852 51.8795932430597  27.6485562274931 50.1022448713903  27.6485562274931 50.1022448713903  C 27.6485562274931 50.1022448713903  27.4104807190953 45.5344794593163  27.4104807190953 45.5344794593163  C 27.4104807190953 45.5344794593163  30.4953314555711 40.144715304242  30.4953314555711 40.144715304242  C 30.4953314555711 40.144715304242  33.7498743097351 37.2886179768668  33.7498743097351 37.2886179768668  C 33.7498743097351 37.2886179768668  38.4252720597631 34.6176196400463  38.4252720597631 34.6176196400463  C 38.4252720597631 34.6176196400463  39.2408073119349 32.8482325152824  39.2408073119349 32.8482325152824  C 39.2408073119349 32.8482325152824  39.4180975841464 30.8161242426342  39.4180975841464 30.8161242426342  C 39.4180975841464 30.8161242426342  40.5755497898684 28.893483114938  40.5755497898684 28.893483114938  C 40.5755497898684 28.893483114938  40.203240218225 25.7507808989621  40.203240218225 25.7507808989621  C 40.203240218225 25.7507808989621  41.0871588611066 20.8367012464957  41.0871588611066 20.8367012464957  C 41.0871588611066 20.8367012464957  42.4776211388776 17.3755491542968  42.4776211388776 17.3755491542968  C 42.4776211388776 17.3755491542968  44.6025716872385 14.40998468197  44.6025716872385 14.40998468197  C 44.6025716872385 14.40998468197  45.0255356223711 11.0563094229965  45.0255356223711 11.0563094229965  C 45.0255356223711 11.0563094229965  45.6637806023315 7.18117249170796  45.6637806023315 7.18117249170796  C 45.6637806023315 7.18117249170796  48.4269761306527 4.35891046368141  48.4269761306527 4.35891046368141  C 48.4269761306527 4.35891046368141  52.2311188286713 2.56762990992696  52.2311188286713 2.56762990992696  C 52.2311188286713 2.56762990992696  58.0740996571196 4.4584260500009  58.0740996571196 4.4584260500009  C 58.0740996571196 4.4584260500009  62.5975343166812 6.50844712818669  62.5975343166812 6.50844712818669  C 62.5975343166812 6.50844712818669  67.7921392924709 7.05578285294504  67.7921392924709 7.05578285294504  C 67.7921392924709 7.05578285294504  74.9305857134133 8.14050274382963  74.9305857134133 8.14050274382963  C 74.9305857134133 8.14050274382963  77.0530035435997 4.78284686140313  77.0530035435997 4.78284686140313  C 77.0530035435997 4.78284686140313  78.0281000407616 4.3549298402285  78.0281000407616 4.3549298402285  C 78.0281000407616 4.3549298402285  81.2649138677043 4.91420743534526  81.2649138677043 4.91420743534526  C 81.2649138677043 4.91420743534526  89.1695272901519 2.13772257702571  89.1695272901519 2.13772257702571  C 89.1695272901519 2.13772257702571  91.9732463092642 3.31399680732462  91.9732463092642 3.31399680732462  C 91.9732463092642 3.31399680732462  94.2704216934872 3.14681062230762  94.2704216934872 3.14681062230762  C 94.2704216934872 3.14681062230762  95.336696044929 1.79339864835958  95.336696044929 1.79339864835958  C 95.336696044929 1.79339864835958  97.9757883827024 1.31771414575166  97.9757883827024 1.31771414575166  C 97.9757883827024 1.31771414575166  103.31729101261 1.90286579331151  103.31729101261 1.90286579331151  C 103.31729101261 1.90286579331151  107.87365100844 2.03024574380073  107.87365100844 2.03024574380073  C 107.87365100844 2.03024574380073  110.216415319803 1.44111347278796  110.216415319803 1.44111347278796  C 110.216415319803 1.44111347278796  114.519503498187 6.03276262557877  114.519503498187 6.03276262557877  C 114.519503498187 6.03276262557877  117.708195679816 6.707478300826  117.708195679816 6.707478300826  C 117.708195679816 6.707478300826  119.607734310651 5.77402210114743  119.607734310651 5.77402210114743  C 119.607734310651 5.77402210114743  122.892669782907 6.13824914707746  122.892669782907 6.13824914707746  C 122.892669782907 6.13824914707746  126.846242853219 4.96396522850517  126.846242853219 4.96396522850517  C 126.846242853219 4.96396522850517  128.5330331574 7.33641680636656  128.5330331574 7.33641680636656  Z " fill-rule="evenodd" />
    </mask>
  </defs>
  <g transform="matrix(1 0 0 1 -1927 -4311 )">
    <path d="M 128.5330331574 7.33641680636656  C 128.5330331574 7.33641680636656  134.786314330108 11.0284450588271  134.786314330108 11.0284450588271  C 134.786314330108 11.0284450588271  134.355752240453 17.5208419103236  134.355752240453 17.5208419103236  C 134.355752240453 17.5208419103236  137.20252746853 18.2711894311742  137.20252746853 18.2711894311742  C 137.20252746853 18.2711894311742  134.91801567518 20.2396077285774  134.91801567518 20.2396077285774  C 134.91801567518 20.2396077285774  132.190278201301 21.7144287178355  132.190278201301 21.7144287178355  C 132.190278201301 21.7144287178355  129.475204318294 24.6043613445592  129.475204318294 24.6043613445592  C 129.475204318294 24.6043613445592  127.983433313545 27.1818150302391  127.983433313545 27.1818150302391  C 127.983433313545 27.1818150302391  127.580731123808 31.6321520504557  127.580731123808 31.6321520504557  C 127.580731123808 31.6321520504557  125.936997028592 33.7498437273386  125.936997028592 33.7498437273386  C 125.936997028592 33.7498437273386  125.876211792406 37.9294983527655  125.876211792406 37.9294983527655  C 125.876211792406 37.9294983527655  123.834840943802 39.4759705641736  123.834840943802 39.4759705641736  C 123.834840943802 39.4759705641736  123.571438253659 42.7759074065344  123.571438253659 42.7759074065344  C 123.571438253659 42.7759074065344  122.596341756497 43.2038244277093  122.596341756497 43.2038244277093  C 122.596341756497 43.2038244277093  121.940367749316 46.2390498104599  121.940367749316 46.2390498104599  C 121.940367749316 46.2390498104599  123.7259340623 48.7627650795273  123.7259340623 48.7627650795273  C 123.7259340623 48.7627650795273  124.176757897352 56.9100906082409  124.176757897352 56.9100906082409  C 124.176757897352 56.9100906082409  125.453247857273 62.0291723685258  125.453247857273 62.0291723685258  C 125.453247857273 62.0291723685258  124.744086768428 64.9250759304287  124.744086768428 64.9250759304287  C 124.744086768428 64.9250759304287  126.164941664292 68.1613227975452  126.164941664292 68.1613227975452  C 126.164941664292 68.1613227975452  130.283141415943 71.2861122079835  130.283141415943 71.2861122079835  C 130.283141415943 71.2861122079835  134.117676732055 78.3357963428701  134.117676732055 78.3357963428701  C 134.117676732055 78.3357963428701  131.321555867466 77.7665671891216  131.321555867466 77.7665671891216  C 131.321555867466 77.7665671891216  121.7833392225 78.7119652591586  121.7833392225 78.7119652591586  C 121.7833392225 78.7119652591586  119.878735155316 79.3827003109532  119.878735155316 79.3827003109532  C 119.878735155316 79.3827003109532  117.855093333934 82.9632711067358  117.855093333934 82.9632711067358  C 117.855093333934 82.9632711067358  119.445640347486 85.4431995178225  119.445640347486 85.4431995178225  C 119.445640347486 85.4431995178225  118.184346696612 92.1127341129682  118.184346696612 92.1127341129682  C 118.184346696612 92.1127341129682  117.305493490078 97.787112844917  117.305493490078 97.787112844917  C 117.305493490078 97.787112844917  119.222761148135 98.7962008901985  119.222761148135 98.7962008901985  C 119.222761148135 98.7962008901985  124.18688877005 101.001466283043  124.18688877005 101.001466283043  C 124.18688877005 101.001466283043  126.137081764374 99.9704848087708  126.137081764374 99.9704848087708  C 126.137081764374 99.9704848087708  126.729737817194 106.100644926064  126.729737817194 106.100644926064  C 126.729737817194 106.100644926064  121.294524614832 106.05287744463  121.294524614832 106.05287744463  C 121.294524614832 106.05287744463  118.379365996044 102.922117099013  118.379365996044 102.922117099013  C 118.379365996044 102.922117099013  115.763068121841 100.501898039718  115.763068121841 100.501898039718  C 115.763068121841 100.501898039718  110.320256764955 99.7097539726132  110.320256764955 99.7097539726132  C 110.320256764955 99.7097539726132  108.727177033228 96.7402088768335  108.727177033228 96.7402088768335  C 108.727177033228 96.7402088768335  104.386098082227 98.5275088071354  104.386098082227 98.5275088071354  C 104.386098082227 98.5275088071354  98.6976130624197 97.737355051757  98.6976130624197 97.737355051757  C 98.6976130624197 97.737355051757  96.3244561329633 95.1678626129826  96.3244561329633 95.1678626129826  C 96.3244561329633 95.1678626129826  91.8162177824485 94.6464009406674  91.8162177824485 94.6464009406674  C 91.8162177824485 94.6464009406674  88.4882261012258 94.7837324497884  88.4882261012258 94.7837324497884  C 88.4882261012258 94.7837324497884  88.0829911933145 93.0262871953829  88.0829911933145 93.0262871953829  C 88.0829911933145 93.0262871953829  85.6313200004499 92.884975062809  85.6313200004499 92.884975062809  C 85.6313200004499 92.884975062809  82.3970388916819 92.5525930045012  82.3970388916819 92.5525930045012  C 82.3970388916819 92.5525930045012  78.0002401408424 93.3984754882184  78.0002401408424 93.3984754882184  C 78.0002401408424 93.3984754882184  74.9128566861923 93.2591536673711  74.9128566861923 93.2591536673711  C 74.9128566861923 93.2591536673711  73.1551502731264 93.7766347162334  73.1551502731264 93.7766347162334  C 73.1551502731264 93.7766347162334  73.5350579992935 87.06729388656  73.5350579992935 87.06729388656  C 73.5350579992935 87.06729388656  71.1669665061857 84.9794568855727  71.1669665061857 84.9794568855727  C 71.1669665061857 84.9794568855727  70.6452265622496 81.5262660402793  70.6452265622496 81.5262660402793  C 70.6452265622496 81.5262660402793  71.6912391682961 78.146716728863  71.6912391682961 78.146716728863  C 71.6912391682961 78.146716728863  70.2526552452106 75.9852381939993  70.2526552452106 75.9852381939993  C 70.2526552452106 75.9852381939993  70.1209539001392 72.466367061735  70.1209539001392 72.466367061735  C 70.1209539001392 72.466367061735  59.664646670672 72.5141345431683  59.664646670672 72.5141345431683  C 59.664646670672 72.5141345431683  60.2851626234115 70.5019293877843  60.2851626234115 70.5019293877843  C 60.2851626234115 70.5019293877843  56.6608429157783 70.5238228167745  56.6608429157783 70.5238228167745  C 56.6608429157783 70.5238228167745  56.2784024714371 71.491114315802  56.2784024714371 71.491114315802  C 56.2784024714371 71.491114315802  51.8740055660745 71.7080582939789  51.8740055660745 71.7080582939789  C 51.8740055660745 71.7080582939789  50.0909719712642 74.9661985900856  50.0909719712642 74.9661985900856  C 50.0909719712642 74.9661985900856  49.0272303379965 76.3673780454666  49.0272303379965 76.3673780454666  C 49.0272303379965 76.3673780454666  45.1040498857788 75.5772242900885  45.1040498857788 75.5772242900885  C 45.1040498857788 75.5772242900885  42.7612855744159 76.363397422014  42.7612855744159 76.363397422014  C 42.7612855744159 76.363397422014  38.0656260789918 76.8171884956317  38.0656260789918 76.8171884956317  C 38.0656260789918 76.8171884956317  35.3454867596363 73.8894399461065  35.3454867596363 73.8894399461065  C 35.3454867596363 73.8894399461065  33.7118835371182 72.0822368985407  33.7118835371182 72.0822368985407  C 33.7118835371182 72.0822368985407  31.6755781248632 68.7345325747467  31.6755781248632 68.7345325747467  C 31.6755781248632 68.7345325747467  29.9229371481462 64.5787616900363  29.9229371481462 64.5787616900363  C 29.9229371481462 64.5787616900363  8.96722697277551 64.5051201561596  8.96722697277551 64.5051201561596  C 8.96722697277551 64.5051201561596  6.4775650072949 65.173864896228  6.4775650072949 65.173864896228  C 6.4775650072949 65.173864896228  4.41846513146976 65.0703686864556  4.41846513146976 65.0703686864556  C 4.41846513146976 65.0703686864556  1.48811020363516 65.8187258955795  1.48811020363516 65.8187258955795  C 1.48811020363516 65.8187258955795  0.495284679252054 64.0911353170697  0.495284679252054 64.0911353170697  C 0.495284679252054 64.0911353170697  2.30111273763242 63.5020030460572  2.30111273763242 63.5020030460572  C 2.30111273763242 63.5020030460572  2.5214592188092 61.0738227398567  2.5214592188092 61.0738227398567  C 2.5214592188092 61.0738227398567  3.68397686088027 59.6427886085797  3.68397686088027 59.6427886085797  C 3.68397686088027 59.6427886085797  6.26734939881579 58.4744756251863  6.26734939881579 58.4744756251863  C 6.26734939881579 58.4744756251863  8.13396269338267 59.0397241554823  8.13396269338267 59.0397241554823  C 8.13396269338267 59.0397241554823  10.5628394226768 56.9120809199675  10.5628394226768 56.9120809199675  C 10.5628394226768 56.9120809199675  14.4303000750568 56.96581933658  14.4303000750568 56.96581933658  C 14.4303000750568 56.96581933658  14.8861893464571 58.5401559121575  14.8861893464571 58.5401559121575  C 14.8861893464571 58.5401559121575  17.540477993277 59.5253602167223  17.540477993277 59.5253602167223  C 17.540477993277 59.5253602167223  21.7169302629393 56.0403243838069  21.7169302629393 56.0403243838069  C 21.7169302629393 56.0403243838069  25.8553917599852 51.8795932430597  25.8553917599852 51.8795932430597  C 25.8553917599852 51.8795932430597  27.6485562274931 50.1022448713903  27.6485562274931 50.1022448713903  C 27.6485562274931 50.1022448713903  27.4104807190953 45.5344794593163  27.4104807190953 45.5344794593163  C 27.4104807190953 45.5344794593163  30.4953314555711 40.144715304242  30.4953314555711 40.144715304242  C 30.4953314555711 40.144715304242  33.7498743097351 37.2886179768668  33.7498743097351 37.2886179768668  C 33.7498743097351 37.2886179768668  38.4252720597631 34.6176196400463  38.4252720597631 34.6176196400463  C 38.4252720597631 34.6176196400463  39.2408073119349 32.8482325152824  39.2408073119349 32.8482325152824  C 39.2408073119349 32.8482325152824  39.4180975841464 30.8161242426342  39.4180975841464 30.8161242426342  C 39.4180975841464 30.8161242426342  40.5755497898684 28.893483114938  40.5755497898684 28.893483114938  C 40.5755497898684 28.893483114938  40.203240218225 25.7507808989621  40.203240218225 25.7507808989621  C 40.203240218225 25.7507808989621  41.0871588611066 20.8367012464957  41.0871588611066 20.8367012464957  C 41.0871588611066 20.8367012464957  42.4776211388776 17.3755491542968  42.4776211388776 17.3755491542968  C 42.4776211388776 17.3755491542968  44.6025716872385 14.40998468197  44.6025716872385 14.40998468197  C 44.6025716872385 14.40998468197  45.0255356223711 11.0563094229965  45.0255356223711 11.0563094229965  C 45.0255356223711 11.0563094229965  45.6637806023315 7.18117249170796  45.6637806023315 7.18117249170796  C 45.6637806023315 7.18117249170796  48.4269761306527 4.35891046368141  48.4269761306527 4.35891046368141  C 48.4269761306527 4.35891046368141  52.2311188286713 2.56762990992696  52.2311188286713 2.56762990992696  C 52.2311188286713 2.56762990992696  58.0740996571196 4.4584260500009  58.0740996571196 4.4584260500009  C 58.0740996571196 4.4584260500009  62.5975343166812 6.50844712818669  62.5975343166812 6.50844712818669  C 62.5975343166812 6.50844712818669  67.7921392924709 7.05578285294504  67.7921392924709 7.05578285294504  C 67.7921392924709 7.05578285294504  74.9305857134133 8.14050274382963  74.9305857134133 8.14050274382963  C 74.9305857134133 8.14050274382963  77.0530035435997 4.78284686140313  77.0530035435997 4.78284686140313  C 77.0530035435997 4.78284686140313  78.0281000407616 4.3549298402285  78.0281000407616 4.3549298402285  C 78.0281000407616 4.3549298402285  81.2649138677043 4.91420743534526  81.2649138677043 4.91420743534526  C 81.2649138677043 4.91420743534526  89.1695272901519 2.13772257702571  89.1695272901519 2.13772257702571  C 89.1695272901519 2.13772257702571  91.9732463092642 3.31399680732462  91.9732463092642 3.31399680732462  C 91.9732463092642 3.31399680732462  94.2704216934872 3.14681062230762  94.2704216934872 3.14681062230762  C 94.2704216934872 3.14681062230762  95.336696044929 1.79339864835958  95.336696044929 1.79339864835958  C 95.336696044929 1.79339864835958  97.9757883827024 1.31771414575166  97.9757883827024 1.31771414575166  C 97.9757883827024 1.31771414575166  103.31729101261 1.90286579331151  103.31729101261 1.90286579331151  C 103.31729101261 1.90286579331151  107.87365100844 2.03024574380073  107.87365100844 2.03024574380073  C 107.87365100844 2.03024574380073  110.216415319803 1.44111347278796  110.216415319803 1.44111347278796  C 110.216415319803 1.44111347278796  114.519503498187 6.03276262557877  114.519503498187 6.03276262557877  C 114.519503498187 6.03276262557877  117.708195679816 6.707478300826  117.708195679816 6.707478300826  C 117.708195679816 6.707478300826  119.607734310651 5.77402210114743  119.607734310651 5.77402210114743  C 119.607734310651 5.77402210114743  122.892669782907 6.13824914707746  122.892669782907 6.13824914707746  C 122.892669782907 6.13824914707746  126.846242853219 4.96396522850517  126.846242853219 4.96396522850517  C 126.846242853219 4.96396522850517  128.5330331574 7.33641680636656  128.5330331574 7.33641680636656  Z " fill-rule="nonzero" fill="#f2f2f2" stroke="none" transform="matrix(1 0 0 1 1927 4311 )" />
    <path d="M 128.5330331574 7.33641680636656  C 128.5330331574 7.33641680636656  134.786314330108 11.0284450588271  134.786314330108 11.0284450588271  C 134.786314330108 11.0284450588271  134.355752240453 17.5208419103236  134.355752240453 17.5208419103236  C 134.355752240453 17.5208419103236  137.20252746853 18.2711894311742  137.20252746853 18.2711894311742  C 137.20252746853 18.2711894311742  134.91801567518 20.2396077285774  134.91801567518 20.2396077285774  C 134.91801567518 20.2396077285774  132.190278201301 21.7144287178355  132.190278201301 21.7144287178355  C 132.190278201301 21.7144287178355  129.475204318294 24.6043613445592  129.475204318294 24.6043613445592  C 129.475204318294 24.6043613445592  127.983433313545 27.1818150302391  127.983433313545 27.1818150302391  C 127.983433313545 27.1818150302391  127.580731123808 31.6321520504557  127.580731123808 31.6321520504557  C 127.580731123808 31.6321520504557  125.936997028592 33.7498437273386  125.936997028592 33.7498437273386  C 125.936997028592 33.7498437273386  125.876211792406 37.9294983527655  125.876211792406 37.9294983527655  C 125.876211792406 37.9294983527655  123.834840943802 39.4759705641736  123.834840943802 39.4759705641736  C 123.834840943802 39.4759705641736  123.571438253659 42.7759074065344  123.571438253659 42.7759074065344  C 123.571438253659 42.7759074065344  122.596341756497 43.2038244277093  122.596341756497 43.2038244277093  C 122.596341756497 43.2038244277093  121.940367749316 46.2390498104599  121.940367749316 46.2390498104599  C 121.940367749316 46.2390498104599  123.7259340623 48.7627650795273  123.7259340623 48.7627650795273  C 123.7259340623 48.7627650795273  124.176757897352 56.9100906082409  124.176757897352 56.9100906082409  C 124.176757897352 56.9100906082409  125.453247857273 62.0291723685258  125.453247857273 62.0291723685258  C 125.453247857273 62.0291723685258  124.744086768428 64.9250759304287  124.744086768428 64.9250759304287  C 124.744086768428 64.9250759304287  126.164941664292 68.1613227975452  126.164941664292 68.1613227975452  C 126.164941664292 68.1613227975452  130.283141415943 71.2861122079835  130.283141415943 71.2861122079835  C 130.283141415943 71.2861122079835  134.117676732055 78.3357963428701  134.117676732055 78.3357963428701  C 134.117676732055 78.3357963428701  131.321555867466 77.7665671891216  131.321555867466 77.7665671891216  C 131.321555867466 77.7665671891216  121.7833392225 78.7119652591586  121.7833392225 78.7119652591586  C 121.7833392225 78.7119652591586  119.878735155316 79.3827003109532  119.878735155316 79.3827003109532  C 119.878735155316 79.3827003109532  117.855093333934 82.9632711067358  117.855093333934 82.9632711067358  C 117.855093333934 82.9632711067358  119.445640347486 85.4431995178225  119.445640347486 85.4431995178225  C 119.445640347486 85.4431995178225  118.184346696612 92.1127341129682  118.184346696612 92.1127341129682  C 118.184346696612 92.1127341129682  117.305493490078 97.787112844917  117.305493490078 97.787112844917  C 117.305493490078 97.787112844917  119.222761148135 98.7962008901985  119.222761148135 98.7962008901985  C 119.222761148135 98.7962008901985  124.18688877005 101.001466283043  124.18688877005 101.001466283043  C 124.18688877005 101.001466283043  126.137081764374 99.9704848087708  126.137081764374 99.9704848087708  C 126.137081764374 99.9704848087708  126.729737817194 106.100644926064  126.729737817194 106.100644926064  C 126.729737817194 106.100644926064  121.294524614832 106.05287744463  121.294524614832 106.05287744463  C 121.294524614832 106.05287744463  118.379365996044 102.922117099013  118.379365996044 102.922117099013  C 118.379365996044 102.922117099013  115.763068121841 100.501898039718  115.763068121841 100.501898039718  C 115.763068121841 100.501898039718  110.320256764955 99.7097539726132  110.320256764955 99.7097539726132  C 110.320256764955 99.7097539726132  108.727177033228 96.7402088768335  108.727177033228 96.7402088768335  C 108.727177033228 96.7402088768335  104.386098082227 98.5275088071354  104.386098082227 98.5275088071354  C 104.386098082227 98.5275088071354  98.6976130624197 97.737355051757  98.6976130624197 97.737355051757  C 98.6976130624197 97.737355051757  96.3244561329633 95.1678626129826  96.3244561329633 95.1678626129826  C 96.3244561329633 95.1678626129826  91.8162177824485 94.6464009406674  91.8162177824485 94.6464009406674  C 91.8162177824485 94.6464009406674  88.4882261012258 94.7837324497884  88.4882261012258 94.7837324497884  C 88.4882261012258 94.7837324497884  88.0829911933145 93.0262871953829  88.0829911933145 93.0262871953829  C 88.0829911933145 93.0262871953829  85.6313200004499 92.884975062809  85.6313200004499 92.884975062809  C 85.6313200004499 92.884975062809  82.3970388916819 92.5525930045012  82.3970388916819 92.5525930045012  C 82.3970388916819 92.5525930045012  78.0002401408424 93.3984754882184  78.0002401408424 93.3984754882184  C 78.0002401408424 93.3984754882184  74.9128566861923 93.2591536673711  74.9128566861923 93.2591536673711  C 74.9128566861923 93.2591536673711  73.1551502731264 93.7766347162334  73.1551502731264 93.7766347162334  C 73.1551502731264 93.7766347162334  73.5350579992935 87.06729388656  73.5350579992935 87.06729388656  C 73.5350579992935 87.06729388656  71.1669665061857 84.9794568855727  71.1669665061857 84.9794568855727  C 71.1669665061857 84.9794568855727  70.6452265622496 81.5262660402793  70.6452265622496 81.5262660402793  C 70.6452265622496 81.5262660402793  71.6912391682961 78.146716728863  71.6912391682961 78.146716728863  C 71.6912391682961 78.146716728863  70.2526552452106 75.9852381939993  70.2526552452106 75.9852381939993  C 70.2526552452106 75.9852381939993  70.1209539001392 72.466367061735  70.1209539001392 72.466367061735  C 70.1209539001392 72.466367061735  59.664646670672 72.5141345431683  59.664646670672 72.5141345431683  C 59.664646670672 72.5141345431683  60.2851626234115 70.5019293877843  60.2851626234115 70.5019293877843  C 60.2851626234115 70.5019293877843  56.6608429157783 70.5238228167745  56.6608429157783 70.5238228167745  C 56.6608429157783 70.5238228167745  56.2784024714371 71.491114315802  56.2784024714371 71.491114315802  C 56.2784024714371 71.491114315802  51.8740055660745 71.7080582939789  51.8740055660745 71.7080582939789  C 51.8740055660745 71.7080582939789  50.0909719712642 74.9661985900856  50.0909719712642 74.9661985900856  C 50.0909719712642 74.9661985900856  49.0272303379965 76.3673780454666  49.0272303379965 76.3673780454666  C 49.0272303379965 76.3673780454666  45.1040498857788 75.5772242900885  45.1040498857788 75.5772242900885  C 45.1040498857788 75.5772242900885  42.7612855744159 76.363397422014  42.7612855744159 76.363397422014  C 42.7612855744159 76.363397422014  38.0656260789918 76.8171884956317  38.0656260789918 76.8171884956317  C 38.0656260789918 76.8171884956317  35.3454867596363 73.8894399461065  35.3454867596363 73.8894399461065  C 35.3454867596363 73.8894399461065  33.7118835371182 72.0822368985407  33.7118835371182 72.0822368985407  C 33.7118835371182 72.0822368985407  31.6755781248632 68.7345325747467  31.6755781248632 68.7345325747467  C 31.6755781248632 68.7345325747467  29.9229371481462 64.5787616900363  29.9229371481462 64.5787616900363  C 29.9229371481462 64.5787616900363  8.96722697277551 64.5051201561596  8.96722697277551 64.5051201561596  C 8.96722697277551 64.5051201561596  6.4775650072949 65.173864896228  6.4775650072949 65.173864896228  C 6.4775650072949 65.173864896228  4.41846513146976 65.0703686864556  4.41846513146976 65.0703686864556  C 4.41846513146976 65.0703686864556  1.48811020363516 65.8187258955795  1.48811020363516 65.8187258955795  C 1.48811020363516 65.8187258955795  0.495284679252054 64.0911353170697  0.495284679252054 64.0911353170697  C 0.495284679252054 64.0911353170697  2.30111273763242 63.5020030460572  2.30111273763242 63.5020030460572  C 2.30111273763242 63.5020030460572  2.5214592188092 61.0738227398567  2.5214592188092 61.0738227398567  C 2.5214592188092 61.0738227398567  3.68397686088027 59.6427886085797  3.68397686088027 59.6427886085797  C 3.68397686088027 59.6427886085797  6.26734939881579 58.4744756251863  6.26734939881579 58.4744756251863  C 6.26734939881579 58.4744756251863  8.13396269338267 59.0397241554823  8.13396269338267 59.0397241554823  C 8.13396269338267 59.0397241554823  10.5628394226768 56.9120809199675  10.5628394226768 56.9120809199675  C 10.5628394226768 56.9120809199675  14.4303000750568 56.96581933658  14.4303000750568 56.96581933658  C 14.4303000750568 56.96581933658  14.8861893464571 58.5401559121575  14.8861893464571 58.5401559121575  C 14.8861893464571 58.5401559121575  17.540477993277 59.5253602167223  17.540477993277 59.5253602167223  C 17.540477993277 59.5253602167223  21.7169302629393 56.0403243838069  21.7169302629393 56.0403243838069  C 21.7169302629393 56.0403243838069  25.8553917599852 51.8795932430597  25.8553917599852 51.8795932430597  C 25.8553917599852 51.8795932430597  27.6485562274931 50.1022448713903  27.6485562274931 50.1022448713903  C 27.6485562274931 50.1022448713903  27.4104807190953 45.5344794593163  27.4104807190953 45.5344794593163  C 27.4104807190953 45.5344794593163  30.4953314555711 40.144715304242  30.4953314555711 40.144715304242  C 30.4953314555711 40.144715304242  33.7498743097351 37.2886179768668  33.7498743097351 37.2886179768668  C 33.7498743097351 37.2886179768668  38.4252720597631 34.6176196400463  38.4252720597631 34.6176196400463  C 38.4252720597631 34.6176196400463  39.2408073119349 32.8482325152824  39.2408073119349 32.8482325152824  C 39.2408073119349 32.8482325152824  39.4180975841464 30.8161242426342  39.4180975841464 30.8161242426342  C 39.4180975841464 30.8161242426342  40.5755497898684 28.893483114938  40.5755497898684 28.893483114938  C 40.5755497898684 28.893483114938  40.203240218225 25.7507808989621  40.203240218225 25.7507808989621  C 40.203240218225 25.7507808989621  41.0871588611066 20.8367012464957  41.0871588611066 20.8367012464957  C 41.0871588611066 20.8367012464957  42.4776211388776 17.3755491542968  42.4776211388776 17.3755491542968  C 42.4776211388776 17.3755491542968  44.6025716872385 14.40998468197  44.6025716872385 14.40998468197  C 44.6025716872385 14.40998468197  45.0255356223711 11.0563094229965  45.0255356223711 11.0563094229965  C 45.0255356223711 11.0563094229965  45.6637806023315 7.18117249170796  45.6637806023315 7.18117249170796  C 45.6637806023315 7.18117249170796  48.4269761306527 4.35891046368141  48.4269761306527 4.35891046368141  C 48.4269761306527 4.35891046368141  52.2311188286713 2.56762990992696  52.2311188286713 2.56762990992696  C 52.2311188286713 2.56762990992696  58.0740996571196 4.4584260500009  58.0740996571196 4.4584260500009  C 58.0740996571196 4.4584260500009  62.5975343166812 6.50844712818669  62.5975343166812 6.50844712818669  C 62.5975343166812 6.50844712818669  67.7921392924709 7.05578285294504  67.7921392924709 7.05578285294504  C 67.7921392924709 7.05578285294504  74.9305857134133 8.14050274382963  74.9305857134133 8.14050274382963  C 74.9305857134133 8.14050274382963  77.0530035435997 4.78284686140313  77.0530035435997 4.78284686140313  C 77.0530035435997 4.78284686140313  78.0281000407616 4.3549298402285  78.0281000407616 4.3549298402285  C 78.0281000407616 4.3549298402285  81.2649138677043 4.91420743534526  81.2649138677043 4.91420743534526  C 81.2649138677043 4.91420743534526  89.1695272901519 2.13772257702571  89.1695272901519 2.13772257702571  C 89.1695272901519 2.13772257702571  91.9732463092642 3.31399680732462  91.9732463092642 3.31399680732462  C 91.9732463092642 3.31399680732462  94.2704216934872 3.14681062230762  94.2704216934872 3.14681062230762  C 94.2704216934872 3.14681062230762  95.336696044929 1.79339864835958  95.336696044929 1.79339864835958  C 95.336696044929 1.79339864835958  97.9757883827024 1.31771414575166  97.9757883827024 1.31771414575166  C 97.9757883827024 1.31771414575166  103.31729101261 1.90286579331151  103.31729101261 1.90286579331151  C 103.31729101261 1.90286579331151  107.87365100844 2.03024574380073  107.87365100844 2.03024574380073  C 107.87365100844 2.03024574380073  110.216415319803 1.44111347278796  110.216415319803 1.44111347278796  C 110.216415319803 1.44111347278796  114.519503498187 6.03276262557877  114.519503498187 6.03276262557877  C 114.519503498187 6.03276262557877  117.708195679816 6.707478300826  117.708195679816 6.707478300826  C 117.708195679816 6.707478300826  119.607734310651 5.77402210114743  119.607734310651 5.77402210114743  C 119.607734310651 5.77402210114743  122.892669782907 6.13824914707746  122.892669782907 6.13824914707746  C 122.892669782907 6.13824914707746  126.846242853219 4.96396522850517  126.846242853219 4.96396522850517  C 126.846242853219 4.96396522850517  128.5330331574 7.33641680636656  128.5330331574 7.33641680636656  Z " stroke-width="2" stroke="#505050" fill="none" stroke-opacity="0.211764705882353" transform="matrix(1 0 0 1 1927 4311 )" mask="url(#clip68)" />
  </g>
</svg>