<?xml version="1.0" encoding="utf-8"?>
<svg version="1.1" xmlns:xlink="http://www.w3.org/1999/xlink" width="95px" height="51px" xmlns="http://www.w3.org/2000/svg">
  <defs>
    <mask fill="white" id="clip69">
      <path d="M 2.38486441165968 27.5816842534939  C 2.38486441165968 27.5816842534939  6.00014147332986 20.6211406806143  6.00014147332986 20.6211406806143  C 6.00014147332986 20.6211406806143  11.9461184279487 20.2077386742418  11.9461184279487 20.2077386742418  C 11.9461184279487 20.2077386742418  13.2691559909428 18.7998318412185  13.2691559909428 18.7998318412185  C 13.2691559909428 18.7998318412185  14.4614282134086 18.9051323522757  14.4614282134086 18.9051323522757  C 14.4614282134086 18.9051323522757  16.2562466128193 20.1472883808574  16.2562466128193 20.1472883808574  C 16.2562466128193 20.1472883808574  25.3072593984186 18.0490781975704  25.3072593984186 18.0490781975704  C 25.3072593984186 18.0490781975704  28.3584506774167 15.9079678060748  28.3584506774167 15.9079678060748  C 28.3584506774167 15.9079678060748  32.1096211321851 13.9891584934779  32.1096211321851 13.9891584934779  C 32.1096211321851 13.9891584934779  31.3968218249905 12.0547491051686  31.3968218249905 12.0547491051686  C 31.3968218249905 12.0547491051686  33.4249666163243 11.5477466445231  33.4249666163243 11.5477466445231  C 33.4249666163243 11.5477466445231  40.368349795759 11.8909483101909  40.368349795759 11.8909483101909  C 40.368349795759 11.8909483101909  48.9949962332915 9.34033593125105  48.9949962332915 9.34033593125105  C 48.9949962332915 9.34033593125105  54.1922775127277 3.32260672528126  54.1922775127277 3.32260672528126  C 54.1922775127277 3.32260672528126  57.8408869161012 1.08399586058454  57.8408869161012 1.08399586058454  C 57.8408869161012 1.08399586058454  62.3920335717496 0.138241270534309  62.3920335717496 0.138241270534309  C 62.3920335717496 0.138241270534309  63.2073939303389 2.50750276932016  63.2073939303389 2.50750276932016  C 63.2073939303389 2.50750276932016  67.3534244329776 5.96096953010203  67.3534244329776 5.96096953010203  C 67.3534244329776 5.96096953010203  67.3739366432564 8.20933044211868  67.3739366432564 8.20933044211868  C 67.3739366432564 8.20933044211868  66.2073046836397 10.5005915623435  66.2073046836397 10.5005915623435  C 66.2073046836397 10.5005915623435  66.6662653886319 12.2107498622903  66.6662653886319 12.2107498622903  C 66.6662653886319 12.2107498622903  69.1610629638124 13.7941575470755  69.1610629638124 13.7941575470755  C 69.1610629638124 13.7941575470755  74.6352590820149 16.194619197286  74.6352590820149 16.194619197286  C 74.6352590820149 16.194619197286  78.5710394292942 18.4098299484141  78.5710394292942 18.4098299484141  C 78.5710394292942 18.4098299484141  78.6377041127008 20.1921385985298  78.6377041127008 20.1921385985298  C 78.6377041127008 20.1921385985298  83.47345768597 23.0430524349289  83.47345768597 23.0430524349289  C 83.47345768597 23.0430524349289  86.4682403867009 26.8270305909175  86.4682403867009 26.8270305909175  C 86.4682403867009 26.8270305909175  88.2835709963905 30.1049964999375  88.2835709963905 30.1049964999375  C 88.2835709963905 30.1049964999375  93.6577700894829 32.2656069860729  93.6577700894829 32.2656069860729  C 93.6577700894829 32.2656069860729  94.8141459439604 33.9952653806599  94.8141459439604 33.9952653806599  C 94.8141459439604 33.9952653806599  92.4424216304536 34.5724681820104  92.4424216304536 34.5724681820104  C 92.4424216304536 34.5724681820104  87.8297383439682 34.447667576313  87.8297383439682 34.447667576313  C 87.8297383439682 34.447667576313  82.4222069091723 33.8743647938906  82.4222069091723 33.8743647938906  C 82.4222069091723 33.8743647938906  79.7504915203352 34.3404170557915  79.7504915203352 34.3404170557915  C 79.7504915203352 34.3404170557915  78.6710364544041 35.6664234913263  78.6710364544041 35.6664234913263  C 78.6710364544041 35.6664234913263  76.3454646140249 35.830224286304  76.3454646140249 35.830224286304  C 76.3454646140249 35.830224286304  73.5070875166712 34.6777686930672  73.5070875166712 34.6777686930672  C 73.5070875166712 34.6777686930672  65.5047614815847 37.3980318953772  65.5047614815847 37.3980318953772  C 65.5047614815847 37.3980318953772  62.2279358895178 36.8500792359871  62.2279358895178 36.8500792359871  C 62.2279358895178 36.8500792359871  61.240785769842 37.2693312707517  61.240785769842 37.2693312707517  C 61.240785769842 37.2693312707517  59.0921317431188 40.5589972365558  59.0921317431188 40.5589972365558  C 59.0921317431188 40.5589972365558  53.7281887551658 39.4962420786642  53.7281887551658 39.4962420786642  C 53.7281887551658 39.4962420786642  48.4693708448927 38.9599894760583  48.4693708448927 38.9599894760583  C 48.4693708448927 38.9599894760583  42.0272748020712 36.9514797281161  42.0272748020712 36.9514797281161  C 42.0272748020712 36.9514797281161  36.1120661628705 35.098970737296  36.1120661628705 35.098970737296  C 36.1120661628705 35.098970737296  32.2608986829924 36.8539792549153  32.2608986829924 36.8539792549153  C 32.2608986829924 36.8539792549153  29.4635460061967 39.6190926748977  29.4635460061967 39.6190926748977  C 29.4635460061967 39.6190926748977  28.8174113824089 43.415761101347  28.8174113824089 43.415761101347  C 28.8174113824089 43.415761101347  24.191907964499 43.1115596249599  24.191907964499 43.1115596249599  C 24.191907964499 43.1115596249599  19.3279501020964 42.1970051863337  19.3279501020964 42.1970051863337  C 19.3279501020964 42.1970051863337  15.0434621800745 45.0810691836214  15.0434621800745 45.0810691836214  C 15.0434621800745 45.0810691836214  11.2717795150273 50.1413437427568  11.2717795150273 50.1413437427568  C 11.2717795150273 50.1413437427568  10.51539176099 48.5657360958273  10.51539176099 48.5657360958273  C 10.51539176099 48.5657360958273  10.1923244490962 46.0853240575921  10.1923244490962 46.0853240575921  C 10.1923244490962 46.0853240575921  6.90524275188973 44.336165568365  6.90524275188973 44.336165568365  C 6.90524275188973 44.336165568365  4.25147554704686 41.5262019307105  4.25147554704686 41.5262019307105  C 4.25147554704686 41.5262019307105  3.63867326496241 39.572292447761  3.63867326496241 39.572292447761  C 3.63867326496241 39.572292447761  0.241338437506362 36.727228639754  0.241338437506362 36.727228639754  C 0.241338437506362 36.727228639754  0.820808377887497 35.1028707562239  0.820808377887497 35.1028707562239  C 0.820808377887497 35.1028707562239  0.105445044408146 32.805759607607  0.105445044408146 32.805759607607  C 0.105445044408146 32.805759607607  0.659274721940608 28.5742390706804  0.659274721940608 28.5742390706804  C 0.659274721940608 28.5742390706804  2.38486441165968 27.5816842534939  2.38486441165968 27.5816842534939  Z " fill-rule="evenodd" />
    </mask>
  </defs>
  <g transform="matrix(1 0 0 1 -1942 -4279 )">
    <path d="M 2.38486441165968 27.5816842534939  C 2.38486441165968 27.5816842534939  6.00014147332986 20.6211406806143  6.00014147332986 20.6211406806143  C 6.00014147332986 20.6211406806143  11.9461184279487 20.2077386742418  11.9461184279487 20.2077386742418  C 11.9461184279487 20.2077386742418  13.2691559909428 18.7998318412185  13.2691559909428 18.7998318412185  C 13.2691559909428 18.7998318412185  14.4614282134086 18.9051323522757  14.4614282134086 18.9051323522757  C 14.4614282134086 18.9051323522757  16.2562466128193 20.1472883808574  16.2562466128193 20.1472883808574  C 16.2562466128193 20.1472883808574  25.3072593984186 18.0490781975704  25.3072593984186 18.0490781975704  C 25.3072593984186 18.0490781975704  28.3584506774167 15.9079678060748  28.3584506774167 15.9079678060748  C 28.3584506774167 15.9079678060748  32.1096211321851 13.9891584934779  32.1096211321851 13.9891584934779  C 32.1096211321851 13.9891584934779  31.3968218249905 12.0547491051686  31.3968218249905 12.0547491051686  C 31.3968218249905 12.0547491051686  33.4249666163243 11.5477466445231  33.4249666163243 11.5477466445231  C 33.4249666163243 11.5477466445231  40.368349795759 11.8909483101909  40.368349795759 11.8909483101909  C 40.368349795759 11.8909483101909  48.9949962332915 9.34033593125105  48.9949962332915 9.34033593125105  C 48.9949962332915 9.34033593125105  54.1922775127277 3.32260672528126  54.1922775127277 3.32260672528126  C 54.1922775127277 3.32260672528126  57.8408869161012 1.08399586058454  57.8408869161012 1.08399586058454  C 57.8408869161012 1.08399586058454  62.3920335717496 0.138241270534309  62.3920335717496 0.138241270534309  C 62.3920335717496 0.138241270534309  63.2073939303389 2.50750276932016  63.2073939303389 2.50750276932016  C 63.2073939303389 2.50750276932016  67.3534244329776 5.96096953010203  67.3534244329776 5.96096953010203  C 67.3534244329776 5.96096953010203  67.3739366432564 8.20933044211868  67.3739366432564 8.20933044211868  C 67.3739366432564 8.20933044211868  66.2073046836397 10.5005915623435  66.2073046836397 10.5005915623435  C 66.2073046836397 10.5005915623435  66.6662653886319 12.2107498622903  66.6662653886319 12.2107498622903  C 66.6662653886319 12.2107498622903  69.1610629638124 13.7941575470755  69.1610629638124 13.7941575470755  C 69.1610629638124 13.7941575470755  74.6352590820149 16.194619197286  74.6352590820149 16.194619197286  C 74.6352590820149 16.194619197286  78.5710394292942 18.4098299484141  78.5710394292942 18.4098299484141  C 78.5710394292942 18.4098299484141  78.6377041127008 20.1921385985298  78.6377041127008 20.1921385985298  C 78.6377041127008 20.1921385985298  83.47345768597 23.0430524349289  83.47345768597 23.0430524349289  C 83.47345768597 23.0430524349289  86.4682403867009 26.8270305909175  86.4682403867009 26.8270305909175  C 86.4682403867009 26.8270305909175  88.2835709963905 30.1049964999375  88.2835709963905 30.1049964999375  C 88.2835709963905 30.1049964999375  93.6577700894829 32.2656069860729  93.6577700894829 32.2656069860729  C 93.6577700894829 32.2656069860729  94.8141459439604 33.9952653806599  94.8141459439604 33.9952653806599  C 94.8141459439604 33.9952653806599  92.4424216304536 34.5724681820104  92.4424216304536 34.5724681820104  C 92.4424216304536 34.5724681820104  87.8297383439682 34.447667576313  87.8297383439682 34.447667576313  C 87.8297383439682 34.447667576313  82.4222069091723 33.8743647938906  82.4222069091723 33.8743647938906  C 82.4222069091723 33.8743647938906  79.7504915203352 34.3404170557915  79.7504915203352 34.3404170557915  C 79.7504915203352 34.3404170557915  78.6710364544041 35.6664234913263  78.6710364544041 35.6664234913263  C 78.6710364544041 35.6664234913263  76.3454646140249 35.830224286304  76.3454646140249 35.830224286304  C 76.3454646140249 35.830224286304  73.5070875166712 34.6777686930672  73.5070875166712 34.6777686930672  C 73.5070875166712 34.6777686930672  65.5047614815847 37.3980318953772  65.5047614815847 37.3980318953772  C 65.5047614815847 37.3980318953772  62.2279358895178 36.8500792359871  62.2279358895178 36.8500792359871  C 62.2279358895178 36.8500792359871  61.240785769842 37.2693312707517  61.240785769842 37.2693312707517  C 61.240785769842 37.2693312707517  59.0921317431188 40.5589972365558  59.0921317431188 40.5589972365558  C 59.0921317431188 40.5589972365558  53.7281887551658 39.4962420786642  53.7281887551658 39.4962420786642  C 53.7281887551658 39.4962420786642  48.4693708448927 38.9599894760583  48.4693708448927 38.9599894760583  C 48.4693708448927 38.9599894760583  42.0272748020712 36.9514797281161  42.0272748020712 36.9514797281161  C 42.0272748020712 36.9514797281161  36.1120661628705 35.098970737296  36.1120661628705 35.098970737296  C 36.1120661628705 35.098970737296  32.2608986829924 36.8539792549153  32.2608986829924 36.8539792549153  C 32.2608986829924 36.8539792549153  29.4635460061967 39.6190926748977  29.4635460061967 39.6190926748977  C 29.4635460061967 39.6190926748977  28.8174113824089 43.415761101347  28.8174113824089 43.415761101347  C 28.8174113824089 43.415761101347  24.191907964499 43.1115596249599  24.191907964499 43.1115596249599  C 24.191907964499 43.1115596249599  19.3279501020964 42.1970051863337  19.3279501020964 42.1970051863337  C 19.3279501020964 42.1970051863337  15.0434621800745 45.0810691836214  15.0434621800745 45.0810691836214  C 15.0434621800745 45.0810691836214  11.2717795150273 50.1413437427568  11.2717795150273 50.1413437427568  C 11.2717795150273 50.1413437427568  10.51539176099 48.5657360958273  10.51539176099 48.5657360958273  C 10.51539176099 48.5657360958273  10.1923244490962 46.0853240575921  10.1923244490962 46.0853240575921  C 10.1923244490962 46.0853240575921  6.90524275188973 44.336165568365  6.90524275188973 44.336165568365  C 6.90524275188973 44.336165568365  4.25147554704686 41.5262019307105  4.25147554704686 41.5262019307105  C 4.25147554704686 41.5262019307105  3.63867326496241 39.572292447761  3.63867326496241 39.572292447761  C 3.63867326496241 39.572292447761  0.241338437506362 36.727228639754  0.241338437506362 36.727228639754  C 0.241338437506362 36.727228639754  0.820808377887497 35.1028707562239  0.820808377887497 35.1028707562239  C 0.820808377887497 35.1028707562239  0.105445044408146 32.805759607607  0.105445044408146 32.805759607607  C 0.105445044408146 32.805759607607  0.659274721940608 28.5742390706804  0.659274721940608 28.5742390706804  C 0.659274721940608 28.5742390706804  2.38486441165968 27.5816842534939  2.38486441165968 27.5816842534939  Z " fill-rule="nonzero" fill="#f2f2f2" stroke="none" transform="matrix(1 0 0 1 1942 4279 )" />
    <path d="M 2.38486441165968 27.5816842534939  C 2.38486441165968 27.5816842534939  6.00014147332986 20.6211406806143  6.00014147332986 20.6211406806143  C 6.00014147332986 20.6211406806143  11.9461184279487 20.2077386742418  11.9461184279487 20.2077386742418  C 11.9461184279487 20.2077386742418  13.2691559909428 18.7998318412185  13.2691559909428 18.7998318412185  C 13.2691559909428 18.7998318412185  14.4614282134086 18.9051323522757  14.4614282134086 18.9051323522757  C 14.4614282134086 18.9051323522757  16.2562466128193 20.1472883808574  16.2562466128193 20.1472883808574  C 16.2562466128193 20.1472883808574  25.3072593984186 18.0490781975704  25.3072593984186 18.0490781975704  C 25.3072593984186 18.0490781975704  28.3584506774167 15.9079678060748  28.3584506774167 15.9079678060748  C 28.3584506774167 15.9079678060748  32.1096211321851 13.9891584934779  32.1096211321851 13.9891584934779  C 32.1096211321851 13.9891584934779  31.3968218249905 12.0547491051686  31.3968218249905 12.0547491051686  C 31.3968218249905 12.0547491051686  33.4249666163243 11.5477466445231  33.4249666163243 11.5477466445231  C 33.4249666163243 11.5477466445231  40.368349795759 11.8909483101909  40.368349795759 11.8909483101909  C 40.368349795759 11.8909483101909  48.9949962332915 9.34033593125105  48.9949962332915 9.34033593125105  C 48.9949962332915 9.34033593125105  54.1922775127277 3.32260672528126  54.1922775127277 3.32260672528126  C 54.1922775127277 3.32260672528126  57.8408869161012 1.08399586058454  57.8408869161012 1.08399586058454  C 57.8408869161012 1.08399586058454  62.3920335717496 0.138241270534309  62.3920335717496 0.138241270534309  C 62.3920335717496 0.138241270534309  63.2073939303389 2.50750276932016  63.2073939303389 2.50750276932016  C 63.2073939303389 2.50750276932016  67.3534244329776 5.96096953010203  67.3534244329776 5.96096953010203  C 67.3534244329776 5.96096953010203  67.3739366432564 8.20933044211868  67.3739366432564 8.20933044211868  C 67.3739366432564 8.20933044211868  66.2073046836397 10.5005915623435  66.2073046836397 10.5005915623435  C 66.2073046836397 10.5005915623435  66.6662653886319 12.2107498622903  66.6662653886319 12.2107498622903  C 66.6662653886319 12.2107498622903  69.1610629638124 13.7941575470755  69.1610629638124 13.7941575470755  C 69.1610629638124 13.7941575470755  74.6352590820149 16.194619197286  74.6352590820149 16.194619197286  C 74.6352590820149 16.194619197286  78.5710394292942 18.4098299484141  78.5710394292942 18.4098299484141  C 78.5710394292942 18.4098299484141  78.6377041127008 20.1921385985298  78.6377041127008 20.1921385985298  C 78.6377041127008 20.1921385985298  83.47345768597 23.0430524349289  83.47345768597 23.0430524349289  C 83.47345768597 23.0430524349289  86.4682403867009 26.8270305909175  86.4682403867009 26.8270305909175  C 86.4682403867009 26.8270305909175  88.2835709963905 30.1049964999375  88.2835709963905 30.1049964999375  C 88.2835709963905 30.1049964999375  93.6577700894829 32.2656069860729  93.6577700894829 32.2656069860729  C 93.6577700894829 32.2656069860729  94.8141459439604 33.9952653806599  94.8141459439604 33.9952653806599  C 94.8141459439604 33.9952653806599  92.4424216304536 34.5724681820104  92.4424216304536 34.5724681820104  C 92.4424216304536 34.5724681820104  87.8297383439682 34.447667576313  87.8297383439682 34.447667576313  C 87.8297383439682 34.447667576313  82.4222069091723 33.8743647938906  82.4222069091723 33.8743647938906  C 82.4222069091723 33.8743647938906  79.7504915203352 34.3404170557915  79.7504915203352 34.3404170557915  C 79.7504915203352 34.3404170557915  78.6710364544041 35.6664234913263  78.6710364544041 35.6664234913263  C 78.6710364544041 35.6664234913263  76.3454646140249 35.830224286304  76.3454646140249 35.830224286304  C 76.3454646140249 35.830224286304  73.5070875166712 34.6777686930672  73.5070875166712 34.6777686930672  C 73.5070875166712 34.6777686930672  65.5047614815847 37.3980318953772  65.5047614815847 37.3980318953772  C 65.5047614815847 37.3980318953772  62.2279358895178 36.8500792359871  62.2279358895178 36.8500792359871  C 62.2279358895178 36.8500792359871  61.240785769842 37.2693312707517  61.240785769842 37.2693312707517  C 61.240785769842 37.2693312707517  59.0921317431188 40.5589972365558  59.0921317431188 40.5589972365558  C 59.0921317431188 40.5589972365558  53.7281887551658 39.4962420786642  53.7281887551658 39.4962420786642  C 53.7281887551658 39.4962420786642  48.4693708448927 38.9599894760583  48.4693708448927 38.9599894760583  C 48.4693708448927 38.9599894760583  42.0272748020712 36.9514797281161  42.0272748020712 36.9514797281161  C 42.0272748020712 36.9514797281161  36.1120661628705 35.098970737296  36.1120661628705 35.098970737296  C 36.1120661628705 35.098970737296  32.2608986829924 36.8539792549153  32.2608986829924 36.8539792549153  C 32.2608986829924 36.8539792549153  29.4635460061967 39.6190926748977  29.4635460061967 39.6190926748977  C 29.4635460061967 39.6190926748977  28.8174113824089 43.415761101347  28.8174113824089 43.415761101347  C 28.8174113824089 43.415761101347  24.191907964499 43.1115596249599  24.191907964499 43.1115596249599  C 24.191907964499 43.1115596249599  19.3279501020964 42.1970051863337  19.3279501020964 42.1970051863337  C 19.3279501020964 42.1970051863337  15.0434621800745 45.0810691836214  15.0434621800745 45.0810691836214  C 15.0434621800745 45.0810691836214  11.2717795150273 50.1413437427568  11.2717795150273 50.1413437427568  C 11.2717795150273 50.1413437427568  10.51539176099 48.5657360958273  10.51539176099 48.5657360958273  C 10.51539176099 48.5657360958273  10.1923244490962 46.0853240575921  10.1923244490962 46.0853240575921  C 10.1923244490962 46.0853240575921  6.90524275188973 44.336165568365  6.90524275188973 44.336165568365  C 6.90524275188973 44.336165568365  4.25147554704686 41.5262019307105  4.25147554704686 41.5262019307105  C 4.25147554704686 41.5262019307105  3.63867326496241 39.572292447761  3.63867326496241 39.572292447761  C 3.63867326496241 39.572292447761  0.241338437506362 36.727228639754  0.241338437506362 36.727228639754  C 0.241338437506362 36.727228639754  0.820808377887497 35.1028707562239  0.820808377887497 35.1028707562239  C 0.820808377887497 35.1028707562239  0.105445044408146 32.805759607607  0.105445044408146 32.805759607607  C 0.105445044408146 32.805759607607  0.659274721940608 28.5742390706804  0.659274721940608 28.5742390706804  C 0.659274721940608 28.5742390706804  2.38486441165968 27.5816842534939  2.38486441165968 27.5816842534939  Z " stroke-width="2" stroke="#505050" fill="none" stroke-opacity="0.211764705882353" transform="matrix(1 0 0 1 1942 4279 )" mask="url(#clip69)" />
  </g>
</svg>