<?xml version="1.0" encoding="utf-8"?>
<svg version="1.1" xmlns:xlink="http://www.w3.org/1999/xlink" width="56px" height="51px" xmlns="http://www.w3.org/2000/svg">
  <defs>
    <mask fill="white" id="clip70">
      <path d="M 15.7185128773447 49.3442157224273  C 15.7185128773447 49.3442157224273  13.8248472161899 48.7904130346451  13.8248472161899 48.7904130346451  C 13.8248472161899 48.7904130346451  11.1269517694968 46.9203539586488  11.1269517694968 46.9203539586488  C 11.1269517694968 46.9203539586488  8.94808001826262 47.8368584067389  8.94808001826262 47.8368584067389  C 8.94808001826262 47.8368584067389  6.04206120853917 50.1905198298128  6.04206120853917 50.1905198298128  C 6.04206120853917 50.1905198298128  0.124677195458996 44.4204418257735  0.124677195458996 44.4204418257735  C 0.124677195458996 44.4204418257735  5.61039793706826 41.4154772417166  5.61039793706826 41.4154772417166  C 5.61039793706826 41.4154772417166  2.89451652073055 37.8196597900614  2.89451652073055 37.8196597900614  C 2.89451652073055 37.8196597900614  5.36373321051345 36.4527031557824  5.36373321051345 36.4527031557824  C 5.36373321051345 36.4527031557824  10.2250838630308 35.785799919087  10.2250838630308 35.785799919087  C 10.2250838630308 35.785799919087  10.7980654674237 33.3775382310205  10.7980654674237 33.3775382310205  C 10.7980654674237 33.3775382310205  14.6470629713724 35.9866508938811  14.6470629713724 35.9866508938811  C 14.6470629713724 35.9866508938811  21.0063879528632 36.2167520106357  21.0063879528632 36.2167520106357  C 21.0063879528632 36.2167520106357  23.2186622191514 33.6485895465196  23.2186622191514 33.6485895465196  C 23.2186622191514 33.6485895465196  24.1282383983224 30.0352220096879  24.1282383983224 30.0352220096879  C 24.1282383983224 30.0352220096879  23.3419945824288 24.3772847587751  23.3419945824288 24.3772847587751  C 23.3419945824288 24.3772847587751  19.9323686226558 21.1656191715319  19.9323686226558 21.1656191715319  C 19.9323686226558 21.1656191715319  23.0516496438798 14.8748886405991  23.0516496438798 14.8748886405991  C 23.0516496438798 14.8748886405991  21.2556221036528 13.7965334069951  21.2556221036528 13.7965334069951  C 21.2556221036528 13.7965334069951  15.895803149556 14.239185555328  15.895803149556 14.239185555328  C 15.895803149556 14.239185555328  13.8813745493586 11.4311719271374  13.8813745493586 11.4311719271374  C 13.8813745493586 11.4311719271374  14.4055370932877 9.05996041888735  14.4055370932877 9.05996041888735  C 14.4055370932877 9.05996041888735  23.4961600365255 9.27446145992959  23.4961600365255 9.27446145992959  C 23.4961600365255 9.27446145992959  31.1877114438146 10.7077184159855  31.1877114438146 10.7077184159855  C 31.1877114438146 10.7077184159855  36.9123886392736 11.9927746527753  36.9123886392736 11.9927746527753  C 36.9123886392736 11.9927746527753  37.4288429104978 9.05801040942343  37.4288429104978 9.05801040942343  C 37.4288429104978 9.05801040942343  41.2084659601029 3.99773585028803  41.2084659601029 3.99773585028803  C 41.2084659601029 3.99773585028803  45.5019738566975 1.11367185300035  45.5019738566975 1.11367185300035  C 45.5019738566975 1.11367185300035  50.3761716303894 2.02822629162656  50.3761716303894 2.02822629162656  C 50.3761716303894 2.02822629162656  55.0114129502319 2.33242776801366  55.0114129502319 2.33242776801366  C 55.0114129502319 2.33242776801366  54.5823191029958 5.61819371488965  54.5823191029958 5.61819371488965  C 54.5823191029958 5.61819371488965  52.4265721698763 8.52370781628142  52.4265721698763 8.52370781628142  C 52.4265721698763 8.52370781628142  51.015958264891 11.9147742742146  51.015958264891 11.9147742742146  C 51.015958264891 11.9147742742146  50.1192292068951 16.7293476408834  50.1192292068951 16.7293476408834  C 50.1192292068951 16.7293476408834  50.496934569432 19.8084125845732  50.496934569432 19.8084125845732  C 50.496934569432 19.8084125845732  49.3227076940618 21.6921217268176  49.3227076940618 21.6921217268176  C 49.3227076940618 21.6921217268176  49.1428479976155 23.6830813895835  49.1428479976155 23.6830813895835  C 49.1428479976155 23.6830813895835  48.3154933939628 26.833306469765  48.3154933939628 26.833306469765  C 48.3154933939628 26.833306469765  43.5723362562532 29.4502191704817  43.5723362562532 29.4502191704817  C 43.5723362562532 29.4502191704817  40.2706261143477 32.2484827513523  40.2706261143477 32.2484827513523  C 40.2706261143477 32.2484827513523  37.1410673961838 37.5291083799221  37.1410673961838 37.5291083799221  C 37.1410673961838 37.5291083799221  37.3825932742686 42.0043800998509  37.3825932742686 42.0043800998509  C 37.3825932742686 42.0043800998509  35.5634409159272 43.7457385512221  35.5634409159272 43.7457385512221  C 35.5634409159272 43.7457385512221  31.3650017160258 46.4055514601473  31.3650017160258 46.4055514601473  C 31.3650017160258 46.4055514601473  25.2613544859332 49.8200180316485  25.2613544859332 49.8200180316485  C 25.2613544859332 49.8200180316485  22.5685978877101 48.8547633469581  22.5685978877101 48.8547633469581  C 22.5685978877101 48.8547633469581  22.1061015254199 47.3123058609171  22.1061015254199 47.3123058609171  C 22.1061015254199 47.3123058609171  18.1825907186576 47.2596556053887  18.1825907186576 47.2596556053887  C 18.1825907186576 47.2596556053887  15.7185128773447 49.3442157224273  15.7185128773447 49.3442157224273  Z " fill-rule="evenodd" />
    </mask>
  </defs>
  <g transform="matrix(1 0 0 1 -1918 -4321 )">
    <path d="M 15.7185128773447 49.3442157224273  C 15.7185128773447 49.3442157224273  13.8248472161899 48.7904130346451  13.8248472161899 48.7904130346451  C 13.8248472161899 48.7904130346451  11.1269517694968 46.9203539586488  11.1269517694968 46.9203539586488  C 11.1269517694968 46.9203539586488  8.94808001826262 47.8368584067389  8.94808001826262 47.8368584067389  C 8.94808001826262 47.8368584067389  6.04206120853917 50.1905198298128  6.04206120853917 50.1905198298128  C 6.04206120853917 50.1905198298128  0.124677195458996 44.4204418257735  0.124677195458996 44.4204418257735  C 0.124677195458996 44.4204418257735  5.61039793706826 41.4154772417166  5.61039793706826 41.4154772417166  C 5.61039793706826 41.4154772417166  2.89451652073055 37.8196597900614  2.89451652073055 37.8196597900614  C 2.89451652073055 37.8196597900614  5.36373321051345 36.4527031557824  5.36373321051345 36.4527031557824  C 5.36373321051345 36.4527031557824  10.2250838630308 35.785799919087  10.2250838630308 35.785799919087  C 10.2250838630308 35.785799919087  10.7980654674237 33.3775382310205  10.7980654674237 33.3775382310205  C 10.7980654674237 33.3775382310205  14.6470629713724 35.9866508938811  14.6470629713724 35.9866508938811  C 14.6470629713724 35.9866508938811  21.0063879528632 36.2167520106357  21.0063879528632 36.2167520106357  C 21.0063879528632 36.2167520106357  23.2186622191514 33.6485895465196  23.2186622191514 33.6485895465196  C 23.2186622191514 33.6485895465196  24.1282383983224 30.0352220096879  24.1282383983224 30.0352220096879  C 24.1282383983224 30.0352220096879  23.3419945824288 24.3772847587751  23.3419945824288 24.3772847587751  C 23.3419945824288 24.3772847587751  19.9323686226558 21.1656191715319  19.9323686226558 21.1656191715319  C 19.9323686226558 21.1656191715319  23.0516496438798 14.8748886405991  23.0516496438798 14.8748886405991  C 23.0516496438798 14.8748886405991  21.2556221036528 13.7965334069951  21.2556221036528 13.7965334069951  C 21.2556221036528 13.7965334069951  15.895803149556 14.239185555328  15.895803149556 14.239185555328  C 15.895803149556 14.239185555328  13.8813745493586 11.4311719271374  13.8813745493586 11.4311719271374  C 13.8813745493586 11.4311719271374  14.4055370932877 9.05996041888735  14.4055370932877 9.05996041888735  C 14.4055370932877 9.05996041888735  23.4961600365255 9.27446145992959  23.4961600365255 9.27446145992959  C 23.4961600365255 9.27446145992959  31.1877114438146 10.7077184159855  31.1877114438146 10.7077184159855  C 31.1877114438146 10.7077184159855  36.9123886392736 11.9927746527753  36.9123886392736 11.9927746527753  C 36.9123886392736 11.9927746527753  37.4288429104978 9.05801040942343  37.4288429104978 9.05801040942343  C 37.4288429104978 9.05801040942343  41.2084659601029 3.99773585028803  41.2084659601029 3.99773585028803  C 41.2084659601029 3.99773585028803  45.5019738566975 1.11367185300035  45.5019738566975 1.11367185300035  C 45.5019738566975 1.11367185300035  50.3761716303894 2.02822629162656  50.3761716303894 2.02822629162656  C 50.3761716303894 2.02822629162656  55.0114129502319 2.33242776801366  55.0114129502319 2.33242776801366  C 55.0114129502319 2.33242776801366  54.5823191029958 5.61819371488965  54.5823191029958 5.61819371488965  C 54.5823191029958 5.61819371488965  52.4265721698763 8.52370781628142  52.4265721698763 8.52370781628142  C 52.4265721698763 8.52370781628142  51.015958264891 11.9147742742146  51.015958264891 11.9147742742146  C 51.015958264891 11.9147742742146  50.1192292068951 16.7293476408834  50.1192292068951 16.7293476408834  C 50.1192292068951 16.7293476408834  50.496934569432 19.8084125845732  50.496934569432 19.8084125845732  C 50.496934569432 19.8084125845732  49.3227076940618 21.6921217268176  49.3227076940618 21.6921217268176  C 49.3227076940618 21.6921217268176  49.1428479976155 23.6830813895835  49.1428479976155 23.6830813895835  C 49.1428479976155 23.6830813895835  48.3154933939628 26.833306469765  48.3154933939628 26.833306469765  C 48.3154933939628 26.833306469765  43.5723362562532 29.4502191704817  43.5723362562532 29.4502191704817  C 43.5723362562532 29.4502191704817  40.2706261143477 32.2484827513523  40.2706261143477 32.2484827513523  C 40.2706261143477 32.2484827513523  37.1410673961838 37.5291083799221  37.1410673961838 37.5291083799221  C 37.1410673961838 37.5291083799221  37.3825932742686 42.0043800998509  37.3825932742686 42.0043800998509  C 37.3825932742686 42.0043800998509  35.5634409159272 43.7457385512221  35.5634409159272 43.7457385512221  C 35.5634409159272 43.7457385512221  31.3650017160258 46.4055514601473  31.3650017160258 46.4055514601473  C 31.3650017160258 46.4055514601473  25.2613544859332 49.8200180316485  25.2613544859332 49.8200180316485  C 25.2613544859332 49.8200180316485  22.5685978877101 48.8547633469581  22.5685978877101 48.8547633469581  C 22.5685978877101 48.8547633469581  22.1061015254199 47.3123058609171  22.1061015254199 47.3123058609171  C 22.1061015254199 47.3123058609171  18.1825907186576 47.2596556053887  18.1825907186576 47.2596556053887  C 18.1825907186576 47.2596556053887  15.7185128773447 49.3442157224273  15.7185128773447 49.3442157224273  Z " fill-rule="nonzero" fill="#f2f2f2" stroke="none" transform="matrix(1 0 0 1 1918 4321 )" />
    <path d="M 15.7185128773447 49.3442157224273  C 15.7185128773447 49.3442157224273  13.8248472161899 48.7904130346451  13.8248472161899 48.7904130346451  C 13.8248472161899 48.7904130346451  11.1269517694968 46.9203539586488  11.1269517694968 46.9203539586488  C 11.1269517694968 46.9203539586488  8.94808001826262 47.8368584067389  8.94808001826262 47.8368584067389  C 8.94808001826262 47.8368584067389  6.04206120853917 50.1905198298128  6.04206120853917 50.1905198298128  C 6.04206120853917 50.1905198298128  0.124677195458996 44.4204418257735  0.124677195458996 44.4204418257735  C 0.124677195458996 44.4204418257735  5.61039793706826 41.4154772417166  5.61039793706826 41.4154772417166  C 5.61039793706826 41.4154772417166  2.89451652073055 37.8196597900614  2.89451652073055 37.8196597900614  C 2.89451652073055 37.8196597900614  5.36373321051345 36.4527031557824  5.36373321051345 36.4527031557824  C 5.36373321051345 36.4527031557824  10.2250838630308 35.785799919087  10.2250838630308 35.785799919087  C 10.2250838630308 35.785799919087  10.7980654674237 33.3775382310205  10.7980654674237 33.3775382310205  C 10.7980654674237 33.3775382310205  14.6470629713724 35.9866508938811  14.6470629713724 35.9866508938811  C 14.6470629713724 35.9866508938811  21.0063879528632 36.2167520106357  21.0063879528632 36.2167520106357  C 21.0063879528632 36.2167520106357  23.2186622191514 33.6485895465196  23.2186622191514 33.6485895465196  C 23.2186622191514 33.6485895465196  24.1282383983224 30.0352220096879  24.1282383983224 30.0352220096879  C 24.1282383983224 30.0352220096879  23.3419945824288 24.3772847587751  23.3419945824288 24.3772847587751  C 23.3419945824288 24.3772847587751  19.9323686226558 21.1656191715319  19.9323686226558 21.1656191715319  C 19.9323686226558 21.1656191715319  23.0516496438798 14.8748886405991  23.0516496438798 14.8748886405991  C 23.0516496438798 14.8748886405991  21.2556221036528 13.7965334069951  21.2556221036528 13.7965334069951  C 21.2556221036528 13.7965334069951  15.895803149556 14.239185555328  15.895803149556 14.239185555328  C 15.895803149556 14.239185555328  13.8813745493586 11.4311719271374  13.8813745493586 11.4311719271374  C 13.8813745493586 11.4311719271374  14.4055370932877 9.05996041888735  14.4055370932877 9.05996041888735  C 14.4055370932877 9.05996041888735  23.4961600365255 9.27446145992959  23.4961600365255 9.27446145992959  C 23.4961600365255 9.27446145992959  31.1877114438146 10.7077184159855  31.1877114438146 10.7077184159855  C 31.1877114438146 10.7077184159855  36.9123886392736 11.9927746527753  36.9123886392736 11.9927746527753  C 36.9123886392736 11.9927746527753  37.4288429104978 9.05801040942343  37.4288429104978 9.05801040942343  C 37.4288429104978 9.05801040942343  41.2084659601029 3.99773585028803  41.2084659601029 3.99773585028803  C 41.2084659601029 3.99773585028803  45.5019738566975 1.11367185300035  45.5019738566975 1.11367185300035  C 45.5019738566975 1.11367185300035  50.3761716303894 2.02822629162656  50.3761716303894 2.02822629162656  C 50.3761716303894 2.02822629162656  55.0114129502319 2.33242776801366  55.0114129502319 2.33242776801366  C 55.0114129502319 2.33242776801366  54.5823191029958 5.61819371488965  54.5823191029958 5.61819371488965  C 54.5823191029958 5.61819371488965  52.4265721698763 8.52370781628142  52.4265721698763 8.52370781628142  C 52.4265721698763 8.52370781628142  51.015958264891 11.9147742742146  51.015958264891 11.9147742742146  C 51.015958264891 11.9147742742146  50.1192292068951 16.7293476408834  50.1192292068951 16.7293476408834  C 50.1192292068951 16.7293476408834  50.496934569432 19.8084125845732  50.496934569432 19.8084125845732  C 50.496934569432 19.8084125845732  49.3227076940618 21.6921217268176  49.3227076940618 21.6921217268176  C 49.3227076940618 21.6921217268176  49.1428479976155 23.6830813895835  49.1428479976155 23.6830813895835  C 49.1428479976155 23.6830813895835  48.3154933939628 26.833306469765  48.3154933939628 26.833306469765  C 48.3154933939628 26.833306469765  43.5723362562532 29.4502191704817  43.5723362562532 29.4502191704817  C 43.5723362562532 29.4502191704817  40.2706261143477 32.2484827513523  40.2706261143477 32.2484827513523  C 40.2706261143477 32.2484827513523  37.1410673961838 37.5291083799221  37.1410673961838 37.5291083799221  C 37.1410673961838 37.5291083799221  37.3825932742686 42.0043800998509  37.3825932742686 42.0043800998509  C 37.3825932742686 42.0043800998509  35.5634409159272 43.7457385512221  35.5634409159272 43.7457385512221  C 35.5634409159272 43.7457385512221  31.3650017160258 46.4055514601473  31.3650017160258 46.4055514601473  C 31.3650017160258 46.4055514601473  25.2613544859332 49.8200180316485  25.2613544859332 49.8200180316485  C 25.2613544859332 49.8200180316485  22.5685978877101 48.8547633469581  22.5685978877101 48.8547633469581  C 22.5685978877101 48.8547633469581  22.1061015254199 47.3123058609171  22.1061015254199 47.3123058609171  C 22.1061015254199 47.3123058609171  18.1825907186576 47.2596556053887  18.1825907186576 47.2596556053887  C 18.1825907186576 47.2596556053887  15.7185128773447 49.3442157224273  15.7185128773447 49.3442157224273  Z " stroke-width="2" stroke="#505050" fill="none" stroke-opacity="0.211764705882353" transform="matrix(1 0 0 1 1918 4321 )" mask="url(#clip70)" />
  </g>
</svg>