<?xml version="1.0" encoding="utf-8"?>
<svg version="1.1" xmlns:xlink="http://www.w3.org/1999/xlink" width="35px" height="18px" xmlns="http://www.w3.org/2000/svg">
  <defs>
    <mask fill="white" id="clip71">
      <path d="M 20.5279913346069 0.606245273158414  C 20.5279913346069 0.606245273158414  28.1475174786978 3.02482171716792  28.1475174786978 3.02482171716792  C 28.1475174786978 3.02482171716792  28.4213640090011 4.42374615365567  28.4213640090011 4.42374615365567  C 28.4213640090011 4.42374615365567  27.3335847358513 6.34297899772002  27.3335847358513 6.34297899772002  C 27.3335847358513 6.34297899772002  30.5512814669166 7.76668002504481  30.5512814669166 7.76668002504481  C 30.5512814669166 7.76668002504481  34.1797479934372 7.97823399296049  34.1797479934372 7.97823399296049  C 34.1797479934372 7.97823399296049  33.6168412367023 12.545688354326  33.6168412367023 12.545688354326  C 33.6168412367023 12.545688354326  30.4828198343407 13.8493182106716  30.4828198343407 13.8493182106716  C 30.4828198343407 13.8493182106716  25.221416590085 12.8811252764266  25.221416590085 12.8811252764266  C 25.221416590085 12.8811252764266  23.6822976651389 15.9877285890629  23.6822976651389 15.9877285890629  C 23.6822976651389 15.9877285890629  20.297250276666 16.2316827142271  20.297250276666 16.2316827142271  C 20.297250276666 16.2316827142271  19.0649408903007 15.0138179800095  19.0649408903007 15.0138179800095  C 19.0649408903007 15.0138179800095  13.2368472416149 17.6134541262892  13.2368472416149 17.6134541262892  C 13.2368472416149 17.6134541262892  9.80869438077958 17.9774794224326  9.80869438077958 17.9774794224326  C 9.80869438077958 17.9774794224326  6.7482058430365 16.3384126439864  6.7482058430365 16.3384126439864  C 6.7482058430365 16.3384126439864  4.3089432305188 12.9630786153489  4.3089432305188 12.9630786153489  C 4.3089432305188 12.9630786153489  0.913753377960503 14.1714138915523  0.913753377960503 14.1714138915523  C 0.913753377960503 14.1714138915523  1.01771363483504 10.6683851255243  1.01771363483504 10.6683851255243  C 1.01771363483504 10.6683851255243  6.21572647855762 4.89450137955828  6.21572647855762 4.89450137955828  C 6.21572647855762 4.89450137955828  5.98752103663814 2.89331519657166  5.98752103663814 2.89331519657166  C 5.98752103663814 2.89331519657166  9.22803831189523 3.6194598972554  9.22803831189523 3.6194598972554  C 9.22803831189523 3.6194598972554  11.1779270322965 2.27199453404447  11.1779270322965 2.27199453404447  C 11.1779270322965 2.27199453404447  19.0674765063219 2.32726539052694  19.0674765063219 2.32726539052694  C 19.0674765063219 2.32726539052694  20.5279913346069 0.606245273158414  20.5279913346069 0.606245273158414  Z " fill-rule="evenodd" />
    </mask>
  </defs>
  <g transform="matrix(1 0 0 1 -1882 -4039 )">
    <path d="M 20.5279913346069 0.606245273158414  C 20.5279913346069 0.606245273158414  28.1475174786978 3.02482171716792  28.1475174786978 3.02482171716792  C 28.1475174786978 3.02482171716792  28.4213640090011 4.42374615365567  28.4213640090011 4.42374615365567  C 28.4213640090011 4.42374615365567  27.3335847358513 6.34297899772002  27.3335847358513 6.34297899772002  C 27.3335847358513 6.34297899772002  30.5512814669166 7.76668002504481  30.5512814669166 7.76668002504481  C 30.5512814669166 7.76668002504481  34.1797479934372 7.97823399296049  34.1797479934372 7.97823399296049  C 34.1797479934372 7.97823399296049  33.6168412367023 12.545688354326  33.6168412367023 12.545688354326  C 33.6168412367023 12.545688354326  30.4828198343407 13.8493182106716  30.4828198343407 13.8493182106716  C 30.4828198343407 13.8493182106716  25.221416590085 12.8811252764266  25.221416590085 12.8811252764266  C 25.221416590085 12.8811252764266  23.6822976651389 15.9877285890629  23.6822976651389 15.9877285890629  C 23.6822976651389 15.9877285890629  20.297250276666 16.2316827142271  20.297250276666 16.2316827142271  C 20.297250276666 16.2316827142271  19.0649408903007 15.0138179800095  19.0649408903007 15.0138179800095  C 19.0649408903007 15.0138179800095  13.2368472416149 17.6134541262892  13.2368472416149 17.6134541262892  C 13.2368472416149 17.6134541262892  9.80869438077958 17.9774794224326  9.80869438077958 17.9774794224326  C 9.80869438077958 17.9774794224326  6.7482058430365 16.3384126439864  6.7482058430365 16.3384126439864  C 6.7482058430365 16.3384126439864  4.3089432305188 12.9630786153489  4.3089432305188 12.9630786153489  C 4.3089432305188 12.9630786153489  0.913753377960503 14.1714138915523  0.913753377960503 14.1714138915523  C 0.913753377960503 14.1714138915523  1.01771363483504 10.6683851255243  1.01771363483504 10.6683851255243  C 1.01771363483504 10.6683851255243  6.21572647855762 4.89450137955828  6.21572647855762 4.89450137955828  C 6.21572647855762 4.89450137955828  5.98752103663814 2.89331519657166  5.98752103663814 2.89331519657166  C 5.98752103663814 2.89331519657166  9.22803831189523 3.6194598972554  9.22803831189523 3.6194598972554  C 9.22803831189523 3.6194598972554  11.1779270322965 2.27199453404447  11.1779270322965 2.27199453404447  C 11.1779270322965 2.27199453404447  19.0674765063219 2.32726539052694  19.0674765063219 2.32726539052694  C 19.0674765063219 2.32726539052694  20.5279913346069 0.606245273158414  20.5279913346069 0.606245273158414  Z " fill-rule="nonzero" fill="#a29bfe" stroke="none" transform="matrix(1 0 0 1 1882 4039 )" />
    <path d="M 20.5279913346069 0.606245273158414  C 20.5279913346069 0.606245273158414  28.1475174786978 3.02482171716792  28.1475174786978 3.02482171716792  C 28.1475174786978 3.02482171716792  28.4213640090011 4.42374615365567  28.4213640090011 4.42374615365567  C 28.4213640090011 4.42374615365567  27.3335847358513 6.34297899772002  27.3335847358513 6.34297899772002  C 27.3335847358513 6.34297899772002  30.5512814669166 7.76668002504481  30.5512814669166 7.76668002504481  C 30.5512814669166 7.76668002504481  34.1797479934372 7.97823399296049  34.1797479934372 7.97823399296049  C 34.1797479934372 7.97823399296049  33.6168412367023 12.545688354326  33.6168412367023 12.545688354326  C 33.6168412367023 12.545688354326  30.4828198343407 13.8493182106716  30.4828198343407 13.8493182106716  C 30.4828198343407 13.8493182106716  25.221416590085 12.8811252764266  25.221416590085 12.8811252764266  C 25.221416590085 12.8811252764266  23.6822976651389 15.9877285890629  23.6822976651389 15.9877285890629  C 23.6822976651389 15.9877285890629  20.297250276666 16.2316827142271  20.297250276666 16.2316827142271  C 20.297250276666 16.2316827142271  19.0649408903007 15.0138179800095  19.0649408903007 15.0138179800095  C 19.0649408903007 15.0138179800095  13.2368472416149 17.6134541262892  13.2368472416149 17.6134541262892  C 13.2368472416149 17.6134541262892  9.80869438077958 17.9774794224326  9.80869438077958 17.9774794224326  C 9.80869438077958 17.9774794224326  6.7482058430365 16.3384126439864  6.7482058430365 16.3384126439864  C 6.7482058430365 16.3384126439864  4.3089432305188 12.9630786153489  4.3089432305188 12.9630786153489  C 4.3089432305188 12.9630786153489  0.913753377960503 14.1714138915523  0.913753377960503 14.1714138915523  C 0.913753377960503 14.1714138915523  1.01771363483504 10.6683851255243  1.01771363483504 10.6683851255243  C 1.01771363483504 10.6683851255243  6.21572647855762 4.89450137955828  6.21572647855762 4.89450137955828  C 6.21572647855762 4.89450137955828  5.98752103663814 2.89331519657166  5.98752103663814 2.89331519657166  C 5.98752103663814 2.89331519657166  9.22803831189523 3.6194598972554  9.22803831189523 3.6194598972554  C 9.22803831189523 3.6194598972554  11.1779270322965 2.27199453404447  11.1779270322965 2.27199453404447  C 11.1779270322965 2.27199453404447  19.0674765063219 2.32726539052694  19.0674765063219 2.32726539052694  C 19.0674765063219 2.32726539052694  20.5279913346069 0.606245273158414  20.5279913346069 0.606245273158414  Z " stroke-width="2" stroke="#505050" fill="none" stroke-opacity="0.211764705882353" transform="matrix(1 0 0 1 1882 4039 )" mask="url(#clip71)" />
  </g>
</svg>