<?xml version="1.0" encoding="utf-8"?>
<svg version="1.1" xmlns:xlink="http://www.w3.org/1999/xlink" width="45px" height="38px" xmlns="http://www.w3.org/2000/svg">
  <defs>
    <mask fill="white" id="clip75">
      <path d="M 42.1262074014396 31.2758514493513  C 42.1262074014396 31.2758514493513  41.81154469781 33.4948386893962  41.81154469781 33.4948386893962  C 41.81154469781 33.4948386893962  38.6500517070117 33.5531801490166  38.6500517070117 33.5531801490166  C 38.6500517070117 33.5531801490166  33.803750539299 32.4527395141075  33.803750539299 32.4527395141075  C 33.803750539299 32.4527395141075  29.3489195068104 32.5171162971369  29.3489195068104 32.5171162971369  C 29.3489195068104 32.5171162971369  19.3206136898505 33.4988622383357  19.3206136898505 33.4988622383357  C 19.3206136898505 33.4988622383357  14.496611453891 35.1223642353587  14.496611453891 35.1223642353587  C 14.496611453891 35.1223642353587  7.61862983754613 37.1844330667692  7.61862983754613 37.1844330667692  C 7.61862983754613 37.1844330667692  6.27573861418205 37.0375735304836  6.27573861418205 37.0375735304836  C 6.27573861418205 37.0375735304836  6.81091297626078 32.4064687013052  6.81091297626078 32.4064687013052  C 6.81091297626078 32.4064687013052  7.47492561069171 31.7003358624515  7.47492561069171 31.7003358624515  C 7.47492561069171 31.7003358624515  7.26184692949364 29.4833603968762  7.26184692949364 29.4833603968762  C 7.26184692949364 29.4833603968762  4.32086559714446 27.1235489439544  4.32086559714446 27.1235489439544  C 4.32086559714446 27.1235489439544  2.11327135357005 26.7473471181261  2.11327135357005 26.7473471181261  C 2.11327135357005 26.7473471181261  0.0890238821888261 25.198280776481  0.0890238821888261 25.198280776481  C 0.0890238821888261 25.198280776481  1.59791826416069 22.6936215617429  1.59791826416069 22.6936215617429  C 1.59791826416069 22.6936215617429  0.904173720725498 19.9616318319322  0.904173720725498 19.9616318319322  C 0.904173720725498 19.9616318319322  1.22379174252239 16.858485403144  1.22379174252239 16.858485403144  C 1.22379174252239 16.858485403144  2.32635003476792 16.8504383052654  2.32635003476792 16.8504383052654  C 2.32635003476792 16.8504383052654  2.73516378357804 14.384002805451  2.73516378357804 14.384002805451  C 2.73516378357804 14.384002805451  2.19751176241573 13.289597493951  2.19751176241573 13.289597493951  C 2.19751176241573 13.289597493951  2.86152439684665 12.5029936763104  2.86152439684665 12.5029936763104  C 2.86152439684665 12.5029936763104  5.44324516205957 11.8210021310925  5.44324516205957 11.8210021310925  C 5.44324516205957 11.8210021310925  3.72622741705718 7.28042715304956  3.72622741705718 7.28042715304956  C 3.72622741705718 7.28042715304956  2.12565964898852 4.93067457247594  2.12565964898852 4.93067457247594  C 2.12565964898852 4.93067457247594  2.68313294282041 2.9993710815935  2.68313294282041 2.9993710815935  C 2.68313294282041 2.9993710815935  4.06814437060743 2.55879247273609  4.06814437060743 2.55879247273609  C 4.06814437060743 2.55879247273609  4.9749675952407 2.03975465956165  4.9749675952407 2.03975465956165  C 4.9749675952407 2.03975465956165  6.89763104419024 2.89677058364069  6.89763104419024 2.89677058364069  C 6.89763104419024 2.89677058364069  12.2617629603957 2.94304139644302  12.2617629603957 2.94304139644302  C 12.2617629603957 2.94304139644302  13.5402350475837 1.27930391002673  13.5402350475837 1.27930391002673  C 13.5402350475837 1.27930391002673  14.7394220440935 1.39196328032804  14.7394220440935 1.39196328032804  C 14.7394220440935 1.39196328032804  16.7438482428048 0.748195450033896  16.7438482428048 0.748195450033896  C 16.7438482428048 0.748195450033896  17.8216299442133 3.18445433280315  17.8216299442133 3.18445433280315  C 17.8216299442133 3.18445433280315  19.4420189849516 2.46625084713143  19.4420189849516 2.46625084713143  C 19.4420189849516 2.46625084713143  24.10867054479 1.62331734434002  24.10867054479 1.62331734434002  C 24.10867054479 1.62331734434002  27.2329986493326 2.86458219212598  27.2329986493326 2.86458219212598  C 27.2329986493326 2.86458219212598  28.4470516003445 4.74760309573619  28.4470516003445 4.74760309573619  C 28.4470516003445 4.74760309573619  31.5713797048874 5.94662067965895  31.5713797048874 5.94662067965895  C 31.5713797048874 5.94662067965895  33.999485606911 4.51624903172421  33.999485606911 4.51624903172421  C 33.999485606911 4.51624903172421  37.25512964289 4.30098916346975  37.25512964289 4.30098916346975  C 37.25512964289 4.30098916346975  42.0097574245057 5.76757275185832  42.0097574245057 5.76757275185832  C 42.0097574245057 5.76757275185832  43.8531357827769 13.8388119241706  43.8531357827769 13.8388119241706  C 43.8531357827769 13.8388119241706  40.9245427458462 20.0501499085978  40.9245427458462 20.0501499085978  C 40.9245427458462 20.0501499085978  39.1133739556632 26.4234514285095  39.1133739556632 26.4234514285095  C 39.1133739556632 26.4234514285095  42.1262074014396 31.2758514493513  42.1262074014396 31.2758514493513  Z " fill-rule="evenodd" />
    </mask>
  </defs>
  <g transform="matrix(1 0 0 1 -1780 -4284 )">
    <path d="M 42.1262074014396 31.2758514493513  C 42.1262074014396 31.2758514493513  41.81154469781 33.4948386893962  41.81154469781 33.4948386893962  C 41.81154469781 33.4948386893962  38.6500517070117 33.5531801490166  38.6500517070117 33.5531801490166  C 38.6500517070117 33.5531801490166  33.803750539299 32.4527395141075  33.803750539299 32.4527395141075  C 33.803750539299 32.4527395141075  29.3489195068104 32.5171162971369  29.3489195068104 32.5171162971369  C 29.3489195068104 32.5171162971369  19.3206136898505 33.4988622383357  19.3206136898505 33.4988622383357  C 19.3206136898505 33.4988622383357  14.496611453891 35.1223642353587  14.496611453891 35.1223642353587  C 14.496611453891 35.1223642353587  7.61862983754613 37.1844330667692  7.61862983754613 37.1844330667692  C 7.61862983754613 37.1844330667692  6.27573861418205 37.0375735304836  6.27573861418205 37.0375735304836  C 6.27573861418205 37.0375735304836  6.81091297626078 32.4064687013052  6.81091297626078 32.4064687013052  C 6.81091297626078 32.4064687013052  7.47492561069171 31.7003358624515  7.47492561069171 31.7003358624515  C 7.47492561069171 31.7003358624515  7.26184692949364 29.4833603968762  7.26184692949364 29.4833603968762  C 7.26184692949364 29.4833603968762  4.32086559714446 27.1235489439544  4.32086559714446 27.1235489439544  C 4.32086559714446 27.1235489439544  2.11327135357005 26.7473471181261  2.11327135357005 26.7473471181261  C 2.11327135357005 26.7473471181261  0.0890238821888261 25.198280776481  0.0890238821888261 25.198280776481  C 0.0890238821888261 25.198280776481  1.59791826416069 22.6936215617429  1.59791826416069 22.6936215617429  C 1.59791826416069 22.6936215617429  0.904173720725498 19.9616318319322  0.904173720725498 19.9616318319322  C 0.904173720725498 19.9616318319322  1.22379174252239 16.858485403144  1.22379174252239 16.858485403144  C 1.22379174252239 16.858485403144  2.32635003476792 16.8504383052654  2.32635003476792 16.8504383052654  C 2.32635003476792 16.8504383052654  2.73516378357804 14.384002805451  2.73516378357804 14.384002805451  C 2.73516378357804 14.384002805451  2.19751176241573 13.289597493951  2.19751176241573 13.289597493951  C 2.19751176241573 13.289597493951  2.86152439684665 12.5029936763104  2.86152439684665 12.5029936763104  C 2.86152439684665 12.5029936763104  5.44324516205957 11.8210021310925  5.44324516205957 11.8210021310925  C 5.44324516205957 11.8210021310925  3.72622741705718 7.28042715304956  3.72622741705718 7.28042715304956  C 3.72622741705718 7.28042715304956  2.12565964898852 4.93067457247594  2.12565964898852 4.93067457247594  C 2.12565964898852 4.93067457247594  2.68313294282041 2.9993710815935  2.68313294282041 2.9993710815935  C 2.68313294282041 2.9993710815935  4.06814437060743 2.55879247273609  4.06814437060743 2.55879247273609  C 4.06814437060743 2.55879247273609  4.9749675952407 2.03975465956165  4.9749675952407 2.03975465956165  C 4.9749675952407 2.03975465956165  6.89763104419024 2.89677058364069  6.89763104419024 2.89677058364069  C 6.89763104419024 2.89677058364069  12.2617629603957 2.94304139644302  12.2617629603957 2.94304139644302  C 12.2617629603957 2.94304139644302  13.5402350475837 1.27930391002673  13.5402350475837 1.27930391002673  C 13.5402350475837 1.27930391002673  14.7394220440935 1.39196328032804  14.7394220440935 1.39196328032804  C 14.7394220440935 1.39196328032804  16.7438482428048 0.748195450033896  16.7438482428048 0.748195450033896  C 16.7438482428048 0.748195450033896  17.8216299442133 3.18445433280315  17.8216299442133 3.18445433280315  C 17.8216299442133 3.18445433280315  19.4420189849516 2.46625084713143  19.4420189849516 2.46625084713143  C 19.4420189849516 2.46625084713143  24.10867054479 1.62331734434002  24.10867054479 1.62331734434002  C 24.10867054479 1.62331734434002  27.2329986493326 2.86458219212598  27.2329986493326 2.86458219212598  C 27.2329986493326 2.86458219212598  28.4470516003445 4.74760309573619  28.4470516003445 4.74760309573619  C 28.4470516003445 4.74760309573619  31.5713797048874 5.94662067965895  31.5713797048874 5.94662067965895  C 31.5713797048874 5.94662067965895  33.999485606911 4.51624903172421  33.999485606911 4.51624903172421  C 33.999485606911 4.51624903172421  37.25512964289 4.30098916346975  37.25512964289 4.30098916346975  C 37.25512964289 4.30098916346975  42.0097574245057 5.76757275185832  42.0097574245057 5.76757275185832  C 42.0097574245057 5.76757275185832  43.8531357827769 13.8388119241706  43.8531357827769 13.8388119241706  C 43.8531357827769 13.8388119241706  40.9245427458462 20.0501499085978  40.9245427458462 20.0501499085978  C 40.9245427458462 20.0501499085978  39.1133739556632 26.4234514285095  39.1133739556632 26.4234514285095  C 39.1133739556632 26.4234514285095  42.1262074014396 31.2758514493513  42.1262074014396 31.2758514493513  Z " fill-rule="nonzero" fill="#f2f2f2" stroke="none" transform="matrix(1 0 0 1 1780 4284 )" />
    <path d="M 42.1262074014396 31.2758514493513  C 42.1262074014396 31.2758514493513  41.81154469781 33.4948386893962  41.81154469781 33.4948386893962  C 41.81154469781 33.4948386893962  38.6500517070117 33.5531801490166  38.6500517070117 33.5531801490166  C 38.6500517070117 33.5531801490166  33.803750539299 32.4527395141075  33.803750539299 32.4527395141075  C 33.803750539299 32.4527395141075  29.3489195068104 32.5171162971369  29.3489195068104 32.5171162971369  C 29.3489195068104 32.5171162971369  19.3206136898505 33.4988622383357  19.3206136898505 33.4988622383357  C 19.3206136898505 33.4988622383357  14.496611453891 35.1223642353587  14.496611453891 35.1223642353587  C 14.496611453891 35.1223642353587  7.61862983754613 37.1844330667692  7.61862983754613 37.1844330667692  C 7.61862983754613 37.1844330667692  6.27573861418205 37.0375735304836  6.27573861418205 37.0375735304836  C 6.27573861418205 37.0375735304836  6.81091297626078 32.4064687013052  6.81091297626078 32.4064687013052  C 6.81091297626078 32.4064687013052  7.47492561069171 31.7003358624515  7.47492561069171 31.7003358624515  C 7.47492561069171 31.7003358624515  7.26184692949364 29.4833603968762  7.26184692949364 29.4833603968762  C 7.26184692949364 29.4833603968762  4.32086559714446 27.1235489439544  4.32086559714446 27.1235489439544  C 4.32086559714446 27.1235489439544  2.11327135357005 26.7473471181261  2.11327135357005 26.7473471181261  C 2.11327135357005 26.7473471181261  0.0890238821888261 25.198280776481  0.0890238821888261 25.198280776481  C 0.0890238821888261 25.198280776481  1.59791826416069 22.6936215617429  1.59791826416069 22.6936215617429  C 1.59791826416069 22.6936215617429  0.904173720725498 19.9616318319322  0.904173720725498 19.9616318319322  C 0.904173720725498 19.9616318319322  1.22379174252239 16.858485403144  1.22379174252239 16.858485403144  C 1.22379174252239 16.858485403144  2.32635003476792 16.8504383052654  2.32635003476792 16.8504383052654  C 2.32635003476792 16.8504383052654  2.73516378357804 14.384002805451  2.73516378357804 14.384002805451  C 2.73516378357804 14.384002805451  2.19751176241573 13.289597493951  2.19751176241573 13.289597493951  C 2.19751176241573 13.289597493951  2.86152439684665 12.5029936763104  2.86152439684665 12.5029936763104  C 2.86152439684665 12.5029936763104  5.44324516205957 11.8210021310925  5.44324516205957 11.8210021310925  C 5.44324516205957 11.8210021310925  3.72622741705718 7.28042715304956  3.72622741705718 7.28042715304956  C 3.72622741705718 7.28042715304956  2.12565964898852 4.93067457247594  2.12565964898852 4.93067457247594  C 2.12565964898852 4.93067457247594  2.68313294282041 2.9993710815935  2.68313294282041 2.9993710815935  C 2.68313294282041 2.9993710815935  4.06814437060743 2.55879247273609  4.06814437060743 2.55879247273609  C 4.06814437060743 2.55879247273609  4.9749675952407 2.03975465956165  4.9749675952407 2.03975465956165  C 4.9749675952407 2.03975465956165  6.89763104419024 2.89677058364069  6.89763104419024 2.89677058364069  C 6.89763104419024 2.89677058364069  12.2617629603957 2.94304139644302  12.2617629603957 2.94304139644302  C 12.2617629603957 2.94304139644302  13.5402350475837 1.27930391002673  13.5402350475837 1.27930391002673  C 13.5402350475837 1.27930391002673  14.7394220440935 1.39196328032804  14.7394220440935 1.39196328032804  C 14.7394220440935 1.39196328032804  16.7438482428048 0.748195450033896  16.7438482428048 0.748195450033896  C 16.7438482428048 0.748195450033896  17.8216299442133 3.18445433280315  17.8216299442133 3.18445433280315  C 17.8216299442133 3.18445433280315  19.4420189849516 2.46625084713143  19.4420189849516 2.46625084713143  C 19.4420189849516 2.46625084713143  24.10867054479 1.62331734434002  24.10867054479 1.62331734434002  C 24.10867054479 1.62331734434002  27.2329986493326 2.86458219212598  27.2329986493326 2.86458219212598  C 27.2329986493326 2.86458219212598  28.4470516003445 4.74760309573619  28.4470516003445 4.74760309573619  C 28.4470516003445 4.74760309573619  31.5713797048874 5.94662067965895  31.5713797048874 5.94662067965895  C 31.5713797048874 5.94662067965895  33.999485606911 4.51624903172421  33.999485606911 4.51624903172421  C 33.999485606911 4.51624903172421  37.25512964289 4.30098916346975  37.25512964289 4.30098916346975  C 37.25512964289 4.30098916346975  42.0097574245057 5.76757275185832  42.0097574245057 5.76757275185832  C 42.0097574245057 5.76757275185832  43.8531357827769 13.8388119241706  43.8531357827769 13.8388119241706  C 43.8531357827769 13.8388119241706  40.9245427458462 20.0501499085978  40.9245427458462 20.0501499085978  C 40.9245427458462 20.0501499085978  39.1133739556632 26.4234514285095  39.1133739556632 26.4234514285095  C 39.1133739556632 26.4234514285095  42.1262074014396 31.2758514493513  42.1262074014396 31.2758514493513  Z " stroke-width="2" stroke="#505050" fill="none" stroke-opacity="0.211764705882353" transform="matrix(1 0 0 1 1780 4284 )" mask="url(#clip75)" />
  </g>
</svg>