<?xml version="1.0" encoding="utf-8"?>
<svg version="1.1" xmlns:xlink="http://www.w3.org/1999/xlink" width="63px" height="277px" xmlns="http://www.w3.org/2000/svg">
  <defs>
    <mask fill="white" id="clip76">
      <path d="M 46.1040393831307 245.180156843259  C 46.1040393831307 245.180156843259  51.0519245732748 246.254504520649  51.0519245732748 246.254504520649  C 51.0519245732748 246.254504520649  51.0568798914424 268.683730884755  51.0568798914424 268.683730884755  C 51.0568798914424 268.683730884755  58.4948124607029 268.689688450434  58.4948124607029 268.689688450434  C 58.4948124607029 268.689688450434  62.6795786530685 268.947849629844  62.6795786530685 268.947849629844  C 62.6795786530685 268.947849629844  60.3778333643133 272.875871267322  60.3778333643133 272.875871267322  C 60.3778333643133 272.875871267322  54.4215409271039 275.918201473903  54.4215409271039 275.918201473903  C 54.4215409271039 275.918201473903  51.0073267097685 275.606422203385  51.0073267097685 275.606422203385  C 51.0073267097685 275.606422203385  46.8944126308304 274.812080112894  46.8944126308304 274.812080112894  C 46.8944126308304 274.812080112894  41.8498987364219 271.875000233303  41.8498987364219 271.875000233303  C 41.8498987364219 271.875000233303  32.7730140076016 270.47100058836  32.7730140076016 270.47100058836  C 32.7730140076016 270.47100058836  24.0318327603162 265.089332925283  24.0318327603162 265.089332925283  C 24.0318327603162 265.089332925283  16.9358171446059 258.537019094866  16.9358171446059 258.537019094866  C 16.9358171446059 258.537019094866  7.36709776336534 248.103335736266  7.36709776336534 248.103335736266  C 7.36709776336534 248.103335736266  13.0954455648744 250.037558726612  13.0954455648744 250.037558726612  C 13.0954455648744 250.037558726612  22.8499893773923 256.259243150383  22.8499893773923 256.259243150383  C 22.8499893773923 256.259243150383  32.0644035096642 259.643140455875  32.0644035096642 259.643140455875  C 32.0644035096642 259.643140455875  37.4495762037747 255.325891194056  37.4495762037747 255.325891194056  C 37.4495762037747 255.325891194056  39.7017683108558 248.967182759675  39.7017683108558 248.967182759675  C 39.7017683108558 248.967182759675  46.1040393831307 245.180156843259  46.1040393831307 245.180156843259  Z M 50.2070428257343 17.188090030519  C 50.2070428257343 17.188090030519  53.9309644285317 23.8347474727032  53.9309644285317 23.8347474727032  C 53.9309644285317 23.8347474727032  56.6514341024319 32.0760466615477  56.6514341024319 32.0760466615477  C 56.6514341024319 32.0760466615477  61.6637384287524 31.2519167426634  61.6637384287524 31.2519167426634  C 61.6637384287524 31.2519167426634  62.5061425172096 32.7571950041438  62.5061425172096 32.7571950041438  C 62.5061425172096 32.7571950041438  60.1226344786925 39.0305116637968  60.1226344786925 39.0305116637968  C 60.1226344786925 39.0305116637968  52.5558636370796 42.0271672001743  52.5558636370796 42.0271672001743  C 52.5558636370796 42.0271672001743  52.7763752955288 52.2404206286632  52.7763752955288 52.2404206286632  C 52.7763752955288 52.2404206286632  51.3269447315656 54.2282617101169  51.3269447315656 54.2282617101169  C 51.3269447315656 54.2282617101169  53.4057007027881 56.6609343622459  53.4057007027881 56.6609343622459  C 53.4057007027881 56.6609343622459  48.5024133761504 60.5333520533899  48.5024133761504 60.5333520533899  C 48.5024133761504 60.5333520533899  43.9534312984812 66.417441088702  43.9534312984812 66.417441088702  C 43.9534312984812 66.417441088702  41.4708168966162 72.1684778238572  41.4708168966162 72.1684778238572  C 41.4708168966162 72.1684778238572  42.127396553796 78.3544168535562  42.127396553796 78.3544168535562  C 42.127396553796 78.3544168535562  37.8460016571663 84.9931308748349  37.8460016571663 84.9931308748349  C 37.8460016571663 84.9931308748349  41.0471371933037 96.3005905329749  41.0471371933037 96.3005905329749  C 41.0471371933037 96.3005905329749  42.8508730062357 97.5099763657478  42.8508730062357 97.5099763657478  C 42.8508730062357 97.5099763657478  42.8335293926497 103.638325593886  42.8335293926497 103.638325593886  C 42.8335293926497 103.638325593886  38.8692748587333 110.217463958378  38.8692748587333 110.217463958378  C 38.8692748587333 110.217463958378  39.0303226991738 115.912896747199  39.0303226991738 115.912896747199  C 39.0303226991738 115.912896747199  33.7702524644836 120.406887124152  33.7702524644836 120.406887124152  C 33.7702524644836 120.406887124152  33.7925513962369 126.795383386927  33.7925513962369 126.795383386927  C 33.7925513962369 126.795383386927  35.905994594631 135.11312251346  35.905994594631 135.11312251346  C 35.905994594631 135.11312251346  29.9460049931028 137.694734307556  29.9460049931028 137.694734307556  C 29.9460049931028 137.694734307556  28.0877606803293 144.095145701687  28.0877606803293 144.095145701687  C 28.0877606803293 144.095145701687  26.4549833441726 151.544088655267  26.4549833441726 151.544088655267  C 26.4549833441726 151.544088655267  27.6293937498453 160.565828948019  27.6293937498453 160.565828948019  C 27.6293937498453 160.565828948019  24.8370719625179 162.088979906536  24.8370719625179 162.088979906536  C 24.8370719625179 162.088979906536  26.45993866234 170.816813625806  26.45993866234 170.816813625806  C 26.45993866234 170.816813625806  29.5966550623012 173.720133966551  29.5966550623012 173.720133966551  C 29.5966550623012 173.720133966551  27.3072980689647 176.957077985302  27.3072980689647 176.957077985302  C 27.3072980689647 176.957077985302  30.5307325368554 178.510016772212  30.5307325368554 178.510016772212  C 30.5307325368554 178.510016772212  33.0740302619646 181.445110796577  33.0740302619646 181.445110796577  C 33.0740302619646 181.445110796577  28.2413755435186 182.930530505795  28.2413755435186 182.930530505795  C 28.2413755435186 182.930530505795  28.9871509277117 187.559559038131  28.9871509277117 187.559559038131  C 28.9871509277117 187.559559038131  26.4500280260053 198.183884498449  26.4500280260053 198.183884498449  C 26.4500280260053 198.183884498449  22.7682266276304 205.17409489477  22.7682266276304 205.17409489477  C 22.7682266276304 205.17409489477  23.575943488916 209.368221132563  23.575943488916 209.368221132563  C 23.575943488916 209.368221132563  21.3733045635087 214.690313138853  21.3733045635087 214.690313138853  C 21.3733045635087 214.690313138853  16.0438598744749 218.419749253708  16.0438598744749 218.419749253708  C 16.0438598744749 218.419749253708  16.6508863499808 227.552697439129  16.6508863499808 227.552697439129  C 16.6508863499808 227.552697439129  19.0988135246742 230.722122380189  19.0988135246742 230.722122380189  C 19.0988135246742 230.722122380189  23.7246030339377 230.15813949594  23.7246030339377 230.15813949594  C 23.7246030339377 230.15813949594  23.5908094434182 236.775009109731  23.5908094434182 236.775009109731  C 23.5908094434182 236.775009109731  26.4698492986749 242.001780065161  26.4698492986749 242.001780065161  C 26.4698492986749 242.001780065161  45.0559895907267 243.209180042708  45.0559895907267 243.209180042708  C 45.0559895907267 243.209180042708  51.495425549257 244.629066529461  51.495425549257 244.629066529461  C 51.495425549257 244.629066529461  45.3136661354313 244.561547451769  45.3136661354313 244.561547451769  C 45.3136661354313 244.561547451769  41.9688263724394 246.801592146953  41.9688263724394 246.801592146953  C 41.9688263724394 246.801592146953  35.7003488906842 250.115984519527  35.7003488906842 250.115984519527  C 35.7003488906842 250.115984519527  34.5804469848529 258.810058699952  34.5804469848529 258.810058699952  C 34.5804469848529 258.810058699952  29.8394656525037 259.028502774837  29.8394656525037 259.028502774837  C 29.8394656525037 259.028502774837  22.0001523116842 255.980215002578  22.0001523116842 255.980215002578  C 22.0001523116842 255.980215002578  14.0493443120981 249.524199662112  14.0493443120981 249.524199662112  C 14.0493443120981 249.524199662112  5.40726942816061 244.297428706681  5.40726942816061 244.297428706681  C 5.40726942816061 244.297428706681  3.23188475267405 238.590080786502  3.23188475267405 238.590080786502  C 3.23188475267405 238.590080786502  5.19914606513009 233.381182528107  5.19914606513009 233.381182528107  C 5.19914606513009 233.381182528107  1.70316909803259 227.548725728677  1.70316909803259 227.548725728677  C 1.70316909803259 227.548725728677  0.81368948698514 212.964604947261  0.81368948698514 212.964604947261  C 0.81368948698514 212.964604947261  3.76705911475278 204.955650819885  3.76705911475278 204.955650819885  C 3.76705911475278 204.955650819885  11.1034076615818 198.626730213898  11.1034076615818 198.626730213898  C 11.1034076615818 198.626730213898  0.558490601364133 196.263562494687  0.558490601364133 196.263562494687  C 0.558490601364133 196.263562494687  7.17384035483706 189.176045192281  7.17384035483706 189.176045192281  C 7.17384035483706 189.176045192281  9.54000477976833 176.154792473906  9.54000477976833 176.154792473906  C 9.54000477976833 176.154792473906  17.2603904845703 178.883357554743  17.2603904845703 178.883357554743  C 17.2603904845703 178.883357554743  20.8901610421876 163.056091401709  20.8901610421876 163.056091401709  C 20.8901610421876 163.056091401709  16.2296843057522 161.064278609802  16.2296843057522 161.064278609802  C 16.2296843057522 161.064278609802  14.059254948433 170.495105079157  14.059254948433 170.495105079157  C 14.059254948433 170.495105079157  9.67627602937184 169.420757401768  9.67627602937184 169.420757401768  C 9.67627602937184 169.420757401768  11.8590936821093 158.657422075614  11.8590936821093 158.657422075614  C 11.8590936821093 158.657422075614  14.2277357661244 145.068214762539  14.2277357661244 145.068214762539  C 14.2277357661244 145.068214762539  17.4189606659272 140.147265511947  17.4189606659272 140.147265511947  C 17.4189606659272 140.147265511947  15.4194897853831 133.206701496281  15.4194897853831 133.206701496281  C 15.4194897853831 133.206701496281  14.8471505370488 123.866246928241  14.8471505370488 123.866246928241  C 14.8471505370488 123.866246928241  17.7757435739797 123.639859432451  17.7757435739797 123.639859432451  C 17.7757435739797 123.639859432451  22.0373171979398 112.527013586481  22.0373171979398 112.527013586481  C 22.0373171979398 112.527013586481  26.8390205021458 101.739847997612  26.8390205021458 101.739847997612  C 26.8390205021458 101.739847997612  29.780001834495 91.8741192337138  29.780001834495 91.8741192337138  C 29.780001834495 91.8741192337138  28.1794340664263 82.1195983624838  28.1794340664263 82.1195983624838  C 28.1794340664263 82.1195983624838  30.2532347194812 76.8153790532297  30.2532347194812 76.8153790532297  C 30.2532347194812 76.8153790532297  29.4207412673587 68.9613216334993  29.4207412673587 68.9613216334993  C 29.4207412673587 68.9613216334993  35.284102164623 61.2820194736771  35.284102164623 61.2820194736771  C 35.284102164623 61.2820194736771  36.5353200018903 49.291425617715  36.5353200018903 49.291425617715  C 36.5353200018903 49.291425617715  38.7652131772181 36.63358440574  38.7652131772181 36.63358440574  C 38.7652131772181 36.63358440574  40.9381201936211 23.2350191943822  40.9381201936211 23.2350191943822  C 40.9381201936211 23.2350191943822  40.430200081463 13.5559608217489  40.430200081463 13.5559608217489  C 40.430200081463 13.5559608217489  38.9832471765837 5.30870406722572  38.9832471765837 5.30870406722572  C 38.9832471765837 5.30870406722572  42.5560315752757 3.82129850278116  42.5560315752757 3.82129850278116  C 42.5560315752757 3.82129850278116  44.4167535471325 0.840529808213347  44.4167535471325 0.840529808213347  C 44.4167535471325 0.840529808213347  47.8210571281332 4.79635341885884  47.8210571281332 4.79635341885884  C 47.8210571281332 4.79635341885884  48.7501792845201 9.01033820891374  48.7501792845201 9.01033820891374  C 48.7501792845201 9.01033820891374  52.3948157966393 11.4926572416982  52.3948157966393 11.4926572416982  C 52.3948157966393 11.4926572416982  50.2070428257343 17.188090030519  50.2070428257343 17.188090030519  Z " fill-rule="evenodd" />
    </mask>
  </defs>
  <g transform="matrix(1 0 0 1 -1300 -4440 )">
    <path d="M 46.1040393831307 245.180156843259  C 46.1040393831307 245.180156843259  51.0519245732748 246.254504520649  51.0519245732748 246.254504520649  C 51.0519245732748 246.254504520649  51.0568798914424 268.683730884755  51.0568798914424 268.683730884755  C 51.0568798914424 268.683730884755  58.4948124607029 268.689688450434  58.4948124607029 268.689688450434  C 58.4948124607029 268.689688450434  62.6795786530685 268.947849629844  62.6795786530685 268.947849629844  C 62.6795786530685 268.947849629844  60.3778333643133 272.875871267322  60.3778333643133 272.875871267322  C 60.3778333643133 272.875871267322  54.4215409271039 275.918201473903  54.4215409271039 275.918201473903  C 54.4215409271039 275.918201473903  51.0073267097685 275.606422203385  51.0073267097685 275.606422203385  C 51.0073267097685 275.606422203385  46.8944126308304 274.812080112894  46.8944126308304 274.812080112894  C 46.8944126308304 274.812080112894  41.8498987364219 271.875000233303  41.8498987364219 271.875000233303  C 41.8498987364219 271.875000233303  32.7730140076016 270.47100058836  32.7730140076016 270.47100058836  C 32.7730140076016 270.47100058836  24.0318327603162 265.089332925283  24.0318327603162 265.089332925283  C 24.0318327603162 265.089332925283  16.9358171446059 258.537019094866  16.9358171446059 258.537019094866  C 16.9358171446059 258.537019094866  7.36709776336534 248.103335736266  7.36709776336534 248.103335736266  C 7.36709776336534 248.103335736266  13.0954455648744 250.037558726612  13.0954455648744 250.037558726612  C 13.0954455648744 250.037558726612  22.8499893773923 256.259243150383  22.8499893773923 256.259243150383  C 22.8499893773923 256.259243150383  32.0644035096642 259.643140455875  32.0644035096642 259.643140455875  C 32.0644035096642 259.643140455875  37.4495762037747 255.325891194056  37.4495762037747 255.325891194056  C 37.4495762037747 255.325891194056  39.7017683108558 248.967182759675  39.7017683108558 248.967182759675  C 39.7017683108558 248.967182759675  46.1040393831307 245.180156843259  46.1040393831307 245.180156843259  Z M 50.2070428257343 17.188090030519  C 50.2070428257343 17.188090030519  53.9309644285317 23.8347474727032  53.9309644285317 23.8347474727032  C 53.9309644285317 23.8347474727032  56.6514341024319 32.0760466615477  56.6514341024319 32.0760466615477  C 56.6514341024319 32.0760466615477  61.6637384287524 31.2519167426634  61.6637384287524 31.2519167426634  C 61.6637384287524 31.2519167426634  62.5061425172096 32.7571950041438  62.5061425172096 32.7571950041438  C 62.5061425172096 32.7571950041438  60.1226344786925 39.0305116637968  60.1226344786925 39.0305116637968  C 60.1226344786925 39.0305116637968  52.5558636370796 42.0271672001743  52.5558636370796 42.0271672001743  C 52.5558636370796 42.0271672001743  52.7763752955288 52.2404206286632  52.7763752955288 52.2404206286632  C 52.7763752955288 52.2404206286632  51.3269447315656 54.2282617101169  51.3269447315656 54.2282617101169  C 51.3269447315656 54.2282617101169  53.4057007027881 56.6609343622459  53.4057007027881 56.6609343622459  C 53.4057007027881 56.6609343622459  48.5024133761504 60.5333520533899  48.5024133761504 60.5333520533899  C 48.5024133761504 60.5333520533899  43.9534312984812 66.417441088702  43.9534312984812 66.417441088702  C 43.9534312984812 66.417441088702  41.4708168966162 72.1684778238572  41.4708168966162 72.1684778238572  C 41.4708168966162 72.1684778238572  42.127396553796 78.3544168535562  42.127396553796 78.3544168535562  C 42.127396553796 78.3544168535562  37.8460016571663 84.9931308748349  37.8460016571663 84.9931308748349  C 37.8460016571663 84.9931308748349  41.0471371933037 96.3005905329749  41.0471371933037 96.3005905329749  C 41.0471371933037 96.3005905329749  42.8508730062357 97.5099763657478  42.8508730062357 97.5099763657478  C 42.8508730062357 97.5099763657478  42.8335293926497 103.638325593886  42.8335293926497 103.638325593886  C 42.8335293926497 103.638325593886  38.8692748587333 110.217463958378  38.8692748587333 110.217463958378  C 38.8692748587333 110.217463958378  39.0303226991738 115.912896747199  39.0303226991738 115.912896747199  C 39.0303226991738 115.912896747199  33.7702524644836 120.406887124152  33.7702524644836 120.406887124152  C 33.7702524644836 120.406887124152  33.7925513962369 126.795383386927  33.7925513962369 126.795383386927  C 33.7925513962369 126.795383386927  35.905994594631 135.11312251346  35.905994594631 135.11312251346  C 35.905994594631 135.11312251346  29.9460049931028 137.694734307556  29.9460049931028 137.694734307556  C 29.9460049931028 137.694734307556  28.0877606803293 144.095145701687  28.0877606803293 144.095145701687  C 28.0877606803293 144.095145701687  26.4549833441726 151.544088655267  26.4549833441726 151.544088655267  C 26.4549833441726 151.544088655267  27.6293937498453 160.565828948019  27.6293937498453 160.565828948019  C 27.6293937498453 160.565828948019  24.8370719625179 162.088979906536  24.8370719625179 162.088979906536  C 24.8370719625179 162.088979906536  26.45993866234 170.816813625806  26.45993866234 170.816813625806  C 26.45993866234 170.816813625806  29.5966550623012 173.720133966551  29.5966550623012 173.720133966551  C 29.5966550623012 173.720133966551  27.3072980689647 176.957077985302  27.3072980689647 176.957077985302  C 27.3072980689647 176.957077985302  30.5307325368554 178.510016772212  30.5307325368554 178.510016772212  C 30.5307325368554 178.510016772212  33.0740302619646 181.445110796577  33.0740302619646 181.445110796577  C 33.0740302619646 181.445110796577  28.2413755435186 182.930530505795  28.2413755435186 182.930530505795  C 28.2413755435186 182.930530505795  28.9871509277117 187.559559038131  28.9871509277117 187.559559038131  C 28.9871509277117 187.559559038131  26.4500280260053 198.183884498449  26.4500280260053 198.183884498449  C 26.4500280260053 198.183884498449  22.7682266276304 205.17409489477  22.7682266276304 205.17409489477  C 22.7682266276304 205.17409489477  23.575943488916 209.368221132563  23.575943488916 209.368221132563  C 23.575943488916 209.368221132563  21.3733045635087 214.690313138853  21.3733045635087 214.690313138853  C 21.3733045635087 214.690313138853  16.0438598744749 218.419749253708  16.0438598744749 218.419749253708  C 16.0438598744749 218.419749253708  16.6508863499808 227.552697439129  16.6508863499808 227.552697439129  C 16.6508863499808 227.552697439129  19.0988135246742 230.722122380189  19.0988135246742 230.722122380189  C 19.0988135246742 230.722122380189  23.7246030339377 230.15813949594  23.7246030339377 230.15813949594  C 23.7246030339377 230.15813949594  23.5908094434182 236.775009109731  23.5908094434182 236.775009109731  C 23.5908094434182 236.775009109731  26.4698492986749 242.001780065161  26.4698492986749 242.001780065161  C 26.4698492986749 242.001780065161  45.0559895907267 243.209180042708  45.0559895907267 243.209180042708  C 45.0559895907267 243.209180042708  51.495425549257 244.629066529461  51.495425549257 244.629066529461  C 51.495425549257 244.629066529461  45.3136661354313 244.561547451769  45.3136661354313 244.561547451769  C 45.3136661354313 244.561547451769  41.9688263724394 246.801592146953  41.9688263724394 246.801592146953  C 41.9688263724394 246.801592146953  35.7003488906842 250.115984519527  35.7003488906842 250.115984519527  C 35.7003488906842 250.115984519527  34.5804469848529 258.810058699952  34.5804469848529 258.810058699952  C 34.5804469848529 258.810058699952  29.8394656525037 259.028502774837  29.8394656525037 259.028502774837  C 29.8394656525037 259.028502774837  22.0001523116842 255.980215002578  22.0001523116842 255.980215002578  C 22.0001523116842 255.980215002578  14.0493443120981 249.524199662112  14.0493443120981 249.524199662112  C 14.0493443120981 249.524199662112  5.40726942816061 244.297428706681  5.40726942816061 244.297428706681  C 5.40726942816061 244.297428706681  3.23188475267405 238.590080786502  3.23188475267405 238.590080786502  C 3.23188475267405 238.590080786502  5.19914606513009 233.381182528107  5.19914606513009 233.381182528107  C 5.19914606513009 233.381182528107  1.70316909803259 227.548725728677  1.70316909803259 227.548725728677  C 1.70316909803259 227.548725728677  0.81368948698514 212.964604947261  0.81368948698514 212.964604947261  C 0.81368948698514 212.964604947261  3.76705911475278 204.955650819885  3.76705911475278 204.955650819885  C 3.76705911475278 204.955650819885  11.1034076615818 198.626730213898  11.1034076615818 198.626730213898  C 11.1034076615818 198.626730213898  0.558490601364133 196.263562494687  0.558490601364133 196.263562494687  C 0.558490601364133 196.263562494687  7.17384035483706 189.176045192281  7.17384035483706 189.176045192281  C 7.17384035483706 189.176045192281  9.54000477976833 176.154792473906  9.54000477976833 176.154792473906  C 9.54000477976833 176.154792473906  17.2603904845703 178.883357554743  17.2603904845703 178.883357554743  C 17.2603904845703 178.883357554743  20.8901610421876 163.056091401709  20.8901610421876 163.056091401709  C 20.8901610421876 163.056091401709  16.2296843057522 161.064278609802  16.2296843057522 161.064278609802  C 16.2296843057522 161.064278609802  14.059254948433 170.495105079157  14.059254948433 170.495105079157  C 14.059254948433 170.495105079157  9.67627602937184 169.420757401768  9.67627602937184 169.420757401768  C 9.67627602937184 169.420757401768  11.8590936821093 158.657422075614  11.8590936821093 158.657422075614  C 11.8590936821093 158.657422075614  14.2277357661244 145.068214762539  14.2277357661244 145.068214762539  C 14.2277357661244 145.068214762539  17.4189606659272 140.147265511947  17.4189606659272 140.147265511947  C 17.4189606659272 140.147265511947  15.4194897853831 133.206701496281  15.4194897853831 133.206701496281  C 15.4194897853831 133.206701496281  14.8471505370488 123.866246928241  14.8471505370488 123.866246928241  C 14.8471505370488 123.866246928241  17.7757435739797 123.639859432451  17.7757435739797 123.639859432451  C 17.7757435739797 123.639859432451  22.0373171979398 112.527013586481  22.0373171979398 112.527013586481  C 22.0373171979398 112.527013586481  26.8390205021458 101.739847997612  26.8390205021458 101.739847997612  C 26.8390205021458 101.739847997612  29.780001834495 91.8741192337138  29.780001834495 91.8741192337138  C 29.780001834495 91.8741192337138  28.1794340664263 82.1195983624838  28.1794340664263 82.1195983624838  C 28.1794340664263 82.1195983624838  30.2532347194812 76.8153790532297  30.2532347194812 76.8153790532297  C 30.2532347194812 76.8153790532297  29.4207412673587 68.9613216334993  29.4207412673587 68.9613216334993  C 29.4207412673587 68.9613216334993  35.284102164623 61.2820194736771  35.284102164623 61.2820194736771  C 35.284102164623 61.2820194736771  36.5353200018903 49.291425617715  36.5353200018903 49.291425617715  C 36.5353200018903 49.291425617715  38.7652131772181 36.63358440574  38.7652131772181 36.63358440574  C 38.7652131772181 36.63358440574  40.9381201936211 23.2350191943822  40.9381201936211 23.2350191943822  C 40.9381201936211 23.2350191943822  40.430200081463 13.5559608217489  40.430200081463 13.5559608217489  C 40.430200081463 13.5559608217489  38.9832471765837 5.30870406722572  38.9832471765837 5.30870406722572  C 38.9832471765837 5.30870406722572  42.5560315752757 3.82129850278116  42.5560315752757 3.82129850278116  C 42.5560315752757 3.82129850278116  44.4167535471325 0.840529808213347  44.4167535471325 0.840529808213347  C 44.4167535471325 0.840529808213347  47.8210571281332 4.79635341885884  47.8210571281332 4.79635341885884  C 47.8210571281332 4.79635341885884  48.7501792845201 9.01033820891374  48.7501792845201 9.01033820891374  C 48.7501792845201 9.01033820891374  52.3948157966393 11.4926572416982  52.3948157966393 11.4926572416982  C 52.3948157966393 11.4926572416982  50.2070428257343 17.188090030519  50.2070428257343 17.188090030519  Z " fill-rule="nonzero" fill="#f2f2f2" stroke="none" transform="matrix(1 0 0 1 1300 4440 )" />
    <path d="M 46.1040393831307 245.180156843259  C 46.1040393831307 245.180156843259  51.0519245732748 246.254504520649  51.0519245732748 246.254504520649  C 51.0519245732748 246.254504520649  51.0568798914424 268.683730884755  51.0568798914424 268.683730884755  C 51.0568798914424 268.683730884755  58.4948124607029 268.689688450434  58.4948124607029 268.689688450434  C 58.4948124607029 268.689688450434  62.6795786530685 268.947849629844  62.6795786530685 268.947849629844  C 62.6795786530685 268.947849629844  60.3778333643133 272.875871267322  60.3778333643133 272.875871267322  C 60.3778333643133 272.875871267322  54.4215409271039 275.918201473903  54.4215409271039 275.918201473903  C 54.4215409271039 275.918201473903  51.0073267097685 275.606422203385  51.0073267097685 275.606422203385  C 51.0073267097685 275.606422203385  46.8944126308304 274.812080112894  46.8944126308304 274.812080112894  C 46.8944126308304 274.812080112894  41.8498987364219 271.875000233303  41.8498987364219 271.875000233303  C 41.8498987364219 271.875000233303  32.7730140076016 270.47100058836  32.7730140076016 270.47100058836  C 32.7730140076016 270.47100058836  24.0318327603162 265.089332925283  24.0318327603162 265.089332925283  C 24.0318327603162 265.089332925283  16.9358171446059 258.537019094866  16.9358171446059 258.537019094866  C 16.9358171446059 258.537019094866  7.36709776336534 248.103335736266  7.36709776336534 248.103335736266  C 7.36709776336534 248.103335736266  13.0954455648744 250.037558726612  13.0954455648744 250.037558726612  C 13.0954455648744 250.037558726612  22.8499893773923 256.259243150383  22.8499893773923 256.259243150383  C 22.8499893773923 256.259243150383  32.0644035096642 259.643140455875  32.0644035096642 259.643140455875  C 32.0644035096642 259.643140455875  37.4495762037747 255.325891194056  37.4495762037747 255.325891194056  C 37.4495762037747 255.325891194056  39.7017683108558 248.967182759675  39.7017683108558 248.967182759675  C 39.7017683108558 248.967182759675  46.1040393831307 245.180156843259  46.1040393831307 245.180156843259  Z " stroke-width="2" stroke="#505050" fill="none" stroke-opacity="0.211764705882353" transform="matrix(1 0 0 1 1300 4440 )" mask="url(#clip76)" />
    <path d="M 50.2070428257343 17.188090030519  C 50.2070428257343 17.188090030519  53.9309644285317 23.8347474727032  53.9309644285317 23.8347474727032  C 53.9309644285317 23.8347474727032  56.6514341024319 32.0760466615477  56.6514341024319 32.0760466615477  C 56.6514341024319 32.0760466615477  61.6637384287524 31.2519167426634  61.6637384287524 31.2519167426634  C 61.6637384287524 31.2519167426634  62.5061425172096 32.7571950041438  62.5061425172096 32.7571950041438  C 62.5061425172096 32.7571950041438  60.1226344786925 39.0305116637968  60.1226344786925 39.0305116637968  C 60.1226344786925 39.0305116637968  52.5558636370796 42.0271672001743  52.5558636370796 42.0271672001743  C 52.5558636370796 42.0271672001743  52.7763752955288 52.2404206286632  52.7763752955288 52.2404206286632  C 52.7763752955288 52.2404206286632  51.3269447315656 54.2282617101169  51.3269447315656 54.2282617101169  C 51.3269447315656 54.2282617101169  53.4057007027881 56.6609343622459  53.4057007027881 56.6609343622459  C 53.4057007027881 56.6609343622459  48.5024133761504 60.5333520533899  48.5024133761504 60.5333520533899  C 48.5024133761504 60.5333520533899  43.9534312984812 66.417441088702  43.9534312984812 66.417441088702  C 43.9534312984812 66.417441088702  41.4708168966162 72.1684778238572  41.4708168966162 72.1684778238572  C 41.4708168966162 72.1684778238572  42.127396553796 78.3544168535562  42.127396553796 78.3544168535562  C 42.127396553796 78.3544168535562  37.8460016571663 84.9931308748349  37.8460016571663 84.9931308748349  C 37.8460016571663 84.9931308748349  41.0471371933037 96.3005905329749  41.0471371933037 96.3005905329749  C 41.0471371933037 96.3005905329749  42.8508730062357 97.5099763657478  42.8508730062357 97.5099763657478  C 42.8508730062357 97.5099763657478  42.8335293926497 103.638325593886  42.8335293926497 103.638325593886  C 42.8335293926497 103.638325593886  38.8692748587333 110.217463958378  38.8692748587333 110.217463958378  C 38.8692748587333 110.217463958378  39.0303226991738 115.912896747199  39.0303226991738 115.912896747199  C 39.0303226991738 115.912896747199  33.7702524644836 120.406887124152  33.7702524644836 120.406887124152  C 33.7702524644836 120.406887124152  33.7925513962369 126.795383386927  33.7925513962369 126.795383386927  C 33.7925513962369 126.795383386927  35.905994594631 135.11312251346  35.905994594631 135.11312251346  C 35.905994594631 135.11312251346  29.9460049931028 137.694734307556  29.9460049931028 137.694734307556  C 29.9460049931028 137.694734307556  28.0877606803293 144.095145701687  28.0877606803293 144.095145701687  C 28.0877606803293 144.095145701687  26.4549833441726 151.544088655267  26.4549833441726 151.544088655267  C 26.4549833441726 151.544088655267  27.6293937498453 160.565828948019  27.6293937498453 160.565828948019  C 27.6293937498453 160.565828948019  24.8370719625179 162.088979906536  24.8370719625179 162.088979906536  C 24.8370719625179 162.088979906536  26.45993866234 170.816813625806  26.45993866234 170.816813625806  C 26.45993866234 170.816813625806  29.5966550623012 173.720133966551  29.5966550623012 173.720133966551  C 29.5966550623012 173.720133966551  27.3072980689647 176.957077985302  27.3072980689647 176.957077985302  C 27.3072980689647 176.957077985302  30.5307325368554 178.510016772212  30.5307325368554 178.510016772212  C 30.5307325368554 178.510016772212  33.0740302619646 181.445110796577  33.0740302619646 181.445110796577  C 33.0740302619646 181.445110796577  28.2413755435186 182.930530505795  28.2413755435186 182.930530505795  C 28.2413755435186 182.930530505795  28.9871509277117 187.559559038131  28.9871509277117 187.559559038131  C 28.9871509277117 187.559559038131  26.4500280260053 198.183884498449  26.4500280260053 198.183884498449  C 26.4500280260053 198.183884498449  22.7682266276304 205.17409489477  22.7682266276304 205.17409489477  C 22.7682266276304 205.17409489477  23.575943488916 209.368221132563  23.575943488916 209.368221132563  C 23.575943488916 209.368221132563  21.3733045635087 214.690313138853  21.3733045635087 214.690313138853  C 21.3733045635087 214.690313138853  16.0438598744749 218.419749253708  16.0438598744749 218.419749253708  C 16.0438598744749 218.419749253708  16.6508863499808 227.552697439129  16.6508863499808 227.552697439129  C 16.6508863499808 227.552697439129  19.0988135246742 230.722122380189  19.0988135246742 230.722122380189  C 19.0988135246742 230.722122380189  23.7246030339377 230.15813949594  23.7246030339377 230.15813949594  C 23.7246030339377 230.15813949594  23.5908094434182 236.775009109731  23.5908094434182 236.775009109731  C 23.5908094434182 236.775009109731  26.4698492986749 242.001780065161  26.4698492986749 242.001780065161  C 26.4698492986749 242.001780065161  45.0559895907267 243.209180042708  45.0559895907267 243.209180042708  C 45.0559895907267 243.209180042708  51.495425549257 244.629066529461  51.495425549257 244.629066529461  C 51.495425549257 244.629066529461  45.3136661354313 244.561547451769  45.3136661354313 244.561547451769  C 45.3136661354313 244.561547451769  41.9688263724394 246.801592146953  41.9688263724394 246.801592146953  C 41.9688263724394 246.801592146953  35.7003488906842 250.115984519527  35.7003488906842 250.115984519527  C 35.7003488906842 250.115984519527  34.5804469848529 258.810058699952  34.5804469848529 258.810058699952  C 34.5804469848529 258.810058699952  29.8394656525037 259.028502774837  29.8394656525037 259.028502774837  C 29.8394656525037 259.028502774837  22.0001523116842 255.980215002578  22.0001523116842 255.980215002578  C 22.0001523116842 255.980215002578  14.0493443120981 249.524199662112  14.0493443120981 249.524199662112  C 14.0493443120981 249.524199662112  5.40726942816061 244.297428706681  5.40726942816061 244.297428706681  C 5.40726942816061 244.297428706681  3.23188475267405 238.590080786502  3.23188475267405 238.590080786502  C 3.23188475267405 238.590080786502  5.19914606513009 233.381182528107  5.19914606513009 233.381182528107  C 5.19914606513009 233.381182528107  1.70316909803259 227.548725728677  1.70316909803259 227.548725728677  C 1.70316909803259 227.548725728677  0.81368948698514 212.964604947261  0.81368948698514 212.964604947261  C 0.81368948698514 212.964604947261  3.76705911475278 204.955650819885  3.76705911475278 204.955650819885  C 3.76705911475278 204.955650819885  11.1034076615818 198.626730213898  11.1034076615818 198.626730213898  C 11.1034076615818 198.626730213898  0.558490601364133 196.263562494687  0.558490601364133 196.263562494687  C 0.558490601364133 196.263562494687  7.17384035483706 189.176045192281  7.17384035483706 189.176045192281  C 7.17384035483706 189.176045192281  9.54000477976833 176.154792473906  9.54000477976833 176.154792473906  C 9.54000477976833 176.154792473906  17.2603904845703 178.883357554743  17.2603904845703 178.883357554743  C 17.2603904845703 178.883357554743  20.8901610421876 163.056091401709  20.8901610421876 163.056091401709  C 20.8901610421876 163.056091401709  16.2296843057522 161.064278609802  16.2296843057522 161.064278609802  C 16.2296843057522 161.064278609802  14.059254948433 170.495105079157  14.059254948433 170.495105079157  C 14.059254948433 170.495105079157  9.67627602937184 169.420757401768  9.67627602937184 169.420757401768  C 9.67627602937184 169.420757401768  11.8590936821093 158.657422075614  11.8590936821093 158.657422075614  C 11.8590936821093 158.657422075614  14.2277357661244 145.068214762539  14.2277357661244 145.068214762539  C 14.2277357661244 145.068214762539  17.4189606659272 140.147265511947  17.4189606659272 140.147265511947  C 17.4189606659272 140.147265511947  15.4194897853831 133.206701496281  15.4194897853831 133.206701496281  C 15.4194897853831 133.206701496281  14.8471505370488 123.866246928241  14.8471505370488 123.866246928241  C 14.8471505370488 123.866246928241  17.7757435739797 123.639859432451  17.7757435739797 123.639859432451  C 17.7757435739797 123.639859432451  22.0373171979398 112.527013586481  22.0373171979398 112.527013586481  C 22.0373171979398 112.527013586481  26.8390205021458 101.739847997612  26.8390205021458 101.739847997612  C 26.8390205021458 101.739847997612  29.780001834495 91.8741192337138  29.780001834495 91.8741192337138  C 29.780001834495 91.8741192337138  28.1794340664263 82.1195983624838  28.1794340664263 82.1195983624838  C 28.1794340664263 82.1195983624838  30.2532347194812 76.8153790532297  30.2532347194812 76.8153790532297  C 30.2532347194812 76.8153790532297  29.4207412673587 68.9613216334993  29.4207412673587 68.9613216334993  C 29.4207412673587 68.9613216334993  35.284102164623 61.2820194736771  35.284102164623 61.2820194736771  C 35.284102164623 61.2820194736771  36.5353200018903 49.291425617715  36.5353200018903 49.291425617715  C 36.5353200018903 49.291425617715  38.7652131772181 36.63358440574  38.7652131772181 36.63358440574  C 38.7652131772181 36.63358440574  40.9381201936211 23.2350191943822  40.9381201936211 23.2350191943822  C 40.9381201936211 23.2350191943822  40.430200081463 13.5559608217489  40.430200081463 13.5559608217489  C 40.430200081463 13.5559608217489  38.9832471765837 5.30870406722572  38.9832471765837 5.30870406722572  C 38.9832471765837 5.30870406722572  42.5560315752757 3.82129850278116  42.5560315752757 3.82129850278116  C 42.5560315752757 3.82129850278116  44.4167535471325 0.840529808213347  44.4167535471325 0.840529808213347  C 44.4167535471325 0.840529808213347  47.8210571281332 4.79635341885884  47.8210571281332 4.79635341885884  C 47.8210571281332 4.79635341885884  48.7501792845201 9.01033820891374  48.7501792845201 9.01033820891374  C 48.7501792845201 9.01033820891374  52.3948157966393 11.4926572416982  52.3948157966393 11.4926572416982  C 52.3948157966393 11.4926572416982  50.2070428257343 17.188090030519  50.2070428257343 17.188090030519  Z " stroke-width="2" stroke="#505050" fill="none" stroke-opacity="0.211764705882353" transform="matrix(1 0 0 1 1300 4440 )" mask="url(#clip76)" />
  </g>
</svg>