<?xml version="1.0" encoding="utf-8"?>
<svg version="1.1" xmlns:xlink="http://www.w3.org/1999/xlink" width="57px" height="66px" xmlns="http://www.w3.org/2000/svg">
  <defs>
    <mask fill="white" id="clip77">
      <path d="M 43.3700654737666 62.4017953938095  C 43.3700654737666 62.4017953938095  34.4155924133189 62.1797237277893  34.4155924133189 62.1797237277893  C 34.4155924133189 62.1797237277893  33.5297626871582 61.8728610620155  33.5297626871582 61.8728610620155  C 33.5297626871582 61.8728610620155  29.3309297851562 62.5976222265731  29.3309297851562 62.5976222265731  C 29.3309297851562 62.5976222265731  23.1794948123716 61.8445973954313  23.1794948123716 61.8445973954313  C 23.1794948123716 61.8445973954313  19.8082799688112 62.2140438943559  19.8082799688112 62.2140438943559  C 19.8082799688112 62.2140438943559  8.25959128175002 62.0848385613986  8.25959128175002 62.0848385613986  C 8.25959128175002 62.0848385613986  9.29474659032065 57.6413864076649  9.29474659032065 57.6413864076649  C 9.29474659032065 57.6413864076649  6.52336501847503 53.9186577518337  6.52336501847503 53.9186577518337  C 6.52336501847503 53.9186577518337  3.28375916280127 52.9617307546189  3.28375916280127 52.9617307546189  C 3.28375916280127 52.9617307546189  1.84112218019681 50.4361702619695  1.84112218019681 50.4361702619695  C 1.84112218019681 50.4361702619695  0.0239057705297558 49.6286369309865  0.0239057705297558 49.6286369309865  C 0.0239057705297558 49.6286369309865  0.104895916921809 48.068078768862  0.104895916921809 48.068078768862  C 0.104895916921809 48.068078768862  1.93223609488753 44.0728076138241  1.93223609488753 44.0728076138241  C 1.93223609488753 44.0728076138241  5.30851282259737 38.617919963034  5.30851282259737 38.617919963034  C 5.30851282259737 38.617919963034  7.36110684521548 38.5674491298475  7.36110684521548 38.5674491298475  C 7.36110684521548 38.5674491298475  11.5877801100397 35.2525248061626  11.5877801100397 35.2525248061626  C 11.5877801100397 35.2525248061626  14.2781715354935 35.1596584730994  14.2781715354935 35.1596584730994  C 14.2781715354935 35.1596584730994  18.2618743611421 37.4873732996578  18.2618743611421 37.4873732996578  C 18.2618743611421 37.4873732996578  23.1389997391757 35.5795758052105  23.1389997391757 35.5795758052105  C 23.1389997391757 35.5795758052105  23.802106562759 31.7569306454012  23.802106562759 31.7569306454012  C 23.802106562759 31.7569306454012  25.3966000698482 29.4716113187195  25.3966000698482 29.4716113187195  C 25.3966000698482 29.4716113187195  26.4950289302874 26.5967926604204  26.4950289302874 26.5967926604204  C 26.4950289302874 26.5967926604204  32.1276207777495 24.2549460005695  32.1276207777495 24.2549460005695  C 32.1276207777495 24.2549460005695  33.5601339920551 20.2677501788413  33.5601339920551 20.2677501788413  C 33.5601339920551 20.2677501788413  35.0660445265286 18.9979040158707  35.0660445265286 18.9979040158707  C 35.0660445265286 18.9979040158707  36.0657666460528 16.0302190245083  36.0657666460528 16.0302190245083  C 36.0657666460528 16.0302190245083  37.9437256655135 12.3801683684651  37.9437256655135 12.3801683684651  C 37.9437256655135 12.3801683684651  43.9192799039866 7.94479154804145  43.9192799039866 7.94479154804145  C 43.9192799039866 7.94479154804145  44.2963902731236 6.03497522026685  44.2963902731236 6.03497522026685  C 44.2963902731236 6.03497522026685  45.0683276059208 4.99729488995357  45.0683276059208 4.99729488995357  C 45.0683276059208 4.99729488995357  42.2589819029538 2.70390022996183  42.2589819029538 2.70390022996183  C 42.2589819029538 2.70390022996183  42.4867666896808 0.868780735303305  42.4867666896808 0.868780735303305  C 42.4867666896808 0.868780735303305  44.491272812879 0.537692069600356  44.491272812879 0.537692069600356  C 44.491272812879 0.537692069600356  47.3132732262194 4.22811939219227  47.3132732262194 4.22811939219227  C 47.3132732262194 4.22811939219227  47.7865593941968 8.04169554775942  47.7865593941968 8.04169554775942  C 47.7865593941968 8.04169554775942  47.5284033025727 11.8492152033438  47.5284033025727 11.8492152033438  C 47.5284033025727 11.8492152033438  51.3906209086338 17.0477110215467  51.3906209086338 17.0477110215467  C 51.3906209086338 17.0477110215467  47.4271656195831 16.9911836883778  47.4271656195831 16.9911836883778  C 47.4271656195831 16.9911836883778  45.4251904384596 17.3989880205242  45.4251904384596 17.3989880205242  C 45.4251904384596 17.3989880205242  42.1906464669359 16.8256393555265  42.1906464669359 16.8256393555265  C 42.1906464669359 16.8256393555265  40.6467718013414 19.5187630143545  40.6467718013414 19.5187630143545  C 40.6467718013414 19.5187630143545  44.8380118771189 22.8437815046768  44.8380118771189 22.8437815046768  C 44.8380118771189 22.8437815046768  47.9282921503825 23.8087838352014  47.9282921503825 23.8087838352014  C 47.9282921503825 23.8087838352014  48.925483327832 26.1627434950167  48.925483327832 26.1627434950167  C 48.925483327832 26.1627434950167  51.1653670639812 30.0792801502842  51.1653670639812 30.0792801502842  C 51.1653670639812 30.0792801502842  50.0517525510936 31.6156123124791  50.0517525510936 31.6156123124791  C 50.0517525510936 31.6156123124791  46.483124225703 38.8218221291074  46.483124225703 38.8218221291074  C 46.483124225703 38.8218221291074  44.7798002093996 39.8494082927829  44.7798002093996 39.8494082927829  C 44.7798002093996 39.8494082927829  44.2331167212547 44.2302766133656  44.2331167212547 44.2302766133656  C 44.2331167212547 44.2302766133656  44.9392495601085 46.6084622731102  44.9392495601085 46.6084622731102  C 44.9392495601085 46.6084622731102  44.3672566512162 48.2901504348826  44.3672566512162 48.2901504348826  C 44.3672566512162 48.2901504348826  47.7207549002534 51.2356282596428  47.7207549002534 51.2356282596428  C 47.7207549002534 51.2356282596428  48.3256500561174 53.2584992537551  48.3256500561174 53.2584992537551  C 48.3256500561174 53.2584992537551  50.9451751034785 56.167638078621  50.9451751034785 56.167638078621  C 50.9451751034785 56.167638078621  54.1898428433017 57.9785315733503  54.1898428433017 57.9785315733503  C 54.1898428433017 57.9785315733503  54.5087415447194 60.5464875658761  54.5087415447194 60.5464875658761  C 54.5087415447194 60.5464875658761  55.2553694567691 62.1777048944619  55.2553694567691 62.1777048944619  C 55.2553694567691 62.1777048944619  54.7466500997453 65.216049052285  54.7466500997453 65.216049052285  C 54.7466500997453 65.216049052285  49.1077111572137 63.8856378894908  49.1077111572137 63.8856378894908  C 49.1077111572137 63.8856378894908  43.3700654737666 62.4017953938095  43.3700654737666 62.4017953938095  Z " fill-rule="evenodd" />
    </mask>
  </defs>
  <g transform="matrix(1 0 0 1 -1900 -4269 )">
    <path d="M 43.3700654737666 62.4017953938095  C 43.3700654737666 62.4017953938095  34.4155924133189 62.1797237277893  34.4155924133189 62.1797237277893  C 34.4155924133189 62.1797237277893  33.5297626871582 61.8728610620155  33.5297626871582 61.8728610620155  C 33.5297626871582 61.8728610620155  29.3309297851562 62.5976222265731  29.3309297851562 62.5976222265731  C 29.3309297851562 62.5976222265731  23.1794948123716 61.8445973954313  23.1794948123716 61.8445973954313  C 23.1794948123716 61.8445973954313  19.8082799688112 62.2140438943559  19.8082799688112 62.2140438943559  C 19.8082799688112 62.2140438943559  8.25959128175002 62.0848385613986  8.25959128175002 62.0848385613986  C 8.25959128175002 62.0848385613986  9.29474659032065 57.6413864076649  9.29474659032065 57.6413864076649  C 9.29474659032065 57.6413864076649  6.52336501847503 53.9186577518337  6.52336501847503 53.9186577518337  C 6.52336501847503 53.9186577518337  3.28375916280127 52.9617307546189  3.28375916280127 52.9617307546189  C 3.28375916280127 52.9617307546189  1.84112218019681 50.4361702619695  1.84112218019681 50.4361702619695  C 1.84112218019681 50.4361702619695  0.0239057705297558 49.6286369309865  0.0239057705297558 49.6286369309865  C 0.0239057705297558 49.6286369309865  0.104895916921809 48.068078768862  0.104895916921809 48.068078768862  C 0.104895916921809 48.068078768862  1.93223609488753 44.0728076138241  1.93223609488753 44.0728076138241  C 1.93223609488753 44.0728076138241  5.30851282259737 38.617919963034  5.30851282259737 38.617919963034  C 5.30851282259737 38.617919963034  7.36110684521548 38.5674491298475  7.36110684521548 38.5674491298475  C 7.36110684521548 38.5674491298475  11.5877801100397 35.2525248061626  11.5877801100397 35.2525248061626  C 11.5877801100397 35.2525248061626  14.2781715354935 35.1596584730994  14.2781715354935 35.1596584730994  C 14.2781715354935 35.1596584730994  18.2618743611421 37.4873732996578  18.2618743611421 37.4873732996578  C 18.2618743611421 37.4873732996578  23.1389997391757 35.5795758052105  23.1389997391757 35.5795758052105  C 23.1389997391757 35.5795758052105  23.802106562759 31.7569306454012  23.802106562759 31.7569306454012  C 23.802106562759 31.7569306454012  25.3966000698482 29.4716113187195  25.3966000698482 29.4716113187195  C 25.3966000698482 29.4716113187195  26.4950289302874 26.5967926604204  26.4950289302874 26.5967926604204  C 26.4950289302874 26.5967926604204  32.1276207777495 24.2549460005695  32.1276207777495 24.2549460005695  C 32.1276207777495 24.2549460005695  33.5601339920551 20.2677501788413  33.5601339920551 20.2677501788413  C 33.5601339920551 20.2677501788413  35.0660445265286 18.9979040158707  35.0660445265286 18.9979040158707  C 35.0660445265286 18.9979040158707  36.0657666460528 16.0302190245083  36.0657666460528 16.0302190245083  C 36.0657666460528 16.0302190245083  37.9437256655135 12.3801683684651  37.9437256655135 12.3801683684651  C 37.9437256655135 12.3801683684651  43.9192799039866 7.94479154804145  43.9192799039866 7.94479154804145  C 43.9192799039866 7.94479154804145  44.2963902731236 6.03497522026685  44.2963902731236 6.03497522026685  C 44.2963902731236 6.03497522026685  45.0683276059208 4.99729488995357  45.0683276059208 4.99729488995357  C 45.0683276059208 4.99729488995357  42.2589819029538 2.70390022996183  42.2589819029538 2.70390022996183  C 42.2589819029538 2.70390022996183  42.4867666896808 0.868780735303305  42.4867666896808 0.868780735303305  C 42.4867666896808 0.868780735303305  44.491272812879 0.537692069600356  44.491272812879 0.537692069600356  C 44.491272812879 0.537692069600356  47.3132732262194 4.22811939219227  47.3132732262194 4.22811939219227  C 47.3132732262194 4.22811939219227  47.7865593941968 8.04169554775942  47.7865593941968 8.04169554775942  C 47.7865593941968 8.04169554775942  47.5284033025727 11.8492152033438  47.5284033025727 11.8492152033438  C 47.5284033025727 11.8492152033438  51.3906209086338 17.0477110215467  51.3906209086338 17.0477110215467  C 51.3906209086338 17.0477110215467  47.4271656195831 16.9911836883778  47.4271656195831 16.9911836883778  C 47.4271656195831 16.9911836883778  45.4251904384596 17.3989880205242  45.4251904384596 17.3989880205242  C 45.4251904384596 17.3989880205242  42.1906464669359 16.8256393555265  42.1906464669359 16.8256393555265  C 42.1906464669359 16.8256393555265  40.6467718013414 19.5187630143545  40.6467718013414 19.5187630143545  C 40.6467718013414 19.5187630143545  44.8380118771189 22.8437815046768  44.8380118771189 22.8437815046768  C 44.8380118771189 22.8437815046768  47.9282921503825 23.8087838352014  47.9282921503825 23.8087838352014  C 47.9282921503825 23.8087838352014  48.925483327832 26.1627434950167  48.925483327832 26.1627434950167  C 48.925483327832 26.1627434950167  51.1653670639812 30.0792801502842  51.1653670639812 30.0792801502842  C 51.1653670639812 30.0792801502842  50.0517525510936 31.6156123124791  50.0517525510936 31.6156123124791  C 50.0517525510936 31.6156123124791  46.483124225703 38.8218221291074  46.483124225703 38.8218221291074  C 46.483124225703 38.8218221291074  44.7798002093996 39.8494082927829  44.7798002093996 39.8494082927829  C 44.7798002093996 39.8494082927829  44.2331167212547 44.2302766133656  44.2331167212547 44.2302766133656  C 44.2331167212547 44.2302766133656  44.9392495601085 46.6084622731102  44.9392495601085 46.6084622731102  C 44.9392495601085 46.6084622731102  44.3672566512162 48.2901504348826  44.3672566512162 48.2901504348826  C 44.3672566512162 48.2901504348826  47.7207549002534 51.2356282596428  47.7207549002534 51.2356282596428  C 47.7207549002534 51.2356282596428  48.3256500561174 53.2584992537551  48.3256500561174 53.2584992537551  C 48.3256500561174 53.2584992537551  50.9451751034785 56.167638078621  50.9451751034785 56.167638078621  C 50.9451751034785 56.167638078621  54.1898428433017 57.9785315733503  54.1898428433017 57.9785315733503  C 54.1898428433017 57.9785315733503  54.5087415447194 60.5464875658761  54.5087415447194 60.5464875658761  C 54.5087415447194 60.5464875658761  55.2553694567691 62.1777048944619  55.2553694567691 62.1777048944619  C 55.2553694567691 62.1777048944619  54.7466500997453 65.216049052285  54.7466500997453 65.216049052285  C 54.7466500997453 65.216049052285  49.1077111572137 63.8856378894908  49.1077111572137 63.8856378894908  C 49.1077111572137 63.8856378894908  43.3700654737666 62.4017953938095  43.3700654737666 62.4017953938095  Z " fill-rule="nonzero" fill="#f2f2f2" stroke="none" transform="matrix(1 0 0 1 1900 4269 )" />
    <path d="M 43.3700654737666 62.4017953938095  C 43.3700654737666 62.4017953938095  34.4155924133189 62.1797237277893  34.4155924133189 62.1797237277893  C 34.4155924133189 62.1797237277893  33.5297626871582 61.8728610620155  33.5297626871582 61.8728610620155  C 33.5297626871582 61.8728610620155  29.3309297851562 62.5976222265731  29.3309297851562 62.5976222265731  C 29.3309297851562 62.5976222265731  23.1794948123716 61.8445973954313  23.1794948123716 61.8445973954313  C 23.1794948123716 61.8445973954313  19.8082799688112 62.2140438943559  19.8082799688112 62.2140438943559  C 19.8082799688112 62.2140438943559  8.25959128175002 62.0848385613986  8.25959128175002 62.0848385613986  C 8.25959128175002 62.0848385613986  9.29474659032065 57.6413864076649  9.29474659032065 57.6413864076649  C 9.29474659032065 57.6413864076649  6.52336501847503 53.9186577518337  6.52336501847503 53.9186577518337  C 6.52336501847503 53.9186577518337  3.28375916280127 52.9617307546189  3.28375916280127 52.9617307546189  C 3.28375916280127 52.9617307546189  1.84112218019681 50.4361702619695  1.84112218019681 50.4361702619695  C 1.84112218019681 50.4361702619695  0.0239057705297558 49.6286369309865  0.0239057705297558 49.6286369309865  C 0.0239057705297558 49.6286369309865  0.104895916921809 48.068078768862  0.104895916921809 48.068078768862  C 0.104895916921809 48.068078768862  1.93223609488753 44.0728076138241  1.93223609488753 44.0728076138241  C 1.93223609488753 44.0728076138241  5.30851282259737 38.617919963034  5.30851282259737 38.617919963034  C 5.30851282259737 38.617919963034  7.36110684521548 38.5674491298475  7.36110684521548 38.5674491298475  C 7.36110684521548 38.5674491298475  11.5877801100397 35.2525248061626  11.5877801100397 35.2525248061626  C 11.5877801100397 35.2525248061626  14.2781715354935 35.1596584730994  14.2781715354935 35.1596584730994  C 14.2781715354935 35.1596584730994  18.2618743611421 37.4873732996578  18.2618743611421 37.4873732996578  C 18.2618743611421 37.4873732996578  23.1389997391757 35.5795758052105  23.1389997391757 35.5795758052105  C 23.1389997391757 35.5795758052105  23.802106562759 31.7569306454012  23.802106562759 31.7569306454012  C 23.802106562759 31.7569306454012  25.3966000698482 29.4716113187195  25.3966000698482 29.4716113187195  C 25.3966000698482 29.4716113187195  26.4950289302874 26.5967926604204  26.4950289302874 26.5967926604204  C 26.4950289302874 26.5967926604204  32.1276207777495 24.2549460005695  32.1276207777495 24.2549460005695  C 32.1276207777495 24.2549460005695  33.5601339920551 20.2677501788413  33.5601339920551 20.2677501788413  C 33.5601339920551 20.2677501788413  35.0660445265286 18.9979040158707  35.0660445265286 18.9979040158707  C 35.0660445265286 18.9979040158707  36.0657666460528 16.0302190245083  36.0657666460528 16.0302190245083  C 36.0657666460528 16.0302190245083  37.9437256655135 12.3801683684651  37.9437256655135 12.3801683684651  C 37.9437256655135 12.3801683684651  43.9192799039866 7.94479154804145  43.9192799039866 7.94479154804145  C 43.9192799039866 7.94479154804145  44.2963902731236 6.03497522026685  44.2963902731236 6.03497522026685  C 44.2963902731236 6.03497522026685  45.0683276059208 4.99729488995357  45.0683276059208 4.99729488995357  C 45.0683276059208 4.99729488995357  42.2589819029538 2.70390022996183  42.2589819029538 2.70390022996183  C 42.2589819029538 2.70390022996183  42.4867666896808 0.868780735303305  42.4867666896808 0.868780735303305  C 42.4867666896808 0.868780735303305  44.491272812879 0.537692069600356  44.491272812879 0.537692069600356  C 44.491272812879 0.537692069600356  47.3132732262194 4.22811939219227  47.3132732262194 4.22811939219227  C 47.3132732262194 4.22811939219227  47.7865593941968 8.04169554775942  47.7865593941968 8.04169554775942  C 47.7865593941968 8.04169554775942  47.5284033025727 11.8492152033438  47.5284033025727 11.8492152033438  C 47.5284033025727 11.8492152033438  51.3906209086338 17.0477110215467  51.3906209086338 17.0477110215467  C 51.3906209086338 17.0477110215467  47.4271656195831 16.9911836883778  47.4271656195831 16.9911836883778  C 47.4271656195831 16.9911836883778  45.4251904384596 17.3989880205242  45.4251904384596 17.3989880205242  C 45.4251904384596 17.3989880205242  42.1906464669359 16.8256393555265  42.1906464669359 16.8256393555265  C 42.1906464669359 16.8256393555265  40.6467718013414 19.5187630143545  40.6467718013414 19.5187630143545  C 40.6467718013414 19.5187630143545  44.8380118771189 22.8437815046768  44.8380118771189 22.8437815046768  C 44.8380118771189 22.8437815046768  47.9282921503825 23.8087838352014  47.9282921503825 23.8087838352014  C 47.9282921503825 23.8087838352014  48.925483327832 26.1627434950167  48.925483327832 26.1627434950167  C 48.925483327832 26.1627434950167  51.1653670639812 30.0792801502842  51.1653670639812 30.0792801502842  C 51.1653670639812 30.0792801502842  50.0517525510936 31.6156123124791  50.0517525510936 31.6156123124791  C 50.0517525510936 31.6156123124791  46.483124225703 38.8218221291074  46.483124225703 38.8218221291074  C 46.483124225703 38.8218221291074  44.7798002093996 39.8494082927829  44.7798002093996 39.8494082927829  C 44.7798002093996 39.8494082927829  44.2331167212547 44.2302766133656  44.2331167212547 44.2302766133656  C 44.2331167212547 44.2302766133656  44.9392495601085 46.6084622731102  44.9392495601085 46.6084622731102  C 44.9392495601085 46.6084622731102  44.3672566512162 48.2901504348826  44.3672566512162 48.2901504348826  C 44.3672566512162 48.2901504348826  47.7207549002534 51.2356282596428  47.7207549002534 51.2356282596428  C 47.7207549002534 51.2356282596428  48.3256500561174 53.2584992537551  48.3256500561174 53.2584992537551  C 48.3256500561174 53.2584992537551  50.9451751034785 56.167638078621  50.9451751034785 56.167638078621  C 50.9451751034785 56.167638078621  54.1898428433017 57.9785315733503  54.1898428433017 57.9785315733503  C 54.1898428433017 57.9785315733503  54.5087415447194 60.5464875658761  54.5087415447194 60.5464875658761  C 54.5087415447194 60.5464875658761  55.2553694567691 62.1777048944619  55.2553694567691 62.1777048944619  C 55.2553694567691 62.1777048944619  54.7466500997453 65.216049052285  54.7466500997453 65.216049052285  C 54.7466500997453 65.216049052285  49.1077111572137 63.8856378894908  49.1077111572137 63.8856378894908  C 49.1077111572137 63.8856378894908  43.3700654737666 62.4017953938095  43.3700654737666 62.4017953938095  Z " stroke-width="2" stroke="#505050" fill="none" stroke-opacity="0.211764705882353" transform="matrix(1 0 0 1 1900 4269 )" mask="url(#clip77)" />
  </g>
</svg>