<?xml version="1.0" encoding="utf-8"?>
<svg version="1.1" xmlns:xlink="http://www.w3.org/1999/xlink" width="27px" height="20px" xmlns="http://www.w3.org/2000/svg">
  <defs>
    <mask fill="white" id="clip78">
      <path d="M 23.8563654983536 18.1122326256803  C 23.8563654983536 18.1122326256803  23.4896719539664 19.2094816484606  23.4896719539664 19.2094816484606  C 23.4896719539664 19.2094816484606  19.7186748285786 17.9824504832011  19.7186748285786 17.9824504832011  C 19.7186748285786 17.9824504832011  18.3113644690382 16.8203103891808  18.3113644690382 16.8203103891808  C 18.3113644690382 16.8203103891808  19.1091706939888 15.8567763010761  19.1091706939888 15.8567763010761  C 19.1091706939888 15.8567763010761  18.8564494674516 14.6317115319146  18.8564494674516 14.6317115319146  C 18.8564494674516 14.6317115319146  16.9313083594185 13.3043941656479  16.9313083594185 13.3043941656479  C 16.9313083594185 13.3043941656479  12.3984503901 12.213044331162  12.3984503901 12.213044331162  C 12.3984503901 12.213044331162  10.0075093743318 11.5012089436235  10.0075093743318 11.5012089436235  C 10.0075093743318 11.5012089436235  9.54914244384765 8.44642794186289  9.54914244384765 8.44642794186289  C 9.54914244384765 8.44642794186289  7.7280630173298 7.45339791228584  7.7280630173298 7.45339791228584  C 7.7280630173298 7.45339791228584  8.17404165239552 9.06977550498368  8.17404165239552 9.06977550498368  C 8.17404165239552 9.06977550498368  6.78655256552472 11.8256642998218  6.78655256552472 11.8256642998218  C 6.78655256552472 11.8256642998218  5.2008507519583 8.85543833028318  5.2008507519583 8.85543833028318  C 5.2008507519583 8.85543833028318  2.96847991754655 8.306813818893  2.96847991754655 8.306813818893  C 2.96847991754655 8.306813818893  2.01705882940657 7.18400164683609  2.01705882940657 7.18400164683609  C 2.01705882940657 7.18400164683609  2.05917903382951 5.48896821021117  2.05917903382951 5.48896821021117  C 2.05917903382951 5.48896821021117  2.97839055388145 3.73494289064118  2.97839055388145 3.73494289064118  C 2.97839055388145 3.73494289064118  1.01608455959274 2.94838445137202  1.01608455959274 2.94838445137202  C 1.01608455959274 2.94838445137202  2.60921935041049 1.87079938957335  2.60921935041049 1.87079938957335  C 2.60921935041049 1.87079938957335  3.65479148373083 1.15109841764219  3.65479148373083 1.15109841764219  C 3.65479148373083 1.15109841764219  8.2310278113205 2.62982828346789  8.2310278113205 2.62982828346789  C 8.2310278113205 2.62982828346789  9.82911792030559 1.90226172714412  9.82911792030559 1.90226172714412  C 9.82911792030559 1.90226172714412  12.0317568457129 2.36829760241108  12.0317568457129 2.36829760241108  C 12.0317568457129 2.36829760241108  14.9838683196322 3.51667292374389  14.9838683196322 3.51667292374389  C 14.9838683196322 3.51667292374389  17.0328923818502 3.88832178629855  17.0328923818502 3.88832178629855  C 17.0328923818502 3.88832178629855  18.6978792860949 2.7045513351985  18.6978792860949 2.7045513351985  C 18.6978792860949 2.7045513351985  20.4570172355205 5.73476772248276  20.4570172355205 5.73476772248276  C 20.4570172355205 5.73476772248276  23.1427996822486 7.97449287830172  23.1427996822486 7.97449287830172  C 23.1427996822486 7.97449287830172  26.4058766954787 11.7745380012694  26.4058766954787 11.7745380012694  C 26.4058766954787 11.7745380012694  23.7176165896665 12.2720362141071  23.7176165896665 12.2720362141071  C 23.7176165896665 12.2720362141071  23.7572591350057 14.5058621816315  23.7572591350057 14.5058621816315  C 23.7572591350057 14.5058621816315  25.2042120398853 15.3297821467657  25.2042120398853 15.3297821467657  C 25.2042120398853 15.3297821467657  24.1635952247323 15.9865584435556  24.1635952247323 15.9865584435556  C 24.1635952247323 15.9865584435556  24.4361377239389 16.9894204536237  24.4361377239389 16.9894204536237  C 24.4361377239389 16.9894204536237  23.8563654983536 18.1122326256803  23.8563654983536 18.1122326256803  Z " fill-rule="evenodd" />
    </mask>
  </defs>
  <g transform="matrix(1 0 0 1 -1226 -4279 )">
    <path d="M 23.8563654983536 18.1122326256803  C 23.8563654983536 18.1122326256803  23.4896719539664 19.2094816484606  23.4896719539664 19.2094816484606  C 23.4896719539664 19.2094816484606  19.7186748285786 17.9824504832011  19.7186748285786 17.9824504832011  C 19.7186748285786 17.9824504832011  18.3113644690382 16.8203103891808  18.3113644690382 16.8203103891808  C 18.3113644690382 16.8203103891808  19.1091706939888 15.8567763010761  19.1091706939888 15.8567763010761  C 19.1091706939888 15.8567763010761  18.8564494674516 14.6317115319146  18.8564494674516 14.6317115319146  C 18.8564494674516 14.6317115319146  16.9313083594185 13.3043941656479  16.9313083594185 13.3043941656479  C 16.9313083594185 13.3043941656479  12.3984503901 12.213044331162  12.3984503901 12.213044331162  C 12.3984503901 12.213044331162  10.0075093743318 11.5012089436235  10.0075093743318 11.5012089436235  C 10.0075093743318 11.5012089436235  9.54914244384765 8.44642794186289  9.54914244384765 8.44642794186289  C 9.54914244384765 8.44642794186289  7.7280630173298 7.45339791228584  7.7280630173298 7.45339791228584  C 7.7280630173298 7.45339791228584  8.17404165239552 9.06977550498368  8.17404165239552 9.06977550498368  C 8.17404165239552 9.06977550498368  6.78655256552472 11.8256642998218  6.78655256552472 11.8256642998218  C 6.78655256552472 11.8256642998218  5.2008507519583 8.85543833028318  5.2008507519583 8.85543833028318  C 5.2008507519583 8.85543833028318  2.96847991754655 8.306813818893  2.96847991754655 8.306813818893  C 2.96847991754655 8.306813818893  2.01705882940657 7.18400164683609  2.01705882940657 7.18400164683609  C 2.01705882940657 7.18400164683609  2.05917903382951 5.48896821021117  2.05917903382951 5.48896821021117  C 2.05917903382951 5.48896821021117  2.97839055388145 3.73494289064118  2.97839055388145 3.73494289064118  C 2.97839055388145 3.73494289064118  1.01608455959274 2.94838445137202  1.01608455959274 2.94838445137202  C 1.01608455959274 2.94838445137202  2.60921935041049 1.87079938957335  2.60921935041049 1.87079938957335  C 2.60921935041049 1.87079938957335  3.65479148373083 1.15109841764219  3.65479148373083 1.15109841764219  C 3.65479148373083 1.15109841764219  8.2310278113205 2.62982828346789  8.2310278113205 2.62982828346789  C 8.2310278113205 2.62982828346789  9.82911792030559 1.90226172714412  9.82911792030559 1.90226172714412  C 9.82911792030559 1.90226172714412  12.0317568457129 2.36829760241108  12.0317568457129 2.36829760241108  C 12.0317568457129 2.36829760241108  14.9838683196322 3.51667292374389  14.9838683196322 3.51667292374389  C 14.9838683196322 3.51667292374389  17.0328923818502 3.88832178629855  17.0328923818502 3.88832178629855  C 17.0328923818502 3.88832178629855  18.6978792860949 2.7045513351985  18.6978792860949 2.7045513351985  C 18.6978792860949 2.7045513351985  20.4570172355205 5.73476772248276  20.4570172355205 5.73476772248276  C 20.4570172355205 5.73476772248276  23.1427996822486 7.97449287830172  23.1427996822486 7.97449287830172  C 23.1427996822486 7.97449287830172  26.4058766954787 11.7745380012694  26.4058766954787 11.7745380012694  C 26.4058766954787 11.7745380012694  23.7176165896665 12.2720362141071  23.7176165896665 12.2720362141071  C 23.7176165896665 12.2720362141071  23.7572591350057 14.5058621816315  23.7572591350057 14.5058621816315  C 23.7572591350057 14.5058621816315  25.2042120398853 15.3297821467657  25.2042120398853 15.3297821467657  C 25.2042120398853 15.3297821467657  24.1635952247323 15.9865584435556  24.1635952247323 15.9865584435556  C 24.1635952247323 15.9865584435556  24.4361377239389 16.9894204536237  24.4361377239389 16.9894204536237  C 24.4361377239389 16.9894204536237  23.8563654983536 18.1122326256803  23.8563654983536 18.1122326256803  Z " fill-rule="nonzero" fill="#f2f2f2" stroke="none" transform="matrix(1 0 0 1 1226 4279 )" />
    <path d="M 23.8563654983536 18.1122326256803  C 23.8563654983536 18.1122326256803  23.4896719539664 19.2094816484606  23.4896719539664 19.2094816484606  C 23.4896719539664 19.2094816484606  19.7186748285786 17.9824504832011  19.7186748285786 17.9824504832011  C 19.7186748285786 17.9824504832011  18.3113644690382 16.8203103891808  18.3113644690382 16.8203103891808  C 18.3113644690382 16.8203103891808  19.1091706939888 15.8567763010761  19.1091706939888 15.8567763010761  C 19.1091706939888 15.8567763010761  18.8564494674516 14.6317115319146  18.8564494674516 14.6317115319146  C 18.8564494674516 14.6317115319146  16.9313083594185 13.3043941656479  16.9313083594185 13.3043941656479  C 16.9313083594185 13.3043941656479  12.3984503901 12.213044331162  12.3984503901 12.213044331162  C 12.3984503901 12.213044331162  10.0075093743318 11.5012089436235  10.0075093743318 11.5012089436235  C 10.0075093743318 11.5012089436235  9.54914244384765 8.44642794186289  9.54914244384765 8.44642794186289  C 9.54914244384765 8.44642794186289  7.7280630173298 7.45339791228584  7.7280630173298 7.45339791228584  C 7.7280630173298 7.45339791228584  8.17404165239552 9.06977550498368  8.17404165239552 9.06977550498368  C 8.17404165239552 9.06977550498368  6.78655256552472 11.8256642998218  6.78655256552472 11.8256642998218  C 6.78655256552472 11.8256642998218  5.2008507519583 8.85543833028318  5.2008507519583 8.85543833028318  C 5.2008507519583 8.85543833028318  2.96847991754655 8.306813818893  2.96847991754655 8.306813818893  C 2.96847991754655 8.306813818893  2.01705882940657 7.18400164683609  2.01705882940657 7.18400164683609  C 2.01705882940657 7.18400164683609  2.05917903382951 5.48896821021117  2.05917903382951 5.48896821021117  C 2.05917903382951 5.48896821021117  2.97839055388145 3.73494289064118  2.97839055388145 3.73494289064118  C 2.97839055388145 3.73494289064118  1.01608455959274 2.94838445137202  1.01608455959274 2.94838445137202  C 1.01608455959274 2.94838445137202  2.60921935041049 1.87079938957335  2.60921935041049 1.87079938957335  C 2.60921935041049 1.87079938957335  3.65479148373083 1.15109841764219  3.65479148373083 1.15109841764219  C 3.65479148373083 1.15109841764219  8.2310278113205 2.62982828346789  8.2310278113205 2.62982828346789  C 8.2310278113205 2.62982828346789  9.82911792030559 1.90226172714412  9.82911792030559 1.90226172714412  C 9.82911792030559 1.90226172714412  12.0317568457129 2.36829760241108  12.0317568457129 2.36829760241108  C 12.0317568457129 2.36829760241108  14.9838683196322 3.51667292374389  14.9838683196322 3.51667292374389  C 14.9838683196322 3.51667292374389  17.0328923818502 3.88832178629855  17.0328923818502 3.88832178629855  C 17.0328923818502 3.88832178629855  18.6978792860949 2.7045513351985  18.6978792860949 2.7045513351985  C 18.6978792860949 2.7045513351985  20.4570172355205 5.73476772248276  20.4570172355205 5.73476772248276  C 20.4570172355205 5.73476772248276  23.1427996822486 7.97449287830172  23.1427996822486 7.97449287830172  C 23.1427996822486 7.97449287830172  26.4058766954787 11.7745380012694  26.4058766954787 11.7745380012694  C 26.4058766954787 11.7745380012694  23.7176165896665 12.2720362141071  23.7176165896665 12.2720362141071  C 23.7176165896665 12.2720362141071  23.7572591350057 14.5058621816315  23.7572591350057 14.5058621816315  C 23.7572591350057 14.5058621816315  25.2042120398853 15.3297821467657  25.2042120398853 15.3297821467657  C 25.2042120398853 15.3297821467657  24.1635952247323 15.9865584435556  24.1635952247323 15.9865584435556  C 24.1635952247323 15.9865584435556  24.4361377239389 16.9894204536237  24.4361377239389 16.9894204536237  C 24.4361377239389 16.9894204536237  23.8563654983536 18.1122326256803  23.8563654983536 18.1122326256803  Z " stroke-width="2" stroke="#505050" fill="none" stroke-opacity="0.211764705882353" transform="matrix(1 0 0 1 1226 4279 )" mask="url(#clip78)" />
  </g>
</svg>