<?xml version="1.0" encoding="utf-8"?>
<svg version="1.1" xmlns:xlink="http://www.w3.org/1999/xlink" width="78px" height="24px" xmlns="http://www.w3.org/2000/svg">
  <defs>
    <mask fill="white" id="clip79">
      <path d="M 17.7904925465139 1.63114712640049  C 17.7904925465139 1.63114712640049  19.4858643861883 0.943596730674358  19.4858643861883 0.943596730674358  C 19.4858643861883 0.943596730674358  25.5332732163671 1.38957536574014  25.5332732163671 1.38957536574014  C 25.5332732163671 1.38957536574014  31.0338684487716 1.4597757064447  31.0338684487716 1.4597757064447  C 31.0338684487716 1.4597757064447  37.6081159507785 3.59056251842469  37.6081159507785 3.59056251842469  C 37.6081159507785 3.59056251842469  42.20857160863 5.87207359132969  42.20857160863 5.87207359132969  C 42.20857160863 5.87207359132969  48.7478629902313 5.16800546837908  48.7478629902313 5.16800546837908  C 48.7478629902313 5.16800546837908  51.2272506732897 6.6318890436637  51.2272506732897 6.6318890436637  C 51.2272506732897 6.6318890436637  57.1573068135353 10.4763900552013  57.1573068135353 10.4763900552013  C 57.1573068135353 10.4763900552013  61.5143375355261 14.7637565243614  61.5143375355261 14.7637565243614  C 61.5143375355261 14.7637565243614  63.8189446165562 14.679103172335  63.8189446165562 14.679103172335  C 63.8189446165562 14.679103172335  67.9962010050322 15.9385798732145  67.9962010050322 15.9385798732145  C 67.9962010050322 15.9385798732145  67.4868403934072 17.6708765158999  67.4868403934072 17.6708765158999  C 67.4868403934072 17.6708765158999  72.6453650189848 17.9248365719787  72.6453650189848 17.9248365719787  C 72.6453650189848 17.9248365719787  77.9387203946985 20.4396605419322  77.9387203946985 20.4396605419322  C 77.9387203946985 20.4396605419322  77.1072641021925 21.8767028104768  77.1072641021925 21.8767028104768  C 77.1072641021925 21.8767028104768  72.4531063567537 22.6551007059386  72.4531063567537 22.6551007059386  C 72.4531063567537 22.6551007059386  67.7415206992197 22.9565492277883  67.7415206992197 22.9565492277883  C 67.7415206992197 22.9565492277883  62.9175760832389 22.4734057064672  62.9175760832389 22.4734057064672  C 62.9175760832389 22.4734057064672  52.8926601240449 23.0701086024577  52.8926601240449 23.0701086024577  C 52.8926601240449 23.0701086024577  57.5867677213761 19.6488743510519  57.5867677213761 19.6488743510519  C 57.5867677213761 19.6488743510519  54.7328501768286 18.05284895797  54.7328501768286 18.05284895797  C 54.7328501768286 18.05284895797  50.2185169130122 17.6419704932568  50.2185169130122 17.6419704932568  C 50.2185169130122 17.6419704932568  47.8015508735354 15.8642501007037  47.8015508735354 15.8642501007037  C 47.8015508735354 15.8642501007037  46.1411351542665 10.8459742018529  46.1411351542665 10.8459742018529  C 46.1411351542665 10.8459742018529  42.1860998169408 11.0875459625136  42.1860998169408 11.0875459625136  C 42.1860998169408 11.0875459625136  33.8428424099406 9.4254496605331  33.8428424099406 9.4254496605331  C 33.8428424099406 9.4254496605331  31.7429783198577 8.12467864159169  31.7429783198577 8.12467864159169  C 31.7429783198577 8.12467864159169  22.6169340282379 7.16045631485258  22.6169340282379 7.16045631485258  C 22.6169340282379 7.16045631485258  20.1725024655852 5.94846807974386  20.1725024655852 5.94846807974386  C 20.1725024655852 5.94846807974386  22.7992052274961 4.39167228882059  22.7992052274961 4.39167228882059  C 22.7992052274961 4.39167228882059  15.9328244335276 4.07164132384275  15.9328244335276 4.07164132384275  C 15.9328244335276 4.07164132384275  10.9016399608561 7.30705114397131  10.9016399608561 7.30705114397131  C 10.9016399608561 7.30705114397131  8.00028196718664 7.39376921190103  8.00028196718664 7.39376921190103  C 8.00028196718664 7.39376921190103  6.9965419383956 8.90927068476242  6.9965419383956 8.90927068476242  C 6.9965419383956 8.90927068476242  3.53089228674887 9.58649750097334  3.53089228674887 9.58649750097334  C 3.53089228674887 9.58649750097334  0.537150260578729 9.00011818449809  0.537150260578729 9.00011818449809  C 0.537150260578729 9.00011818449809  4.23251156060541 7.08199711053544  4.23251156060541 7.08199711053544  C 4.23251156060541 7.08199711053544  5.7481090667648 4.83558620798306  5.7481090667648 4.83558620798306  C 5.7481090667648 4.83558620798306  8.91413482922016 3.44809712111226  8.91413482922016 3.44809712111226  C 8.91413482922016 3.44809712111226  12.4896465735703 2.22991473829427  12.4896465735703 2.22991473829427  C 12.4896465735703 2.22991473829427  17.7904925465139 1.63114712640049  17.7904925465139 1.63114712640049  Z " fill-rule="evenodd" />
    </mask>
  </defs>
  <g transform="matrix(1 0 0 1 -1235 -4210 )">
    <path d="M 17.7904925465139 1.63114712640049  C 17.7904925465139 1.63114712640049  19.4858643861883 0.943596730674358  19.4858643861883 0.943596730674358  C 19.4858643861883 0.943596730674358  25.5332732163671 1.38957536574014  25.5332732163671 1.38957536574014  C 25.5332732163671 1.38957536574014  31.0338684487716 1.4597757064447  31.0338684487716 1.4597757064447  C 31.0338684487716 1.4597757064447  37.6081159507785 3.59056251842469  37.6081159507785 3.59056251842469  C 37.6081159507785 3.59056251842469  42.20857160863 5.87207359132969  42.20857160863 5.87207359132969  C 42.20857160863 5.87207359132969  48.7478629902313 5.16800546837908  48.7478629902313 5.16800546837908  C 48.7478629902313 5.16800546837908  51.2272506732897 6.6318890436637  51.2272506732897 6.6318890436637  C 51.2272506732897 6.6318890436637  57.1573068135353 10.4763900552013  57.1573068135353 10.4763900552013  C 57.1573068135353 10.4763900552013  61.5143375355261 14.7637565243614  61.5143375355261 14.7637565243614  C 61.5143375355261 14.7637565243614  63.8189446165562 14.679103172335  63.8189446165562 14.679103172335  C 63.8189446165562 14.679103172335  67.9962010050322 15.9385798732145  67.9962010050322 15.9385798732145  C 67.9962010050322 15.9385798732145  67.4868403934072 17.6708765158999  67.4868403934072 17.6708765158999  C 67.4868403934072 17.6708765158999  72.6453650189848 17.9248365719787  72.6453650189848 17.9248365719787  C 72.6453650189848 17.9248365719787  77.9387203946985 20.4396605419322  77.9387203946985 20.4396605419322  C 77.9387203946985 20.4396605419322  77.1072641021925 21.8767028104768  77.1072641021925 21.8767028104768  C 77.1072641021925 21.8767028104768  72.4531063567537 22.6551007059386  72.4531063567537 22.6551007059386  C 72.4531063567537 22.6551007059386  67.7415206992197 22.9565492277883  67.7415206992197 22.9565492277883  C 67.7415206992197 22.9565492277883  62.9175760832389 22.4734057064672  62.9175760832389 22.4734057064672  C 62.9175760832389 22.4734057064672  52.8926601240449 23.0701086024577  52.8926601240449 23.0701086024577  C 52.8926601240449 23.0701086024577  57.5867677213761 19.6488743510519  57.5867677213761 19.6488743510519  C 57.5867677213761 19.6488743510519  54.7328501768286 18.05284895797  54.7328501768286 18.05284895797  C 54.7328501768286 18.05284895797  50.2185169130122 17.6419704932568  50.2185169130122 17.6419704932568  C 50.2185169130122 17.6419704932568  47.8015508735354 15.8642501007037  47.8015508735354 15.8642501007037  C 47.8015508735354 15.8642501007037  46.1411351542665 10.8459742018529  46.1411351542665 10.8459742018529  C 46.1411351542665 10.8459742018529  42.1860998169408 11.0875459625136  42.1860998169408 11.0875459625136  C 42.1860998169408 11.0875459625136  33.8428424099406 9.4254496605331  33.8428424099406 9.4254496605331  C 33.8428424099406 9.4254496605331  31.7429783198577 8.12467864159169  31.7429783198577 8.12467864159169  C 31.7429783198577 8.12467864159169  22.6169340282379 7.16045631485258  22.6169340282379 7.16045631485258  C 22.6169340282379 7.16045631485258  20.1725024655852 5.94846807974386  20.1725024655852 5.94846807974386  C 20.1725024655852 5.94846807974386  22.7992052274961 4.39167228882059  22.7992052274961 4.39167228882059  C 22.7992052274961 4.39167228882059  15.9328244335276 4.07164132384275  15.9328244335276 4.07164132384275  C 15.9328244335276 4.07164132384275  10.9016399608561 7.30705114397131  10.9016399608561 7.30705114397131  C 10.9016399608561 7.30705114397131  8.00028196718664 7.39376921190103  8.00028196718664 7.39376921190103  C 8.00028196718664 7.39376921190103  6.9965419383956 8.90927068476242  6.9965419383956 8.90927068476242  C 6.9965419383956 8.90927068476242  3.53089228674887 9.58649750097334  3.53089228674887 9.58649750097334  C 3.53089228674887 9.58649750097334  0.537150260578729 9.00011818449809  0.537150260578729 9.00011818449809  C 0.537150260578729 9.00011818449809  4.23251156060541 7.08199711053544  4.23251156060541 7.08199711053544  C 4.23251156060541 7.08199711053544  5.7481090667648 4.83558620798306  5.7481090667648 4.83558620798306  C 5.7481090667648 4.83558620798306  8.91413482922016 3.44809712111226  8.91413482922016 3.44809712111226  C 8.91413482922016 3.44809712111226  12.4896465735703 2.22991473829427  12.4896465735703 2.22991473829427  C 12.4896465735703 2.22991473829427  17.7904925465139 1.63114712640049  17.7904925465139 1.63114712640049  Z " fill-rule="nonzero" fill="#f2f2f2" stroke="none" transform="matrix(1 0 0 1 1235 4210 )" />
    <path d="M 17.7904925465139 1.63114712640049  C 17.7904925465139 1.63114712640049  19.4858643861883 0.943596730674358  19.4858643861883 0.943596730674358  C 19.4858643861883 0.943596730674358  25.5332732163671 1.38957536574014  25.5332732163671 1.38957536574014  C 25.5332732163671 1.38957536574014  31.0338684487716 1.4597757064447  31.0338684487716 1.4597757064447  C 31.0338684487716 1.4597757064447  37.6081159507785 3.59056251842469  37.6081159507785 3.59056251842469  C 37.6081159507785 3.59056251842469  42.20857160863 5.87207359132969  42.20857160863 5.87207359132969  C 42.20857160863 5.87207359132969  48.7478629902313 5.16800546837908  48.7478629902313 5.16800546837908  C 48.7478629902313 5.16800546837908  51.2272506732897 6.6318890436637  51.2272506732897 6.6318890436637  C 51.2272506732897 6.6318890436637  57.1573068135353 10.4763900552013  57.1573068135353 10.4763900552013  C 57.1573068135353 10.4763900552013  61.5143375355261 14.7637565243614  61.5143375355261 14.7637565243614  C 61.5143375355261 14.7637565243614  63.8189446165562 14.679103172335  63.8189446165562 14.679103172335  C 63.8189446165562 14.679103172335  67.9962010050322 15.9385798732145  67.9962010050322 15.9385798732145  C 67.9962010050322 15.9385798732145  67.4868403934072 17.6708765158999  67.4868403934072 17.6708765158999  C 67.4868403934072 17.6708765158999  72.6453650189848 17.9248365719787  72.6453650189848 17.9248365719787  C 72.6453650189848 17.9248365719787  77.9387203946985 20.4396605419322  77.9387203946985 20.4396605419322  C 77.9387203946985 20.4396605419322  77.1072641021925 21.8767028104768  77.1072641021925 21.8767028104768  C 77.1072641021925 21.8767028104768  72.4531063567537 22.6551007059386  72.4531063567537 22.6551007059386  C 72.4531063567537 22.6551007059386  67.7415206992197 22.9565492277883  67.7415206992197 22.9565492277883  C 67.7415206992197 22.9565492277883  62.9175760832389 22.4734057064672  62.9175760832389 22.4734057064672  C 62.9175760832389 22.4734057064672  52.8926601240449 23.0701086024577  52.8926601240449 23.0701086024577  C 52.8926601240449 23.0701086024577  57.5867677213761 19.6488743510519  57.5867677213761 19.6488743510519  C 57.5867677213761 19.6488743510519  54.7328501768286 18.05284895797  54.7328501768286 18.05284895797  C 54.7328501768286 18.05284895797  50.2185169130122 17.6419704932568  50.2185169130122 17.6419704932568  C 50.2185169130122 17.6419704932568  47.8015508735354 15.8642501007037  47.8015508735354 15.8642501007037  C 47.8015508735354 15.8642501007037  46.1411351542665 10.8459742018529  46.1411351542665 10.8459742018529  C 46.1411351542665 10.8459742018529  42.1860998169408 11.0875459625136  42.1860998169408 11.0875459625136  C 42.1860998169408 11.0875459625136  33.8428424099406 9.4254496605331  33.8428424099406 9.4254496605331  C 33.8428424099406 9.4254496605331  31.7429783198577 8.12467864159169  31.7429783198577 8.12467864159169  C 31.7429783198577 8.12467864159169  22.6169340282379 7.16045631485258  22.6169340282379 7.16045631485258  C 22.6169340282379 7.16045631485258  20.1725024655852 5.94846807974386  20.1725024655852 5.94846807974386  C 20.1725024655852 5.94846807974386  22.7992052274961 4.39167228882059  22.7992052274961 4.39167228882059  C 22.7992052274961 4.39167228882059  15.9328244335276 4.07164132384275  15.9328244335276 4.07164132384275  C 15.9328244335276 4.07164132384275  10.9016399608561 7.30705114397131  10.9016399608561 7.30705114397131  C 10.9016399608561 7.30705114397131  8.00028196718664 7.39376921190103  8.00028196718664 7.39376921190103  C 8.00028196718664 7.39376921190103  6.9965419383956 8.90927068476242  6.9965419383956 8.90927068476242  C 6.9965419383956 8.90927068476242  3.53089228674887 9.58649750097334  3.53089228674887 9.58649750097334  C 3.53089228674887 9.58649750097334  0.537150260578729 9.00011818449809  0.537150260578729 9.00011818449809  C 0.537150260578729 9.00011818449809  4.23251156060541 7.08199711053544  4.23251156060541 7.08199711053544  C 4.23251156060541 7.08199711053544  5.7481090667648 4.83558620798306  5.7481090667648 4.83558620798306  C 5.7481090667648 4.83558620798306  8.91413482922016 3.44809712111226  8.91413482922016 3.44809712111226  C 8.91413482922016 3.44809712111226  12.4896465735703 2.22991473829427  12.4896465735703 2.22991473829427  C 12.4896465735703 2.22991473829427  17.7904925465139 1.63114712640049  17.7904925465139 1.63114712640049  Z " stroke-width="2" stroke="#505050" fill="none" stroke-opacity="0.211764705882353" transform="matrix(1 0 0 1 1235 4210 )" mask="url(#clip79)" />
  </g>
</svg>