<?xml version="1.0" encoding="utf-8"?>
<svg version="1.1" xmlns:xlink="http://www.w3.org/1999/xlink" width="20px" height="11px" xmlns="http://www.w3.org/2000/svg">
  <defs>
    <mask fill="white" id="clip80">
      <path d="M 15.2192019958118 6.76289050479142  C 15.2192019958118 6.76289050479142  14.7086540634134 3.80711908024931  14.7086540634134 3.80711908024931  C 14.7086540634134 3.80711908024931  19.4487412397 0.651249982291769  19.4487412397 0.651249982291769  C 19.4487412397 0.651249982291769  13.0693947706641 2.86619854727364  13.0693947706641 2.86619854727364  C 13.0693947706641 2.86619854727364  6.19578734736148 2.76453586899799  6.19578734736148 2.76453586899799  C 6.19578734736148 2.76453586899799  5.18219954039399 4.54904032808996  5.18219954039399 4.54904032808996  C 5.18219954039399 4.54904032808996  4.68666772365478 4.58797497083365  4.68666772365478 4.58797497083365  C 4.68666772365478 4.58797497083365  1.35309004740665 6.43194604146904  1.35309004740665 6.43194604146904  C 1.35309004740665 6.43194604146904  2.99234934015617 9.38881585429138  2.99234934015617 9.38881585429138  C 2.99234934015617 9.38881585429138  6.42853714007246 10.340551565807  6.42853714007246 10.340551565807  C 6.42853714007246 10.340551565807  15.439438358807 7.35556228878069  15.439438358807 7.35556228878069  C 15.439438358807 7.35556228878069  15.2192019958118 6.76289050479142  15.2192019958118 6.76289050479142  Z " fill-rule="evenodd" />
    </mask>
  </defs>
  <g transform="matrix(1 0 0 1 -2068 -4130 )">
    <path d="M 15.2192019958118 6.76289050479142  C 15.2192019958118 6.76289050479142  14.7086540634134 3.80711908024931  14.7086540634134 3.80711908024931  C 14.7086540634134 3.80711908024931  19.4487412397 0.651249982291769  19.4487412397 0.651249982291769  C 19.4487412397 0.651249982291769  13.0693947706641 2.86619854727364  13.0693947706641 2.86619854727364  C 13.0693947706641 2.86619854727364  6.19578734736148 2.76453586899799  6.19578734736148 2.76453586899799  C 6.19578734736148 2.76453586899799  5.18219954039399 4.54904032808996  5.18219954039399 4.54904032808996  C 5.18219954039399 4.54904032808996  4.68666772365478 4.58797497083365  4.68666772365478 4.58797497083365  C 4.68666772365478 4.58797497083365  1.35309004740665 6.43194604146904  1.35309004740665 6.43194604146904  C 1.35309004740665 6.43194604146904  2.99234934015617 9.38881585429138  2.99234934015617 9.38881585429138  C 2.99234934015617 9.38881585429138  6.42853714007246 10.340551565807  6.42853714007246 10.340551565807  C 6.42853714007246 10.340551565807  15.439438358807 7.35556228878069  15.439438358807 7.35556228878069  C 15.439438358807 7.35556228878069  15.2192019958118 6.76289050479142  15.2192019958118 6.76289050479142  Z " fill-rule="nonzero" fill="#f2f2f2" stroke="none" transform="matrix(1 0 0 1 2068 4130 )" />
    <path d="M 15.2192019958118 6.76289050479142  C 15.2192019958118 6.76289050479142  14.7086540634134 3.80711908024931  14.7086540634134 3.80711908024931  C 14.7086540634134 3.80711908024931  19.4487412397 0.651249982291769  19.4487412397 0.651249982291769  C 19.4487412397 0.651249982291769  13.0693947706641 2.86619854727364  13.0693947706641 2.86619854727364  C 13.0693947706641 2.86619854727364  6.19578734736148 2.76453586899799  6.19578734736148 2.76453586899799  C 6.19578734736148 2.76453586899799  5.18219954039399 4.54904032808996  5.18219954039399 4.54904032808996  C 5.18219954039399 4.54904032808996  4.68666772365478 4.58797497083365  4.68666772365478 4.58797497083365  C 4.68666772365478 4.58797497083365  1.35309004740665 6.43194604146904  1.35309004740665 6.43194604146904  C 1.35309004740665 6.43194604146904  2.99234934015617 9.38881585429138  2.99234934015617 9.38881585429138  C 2.99234934015617 9.38881585429138  6.42853714007246 10.340551565807  6.42853714007246 10.340551565807  C 6.42853714007246 10.340551565807  15.439438358807 7.35556228878069  15.439438358807 7.35556228878069  C 15.439438358807 7.35556228878069  15.2192019958118 6.76289050479142  15.2192019958118 6.76289050479142  Z " stroke-width="2" stroke="#505050" fill="none" stroke-opacity="0.211764705882353" transform="matrix(1 0 0 1 2068 4130 )" mask="url(#clip80)" />
  </g>
</svg>