<?xml version="1.0" encoding="utf-8"?>
<svg version="1.1" xmlns:xlink="http://www.w3.org/1999/xlink" width="53px" height="26px" xmlns="http://www.w3.org/2000/svg">
  <defs>
    <mask fill="white" id="clip81">
      <path d="M 38.3422895266129 22.7225108532863  C 38.3422895266129 22.7225108532863  37.3053105442414 24.5755551408222  37.3053105442414 24.5755551408222  C 37.3053105442414 24.5755551408222  33.9390370637793 22.9849591858557  33.9390370637793 22.9849591858557  C 33.9390370637793 22.9849591858557  30.5076267125654 23.4223730734715  30.5076267125654 23.4223730734715  C 30.5076267125654 23.4223730734715  22.9426508646262 20.8416311365385  22.9426508646262 20.8416311365385  C 22.9426508646262 20.8416311365385  20.3710472073383 21.4758812735814  20.3710472073383 21.4758812735814  C 20.3710472073383 21.4758812735814  16.2622134003037 24.9254862509147  16.2622134003037 24.9254862509147  C 16.2622134003037 24.9254862509147  10.8350093292493 22.2135201476971  10.8350093292493 22.2135201476971  C 10.8350093292493 22.2135201476971  6.71054267323465 18.563102431049  6.71054267323465 18.563102431049  C 6.71054267323465 18.563102431049  2.98210819139154 16.5092454041986  2.98210819139154 16.5092454041986  C 2.98210819139154 16.5092454041986  2.20828216685818 11.436253937487  2.20828216685818 11.436253937487  C 2.20828216685818 11.436253937487  0.928994025289317 8.85948849044152  0.928994025289317 8.85948849044152  C 0.928994025289317 8.85948849044152  6.23895172899036 6.96270281414398  6.23895172899036 6.96270281414398  C 6.23895172899036 6.96270281414398  8.95125102710213 4.77960986595254  8.95125102710213 4.77960986595254  C 8.95125102710213 4.77960986595254  14.1986773348813 3.07369570425115  14.1986773348813 3.07369570425115  C 14.1986773348813 3.07369570425115  16.030326140427 1.39164048187417  16.030326140427 1.39164048187417  C 16.030326140427 1.39164048187417  17.9557720398551 2.40763364810889  17.9557720398551 2.40763364810889  C 17.9557720398551 2.40763364810889  21.2152210522836 1.48508799422839  21.2152210522836 1.48508799422839  C 21.2152210522836 1.48508799422839  24.6805025762888 4.32629001878725  24.6805025762888 4.32629001878725  C 24.6805025762888 4.32629001878725  32.0344349629917 5.09176432211478  32.0344349629917 5.09176432211478  C 32.0344349629917 5.09176432211478  31.5784768677279 7.49952894894522  31.5784768677279 7.49952894894522  C 31.5784768677279 7.49952894894522  35.546615033938 9.298890623001  35.546615033938 9.298890623001  C 35.546615033938 9.298890623001  36.635703512911 7.05018559166722  36.635703512911 7.05018559166722  C 36.635703512911 7.05018559166722  41.6486370859831 8.02641385902786  41.6486370859831 8.02641385902786  C 41.6486370859831 8.02641385902786  42.3390879159539 10.7443446970767  42.3390879159539 10.7443446970767  C 42.3390879159539 10.7443446970767  47.7715029366684 11.2692413622156  47.7715029366684 11.2692413622156  C 47.7715029366684 11.2692413622156  51.1325654674703 16.9486475367581  51.1325654674703 16.9486475367581  C 51.1325654674703 16.9486475367581  48.9543885095243 16.9585887614766  48.9543885095243 16.9585887614766  C 48.9543885095243 16.9585887614766  47.8236124332703 18.4974903479067  47.8236124332703 18.4974903479067  C 47.8236124332703 18.4974903479067  46.1456866426992 18.8673039074364  46.1456866426992 18.8673039074364  C 46.1456866426992 18.8673039074364  45.6688847487948 20.8018662376644  45.6688847487948 20.8018662376644  C 45.6688847487948 20.8018662376644  44.2697447650425 21.2034917162934  44.2697447650425 21.2034917162934  C 44.2697447650425 21.2034917162934  44.0717286779564 21.9908367140017  44.0717286779564 21.9908367140017  C 44.0717286779564 21.9908367140017  41.5782892655709 22.8636762442896  41.5782892655709 22.8636762442896  C 41.5782892655709 22.8636762442896  38.3422895266129 22.7225108532863  38.3422895266129 22.7225108532863  Z " fill-rule="evenodd" />
    </mask>
  </defs>
  <g transform="matrix(1 0 0 1 -1927 -4010 )">
    <path d="M 38.3422895266129 22.7225108532863  C 38.3422895266129 22.7225108532863  37.3053105442414 24.5755551408222  37.3053105442414 24.5755551408222  C 37.3053105442414 24.5755551408222  33.9390370637793 22.9849591858557  33.9390370637793 22.9849591858557  C 33.9390370637793 22.9849591858557  30.5076267125654 23.4223730734715  30.5076267125654 23.4223730734715  C 30.5076267125654 23.4223730734715  22.9426508646262 20.8416311365385  22.9426508646262 20.8416311365385  C 22.9426508646262 20.8416311365385  20.3710472073383 21.4758812735814  20.3710472073383 21.4758812735814  C 20.3710472073383 21.4758812735814  16.2622134003037 24.9254862509147  16.2622134003037 24.9254862509147  C 16.2622134003037 24.9254862509147  10.8350093292493 22.2135201476971  10.8350093292493 22.2135201476971  C 10.8350093292493 22.2135201476971  6.71054267323465 18.563102431049  6.71054267323465 18.563102431049  C 6.71054267323465 18.563102431049  2.98210819139154 16.5092454041986  2.98210819139154 16.5092454041986  C 2.98210819139154 16.5092454041986  2.20828216685818 11.436253937487  2.20828216685818 11.436253937487  C 2.20828216685818 11.436253937487  0.928994025289317 8.85948849044152  0.928994025289317 8.85948849044152  C 0.928994025289317 8.85948849044152  6.23895172899036 6.96270281414398  6.23895172899036 6.96270281414398  C 6.23895172899036 6.96270281414398  8.95125102710213 4.77960986595254  8.95125102710213 4.77960986595254  C 8.95125102710213 4.77960986595254  14.1986773348813 3.07369570425115  14.1986773348813 3.07369570425115  C 14.1986773348813 3.07369570425115  16.030326140427 1.39164048187417  16.030326140427 1.39164048187417  C 16.030326140427 1.39164048187417  17.9557720398551 2.40763364810889  17.9557720398551 2.40763364810889  C 17.9557720398551 2.40763364810889  21.2152210522836 1.48508799422839  21.2152210522836 1.48508799422839  C 21.2152210522836 1.48508799422839  24.6805025762888 4.32629001878725  24.6805025762888 4.32629001878725  C 24.6805025762888 4.32629001878725  32.0344349629917 5.09176432211478  32.0344349629917 5.09176432211478  C 32.0344349629917 5.09176432211478  31.5784768677279 7.49952894894522  31.5784768677279 7.49952894894522  C 31.5784768677279 7.49952894894522  35.546615033938 9.298890623001  35.546615033938 9.298890623001  C 35.546615033938 9.298890623001  36.635703512911 7.05018559166722  36.635703512911 7.05018559166722  C 36.635703512911 7.05018559166722  41.6486370859831 8.02641385902786  41.6486370859831 8.02641385902786  C 41.6486370859831 8.02641385902786  42.3390879159539 10.7443446970767  42.3390879159539 10.7443446970767  C 42.3390879159539 10.7443446970767  47.7715029366684 11.2692413622156  47.7715029366684 11.2692413622156  C 47.7715029366684 11.2692413622156  51.1325654674703 16.9486475367581  51.1325654674703 16.9486475367581  C 51.1325654674703 16.9486475367581  48.9543885095243 16.9585887614766  48.9543885095243 16.9585887614766  C 48.9543885095243 16.9585887614766  47.8236124332703 18.4974903479067  47.8236124332703 18.4974903479067  C 47.8236124332703 18.4974903479067  46.1456866426992 18.8673039074364  46.1456866426992 18.8673039074364  C 46.1456866426992 18.8673039074364  45.6688847487948 20.8018662376644  45.6688847487948 20.8018662376644  C 45.6688847487948 20.8018662376644  44.2697447650425 21.2034917162934  44.2697447650425 21.2034917162934  C 44.2697447650425 21.2034917162934  44.0717286779564 21.9908367140017  44.0717286779564 21.9908367140017  C 44.0717286779564 21.9908367140017  41.5782892655709 22.8636762442896  41.5782892655709 22.8636762442896  C 41.5782892655709 22.8636762442896  38.3422895266129 22.7225108532863  38.3422895266129 22.7225108532863  Z " fill-rule="nonzero" fill="#74b9ff" stroke="none" transform="matrix(1 0 0 1 1927 4010 )" />
    <path d="M 38.3422895266129 22.7225108532863  C 38.3422895266129 22.7225108532863  37.3053105442414 24.5755551408222  37.3053105442414 24.5755551408222  C 37.3053105442414 24.5755551408222  33.9390370637793 22.9849591858557  33.9390370637793 22.9849591858557  C 33.9390370637793 22.9849591858557  30.5076267125654 23.4223730734715  30.5076267125654 23.4223730734715  C 30.5076267125654 23.4223730734715  22.9426508646262 20.8416311365385  22.9426508646262 20.8416311365385  C 22.9426508646262 20.8416311365385  20.3710472073383 21.4758812735814  20.3710472073383 21.4758812735814  C 20.3710472073383 21.4758812735814  16.2622134003037 24.9254862509147  16.2622134003037 24.9254862509147  C 16.2622134003037 24.9254862509147  10.8350093292493 22.2135201476971  10.8350093292493 22.2135201476971  C 10.8350093292493 22.2135201476971  6.71054267323465 18.563102431049  6.71054267323465 18.563102431049  C 6.71054267323465 18.563102431049  2.98210819139154 16.5092454041986  2.98210819139154 16.5092454041986  C 2.98210819139154 16.5092454041986  2.20828216685818 11.436253937487  2.20828216685818 11.436253937487  C 2.20828216685818 11.436253937487  0.928994025289317 8.85948849044152  0.928994025289317 8.85948849044152  C 0.928994025289317 8.85948849044152  6.23895172899036 6.96270281414398  6.23895172899036 6.96270281414398  C 6.23895172899036 6.96270281414398  8.95125102710213 4.77960986595254  8.95125102710213 4.77960986595254  C 8.95125102710213 4.77960986595254  14.1986773348813 3.07369570425115  14.1986773348813 3.07369570425115  C 14.1986773348813 3.07369570425115  16.030326140427 1.39164048187417  16.030326140427 1.39164048187417  C 16.030326140427 1.39164048187417  17.9557720398551 2.40763364810889  17.9557720398551 2.40763364810889  C 17.9557720398551 2.40763364810889  21.2152210522836 1.48508799422839  21.2152210522836 1.48508799422839  C 21.2152210522836 1.48508799422839  24.6805025762888 4.32629001878725  24.6805025762888 4.32629001878725  C 24.6805025762888 4.32629001878725  32.0344349629917 5.09176432211478  32.0344349629917 5.09176432211478  C 32.0344349629917 5.09176432211478  31.5784768677279 7.49952894894522  31.5784768677279 7.49952894894522  C 31.5784768677279 7.49952894894522  35.546615033938 9.298890623001  35.546615033938 9.298890623001  C 35.546615033938 9.298890623001  36.635703512911 7.05018559166722  36.635703512911 7.05018559166722  C 36.635703512911 7.05018559166722  41.6486370859831 8.02641385902786  41.6486370859831 8.02641385902786  C 41.6486370859831 8.02641385902786  42.3390879159539 10.7443446970767  42.3390879159539 10.7443446970767  C 42.3390879159539 10.7443446970767  47.7715029366684 11.2692413622156  47.7715029366684 11.2692413622156  C 47.7715029366684 11.2692413622156  51.1325654674703 16.9486475367581  51.1325654674703 16.9486475367581  C 51.1325654674703 16.9486475367581  48.9543885095243 16.9585887614766  48.9543885095243 16.9585887614766  C 48.9543885095243 16.9585887614766  47.8236124332703 18.4974903479067  47.8236124332703 18.4974903479067  C 47.8236124332703 18.4974903479067  46.1456866426992 18.8673039074364  46.1456866426992 18.8673039074364  C 46.1456866426992 18.8673039074364  45.6688847487948 20.8018662376644  45.6688847487948 20.8018662376644  C 45.6688847487948 20.8018662376644  44.2697447650425 21.2034917162934  44.2697447650425 21.2034917162934  C 44.2697447650425 21.2034917162934  44.0717286779564 21.9908367140017  44.0717286779564 21.9908367140017  C 44.0717286779564 21.9908367140017  41.5782892655709 22.8636762442896  41.5782892655709 22.8636762442896  C 41.5782892655709 22.8636762442896  38.3422895266129 22.7225108532863  38.3422895266129 22.7225108532863  Z " stroke-width="2" stroke="#505050" fill="none" stroke-opacity="0.211764705882353" transform="matrix(1 0 0 1 1927 4010 )" mask="url(#clip81)" />
  </g>
</svg>