<?xml version="1.0" encoding="utf-8"?>
<svg version="1.1" xmlns:xlink="http://www.w3.org/1999/xlink" width="15px" height="14px" xmlns="http://www.w3.org/2000/svg">
  <defs>
    <mask fill="white" id="clip85">
      <path d="M 10.0446775119103 3.04120910703073  C 10.0446775119103 3.04120910703073  12.2255336845402 1.54880186389957  12.2255336845402 1.54880186389957  C 12.2255336845402 1.54880186389957  13.9392478840976 3.43946986344731  13.9392478840976 3.43946986344731  C 13.9392478840976 3.43946986344731  13.7121291347584 5.97249392173126  13.7121291347584 5.97249392173126  C 13.7121291347584 5.97249392173126  9.58269732859577 8.98619773061869  9.58269732859577 8.98619773061869  C 9.58269732859577 8.98619773061869  12.690094762733 10.6541822964709  12.690094762733 10.6541822964709  C 12.690094762733 10.6541822964709  10.0240303528793 13.9066451405397  10.0240303528793 13.9066451405397  C 10.0240303528793 13.9066451405397  8.41871373823352 12.8232045881376  8.41871373823352 12.8232045881376  C 8.41871373823352 12.8232045881376  4.80160969500801 13.2557243343534  4.80160969500801 13.2557243343534  C 4.80160969500801 13.2557243343534  0.759928314726466 13.1529473649556  0.759928314726466 13.1529473649556  C 0.759928314726466 13.1529473649556  0.643788045178155 11.3029619157945  0.643788045178155 11.3029619157945  C 0.643788045178155 11.3029619157945  0.0785720667097678 9.62427141563022  0.0785720667097678 9.62427141563022  C 0.0785720667097678 9.62427141563022  2.52784130674002 5.21023139869739  2.52784130674002 5.21023139869739  C 2.52784130674002 5.21023139869739  5.07002276240883 2.51019476514173  5.07002276240883 2.51019476514173  C 5.07002276240883 2.51019476514173  10.0446775119103 3.04120910703073  10.0446775119103 3.04120910703073  Z " fill-rule="evenodd" />
    </mask>
  </defs>
  <g transform="matrix(1 0 0 1 -2138 -4269 )">
    <path d="M 10.0446775119103 3.04120910703073  C 10.0446775119103 3.04120910703073  12.2255336845402 1.54880186389957  12.2255336845402 1.54880186389957  C 12.2255336845402 1.54880186389957  13.9392478840976 3.43946986344731  13.9392478840976 3.43946986344731  C 13.9392478840976 3.43946986344731  13.7121291347584 5.97249392173126  13.7121291347584 5.97249392173126  C 13.7121291347584 5.97249392173126  9.58269732859577 8.98619773061869  9.58269732859577 8.98619773061869  C 9.58269732859577 8.98619773061869  12.690094762733 10.6541822964709  12.690094762733 10.6541822964709  C 12.690094762733 10.6541822964709  10.0240303528793 13.9066451405397  10.0240303528793 13.9066451405397  C 10.0240303528793 13.9066451405397  8.41871373823352 12.8232045881376  8.41871373823352 12.8232045881376  C 8.41871373823352 12.8232045881376  4.80160969500801 13.2557243343534  4.80160969500801 13.2557243343534  C 4.80160969500801 13.2557243343534  0.759928314726466 13.1529473649556  0.759928314726466 13.1529473649556  C 0.759928314726466 13.1529473649556  0.643788045178155 11.3029619157945  0.643788045178155 11.3029619157945  C 0.643788045178155 11.3029619157945  0.0785720667097678 9.62427141563022  0.0785720667097678 9.62427141563022  C 0.0785720667097678 9.62427141563022  2.52784130674002 5.21023139869739  2.52784130674002 5.21023139869739  C 2.52784130674002 5.21023139869739  5.07002276240883 2.51019476514173  5.07002276240883 2.51019476514173  C 5.07002276240883 2.51019476514173  10.0446775119103 3.04120910703073  10.0446775119103 3.04120910703073  Z " fill-rule="nonzero" fill="#f2f2f2" stroke="none" transform="matrix(1 0 0 1 2138 4269 )" />
    <path d="M 10.0446775119103 3.04120910703073  C 10.0446775119103 3.04120910703073  12.2255336845402 1.54880186389957  12.2255336845402 1.54880186389957  C 12.2255336845402 1.54880186389957  13.9392478840976 3.43946986344731  13.9392478840976 3.43946986344731  C 13.9392478840976 3.43946986344731  13.7121291347584 5.97249392173126  13.7121291347584 5.97249392173126  C 13.7121291347584 5.97249392173126  9.58269732859577 8.98619773061869  9.58269732859577 8.98619773061869  C 9.58269732859577 8.98619773061869  12.690094762733 10.6541822964709  12.690094762733 10.6541822964709  C 12.690094762733 10.6541822964709  10.0240303528793 13.9066451405397  10.0240303528793 13.9066451405397  C 10.0240303528793 13.9066451405397  8.41871373823352 12.8232045881376  8.41871373823352 12.8232045881376  C 8.41871373823352 12.8232045881376  4.80160969500801 13.2557243343534  4.80160969500801 13.2557243343534  C 4.80160969500801 13.2557243343534  0.759928314726466 13.1529473649556  0.759928314726466 13.1529473649556  C 0.759928314726466 13.1529473649556  0.643788045178155 11.3029619157945  0.643788045178155 11.3029619157945  C 0.643788045178155 11.3029619157945  0.0785720667097678 9.62427141563022  0.0785720667097678 9.62427141563022  C 0.0785720667097678 9.62427141563022  2.52784130674002 5.21023139869739  2.52784130674002 5.21023139869739  C 2.52784130674002 5.21023139869739  5.07002276240883 2.51019476514173  5.07002276240883 2.51019476514173  C 5.07002276240883 2.51019476514173  10.0446775119103 3.04120910703073  10.0446775119103 3.04120910703073  Z " stroke-width="2" stroke="#505050" fill="none" stroke-opacity="0.211764705882353" transform="matrix(1 0 0 1 2138 4269 )" mask="url(#clip85)" />
  </g>
</svg>