<?xml version="1.0" encoding="utf-8"?>
<svg version="1.1" xmlns:xlink="http://www.w3.org/1999/xlink" width="38px" height="32px" xmlns="http://www.w3.org/2000/svg">
  <defs>
    <mask fill="white" id="clip86">
      <path d="M 34.1923172625997 16.7281505527468  C 34.1923172625997 16.7281505527468  36.5330168580597 21.7335224390049  36.5330168580597 21.7335224390049  C 36.5330168580597 21.7335224390049  32.1314554958709 31.1386005976824  32.1314554958709 31.1386005976824  C 32.1314554958709 31.1386005976824  22.558145313659 25.610667886499  22.558145313659 25.610667886499  C 22.558145313659 25.610667886499  21.5355603507262 20.0437088902041  21.5355603507262 20.0437088902041  C 21.5355603507262 20.0437088902041  34.1923172625997 16.7281505527468  34.1923172625997 16.7281505527468  Z M 19.5178307484925 11.684737840153  C 19.5178307484925 11.684737840153  23.4957124073693 13.2223880836116  23.4957124073693 13.2223880836116  C 23.4957124073693 13.2223880836116  21.7042272421289 18.4830183204677  21.7042272421289 18.4830183204677  C 21.7042272421289 18.4830183204677  19.5204460553031 17.3918472492634  19.5204460553031 17.3918472492634  C 19.5204460553031 17.3918472492634  14.2401416047628 24.5735548316664  14.2401416047628 24.5735548316664  C 14.2401416047628 24.5735548316664  16.233005394417 29.3566882061745  16.233005394417 29.3566882061745  C 16.233005394417 29.3566882061745  9.64114497625479 30.8402804332614  9.64114497625479 30.8402804332614  C 9.64114497625479 30.8402804332614  4.09930984465734 29.5549009328703  4.09930984465734 29.5549009328703  C 4.09930984465734 29.5549009328703  1.12309069422899 24.1030498743581  1.12309069422899 24.1030498743581  C 1.12309069422899 24.1030498743581  0.900789615330575 12.3975027967563  0.900789615330575 12.3975027967563  C 0.900789615330575 12.3975027967563  2.12213789586656 9.64454825931435  2.12213789586656 9.64454825931435  C 2.12213789586656 9.64454825931435  4.2248445715647 6.5612391773794  4.2248445715647 6.5612391773794  C 4.2248445715647 6.5612391773794  10.6846523936721 5.92055157593842  10.6846523936721 5.92055157593842  C 10.6846523936721 5.92055157593842  15.1581142952728 3.05948100575337  15.1581142952728 3.05948100575337  C 15.1581142952728 3.05948100575337  21.0582464599182 0.110315890370161  21.0582464599182 0.110315890370161  C 21.0582464599182 0.110315890370161  20.8097923129139 5.46806595742071  20.8097923129139 5.46806595742071  C 20.8097923129139 5.46806595742071  18.639087660141 8.82366726996803  18.639087660141 8.82366726996803  C 18.639087660141 8.82366726996803  19.5178307484925 11.684737840153  19.5178307484925 11.684737840153  Z " fill-rule="evenodd" />
    </mask>
  </defs>
  <g transform="matrix(1 0 0 1 -1897 -3948 )">
    <path d="M 34.1923172625997 16.7281505527468  C 34.1923172625997 16.7281505527468  36.5330168580597 21.7335224390049  36.5330168580597 21.7335224390049  C 36.5330168580597 21.7335224390049  32.1314554958709 31.1386005976824  32.1314554958709 31.1386005976824  C 32.1314554958709 31.1386005976824  22.558145313659 25.610667886499  22.558145313659 25.610667886499  C 22.558145313659 25.610667886499  21.5355603507262 20.0437088902041  21.5355603507262 20.0437088902041  C 21.5355603507262 20.0437088902041  34.1923172625997 16.7281505527468  34.1923172625997 16.7281505527468  Z M 19.5178307484925 11.684737840153  C 19.5178307484925 11.684737840153  23.4957124073693 13.2223880836116  23.4957124073693 13.2223880836116  C 23.4957124073693 13.2223880836116  21.7042272421289 18.4830183204677  21.7042272421289 18.4830183204677  C 21.7042272421289 18.4830183204677  19.5204460553031 17.3918472492634  19.5204460553031 17.3918472492634  C 19.5204460553031 17.3918472492634  14.2401416047628 24.5735548316664  14.2401416047628 24.5735548316664  C 14.2401416047628 24.5735548316664  16.233005394417 29.3566882061745  16.233005394417 29.3566882061745  C 16.233005394417 29.3566882061745  9.64114497625479 30.8402804332614  9.64114497625479 30.8402804332614  C 9.64114497625479 30.8402804332614  4.09930984465734 29.5549009328703  4.09930984465734 29.5549009328703  C 4.09930984465734 29.5549009328703  1.12309069422899 24.1030498743581  1.12309069422899 24.1030498743581  C 1.12309069422899 24.1030498743581  0.900789615330575 12.3975027967563  0.900789615330575 12.3975027967563  C 0.900789615330575 12.3975027967563  2.12213789586656 9.64454825931435  2.12213789586656 9.64454825931435  C 2.12213789586656 9.64454825931435  4.2248445715647 6.5612391773794  4.2248445715647 6.5612391773794  C 4.2248445715647 6.5612391773794  10.6846523936721 5.92055157593842  10.6846523936721 5.92055157593842  C 10.6846523936721 5.92055157593842  15.1581142952728 3.05948100575337  15.1581142952728 3.05948100575337  C 15.1581142952728 3.05948100575337  21.0582464599182 0.110315890370161  21.0582464599182 0.110315890370161  C 21.0582464599182 0.110315890370161  20.8097923129139 5.46806595742071  20.8097923129139 5.46806595742071  C 20.8097923129139 5.46806595742071  18.639087660141 8.82366726996803  18.639087660141 8.82366726996803  C 18.639087660141 8.82366726996803  19.5178307484925 11.684737840153  19.5178307484925 11.684737840153  Z " fill-rule="nonzero" fill="#f2f2f2" stroke="none" transform="matrix(1 0 0 1 1897 3948 )" />
    <path d="M 34.1923172625997 16.7281505527468  C 34.1923172625997 16.7281505527468  36.5330168580597 21.7335224390049  36.5330168580597 21.7335224390049  C 36.5330168580597 21.7335224390049  32.1314554958709 31.1386005976824  32.1314554958709 31.1386005976824  C 32.1314554958709 31.1386005976824  22.558145313659 25.610667886499  22.558145313659 25.610667886499  C 22.558145313659 25.610667886499  21.5355603507262 20.0437088902041  21.5355603507262 20.0437088902041  C 21.5355603507262 20.0437088902041  34.1923172625997 16.7281505527468  34.1923172625997 16.7281505527468  Z " stroke-width="2" stroke="#505050" fill="none" stroke-opacity="0.211764705882353" transform="matrix(1 0 0 1 1897 3948 )" mask="url(#clip86)" />
    <path d="M 19.5178307484925 11.684737840153  C 19.5178307484925 11.684737840153  23.4957124073693 13.2223880836116  23.4957124073693 13.2223880836116  C 23.4957124073693 13.2223880836116  21.7042272421289 18.4830183204677  21.7042272421289 18.4830183204677  C 21.7042272421289 18.4830183204677  19.5204460553031 17.3918472492634  19.5204460553031 17.3918472492634  C 19.5204460553031 17.3918472492634  14.2401416047628 24.5735548316664  14.2401416047628 24.5735548316664  C 14.2401416047628 24.5735548316664  16.233005394417 29.3566882061745  16.233005394417 29.3566882061745  C 16.233005394417 29.3566882061745  9.64114497625479 30.8402804332614  9.64114497625479 30.8402804332614  C 9.64114497625479 30.8402804332614  4.09930984465734 29.5549009328703  4.09930984465734 29.5549009328703  C 4.09930984465734 29.5549009328703  1.12309069422899 24.1030498743581  1.12309069422899 24.1030498743581  C 1.12309069422899 24.1030498743581  0.900789615330575 12.3975027967563  0.900789615330575 12.3975027967563  C 0.900789615330575 12.3975027967563  2.12213789586656 9.64454825931435  2.12213789586656 9.64454825931435  C 2.12213789586656 9.64454825931435  4.2248445715647 6.5612391773794  4.2248445715647 6.5612391773794  C 4.2248445715647 6.5612391773794  10.6846523936721 5.92055157593842  10.6846523936721 5.92055157593842  C 10.6846523936721 5.92055157593842  15.1581142952728 3.05948100575337  15.1581142952728 3.05948100575337  C 15.1581142952728 3.05948100575337  21.0582464599182 0.110315890370161  21.0582464599182 0.110315890370161  C 21.0582464599182 0.110315890370161  20.8097923129139 5.46806595742071  20.8097923129139 5.46806595742071  C 20.8097923129139 5.46806595742071  18.639087660141 8.82366726996803  18.639087660141 8.82366726996803  C 18.639087660141 8.82366726996803  19.5178307484925 11.684737840153  19.5178307484925 11.684737840153  Z " stroke-width="2" stroke="#505050" fill="none" stroke-opacity="0.211764705882353" transform="matrix(1 0 0 1 1897 3948 )" mask="url(#clip86)" />
  </g>
</svg>