<?xml version="1.0" encoding="utf-8"?>
<svg version="1.1" xmlns:xlink="http://www.w3.org/1999/xlink" width="30px" height="17px" xmlns="http://www.w3.org/2000/svg">
  <defs>
    <mask fill="white" id="clip87">
      <path d="M 3.41070364311051 4.89938736642822  C 3.41070364311051 4.89938736642822  2.77838439779181 1.47658893630792  2.77838439779181 1.47658893630792  C 2.77838439779181 1.47658893630792  3.68427850026876 0.402310995219667  3.68427850026876 0.402310995219667  C 3.68427850026876 0.402310995219667  9.33127649519648 0.429965674891223  9.33127649519648 0.429965674891223  C 9.33127649519648 0.429965674891223  13.6181428889693 2.05308264330783  13.6181428889693 2.05308264330783  C 13.6181428889693 2.05308264330783  17.4004242044407 1.89353641443315  17.4004242044407 1.89353641443315  C 17.4004242044407 1.89353641443315  18.7140996977763 4.12505633562432  18.7140996977763 4.12505633562432  C 18.7140996977763 4.12505633562432  22.6757733368137 3.9995466355762  22.6757733368137 3.9995466355762  C 22.6757733368137 3.9995466355762  22.4409119028382 5.8694284379849  22.4409119028382 5.8694284379849  C 22.4409119028382 5.8694284379849  25.6592878167665 6.09704772451269  25.6592878167665 6.09704772451269  C 25.6592878167665 6.09704772451269  29.2183418547029 9.93996796575962  29.2183418547029 9.93996796575962  C 29.2183418547029 9.93996796575962  26.5290493909394 12.4820712124929  26.5290493909394 12.4820712124929  C 26.5290493909394 12.4820712124929  23.08871651743 11.1248646255341  23.08871651743 11.1248646255341  C 23.08871651743 11.1248646255341  19.7671048083477 11.3865204408881  19.7671048083477 11.3865204408881  C 19.7671048083477 11.3865204408881  17.3849388351675 11.0887008136556  17.3849388351675 11.0887008136556  C 17.3849388351675 11.0887008136556  14.2065869213474 12.2289245293455  14.2065869213474 12.2289245293455  C 14.2065869213474 12.2289245293455  11.4269631368241 12.6118354786441  11.4269631368241 12.6118354786441  C 11.4269631368241 12.6118354786441  10.3249210235543 11.0993372289141  10.3249210235543 11.0993372289141  C 10.3249210235543 11.0993372289141  7.93501236573761 11.9949233936627  7.93501236573761 11.9949233936627  C 7.93501236573761 11.9949233936627  5.03666741678707 16.2622531952919  5.03666741678707 16.2622531952919  C 5.03666741678707 16.2622531952919  3.17326131425602 15.2730665762702  3.17326131425602 15.2730665762702  C 3.17326131425602 15.2730665762702  2.80677424145921 13.4818942467727  2.80677424145921 13.4818942467727  C 2.80677424145921 13.4818942467727  2.95646614443257 11.7864496546002  2.95646614443257 11.7864496546002  C 2.95646614443257 11.7864496546002  1.09306004190152 9.91018600303652  1.09306004190152 9.91018600303652  C 1.09306004190152 9.91018600303652  2.85839213903635 7.30959906395872  2.85839213903635 7.30959906395872  C 2.85839213903635 7.30959906395872  3.41070364311051 4.89938736642822  3.41070364311051 4.89938736642822  Z " fill-rule="evenodd" />
    </mask>
  </defs>
  <g transform="matrix(1 0 0 1 -1327 -4230 )">
    <path d="M 3.41070364311051 4.89938736642822  C 3.41070364311051 4.89938736642822  2.77838439779181 1.47658893630792  2.77838439779181 1.47658893630792  C 2.77838439779181 1.47658893630792  3.68427850026876 0.402310995219667  3.68427850026876 0.402310995219667  C 3.68427850026876 0.402310995219667  9.33127649519648 0.429965674891223  9.33127649519648 0.429965674891223  C 9.33127649519648 0.429965674891223  13.6181428889693 2.05308264330783  13.6181428889693 2.05308264330783  C 13.6181428889693 2.05308264330783  17.4004242044407 1.89353641443315  17.4004242044407 1.89353641443315  C 17.4004242044407 1.89353641443315  18.7140996977763 4.12505633562432  18.7140996977763 4.12505633562432  C 18.7140996977763 4.12505633562432  22.6757733368137 3.9995466355762  22.6757733368137 3.9995466355762  C 22.6757733368137 3.9995466355762  22.4409119028382 5.8694284379849  22.4409119028382 5.8694284379849  C 22.4409119028382 5.8694284379849  25.6592878167665 6.09704772451269  25.6592878167665 6.09704772451269  C 25.6592878167665 6.09704772451269  29.2183418547029 9.93996796575962  29.2183418547029 9.93996796575962  C 29.2183418547029 9.93996796575962  26.5290493909394 12.4820712124929  26.5290493909394 12.4820712124929  C 26.5290493909394 12.4820712124929  23.08871651743 11.1248646255341  23.08871651743 11.1248646255341  C 23.08871651743 11.1248646255341  19.7671048083477 11.3865204408881  19.7671048083477 11.3865204408881  C 19.7671048083477 11.3865204408881  17.3849388351675 11.0887008136556  17.3849388351675 11.0887008136556  C 17.3849388351675 11.0887008136556  14.2065869213474 12.2289245293455  14.2065869213474 12.2289245293455  C 14.2065869213474 12.2289245293455  11.4269631368241 12.6118354786441  11.4269631368241 12.6118354786441  C 11.4269631368241 12.6118354786441  10.3249210235543 11.0993372289141  10.3249210235543 11.0993372289141  C 10.3249210235543 11.0993372289141  7.93501236573761 11.9949233936627  7.93501236573761 11.9949233936627  C 7.93501236573761 11.9949233936627  5.03666741678707 16.2622531952919  5.03666741678707 16.2622531952919  C 5.03666741678707 16.2622531952919  3.17326131425602 15.2730665762702  3.17326131425602 15.2730665762702  C 3.17326131425602 15.2730665762702  2.80677424145921 13.4818942467727  2.80677424145921 13.4818942467727  C 2.80677424145921 13.4818942467727  2.95646614443257 11.7864496546002  2.95646614443257 11.7864496546002  C 2.95646614443257 11.7864496546002  1.09306004190152 9.91018600303652  1.09306004190152 9.91018600303652  C 1.09306004190152 9.91018600303652  2.85839213903635 7.30959906395872  2.85839213903635 7.30959906395872  C 2.85839213903635 7.30959906395872  3.41070364311051 4.89938736642822  3.41070364311051 4.89938736642822  Z " fill-rule="nonzero" fill="#f2f2f2" stroke="none" transform="matrix(1 0 0 1 1327 4230 )" />
    <path d="M 3.41070364311051 4.89938736642822  C 3.41070364311051 4.89938736642822  2.77838439779181 1.47658893630792  2.77838439779181 1.47658893630792  C 2.77838439779181 1.47658893630792  3.68427850026876 0.402310995219667  3.68427850026876 0.402310995219667  C 3.68427850026876 0.402310995219667  9.33127649519648 0.429965674891223  9.33127649519648 0.429965674891223  C 9.33127649519648 0.429965674891223  13.6181428889693 2.05308264330783  13.6181428889693 2.05308264330783  C 13.6181428889693 2.05308264330783  17.4004242044407 1.89353641443315  17.4004242044407 1.89353641443315  C 17.4004242044407 1.89353641443315  18.7140996977763 4.12505633562432  18.7140996977763 4.12505633562432  C 18.7140996977763 4.12505633562432  22.6757733368137 3.9995466355762  22.6757733368137 3.9995466355762  C 22.6757733368137 3.9995466355762  22.4409119028382 5.8694284379849  22.4409119028382 5.8694284379849  C 22.4409119028382 5.8694284379849  25.6592878167665 6.09704772451269  25.6592878167665 6.09704772451269  C 25.6592878167665 6.09704772451269  29.2183418547029 9.93996796575962  29.2183418547029 9.93996796575962  C 29.2183418547029 9.93996796575962  26.5290493909394 12.4820712124929  26.5290493909394 12.4820712124929  C 26.5290493909394 12.4820712124929  23.08871651743 11.1248646255341  23.08871651743 11.1248646255341  C 23.08871651743 11.1248646255341  19.7671048083477 11.3865204408881  19.7671048083477 11.3865204408881  C 19.7671048083477 11.3865204408881  17.3849388351675 11.0887008136556  17.3849388351675 11.0887008136556  C 17.3849388351675 11.0887008136556  14.2065869213474 12.2289245293455  14.2065869213474 12.2289245293455  C 14.2065869213474 12.2289245293455  11.4269631368241 12.6118354786441  11.4269631368241 12.6118354786441  C 11.4269631368241 12.6118354786441  10.3249210235543 11.0993372289141  10.3249210235543 11.0993372289141  C 10.3249210235543 11.0993372289141  7.93501236573761 11.9949233936627  7.93501236573761 11.9949233936627  C 7.93501236573761 11.9949233936627  5.03666741678707 16.2622531952919  5.03666741678707 16.2622531952919  C 5.03666741678707 16.2622531952919  3.17326131425602 15.2730665762702  3.17326131425602 15.2730665762702  C 3.17326131425602 15.2730665762702  2.80677424145921 13.4818942467727  2.80677424145921 13.4818942467727  C 2.80677424145921 13.4818942467727  2.95646614443257 11.7864496546002  2.95646614443257 11.7864496546002  C 2.95646614443257 11.7864496546002  1.09306004190152 9.91018600303652  1.09306004190152 9.91018600303652  C 1.09306004190152 9.91018600303652  2.85839213903635 7.30959906395872  2.85839213903635 7.30959906395872  C 2.85839213903635 7.30959906395872  3.41070364311051 4.89938736642822  3.41070364311051 4.89938736642822  Z " stroke-width="2" stroke="#505050" fill="none" stroke-opacity="0.211764705882353" transform="matrix(1 0 0 1 1327 4230 )" mask="url(#clip87)" />
  </g>
</svg>