<?xml version="1.0" encoding="utf-8"?>
<svg version="1.1" xmlns:xlink="http://www.w3.org/1999/xlink" width="152px" height="117px" xmlns="http://www.w3.org/2000/svg">
  <defs>
    <mask fill="white" id="clip88">
      <path d="M 148.049112379498 86.4051866994285  C 148.049112379498 86.4051866994285  151.190032071021 90.2007462969672  151.190032071021 90.2007462969672  C 151.190032071021 90.2007462969672  126.675039060334 101.637131213176  126.675039060334 101.637131213176  C 126.675039060334 101.637131213176  105.961809120621 113.268364133868  105.961809120621 113.268364133868  C 105.961809120621 113.268364133868  95.8731036289204 115.886882724731  95.8731036289204 115.886882724731  C 95.8731036289204 115.886882724731  87.9378800378256 116.461485513463  87.9378800378256 116.461485513463  C 87.9378800378256 116.461485513463  87.8562314349592 112.723585019292  87.8562314349592 112.723585019292  C 87.8562314349592 112.723585019292  84.5418084623442 111.767239201368  84.5418084623442 111.767239201368  C 84.5418084623442 111.767239201368  80.0894080872766 110.07921924416  80.0894080872766 110.07921924416  C 80.0894080872766 110.07921924416  78.3875450212766 107.309594037575  78.3875450212766 107.309594037575  C 78.3875450212766 107.309594037575  52.4016212999409 94.2925543911185  52.4016212999409 94.2925543911185  C 52.4016212999409 94.2925543911185  28.2693561151905 81.0627725356852  28.2693561151905 81.0627725356852  C 28.2693561151905 81.0627725356852  1.36103843297684 66.1012293342822  1.36103843297684 66.1012293342822  C 1.36103843297684 66.1012293342822  1.49882045031403 64.8923764085076  1.49882045031403 64.8923764085076  C 1.49882045031403 64.8923764085076  1.49626893147458 64.4728567253852  1.49626893147458 64.4728567253852  C 1.49626893147458 64.4728567253852  1.43503247932465 55.5685172521482  1.43503247932465 55.5685172521482  C 1.43503247932465 55.5685172521482  12.9883097849441 50.8782474299411  12.9883097849441 50.8782474299411  C 12.9883097849441 50.8782474299411  20.1325625357689 49.9059956524677  20.1325625357689 49.9059956524677  C 20.1325625357689 49.9059956524677  25.9882982726058 48.1861637761603  25.9882982726058 48.1861637761603  C 25.9882982726058 48.1861637761603  28.7235264686358 44.9711717021846  28.7235264686358 44.9711717021846  C 28.7235264686358 44.9711717021846  37.0874052247799 42.4182651944634  37.0874052247799 42.4182651944634  C 37.0874052247799 42.4182651944634  37.3961390043693 37.6126771655211  37.3961390043693 37.6126771655211  C 37.3961390043693 37.6126771655211  41.5347025621684 37.0440391116206  41.5347025621684 37.0440391116206  C 41.5347025621684 37.0440391116206  44.7725799695957 34.6263332600715  44.7725799695957 34.6263332600715  C 44.7725799695957 34.6263332600715  54.134102592016 33.5228573163136  54.134102592016 33.5228573163136  C 54.134102592016 33.5228573163136  55.4455832755603 30.9679625636488  55.4455832755603 30.9679625636488  C 55.4455832755603 30.9679625636488  53.5600108531103 29.5662498783346  53.5600108531103 29.5662498783346  C 53.5600108531103 29.5662498783346  51.0901406163966 22.5497334719889  51.0901406163966 22.5497334719889  C 51.0901406163966 22.5497334719889  50.6640369701868 18.4678666025564  50.6640369701868 18.4678666025564  C 50.6640369701868 18.4678666025564  47.9670815567503 14.1374691151602  47.9670815567503 14.1374691151602  C 47.9670815567503 14.1374691151602  54.8434248294192 10.4134863355951  54.8434248294192 10.4134863355951  C 54.8434248294192 10.4134863355951  62.5796299510267 9.22451585925765  62.5796299510267 9.22451585925765  C 62.5796299510267 9.22451585925765  67.0958182970838 6.39126681447371  67.0958182970838 6.39126681447371  C 67.0958182970838 6.39126681447371  73.9849191639505 4.28969190897438  73.9849191639505 4.28969190897438  C 73.9849191639505 4.28969190897438  87.9633952262215 3.0569800438754  87.9633952262215 3.0569800438754  C 87.9633952262215 3.0569800438754  99.7973396041949 2.49231847986236  99.7973396041949 2.49231847986236  C 99.7973396041949 2.49231847986236  103.405187243361 3.52222936070307  103.405187243361 3.52222936070307  C 103.405187243361 3.52222936070307  110.141196979853 0.786404318160805  110.141196979853 0.786404318160805  C 110.141196979853 0.786404318160805  117.785547423236 0.732721704680747  117.785547423236 0.732721704680747  C 117.785547423236 0.732721704680747  120.696830419197 2.35115308885898  120.696830419197 2.35115308885898  C 120.696830419197 2.35115308885898  125.588092034672 1.92765691584925  125.588092034672 1.92765691584925  C 125.588092034672 1.92765691584925  124.133726296112 5.4806506302555  124.133726296112 5.4806506302555  C 124.133726296112 5.4806506302555  125.269152179725 12.0180000051675  125.269152179725 12.0180000051675  C 125.269152179725 12.0180000051675  123.585149745602 17.6089447868745  123.585149745602 17.6089447868745  C 123.585149745602 17.6089447868745  119.176125190807 21.3607629956516  119.176125190807 21.3607629956516  C 119.176125190807 21.3607629956516  119.806350344183 26.3850579684018  119.806350344183 26.3850579684018  C 119.806350344183 26.3850579684018  125.656983043341 30.3297359367185  125.656983043341 30.3297359367185  C 125.656983043341 30.3297359367185  125.718219495491 31.9243083815724  125.718219495491 31.9243083815724  C 125.718219495491 31.9243083815724  130.129795569125 34.5726506465915  130.129795569125 34.5726506465915  C 130.129795569125 34.5726506465915  133.178860582424 46.2178012818893  133.178860582424 46.2178012818893  C 133.178860582424 46.2178012818893  135.495639688763 51.8644169220203  135.495639688763 51.8644169220203  C 135.495639688763 51.8644169220203  135.883470552379 54.8169606634266  135.883470552379 54.8169606634266  C 135.883470552379 54.8169606634266  134.623020245626 61.410959512075  134.623020245626 61.410959512075  C 134.623020245626 61.410959512075  135.140978570061 64.2740322310144  135.140978570061 64.2740322310144  C 135.140978570061 64.2740322310144  134.230086344331 67.6918252892484  134.230086344331 67.6918252892484  C 134.230086344331 67.6918252892484  134.855208460028 71.5987266036349  134.855208460028 71.5987266036349  C 134.855208460028 71.5987266036349  132.015367991575 74.1834450304551  132.015367991575 74.1834450304551  C 132.015367991575 74.1834450304551  136.245786227599 78.6689256234607  136.245786227599 78.6689256234607  C 136.245786227599 78.6689256234607  136.513695705755 81.2934089491553  136.513695705755 81.2934089491553  C 136.513695705755 81.2934089491553  139.060111507656 84.6952960478397  139.060111507656 84.6952960478397  C 139.060111507656 84.6952960478397  142.402601187507 83.5798906344195  142.402601187507 83.5798906344195  C 142.402601187507 83.5798906344195  148.049112379498 86.4051866994285  148.049112379498 86.4051866994285  Z " fill-rule="evenodd" />
    </mask>
  </defs>
  <g transform="matrix(1 0 0 1 -1778 -4120 )">
    <path d="M 148.049112379498 86.4051866994285  C 148.049112379498 86.4051866994285  151.190032071021 90.2007462969672  151.190032071021 90.2007462969672  C 151.190032071021 90.2007462969672  126.675039060334 101.637131213176  126.675039060334 101.637131213176  C 126.675039060334 101.637131213176  105.961809120621 113.268364133868  105.961809120621 113.268364133868  C 105.961809120621 113.268364133868  95.8731036289204 115.886882724731  95.8731036289204 115.886882724731  C 95.8731036289204 115.886882724731  87.9378800378256 116.461485513463  87.9378800378256 116.461485513463  C 87.9378800378256 116.461485513463  87.8562314349592 112.723585019292  87.8562314349592 112.723585019292  C 87.8562314349592 112.723585019292  84.5418084623442 111.767239201368  84.5418084623442 111.767239201368  C 84.5418084623442 111.767239201368  80.0894080872766 110.07921924416  80.0894080872766 110.07921924416  C 80.0894080872766 110.07921924416  78.3875450212766 107.309594037575  78.3875450212766 107.309594037575  C 78.3875450212766 107.309594037575  52.4016212999409 94.2925543911185  52.4016212999409 94.2925543911185  C 52.4016212999409 94.2925543911185  28.2693561151905 81.0627725356852  28.2693561151905 81.0627725356852  C 28.2693561151905 81.0627725356852  1.36103843297684 66.1012293342822  1.36103843297684 66.1012293342822  C 1.36103843297684 66.1012293342822  1.49882045031403 64.8923764085076  1.49882045031403 64.8923764085076  C 1.49882045031403 64.8923764085076  1.49626893147458 64.4728567253852  1.49626893147458 64.4728567253852  C 1.49626893147458 64.4728567253852  1.43503247932465 55.5685172521482  1.43503247932465 55.5685172521482  C 1.43503247932465 55.5685172521482  12.9883097849441 50.8782474299411  12.9883097849441 50.8782474299411  C 12.9883097849441 50.8782474299411  20.1325625357689 49.9059956524677  20.1325625357689 49.9059956524677  C 20.1325625357689 49.9059956524677  25.9882982726058 48.1861637761603  25.9882982726058 48.1861637761603  C 25.9882982726058 48.1861637761603  28.7235264686358 44.9711717021846  28.7235264686358 44.9711717021846  C 28.7235264686358 44.9711717021846  37.0874052247799 42.4182651944634  37.0874052247799 42.4182651944634  C 37.0874052247799 42.4182651944634  37.3961390043693 37.6126771655211  37.3961390043693 37.6126771655211  C 37.3961390043693 37.6126771655211  41.5347025621684 37.0440391116206  41.5347025621684 37.0440391116206  C 41.5347025621684 37.0440391116206  44.7725799695957 34.6263332600715  44.7725799695957 34.6263332600715  C 44.7725799695957 34.6263332600715  54.134102592016 33.5228573163136  54.134102592016 33.5228573163136  C 54.134102592016 33.5228573163136  55.4455832755603 30.9679625636488  55.4455832755603 30.9679625636488  C 55.4455832755603 30.9679625636488  53.5600108531103 29.5662498783346  53.5600108531103 29.5662498783346  C 53.5600108531103 29.5662498783346  51.0901406163966 22.5497334719889  51.0901406163966 22.5497334719889  C 51.0901406163966 22.5497334719889  50.6640369701868 18.4678666025564  50.6640369701868 18.4678666025564  C 50.6640369701868 18.4678666025564  47.9670815567503 14.1374691151602  47.9670815567503 14.1374691151602  C 47.9670815567503 14.1374691151602  54.8434248294192 10.4134863355951  54.8434248294192 10.4134863355951  C 54.8434248294192 10.4134863355951  62.5796299510267 9.22451585925765  62.5796299510267 9.22451585925765  C 62.5796299510267 9.22451585925765  67.0958182970838 6.39126681447371  67.0958182970838 6.39126681447371  C 67.0958182970838 6.39126681447371  73.9849191639505 4.28969190897438  73.9849191639505 4.28969190897438  C 73.9849191639505 4.28969190897438  87.9633952262215 3.0569800438754  87.9633952262215 3.0569800438754  C 87.9633952262215 3.0569800438754  99.7973396041949 2.49231847986236  99.7973396041949 2.49231847986236  C 99.7973396041949 2.49231847986236  103.405187243361 3.52222936070307  103.405187243361 3.52222936070307  C 103.405187243361 3.52222936070307  110.141196979853 0.786404318160805  110.141196979853 0.786404318160805  C 110.141196979853 0.786404318160805  117.785547423236 0.732721704680747  117.785547423236 0.732721704680747  C 117.785547423236 0.732721704680747  120.696830419197 2.35115308885898  120.696830419197 2.35115308885898  C 120.696830419197 2.35115308885898  125.588092034672 1.92765691584925  125.588092034672 1.92765691584925  C 125.588092034672 1.92765691584925  124.133726296112 5.4806506302555  124.133726296112 5.4806506302555  C 124.133726296112 5.4806506302555  125.269152179725 12.0180000051675  125.269152179725 12.0180000051675  C 125.269152179725 12.0180000051675  123.585149745602 17.6089447868745  123.585149745602 17.6089447868745  C 123.585149745602 17.6089447868745  119.176125190807 21.3607629956516  119.176125190807 21.3607629956516  C 119.176125190807 21.3607629956516  119.806350344183 26.3850579684018  119.806350344183 26.3850579684018  C 119.806350344183 26.3850579684018  125.656983043341 30.3297359367185  125.656983043341 30.3297359367185  C 125.656983043341 30.3297359367185  125.718219495491 31.9243083815724  125.718219495491 31.9243083815724  C 125.718219495491 31.9243083815724  130.129795569125 34.5726506465915  130.129795569125 34.5726506465915  C 130.129795569125 34.5726506465915  133.178860582424 46.2178012818893  133.178860582424 46.2178012818893  C 133.178860582424 46.2178012818893  135.495639688763 51.8644169220203  135.495639688763 51.8644169220203  C 135.495639688763 51.8644169220203  135.883470552379 54.8169606634266  135.883470552379 54.8169606634266  C 135.883470552379 54.8169606634266  134.623020245626 61.410959512075  134.623020245626 61.410959512075  C 134.623020245626 61.410959512075  135.140978570061 64.2740322310144  135.140978570061 64.2740322310144  C 135.140978570061 64.2740322310144  134.230086344331 67.6918252892484  134.230086344331 67.6918252892484  C 134.230086344331 67.6918252892484  134.855208460028 71.5987266036349  134.855208460028 71.5987266036349  C 134.855208460028 71.5987266036349  132.015367991575 74.1834450304551  132.015367991575 74.1834450304551  C 132.015367991575 74.1834450304551  136.245786227599 78.6689256234607  136.245786227599 78.6689256234607  C 136.245786227599 78.6689256234607  136.513695705755 81.2934089491553  136.513695705755 81.2934089491553  C 136.513695705755 81.2934089491553  139.060111507656 84.6952960478397  139.060111507656 84.6952960478397  C 139.060111507656 84.6952960478397  142.402601187507 83.5798906344195  142.402601187507 83.5798906344195  C 142.402601187507 83.5798906344195  148.049112379498 86.4051866994285  148.049112379498 86.4051866994285  Z " fill-rule="nonzero" fill="#f2f2f2" stroke="none" transform="matrix(1 0 0 1 1778 4120 )" />
    <path d="M 148.049112379498 86.4051866994285  C 148.049112379498 86.4051866994285  151.190032071021 90.2007462969672  151.190032071021 90.2007462969672  C 151.190032071021 90.2007462969672  126.675039060334 101.637131213176  126.675039060334 101.637131213176  C 126.675039060334 101.637131213176  105.961809120621 113.268364133868  105.961809120621 113.268364133868  C 105.961809120621 113.268364133868  95.8731036289204 115.886882724731  95.8731036289204 115.886882724731  C 95.8731036289204 115.886882724731  87.9378800378256 116.461485513463  87.9378800378256 116.461485513463  C 87.9378800378256 116.461485513463  87.8562314349592 112.723585019292  87.8562314349592 112.723585019292  C 87.8562314349592 112.723585019292  84.5418084623442 111.767239201368  84.5418084623442 111.767239201368  C 84.5418084623442 111.767239201368  80.0894080872766 110.07921924416  80.0894080872766 110.07921924416  C 80.0894080872766 110.07921924416  78.3875450212766 107.309594037575  78.3875450212766 107.309594037575  C 78.3875450212766 107.309594037575  52.4016212999409 94.2925543911185  52.4016212999409 94.2925543911185  C 52.4016212999409 94.2925543911185  28.2693561151905 81.0627725356852  28.2693561151905 81.0627725356852  C 28.2693561151905 81.0627725356852  1.36103843297684 66.1012293342822  1.36103843297684 66.1012293342822  C 1.36103843297684 66.1012293342822  1.49882045031403 64.8923764085076  1.49882045031403 64.8923764085076  C 1.49882045031403 64.8923764085076  1.49626893147458 64.4728567253852  1.49626893147458 64.4728567253852  C 1.49626893147458 64.4728567253852  1.43503247932465 55.5685172521482  1.43503247932465 55.5685172521482  C 1.43503247932465 55.5685172521482  12.9883097849441 50.8782474299411  12.9883097849441 50.8782474299411  C 12.9883097849441 50.8782474299411  20.1325625357689 49.9059956524677  20.1325625357689 49.9059956524677  C 20.1325625357689 49.9059956524677  25.9882982726058 48.1861637761603  25.9882982726058 48.1861637761603  C 25.9882982726058 48.1861637761603  28.7235264686358 44.9711717021846  28.7235264686358 44.9711717021846  C 28.7235264686358 44.9711717021846  37.0874052247799 42.4182651944634  37.0874052247799 42.4182651944634  C 37.0874052247799 42.4182651944634  37.3961390043693 37.6126771655211  37.3961390043693 37.6126771655211  C 37.3961390043693 37.6126771655211  41.5347025621684 37.0440391116206  41.5347025621684 37.0440391116206  C 41.5347025621684 37.0440391116206  44.7725799695957 34.6263332600715  44.7725799695957 34.6263332600715  C 44.7725799695957 34.6263332600715  54.134102592016 33.5228573163136  54.134102592016 33.5228573163136  C 54.134102592016 33.5228573163136  55.4455832755603 30.9679625636488  55.4455832755603 30.9679625636488  C 55.4455832755603 30.9679625636488  53.5600108531103 29.5662498783346  53.5600108531103 29.5662498783346  C 53.5600108531103 29.5662498783346  51.0901406163966 22.5497334719889  51.0901406163966 22.5497334719889  C 51.0901406163966 22.5497334719889  50.6640369701868 18.4678666025564  50.6640369701868 18.4678666025564  C 50.6640369701868 18.4678666025564  47.9670815567503 14.1374691151602  47.9670815567503 14.1374691151602  C 47.9670815567503 14.1374691151602  54.8434248294192 10.4134863355951  54.8434248294192 10.4134863355951  C 54.8434248294192 10.4134863355951  62.5796299510267 9.22451585925765  62.5796299510267 9.22451585925765  C 62.5796299510267 9.22451585925765  67.0958182970838 6.39126681447371  67.0958182970838 6.39126681447371  C 67.0958182970838 6.39126681447371  73.9849191639505 4.28969190897438  73.9849191639505 4.28969190897438  C 73.9849191639505 4.28969190897438  87.9633952262215 3.0569800438754  87.9633952262215 3.0569800438754  C 87.9633952262215 3.0569800438754  99.7973396041949 2.49231847986236  99.7973396041949 2.49231847986236  C 99.7973396041949 2.49231847986236  103.405187243361 3.52222936070307  103.405187243361 3.52222936070307  C 103.405187243361 3.52222936070307  110.141196979853 0.786404318160805  110.141196979853 0.786404318160805  C 110.141196979853 0.786404318160805  117.785547423236 0.732721704680747  117.785547423236 0.732721704680747  C 117.785547423236 0.732721704680747  120.696830419197 2.35115308885898  120.696830419197 2.35115308885898  C 120.696830419197 2.35115308885898  125.588092034672 1.92765691584925  125.588092034672 1.92765691584925  C 125.588092034672 1.92765691584925  124.133726296112 5.4806506302555  124.133726296112 5.4806506302555  C 124.133726296112 5.4806506302555  125.269152179725 12.0180000051675  125.269152179725 12.0180000051675  C 125.269152179725 12.0180000051675  123.585149745602 17.6089447868745  123.585149745602 17.6089447868745  C 123.585149745602 17.6089447868745  119.176125190807 21.3607629956516  119.176125190807 21.3607629956516  C 119.176125190807 21.3607629956516  119.806350344183 26.3850579684018  119.806350344183 26.3850579684018  C 119.806350344183 26.3850579684018  125.656983043341 30.3297359367185  125.656983043341 30.3297359367185  C 125.656983043341 30.3297359367185  125.718219495491 31.9243083815724  125.718219495491 31.9243083815724  C 125.718219495491 31.9243083815724  130.129795569125 34.5726506465915  130.129795569125 34.5726506465915  C 130.129795569125 34.5726506465915  133.178860582424 46.2178012818893  133.178860582424 46.2178012818893  C 133.178860582424 46.2178012818893  135.495639688763 51.8644169220203  135.495639688763 51.8644169220203  C 135.495639688763 51.8644169220203  135.883470552379 54.8169606634266  135.883470552379 54.8169606634266  C 135.883470552379 54.8169606634266  134.623020245626 61.410959512075  134.623020245626 61.410959512075  C 134.623020245626 61.410959512075  135.140978570061 64.2740322310144  135.140978570061 64.2740322310144  C 135.140978570061 64.2740322310144  134.230086344331 67.6918252892484  134.230086344331 67.6918252892484  C 134.230086344331 67.6918252892484  134.855208460028 71.5987266036349  134.855208460028 71.5987266036349  C 134.855208460028 71.5987266036349  132.015367991575 74.1834450304551  132.015367991575 74.1834450304551  C 132.015367991575 74.1834450304551  136.245786227599 78.6689256234607  136.245786227599 78.6689256234607  C 136.245786227599 78.6689256234607  136.513695705755 81.2934089491553  136.513695705755 81.2934089491553  C 136.513695705755 81.2934089491553  139.060111507656 84.6952960478397  139.060111507656 84.6952960478397  C 139.060111507656 84.6952960478397  142.402601187507 83.5798906344195  142.402601187507 83.5798906344195  C 142.402601187507 83.5798906344195  148.049112379498 86.4051866994285  148.049112379498 86.4051866994285  Z " stroke-width="2" stroke="#505050" fill="none" stroke-opacity="0.211764705882353" transform="matrix(1 0 0 1 1778 4120 )" mask="url(#clip88)" />
  </g>
</svg>