<?xml version="1.0" encoding="utf-8"?>
<svg version="1.1" xmlns:xlink="http://www.w3.org/1999/xlink" width="44px" height="39px" xmlns="http://www.w3.org/2000/svg">
  <defs>
    <mask fill="white" id="clip89">
      <path d="M 6.94162415508274 31.4146148610058  C 6.94162415508274 31.4146148610058  6.10380832418798 29.1062624813605  6.10380832418798 29.1062624813605  C 6.10380832418798 29.1062624813605  9.86893247989593 24.9607717737292  9.86893247989593 24.9607717737292  C 9.86893247989593 24.9607717737292  8.33714269268762 22.5410776772365  8.33714269268762 22.5410776772365  C 8.33714269268762 22.5410776772365  5.63442957555416 25.1138666343947  5.63442957555416 25.1138666343947  C 5.63442957555416 25.1138666343947  1.39487958789359 22.6862195581272  1.39487958789359 22.6862195581272  C 1.39487958789359 22.6862195581272  2.83077479204762 21.1234590323728  2.83077479204762 21.1234590323728  C 2.83077479204762 21.1234590323728  1.63713958718849 14.6527313702345  1.63713958718849 14.6527313702345  C 1.63713958718849 14.6527313702345  4.11525749664243 13.8156802489335  4.11525749664243 13.8156802489335  C 4.11525749664243 13.8156802489335  5.41740499285243 10.3660752715999  5.41740499285243 10.3660752715999  C 5.41740499285243 10.3660752715999  8.09488269339272 6.80115208753131  8.09488269339272 6.80115208753131  C 8.09488269339272 6.80115208753131  7.60279206982513 4.54051758653524  7.60279206982513 4.54051758653524  C 7.60279206982513 4.54051758653524  11.4789520585434 3.35154711019805  11.4789520585434 3.35154711019805  C 11.4789520585434 3.35154711019805  16.3418168360561 1.14857171256949  16.3418168360561 1.14857171256949  C 16.3418168360561 1.14857171256949  25.2536845237869 4.30988117306518  25.2536845237869 4.30988117306518  C 25.2536845237869 4.30988117306518  26.5709732699529 4.22239839554193  26.5709732699529 4.22239839554193  C 26.5709732699529 4.22239839554193  28.297075764929 6.60431583810451  28.297075764929 6.60431583810451  C 28.297075764929 6.60431583810451  34.3005813724554 7.37177838637566  34.3005813724554 7.37177838637566  C 34.3005813724554 7.37177838637566  36.3118440749349 6.49297412125669  36.3118440749349 6.49297412125669  C 36.3118440749349 6.49297412125669  39.7842373981616 8.32613595935557  39.7842373981616 8.32613595935557  C 39.7842373981616 8.32613595935557  42.8124873893475 9.63837762220287  42.8124873893475 9.63837762220287  C 42.8124873893475 9.63837762220287  43.8017157198019 13.8435156781453  43.8017157198019 13.8435156781453  C 43.8017157198019 13.8435156781453  41.5986638512138 17.4442272712005  41.5986638512138 17.4442272712005  C 41.5986638512138 17.4442272712005  33.8816734570079 24.690370461385  33.8816734570079 24.690370461385  C 33.8816734570079 24.690370461385  25.3748145234344 26.8774398994638  25.3748145234344 26.8774398994638  C 25.3748145234344 26.8774398994638  19.2060366193864 31.7048986227869  19.2060366193864 31.7048986227869  C 19.2060366193864 31.7048986227869  17.8660359982867 35.4487638517893  17.8660359982867 35.4487638517893  C 17.8660359982867 35.4487638517893  13.8662224682616 37.7352455370535  13.8662224682616 37.7352455370535  C 13.8662224682616 37.7352455370535  10.8960139352399 34.9298319214813  10.8960139352399 34.9298319214813  C 10.8960139352399 34.9298319214813  8.03936477688779 34.3293819484815  8.03936477688779 34.3293819484815  C 8.03936477688779 34.3293819484815  5.1145799937338 34.7727605709286  5.1145799937338 34.7727605709286  C 5.1145799937338 34.7727605709286  4.92279082762544 32.7367977485714  4.92279082762544 32.7367977485714  C 4.92279082762544 32.7367977485714  6.94162415508274 31.4146148610058  6.94162415508274 31.4146148610058  Z " fill-rule="evenodd" />
    </mask>
  </defs>
  <g transform="matrix(1 0 0 1 -1262 -4333 )">
    <path d="M 6.94162415508274 31.4146148610058  C 6.94162415508274 31.4146148610058  6.10380832418798 29.1062624813605  6.10380832418798 29.1062624813605  C 6.10380832418798 29.1062624813605  9.86893247989593 24.9607717737292  9.86893247989593 24.9607717737292  C 9.86893247989593 24.9607717737292  8.33714269268762 22.5410776772365  8.33714269268762 22.5410776772365  C 8.33714269268762 22.5410776772365  5.63442957555416 25.1138666343947  5.63442957555416 25.1138666343947  C 5.63442957555416 25.1138666343947  1.39487958789359 22.6862195581272  1.39487958789359 22.6862195581272  C 1.39487958789359 22.6862195581272  2.83077479204762 21.1234590323728  2.83077479204762 21.1234590323728  C 2.83077479204762 21.1234590323728  1.63713958718849 14.6527313702345  1.63713958718849 14.6527313702345  C 1.63713958718849 14.6527313702345  4.11525749664243 13.8156802489335  4.11525749664243 13.8156802489335  C 4.11525749664243 13.8156802489335  5.41740499285243 10.3660752715999  5.41740499285243 10.3660752715999  C 5.41740499285243 10.3660752715999  8.09488269339272 6.80115208753131  8.09488269339272 6.80115208753131  C 8.09488269339272 6.80115208753131  7.60279206982513 4.54051758653524  7.60279206982513 4.54051758653524  C 7.60279206982513 4.54051758653524  11.4789520585434 3.35154711019805  11.4789520585434 3.35154711019805  C 11.4789520585434 3.35154711019805  16.3418168360561 1.14857171256949  16.3418168360561 1.14857171256949  C 16.3418168360561 1.14857171256949  25.2536845237869 4.30988117306518  25.2536845237869 4.30988117306518  C 25.2536845237869 4.30988117306518  26.5709732699529 4.22239839554193  26.5709732699529 4.22239839554193  C 26.5709732699529 4.22239839554193  28.297075764929 6.60431583810451  28.297075764929 6.60431583810451  C 28.297075764929 6.60431583810451  34.3005813724554 7.37177838637566  34.3005813724554 7.37177838637566  C 34.3005813724554 7.37177838637566  36.3118440749349 6.49297412125669  36.3118440749349 6.49297412125669  C 36.3118440749349 6.49297412125669  39.7842373981616 8.32613595935557  39.7842373981616 8.32613595935557  C 39.7842373981616 8.32613595935557  42.8124873893475 9.63837762220287  42.8124873893475 9.63837762220287  C 42.8124873893475 9.63837762220287  43.8017157198019 13.8435156781453  43.8017157198019 13.8435156781453  C 43.8017157198019 13.8435156781453  41.5986638512138 17.4442272712005  41.5986638512138 17.4442272712005  C 41.5986638512138 17.4442272712005  33.8816734570079 24.690370461385  33.8816734570079 24.690370461385  C 33.8816734570079 24.690370461385  25.3748145234344 26.8774398994638  25.3748145234344 26.8774398994638  C 25.3748145234344 26.8774398994638  19.2060366193864 31.7048986227869  19.2060366193864 31.7048986227869  C 19.2060366193864 31.7048986227869  17.8660359982867 35.4487638517893  17.8660359982867 35.4487638517893  C 17.8660359982867 35.4487638517893  13.8662224682616 37.7352455370535  13.8662224682616 37.7352455370535  C 13.8662224682616 37.7352455370535  10.8960139352399 34.9298319214813  10.8960139352399 34.9298319214813  C 10.8960139352399 34.9298319214813  8.03936477688779 34.3293819484815  8.03936477688779 34.3293819484815  C 8.03936477688779 34.3293819484815  5.1145799937338 34.7727605709286  5.1145799937338 34.7727605709286  C 5.1145799937338 34.7727605709286  4.92279082762544 32.7367977485714  4.92279082762544 32.7367977485714  C 4.92279082762544 32.7367977485714  6.94162415508274 31.4146148610058  6.94162415508274 31.4146148610058  Z " fill-rule="nonzero" fill="#f2f2f2" stroke="none" transform="matrix(1 0 0 1 1262 4333 )" />
    <path d="M 6.94162415508274 31.4146148610058  C 6.94162415508274 31.4146148610058  6.10380832418798 29.1062624813605  6.10380832418798 29.1062624813605  C 6.10380832418798 29.1062624813605  9.86893247989593 24.9607717737292  9.86893247989593 24.9607717737292  C 9.86893247989593 24.9607717737292  8.33714269268762 22.5410776772365  8.33714269268762 22.5410776772365  C 8.33714269268762 22.5410776772365  5.63442957555416 25.1138666343947  5.63442957555416 25.1138666343947  C 5.63442957555416 25.1138666343947  1.39487958789359 22.6862195581272  1.39487958789359 22.6862195581272  C 1.39487958789359 22.6862195581272  2.83077479204762 21.1234590323728  2.83077479204762 21.1234590323728  C 2.83077479204762 21.1234590323728  1.63713958718849 14.6527313702345  1.63713958718849 14.6527313702345  C 1.63713958718849 14.6527313702345  4.11525749664243 13.8156802489335  4.11525749664243 13.8156802489335  C 4.11525749664243 13.8156802489335  5.41740499285243 10.3660752715999  5.41740499285243 10.3660752715999  C 5.41740499285243 10.3660752715999  8.09488269339272 6.80115208753131  8.09488269339272 6.80115208753131  C 8.09488269339272 6.80115208753131  7.60279206982513 4.54051758653524  7.60279206982513 4.54051758653524  C 7.60279206982513 4.54051758653524  11.4789520585434 3.35154711019805  11.4789520585434 3.35154711019805  C 11.4789520585434 3.35154711019805  16.3418168360561 1.14857171256949  16.3418168360561 1.14857171256949  C 16.3418168360561 1.14857171256949  25.2536845237869 4.30988117306518  25.2536845237869 4.30988117306518  C 25.2536845237869 4.30988117306518  26.5709732699529 4.22239839554193  26.5709732699529 4.22239839554193  C 26.5709732699529 4.22239839554193  28.297075764929 6.60431583810451  28.297075764929 6.60431583810451  C 28.297075764929 6.60431583810451  34.3005813724554 7.37177838637566  34.3005813724554 7.37177838637566  C 34.3005813724554 7.37177838637566  36.3118440749349 6.49297412125669  36.3118440749349 6.49297412125669  C 36.3118440749349 6.49297412125669  39.7842373981616 8.32613595935557  39.7842373981616 8.32613595935557  C 39.7842373981616 8.32613595935557  42.8124873893475 9.63837762220287  42.8124873893475 9.63837762220287  C 42.8124873893475 9.63837762220287  43.8017157198019 13.8435156781453  43.8017157198019 13.8435156781453  C 43.8017157198019 13.8435156781453  41.5986638512138 17.4442272712005  41.5986638512138 17.4442272712005  C 41.5986638512138 17.4442272712005  33.8816734570079 24.690370461385  33.8816734570079 24.690370461385  C 33.8816734570079 24.690370461385  25.3748145234344 26.8774398994638  25.3748145234344 26.8774398994638  C 25.3748145234344 26.8774398994638  19.2060366193864 31.7048986227869  19.2060366193864 31.7048986227869  C 19.2060366193864 31.7048986227869  17.8660359982867 35.4487638517893  17.8660359982867 35.4487638517893  C 17.8660359982867 35.4487638517893  13.8662224682616 37.7352455370535  13.8662224682616 37.7352455370535  C 13.8662224682616 37.7352455370535  10.8960139352399 34.9298319214813  10.8960139352399 34.9298319214813  C 10.8960139352399 34.9298319214813  8.03936477688779 34.3293819484815  8.03936477688779 34.3293819484815  C 8.03936477688779 34.3293819484815  5.1145799937338 34.7727605709286  5.1145799937338 34.7727605709286  C 5.1145799937338 34.7727605709286  4.92279082762544 32.7367977485714  4.92279082762544 32.7367977485714  C 4.92279082762544 32.7367977485714  6.94162415508274 31.4146148610058  6.94162415508274 31.4146148610058  Z " stroke-width="2" stroke="#505050" fill="none" stroke-opacity="0.211764705882353" transform="matrix(1 0 0 1 1262 4333 )" mask="url(#clip89)" />
  </g>
</svg>