<?xml version="1.0" encoding="utf-8"?>
<svg version="1.1" xmlns:xlink="http://www.w3.org/1999/xlink" width="38px" height="24px" xmlns="http://www.w3.org/2000/svg">
  <defs>
    <mask fill="white" id="clip90">
      <path d="M 14.0086031713595 18.829201954214  C 14.0086031713595 18.829201954214  7.76325050771878 20.6364356387936  7.76325050771878 20.6364356387936  C 7.76325050771878 20.6364356387936  8.61322522115421 14.5656850682276  8.61322522115421 14.5656850682276  C 8.61322522115421 14.5656850682276  5.91684389945644 15.8715571499882  5.91684389945644 15.8715571499882  C 5.91684389945644 15.8715571499882  1.26421308345289 10.7675945938898  1.26421308345289 10.7675945938898  C 1.26421308345289 10.7675945938898  0.626078221673708 4.71821990561455  0.626078221673708 4.71821990561455  C 0.626078221673708 4.71821990561455  9.89995617195431 1.74891552923014  9.89995617195431 1.74891552923014  C 9.89995617195431 1.74891552923014  21.0372198268873 0.190419384033569  21.0372198268873 0.190419384033569  C 21.0372198268873 0.190419384033569  28.9929831446404 1.96267435213737  28.9929831446404 1.96267435213737  C 28.9929831446404 1.96267435213737  36.5616810544293 1.64592264182931  36.5616810544293 1.64592264182931  C 36.5616810544293 1.64592264182931  37.6653405284899 3.51145418720181  37.6653405284899 3.51145418720181  C 37.6653405284899 3.51145418720181  32.4478034414032 9.59775085397913  32.4478034414032 9.59775085397913  C 32.4478034414032 9.59775085397913  34.6211234009868 20.6519817350051  34.6211234009868 20.6519817350051  C 34.6211234009868 20.6519817350051  31.4801399214924 23.8758534368517  31.4801399214924 23.8758534368517  C 31.4801399214924 23.8758534368517  25.4335505754548 23.8583640786138  25.4335505754548 23.8583640786138  C 25.4335505754548 23.8583640786138  17.2228152415498 20.0845492232875  17.2228152415498 20.0845492232875  C 17.2228152415498 20.0845492232875  14.0086031713595 18.829201954214  14.0086031713595 18.829201954214  Z " fill-rule="evenodd" />
    </mask>
  </defs>
  <g transform="matrix(1 0 0 1 -2005 -3929 )">
    <path d="M 14.0086031713595 18.829201954214  C 14.0086031713595 18.829201954214  7.76325050771878 20.6364356387936  7.76325050771878 20.6364356387936  C 7.76325050771878 20.6364356387936  8.61322522115421 14.5656850682276  8.61322522115421 14.5656850682276  C 8.61322522115421 14.5656850682276  5.91684389945644 15.8715571499882  5.91684389945644 15.8715571499882  C 5.91684389945644 15.8715571499882  1.26421308345289 10.7675945938898  1.26421308345289 10.7675945938898  C 1.26421308345289 10.7675945938898  0.626078221673708 4.71821990561455  0.626078221673708 4.71821990561455  C 0.626078221673708 4.71821990561455  9.89995617195431 1.74891552923014  9.89995617195431 1.74891552923014  C 9.89995617195431 1.74891552923014  21.0372198268873 0.190419384033569  21.0372198268873 0.190419384033569  C 21.0372198268873 0.190419384033569  28.9929831446404 1.96267435213737  28.9929831446404 1.96267435213737  C 28.9929831446404 1.96267435213737  36.5616810544293 1.64592264182931  36.5616810544293 1.64592264182931  C 36.5616810544293 1.64592264182931  37.6653405284899 3.51145418720181  37.6653405284899 3.51145418720181  C 37.6653405284899 3.51145418720181  32.4478034414032 9.59775085397913  32.4478034414032 9.59775085397913  C 32.4478034414032 9.59775085397913  34.6211234009868 20.6519817350051  34.6211234009868 20.6519817350051  C 34.6211234009868 20.6519817350051  31.4801399214924 23.8758534368517  31.4801399214924 23.8758534368517  C 31.4801399214924 23.8758534368517  25.4335505754548 23.8583640786138  25.4335505754548 23.8583640786138  C 25.4335505754548 23.8583640786138  17.2228152415498 20.0845492232875  17.2228152415498 20.0845492232875  C 17.2228152415498 20.0845492232875  14.0086031713595 18.829201954214  14.0086031713595 18.829201954214  Z " fill-rule="nonzero" fill="#81ecec" stroke="none" transform="matrix(1 0 0 1 2005 3929 )" />
    <path d="M 14.0086031713595 18.829201954214  C 14.0086031713595 18.829201954214  7.76325050771878 20.6364356387936  7.76325050771878 20.6364356387936  C 7.76325050771878 20.6364356387936  8.61322522115421 14.5656850682276  8.61322522115421 14.5656850682276  C 8.61322522115421 14.5656850682276  5.91684389945644 15.8715571499882  5.91684389945644 15.8715571499882  C 5.91684389945644 15.8715571499882  1.26421308345289 10.7675945938898  1.26421308345289 10.7675945938898  C 1.26421308345289 10.7675945938898  0.626078221673708 4.71821990561455  0.626078221673708 4.71821990561455  C 0.626078221673708 4.71821990561455  9.89995617195431 1.74891552923014  9.89995617195431 1.74891552923014  C 9.89995617195431 1.74891552923014  21.0372198268873 0.190419384033569  21.0372198268873 0.190419384033569  C 21.0372198268873 0.190419384033569  28.9929831446404 1.96267435213737  28.9929831446404 1.96267435213737  C 28.9929831446404 1.96267435213737  36.5616810544293 1.64592264182931  36.5616810544293 1.64592264182931  C 36.5616810544293 1.64592264182931  37.6653405284899 3.51145418720181  37.6653405284899 3.51145418720181  C 37.6653405284899 3.51145418720181  32.4478034414032 9.59775085397913  32.4478034414032 9.59775085397913  C 32.4478034414032 9.59775085397913  34.6211234009868 20.6519817350051  34.6211234009868 20.6519817350051  C 34.6211234009868 20.6519817350051  31.4801399214924 23.8758534368517  31.4801399214924 23.8758534368517  C 31.4801399214924 23.8758534368517  25.4335505754548 23.8583640786138  25.4335505754548 23.8583640786138  C 25.4335505754548 23.8583640786138  17.2228152415498 20.0845492232875  17.2228152415498 20.0845492232875  C 17.2228152415498 20.0845492232875  14.0086031713595 18.829201954214  14.0086031713595 18.829201954214  Z " stroke-width="2" stroke="#505050" fill="none" stroke-opacity="0.211764705882353" transform="matrix(1 0 0 1 2005 3929 )" mask="url(#clip90)" />
  </g>
</svg>