<?xml version="1.0" encoding="utf-8"?>
<svg version="1.1" xmlns:xlink="http://www.w3.org/1999/xlink" width="90px" height="62px" xmlns="http://www.w3.org/2000/svg">
  <defs>
    <mask fill="white" id="clip94">
      <path d="M 70.7078929656309 2.770088132365  C 70.7078929656309 2.770088132365  75.3674089771158 13.7950308328343  75.3674089771158 13.7950308328343  C 75.3674089771158 13.7950308328343  73.3751688159385 16.3473398000355  73.3751688159385 16.3473398000355  C 73.3751688159385 16.3473398000355  71.8506500123976 21.1165454362602  71.8506500123976 21.1165454362602  C 71.8506500123976 21.1165454362602  69.9216154400902 24.3833421392256  69.9216154400902 24.3833421392256  C 69.9216154400902 24.3833421392256  68.2681572352552 25.4749206244207  68.2681572352552 25.4749206244207  C 68.2681572352552 25.4749206244207  65.9067964350778 23.4545080827324  65.9067964350778 23.4545080827324  C 65.9067964350778 23.4545080827324  62.7085936382643 20.6521284080136  62.7085936382643 20.6521284080136  C 62.7085936382643 20.6521284080136  57.6496183051222 11.5662260348815  57.6496183051222 11.5662260348815  C 57.6496183051222 11.5662260348815  56.9214899213416 12.1457549761126  56.9214899213416 12.1457549761126  C 56.9214899213416 12.1457549761126  59.8592856920118 18.8401081225899  59.8592856920118 18.8401081225899  C 59.8592856920118 18.8401081225899  64.2103584298115 25.1553858314819  64.2103584298115 25.1553858314819  C 64.2103584298115 25.1553858314819  69.5676641424189 36.2666469872706  69.5676641424189 36.2666469872706  C 69.5676641424189 36.2666469872706  72.1869037451853 39.6108465282771  72.1869037451853 39.6108465282771  C 72.1869037451853 39.6108465282771  74.4623049444996 43.0681732941129  74.4623049444996 43.0681732941129  C 74.4623049444996 43.0681732941129  80.8233154083601 49.8002355155334  80.8233154083601 49.8002355155334  C 80.8233154083601 49.8002355155334  79.41509488834 50.8560896139401  79.41509488834 50.8560896139401  C 79.41509488834 50.8560896139401  79.6426350082714 54.7738640317129  79.6426350082714 54.7738640317129  C 79.6426350082714 54.7738640317129  87.8998131382275 60.1563383078015  87.8998131382275 60.1563383078015  C 87.8998131382275 60.1563383078015  89.1462273507403 61.3789062112198  89.1462273507403 61.3789062112198  C 89.1462273507403 61.3789062112198  61.029853197881 61.3789062112198  61.029853197881 61.3789062112198  C 61.029853197881 61.3789062112198  31.688574451404 61.3789062112198  31.688574451404 61.3789062112198  C 31.688574451404 61.3789062112198  3.19043854177092 61.3789062112198  3.19043854177092 61.3789062112198  C 3.19043854177092 61.3789062112198  3.19043854177092 39.0948276080031  3.19043854177092 39.0948276080031  C 3.19043854177092 39.0948276080031  3.19043854177092 15.464153571105  3.19043854177092 15.464153571105  C 3.19043854177092 15.464153571105  1.06420253218953 10.3317500025337  1.06420253218953 10.3317500025337  C 1.06420253218953 10.3317500025337  2.88957993875034 6.3703124453534  2.88957993875034 6.3703124453534  C 2.88957993875034 6.3703124453534  1.79233091597012 3.61159591004256  1.79233091597012 3.61159591004256  C 1.79233091597012 3.61159591004256  4.36100604764034 0.501589571314259  4.36100604764034 0.501589571314259  C 4.36100604764034 0.501589571314259  13.7912799070203 0.392431722794733  13.7912799070203 0.392431722794733  C 13.7912799070203 0.392431722794733  20.6124270578533 2.10918697678329  20.6124270578533 2.10918697678329  C 20.6124270578533 2.10918697678329  27.6510014343986 4.0224263581069  27.6510014343986 4.0224263581069  C 27.6510014343986 4.0224263581069  30.9326356085207 5.02667856448623  30.9326356085207 5.02667856448623  C 30.9326356085207 5.02667856448623  36.39107026332 2.98046507678437  36.39107026332 2.98046507678437  C 36.39107026332 2.98046507678437  39.3086402455517 1.12279696379797  39.3086402455517 1.12279696379797  C 39.3086402455517 1.12279696379797  47.3976717904341 0.586931161974983  47.3976717904341 0.586931161974983  C 47.3976717904341 0.586931161974983  52.4389495586925 1.4066073699487  52.4389495586925 1.4066073699487  C 52.4389495586925 1.4066073699487  54.3679841310002 4.61783280457693  54.3679841310002 4.61783280457693  C 54.3679841310002 4.61783280457693  56.0138576651707 2.50413991960835  56.0138576651707 2.50413991960835  C 56.0138576651707 2.50413991960835  61.6947759927921 4.03234979888138  61.6947759927921 4.03234979888138  C 61.6947759927921 4.03234979888138  67.2214726835708 4.39951710753771  67.2214726835708 4.39951710753771  C 67.2214726835708 4.39951710753771  70.7078929656309 2.770088132365  70.7078929656309 2.770088132365  Z " fill-rule="evenodd" />
    </mask>
  </defs>
  <g transform="matrix(1 0 0 1 -2014 -4158 )">
    <path d="M 70.7078929656309 2.770088132365  C 70.7078929656309 2.770088132365  75.3674089771158 13.7950308328343  75.3674089771158 13.7950308328343  C 75.3674089771158 13.7950308328343  73.3751688159385 16.3473398000355  73.3751688159385 16.3473398000355  C 73.3751688159385 16.3473398000355  71.8506500123976 21.1165454362602  71.8506500123976 21.1165454362602  C 71.8506500123976 21.1165454362602  69.9216154400902 24.3833421392256  69.9216154400902 24.3833421392256  C 69.9216154400902 24.3833421392256  68.2681572352552 25.4749206244207  68.2681572352552 25.4749206244207  C 68.2681572352552 25.4749206244207  65.9067964350778 23.4545080827324  65.9067964350778 23.4545080827324  C 65.9067964350778 23.4545080827324  62.7085936382643 20.6521284080136  62.7085936382643 20.6521284080136  C 62.7085936382643 20.6521284080136  57.6496183051222 11.5662260348815  57.6496183051222 11.5662260348815  C 57.6496183051222 11.5662260348815  56.9214899213416 12.1457549761126  56.9214899213416 12.1457549761126  C 56.9214899213416 12.1457549761126  59.8592856920118 18.8401081225899  59.8592856920118 18.8401081225899  C 59.8592856920118 18.8401081225899  64.2103584298115 25.1553858314819  64.2103584298115 25.1553858314819  C 64.2103584298115 25.1553858314819  69.5676641424189 36.2666469872706  69.5676641424189 36.2666469872706  C 69.5676641424189 36.2666469872706  72.1869037451853 39.6108465282771  72.1869037451853 39.6108465282771  C 72.1869037451853 39.6108465282771  74.4623049444996 43.0681732941129  74.4623049444996 43.0681732941129  C 74.4623049444996 43.0681732941129  80.8233154083601 49.8002355155334  80.8233154083601 49.8002355155334  C 80.8233154083601 49.8002355155334  79.41509488834 50.8560896139401  79.41509488834 50.8560896139401  C 79.41509488834 50.8560896139401  79.6426350082714 54.7738640317129  79.6426350082714 54.7738640317129  C 79.6426350082714 54.7738640317129  87.8998131382275 60.1563383078015  87.8998131382275 60.1563383078015  C 87.8998131382275 60.1563383078015  89.1462273507403 61.3789062112198  89.1462273507403 61.3789062112198  C 89.1462273507403 61.3789062112198  61.029853197881 61.3789062112198  61.029853197881 61.3789062112198  C 61.029853197881 61.3789062112198  31.688574451404 61.3789062112198  31.688574451404 61.3789062112198  C 31.688574451404 61.3789062112198  3.19043854177092 61.3789062112198  3.19043854177092 61.3789062112198  C 3.19043854177092 61.3789062112198  3.19043854177092 39.0948276080031  3.19043854177092 39.0948276080031  C 3.19043854177092 39.0948276080031  3.19043854177092 15.464153571105  3.19043854177092 15.464153571105  C 3.19043854177092 15.464153571105  1.06420253218953 10.3317500025337  1.06420253218953 10.3317500025337  C 1.06420253218953 10.3317500025337  2.88957993875034 6.3703124453534  2.88957993875034 6.3703124453534  C 2.88957993875034 6.3703124453534  1.79233091597012 3.61159591004256  1.79233091597012 3.61159591004256  C 1.79233091597012 3.61159591004256  4.36100604764034 0.501589571314259  4.36100604764034 0.501589571314259  C 4.36100604764034 0.501589571314259  13.7912799070203 0.392431722794733  13.7912799070203 0.392431722794733  C 13.7912799070203 0.392431722794733  20.6124270578533 2.10918697678329  20.6124270578533 2.10918697678329  C 20.6124270578533 2.10918697678329  27.6510014343986 4.0224263581069  27.6510014343986 4.0224263581069  C 27.6510014343986 4.0224263581069  30.9326356085207 5.02667856448623  30.9326356085207 5.02667856448623  C 30.9326356085207 5.02667856448623  36.39107026332 2.98046507678437  36.39107026332 2.98046507678437  C 36.39107026332 2.98046507678437  39.3086402455517 1.12279696379797  39.3086402455517 1.12279696379797  C 39.3086402455517 1.12279696379797  47.3976717904341 0.586931161974983  47.3976717904341 0.586931161974983  C 47.3976717904341 0.586931161974983  52.4389495586925 1.4066073699487  52.4389495586925 1.4066073699487  C 52.4389495586925 1.4066073699487  54.3679841310002 4.61783280457693  54.3679841310002 4.61783280457693  C 54.3679841310002 4.61783280457693  56.0138576651707 2.50413991960835  56.0138576651707 2.50413991960835  C 56.0138576651707 2.50413991960835  61.6947759927921 4.03234979888138  61.6947759927921 4.03234979888138  C 61.6947759927921 4.03234979888138  67.2214726835708 4.39951710753771  67.2214726835708 4.39951710753771  C 67.2214726835708 4.39951710753771  70.7078929656309 2.770088132365  70.7078929656309 2.770088132365  Z " fill-rule="nonzero" fill="#f2f2f2" stroke="none" transform="matrix(1 0 0 1 2014 4158 )" />
    <path d="M 70.7078929656309 2.770088132365  C 70.7078929656309 2.770088132365  75.3674089771158 13.7950308328343  75.3674089771158 13.7950308328343  C 75.3674089771158 13.7950308328343  73.3751688159385 16.3473398000355  73.3751688159385 16.3473398000355  C 73.3751688159385 16.3473398000355  71.8506500123976 21.1165454362602  71.8506500123976 21.1165454362602  C 71.8506500123976 21.1165454362602  69.9216154400902 24.3833421392256  69.9216154400902 24.3833421392256  C 69.9216154400902 24.3833421392256  68.2681572352552 25.4749206244207  68.2681572352552 25.4749206244207  C 68.2681572352552 25.4749206244207  65.9067964350778 23.4545080827324  65.9067964350778 23.4545080827324  C 65.9067964350778 23.4545080827324  62.7085936382643 20.6521284080136  62.7085936382643 20.6521284080136  C 62.7085936382643 20.6521284080136  57.6496183051222 11.5662260348815  57.6496183051222 11.5662260348815  C 57.6496183051222 11.5662260348815  56.9214899213416 12.1457549761126  56.9214899213416 12.1457549761126  C 56.9214899213416 12.1457549761126  59.8592856920118 18.8401081225899  59.8592856920118 18.8401081225899  C 59.8592856920118 18.8401081225899  64.2103584298115 25.1553858314819  64.2103584298115 25.1553858314819  C 64.2103584298115 25.1553858314819  69.5676641424189 36.2666469872706  69.5676641424189 36.2666469872706  C 69.5676641424189 36.2666469872706  72.1869037451853 39.6108465282771  72.1869037451853 39.6108465282771  C 72.1869037451853 39.6108465282771  74.4623049444996 43.0681732941129  74.4623049444996 43.0681732941129  C 74.4623049444996 43.0681732941129  80.8233154083601 49.8002355155334  80.8233154083601 49.8002355155334  C 80.8233154083601 49.8002355155334  79.41509488834 50.8560896139401  79.41509488834 50.8560896139401  C 79.41509488834 50.8560896139401  79.6426350082714 54.7738640317129  79.6426350082714 54.7738640317129  C 79.6426350082714 54.7738640317129  87.8998131382275 60.1563383078015  87.8998131382275 60.1563383078015  C 87.8998131382275 60.1563383078015  89.1462273507403 61.3789062112198  89.1462273507403 61.3789062112198  C 89.1462273507403 61.3789062112198  61.029853197881 61.3789062112198  61.029853197881 61.3789062112198  C 61.029853197881 61.3789062112198  31.688574451404 61.3789062112198  31.688574451404 61.3789062112198  C 31.688574451404 61.3789062112198  3.19043854177092 61.3789062112198  3.19043854177092 61.3789062112198  C 3.19043854177092 61.3789062112198  3.19043854177092 39.0948276080031  3.19043854177092 39.0948276080031  C 3.19043854177092 39.0948276080031  3.19043854177092 15.464153571105  3.19043854177092 15.464153571105  C 3.19043854177092 15.464153571105  1.06420253218953 10.3317500025337  1.06420253218953 10.3317500025337  C 1.06420253218953 10.3317500025337  2.88957993875034 6.3703124453534  2.88957993875034 6.3703124453534  C 2.88957993875034 6.3703124453534  1.79233091597012 3.61159591004256  1.79233091597012 3.61159591004256  C 1.79233091597012 3.61159591004256  4.36100604764034 0.501589571314259  4.36100604764034 0.501589571314259  C 4.36100604764034 0.501589571314259  13.7912799070203 0.392431722794733  13.7912799070203 0.392431722794733  C 13.7912799070203 0.392431722794733  20.6124270578533 2.10918697678329  20.6124270578533 2.10918697678329  C 20.6124270578533 2.10918697678329  27.6510014343986 4.0224263581069  27.6510014343986 4.0224263581069  C 27.6510014343986 4.0224263581069  30.9326356085207 5.02667856448623  30.9326356085207 5.02667856448623  C 30.9326356085207 5.02667856448623  36.39107026332 2.98046507678437  36.39107026332 2.98046507678437  C 36.39107026332 2.98046507678437  39.3086402455517 1.12279696379797  39.3086402455517 1.12279696379797  C 39.3086402455517 1.12279696379797  47.3976717904341 0.586931161974983  47.3976717904341 0.586931161974983  C 47.3976717904341 0.586931161974983  52.4389495586925 1.4066073699487  52.4389495586925 1.4066073699487  C 52.4389495586925 1.4066073699487  54.3679841310002 4.61783280457693  54.3679841310002 4.61783280457693  C 54.3679841310002 4.61783280457693  56.0138576651707 2.50413991960835  56.0138576651707 2.50413991960835  C 56.0138576651707 2.50413991960835  61.6947759927921 4.03234979888138  61.6947759927921 4.03234979888138  C 61.6947759927921 4.03234979888138  67.2214726835708 4.39951710753771  67.2214726835708 4.39951710753771  C 67.2214726835708 4.39951710753771  70.7078929656309 2.770088132365  70.7078929656309 2.770088132365  Z " stroke-width="2" stroke="#505050" fill="none" stroke-opacity="0.211764705882353" transform="matrix(1 0 0 1 2014 4158 )" mask="url(#clip94)" />
  </g>
</svg>