<?xml version="1.0" encoding="utf-8"?>
<svg version="1.1" xmlns:xlink="http://www.w3.org/1999/xlink" width="62px" height="44px" xmlns="http://www.w3.org/2000/svg">
  <defs>
    <mask fill="white" id="clip95">
      <path d="M 28.4242046777253 0.97380899539606  C 28.4242046777253 0.97380899539606  28.3363530402804 1.03437399521966  28.3363530402804 1.03437399521966  C 28.3363530402804 1.03437399521966  23.8734898580827 7.49464064308337  23.8734898580827 7.49464064308337  C 23.8734898580827 7.49464064308337  19.1872325120968 9.78601646974742  19.1872325120968 9.78601646974742  C 19.1872325120968 9.78601646974742  16.6445551197646 13.6561199584835  16.6445551197646 13.6561199584835  C 16.6445551197646 13.6561199584835  16.4788920320118 16.9750819488234  16.4788920320118 16.9750819488234  C 16.4788920320118 16.9750819488234  14.616437318181 20.5928312716269  14.616437318181 20.5928312716269  C 14.616437318181 20.5928312716269  12.2469531539547 23.0568016020574  12.2469531539547 23.0568016020574  C 12.2469531539547 23.0568016020574  8.32877012391481 26.9753570906523  8.32877012391481 26.9753570906523  C 8.32877012391481 26.9753570906523  5.90908502400575 31.3017169113935  5.90908502400575 31.3017169113935  C 5.90908502400575 31.3017169113935  6.36340349193456 33.36900223871  6.36340349193456 33.36900223871  C 6.36340349193456 33.36900223871  4.0591805440957 36.5405893961455  4.0591805440957 36.5405893961455  C 4.0591805440957 36.5405893961455  1.35837020436315 38.1960327246605  1.35837020436315 38.1960327246605  C 1.35837020436315 38.1960327246605  1.02453398207277 41.0022110498264  1.02453398207277 41.0022110498264  C 1.02453398207277 41.0022110498264  0.723328367976171 43.551997542405  0.723328367976171 43.551997542405  C 0.723328367976171 43.551997542405  2.25696695308473 41.53922071493  2.25696695308473 41.53922071493  C 2.25696695308473 41.53922071493  29.8172806429219 41.5775785481517  29.8172806429219 41.5775785481517  C 29.8172806429219 41.5775785481517  28.4844458005446 32.8077665736768  28.4844458005446 32.8077665736768  C 28.4844458005446 32.8077665736768  30.2063378944634 29.666461916153  30.2063378944634 29.666461916153  C 30.2063378944634 29.666461916153  38.6237602081591 29.1153204177572  38.6237602081591 29.1153204177572  C 38.6237602081591 29.1153204177572  38.3953459508025 11.7987932972224  38.3953459508025 11.7987932972224  C 38.3953459508025 11.7987932972224  61.4953065052264 12.127863129598  61.4953065052264 12.127863129598  C 61.4953065052264 12.127863129598  61.5153868794995 2.58483799070703  61.5153868794995 2.58483799070703  C 61.5153868794995 2.58483799070703  61.650929405843 1.35738732761286  61.650929405843 1.35738732761286  C 61.650929405843 1.35738732761286  61.648419359059 0.94554532881178  61.648419359059 0.94554532881178  C 61.648419359059 0.94554532881178  28.4242046777253 0.97380899539606  28.4242046777253 0.97380899539606  Z " fill-rule="evenodd" />
    </mask>
  </defs>
  <g transform="matrix(1 0 0 1 -1716 -4182 )">
    <path d="M 28.4242046777253 0.97380899539606  C 28.4242046777253 0.97380899539606  28.3363530402804 1.03437399521966  28.3363530402804 1.03437399521966  C 28.3363530402804 1.03437399521966  23.8734898580827 7.49464064308337  23.8734898580827 7.49464064308337  C 23.8734898580827 7.49464064308337  19.1872325120968 9.78601646974742  19.1872325120968 9.78601646974742  C 19.1872325120968 9.78601646974742  16.6445551197646 13.6561199584835  16.6445551197646 13.6561199584835  C 16.6445551197646 13.6561199584835  16.4788920320118 16.9750819488234  16.4788920320118 16.9750819488234  C 16.4788920320118 16.9750819488234  14.616437318181 20.5928312716269  14.616437318181 20.5928312716269  C 14.616437318181 20.5928312716269  12.2469531539547 23.0568016020574  12.2469531539547 23.0568016020574  C 12.2469531539547 23.0568016020574  8.32877012391481 26.9753570906523  8.32877012391481 26.9753570906523  C 8.32877012391481 26.9753570906523  5.90908502400575 31.3017169113935  5.90908502400575 31.3017169113935  C 5.90908502400575 31.3017169113935  6.36340349193456 33.36900223871  6.36340349193456 33.36900223871  C 6.36340349193456 33.36900223871  4.0591805440957 36.5405893961455  4.0591805440957 36.5405893961455  C 4.0591805440957 36.5405893961455  1.35837020436315 38.1960327246605  1.35837020436315 38.1960327246605  C 1.35837020436315 38.1960327246605  1.02453398207277 41.0022110498264  1.02453398207277 41.0022110498264  C 1.02453398207277 41.0022110498264  0.723328367976171 43.551997542405  0.723328367976171 43.551997542405  C 0.723328367976171 43.551997542405  2.25696695308473 41.53922071493  2.25696695308473 41.53922071493  C 2.25696695308473 41.53922071493  29.8172806429219 41.5775785481517  29.8172806429219 41.5775785481517  C 29.8172806429219 41.5775785481517  28.4844458005446 32.8077665736768  28.4844458005446 32.8077665736768  C 28.4844458005446 32.8077665736768  30.2063378944634 29.666461916153  30.2063378944634 29.666461916153  C 30.2063378944634 29.666461916153  38.6237602081591 29.1153204177572  38.6237602081591 29.1153204177572  C 38.6237602081591 29.1153204177572  38.3953459508025 11.7987932972224  38.3953459508025 11.7987932972224  C 38.3953459508025 11.7987932972224  61.4953065052264 12.127863129598  61.4953065052264 12.127863129598  C 61.4953065052264 12.127863129598  61.5153868794995 2.58483799070703  61.5153868794995 2.58483799070703  C 61.5153868794995 2.58483799070703  61.650929405843 1.35738732761286  61.650929405843 1.35738732761286  C 61.650929405843 1.35738732761286  61.648419359059 0.94554532881178  61.648419359059 0.94554532881178  C 61.648419359059 0.94554532881178  28.4242046777253 0.97380899539606  28.4242046777253 0.97380899539606  Z " fill-rule="nonzero" fill="#f2f2f2" stroke="none" transform="matrix(1 0 0 1 1716 4182 )" />
    <path d="M 28.4242046777253 0.97380899539606  C 28.4242046777253 0.97380899539606  28.3363530402804 1.03437399521966  28.3363530402804 1.03437399521966  C 28.3363530402804 1.03437399521966  23.8734898580827 7.49464064308337  23.8734898580827 7.49464064308337  C 23.8734898580827 7.49464064308337  19.1872325120968 9.78601646974742  19.1872325120968 9.78601646974742  C 19.1872325120968 9.78601646974742  16.6445551197646 13.6561199584835  16.6445551197646 13.6561199584835  C 16.6445551197646 13.6561199584835  16.4788920320118 16.9750819488234  16.4788920320118 16.9750819488234  C 16.4788920320118 16.9750819488234  14.616437318181 20.5928312716269  14.616437318181 20.5928312716269  C 14.616437318181 20.5928312716269  12.2469531539547 23.0568016020574  12.2469531539547 23.0568016020574  C 12.2469531539547 23.0568016020574  8.32877012391481 26.9753570906523  8.32877012391481 26.9753570906523  C 8.32877012391481 26.9753570906523  5.90908502400575 31.3017169113935  5.90908502400575 31.3017169113935  C 5.90908502400575 31.3017169113935  6.36340349193456 33.36900223871  6.36340349193456 33.36900223871  C 6.36340349193456 33.36900223871  4.0591805440957 36.5405893961455  4.0591805440957 36.5405893961455  C 4.0591805440957 36.5405893961455  1.35837020436315 38.1960327246605  1.35837020436315 38.1960327246605  C 1.35837020436315 38.1960327246605  1.02453398207277 41.0022110498264  1.02453398207277 41.0022110498264  C 1.02453398207277 41.0022110498264  0.723328367976171 43.551997542405  0.723328367976171 43.551997542405  C 0.723328367976171 43.551997542405  2.25696695308473 41.53922071493  2.25696695308473 41.53922071493  C 2.25696695308473 41.53922071493  29.8172806429219 41.5775785481517  29.8172806429219 41.5775785481517  C 29.8172806429219 41.5775785481517  28.4844458005446 32.8077665736768  28.4844458005446 32.8077665736768  C 28.4844458005446 32.8077665736768  30.2063378944634 29.666461916153  30.2063378944634 29.666461916153  C 30.2063378944634 29.666461916153  38.6237602081591 29.1153204177572  38.6237602081591 29.1153204177572  C 38.6237602081591 29.1153204177572  38.3953459508025 11.7987932972224  38.3953459508025 11.7987932972224  C 38.3953459508025 11.7987932972224  61.4953065052264 12.127863129598  61.4953065052264 12.127863129598  C 61.4953065052264 12.127863129598  61.5153868794995 2.58483799070703  61.5153868794995 2.58483799070703  C 61.5153868794995 2.58483799070703  61.650929405843 1.35738732761286  61.650929405843 1.35738732761286  C 61.650929405843 1.35738732761286  61.648419359059 0.94554532881178  61.648419359059 0.94554532881178  C 61.648419359059 0.94554532881178  28.4242046777253 0.97380899539606  28.4242046777253 0.97380899539606  Z " stroke-width="2" stroke="#505050" fill="none" stroke-opacity="0.211764705882353" transform="matrix(1 0 0 1 1716 4182 )" mask="url(#clip95)" />
  </g>
</svg>