<?xml version="1.0" encoding="utf-8"?>
<svg version="1.1" xmlns:xlink="http://www.w3.org/1999/xlink" width="53px" height="35px" xmlns="http://www.w3.org/2000/svg">
  <defs>
    <mask fill="white" id="clip96">
      <path d="M 49.8903411072618 34.9344668711746  C 49.8903411072618 34.9344668711746  46.761165836337 34.4366409256537  46.761165836337 34.4366409256537  C 46.761165836337 34.4366409256537  44.2651209491213 32.5818378060524  44.2651209491213 32.5818378060524  C 44.2651209491213 32.5818378060524  41.2610084700403 29.2134832230531  41.2610084700403 29.2134832230531  C 41.2610084700403 29.2134832230531  38.0224032562521 27.3667095541858  38.0224032562521 27.3667095541858  C 38.0224032562521 27.3667095541858  36.133434004445 25.3754057721027  36.133434004445 25.3754057721027  C 36.133434004445 25.3754057721027  29.7734699442223 23.060916597968  29.7734699442223 23.060916597968  C 29.7734699442223 23.060916597968  22.872890177953 22.9926662667274  22.872890177953 22.9926662667274  C 22.872890177953 22.9926662667274  21.1115891928196 21.7842339312295  21.1115891928196 21.7842339312295  C 21.1115891928196 21.7842339312295  16.8281885721699 23.1432184679936  16.8281885721699 23.1432184679936  C 16.8281885721699 23.1432184679936  12.3936704113752 20.5175880779085  12.3936704113752 20.5175880779085  C 12.3936704113752 20.5175880779085  10.1112744602263 24.8314104848605  10.1112744602263 24.8314104848605  C 10.1112744602263 24.8314104848605  1.60700461484853 23.624985512046  1.60700461484853 23.624985512046  C 1.60700461484853 23.624985512046  0.830573115485013 21.3104963379112  0.830573115485013 21.3104963379112  C 0.830573115485013 21.3104963379112  3.9753812353904 11.3188642368009  3.9753812353904 11.3188642368009  C 3.9753812353904 11.3188642368009  4.6970977633225 7.44063953217998  4.6970977633225 7.44063953217998  C 4.6970977633225 7.44063953217998  6.99773203828237 5.64605729308506  6.99773203828237 5.64605729308506  C 6.99773203828237 5.64605729308506  12.3780375623951 4.68252320498034  12.3780375623951 4.68252320498034  C 12.3780375623951 4.68252320498034  16.0752063462772 1.33022752344928  16.0752063462772 1.33022752344928  C 16.0752063462772 1.33022752344928  20.3169193696456 8.11712075653674  20.3169193696456 8.11712075653674  C 20.3169193696456 8.11712075653674  22.3309514132965 13.4687496708847  22.3309514132965 13.4687496708847  C 22.3309514132965 13.4687496708847  28.2258178951552 16.2991310546921  28.2258178951552 16.2991310546921  C 28.2258178951552 16.2991310546921  38.1969700698675 23.2255203380193  38.1969700698675 23.2255203380193  C 38.1969700698675 23.2255203380193  42.2562998551303 26.5155877763598  42.2562998551303 26.5155877763598  C 42.2562998551303 26.5155877763598  46.2166215968506 29.8357656549541  46.2166215968506 29.8357656549541  C 46.2166215968506 29.8357656549541  48.5016230228295 31.8090031728851  48.5016230228295 31.8090031728851  C 48.5016230228295 31.8090031728851  52.0919673386786 33.5353350807392  52.0919673386786 33.5353350807392  C 52.0919673386786 33.5353350807392  49.8903411072618 34.9344668711746  49.8903411072618 34.9344668711746  Z " fill-rule="evenodd" />
    </mask>
  </defs>
  <g transform="matrix(1 0 0 1 -2098 -4239 )">
    <path d="M 49.8903411072618 34.9344668711746  C 49.8903411072618 34.9344668711746  46.761165836337 34.4366409256537  46.761165836337 34.4366409256537  C 46.761165836337 34.4366409256537  44.2651209491213 32.5818378060524  44.2651209491213 32.5818378060524  C 44.2651209491213 32.5818378060524  41.2610084700403 29.2134832230531  41.2610084700403 29.2134832230531  C 41.2610084700403 29.2134832230531  38.0224032562521 27.3667095541858  38.0224032562521 27.3667095541858  C 38.0224032562521 27.3667095541858  36.133434004445 25.3754057721027  36.133434004445 25.3754057721027  C 36.133434004445 25.3754057721027  29.7734699442223 23.060916597968  29.7734699442223 23.060916597968  C 29.7734699442223 23.060916597968  22.872890177953 22.9926662667274  22.872890177953 22.9926662667274  C 22.872890177953 22.9926662667274  21.1115891928196 21.7842339312295  21.1115891928196 21.7842339312295  C 21.1115891928196 21.7842339312295  16.8281885721699 23.1432184679936  16.8281885721699 23.1432184679936  C 16.8281885721699 23.1432184679936  12.3936704113752 20.5175880779085  12.3936704113752 20.5175880779085  C 12.3936704113752 20.5175880779085  10.1112744602263 24.8314104848605  10.1112744602263 24.8314104848605  C 10.1112744602263 24.8314104848605  1.60700461484853 23.624985512046  1.60700461484853 23.624985512046  C 1.60700461484853 23.624985512046  0.830573115485013 21.3104963379112  0.830573115485013 21.3104963379112  C 0.830573115485013 21.3104963379112  3.9753812353904 11.3188642368009  3.9753812353904 11.3188642368009  C 3.9753812353904 11.3188642368009  4.6970977633225 7.44063953217998  4.6970977633225 7.44063953217998  C 4.6970977633225 7.44063953217998  6.99773203828237 5.64605729308506  6.99773203828237 5.64605729308506  C 6.99773203828237 5.64605729308506  12.3780375623951 4.68252320498034  12.3780375623951 4.68252320498034  C 12.3780375623951 4.68252320498034  16.0752063462772 1.33022752344928  16.0752063462772 1.33022752344928  C 16.0752063462772 1.33022752344928  20.3169193696456 8.11712075653674  20.3169193696456 8.11712075653674  C 20.3169193696456 8.11712075653674  22.3309514132965 13.4687496708847  22.3309514132965 13.4687496708847  C 22.3309514132965 13.4687496708847  28.2258178951552 16.2991310546921  28.2258178951552 16.2991310546921  C 28.2258178951552 16.2991310546921  38.1969700698675 23.2255203380193  38.1969700698675 23.2255203380193  C 38.1969700698675 23.2255203380193  42.2562998551303 26.5155877763598  42.2562998551303 26.5155877763598  C 42.2562998551303 26.5155877763598  46.2166215968506 29.8357656549541  46.2166215968506 29.8357656549541  C 46.2166215968506 29.8357656549541  48.5016230228295 31.8090031728851  48.5016230228295 31.8090031728851  C 48.5016230228295 31.8090031728851  52.0919673386786 33.5353350807392  52.0919673386786 33.5353350807392  C 52.0919673386786 33.5353350807392  49.8903411072618 34.9344668711746  49.8903411072618 34.9344668711746  Z " fill-rule="nonzero" fill="#f2f2f2" stroke="none" transform="matrix(1 0 0 1 2098 4239 )" />
    <path d="M 49.8903411072618 34.9344668711746  C 49.8903411072618 34.9344668711746  46.761165836337 34.4366409256537  46.761165836337 34.4366409256537  C 46.761165836337 34.4366409256537  44.2651209491213 32.5818378060524  44.2651209491213 32.5818378060524  C 44.2651209491213 32.5818378060524  41.2610084700403 29.2134832230531  41.2610084700403 29.2134832230531  C 41.2610084700403 29.2134832230531  38.0224032562521 27.3667095541858  38.0224032562521 27.3667095541858  C 38.0224032562521 27.3667095541858  36.133434004445 25.3754057721027  36.133434004445 25.3754057721027  C 36.133434004445 25.3754057721027  29.7734699442223 23.060916597968  29.7734699442223 23.060916597968  C 29.7734699442223 23.060916597968  22.872890177953 22.9926662667274  22.872890177953 22.9926662667274  C 22.872890177953 22.9926662667274  21.1115891928196 21.7842339312295  21.1115891928196 21.7842339312295  C 21.1115891928196 21.7842339312295  16.8281885721699 23.1432184679936  16.8281885721699 23.1432184679936  C 16.8281885721699 23.1432184679936  12.3936704113752 20.5175880779085  12.3936704113752 20.5175880779085  C 12.3936704113752 20.5175880779085  10.1112744602263 24.8314104848605  10.1112744602263 24.8314104848605  C 10.1112744602263 24.8314104848605  1.60700461484853 23.624985512046  1.60700461484853 23.624985512046  C 1.60700461484853 23.624985512046  0.830573115485013 21.3104963379112  0.830573115485013 21.3104963379112  C 0.830573115485013 21.3104963379112  3.9753812353904 11.3188642368009  3.9753812353904 11.3188642368009  C 3.9753812353904 11.3188642368009  4.6970977633225 7.44063953217998  4.6970977633225 7.44063953217998  C 4.6970977633225 7.44063953217998  6.99773203828237 5.64605729308506  6.99773203828237 5.64605729308506  C 6.99773203828237 5.64605729308506  12.3780375623951 4.68252320498034  12.3780375623951 4.68252320498034  C 12.3780375623951 4.68252320498034  16.0752063462772 1.33022752344928  16.0752063462772 1.33022752344928  C 16.0752063462772 1.33022752344928  20.3169193696456 8.11712075653674  20.3169193696456 8.11712075653674  C 20.3169193696456 8.11712075653674  22.3309514132965 13.4687496708847  22.3309514132965 13.4687496708847  C 22.3309514132965 13.4687496708847  28.2258178951552 16.2991310546921  28.2258178951552 16.2991310546921  C 28.2258178951552 16.2991310546921  38.1969700698675 23.2255203380193  38.1969700698675 23.2255203380193  C 38.1969700698675 23.2255203380193  42.2562998551303 26.5155877763598  42.2562998551303 26.5155877763598  C 42.2562998551303 26.5155877763598  46.2166215968506 29.8357656549541  46.2166215968506 29.8357656549541  C 46.2166215968506 29.8357656549541  48.5016230228295 31.8090031728851  48.5016230228295 31.8090031728851  C 48.5016230228295 31.8090031728851  52.0919673386786 33.5353350807392  52.0919673386786 33.5353350807392  C 52.0919673386786 33.5353350807392  49.8903411072618 34.9344668711746  49.8903411072618 34.9344668711746  Z " stroke-width="2" stroke="#505050" fill="none" stroke-opacity="0.211764705882353" transform="matrix(1 0 0 1 2098 4239 )" mask="url(#clip96)" />
  </g>
</svg>