<?xml version="1.0" encoding="utf-8"?>
<svg version="1.1" xmlns:xlink="http://www.w3.org/1999/xlink" width="90px" height="60px" xmlns="http://www.w3.org/2000/svg">
  <defs>
    <mask fill="white" id="clip97">
      <path d="M 5.11056940811377 13.5037566103037  C 5.11056940811377 13.5037566103037  2.53936605288867 15.3816648840587  2.53936605288867 15.3816648840587  C 2.53936605288867 15.3816648840587  2.89584557411477 10.0979585682684  2.89584557411477 10.0979585682684  C 2.89584557411477 10.0979585682684  0.00102960387586828 6.84947221408704  0.00102960387586828 6.84947221408704  C 0.00102960387586828 6.84947221408704  10.0279642221872 1.39272304165745  10.0279642221872 1.39272304165745  C 10.0279642221872 1.39272304165745  18.702299238684 2.76330112208395  18.702299238684 2.76330112208395  C 18.702299238684 2.76330112208395  28.221060922482 2.7161076157278  28.221060922482 2.7161076157278  C 28.221060922482 2.7161076157278  35.7652800099859 4.00802985222738  35.7652800099859 4.00802985222738  C 35.7652800099859 4.00802985222738  41.6484562219906 3.61081784039649  41.6484562219906 3.61081784039649  C 41.6484562219906 3.61081784039649  54.9431000661926 3.86251654096254  54.9431000661926 3.86251654096254  C 54.9431000661926 3.86251654096254  57.7696540004519 6.79244672724004  57.7696540004519 6.79244672724004  C 57.7696540004519 6.79244672724004  70.8178157667416 10.1962783731771  70.8178157667416 10.1962783731771  C 70.8178157667416 10.1962783731771  73.3940755690762 8.58186717657718  73.3940755690762 8.58186717657718  C 73.3940755690762 8.58186717657718  81.3706208844498 11.9542364849436  81.3706208844498 11.9542364849436  C 81.3706208844498 11.9542364849436  89.587347437529 10.9907023968389  89.587347437529 10.9907023968389  C 89.587347437529 10.9907023968389  89.9665809707479 15.2971098518373  89.9665809707479 15.2971098518373  C 89.9665809707479 15.2971098518373  83.2490909856615 20.1855705518948  83.2490909856615 20.1855705518948  C 83.2490909856615 20.1855705518948  74.1651837532881 21.7272250928622  74.1651837532881 21.7272250928622  C 74.1651837532881 21.7272250928622  73.5331278645898 24.1694890467928  73.5331278645898 24.1694890467928  C 73.5331278645898 24.1694890467928  69.1769986796806 28.1671723143782  69.1769986796806 28.1671723143782  C 69.1769986796806 28.1671723143782  66.4465172405033 35.4084106091482  66.4465172405033 35.4084106091482  C 66.4465172405033 35.4084106091482  69.2098655858926 39.4473881947951  69.2098655858926 39.4473881947951  C 69.2098655858926 39.4473881947951  65.1090869800176 42.5778907830862  65.1090869800176 42.5778907830862  C 65.1090869800176 42.5778907830862  63.5769835058125 47.10453460108  63.5769835058125 47.10453460108  C 63.5769835058125 47.10453460108  58.2247342403146 48.4849446619972  58.2247342403146 48.4849446619972  C 58.2247342403146 48.4849446619972  53.2036822604945 53.7745501660821  53.2036822604945 53.7745501660821  C 53.2036822604945 53.7745501660821  42.3715281586615 53.8787691592852  42.3715281586615 53.8787691592852  C 42.3715281586615 53.8787691592852  35.6135865966984 53.7489870168058  35.6135865966984 53.7489870168058  C 35.6135865966984 53.7489870168058  31.1740260344809 56.1597886331655  31.1740260344809 56.1597886331655  C 31.1740260344809 56.1597886331655  28.4662986072969 58.7279019373793  28.4662986072969 58.7279019373793  C 28.4662986072969 58.7279019373793  24.99757589012 58.1655126533019  24.99757589012 58.1655126533019  C 24.99757589012 58.1655126533019  22.3732798402444 55.8667956145378  22.3732798402444 55.8667956145378  C 22.3732798402444 55.8667956145378  20.3633421141834 51.9320370220942  20.3633421141834 51.9320370220942  C 20.3633421141834 51.9320370220942  13.7469810712887 50.8662503368844  13.7469810712887 50.8662503368844  C 13.7469810712887 50.8662503368844  13.1553767594671 48.5832644669059  13.1553767594671 48.5832644669059  C 13.1553767594671 48.5832644669059  15.7822010328975 45.9836888251215  15.7822010328975 45.9836888251215  C 15.7822010328975 45.9836888251215  16.7555671014929 44.0900493825811  16.7555671014929 44.0900493825811  C 16.7555671014929 44.0900493825811  14.3107749240077 42.0115687068125  14.3107749240077 42.0115687068125  C 14.3107749240077 42.0115687068125  16.2676199554179 37.3905378761064  16.2676199554179 37.3905378761064  C 16.2676199554179 37.3905378761064  13.4284249033847 33.1332903235623  13.4284249033847 33.1332903235623  C 13.4284249033847 33.1332903235623  16.4901036282397 32.5453378902087  16.4901036282397 32.5453378902087  C 16.4901036282397 32.5453378902087  16.7757928899315 27.732598776682  16.7757928899315 27.732598776682  C 16.7757928899315 27.732598776682  17.9261346073625 26.6786104680614  17.9261346073625 26.6786104680614  C 17.9261346073625 26.6786104680614  18.017150655335 21.0252216858146  18.017150655335 21.0252216858146  C 18.017150655335 21.0252216858146  21.2937283823475 19.0470272110527  21.2937283823475 19.0470272110527  C 21.2937283823475 19.0470272110527  19.3116011153894 15.362000923077  19.3116011153894 15.362000923077  C 19.3116011153894 15.362000923077  15.1804838268567 15.1024366381182  15.1804838268567 15.1024366381182  C 15.1804838268567 15.1024366381182  13.9669365205557 16.034508388652  13.9669365205557 16.034508388652  C 13.9669365205557 16.034508388652  9.78019831381772 16.0423739730448  9.78019831381772 16.0423739730448  C 9.78019831381772 16.0423739730448  8.00538537835246 12.4222387563087  8.00538537835246 12.4222387563087  C 8.00538537835246 12.4222387563087  5.11056940811377 13.5037566103037  5.11056940811377 13.5037566103037  Z " fill-rule="evenodd" />
    </mask>
  </defs>
  <g transform="matrix(1 0 0 1 -1772 -4070 )">
    <path d="M 5.11056940811377 13.5037566103037  C 5.11056940811377 13.5037566103037  2.53936605288867 15.3816648840587  2.53936605288867 15.3816648840587  C 2.53936605288867 15.3816648840587  2.89584557411477 10.0979585682684  2.89584557411477 10.0979585682684  C 2.89584557411477 10.0979585682684  0.00102960387586828 6.84947221408704  0.00102960387586828 6.84947221408704  C 0.00102960387586828 6.84947221408704  10.0279642221872 1.39272304165745  10.0279642221872 1.39272304165745  C 10.0279642221872 1.39272304165745  18.702299238684 2.76330112208395  18.702299238684 2.76330112208395  C 18.702299238684 2.76330112208395  28.221060922482 2.7161076157278  28.221060922482 2.7161076157278  C 28.221060922482 2.7161076157278  35.7652800099859 4.00802985222738  35.7652800099859 4.00802985222738  C 35.7652800099859 4.00802985222738  41.6484562219906 3.61081784039649  41.6484562219906 3.61081784039649  C 41.6484562219906 3.61081784039649  54.9431000661926 3.86251654096254  54.9431000661926 3.86251654096254  C 54.9431000661926 3.86251654096254  57.7696540004519 6.79244672724004  57.7696540004519 6.79244672724004  C 57.7696540004519 6.79244672724004  70.8178157667416 10.1962783731771  70.8178157667416 10.1962783731771  C 70.8178157667416 10.1962783731771  73.3940755690762 8.58186717657718  73.3940755690762 8.58186717657718  C 73.3940755690762 8.58186717657718  81.3706208844498 11.9542364849436  81.3706208844498 11.9542364849436  C 81.3706208844498 11.9542364849436  89.587347437529 10.9907023968389  89.587347437529 10.9907023968389  C 89.587347437529 10.9907023968389  89.9665809707479 15.2971098518373  89.9665809707479 15.2971098518373  C 89.9665809707479 15.2971098518373  83.2490909856615 20.1855705518948  83.2490909856615 20.1855705518948  C 83.2490909856615 20.1855705518948  74.1651837532881 21.7272250928622  74.1651837532881 21.7272250928622  C 74.1651837532881 21.7272250928622  73.5331278645898 24.1694890467928  73.5331278645898 24.1694890467928  C 73.5331278645898 24.1694890467928  69.1769986796806 28.1671723143782  69.1769986796806 28.1671723143782  C 69.1769986796806 28.1671723143782  66.4465172405033 35.4084106091482  66.4465172405033 35.4084106091482  C 66.4465172405033 35.4084106091482  69.2098655858926 39.4473881947951  69.2098655858926 39.4473881947951  C 69.2098655858926 39.4473881947951  65.1090869800176 42.5778907830862  65.1090869800176 42.5778907830862  C 65.1090869800176 42.5778907830862  63.5769835058125 47.10453460108  63.5769835058125 47.10453460108  C 63.5769835058125 47.10453460108  58.2247342403146 48.4849446619972  58.2247342403146 48.4849446619972  C 58.2247342403146 48.4849446619972  53.2036822604945 53.7745501660821  53.2036822604945 53.7745501660821  C 53.2036822604945 53.7745501660821  42.3715281586615 53.8787691592852  42.3715281586615 53.8787691592852  C 42.3715281586615 53.8787691592852  35.6135865966984 53.7489870168058  35.6135865966984 53.7489870168058  C 35.6135865966984 53.7489870168058  31.1740260344809 56.1597886331655  31.1740260344809 56.1597886331655  C 31.1740260344809 56.1597886331655  28.4662986072969 58.7279019373793  28.4662986072969 58.7279019373793  C 28.4662986072969 58.7279019373793  24.99757589012 58.1655126533019  24.99757589012 58.1655126533019  C 24.99757589012 58.1655126533019  22.3732798402444 55.8667956145378  22.3732798402444 55.8667956145378  C 22.3732798402444 55.8667956145378  20.3633421141834 51.9320370220942  20.3633421141834 51.9320370220942  C 20.3633421141834 51.9320370220942  13.7469810712887 50.8662503368844  13.7469810712887 50.8662503368844  C 13.7469810712887 50.8662503368844  13.1553767594671 48.5832644669059  13.1553767594671 48.5832644669059  C 13.1553767594671 48.5832644669059  15.7822010328975 45.9836888251215  15.7822010328975 45.9836888251215  C 15.7822010328975 45.9836888251215  16.7555671014929 44.0900493825811  16.7555671014929 44.0900493825811  C 16.7555671014929 44.0900493825811  14.3107749240077 42.0115687068125  14.3107749240077 42.0115687068125  C 14.3107749240077 42.0115687068125  16.2676199554179 37.3905378761064  16.2676199554179 37.3905378761064  C 16.2676199554179 37.3905378761064  13.4284249033847 33.1332903235623  13.4284249033847 33.1332903235623  C 13.4284249033847 33.1332903235623  16.4901036282397 32.5453378902087  16.4901036282397 32.5453378902087  C 16.4901036282397 32.5453378902087  16.7757928899315 27.732598776682  16.7757928899315 27.732598776682  C 16.7757928899315 27.732598776682  17.9261346073625 26.6786104680614  17.9261346073625 26.6786104680614  C 17.9261346073625 26.6786104680614  18.017150655335 21.0252216858146  18.017150655335 21.0252216858146  C 18.017150655335 21.0252216858146  21.2937283823475 19.0470272110527  21.2937283823475 19.0470272110527  C 21.2937283823475 19.0470272110527  19.3116011153894 15.362000923077  19.3116011153894 15.362000923077  C 19.3116011153894 15.362000923077  15.1804838268567 15.1024366381182  15.1804838268567 15.1024366381182  C 15.1804838268567 15.1024366381182  13.9669365205557 16.034508388652  13.9669365205557 16.034508388652  C 13.9669365205557 16.034508388652  9.78019831381772 16.0423739730448  9.78019831381772 16.0423739730448  C 9.78019831381772 16.0423739730448  8.00538537835246 12.4222387563087  8.00538537835246 12.4222387563087  C 8.00538537835246 12.4222387563087  5.11056940811377 13.5037566103037  5.11056940811377 13.5037566103037  Z " fill-rule="nonzero" fill="#81ecec" stroke="none" transform="matrix(1 0 0 1 1772 4070 )" />
    <path d="M 5.11056940811377 13.5037566103037  C 5.11056940811377 13.5037566103037  2.53936605288867 15.3816648840587  2.53936605288867 15.3816648840587  C 2.53936605288867 15.3816648840587  2.89584557411477 10.0979585682684  2.89584557411477 10.0979585682684  C 2.89584557411477 10.0979585682684  0.00102960387586828 6.84947221408704  0.00102960387586828 6.84947221408704  C 0.00102960387586828 6.84947221408704  10.0279642221872 1.39272304165745  10.0279642221872 1.39272304165745  C 10.0279642221872 1.39272304165745  18.702299238684 2.76330112208395  18.702299238684 2.76330112208395  C 18.702299238684 2.76330112208395  28.221060922482 2.7161076157278  28.221060922482 2.7161076157278  C 28.221060922482 2.7161076157278  35.7652800099859 4.00802985222738  35.7652800099859 4.00802985222738  C 35.7652800099859 4.00802985222738  41.6484562219906 3.61081784039649  41.6484562219906 3.61081784039649  C 41.6484562219906 3.61081784039649  54.9431000661926 3.86251654096254  54.9431000661926 3.86251654096254  C 54.9431000661926 3.86251654096254  57.7696540004519 6.79244672724004  57.7696540004519 6.79244672724004  C 57.7696540004519 6.79244672724004  70.8178157667416 10.1962783731771  70.8178157667416 10.1962783731771  C 70.8178157667416 10.1962783731771  73.3940755690762 8.58186717657718  73.3940755690762 8.58186717657718  C 73.3940755690762 8.58186717657718  81.3706208844498 11.9542364849436  81.3706208844498 11.9542364849436  C 81.3706208844498 11.9542364849436  89.587347437529 10.9907023968389  89.587347437529 10.9907023968389  C 89.587347437529 10.9907023968389  89.9665809707479 15.2971098518373  89.9665809707479 15.2971098518373  C 89.9665809707479 15.2971098518373  83.2490909856615 20.1855705518948  83.2490909856615 20.1855705518948  C 83.2490909856615 20.1855705518948  74.1651837532881 21.7272250928622  74.1651837532881 21.7272250928622  C 74.1651837532881 21.7272250928622  73.5331278645898 24.1694890467928  73.5331278645898 24.1694890467928  C 73.5331278645898 24.1694890467928  69.1769986796806 28.1671723143782  69.1769986796806 28.1671723143782  C 69.1769986796806 28.1671723143782  66.4465172405033 35.4084106091482  66.4465172405033 35.4084106091482  C 66.4465172405033 35.4084106091482  69.2098655858926 39.4473881947951  69.2098655858926 39.4473881947951  C 69.2098655858926 39.4473881947951  65.1090869800176 42.5778907830862  65.1090869800176 42.5778907830862  C 65.1090869800176 42.5778907830862  63.5769835058125 47.10453460108  63.5769835058125 47.10453460108  C 63.5769835058125 47.10453460108  58.2247342403146 48.4849446619972  58.2247342403146 48.4849446619972  C 58.2247342403146 48.4849446619972  53.2036822604945 53.7745501660821  53.2036822604945 53.7745501660821  C 53.2036822604945 53.7745501660821  42.3715281586615 53.8787691592852  42.3715281586615 53.8787691592852  C 42.3715281586615 53.8787691592852  35.6135865966984 53.7489870168058  35.6135865966984 53.7489870168058  C 35.6135865966984 53.7489870168058  31.1740260344809 56.1597886331655  31.1740260344809 56.1597886331655  C 31.1740260344809 56.1597886331655  28.4662986072969 58.7279019373793  28.4662986072969 58.7279019373793  C 28.4662986072969 58.7279019373793  24.99757589012 58.1655126533019  24.99757589012 58.1655126533019  C 24.99757589012 58.1655126533019  22.3732798402444 55.8667956145378  22.3732798402444 55.8667956145378  C 22.3732798402444 55.8667956145378  20.3633421141834 51.9320370220942  20.3633421141834 51.9320370220942  C 20.3633421141834 51.9320370220942  13.7469810712887 50.8662503368844  13.7469810712887 50.8662503368844  C 13.7469810712887 50.8662503368844  13.1553767594671 48.5832644669059  13.1553767594671 48.5832644669059  C 13.1553767594671 48.5832644669059  15.7822010328975 45.9836888251215  15.7822010328975 45.9836888251215  C 15.7822010328975 45.9836888251215  16.7555671014929 44.0900493825811  16.7555671014929 44.0900493825811  C 16.7555671014929 44.0900493825811  14.3107749240077 42.0115687068125  14.3107749240077 42.0115687068125  C 14.3107749240077 42.0115687068125  16.2676199554179 37.3905378761064  16.2676199554179 37.3905378761064  C 16.2676199554179 37.3905378761064  13.4284249033847 33.1332903235623  13.4284249033847 33.1332903235623  C 13.4284249033847 33.1332903235623  16.4901036282397 32.5453378902087  16.4901036282397 32.5453378902087  C 16.4901036282397 32.5453378902087  16.7757928899315 27.732598776682  16.7757928899315 27.732598776682  C 16.7757928899315 27.732598776682  17.9261346073625 26.6786104680614  17.9261346073625 26.6786104680614  C 17.9261346073625 26.6786104680614  18.017150655335 21.0252216858146  18.017150655335 21.0252216858146  C 18.017150655335 21.0252216858146  21.2937283823475 19.0470272110527  21.2937283823475 19.0470272110527  C 21.2937283823475 19.0470272110527  19.3116011153894 15.362000923077  19.3116011153894 15.362000923077  C 19.3116011153894 15.362000923077  15.1804838268567 15.1024366381182  15.1804838268567 15.1024366381182  C 15.1804838268567 15.1024366381182  13.9669365205557 16.034508388652  13.9669365205557 16.034508388652  C 13.9669365205557 16.034508388652  9.78019831381772 16.0423739730448  9.78019831381772 16.0423739730448  C 9.78019831381772 16.0423739730448  8.00538537835246 12.4222387563087  8.00538537835246 12.4222387563087  C 8.00538537835246 12.4222387563087  5.11056940811377 13.5037566103037  5.11056940811377 13.5037566103037  Z " stroke-width="2" stroke="#505050" fill="none" stroke-opacity="0.211764705882353" transform="matrix(1 0 0 1 1772 4070 )" mask="url(#clip97)" />
  </g>
</svg>