<?xml version="1.0" encoding="utf-8"?>
<svg version="1.1" xmlns:xlink="http://www.w3.org/1999/xlink" width="110px" height="66px" xmlns="http://www.w3.org/2000/svg">
  <defs>
    <mask fill="white" id="clip101">
      <path d="M 34.1965862927716 4.34344981864538  C 34.1965862927716 4.34344981864538  36.4446769641944 0.0992916244764551  36.4446769641944 0.0992916244764551  C 36.4446769641944 0.0992916244764551  40.8125426294478 2.6825205300012  40.8125426294478 2.6825205300012  C 40.8125426294478 2.6825205300012  45.0315621086935 1.34548232737109  45.0315621086935 1.34548232737109  C 45.0315621086935 1.34548232737109  46.7663900697458 2.5343996065194  46.7663900697458 2.5343996065194  C 46.7663900697458 2.5343996065194  51.6988447164066 2.60154775849767  51.6988447164066 2.60154775849767  C 51.6988447164066 2.60154775849767  59.8276228761403 4.87866008882655  59.8276228761403 4.87866008882655  C 59.8276228761403 4.87866008882655  61.6882002012333 6.83780617008098  61.6882002012333 6.83780617008098  C 61.6882002012333 6.83780617008098  64.8781279461861 8.65475616479258  64.8781279461861 8.65475616479258  C 64.8781279461861 8.65475616479258  67.8370874714723 11.968714959495  67.8370874714723 11.968714959495  C 67.8370874714723 11.968714959495  70.2956158541471 13.7935647367922  70.2956158541471 13.7935647367922  C 70.2956158541471 13.7935647367922  67.767797005572 16.2839711969352  67.767797005572 16.2839711969352  C 67.767797005572 16.2839711969352  65.332365444864 18.9205236349136  65.332365444864 18.9205236349136  C 65.332365444864 18.9205236349136  65.8943881127195 20.4688810217111  65.8943881127195 20.4688810217111  C 65.8943881127195 20.4688810217111  66.0098722225533 22.175234060223  66.0098722225533 22.175234060223  C 66.0098722225533 22.175234060223  70.0287192447542 22.2700314512515  70.0287192447542 22.2700314512515  C 70.0287192447542 22.2700314512515  71.7609808922548 21.8710924306735  71.7609808922548 21.8710924306735  C 71.7609808922548 21.8710924306735  73.3572279215071 22.8704149277649  73.3572279215071 22.8704149277649  C 73.3572279215071 22.8704149277649  71.789210341325 24.8552353024229  71.789210341325 24.8552353024229  C 71.789210341325 24.8552353024229  74.4453448674924 27.9341755652003  74.4453448674924 27.9341755652003  C 74.4453448674924 27.9341755652003  77.0989130801081 30.6220765899858  77.0989130801081 30.6220765899858  C 77.0989130801081 30.6220765899858  79.8474348941422 34.045629464632  79.8474348941422 34.045629464632  C 79.8474348941422 34.045629464632  103.372831223975 40.6498477062797  103.372831223975 40.6498477062797  C 103.372831223975 40.6498477062797  109.426764892796 40.6142986846439  109.426764892796 40.6142986846439  C 109.426764892796 40.6142986846439  89.0912963079152 57.2354412449627  89.0912963079152 57.2354412449627  C 89.0912963079152 57.2354412449627  79.7191192165498 57.4783595594729  79.7191192165498 57.4783595594729  C 79.7191192165498 57.4783595594729  73.3059016504701 61.3670275372853  73.3059016504701 61.3670275372853  C 73.3059016504701 61.3670275372853  68.6916698842392 61.4697247108993  68.6916698842392 61.4697247108993  C 68.6916698842392 61.4697247108993  66.723307389968 63.2076768797541  66.723307389968 63.2076768797541  C 66.723307389968 63.2076768797541  61.8062506246184 63.2057019341078  61.8062506246184 63.2057019341078  C 61.8062506246184 63.2057019341078  58.9063163110253 61.3433281895281  58.9063163110253 61.3433281895281  C 58.9063163110253 61.3433281895281  50.4670142115173 63.6500647045535  50.4670142115173 63.6500647045535  C 50.4670142115173 63.6500647045535  48.3421065905835 65.9469264913466  48.3421065905835 65.9469264913466  C 48.3421065905835 65.9469264913466  43.543100248619 65.5124384491328  43.543100248619 65.5124384491328  C 43.543100248619 65.5124384491328  41.9494195329188 64.8765059509839  41.9494195329188 64.8765059509839  C 41.9494195329188 64.8765059509839  40.2633515293513 65.0285767657586  40.2633515293513 65.0285767657586  C 40.2633515293513 65.0285767657586  37.9895977224101 64.9732782876586  37.9895977224101 64.9732782876586  C 37.9895977224101 64.9732782876586  28.8817509268851 60.2906821599833  28.8817509268851 60.2906821599833  C 28.8817509268851 60.2906821599833  23.8748731872206 60.2906821599833  23.8748731872206 60.2906821599833  C 23.8748731872206 60.2906821599833  21.4163448045458 58.4737321652717  21.4163448045458 58.4737321652717  C 21.4163448045458 58.4737321652717  21.4163448045458 55.3750424460297  21.4163448045458 55.3750424460297  C 21.4163448045458 55.3750424460297  17.6797922730486 54.4468179922095  17.6797922730486 54.4468179922095  C 17.6797922730486 54.4468179922095  13.4248444040767 48.4291586075504  13.4248444040767 48.4291586075504  C 13.4248444040767 48.4291586075504  10.1399630577052 47.1434689917273  10.1399630577052 47.1434689917273  C 10.1399630577052 47.1434689917273  8.87733679019394 44.9275799764377  8.87733679019394 44.9275799764377  C 8.87733679019394 44.9275799764377  5.23317154656332 42.223879386481  5.23317154656332 42.223879386481  C 5.23317154656332 42.223879386481  0.811413296721177 41.8249403659031  0.811413296721177 41.8249403659031  C 0.811413296721177 41.8249403659031  3.26224273874039 38.6610774403291  3.26224273874039 38.6610774403291  C 3.26224273874039 38.6610774403291  7.08348361744903 38.5248061907256  7.08348361744903 38.5248061907256  C 7.08348361744903 38.5248061907256  8.15876899567537 36.8263529347996  8.15876899567537 36.8263529347996  C 8.15876899567537 36.8263529347996  8.06381539425663 30.3811332211219  8.06381539425663 30.3811332211219  C 8.06381539425663 30.3811332211219  10.1912893287426 24.5333191620554  10.1912893287426 24.5333191620554  C 10.1912893287426 24.5333191620554  13.5993537256026 22.9652123187934  13.5993537256026 22.9652123187934  C 13.5993537256026 22.9652123187934  14.3230541472255 20.6723004232932  14.3230541472255 20.6723004232932  C 14.3230541472255 20.6723004232932  17.4077630365522 16.3807435336099  17.4077630365522 16.3807435336099  C 17.4077630365522 16.3807435336099  21.7473992527347 13.5901453352104  21.7473992527347 13.5901453352104  C 21.7473992527347 13.5901453352104  24.6729967018467 8.02672344922929  24.6729967018467 8.02672344922929  C 24.6729967018467 8.02672344922929  25.8201388595246 3.15650748514339  25.8201388595246 3.15650748514339  C 25.8201388595246 3.15650748514339  34.1965862927716 4.34344981864538  34.1965862927716 4.34344981864538  Z " fill-rule="evenodd" />
    </mask>
  </defs>
  <g transform="matrix(1 0 0 1 -2073 -4258 )">
    <path d="M 34.1965862927716 4.34344981864538  C 34.1965862927716 4.34344981864538  36.4446769641944 0.0992916244764551  36.4446769641944 0.0992916244764551  C 36.4446769641944 0.0992916244764551  40.8125426294478 2.6825205300012  40.8125426294478 2.6825205300012  C 40.8125426294478 2.6825205300012  45.0315621086935 1.34548232737109  45.0315621086935 1.34548232737109  C 45.0315621086935 1.34548232737109  46.7663900697458 2.5343996065194  46.7663900697458 2.5343996065194  C 46.7663900697458 2.5343996065194  51.6988447164066 2.60154775849767  51.6988447164066 2.60154775849767  C 51.6988447164066 2.60154775849767  59.8276228761403 4.87866008882655  59.8276228761403 4.87866008882655  C 59.8276228761403 4.87866008882655  61.6882002012333 6.83780617008098  61.6882002012333 6.83780617008098  C 61.6882002012333 6.83780617008098  64.8781279461861 8.65475616479258  64.8781279461861 8.65475616479258  C 64.8781279461861 8.65475616479258  67.8370874714723 11.968714959495  67.8370874714723 11.968714959495  C 67.8370874714723 11.968714959495  70.2956158541471 13.7935647367922  70.2956158541471 13.7935647367922  C 70.2956158541471 13.7935647367922  67.767797005572 16.2839711969352  67.767797005572 16.2839711969352  C 67.767797005572 16.2839711969352  65.332365444864 18.9205236349136  65.332365444864 18.9205236349136  C 65.332365444864 18.9205236349136  65.8943881127195 20.4688810217111  65.8943881127195 20.4688810217111  C 65.8943881127195 20.4688810217111  66.0098722225533 22.175234060223  66.0098722225533 22.175234060223  C 66.0098722225533 22.175234060223  70.0287192447542 22.2700314512515  70.0287192447542 22.2700314512515  C 70.0287192447542 22.2700314512515  71.7609808922548 21.8710924306735  71.7609808922548 21.8710924306735  C 71.7609808922548 21.8710924306735  73.3572279215071 22.8704149277649  73.3572279215071 22.8704149277649  C 73.3572279215071 22.8704149277649  71.789210341325 24.8552353024229  71.789210341325 24.8552353024229  C 71.789210341325 24.8552353024229  74.4453448674924 27.9341755652003  74.4453448674924 27.9341755652003  C 74.4453448674924 27.9341755652003  77.0989130801081 30.6220765899858  77.0989130801081 30.6220765899858  C 77.0989130801081 30.6220765899858  79.8474348941422 34.045629464632  79.8474348941422 34.045629464632  C 79.8474348941422 34.045629464632  103.372831223975 40.6498477062797  103.372831223975 40.6498477062797  C 103.372831223975 40.6498477062797  109.426764892796 40.6142986846439  109.426764892796 40.6142986846439  C 109.426764892796 40.6142986846439  89.0912963079152 57.2354412449627  89.0912963079152 57.2354412449627  C 89.0912963079152 57.2354412449627  79.7191192165498 57.4783595594729  79.7191192165498 57.4783595594729  C 79.7191192165498 57.4783595594729  73.3059016504701 61.3670275372853  73.3059016504701 61.3670275372853  C 73.3059016504701 61.3670275372853  68.6916698842392 61.4697247108993  68.6916698842392 61.4697247108993  C 68.6916698842392 61.4697247108993  66.723307389968 63.2076768797541  66.723307389968 63.2076768797541  C 66.723307389968 63.2076768797541  61.8062506246184 63.2057019341078  61.8062506246184 63.2057019341078  C 61.8062506246184 63.2057019341078  58.9063163110253 61.3433281895281  58.9063163110253 61.3433281895281  C 58.9063163110253 61.3433281895281  50.4670142115173 63.6500647045535  50.4670142115173 63.6500647045535  C 50.4670142115173 63.6500647045535  48.3421065905835 65.9469264913466  48.3421065905835 65.9469264913466  C 48.3421065905835 65.9469264913466  43.543100248619 65.5124384491328  43.543100248619 65.5124384491328  C 43.543100248619 65.5124384491328  41.9494195329188 64.8765059509839  41.9494195329188 64.8765059509839  C 41.9494195329188 64.8765059509839  40.2633515293513 65.0285767657586  40.2633515293513 65.0285767657586  C 40.2633515293513 65.0285767657586  37.9895977224101 64.9732782876586  37.9895977224101 64.9732782876586  C 37.9895977224101 64.9732782876586  28.8817509268851 60.2906821599833  28.8817509268851 60.2906821599833  C 28.8817509268851 60.2906821599833  23.8748731872206 60.2906821599833  23.8748731872206 60.2906821599833  C 23.8748731872206 60.2906821599833  21.4163448045458 58.4737321652717  21.4163448045458 58.4737321652717  C 21.4163448045458 58.4737321652717  21.4163448045458 55.3750424460297  21.4163448045458 55.3750424460297  C 21.4163448045458 55.3750424460297  17.6797922730486 54.4468179922095  17.6797922730486 54.4468179922095  C 17.6797922730486 54.4468179922095  13.4248444040767 48.4291586075504  13.4248444040767 48.4291586075504  C 13.4248444040767 48.4291586075504  10.1399630577052 47.1434689917273  10.1399630577052 47.1434689917273  C 10.1399630577052 47.1434689917273  8.87733679019394 44.9275799764377  8.87733679019394 44.9275799764377  C 8.87733679019394 44.9275799764377  5.23317154656332 42.223879386481  5.23317154656332 42.223879386481  C 5.23317154656332 42.223879386481  0.811413296721177 41.8249403659031  0.811413296721177 41.8249403659031  C 0.811413296721177 41.8249403659031  3.26224273874039 38.6610774403291  3.26224273874039 38.6610774403291  C 3.26224273874039 38.6610774403291  7.08348361744903 38.5248061907256  7.08348361744903 38.5248061907256  C 7.08348361744903 38.5248061907256  8.15876899567537 36.8263529347996  8.15876899567537 36.8263529347996  C 8.15876899567537 36.8263529347996  8.06381539425663 30.3811332211219  8.06381539425663 30.3811332211219  C 8.06381539425663 30.3811332211219  10.1912893287426 24.5333191620554  10.1912893287426 24.5333191620554  C 10.1912893287426 24.5333191620554  13.5993537256026 22.9652123187934  13.5993537256026 22.9652123187934  C 13.5993537256026 22.9652123187934  14.3230541472255 20.6723004232932  14.3230541472255 20.6723004232932  C 14.3230541472255 20.6723004232932  17.4077630365522 16.3807435336099  17.4077630365522 16.3807435336099  C 17.4077630365522 16.3807435336099  21.7473992527347 13.5901453352104  21.7473992527347 13.5901453352104  C 21.7473992527347 13.5901453352104  24.6729967018467 8.02672344922929  24.6729967018467 8.02672344922929  C 24.6729967018467 8.02672344922929  25.8201388595246 3.15650748514339  25.8201388595246 3.15650748514339  C 25.8201388595246 3.15650748514339  34.1965862927716 4.34344981864538  34.1965862927716 4.34344981864538  Z " fill-rule="nonzero" fill="#f2f2f2" stroke="none" transform="matrix(1 0 0 1 2073 4258 )" />
    <path d="M 34.1965862927716 4.34344981864538  C 34.1965862927716 4.34344981864538  36.4446769641944 0.0992916244764551  36.4446769641944 0.0992916244764551  C 36.4446769641944 0.0992916244764551  40.8125426294478 2.6825205300012  40.8125426294478 2.6825205300012  C 40.8125426294478 2.6825205300012  45.0315621086935 1.34548232737109  45.0315621086935 1.34548232737109  C 45.0315621086935 1.34548232737109  46.7663900697458 2.5343996065194  46.7663900697458 2.5343996065194  C 46.7663900697458 2.5343996065194  51.6988447164066 2.60154775849767  51.6988447164066 2.60154775849767  C 51.6988447164066 2.60154775849767  59.8276228761403 4.87866008882655  59.8276228761403 4.87866008882655  C 59.8276228761403 4.87866008882655  61.6882002012333 6.83780617008098  61.6882002012333 6.83780617008098  C 61.6882002012333 6.83780617008098  64.8781279461861 8.65475616479258  64.8781279461861 8.65475616479258  C 64.8781279461861 8.65475616479258  67.8370874714723 11.968714959495  67.8370874714723 11.968714959495  C 67.8370874714723 11.968714959495  70.2956158541471 13.7935647367922  70.2956158541471 13.7935647367922  C 70.2956158541471 13.7935647367922  67.767797005572 16.2839711969352  67.767797005572 16.2839711969352  C 67.767797005572 16.2839711969352  65.332365444864 18.9205236349136  65.332365444864 18.9205236349136  C 65.332365444864 18.9205236349136  65.8943881127195 20.4688810217111  65.8943881127195 20.4688810217111  C 65.8943881127195 20.4688810217111  66.0098722225533 22.175234060223  66.0098722225533 22.175234060223  C 66.0098722225533 22.175234060223  70.0287192447542 22.2700314512515  70.0287192447542 22.2700314512515  C 70.0287192447542 22.2700314512515  71.7609808922548 21.8710924306735  71.7609808922548 21.8710924306735  C 71.7609808922548 21.8710924306735  73.3572279215071 22.8704149277649  73.3572279215071 22.8704149277649  C 73.3572279215071 22.8704149277649  71.789210341325 24.8552353024229  71.789210341325 24.8552353024229  C 71.789210341325 24.8552353024229  74.4453448674924 27.9341755652003  74.4453448674924 27.9341755652003  C 74.4453448674924 27.9341755652003  77.0989130801081 30.6220765899858  77.0989130801081 30.6220765899858  C 77.0989130801081 30.6220765899858  79.8474348941422 34.045629464632  79.8474348941422 34.045629464632  C 79.8474348941422 34.045629464632  103.372831223975 40.6498477062797  103.372831223975 40.6498477062797  C 103.372831223975 40.6498477062797  109.426764892796 40.6142986846439  109.426764892796 40.6142986846439  C 109.426764892796 40.6142986846439  89.0912963079152 57.2354412449627  89.0912963079152 57.2354412449627  C 89.0912963079152 57.2354412449627  79.7191192165498 57.4783595594729  79.7191192165498 57.4783595594729  C 79.7191192165498 57.4783595594729  73.3059016504701 61.3670275372853  73.3059016504701 61.3670275372853  C 73.3059016504701 61.3670275372853  68.6916698842392 61.4697247108993  68.6916698842392 61.4697247108993  C 68.6916698842392 61.4697247108993  66.723307389968 63.2076768797541  66.723307389968 63.2076768797541  C 66.723307389968 63.2076768797541  61.8062506246184 63.2057019341078  61.8062506246184 63.2057019341078  C 61.8062506246184 63.2057019341078  58.9063163110253 61.3433281895281  58.9063163110253 61.3433281895281  C 58.9063163110253 61.3433281895281  50.4670142115173 63.6500647045535  50.4670142115173 63.6500647045535  C 50.4670142115173 63.6500647045535  48.3421065905835 65.9469264913466  48.3421065905835 65.9469264913466  C 48.3421065905835 65.9469264913466  43.543100248619 65.5124384491328  43.543100248619 65.5124384491328  C 43.543100248619 65.5124384491328  41.9494195329188 64.8765059509839  41.9494195329188 64.8765059509839  C 41.9494195329188 64.8765059509839  40.2633515293513 65.0285767657586  40.2633515293513 65.0285767657586  C 40.2633515293513 65.0285767657586  37.9895977224101 64.9732782876586  37.9895977224101 64.9732782876586  C 37.9895977224101 64.9732782876586  28.8817509268851 60.2906821599833  28.8817509268851 60.2906821599833  C 28.8817509268851 60.2906821599833  23.8748731872206 60.2906821599833  23.8748731872206 60.2906821599833  C 23.8748731872206 60.2906821599833  21.4163448045458 58.4737321652717  21.4163448045458 58.4737321652717  C 21.4163448045458 58.4737321652717  21.4163448045458 55.3750424460297  21.4163448045458 55.3750424460297  C 21.4163448045458 55.3750424460297  17.6797922730486 54.4468179922095  17.6797922730486 54.4468179922095  C 17.6797922730486 54.4468179922095  13.4248444040767 48.4291586075504  13.4248444040767 48.4291586075504  C 13.4248444040767 48.4291586075504  10.1399630577052 47.1434689917273  10.1399630577052 47.1434689917273  C 10.1399630577052 47.1434689917273  8.87733679019394 44.9275799764377  8.87733679019394 44.9275799764377  C 8.87733679019394 44.9275799764377  5.23317154656332 42.223879386481  5.23317154656332 42.223879386481  C 5.23317154656332 42.223879386481  0.811413296721177 41.8249403659031  0.811413296721177 41.8249403659031  C 0.811413296721177 41.8249403659031  3.26224273874039 38.6610774403291  3.26224273874039 38.6610774403291  C 3.26224273874039 38.6610774403291  7.08348361744903 38.5248061907256  7.08348361744903 38.5248061907256  C 7.08348361744903 38.5248061907256  8.15876899567537 36.8263529347996  8.15876899567537 36.8263529347996  C 8.15876899567537 36.8263529347996  8.06381539425663 30.3811332211219  8.06381539425663 30.3811332211219  C 8.06381539425663 30.3811332211219  10.1912893287426 24.5333191620554  10.1912893287426 24.5333191620554  C 10.1912893287426 24.5333191620554  13.5993537256026 22.9652123187934  13.5993537256026 22.9652123187934  C 13.5993537256026 22.9652123187934  14.3230541472255 20.6723004232932  14.3230541472255 20.6723004232932  C 14.3230541472255 20.6723004232932  17.4077630365522 16.3807435336099  17.4077630365522 16.3807435336099  C 17.4077630365522 16.3807435336099  21.7473992527347 13.5901453352104  21.7473992527347 13.5901453352104  C 21.7473992527347 13.5901453352104  24.6729967018467 8.02672344922929  24.6729967018467 8.02672344922929  C 24.6729967018467 8.02672344922929  25.8201388595246 3.15650748514339  25.8201388595246 3.15650748514339  C 25.8201388595246 3.15650748514339  34.1965862927716 4.34344981864538  34.1965862927716 4.34344981864538  Z " stroke-width="2" stroke="#505050" fill="none" stroke-opacity="0.211764705882353" transform="matrix(1 0 0 1 2073 4258 )" mask="url(#clip101)" />
  </g>
</svg>