<?xml version="1.0" encoding="utf-8"?>
<svg version="1.1" xmlns:xlink="http://www.w3.org/1999/xlink" width="27px" height="14px" xmlns="http://www.w3.org/2000/svg">
  <defs>
    <mask fill="white" id="clip102">
      <path d="M 3.56992854921418 13.3214074649169  C 3.56992854921418 13.3214074649169  0.0962505138698361 8.93625677060921  0.0962505138698361 8.93625677060921  C 0.0962505138698361 8.93625677060921  8.43357333051269 1.60377906015063  8.43357333051269 1.60377906015063  C 8.43357333051269 1.60377906015063  16.1378349269642 4.0019083460998  16.1378349269642 4.0019083460998  C 16.1378349269642 4.0019083460998  20.3052575057437 0.171325049168293  20.3052575057437 0.171325049168293  C 20.3052575057437 0.171325049168293  25.8651244895616 4.48153420328971  25.8651244895616 4.48153420328971  C 25.8651244895616 4.48153420328971  23.7789355410881 9.42016500152416  23.7789355410881 9.42016500152416  C 23.7789355410881 9.42016500152416  14.4009959092922 12.342885068775  14.4009959092922 12.342885068775  C 14.4009959092922 12.342885068775  9.4741901456659 8.93625677060921  9.4741901456659 8.93625677060921  C 9.4741901456659 8.93625677060921  3.56992854921418 13.3214074649169  3.56992854921418 13.3214074649169  Z " fill-rule="evenodd" />
    </mask>
  </defs>
  <g transform="matrix(1 0 0 1 -1405 -4673 )">
    <path d="M 3.56992854921418 13.3214074649169  C 3.56992854921418 13.3214074649169  0.0962505138698361 8.93625677060921  0.0962505138698361 8.93625677060921  C 0.0962505138698361 8.93625677060921  8.43357333051269 1.60377906015063  8.43357333051269 1.60377906015063  C 8.43357333051269 1.60377906015063  16.1378349269642 4.0019083460998  16.1378349269642 4.0019083460998  C 16.1378349269642 4.0019083460998  20.3052575057437 0.171325049168293  20.3052575057437 0.171325049168293  C 20.3052575057437 0.171325049168293  25.8651244895616 4.48153420328971  25.8651244895616 4.48153420328971  C 25.8651244895616 4.48153420328971  23.7789355410881 9.42016500152416  23.7789355410881 9.42016500152416  C 23.7789355410881 9.42016500152416  14.4009959092922 12.342885068775  14.4009959092922 12.342885068775  C 14.4009959092922 12.342885068775  9.4741901456659 8.93625677060921  9.4741901456659 8.93625677060921  C 9.4741901456659 8.93625677060921  3.56992854921418 13.3214074649169  3.56992854921418 13.3214074649169  Z " fill-rule="nonzero" fill="#f2f2f2" stroke="none" transform="matrix(1 0 0 1 1405 4673 )" />
    <path d="M 3.56992854921418 13.3214074649169  C 3.56992854921418 13.3214074649169  0.0962505138698361 8.93625677060921  0.0962505138698361 8.93625677060921  C 0.0962505138698361 8.93625677060921  8.43357333051269 1.60377906015063  8.43357333051269 1.60377906015063  C 8.43357333051269 1.60377906015063  16.1378349269642 4.0019083460998  16.1378349269642 4.0019083460998  C 16.1378349269642 4.0019083460998  20.3052575057437 0.171325049168293  20.3052575057437 0.171325049168293  C 20.3052575057437 0.171325049168293  25.8651244895616 4.48153420328971  25.8651244895616 4.48153420328971  C 25.8651244895616 4.48153420328971  23.7789355410881 9.42016500152416  23.7789355410881 9.42016500152416  C 23.7789355410881 9.42016500152416  14.4009959092922 12.342885068775  14.4009959092922 12.342885068775  C 14.4009959092922 12.342885068775  9.4741901456659 8.93625677060921  9.4741901456659 8.93625677060921  C 9.4741901456659 8.93625677060921  3.56992854921418 13.3214074649169  3.56992854921418 13.3214074649169  Z " stroke-width="2" stroke="#505050" fill="none" stroke-opacity="0.211764705882353" transform="matrix(1 0 0 1 1405 4673 )" mask="url(#clip102)" />
  </g>
</svg>