<?xml version="1.0" encoding="utf-8"?>
<svg version="1.1" xmlns:xlink="http://www.w3.org/1999/xlink" width="81px" height="141px" xmlns="http://www.w3.org/2000/svg">
  <defs>
    <mask fill="white" id="clip103">
      <path d="M 63.0231068805217 7.69644279651625  C 63.0231068805217 7.69644279651625  60.0127510938291 18.771073255934  60.0127510938291 18.771073255934  C 60.0127510938291 18.771073255934  58.9763575612052 29.4733806598492  58.9763575612052 29.4733806598492  C 58.9763575612052 29.4733806598492  69.8572226689984 39.3557851649448  69.8572226689984 39.3557851649448  C 69.8572226689984 39.3557851649448  63.3018435274378 50.2046452609196  63.3018435274378 50.2046452609196  C 63.3018435274378 50.2046452609196  71.5651181237385 65.9630205408887  71.5651181237385 65.9630205408887  C 71.5651181237385 65.9630205408887  66.780983674853 78.8150820556751  66.780983674853 78.8150820556751  C 66.780983674853 78.8150820556751  73.1767227368164 88.4301269198513  73.1767227368164 88.4301269198513  C 73.1767227368164 88.4301269198513  70.2727936698553 96.6390581169698  70.2727936698553 96.6390581169698  C 70.2727936698553 96.6390581169698  80.7913011366576 105.067818352178  80.7913011366576 105.067818352178  C 80.7913011366576 105.067818352178  78.1179632957816 111.217090093324  78.1179632957816 111.217090093324  C 78.1179632957816 111.217090093324  71.5169727029075 118.053575133723  71.5169727029075 118.053575133723  C 71.5169727029075 118.053575133723  56.3055536898465 132.720726990384  56.3055536898465 132.720726990384  C 56.3055536898465 132.720726990384  43.4127167852232 133.613906235233  43.4127167852232 133.613906235233  C 43.4127167852232 133.613906235233  29.0768040039252 137.709459845762  29.0768040039252 137.709459845762  C 29.0768040039252 137.709459845762  17.5168350654638 140.044400709792  17.5168350654638 140.044400709792  C 17.5168350654638 140.044400709792  13.4042025386942 133.974346640028  13.4042025386942 133.974346640028  C 13.4042025386942 133.974346640028  6.52447529890404 130.272900944633  6.52447529890404 130.272900944633  C 6.52447529890404 130.272900944633  8.10567227777304 118.928930402511  8.10567227777304 118.928930402511  C 8.10567227777304 118.928930402511  4.65440579504942 108.218701231458  4.65440579504942 108.218701231458  C 4.65440579504942 108.218701231458  8.04232303983729 101.130700084416  8.04232303983729 101.130700084416  C 8.04232303983729 101.130700084416  14.4836735531142 93.323798569569  14.4836735531142 93.323798569569  C 14.4836735531142 93.323798569569  30.7390880073516 79.4210972417591  30.7390880073516 79.4210972417591  C 30.7390880073516 79.4210972417591  35.4801449744409 76.6762049283197  35.4801449744409 76.6762049283197  C 35.4801449744409 76.6762049283197  34.7427598448719 69.6189160752387  34.7427598448719 69.6189160752387  C 34.7427598448719 69.6189160752387  24.8602787269415 63.2319913199414  24.8602787269415 63.2319913199414  C 24.8602787269415 63.2319913199414  22.4631435634638 57.884798501553  22.4631435634638 57.884798501553  C 22.4631435634638 57.884798501553  22.2756298191749 35.8622858569311  22.2756298191749 35.8622858569311  C 22.2756298191749 35.8622858569311  11.1844452414357 25.6570693409475  11.1844452414357 25.6570693409475  C 11.1844452414357 25.6570693409475  1.71500115484444 18.1274296759429  1.71500115484444 18.1274296759429  C 1.71500115484444 18.1274296759429  5.97460391362441 13.9922672297225  5.97460391362441 13.9922672297225  C 5.97460391362441 13.9922672297225  13.8704529298992 22.2170419611177  13.8704529298992 22.2170419611177  C 13.8704529298992 22.2170419611177  23.1473153331666 21.4565523158358  23.1473153331666 21.4565523158358  C 23.1473153331666 21.4565523158358  30.7745635805951 25.1579980112313  30.7745635805951 25.1579980112313  C 30.7745635805951 25.1579980112313  37.5503980701715 18.3472587140321  37.5503980701715 18.3472587140321  C 37.5503980701715 18.3472587140321  42.8755152475306 6.75177206526759  42.8755152475306 6.75177206526759  C 42.8755152475306 6.75177206526759  53.9058845568516 1.25604611303507  53.9058845568516 1.25604611303507  C 53.9058845568516 1.25604611303507  63.0231068805217 7.69644279651625  63.0231068805217 7.69644279651625  Z " fill-rule="evenodd" />
    </mask>
  </defs>
  <g transform="matrix(1 0 0 1 -1986 -3786 )">
    <path d="M 63.0231068805217 7.69644279651625  C 63.0231068805217 7.69644279651625  60.0127510938291 18.771073255934  60.0127510938291 18.771073255934  C 60.0127510938291 18.771073255934  58.9763575612052 29.4733806598492  58.9763575612052 29.4733806598492  C 58.9763575612052 29.4733806598492  69.8572226689984 39.3557851649448  69.8572226689984 39.3557851649448  C 69.8572226689984 39.3557851649448  63.3018435274378 50.2046452609196  63.3018435274378 50.2046452609196  C 63.3018435274378 50.2046452609196  71.5651181237385 65.9630205408887  71.5651181237385 65.9630205408887  C 71.5651181237385 65.9630205408887  66.780983674853 78.8150820556751  66.780983674853 78.8150820556751  C 66.780983674853 78.8150820556751  73.1767227368164 88.4301269198513  73.1767227368164 88.4301269198513  C 73.1767227368164 88.4301269198513  70.2727936698553 96.6390581169698  70.2727936698553 96.6390581169698  C 70.2727936698553 96.6390581169698  80.7913011366576 105.067818352178  80.7913011366576 105.067818352178  C 80.7913011366576 105.067818352178  78.1179632957816 111.217090093324  78.1179632957816 111.217090093324  C 78.1179632957816 111.217090093324  71.5169727029075 118.053575133723  71.5169727029075 118.053575133723  C 71.5169727029075 118.053575133723  56.3055536898465 132.720726990384  56.3055536898465 132.720726990384  C 56.3055536898465 132.720726990384  43.4127167852232 133.613906235233  43.4127167852232 133.613906235233  C 43.4127167852232 133.613906235233  29.0768040039252 137.709459845762  29.0768040039252 137.709459845762  C 29.0768040039252 137.709459845762  17.5168350654638 140.044400709792  17.5168350654638 140.044400709792  C 17.5168350654638 140.044400709792  13.4042025386942 133.974346640028  13.4042025386942 133.974346640028  C 13.4042025386942 133.974346640028  6.52447529890404 130.272900944633  6.52447529890404 130.272900944633  C 6.52447529890404 130.272900944633  8.10567227777304 118.928930402511  8.10567227777304 118.928930402511  C 8.10567227777304 118.928930402511  4.65440579504942 108.218701231458  4.65440579504942 108.218701231458  C 4.65440579504942 108.218701231458  8.04232303983729 101.130700084416  8.04232303983729 101.130700084416  C 8.04232303983729 101.130700084416  14.4836735531142 93.323798569569  14.4836735531142 93.323798569569  C 14.4836735531142 93.323798569569  30.7390880073516 79.4210972417591  30.7390880073516 79.4210972417591  C 30.7390880073516 79.4210972417591  35.4801449744409 76.6762049283197  35.4801449744409 76.6762049283197  C 35.4801449744409 76.6762049283197  34.7427598448719 69.6189160752387  34.7427598448719 69.6189160752387  C 34.7427598448719 69.6189160752387  24.8602787269415 63.2319913199414  24.8602787269415 63.2319913199414  C 24.8602787269415 63.2319913199414  22.4631435634638 57.884798501553  22.4631435634638 57.884798501553  C 22.4631435634638 57.884798501553  22.2756298191749 35.8622858569311  22.2756298191749 35.8622858569311  C 22.2756298191749 35.8622858569311  11.1844452414357 25.6570693409475  11.1844452414357 25.6570693409475  C 11.1844452414357 25.6570693409475  1.71500115484444 18.1274296759429  1.71500115484444 18.1274296759429  C 1.71500115484444 18.1274296759429  5.97460391362441 13.9922672297225  5.97460391362441 13.9922672297225  C 5.97460391362441 13.9922672297225  13.8704529298992 22.2170419611177  13.8704529298992 22.2170419611177  C 13.8704529298992 22.2170419611177  23.1473153331666 21.4565523158358  23.1473153331666 21.4565523158358  C 23.1473153331666 21.4565523158358  30.7745635805951 25.1579980112313  30.7745635805951 25.1579980112313  C 30.7745635805951 25.1579980112313  37.5503980701715 18.3472587140321  37.5503980701715 18.3472587140321  C 37.5503980701715 18.3472587140321  42.8755152475306 6.75177206526759  42.8755152475306 6.75177206526759  C 42.8755152475306 6.75177206526759  53.9058845568516 1.25604611303507  53.9058845568516 1.25604611303507  C 53.9058845568516 1.25604611303507  63.0231068805217 7.69644279651625  63.0231068805217 7.69644279651625  Z " fill-rule="nonzero" fill="#55efc4" stroke="none" transform="matrix(1 0 0 1 1986 3786 )" />
    <path d="M 63.0231068805217 7.69644279651625  C 63.0231068805217 7.69644279651625  60.0127510938291 18.771073255934  60.0127510938291 18.771073255934  C 60.0127510938291 18.771073255934  58.9763575612052 29.4733806598492  58.9763575612052 29.4733806598492  C 58.9763575612052 29.4733806598492  69.8572226689984 39.3557851649448  69.8572226689984 39.3557851649448  C 69.8572226689984 39.3557851649448  63.3018435274378 50.2046452609196  63.3018435274378 50.2046452609196  C 63.3018435274378 50.2046452609196  71.5651181237385 65.9630205408887  71.5651181237385 65.9630205408887  C 71.5651181237385 65.9630205408887  66.780983674853 78.8150820556751  66.780983674853 78.8150820556751  C 66.780983674853 78.8150820556751  73.1767227368164 88.4301269198513  73.1767227368164 88.4301269198513  C 73.1767227368164 88.4301269198513  70.2727936698553 96.6390581169698  70.2727936698553 96.6390581169698  C 70.2727936698553 96.6390581169698  80.7913011366576 105.067818352178  80.7913011366576 105.067818352178  C 80.7913011366576 105.067818352178  78.1179632957816 111.217090093324  78.1179632957816 111.217090093324  C 78.1179632957816 111.217090093324  71.5169727029075 118.053575133723  71.5169727029075 118.053575133723  C 71.5169727029075 118.053575133723  56.3055536898465 132.720726990384  56.3055536898465 132.720726990384  C 56.3055536898465 132.720726990384  43.4127167852232 133.613906235233  43.4127167852232 133.613906235233  C 43.4127167852232 133.613906235233  29.0768040039252 137.709459845762  29.0768040039252 137.709459845762  C 29.0768040039252 137.709459845762  17.5168350654638 140.044400709792  17.5168350654638 140.044400709792  C 17.5168350654638 140.044400709792  13.4042025386942 133.974346640028  13.4042025386942 133.974346640028  C 13.4042025386942 133.974346640028  6.52447529890404 130.272900944633  6.52447529890404 130.272900944633  C 6.52447529890404 130.272900944633  8.10567227777304 118.928930402511  8.10567227777304 118.928930402511  C 8.10567227777304 118.928930402511  4.65440579504942 108.218701231458  4.65440579504942 108.218701231458  C 4.65440579504942 108.218701231458  8.04232303983729 101.130700084416  8.04232303983729 101.130700084416  C 8.04232303983729 101.130700084416  14.4836735531142 93.323798569569  14.4836735531142 93.323798569569  C 14.4836735531142 93.323798569569  30.7390880073516 79.4210972417591  30.7390880073516 79.4210972417591  C 30.7390880073516 79.4210972417591  35.4801449744409 76.6762049283197  35.4801449744409 76.6762049283197  C 35.4801449744409 76.6762049283197  34.7427598448719 69.6189160752387  34.7427598448719 69.6189160752387  C 34.7427598448719 69.6189160752387  24.8602787269415 63.2319913199414  24.8602787269415 63.2319913199414  C 24.8602787269415 63.2319913199414  22.4631435634638 57.884798501553  22.4631435634638 57.884798501553  C 22.4631435634638 57.884798501553  22.2756298191749 35.8622858569311  22.2756298191749 35.8622858569311  C 22.2756298191749 35.8622858569311  11.1844452414357 25.6570693409475  11.1844452414357 25.6570693409475  C 11.1844452414357 25.6570693409475  1.71500115484444 18.1274296759429  1.71500115484444 18.1274296759429  C 1.71500115484444 18.1274296759429  5.97460391362441 13.9922672297225  5.97460391362441 13.9922672297225  C 5.97460391362441 13.9922672297225  13.8704529298992 22.2170419611177  13.8704529298992 22.2170419611177  C 13.8704529298992 22.2170419611177  23.1473153331666 21.4565523158358  23.1473153331666 21.4565523158358  C 23.1473153331666 21.4565523158358  30.7745635805951 25.1579980112313  30.7745635805951 25.1579980112313  C 30.7745635805951 25.1579980112313  37.5503980701715 18.3472587140321  37.5503980701715 18.3472587140321  C 37.5503980701715 18.3472587140321  42.8755152475306 6.75177206526759  42.8755152475306 6.75177206526759  C 42.8755152475306 6.75177206526759  53.9058845568516 1.25604611303507  53.9058845568516 1.25604611303507  C 53.9058845568516 1.25604611303507  63.0231068805217 7.69644279651625  63.0231068805217 7.69644279651625  Z " stroke-width="2" stroke="#505050" fill="none" stroke-opacity="0.211764705882353" transform="matrix(1 0 0 1 1986 3786 )" mask="url(#clip103)" />
  </g>
</svg>