<?xml version="1.0" encoding="utf-8"?>
<svg version="1.1" xmlns:xlink="http://www.w3.org/1999/xlink" width="24px" height="17px" xmlns="http://www.w3.org/2000/svg">
  <defs>
    <mask fill="white" id="clip107">
      <path d="M 22.0639099772213 0.800308463494813  C 22.0639099772213 0.800308463494813  23.5327171058136 0.515252534572359  23.5327171058136 0.515252534572359  C 23.5327171058136 0.515252534572359  22.6483834020936 3.48493967468932  22.6483834020936 3.48493967468932  C 22.6483834020936 3.48493967468932  22.0613687884176 5.36012309315098  22.0613687884176 5.36012309315098  C 22.0613687884176 5.36012309315098  15.6868164939052 6.88325775813911  15.6868164939052 6.88325775813911  C 15.6868164939052 6.88325775813911  11.1330061575091 8.18728226880671  11.1330061575091 8.18728226880671  C 11.1330061575091 8.18728226880671  10.2181781881435 5.87918015775588  10.2181781881435 5.87918015775588  C 10.2181781881435 5.87918015775588  13.7783837022567 3.06586491351219  13.7783837022567 3.06586491351219  C 13.7783837022567 3.06586491351219  17.8836543949824 2.72549962524663  17.8836543949824 2.72549962524663  C 17.8836543949824 2.72549962524663  22.0639099772213 0.800308463494813  22.0639099772213 0.800308463494813  Z M 10.4760890319275 8.6797648868421  C 10.4760890319275 8.6797648868421  8.70488043568436 9.70298803468999  8.70488043568436 9.70298803468999  C 8.70488043568436 9.70298803468999  3.6212520534987 8.9350388530411  3.6212520534987 8.9350388530411  C 3.6212520534987 8.9350388530411  0.871685767795078 11.0708310369073  0.871685767795078 11.0708310369073  C 0.871685767795078 11.0708310369073  1.5603479336226 15.3562261528998  1.5603479336226 15.3562261528998  C 1.5603479336226 15.3562261528998  5.48902582428603 16.1284299006521  5.48902582428603 16.1284299006521  C 5.48902582428603 16.1284299006521  11.7517658114315 15.2711348308336  11.7517658114315 15.2711348308336  C 11.7517658114315 15.2711348308336  12.9283362275876 10.4730644993911  12.9283362275876 10.4730644993911  C 12.9283362275876 10.4730644993911  10.4760890319275 8.6797648868421  10.4760890319275 8.6797648868421  Z " fill-rule="evenodd" />
    </mask>
  </defs>
  <g transform="matrix(1 0 0 1 -3102 -4433 )">
    <path d="M 22.0639099772213 0.800308463494813  C 22.0639099772213 0.800308463494813  23.5327171058136 0.515252534572359  23.5327171058136 0.515252534572359  C 23.5327171058136 0.515252534572359  22.6483834020936 3.48493967468932  22.6483834020936 3.48493967468932  C 22.6483834020936 3.48493967468932  22.0613687884176 5.36012309315098  22.0613687884176 5.36012309315098  C 22.0613687884176 5.36012309315098  15.6868164939052 6.88325775813911  15.6868164939052 6.88325775813911  C 15.6868164939052 6.88325775813911  11.1330061575091 8.18728226880671  11.1330061575091 8.18728226880671  C 11.1330061575091 8.18728226880671  10.2181781881435 5.87918015775588  10.2181781881435 5.87918015775588  C 10.2181781881435 5.87918015775588  13.7783837022567 3.06586491351219  13.7783837022567 3.06586491351219  C 13.7783837022567 3.06586491351219  17.8836543949824 2.72549962524663  17.8836543949824 2.72549962524663  C 17.8836543949824 2.72549962524663  22.0639099772213 0.800308463494813  22.0639099772213 0.800308463494813  Z M 10.4760890319275 8.6797648868421  C 10.4760890319275 8.6797648868421  8.70488043568436 9.70298803468999  8.70488043568436 9.70298803468999  C 8.70488043568436 9.70298803468999  3.6212520534987 8.9350388530411  3.6212520534987 8.9350388530411  C 3.6212520534987 8.9350388530411  0.871685767795078 11.0708310369073  0.871685767795078 11.0708310369073  C 0.871685767795078 11.0708310369073  1.5603479336226 15.3562261528998  1.5603479336226 15.3562261528998  C 1.5603479336226 15.3562261528998  5.48902582428603 16.1284299006521  5.48902582428603 16.1284299006521  C 5.48902582428603 16.1284299006521  11.7517658114315 15.2711348308336  11.7517658114315 15.2711348308336  C 11.7517658114315 15.2711348308336  12.9283362275876 10.4730644993911  12.9283362275876 10.4730644993911  C 12.9283362275876 10.4730644993911  10.4760890319275 8.6797648868421  10.4760890319275 8.6797648868421  Z " fill-rule="nonzero" fill="#f2f2f2" stroke="none" transform="matrix(1 0 0 1 3102 4433 )" />
    <path d="M 22.0639099772213 0.800308463494813  C 22.0639099772213 0.800308463494813  23.5327171058136 0.515252534572359  23.5327171058136 0.515252534572359  C 23.5327171058136 0.515252534572359  22.6483834020936 3.48493967468932  22.6483834020936 3.48493967468932  C 22.6483834020936 3.48493967468932  22.0613687884176 5.36012309315098  22.0613687884176 5.36012309315098  C 22.0613687884176 5.36012309315098  15.6868164939052 6.88325775813911  15.6868164939052 6.88325775813911  C 15.6868164939052 6.88325775813911  11.1330061575091 8.18728226880671  11.1330061575091 8.18728226880671  C 11.1330061575091 8.18728226880671  10.2181781881435 5.87918015775588  10.2181781881435 5.87918015775588  C 10.2181781881435 5.87918015775588  13.7783837022567 3.06586491351219  13.7783837022567 3.06586491351219  C 13.7783837022567 3.06586491351219  17.8836543949824 2.72549962524663  17.8836543949824 2.72549962524663  C 17.8836543949824 2.72549962524663  22.0639099772213 0.800308463494813  22.0639099772213 0.800308463494813  Z " stroke-width="2" stroke="#505050" fill="none" stroke-opacity="0.211764705882353" transform="matrix(1 0 0 1 3102 4433 )" mask="url(#clip107)" />
    <path d="M 10.4760890319275 8.6797648868421  C 10.4760890319275 8.6797648868421  8.70488043568436 9.70298803468999  8.70488043568436 9.70298803468999  C 8.70488043568436 9.70298803468999  3.6212520534987 8.9350388530411  3.6212520534987 8.9350388530411  C 3.6212520534987 8.9350388530411  0.871685767795078 11.0708310369073  0.871685767795078 11.0708310369073  C 0.871685767795078 11.0708310369073  1.5603479336226 15.3562261528998  1.5603479336226 15.3562261528998  C 1.5603479336226 15.3562261528998  5.48902582428603 16.1284299006521  5.48902582428603 16.1284299006521  C 5.48902582428603 16.1284299006521  11.7517658114315 15.2711348308336  11.7517658114315 15.2711348308336  C 11.7517658114315 15.2711348308336  12.9283362275876 10.4730644993911  12.9283362275876 10.4730644993911  C 12.9283362275876 10.4730644993911  10.4760890319275 8.6797648868421  10.4760890319275 8.6797648868421  Z " stroke-width="2" stroke="#505050" fill="none" stroke-opacity="0.211764705882353" transform="matrix(1 0 0 1 3102 4433 )" mask="url(#clip107)" />
  </g>
</svg>