<?xml version="1.0" encoding="utf-8"?>
<svg version="1.1" xmlns:xlink="http://www.w3.org/1999/xlink" width="42px" height="38px" xmlns="http://www.w3.org/2000/svg">
  <defs>
    <mask fill="white" id="clip108">
      <path d="M 23.7493023297407 33.958048919056  C 23.7493023297407 33.958048919056  16.5567494303403 37.0581933768161  16.5567494303403 37.0581933768161  C 16.5567494303403 37.0581933768161  9.31516236643708 31.3910246957584  9.31516236643708 31.3910246957584  C 9.31516236643708 31.3910246957584  4.65752237011217 26.7619316410499  4.65752237011217 26.7619316410499  C 4.65752237011217 26.7619316410499  0.376917451741124 20.972044717342  0.376917451741124 20.972044717342  C 0.376917451741124 20.972044717342  0.603138498513485 17.6496148713599  0.603138498513485 17.6496148713599  C 0.603138498513485 17.6496148713599  2.14395518375223 15.8591355933544  2.14395518375223 15.8591355933544  C 2.14395518375223 15.8591355933544  3.85569443766336 11.7792569688655  3.85569443766336 11.7792569688655  C 3.85569443766336 11.7792569688655  5.27585989795682 7.62494268899868  5.27585989795682 7.62494268899868  C 5.27585989795682 7.62494268899868  7.65118088906682 7.30104699938205  7.65118088906682 7.30104699938205  C 7.65118088906682 7.30104699938205  17.9065350094156 7.35737668453287  17.9065350094156 7.35737668453287  C 17.9065350094156 7.35737668453287  17.8462093969429 0.611896887732305  17.8462093969429 0.611896887732305  C 17.8462093969429 0.611896887732305  23.0203678456961 0.243742159782904  23.0203678456961 0.243742159782904  C 23.0203678456961 0.243742159782904  27.3034863312536 0.994134036969661  27.3034863312536 0.994134036969661  C 27.3034863312536 0.994134036969661  31.4734942934249 0.271907002358148  31.4734942934249 0.271907002358148  C 31.4734942934249 0.271907002358148  32.3532428086508 0.577696721748033  32.3532428086508 0.577696721748033  C 32.3532428086508 0.577696721748033  31.8404751026336 3.02401447686578  31.8404751026336 3.02401447686578  C 31.8404751026336 3.02401447686578  33.8111117767398 5.9209697131891  33.8111117767398 5.9209697131891  C 33.8111117767398 5.9209697131891  39.0544129274867 5.46429690857417  39.0544129274867 5.46429690857417  C 39.0544129274867 5.46429690857417  40.8113963907522 6.5768081903013  40.8113963907522 6.5768081903013  C 40.8113963907522 6.5768081903013  37.7599258265114 13.0667926294538  37.7599258265114 13.0667926294538  C 37.7599258265114 13.0667926294538  41.095429482811 16.3801851809987  41.095429482811 16.3801851809987  C 41.095429482811 16.3801851809987  41.8645810418374 22.2173331140671  41.8645810418374 22.2173331140671  C 41.8645810418374 22.2173331140671  40.9747782578657 25.9451512063641  40.9747782578657 25.9451512063641  C 40.9747782578657 25.9451512063641  38.8105969104099 28.5946581829183  38.8105969104099 28.5946581829183  C 38.8105969104099 28.5946581829183  32.5895181241689 28.3572687954973  32.5895181241689 28.3572687954973  C 32.5895181241689 28.3572687954973  28.8241944790014 25.6655145550799  28.8241944790014 25.6655145550799  C 28.8241944790014 25.6655145550799  28.2636689964432 28.1500560251214  28.2636689964432 28.1500560251214  C 28.2636689964432 28.1500560251214  23.5079998798501 28.8380828937483  23.5079998798501 28.8380828937483  C 23.5079998798501 28.8380828937483  19.2663748572364 30.2483367969864  19.2663748572364 30.2483367969864  C 19.2663748572364 30.2483367969864  23.7493023297407 33.958048919056  23.7493023297407 33.958048919056  Z " fill-rule="evenodd" />
    </mask>
  </defs>
  <g transform="matrix(1 0 0 1 -1901 -4329 )">
    <path d="M 23.7493023297407 33.958048919056  C 23.7493023297407 33.958048919056  16.5567494303403 37.0581933768161  16.5567494303403 37.0581933768161  C 16.5567494303403 37.0581933768161  9.31516236643708 31.3910246957584  9.31516236643708 31.3910246957584  C 9.31516236643708 31.3910246957584  4.65752237011217 26.7619316410499  4.65752237011217 26.7619316410499  C 4.65752237011217 26.7619316410499  0.376917451741124 20.972044717342  0.376917451741124 20.972044717342  C 0.376917451741124 20.972044717342  0.603138498513485 17.6496148713599  0.603138498513485 17.6496148713599  C 0.603138498513485 17.6496148713599  2.14395518375223 15.8591355933544  2.14395518375223 15.8591355933544  C 2.14395518375223 15.8591355933544  3.85569443766336 11.7792569688655  3.85569443766336 11.7792569688655  C 3.85569443766336 11.7792569688655  5.27585989795682 7.62494268899868  5.27585989795682 7.62494268899868  C 5.27585989795682 7.62494268899868  7.65118088906682 7.30104699938205  7.65118088906682 7.30104699938205  C 7.65118088906682 7.30104699938205  17.9065350094156 7.35737668453287  17.9065350094156 7.35737668453287  C 17.9065350094156 7.35737668453287  17.8462093969429 0.611896887732305  17.8462093969429 0.611896887732305  C 17.8462093969429 0.611896887732305  23.0203678456961 0.243742159782904  23.0203678456961 0.243742159782904  C 23.0203678456961 0.243742159782904  27.3034863312536 0.994134036969661  27.3034863312536 0.994134036969661  C 27.3034863312536 0.994134036969661  31.4734942934249 0.271907002358148  31.4734942934249 0.271907002358148  C 31.4734942934249 0.271907002358148  32.3532428086508 0.577696721748033  32.3532428086508 0.577696721748033  C 32.3532428086508 0.577696721748033  31.8404751026336 3.02401447686578  31.8404751026336 3.02401447686578  C 31.8404751026336 3.02401447686578  33.8111117767398 5.9209697131891  33.8111117767398 5.9209697131891  C 33.8111117767398 5.9209697131891  39.0544129274867 5.46429690857417  39.0544129274867 5.46429690857417  C 39.0544129274867 5.46429690857417  40.8113963907522 6.5768081903013  40.8113963907522 6.5768081903013  C 40.8113963907522 6.5768081903013  37.7599258265114 13.0667926294538  37.7599258265114 13.0667926294538  C 37.7599258265114 13.0667926294538  41.095429482811 16.3801851809987  41.095429482811 16.3801851809987  C 41.095429482811 16.3801851809987  41.8645810418374 22.2173331140671  41.8645810418374 22.2173331140671  C 41.8645810418374 22.2173331140671  40.9747782578657 25.9451512063641  40.9747782578657 25.9451512063641  C 40.9747782578657 25.9451512063641  38.8105969104099 28.5946581829183  38.8105969104099 28.5946581829183  C 38.8105969104099 28.5946581829183  32.5895181241689 28.3572687954973  32.5895181241689 28.3572687954973  C 32.5895181241689 28.3572687954973  28.8241944790014 25.6655145550799  28.8241944790014 25.6655145550799  C 28.8241944790014 25.6655145550799  28.2636689964432 28.1500560251214  28.2636689964432 28.1500560251214  C 28.2636689964432 28.1500560251214  23.5079998798501 28.8380828937483  23.5079998798501 28.8380828937483  C 23.5079998798501 28.8380828937483  19.2663748572364 30.2483367969864  19.2663748572364 30.2483367969864  C 19.2663748572364 30.2483367969864  23.7493023297407 33.958048919056  23.7493023297407 33.958048919056  Z " fill-rule="nonzero" fill="#f2f2f2" stroke="none" transform="matrix(1 0 0 1 1901 4329 )" />
    <path d="M 23.7493023297407 33.958048919056  C 23.7493023297407 33.958048919056  16.5567494303403 37.0581933768161  16.5567494303403 37.0581933768161  C 16.5567494303403 37.0581933768161  9.31516236643708 31.3910246957584  9.31516236643708 31.3910246957584  C 9.31516236643708 31.3910246957584  4.65752237011217 26.7619316410499  4.65752237011217 26.7619316410499  C 4.65752237011217 26.7619316410499  0.376917451741124 20.972044717342  0.376917451741124 20.972044717342  C 0.376917451741124 20.972044717342  0.603138498513485 17.6496148713599  0.603138498513485 17.6496148713599  C 0.603138498513485 17.6496148713599  2.14395518375223 15.8591355933544  2.14395518375223 15.8591355933544  C 2.14395518375223 15.8591355933544  3.85569443766336 11.7792569688655  3.85569443766336 11.7792569688655  C 3.85569443766336 11.7792569688655  5.27585989795682 7.62494268899868  5.27585989795682 7.62494268899868  C 5.27585989795682 7.62494268899868  7.65118088906682 7.30104699938205  7.65118088906682 7.30104699938205  C 7.65118088906682 7.30104699938205  17.9065350094156 7.35737668453287  17.9065350094156 7.35737668453287  C 17.9065350094156 7.35737668453287  17.8462093969429 0.611896887732305  17.8462093969429 0.611896887732305  C 17.8462093969429 0.611896887732305  23.0203678456961 0.243742159782904  23.0203678456961 0.243742159782904  C 23.0203678456961 0.243742159782904  27.3034863312536 0.994134036969661  27.3034863312536 0.994134036969661  C 27.3034863312536 0.994134036969661  31.4734942934249 0.271907002358148  31.4734942934249 0.271907002358148  C 31.4734942934249 0.271907002358148  32.3532428086508 0.577696721748033  32.3532428086508 0.577696721748033  C 32.3532428086508 0.577696721748033  31.8404751026336 3.02401447686578  31.8404751026336 3.02401447686578  C 31.8404751026336 3.02401447686578  33.8111117767398 5.9209697131891  33.8111117767398 5.9209697131891  C 33.8111117767398 5.9209697131891  39.0544129274867 5.46429690857417  39.0544129274867 5.46429690857417  C 39.0544129274867 5.46429690857417  40.8113963907522 6.5768081903013  40.8113963907522 6.5768081903013  C 40.8113963907522 6.5768081903013  37.7599258265114 13.0667926294538  37.7599258265114 13.0667926294538  C 37.7599258265114 13.0667926294538  41.095429482811 16.3801851809987  41.095429482811 16.3801851809987  C 41.095429482811 16.3801851809987  41.8645810418374 22.2173331140671  41.8645810418374 22.2173331140671  C 41.8645810418374 22.2173331140671  40.9747782578657 25.9451512063641  40.9747782578657 25.9451512063641  C 40.9747782578657 25.9451512063641  38.8105969104099 28.5946581829183  38.8105969104099 28.5946581829183  C 38.8105969104099 28.5946581829183  32.5895181241689 28.3572687954973  32.5895181241689 28.3572687954973  C 32.5895181241689 28.3572687954973  28.8241944790014 25.6655145550799  28.8241944790014 25.6655145550799  C 28.8241944790014 25.6655145550799  28.2636689964432 28.1500560251214  28.2636689964432 28.1500560251214  C 28.2636689964432 28.1500560251214  23.5079998798501 28.8380828937483  23.5079998798501 28.8380828937483  C 23.5079998798501 28.8380828937483  19.2663748572364 30.2483367969864  19.2663748572364 30.2483367969864  C 19.2663748572364 30.2483367969864  23.7493023297407 33.958048919056  23.7493023297407 33.958048919056  Z " stroke-width="2" stroke="#505050" fill="none" stroke-opacity="0.211764705882353" transform="matrix(1 0 0 1 1901 4329 )" mask="url(#clip108)" />
  </g>
</svg>