<?xml version="1.0" encoding="utf-8"?>
<svg version="1.1" xmlns:xlink="http://www.w3.org/1999/xlink" width="69px" height="86px" xmlns="http://www.w3.org/2000/svg">
  <defs>
    <mask fill="white" id="clip109">
      <path d="M 6.0861264962395 36.3027168191183  C 6.0861264962395 36.3027168191183  15.6646583687515 42.3319205573482  15.6646583687515 42.3319205573482  C 15.6646583687515 42.3319205573482  11.8065413928799 50.3845535620358  11.8065413928799 50.3845535620358  C 11.8065413928799 50.3845535620358  4.50232198917854 48.4182907788527  4.50232198917854 48.4182907788527  C 4.50232198917854 48.4182907788527  0.0512409271950028 48.5487061675332  0.0512409271950028 48.5487061675332  C 0.0512409271950028 48.5487061675332  1.53493461452285 41.9326488289262  1.53493461452285 41.9326488289262  C 1.53493461452285 41.9326488289262  0.0512409271950028 36.7080077193254  0.0512409271950028 36.7080077193254  C 0.0512409271950028 36.7080077193254  6.0861264962395 36.3027168191183  6.0861264962395 36.3027168191183  Z M 24.2344212529999 1.57811478998634  C 24.2344212529999 1.57811478998634  32.9209600729262 0.67523902219818  32.9209600729262 0.67523902219818  C 32.9209600729262 0.67523902219818  25.2278286180448 12.1698507414388  25.2278286180448 12.1698507414388  C 25.2278286180448 12.1698507414388  32.5590209554292 10.7332750753581  32.5590209554292 10.7332750753581  C 32.5590209554292 10.7332750753581  42.3095380823546 10.7874476214254  42.3095380823546 10.7874476214254  C 42.3095380823546 10.7874476214254  40.4331019483812 19.2504031514929  40.4331019483812 19.2504031514929  C 40.4331019483812 19.2504031514929  32.096971018199 28.3493845002025  32.096971018199 28.3493845002025  C 32.096971018199 28.3493845002025  41.4034068165645 28.9874167094393  41.4034068165645 28.9874167094393  C 41.4034068165645 28.9874167094393  41.9758353499106 30.0387653812638  41.9758353499106 30.0387653812638  C 41.9758353499106 30.0387653812638  48.3854947569306 41.6497477550193  48.3854947569306 41.6497477550193  C 48.3854947569306 41.6497477550193  53.3114604766228 44.6603211942589  53.3114604766228 44.6603211942589  C 53.3114604766228 44.6603211942589  57.7420059858403 55.5128879230725  57.7420059858403 55.5128879230725  C 57.7420059858403 55.5128879230725  59.7929943183229 59.2066530086236  59.7929943183229 59.2066530086236  C 59.7929943183229 59.2066530086236  68.5129034114933 60.9762895134883  68.5129034114933 60.9762895134883  C 68.5129034114933 60.9762895134883  67.6375754748518 66.861033128872  67.6375754748518 66.861033128872  C 67.6375754748518 66.861033128872  63.9719793061597 69.5315390109298  63.9719793061597 69.5315390109298  C 63.9719793061597 69.5315390109298  66.8469566933692 74.200409925692  66.8469566933692 74.200409925692  C 66.8469566933692 74.200409925692  60.3731236839563 78.8712872310494  60.3731236839563 78.8712872310494  C 60.3731236839563 78.8712872310494  50.7445163808998 78.7890252166509  50.7445163808998 78.7890252166509  C 50.7445163808998 78.7890252166509  36.6276273471499 81.2207706178936  36.6276273471499 81.2207706178936  C 36.6276273471499 81.2207706178936  33.2700644699443 79.4812299719551  33.2700644699443 79.4812299719551  C 33.2700644699443 79.4812299719551  28.5109501164742 83.6103818166395  28.5109501164742 83.6103818166395  C 28.5109501164742 83.6103818166395  21.8522971321692 82.6132056908823  21.8522971321692 82.6132056908823  C 21.8522971321692 82.6132056908823  16.7954172635951 85.9578588128886  16.7954172635951 85.9578588128886  C 16.7954172635951 85.9578588128886  12.9681036168723 84.2122989951648  12.9681036168723 84.2122989951648  C 12.9681036168723 84.2122989951648  23.5233777384849 74.9106721963518  23.5233777384849 74.9106721963518  C 23.5233777384849 74.9106721963518  29.9664074187491 72.9724988814999  29.9664074187491 72.9724988814999  C 29.9664074187491 72.9724988814999  29.9099346486433 72.9644733191195  29.9099346486433 72.9644733191195  C 29.9099346486433 72.9644733191195  18.6692864534729 71.4616867634009  18.6692864534729 71.4616867634009  C 18.6692864534729 71.4616867634009  16.6336997855647 67.8521900828435  16.6336997855647 67.8521900828435  C 16.6336997855647 67.8521900828435  24.1548459860326 65.0171601719887  24.1548459860326 65.0171601719887  C 24.1548459860326 65.0171601719887  20.2120198550023 60.0433178867736  20.2120198550023 60.0433178867736  C 20.2120198550023 60.0433178867736  21.5802010580226 53.9117882281946  21.5802010580226 53.9117882281946  C 21.5802010580226 53.9117882281946  32.2766571048997 54.7645042311056  32.2766571048997 54.7645042311056  C 32.2766571048997 54.7645042311056  32.2894918253783 54.7645042311056  32.2894918253783 54.7645042311056  C 32.2894918253783 54.7645042311056  33.3496397369118 49.2609748287881  33.3496397369118 49.2609748287881  C 33.3496397369118 49.2609748287881  28.5289187251444 41.8804826734538  28.5289187251444 41.8804826734538  C 28.5289187251444 41.8804826734538  28.4211070731241 41.7440481129881  28.4211070731241 41.7440481129881  C 28.4211070731241 41.7440481129881  19.6806624271879 40.0346033259759  19.6806624271879 40.0346033259759  C 19.6806624271879 40.0346033259759  17.9659437712448 37.3901805216542  17.9659437712448 37.3901805216542  C 17.9659437712448 37.3901805216542  20.5816598047866 32.9861531654432  20.5816598047866 32.9861531654432  C 20.5816598047866 32.9861531654432  18.21493734853 30.2454236125574  18.21493734853 30.2454236125574  C 18.21493734853 30.2454236125574  14.3388517639885 34.9363648238656  14.3388517639885 34.9363648238656  C 14.3388517639885 34.9363648238656  13.91787293229 25.311709139244  13.91787293229 25.311709139244  C 13.91787293229 25.311709139244  10.2830800927464 20.1211766697597  10.2830800927464 20.1211766697597  C 10.2830800927464 20.1211766697597  12.8962291821922 9.37494864248562  12.8962291821922 9.37494864248562  C 12.8962291821922 9.37494864248562  18.4870334226766 0.725398787075282  18.4870334226766 0.725398787075282  C 18.4870334226766 0.725398787075282  24.2344212529999 1.57811478998634  24.2344212529999 1.57811478998634  Z " fill-rule="evenodd" />
    </mask>
  </defs>
  <g transform="matrix(1 0 0 1 -1786 -3939 )">
    <path d="M 6.0861264962395 36.3027168191183  C 6.0861264962395 36.3027168191183  15.6646583687515 42.3319205573482  15.6646583687515 42.3319205573482  C 15.6646583687515 42.3319205573482  11.8065413928799 50.3845535620358  11.8065413928799 50.3845535620358  C 11.8065413928799 50.3845535620358  4.50232198917854 48.4182907788527  4.50232198917854 48.4182907788527  C 4.50232198917854 48.4182907788527  0.0512409271950028 48.5487061675332  0.0512409271950028 48.5487061675332  C 0.0512409271950028 48.5487061675332  1.53493461452285 41.9326488289262  1.53493461452285 41.9326488289262  C 1.53493461452285 41.9326488289262  0.0512409271950028 36.7080077193254  0.0512409271950028 36.7080077193254  C 0.0512409271950028 36.7080077193254  6.0861264962395 36.3027168191183  6.0861264962395 36.3027168191183  Z M 24.2344212529999 1.57811478998634  C 24.2344212529999 1.57811478998634  32.9209600729262 0.67523902219818  32.9209600729262 0.67523902219818  C 32.9209600729262 0.67523902219818  25.2278286180448 12.1698507414388  25.2278286180448 12.1698507414388  C 25.2278286180448 12.1698507414388  32.5590209554292 10.7332750753581  32.5590209554292 10.7332750753581  C 32.5590209554292 10.7332750753581  42.3095380823546 10.7874476214254  42.3095380823546 10.7874476214254  C 42.3095380823546 10.7874476214254  40.4331019483812 19.2504031514929  40.4331019483812 19.2504031514929  C 40.4331019483812 19.2504031514929  32.096971018199 28.3493845002025  32.096971018199 28.3493845002025  C 32.096971018199 28.3493845002025  41.4034068165645 28.9874167094393  41.4034068165645 28.9874167094393  C 41.4034068165645 28.9874167094393  41.9758353499106 30.0387653812638  41.9758353499106 30.0387653812638  C 41.9758353499106 30.0387653812638  48.3854947569306 41.6497477550193  48.3854947569306 41.6497477550193  C 48.3854947569306 41.6497477550193  53.3114604766228 44.6603211942589  53.3114604766228 44.6603211942589  C 53.3114604766228 44.6603211942589  57.7420059858403 55.5128879230725  57.7420059858403 55.5128879230725  C 57.7420059858403 55.5128879230725  59.7929943183229 59.2066530086236  59.7929943183229 59.2066530086236  C 59.7929943183229 59.2066530086236  68.5129034114933 60.9762895134883  68.5129034114933 60.9762895134883  C 68.5129034114933 60.9762895134883  67.6375754748518 66.861033128872  67.6375754748518 66.861033128872  C 67.6375754748518 66.861033128872  63.9719793061597 69.5315390109298  63.9719793061597 69.5315390109298  C 63.9719793061597 69.5315390109298  66.8469566933692 74.200409925692  66.8469566933692 74.200409925692  C 66.8469566933692 74.200409925692  60.3731236839563 78.8712872310494  60.3731236839563 78.8712872310494  C 60.3731236839563 78.8712872310494  50.7445163808998 78.7890252166509  50.7445163808998 78.7890252166509  C 50.7445163808998 78.7890252166509  36.6276273471499 81.2207706178936  36.6276273471499 81.2207706178936  C 36.6276273471499 81.2207706178936  33.2700644699443 79.4812299719551  33.2700644699443 79.4812299719551  C 33.2700644699443 79.4812299719551  28.5109501164742 83.6103818166395  28.5109501164742 83.6103818166395  C 28.5109501164742 83.6103818166395  21.8522971321692 82.6132056908823  21.8522971321692 82.6132056908823  C 21.8522971321692 82.6132056908823  16.7954172635951 85.9578588128886  16.7954172635951 85.9578588128886  C 16.7954172635951 85.9578588128886  12.9681036168723 84.2122989951648  12.9681036168723 84.2122989951648  C 12.9681036168723 84.2122989951648  23.5233777384849 74.9106721963518  23.5233777384849 74.9106721963518  C 23.5233777384849 74.9106721963518  29.9664074187491 72.9724988814999  29.9664074187491 72.9724988814999  C 29.9664074187491 72.9724988814999  29.9099346486433 72.9644733191195  29.9099346486433 72.9644733191195  C 29.9099346486433 72.9644733191195  18.6692864534729 71.4616867634009  18.6692864534729 71.4616867634009  C 18.6692864534729 71.4616867634009  16.6336997855647 67.8521900828435  16.6336997855647 67.8521900828435  C 16.6336997855647 67.8521900828435  24.1548459860326 65.0171601719887  24.1548459860326 65.0171601719887  C 24.1548459860326 65.0171601719887  20.2120198550023 60.0433178867736  20.2120198550023 60.0433178867736  C 20.2120198550023 60.0433178867736  21.5802010580226 53.9117882281946  21.5802010580226 53.9117882281946  C 21.5802010580226 53.9117882281946  32.2766571048997 54.7645042311056  32.2766571048997 54.7645042311056  C 32.2766571048997 54.7645042311056  32.2894918253783 54.7645042311056  32.2894918253783 54.7645042311056  C 32.2894918253783 54.7645042311056  33.3496397369118 49.2609748287881  33.3496397369118 49.2609748287881  C 33.3496397369118 49.2609748287881  28.5289187251444 41.8804826734538  28.5289187251444 41.8804826734538  C 28.5289187251444 41.8804826734538  28.4211070731241 41.7440481129881  28.4211070731241 41.7440481129881  C 28.4211070731241 41.7440481129881  19.6806624271879 40.0346033259759  19.6806624271879 40.0346033259759  C 19.6806624271879 40.0346033259759  17.9659437712448 37.3901805216542  17.9659437712448 37.3901805216542  C 17.9659437712448 37.3901805216542  20.5816598047866 32.9861531654432  20.5816598047866 32.9861531654432  C 20.5816598047866 32.9861531654432  18.21493734853 30.2454236125574  18.21493734853 30.2454236125574  C 18.21493734853 30.2454236125574  14.3388517639885 34.9363648238656  14.3388517639885 34.9363648238656  C 14.3388517639885 34.9363648238656  13.91787293229 25.311709139244  13.91787293229 25.311709139244  C 13.91787293229 25.311709139244  10.2830800927464 20.1211766697597  10.2830800927464 20.1211766697597  C 10.2830800927464 20.1211766697597  12.8962291821922 9.37494864248562  12.8962291821922 9.37494864248562  C 12.8962291821922 9.37494864248562  18.4870334226766 0.725398787075282  18.4870334226766 0.725398787075282  C 18.4870334226766 0.725398787075282  24.2344212529999 1.57811478998634  24.2344212529999 1.57811478998634  Z " fill-rule="nonzero" fill="#74b9ff" stroke="none" transform="matrix(1 0 0 1 1786 3939 )" />
    <path d="M 6.0861264962395 36.3027168191183  C 6.0861264962395 36.3027168191183  15.6646583687515 42.3319205573482  15.6646583687515 42.3319205573482  C 15.6646583687515 42.3319205573482  11.8065413928799 50.3845535620358  11.8065413928799 50.3845535620358  C 11.8065413928799 50.3845535620358  4.50232198917854 48.4182907788527  4.50232198917854 48.4182907788527  C 4.50232198917854 48.4182907788527  0.0512409271950028 48.5487061675332  0.0512409271950028 48.5487061675332  C 0.0512409271950028 48.5487061675332  1.53493461452285 41.9326488289262  1.53493461452285 41.9326488289262  C 1.53493461452285 41.9326488289262  0.0512409271950028 36.7080077193254  0.0512409271950028 36.7080077193254  C 0.0512409271950028 36.7080077193254  6.0861264962395 36.3027168191183  6.0861264962395 36.3027168191183  Z " stroke-width="2" stroke="#505050" fill="none" stroke-opacity="0.211764705882353" transform="matrix(1 0 0 1 1786 3939 )" mask="url(#clip109)" />
    <path d="M 24.2344212529999 1.57811478998634  C 24.2344212529999 1.57811478998634  32.9209600729262 0.67523902219818  32.9209600729262 0.67523902219818  C 32.9209600729262 0.67523902219818  25.2278286180448 12.1698507414388  25.2278286180448 12.1698507414388  C 25.2278286180448 12.1698507414388  32.5590209554292 10.7332750753581  32.5590209554292 10.7332750753581  C 32.5590209554292 10.7332750753581  42.3095380823546 10.7874476214254  42.3095380823546 10.7874476214254  C 42.3095380823546 10.7874476214254  40.4331019483812 19.2504031514929  40.4331019483812 19.2504031514929  C 40.4331019483812 19.2504031514929  32.096971018199 28.3493845002025  32.096971018199 28.3493845002025  C 32.096971018199 28.3493845002025  41.4034068165645 28.9874167094393  41.4034068165645 28.9874167094393  C 41.4034068165645 28.9874167094393  41.9758353499106 30.0387653812638  41.9758353499106 30.0387653812638  C 41.9758353499106 30.0387653812638  48.3854947569306 41.6497477550193  48.3854947569306 41.6497477550193  C 48.3854947569306 41.6497477550193  53.3114604766228 44.6603211942589  53.3114604766228 44.6603211942589  C 53.3114604766228 44.6603211942589  57.7420059858403 55.5128879230725  57.7420059858403 55.5128879230725  C 57.7420059858403 55.5128879230725  59.7929943183229 59.2066530086236  59.7929943183229 59.2066530086236  C 59.7929943183229 59.2066530086236  68.5129034114933 60.9762895134883  68.5129034114933 60.9762895134883  C 68.5129034114933 60.9762895134883  67.6375754748518 66.861033128872  67.6375754748518 66.861033128872  C 67.6375754748518 66.861033128872  63.9719793061597 69.5315390109298  63.9719793061597 69.5315390109298  C 63.9719793061597 69.5315390109298  66.8469566933692 74.200409925692  66.8469566933692 74.200409925692  C 66.8469566933692 74.200409925692  60.3731236839563 78.8712872310494  60.3731236839563 78.8712872310494  C 60.3731236839563 78.8712872310494  50.7445163808998 78.7890252166509  50.7445163808998 78.7890252166509  C 50.7445163808998 78.7890252166509  36.6276273471499 81.2207706178936  36.6276273471499 81.2207706178936  C 36.6276273471499 81.2207706178936  33.2700644699443 79.4812299719551  33.2700644699443 79.4812299719551  C 33.2700644699443 79.4812299719551  28.5109501164742 83.6103818166395  28.5109501164742 83.6103818166395  C 28.5109501164742 83.6103818166395  21.8522971321692 82.6132056908823  21.8522971321692 82.6132056908823  C 21.8522971321692 82.6132056908823  16.7954172635951 85.9578588128886  16.7954172635951 85.9578588128886  C 16.7954172635951 85.9578588128886  12.9681036168723 84.2122989951648  12.9681036168723 84.2122989951648  C 12.9681036168723 84.2122989951648  23.5233777384849 74.9106721963518  23.5233777384849 74.9106721963518  C 23.5233777384849 74.9106721963518  29.9664074187491 72.9724988814999  29.9664074187491 72.9724988814999  C 29.9664074187491 72.9724988814999  29.9099346486433 72.9644733191195  29.9099346486433 72.9644733191195  C 29.9099346486433 72.9644733191195  18.6692864534729 71.4616867634009  18.6692864534729 71.4616867634009  C 18.6692864534729 71.4616867634009  16.6336997855647 67.8521900828435  16.6336997855647 67.8521900828435  C 16.6336997855647 67.8521900828435  24.1548459860326 65.0171601719887  24.1548459860326 65.0171601719887  C 24.1548459860326 65.0171601719887  20.2120198550023 60.0433178867736  20.2120198550023 60.0433178867736  C 20.2120198550023 60.0433178867736  21.5802010580226 53.9117882281946  21.5802010580226 53.9117882281946  C 21.5802010580226 53.9117882281946  32.2766571048997 54.7645042311056  32.2766571048997 54.7645042311056  C 32.2766571048997 54.7645042311056  32.2894918253783 54.7645042311056  32.2894918253783 54.7645042311056  C 32.2894918253783 54.7645042311056  33.3496397369118 49.2609748287881  33.3496397369118 49.2609748287881  C 33.3496397369118 49.2609748287881  28.5289187251444 41.8804826734538  28.5289187251444 41.8804826734538  C 28.5289187251444 41.8804826734538  28.4211070731241 41.7440481129881  28.4211070731241 41.7440481129881  C 28.4211070731241 41.7440481129881  19.6806624271879 40.0346033259759  19.6806624271879 40.0346033259759  C 19.6806624271879 40.0346033259759  17.9659437712448 37.3901805216542  17.9659437712448 37.3901805216542  C 17.9659437712448 37.3901805216542  20.5816598047866 32.9861531654432  20.5816598047866 32.9861531654432  C 20.5816598047866 32.9861531654432  18.21493734853 30.2454236125574  18.21493734853 30.2454236125574  C 18.21493734853 30.2454236125574  14.3388517639885 34.9363648238656  14.3388517639885 34.9363648238656  C 14.3388517639885 34.9363648238656  13.91787293229 25.311709139244  13.91787293229 25.311709139244  C 13.91787293229 25.311709139244  10.2830800927464 20.1211766697597  10.2830800927464 20.1211766697597  C 10.2830800927464 20.1211766697597  12.8962291821922 9.37494864248562  12.8962291821922 9.37494864248562  C 12.8962291821922 9.37494864248562  18.4870334226766 0.725398787075282  18.4870334226766 0.725398787075282  C 18.4870334226766 0.725398787075282  24.2344212529999 1.57811478998634  24.2344212529999 1.57811478998634  Z " stroke-width="2" stroke="#505050" fill="none" stroke-opacity="0.211764705882353" transform="matrix(1 0 0 1 1786 3939 )" mask="url(#clip109)" />
  </g>
</svg>