<?xml version="1.0" encoding="utf-8"?>
<svg version="1.1" xmlns:xlink="http://www.w3.org/1999/xlink" width="53px" height="20px" xmlns="http://www.w3.org/2000/svg">
  <defs>
    <mask fill="white" id="clip113">
      <path d="M 20.3276257656989 16.1416923127535  C 20.3276257656989 16.1416923127535  12.5450724482528 16.4917108182283  12.5450724482528 16.4917108182283  C 12.5450724482528 16.4917108182283  13.634160927226 13.3454770611518  13.634160927226 13.3454770611518  C 13.634160927226 13.3454770611518  11.8077230713406 6.84950288758914  11.8077230713406 6.84950288758914  C 11.8077230713406 6.84950288758914  7.58685384661257 4.08868276575455  7.58685384661257 4.08868276575455  C 7.58685384661257 4.08868276575455  3.53794596066992 3.22543487865679  3.53794596066992 3.22543487865679  C 3.53794596066992 3.22543487865679  0.862123310179088 0.912953067205535  0.862123310179088 0.912953067205535  C 0.862123310179088 0.912953067205535  1.75319570206619 0.018242842536925  1.75319570206619 0.018242842536925  C 1.75319570206619 0.018242842536925  7.92817104935339 1.31213147513465  7.92817104935339 1.31213147513465  C 7.92817104935339 1.31213147513465  18.683571147919 2.53326345209993  18.683571147919 2.53326345209993  C 18.683571147919 2.53326345209993  30.5215257171877 6.13570110395244  30.5215257171877 6.13570110395244  C 30.5215257171877 6.13570110395244  31.8034193335863 7.52397674926247  31.8034193335863 7.52397674926247  C 31.8034193335863 7.52397674926247  36.2327265447207 6.35003827865335  36.2327265447207 6.35003827865335  C 36.2327265447207 6.35003827865335  43.046043225377 7.91135678060251  43.046043225377 7.91135678060251  C 43.046043225377 7.91135678060251  45.2841461044152 12.3878421613417  45.2841461044152 12.3878421613417  C 45.2841461044152 12.3878421613417  49.8749927550139 14.1005731628502  49.8749927550139 14.1005731628502  C 49.8749927550139 14.1005731628502  47.9782070787165 15.1152335495073  47.9782070787165 15.1152335495073  C 47.9782070787165 15.1152335495073  51.5763678190555 19.0814544795219  51.5763678190555 19.0814544795219  C 51.5763678190555 19.0814544795219  50.5810764339655 19.9348703861288  50.5810764339655 19.9348703861288  C 50.5810764339655 19.9348703861288  46.6415984908861 19.5022632445309  46.6415984908861 19.5022632445309  C 46.6415984908861 19.5022632445309  41.1987615708512 17.4021522116822  41.1987615708512 17.4021522116822  C 41.1987615708512 17.4021522116822  39.4088003625871 18.5957546432732  39.4088003625871 18.5957546432732  C 39.4088003625871 18.5957546432732  29.2578704245992 19.7342979841152  29.2578704245992 19.7342979841152  C 29.2578704245992 19.7342979841152  20.3276257656989 16.1416923127535  20.3276257656989 16.1416923127535  Z " fill-rule="evenodd" />
    </mask>
  </defs>
  <g transform="matrix(1 0 0 1 -2124 -4075 )">
    <path d="M 20.3276257656989 16.1416923127535  C 20.3276257656989 16.1416923127535  12.5450724482528 16.4917108182283  12.5450724482528 16.4917108182283  C 12.5450724482528 16.4917108182283  13.634160927226 13.3454770611518  13.634160927226 13.3454770611518  C 13.634160927226 13.3454770611518  11.8077230713406 6.84950288758914  11.8077230713406 6.84950288758914  C 11.8077230713406 6.84950288758914  7.58685384661257 4.08868276575455  7.58685384661257 4.08868276575455  C 7.58685384661257 4.08868276575455  3.53794596066992 3.22543487865679  3.53794596066992 3.22543487865679  C 3.53794596066992 3.22543487865679  0.862123310179088 0.912953067205535  0.862123310179088 0.912953067205535  C 0.862123310179088 0.912953067205535  1.75319570206619 0.018242842536925  1.75319570206619 0.018242842536925  C 1.75319570206619 0.018242842536925  7.92817104935339 1.31213147513465  7.92817104935339 1.31213147513465  C 7.92817104935339 1.31213147513465  18.683571147919 2.53326345209993  18.683571147919 2.53326345209993  C 18.683571147919 2.53326345209993  30.5215257171877 6.13570110395244  30.5215257171877 6.13570110395244  C 30.5215257171877 6.13570110395244  31.8034193335863 7.52397674926247  31.8034193335863 7.52397674926247  C 31.8034193335863 7.52397674926247  36.2327265447207 6.35003827865335  36.2327265447207 6.35003827865335  C 36.2327265447207 6.35003827865335  43.046043225377 7.91135678060251  43.046043225377 7.91135678060251  C 43.046043225377 7.91135678060251  45.2841461044152 12.3878421613417  45.2841461044152 12.3878421613417  C 45.2841461044152 12.3878421613417  49.8749927550139 14.1005731628502  49.8749927550139 14.1005731628502  C 49.8749927550139 14.1005731628502  47.9782070787165 15.1152335495073  47.9782070787165 15.1152335495073  C 47.9782070787165 15.1152335495073  51.5763678190555 19.0814544795219  51.5763678190555 19.0814544795219  C 51.5763678190555 19.0814544795219  50.5810764339655 19.9348703861288  50.5810764339655 19.9348703861288  C 50.5810764339655 19.9348703861288  46.6415984908861 19.5022632445309  46.6415984908861 19.5022632445309  C 46.6415984908861 19.5022632445309  41.1987615708512 17.4021522116822  41.1987615708512 17.4021522116822  C 41.1987615708512 17.4021522116822  39.4088003625871 18.5957546432732  39.4088003625871 18.5957546432732  C 39.4088003625871 18.5957546432732  29.2578704245992 19.7342979841152  29.2578704245992 19.7342979841152  C 29.2578704245992 19.7342979841152  20.3276257656989 16.1416923127535  20.3276257656989 16.1416923127535  Z " fill-rule="nonzero" fill="#f2f2f2" stroke="none" transform="matrix(1 0 0 1 2124 4075 )" />
    <path d="M 20.3276257656989 16.1416923127535  C 20.3276257656989 16.1416923127535  12.5450724482528 16.4917108182283  12.5450724482528 16.4917108182283  C 12.5450724482528 16.4917108182283  13.634160927226 13.3454770611518  13.634160927226 13.3454770611518  C 13.634160927226 13.3454770611518  11.8077230713406 6.84950288758914  11.8077230713406 6.84950288758914  C 11.8077230713406 6.84950288758914  7.58685384661257 4.08868276575455  7.58685384661257 4.08868276575455  C 7.58685384661257 4.08868276575455  3.53794596066992 3.22543487865679  3.53794596066992 3.22543487865679  C 3.53794596066992 3.22543487865679  0.862123310179088 0.912953067205535  0.862123310179088 0.912953067205535  C 0.862123310179088 0.912953067205535  1.75319570206619 0.018242842536925  1.75319570206619 0.018242842536925  C 1.75319570206619 0.018242842536925  7.92817104935339 1.31213147513465  7.92817104935339 1.31213147513465  C 7.92817104935339 1.31213147513465  18.683571147919 2.53326345209993  18.683571147919 2.53326345209993  C 18.683571147919 2.53326345209993  30.5215257171877 6.13570110395244  30.5215257171877 6.13570110395244  C 30.5215257171877 6.13570110395244  31.8034193335863 7.52397674926247  31.8034193335863 7.52397674926247  C 31.8034193335863 7.52397674926247  36.2327265447207 6.35003827865335  36.2327265447207 6.35003827865335  C 36.2327265447207 6.35003827865335  43.046043225377 7.91135678060251  43.046043225377 7.91135678060251  C 43.046043225377 7.91135678060251  45.2841461044152 12.3878421613417  45.2841461044152 12.3878421613417  C 45.2841461044152 12.3878421613417  49.8749927550139 14.1005731628502  49.8749927550139 14.1005731628502  C 49.8749927550139 14.1005731628502  47.9782070787165 15.1152335495073  47.9782070787165 15.1152335495073  C 47.9782070787165 15.1152335495073  51.5763678190555 19.0814544795219  51.5763678190555 19.0814544795219  C 51.5763678190555 19.0814544795219  50.5810764339655 19.9348703861288  50.5810764339655 19.9348703861288  C 50.5810764339655 19.9348703861288  46.6415984908861 19.5022632445309  46.6415984908861 19.5022632445309  C 46.6415984908861 19.5022632445309  41.1987615708512 17.4021522116822  41.1987615708512 17.4021522116822  C 41.1987615708512 17.4021522116822  39.4088003625871 18.5957546432732  39.4088003625871 18.5957546432732  C 39.4088003625871 18.5957546432732  29.2578704245992 19.7342979841152  29.2578704245992 19.7342979841152  C 29.2578704245992 19.7342979841152  20.3276257656989 16.1416923127535  20.3276257656989 16.1416923127535  Z " stroke-width="2" stroke="#505050" fill="none" stroke-opacity="0.211764705882353" transform="matrix(1 0 0 1 2124 4075 )" mask="url(#clip113)" />
  </g>
</svg>