<?xml version="1.0" encoding="utf-8"?>
<svg version="1.1" xmlns:xlink="http://www.w3.org/1999/xlink" width="24px" height="24px" xmlns="http://www.w3.org/2000/svg">
  <defs>
    <mask fill="white" id="clip114">
      <path d="M 19.562159199245 16.4565937640357  C 19.562159199245 16.4565937640357  17.379278016787 20.448053966322  17.379278016787 20.448053966322  C 17.379278016787 20.448053966322  14.6475000527101 22.5059684523111  14.6475000527101 22.5059684523111  C 14.6475000527101 22.5059684523111  9.39107083186683 22.8926775955706  9.39107083186683 22.8926775955706  C 9.39107083186683 22.8926775955706  8.42033670881819 21.3672169048233  8.42033670881819 21.3672169048233  C 8.42033670881819 21.3672169048233  6.82701132884015 21.1398552477309  6.82701132884015 21.1398552477309  C 6.82701132884015 21.1398552477309  4.62125944714822 22.6089613397117  4.62125944714822 22.6089613397117  C 4.62125944714822 22.6089613397117  1.50830316250232 21.4915856745148  1.50830316250232 21.4915856745148  C 1.50830316250232 21.4915856745148  3.31508840199883 19.1791038630635  3.31508840199883 19.1791038630635  C 3.31508840199883 19.1791038630635  3.93513847012435 16.711161089498  3.93513847012435 16.711161089498  C 3.93513847012435 16.711161089498  5.1650738511599 14.3889629679147  5.1650738511599 14.3889629679147  C 5.1650738511599 14.3889629679147  2.40026043263347 9.77664570450286  2.40026043263347 9.77664570450286  C 2.40026043263347 9.77664570450286  1.83611651819165 6.06112870996945  1.83611651819165 6.06112870996945  C 1.83611651819165 6.06112870996945  5.54371098292498 1.38758353640654  5.54371098292498 1.38758353640654  C 5.54371098292498 1.38758353640654  7.9629227241354 1.9861082405468  7.9629227241354 1.9861082405468  C 7.9629227241354 1.9861082405468  15.0566314501208 3.2725477020433  15.0566314501208 3.2725477020433  C 15.0566314501208 3.2725477020433  22.598879819777 7.85864608441689  22.598879819777 7.85864608441689  C 22.598879819777 7.85864608441689  23.7779914247368 10.0817378426523  23.7779914247368 10.0817378426523  C 23.7779914247368 10.0817378426523  19.562159199245 16.4565937640357  19.562159199245 16.4565937640357  Z " fill-rule="evenodd" />
    </mask>
  </defs>
  <g transform="matrix(1 0 0 1 -1450 -4309 )">
    <path d="M 19.562159199245 16.4565937640357  C 19.562159199245 16.4565937640357  17.379278016787 20.448053966322  17.379278016787 20.448053966322  C 17.379278016787 20.448053966322  14.6475000527101 22.5059684523111  14.6475000527101 22.5059684523111  C 14.6475000527101 22.5059684523111  9.39107083186683 22.8926775955706  9.39107083186683 22.8926775955706  C 9.39107083186683 22.8926775955706  8.42033670881819 21.3672169048233  8.42033670881819 21.3672169048233  C 8.42033670881819 21.3672169048233  6.82701132884015 21.1398552477309  6.82701132884015 21.1398552477309  C 6.82701132884015 21.1398552477309  4.62125944714822 22.6089613397117  4.62125944714822 22.6089613397117  C 4.62125944714822 22.6089613397117  1.50830316250232 21.4915856745148  1.50830316250232 21.4915856745148  C 1.50830316250232 21.4915856745148  3.31508840199883 19.1791038630635  3.31508840199883 19.1791038630635  C 3.31508840199883 19.1791038630635  3.93513847012435 16.711161089498  3.93513847012435 16.711161089498  C 3.93513847012435 16.711161089498  5.1650738511599 14.3889629679147  5.1650738511599 14.3889629679147  C 5.1650738511599 14.3889629679147  2.40026043263347 9.77664570450286  2.40026043263347 9.77664570450286  C 2.40026043263347 9.77664570450286  1.83611651819165 6.06112870996945  1.83611651819165 6.06112870996945  C 1.83611651819165 6.06112870996945  5.54371098292498 1.38758353640654  5.54371098292498 1.38758353640654  C 5.54371098292498 1.38758353640654  7.9629227241354 1.9861082405468  7.9629227241354 1.9861082405468  C 7.9629227241354 1.9861082405468  15.0566314501208 3.2725477020433  15.0566314501208 3.2725477020433  C 15.0566314501208 3.2725477020433  22.598879819777 7.85864608441689  22.598879819777 7.85864608441689  C 22.598879819777 7.85864608441689  23.7779914247368 10.0817378426523  23.7779914247368 10.0817378426523  C 23.7779914247368 10.0817378426523  19.562159199245 16.4565937640357  19.562159199245 16.4565937640357  Z " fill-rule="nonzero" fill="#f2f2f2" stroke="none" transform="matrix(1 0 0 1 1450 4309 )" />
    <path d="M 19.562159199245 16.4565937640357  C 19.562159199245 16.4565937640357  17.379278016787 20.448053966322  17.379278016787 20.448053966322  C 17.379278016787 20.448053966322  14.6475000527101 22.5059684523111  14.6475000527101 22.5059684523111  C 14.6475000527101 22.5059684523111  9.39107083186683 22.8926775955706  9.39107083186683 22.8926775955706  C 9.39107083186683 22.8926775955706  8.42033670881819 21.3672169048233  8.42033670881819 21.3672169048233  C 8.42033670881819 21.3672169048233  6.82701132884015 21.1398552477309  6.82701132884015 21.1398552477309  C 6.82701132884015 21.1398552477309  4.62125944714822 22.6089613397117  4.62125944714822 22.6089613397117  C 4.62125944714822 22.6089613397117  1.50830316250232 21.4915856745148  1.50830316250232 21.4915856745148  C 1.50830316250232 21.4915856745148  3.31508840199883 19.1791038630635  3.31508840199883 19.1791038630635  C 3.31508840199883 19.1791038630635  3.93513847012435 16.711161089498  3.93513847012435 16.711161089498  C 3.93513847012435 16.711161089498  5.1650738511599 14.3889629679147  5.1650738511599 14.3889629679147  C 5.1650738511599 14.3889629679147  2.40026043263347 9.77664570450286  2.40026043263347 9.77664570450286  C 2.40026043263347 9.77664570450286  1.83611651819165 6.06112870996945  1.83611651819165 6.06112870996945  C 1.83611651819165 6.06112870996945  5.54371098292498 1.38758353640654  5.54371098292498 1.38758353640654  C 5.54371098292498 1.38758353640654  7.9629227241354 1.9861082405468  7.9629227241354 1.9861082405468  C 7.9629227241354 1.9861082405468  15.0566314501208 3.2725477020433  15.0566314501208 3.2725477020433  C 15.0566314501208 3.2725477020433  22.598879819777 7.85864608441689  22.598879819777 7.85864608441689  C 22.598879819777 7.85864608441689  23.7779914247368 10.0817378426523  23.7779914247368 10.0817378426523  C 23.7779914247368 10.0817378426523  19.562159199245 16.4565937640357  19.562159199245 16.4565937640357  Z " stroke-width="2" stroke="#505050" fill="none" stroke-opacity="0.211764705882353" transform="matrix(1 0 0 1 1450 4309 )" mask="url(#clip114)" />
  </g>
</svg>