<?xml version="1.0" encoding="utf-8"?>
<svg version="1.1" xmlns:xlink="http://www.w3.org/1999/xlink" width="35px" height="39px" xmlns="http://www.w3.org/2000/svg">
  <defs>
    <mask fill="white" id="clip115">
      <path d="M 32.2037911646927 28.8382697715324  C 32.2037911646927 28.8382697715324  33.7910867940441 30.7947027961411  33.7910867940441 30.7947027961411  C 33.7910867940441 30.7947027961411  22.6445187642858 34.0514480139348  22.6445187642858 34.0514480139348  C 22.6445187642858 34.0514480139348  18.6914933870354 35.958174914951  18.6914933870354 35.958174914951  C 18.6914933870354 35.958174914951  10.4418864379816 37.5706415642982  10.4418864379816 37.5706415642982  C 10.4418864379816 37.5706415642982  4.10538200068279 35.9919750789939  4.10538200068279 35.9919750789939  C 4.10538200068279 35.9919750789939  4.4274052353914 33.798940906084  4.4274052353914 33.798940906084  C 4.4274052353914 33.798940906084  1.34409615345649 29.0032941018602  1.34409615345649 29.0032941018602  C 1.34409615345649 29.0032941018602  3.19763146504724 22.7045341201931  3.19763146504724 22.7045341201931  C 3.19763146504724 22.7045341201931  6.19472960225703 16.565843363654  6.19472960225703 16.565843363654  C 6.19472960225703 16.565843363654  4.30823128238905 8.58900464949741  4.30823128238905 8.58900464949741  C 4.30823128238905 8.58900464949741  3.33709034622042 4.35404291939924  3.33709034622042 4.35404291939924  C 3.33709034622042 4.35404291939924  3.50444100362803 1.15694504991668  3.50444100362803 1.15694504991668  C 3.50444100362803 1.15694504991668  15.8554266435171 0.890520227459749  15.8554266435171 0.890520227459749  C 15.8554266435171 0.890520227459749  20.8391601571003 1.30208693080744  20.8391601571003 1.30208693080744  C 20.8391601571003 1.30208693080744  23.1338926564022 0.391470746589145  23.1338926564022 0.391470746589145  C 23.1338926564022 0.391470746589145  26.4225866360646 0.840814103867312  26.4225866360646 0.840814103867312  C 26.4225866360646 0.840814103867312  25.8977141196497 2.59842263410491  25.8977141196497 2.59842263410491  C 25.8977141196497 2.59842263410491  28.8669204806249 5.50324849686268  28.8669204806249 5.50324849686268  C 28.8669204806249 5.50324849686268  28.8542424005183 9.58511536629501  28.8542424005183 9.58511536629501  C 28.8542424005183 9.58511536629501  29.5312518782129 14.0029956312144  29.5312518782129 14.0029956312144  C 29.5312518782129 14.0029956312144  31.3163255572278 16.0449231884027  31.3163255572278 16.0449231884027  C 31.3163255572278 16.0449231884027  29.7417080079832 22.5255920752594  29.7417080079832 22.5255920752594  C 29.7417080079832 22.5255920752594  30.3071503807393 25.3031702616195  30.3071503807393 25.3031702616195  C 30.3071503807393 25.3031702616195  32.2037911646927 28.8382697715324  32.2037911646927 28.8382697715324  Z " fill-rule="evenodd" />
    </mask>
  </defs>
  <g transform="matrix(1 0 0 1 -1816 -4279 )">
    <path d="M 32.2037911646927 28.8382697715324  C 32.2037911646927 28.8382697715324  33.7910867940441 30.7947027961411  33.7910867940441 30.7947027961411  C 33.7910867940441 30.7947027961411  22.6445187642858 34.0514480139348  22.6445187642858 34.0514480139348  C 22.6445187642858 34.0514480139348  18.6914933870354 35.958174914951  18.6914933870354 35.958174914951  C 18.6914933870354 35.958174914951  10.4418864379816 37.5706415642982  10.4418864379816 37.5706415642982  C 10.4418864379816 37.5706415642982  4.10538200068279 35.9919750789939  4.10538200068279 35.9919750789939  C 4.10538200068279 35.9919750789939  4.4274052353914 33.798940906084  4.4274052353914 33.798940906084  C 4.4274052353914 33.798940906084  1.34409615345649 29.0032941018602  1.34409615345649 29.0032941018602  C 1.34409615345649 29.0032941018602  3.19763146504724 22.7045341201931  3.19763146504724 22.7045341201931  C 3.19763146504724 22.7045341201931  6.19472960225703 16.565843363654  6.19472960225703 16.565843363654  C 6.19472960225703 16.565843363654  4.30823128238905 8.58900464949741  4.30823128238905 8.58900464949741  C 4.30823128238905 8.58900464949741  3.33709034622042 4.35404291939924  3.33709034622042 4.35404291939924  C 3.33709034622042 4.35404291939924  3.50444100362803 1.15694504991668  3.50444100362803 1.15694504991668  C 3.50444100362803 1.15694504991668  15.8554266435171 0.890520227459749  15.8554266435171 0.890520227459749  C 15.8554266435171 0.890520227459749  20.8391601571003 1.30208693080744  20.8391601571003 1.30208693080744  C 20.8391601571003 1.30208693080744  23.1338926564022 0.391470746589145  23.1338926564022 0.391470746589145  C 23.1338926564022 0.391470746589145  26.4225866360646 0.840814103867312  26.4225866360646 0.840814103867312  C 26.4225866360646 0.840814103867312  25.8977141196497 2.59842263410491  25.8977141196497 2.59842263410491  C 25.8977141196497 2.59842263410491  28.8669204806249 5.50324849686268  28.8669204806249 5.50324849686268  C 28.8669204806249 5.50324849686268  28.8542424005183 9.58511536629501  28.8542424005183 9.58511536629501  C 28.8542424005183 9.58511536629501  29.5312518782129 14.0029956312144  29.5312518782129 14.0029956312144  C 29.5312518782129 14.0029956312144  31.3163255572278 16.0449231884027  31.3163255572278 16.0449231884027  C 31.3163255572278 16.0449231884027  29.7417080079832 22.5255920752594  29.7417080079832 22.5255920752594  C 29.7417080079832 22.5255920752594  30.3071503807393 25.3031702616195  30.3071503807393 25.3031702616195  C 30.3071503807393 25.3031702616195  32.2037911646927 28.8382697715324  32.2037911646927 28.8382697715324  Z " fill-rule="nonzero" fill="#f2f2f2" stroke="none" transform="matrix(1 0 0 1 1816 4279 )" />
    <path d="M 32.2037911646927 28.8382697715324  C 32.2037911646927 28.8382697715324  33.7910867940441 30.7947027961411  33.7910867940441 30.7947027961411  C 33.7910867940441 30.7947027961411  22.6445187642858 34.0514480139348  22.6445187642858 34.0514480139348  C 22.6445187642858 34.0514480139348  18.6914933870354 35.958174914951  18.6914933870354 35.958174914951  C 18.6914933870354 35.958174914951  10.4418864379816 37.5706415642982  10.4418864379816 37.5706415642982  C 10.4418864379816 37.5706415642982  4.10538200068279 35.9919750789939  4.10538200068279 35.9919750789939  C 4.10538200068279 35.9919750789939  4.4274052353914 33.798940906084  4.4274052353914 33.798940906084  C 4.4274052353914 33.798940906084  1.34409615345649 29.0032941018602  1.34409615345649 29.0032941018602  C 1.34409615345649 29.0032941018602  3.19763146504724 22.7045341201931  3.19763146504724 22.7045341201931  C 3.19763146504724 22.7045341201931  6.19472960225703 16.565843363654  6.19472960225703 16.565843363654  C 6.19472960225703 16.565843363654  4.30823128238905 8.58900464949741  4.30823128238905 8.58900464949741  C 4.30823128238905 8.58900464949741  3.33709034622042 4.35404291939924  3.33709034622042 4.35404291939924  C 3.33709034622042 4.35404291939924  3.50444100362803 1.15694504991668  3.50444100362803 1.15694504991668  C 3.50444100362803 1.15694504991668  15.8554266435171 0.890520227459749  15.8554266435171 0.890520227459749  C 15.8554266435171 0.890520227459749  20.8391601571003 1.30208693080744  20.8391601571003 1.30208693080744  C 20.8391601571003 1.30208693080744  23.1338926564022 0.391470746589145  23.1338926564022 0.391470746589145  C 23.1338926564022 0.391470746589145  26.4225866360646 0.840814103867312  26.4225866360646 0.840814103867312  C 26.4225866360646 0.840814103867312  25.8977141196497 2.59842263410491  25.8977141196497 2.59842263410491  C 25.8977141196497 2.59842263410491  28.8669204806249 5.50324849686268  28.8669204806249 5.50324849686268  C 28.8669204806249 5.50324849686268  28.8542424005183 9.58511536629501  28.8542424005183 9.58511536629501  C 28.8542424005183 9.58511536629501  29.5312518782129 14.0029956312144  29.5312518782129 14.0029956312144  C 29.5312518782129 14.0029956312144  31.3163255572278 16.0449231884027  31.3163255572278 16.0449231884027  C 31.3163255572278 16.0449231884027  29.7417080079832 22.5255920752594  29.7417080079832 22.5255920752594  C 29.7417080079832 22.5255920752594  30.3071503807393 25.3031702616195  30.3071503807393 25.3031702616195  C 30.3071503807393 25.3031702616195  32.2037911646927 28.8382697715324  32.2037911646927 28.8382697715324  Z " stroke-width="2" stroke="#505050" fill="none" stroke-opacity="0.211764705882353" transform="matrix(1 0 0 1 1816 4279 )" mask="url(#clip115)" />
  </g>
</svg>