<?xml version="1.0" encoding="utf-8"?>
<svg version="1.1" xmlns:xlink="http://www.w3.org/1999/xlink" width="438px" height="504px" xmlns="http://www.w3.org/2000/svg">
  <defs>
    <mask fill="white" id="clip116">
      <path d="M 188.157025762311 65.9628849648411  C 188.157025762311 65.9628849648411  189.12976721097 47.8837828945128  189.12976721097 47.8837828945128  C 189.12976721097 47.8837828945128  212.977131788237 20.8396725408222  212.977131788237 20.8396725408222  C 212.977131788237 20.8396725408222  239.738901182852 22.9586744987078  239.738901182852 22.9586744987078  C 239.738901182852 22.9586744987078  248.797555923484 5.16382878858371  248.797555923484 5.16382878858371  C 248.797555923484 5.16382878858371  273.901378205269 0.361287765833502  273.901378205269 0.361287765833502  C 273.901378205269 0.361287765833502  330.631963472733 6.61691549704  330.631963472733 6.61691549704  C 330.631963472733 6.61691549704  375.061422504037 43.566266710153  375.061422504037 43.566266710153  C 375.061422504037 43.566266710153  361.944612032283 60.0849405094304  361.944612032283 60.0849405094304  C 361.944612032283 60.0849405094304  334.773714172099 61.9196861071119  334.773714172099 61.9196861071119  C 334.773714172099 61.9196861071119  296.542948695137 65.9549337379823  296.542948695137 65.9549337379823  C 296.542948695137 65.9549337379823  300.119800063641 73.2004892131166  300.119800063641 73.2004892131166  C 300.119800063641 73.2004892131166  325.261620058264 68.741838752012  325.261620058264 68.741838752012  C 325.261620058264 68.741838752012  346.656865567039 82.4835465708333  346.656865567039 82.4835465708333  C 346.656865567039 82.4835465708333  360.444968965601 70.3102182499217  360.444968965601 70.3102182499217  C 360.444968965601 70.3102182499217  366.349813540661 84.5230362601303  366.349813540661 84.5230362601303  C 366.349813540661 84.5230362601303  358.552682866258 106.323312500404  358.552682866258 106.323312500404  C 358.552682866258 106.323312500404  376.634527815539 92.5577510010063  376.634527815539 92.5577510010063  C 376.634527815539 92.5577510010063  411.123785168365 77.5498103049119  411.123785168365 77.5498103049119  C 411.123785168365 77.5498103049119  432.415170262048 85.1293173081182  432.415170262048 85.1293173081182  C 432.415170262048 85.1293173081182  436.404930110061 101.252417571167  436.404930110061 101.252417571167  C 436.404930110061 101.252417571167  407.448139746481 126.433953033171  407.448139746481 126.433953033171  C 407.448139746481 126.433953033171  403.438114451621 134.172484573554  403.438114451621 134.172484573554  C 403.438114451621 134.172484573554  380.735747621211 139.869538617926  380.735747621211 139.869538617926  C 380.735747621211 139.869538617926  397.186224099305 141.431954695691  397.186224099305 141.431954695691  C 397.186224099305 141.431954695691  388.877390892014 164.307634368626  388.877390892014 164.307634368626  C 388.877390892014 164.307634368626  383.16000170029 183.386603216456  383.16000170029 183.386603216456  C 383.16000170029 183.386603216456  383.382921615607 213.714570262855  383.382921615607 213.714570262855  C 383.382921615607 213.714570262855  391.91214155736 230.280951423285  391.91214155736 230.280951423285  C 391.91214155736 230.280951423285  380.8168094086 231.300696267934  380.8168094086 231.300696267934  C 380.8168094086 231.300696267934  369.13631248213 239.013386321026  369.13631248213 239.013386321026  C 369.13631248213 239.013386321026  382.242990230461 252.980694698226  382.242990230461 252.980694698226  C 382.242990230461 252.980694698226  383.912356414487 272.115322134067  383.912356414487 272.115322134067  C 383.912356414487 272.115322134067  376.317880208554 274.134933756217  376.317880208554 274.134933756217  C 376.317880208554 274.134933756217  385.520926257971 292.331316422714  385.520926257971 292.331316422714  C 385.520926257971 292.331316422714  369.741742706686 293.806269005032  369.741742706686 293.806269005032  C 369.741742706686 293.806269005032  377.979646850013 302.03578880395  377.979646850013 302.03578880395  C 377.979646850013 302.03578880395  375.651653643458 309.011002565883  375.651653643458 309.011002565883  C 375.651653643458 309.011002565883  365.635456539302 312.02849315882  365.635456539302 312.02849315882  C 365.635456539302 312.02849315882  355.738318935374 312.084151746832  355.738318935374 312.084151746832  C 355.738318935374 312.084151746832  364.634850101229 324.967127064896  364.634850101229 324.967127064896  C 364.634850101229 324.967127064896  364.733644154609 333.172793183238  364.733644154609 333.172793183238  C 364.733644154609 333.172793183238  350.677023585323 325.553530045737  350.677023585323 325.553530045737  C 350.677023585323 325.553530045737  347.021643610286 330.501180958661  347.021643610286 330.501180958661  C 347.021643610286 330.501180958661  356.609733149797 335.059221755502  356.609733149797 335.059221755502  C 356.609733149797 335.059221755502  365.916639614305 345.944451325278  365.916639614305 345.944451325278  C 365.916639614305 345.944451325278  368.609410864107 359.769647026118  368.609410864107 359.769647026118  C 368.609410864107 359.769647026118  355.948572946412 362.995857324099  355.948572946412 362.995857324099  C 355.948572946412 362.995857324099  350.474369116852 356.509644013986  350.474369116852 356.509644013986  C 350.474369116852 356.509644013986  341.691831089511 346.610366574708  341.691831089511 346.610366574708  C 341.691831089511 346.610366574708  344.121151530301 358.276804183367  344.121151530301 358.276804183367  C 344.121151530301 358.276804183367  335.870581482696 367.045019601973  335.870581482696 367.045019601973  C 335.870581482696 367.045019601973  354.590788007659 367.742739758837  354.590788007659 367.742739758837  C 354.590788007659 367.742739758837  364.381532015641 368.639240587174  364.381532015641 368.639240587174  C 364.381532015641 368.639240587174  345.344677883692 382.611533984902  345.344677883692 382.611533984902  C 345.344677883692 382.611533984902  326.03930658102 394.788837919243  326.03930658102 394.788837919243  C 326.03930658102 394.788837919243  305.254557658513 399.988940284936  305.254557658513 399.988940284936  C 305.254557658513 399.988940284936  297.419429271272 400.054537906521  297.419429271272 400.054537906521  C 297.419429271272 400.054537906521  290.073204789216 405.763518791181  290.073204789216 405.763518791181  C 290.073204789216 405.763518791181  280.191266270423 420.940423058027  280.191266270423 420.940423058027  C 280.191266270423 420.940423058027  264.916185709458 430.658810086266  264.916185709458 430.658810086266  C 264.916185709458 430.658810086266  260.009414391615 431.22135938653  260.009414391615 431.22135938653  C 260.009414391615 431.22135938653  250.55305025661 434.558886860536  250.55305025661 434.558886860536  C 250.55305025661 434.558886860536  240.344331407408 437.705584889929  240.344331407408 437.705584889929  C 240.344331407408 437.705584889929  234.259630991581 445.899324167982  234.259630991581 445.899324167982  C 234.259630991581 445.899324167982  234.163370119057 454.95974717365  234.163370119057 454.95974717365  C 234.163370119057 454.95974717365  230.568786484562 463.240949947151  230.568786484562 463.240949947151  C 230.568786484562 463.240949947151  217.146747477018 473.078605378273  217.146747477018 473.078605378273  C 217.146747477018 473.078605378273  221.847044797762 482.431235971005  221.847044797762 482.431235971005  C 221.847044797762 482.431235971005  216.814900784898 492.07209853737  216.814900784898 492.07209853737  C 216.814900784898 492.07209853737  213.174719894996 503.134242904756  213.174719894996 503.134242904756  C 213.174719894996 503.134242904756  203.166122333409 503.814072801188  203.166122333409 503.814072801188  C 203.166122333409 503.814072801188  192.683819951771 494.602576485201  192.683819951771 494.602576485201  C 192.683819951771 494.602576485201  178.4828080737 494.544930090475  178.4828080737 494.544930090475  C 178.4828080737 494.544930090475  171.590022964847 488.223704737683  171.590022964847 488.223704737683  C 171.590022964847 488.223704737683  166.852974764349 476.684486758765  166.852974764349 476.684486758765  C 166.852974764349 476.684486758765  154.544248985621 461.43602145019  154.544248985621 461.43602145019  C 154.544248985621 461.43602145019  150.944598989413 453.174696743837  150.944598989413 453.174696743837  C 150.944598989413 453.174696743837  149.974390721611 441.462539580739  149.974390721611 441.462539580739  C 149.974390721611 441.462539580739  140.135516277368 429.004954899623  140.135516277368 429.004954899623  C 140.135516277368 429.004954899623  142.694028941808 418.727994184549  142.694028941808 418.727994184549  C 142.694028941808 418.727994184549  137.954447560454 413.702818809751  137.954447560454 413.702818809751  C 137.954447560454 413.702818809751  144.976424892957 396.496363887183  144.976424892957 396.496363887183  C 144.976424892957 396.496363887183  155.666448104776 390.835090363676  155.666448104776 390.835090363676  C 155.666448104776 390.835090363676  158.470679312237 384.352852666992  158.470679312237 384.352852666992  C 158.470679312237 384.352852666992  159.957656474639 371.90520701945  159.957656474639 371.90520701945  C 159.957656474639 371.90520701945  151.843878193251 377.604248870536  151.843878193251 377.604248870536  C 151.843878193251 377.604248870536  147.975711026321 379.969738861046  147.975711026321 379.969738861046  C 147.975711026321 379.969738861046  141.597161631211 382.221923868818  141.597161631211 382.221923868818  C 141.597161631211 382.221923868818  132.880486306123 377.043687376987  132.880486306123 377.043687376987  C 132.880486306123 377.043687376987  132.406781486073 366.009372303606  132.406781486073 366.009372303606  C 132.406781486073 366.009372303606  135.185680884975 357.107973835115  135.185680884975 357.107973835115  C 135.185680884975 357.107973835115  141.771951110267 356.863473609205  141.771951110267 356.863473609205  C 141.771951110267 356.863473609205  156.271878329332 361.345977750886  156.271878329332 361.345977750886  C 156.271878329332 361.345977750886  144.059413423128 350.542248256413  144.059413423128 350.542248256413  C 144.059413423128 350.542248256413  137.703662655721 344.570876885411  137.703662655721 344.570876885411  C 137.703662655721 344.570876885411  130.631021706101 347.037745018371  130.631021706101 347.037745018371  C 130.631021706101 347.037745018371  124.703378503338 342.678484893002  124.703378503338 342.678484893002  C 124.703378503338 342.678484893002  132.632234582247 325.770200977641  132.632234582247 325.770200977641  C 132.632234582247 325.770200977641  128.313161222969 318.767157921702  128.313161222969 318.767157921702  C 128.313161222969 318.767157921702  122.676833818633 305.363377244382  122.676833818633 305.363377244382  C 122.676833818633 305.363377244382  114.127348430033 283.684357213706  114.127348430033 283.684357213706  C 114.127348430033 283.684357213706  105.083892774536 275.377312952914  105.083892774536 275.377312952914  C 105.083892774536 275.377312952914  105.16748774278 266.17973128393  105.16748774278 266.17973128393  C 105.16748774278 266.17973128393  86.1078349831287 252.88130436249  86.1078349831287 252.88130436249  C 86.1078349831287 252.88130436249  71.0278093480669 249.743566967055  71.0278093480669 249.743566967055  C 71.0278093480669 249.743566967055  52.0466851949474 250.6818117364  52.0466851949474 250.6818117364  C 52.0466851949474 250.6818117364  34.7146617790069 253.829488165409  34.7146617790069 253.829488165409  C 34.7146617790069 253.829488165409  26.4716912739688 244.93903813759  26.4716912739688 244.93903813759  C 26.4716912739688 244.93903813759  14.1300341441145 229.712438702877  14.1300341441145 229.712438702877  C 14.1300341441145 229.712438702877  32.7793116051135 221.822833852175  32.7793116051135 221.822833852175  C 32.7793116051135 221.822833852175  47.0765843557083 220.479076513028  47.0765843557083 220.479076513028  C 47.0765843557083 220.479076513028  16.6834804468431 213.782155691155  16.6834804468431 213.782155691155  C 16.6834804468431 213.782155691155  0.673777437672456 202.982401810111  0.673777437672456 202.982401810111  C 0.673777437672456 202.982401810111  1.65158524804269 192.361550533391  1.65158524804269 192.361550533391  C 1.65158524804269 192.361550533391  28.5413000332239 178.709294016732  28.5413000332239 178.709294016732  C 28.5413000332239 178.709294016732  54.557067423126 164.478585746091  54.557067423126 164.478585746091  C 54.557067423126 164.478585746091  57.3030354709013 153.273319295246  57.3030354709013 153.273319295246  C 57.3030354709013 153.273319295246  38.1319227535909 141.819577005061  38.1319227535909 141.819577005061  C 38.1319227535909 141.819577005061  44.3255499462208 128.612589192498  44.3255499462208 128.612589192498  C 44.3255499462208 128.612589192498  68.9151365142617 104.096968979924  68.9151365142617 104.096968979924  C 68.9151365142617 104.096968979924  79.2479812254019 100.163099491504  79.2479812254019 100.163099491504  C 79.2479812254019 100.163099491504  76.2866928048767 83.1275959464008  76.2866928048767 83.1275959464008  C 76.2866928048767 83.1275959464008  93.112080049641 72.7134765680115  93.112080049641 72.7134765680115  C 93.112080049641 72.7134765680115  114.95316538905 66.332617013778  114.95316538905 66.332617013778  C 114.95316538905 66.332617013778  136.779051643325 65.9688483849853  136.779051643325 65.9688483849853  C 136.779051643325 65.9688483849853  144.528051881466 78.5039575279748  144.528051881466 78.5039575279748  C 144.528051881466 78.5039575279748  163.369851087512 55.994034290548  163.369851087512 55.994034290548  C 163.369851087512 55.994034290548  180.32189737507 71.4591705310267  180.32189737507 71.4591705310267  C 180.32189737507 71.4591705310267  190.295030404675 74.6257466275669  190.295030404675 74.6257466275669  C 190.295030404675 74.6257466275669  205.045742528473 87.3715632823162  205.045742528473 87.3715632823162  C 205.045742528473 87.3715632823162  188.157025762311 65.9628849648411  188.157025762311 65.9628849648411  Z " fill-rule="evenodd" />
    </mask>
  </defs>
  <g transform="matrix(1 0 0 1 -1318 -3422 )">
    <path d="M 188.157025762311 65.9628849648411  C 188.157025762311 65.9628849648411  189.12976721097 47.8837828945128  189.12976721097 47.8837828945128  C 189.12976721097 47.8837828945128  212.977131788237 20.8396725408222  212.977131788237 20.8396725408222  C 212.977131788237 20.8396725408222  239.738901182852 22.9586744987078  239.738901182852 22.9586744987078  C 239.738901182852 22.9586744987078  248.797555923484 5.16382878858371  248.797555923484 5.16382878858371  C 248.797555923484 5.16382878858371  273.901378205269 0.361287765833502  273.901378205269 0.361287765833502  C 273.901378205269 0.361287765833502  330.631963472733 6.61691549704  330.631963472733 6.61691549704  C 330.631963472733 6.61691549704  375.061422504037 43.566266710153  375.061422504037 43.566266710153  C 375.061422504037 43.566266710153  361.944612032283 60.0849405094304  361.944612032283 60.0849405094304  C 361.944612032283 60.0849405094304  334.773714172099 61.9196861071119  334.773714172099 61.9196861071119  C 334.773714172099 61.9196861071119  296.542948695137 65.9549337379823  296.542948695137 65.9549337379823  C 296.542948695137 65.9549337379823  300.119800063641 73.2004892131166  300.119800063641 73.2004892131166  C 300.119800063641 73.2004892131166  325.261620058264 68.741838752012  325.261620058264 68.741838752012  C 325.261620058264 68.741838752012  346.656865567039 82.4835465708333  346.656865567039 82.4835465708333  C 346.656865567039 82.4835465708333  360.444968965601 70.3102182499217  360.444968965601 70.3102182499217  C 360.444968965601 70.3102182499217  366.349813540661 84.5230362601303  366.349813540661 84.5230362601303  C 366.349813540661 84.5230362601303  358.552682866258 106.323312500404  358.552682866258 106.323312500404  C 358.552682866258 106.323312500404  376.634527815539 92.5577510010063  376.634527815539 92.5577510010063  C 376.634527815539 92.5577510010063  411.123785168365 77.5498103049119  411.123785168365 77.5498103049119  C 411.123785168365 77.5498103049119  432.415170262048 85.1293173081182  432.415170262048 85.1293173081182  C 432.415170262048 85.1293173081182  436.404930110061 101.252417571167  436.404930110061 101.252417571167  C 436.404930110061 101.252417571167  407.448139746481 126.433953033171  407.448139746481 126.433953033171  C 407.448139746481 126.433953033171  403.438114451621 134.172484573554  403.438114451621 134.172484573554  C 403.438114451621 134.172484573554  380.735747621211 139.869538617926  380.735747621211 139.869538617926  C 380.735747621211 139.869538617926  397.186224099305 141.431954695691  397.186224099305 141.431954695691  C 397.186224099305 141.431954695691  388.877390892014 164.307634368626  388.877390892014 164.307634368626  C 388.877390892014 164.307634368626  383.16000170029 183.386603216456  383.16000170029 183.386603216456  C 383.16000170029 183.386603216456  383.382921615607 213.714570262855  383.382921615607 213.714570262855  C 383.382921615607 213.714570262855  391.91214155736 230.280951423285  391.91214155736 230.280951423285  C 391.91214155736 230.280951423285  380.8168094086 231.300696267934  380.8168094086 231.300696267934  C 380.8168094086 231.300696267934  369.13631248213 239.013386321026  369.13631248213 239.013386321026  C 369.13631248213 239.013386321026  382.242990230461 252.980694698226  382.242990230461 252.980694698226  C 382.242990230461 252.980694698226  383.912356414487 272.115322134067  383.912356414487 272.115322134067  C 383.912356414487 272.115322134067  376.317880208554 274.134933756217  376.317880208554 274.134933756217  C 376.317880208554 274.134933756217  385.520926257971 292.331316422714  385.520926257971 292.331316422714  C 385.520926257971 292.331316422714  369.741742706686 293.806269005032  369.741742706686 293.806269005032  C 369.741742706686 293.806269005032  377.979646850013 302.03578880395  377.979646850013 302.03578880395  C 377.979646850013 302.03578880395  375.651653643458 309.011002565883  375.651653643458 309.011002565883  C 375.651653643458 309.011002565883  365.635456539302 312.02849315882  365.635456539302 312.02849315882  C 365.635456539302 312.02849315882  355.738318935374 312.084151746832  355.738318935374 312.084151746832  C 355.738318935374 312.084151746832  364.634850101229 324.967127064896  364.634850101229 324.967127064896  C 364.634850101229 324.967127064896  364.733644154609 333.172793183238  364.733644154609 333.172793183238  C 364.733644154609 333.172793183238  350.677023585323 325.553530045737  350.677023585323 325.553530045737  C 350.677023585323 325.553530045737  347.021643610286 330.501180958661  347.021643610286 330.501180958661  C 347.021643610286 330.501180958661  356.609733149797 335.059221755502  356.609733149797 335.059221755502  C 356.609733149797 335.059221755502  365.916639614305 345.944451325278  365.916639614305 345.944451325278  C 365.916639614305 345.944451325278  368.609410864107 359.769647026118  368.609410864107 359.769647026118  C 368.609410864107 359.769647026118  355.948572946412 362.995857324099  355.948572946412 362.995857324099  C 355.948572946412 362.995857324099  350.474369116852 356.509644013986  350.474369116852 356.509644013986  C 350.474369116852 356.509644013986  341.691831089511 346.610366574708  341.691831089511 346.610366574708  C 341.691831089511 346.610366574708  344.121151530301 358.276804183367  344.121151530301 358.276804183367  C 344.121151530301 358.276804183367  335.870581482696 367.045019601973  335.870581482696 367.045019601973  C 335.870581482696 367.045019601973  354.590788007659 367.742739758837  354.590788007659 367.742739758837  C 354.590788007659 367.742739758837  364.381532015641 368.639240587174  364.381532015641 368.639240587174  C 364.381532015641 368.639240587174  345.344677883692 382.611533984902  345.344677883692 382.611533984902  C 345.344677883692 382.611533984902  326.03930658102 394.788837919243  326.03930658102 394.788837919243  C 326.03930658102 394.788837919243  305.254557658513 399.988940284936  305.254557658513 399.988940284936  C 305.254557658513 399.988940284936  297.419429271272 400.054537906521  297.419429271272 400.054537906521  C 297.419429271272 400.054537906521  290.073204789216 405.763518791181  290.073204789216 405.763518791181  C 290.073204789216 405.763518791181  280.191266270423 420.940423058027  280.191266270423 420.940423058027  C 280.191266270423 420.940423058027  264.916185709458 430.658810086266  264.916185709458 430.658810086266  C 264.916185709458 430.658810086266  260.009414391615 431.22135938653  260.009414391615 431.22135938653  C 260.009414391615 431.22135938653  250.55305025661 434.558886860536  250.55305025661 434.558886860536  C 250.55305025661 434.558886860536  240.344331407408 437.705584889929  240.344331407408 437.705584889929  C 240.344331407408 437.705584889929  234.259630991581 445.899324167982  234.259630991581 445.899324167982  C 234.259630991581 445.899324167982  234.163370119057 454.95974717365  234.163370119057 454.95974717365  C 234.163370119057 454.95974717365  230.568786484562 463.240949947151  230.568786484562 463.240949947151  C 230.568786484562 463.240949947151  217.146747477018 473.078605378273  217.146747477018 473.078605378273  C 217.146747477018 473.078605378273  221.847044797762 482.431235971005  221.847044797762 482.431235971005  C 221.847044797762 482.431235971005  216.814900784898 492.07209853737  216.814900784898 492.07209853737  C 216.814900784898 492.07209853737  213.174719894996 503.134242904756  213.174719894996 503.134242904756  C 213.174719894996 503.134242904756  203.166122333409 503.814072801188  203.166122333409 503.814072801188  C 203.166122333409 503.814072801188  192.683819951771 494.602576485201  192.683819951771 494.602576485201  C 192.683819951771 494.602576485201  178.4828080737 494.544930090475  178.4828080737 494.544930090475  C 178.4828080737 494.544930090475  171.590022964847 488.223704737683  171.590022964847 488.223704737683  C 171.590022964847 488.223704737683  166.852974764349 476.684486758765  166.852974764349 476.684486758765  C 166.852974764349 476.684486758765  154.544248985621 461.43602145019  154.544248985621 461.43602145019  C 154.544248985621 461.43602145019  150.944598989413 453.174696743837  150.944598989413 453.174696743837  C 150.944598989413 453.174696743837  149.974390721611 441.462539580739  149.974390721611 441.462539580739  C 149.974390721611 441.462539580739  140.135516277368 429.004954899623  140.135516277368 429.004954899623  C 140.135516277368 429.004954899623  142.694028941808 418.727994184549  142.694028941808 418.727994184549  C 142.694028941808 418.727994184549  137.954447560454 413.702818809751  137.954447560454 413.702818809751  C 137.954447560454 413.702818809751  144.976424892957 396.496363887183  144.976424892957 396.496363887183  C 144.976424892957 396.496363887183  155.666448104776 390.835090363676  155.666448104776 390.835090363676  C 155.666448104776 390.835090363676  158.470679312237 384.352852666992  158.470679312237 384.352852666992  C 158.470679312237 384.352852666992  159.957656474639 371.90520701945  159.957656474639 371.90520701945  C 159.957656474639 371.90520701945  151.843878193251 377.604248870536  151.843878193251 377.604248870536  C 151.843878193251 377.604248870536  147.975711026321 379.969738861046  147.975711026321 379.969738861046  C 147.975711026321 379.969738861046  141.597161631211 382.221923868818  141.597161631211 382.221923868818  C 141.597161631211 382.221923868818  132.880486306123 377.043687376987  132.880486306123 377.043687376987  C 132.880486306123 377.043687376987  132.406781486073 366.009372303606  132.406781486073 366.009372303606  C 132.406781486073 366.009372303606  135.185680884975 357.107973835115  135.185680884975 357.107973835115  C 135.185680884975 357.107973835115  141.771951110267 356.863473609205  141.771951110267 356.863473609205  C 141.771951110267 356.863473609205  156.271878329332 361.345977750886  156.271878329332 361.345977750886  C 156.271878329332 361.345977750886  144.059413423128 350.542248256413  144.059413423128 350.542248256413  C 144.059413423128 350.542248256413  137.703662655721 344.570876885411  137.703662655721 344.570876885411  C 137.703662655721 344.570876885411  130.631021706101 347.037745018371  130.631021706101 347.037745018371  C 130.631021706101 347.037745018371  124.703378503338 342.678484893002  124.703378503338 342.678484893002  C 124.703378503338 342.678484893002  132.632234582247 325.770200977641  132.632234582247 325.770200977641  C 132.632234582247 325.770200977641  128.313161222969 318.767157921702  128.313161222969 318.767157921702  C 128.313161222969 318.767157921702  122.676833818633 305.363377244382  122.676833818633 305.363377244382  C 122.676833818633 305.363377244382  114.127348430033 283.684357213706  114.127348430033 283.684357213706  C 114.127348430033 283.684357213706  105.083892774536 275.377312952914  105.083892774536 275.377312952914  C 105.083892774536 275.377312952914  105.16748774278 266.17973128393  105.16748774278 266.17973128393  C 105.16748774278 266.17973128393  86.1078349831287 252.88130436249  86.1078349831287 252.88130436249  C 86.1078349831287 252.88130436249  71.0278093480669 249.743566967055  71.0278093480669 249.743566967055  C 71.0278093480669 249.743566967055  52.0466851949474 250.6818117364  52.0466851949474 250.6818117364  C 52.0466851949474 250.6818117364  34.7146617790069 253.829488165409  34.7146617790069 253.829488165409  C 34.7146617790069 253.829488165409  26.4716912739688 244.93903813759  26.4716912739688 244.93903813759  C 26.4716912739688 244.93903813759  14.1300341441145 229.712438702877  14.1300341441145 229.712438702877  C 14.1300341441145 229.712438702877  32.7793116051135 221.822833852175  32.7793116051135 221.822833852175  C 32.7793116051135 221.822833852175  47.0765843557083 220.479076513028  47.0765843557083 220.479076513028  C 47.0765843557083 220.479076513028  16.6834804468431 213.782155691155  16.6834804468431 213.782155691155  C 16.6834804468431 213.782155691155  0.673777437672456 202.982401810111  0.673777437672456 202.982401810111  C 0.673777437672456 202.982401810111  1.65158524804269 192.361550533391  1.65158524804269 192.361550533391  C 1.65158524804269 192.361550533391  28.5413000332239 178.709294016732  28.5413000332239 178.709294016732  C 28.5413000332239 178.709294016732  54.557067423126 164.478585746091  54.557067423126 164.478585746091  C 54.557067423126 164.478585746091  57.3030354709013 153.273319295246  57.3030354709013 153.273319295246  C 57.3030354709013 153.273319295246  38.1319227535909 141.819577005061  38.1319227535909 141.819577005061  C 38.1319227535909 141.819577005061  44.3255499462208 128.612589192498  44.3255499462208 128.612589192498  C 44.3255499462208 128.612589192498  68.9151365142617 104.096968979924  68.9151365142617 104.096968979924  C 68.9151365142617 104.096968979924  79.2479812254019 100.163099491504  79.2479812254019 100.163099491504  C 79.2479812254019 100.163099491504  76.2866928048767 83.1275959464008  76.2866928048767 83.1275959464008  C 76.2866928048767 83.1275959464008  93.112080049641 72.7134765680115  93.112080049641 72.7134765680115  C 93.112080049641 72.7134765680115  114.95316538905 66.332617013778  114.95316538905 66.332617013778  C 114.95316538905 66.332617013778  136.779051643325 65.9688483849853  136.779051643325 65.9688483849853  C 136.779051643325 65.9688483849853  144.528051881466 78.5039575279748  144.528051881466 78.5039575279748  C 144.528051881466 78.5039575279748  163.369851087512 55.994034290548  163.369851087512 55.994034290548  C 163.369851087512 55.994034290548  180.32189737507 71.4591705310267  180.32189737507 71.4591705310267  C 180.32189737507 71.4591705310267  190.295030404675 74.6257466275669  190.295030404675 74.6257466275669  C 190.295030404675 74.6257466275669  205.045742528473 87.3715632823162  205.045742528473 87.3715632823162  C 205.045742528473 87.3715632823162  188.157025762311 65.9628849648411  188.157025762311 65.9628849648411  Z " fill-rule="nonzero" fill="#f2f2f2" stroke="none" transform="matrix(1 0 0 1 1318 3422 )" />
    <path d="M 188.157025762311 65.9628849648411  C 188.157025762311 65.9628849648411  189.12976721097 47.8837828945128  189.12976721097 47.8837828945128  C 189.12976721097 47.8837828945128  212.977131788237 20.8396725408222  212.977131788237 20.8396725408222  C 212.977131788237 20.8396725408222  239.738901182852 22.9586744987078  239.738901182852 22.9586744987078  C 239.738901182852 22.9586744987078  248.797555923484 5.16382878858371  248.797555923484 5.16382878858371  C 248.797555923484 5.16382878858371  273.901378205269 0.361287765833502  273.901378205269 0.361287765833502  C 273.901378205269 0.361287765833502  330.631963472733 6.61691549704  330.631963472733 6.61691549704  C 330.631963472733 6.61691549704  375.061422504037 43.566266710153  375.061422504037 43.566266710153  C 375.061422504037 43.566266710153  361.944612032283 60.0849405094304  361.944612032283 60.0849405094304  C 361.944612032283 60.0849405094304  334.773714172099 61.9196861071119  334.773714172099 61.9196861071119  C 334.773714172099 61.9196861071119  296.542948695137 65.9549337379823  296.542948695137 65.9549337379823  C 296.542948695137 65.9549337379823  300.119800063641 73.2004892131166  300.119800063641 73.2004892131166  C 300.119800063641 73.2004892131166  325.261620058264 68.741838752012  325.261620058264 68.741838752012  C 325.261620058264 68.741838752012  346.656865567039 82.4835465708333  346.656865567039 82.4835465708333  C 346.656865567039 82.4835465708333  360.444968965601 70.3102182499217  360.444968965601 70.3102182499217  C 360.444968965601 70.3102182499217  366.349813540661 84.5230362601303  366.349813540661 84.5230362601303  C 366.349813540661 84.5230362601303  358.552682866258 106.323312500404  358.552682866258 106.323312500404  C 358.552682866258 106.323312500404  376.634527815539 92.5577510010063  376.634527815539 92.5577510010063  C 376.634527815539 92.5577510010063  411.123785168365 77.5498103049119  411.123785168365 77.5498103049119  C 411.123785168365 77.5498103049119  432.415170262048 85.1293173081182  432.415170262048 85.1293173081182  C 432.415170262048 85.1293173081182  436.404930110061 101.252417571167  436.404930110061 101.252417571167  C 436.404930110061 101.252417571167  407.448139746481 126.433953033171  407.448139746481 126.433953033171  C 407.448139746481 126.433953033171  403.438114451621 134.172484573554  403.438114451621 134.172484573554  C 403.438114451621 134.172484573554  380.735747621211 139.869538617926  380.735747621211 139.869538617926  C 380.735747621211 139.869538617926  397.186224099305 141.431954695691  397.186224099305 141.431954695691  C 397.186224099305 141.431954695691  388.877390892014 164.307634368626  388.877390892014 164.307634368626  C 388.877390892014 164.307634368626  383.16000170029 183.386603216456  383.16000170029 183.386603216456  C 383.16000170029 183.386603216456  383.382921615607 213.714570262855  383.382921615607 213.714570262855  C 383.382921615607 213.714570262855  391.91214155736 230.280951423285  391.91214155736 230.280951423285  C 391.91214155736 230.280951423285  380.8168094086 231.300696267934  380.8168094086 231.300696267934  C 380.8168094086 231.300696267934  369.13631248213 239.013386321026  369.13631248213 239.013386321026  C 369.13631248213 239.013386321026  382.242990230461 252.980694698226  382.242990230461 252.980694698226  C 382.242990230461 252.980694698226  383.912356414487 272.115322134067  383.912356414487 272.115322134067  C 383.912356414487 272.115322134067  376.317880208554 274.134933756217  376.317880208554 274.134933756217  C 376.317880208554 274.134933756217  385.520926257971 292.331316422714  385.520926257971 292.331316422714  C 385.520926257971 292.331316422714  369.741742706686 293.806269005032  369.741742706686 293.806269005032  C 369.741742706686 293.806269005032  377.979646850013 302.03578880395  377.979646850013 302.03578880395  C 377.979646850013 302.03578880395  375.651653643458 309.011002565883  375.651653643458 309.011002565883  C 375.651653643458 309.011002565883  365.635456539302 312.02849315882  365.635456539302 312.02849315882  C 365.635456539302 312.02849315882  355.738318935374 312.084151746832  355.738318935374 312.084151746832  C 355.738318935374 312.084151746832  364.634850101229 324.967127064896  364.634850101229 324.967127064896  C 364.634850101229 324.967127064896  364.733644154609 333.172793183238  364.733644154609 333.172793183238  C 364.733644154609 333.172793183238  350.677023585323 325.553530045737  350.677023585323 325.553530045737  C 350.677023585323 325.553530045737  347.021643610286 330.501180958661  347.021643610286 330.501180958661  C 347.021643610286 330.501180958661  356.609733149797 335.059221755502  356.609733149797 335.059221755502  C 356.609733149797 335.059221755502  365.916639614305 345.944451325278  365.916639614305 345.944451325278  C 365.916639614305 345.944451325278  368.609410864107 359.769647026118  368.609410864107 359.769647026118  C 368.609410864107 359.769647026118  355.948572946412 362.995857324099  355.948572946412 362.995857324099  C 355.948572946412 362.995857324099  350.474369116852 356.509644013986  350.474369116852 356.509644013986  C 350.474369116852 356.509644013986  341.691831089511 346.610366574708  341.691831089511 346.610366574708  C 341.691831089511 346.610366574708  344.121151530301 358.276804183367  344.121151530301 358.276804183367  C 344.121151530301 358.276804183367  335.870581482696 367.045019601973  335.870581482696 367.045019601973  C 335.870581482696 367.045019601973  354.590788007659 367.742739758837  354.590788007659 367.742739758837  C 354.590788007659 367.742739758837  364.381532015641 368.639240587174  364.381532015641 368.639240587174  C 364.381532015641 368.639240587174  345.344677883692 382.611533984902  345.344677883692 382.611533984902  C 345.344677883692 382.611533984902  326.03930658102 394.788837919243  326.03930658102 394.788837919243  C 326.03930658102 394.788837919243  305.254557658513 399.988940284936  305.254557658513 399.988940284936  C 305.254557658513 399.988940284936  297.419429271272 400.054537906521  297.419429271272 400.054537906521  C 297.419429271272 400.054537906521  290.073204789216 405.763518791181  290.073204789216 405.763518791181  C 290.073204789216 405.763518791181  280.191266270423 420.940423058027  280.191266270423 420.940423058027  C 280.191266270423 420.940423058027  264.916185709458 430.658810086266  264.916185709458 430.658810086266  C 264.916185709458 430.658810086266  260.009414391615 431.22135938653  260.009414391615 431.22135938653  C 260.009414391615 431.22135938653  250.55305025661 434.558886860536  250.55305025661 434.558886860536  C 250.55305025661 434.558886860536  240.344331407408 437.705584889929  240.344331407408 437.705584889929  C 240.344331407408 437.705584889929  234.259630991581 445.899324167982  234.259630991581 445.899324167982  C 234.259630991581 445.899324167982  234.163370119057 454.95974717365  234.163370119057 454.95974717365  C 234.163370119057 454.95974717365  230.568786484562 463.240949947151  230.568786484562 463.240949947151  C 230.568786484562 463.240949947151  217.146747477018 473.078605378273  217.146747477018 473.078605378273  C 217.146747477018 473.078605378273  221.847044797762 482.431235971005  221.847044797762 482.431235971005  C 221.847044797762 482.431235971005  216.814900784898 492.07209853737  216.814900784898 492.07209853737  C 216.814900784898 492.07209853737  213.174719894996 503.134242904756  213.174719894996 503.134242904756  C 213.174719894996 503.134242904756  203.166122333409 503.814072801188  203.166122333409 503.814072801188  C 203.166122333409 503.814072801188  192.683819951771 494.602576485201  192.683819951771 494.602576485201  C 192.683819951771 494.602576485201  178.4828080737 494.544930090475  178.4828080737 494.544930090475  C 178.4828080737 494.544930090475  171.590022964847 488.223704737683  171.590022964847 488.223704737683  C 171.590022964847 488.223704737683  166.852974764349 476.684486758765  166.852974764349 476.684486758765  C 166.852974764349 476.684486758765  154.544248985621 461.43602145019  154.544248985621 461.43602145019  C 154.544248985621 461.43602145019  150.944598989413 453.174696743837  150.944598989413 453.174696743837  C 150.944598989413 453.174696743837  149.974390721611 441.462539580739  149.974390721611 441.462539580739  C 149.974390721611 441.462539580739  140.135516277368 429.004954899623  140.135516277368 429.004954899623  C 140.135516277368 429.004954899623  142.694028941808 418.727994184549  142.694028941808 418.727994184549  C 142.694028941808 418.727994184549  137.954447560454 413.702818809751  137.954447560454 413.702818809751  C 137.954447560454 413.702818809751  144.976424892957 396.496363887183  144.976424892957 396.496363887183  C 144.976424892957 396.496363887183  155.666448104776 390.835090363676  155.666448104776 390.835090363676  C 155.666448104776 390.835090363676  158.470679312237 384.352852666992  158.470679312237 384.352852666992  C 158.470679312237 384.352852666992  159.957656474639 371.90520701945  159.957656474639 371.90520701945  C 159.957656474639 371.90520701945  151.843878193251 377.604248870536  151.843878193251 377.604248870536  C 151.843878193251 377.604248870536  147.975711026321 379.969738861046  147.975711026321 379.969738861046  C 147.975711026321 379.969738861046  141.597161631211 382.221923868818  141.597161631211 382.221923868818  C 141.597161631211 382.221923868818  132.880486306123 377.043687376987  132.880486306123 377.043687376987  C 132.880486306123 377.043687376987  132.406781486073 366.009372303606  132.406781486073 366.009372303606  C 132.406781486073 366.009372303606  135.185680884975 357.107973835115  135.185680884975 357.107973835115  C 135.185680884975 357.107973835115  141.771951110267 356.863473609205  141.771951110267 356.863473609205  C 141.771951110267 356.863473609205  156.271878329332 361.345977750886  156.271878329332 361.345977750886  C 156.271878329332 361.345977750886  144.059413423128 350.542248256413  144.059413423128 350.542248256413  C 144.059413423128 350.542248256413  137.703662655721 344.570876885411  137.703662655721 344.570876885411  C 137.703662655721 344.570876885411  130.631021706101 347.037745018371  130.631021706101 347.037745018371  C 130.631021706101 347.037745018371  124.703378503338 342.678484893002  124.703378503338 342.678484893002  C 124.703378503338 342.678484893002  132.632234582247 325.770200977641  132.632234582247 325.770200977641  C 132.632234582247 325.770200977641  128.313161222969 318.767157921702  128.313161222969 318.767157921702  C 128.313161222969 318.767157921702  122.676833818633 305.363377244382  122.676833818633 305.363377244382  C 122.676833818633 305.363377244382  114.127348430033 283.684357213706  114.127348430033 283.684357213706  C 114.127348430033 283.684357213706  105.083892774536 275.377312952914  105.083892774536 275.377312952914  C 105.083892774536 275.377312952914  105.16748774278 266.17973128393  105.16748774278 266.17973128393  C 105.16748774278 266.17973128393  86.1078349831287 252.88130436249  86.1078349831287 252.88130436249  C 86.1078349831287 252.88130436249  71.0278093480669 249.743566967055  71.0278093480669 249.743566967055  C 71.0278093480669 249.743566967055  52.0466851949474 250.6818117364  52.0466851949474 250.6818117364  C 52.0466851949474 250.6818117364  34.7146617790069 253.829488165409  34.7146617790069 253.829488165409  C 34.7146617790069 253.829488165409  26.4716912739688 244.93903813759  26.4716912739688 244.93903813759  C 26.4716912739688 244.93903813759  14.1300341441145 229.712438702877  14.1300341441145 229.712438702877  C 14.1300341441145 229.712438702877  32.7793116051135 221.822833852175  32.7793116051135 221.822833852175  C 32.7793116051135 221.822833852175  47.0765843557083 220.479076513028  47.0765843557083 220.479076513028  C 47.0765843557083 220.479076513028  16.6834804468431 213.782155691155  16.6834804468431 213.782155691155  C 16.6834804468431 213.782155691155  0.673777437672456 202.982401810111  0.673777437672456 202.982401810111  C 0.673777437672456 202.982401810111  1.65158524804269 192.361550533391  1.65158524804269 192.361550533391  C 1.65158524804269 192.361550533391  28.5413000332239 178.709294016732  28.5413000332239 178.709294016732  C 28.5413000332239 178.709294016732  54.557067423126 164.478585746091  54.557067423126 164.478585746091  C 54.557067423126 164.478585746091  57.3030354709013 153.273319295246  57.3030354709013 153.273319295246  C 57.3030354709013 153.273319295246  38.1319227535909 141.819577005061  38.1319227535909 141.819577005061  C 38.1319227535909 141.819577005061  44.3255499462208 128.612589192498  44.3255499462208 128.612589192498  C 44.3255499462208 128.612589192498  68.9151365142617 104.096968979924  68.9151365142617 104.096968979924  C 68.9151365142617 104.096968979924  79.2479812254019 100.163099491504  79.2479812254019 100.163099491504  C 79.2479812254019 100.163099491504  76.2866928048767 83.1275959464008  76.2866928048767 83.1275959464008  C 76.2866928048767 83.1275959464008  93.112080049641 72.7134765680115  93.112080049641 72.7134765680115  C 93.112080049641 72.7134765680115  114.95316538905 66.332617013778  114.95316538905 66.332617013778  C 114.95316538905 66.332617013778  136.779051643325 65.9688483849853  136.779051643325 65.9688483849853  C 136.779051643325 65.9688483849853  144.528051881466 78.5039575279748  144.528051881466 78.5039575279748  C 144.528051881466 78.5039575279748  163.369851087512 55.994034290548  163.369851087512 55.994034290548  C 163.369851087512 55.994034290548  180.32189737507 71.4591705310267  180.32189737507 71.4591705310267  C 180.32189737507 71.4591705310267  190.295030404675 74.6257466275669  190.295030404675 74.6257466275669  C 190.295030404675 74.6257466275669  205.045742528473 87.3715632823162  205.045742528473 87.3715632823162  C 205.045742528473 87.3715632823162  188.157025762311 65.9628849648411  188.157025762311 65.9628849648411  Z " stroke-width="2" stroke="#505050" fill="none" stroke-opacity="0.211764705882353" transform="matrix(1 0 0 1 1318 3422 )" mask="url(#clip116)" />
  </g>
</svg>