<?xml version="1.0" encoding="utf-8"?>
<svg version="1.1" xmlns:xlink="http://www.w3.org/1999/xlink" width="24px" height="8px" xmlns="http://www.w3.org/2000/svg">
  <defs>
    <mask fill="white" id="clip117">
      <path d="M 6.95188208242913 6.88194371725258  C 6.95188208242913 6.88194371725258  0.466768255150642 6.74759953582543  0.466768255150642 6.74759953582543  C 0.466768255150642 6.74759953582543  1.37651384690847 2.35059772578425  1.37651384690847 2.35059772578425  C 1.37651384690847 2.35059772578425  9.13730445369073 2.17000390812827  9.13730445369073 2.17000390812827  C 9.13730445369073 2.17000390812827  10.7458769664914 0.674599003389812  10.7458769664914 0.674599003389812  C 10.7458769664914 0.674599003389812  14.8511476592168 0.573290276412081  14.8511476592168 0.573290276412081  C 14.8511476592168 0.573290276412081  17.6642436650151 2.12815899915913  17.6642436650151 2.12815899915913  C 17.6642436650151 2.12815899915913  19.8750779243145 2.15678972634851  19.8750779243145 2.15678972634851  C 19.8750779243145 2.15678972634851  22.2231363790189 1.09304809308087  22.2231363790189 1.09304809308087  C 22.2231363790189 1.09304809308087  23.6639904307692 2.91880754231242  23.6639904307692 2.91880754231242  C 23.6639904307692 2.91880754231242  20.5789872229651 5.93492735637265  20.5789872229651 5.93492735637265  C 20.5789872229651 5.93492735637265  17.4838192599459 5.82260681124499  17.4838192599459 5.82260681124499  C 17.4838192599459 5.82260681124499  14.4267691289835 2.89017681512305  14.4267691289835 2.89017681512305  C 14.4267691289835 2.89017681512305  9.94032011568911 5.94593917452221  9.94032011568911 5.94593917452221  C 9.94032011568911 5.94593917452221  8.66464333618534 5.99879590164128  8.66464333618534 5.99879590164128  C 8.66464333618534 5.99879590164128  6.95188208242913 6.88194371725258  6.95188208242913 6.88194371725258  Z " fill-rule="evenodd" />
    </mask>
  </defs>
  <g transform="matrix(1 0 0 1 -1721 -4264 )">
    <path d="M 6.95188208242913 6.88194371725258  C 6.95188208242913 6.88194371725258  0.466768255150642 6.74759953582543  0.466768255150642 6.74759953582543  C 0.466768255150642 6.74759953582543  1.37651384690847 2.35059772578425  1.37651384690847 2.35059772578425  C 1.37651384690847 2.35059772578425  9.13730445369073 2.17000390812827  9.13730445369073 2.17000390812827  C 9.13730445369073 2.17000390812827  10.7458769664914 0.674599003389812  10.7458769664914 0.674599003389812  C 10.7458769664914 0.674599003389812  14.8511476592168 0.573290276412081  14.8511476592168 0.573290276412081  C 14.8511476592168 0.573290276412081  17.6642436650151 2.12815899915913  17.6642436650151 2.12815899915913  C 17.6642436650151 2.12815899915913  19.8750779243145 2.15678972634851  19.8750779243145 2.15678972634851  C 19.8750779243145 2.15678972634851  22.2231363790189 1.09304809308087  22.2231363790189 1.09304809308087  C 22.2231363790189 1.09304809308087  23.6639904307692 2.91880754231242  23.6639904307692 2.91880754231242  C 23.6639904307692 2.91880754231242  20.5789872229651 5.93492735637265  20.5789872229651 5.93492735637265  C 20.5789872229651 5.93492735637265  17.4838192599459 5.82260681124499  17.4838192599459 5.82260681124499  C 17.4838192599459 5.82260681124499  14.4267691289835 2.89017681512305  14.4267691289835 2.89017681512305  C 14.4267691289835 2.89017681512305  9.94032011568911 5.94593917452221  9.94032011568911 5.94593917452221  C 9.94032011568911 5.94593917452221  8.66464333618534 5.99879590164128  8.66464333618534 5.99879590164128  C 8.66464333618534 5.99879590164128  6.95188208242913 6.88194371725258  6.95188208242913 6.88194371725258  Z " fill-rule="nonzero" fill="#f2f2f2" stroke="none" transform="matrix(1 0 0 1 1721 4264 )" />
    <path d="M 6.95188208242913 6.88194371725258  C 6.95188208242913 6.88194371725258  0.466768255150642 6.74759953582543  0.466768255150642 6.74759953582543  C 0.466768255150642 6.74759953582543  1.37651384690847 2.35059772578425  1.37651384690847 2.35059772578425  C 1.37651384690847 2.35059772578425  9.13730445369073 2.17000390812827  9.13730445369073 2.17000390812827  C 9.13730445369073 2.17000390812827  10.7458769664914 0.674599003389812  10.7458769664914 0.674599003389812  C 10.7458769664914 0.674599003389812  14.8511476592168 0.573290276412081  14.8511476592168 0.573290276412081  C 14.8511476592168 0.573290276412081  17.6642436650151 2.12815899915913  17.6642436650151 2.12815899915913  C 17.6642436650151 2.12815899915913  19.8750779243145 2.15678972634851  19.8750779243145 2.15678972634851  C 19.8750779243145 2.15678972634851  22.2231363790189 1.09304809308087  22.2231363790189 1.09304809308087  C 22.2231363790189 1.09304809308087  23.6639904307692 2.91880754231242  23.6639904307692 2.91880754231242  C 23.6639904307692 2.91880754231242  20.5789872229651 5.93492735637265  20.5789872229651 5.93492735637265  C 20.5789872229651 5.93492735637265  17.4838192599459 5.82260681124499  17.4838192599459 5.82260681124499  C 17.4838192599459 5.82260681124499  14.4267691289835 2.89017681512305  14.4267691289835 2.89017681512305  C 14.4267691289835 2.89017681512305  9.94032011568911 5.94593917452221  9.94032011568911 5.94593917452221  C 9.94032011568911 5.94593917452221  8.66464333618534 5.99879590164128  8.66464333618534 5.99879590164128  C 8.66464333618534 5.99879590164128  6.95188208242913 6.88194371725258  6.95188208242913 6.88194371725258  Z " stroke-width="2" stroke="#505050" fill="none" stroke-opacity="0.211764705882353" transform="matrix(1 0 0 1 1721 4264 )" mask="url(#clip117)" />
  </g>
</svg>