<?xml version="1.0" encoding="utf-8"?>
<svg version="1.1" xmlns:xlink="http://www.w3.org/1999/xlink" width="57px" height="32px" xmlns="http://www.w3.org/2000/svg">
  <defs>
    <mask fill="white" id="clip118">
      <path d="M 52.0215403580963 29.8607232894508  C 52.0215403580963 29.8607232894508  50.8952711348347 29.8687318844687  50.8952711348347 29.8687318844687  C 50.8952711348347 29.8687318844687  48.888234069562 29.7225750253899  48.888234069562 29.7225750253899  C 48.888234069562 29.7225750253899  47.4430661448827 31.9890074154874  47.4430661448827 31.9890074154874  C 47.4430661448827 31.9890074154874  45.4360290796097 31.9609773329245  45.4360290796097 31.9609773329245  C 45.4360290796097 31.9609773329245  44.0541347067991 30.7636923777315  44.0541347067991 30.7636923777315  C 44.0541347067991 30.7636923777315  44.5248899327017 28.5032664338975  44.5248899327017 28.5032664338975  C 44.5248899327017 28.5032664338975  41.5560948790257 25.051561981134  41.5560948790257 25.051561981134  C 41.5560948790257 25.051561981134  39.7034452803126 25.6862431363115  39.7034452803126 25.6862431363115  C 39.7034452803126 25.6862431363115  38.1874109775403 25.812378507845  38.1874109775403 25.812378507845  C 38.1874109775403 25.812378507845  36.2335236958372 26.1347244573199  36.2335236958372 26.1347244573199  C 36.2335236958372 26.1347244573199  36.314513842229 24.0665047939183  36.314513842229 24.0665047939183  C 36.314513842229 24.0665047939183  35.1730589665189 22.5909211618494  35.1730589665189 22.5909211618494  C 35.1730589665189 22.5909211618494  35.4033746953208 20.9471570344024  35.4033746953208 20.9471570344024  C 35.4033746953208 20.9471570344024  33.8645619138757 18.5706064628069  33.8645619138757 18.5706064628069  C 33.8645619138757 18.5706064628069  31.8904270955748 15.0918886174589  31.8904270955748 15.0918886174589  C 31.8904270955748 15.0918886174589  24.3773452865772 15.0858821711954  24.3773452865772 15.0858821711954  C 24.3773452865772 15.0858821711954  22.722109169694 17.6075729118909  22.722109169694 17.6075729118909  C 22.722109169694 17.6075729118909  20.7682218879909 17.7357104321792  20.7682218879909 17.7357104321792  C 20.7682218879909 17.7357104321792  19.5559006341881 18.9570211724263  19.5559006341881 18.9570211724263  C 19.5559006341881 18.9570211724263  18.7358754019707 20.5247036472022  18.7358754019707 20.5247036472022  C 18.7358754019707 20.5247036472022  14.9445241740028 23.0093702515405  14.9445241740028 23.0093702515405  C 14.9445241740028 23.0093702515405  11.8314654220665 19.6657818315203  11.8314654220665 19.6657818315203  C 11.8314654220665 19.6657818315203  9.07273856059433 17.4514053090398  9.07273856059433 17.4514053090398  C 9.07273856059433 17.4514053090398  7.25552215092749 15.2640734103463  7.25552215092749 15.2640734103463  C 7.25552215092749 15.2640734103463  5.48386269860622 14.1368636615609  5.48386269860622 14.1368636615609  C 5.48386269860622 14.1368636615609  4.67649217676239 11.6321755696772  4.67649217676239 11.6321755696772  C 4.67649217676239 11.6321755696772  3.63880592611694 10.3808325981127  3.63880592611694 10.3808325981127  C 3.63880592611694 10.3808325981127  1.57608813519974 9.44983342726879  1.57608813519974 9.44983342726879  C 1.57608813519974 9.44983342726879  4.73217290240684 6.67885955103636  4.73217290240684 6.67885955103636  C 4.73217290240684 6.67885955103636  6.88347366594014 6.78297128627078  6.88347366594014 6.78297128627078  C 6.88347366594014 6.78297128627078  8.73612326465326 5.82794633037272  8.73612326465326 5.82794633037272  C 8.73612326465326 5.82794633037272  10.3002454668457 5.81793558660006  10.3002454668457 5.81793558660006  C 10.3002454668457 5.81793558660006  11.418921863883 5.06312550615224  11.418921863883 5.06312550615224  C 11.418921863883 5.06312550615224  10.814026708019 3.17509923065584  10.814026708019 3.17509923065584  C 10.814026708019 3.17509923065584  11.5935568670404 2.57845890181389  11.5935568670404 2.57845890181389  C 11.5935568670404 2.57845890181389  11.7226349128524 0.640378907454843  11.7226349128524 0.640378907454843  C 11.7226349128524 0.640378907454843  15.1469995399824 0.700443370089819  15.1469995399824 0.700443370089819  C 15.1469995399824 0.700443370089819  20.2493787626682 2.09393890322396  20.2493787626682 2.09393890322396  C 20.2493787626682 2.09393890322396  21.8135009648606 1.96580138293608  21.8135009648606 1.96580138293608  C 21.8135009648606 1.96580138293608  22.344998800557 1.32911807900415  22.344998800557 1.32911807900415  C 22.344998800557 1.32911807900415  26.214809232842 1.78160369752169  26.214809232842 1.78160369752169  C 26.214809232842 1.78160369752169  27.2398407731139 1.45925774804676  27.2398407731139 1.45925774804676  C 27.2398407731139 1.45925774804676  29.4860321245669 3.54950104774815  29.4860321245669 3.54950104774815  C 29.4860321245669 3.54950104774815  30.6123013478287 3.54349460148462  30.6123013478287 3.54349460148462  C 30.6123013478287 3.54349460148462  32.4649509465418 2.78267807477327  32.4649509465418 2.78267807477327  C 32.4649509465418 2.78267807477327  33.6418390112984 2.97288220645119  33.6418390112984 2.97288220645119  C 33.6418390112984 2.97288220645119  35.6109119454498 4.42043575595678  35.6109119454498 4.42043575595678  C 35.6109119454498 4.42043575595678  38.6480424351438 4.87692567198379  38.6480424351438 4.87692567198379  C 38.6480424351438 4.87692567198379  40.5943368906226 3.64360203920958  40.5943368906226 3.64360203920958  C 40.5943368906226 3.64360203920958  42.8873704103417 2.87878121498943  42.8873704103417 2.87878121498943  C 42.8873704103417 2.87878121498943  44.5932253687198 2.07992386194283  44.5932253687198 2.07992386194283  C 44.5932253687198 2.07992386194283  46.0130838726517 2.23008501853044  46.0130838726517 2.23008501853044  C 46.0130838726517 2.23008501853044  47.5898607852178 3.48343013884931  47.5898607852178 3.48343013884931  C 47.5898607852178 3.48343013884931  48.4351954381826 5.05711905988871  48.4351954381826 5.05711905988871  C 48.4351954381826 5.05711905988871  51.3432478820647 7.4416782265021  51.3432478820647 7.4416782265021  C 51.3432478820647 7.4416782265021  49.8879561890863 8.90524896604422  49.8879561890863 8.90524896604422  C 49.8879561890863 8.90524896604422  49.6120835029391 10.7532322664506  49.6120835029391 10.7532322664506  C 49.6120835029391 10.7532322664506  51.1230559215617 10.1946327639443  51.1230559215617 10.1946327639443  C 51.1230559215617 10.1946327639443  52.0088856477224 10.8573440016847  52.0088856477224 10.8573440016847  C 52.0088856477224 10.8573440016847  51.6343062206602 12.5471575504853  51.6343062206602 12.5471575504853  C 51.6343062206602 12.5471575504853  53.800792636642 14.1829130829144  53.800792636642 14.1829130829144  C 53.800792636642 14.1829130829144  52.3859960168593 14.6213836601505  52.3859960168593 14.6213836601505  C 52.3859960168593 14.6213836601505  51.8165340500418 17.9979919190191  51.8165340500418 17.9979919190191  C 51.8165340500418 17.9979919190191  53.4515226303272 20.336501664279  53.4515226303272 20.336501664279  C 53.4515226303272 20.336501664279  55.2054654881254 24.8553514031926  55.2054654881254 24.8553514031926  C 55.2054654881254 24.8553514031926  52.568223846241 25.5340798309692  52.568223846241 25.5340798309692  C 52.568223846241 25.5340798309692  51.8899313702094 26.3169199939799  51.8899313702094 26.3169199939799  C 51.8899313702094 26.3169199939799  52.4391458004292 27.4060889164297  52.4391458004292 27.4060889164297  C 52.4391458004292 27.4060889164297  52.0215403580963 29.8607232894508  52.0215403580963 29.8607232894508  Z " fill-rule="evenodd" />
    </mask>
  </defs>
  <g transform="matrix(1 0 0 1 -1730 -4272 )">
    <path d="M 52.0215403580963 29.8607232894508  C 52.0215403580963 29.8607232894508  50.8952711348347 29.8687318844687  50.8952711348347 29.8687318844687  C 50.8952711348347 29.8687318844687  48.888234069562 29.7225750253899  48.888234069562 29.7225750253899  C 48.888234069562 29.7225750253899  47.4430661448827 31.9890074154874  47.4430661448827 31.9890074154874  C 47.4430661448827 31.9890074154874  45.4360290796097 31.9609773329245  45.4360290796097 31.9609773329245  C 45.4360290796097 31.9609773329245  44.0541347067991 30.7636923777315  44.0541347067991 30.7636923777315  C 44.0541347067991 30.7636923777315  44.5248899327017 28.5032664338975  44.5248899327017 28.5032664338975  C 44.5248899327017 28.5032664338975  41.5560948790257 25.051561981134  41.5560948790257 25.051561981134  C 41.5560948790257 25.051561981134  39.7034452803126 25.6862431363115  39.7034452803126 25.6862431363115  C 39.7034452803126 25.6862431363115  38.1874109775403 25.812378507845  38.1874109775403 25.812378507845  C 38.1874109775403 25.812378507845  36.2335236958372 26.1347244573199  36.2335236958372 26.1347244573199  C 36.2335236958372 26.1347244573199  36.314513842229 24.0665047939183  36.314513842229 24.0665047939183  C 36.314513842229 24.0665047939183  35.1730589665189 22.5909211618494  35.1730589665189 22.5909211618494  C 35.1730589665189 22.5909211618494  35.4033746953208 20.9471570344024  35.4033746953208 20.9471570344024  C 35.4033746953208 20.9471570344024  33.8645619138757 18.5706064628069  33.8645619138757 18.5706064628069  C 33.8645619138757 18.5706064628069  31.8904270955748 15.0918886174589  31.8904270955748 15.0918886174589  C 31.8904270955748 15.0918886174589  24.3773452865772 15.0858821711954  24.3773452865772 15.0858821711954  C 24.3773452865772 15.0858821711954  22.722109169694 17.6075729118909  22.722109169694 17.6075729118909  C 22.722109169694 17.6075729118909  20.7682218879909 17.7357104321792  20.7682218879909 17.7357104321792  C 20.7682218879909 17.7357104321792  19.5559006341881 18.9570211724263  19.5559006341881 18.9570211724263  C 19.5559006341881 18.9570211724263  18.7358754019707 20.5247036472022  18.7358754019707 20.5247036472022  C 18.7358754019707 20.5247036472022  14.9445241740028 23.0093702515405  14.9445241740028 23.0093702515405  C 14.9445241740028 23.0093702515405  11.8314654220665 19.6657818315203  11.8314654220665 19.6657818315203  C 11.8314654220665 19.6657818315203  9.07273856059433 17.4514053090398  9.07273856059433 17.4514053090398  C 9.07273856059433 17.4514053090398  7.25552215092749 15.2640734103463  7.25552215092749 15.2640734103463  C 7.25552215092749 15.2640734103463  5.48386269860622 14.1368636615609  5.48386269860622 14.1368636615609  C 5.48386269860622 14.1368636615609  4.67649217676239 11.6321755696772  4.67649217676239 11.6321755696772  C 4.67649217676239 11.6321755696772  3.63880592611694 10.3808325981127  3.63880592611694 10.3808325981127  C 3.63880592611694 10.3808325981127  1.57608813519974 9.44983342726879  1.57608813519974 9.44983342726879  C 1.57608813519974 9.44983342726879  4.73217290240684 6.67885955103636  4.73217290240684 6.67885955103636  C 4.73217290240684 6.67885955103636  6.88347366594014 6.78297128627078  6.88347366594014 6.78297128627078  C 6.88347366594014 6.78297128627078  8.73612326465326 5.82794633037272  8.73612326465326 5.82794633037272  C 8.73612326465326 5.82794633037272  10.3002454668457 5.81793558660006  10.3002454668457 5.81793558660006  C 10.3002454668457 5.81793558660006  11.418921863883 5.06312550615224  11.418921863883 5.06312550615224  C 11.418921863883 5.06312550615224  10.814026708019 3.17509923065584  10.814026708019 3.17509923065584  C 10.814026708019 3.17509923065584  11.5935568670404 2.57845890181389  11.5935568670404 2.57845890181389  C 11.5935568670404 2.57845890181389  11.7226349128524 0.640378907454843  11.7226349128524 0.640378907454843  C 11.7226349128524 0.640378907454843  15.1469995399824 0.700443370089819  15.1469995399824 0.700443370089819  C 15.1469995399824 0.700443370089819  20.2493787626682 2.09393890322396  20.2493787626682 2.09393890322396  C 20.2493787626682 2.09393890322396  21.8135009648606 1.96580138293608  21.8135009648606 1.96580138293608  C 21.8135009648606 1.96580138293608  22.344998800557 1.32911807900415  22.344998800557 1.32911807900415  C 22.344998800557 1.32911807900415  26.214809232842 1.78160369752169  26.214809232842 1.78160369752169  C 26.214809232842 1.78160369752169  27.2398407731139 1.45925774804676  27.2398407731139 1.45925774804676  C 27.2398407731139 1.45925774804676  29.4860321245669 3.54950104774815  29.4860321245669 3.54950104774815  C 29.4860321245669 3.54950104774815  30.6123013478287 3.54349460148462  30.6123013478287 3.54349460148462  C 30.6123013478287 3.54349460148462  32.4649509465418 2.78267807477327  32.4649509465418 2.78267807477327  C 32.4649509465418 2.78267807477327  33.6418390112984 2.97288220645119  33.6418390112984 2.97288220645119  C 33.6418390112984 2.97288220645119  35.6109119454498 4.42043575595678  35.6109119454498 4.42043575595678  C 35.6109119454498 4.42043575595678  38.6480424351438 4.87692567198379  38.6480424351438 4.87692567198379  C 38.6480424351438 4.87692567198379  40.5943368906226 3.64360203920958  40.5943368906226 3.64360203920958  C 40.5943368906226 3.64360203920958  42.8873704103417 2.87878121498943  42.8873704103417 2.87878121498943  C 42.8873704103417 2.87878121498943  44.5932253687198 2.07992386194283  44.5932253687198 2.07992386194283  C 44.5932253687198 2.07992386194283  46.0130838726517 2.23008501853044  46.0130838726517 2.23008501853044  C 46.0130838726517 2.23008501853044  47.5898607852178 3.48343013884931  47.5898607852178 3.48343013884931  C 47.5898607852178 3.48343013884931  48.4351954381826 5.05711905988871  48.4351954381826 5.05711905988871  C 48.4351954381826 5.05711905988871  51.3432478820647 7.4416782265021  51.3432478820647 7.4416782265021  C 51.3432478820647 7.4416782265021  49.8879561890863 8.90524896604422  49.8879561890863 8.90524896604422  C 49.8879561890863 8.90524896604422  49.6120835029391 10.7532322664506  49.6120835029391 10.7532322664506  C 49.6120835029391 10.7532322664506  51.1230559215617 10.1946327639443  51.1230559215617 10.1946327639443  C 51.1230559215617 10.1946327639443  52.0088856477224 10.8573440016847  52.0088856477224 10.8573440016847  C 52.0088856477224 10.8573440016847  51.6343062206602 12.5471575504853  51.6343062206602 12.5471575504853  C 51.6343062206602 12.5471575504853  53.800792636642 14.1829130829144  53.800792636642 14.1829130829144  C 53.800792636642 14.1829130829144  52.3859960168593 14.6213836601505  52.3859960168593 14.6213836601505  C 52.3859960168593 14.6213836601505  51.8165340500418 17.9979919190191  51.8165340500418 17.9979919190191  C 51.8165340500418 17.9979919190191  53.4515226303272 20.336501664279  53.4515226303272 20.336501664279  C 53.4515226303272 20.336501664279  55.2054654881254 24.8553514031926  55.2054654881254 24.8553514031926  C 55.2054654881254 24.8553514031926  52.568223846241 25.5340798309692  52.568223846241 25.5340798309692  C 52.568223846241 25.5340798309692  51.8899313702094 26.3169199939799  51.8899313702094 26.3169199939799  C 51.8899313702094 26.3169199939799  52.4391458004292 27.4060889164297  52.4391458004292 27.4060889164297  C 52.4391458004292 27.4060889164297  52.0215403580963 29.8607232894508  52.0215403580963 29.8607232894508  Z " fill-rule="nonzero" fill="#f2f2f2" stroke="none" transform="matrix(1 0 0 1 1730 4272 )" />
    <path d="M 52.0215403580963 29.8607232894508  C 52.0215403580963 29.8607232894508  50.8952711348347 29.8687318844687  50.8952711348347 29.8687318844687  C 50.8952711348347 29.8687318844687  48.888234069562 29.7225750253899  48.888234069562 29.7225750253899  C 48.888234069562 29.7225750253899  47.4430661448827 31.9890074154874  47.4430661448827 31.9890074154874  C 47.4430661448827 31.9890074154874  45.4360290796097 31.9609773329245  45.4360290796097 31.9609773329245  C 45.4360290796097 31.9609773329245  44.0541347067991 30.7636923777315  44.0541347067991 30.7636923777315  C 44.0541347067991 30.7636923777315  44.5248899327017 28.5032664338975  44.5248899327017 28.5032664338975  C 44.5248899327017 28.5032664338975  41.5560948790257 25.051561981134  41.5560948790257 25.051561981134  C 41.5560948790257 25.051561981134  39.7034452803126 25.6862431363115  39.7034452803126 25.6862431363115  C 39.7034452803126 25.6862431363115  38.1874109775403 25.812378507845  38.1874109775403 25.812378507845  C 38.1874109775403 25.812378507845  36.2335236958372 26.1347244573199  36.2335236958372 26.1347244573199  C 36.2335236958372 26.1347244573199  36.314513842229 24.0665047939183  36.314513842229 24.0665047939183  C 36.314513842229 24.0665047939183  35.1730589665189 22.5909211618494  35.1730589665189 22.5909211618494  C 35.1730589665189 22.5909211618494  35.4033746953208 20.9471570344024  35.4033746953208 20.9471570344024  C 35.4033746953208 20.9471570344024  33.8645619138757 18.5706064628069  33.8645619138757 18.5706064628069  C 33.8645619138757 18.5706064628069  31.8904270955748 15.0918886174589  31.8904270955748 15.0918886174589  C 31.8904270955748 15.0918886174589  24.3773452865772 15.0858821711954  24.3773452865772 15.0858821711954  C 24.3773452865772 15.0858821711954  22.722109169694 17.6075729118909  22.722109169694 17.6075729118909  C 22.722109169694 17.6075729118909  20.7682218879909 17.7357104321792  20.7682218879909 17.7357104321792  C 20.7682218879909 17.7357104321792  19.5559006341881 18.9570211724263  19.5559006341881 18.9570211724263  C 19.5559006341881 18.9570211724263  18.7358754019707 20.5247036472022  18.7358754019707 20.5247036472022  C 18.7358754019707 20.5247036472022  14.9445241740028 23.0093702515405  14.9445241740028 23.0093702515405  C 14.9445241740028 23.0093702515405  11.8314654220665 19.6657818315203  11.8314654220665 19.6657818315203  C 11.8314654220665 19.6657818315203  9.07273856059433 17.4514053090398  9.07273856059433 17.4514053090398  C 9.07273856059433 17.4514053090398  7.25552215092749 15.2640734103463  7.25552215092749 15.2640734103463  C 7.25552215092749 15.2640734103463  5.48386269860622 14.1368636615609  5.48386269860622 14.1368636615609  C 5.48386269860622 14.1368636615609  4.67649217676239 11.6321755696772  4.67649217676239 11.6321755696772  C 4.67649217676239 11.6321755696772  3.63880592611694 10.3808325981127  3.63880592611694 10.3808325981127  C 3.63880592611694 10.3808325981127  1.57608813519974 9.44983342726879  1.57608813519974 9.44983342726879  C 1.57608813519974 9.44983342726879  4.73217290240684 6.67885955103636  4.73217290240684 6.67885955103636  C 4.73217290240684 6.67885955103636  6.88347366594014 6.78297128627078  6.88347366594014 6.78297128627078  C 6.88347366594014 6.78297128627078  8.73612326465326 5.82794633037272  8.73612326465326 5.82794633037272  C 8.73612326465326 5.82794633037272  10.3002454668457 5.81793558660006  10.3002454668457 5.81793558660006  C 10.3002454668457 5.81793558660006  11.418921863883 5.06312550615224  11.418921863883 5.06312550615224  C 11.418921863883 5.06312550615224  10.814026708019 3.17509923065584  10.814026708019 3.17509923065584  C 10.814026708019 3.17509923065584  11.5935568670404 2.57845890181389  11.5935568670404 2.57845890181389  C 11.5935568670404 2.57845890181389  11.7226349128524 0.640378907454843  11.7226349128524 0.640378907454843  C 11.7226349128524 0.640378907454843  15.1469995399824 0.700443370089819  15.1469995399824 0.700443370089819  C 15.1469995399824 0.700443370089819  20.2493787626682 2.09393890322396  20.2493787626682 2.09393890322396  C 20.2493787626682 2.09393890322396  21.8135009648606 1.96580138293608  21.8135009648606 1.96580138293608  C 21.8135009648606 1.96580138293608  22.344998800557 1.32911807900415  22.344998800557 1.32911807900415  C 22.344998800557 1.32911807900415  26.214809232842 1.78160369752169  26.214809232842 1.78160369752169  C 26.214809232842 1.78160369752169  27.2398407731139 1.45925774804676  27.2398407731139 1.45925774804676  C 27.2398407731139 1.45925774804676  29.4860321245669 3.54950104774815  29.4860321245669 3.54950104774815  C 29.4860321245669 3.54950104774815  30.6123013478287 3.54349460148462  30.6123013478287 3.54349460148462  C 30.6123013478287 3.54349460148462  32.4649509465418 2.78267807477327  32.4649509465418 2.78267807477327  C 32.4649509465418 2.78267807477327  33.6418390112984 2.97288220645119  33.6418390112984 2.97288220645119  C 33.6418390112984 2.97288220645119  35.6109119454498 4.42043575595678  35.6109119454498 4.42043575595678  C 35.6109119454498 4.42043575595678  38.6480424351438 4.87692567198379  38.6480424351438 4.87692567198379  C 38.6480424351438 4.87692567198379  40.5943368906226 3.64360203920958  40.5943368906226 3.64360203920958  C 40.5943368906226 3.64360203920958  42.8873704103417 2.87878121498943  42.8873704103417 2.87878121498943  C 42.8873704103417 2.87878121498943  44.5932253687198 2.07992386194283  44.5932253687198 2.07992386194283  C 44.5932253687198 2.07992386194283  46.0130838726517 2.23008501853044  46.0130838726517 2.23008501853044  C 46.0130838726517 2.23008501853044  47.5898607852178 3.48343013884931  47.5898607852178 3.48343013884931  C 47.5898607852178 3.48343013884931  48.4351954381826 5.05711905988871  48.4351954381826 5.05711905988871  C 48.4351954381826 5.05711905988871  51.3432478820647 7.4416782265021  51.3432478820647 7.4416782265021  C 51.3432478820647 7.4416782265021  49.8879561890863 8.90524896604422  49.8879561890863 8.90524896604422  C 49.8879561890863 8.90524896604422  49.6120835029391 10.7532322664506  49.6120835029391 10.7532322664506  C 49.6120835029391 10.7532322664506  51.1230559215617 10.1946327639443  51.1230559215617 10.1946327639443  C 51.1230559215617 10.1946327639443  52.0088856477224 10.8573440016847  52.0088856477224 10.8573440016847  C 52.0088856477224 10.8573440016847  51.6343062206602 12.5471575504853  51.6343062206602 12.5471575504853  C 51.6343062206602 12.5471575504853  53.800792636642 14.1829130829144  53.800792636642 14.1829130829144  C 53.800792636642 14.1829130829144  52.3859960168593 14.6213836601505  52.3859960168593 14.6213836601505  C 52.3859960168593 14.6213836601505  51.8165340500418 17.9979919190191  51.8165340500418 17.9979919190191  C 51.8165340500418 17.9979919190191  53.4515226303272 20.336501664279  53.4515226303272 20.336501664279  C 53.4515226303272 20.336501664279  55.2054654881254 24.8553514031926  55.2054654881254 24.8553514031926  C 55.2054654881254 24.8553514031926  52.568223846241 25.5340798309692  52.568223846241 25.5340798309692  C 52.568223846241 25.5340798309692  51.8899313702094 26.3169199939799  51.8899313702094 26.3169199939799  C 51.8899313702094 26.3169199939799  52.4391458004292 27.4060889164297  52.4391458004292 27.4060889164297  C 52.4391458004292 27.4060889164297  52.0215403580963 29.8607232894508  52.0215403580963 29.8607232894508  Z " stroke-width="2" stroke="#505050" fill="none" stroke-opacity="0.211764705882353" transform="matrix(1 0 0 1 1730 4272 )" mask="url(#clip118)" />
  </g>
</svg>