<?xml version="1.0" encoding="utf-8"?>
<svg version="1.1" xmlns:xlink="http://www.w3.org/1999/xlink" width="74px" height="56px" xmlns="http://www.w3.org/2000/svg">
  <defs>
    <mask fill="white" id="clip5">
      <path d="M 11.1716987443728 39.7822877924468  C 11.1716987443728 39.7822877924468  7.78487642468473 36.8835715568645  7.78487642468473 36.8835715568645  C 7.78487642468473 36.8835715568645  4.85896751842811 31.0739681287977  4.85896751842811 31.0739681287977  C 4.85896751842811 31.0739681287977  5.41664728385067 26.4297496452029  5.41664728385067 26.4297496452029  C 5.41664728385067 26.4297496452029  3.64938811853989 21.4619707362169  3.64938811853989 21.4619707362169  C 3.64938811853989 21.4619707362169  1.05706847835763 18.1169860808809  1.05706847835763 18.1169860808809  C 1.05706847835763 18.1169860808809  3.0484181430164 15.5935410164552  3.0484181430164 15.5935410164552  C 3.0484181430164 15.5935410164552  1.37792532969634 10.7393577052248  1.37792532969634 10.7393577052248  C 1.37792532969634 10.7393577052248  6.25698665640481 7.90961022542266  6.25698665640481 7.90961022542266  C 6.25698665640481 7.90961022542266  17.400396033062 3.41447014281233  17.400396033062 3.41447014281233  C 17.400396033062 3.41447014281233  26.3920273193912 0.091798908463955  26.3920273193912 0.091798908463955  C 26.3920273193912 0.091798908463955  33.5170866054715 1.75516301845518  33.5170866054715 1.75516301845518  C 33.5170866054715 1.75516301845518  34.0543945073168 4.14269906413773  34.0543945073168 4.14269906413773  C 34.0543945073168 4.14269906413773  42.7900843963669 4.26440863316148  42.7900843963669 4.26440863316148  C 42.7900843963669 4.26440863316148  51.5856364957666 5.37196571127752  51.5856364957666 5.37196571127752  C 51.5856364957666 5.37196571127752  64.7153025711883 5.22591422844902  64.7153025711883 5.22591422844902  C 64.7153025711883 5.22591422844902  68.3771450491667 6.26450255078505  68.3771450491667 6.26450255078505  C 68.3771450491667 6.26450255078505  70.0909280725877 9.2443584990497  70.0909280725877 9.2443584990497  C 70.0909280725877 9.2443584990497  70.401598992138 13.4839084867104  70.401598992138 13.4839084867104  C 70.401598992138 13.4839084867104  72.3827627250081 17.0925972082644  72.3827627250081 17.0925972082644  C 72.3827627250081 17.0925972082644  72.3394725149066 20.8412519341958  72.3394725149066 20.8412519341958  C 72.3394725149066 20.8412519341958  68.058834680775 22.7480351822346  68.058834680775 22.7480351822346  C 68.058834680775 22.7480351822346  70.2615424300457 28.5160386864819  70.2615424300457 28.5160386864819  C 70.2615424300457 28.5160386864819  70.3965060262438 32.5993947272287  70.3965060262438 32.5993947272287  C 70.3965060262438 32.5993947272287  73.9870469817023 40.4922602784186  73.9870469817023 40.4922602784186  C 73.9870469817023 40.4922602784186  73.2231020975621 42.9974489074908  73.2231020975621 42.9974489074908  C 73.2231020975621 42.9974489074908  69.6809443180991 44.0340087370097  69.6809443180991 44.0340087370097  C 69.6809443180991 44.0340087370097  63.1975987346966 51.3548393137881  63.1975987346966 51.3548393137881  C 63.1975987346966 51.3548393137881  65.0387059054742 55.2596879866333  65.0387059054742 55.2596879866333  C 65.0387059054742 55.2596879866333  63.4777118588812 54.7566217680019  63.4777118588812 54.7566217680019  C 63.4777118588812 54.7566217680019  56.6938812877169 51.4136656054829  56.6938812877169 51.4136656054829  C 56.6938812877169 51.4136656054829  51.5550787004011 52.6469892382569  51.5550787004011 52.6469892382569  C 51.5550787004011 52.6469892382569  48.1835352783959 51.7524239059323  48.1835352783959 51.7524239059323  C 48.1835352783959 51.7524239059323  43.9640130349954 53.6166088048127  43.9640130349954 53.6166088048127  C 43.9640130349954 53.6166088048127  40.3632861477482 50.5272142444266  40.3632861477482 50.5272142444266  C 40.3632861477482 50.5272142444266  35.5771913097029 51.7138825424082  35.5771913097029 51.7138825424082  C 35.5771913097029 51.7138825424082  35.1748470040557 51.1864744099718  35.1748470040557 51.1864744099718  C 35.1748470040557 51.1864744099718  31.889884002253 46.8657847096288  31.889884002253 46.8657847096288  C 31.889884002253 46.8657847096288  26.5804670574793 46.3302626059243  26.5804670574793 46.3302626059243  C 26.5804670574793 46.3302626059243  25.9056490764889 43.557312925  25.9056490764889 43.557312925  C 25.9056490764889 43.557312925  21.0062158862034 42.5613229518224  21.0062158862034 42.5613229518224  C 21.0062158862034 42.5613229518224  19.9417860143014 44.85554832792  19.9417860143014 44.85554832792  C 19.9417860143014 44.85554832792  16.0634924858169 43.0197623284785  16.0634924858169 43.0197623284785  C 16.0634924858169 43.0197623284785  16.5091270015652 40.5632575270159  16.5091270015652 40.5632575270159  C 16.5091270015652 40.5632575270159  11.1716987443728 39.7822877924468  11.1716987443728 39.7822877924468  Z " fill-rule="evenodd" />
    </mask>
  </defs>
  <g transform="matrix(1 0 0 1 -1939 -3977 )">
    <path d="M 11.1716987443728 39.7822877924468  C 11.1716987443728 39.7822877924468  7.78487642468473 36.8835715568645  7.78487642468473 36.8835715568645  C 7.78487642468473 36.8835715568645  4.85896751842811 31.0739681287977  4.85896751842811 31.0739681287977  C 4.85896751842811 31.0739681287977  5.41664728385067 26.4297496452029  5.41664728385067 26.4297496452029  C 5.41664728385067 26.4297496452029  3.64938811853989 21.4619707362169  3.64938811853989 21.4619707362169  C 3.64938811853989 21.4619707362169  1.05706847835763 18.1169860808809  1.05706847835763 18.1169860808809  C 1.05706847835763 18.1169860808809  3.0484181430164 15.5935410164552  3.0484181430164 15.5935410164552  C 3.0484181430164 15.5935410164552  1.37792532969634 10.7393577052248  1.37792532969634 10.7393577052248  C 1.37792532969634 10.7393577052248  6.25698665640481 7.90961022542266  6.25698665640481 7.90961022542266  C 6.25698665640481 7.90961022542266  17.400396033062 3.41447014281233  17.400396033062 3.41447014281233  C 17.400396033062 3.41447014281233  26.3920273193912 0.091798908463955  26.3920273193912 0.091798908463955  C 26.3920273193912 0.091798908463955  33.5170866054715 1.75516301845518  33.5170866054715 1.75516301845518  C 33.5170866054715 1.75516301845518  34.0543945073168 4.14269906413773  34.0543945073168 4.14269906413773  C 34.0543945073168 4.14269906413773  42.7900843963669 4.26440863316148  42.7900843963669 4.26440863316148  C 42.7900843963669 4.26440863316148  51.5856364957666 5.37196571127752  51.5856364957666 5.37196571127752  C 51.5856364957666 5.37196571127752  64.7153025711883 5.22591422844902  64.7153025711883 5.22591422844902  C 64.7153025711883 5.22591422844902  68.3771450491667 6.26450255078505  68.3771450491667 6.26450255078505  C 68.3771450491667 6.26450255078505  70.0909280725877 9.2443584990497  70.0909280725877 9.2443584990497  C 70.0909280725877 9.2443584990497  70.401598992138 13.4839084867104  70.401598992138 13.4839084867104  C 70.401598992138 13.4839084867104  72.3827627250081 17.0925972082644  72.3827627250081 17.0925972082644  C 72.3827627250081 17.0925972082644  72.3394725149066 20.8412519341958  72.3394725149066 20.8412519341958  C 72.3394725149066 20.8412519341958  68.058834680775 22.7480351822346  68.058834680775 22.7480351822346  C 68.058834680775 22.7480351822346  70.2615424300457 28.5160386864819  70.2615424300457 28.5160386864819  C 70.2615424300457 28.5160386864819  70.3965060262438 32.5993947272287  70.3965060262438 32.5993947272287  C 70.3965060262438 32.5993947272287  73.9870469817023 40.4922602784186  73.9870469817023 40.4922602784186  C 73.9870469817023 40.4922602784186  73.2231020975621 42.9974489074908  73.2231020975621 42.9974489074908  C 73.2231020975621 42.9974489074908  69.6809443180991 44.0340087370097  69.6809443180991 44.0340087370097  C 69.6809443180991 44.0340087370097  63.1975987346966 51.3548393137881  63.1975987346966 51.3548393137881  C 63.1975987346966 51.3548393137881  65.0387059054742 55.2596879866333  65.0387059054742 55.2596879866333  C 65.0387059054742 55.2596879866333  63.4777118588812 54.7566217680019  63.4777118588812 54.7566217680019  C 63.4777118588812 54.7566217680019  56.6938812877169 51.4136656054829  56.6938812877169 51.4136656054829  C 56.6938812877169 51.4136656054829  51.5550787004011 52.6469892382569  51.5550787004011 52.6469892382569  C 51.5550787004011 52.6469892382569  48.1835352783959 51.7524239059323  48.1835352783959 51.7524239059323  C 48.1835352783959 51.7524239059323  43.9640130349954 53.6166088048127  43.9640130349954 53.6166088048127  C 43.9640130349954 53.6166088048127  40.3632861477482 50.5272142444266  40.3632861477482 50.5272142444266  C 40.3632861477482 50.5272142444266  35.5771913097029 51.7138825424082  35.5771913097029 51.7138825424082  C 35.5771913097029 51.7138825424082  35.1748470040557 51.1864744099718  35.1748470040557 51.1864744099718  C 35.1748470040557 51.1864744099718  31.889884002253 46.8657847096288  31.889884002253 46.8657847096288  C 31.889884002253 46.8657847096288  26.5804670574793 46.3302626059243  26.5804670574793 46.3302626059243  C 26.5804670574793 46.3302626059243  25.9056490764889 43.557312925  25.9056490764889 43.557312925  C 25.9056490764889 43.557312925  21.0062158862034 42.5613229518224  21.0062158862034 42.5613229518224  C 21.0062158862034 42.5613229518224  19.9417860143014 44.85554832792  19.9417860143014 44.85554832792  C 19.9417860143014 44.85554832792  16.0634924858169 43.0197623284785  16.0634924858169 43.0197623284785  C 16.0634924858169 43.0197623284785  16.5091270015652 40.5632575270159  16.5091270015652 40.5632575270159  C 16.5091270015652 40.5632575270159  11.1716987443728 39.7822877924468  11.1716987443728 39.7822877924468  Z " fill-rule="nonzero" fill="#81ecec" stroke="none" transform="matrix(1 0 0 1 1939 3977 )" />
    <path d="M 11.1716987443728 39.7822877924468  C 11.1716987443728 39.7822877924468  7.78487642468473 36.8835715568645  7.78487642468473 36.8835715568645  C 7.78487642468473 36.8835715568645  4.85896751842811 31.0739681287977  4.85896751842811 31.0739681287977  C 4.85896751842811 31.0739681287977  5.41664728385067 26.4297496452029  5.41664728385067 26.4297496452029  C 5.41664728385067 26.4297496452029  3.64938811853989 21.4619707362169  3.64938811853989 21.4619707362169  C 3.64938811853989 21.4619707362169  1.05706847835763 18.1169860808809  1.05706847835763 18.1169860808809  C 1.05706847835763 18.1169860808809  3.0484181430164 15.5935410164552  3.0484181430164 15.5935410164552  C 3.0484181430164 15.5935410164552  1.37792532969634 10.7393577052248  1.37792532969634 10.7393577052248  C 1.37792532969634 10.7393577052248  6.25698665640481 7.90961022542266  6.25698665640481 7.90961022542266  C 6.25698665640481 7.90961022542266  17.400396033062 3.41447014281233  17.400396033062 3.41447014281233  C 17.400396033062 3.41447014281233  26.3920273193912 0.091798908463955  26.3920273193912 0.091798908463955  C 26.3920273193912 0.091798908463955  33.5170866054715 1.75516301845518  33.5170866054715 1.75516301845518  C 33.5170866054715 1.75516301845518  34.0543945073168 4.14269906413773  34.0543945073168 4.14269906413773  C 34.0543945073168 4.14269906413773  42.7900843963669 4.26440863316148  42.7900843963669 4.26440863316148  C 42.7900843963669 4.26440863316148  51.5856364957666 5.37196571127752  51.5856364957666 5.37196571127752  C 51.5856364957666 5.37196571127752  64.7153025711883 5.22591422844902  64.7153025711883 5.22591422844902  C 64.7153025711883 5.22591422844902  68.3771450491667 6.26450255078505  68.3771450491667 6.26450255078505  C 68.3771450491667 6.26450255078505  70.0909280725877 9.2443584990497  70.0909280725877 9.2443584990497  C 70.0909280725877 9.2443584990497  70.401598992138 13.4839084867104  70.401598992138 13.4839084867104  C 70.401598992138 13.4839084867104  72.3827627250081 17.0925972082644  72.3827627250081 17.0925972082644  C 72.3827627250081 17.0925972082644  72.3394725149066 20.8412519341958  72.3394725149066 20.8412519341958  C 72.3394725149066 20.8412519341958  68.058834680775 22.7480351822346  68.058834680775 22.7480351822346  C 68.058834680775 22.7480351822346  70.2615424300457 28.5160386864819  70.2615424300457 28.5160386864819  C 70.2615424300457 28.5160386864819  70.3965060262438 32.5993947272287  70.3965060262438 32.5993947272287  C 70.3965060262438 32.5993947272287  73.9870469817023 40.4922602784186  73.9870469817023 40.4922602784186  C 73.9870469817023 40.4922602784186  73.2231020975621 42.9974489074908  73.2231020975621 42.9974489074908  C 73.2231020975621 42.9974489074908  69.6809443180991 44.0340087370097  69.6809443180991 44.0340087370097  C 69.6809443180991 44.0340087370097  63.1975987346966 51.3548393137881  63.1975987346966 51.3548393137881  C 63.1975987346966 51.3548393137881  65.0387059054742 55.2596879866333  65.0387059054742 55.2596879866333  C 65.0387059054742 55.2596879866333  63.4777118588812 54.7566217680019  63.4777118588812 54.7566217680019  C 63.4777118588812 54.7566217680019  56.6938812877169 51.4136656054829  56.6938812877169 51.4136656054829  C 56.6938812877169 51.4136656054829  51.5550787004011 52.6469892382569  51.5550787004011 52.6469892382569  C 51.5550787004011 52.6469892382569  48.1835352783959 51.7524239059323  48.1835352783959 51.7524239059323  C 48.1835352783959 51.7524239059323  43.9640130349954 53.6166088048127  43.9640130349954 53.6166088048127  C 43.9640130349954 53.6166088048127  40.3632861477482 50.5272142444266  40.3632861477482 50.5272142444266  C 40.3632861477482 50.5272142444266  35.5771913097029 51.7138825424082  35.5771913097029 51.7138825424082  C 35.5771913097029 51.7138825424082  35.1748470040557 51.1864744099718  35.1748470040557 51.1864744099718  C 35.1748470040557 51.1864744099718  31.889884002253 46.8657847096288  31.889884002253 46.8657847096288  C 31.889884002253 46.8657847096288  26.5804670574793 46.3302626059243  26.5804670574793 46.3302626059243  C 26.5804670574793 46.3302626059243  25.9056490764889 43.557312925  25.9056490764889 43.557312925  C 25.9056490764889 43.557312925  21.0062158862034 42.5613229518224  21.0062158862034 42.5613229518224  C 21.0062158862034 42.5613229518224  19.9417860143014 44.85554832792  19.9417860143014 44.85554832792  C 19.9417860143014 44.85554832792  16.0634924858169 43.0197623284785  16.0634924858169 43.0197623284785  C 16.0634924858169 43.0197623284785  16.5091270015652 40.5632575270159  16.5091270015652 40.5632575270159  C 16.5091270015652 40.5632575270159  11.1716987443728 39.7822877924468  11.1716987443728 39.7822877924468  Z " stroke-width="2" stroke="#505050" fill="none" stroke-opacity="0.211764705882353" transform="matrix(1 0 0 1 1939 3977 )" mask="url(#clip5)" />
  </g>
</svg>