<?xml version="1.0" encoding="utf-8"?>
<svg version="1.1" xmlns:xlink="http://www.w3.org/1999/xlink" width="17px" height="11px" xmlns="http://www.w3.org/2000/svg">
  <defs>
    <mask fill="white" id="clip119">
      <path d="M 4.13653896197123 9.42142647301979  C 4.13653896197123 9.42142647301979  1.67952703730454 9.7696752220061  1.67952703730454 9.7696752220061  C 1.67952703730454 9.7696752220061  0.31452041248954 8.86120022465031  0.31452041248954 8.86120022465031  C 0.31452041248954 8.86120022465031  2.81833256429291 0.519469887212836  2.81833256429291 0.519469887212836  C 2.81833256429291 0.519469887212836  16.5710790322875 0.657904172524208  16.5710790322875 0.657904172524208  C 16.5710790322875 0.657904172524208  16.6334793351362 9.48199147284361  16.6334793351362 9.48199147284361  C 16.6334793351362 9.48199147284361  4.13653896197123 9.42142647301979  4.13653896197123 9.42142647301979  Z " fill-rule="evenodd" />
    </mask>
  </defs>
  <g transform="matrix(1 0 0 1 -1904 -4329 )">
    <path d="M 4.13653896197123 9.42142647301979  C 4.13653896197123 9.42142647301979  1.67952703730454 9.7696752220061  1.67952703730454 9.7696752220061  C 1.67952703730454 9.7696752220061  0.31452041248954 8.86120022465031  0.31452041248954 8.86120022465031  C 0.31452041248954 8.86120022465031  2.81833256429291 0.519469887212836  2.81833256429291 0.519469887212836  C 2.81833256429291 0.519469887212836  16.5710790322875 0.657904172524208  16.5710790322875 0.657904172524208  C 16.5710790322875 0.657904172524208  16.6334793351362 9.48199147284361  16.6334793351362 9.48199147284361  C 16.6334793351362 9.48199147284361  4.13653896197123 9.42142647301979  4.13653896197123 9.42142647301979  Z " fill-rule="nonzero" fill="#f2f2f2" stroke="none" transform="matrix(1 0 0 1 1904 4329 )" />
    <path d="M 4.13653896197123 9.42142647301979  C 4.13653896197123 9.42142647301979  1.67952703730454 9.7696752220061  1.67952703730454 9.7696752220061  C 1.67952703730454 9.7696752220061  0.31452041248954 8.86120022465031  0.31452041248954 8.86120022465031  C 0.31452041248954 8.86120022465031  2.81833256429291 0.519469887212836  2.81833256429291 0.519469887212836  C 2.81833256429291 0.519469887212836  16.5710790322875 0.657904172524208  16.5710790322875 0.657904172524208  C 16.5710790322875 0.657904172524208  16.6334793351362 9.48199147284361  16.6334793351362 9.48199147284361  C 16.6334793351362 9.48199147284361  4.13653896197123 9.42142647301979  4.13653896197123 9.42142647301979  Z " stroke-width="2" stroke="#505050" fill="none" stroke-opacity="0.211764705882353" transform="matrix(1 0 0 1 1904 4329 )" mask="url(#clip119)" />
  </g>
</svg>