<?xml version="1.0" encoding="utf-8"?>
<svg version="1.1" xmlns:xlink="http://www.w3.org/1999/xlink" width="48px" height="50px" xmlns="http://www.w3.org/2000/svg">
  <defs>
    <mask fill="white" id="clip120">
      <path d="M 24.0073637818814 47.5166632879093  C 24.0073637818814 47.5166632879093  25.3287819598534 43.2230527443  25.3287819598534 43.2230527443  C 25.3287819598534 43.2230527443  29.2244243960675 45.4962066337878  29.2244243960675 45.4962066337878  C 29.2244243960675 45.4962066337878  36.6154522120968 45.1127593946442  36.6154522120968 45.1127593946442  C 36.6154522120968 45.1127593946442  41.916372056808 45.5905936465001  41.916372056808 45.5905936465001  C 41.916372056808 45.5905936465001  41.7461124069541 48.1891707534844  41.7461124069541 48.1891707534844  C 41.7461124069541 48.1891707534844  45.6290488991491 47.3829483532334  45.6290488991491 47.3829483532334  C 45.6290488991491 47.3829483532334  44.7370916290179 49.3631092240935  44.7370916290179 49.3631092240935  C 44.7370916290179 49.3631092240935  32.6296173931496 49.9333640925636  32.6296173931496 49.9333640925636  C 32.6296173931496 49.9333640925636  32.7007706796557 48.8262830892924  32.7007706796557 48.8262830892924  C 32.7007706796557 48.8262830892924  24.0073637818814 47.5166632879093  24.0073637818814 47.5166632879093  Z M 44.4067370845247 0.0527928050145679  C 44.4067370845247 0.0527928050145679  47.8678362352901 2.01132331879494  47.8678362352901 2.01132331879494  C 47.8678362352901 2.01132331879494  45.6620843535981 6.58319424704668  45.6620843535981 6.58319424704668  C 45.6620843535981 6.58319424704668  43.969652610272 7.39728223169014  43.969652610272 7.39728223169014  C 43.969652610272 7.39728223169014  39.6293021333947 7.19277703748024  39.6293021333947 7.19277703748024  C 39.6293021333947 7.19277703748024  35.9115429134463 6.50453840311968  35.9115429134463 6.50453840311968  C 35.9115429134463 6.50453840311968  27.2816657357669 8.39031226126744  27.2816657357669 8.39031226126744  C 27.2816657357669 8.39031226126744  32.2217367703394 12.4450210156997  32.2217367703394 12.4450210156997  C 32.2217367703394 12.4450210156997  28.6030839137391 13.6130602980143  28.6030839137391 13.6130602980143  C 28.6030839137391 13.6130602980143  22.7875931560609 13.620925882407  22.7875931560609 13.620925882407  C 22.7875931560609 13.620925882407  19.0190101600368 9.91623563344953  19.0190101600368 9.91623563344953  C 19.0190101600368 9.91623563344953  17.682344849242 11.4972180963804  17.682344849242 11.4972180963804  C 17.682344849242 11.4972180963804  19.2731290404161 15.7760960060043  19.2731290404161 15.7760960060043  C 19.2731290404161 15.7760960060043  22.8384169321371 19.1130701846035  22.8384169321371 19.1130701846035  C 22.8384169321371 19.1130701846035  20.1523803665284 22.0911617385351  20.1523803665284 22.0911617385351  C 20.1523803665284 22.0911617385351  25.9678711242063 25.3357153005201  25.9678711242063 25.3357153005201  C 25.9678711242063 25.3357153005201  29.4950411838704 27.3670024699326  29.4950411838704 27.3670024699326  C 29.4950411838704 27.3670024699326  29.6017711136299 31.2997946662782  29.6017711136299 31.2997946662782  C 29.6017711136299 31.2997946662782  26.1508367180798 29.0463047377722  26.1508367180798 29.0463047377722  C 26.1508367180798 29.0463047377722  21.1637735104381 29.4572815222903  21.1637735104381 29.4572815222903  C 21.1637735104381 29.4572815222903  25.1114904973285 32.9948281029031  25.1114904973285 32.9948281029031  C 25.1114904973285 32.9948281029031  20.9350665180966 33.3684433615559  20.9350665180966 33.3684433615559  C 20.9350665180966 33.3684433615559  18.3938777143041 32.003764469424  18.3938777143041 32.003764469424  C 18.3938777143041 32.003764469424  21.4433042788553 39.7749618494028  21.4433042788553 39.7749618494028  C 21.4433042788553 39.7749618494028  19.9617912062443 39.8024913947773  19.9617912062443 39.8024913947773  C 19.9617912062443 39.8024913947773  18.8284209997527 37.318933122785  18.8284209997527 37.318933122785  C 18.8284209997527 37.318933122785  17.3723198151797 37.2697732203308  17.3723198151797 37.2697732203308  C 17.3723198151797 37.2697732203308  16.7116107261938 39.8614832777225  16.7116107261938 39.8614832777225  C 16.7116107261938 39.8614832777225  15.557911009272 39.2735308443689  15.557911009272 39.2735308443689  C 15.557911009272 39.2735308443689  15.8171122672587 37.8203641278192  15.8171122672587 37.8203641278192  C 15.8171122672587 37.8203641278192  14.3915053483312 35.7654802052286  14.3915053483312 35.7654802052286  C 14.3915053483312 35.7654802052286  12.7727680803155 35.7654802052286  12.7727680803155 35.7654802052286  C 12.7727680803155 35.7654802052286  13.0726283591631 37.4231521159883  13.0726283591631 37.4231521159883  C 13.0726283591631 37.4231521159883  12.4373311582149 37.9481798742004  12.4373311582149 37.9481798742004  C 12.4373311582149 37.9481798742004  10.8719588550789 36.8863259811871  10.8719588550789 36.8863259811871  C 10.8719588550789 36.8863259811871  9.89868354322614 34.8786355649526  9.89868354322614 34.8786355649526  C 9.89868354322614 34.8786355649526  11.2175605323945 33.7597561850924  11.2175605323945 33.7597561850924  C 11.2175605323945 33.7597561850924  10.3103561294407 32.3046230724444  10.3103561294407 32.3046230724444  C 10.3103561294407 32.3046230724444  9.2735510974933 31.5534597629424  9.2735510974933 31.5534597629424  C 9.2735510974933 31.5534597629424  8.19862823348908 31.3686185297142  8.19862823348908 31.3686185297142  C 8.19862823348908 31.3686185297142  6.95090453082685 29.5143070091373  6.95090453082685 29.5143070091373  C 6.95090453082685 29.5143070091373  8.4324176034379 28.4937474341856  8.4324176034379 28.4937474341856  C 8.4324176034379 28.4937474341856  9.33962200639165 27.54201172267  9.33962200639165 27.54201172267  C 9.33962200639165 27.54201172267  10.7652289253194 27.7425841246836  10.7652289253194 27.7425841246836  C 10.7652289253194 27.7425841246836  11.4030673150714 26.9363617244328  11.4030673150714 26.9363617244328  C 11.4030673150714 26.9363617244328  12.9023687093089 26.6158391604306  12.9023687093089 26.6158391604306  C 12.9023687093089 26.6158391604306  14.6380006622991 27.5223477616882  14.6380006622991 27.5223477616882  C 14.6380006622991 27.5223477616882  16.0432780707966 27.8546687022794  16.0432780707966 27.8546687022794  C 16.0432780707966 27.8546687022794  17.0241769490603 26.6315703292158  17.0241769490603 26.6315703292158  C 17.0241769490603 26.6315703292158  14.640541851103 26.4663930569693  14.640541851103 26.4663930569693  C 14.640541851103 26.4663930569693  13.2301820649983 26.0849122139238  13.2301820649983 26.0849122139238  C 13.2301820649983 26.0849122139238  10.0536960602577 26.6355031214122  10.0536960602577 26.6355031214122  C 10.0536960602577 26.6355031214122  6.95598690843438 26.7298901341245  6.95598690843438 26.7298901341245  C 6.95598690843438 26.7298901341245  4.17846754588922 23.5030341370228  4.17846754588922 23.5030341370228  C 4.17846754588922 23.5030341370228  3.71851237240277 23.0035695280869  3.71851237240277 23.0035695280869  C 3.71851237240277 23.0035695280869  4.14289090263607 21.74114323306  4.14289090263607 21.74114323306  C 4.14289090263607 21.74114323306  0.526779234839383 18.0413843110992  0.526779234839383 18.0413843110992  C 0.526779234839383 18.0413843110992  0.0439533621187226 16.0159963299812  0.0439533621187226 16.0159963299812  C 0.0439533621187226 16.0159963299812  3.35766356226395 12.5453072167063  3.35766356226395 12.5453072167063  C 3.35766356226395 12.5453072167063  3.78458328130112 10.2052958598806  3.78458328130112 10.2052958598806  C 3.78458328130112 10.2052958598806  6.09960628155596 9.1572067395545  6.09960628155596 9.1572067395545  C 6.09960628155596 9.1572067395545  6.24191285456856 7.25373531652321  6.24191285456856 7.25373531652321  C 6.24191285456856 7.25373531652321  10.9024531207239 6.61072379242073  10.9024531207239 6.61072379242073  C 10.9024531207239 6.61072379242073  13.618983951978 5.0179429529008  13.618983951978 5.0179429529008  C 13.618983951978 5.0179429529008  17.4815909337426 5.15952347196925  17.4815909337426 5.15952347196925  C 17.4815909337426 5.15952347196925  18.653078972291 3.88726519645145  18.653078972291 3.88726519645145  C 18.653078972291 3.88726519645145  20.0100737935162 3.64343208027801  20.0100737935162 3.64343208027801  C 20.0100737935162 3.64343208027801  27.1266532187358 3.85383646278253  27.1266532187358 3.85383646278253  C 27.1266532187358 3.85383646278253  32.8316220832501 1.84024685825364  32.8316220832501 1.84024685825364  C 32.8316220832501 1.84024685825364  37.853011159544 4.3985281819764  37.853011159544 4.3985281819764  C 37.853011159544 4.3985281819764  44.3279602316074 3.70832315151777  44.3279602316074 3.70832315151777  C 44.3279602316074 3.70832315151777  44.4067370845247 0.0527928050145679  44.4067370845247 0.0527928050145679  Z " fill-rule="evenodd" />
    </mask>
  </defs>
  <g transform="matrix(1 0 0 1 -1984 -4087 )">
    <path d="M 24.0073637818814 47.5166632879093  C 24.0073637818814 47.5166632879093  25.3287819598534 43.2230527443  25.3287819598534 43.2230527443  C 25.3287819598534 43.2230527443  29.2244243960675 45.4962066337878  29.2244243960675 45.4962066337878  C 29.2244243960675 45.4962066337878  36.6154522120968 45.1127593946442  36.6154522120968 45.1127593946442  C 36.6154522120968 45.1127593946442  41.916372056808 45.5905936465001  41.916372056808 45.5905936465001  C 41.916372056808 45.5905936465001  41.7461124069541 48.1891707534844  41.7461124069541 48.1891707534844  C 41.7461124069541 48.1891707534844  45.6290488991491 47.3829483532334  45.6290488991491 47.3829483532334  C 45.6290488991491 47.3829483532334  44.7370916290179 49.3631092240935  44.7370916290179 49.3631092240935  C 44.7370916290179 49.3631092240935  32.6296173931496 49.9333640925636  32.6296173931496 49.9333640925636  C 32.6296173931496 49.9333640925636  32.7007706796557 48.8262830892924  32.7007706796557 48.8262830892924  C 32.7007706796557 48.8262830892924  24.0073637818814 47.5166632879093  24.0073637818814 47.5166632879093  Z M 44.4067370845247 0.0527928050145679  C 44.4067370845247 0.0527928050145679  47.8678362352901 2.01132331879494  47.8678362352901 2.01132331879494  C 47.8678362352901 2.01132331879494  45.6620843535981 6.58319424704668  45.6620843535981 6.58319424704668  C 45.6620843535981 6.58319424704668  43.969652610272 7.39728223169014  43.969652610272 7.39728223169014  C 43.969652610272 7.39728223169014  39.6293021333947 7.19277703748024  39.6293021333947 7.19277703748024  C 39.6293021333947 7.19277703748024  35.9115429134463 6.50453840311968  35.9115429134463 6.50453840311968  C 35.9115429134463 6.50453840311968  27.2816657357669 8.39031226126744  27.2816657357669 8.39031226126744  C 27.2816657357669 8.39031226126744  32.2217367703394 12.4450210156997  32.2217367703394 12.4450210156997  C 32.2217367703394 12.4450210156997  28.6030839137391 13.6130602980143  28.6030839137391 13.6130602980143  C 28.6030839137391 13.6130602980143  22.7875931560609 13.620925882407  22.7875931560609 13.620925882407  C 22.7875931560609 13.620925882407  19.0190101600368 9.91623563344953  19.0190101600368 9.91623563344953  C 19.0190101600368 9.91623563344953  17.682344849242 11.4972180963804  17.682344849242 11.4972180963804  C 17.682344849242 11.4972180963804  19.2731290404161 15.7760960060043  19.2731290404161 15.7760960060043  C 19.2731290404161 15.7760960060043  22.8384169321371 19.1130701846035  22.8384169321371 19.1130701846035  C 22.8384169321371 19.1130701846035  20.1523803665284 22.0911617385351  20.1523803665284 22.0911617385351  C 20.1523803665284 22.0911617385351  25.9678711242063 25.3357153005201  25.9678711242063 25.3357153005201  C 25.9678711242063 25.3357153005201  29.4950411838704 27.3670024699326  29.4950411838704 27.3670024699326  C 29.4950411838704 27.3670024699326  29.6017711136299 31.2997946662782  29.6017711136299 31.2997946662782  C 29.6017711136299 31.2997946662782  26.1508367180798 29.0463047377722  26.1508367180798 29.0463047377722  C 26.1508367180798 29.0463047377722  21.1637735104381 29.4572815222903  21.1637735104381 29.4572815222903  C 21.1637735104381 29.4572815222903  25.1114904973285 32.9948281029031  25.1114904973285 32.9948281029031  C 25.1114904973285 32.9948281029031  20.9350665180966 33.3684433615559  20.9350665180966 33.3684433615559  C 20.9350665180966 33.3684433615559  18.3938777143041 32.003764469424  18.3938777143041 32.003764469424  C 18.3938777143041 32.003764469424  21.4433042788553 39.7749618494028  21.4433042788553 39.7749618494028  C 21.4433042788553 39.7749618494028  19.9617912062443 39.8024913947773  19.9617912062443 39.8024913947773  C 19.9617912062443 39.8024913947773  18.8284209997527 37.318933122785  18.8284209997527 37.318933122785  C 18.8284209997527 37.318933122785  17.3723198151797 37.2697732203308  17.3723198151797 37.2697732203308  C 17.3723198151797 37.2697732203308  16.7116107261938 39.8614832777225  16.7116107261938 39.8614832777225  C 16.7116107261938 39.8614832777225  15.557911009272 39.2735308443689  15.557911009272 39.2735308443689  C 15.557911009272 39.2735308443689  15.8171122672587 37.8203641278192  15.8171122672587 37.8203641278192  C 15.8171122672587 37.8203641278192  14.3915053483312 35.7654802052286  14.3915053483312 35.7654802052286  C 14.3915053483312 35.7654802052286  12.7727680803155 35.7654802052286  12.7727680803155 35.7654802052286  C 12.7727680803155 35.7654802052286  13.0726283591631 37.4231521159883  13.0726283591631 37.4231521159883  C 13.0726283591631 37.4231521159883  12.4373311582149 37.9481798742004  12.4373311582149 37.9481798742004  C 12.4373311582149 37.9481798742004  10.8719588550789 36.8863259811871  10.8719588550789 36.8863259811871  C 10.8719588550789 36.8863259811871  9.89868354322614 34.8786355649526  9.89868354322614 34.8786355649526  C 9.89868354322614 34.8786355649526  11.2175605323945 33.7597561850924  11.2175605323945 33.7597561850924  C 11.2175605323945 33.7597561850924  10.3103561294407 32.3046230724444  10.3103561294407 32.3046230724444  C 10.3103561294407 32.3046230724444  9.2735510974933 31.5534597629424  9.2735510974933 31.5534597629424  C 9.2735510974933 31.5534597629424  8.19862823348908 31.3686185297142  8.19862823348908 31.3686185297142  C 8.19862823348908 31.3686185297142  6.95090453082685 29.5143070091373  6.95090453082685 29.5143070091373  C 6.95090453082685 29.5143070091373  8.4324176034379 28.4937474341856  8.4324176034379 28.4937474341856  C 8.4324176034379 28.4937474341856  9.33962200639165 27.54201172267  9.33962200639165 27.54201172267  C 9.33962200639165 27.54201172267  10.7652289253194 27.7425841246836  10.7652289253194 27.7425841246836  C 10.7652289253194 27.7425841246836  11.4030673150714 26.9363617244328  11.4030673150714 26.9363617244328  C 11.4030673150714 26.9363617244328  12.9023687093089 26.6158391604306  12.9023687093089 26.6158391604306  C 12.9023687093089 26.6158391604306  14.6380006622991 27.5223477616882  14.6380006622991 27.5223477616882  C 14.6380006622991 27.5223477616882  16.0432780707966 27.8546687022794  16.0432780707966 27.8546687022794  C 16.0432780707966 27.8546687022794  17.0241769490603 26.6315703292158  17.0241769490603 26.6315703292158  C 17.0241769490603 26.6315703292158  14.640541851103 26.4663930569693  14.640541851103 26.4663930569693  C 14.640541851103 26.4663930569693  13.2301820649983 26.0849122139238  13.2301820649983 26.0849122139238  C 13.2301820649983 26.0849122139238  10.0536960602577 26.6355031214122  10.0536960602577 26.6355031214122  C 10.0536960602577 26.6355031214122  6.95598690843438 26.7298901341245  6.95598690843438 26.7298901341245  C 6.95598690843438 26.7298901341245  4.17846754588922 23.5030341370228  4.17846754588922 23.5030341370228  C 4.17846754588922 23.5030341370228  3.71851237240277 23.0035695280869  3.71851237240277 23.0035695280869  C 3.71851237240277 23.0035695280869  4.14289090263607 21.74114323306  4.14289090263607 21.74114323306  C 4.14289090263607 21.74114323306  0.526779234839383 18.0413843110992  0.526779234839383 18.0413843110992  C 0.526779234839383 18.0413843110992  0.0439533621187226 16.0159963299812  0.0439533621187226 16.0159963299812  C 0.0439533621187226 16.0159963299812  3.35766356226395 12.5453072167063  3.35766356226395 12.5453072167063  C 3.35766356226395 12.5453072167063  3.78458328130112 10.2052958598806  3.78458328130112 10.2052958598806  C 3.78458328130112 10.2052958598806  6.09960628155596 9.1572067395545  6.09960628155596 9.1572067395545  C 6.09960628155596 9.1572067395545  6.24191285456856 7.25373531652321  6.24191285456856 7.25373531652321  C 6.24191285456856 7.25373531652321  10.9024531207239 6.61072379242073  10.9024531207239 6.61072379242073  C 10.9024531207239 6.61072379242073  13.618983951978 5.0179429529008  13.618983951978 5.0179429529008  C 13.618983951978 5.0179429529008  17.4815909337426 5.15952347196925  17.4815909337426 5.15952347196925  C 17.4815909337426 5.15952347196925  18.653078972291 3.88726519645145  18.653078972291 3.88726519645145  C 18.653078972291 3.88726519645145  20.0100737935162 3.64343208027801  20.0100737935162 3.64343208027801  C 20.0100737935162 3.64343208027801  27.1266532187358 3.85383646278253  27.1266532187358 3.85383646278253  C 27.1266532187358 3.85383646278253  32.8316220832501 1.84024685825364  32.8316220832501 1.84024685825364  C 32.8316220832501 1.84024685825364  37.853011159544 4.3985281819764  37.853011159544 4.3985281819764  C 37.853011159544 4.3985281819764  44.3279602316074 3.70832315151777  44.3279602316074 3.70832315151777  C 44.3279602316074 3.70832315151777  44.4067370845247 0.0527928050145679  44.4067370845247 0.0527928050145679  Z " fill-rule="nonzero" fill="#f2f2f2" stroke="none" transform="matrix(1 0 0 1 1984 4087 )" />
    <path d="M 24.0073637818814 47.5166632879093  C 24.0073637818814 47.5166632879093  25.3287819598534 43.2230527443  25.3287819598534 43.2230527443  C 25.3287819598534 43.2230527443  29.2244243960675 45.4962066337878  29.2244243960675 45.4962066337878  C 29.2244243960675 45.4962066337878  36.6154522120968 45.1127593946442  36.6154522120968 45.1127593946442  C 36.6154522120968 45.1127593946442  41.916372056808 45.5905936465001  41.916372056808 45.5905936465001  C 41.916372056808 45.5905936465001  41.7461124069541 48.1891707534844  41.7461124069541 48.1891707534844  C 41.7461124069541 48.1891707534844  45.6290488991491 47.3829483532334  45.6290488991491 47.3829483532334  C 45.6290488991491 47.3829483532334  44.7370916290179 49.3631092240935  44.7370916290179 49.3631092240935  C 44.7370916290179 49.3631092240935  32.6296173931496 49.9333640925636  32.6296173931496 49.9333640925636  C 32.6296173931496 49.9333640925636  32.7007706796557 48.8262830892924  32.7007706796557 48.8262830892924  C 32.7007706796557 48.8262830892924  24.0073637818814 47.5166632879093  24.0073637818814 47.5166632879093  Z " stroke-width="2" stroke="#505050" fill="none" stroke-opacity="0.211764705882353" transform="matrix(1 0 0 1 1984 4087 )" mask="url(#clip120)" />
    <path d="M 44.4067370845247 0.0527928050145679  C 44.4067370845247 0.0527928050145679  47.8678362352901 2.01132331879494  47.8678362352901 2.01132331879494  C 47.8678362352901 2.01132331879494  45.6620843535981 6.58319424704668  45.6620843535981 6.58319424704668  C 45.6620843535981 6.58319424704668  43.969652610272 7.39728223169014  43.969652610272 7.39728223169014  C 43.969652610272 7.39728223169014  39.6293021333947 7.19277703748024  39.6293021333947 7.19277703748024  C 39.6293021333947 7.19277703748024  35.9115429134463 6.50453840311968  35.9115429134463 6.50453840311968  C 35.9115429134463 6.50453840311968  27.2816657357669 8.39031226126744  27.2816657357669 8.39031226126744  C 27.2816657357669 8.39031226126744  32.2217367703394 12.4450210156997  32.2217367703394 12.4450210156997  C 32.2217367703394 12.4450210156997  28.6030839137391 13.6130602980143  28.6030839137391 13.6130602980143  C 28.6030839137391 13.6130602980143  22.7875931560609 13.620925882407  22.7875931560609 13.620925882407  C 22.7875931560609 13.620925882407  19.0190101600368 9.91623563344953  19.0190101600368 9.91623563344953  C 19.0190101600368 9.91623563344953  17.682344849242 11.4972180963804  17.682344849242 11.4972180963804  C 17.682344849242 11.4972180963804  19.2731290404161 15.7760960060043  19.2731290404161 15.7760960060043  C 19.2731290404161 15.7760960060043  22.8384169321371 19.1130701846035  22.8384169321371 19.1130701846035  C 22.8384169321371 19.1130701846035  20.1523803665284 22.0911617385351  20.1523803665284 22.0911617385351  C 20.1523803665284 22.0911617385351  25.9678711242063 25.3357153005201  25.9678711242063 25.3357153005201  C 25.9678711242063 25.3357153005201  29.4950411838704 27.3670024699326  29.4950411838704 27.3670024699326  C 29.4950411838704 27.3670024699326  29.6017711136299 31.2997946662782  29.6017711136299 31.2997946662782  C 29.6017711136299 31.2997946662782  26.1508367180798 29.0463047377722  26.1508367180798 29.0463047377722  C 26.1508367180798 29.0463047377722  21.1637735104381 29.4572815222903  21.1637735104381 29.4572815222903  C 21.1637735104381 29.4572815222903  25.1114904973285 32.9948281029031  25.1114904973285 32.9948281029031  C 25.1114904973285 32.9948281029031  20.9350665180966 33.3684433615559  20.9350665180966 33.3684433615559  C 20.9350665180966 33.3684433615559  18.3938777143041 32.003764469424  18.3938777143041 32.003764469424  C 18.3938777143041 32.003764469424  21.4433042788553 39.7749618494028  21.4433042788553 39.7749618494028  C 21.4433042788553 39.7749618494028  19.9617912062443 39.8024913947773  19.9617912062443 39.8024913947773  C 19.9617912062443 39.8024913947773  18.8284209997527 37.318933122785  18.8284209997527 37.318933122785  C 18.8284209997527 37.318933122785  17.3723198151797 37.2697732203308  17.3723198151797 37.2697732203308  C 17.3723198151797 37.2697732203308  16.7116107261938 39.8614832777225  16.7116107261938 39.8614832777225  C 16.7116107261938 39.8614832777225  15.557911009272 39.2735308443689  15.557911009272 39.2735308443689  C 15.557911009272 39.2735308443689  15.8171122672587 37.8203641278192  15.8171122672587 37.8203641278192  C 15.8171122672587 37.8203641278192  14.3915053483312 35.7654802052286  14.3915053483312 35.7654802052286  C 14.3915053483312 35.7654802052286  12.7727680803155 35.7654802052286  12.7727680803155 35.7654802052286  C 12.7727680803155 35.7654802052286  13.0726283591631 37.4231521159883  13.0726283591631 37.4231521159883  C 13.0726283591631 37.4231521159883  12.4373311582149 37.9481798742004  12.4373311582149 37.9481798742004  C 12.4373311582149 37.9481798742004  10.8719588550789 36.8863259811871  10.8719588550789 36.8863259811871  C 10.8719588550789 36.8863259811871  9.89868354322614 34.8786355649526  9.89868354322614 34.8786355649526  C 9.89868354322614 34.8786355649526  11.2175605323945 33.7597561850924  11.2175605323945 33.7597561850924  C 11.2175605323945 33.7597561850924  10.3103561294407 32.3046230724444  10.3103561294407 32.3046230724444  C 10.3103561294407 32.3046230724444  9.2735510974933 31.5534597629424  9.2735510974933 31.5534597629424  C 9.2735510974933 31.5534597629424  8.19862823348908 31.3686185297142  8.19862823348908 31.3686185297142  C 8.19862823348908 31.3686185297142  6.95090453082685 29.5143070091373  6.95090453082685 29.5143070091373  C 6.95090453082685 29.5143070091373  8.4324176034379 28.4937474341856  8.4324176034379 28.4937474341856  C 8.4324176034379 28.4937474341856  9.33962200639165 27.54201172267  9.33962200639165 27.54201172267  C 9.33962200639165 27.54201172267  10.7652289253194 27.7425841246836  10.7652289253194 27.7425841246836  C 10.7652289253194 27.7425841246836  11.4030673150714 26.9363617244328  11.4030673150714 26.9363617244328  C 11.4030673150714 26.9363617244328  12.9023687093089 26.6158391604306  12.9023687093089 26.6158391604306  C 12.9023687093089 26.6158391604306  14.6380006622991 27.5223477616882  14.6380006622991 27.5223477616882  C 14.6380006622991 27.5223477616882  16.0432780707966 27.8546687022794  16.0432780707966 27.8546687022794  C 16.0432780707966 27.8546687022794  17.0241769490603 26.6315703292158  17.0241769490603 26.6315703292158  C 17.0241769490603 26.6315703292158  14.640541851103 26.4663930569693  14.640541851103 26.4663930569693  C 14.640541851103 26.4663930569693  13.2301820649983 26.0849122139238  13.2301820649983 26.0849122139238  C 13.2301820649983 26.0849122139238  10.0536960602577 26.6355031214122  10.0536960602577 26.6355031214122  C 10.0536960602577 26.6355031214122  6.95598690843438 26.7298901341245  6.95598690843438 26.7298901341245  C 6.95598690843438 26.7298901341245  4.17846754588922 23.5030341370228  4.17846754588922 23.5030341370228  C 4.17846754588922 23.5030341370228  3.71851237240277 23.0035695280869  3.71851237240277 23.0035695280869  C 3.71851237240277 23.0035695280869  4.14289090263607 21.74114323306  4.14289090263607 21.74114323306  C 4.14289090263607 21.74114323306  0.526779234839383 18.0413843110992  0.526779234839383 18.0413843110992  C 0.526779234839383 18.0413843110992  0.0439533621187226 16.0159963299812  0.0439533621187226 16.0159963299812  C 0.0439533621187226 16.0159963299812  3.35766356226395 12.5453072167063  3.35766356226395 12.5453072167063  C 3.35766356226395 12.5453072167063  3.78458328130112 10.2052958598806  3.78458328130112 10.2052958598806  C 3.78458328130112 10.2052958598806  6.09960628155596 9.1572067395545  6.09960628155596 9.1572067395545  C 6.09960628155596 9.1572067395545  6.24191285456856 7.25373531652321  6.24191285456856 7.25373531652321  C 6.24191285456856 7.25373531652321  10.9024531207239 6.61072379242073  10.9024531207239 6.61072379242073  C 10.9024531207239 6.61072379242073  13.618983951978 5.0179429529008  13.618983951978 5.0179429529008  C 13.618983951978 5.0179429529008  17.4815909337426 5.15952347196925  17.4815909337426 5.15952347196925  C 17.4815909337426 5.15952347196925  18.653078972291 3.88726519645145  18.653078972291 3.88726519645145  C 18.653078972291 3.88726519645145  20.0100737935162 3.64343208027801  20.0100737935162 3.64343208027801  C 20.0100737935162 3.64343208027801  27.1266532187358 3.85383646278253  27.1266532187358 3.85383646278253  C 27.1266532187358 3.85383646278253  32.8316220832501 1.84024685825364  32.8316220832501 1.84024685825364  C 32.8316220832501 1.84024685825364  37.853011159544 4.3985281819764  37.853011159544 4.3985281819764  C 37.853011159544 4.3985281819764  44.3279602316074 3.70832315151777  44.3279602316074 3.70832315151777  C 44.3279602316074 3.70832315151777  44.4067370845247 0.0527928050145679  44.4067370845247 0.0527928050145679  Z " stroke-width="2" stroke="#505050" fill="none" stroke-opacity="0.211764705882353" transform="matrix(1 0 0 1 1984 4087 )" mask="url(#clip120)" />
  </g>
</svg>