<?xml version="1.0" encoding="utf-8"?>
<svg version="1.1" xmlns:xlink="http://www.w3.org/1999/xlink" width="32px" height="26px" xmlns="http://www.w3.org/2000/svg">
  <defs>
    <mask fill="white" id="clip121">
      <path d="M 18.169250250507 25.0412973582171  C 18.169250250507 25.0412973582171  17.9438318554413 25.8763602345745  17.9438318554413 25.8763602345745  C 17.9438318554413 25.8763602345745  12.3355978555904 24.8822377627205  12.3355978555904 24.8822377627205  C 12.3355978555904 24.8822377627205  7.80391080995661 24.7788490256474  7.80391080995661 24.7788490256474  C 7.80391080995661 24.7788490256474  4.4796372367444 23.6455494077338  4.4796372367444 23.6455494077338  C 4.4796372367444 23.6455494077338  0.572385055603424 21.2874909044961  0.572385055603424 21.2874909044961  C 0.572385055603424 21.2874909044961  0.751165162034929 19.6193533967254  0.751165162034929 19.6193533967254  C 0.751165162034929 19.6193533967254  1.59324537348777 18.2752998147784  1.59324537348777 18.2752998147784  C 1.59324537348777 18.2752998147784  0.562020991462572 17.2016475451763  0.562020991462572 17.2016475451763  C 0.562020991462572 17.2016475451763  4.05730162300032 11.0669332785247  4.05730162300032 11.0669332785247  C 4.05730162300032 11.0669332785247  13.3823683338271 11.0490390740312  13.3823683338271 11.0490390740312  C 13.3823683338271 11.0490390740312  13.5689214883644 9.08465306964781  13.5689214883644 9.08465306964781  C 13.5689214883644 9.08465306964781  12.3926002083657 8.73472195955484  12.3926002083657 8.73472195955484  C 12.3926002083657 8.73472195955484  11.584203205371 7.48212764501899  11.584203205371 7.48212764501899  C 11.584203205371 7.48212764501899  8.89991059286288 6.14602704284711  8.89991059286288 6.14602704284711  C 8.89991059286288 6.14602704284711  6.19488985207307 4.20947646767548  6.19488985207307 4.20947646767548  C 6.19488985207307 4.20947646767548  9.47511615268612 4.19555875306959  9.47511615268612 4.19555875306959  C 9.47511615268612 4.19555875306959  9.48029818475655 0.92489582066969  9.48029818475655 0.92489582066969  C 9.48029818475655 0.92489582066969  18.1459311061898 0.914954595951334  18.1459311061898 0.914954595951334  C 18.1459311061898 0.914954595951334  24.8644356855657 0.978578434149995  24.8644356855657 0.978578434149995  C 24.8644356855657 0.978578434149995  24.8074333327904 5.58136547883424  24.8074333327904 5.58136547883424  C 24.8074333327904 5.58136547883424  24.2400008210731 12.1028088941963  24.2400008210731 12.1028088941963  C 24.2400008210731 12.1028088941963  26.4086812425684 12.1008206492527  26.4086812425684 12.1008206492527  C 26.4086812425684 12.1008206492527  28.7768698987771 14.5871054442003  28.7768698987771 14.5871054442003  C 28.7768698987771 14.5871054442003  29.4038957793052 12.2857274290176  29.4038957793052 12.2857274290176  C 29.4038957793052 12.2857274290176  31.533710960272 14.4638342576902  31.533710960272 14.4638342576902  C 31.533710960272 14.4638342576902  28.222392467236 16.6568684306001  28.222392467236 16.6568684306001  C 28.222392467236 16.6568684306001  24.7789321564027 18.2633703451165  24.7789321564027 18.2633703451165  C 24.7789321564027 18.2633703451165  24.2685019974605 19.3648580439304  24.2685019974605 19.3648580439304  C 24.2685019974605 19.3648580439304  24.8462985733189 20.4902046820693  24.8462985733189 20.4902046820693  C 24.8462985733189 20.4902046820693  23.3357362247743 21.9436117359198  23.3357362247743 21.9436117359198  C 23.3357362247743 21.9436117359198  21.6360297056573 22.295531090956  21.6360297056573 22.295531090956  C 21.6360297056573 22.295531090956  22.022091094908 22.9695461268731  22.022091094908 22.9695461268731  C 22.022091094908 22.9695461268731  20.6592166603721 23.5998197740286  20.6592166603721 23.5998197740286  C 20.6592166603721 23.5998197740286  18.169250250507 25.0412973582171  18.169250250507 25.0412973582171  Z " fill-rule="evenodd" />
    </mask>
  </defs>
  <g transform="matrix(1 0 0 1 -1182 -4242 )">
    <path d="M 18.169250250507 25.0412973582171  C 18.169250250507 25.0412973582171  17.9438318554413 25.8763602345745  17.9438318554413 25.8763602345745  C 17.9438318554413 25.8763602345745  12.3355978555904 24.8822377627205  12.3355978555904 24.8822377627205  C 12.3355978555904 24.8822377627205  7.80391080995661 24.7788490256474  7.80391080995661 24.7788490256474  C 7.80391080995661 24.7788490256474  4.4796372367444 23.6455494077338  4.4796372367444 23.6455494077338  C 4.4796372367444 23.6455494077338  0.572385055603424 21.2874909044961  0.572385055603424 21.2874909044961  C 0.572385055603424 21.2874909044961  0.751165162034929 19.6193533967254  0.751165162034929 19.6193533967254  C 0.751165162034929 19.6193533967254  1.59324537348777 18.2752998147784  1.59324537348777 18.2752998147784  C 1.59324537348777 18.2752998147784  0.562020991462572 17.2016475451763  0.562020991462572 17.2016475451763  C 0.562020991462572 17.2016475451763  4.05730162300032 11.0669332785247  4.05730162300032 11.0669332785247  C 4.05730162300032 11.0669332785247  13.3823683338271 11.0490390740312  13.3823683338271 11.0490390740312  C 13.3823683338271 11.0490390740312  13.5689214883644 9.08465306964781  13.5689214883644 9.08465306964781  C 13.5689214883644 9.08465306964781  12.3926002083657 8.73472195955484  12.3926002083657 8.73472195955484  C 12.3926002083657 8.73472195955484  11.584203205371 7.48212764501899  11.584203205371 7.48212764501899  C 11.584203205371 7.48212764501899  8.89991059286288 6.14602704284711  8.89991059286288 6.14602704284711  C 8.89991059286288 6.14602704284711  6.19488985207307 4.20947646767548  6.19488985207307 4.20947646767548  C 6.19488985207307 4.20947646767548  9.47511615268612 4.19555875306959  9.47511615268612 4.19555875306959  C 9.47511615268612 4.19555875306959  9.48029818475655 0.92489582066969  9.48029818475655 0.92489582066969  C 9.48029818475655 0.92489582066969  18.1459311061898 0.914954595951334  18.1459311061898 0.914954595951334  C 18.1459311061898 0.914954595951334  24.8644356855657 0.978578434149995  24.8644356855657 0.978578434149995  C 24.8644356855657 0.978578434149995  24.8074333327904 5.58136547883424  24.8074333327904 5.58136547883424  C 24.8074333327904 5.58136547883424  24.2400008210731 12.1028088941963  24.2400008210731 12.1028088941963  C 24.2400008210731 12.1028088941963  26.4086812425684 12.1008206492527  26.4086812425684 12.1008206492527  C 26.4086812425684 12.1008206492527  28.7768698987771 14.5871054442003  28.7768698987771 14.5871054442003  C 28.7768698987771 14.5871054442003  29.4038957793052 12.2857274290176  29.4038957793052 12.2857274290176  C 29.4038957793052 12.2857274290176  31.533710960272 14.4638342576902  31.533710960272 14.4638342576902  C 31.533710960272 14.4638342576902  28.222392467236 16.6568684306001  28.222392467236 16.6568684306001  C 28.222392467236 16.6568684306001  24.7789321564027 18.2633703451165  24.7789321564027 18.2633703451165  C 24.7789321564027 18.2633703451165  24.2685019974605 19.3648580439304  24.2685019974605 19.3648580439304  C 24.2685019974605 19.3648580439304  24.8462985733189 20.4902046820693  24.8462985733189 20.4902046820693  C 24.8462985733189 20.4902046820693  23.3357362247743 21.9436117359198  23.3357362247743 21.9436117359198  C 23.3357362247743 21.9436117359198  21.6360297056573 22.295531090956  21.6360297056573 22.295531090956  C 21.6360297056573 22.295531090956  22.022091094908 22.9695461268731  22.022091094908 22.9695461268731  C 22.022091094908 22.9695461268731  20.6592166603721 23.5998197740286  20.6592166603721 23.5998197740286  C 20.6592166603721 23.5998197740286  18.169250250507 25.0412973582171  18.169250250507 25.0412973582171  Z " fill-rule="nonzero" fill="#f2f2f2" stroke="none" transform="matrix(1 0 0 1 1182 4242 )" />
    <path d="M 18.169250250507 25.0412973582171  C 18.169250250507 25.0412973582171  17.9438318554413 25.8763602345745  17.9438318554413 25.8763602345745  C 17.9438318554413 25.8763602345745  12.3355978555904 24.8822377627205  12.3355978555904 24.8822377627205  C 12.3355978555904 24.8822377627205  7.80391080995661 24.7788490256474  7.80391080995661 24.7788490256474  C 7.80391080995661 24.7788490256474  4.4796372367444 23.6455494077338  4.4796372367444 23.6455494077338  C 4.4796372367444 23.6455494077338  0.572385055603424 21.2874909044961  0.572385055603424 21.2874909044961  C 0.572385055603424 21.2874909044961  0.751165162034929 19.6193533967254  0.751165162034929 19.6193533967254  C 0.751165162034929 19.6193533967254  1.59324537348777 18.2752998147784  1.59324537348777 18.2752998147784  C 1.59324537348777 18.2752998147784  0.562020991462572 17.2016475451763  0.562020991462572 17.2016475451763  C 0.562020991462572 17.2016475451763  4.05730162300032 11.0669332785247  4.05730162300032 11.0669332785247  C 4.05730162300032 11.0669332785247  13.3823683338271 11.0490390740312  13.3823683338271 11.0490390740312  C 13.3823683338271 11.0490390740312  13.5689214883644 9.08465306964781  13.5689214883644 9.08465306964781  C 13.5689214883644 9.08465306964781  12.3926002083657 8.73472195955484  12.3926002083657 8.73472195955484  C 12.3926002083657 8.73472195955484  11.584203205371 7.48212764501899  11.584203205371 7.48212764501899  C 11.584203205371 7.48212764501899  8.89991059286288 6.14602704284711  8.89991059286288 6.14602704284711  C 8.89991059286288 6.14602704284711  6.19488985207307 4.20947646767548  6.19488985207307 4.20947646767548  C 6.19488985207307 4.20947646767548  9.47511615268612 4.19555875306959  9.47511615268612 4.19555875306959  C 9.47511615268612 4.19555875306959  9.48029818475655 0.92489582066969  9.48029818475655 0.92489582066969  C 9.48029818475655 0.92489582066969  18.1459311061898 0.914954595951334  18.1459311061898 0.914954595951334  C 18.1459311061898 0.914954595951334  24.8644356855657 0.978578434149995  24.8644356855657 0.978578434149995  C 24.8644356855657 0.978578434149995  24.8074333327904 5.58136547883424  24.8074333327904 5.58136547883424  C 24.8074333327904 5.58136547883424  24.2400008210731 12.1028088941963  24.2400008210731 12.1028088941963  C 24.2400008210731 12.1028088941963  26.4086812425684 12.1008206492527  26.4086812425684 12.1008206492527  C 26.4086812425684 12.1008206492527  28.7768698987771 14.5871054442003  28.7768698987771 14.5871054442003  C 28.7768698987771 14.5871054442003  29.4038957793052 12.2857274290176  29.4038957793052 12.2857274290176  C 29.4038957793052 12.2857274290176  31.533710960272 14.4638342576902  31.533710960272 14.4638342576902  C 31.533710960272 14.4638342576902  28.222392467236 16.6568684306001  28.222392467236 16.6568684306001  C 28.222392467236 16.6568684306001  24.7789321564027 18.2633703451165  24.7789321564027 18.2633703451165  C 24.7789321564027 18.2633703451165  24.2685019974605 19.3648580439304  24.2685019974605 19.3648580439304  C 24.2685019974605 19.3648580439304  24.8462985733189 20.4902046820693  24.8462985733189 20.4902046820693  C 24.8462985733189 20.4902046820693  23.3357362247743 21.9436117359198  23.3357362247743 21.9436117359198  C 23.3357362247743 21.9436117359198  21.6360297056573 22.295531090956  21.6360297056573 22.295531090956  C 21.6360297056573 22.295531090956  22.022091094908 22.9695461268731  22.022091094908 22.9695461268731  C 22.022091094908 22.9695461268731  20.6592166603721 23.5998197740286  20.6592166603721 23.5998197740286  C 20.6592166603721 23.5998197740286  18.169250250507 25.0412973582171  18.169250250507 25.0412973582171  Z " stroke-width="2" stroke="#505050" fill="none" stroke-opacity="0.211764705882353" transform="matrix(1 0 0 1 1182 4242 )" mask="url(#clip121)" />
  </g>
</svg>