<?xml version="1.0" encoding="utf-8"?>
<svg version="1.1" xmlns:xlink="http://www.w3.org/1999/xlink" width="26px" height="12px" xmlns="http://www.w3.org/2000/svg">
  <defs>
    <mask fill="white" id="clip122">
      <path d="M 17.7796132322555 8.38757391200625  C 17.7796132322555 8.38757391200625  14.5918885175075 11.2451407218709  14.5918885175075 11.2451407218709  C 14.5918885175075 11.2451407218709  8.90794221371071 8.79432294491346  8.90794221371071 8.79432294491346  C 8.90794221371071 8.79432294491346  5.88893428418588 8.40409163923107  5.88893428418588 8.40409163923107  C 5.88893428418588 8.40409163923107  4.24522378572333 6.75025420086286  4.24522378572333 6.75025420086286  C 4.24522378572333 6.75025420086286  4.28612482456533 4.35623221482865  4.28612482456533 4.35623221482865  C 4.28612482456533 4.35623221482865  2.10047556144644 3.10707909346434  2.10047556144644 3.10707909346434  C 2.10047556144644 3.10707909346434  1.64545150432928 1.8476023925848  1.64545150432928 1.8476023925848  C 1.64545150432928 1.8476023925848  5.44157917185162 0.887509497651649  5.44157917185162 0.887509497651649  C 5.44157917185162 0.887509497651649  7.8163957396149 1.07746336073524  7.8163957396149 1.07746336073524  C 7.8163957396149 1.07746336073524  9.73618825026103 0.414689555846167  9.73618825026103 0.414689555846167  C 9.73618825026103 0.414689555846167  24.8401550623547 0.660390748312807  24.8401550623547 0.660390748312807  C 24.8401550623547 0.660390748312807  24.7097830010458 2.65903574249558  24.7097830010458 2.65903574249558  C 24.7097830010458 2.65903574249558  23.9224380033375 3.27432108161383  23.9224380033375 3.27432108161383  C 23.9224380033375 3.27432108161383  24.5333972710397 6.7213481782195  24.5333972710397 6.7213481782195  C 24.5333972710397 6.7213481782195  23.4035060730296 7.49974607368131  23.4035060730296 7.49974607368131  C 23.4035060730296 7.49974607368131  21.8237034477575 7.51006965319652  21.8237034477575 7.51006965319652  C 21.8237034477575 7.51006965319652  19.9524809207363 8.49493913896674  19.9524809207363 8.49493913896674  C 19.9524809207363 8.49493913896674  17.7796132322555 8.38757391200625  17.7796132322555 8.38757391200625  Z " fill-rule="evenodd" />
    </mask>
  </defs>
  <g transform="matrix(1 0 0 1 -1721 -4272 )">
    <path d="M 17.7796132322555 8.38757391200625  C 17.7796132322555 8.38757391200625  14.5918885175075 11.2451407218709  14.5918885175075 11.2451407218709  C 14.5918885175075 11.2451407218709  8.90794221371071 8.79432294491346  8.90794221371071 8.79432294491346  C 8.90794221371071 8.79432294491346  5.88893428418588 8.40409163923107  5.88893428418588 8.40409163923107  C 5.88893428418588 8.40409163923107  4.24522378572333 6.75025420086286  4.24522378572333 6.75025420086286  C 4.24522378572333 6.75025420086286  4.28612482456533 4.35623221482865  4.28612482456533 4.35623221482865  C 4.28612482456533 4.35623221482865  2.10047556144644 3.10707909346434  2.10047556144644 3.10707909346434  C 2.10047556144644 3.10707909346434  1.64545150432928 1.8476023925848  1.64545150432928 1.8476023925848  C 1.64545150432928 1.8476023925848  5.44157917185162 0.887509497651649  5.44157917185162 0.887509497651649  C 5.44157917185162 0.887509497651649  7.8163957396149 1.07746336073524  7.8163957396149 1.07746336073524  C 7.8163957396149 1.07746336073524  9.73618825026103 0.414689555846167  9.73618825026103 0.414689555846167  C 9.73618825026103 0.414689555846167  24.8401550623547 0.660390748312807  24.8401550623547 0.660390748312807  C 24.8401550623547 0.660390748312807  24.7097830010458 2.65903574249558  24.7097830010458 2.65903574249558  C 24.7097830010458 2.65903574249558  23.9224380033375 3.27432108161383  23.9224380033375 3.27432108161383  C 23.9224380033375 3.27432108161383  24.5333972710397 6.7213481782195  24.5333972710397 6.7213481782195  C 24.5333972710397 6.7213481782195  23.4035060730296 7.49974607368131  23.4035060730296 7.49974607368131  C 23.4035060730296 7.49974607368131  21.8237034477575 7.51006965319652  21.8237034477575 7.51006965319652  C 21.8237034477575 7.51006965319652  19.9524809207363 8.49493913896674  19.9524809207363 8.49493913896674  C 19.9524809207363 8.49493913896674  17.7796132322555 8.38757391200625  17.7796132322555 8.38757391200625  Z " fill-rule="nonzero" fill="#f2f2f2" stroke="none" transform="matrix(1 0 0 1 1721 4272 )" />
    <path d="M 17.7796132322555 8.38757391200625  C 17.7796132322555 8.38757391200625  14.5918885175075 11.2451407218709  14.5918885175075 11.2451407218709  C 14.5918885175075 11.2451407218709  8.90794221371071 8.79432294491346  8.90794221371071 8.79432294491346  C 8.90794221371071 8.79432294491346  5.88893428418588 8.40409163923107  5.88893428418588 8.40409163923107  C 5.88893428418588 8.40409163923107  4.24522378572333 6.75025420086286  4.24522378572333 6.75025420086286  C 4.24522378572333 6.75025420086286  4.28612482456533 4.35623221482865  4.28612482456533 4.35623221482865  C 4.28612482456533 4.35623221482865  2.10047556144644 3.10707909346434  2.10047556144644 3.10707909346434  C 2.10047556144644 3.10707909346434  1.64545150432928 1.8476023925848  1.64545150432928 1.8476023925848  C 1.64545150432928 1.8476023925848  5.44157917185162 0.887509497651649  5.44157917185162 0.887509497651649  C 5.44157917185162 0.887509497651649  7.8163957396149 1.07746336073524  7.8163957396149 1.07746336073524  C 7.8163957396149 1.07746336073524  9.73618825026103 0.414689555846167  9.73618825026103 0.414689555846167  C 9.73618825026103 0.414689555846167  24.8401550623547 0.660390748312807  24.8401550623547 0.660390748312807  C 24.8401550623547 0.660390748312807  24.7097830010458 2.65903574249558  24.7097830010458 2.65903574249558  C 24.7097830010458 2.65903574249558  23.9224380033375 3.27432108161383  23.9224380033375 3.27432108161383  C 23.9224380033375 3.27432108161383  24.5333972710397 6.7213481782195  24.5333972710397 6.7213481782195  C 24.5333972710397 6.7213481782195  23.4035060730296 7.49974607368131  23.4035060730296 7.49974607368131  C 23.4035060730296 7.49974607368131  21.8237034477575 7.51006965319652  21.8237034477575 7.51006965319652  C 21.8237034477575 7.51006965319652  19.9524809207363 8.49493913896674  19.9524809207363 8.49493913896674  C 19.9524809207363 8.49493913896674  17.7796132322555 8.38757391200625  17.7796132322555 8.38757391200625  Z " stroke-width="2" stroke="#505050" fill="none" stroke-opacity="0.211764705882353" transform="matrix(1 0 0 1 1721 4272 )" mask="url(#clip122)" />
  </g>
</svg>