<?xml version="1.0" encoding="utf-8"?>
<svg version="1.1" xmlns:xlink="http://www.w3.org/1999/xlink" width="39px" height="44px" xmlns="http://www.w3.org/2000/svg">
  <defs>
    <mask fill="white" id="clip123">
      <path d="M 6.61149842608605 4.65133265172365  C 6.61149842608605 4.65133265172365  12.2916301952679 1.31621999476426  12.2916301952679 1.31621999476426  C 12.2916301952679 1.31621999476426  16.997805977025 3.40571248868264  16.997805977025 3.40571248868264  C 16.997805977025 3.40571248868264  23.2875989186689 7.10219631125695  23.2875989186689 7.10219631125695  C 23.2875989186689 7.10219631125695  23.4895477979511 10.0214293027606  23.4895477979511 10.0214293027606  C 23.4895477979511 10.0214293027606  26.1915726764504 10.1546723023725  26.1915726764504 10.1546723023725  C 26.1915726764504 10.1546723023725  30.0311576977426 12.9164362943343  30.0311576977426 12.9164362943343  C 30.0311576977426 12.9164362943343  32.8609983226231 14.8847987886051  32.8609983226231 14.8847987886051  C 32.8609983226231 14.8847987886051  31.7157692350472 19.9662022738155  31.7157692350472 19.9662022738155  C 31.7157692350472 19.9662022738155  27.3649212282302 22.9066172695261  27.3649212282302 22.9066172695261  C 27.3649212282302 22.9066172695261  27.7509247823015 24.2370284323206  27.7509247823015 24.2370284323206  C 27.7509247823015 24.2370284323206  26.4293099647195 27.1461672571865  26.4293099647195 27.1461672571865  C 26.4293099647195 27.1461672571865  29.6068094197569 31.2383424119427  29.6068094197569 31.2383424119427  C 29.6068094197569 31.2383424119427  31.9023802247637 31.2443989119251  31.9023802247637 31.2443989119251  C 31.9023802247637 31.2443989119251  32.8431041181296 34.4220425693429  32.8431041181296 34.4220425693429  C 32.8431041181296 34.4220425693429  37.219515274223 39.3156945550998  37.219515274223 39.3156945550998  C 37.219515274223 39.3156945550998  35.4735521786552 39.5175778878454  35.4735521786552 39.5175778878454  C 35.4735521786552 39.5175778878454  31.5112640408372 39.039114389238  31.5112640408372 39.039114389238  C 31.5112640408372 39.039114389238  29.1799048268436 40.5350698848839  29.1799048268436 40.5350698848839  C 29.1799048268436 40.5350698848839  25.9384974986155 41.5222793820106  25.9384974986155 41.5222793820106  C 25.9384974986155 41.5222793820106  23.6710461578126 41.7665582146331  23.6710461578126 41.7665582146331  C 23.6710461578126 41.7665582146331  22.8785885302489 42.8668223780973  22.8785885302489 42.8668223780973  C 22.8785885302489 42.8668223780973  17.5039563326946 42.5882233789082  17.5039563326946 42.5882233789082  C 17.5039563326946 42.5882233789082  13.0943130825423 39.9496082199214  13.0943130825423 39.9496082199214  C 13.0943130825423 39.9496082199214  12.5753811522344 37.3453132275012  12.5753811522344 37.3453132275012  C 12.5753811522344 37.3453132275012  10.7399470342 34.4987582357863  10.7399470342 34.4987582357863  C 10.7399470342 34.4987582357863  11.8826198068482 29.7060479164025  11.8826198068482 29.7060479164025  C 11.8826198068482 29.7060479164025  13.8688765056125 27.7215347555118  13.8688765056125 27.7215347555118  C 13.8688765056125 27.7215347555118  12.2251660071497 25.1010890964722  12.2251660071497 25.1010890964722  C 12.2251660071497 25.1010890964722  9.76087841691957 24.2471225989577  9.76087841691957 24.2471225989577  C 9.76087841691957 24.2471225989577  10.6939333655026 20.3013286061735  10.6939333655026 20.3013286061735  C 10.6939333655026 20.3013286061735  9.02721603269133 19.0011999432909  9.02721603269133 19.0011999432909  C 9.02721603269133 19.0011999432909  5.30010886821468 19.2515352758957  5.30010886821468 19.2515352758957  C 5.30010886821468 19.2515352758957  0.448223135583118 14.9635332883762  0.448223135583118 14.9635332883762  C 0.448223135583118 14.9635332883762  2.39102248057795 13.4070127929065  2.39102248057795 13.4070127929065  C 2.39102248057795 13.4070127929065  2.24786884463096 10.7946424671766  2.24786884463096 10.7946424671766  C 2.24786884463096 10.7946424671766  6.66006840971095 9.88616746982088  6.66006840971095 9.88616746982088  C 6.66006840971095 9.88616746982088  8.43926359933779 8.82426113957802  8.43926359933779 8.82426113957802  C 8.43926359933779 8.82426113957802  5.98520126881822 6.7206368123675  5.98520126881822 6.7206368123675  C 5.98520126881822 6.7206368123675  6.61149842608605 4.65133265172365  6.61149842608605 4.65133265172365  Z " fill-rule="evenodd" />
    </mask>
  </defs>
  <g transform="matrix(1 0 0 1 -1402 -4294 )">
    <path d="M 6.61149842608605 4.65133265172365  C 6.61149842608605 4.65133265172365  12.2916301952679 1.31621999476426  12.2916301952679 1.31621999476426  C 12.2916301952679 1.31621999476426  16.997805977025 3.40571248868264  16.997805977025 3.40571248868264  C 16.997805977025 3.40571248868264  23.2875989186689 7.10219631125695  23.2875989186689 7.10219631125695  C 23.2875989186689 7.10219631125695  23.4895477979511 10.0214293027606  23.4895477979511 10.0214293027606  C 23.4895477979511 10.0214293027606  26.1915726764504 10.1546723023725  26.1915726764504 10.1546723023725  C 26.1915726764504 10.1546723023725  30.0311576977426 12.9164362943343  30.0311576977426 12.9164362943343  C 30.0311576977426 12.9164362943343  32.8609983226231 14.8847987886051  32.8609983226231 14.8847987886051  C 32.8609983226231 14.8847987886051  31.7157692350472 19.9662022738155  31.7157692350472 19.9662022738155  C 31.7157692350472 19.9662022738155  27.3649212282302 22.9066172695261  27.3649212282302 22.9066172695261  C 27.3649212282302 22.9066172695261  27.7509247823015 24.2370284323206  27.7509247823015 24.2370284323206  C 27.7509247823015 24.2370284323206  26.4293099647195 27.1461672571865  26.4293099647195 27.1461672571865  C 26.4293099647195 27.1461672571865  29.6068094197569 31.2383424119427  29.6068094197569 31.2383424119427  C 29.6068094197569 31.2383424119427  31.9023802247637 31.2443989119251  31.9023802247637 31.2443989119251  C 31.9023802247637 31.2443989119251  32.8431041181296 34.4220425693429  32.8431041181296 34.4220425693429  C 32.8431041181296 34.4220425693429  37.219515274223 39.3156945550998  37.219515274223 39.3156945550998  C 37.219515274223 39.3156945550998  35.4735521786552 39.5175778878454  35.4735521786552 39.5175778878454  C 35.4735521786552 39.5175778878454  31.5112640408372 39.039114389238  31.5112640408372 39.039114389238  C 31.5112640408372 39.039114389238  29.1799048268436 40.5350698848839  29.1799048268436 40.5350698848839  C 29.1799048268436 40.5350698848839  25.9384974986155 41.5222793820106  25.9384974986155 41.5222793820106  C 25.9384974986155 41.5222793820106  23.6710461578126 41.7665582146331  23.6710461578126 41.7665582146331  C 23.6710461578126 41.7665582146331  22.8785885302489 42.8668223780973  22.8785885302489 42.8668223780973  C 22.8785885302489 42.8668223780973  17.5039563326946 42.5882233789082  17.5039563326946 42.5882233789082  C 17.5039563326946 42.5882233789082  13.0943130825423 39.9496082199214  13.0943130825423 39.9496082199214  C 13.0943130825423 39.9496082199214  12.5753811522344 37.3453132275012  12.5753811522344 37.3453132275012  C 12.5753811522344 37.3453132275012  10.7399470342 34.4987582357863  10.7399470342 34.4987582357863  C 10.7399470342 34.4987582357863  11.8826198068482 29.7060479164025  11.8826198068482 29.7060479164025  C 11.8826198068482 29.7060479164025  13.8688765056125 27.7215347555118  13.8688765056125 27.7215347555118  C 13.8688765056125 27.7215347555118  12.2251660071497 25.1010890964722  12.2251660071497 25.1010890964722  C 12.2251660071497 25.1010890964722  9.76087841691957 24.2471225989577  9.76087841691957 24.2471225989577  C 9.76087841691957 24.2471225989577  10.6939333655026 20.3013286061735  10.6939333655026 20.3013286061735  C 10.6939333655026 20.3013286061735  9.02721603269133 19.0011999432909  9.02721603269133 19.0011999432909  C 9.02721603269133 19.0011999432909  5.30010886821468 19.2515352758957  5.30010886821468 19.2515352758957  C 5.30010886821468 19.2515352758957  0.448223135583118 14.9635332883762  0.448223135583118 14.9635332883762  C 0.448223135583118 14.9635332883762  2.39102248057795 13.4070127929065  2.39102248057795 13.4070127929065  C 2.39102248057795 13.4070127929065  2.24786884463096 10.7946424671766  2.24786884463096 10.7946424671766  C 2.24786884463096 10.7946424671766  6.66006840971095 9.88616746982088  6.66006840971095 9.88616746982088  C 6.66006840971095 9.88616746982088  8.43926359933779 8.82426113957802  8.43926359933779 8.82426113957802  C 8.43926359933779 8.82426113957802  5.98520126881822 6.7206368123675  5.98520126881822 6.7206368123675  C 5.98520126881822 6.7206368123675  6.61149842608605 4.65133265172365  6.61149842608605 4.65133265172365  Z " fill-rule="nonzero" fill="#f2f2f2" stroke="none" transform="matrix(1 0 0 1 1402 4294 )" />
    <path d="M 6.61149842608605 4.65133265172365  C 6.61149842608605 4.65133265172365  12.2916301952679 1.31621999476426  12.2916301952679 1.31621999476426  C 12.2916301952679 1.31621999476426  16.997805977025 3.40571248868264  16.997805977025 3.40571248868264  C 16.997805977025 3.40571248868264  23.2875989186689 7.10219631125695  23.2875989186689 7.10219631125695  C 23.2875989186689 7.10219631125695  23.4895477979511 10.0214293027606  23.4895477979511 10.0214293027606  C 23.4895477979511 10.0214293027606  26.1915726764504 10.1546723023725  26.1915726764504 10.1546723023725  C 26.1915726764504 10.1546723023725  30.0311576977426 12.9164362943343  30.0311576977426 12.9164362943343  C 30.0311576977426 12.9164362943343  32.8609983226231 14.8847987886051  32.8609983226231 14.8847987886051  C 32.8609983226231 14.8847987886051  31.7157692350472 19.9662022738155  31.7157692350472 19.9662022738155  C 31.7157692350472 19.9662022738155  27.3649212282302 22.9066172695261  27.3649212282302 22.9066172695261  C 27.3649212282302 22.9066172695261  27.7509247823015 24.2370284323206  27.7509247823015 24.2370284323206  C 27.7509247823015 24.2370284323206  26.4293099647195 27.1461672571865  26.4293099647195 27.1461672571865  C 26.4293099647195 27.1461672571865  29.6068094197569 31.2383424119427  29.6068094197569 31.2383424119427  C 29.6068094197569 31.2383424119427  31.9023802247637 31.2443989119251  31.9023802247637 31.2443989119251  C 31.9023802247637 31.2443989119251  32.8431041181296 34.4220425693429  32.8431041181296 34.4220425693429  C 32.8431041181296 34.4220425693429  37.219515274223 39.3156945550998  37.219515274223 39.3156945550998  C 37.219515274223 39.3156945550998  35.4735521786552 39.5175778878454  35.4735521786552 39.5175778878454  C 35.4735521786552 39.5175778878454  31.5112640408372 39.039114389238  31.5112640408372 39.039114389238  C 31.5112640408372 39.039114389238  29.1799048268436 40.5350698848839  29.1799048268436 40.5350698848839  C 29.1799048268436 40.5350698848839  25.9384974986155 41.5222793820106  25.9384974986155 41.5222793820106  C 25.9384974986155 41.5222793820106  23.6710461578126 41.7665582146331  23.6710461578126 41.7665582146331  C 23.6710461578126 41.7665582146331  22.8785885302489 42.8668223780973  22.8785885302489 42.8668223780973  C 22.8785885302489 42.8668223780973  17.5039563326946 42.5882233789082  17.5039563326946 42.5882233789082  C 17.5039563326946 42.5882233789082  13.0943130825423 39.9496082199214  13.0943130825423 39.9496082199214  C 13.0943130825423 39.9496082199214  12.5753811522344 37.3453132275012  12.5753811522344 37.3453132275012  C 12.5753811522344 37.3453132275012  10.7399470342 34.4987582357863  10.7399470342 34.4987582357863  C 10.7399470342 34.4987582357863  11.8826198068482 29.7060479164025  11.8826198068482 29.7060479164025  C 11.8826198068482 29.7060479164025  13.8688765056125 27.7215347555118  13.8688765056125 27.7215347555118  C 13.8688765056125 27.7215347555118  12.2251660071497 25.1010890964722  12.2251660071497 25.1010890964722  C 12.2251660071497 25.1010890964722  9.76087841691957 24.2471225989577  9.76087841691957 24.2471225989577  C 9.76087841691957 24.2471225989577  10.6939333655026 20.3013286061735  10.6939333655026 20.3013286061735  C 10.6939333655026 20.3013286061735  9.02721603269133 19.0011999432909  9.02721603269133 19.0011999432909  C 9.02721603269133 19.0011999432909  5.30010886821468 19.2515352758957  5.30010886821468 19.2515352758957  C 5.30010886821468 19.2515352758957  0.448223135583118 14.9635332883762  0.448223135583118 14.9635332883762  C 0.448223135583118 14.9635332883762  2.39102248057795 13.4070127929065  2.39102248057795 13.4070127929065  C 2.39102248057795 13.4070127929065  2.24786884463096 10.7946424671766  2.24786884463096 10.7946424671766  C 2.24786884463096 10.7946424671766  6.66006840971095 9.88616746982088  6.66006840971095 9.88616746982088  C 6.66006840971095 9.88616746982088  8.43926359933779 8.82426113957802  8.43926359933779 8.82426113957802  C 8.43926359933779 8.82426113957802  5.98520126881822 6.7206368123675  5.98520126881822 6.7206368123675  C 5.98520126881822 6.7206368123675  6.61149842608605 4.65133265172365  6.61149842608605 4.65133265172365  Z " stroke-width="2" stroke="#505050" fill="none" stroke-opacity="0.211764705882353" transform="matrix(1 0 0 1 1402 4294 )" mask="url(#clip123)" />
  </g>
</svg>