<?xml version="1.0" encoding="utf-8"?>
<svg version="1.1" xmlns:xlink="http://www.w3.org/1999/xlink" width="48px" height="20px" xmlns="http://www.w3.org/2000/svg">
  <defs>
    <mask fill="white" id="clip124">
      <path d="M 17.4617718081257 19.5896878951862  C 17.4617718081257 19.5896878951862  15.2458551712187 19.8197562386726  15.2458551712187 19.8197562386726  C 15.2458551712187 19.8197562386726  14.0159197901831 18.0598317308077  14.0159197901831 18.0598317308077  C 14.0159197901831 18.0598317308077  11.8508269293518 17.5701991023629  11.8508269293518 17.5701991023629  C 11.8508269293518 17.5701991023629  12.3463587460912 15.3127763816604  12.3463587460912 15.3127763816604  C 12.3463587460912 15.3127763816604  11.3781658118465 14.7012271951287  11.3781658118465 14.7012271951287  C 11.3781658118465 14.7012271951287  9.91189987205801 14.3000823911013  9.91189987205801 14.3000823911013  C 9.91189987205801 14.3000823911013  6.78623764339339 14.9706234605784  6.78623764339339 14.9706234605784  C 6.78623764339339 14.9706234605784  6.52195400779895 14.2115945666839  6.52195400779895 14.2115945666839  C 6.52195400779895 14.2115945666839  4.36956709098663 13.3050859654262  4.36956709098663 13.3050859654262  C 4.36956709098663 13.3050859654262  2.83468905349596 12.1783410011731  2.83468905349596 12.1783410011731  C 2.83468905349596 12.1783410011731  0.733125912759603 11.7024731454152  0.733125912759603 11.7024731454152  C 0.733125912759603 11.7024731454152  2.21463898537065 8.83646616907949  2.21463898537065 8.83646616907949  C 2.21463898537065 8.83646616907949  1.64795388212497 7.72348597751358  1.64795388212497 7.72348597751358  C 1.64795388212497 7.72348597751358  2.1485680764721 6.63410253912616  2.1485680764721 6.63410253912616  C 2.1485680764721 6.63410253912616  5.52580799671222 5.04525449180262  5.52580799671222 5.04525449180262  C 5.52580799671222 5.04525449180262  8.7734472879591 2.8763195955178  8.7734472879591 2.8763195955178  C 8.7734472879591 2.8763195955178  9.5129332298628 3.09852235461124  9.5129332298628 3.09852235461124  C 9.5129332298628 3.09852235461124  11.075764344195 2.09762674064158  11.075764344195 2.09762674064158  C 11.075764344195 2.09762674064158  13.1137977648367 2.01700450061643  13.1137977648367 2.01700450061643  C 13.1137977648367 2.01700450061643  13.7770480426265 2.48107397978499  13.7770480426265 2.48107397978499  C 13.7770480426265 2.48107397978499  14.8824651722764 2.19791294164809  14.8824651722764 2.19791294164809  C 14.8824651722764 2.19791294164809  18.1910929948141 2.71114232327136  18.1910929948141 2.71114232327136  C 18.1910929948141 2.71114232327136  21.4844736845292 2.56169621981014  21.4844736845292 2.56169621981014  C 21.4844736845292 2.56169621981014  25.6227798317039 1.93244946839481  25.6227798317039 1.93244946839481  C 25.6227798317039 1.93244946839481  26.4588309481517 1.2933707364888  26.4588309481517 1.2933707364888  C 26.4588309481517 1.2933707364888  28.7306537387422 1.58833015121477  28.7306537387422 1.58833015121477  C 28.7306537387422 1.58833015121477  30.435791426087 1.97767657865305  30.435791426087 1.97767657865305  C 30.435791426087 1.97767657865305  32.2984828192668 1.84396164397705  32.2984828192668 1.84396164397705  C 32.2984828192668 1.84396164397705  33.7139249829793 1.34842982723772  33.7139249829793 1.34842982723772  C 33.7139249829793 1.34842982723772  36.9691878406376 2.13892105870303  36.9691878406376 2.13892105870303  C 36.9691878406376 2.13892105870303  38.1000168583251 2.26477040898609  38.1000168583251 2.26477040898609  C 38.1000168583251 2.26477040898609  40.2752744743716 3.32859069809761  40.2752744743716 3.32859069809761  C 40.2752744743716 3.32859069809761  42.3336374054434 4.60478176581156  42.3336374054434 4.60478176581156  C 42.3336374054434 4.60478176581156  44.923108796508 5.47392884120394  44.923108796508 5.47392884120394  C 44.923108796508 5.47392884120394  46.8010473225108 7.03524734315319  46.8010473225108 7.03524734315319  C 46.8010473225108 7.03524734315319  44.3564236932623 6.91922997336113  44.3564236932623 6.91922997336113  C 44.3564236932623 6.91922997336113  43.3704424373908 7.69202363994314  43.3704424373908 7.69202363994314  C 43.3704424373908 7.69202363994314  40.8953245424969 8.43138857285599  40.8953245424969 8.43138857285599  C 40.8953245424969 8.43138857285599  39.0961628694118 8.43532136505246  39.0961628694118 8.43532136505246  C 39.0961628694118 8.43532136505246  37.5231669998644 9.15698873308169  37.5231669998644 9.15698873308169  C 37.5231669998644 9.15698873308169  36.0950188921329 8.89939084422102  36.0950188921329 8.89939084422102  C 36.0950188921329 8.89939084422102  34.88033064392 8.03417656102511  34.88033064392 8.03417656102511  C 34.88033064392 8.03417656102511  34.1357623244087 8.19935383327155  34.1357623244087 8.19935383327155  C 34.1357623244087 8.19935383327155  33.2209343550436 9.55223434881451  33.2209343550436 9.55223434881451  C 33.2209343550436 9.55223434881451  32.5373545668234 9.50307444636012  32.5373545668234 9.50307444636012  C 32.5373545668234 9.50307444636012  32.4204598818489 12.097718761148  32.4204598818489 12.097718761148  C 32.4204598818489 12.097718761148  29.932636042936 13.6531380748027  29.932636042936 13.6531380748027  C 29.932636042936 13.6531380748027  28.6213826201791 14.3236791442795  28.6213826201791 14.3236791442795  C 28.6213826201791 14.3236791442795  27.8895202446868 15.0237161552289  27.8895202446868 15.0237161552289  C 27.8895202446868 15.0237161552289  25.7879571039505 13.8832064182887  25.7879571039505 13.8832064182887  C 25.7879571039505 13.8832064182887  22.4043840315023 15.3894658294894  22.4043840315023 15.3894658294894  C 22.4043840315023 15.3894658294894  20.9177885812835 15.3501379075257  20.9177885812835 15.3501379075257  C 20.9177885812835 15.3501379075257  19.245686348388 15.4818864461033  19.245686348388 15.4818864461033  C 19.245686348388 15.4818864461033  19.3981576766156 18.2525385484288  19.3981576766156 18.2525385484288  C 19.3981576766156 18.2525385484288  18.3537290782568 18.3036648469813  18.3537290782568 18.3036648469813  C 18.3537290782568 18.3036648469813  17.4617718081257 19.5896878951862  17.4617718081257 19.5896878951862  Z " fill-rule="evenodd" />
    </mask>
  </defs>
  <g transform="matrix(1 0 0 1 -1203 -4251 )">
    <path d="M 17.4617718081257 19.5896878951862  C 17.4617718081257 19.5896878951862  15.2458551712187 19.8197562386726  15.2458551712187 19.8197562386726  C 15.2458551712187 19.8197562386726  14.0159197901831 18.0598317308077  14.0159197901831 18.0598317308077  C 14.0159197901831 18.0598317308077  11.8508269293518 17.5701991023629  11.8508269293518 17.5701991023629  C 11.8508269293518 17.5701991023629  12.3463587460912 15.3127763816604  12.3463587460912 15.3127763816604  C 12.3463587460912 15.3127763816604  11.3781658118465 14.7012271951287  11.3781658118465 14.7012271951287  C 11.3781658118465 14.7012271951287  9.91189987205801 14.3000823911013  9.91189987205801 14.3000823911013  C 9.91189987205801 14.3000823911013  6.78623764339339 14.9706234605784  6.78623764339339 14.9706234605784  C 6.78623764339339 14.9706234605784  6.52195400779895 14.2115945666839  6.52195400779895 14.2115945666839  C 6.52195400779895 14.2115945666839  4.36956709098663 13.3050859654262  4.36956709098663 13.3050859654262  C 4.36956709098663 13.3050859654262  2.83468905349596 12.1783410011731  2.83468905349596 12.1783410011731  C 2.83468905349596 12.1783410011731  0.733125912759603 11.7024731454152  0.733125912759603 11.7024731454152  C 0.733125912759603 11.7024731454152  2.21463898537065 8.83646616907949  2.21463898537065 8.83646616907949  C 2.21463898537065 8.83646616907949  1.64795388212497 7.72348597751358  1.64795388212497 7.72348597751358  C 1.64795388212497 7.72348597751358  2.1485680764721 6.63410253912616  2.1485680764721 6.63410253912616  C 2.1485680764721 6.63410253912616  5.52580799671222 5.04525449180262  5.52580799671222 5.04525449180262  C 5.52580799671222 5.04525449180262  8.7734472879591 2.8763195955178  8.7734472879591 2.8763195955178  C 8.7734472879591 2.8763195955178  9.5129332298628 3.09852235461124  9.5129332298628 3.09852235461124  C 9.5129332298628 3.09852235461124  11.075764344195 2.09762674064158  11.075764344195 2.09762674064158  C 11.075764344195 2.09762674064158  13.1137977648367 2.01700450061643  13.1137977648367 2.01700450061643  C 13.1137977648367 2.01700450061643  13.7770480426265 2.48107397978499  13.7770480426265 2.48107397978499  C 13.7770480426265 2.48107397978499  14.8824651722764 2.19791294164809  14.8824651722764 2.19791294164809  C 14.8824651722764 2.19791294164809  18.1910929948141 2.71114232327136  18.1910929948141 2.71114232327136  C 18.1910929948141 2.71114232327136  21.4844736845292 2.56169621981014  21.4844736845292 2.56169621981014  C 21.4844736845292 2.56169621981014  25.6227798317039 1.93244946839481  25.6227798317039 1.93244946839481  C 25.6227798317039 1.93244946839481  26.4588309481517 1.2933707364888  26.4588309481517 1.2933707364888  C 26.4588309481517 1.2933707364888  28.7306537387422 1.58833015121477  28.7306537387422 1.58833015121477  C 28.7306537387422 1.58833015121477  30.435791426087 1.97767657865305  30.435791426087 1.97767657865305  C 30.435791426087 1.97767657865305  32.2984828192668 1.84396164397705  32.2984828192668 1.84396164397705  C 32.2984828192668 1.84396164397705  33.7139249829793 1.34842982723772  33.7139249829793 1.34842982723772  C 33.7139249829793 1.34842982723772  36.9691878406376 2.13892105870303  36.9691878406376 2.13892105870303  C 36.9691878406376 2.13892105870303  38.1000168583251 2.26477040898609  38.1000168583251 2.26477040898609  C 38.1000168583251 2.26477040898609  40.2752744743716 3.32859069809761  40.2752744743716 3.32859069809761  C 40.2752744743716 3.32859069809761  42.3336374054434 4.60478176581156  42.3336374054434 4.60478176581156  C 42.3336374054434 4.60478176581156  44.923108796508 5.47392884120394  44.923108796508 5.47392884120394  C 44.923108796508 5.47392884120394  46.8010473225108 7.03524734315319  46.8010473225108 7.03524734315319  C 46.8010473225108 7.03524734315319  44.3564236932623 6.91922997336113  44.3564236932623 6.91922997336113  C 44.3564236932623 6.91922997336113  43.3704424373908 7.69202363994314  43.3704424373908 7.69202363994314  C 43.3704424373908 7.69202363994314  40.8953245424969 8.43138857285599  40.8953245424969 8.43138857285599  C 40.8953245424969 8.43138857285599  39.0961628694118 8.43532136505246  39.0961628694118 8.43532136505246  C 39.0961628694118 8.43532136505246  37.5231669998644 9.15698873308169  37.5231669998644 9.15698873308169  C 37.5231669998644 9.15698873308169  36.0950188921329 8.89939084422102  36.0950188921329 8.89939084422102  C 36.0950188921329 8.89939084422102  34.88033064392 8.03417656102511  34.88033064392 8.03417656102511  C 34.88033064392 8.03417656102511  34.1357623244087 8.19935383327155  34.1357623244087 8.19935383327155  C 34.1357623244087 8.19935383327155  33.2209343550436 9.55223434881451  33.2209343550436 9.55223434881451  C 33.2209343550436 9.55223434881451  32.5373545668234 9.50307444636012  32.5373545668234 9.50307444636012  C 32.5373545668234 9.50307444636012  32.4204598818489 12.097718761148  32.4204598818489 12.097718761148  C 32.4204598818489 12.097718761148  29.932636042936 13.6531380748027  29.932636042936 13.6531380748027  C 29.932636042936 13.6531380748027  28.6213826201791 14.3236791442795  28.6213826201791 14.3236791442795  C 28.6213826201791 14.3236791442795  27.8895202446868 15.0237161552289  27.8895202446868 15.0237161552289  C 27.8895202446868 15.0237161552289  25.7879571039505 13.8832064182887  25.7879571039505 13.8832064182887  C 25.7879571039505 13.8832064182887  22.4043840315023 15.3894658294894  22.4043840315023 15.3894658294894  C 22.4043840315023 15.3894658294894  20.9177885812835 15.3501379075257  20.9177885812835 15.3501379075257  C 20.9177885812835 15.3501379075257  19.245686348388 15.4818864461033  19.245686348388 15.4818864461033  C 19.245686348388 15.4818864461033  19.3981576766156 18.2525385484288  19.3981576766156 18.2525385484288  C 19.3981576766156 18.2525385484288  18.3537290782568 18.3036648469813  18.3537290782568 18.3036648469813  C 18.3537290782568 18.3036648469813  17.4617718081257 19.5896878951862  17.4617718081257 19.5896878951862  Z " fill-rule="nonzero" fill="#f2f2f2" stroke="none" transform="matrix(1 0 0 1 1203 4251 )" />
    <path d="M 17.4617718081257 19.5896878951862  C 17.4617718081257 19.5896878951862  15.2458551712187 19.8197562386726  15.2458551712187 19.8197562386726  C 15.2458551712187 19.8197562386726  14.0159197901831 18.0598317308077  14.0159197901831 18.0598317308077  C 14.0159197901831 18.0598317308077  11.8508269293518 17.5701991023629  11.8508269293518 17.5701991023629  C 11.8508269293518 17.5701991023629  12.3463587460912 15.3127763816604  12.3463587460912 15.3127763816604  C 12.3463587460912 15.3127763816604  11.3781658118465 14.7012271951287  11.3781658118465 14.7012271951287  C 11.3781658118465 14.7012271951287  9.91189987205801 14.3000823911013  9.91189987205801 14.3000823911013  C 9.91189987205801 14.3000823911013  6.78623764339339 14.9706234605784  6.78623764339339 14.9706234605784  C 6.78623764339339 14.9706234605784  6.52195400779895 14.2115945666839  6.52195400779895 14.2115945666839  C 6.52195400779895 14.2115945666839  4.36956709098663 13.3050859654262  4.36956709098663 13.3050859654262  C 4.36956709098663 13.3050859654262  2.83468905349596 12.1783410011731  2.83468905349596 12.1783410011731  C 2.83468905349596 12.1783410011731  0.733125912759603 11.7024731454152  0.733125912759603 11.7024731454152  C 0.733125912759603 11.7024731454152  2.21463898537065 8.83646616907949  2.21463898537065 8.83646616907949  C 2.21463898537065 8.83646616907949  1.64795388212497 7.72348597751358  1.64795388212497 7.72348597751358  C 1.64795388212497 7.72348597751358  2.1485680764721 6.63410253912616  2.1485680764721 6.63410253912616  C 2.1485680764721 6.63410253912616  5.52580799671222 5.04525449180262  5.52580799671222 5.04525449180262  C 5.52580799671222 5.04525449180262  8.7734472879591 2.8763195955178  8.7734472879591 2.8763195955178  C 8.7734472879591 2.8763195955178  9.5129332298628 3.09852235461124  9.5129332298628 3.09852235461124  C 9.5129332298628 3.09852235461124  11.075764344195 2.09762674064158  11.075764344195 2.09762674064158  C 11.075764344195 2.09762674064158  13.1137977648367 2.01700450061643  13.1137977648367 2.01700450061643  C 13.1137977648367 2.01700450061643  13.7770480426265 2.48107397978499  13.7770480426265 2.48107397978499  C 13.7770480426265 2.48107397978499  14.8824651722764 2.19791294164809  14.8824651722764 2.19791294164809  C 14.8824651722764 2.19791294164809  18.1910929948141 2.71114232327136  18.1910929948141 2.71114232327136  C 18.1910929948141 2.71114232327136  21.4844736845292 2.56169621981014  21.4844736845292 2.56169621981014  C 21.4844736845292 2.56169621981014  25.6227798317039 1.93244946839481  25.6227798317039 1.93244946839481  C 25.6227798317039 1.93244946839481  26.4588309481517 1.2933707364888  26.4588309481517 1.2933707364888  C 26.4588309481517 1.2933707364888  28.7306537387422 1.58833015121477  28.7306537387422 1.58833015121477  C 28.7306537387422 1.58833015121477  30.435791426087 1.97767657865305  30.435791426087 1.97767657865305  C 30.435791426087 1.97767657865305  32.2984828192668 1.84396164397705  32.2984828192668 1.84396164397705  C 32.2984828192668 1.84396164397705  33.7139249829793 1.34842982723772  33.7139249829793 1.34842982723772  C 33.7139249829793 1.34842982723772  36.9691878406376 2.13892105870303  36.9691878406376 2.13892105870303  C 36.9691878406376 2.13892105870303  38.1000168583251 2.26477040898609  38.1000168583251 2.26477040898609  C 38.1000168583251 2.26477040898609  40.2752744743716 3.32859069809761  40.2752744743716 3.32859069809761  C 40.2752744743716 3.32859069809761  42.3336374054434 4.60478176581156  42.3336374054434 4.60478176581156  C 42.3336374054434 4.60478176581156  44.923108796508 5.47392884120394  44.923108796508 5.47392884120394  C 44.923108796508 5.47392884120394  46.8010473225108 7.03524734315319  46.8010473225108 7.03524734315319  C 46.8010473225108 7.03524734315319  44.3564236932623 6.91922997336113  44.3564236932623 6.91922997336113  C 44.3564236932623 6.91922997336113  43.3704424373908 7.69202363994314  43.3704424373908 7.69202363994314  C 43.3704424373908 7.69202363994314  40.8953245424969 8.43138857285599  40.8953245424969 8.43138857285599  C 40.8953245424969 8.43138857285599  39.0961628694118 8.43532136505246  39.0961628694118 8.43532136505246  C 39.0961628694118 8.43532136505246  37.5231669998644 9.15698873308169  37.5231669998644 9.15698873308169  C 37.5231669998644 9.15698873308169  36.0950188921329 8.89939084422102  36.0950188921329 8.89939084422102  C 36.0950188921329 8.89939084422102  34.88033064392 8.03417656102511  34.88033064392 8.03417656102511  C 34.88033064392 8.03417656102511  34.1357623244087 8.19935383327155  34.1357623244087 8.19935383327155  C 34.1357623244087 8.19935383327155  33.2209343550436 9.55223434881451  33.2209343550436 9.55223434881451  C 33.2209343550436 9.55223434881451  32.5373545668234 9.50307444636012  32.5373545668234 9.50307444636012  C 32.5373545668234 9.50307444636012  32.4204598818489 12.097718761148  32.4204598818489 12.097718761148  C 32.4204598818489 12.097718761148  29.932636042936 13.6531380748027  29.932636042936 13.6531380748027  C 29.932636042936 13.6531380748027  28.6213826201791 14.3236791442795  28.6213826201791 14.3236791442795  C 28.6213826201791 14.3236791442795  27.8895202446868 15.0237161552289  27.8895202446868 15.0237161552289  C 27.8895202446868 15.0237161552289  25.7879571039505 13.8832064182887  25.7879571039505 13.8832064182887  C 25.7879571039505 13.8832064182887  22.4043840315023 15.3894658294894  22.4043840315023 15.3894658294894  C 22.4043840315023 15.3894658294894  20.9177885812835 15.3501379075257  20.9177885812835 15.3501379075257  C 20.9177885812835 15.3501379075257  19.245686348388 15.4818864461033  19.245686348388 15.4818864461033  C 19.245686348388 15.4818864461033  19.3981576766156 18.2525385484288  19.3981576766156 18.2525385484288  C 19.3981576766156 18.2525385484288  18.3537290782568 18.3036648469813  18.3537290782568 18.3036648469813  C 18.3537290782568 18.3036648469813  17.4617718081257 19.5896878951862  17.4617718081257 19.5896878951862  Z " stroke-width="2" stroke="#505050" fill="none" stroke-opacity="0.211764705882353" transform="matrix(1 0 0 1 1203 4251 )" mask="url(#clip124)" />
  </g>
</svg>