<?xml version="1.0" encoding="utf-8"?>
<svg version="1.1" xmlns:xlink="http://www.w3.org/1999/xlink" width="45px" height="35px" xmlns="http://www.w3.org/2000/svg">
  <defs>
    <mask fill="white" id="clip125">
      <path d="M 36.8665409032502 7.40846246471621  C 36.8665409032502 7.40846246471621  39.4631276229653 6.206052217269  39.4631276229653 6.206052217269  C 39.4631276229653 6.206052217269  41.1504134589634 9.31746437677354  41.1504134589634 9.31746437677354  C 41.1504134589634 9.31746437677354  43.358007702538 11.5938136599208  43.358007702538 11.5938136599208  C 43.358007702538 11.5938136599208  40.6846135512283 14.5807693330453  40.6846135512283 14.5807693330453  C 40.6846135512283 14.5807693330453  37.540464174016 12.8263343476214  37.540464174016 12.8263343476214  C 37.540464174016 12.8263343476214  32.7387608698098 12.9367392952167  32.7387608698098 12.9367392952167  C 32.7387608698098 12.9367392952167  26.7651248190146 11.6158946494399  26.7651248190146 11.6158946494399  C 26.7651248190146 11.6158946494399  23.5193914193708 11.7925425655924  23.5193914193708 11.7925425655924  C 23.5193914193708 11.7925425655924  20.2154523555657 13.4425946914717  20.2154523555657 13.4425946914717  C 20.2154523555657 13.4425946914717  17.7204496582822 11.6158946494399  17.7204496582822 11.6158946494399  C 17.7204496582822 11.6158946494399  16.2685414352353 14.9099768131477  16.2685414352353 14.9099768131477  C 16.2685414352353 14.9099768131477  19.6703673571524 20.0498133081143  19.6703673571524 20.0498133081143  C 19.6703673571524 20.0498133081143  21.1767840800405 22.4767147925278  21.1767840800405 22.4767147925278  C 21.1767840800405 22.4767147925278  26.1704866389272 25.3813685956267  26.1704866389272 25.3813685956267  C 26.1704866389272 25.3813685956267  28.8166265403162 27.0936489646961  28.8166265403162 27.0936489646961  C 28.8166265403162 27.0936489646961  31.4404675099522 30.3094439837453  31.4404675099522 30.3094439837453  C 31.4404675099522 30.3094439837453  37.5875396966063 33.20606833611  37.5875396966063 33.20606833611  C 37.5875396966063 33.20606833611  36.8244206988274 34.5008172670007  36.8244206988274 34.5008172670007  C 36.8244206988274 34.5008172670007  30.2933113542 31.6764579712439  30.2933113542 31.6764579712439  C 30.2933113542 31.6764579712439  26.2646376841077 28.9163342813607  26.2646376841077 28.9163342813607  C 26.2646376841077 28.9163342813607  18.1119197935065 26.623926096745  18.1119197935065 26.623926096745  C 18.1119197935065 26.623926096745  12.2695996741471 20.8969203605729  12.2695996741471 20.8969203605729  C 12.2695996741471 20.8969203605729  13.6719547155202 20.3107704569759  13.6719547155202 20.3107704569759  C 13.6719547155202 20.3107704569759  10.5030287474709 15.5443034211499  10.5030287474709 15.5443034211499  C 10.5030287474709 15.5443034211499  10.3741904751185 12.8704963266596  10.3741904751185 12.8704963266596  C 10.3741904751185 12.8704963266596  5.90697114721163 11.6158946494399  5.90697114721163 11.6158946494399  C 5.90697114721163 11.6158946494399  3.77866199431535 15.0404553875785  3.77866199431535 15.0404553875785  C 3.77866199431535 15.0404553875785  1.72716027301342 12.3867219199236  1.72716027301342 12.3867219199236  C 1.72716027301342 12.3867219199236  1.88325279528651 9.6165614166227  1.88325279528651 9.6165614166227  C 1.88325279528651 9.6165614166227  2.1310187036562 9.48809020487548  2.1310187036562 9.48809020487548  C 2.1310187036562 9.48809020487548  6.97236455320176 9.7610915298384  6.97236455320176 9.7610915298384  C 6.97236455320176 9.7610915298384  8.24340366313843 8.40812908112482  8.24340366313843 8.40812908112482  C 8.24340366313843 8.40812908112482  10.6070904289861 9.71692955080023  10.6070904289861 9.71692955080023  C 10.6070904289861 9.71692955080023  13.3325154210537 9.87149647743376  13.3325154210537 9.87149647743376  C 13.3325154210537 9.87149647743376  13.3077388302167 7.63127972259044  13.3077388302167 7.63127972259044  C 13.3077388302167 7.63127972259044  15.7209787777381 6.80826102233429  15.7209787777381 6.80826102233429  C 15.7209787777381 6.80826102233429  16.3973797075877 3.5422819361963  16.3973797075877 3.5422819361963  C 16.3973797075877 3.5422819361963  23.7275147824011 1.38235968869496  23.7275147824011 1.38235968869496  C 23.7275147824011 1.38235968869496  25.9351090259759 2.38604103047063  25.9351090259759 2.38604103047063  C 25.9351090259759 2.38604103047063  31.1282824654062 5.86078583569806  31.1282824654062 5.86078583569806  C 31.1282824654062 5.86078583569806  36.8665409032502 7.40846246471621  36.8665409032502 7.40846246471621  Z " fill-rule="evenodd" />
    </mask>
  </defs>
  <g transform="matrix(1 0 0 1 -1936 -4049 )">
    <path d="M 36.8665409032502 7.40846246471621  C 36.8665409032502 7.40846246471621  39.4631276229653 6.206052217269  39.4631276229653 6.206052217269  C 39.4631276229653 6.206052217269  41.1504134589634 9.31746437677354  41.1504134589634 9.31746437677354  C 41.1504134589634 9.31746437677354  43.358007702538 11.5938136599208  43.358007702538 11.5938136599208  C 43.358007702538 11.5938136599208  40.6846135512283 14.5807693330453  40.6846135512283 14.5807693330453  C 40.6846135512283 14.5807693330453  37.540464174016 12.8263343476214  37.540464174016 12.8263343476214  C 37.540464174016 12.8263343476214  32.7387608698098 12.9367392952167  32.7387608698098 12.9367392952167  C 32.7387608698098 12.9367392952167  26.7651248190146 11.6158946494399  26.7651248190146 11.6158946494399  C 26.7651248190146 11.6158946494399  23.5193914193708 11.7925425655924  23.5193914193708 11.7925425655924  C 23.5193914193708 11.7925425655924  20.2154523555657 13.4425946914717  20.2154523555657 13.4425946914717  C 20.2154523555657 13.4425946914717  17.7204496582822 11.6158946494399  17.7204496582822 11.6158946494399  C 17.7204496582822 11.6158946494399  16.2685414352353 14.9099768131477  16.2685414352353 14.9099768131477  C 16.2685414352353 14.9099768131477  19.6703673571524 20.0498133081143  19.6703673571524 20.0498133081143  C 19.6703673571524 20.0498133081143  21.1767840800405 22.4767147925278  21.1767840800405 22.4767147925278  C 21.1767840800405 22.4767147925278  26.1704866389272 25.3813685956267  26.1704866389272 25.3813685956267  C 26.1704866389272 25.3813685956267  28.8166265403162 27.0936489646961  28.8166265403162 27.0936489646961  C 28.8166265403162 27.0936489646961  31.4404675099522 30.3094439837453  31.4404675099522 30.3094439837453  C 31.4404675099522 30.3094439837453  37.5875396966063 33.20606833611  37.5875396966063 33.20606833611  C 37.5875396966063 33.20606833611  36.8244206988274 34.5008172670007  36.8244206988274 34.5008172670007  C 36.8244206988274 34.5008172670007  30.2933113542 31.6764579712439  30.2933113542 31.6764579712439  C 30.2933113542 31.6764579712439  26.2646376841077 28.9163342813607  26.2646376841077 28.9163342813607  C 26.2646376841077 28.9163342813607  18.1119197935065 26.623926096745  18.1119197935065 26.623926096745  C 18.1119197935065 26.623926096745  12.2695996741471 20.8969203605729  12.2695996741471 20.8969203605729  C 12.2695996741471 20.8969203605729  13.6719547155202 20.3107704569759  13.6719547155202 20.3107704569759  C 13.6719547155202 20.3107704569759  10.5030287474709 15.5443034211499  10.5030287474709 15.5443034211499  C 10.5030287474709 15.5443034211499  10.3741904751185 12.8704963266596  10.3741904751185 12.8704963266596  C 10.3741904751185 12.8704963266596  5.90697114721163 11.6158946494399  5.90697114721163 11.6158946494399  C 5.90697114721163 11.6158946494399  3.77866199431535 15.0404553875785  3.77866199431535 15.0404553875785  C 3.77866199431535 15.0404553875785  1.72716027301342 12.3867219199236  1.72716027301342 12.3867219199236  C 1.72716027301342 12.3867219199236  1.88325279528651 9.6165614166227  1.88325279528651 9.6165614166227  C 1.88325279528651 9.6165614166227  2.1310187036562 9.48809020487548  2.1310187036562 9.48809020487548  C 2.1310187036562 9.48809020487548  6.97236455320176 9.7610915298384  6.97236455320176 9.7610915298384  C 6.97236455320176 9.7610915298384  8.24340366313843 8.40812908112482  8.24340366313843 8.40812908112482  C 8.24340366313843 8.40812908112482  10.6070904289861 9.71692955080023  10.6070904289861 9.71692955080023  C 10.6070904289861 9.71692955080023  13.3325154210537 9.87149647743376  13.3325154210537 9.87149647743376  C 13.3325154210537 9.87149647743376  13.3077388302167 7.63127972259044  13.3077388302167 7.63127972259044  C 13.3077388302167 7.63127972259044  15.7209787777381 6.80826102233429  15.7209787777381 6.80826102233429  C 15.7209787777381 6.80826102233429  16.3973797075877 3.5422819361963  16.3973797075877 3.5422819361963  C 16.3973797075877 3.5422819361963  23.7275147824011 1.38235968869496  23.7275147824011 1.38235968869496  C 23.7275147824011 1.38235968869496  25.9351090259759 2.38604103047063  25.9351090259759 2.38604103047063  C 25.9351090259759 2.38604103047063  31.1282824654062 5.86078583569806  31.1282824654062 5.86078583569806  C 31.1282824654062 5.86078583569806  36.8665409032502 7.40846246471621  36.8665409032502 7.40846246471621  Z " fill-rule="nonzero" fill="#f2f2f2" stroke="none" transform="matrix(1 0 0 1 1936 4049 )" />
    <path d="M 36.8665409032502 7.40846246471621  C 36.8665409032502 7.40846246471621  39.4631276229653 6.206052217269  39.4631276229653 6.206052217269  C 39.4631276229653 6.206052217269  41.1504134589634 9.31746437677354  41.1504134589634 9.31746437677354  C 41.1504134589634 9.31746437677354  43.358007702538 11.5938136599208  43.358007702538 11.5938136599208  C 43.358007702538 11.5938136599208  40.6846135512283 14.5807693330453  40.6846135512283 14.5807693330453  C 40.6846135512283 14.5807693330453  37.540464174016 12.8263343476214  37.540464174016 12.8263343476214  C 37.540464174016 12.8263343476214  32.7387608698098 12.9367392952167  32.7387608698098 12.9367392952167  C 32.7387608698098 12.9367392952167  26.7651248190146 11.6158946494399  26.7651248190146 11.6158946494399  C 26.7651248190146 11.6158946494399  23.5193914193708 11.7925425655924  23.5193914193708 11.7925425655924  C 23.5193914193708 11.7925425655924  20.2154523555657 13.4425946914717  20.2154523555657 13.4425946914717  C 20.2154523555657 13.4425946914717  17.7204496582822 11.6158946494399  17.7204496582822 11.6158946494399  C 17.7204496582822 11.6158946494399  16.2685414352353 14.9099768131477  16.2685414352353 14.9099768131477  C 16.2685414352353 14.9099768131477  19.6703673571524 20.0498133081143  19.6703673571524 20.0498133081143  C 19.6703673571524 20.0498133081143  21.1767840800405 22.4767147925278  21.1767840800405 22.4767147925278  C 21.1767840800405 22.4767147925278  26.1704866389272 25.3813685956267  26.1704866389272 25.3813685956267  C 26.1704866389272 25.3813685956267  28.8166265403162 27.0936489646961  28.8166265403162 27.0936489646961  C 28.8166265403162 27.0936489646961  31.4404675099522 30.3094439837453  31.4404675099522 30.3094439837453  C 31.4404675099522 30.3094439837453  37.5875396966063 33.20606833611  37.5875396966063 33.20606833611  C 37.5875396966063 33.20606833611  36.8244206988274 34.5008172670007  36.8244206988274 34.5008172670007  C 36.8244206988274 34.5008172670007  30.2933113542 31.6764579712439  30.2933113542 31.6764579712439  C 30.2933113542 31.6764579712439  26.2646376841077 28.9163342813607  26.2646376841077 28.9163342813607  C 26.2646376841077 28.9163342813607  18.1119197935065 26.623926096745  18.1119197935065 26.623926096745  C 18.1119197935065 26.623926096745  12.2695996741471 20.8969203605729  12.2695996741471 20.8969203605729  C 12.2695996741471 20.8969203605729  13.6719547155202 20.3107704569759  13.6719547155202 20.3107704569759  C 13.6719547155202 20.3107704569759  10.5030287474709 15.5443034211499  10.5030287474709 15.5443034211499  C 10.5030287474709 15.5443034211499  10.3741904751185 12.8704963266596  10.3741904751185 12.8704963266596  C 10.3741904751185 12.8704963266596  5.90697114721163 11.6158946494399  5.90697114721163 11.6158946494399  C 5.90697114721163 11.6158946494399  3.77866199431535 15.0404553875785  3.77866199431535 15.0404553875785  C 3.77866199431535 15.0404553875785  1.72716027301342 12.3867219199236  1.72716027301342 12.3867219199236  C 1.72716027301342 12.3867219199236  1.88325279528651 9.6165614166227  1.88325279528651 9.6165614166227  C 1.88325279528651 9.6165614166227  2.1310187036562 9.48809020487548  2.1310187036562 9.48809020487548  C 2.1310187036562 9.48809020487548  6.97236455320176 9.7610915298384  6.97236455320176 9.7610915298384  C 6.97236455320176 9.7610915298384  8.24340366313843 8.40812908112482  8.24340366313843 8.40812908112482  C 8.24340366313843 8.40812908112482  10.6070904289861 9.71692955080023  10.6070904289861 9.71692955080023  C 10.6070904289861 9.71692955080023  13.3325154210537 9.87149647743376  13.3325154210537 9.87149647743376  C 13.3325154210537 9.87149647743376  13.3077388302167 7.63127972259044  13.3077388302167 7.63127972259044  C 13.3077388302167 7.63127972259044  15.7209787777381 6.80826102233429  15.7209787777381 6.80826102233429  C 15.7209787777381 6.80826102233429  16.3973797075877 3.5422819361963  16.3973797075877 3.5422819361963  C 16.3973797075877 3.5422819361963  23.7275147824011 1.38235968869496  23.7275147824011 1.38235968869496  C 23.7275147824011 1.38235968869496  25.9351090259759 2.38604103047063  25.9351090259759 2.38604103047063  C 25.9351090259759 2.38604103047063  31.1282824654062 5.86078583569806  31.1282824654062 5.86078583569806  C 31.1282824654062 5.86078583569806  36.8665409032502 7.40846246471621  36.8665409032502 7.40846246471621  Z " stroke-width="2" stroke="#505050" fill="none" stroke-opacity="0.211764705882353" transform="matrix(1 0 0 1 1936 4049 )" mask="url(#clip125)" />
  </g>
</svg>