<?xml version="1.0" encoding="utf-8"?>
<svg version="1.1" xmlns:xlink="http://www.w3.org/1999/xlink" width="24px" height="14px" xmlns="http://www.w3.org/2000/svg">
  <defs>
    <mask fill="white" id="clip126">
      <path d="M 9.06554313467418 1.95944214099088  C 9.06554313467418 1.95944214099088  10.6715744586712 0.207951287502611  10.6715744586712 0.207951287502611  C 10.6715744586712 0.207951287502611  16.8631611593101 0.48844676648423  16.8631611593101 0.48844676648423  C 16.8631611593101 0.48844676648423  23.0433323301335 1.48623984438836  23.0433323301335 1.48623984438836  C 23.0433323301335 1.48623984438836  23.6659235870627 4.93140950607808  23.6659235870627 4.93140950607808  C 23.6659235870627 4.93140950607808  23.122109183051 8.9129297767947  23.122109183051 8.9129297767947  C 23.122109183051 8.9129297767947  21.3839360412569 9.9749584605727  21.3839360412569 9.9749584605727  C 21.3839360412569 9.9749584605727  23.2186743575951 11.8634852732577  23.2186743575951 11.8634852732577  C 23.2186743575951 11.8634852732577  23.071285406975 13.5700112026339  23.071285406975 13.5700112026339  C 23.071285406975 13.5700112026339  18.3395918543134 12.5037001451316  18.3395918543134 12.5037001451316  C 18.3395918543134 12.5037001451316  14.9775990668959 12.9383610782102  14.9775990668959 12.9383610782102  C 14.9775990668959 12.9383610782102  8.78347117745328 12.4844294633695  8.78347117745328 12.4844294633695  C 8.78347117745328 12.4844294633695  5.4494314668775 13.6577998639947  5.4494314668775 13.6577998639947  C 5.4494314668775 13.6577998639947  1.63256588358105 11.7007550717111  1.63256588358105 11.7007550717111  C 1.63256588358105 11.7007550717111  2.26023951811777 9.67305111296623  2.26023951811777 9.67305111296623  C 2.26023951811777 9.67305111296623  8.82158900951009 10.546655352848  8.82158900951009 10.546655352848  C 8.82158900951009 10.546655352848  16.042357175685 11.0519754523871  16.042357175685 11.0519754523871  C 16.042357175685 11.0519754523871  18.6089578675156 9.65163924434172  18.6089578675156 9.65163924434172  C 18.6089578675156 9.65163924434172  15.3536950098573 5.36178806543158  15.3536950098573 5.36178806543158  C 15.3536950098573 5.36178806543158  15.4070599747369 2.94652928458259  15.4070599747369 2.94652928458259  C 15.4070599747369 2.94652928458259  9.06554313467418 1.95944214099088  9.06554313467418 1.95944214099088  Z " fill-rule="evenodd" />
    </mask>
  </defs>
  <g transform="matrix(1 0 0 1 -1309 -4230 )">
    <path d="M 9.06554313467418 1.95944214099088  C 9.06554313467418 1.95944214099088  10.6715744586712 0.207951287502611  10.6715744586712 0.207951287502611  C 10.6715744586712 0.207951287502611  16.8631611593101 0.48844676648423  16.8631611593101 0.48844676648423  C 16.8631611593101 0.48844676648423  23.0433323301335 1.48623984438836  23.0433323301335 1.48623984438836  C 23.0433323301335 1.48623984438836  23.6659235870627 4.93140950607808  23.6659235870627 4.93140950607808  C 23.6659235870627 4.93140950607808  23.122109183051 8.9129297767947  23.122109183051 8.9129297767947  C 23.122109183051 8.9129297767947  21.3839360412569 9.9749584605727  21.3839360412569 9.9749584605727  C 21.3839360412569 9.9749584605727  23.2186743575951 11.8634852732577  23.2186743575951 11.8634852732577  C 23.2186743575951 11.8634852732577  23.071285406975 13.5700112026339  23.071285406975 13.5700112026339  C 23.071285406975 13.5700112026339  18.3395918543134 12.5037001451316  18.3395918543134 12.5037001451316  C 18.3395918543134 12.5037001451316  14.9775990668959 12.9383610782102  14.9775990668959 12.9383610782102  C 14.9775990668959 12.9383610782102  8.78347117745328 12.4844294633695  8.78347117745328 12.4844294633695  C 8.78347117745328 12.4844294633695  5.4494314668775 13.6577998639947  5.4494314668775 13.6577998639947  C 5.4494314668775 13.6577998639947  1.63256588358105 11.7007550717111  1.63256588358105 11.7007550717111  C 1.63256588358105 11.7007550717111  2.26023951811777 9.67305111296623  2.26023951811777 9.67305111296623  C 2.26023951811777 9.67305111296623  8.82158900951009 10.546655352848  8.82158900951009 10.546655352848  C 8.82158900951009 10.546655352848  16.042357175685 11.0519754523871  16.042357175685 11.0519754523871  C 16.042357175685 11.0519754523871  18.6089578675156 9.65163924434172  18.6089578675156 9.65163924434172  C 18.6089578675156 9.65163924434172  15.3536950098573 5.36178806543158  15.3536950098573 5.36178806543158  C 15.3536950098573 5.36178806543158  15.4070599747369 2.94652928458259  15.4070599747369 2.94652928458259  C 15.4070599747369 2.94652928458259  9.06554313467418 1.95944214099088  9.06554313467418 1.95944214099088  Z " fill-rule="nonzero" fill="#f2f2f2" stroke="none" transform="matrix(1 0 0 1 1309 4230 )" />
    <path d="M 9.06554313467418 1.95944214099088  C 9.06554313467418 1.95944214099088  10.6715744586712 0.207951287502611  10.6715744586712 0.207951287502611  C 10.6715744586712 0.207951287502611  16.8631611593101 0.48844676648423  16.8631611593101 0.48844676648423  C 16.8631611593101 0.48844676648423  23.0433323301335 1.48623984438836  23.0433323301335 1.48623984438836  C 23.0433323301335 1.48623984438836  23.6659235870627 4.93140950607808  23.6659235870627 4.93140950607808  C 23.6659235870627 4.93140950607808  23.122109183051 8.9129297767947  23.122109183051 8.9129297767947  C 23.122109183051 8.9129297767947  21.3839360412569 9.9749584605727  21.3839360412569 9.9749584605727  C 21.3839360412569 9.9749584605727  23.2186743575951 11.8634852732577  23.2186743575951 11.8634852732577  C 23.2186743575951 11.8634852732577  23.071285406975 13.5700112026339  23.071285406975 13.5700112026339  C 23.071285406975 13.5700112026339  18.3395918543134 12.5037001451316  18.3395918543134 12.5037001451316  C 18.3395918543134 12.5037001451316  14.9775990668959 12.9383610782102  14.9775990668959 12.9383610782102  C 14.9775990668959 12.9383610782102  8.78347117745328 12.4844294633695  8.78347117745328 12.4844294633695  C 8.78347117745328 12.4844294633695  5.4494314668775 13.6577998639947  5.4494314668775 13.6577998639947  C 5.4494314668775 13.6577998639947  1.63256588358105 11.7007550717111  1.63256588358105 11.7007550717111  C 1.63256588358105 11.7007550717111  2.26023951811777 9.67305111296623  2.26023951811777 9.67305111296623  C 2.26023951811777 9.67305111296623  8.82158900951009 10.546655352848  8.82158900951009 10.546655352848  C 8.82158900951009 10.546655352848  16.042357175685 11.0519754523871  16.042357175685 11.0519754523871  C 16.042357175685 11.0519754523871  18.6089578675156 9.65163924434172  18.6089578675156 9.65163924434172  C 18.6089578675156 9.65163924434172  15.3536950098573 5.36178806543158  15.3536950098573 5.36178806543158  C 15.3536950098573 5.36178806543158  15.4070599747369 2.94652928458259  15.4070599747369 2.94652928458259  C 15.4070599747369 2.94652928458259  9.06554313467418 1.95944214099088  9.06554313467418 1.95944214099088  Z " stroke-width="2" stroke="#505050" fill="none" stroke-opacity="0.211764705882353" transform="matrix(1 0 0 1 1309 4230 )" mask="url(#clip126)" />
  </g>
</svg>