<?xml version="1.0" encoding="utf-8"?>
<svg version="1.1" xmlns:xlink="http://www.w3.org/1999/xlink" width="51px" height="27px" xmlns="http://www.w3.org/2000/svg">
  <defs>
    <mask fill="white" id="clip127">
      <path d="M 2.70445925249117 17.1311412439549  C 2.70445925249117 17.1311412439549  1.47985330908577 17.0431191449288  1.47985330908577 17.0431191449288  C 1.47985330908577 17.0431191449288  3.90046505709111 10.44441104397  3.90046505709111 10.44441104397  C 3.90046505709111 10.44441104397  2.48605819252066 8.68592511009303  2.48605819252066 8.68592511009303  C 2.48605819252066 8.68592511009303  6.59147811744054 8.67027673693283  6.59147811744054 8.67027673693283  C 6.59147811744054 8.67027673693283  7.14528080522239 5.33717325381111  7.14528080522239 5.33717325381111  C 7.14528080522239 5.33717325381111  10.8554988121004 7.42818711734234  10.8554988121004 7.42818711734234  C 10.8554988121004 7.42818711734234  13.5439118598312 8.31623229418332  13.5439118598312 8.31623229418332  C 13.5439118598312 8.31623229418332  19.6617415516207 7.31864850522088  19.6617415516207 7.31864850522088  C 19.6617415516207 7.31864850522088  20.2493444034458 5.67752537004528  20.2493444034458 5.67752537004528  C 20.2493444034458 5.67752537004528  23.1457584606723 5.43497558606231  23.1457584606723 5.43497558606231  C 23.1457584606723 5.43497558606231  28.5836645740802 4.16158922015133  28.5836645740802 4.16158922015133  C 28.5836645740802 4.16158922015133  29.3740684101635 4.68776576766294  29.3740684101635 4.68776576766294  C 29.3740684101635 4.68776576766294  32.7956850163664 3.66279732567012  32.7956850163664 3.66279732567012  C 32.7956850163664 3.66279732567012  34.5064933194677 1.72239905380577  34.5064933194677 1.72239905380577  C 34.5064933194677 1.72239905380577  36.8959049160485 1.21773901938946  36.8959049160485 1.21773901938946  C 36.8959049160485 1.21773901938946  44.7037428099901 3.7234347716659  44.7037428099901 3.7234347716659  C 44.7037428099901 3.7234347716659  46.2585503559697 2.88233471430535  46.2585503559697 2.88233471430535  C 46.2585503559697 2.88233471430535  50.3041699906594 5.11809602956828  50.3041699906594 5.11809602956828  C 50.3041699906594 5.11809602956828  50.8137724639234 7.30886827199577  50.8137724639234 7.30886827199577  C 50.8137724639234 7.30886827199577  46.3599508480987 9.01454094645717  46.3599508480987 9.01454094645717  C 46.3599508480987 9.01454094645717  42.9123341157089 15.9086120908147  42.9123341157089 15.9086120908147  C 42.9123341157089 15.9086120908147  38.5027127144022 21.3092568777272  38.5027127144022 21.3092568777272  C 38.5027127144022 21.3092568777272  32.6578843475754 22.7997644212359  32.6578843475754 22.7997644212359  C 32.6578843475754 22.7997644212359  28.107862264859 22.4496320717765  28.107862264859 22.4496320717765  C 28.107862264859 22.4496320717765  20.6341462710128 24.5210854688575  20.6341462710128 24.5210854688575  C 20.6341462710128 24.5210854688575  17.9093330466201 25.6927574092272  17.9093330466201 25.6927574092272  C 17.9093330466201 25.6927574092272  11.8877038217222 24.1846454459133  11.8877038217222 24.1846454459133  C 11.8877038217222 24.1846454459133  6.43807737293749 20.7987287033759  6.43807737293749 20.7987287033759  C 6.43807737293749 20.7987287033759  4.12146612967997 19.8207053808637  4.12146612967997 19.8207053808637  C 4.12146612967997 19.8207053808637  2.70445925249117 17.1311412439549  2.70445925249117 17.1311412439549  Z " fill-rule="evenodd" />
    </mask>
  </defs>
  <g transform="matrix(1 0 0 1 -1954 -4033 )">
    <path d="M 2.70445925249117 17.1311412439549  C 2.70445925249117 17.1311412439549  1.47985330908577 17.0431191449288  1.47985330908577 17.0431191449288  C 1.47985330908577 17.0431191449288  3.90046505709111 10.44441104397  3.90046505709111 10.44441104397  C 3.90046505709111 10.44441104397  2.48605819252066 8.68592511009303  2.48605819252066 8.68592511009303  C 2.48605819252066 8.68592511009303  6.59147811744054 8.67027673693283  6.59147811744054 8.67027673693283  C 6.59147811744054 8.67027673693283  7.14528080522239 5.33717325381111  7.14528080522239 5.33717325381111  C 7.14528080522239 5.33717325381111  10.8554988121004 7.42818711734234  10.8554988121004 7.42818711734234  C 10.8554988121004 7.42818711734234  13.5439118598312 8.31623229418332  13.5439118598312 8.31623229418332  C 13.5439118598312 8.31623229418332  19.6617415516207 7.31864850522088  19.6617415516207 7.31864850522088  C 19.6617415516207 7.31864850522088  20.2493444034458 5.67752537004528  20.2493444034458 5.67752537004528  C 20.2493444034458 5.67752537004528  23.1457584606723 5.43497558606231  23.1457584606723 5.43497558606231  C 23.1457584606723 5.43497558606231  28.5836645740802 4.16158922015133  28.5836645740802 4.16158922015133  C 28.5836645740802 4.16158922015133  29.3740684101635 4.68776576766294  29.3740684101635 4.68776576766294  C 29.3740684101635 4.68776576766294  32.7956850163664 3.66279732567012  32.7956850163664 3.66279732567012  C 32.7956850163664 3.66279732567012  34.5064933194677 1.72239905380577  34.5064933194677 1.72239905380577  C 34.5064933194677 1.72239905380577  36.8959049160485 1.21773901938946  36.8959049160485 1.21773901938946  C 36.8959049160485 1.21773901938946  44.7037428099901 3.7234347716659  44.7037428099901 3.7234347716659  C 44.7037428099901 3.7234347716659  46.2585503559697 2.88233471430535  46.2585503559697 2.88233471430535  C 46.2585503559697 2.88233471430535  50.3041699906594 5.11809602956828  50.3041699906594 5.11809602956828  C 50.3041699906594 5.11809602956828  50.8137724639234 7.30886827199577  50.8137724639234 7.30886827199577  C 50.8137724639234 7.30886827199577  46.3599508480987 9.01454094645717  46.3599508480987 9.01454094645717  C 46.3599508480987 9.01454094645717  42.9123341157089 15.9086120908147  42.9123341157089 15.9086120908147  C 42.9123341157089 15.9086120908147  38.5027127144022 21.3092568777272  38.5027127144022 21.3092568777272  C 38.5027127144022 21.3092568777272  32.6578843475754 22.7997644212359  32.6578843475754 22.7997644212359  C 32.6578843475754 22.7997644212359  28.107862264859 22.4496320717765  28.107862264859 22.4496320717765  C 28.107862264859 22.4496320717765  20.6341462710128 24.5210854688575  20.6341462710128 24.5210854688575  C 20.6341462710128 24.5210854688575  17.9093330466201 25.6927574092272  17.9093330466201 25.6927574092272  C 17.9093330466201 25.6927574092272  11.8877038217222 24.1846454459133  11.8877038217222 24.1846454459133  C 11.8877038217222 24.1846454459133  6.43807737293749 20.7987287033759  6.43807737293749 20.7987287033759  C 6.43807737293749 20.7987287033759  4.12146612967997 19.8207053808637  4.12146612967997 19.8207053808637  C 4.12146612967997 19.8207053808637  2.70445925249117 17.1311412439549  2.70445925249117 17.1311412439549  Z " fill-rule="nonzero" fill="#74b9ff" stroke="none" transform="matrix(1 0 0 1 1954 4033 )" />
    <path d="M 2.70445925249117 17.1311412439549  C 2.70445925249117 17.1311412439549  1.47985330908577 17.0431191449288  1.47985330908577 17.0431191449288  C 1.47985330908577 17.0431191449288  3.90046505709111 10.44441104397  3.90046505709111 10.44441104397  C 3.90046505709111 10.44441104397  2.48605819252066 8.68592511009303  2.48605819252066 8.68592511009303  C 2.48605819252066 8.68592511009303  6.59147811744054 8.67027673693283  6.59147811744054 8.67027673693283  C 6.59147811744054 8.67027673693283  7.14528080522239 5.33717325381111  7.14528080522239 5.33717325381111  C 7.14528080522239 5.33717325381111  10.8554988121004 7.42818711734234  10.8554988121004 7.42818711734234  C 10.8554988121004 7.42818711734234  13.5439118598312 8.31623229418332  13.5439118598312 8.31623229418332  C 13.5439118598312 8.31623229418332  19.6617415516207 7.31864850522088  19.6617415516207 7.31864850522088  C 19.6617415516207 7.31864850522088  20.2493444034458 5.67752537004528  20.2493444034458 5.67752537004528  C 20.2493444034458 5.67752537004528  23.1457584606723 5.43497558606231  23.1457584606723 5.43497558606231  C 23.1457584606723 5.43497558606231  28.5836645740802 4.16158922015133  28.5836645740802 4.16158922015133  C 28.5836645740802 4.16158922015133  29.3740684101635 4.68776576766294  29.3740684101635 4.68776576766294  C 29.3740684101635 4.68776576766294  32.7956850163664 3.66279732567012  32.7956850163664 3.66279732567012  C 32.7956850163664 3.66279732567012  34.5064933194677 1.72239905380577  34.5064933194677 1.72239905380577  C 34.5064933194677 1.72239905380577  36.8959049160485 1.21773901938946  36.8959049160485 1.21773901938946  C 36.8959049160485 1.21773901938946  44.7037428099901 3.7234347716659  44.7037428099901 3.7234347716659  C 44.7037428099901 3.7234347716659  46.2585503559697 2.88233471430535  46.2585503559697 2.88233471430535  C 46.2585503559697 2.88233471430535  50.3041699906594 5.11809602956828  50.3041699906594 5.11809602956828  C 50.3041699906594 5.11809602956828  50.8137724639234 7.30886827199577  50.8137724639234 7.30886827199577  C 50.8137724639234 7.30886827199577  46.3599508480987 9.01454094645717  46.3599508480987 9.01454094645717  C 46.3599508480987 9.01454094645717  42.9123341157089 15.9086120908147  42.9123341157089 15.9086120908147  C 42.9123341157089 15.9086120908147  38.5027127144022 21.3092568777272  38.5027127144022 21.3092568777272  C 38.5027127144022 21.3092568777272  32.6578843475754 22.7997644212359  32.6578843475754 22.7997644212359  C 32.6578843475754 22.7997644212359  28.107862264859 22.4496320717765  28.107862264859 22.4496320717765  C 28.107862264859 22.4496320717765  20.6341462710128 24.5210854688575  20.6341462710128 24.5210854688575  C 20.6341462710128 24.5210854688575  17.9093330466201 25.6927574092272  17.9093330466201 25.6927574092272  C 17.9093330466201 25.6927574092272  11.8877038217222 24.1846454459133  11.8877038217222 24.1846454459133  C 11.8877038217222 24.1846454459133  6.43807737293749 20.7987287033759  6.43807737293749 20.7987287033759  C 6.43807737293749 20.7987287033759  4.12146612967997 19.8207053808637  4.12146612967997 19.8207053808637  C 4.12146612967997 19.8207053808637  2.70445925249117 17.1311412439549  2.70445925249117 17.1311412439549  Z " stroke-width="2" stroke="#505050" fill="none" stroke-opacity="0.211764705882353" transform="matrix(1 0 0 1 1954 4033 )" mask="url(#clip127)" />
  </g>
</svg>