<?xml version="1.0" encoding="utf-8"?>
<svg version="1.1" xmlns:xlink="http://www.w3.org/1999/xlink" width="328px" height="92px" xmlns="http://www.w3.org/2000/svg">
  <defs>
    <mask fill="white" id="clip131">
      <path d="M 183.120229822517 88.3568010222404  C 183.120229822517 88.3568010222404  182.696646008632 89.8925126772224  182.696646008632 89.8925126772224  C 182.696646008632 89.8925126772224  179.703658581184 90.0010577418413  179.703658581184 90.0010577418413  C 179.703658581184 90.0010577418413  168.422905835416 84.558744485033  168.422905835416 84.558744485033  C 168.422905835416 84.558744485033  176.895830545435 83.443142432003  176.895830545435 83.443142432003  C 176.895830545435 83.443142432003  180.634528399721 85.1718230907525  180.634528399721 85.1718230907525  C 180.634528399721 85.1718230907525  183.120229822517 88.3568010222404  183.120229822517 88.3568010222404  Z M 213.793278093813 83.6220407792458  C 213.793278093813 83.6220407792458  209.154147581269 89.3256662286558  209.154147581269 89.3256662286558  C 209.154147581269 89.3256662286558  201.224018896229 90.5779546593542  201.224018896229 90.5779546593542  C 201.224018896229 90.5779546593542  200.371778408413 89.8945227710116  200.371778408413 89.8945227710116  C 200.371778408413 89.8945227710116  201.010958774274 87.9608125457596  201.010958774274 87.9608125457596  C 201.010958774274 87.9608125457596  204.069893382328 83.0350933927868  204.069893382328 83.0350933927868  C 204.069893382328 83.0350933927868  212.941037605998 80.7837883488345  212.941037605998 80.7837883488345  C 212.941037605998 80.7837883488345  213.661383732604 81.9014004956536  213.661383732604 81.9014004956536  C 213.661383732604 81.9014004956536  213.793278093813 83.6220407792458  213.793278093813 83.6220407792458  Z M 158.923975398304 78.2711711122801  C 158.923975398304 78.2711711122801  160.828834345773 76.2731378857723  160.828834345773 76.2731378857723  C 160.828834345773 76.2731378857723  165.235861728503 77.7807082277048  165.235861728503 77.7807082277048  C 165.235861728503 77.7807082277048  169.628958528791 77.3183866561787  169.628958528791 77.3183866561787  C 169.628958528791 77.3183866561787  171.391777394958 81.1847863822206  171.391777394958 81.1847863822206  C 171.391777394958 81.1847863822206  163.171207689569 82.322499466932  163.171207689569 82.322499466932  C 163.171207689569 82.322499466932  156.402763955182 83.082314919266  156.402763955182 83.082314919266  C 156.402763955182 83.082314919266  152.580363910128 83.0380928559026  152.580363910128 83.0380928559026  C 152.580363910128 83.0380928559026  155.022946022528 78.3153931756435  155.022946022528 78.3153931756435  C 155.022946022528 78.3153931756435  158.923975398304 78.2711711122801  158.923975398304 78.2711711122801  Z M 191.883595552884 78.3375042073254  C 191.883595552884 78.3375042073254  198.255107771316 76.2650975106154  198.255107771316 76.2650975106154  C 198.255107771316 76.2650975106154  197.212635031756 80.8692016573094  197.212635031756 80.8692016573094  C 197.212635031756 80.8692016573094  184.683958714543 82.4772766887041  184.683958714543 82.4772766887041  C 184.683958714543 82.4772766887041  175.225611157803 81.7777640500473  175.225611157803 81.7777640500473  C 175.225611157803 81.7777640500473  175.20024685757 78.2470499868094  175.20024685757 78.2470499868094  C 175.20024685757 78.2470499868094  180.851412949396 77.071145120102  180.851412949396 77.071145120102  C 180.851412949396 77.071145120102  185.307920500265 80.2279817385406  185.307920500265 80.2279817385406  C 185.307920500265 80.2279817385406  191.883595552884 78.3375042073254  191.883595552884 78.3375042073254  Z M 93.884836741843 66.8337374514854  C 93.884836741843 66.8337374514854  94.8562894407522 68.8297605842044  94.8562894407522 68.8297605842044  C 94.8562894407522 68.8297605842044  110.322151724901 69.3925868451924  110.322151724901 69.3925868451924  C 110.322151724901 69.3925868451924  111.889665479276 67.0689184248271  111.889665479276 67.0689184248271  C 111.889665479276 67.0689184248271  125.081638030258 69.7805349465162  125.081638030258 69.7805349465162  C 125.081638030258 69.7805349465162  127.671333084007 74.8992231032565  127.671333084007 74.8992231032565  C 127.671333084007 74.8992231032565  138.342094191866 75.9304012171382  138.342094191866 75.9304012171382  C 138.342094191866 75.9304012171382  147.062340611838 79.2912780327531  147.062340611838 79.2912780327531  C 147.062340611838 79.2912780327531  138.948300967426 81.4481086686111  138.948300967426 81.4481086686111  C 138.948300967426 81.4481086686111  131.128487205712 79.1666522178201  131.128487205712 79.1666522178201  C 131.128487205712 79.1666522178201  124.691027806675 79.3214294395918  124.691027806675 79.3214294395918  C 124.691027806675 79.3214294395918  117.312552869009 78.9033299314292  117.312552869009 78.9033299314292  C 117.312552869009 78.9033299314292  110.656960487972 77.8882325678612  110.656960487972 77.8882325678612  C 110.656960487972 77.8882325678612  100.575939143206 75.729391838214  100.575939143206 75.729391838214  C 100.575939143206 75.729391838214  95.3534297253117 75.1705857648043  95.3534297253117 75.1705857648043  C 95.3534297253117 75.1705857648043  92.3959523181888 75.8781387786179  92.3959523181888 75.8781387786179  C 92.3959523181888 75.8781387786179  79.4271856092549 73.5524602644635  79.4271856092549 73.5524602644635  C 79.4271856092549 73.5524602644635  78.1944806179503 69.6659596005293  78.1944806179503 69.6659596005293  C 78.1944806179503 69.6659596005293  71.6885376082855 69.2518802799453  71.6885376082855 69.2518802799453  C 71.6885376082855 69.2518802799453  76.5686289730396 63.8688491123517  76.5686289730396 63.8688491123517  C 76.5686289730396 63.8688491123517  85.1950274821503 64.2025246813662  85.1950274821503 64.2025246813662  C 85.1950274821503 64.2025246813662  90.9375050548135 66.4035773805876  90.9375050548135 66.4035773805876  C 90.9375050548135 66.4035773805876  93.884836741843 66.8337374514854  93.884836741843 66.8337374514854  Z M 282.34537233249 62.9743573761387  C 282.34537233249 62.9743573761387  282.325080892304 67.1181500450961  282.325080892304 67.1181500450961  C 282.325080892304 67.1181500450961  276.824852169548 70.9554190887613  276.824852169548 70.9554190887613  C 276.824852169548 70.9554190887613  276.132406773198 65.2538037331407  276.132406773198 65.2538037331407  C 276.132406773198 65.2538037331407  277.395548924782 63.2296392873724  277.395548924782 63.2296392873724  C 277.395548924782 63.2296392873724  280.72712997765 61.3280905627484  280.72712997765 61.3280905627484  C 280.72712997765 61.3280905627484  282.34537233249 62.9743573761387  282.34537233249 62.9743573761387  Z M 227.391079448516 48.3227837463445  C 227.391079448516 48.3227837463445  229.161507604752 50.1740801262374  229.161507604752 50.1740801262374  C 229.161507604752 50.1740801262374  226.498256080328 53.4957444353941  226.498256080328 53.4957444353941  C 226.498256080328 53.4957444353941  219.739958066035 52.4645663215123  219.739958066035 52.4645663215123  C 219.739958066035 52.4645663215123  218.355067273334 48.5921363141031  218.355067273334 48.5921363141031  C 218.355067273334 48.5921363141031  227.391079448516 48.3227837463445  227.391079448516 48.3227837463445  Z M 244.253266243155 46.4915883043439  C 244.253266243155 46.4915883043439  252.075616434893 48.1257945549985  252.075616434893 48.1257945549985  C 252.075616434893 48.1257945549985  254.662775058619 53.8756521615611  254.662775058619 53.8756521615611  C 254.662775058619 53.8756521615611  248.65904519356 51.5640443039313  248.65904519356 51.5640443039313  C 248.65904519356 51.5640443039313  240.873493019846 51.0956924510378  240.873493019846 51.0956924510378  C 240.873493019846 51.0956924510378  236.860860723047 51.4655497082585  236.860860723047 51.4655497082585  C 236.860860723047 51.4655497082585  231.94018647792 51.2685605169125  231.94018647792 51.2685605169125  C 231.94018647792 51.2685605169125  233.626912443389 46.7247591838961  233.626912443389 46.7247591838961  C 233.626912443389 46.7247591838961  244.253266243155 46.4915883043439  244.253266243155 46.4915883043439  Z M 275.22436482487 35.1667198957471  C 275.22436482487 35.1667198957471  276.348003325175 37.2451568738247  276.348003325175 37.2451568738247  C 276.348003325175 37.2451568738247  278.334028033388 46.3046495819443  278.334028033388 46.3046495819443  C 278.334028033388 46.3046495819443  285.692211530869 49.6594961161911  285.692211530869 49.6594961161911  C 285.692211530869 49.6594961161911  293.480300134606 43.7136386876095  293.480300134606 43.7136386876095  C 293.480300134606 43.7136386876095  301.639995519437 40.3326609341023  301.639995519437 40.3326609341023  C 301.639995519437 40.3326609341023  307.963315567427 40.3286407465237  307.963315567427 40.3286407465237  C 307.963315567427 40.3286407465237  314.043138333184 42.282451909668  314.043138333184 42.282451909668  C 314.043138333184 42.282451909668  319.318912781567 44.2865154175438  319.318912781567 44.2865154175438  C 319.318912781567 44.2865154175438  326.953567151583 45.3578954072104  326.953567151583 45.3578954072104  C 326.953567151583 45.3578954072104  327.072779362677 65.1160966310094  327.072779362677 65.1160966310094  C 327.072779362677 65.1160966310094  327.194528003793 83.5225254591102  327.194528003793 83.5225254591102  C 327.194528003793 83.5225254591102  320.86106223571 78.8731785245908  320.86106223571 78.8731785245908  C 320.86106223571 78.8731785245908  313.637309529463 77.735465439879  313.637309529463 77.735465439879  C 313.637309529463 77.735465439879  311.887172813412 79.3475606588519  311.887172813412 79.3475606588519  C 311.887172813412 79.3475606588519  302.875236940766 79.5204287247269  302.875236940766 79.5204287247269  C 302.875236940766 79.5204287247269  305.893588668447 74.9193240411492  305.893588668447 74.9193240411492  C 305.893588668447 74.9193240411492  310.372924089526 73.3514508855396  310.372924089526 73.3514508855396  C 310.372924089526 73.3514508855396  308.518793742522 67.2206648283475  308.518793742522 67.2206648283475  C 308.518793742522 67.2206648283475  305.104758931212 62.4969444236256  305.104758931212 62.4969444236256  C 305.104758931212 62.4969444236256  291.316725324765 56.2767248703801  291.316725324765 56.2767248703801  C 291.316725324765 56.2767248703801  283.607266051748 55.8083730174863  283.607266051748 55.8083730174863  C 283.607266051748 55.8083730174863  272.928895653819 50.6223310412388  272.928895653819 50.6223310412388  C 272.928895653819 50.6223310412388  270.828731594559 53.3480182194526  270.828731594559 53.3480182194526  C 270.828731594559 53.3480182194526  268.09953288953 53.8425012916065  268.09953288953 53.8425012916065  C 268.09953288953 53.8425012916065  266.483826964713 51.7841652514212  266.483826964713 51.7841652514212  C 266.483826964713 51.7841652514212  266.460999094504 49.3479315788585  266.460999094504 49.3479315788585  C 266.460999094504 49.3479315788585  261.027965984679 46.5941030875954  261.027965984679 46.5941030875954  C 261.027965984679 46.5941030875954  268.687984654927 44.5759689231949  268.687984654927 44.5759689231949  C 268.687984654927 44.5759689231949  273.760844701449 44.6845139878141  273.760844701449 44.6845139878141  C 273.760844701449 44.6845139878141  273.164783645983 43.197044583774  273.164783645983 43.197044583774  C 273.164783645983 43.197044583774  262.755274830519 43.1869941148277  262.755274830519 43.1869941148277  C 262.755274830519 43.1869941148277  259.939837504699 39.852248518473  259.939837504699 39.852248518473  C 259.939837504699 39.852248518473  253.58608029643 38.8190603108021  253.58608029643 38.8190603108021  C 253.58608029643 38.8190603108021  250.575337858819 36.0491510692249  250.575337858819 36.0491510692249  C 250.575337858819 36.0491510692249  260.160506916723 34.6923377614856  260.160506916723 34.6923377614856  C 260.160506916723 34.6923377614856  263.807893290172 32.8671726008528  263.807893290172 32.8671726008528  C 263.807893290172 32.8671726008528  275.22436482487 35.1667198957471  275.22436482487 35.1667198957471  Z M 213.633483002349 21.5965767245654  C 213.633483002349 21.5965767245654  214.876333713746 22.8488651552641  214.876333713746 22.8488651552641  C 214.876333713746 22.8488651552641  209.161756871339 28.4027542949432  209.161756871339 28.4027542949432  C 209.161756871339 28.4027542949432  203.817498812327 29.4801645659778  203.817498812327 29.4801645659778  C 203.817498812327 29.4801645659778  196.974210609569 28.3866735446294  196.974210609569 28.3866735446294  C 196.974210609569 28.3866735446294  183.278776481656 28.6660765813341  183.278776481656 28.6660765813341  C 183.278776481656 28.6660765813341  177.06705935469 29.4721241908209  177.06705935469 29.4721241908209  C 177.06705935469 29.4721241908209  176.057560205432 33.7094018985458  176.057560205432 33.7094018985458  C 176.057560205432 33.7094018985458  182.423999563817 38.6884042145014  182.423999563817 38.6884042145014  C 182.423999563817 38.6884042145014  186.264154619035 36.1516658524763  186.264154619035 36.1516658524763  C 186.264154619035 36.1516658524763  201.369843839881 34.2460969402736  201.369843839881 34.2460969402736  C 201.369843839881 34.2460969402736  200.786464934531 36.825047271873  200.786464934531 36.825047271873  C 200.786464934531 36.825047271873  197.686947446106 36.0109592872292  197.686947446106 36.0109592872292  C 197.686947446106 36.0109592872292  194.597575677774 39.2914323512745  194.597575677774 39.2914323512745  C 194.597575677774 39.2914323512745  186.494969751152 41.4623336436572  186.494969751152 41.4623336436572  C 186.494969751152 41.4623336436572  195.066815232077 50.1047162129409  195.066815232077 50.1047162129409  C 195.066815232077 50.1047162129409  193.765626630144 52.0303860630359  193.765626630144 52.0303860630359  C 193.765626630144 52.0303860630359  200.159966718785 58.5089183457671  200.159966718785 58.5089183457671  C 200.159966718785 58.5089183457671  200.099092398227 62.2014606366068  200.099092398227 62.2014606366068  C 200.099092398227 62.2014606366068  196.302056653405 63.853757731365  196.302056653405 63.853757731365  C 196.302056653405 63.853757731365  193.511983627818 61.8758254427496  193.511983627818 61.8758254427496  C 193.511983627818 61.8758254427496  196.948846309337 57.2747207591716  196.948846309337 57.2747207591716  C 196.948846309337 57.2747207591716  188.125894256109 59.4496422391329  188.125894256109 59.4496422391329  C 188.125894256109 59.4496422391329  186.358002529896 57.8958397400479  186.358002529896 57.8958397400479  C 186.358002529896 57.8958397400479  187.27872662834 55.7269485414543  187.27872662834 55.7269485414543  C 187.27872662834 55.7269485414543  182.152601551329 52.4364250084631  182.152601551329 52.4364250084631  C 182.152601551329 52.4364250084631  182.680178996167 46.9729900892996  182.680178996167 46.9729900892996  C 182.680178996167 46.9729900892996  177.937054852669 48.677549622578  177.937054852669 48.677549622578  C 177.937054852669 48.677549622578  178.538188768182 55.2163847189863  178.538188768182 55.2163847189863  C 178.538188768182 55.2163847189863  178.827341790834 63.2547497821705  178.827341790834 63.2547497821705  C 178.827341790834 63.2547497821705  174.317569209476 64.0708478606034  174.317569209476 64.0708478606034  C 174.317569209476 64.0708478606034  171.263707461469 62.4205608596344  171.263707461469 62.4205608596344  C 171.263707461469 62.4205608596344  173.302997200171 57.2485895399114  173.302997200171 57.2485895399114  C 173.302997200171 57.2485895399114  172.202186570076 51.8333968716899  172.202186570076 51.8333968716899  C 172.202186570076 51.8333968716899  169.209199142628 51.791184902116  169.209199142628 51.791184902116  C 169.209199142628 51.791184902116  166.999968592368 47.9498956708719  166.999968592368 47.9498956708719  C 166.999968592368 47.9498956708719  169.939690989327 44.2794644117137  169.939690989327 44.2794644117137  C 169.939690989327 44.2794644117137  170.951726568608 38.3728194895902  170.951726568608 38.3728194895902  C 170.951726568608 38.3728194895902  174.525556471383 29.9324356685575  174.525556471383 29.9324356685575  C 174.525556471383 29.9324356685575  176.016977325061 27.6248479985063  176.016977325061 27.6248479985063  C 176.016977325061 27.6248479985063  182.063826500515 23.4659639485619  182.063826500515 23.4659639485619  C 182.063826500515 23.4659639485619  187.616071821434 25.1202711371088  187.616071821434 25.1202711371088  C 187.616071821434 25.1202711371088  198.425048582875 25.898177433546  198.425048582875 25.898177433546  C 198.425048582875 25.898177433546  206.605035407892 25.6629964602047  206.605035407892 25.6629964602047  C 206.605035407892 25.6629964602047  213.633483002349 21.5965767245654  213.633483002349 21.5965767245654  Z M 238.728921652493 22.1694534545001  C 238.728921652493 22.1694534545001  239.396002748611 24.4569401866588  239.396002748611 24.4569401866588  C 239.396002748611 24.4569401866588  239.025683965215 30.8098259299946  239.025683965215 30.8098259299946  C 239.025683965215 30.8098259299946  235.358006151579 30.2630804193204  235.358006151579 30.2630804193204  C 235.358006151579 30.2630804193204  232.432253902433 33.6701893920877  232.432253902433 33.6701893920877  C 232.432253902433 33.6701893920877  237.204527208513 36.6250272622754  237.204527208513 36.6250272622754  C 237.204527208513 36.6250272622754  235.213429640253 37.2963985878826  235.213429640253 37.2963985878826  C 235.213429640253 37.2963985878826  230.499494224708 33.7505931436573  230.499494224708 33.7505931436573  C 230.499494224708 33.7505931436573  228.386648015332 25.1323316998446  228.386648015332 25.1323316998446  C 228.386648015332 25.1323316998446  229.817194548451 20.657862924989  229.817194548451 20.657862924989  C 229.817194548451 20.657862924989  232.176074470084 18.6196278226965  232.176074470084 18.6196278226965  C 232.176074470084 18.6196278226965  232.688433334782 21.6789905699247  232.688433334782 21.6789905699247  C 232.688433334782 21.6789905699247  238.728921652493 22.1694534545001  238.728921652493 22.1694534545001  Z M 163.734295154733 17.982428091506  C 163.734295154733 17.982428091506  162.499053733405 20.5633885168945  162.499053733405 20.5633885168945  C 162.499053733405 20.5633885168945  170.473589726537 25.7454103055638  170.473589726537 25.7454103055638  C 170.473589726537 25.7454103055638  162.047569189264 26.4067311622246  162.047569189264 26.4067311622246  C 162.047569189264 26.4067311622246  159.673470687492 30.2218891742085  159.673470687492 30.2218891742085  C 159.673470687492 30.2218891742085  159.98291515033 36.7556833585761  159.98291515033 36.7556833585761  C 159.98291515033 36.7556833585761  153.144699807618 40.5849120270844  153.144699807618 40.5849120270844  C 153.144699807618 40.5849120270844  152.957003985897 46.1629222922345  152.957003985897 46.1629222922345  C 152.957003985897 46.1629222922345  150.215123130751 54.7379823971465  150.215123130751 54.7379823971465  C 150.215123130751 54.7379823971465  149.167577531144 52.7419592644279  149.167577531144 52.7419592644279  C 149.167577531144 52.7419592644279  141.086511477034 55.2666370637174  141.086511477034 55.2666370637174  C 141.086511477034 55.2666370637174  138.271074151215 51.8354069654791  138.271074151215 51.8354069654791  C 138.271074151215 51.8354069654791  131.358053905502 51.5178121467788  131.358053905502 51.5178121467788  C 131.358053905502 51.5178121467788  127.812124732983 49.7207882991953  127.812124732983 49.7207882991953  C 127.812124732983 49.7207882991953  119.358203465454 51.7369123698063  119.358203465454 51.7369123698063  C 119.358203465454 51.7369123698063  116.763435551658 49.0232857543276  116.763435551658 49.0232857543276  C 116.763435551658 49.0232857543276  112.10655002895 49.3328401978711  112.10655002895 49.3328401978711  C 112.10655002895 49.3328401978711  106.242323815171 48.6855899977349  106.242323815171 48.6855899977349  C 106.242323815171 48.6855899977349  105.154195335192 41.1718594135434  105.154195335192 41.1718594135434  C 105.154195335192 41.1718594135434  101.60572973265 39.6160468206689  101.60572973265 39.6160468206689  C 101.60572973265 39.6160468206689  98.1916949213403 34.8259933209024  98.1916949213403 34.8259933209024  C 98.1916949213403 34.8259933209024  97.1999507822452 28.467077296199  97.1999507822452 28.467077296199  C 97.1999507822452 28.467077296199  98.0268269698284 23.2790252261619  98.0268269698284 23.2790252261619  C 98.0268269698284 23.2790252261619  102.252519388581 19.5563315284834  102.252519388581 19.5563315284834  C 102.252519388581 19.5563315284834  103.442105069491 23.2991261640546  103.442105069491 23.2991261640546  C 103.442105069491 23.2991261640546  108.304441424082 26.4630137883235  108.304441424082 26.4630137883235  C 108.304441424082 26.4630137883235  112.892843336162 25.325300703612  112.892843336162 25.325300703612  C 112.892843336162 25.325300703612  117.433053077799 25.7293295552497  117.433053077799 25.7293295552497  C 117.433053077799 25.7293295552497  121.577579735807 22.8971074062061  121.577579735807 22.8971074062061  C 121.577579735807 22.8971074062061  124.989078117094 22.4066445216305  124.989078117094 22.4066445216305  C 124.989078117094 22.4066445216305  131.715690538782 23.9765277710296  131.715690538782 23.9765277710296  C 131.715690538782 23.9765277710296  139.359202631194 22.7825320602192  139.359202631194 22.7825320602192  C 139.359202631194 22.7825320602192  143.006589004644 14.9914085331121  143.006589004644 14.9914085331121  C 143.006589004644 14.9914085331121  145.743396999742 13.0416175575461  145.743396999742 13.0416175575461  C 145.743396999742 13.0416175575461  148.208806982352 6.65956977669863  148.208806982352 6.65956977669863  C 148.208806982352 6.65956977669863  156.386257377346 6.66157987048777  156.386257377346 6.66157987048777  C 156.386257377346 6.66157987048777  162.54978233387 7.60833404522135  162.54978233387 7.60833404522135  C 162.54978233387 7.60833404522135  158.504176446768 12.6757804879037  158.504176446768 12.6757804879037  C 158.504176446768 12.6757804879037  163.734295154733 17.982428091506  163.734295154733 17.982428091506  Z M 77.0315076695998 56.386259304326  C 77.0315076695998 56.386259304326  76.7448910769714 65.0779048490141  76.7448910769714 65.0779048490141  C 76.7448910769714 65.0779048490141  68.871812284769 65.1965003825793  68.871812284769 65.1965003825793  C 68.871812284769 65.1965003825793  62.8833009998496 60.4948910095393  62.8833009998496 60.4948910095393  C 62.8833009998496 60.4948910095393  53.7496164860864 55.9058468886971  53.7496164860864 55.9058468886971  C 53.7496164860864 55.9058468886971  50.7059004581729 52.5047681972971  50.7059004581729 52.5047681972971  C 50.7059004581729 52.5047681972971  45.3235959488131 47.9398452019259  45.3235959488131 47.9398452019259  C 45.3235959488131 47.9398452019259  41.7903489264103 43.7407592761967  41.7903489264103 43.7407592761967  C 41.7903489264103 43.7407592761967  34.5374470575805 35.9013934981476  34.5374470575805 35.9013934981476  C 34.5374470575805 35.9013934981476  28.2927563403119 29.7756483529966  28.2927563403119 29.7756483529966  C 28.2927563403119 29.7756483529966  26.2027380011449 24.9614737277588  26.2027380011449 24.9614737277588  C 26.2027380011449 24.9614737277588  23.5826057871163 20.5895197361549  23.5826057871163 20.5895197361549  C 23.5826057871163 20.5895197361549  17.170510688312 17.0618051360329  17.170510688312 17.0618051360329  C 17.170510688312 17.0618051360329  13.4521042742115 12.2657213548983  13.4521042742115 12.2657213548983  C 13.4521042742115 12.2657213548983  8.09770049510731 9.12394476231101  8.09770049510731 9.12394476231101  C 8.09770049510731 9.12394476231101  0.678642677068658 2.93687607902041  0.678642677068658 2.93687607902041  C 0.678642677068658 2.93687607902041  0.0546808913463434 0.0745025231377902  0.0546808913463434 0.0745025231377902  C 0.0546808913463434 0.0745025231377902  4.63547351335597 0.301643121322192  4.63547351335597 0.301643121322192  C 4.63547351335597 0.301643121322192  15.6435798143092 1.38910386130286  15.6435798143092 1.38910386130286  C 15.6435798143092 1.38910386130286  21.9313898419735 6.88269018730475  21.9313898419735 6.88269018730475  C 21.9313898419735 6.88269018730475  27.4329065624267 10.6877977303423  27.4329065624267 10.6877977303423  C 27.4329065624267 10.6877977303423  31.3542273783885 13.0215166196537  31.3542273783885 13.0215166196537  C 31.3542273783885 13.0215166196537  38.0909855201699 19.045767706016  38.0909855201699 19.045767706016  C 38.0909855201699 19.045767706016  47.1650441457008 19.1322017389533  47.1650441457008 19.1322017389533  C 47.1650441457008 19.1322017389533  53.1383368504806 22.9694707826188  53.1383368504806 22.9694707826188  C 53.1383368504806 22.9694707826188  57.2549627782335 27.6590195929237  57.2549627782335 27.6590195929237  C 57.2549627782335 27.6590195929237  62.6702408778961 30.2158588928411  62.6702408778961 30.2158588928411  C 62.6702408778961 30.2158588928411  59.8218299617737 36.2471296298976  59.8218299617737 36.2471296298976  C 59.8218299617737 36.2471296298976  63.8953365791309 38.1908903240959  63.8953365791309 38.1908903240959  C 63.8953365791309 38.1908903240959  66.4495216125547 38.3336069831321  66.4495216125547 38.3336069831321  C 66.4495216125547 38.3336069831321  67.6568623036271 42.239219215632  67.6568623036271 42.239219215632  C 67.6568623036271 42.239219215632  70.1349544363528 45.3649150579052  70.1349544363528 45.3649150579052  C 70.1349544363528 45.3649150579052  75.3574638542475 45.8614082238482  75.3574638542475 45.8614082238482  C 75.3574638542475 45.8614082238482  78.8171544059757 49.4092237618627  78.8171544059757 49.4092237618627  C 78.8171544059757 49.4092237618627  77.0315076695998 56.386259304326  77.0315076695998 56.386259304326  Z " fill-rule="evenodd" />
    </mask>
  </defs>
  <g transform="matrix(1 0 0 1 -2518 -4311 )">
    <path d="M 183.120229822517 88.3568010222404  C 183.120229822517 88.3568010222404  182.696646008632 89.8925126772224  182.696646008632 89.8925126772224  C 182.696646008632 89.8925126772224  179.703658581184 90.0010577418413  179.703658581184 90.0010577418413  C 179.703658581184 90.0010577418413  168.422905835416 84.558744485033  168.422905835416 84.558744485033  C 168.422905835416 84.558744485033  176.895830545435 83.443142432003  176.895830545435 83.443142432003  C 176.895830545435 83.443142432003  180.634528399721 85.1718230907525  180.634528399721 85.1718230907525  C 180.634528399721 85.1718230907525  183.120229822517 88.3568010222404  183.120229822517 88.3568010222404  Z M 213.793278093813 83.6220407792458  C 213.793278093813 83.6220407792458  209.154147581269 89.3256662286558  209.154147581269 89.3256662286558  C 209.154147581269 89.3256662286558  201.224018896229 90.5779546593542  201.224018896229 90.5779546593542  C 201.224018896229 90.5779546593542  200.371778408413 89.8945227710116  200.371778408413 89.8945227710116  C 200.371778408413 89.8945227710116  201.010958774274 87.9608125457596  201.010958774274 87.9608125457596  C 201.010958774274 87.9608125457596  204.069893382328 83.0350933927868  204.069893382328 83.0350933927868  C 204.069893382328 83.0350933927868  212.941037605998 80.7837883488345  212.941037605998 80.7837883488345  C 212.941037605998 80.7837883488345  213.661383732604 81.9014004956536  213.661383732604 81.9014004956536  C 213.661383732604 81.9014004956536  213.793278093813 83.6220407792458  213.793278093813 83.6220407792458  Z M 158.923975398304 78.2711711122801  C 158.923975398304 78.2711711122801  160.828834345773 76.2731378857723  160.828834345773 76.2731378857723  C 160.828834345773 76.2731378857723  165.235861728503 77.7807082277048  165.235861728503 77.7807082277048  C 165.235861728503 77.7807082277048  169.628958528791 77.3183866561787  169.628958528791 77.3183866561787  C 169.628958528791 77.3183866561787  171.391777394958 81.1847863822206  171.391777394958 81.1847863822206  C 171.391777394958 81.1847863822206  163.171207689569 82.322499466932  163.171207689569 82.322499466932  C 163.171207689569 82.322499466932  156.402763955182 83.082314919266  156.402763955182 83.082314919266  C 156.402763955182 83.082314919266  152.580363910128 83.0380928559026  152.580363910128 83.0380928559026  C 152.580363910128 83.0380928559026  155.022946022528 78.3153931756435  155.022946022528 78.3153931756435  C 155.022946022528 78.3153931756435  158.923975398304 78.2711711122801  158.923975398304 78.2711711122801  Z M 191.883595552884 78.3375042073254  C 191.883595552884 78.3375042073254  198.255107771316 76.2650975106154  198.255107771316 76.2650975106154  C 198.255107771316 76.2650975106154  197.212635031756 80.8692016573094  197.212635031756 80.8692016573094  C 197.212635031756 80.8692016573094  184.683958714543 82.4772766887041  184.683958714543 82.4772766887041  C 184.683958714543 82.4772766887041  175.225611157803 81.7777640500473  175.225611157803 81.7777640500473  C 175.225611157803 81.7777640500473  175.20024685757 78.2470499868094  175.20024685757 78.2470499868094  C 175.20024685757 78.2470499868094  180.851412949396 77.071145120102  180.851412949396 77.071145120102  C 180.851412949396 77.071145120102  185.307920500265 80.2279817385406  185.307920500265 80.2279817385406  C 185.307920500265 80.2279817385406  191.883595552884 78.3375042073254  191.883595552884 78.3375042073254  Z M 93.884836741843 66.8337374514854  C 93.884836741843 66.8337374514854  94.8562894407522 68.8297605842044  94.8562894407522 68.8297605842044  C 94.8562894407522 68.8297605842044  110.322151724901 69.3925868451924  110.322151724901 69.3925868451924  C 110.322151724901 69.3925868451924  111.889665479276 67.0689184248271  111.889665479276 67.0689184248271  C 111.889665479276 67.0689184248271  125.081638030258 69.7805349465162  125.081638030258 69.7805349465162  C 125.081638030258 69.7805349465162  127.671333084007 74.8992231032565  127.671333084007 74.8992231032565  C 127.671333084007 74.8992231032565  138.342094191866 75.9304012171382  138.342094191866 75.9304012171382  C 138.342094191866 75.9304012171382  147.062340611838 79.2912780327531  147.062340611838 79.2912780327531  C 147.062340611838 79.2912780327531  138.948300967426 81.4481086686111  138.948300967426 81.4481086686111  C 138.948300967426 81.4481086686111  131.128487205712 79.1666522178201  131.128487205712 79.1666522178201  C 131.128487205712 79.1666522178201  124.691027806675 79.3214294395918  124.691027806675 79.3214294395918  C 124.691027806675 79.3214294395918  117.312552869009 78.9033299314292  117.312552869009 78.9033299314292  C 117.312552869009 78.9033299314292  110.656960487972 77.8882325678612  110.656960487972 77.8882325678612  C 110.656960487972 77.8882325678612  100.575939143206 75.729391838214  100.575939143206 75.729391838214  C 100.575939143206 75.729391838214  95.3534297253117 75.1705857648043  95.3534297253117 75.1705857648043  C 95.3534297253117 75.1705857648043  92.3959523181888 75.8781387786179  92.3959523181888 75.8781387786179  C 92.3959523181888 75.8781387786179  79.4271856092549 73.5524602644635  79.4271856092549 73.5524602644635  C 79.4271856092549 73.5524602644635  78.1944806179503 69.6659596005293  78.1944806179503 69.6659596005293  C 78.1944806179503 69.6659596005293  71.6885376082855 69.2518802799453  71.6885376082855 69.2518802799453  C 71.6885376082855 69.2518802799453  76.5686289730396 63.8688491123517  76.5686289730396 63.8688491123517  C 76.5686289730396 63.8688491123517  85.1950274821503 64.2025246813662  85.1950274821503 64.2025246813662  C 85.1950274821503 64.2025246813662  90.9375050548135 66.4035773805876  90.9375050548135 66.4035773805876  C 90.9375050548135 66.4035773805876  93.884836741843 66.8337374514854  93.884836741843 66.8337374514854  Z M 282.34537233249 62.9743573761387  C 282.34537233249 62.9743573761387  282.325080892304 67.1181500450961  282.325080892304 67.1181500450961  C 282.325080892304 67.1181500450961  276.824852169548 70.9554190887613  276.824852169548 70.9554190887613  C 276.824852169548 70.9554190887613  276.132406773198 65.2538037331407  276.132406773198 65.2538037331407  C 276.132406773198 65.2538037331407  277.395548924782 63.2296392873724  277.395548924782 63.2296392873724  C 277.395548924782 63.2296392873724  280.72712997765 61.3280905627484  280.72712997765 61.3280905627484  C 280.72712997765 61.3280905627484  282.34537233249 62.9743573761387  282.34537233249 62.9743573761387  Z M 227.391079448516 48.3227837463445  C 227.391079448516 48.3227837463445  229.161507604752 50.1740801262374  229.161507604752 50.1740801262374  C 229.161507604752 50.1740801262374  226.498256080328 53.4957444353941  226.498256080328 53.4957444353941  C 226.498256080328 53.4957444353941  219.739958066035 52.4645663215123  219.739958066035 52.4645663215123  C 219.739958066035 52.4645663215123  218.355067273334 48.5921363141031  218.355067273334 48.5921363141031  C 218.355067273334 48.5921363141031  227.391079448516 48.3227837463445  227.391079448516 48.3227837463445  Z M 244.253266243155 46.4915883043439  C 244.253266243155 46.4915883043439  252.075616434893 48.1257945549985  252.075616434893 48.1257945549985  C 252.075616434893 48.1257945549985  254.662775058619 53.8756521615611  254.662775058619 53.8756521615611  C 254.662775058619 53.8756521615611  248.65904519356 51.5640443039313  248.65904519356 51.5640443039313  C 248.65904519356 51.5640443039313  240.873493019846 51.0956924510378  240.873493019846 51.0956924510378  C 240.873493019846 51.0956924510378  236.860860723047 51.4655497082585  236.860860723047 51.4655497082585  C 236.860860723047 51.4655497082585  231.94018647792 51.2685605169125  231.94018647792 51.2685605169125  C 231.94018647792 51.2685605169125  233.626912443389 46.7247591838961  233.626912443389 46.7247591838961  C 233.626912443389 46.7247591838961  244.253266243155 46.4915883043439  244.253266243155 46.4915883043439  Z M 275.22436482487 35.1667198957471  C 275.22436482487 35.1667198957471  276.348003325175 37.2451568738247  276.348003325175 37.2451568738247  C 276.348003325175 37.2451568738247  278.334028033388 46.3046495819443  278.334028033388 46.3046495819443  C 278.334028033388 46.3046495819443  285.692211530869 49.6594961161911  285.692211530869 49.6594961161911  C 285.692211530869 49.6594961161911  293.480300134606 43.7136386876095  293.480300134606 43.7136386876095  C 293.480300134606 43.7136386876095  301.639995519437 40.3326609341023  301.639995519437 40.3326609341023  C 301.639995519437 40.3326609341023  307.963315567427 40.3286407465237  307.963315567427 40.3286407465237  C 307.963315567427 40.3286407465237  314.043138333184 42.282451909668  314.043138333184 42.282451909668  C 314.043138333184 42.282451909668  319.318912781567 44.2865154175438  319.318912781567 44.2865154175438  C 319.318912781567 44.2865154175438  326.953567151583 45.3578954072104  326.953567151583 45.3578954072104  C 326.953567151583 45.3578954072104  327.072779362677 65.1160966310094  327.072779362677 65.1160966310094  C 327.072779362677 65.1160966310094  327.194528003793 83.5225254591102  327.194528003793 83.5225254591102  C 327.194528003793 83.5225254591102  320.86106223571 78.8731785245908  320.86106223571 78.8731785245908  C 320.86106223571 78.8731785245908  313.637309529463 77.735465439879  313.637309529463 77.735465439879  C 313.637309529463 77.735465439879  311.887172813412 79.3475606588519  311.887172813412 79.3475606588519  C 311.887172813412 79.3475606588519  302.875236940766 79.5204287247269  302.875236940766 79.5204287247269  C 302.875236940766 79.5204287247269  305.893588668447 74.9193240411492  305.893588668447 74.9193240411492  C 305.893588668447 74.9193240411492  310.372924089526 73.3514508855396  310.372924089526 73.3514508855396  C 310.372924089526 73.3514508855396  308.518793742522 67.2206648283475  308.518793742522 67.2206648283475  C 308.518793742522 67.2206648283475  305.104758931212 62.4969444236256  305.104758931212 62.4969444236256  C 305.104758931212 62.4969444236256  291.316725324765 56.2767248703801  291.316725324765 56.2767248703801  C 291.316725324765 56.2767248703801  283.607266051748 55.8083730174863  283.607266051748 55.8083730174863  C 283.607266051748 55.8083730174863  272.928895653819 50.6223310412388  272.928895653819 50.6223310412388  C 272.928895653819 50.6223310412388  270.828731594559 53.3480182194526  270.828731594559 53.3480182194526  C 270.828731594559 53.3480182194526  268.09953288953 53.8425012916065  268.09953288953 53.8425012916065  C 268.09953288953 53.8425012916065  266.483826964713 51.7841652514212  266.483826964713 51.7841652514212  C 266.483826964713 51.7841652514212  266.460999094504 49.3479315788585  266.460999094504 49.3479315788585  C 266.460999094504 49.3479315788585  261.027965984679 46.5941030875954  261.027965984679 46.5941030875954  C 261.027965984679 46.5941030875954  268.687984654927 44.5759689231949  268.687984654927 44.5759689231949  C 268.687984654927 44.5759689231949  273.760844701449 44.6845139878141  273.760844701449 44.6845139878141  C 273.760844701449 44.6845139878141  273.164783645983 43.197044583774  273.164783645983 43.197044583774  C 273.164783645983 43.197044583774  262.755274830519 43.1869941148277  262.755274830519 43.1869941148277  C 262.755274830519 43.1869941148277  259.939837504699 39.852248518473  259.939837504699 39.852248518473  C 259.939837504699 39.852248518473  253.58608029643 38.8190603108021  253.58608029643 38.8190603108021  C 253.58608029643 38.8190603108021  250.575337858819 36.0491510692249  250.575337858819 36.0491510692249  C 250.575337858819 36.0491510692249  260.160506916723 34.6923377614856  260.160506916723 34.6923377614856  C 260.160506916723 34.6923377614856  263.807893290172 32.8671726008528  263.807893290172 32.8671726008528  C 263.807893290172 32.8671726008528  275.22436482487 35.1667198957471  275.22436482487 35.1667198957471  Z M 213.633483002349 21.5965767245654  C 213.633483002349 21.5965767245654  214.876333713746 22.8488651552641  214.876333713746 22.8488651552641  C 214.876333713746 22.8488651552641  209.161756871339 28.4027542949432  209.161756871339 28.4027542949432  C 209.161756871339 28.4027542949432  203.817498812327 29.4801645659778  203.817498812327 29.4801645659778  C 203.817498812327 29.4801645659778  196.974210609569 28.3866735446294  196.974210609569 28.3866735446294  C 196.974210609569 28.3866735446294  183.278776481656 28.6660765813341  183.278776481656 28.6660765813341  C 183.278776481656 28.6660765813341  177.06705935469 29.4721241908209  177.06705935469 29.4721241908209  C 177.06705935469 29.4721241908209  176.057560205432 33.7094018985458  176.057560205432 33.7094018985458  C 176.057560205432 33.7094018985458  182.423999563817 38.6884042145014  182.423999563817 38.6884042145014  C 182.423999563817 38.6884042145014  186.264154619035 36.1516658524763  186.264154619035 36.1516658524763  C 186.264154619035 36.1516658524763  201.369843839881 34.2460969402736  201.369843839881 34.2460969402736  C 201.369843839881 34.2460969402736  200.786464934531 36.825047271873  200.786464934531 36.825047271873  C 200.786464934531 36.825047271873  197.686947446106 36.0109592872292  197.686947446106 36.0109592872292  C 197.686947446106 36.0109592872292  194.597575677774 39.2914323512745  194.597575677774 39.2914323512745  C 194.597575677774 39.2914323512745  186.494969751152 41.4623336436572  186.494969751152 41.4623336436572  C 186.494969751152 41.4623336436572  195.066815232077 50.1047162129409  195.066815232077 50.1047162129409  C 195.066815232077 50.1047162129409  193.765626630144 52.0303860630359  193.765626630144 52.0303860630359  C 193.765626630144 52.0303860630359  200.159966718785 58.5089183457671  200.159966718785 58.5089183457671  C 200.159966718785 58.5089183457671  200.099092398227 62.2014606366068  200.099092398227 62.2014606366068  C 200.099092398227 62.2014606366068  196.302056653405 63.853757731365  196.302056653405 63.853757731365  C 196.302056653405 63.853757731365  193.511983627818 61.8758254427496  193.511983627818 61.8758254427496  C 193.511983627818 61.8758254427496  196.948846309337 57.2747207591716  196.948846309337 57.2747207591716  C 196.948846309337 57.2747207591716  188.125894256109 59.4496422391329  188.125894256109 59.4496422391329  C 188.125894256109 59.4496422391329  186.358002529896 57.8958397400479  186.358002529896 57.8958397400479  C 186.358002529896 57.8958397400479  187.27872662834 55.7269485414543  187.27872662834 55.7269485414543  C 187.27872662834 55.7269485414543  182.152601551329 52.4364250084631  182.152601551329 52.4364250084631  C 182.152601551329 52.4364250084631  182.680178996167 46.9729900892996  182.680178996167 46.9729900892996  C 182.680178996167 46.9729900892996  177.937054852669 48.677549622578  177.937054852669 48.677549622578  C 177.937054852669 48.677549622578  178.538188768182 55.2163847189863  178.538188768182 55.2163847189863  C 178.538188768182 55.2163847189863  178.827341790834 63.2547497821705  178.827341790834 63.2547497821705  C 178.827341790834 63.2547497821705  174.317569209476 64.0708478606034  174.317569209476 64.0708478606034  C 174.317569209476 64.0708478606034  171.263707461469 62.4205608596344  171.263707461469 62.4205608596344  C 171.263707461469 62.4205608596344  173.302997200171 57.2485895399114  173.302997200171 57.2485895399114  C 173.302997200171 57.2485895399114  172.202186570076 51.8333968716899  172.202186570076 51.8333968716899  C 172.202186570076 51.8333968716899  169.209199142628 51.791184902116  169.209199142628 51.791184902116  C 169.209199142628 51.791184902116  166.999968592368 47.9498956708719  166.999968592368 47.9498956708719  C 166.999968592368 47.9498956708719  169.939690989327 44.2794644117137  169.939690989327 44.2794644117137  C 169.939690989327 44.2794644117137  170.951726568608 38.3728194895902  170.951726568608 38.3728194895902  C 170.951726568608 38.3728194895902  174.525556471383 29.9324356685575  174.525556471383 29.9324356685575  C 174.525556471383 29.9324356685575  176.016977325061 27.6248479985063  176.016977325061 27.6248479985063  C 176.016977325061 27.6248479985063  182.063826500515 23.4659639485619  182.063826500515 23.4659639485619  C 182.063826500515 23.4659639485619  187.616071821434 25.1202711371088  187.616071821434 25.1202711371088  C 187.616071821434 25.1202711371088  198.425048582875 25.898177433546  198.425048582875 25.898177433546  C 198.425048582875 25.898177433546  206.605035407892 25.6629964602047  206.605035407892 25.6629964602047  C 206.605035407892 25.6629964602047  213.633483002349 21.5965767245654  213.633483002349 21.5965767245654  Z M 238.728921652493 22.1694534545001  C 238.728921652493 22.1694534545001  239.396002748611 24.4569401866588  239.396002748611 24.4569401866588  C 239.396002748611 24.4569401866588  239.025683965215 30.8098259299946  239.025683965215 30.8098259299946  C 239.025683965215 30.8098259299946  235.358006151579 30.2630804193204  235.358006151579 30.2630804193204  C 235.358006151579 30.2630804193204  232.432253902433 33.6701893920877  232.432253902433 33.6701893920877  C 232.432253902433 33.6701893920877  237.204527208513 36.6250272622754  237.204527208513 36.6250272622754  C 237.204527208513 36.6250272622754  235.213429640253 37.2963985878826  235.213429640253 37.2963985878826  C 235.213429640253 37.2963985878826  230.499494224708 33.7505931436573  230.499494224708 33.7505931436573  C 230.499494224708 33.7505931436573  228.386648015332 25.1323316998446  228.386648015332 25.1323316998446  C 228.386648015332 25.1323316998446  229.817194548451 20.657862924989  229.817194548451 20.657862924989  C 229.817194548451 20.657862924989  232.176074470084 18.6196278226965  232.176074470084 18.6196278226965  C 232.176074470084 18.6196278226965  232.688433334782 21.6789905699247  232.688433334782 21.6789905699247  C 232.688433334782 21.6789905699247  238.728921652493 22.1694534545001  238.728921652493 22.1694534545001  Z M 163.734295154733 17.982428091506  C 163.734295154733 17.982428091506  162.499053733405 20.5633885168945  162.499053733405 20.5633885168945  C 162.499053733405 20.5633885168945  170.473589726537 25.7454103055638  170.473589726537 25.7454103055638  C 170.473589726537 25.7454103055638  162.047569189264 26.4067311622246  162.047569189264 26.4067311622246  C 162.047569189264 26.4067311622246  159.673470687492 30.2218891742085  159.673470687492 30.2218891742085  C 159.673470687492 30.2218891742085  159.98291515033 36.7556833585761  159.98291515033 36.7556833585761  C 159.98291515033 36.7556833585761  153.144699807618 40.5849120270844  153.144699807618 40.5849120270844  C 153.144699807618 40.5849120270844  152.957003985897 46.1629222922345  152.957003985897 46.1629222922345  C 152.957003985897 46.1629222922345  150.215123130751 54.7379823971465  150.215123130751 54.7379823971465  C 150.215123130751 54.7379823971465  149.167577531144 52.7419592644279  149.167577531144 52.7419592644279  C 149.167577531144 52.7419592644279  141.086511477034 55.2666370637174  141.086511477034 55.2666370637174  C 141.086511477034 55.2666370637174  138.271074151215 51.8354069654791  138.271074151215 51.8354069654791  C 138.271074151215 51.8354069654791  131.358053905502 51.5178121467788  131.358053905502 51.5178121467788  C 131.358053905502 51.5178121467788  127.812124732983 49.7207882991953  127.812124732983 49.7207882991953  C 127.812124732983 49.7207882991953  119.358203465454 51.7369123698063  119.358203465454 51.7369123698063  C 119.358203465454 51.7369123698063  116.763435551658 49.0232857543276  116.763435551658 49.0232857543276  C 116.763435551658 49.0232857543276  112.10655002895 49.3328401978711  112.10655002895 49.3328401978711  C 112.10655002895 49.3328401978711  106.242323815171 48.6855899977349  106.242323815171 48.6855899977349  C 106.242323815171 48.6855899977349  105.154195335192 41.1718594135434  105.154195335192 41.1718594135434  C 105.154195335192 41.1718594135434  101.60572973265 39.6160468206689  101.60572973265 39.6160468206689  C 101.60572973265 39.6160468206689  98.1916949213403 34.8259933209024  98.1916949213403 34.8259933209024  C 98.1916949213403 34.8259933209024  97.1999507822452 28.467077296199  97.1999507822452 28.467077296199  C 97.1999507822452 28.467077296199  98.0268269698284 23.2790252261619  98.0268269698284 23.2790252261619  C 98.0268269698284 23.2790252261619  102.252519388581 19.5563315284834  102.252519388581 19.5563315284834  C 102.252519388581 19.5563315284834  103.442105069491 23.2991261640546  103.442105069491 23.2991261640546  C 103.442105069491 23.2991261640546  108.304441424082 26.4630137883235  108.304441424082 26.4630137883235  C 108.304441424082 26.4630137883235  112.892843336162 25.325300703612  112.892843336162 25.325300703612  C 112.892843336162 25.325300703612  117.433053077799 25.7293295552497  117.433053077799 25.7293295552497  C 117.433053077799 25.7293295552497  121.577579735807 22.8971074062061  121.577579735807 22.8971074062061  C 121.577579735807 22.8971074062061  124.989078117094 22.4066445216305  124.989078117094 22.4066445216305  C 124.989078117094 22.4066445216305  131.715690538782 23.9765277710296  131.715690538782 23.9765277710296  C 131.715690538782 23.9765277710296  139.359202631194 22.7825320602192  139.359202631194 22.7825320602192  C 139.359202631194 22.7825320602192  143.006589004644 14.9914085331121  143.006589004644 14.9914085331121  C 143.006589004644 14.9914085331121  145.743396999742 13.0416175575461  145.743396999742 13.0416175575461  C 145.743396999742 13.0416175575461  148.208806982352 6.65956977669863  148.208806982352 6.65956977669863  C 148.208806982352 6.65956977669863  156.386257377346 6.66157987048777  156.386257377346 6.66157987048777  C 156.386257377346 6.66157987048777  162.54978233387 7.60833404522135  162.54978233387 7.60833404522135  C 162.54978233387 7.60833404522135  158.504176446768 12.6757804879037  158.504176446768 12.6757804879037  C 158.504176446768 12.6757804879037  163.734295154733 17.982428091506  163.734295154733 17.982428091506  Z M 77.0315076695998 56.386259304326  C 77.0315076695998 56.386259304326  76.7448910769714 65.0779048490141  76.7448910769714 65.0779048490141  C 76.7448910769714 65.0779048490141  68.871812284769 65.1965003825793  68.871812284769 65.1965003825793  C 68.871812284769 65.1965003825793  62.8833009998496 60.4948910095393  62.8833009998496 60.4948910095393  C 62.8833009998496 60.4948910095393  53.7496164860864 55.9058468886971  53.7496164860864 55.9058468886971  C 53.7496164860864 55.9058468886971  50.7059004581729 52.5047681972971  50.7059004581729 52.5047681972971  C 50.7059004581729 52.5047681972971  45.3235959488131 47.9398452019259  45.3235959488131 47.9398452019259  C 45.3235959488131 47.9398452019259  41.7903489264103 43.7407592761967  41.7903489264103 43.7407592761967  C 41.7903489264103 43.7407592761967  34.5374470575805 35.9013934981476  34.5374470575805 35.9013934981476  C 34.5374470575805 35.9013934981476  28.2927563403119 29.7756483529966  28.2927563403119 29.7756483529966  C 28.2927563403119 29.7756483529966  26.2027380011449 24.9614737277588  26.2027380011449 24.9614737277588  C 26.2027380011449 24.9614737277588  23.5826057871163 20.5895197361549  23.5826057871163 20.5895197361549  C 23.5826057871163 20.5895197361549  17.170510688312 17.0618051360329  17.170510688312 17.0618051360329  C 17.170510688312 17.0618051360329  13.4521042742115 12.2657213548983  13.4521042742115 12.2657213548983  C 13.4521042742115 12.2657213548983  8.09770049510731 9.12394476231101  8.09770049510731 9.12394476231101  C 8.09770049510731 9.12394476231101  0.678642677068658 2.93687607902041  0.678642677068658 2.93687607902041  C 0.678642677068658 2.93687607902041  0.0546808913463434 0.0745025231377902  0.0546808913463434 0.0745025231377902  C 0.0546808913463434 0.0745025231377902  4.63547351335597 0.301643121322192  4.63547351335597 0.301643121322192  C 4.63547351335597 0.301643121322192  15.6435798143092 1.38910386130286  15.6435798143092 1.38910386130286  C 15.6435798143092 1.38910386130286  21.9313898419735 6.88269018730475  21.9313898419735 6.88269018730475  C 21.9313898419735 6.88269018730475  27.4329065624267 10.6877977303423  27.4329065624267 10.6877977303423  C 27.4329065624267 10.6877977303423  31.3542273783885 13.0215166196537  31.3542273783885 13.0215166196537  C 31.3542273783885 13.0215166196537  38.0909855201699 19.045767706016  38.0909855201699 19.045767706016  C 38.0909855201699 19.045767706016  47.1650441457008 19.1322017389533  47.1650441457008 19.1322017389533  C 47.1650441457008 19.1322017389533  53.1383368504806 22.9694707826188  53.1383368504806 22.9694707826188  C 53.1383368504806 22.9694707826188  57.2549627782335 27.6590195929237  57.2549627782335 27.6590195929237  C 57.2549627782335 27.6590195929237  62.6702408778961 30.2158588928411  62.6702408778961 30.2158588928411  C 62.6702408778961 30.2158588928411  59.8218299617737 36.2471296298976  59.8218299617737 36.2471296298976  C 59.8218299617737 36.2471296298976  63.8953365791309 38.1908903240959  63.8953365791309 38.1908903240959  C 63.8953365791309 38.1908903240959  66.4495216125547 38.3336069831321  66.4495216125547 38.3336069831321  C 66.4495216125547 38.3336069831321  67.6568623036271 42.239219215632  67.6568623036271 42.239219215632  C 67.6568623036271 42.239219215632  70.1349544363528 45.3649150579052  70.1349544363528 45.3649150579052  C 70.1349544363528 45.3649150579052  75.3574638542475 45.8614082238482  75.3574638542475 45.8614082238482  C 75.3574638542475 45.8614082238482  78.8171544059757 49.4092237618627  78.8171544059757 49.4092237618627  C 78.8171544059757 49.4092237618627  77.0315076695998 56.386259304326  77.0315076695998 56.386259304326  Z " fill-rule="nonzero" fill="#f2f2f2" stroke="none" transform="matrix(1 0 0 1 2518 4311 )" />
    <path d="M 183.120229822517 88.3568010222404  C 183.120229822517 88.3568010222404  182.696646008632 89.8925126772224  182.696646008632 89.8925126772224  C 182.696646008632 89.8925126772224  179.703658581184 90.0010577418413  179.703658581184 90.0010577418413  C 179.703658581184 90.0010577418413  168.422905835416 84.558744485033  168.422905835416 84.558744485033  C 168.422905835416 84.558744485033  176.895830545435 83.443142432003  176.895830545435 83.443142432003  C 176.895830545435 83.443142432003  180.634528399721 85.1718230907525  180.634528399721 85.1718230907525  C 180.634528399721 85.1718230907525  183.120229822517 88.3568010222404  183.120229822517 88.3568010222404  Z " stroke-width="2" stroke="#505050" fill="none" stroke-opacity="0.211764705882353" transform="matrix(1 0 0 1 2518 4311 )" mask="url(#clip131)" />
    <path d="M 213.793278093813 83.6220407792458  C 213.793278093813 83.6220407792458  209.154147581269 89.3256662286558  209.154147581269 89.3256662286558  C 209.154147581269 89.3256662286558  201.224018896229 90.5779546593542  201.224018896229 90.5779546593542  C 201.224018896229 90.5779546593542  200.371778408413 89.8945227710116  200.371778408413 89.8945227710116  C 200.371778408413 89.8945227710116  201.010958774274 87.9608125457596  201.010958774274 87.9608125457596  C 201.010958774274 87.9608125457596  204.069893382328 83.0350933927868  204.069893382328 83.0350933927868  C 204.069893382328 83.0350933927868  212.941037605998 80.7837883488345  212.941037605998 80.7837883488345  C 212.941037605998 80.7837883488345  213.661383732604 81.9014004956536  213.661383732604 81.9014004956536  C 213.661383732604 81.9014004956536  213.793278093813 83.6220407792458  213.793278093813 83.6220407792458  Z " stroke-width="2" stroke="#505050" fill="none" stroke-opacity="0.211764705882353" transform="matrix(1 0 0 1 2518 4311 )" mask="url(#clip131)" />
    <path d="M 158.923975398304 78.2711711122801  C 158.923975398304 78.2711711122801  160.828834345773 76.2731378857723  160.828834345773 76.2731378857723  C 160.828834345773 76.2731378857723  165.235861728503 77.7807082277048  165.235861728503 77.7807082277048  C 165.235861728503 77.7807082277048  169.628958528791 77.3183866561787  169.628958528791 77.3183866561787  C 169.628958528791 77.3183866561787  171.391777394958 81.1847863822206  171.391777394958 81.1847863822206  C 171.391777394958 81.1847863822206  163.171207689569 82.322499466932  163.171207689569 82.322499466932  C 163.171207689569 82.322499466932  156.402763955182 83.082314919266  156.402763955182 83.082314919266  C 156.402763955182 83.082314919266  152.580363910128 83.0380928559026  152.580363910128 83.0380928559026  C 152.580363910128 83.0380928559026  155.022946022528 78.3153931756435  155.022946022528 78.3153931756435  C 155.022946022528 78.3153931756435  158.923975398304 78.2711711122801  158.923975398304 78.2711711122801  Z " stroke-width="2" stroke="#505050" fill="none" stroke-opacity="0.211764705882353" transform="matrix(1 0 0 1 2518 4311 )" mask="url(#clip131)" />
    <path d="M 191.883595552884 78.3375042073254  C 191.883595552884 78.3375042073254  198.255107771316 76.2650975106154  198.255107771316 76.2650975106154  C 198.255107771316 76.2650975106154  197.212635031756 80.8692016573094  197.212635031756 80.8692016573094  C 197.212635031756 80.8692016573094  184.683958714543 82.4772766887041  184.683958714543 82.4772766887041  C 184.683958714543 82.4772766887041  175.225611157803 81.7777640500473  175.225611157803 81.7777640500473  C 175.225611157803 81.7777640500473  175.20024685757 78.2470499868094  175.20024685757 78.2470499868094  C 175.20024685757 78.2470499868094  180.851412949396 77.071145120102  180.851412949396 77.071145120102  C 180.851412949396 77.071145120102  185.307920500265 80.2279817385406  185.307920500265 80.2279817385406  C 185.307920500265 80.2279817385406  191.883595552884 78.3375042073254  191.883595552884 78.3375042073254  Z " stroke-width="2" stroke="#505050" fill="none" stroke-opacity="0.211764705882353" transform="matrix(1 0 0 1 2518 4311 )" mask="url(#clip131)" />
    <path d="M 93.884836741843 66.8337374514854  C 93.884836741843 66.8337374514854  94.8562894407522 68.8297605842044  94.8562894407522 68.8297605842044  C 94.8562894407522 68.8297605842044  110.322151724901 69.3925868451924  110.322151724901 69.3925868451924  C 110.322151724901 69.3925868451924  111.889665479276 67.0689184248271  111.889665479276 67.0689184248271  C 111.889665479276 67.0689184248271  125.081638030258 69.7805349465162  125.081638030258 69.7805349465162  C 125.081638030258 69.7805349465162  127.671333084007 74.8992231032565  127.671333084007 74.8992231032565  C 127.671333084007 74.8992231032565  138.342094191866 75.9304012171382  138.342094191866 75.9304012171382  C 138.342094191866 75.9304012171382  147.062340611838 79.2912780327531  147.062340611838 79.2912780327531  C 147.062340611838 79.2912780327531  138.948300967426 81.4481086686111  138.948300967426 81.4481086686111  C 138.948300967426 81.4481086686111  131.128487205712 79.1666522178201  131.128487205712 79.1666522178201  C 131.128487205712 79.1666522178201  124.691027806675 79.3214294395918  124.691027806675 79.3214294395918  C 124.691027806675 79.3214294395918  117.312552869009 78.9033299314292  117.312552869009 78.9033299314292  C 117.312552869009 78.9033299314292  110.656960487972 77.8882325678612  110.656960487972 77.8882325678612  C 110.656960487972 77.8882325678612  100.575939143206 75.729391838214  100.575939143206 75.729391838214  C 100.575939143206 75.729391838214  95.3534297253117 75.1705857648043  95.3534297253117 75.1705857648043  C 95.3534297253117 75.1705857648043  92.3959523181888 75.8781387786179  92.3959523181888 75.8781387786179  C 92.3959523181888 75.8781387786179  79.4271856092549 73.5524602644635  79.4271856092549 73.5524602644635  C 79.4271856092549 73.5524602644635  78.1944806179503 69.6659596005293  78.1944806179503 69.6659596005293  C 78.1944806179503 69.6659596005293  71.6885376082855 69.2518802799453  71.6885376082855 69.2518802799453  C 71.6885376082855 69.2518802799453  76.5686289730396 63.8688491123517  76.5686289730396 63.8688491123517  C 76.5686289730396 63.8688491123517  85.1950274821503 64.2025246813662  85.1950274821503 64.2025246813662  C 85.1950274821503 64.2025246813662  90.9375050548135 66.4035773805876  90.9375050548135 66.4035773805876  C 90.9375050548135 66.4035773805876  93.884836741843 66.8337374514854  93.884836741843 66.8337374514854  Z " stroke-width="2" stroke="#505050" fill="none" stroke-opacity="0.211764705882353" transform="matrix(1 0 0 1 2518 4311 )" mask="url(#clip131)" />
    <path d="M 282.34537233249 62.9743573761387  C 282.34537233249 62.9743573761387  282.325080892304 67.1181500450961  282.325080892304 67.1181500450961  C 282.325080892304 67.1181500450961  276.824852169548 70.9554190887613  276.824852169548 70.9554190887613  C 276.824852169548 70.9554190887613  276.132406773198 65.2538037331407  276.132406773198 65.2538037331407  C 276.132406773198 65.2538037331407  277.395548924782 63.2296392873724  277.395548924782 63.2296392873724  C 277.395548924782 63.2296392873724  280.72712997765 61.3280905627484  280.72712997765 61.3280905627484  C 280.72712997765 61.3280905627484  282.34537233249 62.9743573761387  282.34537233249 62.9743573761387  Z " stroke-width="2" stroke="#505050" fill="none" stroke-opacity="0.211764705882353" transform="matrix(1 0 0 1 2518 4311 )" mask="url(#clip131)" />
    <path d="M 227.391079448516 48.3227837463445  C 227.391079448516 48.3227837463445  229.161507604752 50.1740801262374  229.161507604752 50.1740801262374  C 229.161507604752 50.1740801262374  226.498256080328 53.4957444353941  226.498256080328 53.4957444353941  C 226.498256080328 53.4957444353941  219.739958066035 52.4645663215123  219.739958066035 52.4645663215123  C 219.739958066035 52.4645663215123  218.355067273334 48.5921363141031  218.355067273334 48.5921363141031  C 218.355067273334 48.5921363141031  227.391079448516 48.3227837463445  227.391079448516 48.3227837463445  Z " stroke-width="2" stroke="#505050" fill="none" stroke-opacity="0.211764705882353" transform="matrix(1 0 0 1 2518 4311 )" mask="url(#clip131)" />
    <path d="M 244.253266243155 46.4915883043439  C 244.253266243155 46.4915883043439  252.075616434893 48.1257945549985  252.075616434893 48.1257945549985  C 252.075616434893 48.1257945549985  254.662775058619 53.8756521615611  254.662775058619 53.8756521615611  C 254.662775058619 53.8756521615611  248.65904519356 51.5640443039313  248.65904519356 51.5640443039313  C 248.65904519356 51.5640443039313  240.873493019846 51.0956924510378  240.873493019846 51.0956924510378  C 240.873493019846 51.0956924510378  236.860860723047 51.4655497082585  236.860860723047 51.4655497082585  C 236.860860723047 51.4655497082585  231.94018647792 51.2685605169125  231.94018647792 51.2685605169125  C 231.94018647792 51.2685605169125  233.626912443389 46.7247591838961  233.626912443389 46.7247591838961  C 233.626912443389 46.7247591838961  244.253266243155 46.4915883043439  244.253266243155 46.4915883043439  Z " stroke-width="2" stroke="#505050" fill="none" stroke-opacity="0.211764705882353" transform="matrix(1 0 0 1 2518 4311 )" mask="url(#clip131)" />
    <path d="M 275.22436482487 35.1667198957471  C 275.22436482487 35.1667198957471  276.348003325175 37.2451568738247  276.348003325175 37.2451568738247  C 276.348003325175 37.2451568738247  278.334028033388 46.3046495819443  278.334028033388 46.3046495819443  C 278.334028033388 46.3046495819443  285.692211530869 49.6594961161911  285.692211530869 49.6594961161911  C 285.692211530869 49.6594961161911  293.480300134606 43.7136386876095  293.480300134606 43.7136386876095  C 293.480300134606 43.7136386876095  301.639995519437 40.3326609341023  301.639995519437 40.3326609341023  C 301.639995519437 40.3326609341023  307.963315567427 40.3286407465237  307.963315567427 40.3286407465237  C 307.963315567427 40.3286407465237  314.043138333184 42.282451909668  314.043138333184 42.282451909668  C 314.043138333184 42.282451909668  319.318912781567 44.2865154175438  319.318912781567 44.2865154175438  C 319.318912781567 44.2865154175438  326.953567151583 45.3578954072104  326.953567151583 45.3578954072104  C 326.953567151583 45.3578954072104  327.072779362677 65.1160966310094  327.072779362677 65.1160966310094  C 327.072779362677 65.1160966310094  327.194528003793 83.5225254591102  327.194528003793 83.5225254591102  C 327.194528003793 83.5225254591102  320.86106223571 78.8731785245908  320.86106223571 78.8731785245908  C 320.86106223571 78.8731785245908  313.637309529463 77.735465439879  313.637309529463 77.735465439879  C 313.637309529463 77.735465439879  311.887172813412 79.3475606588519  311.887172813412 79.3475606588519  C 311.887172813412 79.3475606588519  302.875236940766 79.5204287247269  302.875236940766 79.5204287247269  C 302.875236940766 79.5204287247269  305.893588668447 74.9193240411492  305.893588668447 74.9193240411492  C 305.893588668447 74.9193240411492  310.372924089526 73.3514508855396  310.372924089526 73.3514508855396  C 310.372924089526 73.3514508855396  308.518793742522 67.2206648283475  308.518793742522 67.2206648283475  C 308.518793742522 67.2206648283475  305.104758931212 62.4969444236256  305.104758931212 62.4969444236256  C 305.104758931212 62.4969444236256  291.316725324765 56.2767248703801  291.316725324765 56.2767248703801  C 291.316725324765 56.2767248703801  283.607266051748 55.8083730174863  283.607266051748 55.8083730174863  C 283.607266051748 55.8083730174863  272.928895653819 50.6223310412388  272.928895653819 50.6223310412388  C 272.928895653819 50.6223310412388  270.828731594559 53.3480182194526  270.828731594559 53.3480182194526  C 270.828731594559 53.3480182194526  268.09953288953 53.8425012916065  268.09953288953 53.8425012916065  C 268.09953288953 53.8425012916065  266.483826964713 51.7841652514212  266.483826964713 51.7841652514212  C 266.483826964713 51.7841652514212  266.460999094504 49.3479315788585  266.460999094504 49.3479315788585  C 266.460999094504 49.3479315788585  261.027965984679 46.5941030875954  261.027965984679 46.5941030875954  C 261.027965984679 46.5941030875954  268.687984654927 44.5759689231949  268.687984654927 44.5759689231949  C 268.687984654927 44.5759689231949  273.760844701449 44.6845139878141  273.760844701449 44.6845139878141  C 273.760844701449 44.6845139878141  273.164783645983 43.197044583774  273.164783645983 43.197044583774  C 273.164783645983 43.197044583774  262.755274830519 43.1869941148277  262.755274830519 43.1869941148277  C 262.755274830519 43.1869941148277  259.939837504699 39.852248518473  259.939837504699 39.852248518473  C 259.939837504699 39.852248518473  253.58608029643 38.8190603108021  253.58608029643 38.8190603108021  C 253.58608029643 38.8190603108021  250.575337858819 36.0491510692249  250.575337858819 36.0491510692249  C 250.575337858819 36.0491510692249  260.160506916723 34.6923377614856  260.160506916723 34.6923377614856  C 260.160506916723 34.6923377614856  263.807893290172 32.8671726008528  263.807893290172 32.8671726008528  C 263.807893290172 32.8671726008528  275.22436482487 35.1667198957471  275.22436482487 35.1667198957471  Z " stroke-width="2" stroke="#505050" fill="none" stroke-opacity="0.211764705882353" transform="matrix(1 0 0 1 2518 4311 )" mask="url(#clip131)" />
    <path d="M 213.633483002349 21.5965767245654  C 213.633483002349 21.5965767245654  214.876333713746 22.8488651552641  214.876333713746 22.8488651552641  C 214.876333713746 22.8488651552641  209.161756871339 28.4027542949432  209.161756871339 28.4027542949432  C 209.161756871339 28.4027542949432  203.817498812327 29.4801645659778  203.817498812327 29.4801645659778  C 203.817498812327 29.4801645659778  196.974210609569 28.3866735446294  196.974210609569 28.3866735446294  C 196.974210609569 28.3866735446294  183.278776481656 28.6660765813341  183.278776481656 28.6660765813341  C 183.278776481656 28.6660765813341  177.06705935469 29.4721241908209  177.06705935469 29.4721241908209  C 177.06705935469 29.4721241908209  176.057560205432 33.7094018985458  176.057560205432 33.7094018985458  C 176.057560205432 33.7094018985458  182.423999563817 38.6884042145014  182.423999563817 38.6884042145014  C 182.423999563817 38.6884042145014  186.264154619035 36.1516658524763  186.264154619035 36.1516658524763  C 186.264154619035 36.1516658524763  201.369843839881 34.2460969402736  201.369843839881 34.2460969402736  C 201.369843839881 34.2460969402736  200.786464934531 36.825047271873  200.786464934531 36.825047271873  C 200.786464934531 36.825047271873  197.686947446106 36.0109592872292  197.686947446106 36.0109592872292  C 197.686947446106 36.0109592872292  194.597575677774 39.2914323512745  194.597575677774 39.2914323512745  C 194.597575677774 39.2914323512745  186.494969751152 41.4623336436572  186.494969751152 41.4623336436572  C 186.494969751152 41.4623336436572  195.066815232077 50.1047162129409  195.066815232077 50.1047162129409  C 195.066815232077 50.1047162129409  193.765626630144 52.0303860630359  193.765626630144 52.0303860630359  C 193.765626630144 52.0303860630359  200.159966718785 58.5089183457671  200.159966718785 58.5089183457671  C 200.159966718785 58.5089183457671  200.099092398227 62.2014606366068  200.099092398227 62.2014606366068  C 200.099092398227 62.2014606366068  196.302056653405 63.853757731365  196.302056653405 63.853757731365  C 196.302056653405 63.853757731365  193.511983627818 61.8758254427496  193.511983627818 61.8758254427496  C 193.511983627818 61.8758254427496  196.948846309337 57.2747207591716  196.948846309337 57.2747207591716  C 196.948846309337 57.2747207591716  188.125894256109 59.4496422391329  188.125894256109 59.4496422391329  C 188.125894256109 59.4496422391329  186.358002529896 57.8958397400479  186.358002529896 57.8958397400479  C 186.358002529896 57.8958397400479  187.27872662834 55.7269485414543  187.27872662834 55.7269485414543  C 187.27872662834 55.7269485414543  182.152601551329 52.4364250084631  182.152601551329 52.4364250084631  C 182.152601551329 52.4364250084631  182.680178996167 46.9729900892996  182.680178996167 46.9729900892996  C 182.680178996167 46.9729900892996  177.937054852669 48.677549622578  177.937054852669 48.677549622578  C 177.937054852669 48.677549622578  178.538188768182 55.2163847189863  178.538188768182 55.2163847189863  C 178.538188768182 55.2163847189863  178.827341790834 63.2547497821705  178.827341790834 63.2547497821705  C 178.827341790834 63.2547497821705  174.317569209476 64.0708478606034  174.317569209476 64.0708478606034  C 174.317569209476 64.0708478606034  171.263707461469 62.4205608596344  171.263707461469 62.4205608596344  C 171.263707461469 62.4205608596344  173.302997200171 57.2485895399114  173.302997200171 57.2485895399114  C 173.302997200171 57.2485895399114  172.202186570076 51.8333968716899  172.202186570076 51.8333968716899  C 172.202186570076 51.8333968716899  169.209199142628 51.791184902116  169.209199142628 51.791184902116  C 169.209199142628 51.791184902116  166.999968592368 47.9498956708719  166.999968592368 47.9498956708719  C 166.999968592368 47.9498956708719  169.939690989327 44.2794644117137  169.939690989327 44.2794644117137  C 169.939690989327 44.2794644117137  170.951726568608 38.3728194895902  170.951726568608 38.3728194895902  C 170.951726568608 38.3728194895902  174.525556471383 29.9324356685575  174.525556471383 29.9324356685575  C 174.525556471383 29.9324356685575  176.016977325061 27.6248479985063  176.016977325061 27.6248479985063  C 176.016977325061 27.6248479985063  182.063826500515 23.4659639485619  182.063826500515 23.4659639485619  C 182.063826500515 23.4659639485619  187.616071821434 25.1202711371088  187.616071821434 25.1202711371088  C 187.616071821434 25.1202711371088  198.425048582875 25.898177433546  198.425048582875 25.898177433546  C 198.425048582875 25.898177433546  206.605035407892 25.6629964602047  206.605035407892 25.6629964602047  C 206.605035407892 25.6629964602047  213.633483002349 21.5965767245654  213.633483002349 21.5965767245654  Z " stroke-width="2" stroke="#505050" fill="none" stroke-opacity="0.211764705882353" transform="matrix(1 0 0 1 2518 4311 )" mask="url(#clip131)" />
    <path d="M 238.728921652493 22.1694534545001  C 238.728921652493 22.1694534545001  239.396002748611 24.4569401866588  239.396002748611 24.4569401866588  C 239.396002748611 24.4569401866588  239.025683965215 30.8098259299946  239.025683965215 30.8098259299946  C 239.025683965215 30.8098259299946  235.358006151579 30.2630804193204  235.358006151579 30.2630804193204  C 235.358006151579 30.2630804193204  232.432253902433 33.6701893920877  232.432253902433 33.6701893920877  C 232.432253902433 33.6701893920877  237.204527208513 36.6250272622754  237.204527208513 36.6250272622754  C 237.204527208513 36.6250272622754  235.213429640253 37.2963985878826  235.213429640253 37.2963985878826  C 235.213429640253 37.2963985878826  230.499494224708 33.7505931436573  230.499494224708 33.7505931436573  C 230.499494224708 33.7505931436573  228.386648015332 25.1323316998446  228.386648015332 25.1323316998446  C 228.386648015332 25.1323316998446  229.817194548451 20.657862924989  229.817194548451 20.657862924989  C 229.817194548451 20.657862924989  232.176074470084 18.6196278226965  232.176074470084 18.6196278226965  C 232.176074470084 18.6196278226965  232.688433334782 21.6789905699247  232.688433334782 21.6789905699247  C 232.688433334782 21.6789905699247  238.728921652493 22.1694534545001  238.728921652493 22.1694534545001  Z " stroke-width="2" stroke="#505050" fill="none" stroke-opacity="0.211764705882353" transform="matrix(1 0 0 1 2518 4311 )" mask="url(#clip131)" />
    <path d="M 163.734295154733 17.982428091506  C 163.734295154733 17.982428091506  162.499053733405 20.5633885168945  162.499053733405 20.5633885168945  C 162.499053733405 20.5633885168945  170.473589726537 25.7454103055638  170.473589726537 25.7454103055638  C 170.473589726537 25.7454103055638  162.047569189264 26.4067311622246  162.047569189264 26.4067311622246  C 162.047569189264 26.4067311622246  159.673470687492 30.2218891742085  159.673470687492 30.2218891742085  C 159.673470687492 30.2218891742085  159.98291515033 36.7556833585761  159.98291515033 36.7556833585761  C 159.98291515033 36.7556833585761  153.144699807618 40.5849120270844  153.144699807618 40.5849120270844  C 153.144699807618 40.5849120270844  152.957003985897 46.1629222922345  152.957003985897 46.1629222922345  C 152.957003985897 46.1629222922345  150.215123130751 54.7379823971465  150.215123130751 54.7379823971465  C 150.215123130751 54.7379823971465  149.167577531144 52.7419592644279  149.167577531144 52.7419592644279  C 149.167577531144 52.7419592644279  141.086511477034 55.2666370637174  141.086511477034 55.2666370637174  C 141.086511477034 55.2666370637174  138.271074151215 51.8354069654791  138.271074151215 51.8354069654791  C 138.271074151215 51.8354069654791  131.358053905502 51.5178121467788  131.358053905502 51.5178121467788  C 131.358053905502 51.5178121467788  127.812124732983 49.7207882991953  127.812124732983 49.7207882991953  C 127.812124732983 49.7207882991953  119.358203465454 51.7369123698063  119.358203465454 51.7369123698063  C 119.358203465454 51.7369123698063  116.763435551658 49.0232857543276  116.763435551658 49.0232857543276  C 116.763435551658 49.0232857543276  112.10655002895 49.3328401978711  112.10655002895 49.3328401978711  C 112.10655002895 49.3328401978711  106.242323815171 48.6855899977349  106.242323815171 48.6855899977349  C 106.242323815171 48.6855899977349  105.154195335192 41.1718594135434  105.154195335192 41.1718594135434  C 105.154195335192 41.1718594135434  101.60572973265 39.6160468206689  101.60572973265 39.6160468206689  C 101.60572973265 39.6160468206689  98.1916949213403 34.8259933209024  98.1916949213403 34.8259933209024  C 98.1916949213403 34.8259933209024  97.1999507822452 28.467077296199  97.1999507822452 28.467077296199  C 97.1999507822452 28.467077296199  98.0268269698284 23.2790252261619  98.0268269698284 23.2790252261619  C 98.0268269698284 23.2790252261619  102.252519388581 19.5563315284834  102.252519388581 19.5563315284834  C 102.252519388581 19.5563315284834  103.442105069491 23.2991261640546  103.442105069491 23.2991261640546  C 103.442105069491 23.2991261640546  108.304441424082 26.4630137883235  108.304441424082 26.4630137883235  C 108.304441424082 26.4630137883235  112.892843336162 25.325300703612  112.892843336162 25.325300703612  C 112.892843336162 25.325300703612  117.433053077799 25.7293295552497  117.433053077799 25.7293295552497  C 117.433053077799 25.7293295552497  121.577579735807 22.8971074062061  121.577579735807 22.8971074062061  C 121.577579735807 22.8971074062061  124.989078117094 22.4066445216305  124.989078117094 22.4066445216305  C 124.989078117094 22.4066445216305  131.715690538782 23.9765277710296  131.715690538782 23.9765277710296  C 131.715690538782 23.9765277710296  139.359202631194 22.7825320602192  139.359202631194 22.7825320602192  C 139.359202631194 22.7825320602192  143.006589004644 14.9914085331121  143.006589004644 14.9914085331121  C 143.006589004644 14.9914085331121  145.743396999742 13.0416175575461  145.743396999742 13.0416175575461  C 145.743396999742 13.0416175575461  148.208806982352 6.65956977669863  148.208806982352 6.65956977669863  C 148.208806982352 6.65956977669863  156.386257377346 6.66157987048777  156.386257377346 6.66157987048777  C 156.386257377346 6.66157987048777  162.54978233387 7.60833404522135  162.54978233387 7.60833404522135  C 162.54978233387 7.60833404522135  158.504176446768 12.6757804879037  158.504176446768 12.6757804879037  C 158.504176446768 12.6757804879037  163.734295154733 17.982428091506  163.734295154733 17.982428091506  Z " stroke-width="2" stroke="#505050" fill="none" stroke-opacity="0.211764705882353" transform="matrix(1 0 0 1 2518 4311 )" mask="url(#clip131)" />
    <path d="M 77.0315076695998 56.386259304326  C 77.0315076695998 56.386259304326  76.7448910769714 65.0779048490141  76.7448910769714 65.0779048490141  C 76.7448910769714 65.0779048490141  68.871812284769 65.1965003825793  68.871812284769 65.1965003825793  C 68.871812284769 65.1965003825793  62.8833009998496 60.4948910095393  62.8833009998496 60.4948910095393  C 62.8833009998496 60.4948910095393  53.7496164860864 55.9058468886971  53.7496164860864 55.9058468886971  C 53.7496164860864 55.9058468886971  50.7059004581729 52.5047681972971  50.7059004581729 52.5047681972971  C 50.7059004581729 52.5047681972971  45.3235959488131 47.9398452019259  45.3235959488131 47.9398452019259  C 45.3235959488131 47.9398452019259  41.7903489264103 43.7407592761967  41.7903489264103 43.7407592761967  C 41.7903489264103 43.7407592761967  34.5374470575805 35.9013934981476  34.5374470575805 35.9013934981476  C 34.5374470575805 35.9013934981476  28.2927563403119 29.7756483529966  28.2927563403119 29.7756483529966  C 28.2927563403119 29.7756483529966  26.2027380011449 24.9614737277588  26.2027380011449 24.9614737277588  C 26.2027380011449 24.9614737277588  23.5826057871163 20.5895197361549  23.5826057871163 20.5895197361549  C 23.5826057871163 20.5895197361549  17.170510688312 17.0618051360329  17.170510688312 17.0618051360329  C 17.170510688312 17.0618051360329  13.4521042742115 12.2657213548983  13.4521042742115 12.2657213548983  C 13.4521042742115 12.2657213548983  8.09770049510731 9.12394476231101  8.09770049510731 9.12394476231101  C 8.09770049510731 9.12394476231101  0.678642677068658 2.93687607902041  0.678642677068658 2.93687607902041  C 0.678642677068658 2.93687607902041  0.0546808913463434 0.0745025231377902  0.0546808913463434 0.0745025231377902  C 0.0546808913463434 0.0745025231377902  4.63547351335597 0.301643121322192  4.63547351335597 0.301643121322192  C 4.63547351335597 0.301643121322192  15.6435798143092 1.38910386130286  15.6435798143092 1.38910386130286  C 15.6435798143092 1.38910386130286  21.9313898419735 6.88269018730475  21.9313898419735 6.88269018730475  C 21.9313898419735 6.88269018730475  27.4329065624267 10.6877977303423  27.4329065624267 10.6877977303423  C 27.4329065624267 10.6877977303423  31.3542273783885 13.0215166196537  31.3542273783885 13.0215166196537  C 31.3542273783885 13.0215166196537  38.0909855201699 19.045767706016  38.0909855201699 19.045767706016  C 38.0909855201699 19.045767706016  47.1650441457008 19.1322017389533  47.1650441457008 19.1322017389533  C 47.1650441457008 19.1322017389533  53.1383368504806 22.9694707826188  53.1383368504806 22.9694707826188  C 53.1383368504806 22.9694707826188  57.2549627782335 27.6590195929237  57.2549627782335 27.6590195929237  C 57.2549627782335 27.6590195929237  62.6702408778961 30.2158588928411  62.6702408778961 30.2158588928411  C 62.6702408778961 30.2158588928411  59.8218299617737 36.2471296298976  59.8218299617737 36.2471296298976  C 59.8218299617737 36.2471296298976  63.8953365791309 38.1908903240959  63.8953365791309 38.1908903240959  C 63.8953365791309 38.1908903240959  66.4495216125547 38.3336069831321  66.4495216125547 38.3336069831321  C 66.4495216125547 38.3336069831321  67.6568623036271 42.239219215632  67.6568623036271 42.239219215632  C 67.6568623036271 42.239219215632  70.1349544363528 45.3649150579052  70.1349544363528 45.3649150579052  C 70.1349544363528 45.3649150579052  75.3574638542475 45.8614082238482  75.3574638542475 45.8614082238482  C 75.3574638542475 45.8614082238482  78.8171544059757 49.4092237618627  78.8171544059757 49.4092237618627  C 78.8171544059757 49.4092237618627  77.0315076695998 56.386259304326  77.0315076695998 56.386259304326  Z " stroke-width="2" stroke="#505050" fill="none" stroke-opacity="0.211764705882353" transform="matrix(1 0 0 1 2518 4311 )" mask="url(#clip131)" />
  </g>
</svg>