<?xml version="1.0" encoding="utf-8"?>
<svg version="1.1" xmlns:xlink="http://www.w3.org/1999/xlink" width="32px" height="35px" xmlns="http://www.w3.org/2000/svg">
  <defs>
    <mask fill="white" id="clip132">
      <path d="M 25.2504256054451 10.5250825864007  C 25.2504256054451 10.5250825864007  30.7407885841175 12.4922980162811  30.7407885841175 12.4922980162811  C 30.7407885841175 12.4922980162811  31.9378379923983 20.6953699663471  31.9378379923983 20.6953699663471  C 31.9378379923983 20.6953699663471  26.4474750137259 28.9717263106294  26.4474750137259 28.9717263106294  C 26.4474750137259 28.9717263106294  11.6877723774095 34.3554730279142  11.6877723774095 34.3554730279142  C 11.6877723774095 34.3554730279142  1.40402973354417 32.9844443150486  1.40402973354417 32.9844443150486  C 1.40402973354417 32.9844443150486  7.29340918164342 23.389250687673  7.29340918164342 23.389250687673  C 7.29340918164342 23.389250687673  3.50016170605287 12.3618194418503  3.50016170605287 12.3618194418503  C 3.50016170605287 12.3618194418503  13.3822968644561 4.82818729048202  13.3822968644561 4.82818729048202  C 13.3822968644561 4.82818729048202  20.7550127843049 0.26745927345317  20.7550127843049 0.26745927345317  C 20.7550127843049 0.26745927345317  22.2552110687085 5.49463170142104  22.2552110687085 5.49463170142104  C 22.2552110687085 5.49463170142104  20.7550127843049 10.6555611608316  20.7550127843049 10.6555611608316  C 20.7550127843049 10.6555611608316  25.2504256054451 10.5250825864007  25.2504256054451 10.5250825864007  Z " fill-rule="evenodd" />
    </mask>
  </defs>
  <g transform="matrix(1 0 0 1 -1767 -3976 )">
    <path d="M 25.2504256054451 10.5250825864007  C 25.2504256054451 10.5250825864007  30.7407885841175 12.4922980162811  30.7407885841175 12.4922980162811  C 30.7407885841175 12.4922980162811  31.9378379923983 20.6953699663471  31.9378379923983 20.6953699663471  C 31.9378379923983 20.6953699663471  26.4474750137259 28.9717263106294  26.4474750137259 28.9717263106294  C 26.4474750137259 28.9717263106294  11.6877723774095 34.3554730279142  11.6877723774095 34.3554730279142  C 11.6877723774095 34.3554730279142  1.40402973354417 32.9844443150486  1.40402973354417 32.9844443150486  C 1.40402973354417 32.9844443150486  7.29340918164342 23.389250687673  7.29340918164342 23.389250687673  C 7.29340918164342 23.389250687673  3.50016170605287 12.3618194418503  3.50016170605287 12.3618194418503  C 3.50016170605287 12.3618194418503  13.3822968644561 4.82818729048202  13.3822968644561 4.82818729048202  C 13.3822968644561 4.82818729048202  20.7550127843049 0.26745927345317  20.7550127843049 0.26745927345317  C 20.7550127843049 0.26745927345317  22.2552110687085 5.49463170142104  22.2552110687085 5.49463170142104  C 22.2552110687085 5.49463170142104  20.7550127843049 10.6555611608316  20.7550127843049 10.6555611608316  C 20.7550127843049 10.6555611608316  25.2504256054451 10.5250825864007  25.2504256054451 10.5250825864007  Z " fill-rule="nonzero" fill="#f2f2f2" stroke="none" transform="matrix(1 0 0 1 1767 3976 )" />
    <path d="M 25.2504256054451 10.5250825864007  C 25.2504256054451 10.5250825864007  30.7407885841175 12.4922980162811  30.7407885841175 12.4922980162811  C 30.7407885841175 12.4922980162811  31.9378379923983 20.6953699663471  31.9378379923983 20.6953699663471  C 31.9378379923983 20.6953699663471  26.4474750137259 28.9717263106294  26.4474750137259 28.9717263106294  C 26.4474750137259 28.9717263106294  11.6877723774095 34.3554730279142  11.6877723774095 34.3554730279142  C 11.6877723774095 34.3554730279142  1.40402973354417 32.9844443150486  1.40402973354417 32.9844443150486  C 1.40402973354417 32.9844443150486  7.29340918164342 23.389250687673  7.29340918164342 23.389250687673  C 7.29340918164342 23.389250687673  3.50016170605287 12.3618194418503  3.50016170605287 12.3618194418503  C 3.50016170605287 12.3618194418503  13.3822968644561 4.82818729048202  13.3822968644561 4.82818729048202  C 13.3822968644561 4.82818729048202  20.7550127843049 0.26745927345317  20.7550127843049 0.26745927345317  C 20.7550127843049 0.26745927345317  22.2552110687085 5.49463170142104  22.2552110687085 5.49463170142104  C 22.2552110687085 5.49463170142104  20.7550127843049 10.6555611608316  20.7550127843049 10.6555611608316  C 20.7550127843049 10.6555611608316  25.2504256054451 10.5250825864007  25.2504256054451 10.5250825864007  Z " stroke-width="2" stroke="#505050" fill="none" stroke-opacity="0.211764705882353" transform="matrix(1 0 0 1 1767 3976 )" mask="url(#clip132)" />
  </g>
</svg>