<?xml version="1.0" encoding="utf-8"?>
<svg version="1.1" xmlns:xlink="http://www.w3.org/1999/xlink" width="15px" height="27px" xmlns="http://www.w3.org/2000/svg">
  <defs>
    <mask fill="white" id="clip133">
      <path d="M 13.1940759564598 4.46891574657476  C 13.1940759564598 4.46891574657476  13.3308633850392 4.51390481941027  13.3308633850392 4.51390481941027  C 13.3308633850392 4.51390481941027  12.0713866841596 6.55406147017081  12.0713866841596 6.55406147017081  C 12.0713866841596 6.55406147017081  9.45177838212501 5.65819210674965  9.45177838212501 5.65819210674965  C 9.45177838212501 5.65819210674965  6.06437398311783 9.95367053922341  6.06437398311783 9.95367053922341  C 6.06437398311783 9.95367053922341  9.7563239778296 10.6754517512375  9.7563239778296 10.6754517512375  C 9.7563239778296 10.6754517512375  6.03340324457108 11.5576287881434  6.03340324457108 11.5576287881434  C 6.03340324457108 11.5576287881434  5.72111496423034 14.6628375810885  5.72111496423034 14.6628375810885  C 5.72111496423034 14.6628375810885  10.9977344145572 12.3752562857637  10.9977344145572 12.3752562857637  C 10.9977344145572 12.3752562857637  11.1680734765612 16.2804881565236  11.1680734765612 16.2804881565236  C 11.1680734765612 16.2804881565236  5.68756333080529 26.3854251247204  5.68756333080529 26.3854251247204  C 5.68756333080529 26.3854251247204  0.930974069081145 15.5195860116093  0.930974069081145 15.5195860116093  C 0.930974069081145 15.5195860116093  3.03698429022432 11.9918711433389  3.03698429022432 11.9918711433389  C 3.03698429022432 11.9918711433389  2.5440333683639 11.6280464673643  2.5440333683639 11.6280464673643  C 2.5440333683639 11.6280464673643  4.45647647359294 8.62551486725183  4.45647647359294 8.62551486725183  C 4.45647647359294 8.62551486725183  5.92500565965977 3.74713453456061  5.92500565965977 3.74713453456061  C 5.92500565965977 3.74713453456061  8.83494450607927 2.09818721280492  8.83494450607927 2.09818721280492  C 8.83494450607927 2.09818721280492  9.03367341175084 2.03168162687412  9.03367341175084 2.03168162687412  C 9.03367341175084 2.03168162687412  11.4571337029926 2.04341790674431  11.4571337029926 2.04341790674431  C 11.4571337029926 2.04341790674431  12.1230045817366 0.901086666050006  12.1230045817366 0.901086666050006  C 12.1230045817366 0.901086666050006  14.0638375306332 0.815020613668923  14.0638375306332 0.815020613668923  C 14.0638375306332 0.815020613668923  14.1748160104237 3.48111219083735  14.1748160104237 3.48111219083735  C 14.1748160104237 3.48111219083735  13.1940759564598 4.46891574657476  13.1940759564598 4.46891574657476  Z " fill-rule="evenodd" />
    </mask>
  </defs>
  <g transform="matrix(1 0 0 1 -2083 -4145 )">
    <path d="M 13.1940759564598 4.46891574657476  C 13.1940759564598 4.46891574657476  13.3308633850392 4.51390481941027  13.3308633850392 4.51390481941027  C 13.3308633850392 4.51390481941027  12.0713866841596 6.55406147017081  12.0713866841596 6.55406147017081  C 12.0713866841596 6.55406147017081  9.45177838212501 5.65819210674965  9.45177838212501 5.65819210674965  C 9.45177838212501 5.65819210674965  6.06437398311783 9.95367053922341  6.06437398311783 9.95367053922341  C 6.06437398311783 9.95367053922341  9.7563239778296 10.6754517512375  9.7563239778296 10.6754517512375  C 9.7563239778296 10.6754517512375  6.03340324457108 11.5576287881434  6.03340324457108 11.5576287881434  C 6.03340324457108 11.5576287881434  5.72111496423034 14.6628375810885  5.72111496423034 14.6628375810885  C 5.72111496423034 14.6628375810885  10.9977344145572 12.3752562857637  10.9977344145572 12.3752562857637  C 10.9977344145572 12.3752562857637  11.1680734765612 16.2804881565236  11.1680734765612 16.2804881565236  C 11.1680734765612 16.2804881565236  5.68756333080529 26.3854251247204  5.68756333080529 26.3854251247204  C 5.68756333080529 26.3854251247204  0.930974069081145 15.5195860116093  0.930974069081145 15.5195860116093  C 0.930974069081145 15.5195860116093  3.03698429022432 11.9918711433389  3.03698429022432 11.9918711433389  C 3.03698429022432 11.9918711433389  2.5440333683639 11.6280464673643  2.5440333683639 11.6280464673643  C 2.5440333683639 11.6280464673643  4.45647647359294 8.62551486725183  4.45647647359294 8.62551486725183  C 4.45647647359294 8.62551486725183  5.92500565965977 3.74713453456061  5.92500565965977 3.74713453456061  C 5.92500565965977 3.74713453456061  8.83494450607927 2.09818721280492  8.83494450607927 2.09818721280492  C 8.83494450607927 2.09818721280492  9.03367341175084 2.03168162687412  9.03367341175084 2.03168162687412  C 9.03367341175084 2.03168162687412  11.4571337029926 2.04341790674431  11.4571337029926 2.04341790674431  C 11.4571337029926 2.04341790674431  12.1230045817366 0.901086666050006  12.1230045817366 0.901086666050006  C 12.1230045817366 0.901086666050006  14.0638375306332 0.815020613668923  14.0638375306332 0.815020613668923  C 14.0638375306332 0.815020613668923  14.1748160104237 3.48111219083735  14.1748160104237 3.48111219083735  C 14.1748160104237 3.48111219083735  13.1940759564598 4.46891574657476  13.1940759564598 4.46891574657476  Z " fill-rule="nonzero" fill="#f2f2f2" stroke="none" transform="matrix(1 0 0 1 2083 4145 )" />
    <path d="M 13.1940759564598 4.46891574657476  C 13.1940759564598 4.46891574657476  13.3308633850392 4.51390481941027  13.3308633850392 4.51390481941027  C 13.3308633850392 4.51390481941027  12.0713866841596 6.55406147017081  12.0713866841596 6.55406147017081  C 12.0713866841596 6.55406147017081  9.45177838212501 5.65819210674965  9.45177838212501 5.65819210674965  C 9.45177838212501 5.65819210674965  6.06437398311783 9.95367053922341  6.06437398311783 9.95367053922341  C 6.06437398311783 9.95367053922341  9.7563239778296 10.6754517512375  9.7563239778296 10.6754517512375  C 9.7563239778296 10.6754517512375  6.03340324457108 11.5576287881434  6.03340324457108 11.5576287881434  C 6.03340324457108 11.5576287881434  5.72111496423034 14.6628375810885  5.72111496423034 14.6628375810885  C 5.72111496423034 14.6628375810885  10.9977344145572 12.3752562857637  10.9977344145572 12.3752562857637  C 10.9977344145572 12.3752562857637  11.1680734765612 16.2804881565236  11.1680734765612 16.2804881565236  C 11.1680734765612 16.2804881565236  5.68756333080529 26.3854251247204  5.68756333080529 26.3854251247204  C 5.68756333080529 26.3854251247204  0.930974069081145 15.5195860116093  0.930974069081145 15.5195860116093  C 0.930974069081145 15.5195860116093  3.03698429022432 11.9918711433389  3.03698429022432 11.9918711433389  C 3.03698429022432 11.9918711433389  2.5440333683639 11.6280464673643  2.5440333683639 11.6280464673643  C 2.5440333683639 11.6280464673643  4.45647647359294 8.62551486725183  4.45647647359294 8.62551486725183  C 4.45647647359294 8.62551486725183  5.92500565965977 3.74713453456061  5.92500565965977 3.74713453456061  C 5.92500565965977 3.74713453456061  8.83494450607927 2.09818721280492  8.83494450607927 2.09818721280492  C 8.83494450607927 2.09818721280492  9.03367341175084 2.03168162687412  9.03367341175084 2.03168162687412  C 9.03367341175084 2.03168162687412  11.4571337029926 2.04341790674431  11.4571337029926 2.04341790674431  C 11.4571337029926 2.04341790674431  12.1230045817366 0.901086666050006  12.1230045817366 0.901086666050006  C 12.1230045817366 0.901086666050006  14.0638375306332 0.815020613668923  14.0638375306332 0.815020613668923  C 14.0638375306332 0.815020613668923  14.1748160104237 3.48111219083735  14.1748160104237 3.48111219083735  C 14.1748160104237 3.48111219083735  13.1940759564598 4.46891574657476  13.1940759564598 4.46891574657476  Z " stroke-width="2" stroke="#505050" fill="none" stroke-opacity="0.211764705882353" transform="matrix(1 0 0 1 2083 4145 )" mask="url(#clip133)" />
  </g>
</svg>