<?xml version="1.0" encoding="utf-8"?>
<svg version="1.1" xmlns:xlink="http://www.w3.org/1999/xlink" width="212px" height="168px" xmlns="http://www.w3.org/2000/svg">
  <defs>
    <mask fill="white" id="clip134">
      <path d="M 62.5552031273371 6.02942924121206  C 62.5552031273371 6.02942924121206  69.4267691626733 0.364837043247019  69.4267691626733 0.364837043247019  C 69.4267691626733 0.364837043247019  77.074812009978 8.24901648416905  77.074812009978 8.24901648416905  C 77.074812009978 8.24901648416905  76.3541603282813 13.6705016199046  76.3541603282813 13.6705016199046  C 76.3541603282813 13.6705016199046  79.1834794307184 17.0463297685872  79.1834794307184 17.0463297685872  C 79.1834794307184 17.0463297685872  78.9500288859432 20.3944871947397  78.9500288859432 20.3944871947397  C 78.9500288859432 20.3944871947397  73.8445669719492 19.5149535143158  73.8445669719492 19.5149535143158  C 73.8445669719492 19.5149535143158  75.839046626223 26.6895765703567  75.839046626223 26.6895765703567  C 75.839046626223 26.6895765703567  82.8298754398679 30.771008143559  82.8298754398679 30.771008143559  C 82.8298754398679 30.771008143559  92.7185360158297 35.2477357529068  92.7185360158297 35.2477357529068  C 92.7185360158297 35.2477357529068  88.2017754756166 38.1353732969497  88.2017754756166 38.1353732969497  C 88.2017754756166 38.1353732969497  85.4409690330586 44.0470255175059  85.4409690330586 44.0470255175059  C 85.4409690330586 44.0470255175059  92.3328351157663 46.4227546947403  92.3328351157663 46.4227546947403  C 92.3328351157663 46.4227546947403  99.0420007721285 49.4902519352293  99.0420007721285 49.4902519352293  C 99.0420007721285 49.4902519352293  110.165138187807 52.9826924145749  110.165138187807 52.9826924145749  C 110.165138187807 52.9826924145749  119.916773444009 53.7851433679501  119.916773444009 53.7851433679501  C 119.916773444009 53.7851433679501  124.019920519024 56.9336762958492  124.019920519024 56.9336762958492  C 124.019920519024 56.9336762958492  129.518695850845 57.5187144293445  129.518695850845 57.5187144293445  C 129.518695850845 57.5187144293445  138.077703323957 58.9556155207334  138.077703323957 58.9556155207334  C 138.077703323957 58.9556155207334  144.002779650586 58.8528385513356  144.002779650586 58.8528385513356  C 144.002779650586 58.8528385513356  144.817319051377 56.411885528137  144.817319051377 56.411885528137  C 144.817319051377 56.411885528137  143.880979366355 52.4767134883087  143.880979366355 52.4767134883087  C 143.880979366355 52.4767134883087  144.431618151314 49.7966063632422  144.431618151314 49.7966063632422  C 144.431618151314 49.7966063632422  148.770753277024 48.4822470430583  148.770753277024 48.4822470430583  C 148.770753277024 48.4822470430583  149.367067168569 53.3858943714431  149.367067168569 53.3858943714431  C 149.367067168569 53.3858943714431  149.519317523858 54.6291004051209  149.519317523858 54.6291004051209  C 149.519317523858 54.6291004051209  155.98742011768 56.9751823796444  155.98742011768 56.9751823796444  C 155.98742011768 56.9751823796444  160.458505551307 56.0086835712688  160.458505551307 56.0086835712688  C 160.458505551307 56.0086835712688  166.467319573343 56.4237444092214  166.467319573343 56.4237444092214  C 166.467319573343 56.4237444092214  172.270595615741 56.2399317524137  172.270595615741 56.2399317524137  C 172.270595615741 56.2399317524137  172.77048428227 52.4352074045132  172.77048428227 52.4352074045132  C 172.77048428227 52.4352074045132  169.872652519954 50.4488448228823  169.872652519954 50.4488448228823  C 169.872652519954 50.4488448228823  175.612490914315 49.6701116316757  175.612490914315 49.6701116316757  C 175.612490914315 49.6701116316757  182.088206025901 45.0135243258814  182.088206025901 45.0135243258814  C 182.088206025901 45.0135243258814  190.289425164087 41.0012695590048  190.289425164087 41.0012695590048  C 190.289425164087 41.0012695590048  196.25763909138 42.5528065008759  196.25763909138 42.5528065008759  C 196.25763909138 42.5528065008759  201.330113428395 39.8924641776167  201.330113428395 39.8924641776167  C 201.330113428395 39.8924641776167  204.664396209204 43.8157773363606  204.664396209204 43.8157773363606  C 204.664396209204 43.8157773363606  202.261378101573 46.4543783776319  202.261378101573 46.4543783776319  C 202.261378101573 46.4543783776319  209.934796008093 47.3892535031158  209.934796008093 47.3892535031158  C 209.934796008093 47.3892535031158  210.470209757523 49.7590532398084  210.470209757523 49.7590532398084  C 210.470209757523 49.7590532398084  207.97584143672 50.9014587842687  207.97584143672 50.9014587842687  C 207.97584143672 50.9014587842687  208.562005304579 54.7219949736153  208.562005304579 54.7219949736153  C 208.562005304579 54.7219949736153  203.476843437957 53.6013307111427  203.476843437957 53.6013307111427  C 203.476843437957 53.6013307111427  194.265696943027 57.8744808618754  194.265696943027 57.8744808618754  C 194.265696943027 57.8744808618754  194.481384946352 61.3906391033898  194.481384946352 61.3906391033898  C 194.481384946352 61.3906391033898  190.555863285841 66.5176286921968  190.555863285841 66.5176286921968  C 190.555863285841 66.5176286921968  190.192999939071 69.4783960029268  190.192999939071 69.4783960029268  C 190.192999939071 69.4783960029268  187.021117537235 74.4630790187215  187.021117537235 74.4630790187215  C 187.021117537235 74.4630790187215  181.461442063299 73.0874488129352  181.461442063299 73.0874488129352  C 181.461442063299 73.0874488129352  181.184853917859 79.3094084218653  181.184853917859 79.3094084218653  C 181.184853917859 79.3094084218653  179.578612669569 81.3471594881954  179.578612669569 81.3471594881954  C 179.578612669569 81.3471594881954  180.329714422324 85.3149280356048  180.329714422324 85.3149280356048  C 180.329714422324 85.3149280356048  176.820343732934 86.7261348846443  176.820343732934 86.7261348846443  C 176.820343732934 86.7261348846443  173.072447486925 75.8051090614355  173.072447486925 75.8051090614355  C 173.072447486925 75.8051090614355  171.108417903709 75.8248738632427  171.108417903709 75.8248738632427  C 171.108417903709 75.8248738632427  169.946240191676 79.6592454138539  169.946240191676 79.6592454138539  C 169.946240191676 79.6592454138539  166.051168602223 76.5522185697505  166.051168602223 76.5522185697505  C 166.051168602223 76.5522185697505  168.246111224292 73.1250019363691  168.246111224292 73.1250019363691  C 168.246111224292 73.1250019363691  171.430681155735 72.7751649443801  171.430681155735 72.7751649443801  C 171.430681155735 72.7751649443801  174.709138806272 67.6481753555731  174.709138806272 67.6481753555731  C 174.709138806272 67.6481753555731  170.608529237179 66.6085467805102  170.608529237179 66.6085467805102  C 170.608529237179 66.6085467805102  164.00847633544 66.6994648688238  164.00847633544 66.6994648688238  C 164.00847633544 66.6994648688238  157.238410536964 65.8634137523761  157.238410536964 65.8634137523761  C 157.238410536964 65.8634137523761  156.611646574361 61.613981363812  156.611646574361 61.613981363812  C 156.611646574361 61.613981363812  153.213926145515 61.3115798961606  153.213926145515 61.3115798961606  C 153.213926145515 61.3115798961606  147.578125493934 58.6571670134436  147.578125493934 58.6571670134436  C 147.578125493934 58.6571670134436  145.065994631681 62.8216107542362  145.065994631681 62.8216107542362  C 145.065994631681 62.8216107542362  150.201906616732 66.053155849726  150.201906616732 66.053155849726  C 150.201906616732 66.053155849726  145.753658736398 68.3201786170204  145.753658736398 68.3201786170204  C 145.753658736398 68.3201786170204  144.175330053245 70.5318599392544  144.175330053245 70.5318599392544  C 144.175330053245 70.5318599392544  148.552527767778 72.1505972072704  148.552527767778 72.1505972072704  C 148.552527767778 72.1505972072704  147.344674949159 75.7853442596283  147.344674949159 75.7853442596283  C 147.344674949159 75.7853442596283  149.808593198905 80.2936955518677  149.808593198905 80.2936955518677  C 149.808593198905 80.2936955518677  150.917483286586 86.6411462368728  150.917483286586 86.6411462368728  C 150.917483286586 86.6411462368728  149.897405906156 88.8073685149505  149.897405906156 88.8073685149505  C 149.897405906156 88.8073685149505  145.055844607995 88.7342387482634  145.055844607995 88.7342387482634  C 145.055844607995 88.7342387482634  136.286224143401 89.9636094206759  136.286224143401 89.9636094206759  C 136.286224143401 89.9636094206759  136.694762596757 94.4067368669514  136.694762596757 94.4067368669514  C 136.694762596757 94.4067368669514  132.896116232319 97.8853419850318  132.896116232319 97.8853419850318  C 132.896116232319 97.8853419850318  122.657279839195 101.826443465402  122.657279839195 101.826443465402  C 122.657279839195 101.826443465402  114.694586257628 108.676923771804  114.694586257628 108.676923771804  C 114.694586257628 108.676923771804  109.345523775173 112.329459145788  109.345523775173 112.329459145788  C 109.345523775173 112.329459145788  100.412253969721 116.10848925134  100.412253969721 116.10848925134  C 100.412253969721 116.10848925134  100.402103946035 118.753019733153  100.402103946035 118.753019733153  C 100.402103946035 118.753019733153  96.8572081737443 120.168179542554  96.8572081737443 120.168179542554  C 96.8572081737443 120.168179542554  90.4474682161158 122.22174245033  90.4474682161158 122.22174245033  C 90.4474682161158 122.22174245033  87.123335458992 122.526120398162  87.123335458992 122.526120398162  C 87.123335458992 122.526120398162  84.9918304849588 126.884259196666  84.9918304849588 126.884259196666  C 84.9918304849588 126.884259196666  86.4711964371752 134.282224513129  86.4711964371752 134.282224513129  C 86.4711964371752 134.282224513129  86.8492848194738 138.978341422537  86.8492848194738 138.978341422537  C 86.8492848194738 138.978341422537  83.8347277847695 144.338555672671  83.8347277847695 144.338555672671  C 83.8347277847695 144.338555672671  83.8017402077904 153.875072544681  83.8017402077904 153.875072544681  C 83.8017402077904 153.875072544681  80.11981911574 154.145850329441  80.11981911574 154.145850329441  C 80.11981911574 154.145850329441  76.8819615599467 158.40911807927  76.8819615599467 158.40911807927  C 76.8819615599467 158.40911807927  79.046454110959 160.249221127527  79.046454110959 160.249221127527  C 79.046454110959 160.249221127527  72.5580514697649 161.828428791928  72.5580514697649 161.828428791928  C 72.5580514697649 161.828428791928  70.1626458798988 165.615364818202  70.1626458798988 165.615364818202  C 70.1626458798988 165.615364818202  67.3079517182472 167.214337284411  67.3079517182472 167.214337284411  C 67.3079517182472 167.214337284411  60.5734110026708 162.018170889278  60.5734110026708 162.018170889278  C 60.5734110026708 162.018170889278  57.2797283166051 154.197238814139  57.2797283166051 154.197238814139  C 57.2797283166051 154.197238814139  54.5493719451053 148.544505497259  54.5493719451053 148.544505497259  C 54.5493719451053 148.544505497259  52.055003624302 145.884163173999  52.055003624302 145.884163173999  C 52.055003624302 145.884163173999  48.2766573072358 140.472560439167  48.2766573072358 140.472560439167  C 48.2766573072358 140.472560439167  46.510553185894 133.392808431801  46.510553185894 133.392808431801  C 46.510553185894 133.392808431801  45.2798628139817 129.843050027215  45.2798628139817 129.843050027215  C 45.2798628139817 129.843050027215  38.8092227142382 122.000376670088  38.8092227142382 122.000376670088  C 38.8092227142382 122.000376670088  35.8631783394134 110.841169569701  35.8631783394134 110.841169569701  C 35.8631783394134 110.841169569701  33.734210871302 103.405651129804  33.734210871302 103.405651129804  C 33.734210871302 103.405651129804  33.7595859305166 96.3120637611725  33.7595859305166 96.3120637611725  C 33.7595859305166 96.3120637611725  32.3791827092378 90.7897781362202  32.3791827092378 90.7897781362202  C 32.3791827092378 90.7897781362202  22.0261585496474 94.3237246993609  22.0261585496474 94.3237246993609  C 22.0261585496474 94.3237246993609  17.0120468488266 93.618121274841  17.0120468488266 93.618121274841  C 17.0120468488266 93.618121274841  7.71716265848837 86.4415217386195  7.71716265848837 86.4415217386195  C 7.71716265848837 86.4415217386195  11.1377206406276 82.8532373859098  11.1377206406276 82.8532373859098  C 11.1377206406276 82.8532373859098  9.0366657376517 80.509131891567  9.0366657376517 80.509131891567  C 9.0366657376517 80.509131891567  0.690808761943093 75.4196954261936  0.690808761943093 75.4196954261936  C 0.690808761943093 75.4196954261936  5.4283323173243 71.3936052980516  5.4283323173243 71.3936052980516  C 5.4283323173243 71.3936052980516  21.0847438527831 71.4094171394976  21.0847438527831 71.4094171394976  C 21.0847438527831 71.4094171394976  19.6738905604466 66.1974389029191  19.6738905604466 66.1974389029191  C 19.6738905604466 66.1974389029191  15.6747812282127 63.1022709398998  15.6747812282127 63.1022709398998  C 15.6747812282127 63.1022709398998  14.8653168392641 58.3765068277804  14.8653168392641 58.3765068277804  C 14.8653168392641 58.3765068277804  10.2089934733699 55.6054816144003  10.2089934733699 55.6054816144003  C 10.2089934733699 55.6054816144003  18.0498867707068 49.0929794189033  18.0498867707068 49.0929794189033  C 18.0498867707068 49.0929794189033  26.3120060510071 49.5673346622779  26.3120060510071 49.5673346622779  C 26.3120060510071 49.5673346622779  33.7545109186735 42.9935615811779  33.7545109186735 42.9935615811779  C 33.7545109186735 42.9935615811779  38.2129088226929 36.568024513633  38.2129088226929 36.568024513633  C 38.2129088226929 36.568024513633  45.1225374468508 30.1464404064492  45.1225374468508 30.1464404064492  C 45.1225374468508 30.1464404064492  45.0108871863061 25.5451945457156  45.0108871863061 25.5451945457156  C 45.0108871863061 25.5451945457156  51.0806013504582 21.7839527617911  51.0806013504582 21.7839527617911  C 51.0806013504582 21.7839527617911  45.3356879442545 18.5543841464823  45.3356879442545 18.5543841464823  C 45.3356879442545 18.5543841464823  42.864157176744 14.0993978191225  42.864157176744 14.0993978191225  C 42.864157176744 14.0993978191225  40.3444137967265 8.27668720669928  40.3444137967265 8.27668720669928  C 40.3444137967265 8.27668720669928  43.8309469328235 5.3890496626563  43.8309469328235 5.3890496626563  C 43.8309469328235 5.3890496626563  54.6254971227492 7.02557525229879  54.6254971227492 7.02557525229879  C 54.6254971227492 7.02557525229879  62.5552031273371 6.02942924121206  62.5552031273371 6.02942924121206  Z " fill-rule="evenodd" />
    </mask>
  </defs>
  <g transform="matrix(1 0 0 1 -2326 -4132 )">
    <path d="M 62.5552031273371 6.02942924121206  C 62.5552031273371 6.02942924121206  69.4267691626733 0.364837043247019  69.4267691626733 0.364837043247019  C 69.4267691626733 0.364837043247019  77.074812009978 8.24901648416905  77.074812009978 8.24901648416905  C 77.074812009978 8.24901648416905  76.3541603282813 13.6705016199046  76.3541603282813 13.6705016199046  C 76.3541603282813 13.6705016199046  79.1834794307184 17.0463297685872  79.1834794307184 17.0463297685872  C 79.1834794307184 17.0463297685872  78.9500288859432 20.3944871947397  78.9500288859432 20.3944871947397  C 78.9500288859432 20.3944871947397  73.8445669719492 19.5149535143158  73.8445669719492 19.5149535143158  C 73.8445669719492 19.5149535143158  75.839046626223 26.6895765703567  75.839046626223 26.6895765703567  C 75.839046626223 26.6895765703567  82.8298754398679 30.771008143559  82.8298754398679 30.771008143559  C 82.8298754398679 30.771008143559  92.7185360158297 35.2477357529068  92.7185360158297 35.2477357529068  C 92.7185360158297 35.2477357529068  88.2017754756166 38.1353732969497  88.2017754756166 38.1353732969497  C 88.2017754756166 38.1353732969497  85.4409690330586 44.0470255175059  85.4409690330586 44.0470255175059  C 85.4409690330586 44.0470255175059  92.3328351157663 46.4227546947403  92.3328351157663 46.4227546947403  C 92.3328351157663 46.4227546947403  99.0420007721285 49.4902519352293  99.0420007721285 49.4902519352293  C 99.0420007721285 49.4902519352293  110.165138187807 52.9826924145749  110.165138187807 52.9826924145749  C 110.165138187807 52.9826924145749  119.916773444009 53.7851433679501  119.916773444009 53.7851433679501  C 119.916773444009 53.7851433679501  124.019920519024 56.9336762958492  124.019920519024 56.9336762958492  C 124.019920519024 56.9336762958492  129.518695850845 57.5187144293445  129.518695850845 57.5187144293445  C 129.518695850845 57.5187144293445  138.077703323957 58.9556155207334  138.077703323957 58.9556155207334  C 138.077703323957 58.9556155207334  144.002779650586 58.8528385513356  144.002779650586 58.8528385513356  C 144.002779650586 58.8528385513356  144.817319051377 56.411885528137  144.817319051377 56.411885528137  C 144.817319051377 56.411885528137  143.880979366355 52.4767134883087  143.880979366355 52.4767134883087  C 143.880979366355 52.4767134883087  144.431618151314 49.7966063632422  144.431618151314 49.7966063632422  C 144.431618151314 49.7966063632422  148.770753277024 48.4822470430583  148.770753277024 48.4822470430583  C 148.770753277024 48.4822470430583  149.367067168569 53.3858943714431  149.367067168569 53.3858943714431  C 149.367067168569 53.3858943714431  149.519317523858 54.6291004051209  149.519317523858 54.6291004051209  C 149.519317523858 54.6291004051209  155.98742011768 56.9751823796444  155.98742011768 56.9751823796444  C 155.98742011768 56.9751823796444  160.458505551307 56.0086835712688  160.458505551307 56.0086835712688  C 160.458505551307 56.0086835712688  166.467319573343 56.4237444092214  166.467319573343 56.4237444092214  C 166.467319573343 56.4237444092214  172.270595615741 56.2399317524137  172.270595615741 56.2399317524137  C 172.270595615741 56.2399317524137  172.77048428227 52.4352074045132  172.77048428227 52.4352074045132  C 172.77048428227 52.4352074045132  169.872652519954 50.4488448228823  169.872652519954 50.4488448228823  C 169.872652519954 50.4488448228823  175.612490914315 49.6701116316757  175.612490914315 49.6701116316757  C 175.612490914315 49.6701116316757  182.088206025901 45.0135243258814  182.088206025901 45.0135243258814  C 182.088206025901 45.0135243258814  190.289425164087 41.0012695590048  190.289425164087 41.0012695590048  C 190.289425164087 41.0012695590048  196.25763909138 42.5528065008759  196.25763909138 42.5528065008759  C 196.25763909138 42.5528065008759  201.330113428395 39.8924641776167  201.330113428395 39.8924641776167  C 201.330113428395 39.8924641776167  204.664396209204 43.8157773363606  204.664396209204 43.8157773363606  C 204.664396209204 43.8157773363606  202.261378101573 46.4543783776319  202.261378101573 46.4543783776319  C 202.261378101573 46.4543783776319  209.934796008093 47.3892535031158  209.934796008093 47.3892535031158  C 209.934796008093 47.3892535031158  210.470209757523 49.7590532398084  210.470209757523 49.7590532398084  C 210.470209757523 49.7590532398084  207.97584143672 50.9014587842687  207.97584143672 50.9014587842687  C 207.97584143672 50.9014587842687  208.562005304579 54.7219949736153  208.562005304579 54.7219949736153  C 208.562005304579 54.7219949736153  203.476843437957 53.6013307111427  203.476843437957 53.6013307111427  C 203.476843437957 53.6013307111427  194.265696943027 57.8744808618754  194.265696943027 57.8744808618754  C 194.265696943027 57.8744808618754  194.481384946352 61.3906391033898  194.481384946352 61.3906391033898  C 194.481384946352 61.3906391033898  190.555863285841 66.5176286921968  190.555863285841 66.5176286921968  C 190.555863285841 66.5176286921968  190.192999939071 69.4783960029268  190.192999939071 69.4783960029268  C 190.192999939071 69.4783960029268  187.021117537235 74.4630790187215  187.021117537235 74.4630790187215  C 187.021117537235 74.4630790187215  181.461442063299 73.0874488129352  181.461442063299 73.0874488129352  C 181.461442063299 73.0874488129352  181.184853917859 79.3094084218653  181.184853917859 79.3094084218653  C 181.184853917859 79.3094084218653  179.578612669569 81.3471594881954  179.578612669569 81.3471594881954  C 179.578612669569 81.3471594881954  180.329714422324 85.3149280356048  180.329714422324 85.3149280356048  C 180.329714422324 85.3149280356048  176.820343732934 86.7261348846443  176.820343732934 86.7261348846443  C 176.820343732934 86.7261348846443  173.072447486925 75.8051090614355  173.072447486925 75.8051090614355  C 173.072447486925 75.8051090614355  171.108417903709 75.8248738632427  171.108417903709 75.8248738632427  C 171.108417903709 75.8248738632427  169.946240191676 79.6592454138539  169.946240191676 79.6592454138539  C 169.946240191676 79.6592454138539  166.051168602223 76.5522185697505  166.051168602223 76.5522185697505  C 166.051168602223 76.5522185697505  168.246111224292 73.1250019363691  168.246111224292 73.1250019363691  C 168.246111224292 73.1250019363691  171.430681155735 72.7751649443801  171.430681155735 72.7751649443801  C 171.430681155735 72.7751649443801  174.709138806272 67.6481753555731  174.709138806272 67.6481753555731  C 174.709138806272 67.6481753555731  170.608529237179 66.6085467805102  170.608529237179 66.6085467805102  C 170.608529237179 66.6085467805102  164.00847633544 66.6994648688238  164.00847633544 66.6994648688238  C 164.00847633544 66.6994648688238  157.238410536964 65.8634137523761  157.238410536964 65.8634137523761  C 157.238410536964 65.8634137523761  156.611646574361 61.613981363812  156.611646574361 61.613981363812  C 156.611646574361 61.613981363812  153.213926145515 61.3115798961606  153.213926145515 61.3115798961606  C 153.213926145515 61.3115798961606  147.578125493934 58.6571670134436  147.578125493934 58.6571670134436  C 147.578125493934 58.6571670134436  145.065994631681 62.8216107542362  145.065994631681 62.8216107542362  C 145.065994631681 62.8216107542362  150.201906616732 66.053155849726  150.201906616732 66.053155849726  C 150.201906616732 66.053155849726  145.753658736398 68.3201786170204  145.753658736398 68.3201786170204  C 145.753658736398 68.3201786170204  144.175330053245 70.5318599392544  144.175330053245 70.5318599392544  C 144.175330053245 70.5318599392544  148.552527767778 72.1505972072704  148.552527767778 72.1505972072704  C 148.552527767778 72.1505972072704  147.344674949159 75.7853442596283  147.344674949159 75.7853442596283  C 147.344674949159 75.7853442596283  149.808593198905 80.2936955518677  149.808593198905 80.2936955518677  C 149.808593198905 80.2936955518677  150.917483286586 86.6411462368728  150.917483286586 86.6411462368728  C 150.917483286586 86.6411462368728  149.897405906156 88.8073685149505  149.897405906156 88.8073685149505  C 149.897405906156 88.8073685149505  145.055844607995 88.7342387482634  145.055844607995 88.7342387482634  C 145.055844607995 88.7342387482634  136.286224143401 89.9636094206759  136.286224143401 89.9636094206759  C 136.286224143401 89.9636094206759  136.694762596757 94.4067368669514  136.694762596757 94.4067368669514  C 136.694762596757 94.4067368669514  132.896116232319 97.8853419850318  132.896116232319 97.8853419850318  C 132.896116232319 97.8853419850318  122.657279839195 101.826443465402  122.657279839195 101.826443465402  C 122.657279839195 101.826443465402  114.694586257628 108.676923771804  114.694586257628 108.676923771804  C 114.694586257628 108.676923771804  109.345523775173 112.329459145788  109.345523775173 112.329459145788  C 109.345523775173 112.329459145788  100.412253969721 116.10848925134  100.412253969721 116.10848925134  C 100.412253969721 116.10848925134  100.402103946035 118.753019733153  100.402103946035 118.753019733153  C 100.402103946035 118.753019733153  96.8572081737443 120.168179542554  96.8572081737443 120.168179542554  C 96.8572081737443 120.168179542554  90.4474682161158 122.22174245033  90.4474682161158 122.22174245033  C 90.4474682161158 122.22174245033  87.123335458992 122.526120398162  87.123335458992 122.526120398162  C 87.123335458992 122.526120398162  84.9918304849588 126.884259196666  84.9918304849588 126.884259196666  C 84.9918304849588 126.884259196666  86.4711964371752 134.282224513129  86.4711964371752 134.282224513129  C 86.4711964371752 134.282224513129  86.8492848194738 138.978341422537  86.8492848194738 138.978341422537  C 86.8492848194738 138.978341422537  83.8347277847695 144.338555672671  83.8347277847695 144.338555672671  C 83.8347277847695 144.338555672671  83.8017402077904 153.875072544681  83.8017402077904 153.875072544681  C 83.8017402077904 153.875072544681  80.11981911574 154.145850329441  80.11981911574 154.145850329441  C 80.11981911574 154.145850329441  76.8819615599467 158.40911807927  76.8819615599467 158.40911807927  C 76.8819615599467 158.40911807927  79.046454110959 160.249221127527  79.046454110959 160.249221127527  C 79.046454110959 160.249221127527  72.5580514697649 161.828428791928  72.5580514697649 161.828428791928  C 72.5580514697649 161.828428791928  70.1626458798988 165.615364818202  70.1626458798988 165.615364818202  C 70.1626458798988 165.615364818202  67.3079517182472 167.214337284411  67.3079517182472 167.214337284411  C 67.3079517182472 167.214337284411  60.5734110026708 162.018170889278  60.5734110026708 162.018170889278  C 60.5734110026708 162.018170889278  57.2797283166051 154.197238814139  57.2797283166051 154.197238814139  C 57.2797283166051 154.197238814139  54.5493719451053 148.544505497259  54.5493719451053 148.544505497259  C 54.5493719451053 148.544505497259  52.055003624302 145.884163173999  52.055003624302 145.884163173999  C 52.055003624302 145.884163173999  48.2766573072358 140.472560439167  48.2766573072358 140.472560439167  C 48.2766573072358 140.472560439167  46.510553185894 133.392808431801  46.510553185894 133.392808431801  C 46.510553185894 133.392808431801  45.2798628139817 129.843050027215  45.2798628139817 129.843050027215  C 45.2798628139817 129.843050027215  38.8092227142382 122.000376670088  38.8092227142382 122.000376670088  C 38.8092227142382 122.000376670088  35.8631783394134 110.841169569701  35.8631783394134 110.841169569701  C 35.8631783394134 110.841169569701  33.734210871302 103.405651129804  33.734210871302 103.405651129804  C 33.734210871302 103.405651129804  33.7595859305166 96.3120637611725  33.7595859305166 96.3120637611725  C 33.7595859305166 96.3120637611725  32.3791827092378 90.7897781362202  32.3791827092378 90.7897781362202  C 32.3791827092378 90.7897781362202  22.0261585496474 94.3237246993609  22.0261585496474 94.3237246993609  C 22.0261585496474 94.3237246993609  17.0120468488266 93.618121274841  17.0120468488266 93.618121274841  C 17.0120468488266 93.618121274841  7.71716265848837 86.4415217386195  7.71716265848837 86.4415217386195  C 7.71716265848837 86.4415217386195  11.1377206406276 82.8532373859098  11.1377206406276 82.8532373859098  C 11.1377206406276 82.8532373859098  9.0366657376517 80.509131891567  9.0366657376517 80.509131891567  C 9.0366657376517 80.509131891567  0.690808761943093 75.4196954261936  0.690808761943093 75.4196954261936  C 0.690808761943093 75.4196954261936  5.4283323173243 71.3936052980516  5.4283323173243 71.3936052980516  C 5.4283323173243 71.3936052980516  21.0847438527831 71.4094171394976  21.0847438527831 71.4094171394976  C 21.0847438527831 71.4094171394976  19.6738905604466 66.1974389029191  19.6738905604466 66.1974389029191  C 19.6738905604466 66.1974389029191  15.6747812282127 63.1022709398998  15.6747812282127 63.1022709398998  C 15.6747812282127 63.1022709398998  14.8653168392641 58.3765068277804  14.8653168392641 58.3765068277804  C 14.8653168392641 58.3765068277804  10.2089934733699 55.6054816144003  10.2089934733699 55.6054816144003  C 10.2089934733699 55.6054816144003  18.0498867707068 49.0929794189033  18.0498867707068 49.0929794189033  C 18.0498867707068 49.0929794189033  26.3120060510071 49.5673346622779  26.3120060510071 49.5673346622779  C 26.3120060510071 49.5673346622779  33.7545109186735 42.9935615811779  33.7545109186735 42.9935615811779  C 33.7545109186735 42.9935615811779  38.2129088226929 36.568024513633  38.2129088226929 36.568024513633  C 38.2129088226929 36.568024513633  45.1225374468508 30.1464404064492  45.1225374468508 30.1464404064492  C 45.1225374468508 30.1464404064492  45.0108871863061 25.5451945457156  45.0108871863061 25.5451945457156  C 45.0108871863061 25.5451945457156  51.0806013504582 21.7839527617911  51.0806013504582 21.7839527617911  C 51.0806013504582 21.7839527617911  45.3356879442545 18.5543841464823  45.3356879442545 18.5543841464823  C 45.3356879442545 18.5543841464823  42.864157176744 14.0993978191225  42.864157176744 14.0993978191225  C 42.864157176744 14.0993978191225  40.3444137967265 8.27668720669928  40.3444137967265 8.27668720669928  C 40.3444137967265 8.27668720669928  43.8309469328235 5.3890496626563  43.8309469328235 5.3890496626563  C 43.8309469328235 5.3890496626563  54.6254971227492 7.02557525229879  54.6254971227492 7.02557525229879  C 54.6254971227492 7.02557525229879  62.5552031273371 6.02942924121206  62.5552031273371 6.02942924121206  Z " fill-rule="nonzero" fill="#f2f2f2" stroke="none" transform="matrix(1 0 0 1 2326 4132 )" />
    <path d="M 62.5552031273371 6.02942924121206  C 62.5552031273371 6.02942924121206  69.4267691626733 0.364837043247019  69.4267691626733 0.364837043247019  C 69.4267691626733 0.364837043247019  77.074812009978 8.24901648416905  77.074812009978 8.24901648416905  C 77.074812009978 8.24901648416905  76.3541603282813 13.6705016199046  76.3541603282813 13.6705016199046  C 76.3541603282813 13.6705016199046  79.1834794307184 17.0463297685872  79.1834794307184 17.0463297685872  C 79.1834794307184 17.0463297685872  78.9500288859432 20.3944871947397  78.9500288859432 20.3944871947397  C 78.9500288859432 20.3944871947397  73.8445669719492 19.5149535143158  73.8445669719492 19.5149535143158  C 73.8445669719492 19.5149535143158  75.839046626223 26.6895765703567  75.839046626223 26.6895765703567  C 75.839046626223 26.6895765703567  82.8298754398679 30.771008143559  82.8298754398679 30.771008143559  C 82.8298754398679 30.771008143559  92.7185360158297 35.2477357529068  92.7185360158297 35.2477357529068  C 92.7185360158297 35.2477357529068  88.2017754756166 38.1353732969497  88.2017754756166 38.1353732969497  C 88.2017754756166 38.1353732969497  85.4409690330586 44.0470255175059  85.4409690330586 44.0470255175059  C 85.4409690330586 44.0470255175059  92.3328351157663 46.4227546947403  92.3328351157663 46.4227546947403  C 92.3328351157663 46.4227546947403  99.0420007721285 49.4902519352293  99.0420007721285 49.4902519352293  C 99.0420007721285 49.4902519352293  110.165138187807 52.9826924145749  110.165138187807 52.9826924145749  C 110.165138187807 52.9826924145749  119.916773444009 53.7851433679501  119.916773444009 53.7851433679501  C 119.916773444009 53.7851433679501  124.019920519024 56.9336762958492  124.019920519024 56.9336762958492  C 124.019920519024 56.9336762958492  129.518695850845 57.5187144293445  129.518695850845 57.5187144293445  C 129.518695850845 57.5187144293445  138.077703323957 58.9556155207334  138.077703323957 58.9556155207334  C 138.077703323957 58.9556155207334  144.002779650586 58.8528385513356  144.002779650586 58.8528385513356  C 144.002779650586 58.8528385513356  144.817319051377 56.411885528137  144.817319051377 56.411885528137  C 144.817319051377 56.411885528137  143.880979366355 52.4767134883087  143.880979366355 52.4767134883087  C 143.880979366355 52.4767134883087  144.431618151314 49.7966063632422  144.431618151314 49.7966063632422  C 144.431618151314 49.7966063632422  148.770753277024 48.4822470430583  148.770753277024 48.4822470430583  C 148.770753277024 48.4822470430583  149.367067168569 53.3858943714431  149.367067168569 53.3858943714431  C 149.367067168569 53.3858943714431  149.519317523858 54.6291004051209  149.519317523858 54.6291004051209  C 149.519317523858 54.6291004051209  155.98742011768 56.9751823796444  155.98742011768 56.9751823796444  C 155.98742011768 56.9751823796444  160.458505551307 56.0086835712688  160.458505551307 56.0086835712688  C 160.458505551307 56.0086835712688  166.467319573343 56.4237444092214  166.467319573343 56.4237444092214  C 166.467319573343 56.4237444092214  172.270595615741 56.2399317524137  172.270595615741 56.2399317524137  C 172.270595615741 56.2399317524137  172.77048428227 52.4352074045132  172.77048428227 52.4352074045132  C 172.77048428227 52.4352074045132  169.872652519954 50.4488448228823  169.872652519954 50.4488448228823  C 169.872652519954 50.4488448228823  175.612490914315 49.6701116316757  175.612490914315 49.6701116316757  C 175.612490914315 49.6701116316757  182.088206025901 45.0135243258814  182.088206025901 45.0135243258814  C 182.088206025901 45.0135243258814  190.289425164087 41.0012695590048  190.289425164087 41.0012695590048  C 190.289425164087 41.0012695590048  196.25763909138 42.5528065008759  196.25763909138 42.5528065008759  C 196.25763909138 42.5528065008759  201.330113428395 39.8924641776167  201.330113428395 39.8924641776167  C 201.330113428395 39.8924641776167  204.664396209204 43.8157773363606  204.664396209204 43.8157773363606  C 204.664396209204 43.8157773363606  202.261378101573 46.4543783776319  202.261378101573 46.4543783776319  C 202.261378101573 46.4543783776319  209.934796008093 47.3892535031158  209.934796008093 47.3892535031158  C 209.934796008093 47.3892535031158  210.470209757523 49.7590532398084  210.470209757523 49.7590532398084  C 210.470209757523 49.7590532398084  207.97584143672 50.9014587842687  207.97584143672 50.9014587842687  C 207.97584143672 50.9014587842687  208.562005304579 54.7219949736153  208.562005304579 54.7219949736153  C 208.562005304579 54.7219949736153  203.476843437957 53.6013307111427  203.476843437957 53.6013307111427  C 203.476843437957 53.6013307111427  194.265696943027 57.8744808618754  194.265696943027 57.8744808618754  C 194.265696943027 57.8744808618754  194.481384946352 61.3906391033898  194.481384946352 61.3906391033898  C 194.481384946352 61.3906391033898  190.555863285841 66.5176286921968  190.555863285841 66.5176286921968  C 190.555863285841 66.5176286921968  190.192999939071 69.4783960029268  190.192999939071 69.4783960029268  C 190.192999939071 69.4783960029268  187.021117537235 74.4630790187215  187.021117537235 74.4630790187215  C 187.021117537235 74.4630790187215  181.461442063299 73.0874488129352  181.461442063299 73.0874488129352  C 181.461442063299 73.0874488129352  181.184853917859 79.3094084218653  181.184853917859 79.3094084218653  C 181.184853917859 79.3094084218653  179.578612669569 81.3471594881954  179.578612669569 81.3471594881954  C 179.578612669569 81.3471594881954  180.329714422324 85.3149280356048  180.329714422324 85.3149280356048  C 180.329714422324 85.3149280356048  176.820343732934 86.7261348846443  176.820343732934 86.7261348846443  C 176.820343732934 86.7261348846443  173.072447486925 75.8051090614355  173.072447486925 75.8051090614355  C 173.072447486925 75.8051090614355  171.108417903709 75.8248738632427  171.108417903709 75.8248738632427  C 171.108417903709 75.8248738632427  169.946240191676 79.6592454138539  169.946240191676 79.6592454138539  C 169.946240191676 79.6592454138539  166.051168602223 76.5522185697505  166.051168602223 76.5522185697505  C 166.051168602223 76.5522185697505  168.246111224292 73.1250019363691  168.246111224292 73.1250019363691  C 168.246111224292 73.1250019363691  171.430681155735 72.7751649443801  171.430681155735 72.7751649443801  C 171.430681155735 72.7751649443801  174.709138806272 67.6481753555731  174.709138806272 67.6481753555731  C 174.709138806272 67.6481753555731  170.608529237179 66.6085467805102  170.608529237179 66.6085467805102  C 170.608529237179 66.6085467805102  164.00847633544 66.6994648688238  164.00847633544 66.6994648688238  C 164.00847633544 66.6994648688238  157.238410536964 65.8634137523761  157.238410536964 65.8634137523761  C 157.238410536964 65.8634137523761  156.611646574361 61.613981363812  156.611646574361 61.613981363812  C 156.611646574361 61.613981363812  153.213926145515 61.3115798961606  153.213926145515 61.3115798961606  C 153.213926145515 61.3115798961606  147.578125493934 58.6571670134436  147.578125493934 58.6571670134436  C 147.578125493934 58.6571670134436  145.065994631681 62.8216107542362  145.065994631681 62.8216107542362  C 145.065994631681 62.8216107542362  150.201906616732 66.053155849726  150.201906616732 66.053155849726  C 150.201906616732 66.053155849726  145.753658736398 68.3201786170204  145.753658736398 68.3201786170204  C 145.753658736398 68.3201786170204  144.175330053245 70.5318599392544  144.175330053245 70.5318599392544  C 144.175330053245 70.5318599392544  148.552527767778 72.1505972072704  148.552527767778 72.1505972072704  C 148.552527767778 72.1505972072704  147.344674949159 75.7853442596283  147.344674949159 75.7853442596283  C 147.344674949159 75.7853442596283  149.808593198905 80.2936955518677  149.808593198905 80.2936955518677  C 149.808593198905 80.2936955518677  150.917483286586 86.6411462368728  150.917483286586 86.6411462368728  C 150.917483286586 86.6411462368728  149.897405906156 88.8073685149505  149.897405906156 88.8073685149505  C 149.897405906156 88.8073685149505  145.055844607995 88.7342387482634  145.055844607995 88.7342387482634  C 145.055844607995 88.7342387482634  136.286224143401 89.9636094206759  136.286224143401 89.9636094206759  C 136.286224143401 89.9636094206759  136.694762596757 94.4067368669514  136.694762596757 94.4067368669514  C 136.694762596757 94.4067368669514  132.896116232319 97.8853419850318  132.896116232319 97.8853419850318  C 132.896116232319 97.8853419850318  122.657279839195 101.826443465402  122.657279839195 101.826443465402  C 122.657279839195 101.826443465402  114.694586257628 108.676923771804  114.694586257628 108.676923771804  C 114.694586257628 108.676923771804  109.345523775173 112.329459145788  109.345523775173 112.329459145788  C 109.345523775173 112.329459145788  100.412253969721 116.10848925134  100.412253969721 116.10848925134  C 100.412253969721 116.10848925134  100.402103946035 118.753019733153  100.402103946035 118.753019733153  C 100.402103946035 118.753019733153  96.8572081737443 120.168179542554  96.8572081737443 120.168179542554  C 96.8572081737443 120.168179542554  90.4474682161158 122.22174245033  90.4474682161158 122.22174245033  C 90.4474682161158 122.22174245033  87.123335458992 122.526120398162  87.123335458992 122.526120398162  C 87.123335458992 122.526120398162  84.9918304849588 126.884259196666  84.9918304849588 126.884259196666  C 84.9918304849588 126.884259196666  86.4711964371752 134.282224513129  86.4711964371752 134.282224513129  C 86.4711964371752 134.282224513129  86.8492848194738 138.978341422537  86.8492848194738 138.978341422537  C 86.8492848194738 138.978341422537  83.8347277847695 144.338555672671  83.8347277847695 144.338555672671  C 83.8347277847695 144.338555672671  83.8017402077904 153.875072544681  83.8017402077904 153.875072544681  C 83.8017402077904 153.875072544681  80.11981911574 154.145850329441  80.11981911574 154.145850329441  C 80.11981911574 154.145850329441  76.8819615599467 158.40911807927  76.8819615599467 158.40911807927  C 76.8819615599467 158.40911807927  79.046454110959 160.249221127527  79.046454110959 160.249221127527  C 79.046454110959 160.249221127527  72.5580514697649 161.828428791928  72.5580514697649 161.828428791928  C 72.5580514697649 161.828428791928  70.1626458798988 165.615364818202  70.1626458798988 165.615364818202  C 70.1626458798988 165.615364818202  67.3079517182472 167.214337284411  67.3079517182472 167.214337284411  C 67.3079517182472 167.214337284411  60.5734110026708 162.018170889278  60.5734110026708 162.018170889278  C 60.5734110026708 162.018170889278  57.2797283166051 154.197238814139  57.2797283166051 154.197238814139  C 57.2797283166051 154.197238814139  54.5493719451053 148.544505497259  54.5493719451053 148.544505497259  C 54.5493719451053 148.544505497259  52.055003624302 145.884163173999  52.055003624302 145.884163173999  C 52.055003624302 145.884163173999  48.2766573072358 140.472560439167  48.2766573072358 140.472560439167  C 48.2766573072358 140.472560439167  46.510553185894 133.392808431801  46.510553185894 133.392808431801  C 46.510553185894 133.392808431801  45.2798628139817 129.843050027215  45.2798628139817 129.843050027215  C 45.2798628139817 129.843050027215  38.8092227142382 122.000376670088  38.8092227142382 122.000376670088  C 38.8092227142382 122.000376670088  35.8631783394134 110.841169569701  35.8631783394134 110.841169569701  C 35.8631783394134 110.841169569701  33.734210871302 103.405651129804  33.734210871302 103.405651129804  C 33.734210871302 103.405651129804  33.7595859305166 96.3120637611725  33.7595859305166 96.3120637611725  C 33.7595859305166 96.3120637611725  32.3791827092378 90.7897781362202  32.3791827092378 90.7897781362202  C 32.3791827092378 90.7897781362202  22.0261585496474 94.3237246993609  22.0261585496474 94.3237246993609  C 22.0261585496474 94.3237246993609  17.0120468488266 93.618121274841  17.0120468488266 93.618121274841  C 17.0120468488266 93.618121274841  7.71716265848837 86.4415217386195  7.71716265848837 86.4415217386195  C 7.71716265848837 86.4415217386195  11.1377206406276 82.8532373859098  11.1377206406276 82.8532373859098  C 11.1377206406276 82.8532373859098  9.0366657376517 80.509131891567  9.0366657376517 80.509131891567  C 9.0366657376517 80.509131891567  0.690808761943093 75.4196954261936  0.690808761943093 75.4196954261936  C 0.690808761943093 75.4196954261936  5.4283323173243 71.3936052980516  5.4283323173243 71.3936052980516  C 5.4283323173243 71.3936052980516  21.0847438527831 71.4094171394976  21.0847438527831 71.4094171394976  C 21.0847438527831 71.4094171394976  19.6738905604466 66.1974389029191  19.6738905604466 66.1974389029191  C 19.6738905604466 66.1974389029191  15.6747812282127 63.1022709398998  15.6747812282127 63.1022709398998  C 15.6747812282127 63.1022709398998  14.8653168392641 58.3765068277804  14.8653168392641 58.3765068277804  C 14.8653168392641 58.3765068277804  10.2089934733699 55.6054816144003  10.2089934733699 55.6054816144003  C 10.2089934733699 55.6054816144003  18.0498867707068 49.0929794189033  18.0498867707068 49.0929794189033  C 18.0498867707068 49.0929794189033  26.3120060510071 49.5673346622779  26.3120060510071 49.5673346622779  C 26.3120060510071 49.5673346622779  33.7545109186735 42.9935615811779  33.7545109186735 42.9935615811779  C 33.7545109186735 42.9935615811779  38.2129088226929 36.568024513633  38.2129088226929 36.568024513633  C 38.2129088226929 36.568024513633  45.1225374468508 30.1464404064492  45.1225374468508 30.1464404064492  C 45.1225374468508 30.1464404064492  45.0108871863061 25.5451945457156  45.0108871863061 25.5451945457156  C 45.0108871863061 25.5451945457156  51.0806013504582 21.7839527617911  51.0806013504582 21.7839527617911  C 51.0806013504582 21.7839527617911  45.3356879442545 18.5543841464823  45.3356879442545 18.5543841464823  C 45.3356879442545 18.5543841464823  42.864157176744 14.0993978191225  42.864157176744 14.0993978191225  C 42.864157176744 14.0993978191225  40.3444137967265 8.27668720669928  40.3444137967265 8.27668720669928  C 40.3444137967265 8.27668720669928  43.8309469328235 5.3890496626563  43.8309469328235 5.3890496626563  C 43.8309469328235 5.3890496626563  54.6254971227492 7.02557525229879  54.6254971227492 7.02557525229879  C 54.6254971227492 7.02557525229879  62.5552031273371 6.02942924121206  62.5552031273371 6.02942924121206  Z " stroke-width="2" stroke="#505050" fill="none" stroke-opacity="0.211764705882353" transform="matrix(1 0 0 1 2326 4132 )" mask="url(#clip134)" />
  </g>
</svg>