<?xml version="1.0" encoding="utf-8"?>
<svg version="1.1" xmlns:xlink="http://www.w3.org/1999/xlink" width="74px" height="57px" xmlns="http://www.w3.org/2000/svg">
  <defs>
    <mask fill="white" id="clip135">
      <path d="M 46.3404951870015 1.79086876362874  C 46.3404951870015 1.79086876362874  50.9649082189965 9.92316529109559  50.9649082189965 9.92316529109559  C 50.9649082189965 9.92316529109559  55.647890358775 11.9513357226925  55.647890358775 11.9513357226925  C 55.647890358775 11.9513357226925  56.1877447435673 15.8742959385472  56.1877447435673 15.8742959385472  C 56.1877447435673 15.8742959385472  52.5946573051618 18.1790350653618  52.5946573051618 18.1790350653618  C 52.5946573051618 18.1790350653618  50.9394433895252 23.3534195900741  50.9394433895252 23.3534195900741  C 50.9394433895252 23.3534195900741  55.8847132728589 31.017887813391  55.8847132728589 31.017887813391  C 55.8847132728589 31.017887813391  64.6318821962632 34.5858201297108  64.6318821962632 34.5858201297108  C 64.6318821962632 34.5858201297108  68.3064570889771 39.495404839853  68.3064570889771 39.495404839853  C 68.3064570889771 39.495404839853  67.1376214162428 44.1362667752089  67.1376214162428 44.1362667752089  C 67.1376214162428 44.1362667752089  69.4167236539274 44.1343052951011  69.4167236539274 44.1343052951011  C 69.4167236539274 44.1343052951011  69.4880251764472 47.5257044017076  69.4880251764472 47.5257044017076  C 69.4880251764472 47.5257044017076  73.4376202274516 50.8543361448601  73.4376202274516 50.8543361448601  C 73.4376202274516 50.8543361448601  69.2028190863682 50.5444222878077  69.2028190863682 50.5444222878077  C 69.2028190863682 50.5444222878077  64.4026987310208 50.0167841387752  64.4026987310208 50.0167841387752  C 64.4026987310208 50.0167841387752  59.1645833087671 56.0581428711917  59.1645833087671 56.0581428711917  C 59.1645833087671 56.0581428711917  45.8897677053585 55.55796544367  45.8897677053585 55.55796544367  C 45.8897677053585 55.55796544367  23.9072735253189 42.8259980631136  23.9072735253189 42.8259980631136  C 23.9072735253189 42.8259980631136  13.2680677721941 38.3302856557441  13.2680677721941 38.3302856557441  C 13.2680677721941 38.3302856557441  4.66859485972346 36.580645399473  4.66859485972346 36.580645399473  C 4.66859485972346 36.580645399473  1.7910691294622 27.2293042833386  1.7910691294622 27.2293042833386  C 1.7910691294622 27.2293042833386  17.5970887823217 20.3660853857007  17.5970887823217 20.3660853857007  C 17.5970887823217 20.3660853857007  20.2963607062835 12.2828258609321  20.2963607062835 12.2828258609321  C 20.2963607062835 12.2828258609321  19.6215427252929 7.33793450884723  19.6215427252929 7.33793450884723  C 19.6215427252929 7.33793450884723  23.5303940491432 5.65694605635357  23.5303940491432 5.65694605635357  C 23.5303940491432 5.65694605635357  27.1896900441746 1.38091942107192  27.1896900441746 1.38091942107192  C 27.1896900441746 1.38091942107192  30.2556555125233 0.311912762251551  30.2556555125233 0.311912762251551  C 30.2556555125233 0.311912762251551  40.409736403127 1.20046325114267  40.409736403127 1.20046325114267  C 40.409736403127 1.20046325114267  42.9180221060539 2.95010350741382  42.9180221060539 2.95010350741382  C 42.9180221060539 2.95010350741382  46.3404951870015 1.79086876362874  46.3404951870015 1.79086876362874  Z " fill-rule="evenodd" />
    </mask>
  </defs>
  <g transform="matrix(1 0 0 1 -2115 -4118 )">
    <path d="M 46.3404951870015 1.79086876362874  C 46.3404951870015 1.79086876362874  50.9649082189965 9.92316529109559  50.9649082189965 9.92316529109559  C 50.9649082189965 9.92316529109559  55.647890358775 11.9513357226925  55.647890358775 11.9513357226925  C 55.647890358775 11.9513357226925  56.1877447435673 15.8742959385472  56.1877447435673 15.8742959385472  C 56.1877447435673 15.8742959385472  52.5946573051618 18.1790350653618  52.5946573051618 18.1790350653618  C 52.5946573051618 18.1790350653618  50.9394433895252 23.3534195900741  50.9394433895252 23.3534195900741  C 50.9394433895252 23.3534195900741  55.8847132728589 31.017887813391  55.8847132728589 31.017887813391  C 55.8847132728589 31.017887813391  64.6318821962632 34.5858201297108  64.6318821962632 34.5858201297108  C 64.6318821962632 34.5858201297108  68.3064570889771 39.495404839853  68.3064570889771 39.495404839853  C 68.3064570889771 39.495404839853  67.1376214162428 44.1362667752089  67.1376214162428 44.1362667752089  C 67.1376214162428 44.1362667752089  69.4167236539274 44.1343052951011  69.4167236539274 44.1343052951011  C 69.4167236539274 44.1343052951011  69.4880251764472 47.5257044017076  69.4880251764472 47.5257044017076  C 69.4880251764472 47.5257044017076  73.4376202274516 50.8543361448601  73.4376202274516 50.8543361448601  C 73.4376202274516 50.8543361448601  69.2028190863682 50.5444222878077  69.2028190863682 50.5444222878077  C 69.2028190863682 50.5444222878077  64.4026987310208 50.0167841387752  64.4026987310208 50.0167841387752  C 64.4026987310208 50.0167841387752  59.1645833087671 56.0581428711917  59.1645833087671 56.0581428711917  C 59.1645833087671 56.0581428711917  45.8897677053585 55.55796544367  45.8897677053585 55.55796544367  C 45.8897677053585 55.55796544367  23.9072735253189 42.8259980631136  23.9072735253189 42.8259980631136  C 23.9072735253189 42.8259980631136  13.2680677721941 38.3302856557441  13.2680677721941 38.3302856557441  C 13.2680677721941 38.3302856557441  4.66859485972346 36.580645399473  4.66859485972346 36.580645399473  C 4.66859485972346 36.580645399473  1.7910691294622 27.2293042833386  1.7910691294622 27.2293042833386  C 1.7910691294622 27.2293042833386  17.5970887823217 20.3660853857007  17.5970887823217 20.3660853857007  C 17.5970887823217 20.3660853857007  20.2963607062835 12.2828258609321  20.2963607062835 12.2828258609321  C 20.2963607062835 12.2828258609321  19.6215427252929 7.33793450884723  19.6215427252929 7.33793450884723  C 19.6215427252929 7.33793450884723  23.5303940491432 5.65694605635357  23.5303940491432 5.65694605635357  C 23.5303940491432 5.65694605635357  27.1896900441746 1.38091942107192  27.1896900441746 1.38091942107192  C 27.1896900441746 1.38091942107192  30.2556555125233 0.311912762251551  30.2556555125233 0.311912762251551  C 30.2556555125233 0.311912762251551  40.409736403127 1.20046325114267  40.409736403127 1.20046325114267  C 40.409736403127 1.20046325114267  42.9180221060539 2.95010350741382  42.9180221060539 2.95010350741382  C 42.9180221060539 2.95010350741382  46.3404951870015 1.79086876362874  46.3404951870015 1.79086876362874  Z " fill-rule="nonzero" fill="#f2f2f2" stroke="none" transform="matrix(1 0 0 1 2115 4118 )" />
    <path d="M 46.3404951870015 1.79086876362874  C 46.3404951870015 1.79086876362874  50.9649082189965 9.92316529109559  50.9649082189965 9.92316529109559  C 50.9649082189965 9.92316529109559  55.647890358775 11.9513357226925  55.647890358775 11.9513357226925  C 55.647890358775 11.9513357226925  56.1877447435673 15.8742959385472  56.1877447435673 15.8742959385472  C 56.1877447435673 15.8742959385472  52.5946573051618 18.1790350653618  52.5946573051618 18.1790350653618  C 52.5946573051618 18.1790350653618  50.9394433895252 23.3534195900741  50.9394433895252 23.3534195900741  C 50.9394433895252 23.3534195900741  55.8847132728589 31.017887813391  55.8847132728589 31.017887813391  C 55.8847132728589 31.017887813391  64.6318821962632 34.5858201297108  64.6318821962632 34.5858201297108  C 64.6318821962632 34.5858201297108  68.3064570889771 39.495404839853  68.3064570889771 39.495404839853  C 68.3064570889771 39.495404839853  67.1376214162428 44.1362667752089  67.1376214162428 44.1362667752089  C 67.1376214162428 44.1362667752089  69.4167236539274 44.1343052951011  69.4167236539274 44.1343052951011  C 69.4167236539274 44.1343052951011  69.4880251764472 47.5257044017076  69.4880251764472 47.5257044017076  C 69.4880251764472 47.5257044017076  73.4376202274516 50.8543361448601  73.4376202274516 50.8543361448601  C 73.4376202274516 50.8543361448601  69.2028190863682 50.5444222878077  69.2028190863682 50.5444222878077  C 69.2028190863682 50.5444222878077  64.4026987310208 50.0167841387752  64.4026987310208 50.0167841387752  C 64.4026987310208 50.0167841387752  59.1645833087671 56.0581428711917  59.1645833087671 56.0581428711917  C 59.1645833087671 56.0581428711917  45.8897677053585 55.55796544367  45.8897677053585 55.55796544367  C 45.8897677053585 55.55796544367  23.9072735253189 42.8259980631136  23.9072735253189 42.8259980631136  C 23.9072735253189 42.8259980631136  13.2680677721941 38.3302856557441  13.2680677721941 38.3302856557441  C 13.2680677721941 38.3302856557441  4.66859485972346 36.580645399473  4.66859485972346 36.580645399473  C 4.66859485972346 36.580645399473  1.7910691294622 27.2293042833386  1.7910691294622 27.2293042833386  C 1.7910691294622 27.2293042833386  17.5970887823217 20.3660853857007  17.5970887823217 20.3660853857007  C 17.5970887823217 20.3660853857007  20.2963607062835 12.2828258609321  20.2963607062835 12.2828258609321  C 20.2963607062835 12.2828258609321  19.6215427252929 7.33793450884723  19.6215427252929 7.33793450884723  C 19.6215427252929 7.33793450884723  23.5303940491432 5.65694605635357  23.5303940491432 5.65694605635357  C 23.5303940491432 5.65694605635357  27.1896900441746 1.38091942107192  27.1896900441746 1.38091942107192  C 27.1896900441746 1.38091942107192  30.2556555125233 0.311912762251551  30.2556555125233 0.311912762251551  C 30.2556555125233 0.311912762251551  40.409736403127 1.20046325114267  40.409736403127 1.20046325114267  C 40.409736403127 1.20046325114267  42.9180221060539 2.95010350741382  42.9180221060539 2.95010350741382  C 42.9180221060539 2.95010350741382  46.3404951870015 1.79086876362874  46.3404951870015 1.79086876362874  Z " stroke-width="2" stroke="#505050" fill="none" stroke-opacity="0.211764705882353" transform="matrix(1 0 0 1 2115 4118 )" mask="url(#clip135)" />
  </g>
</svg>