<?xml version="1.0" encoding="utf-8"?>
<svg version="1.1" xmlns:xlink="http://www.w3.org/1999/xlink" width="140px" height="99px" xmlns="http://www.w3.org/2000/svg">
  <defs>
    <mask fill="white" id="clip136">
      <path d="M 71.8226071435722 20.4385653356821  C 71.8226071435722 20.4385653356821  72.5021522372883 18.8230597969058  72.5021522372883 18.8230597969058  C 72.5021522372883 18.8230597969058  78.7499101138402 17.4820717029828  78.7499101138402 17.4820717029828  C 78.7499101138402 17.4820717029828  83.8059284603686 13.4986063341422  83.8059284603686 13.4986063341422  C 83.8059284603686 13.4986063341422  88.5602085003586 13.7020257357241  88.5602085003586 13.7020257357241  C 88.5602085003586 13.7020257357241  91.6815518226134 12.3965866634366  91.6815518226134 12.3965866634366  C 91.6815518226134 12.3965866634366  96.7375701691418 13.0423938898178  96.7375701691418 13.0423938898178  C 96.7375701691418 13.0423938898178  104.60051545128 16.5795215425662  104.60051545128 16.5795215425662  C 104.60051545128 16.5795215425662  110.277759723034 17.3379006707937  110.277759723034 17.3379006707937  C 110.277759723034 17.3379006707937  118.401873455368 23.4503574464813  118.401873455368 23.4503574464813  C 118.401873455368 23.4503574464813  123.701310939944 23.6972256522845  123.701310939944 23.6972256522845  C 123.701310939944 23.6972256522845  124.325072481191 29.4364177007976  124.325072481191 29.4364177007976  C 124.325072481191 29.4364177007976  121.426863368813 37.8240118611676  121.426863368813 37.8240118611676  C 121.426863368813 37.8240118611676  119.47443903239 42.664603640557  119.47443903239 42.664603640557  C 119.47443903239 42.664603640557  122.570426194432 43.6422017355377  122.570426194432 43.6422017355377  C 122.570426194432 43.6422017355377  119.527686968838 47.2504274315574  119.527686968838 47.2504274315574  C 119.527686968838 47.2504274315574  121.855382476417 53.9069663294027  121.855382476417 53.9069663294027  C 121.855382476417 53.9069663294027  122.413218001109 58.0247280022002  122.413218001109 58.0247280022002  C 122.413218001109 58.0247280022002  127.79886643041 59.1148979990272  127.79886643041 59.1148979990272  C 127.79886643041 59.1148979990272  128.382058115316 63.2543840739355  128.382058115316 63.2543840739355  C 128.382058115316 63.2543840739355  121.933986573078 69.040974817963  121.933986573078 69.040974817963  C 121.933986573078 69.040974817963  125.450885994661 72.3707331778367  125.450885994661 72.3707331778367  C 125.450885994661 72.3707331778367  128.31359648274 76.1744784928525  128.31359648274 76.1744784928525  C 128.31359648274 76.1744784928525  135.111583035921 78.9315026152629  135.111583035921 78.9315026152629  C 135.111583035921 78.9315026152629  135.306825469563 84.4159266753868  135.306825469563 84.4159266753868  C 135.306825469563 84.4159266753868  138.709622170185 85.4191990637712  138.709622170185 85.4191990637712  C 138.709622170185 85.4191990637712  139.295349471112 88.2670706859171  139.295349471112 88.2670706859171  C 139.295349471112 88.2670706859171  129.041318280861 91.444758231016  129.041318280861 91.444758231016  C 129.041318280861 91.444758231016  126.363707762338 98.5446878299164  126.363707762338 98.5446878299164  C 126.363707762338 98.5446878299164  112.988333249833 96.7060134330942  112.988333249833 96.7060134330942  C 112.988333249833 96.7060134330942  105.236955072633 95.3038020241318  105.236955072633 95.3038020241318  C 105.236955072633 95.3038020241318  97.2142659811512 94.5098738742689  97.2142659811512 94.5098738742689  C 97.2142659811512 94.5098738742689  94.1791336036217 86.9734812875084  94.1791336036217 86.9734812875084  C 94.1791336036217 86.9734812875084  90.7763369029994 85.8754115080955  90.7763369029994 85.8754115080955  C 90.7763369029994 85.8754115080955  85.3146199930589 86.981381070094  85.3146199930589 86.981381070094  C 85.3146199930589 86.981381070094  78.143897884743 89.965523941843  78.143897884743 89.965523941843  C 78.143897884743 89.965523941843  67.6122365164937 87.9214551977925  67.6122365164937 87.9214551977925  C 67.6122365164937 87.9214551977925  60.436443176135 83.1618361899066  60.436443176135 83.1618361899066  C 60.436443176135 83.1618361899066  53.5928155345708 81.3903099450627  53.5928155345708 81.3903099450627  C 53.5928155345708 81.3903099450627  48.8436067266232 75.4516483862608  48.8436067266232 75.4516483862608  C 48.8436067266232 75.4516483862608  43.5974171784957 67.0127056390836  43.5974171784957 67.0127056390836  C 43.5974171784957 67.0127056390836  39.7711726023117 68.0456022121642  39.7711726023117 68.0456022121642  C 39.7711726023117 68.0456022121642  35.2527048523047 65.934385316135  35.2527048523047 65.934385316135  C 35.2527048523047 65.934385316135  32.5979148779742 68.420841884985  32.5979148779742 68.420841884985  C 32.5979148779742 68.420841884985  28.6651744288944 65.0693591230008  28.6651744288944 65.0693591230008  C 28.6651744288944 65.0693591230008  28.5941771802975 61.6546781003306  28.5941771802975 61.6546781003306  C 28.5941771802975 61.6546781003306  26.3248008412086 61.656653045977  26.3248008412086 61.656653045977  C 26.3248008412086 61.656653045977  27.4886485949981 56.9839316465339  27.4886485949981 56.9839316465339  C 27.4886485949981 56.9839316465339  23.8297546762219 52.0406426935303  23.8297546762219 52.0406426935303  C 23.8297546762219 52.0406426935303  15.11991364296 47.0134339539863  15.11991364296 47.0134339539863  C 15.11991364296 47.0134339539863  10.195747329541 40.7311318527062  10.195747329541 40.7311318527062  C 10.195747329541 40.7311318527062  11.8438977434043 35.5212252374352  11.8438977434043 35.5212252374352  C 11.8438977434043 35.5212252374352  15.421651949498 33.200664102885  15.421651949498 33.200664102885  C 15.421651949498 33.200664102885  14.8841013529766 29.2507728100336  14.8841013529766 29.2507728100336  C 14.8841013529766 29.2507728100336  10.2211034897542 27.2086790116294  10.2211034897542 27.2086790116294  C 10.2211034897542 27.2086790116294  5.61642479502241 19.0185794159019  5.61642479502241 19.0185794159019  C 5.61642479502241 19.0185794159019  1.72678981830508 13.4472577473351  1.72678981830508 13.4472577473351  C 1.72678981830508 13.4472577473351  3.11884301401446 11.2748175362667  3.11884301401446 11.2748175362667  C 3.11884301401446 11.2748175362667  0.900178995352031 3.1538410381643  0.900178995352031 3.1538410381643  C 0.900178995352031 3.1538410381643  5.76856175630221 1.11569713105292  5.76856175630221 1.11569713105292  C 5.76856175630221 1.11569713105292  6.89437526977162 3.811497938424  6.89437526977162 3.811497938424  C 6.89437526977162 3.811497938424  10.4873431719938 7.09188265713712  10.4873431719938 7.09188265713712  C 10.4873431719938 7.09188265713712  15.3633327810076 8.03393173048222  15.3633327810076 8.03393173048222  C 15.3633327810076 8.03393173048222  17.9369830426556 7.82458749196112  17.9369830426556 7.82458749196112  C 17.9369830426556 7.82458749196112  26.3222652251874 2.57913185505444  26.3222652251874 2.57913185505444  C 26.3222652251874 2.57913185505444  28.9871976636032 2.05182136745881  28.9871976636032 2.05182136745881  C 28.9871976636032 2.05182136745881  31.0892233452843 4.14723869831643  31.0892233452843 4.14723869831643  C 31.0892233452843 4.14723869831643  28.63728265266 7.66066700330776  28.63728265266 7.66066700330776  C 28.63728265266 7.66066700330776  33.0720750739628 11.3518404164774  33.0720750739628 11.3518404164774  C 33.0720750739628 11.3518404164774  34.8393994408282 11.0003000914135  34.8393994408282 11.0003000914135  C 34.8393994408282 11.0003000914135  37.0884908517463 16.1588581198775  37.0884908517463 16.1588581198775  C 37.0884908517463 16.1588581198775  43.8306938524576 17.6064932787076  43.8306938524576 17.6064932787076  C 43.8306938524576 17.6064932787076  48.7700738620047 21.0744978338311  48.7700738620047 21.0744978338311  C 48.7700738620047 21.0744978338311  58.8770393230183 22.2634151129794  58.8770393230183 22.2634151129794  C 58.8770393230183 22.2634151129794  71.8226071435722 20.4385653356821  71.8226071435722 20.4385653356821  Z " fill-rule="evenodd" />
    </mask>
  </defs>
  <g transform="matrix(1 0 0 1 -2154 -4102 )">
    <path d="M 71.8226071435722 20.4385653356821  C 71.8226071435722 20.4385653356821  72.5021522372883 18.8230597969058  72.5021522372883 18.8230597969058  C 72.5021522372883 18.8230597969058  78.7499101138402 17.4820717029828  78.7499101138402 17.4820717029828  C 78.7499101138402 17.4820717029828  83.8059284603686 13.4986063341422  83.8059284603686 13.4986063341422  C 83.8059284603686 13.4986063341422  88.5602085003586 13.7020257357241  88.5602085003586 13.7020257357241  C 88.5602085003586 13.7020257357241  91.6815518226134 12.3965866634366  91.6815518226134 12.3965866634366  C 91.6815518226134 12.3965866634366  96.7375701691418 13.0423938898178  96.7375701691418 13.0423938898178  C 96.7375701691418 13.0423938898178  104.60051545128 16.5795215425662  104.60051545128 16.5795215425662  C 104.60051545128 16.5795215425662  110.277759723034 17.3379006707937  110.277759723034 17.3379006707937  C 110.277759723034 17.3379006707937  118.401873455368 23.4503574464813  118.401873455368 23.4503574464813  C 118.401873455368 23.4503574464813  123.701310939944 23.6972256522845  123.701310939944 23.6972256522845  C 123.701310939944 23.6972256522845  124.325072481191 29.4364177007976  124.325072481191 29.4364177007976  C 124.325072481191 29.4364177007976  121.426863368813 37.8240118611676  121.426863368813 37.8240118611676  C 121.426863368813 37.8240118611676  119.47443903239 42.664603640557  119.47443903239 42.664603640557  C 119.47443903239 42.664603640557  122.570426194432 43.6422017355377  122.570426194432 43.6422017355377  C 122.570426194432 43.6422017355377  119.527686968838 47.2504274315574  119.527686968838 47.2504274315574  C 119.527686968838 47.2504274315574  121.855382476417 53.9069663294027  121.855382476417 53.9069663294027  C 121.855382476417 53.9069663294027  122.413218001109 58.0247280022002  122.413218001109 58.0247280022002  C 122.413218001109 58.0247280022002  127.79886643041 59.1148979990272  127.79886643041 59.1148979990272  C 127.79886643041 59.1148979990272  128.382058115316 63.2543840739355  128.382058115316 63.2543840739355  C 128.382058115316 63.2543840739355  121.933986573078 69.040974817963  121.933986573078 69.040974817963  C 121.933986573078 69.040974817963  125.450885994661 72.3707331778367  125.450885994661 72.3707331778367  C 125.450885994661 72.3707331778367  128.31359648274 76.1744784928525  128.31359648274 76.1744784928525  C 128.31359648274 76.1744784928525  135.111583035921 78.9315026152629  135.111583035921 78.9315026152629  C 135.111583035921 78.9315026152629  135.306825469563 84.4159266753868  135.306825469563 84.4159266753868  C 135.306825469563 84.4159266753868  138.709622170185 85.4191990637712  138.709622170185 85.4191990637712  C 138.709622170185 85.4191990637712  139.295349471112 88.2670706859171  139.295349471112 88.2670706859171  C 139.295349471112 88.2670706859171  129.041318280861 91.444758231016  129.041318280861 91.444758231016  C 129.041318280861 91.444758231016  126.363707762338 98.5446878299164  126.363707762338 98.5446878299164  C 126.363707762338 98.5446878299164  112.988333249833 96.7060134330942  112.988333249833 96.7060134330942  C 112.988333249833 96.7060134330942  105.236955072633 95.3038020241318  105.236955072633 95.3038020241318  C 105.236955072633 95.3038020241318  97.2142659811512 94.5098738742689  97.2142659811512 94.5098738742689  C 97.2142659811512 94.5098738742689  94.1791336036217 86.9734812875084  94.1791336036217 86.9734812875084  C 94.1791336036217 86.9734812875084  90.7763369029994 85.8754115080955  90.7763369029994 85.8754115080955  C 90.7763369029994 85.8754115080955  85.3146199930589 86.981381070094  85.3146199930589 86.981381070094  C 85.3146199930589 86.981381070094  78.143897884743 89.965523941843  78.143897884743 89.965523941843  C 78.143897884743 89.965523941843  67.6122365164937 87.9214551977925  67.6122365164937 87.9214551977925  C 67.6122365164937 87.9214551977925  60.436443176135 83.1618361899066  60.436443176135 83.1618361899066  C 60.436443176135 83.1618361899066  53.5928155345708 81.3903099450627  53.5928155345708 81.3903099450627  C 53.5928155345708 81.3903099450627  48.8436067266232 75.4516483862608  48.8436067266232 75.4516483862608  C 48.8436067266232 75.4516483862608  43.5974171784957 67.0127056390836  43.5974171784957 67.0127056390836  C 43.5974171784957 67.0127056390836  39.7711726023117 68.0456022121642  39.7711726023117 68.0456022121642  C 39.7711726023117 68.0456022121642  35.2527048523047 65.934385316135  35.2527048523047 65.934385316135  C 35.2527048523047 65.934385316135  32.5979148779742 68.420841884985  32.5979148779742 68.420841884985  C 32.5979148779742 68.420841884985  28.6651744288944 65.0693591230008  28.6651744288944 65.0693591230008  C 28.6651744288944 65.0693591230008  28.5941771802975 61.6546781003306  28.5941771802975 61.6546781003306  C 28.5941771802975 61.6546781003306  26.3248008412086 61.656653045977  26.3248008412086 61.656653045977  C 26.3248008412086 61.656653045977  27.4886485949981 56.9839316465339  27.4886485949981 56.9839316465339  C 27.4886485949981 56.9839316465339  23.8297546762219 52.0406426935303  23.8297546762219 52.0406426935303  C 23.8297546762219 52.0406426935303  15.11991364296 47.0134339539863  15.11991364296 47.0134339539863  C 15.11991364296 47.0134339539863  10.195747329541 40.7311318527062  10.195747329541 40.7311318527062  C 10.195747329541 40.7311318527062  11.8438977434043 35.5212252374352  11.8438977434043 35.5212252374352  C 11.8438977434043 35.5212252374352  15.421651949498 33.200664102885  15.421651949498 33.200664102885  C 15.421651949498 33.200664102885  14.8841013529766 29.2507728100336  14.8841013529766 29.2507728100336  C 14.8841013529766 29.2507728100336  10.2211034897542 27.2086790116294  10.2211034897542 27.2086790116294  C 10.2211034897542 27.2086790116294  5.61642479502241 19.0185794159019  5.61642479502241 19.0185794159019  C 5.61642479502241 19.0185794159019  1.72678981830508 13.4472577473351  1.72678981830508 13.4472577473351  C 1.72678981830508 13.4472577473351  3.11884301401446 11.2748175362667  3.11884301401446 11.2748175362667  C 3.11884301401446 11.2748175362667  0.900178995352031 3.1538410381643  0.900178995352031 3.1538410381643  C 0.900178995352031 3.1538410381643  5.76856175630221 1.11569713105292  5.76856175630221 1.11569713105292  C 5.76856175630221 1.11569713105292  6.89437526977162 3.811497938424  6.89437526977162 3.811497938424  C 6.89437526977162 3.811497938424  10.4873431719938 7.09188265713712  10.4873431719938 7.09188265713712  C 10.4873431719938 7.09188265713712  15.3633327810076 8.03393173048222  15.3633327810076 8.03393173048222  C 15.3633327810076 8.03393173048222  17.9369830426556 7.82458749196112  17.9369830426556 7.82458749196112  C 17.9369830426556 7.82458749196112  26.3222652251874 2.57913185505444  26.3222652251874 2.57913185505444  C 26.3222652251874 2.57913185505444  28.9871976636032 2.05182136745881  28.9871976636032 2.05182136745881  C 28.9871976636032 2.05182136745881  31.0892233452843 4.14723869831643  31.0892233452843 4.14723869831643  C 31.0892233452843 4.14723869831643  28.63728265266 7.66066700330776  28.63728265266 7.66066700330776  C 28.63728265266 7.66066700330776  33.0720750739628 11.3518404164774  33.0720750739628 11.3518404164774  C 33.0720750739628 11.3518404164774  34.8393994408282 11.0003000914135  34.8393994408282 11.0003000914135  C 34.8393994408282 11.0003000914135  37.0884908517463 16.1588581198775  37.0884908517463 16.1588581198775  C 37.0884908517463 16.1588581198775  43.8306938524576 17.6064932787076  43.8306938524576 17.6064932787076  C 43.8306938524576 17.6064932787076  48.7700738620047 21.0744978338311  48.7700738620047 21.0744978338311  C 48.7700738620047 21.0744978338311  58.8770393230183 22.2634151129794  58.8770393230183 22.2634151129794  C 58.8770393230183 22.2634151129794  71.8226071435722 20.4385653356821  71.8226071435722 20.4385653356821  Z " fill-rule="nonzero" fill="#f2f2f2" stroke="none" transform="matrix(1 0 0 1 2154 4102 )" />
    <path d="M 71.8226071435722 20.4385653356821  C 71.8226071435722 20.4385653356821  72.5021522372883 18.8230597969058  72.5021522372883 18.8230597969058  C 72.5021522372883 18.8230597969058  78.7499101138402 17.4820717029828  78.7499101138402 17.4820717029828  C 78.7499101138402 17.4820717029828  83.8059284603686 13.4986063341422  83.8059284603686 13.4986063341422  C 83.8059284603686 13.4986063341422  88.5602085003586 13.7020257357241  88.5602085003586 13.7020257357241  C 88.5602085003586 13.7020257357241  91.6815518226134 12.3965866634366  91.6815518226134 12.3965866634366  C 91.6815518226134 12.3965866634366  96.7375701691418 13.0423938898178  96.7375701691418 13.0423938898178  C 96.7375701691418 13.0423938898178  104.60051545128 16.5795215425662  104.60051545128 16.5795215425662  C 104.60051545128 16.5795215425662  110.277759723034 17.3379006707937  110.277759723034 17.3379006707937  C 110.277759723034 17.3379006707937  118.401873455368 23.4503574464813  118.401873455368 23.4503574464813  C 118.401873455368 23.4503574464813  123.701310939944 23.6972256522845  123.701310939944 23.6972256522845  C 123.701310939944 23.6972256522845  124.325072481191 29.4364177007976  124.325072481191 29.4364177007976  C 124.325072481191 29.4364177007976  121.426863368813 37.8240118611676  121.426863368813 37.8240118611676  C 121.426863368813 37.8240118611676  119.47443903239 42.664603640557  119.47443903239 42.664603640557  C 119.47443903239 42.664603640557  122.570426194432 43.6422017355377  122.570426194432 43.6422017355377  C 122.570426194432 43.6422017355377  119.527686968838 47.2504274315574  119.527686968838 47.2504274315574  C 119.527686968838 47.2504274315574  121.855382476417 53.9069663294027  121.855382476417 53.9069663294027  C 121.855382476417 53.9069663294027  122.413218001109 58.0247280022002  122.413218001109 58.0247280022002  C 122.413218001109 58.0247280022002  127.79886643041 59.1148979990272  127.79886643041 59.1148979990272  C 127.79886643041 59.1148979990272  128.382058115316 63.2543840739355  128.382058115316 63.2543840739355  C 128.382058115316 63.2543840739355  121.933986573078 69.040974817963  121.933986573078 69.040974817963  C 121.933986573078 69.040974817963  125.450885994661 72.3707331778367  125.450885994661 72.3707331778367  C 125.450885994661 72.3707331778367  128.31359648274 76.1744784928525  128.31359648274 76.1744784928525  C 128.31359648274 76.1744784928525  135.111583035921 78.9315026152629  135.111583035921 78.9315026152629  C 135.111583035921 78.9315026152629  135.306825469563 84.4159266753868  135.306825469563 84.4159266753868  C 135.306825469563 84.4159266753868  138.709622170185 85.4191990637712  138.709622170185 85.4191990637712  C 138.709622170185 85.4191990637712  139.295349471112 88.2670706859171  139.295349471112 88.2670706859171  C 139.295349471112 88.2670706859171  129.041318280861 91.444758231016  129.041318280861 91.444758231016  C 129.041318280861 91.444758231016  126.363707762338 98.5446878299164  126.363707762338 98.5446878299164  C 126.363707762338 98.5446878299164  112.988333249833 96.7060134330942  112.988333249833 96.7060134330942  C 112.988333249833 96.7060134330942  105.236955072633 95.3038020241318  105.236955072633 95.3038020241318  C 105.236955072633 95.3038020241318  97.2142659811512 94.5098738742689  97.2142659811512 94.5098738742689  C 97.2142659811512 94.5098738742689  94.1791336036217 86.9734812875084  94.1791336036217 86.9734812875084  C 94.1791336036217 86.9734812875084  90.7763369029994 85.8754115080955  90.7763369029994 85.8754115080955  C 90.7763369029994 85.8754115080955  85.3146199930589 86.981381070094  85.3146199930589 86.981381070094  C 85.3146199930589 86.981381070094  78.143897884743 89.965523941843  78.143897884743 89.965523941843  C 78.143897884743 89.965523941843  67.6122365164937 87.9214551977925  67.6122365164937 87.9214551977925  C 67.6122365164937 87.9214551977925  60.436443176135 83.1618361899066  60.436443176135 83.1618361899066  C 60.436443176135 83.1618361899066  53.5928155345708 81.3903099450627  53.5928155345708 81.3903099450627  C 53.5928155345708 81.3903099450627  48.8436067266232 75.4516483862608  48.8436067266232 75.4516483862608  C 48.8436067266232 75.4516483862608  43.5974171784957 67.0127056390836  43.5974171784957 67.0127056390836  C 43.5974171784957 67.0127056390836  39.7711726023117 68.0456022121642  39.7711726023117 68.0456022121642  C 39.7711726023117 68.0456022121642  35.2527048523047 65.934385316135  35.2527048523047 65.934385316135  C 35.2527048523047 65.934385316135  32.5979148779742 68.420841884985  32.5979148779742 68.420841884985  C 32.5979148779742 68.420841884985  28.6651744288944 65.0693591230008  28.6651744288944 65.0693591230008  C 28.6651744288944 65.0693591230008  28.5941771802975 61.6546781003306  28.5941771802975 61.6546781003306  C 28.5941771802975 61.6546781003306  26.3248008412086 61.656653045977  26.3248008412086 61.656653045977  C 26.3248008412086 61.656653045977  27.4886485949981 56.9839316465339  27.4886485949981 56.9839316465339  C 27.4886485949981 56.9839316465339  23.8297546762219 52.0406426935303  23.8297546762219 52.0406426935303  C 23.8297546762219 52.0406426935303  15.11991364296 47.0134339539863  15.11991364296 47.0134339539863  C 15.11991364296 47.0134339539863  10.195747329541 40.7311318527062  10.195747329541 40.7311318527062  C 10.195747329541 40.7311318527062  11.8438977434043 35.5212252374352  11.8438977434043 35.5212252374352  C 11.8438977434043 35.5212252374352  15.421651949498 33.200664102885  15.421651949498 33.200664102885  C 15.421651949498 33.200664102885  14.8841013529766 29.2507728100336  14.8841013529766 29.2507728100336  C 14.8841013529766 29.2507728100336  10.2211034897542 27.2086790116294  10.2211034897542 27.2086790116294  C 10.2211034897542 27.2086790116294  5.61642479502241 19.0185794159019  5.61642479502241 19.0185794159019  C 5.61642479502241 19.0185794159019  1.72678981830508 13.4472577473351  1.72678981830508 13.4472577473351  C 1.72678981830508 13.4472577473351  3.11884301401446 11.2748175362667  3.11884301401446 11.2748175362667  C 3.11884301401446 11.2748175362667  0.900178995352031 3.1538410381643  0.900178995352031 3.1538410381643  C 0.900178995352031 3.1538410381643  5.76856175630221 1.11569713105292  5.76856175630221 1.11569713105292  C 5.76856175630221 1.11569713105292  6.89437526977162 3.811497938424  6.89437526977162 3.811497938424  C 6.89437526977162 3.811497938424  10.4873431719938 7.09188265713712  10.4873431719938 7.09188265713712  C 10.4873431719938 7.09188265713712  15.3633327810076 8.03393173048222  15.3633327810076 8.03393173048222  C 15.3633327810076 8.03393173048222  17.9369830426556 7.82458749196112  17.9369830426556 7.82458749196112  C 17.9369830426556 7.82458749196112  26.3222652251874 2.57913185505444  26.3222652251874 2.57913185505444  C 26.3222652251874 2.57913185505444  28.9871976636032 2.05182136745881  28.9871976636032 2.05182136745881  C 28.9871976636032 2.05182136745881  31.0892233452843 4.14723869831643  31.0892233452843 4.14723869831643  C 31.0892233452843 4.14723869831643  28.63728265266 7.66066700330776  28.63728265266 7.66066700330776  C 28.63728265266 7.66066700330776  33.0720750739628 11.3518404164774  33.0720750739628 11.3518404164774  C 33.0720750739628 11.3518404164774  34.8393994408282 11.0003000914135  34.8393994408282 11.0003000914135  C 34.8393994408282 11.0003000914135  37.0884908517463 16.1588581198775  37.0884908517463 16.1588581198775  C 37.0884908517463 16.1588581198775  43.8306938524576 17.6064932787076  43.8306938524576 17.6064932787076  C 43.8306938524576 17.6064932787076  48.7700738620047 21.0744978338311  48.7700738620047 21.0744978338311  C 48.7700738620047 21.0744978338311  58.8770393230183 22.2634151129794  58.8770393230183 22.2634151129794  C 58.8770393230183 22.2634151129794  71.8226071435722 20.4385653356821  71.8226071435722 20.4385653356821  Z " stroke-width="2" stroke="#505050" fill="none" stroke-opacity="0.211764705882353" transform="matrix(1 0 0 1 2154 4102 )" mask="url(#clip136)" />
  </g>
</svg>