<?xml version="1.0" encoding="utf-8"?>
<svg version="1.1" xmlns:xlink="http://www.w3.org/1999/xlink" width="78px" height="44px" xmlns="http://www.w3.org/2000/svg">
  <defs>
    <mask fill="white" id="clip137">
      <path d="M 59.593810988558 1.4223116682006  C 59.593810988558 1.4223116682006  71.2092304262094 2.42567183194697  71.2092304262094 2.42567183194697  C 71.2092304262094 2.42567183194697  69.5912614245762 11.470045138956  69.5912614245762 11.470045138956  C 69.5912614245762 11.470045138956  77.5013320992279 20.7586972785875  77.5013320992279 20.7586972785875  C 77.5013320992279 20.7586972785875  68.4002564650405 32.3316435825058  68.4002564650405 32.3316435825058  C 68.4002564650405 32.3316435825058  48.2056063335435 41.1761523900967  48.2056063335435 41.1761523900967  C 48.2056063335435 41.1761523900967  42.170681832081 43.4937730500177  42.170681832081 43.4937730500177  C 42.170681832081 43.4937730500177  31.1407968853316 41.6243333887922  31.1407968853316 41.6243333887922  C 31.1407968853316 41.6243333887922  11.607816175799 37.5705160672578  11.607816175799 37.5705160672578  C 11.607816175799 37.5705160672578  18.4991656272 31.8350105839513  18.4991656272 31.8350105839513  C 18.4991656272 31.8350105839513  3.26079399607656 25.3767627694151  3.26079399607656 25.3767627694151  C 3.26079399607656 25.3767627694151  15.6577324113686 21.3199329436207  15.6577324113686 21.3199329436207  C 15.6577324113686 21.3199329436207  15.3581085221772 17.3569631218218  15.3581085221772 17.3569631218218  C 15.3581085221772 17.3569631218218  0.664053623084904 14.1853759643862  0.664053623084904 14.1853759643862  C 0.664053623084904 14.1853759643862  5.39311734082165 5.15311565734192  5.39311734082165 5.15311565734192  C 5.39311734082165 5.15311565734192  16.004796749682 3.06967966340585  16.004796749682 3.06967966340585  C 16.004796749682 3.06967966340585  26.9161000477336 12.5258949692163  26.9161000477336 12.5258949692163  C 26.9161000477336 12.5258949692163  37.5527481140265 4.95526999125104  37.5527481140265 4.95526999125104  C 37.5527481140265 4.95526999125104  48.1756439446244 8.90612681308521  48.1756439446244 8.90612681308521  C 48.1756439446244 8.90612681308521  59.593810988558 1.4223116682006  59.593810988558 1.4223116682006  Z " fill-rule="evenodd" />
    </mask>
  </defs>
  <g transform="matrix(1 0 0 1 -1667 -3842 )">
    <path d="M 59.593810988558 1.4223116682006  C 59.593810988558 1.4223116682006  71.2092304262094 2.42567183194697  71.2092304262094 2.42567183194697  C 71.2092304262094 2.42567183194697  69.5912614245762 11.470045138956  69.5912614245762 11.470045138956  C 69.5912614245762 11.470045138956  77.5013320992279 20.7586972785875  77.5013320992279 20.7586972785875  C 77.5013320992279 20.7586972785875  68.4002564650405 32.3316435825058  68.4002564650405 32.3316435825058  C 68.4002564650405 32.3316435825058  48.2056063335435 41.1761523900967  48.2056063335435 41.1761523900967  C 48.2056063335435 41.1761523900967  42.170681832081 43.4937730500177  42.170681832081 43.4937730500177  C 42.170681832081 43.4937730500177  31.1407968853316 41.6243333887922  31.1407968853316 41.6243333887922  C 31.1407968853316 41.6243333887922  11.607816175799 37.5705160672578  11.607816175799 37.5705160672578  C 11.607816175799 37.5705160672578  18.4991656272 31.8350105839513  18.4991656272 31.8350105839513  C 18.4991656272 31.8350105839513  3.26079399607656 25.3767627694151  3.26079399607656 25.3767627694151  C 3.26079399607656 25.3767627694151  15.6577324113686 21.3199329436207  15.6577324113686 21.3199329436207  C 15.6577324113686 21.3199329436207  15.3581085221772 17.3569631218218  15.3581085221772 17.3569631218218  C 15.3581085221772 17.3569631218218  0.664053623084904 14.1853759643862  0.664053623084904 14.1853759643862  C 0.664053623084904 14.1853759643862  5.39311734082165 5.15311565734192  5.39311734082165 5.15311565734192  C 5.39311734082165 5.15311565734192  16.004796749682 3.06967966340585  16.004796749682 3.06967966340585  C 16.004796749682 3.06967966340585  26.9161000477336 12.5258949692163  26.9161000477336 12.5258949692163  C 26.9161000477336 12.5258949692163  37.5527481140265 4.95526999125104  37.5527481140265 4.95526999125104  C 37.5527481140265 4.95526999125104  48.1756439446244 8.90612681308521  48.1756439446244 8.90612681308521  C 48.1756439446244 8.90612681308521  59.593810988558 1.4223116682006  59.593810988558 1.4223116682006  Z " fill-rule="nonzero" fill="#f2f2f2" stroke="none" transform="matrix(1 0 0 1 1667 3842 )" />
    <path d="M 59.593810988558 1.4223116682006  C 59.593810988558 1.4223116682006  71.2092304262094 2.42567183194697  71.2092304262094 2.42567183194697  C 71.2092304262094 2.42567183194697  69.5912614245762 11.470045138956  69.5912614245762 11.470045138956  C 69.5912614245762 11.470045138956  77.5013320992279 20.7586972785875  77.5013320992279 20.7586972785875  C 77.5013320992279 20.7586972785875  68.4002564650405 32.3316435825058  68.4002564650405 32.3316435825058  C 68.4002564650405 32.3316435825058  48.2056063335435 41.1761523900967  48.2056063335435 41.1761523900967  C 48.2056063335435 41.1761523900967  42.170681832081 43.4937730500177  42.170681832081 43.4937730500177  C 42.170681832081 43.4937730500177  31.1407968853316 41.6243333887922  31.1407968853316 41.6243333887922  C 31.1407968853316 41.6243333887922  11.607816175799 37.5705160672578  11.607816175799 37.5705160672578  C 11.607816175799 37.5705160672578  18.4991656272 31.8350105839513  18.4991656272 31.8350105839513  C 18.4991656272 31.8350105839513  3.26079399607656 25.3767627694151  3.26079399607656 25.3767627694151  C 3.26079399607656 25.3767627694151  15.6577324113686 21.3199329436207  15.6577324113686 21.3199329436207  C 15.6577324113686 21.3199329436207  15.3581085221772 17.3569631218218  15.3581085221772 17.3569631218218  C 15.3581085221772 17.3569631218218  0.664053623084904 14.1853759643862  0.664053623084904 14.1853759643862  C 0.664053623084904 14.1853759643862  5.39311734082165 5.15311565734192  5.39311734082165 5.15311565734192  C 5.39311734082165 5.15311565734192  16.004796749682 3.06967966340585  16.004796749682 3.06967966340585  C 16.004796749682 3.06967966340585  26.9161000477336 12.5258949692163  26.9161000477336 12.5258949692163  C 26.9161000477336 12.5258949692163  37.5527481140265 4.95526999125104  37.5527481140265 4.95526999125104  C 37.5527481140265 4.95526999125104  48.1756439446244 8.90612681308521  48.1756439446244 8.90612681308521  C 48.1756439446244 8.90612681308521  59.593810988558 1.4223116682006  59.593810988558 1.4223116682006  Z " stroke-width="2" stroke="#505050" fill="none" stroke-opacity="0.211764705882353" transform="matrix(1 0 0 1 1667 3842 )" mask="url(#clip137)" />
  </g>
</svg>