<?xml version="1.0" encoding="utf-8"?>
<svg version="1.1" xmlns:xlink="http://www.w3.org/1999/xlink" width="20px" height="8px" xmlns="http://www.w3.org/2000/svg">
  <defs>
    <mask fill="white" id="clip138">
      <path d="M 5.45041151001359 1.0491668175658  C 5.45041151001359 1.0491668175658  7.04712514173004 1.23269712006216  7.04712514173004 1.23269712006216  C 7.04712514173004 1.23269712006216  13.5878753345963 1.71538181562695  13.5878753345963 1.71538181562695  C 13.5878753345963 1.71538181562695  17.3168773898585 3.00927044822462  17.3168773898585 3.00927044822462  C 17.3168773898585 3.00927044822462  18.4806263534134 5.81635211060166  18.4806263534134 5.81635211060166  C 18.4806263534134 5.81635211060166  13.545329673563 5.91545847394961  13.545329673563 5.91545847394961  C 13.545329673563 5.91545847394961  11.4155439359603 6.81292165315578  11.4155439359603 6.81292165315578  C 11.4155439359603 6.81292165315578  5.66814518706596 5.95032923142389  5.66814518706596 5.95032923142389  C 5.66814518706596 5.95032923142389  1.65633962023011 2.65689226743204  1.65633962023011 2.65689226743204  C 1.65633962023011 2.65689226743204  2.49974478306471 1.42540393768286  2.49974478306471 1.42540393768286  C 2.49974478306471 1.42540393768286  5.45041151001359 1.0491668175658  5.45041151001359 1.0491668175658  Z " fill-rule="evenodd" />
    </mask>
  </defs>
  <g transform="matrix(1 0 0 1 -1280 -4237 )">
    <path d="M 5.45041151001359 1.0491668175658  C 5.45041151001359 1.0491668175658  7.04712514173004 1.23269712006216  7.04712514173004 1.23269712006216  C 7.04712514173004 1.23269712006216  13.5878753345963 1.71538181562695  13.5878753345963 1.71538181562695  C 13.5878753345963 1.71538181562695  17.3168773898585 3.00927044822462  17.3168773898585 3.00927044822462  C 17.3168773898585 3.00927044822462  18.4806263534134 5.81635211060166  18.4806263534134 5.81635211060166  C 18.4806263534134 5.81635211060166  13.545329673563 5.91545847394961  13.545329673563 5.91545847394961  C 13.545329673563 5.91545847394961  11.4155439359603 6.81292165315578  11.4155439359603 6.81292165315578  C 11.4155439359603 6.81292165315578  5.66814518706596 5.95032923142389  5.66814518706596 5.95032923142389  C 5.66814518706596 5.95032923142389  1.65633962023011 2.65689226743204  1.65633962023011 2.65689226743204  C 1.65633962023011 2.65689226743204  2.49974478306471 1.42540393768286  2.49974478306471 1.42540393768286  C 2.49974478306471 1.42540393768286  5.45041151001359 1.0491668175658  5.45041151001359 1.0491668175658  Z " fill-rule="nonzero" fill="#f2f2f2" stroke="none" transform="matrix(1 0 0 1 1280 4237 )" />
    <path d="M 5.45041151001359 1.0491668175658  C 5.45041151001359 1.0491668175658  7.04712514173004 1.23269712006216  7.04712514173004 1.23269712006216  C 7.04712514173004 1.23269712006216  13.5878753345963 1.71538181562695  13.5878753345963 1.71538181562695  C 13.5878753345963 1.71538181562695  17.3168773898585 3.00927044822462  17.3168773898585 3.00927044822462  C 17.3168773898585 3.00927044822462  18.4806263534134 5.81635211060166  18.4806263534134 5.81635211060166  C 18.4806263534134 5.81635211060166  13.545329673563 5.91545847394961  13.545329673563 5.91545847394961  C 13.545329673563 5.91545847394961  11.4155439359603 6.81292165315578  11.4155439359603 6.81292165315578  C 11.4155439359603 6.81292165315578  5.66814518706596 5.95032923142389  5.66814518706596 5.95032923142389  C 5.66814518706596 5.95032923142389  1.65633962023011 2.65689226743204  1.65633962023011 2.65689226743204  C 1.65633962023011 2.65689226743204  2.49974478306471 1.42540393768286  2.49974478306471 1.42540393768286  C 2.49974478306471 1.42540393768286  5.45041151001359 1.0491668175658  5.45041151001359 1.0491668175658  Z " stroke-width="2" stroke="#505050" fill="none" stroke-opacity="0.211764705882353" transform="matrix(1 0 0 1 1280 4237 )" mask="url(#clip138)" />
  </g>
</svg>