<?xml version="1.0" encoding="utf-8"?>
<svg version="1.1" xmlns:xlink="http://www.w3.org/1999/xlink" width="33px" height="29px" xmlns="http://www.w3.org/2000/svg">
  <defs>
    <mask fill="white" id="clip139">
      <path d="M 4.46727677174094 10.7072966975942  C 4.46727677174094 10.7072966975942  4.46980031340013 6.68757012974836  4.46980031340013 6.68757012974836  C 4.46980031340013 6.68757012974836  5.701288643149 4.60585473239825  5.701288643149 4.60585473239825  C 5.701288643149 4.60585473239825  13.5848327868701 7.22246919637336  13.5848327868701 7.22246919637336  C 13.5848327868701 7.22246919637336  29.2749333715395 0.157011376028709  29.2749333715395 0.157011376028709  C 29.2749333715395 0.157011376028709  32.1265354465728 8.22241110823565  32.1265354465728 8.22241110823565  C 32.1265354465728 8.22241110823565  30.7789642004953 9.21436945193944  30.7789642004953 9.21436945193944  C 30.7789642004953 9.21436945193944  14.7734209084106 12.4996077491956  14.7734209084106 12.4996077491956  C 14.7734209084106 12.4996077491956  23.6600531795489 20.4482322302809  23.6600531795489 20.4482322302809  C 23.6600531795489 20.4482322302809  21.3207300613573 21.5439769600464  21.3207300613573 21.5439769600464  C 21.3207300613573 21.5439769600464  20.1548538147508 23.7015362549029  20.1548538147508 23.7015362549029  C 20.1548538147508 23.7015362549029  12.9236648721281 24.5897082125451  12.9236648721281 24.5897082125451  C 12.9236648721281 24.5897082125451  11.230368418723 26.8989553024148  11.230368418723 26.8989553024148  C 11.230368418723 26.8989553024148  8.17183592762516 28.8629130694258  8.17183592762516 28.8629130694258  C 8.17183592762516 28.8629130694258  0.298385950541274 27.8489999132861  0.298385950541274 27.8489999132861  C 0.298385950541274 27.8489999132861  0.0611730345651722 26.9229060068906  0.0611730345651722 26.9229060068906  C 0.0611730345651722 26.9229060068906  3.58656073263762 16.6121277300824  3.58656073263762 16.6121277300824  C 3.58656073263762 16.6121277300824  3.42000698312222 12.6273448397329  3.42000698312222 12.6273448397329  C 3.42000698312222 12.6273448397329  4.46727677174094 10.7072966975942  4.46727677174094 10.7072966975942  Z " fill-rule="evenodd" />
    </mask>
  </defs>
  <g transform="matrix(1 0 0 1 -2088 -4145 )">
    <path d="M 4.46727677174094 10.7072966975942  C 4.46727677174094 10.7072966975942  4.46980031340013 6.68757012974836  4.46980031340013 6.68757012974836  C 4.46980031340013 6.68757012974836  5.701288643149 4.60585473239825  5.701288643149 4.60585473239825  C 5.701288643149 4.60585473239825  13.5848327868701 7.22246919637336  13.5848327868701 7.22246919637336  C 13.5848327868701 7.22246919637336  29.2749333715395 0.157011376028709  29.2749333715395 0.157011376028709  C 29.2749333715395 0.157011376028709  32.1265354465728 8.22241110823565  32.1265354465728 8.22241110823565  C 32.1265354465728 8.22241110823565  30.7789642004953 9.21436945193944  30.7789642004953 9.21436945193944  C 30.7789642004953 9.21436945193944  14.7734209084106 12.4996077491956  14.7734209084106 12.4996077491956  C 14.7734209084106 12.4996077491956  23.6600531795489 20.4482322302809  23.6600531795489 20.4482322302809  C 23.6600531795489 20.4482322302809  21.3207300613573 21.5439769600464  21.3207300613573 21.5439769600464  C 21.3207300613573 21.5439769600464  20.1548538147508 23.7015362549029  20.1548538147508 23.7015362549029  C 20.1548538147508 23.7015362549029  12.9236648721281 24.5897082125451  12.9236648721281 24.5897082125451  C 12.9236648721281 24.5897082125451  11.230368418723 26.8989553024148  11.230368418723 26.8989553024148  C 11.230368418723 26.8989553024148  8.17183592762516 28.8629130694258  8.17183592762516 28.8629130694258  C 8.17183592762516 28.8629130694258  0.298385950541274 27.8489999132861  0.298385950541274 27.8489999132861  C 0.298385950541274 27.8489999132861  0.0611730345651722 26.9229060068906  0.0611730345651722 26.9229060068906  C 0.0611730345651722 26.9229060068906  3.58656073263762 16.6121277300824  3.58656073263762 16.6121277300824  C 3.58656073263762 16.6121277300824  3.42000698312222 12.6273448397329  3.42000698312222 12.6273448397329  C 3.42000698312222 12.6273448397329  4.46727677174094 10.7072966975942  4.46727677174094 10.7072966975942  Z " fill-rule="nonzero" fill="#f2f2f2" stroke="none" transform="matrix(1 0 0 1 2088 4145 )" />
    <path d="M 4.46727677174094 10.7072966975942  C 4.46727677174094 10.7072966975942  4.46980031340013 6.68757012974836  4.46980031340013 6.68757012974836  C 4.46980031340013 6.68757012974836  5.701288643149 4.60585473239825  5.701288643149 4.60585473239825  C 5.701288643149 4.60585473239825  13.5848327868701 7.22246919637336  13.5848327868701 7.22246919637336  C 13.5848327868701 7.22246919637336  29.2749333715395 0.157011376028709  29.2749333715395 0.157011376028709  C 29.2749333715395 0.157011376028709  32.1265354465728 8.22241110823565  32.1265354465728 8.22241110823565  C 32.1265354465728 8.22241110823565  30.7789642004953 9.21436945193944  30.7789642004953 9.21436945193944  C 30.7789642004953 9.21436945193944  14.7734209084106 12.4996077491956  14.7734209084106 12.4996077491956  C 14.7734209084106 12.4996077491956  23.6600531795489 20.4482322302809  23.6600531795489 20.4482322302809  C 23.6600531795489 20.4482322302809  21.3207300613573 21.5439769600464  21.3207300613573 21.5439769600464  C 21.3207300613573 21.5439769600464  20.1548538147508 23.7015362549029  20.1548538147508 23.7015362549029  C 20.1548538147508 23.7015362549029  12.9236648721281 24.5897082125451  12.9236648721281 24.5897082125451  C 12.9236648721281 24.5897082125451  11.230368418723 26.8989553024148  11.230368418723 26.8989553024148  C 11.230368418723 26.8989553024148  8.17183592762516 28.8629130694258  8.17183592762516 28.8629130694258  C 8.17183592762516 28.8629130694258  0.298385950541274 27.8489999132861  0.298385950541274 27.8489999132861  C 0.298385950541274 27.8489999132861  0.0611730345651722 26.9229060068906  0.0611730345651722 26.9229060068906  C 0.0611730345651722 26.9229060068906  3.58656073263762 16.6121277300824  3.58656073263762 16.6121277300824  C 3.58656073263762 16.6121277300824  3.42000698312222 12.6273448397329  3.42000698312222 12.6273448397329  C 3.42000698312222 12.6273448397329  4.46727677174094 10.7072966975942  4.46727677174094 10.7072966975942  Z " stroke-width="2" stroke="#505050" fill="none" stroke-opacity="0.211764705882353" transform="matrix(1 0 0 1 2088 4145 )" mask="url(#clip139)" />
  </g>
</svg>