<?xml version="1.0" encoding="utf-8"?>
<svg version="1.1" xmlns:xlink="http://www.w3.org/1999/xlink" width="117px" height="105px" xmlns="http://www.w3.org/2000/svg">
  <defs>
    <mask fill="white" id="clip140">
      <path d="M 34.8179697095689 81.3302456695256  C 34.8179697095689 81.3302456695256  40.0016970737423 82.773566937118  40.0016970737423 82.773566937118  C 40.0016970737423 82.773566937118  40.9025584312056 85.0583306446648  40.9025584312056 85.0583306446648  C 40.9025584312056 85.0583306446648  36.9292062428412 90.5059125523605  36.9292062428412 90.5059125523605  C 36.9292062428412 90.5059125523605  34.0353778599287 88.3834977391108  34.0353778599287 88.3834977391108  C 34.0353778599287 88.3834977391108  28.5887091950345 89.921852505804  28.5887091950345 89.921852505804  C 28.5887091950345 89.921852505804  26.7165280499151 93.7746689485129  26.7165280499151 93.7746689485129  C 26.7165280499151 93.7746689485129  22.1191154798445 91.9017170704025  22.1191154798445 91.9017170704025  C 22.1191154798445 91.9017170704025  22.1744756749959 88.7675914646429  22.1744756749959 88.7675914646429  C 22.1744756749959 88.7675914646429  26.0773694331679 83.3635665773683  26.0773694331679 83.3635665773683  C 26.0773694331679 83.3635665773683  30.0909835816424 84.1357137575618  30.0909835816424 84.1357137575618  C 30.0909835816424 84.1357137575618  34.8179697095689 81.3302456695256  34.8179697095689 81.3302456695256  Z M 84.5993670131855 55.2098924687759  C 84.5993670131855 55.2098924687759  84.7176365210082 62.4146196193504  84.7176365210082 62.4146196193504  C 84.7176365210082 62.4146196193504  82.0578307812355 69.3589791378827  82.0578307812355 69.3589791378827  C 82.0578307812355 69.3589791378827  83.2883369371002 72.7861246992029  83.2883369371002 72.7861246992029  C 83.2883369371002 72.7861246992029  79.6119167045479 77.5694774872732  79.6119167045479 77.5694774872732  C 79.6119167045479 77.5694774872732  70.598270384902 80.7412205197601  70.598270384902 80.7412205197601  C 70.598270384902 80.7412205197601  58.1950702984883 81.1530323491967  58.1950702984883 81.1530323491967  C 58.1950702984883 81.1530323491967  48.1421621335007 88.7636317355138  48.1421621335007 88.7636317355138  C 48.1421621335007 88.7636317355138  41.5731913305375 86.2135661763107  41.5731913305375 86.2135661763107  C 41.5731913305375 86.2135661763107  41.2812921197395 81.2183678798284  41.2812921197395 81.2183678798284  C 41.2812921197395 81.2183678798284  29.0089434036834 82.6973267095836  29.0089434036834 82.6973267095836  C 29.0089434036834 82.6973267095836  20.6596194258543 85.8413516381662  20.6596194258543 85.8413516381662  C 20.6596194258543 85.8413516381662  12.4008848582723 85.9680629703005  12.4008848582723 85.9680629703005  C 12.4008848582723 85.9680629703005  19.5549318953333 90.844469392907  19.5549318953333 90.844469392907  C 19.5549318953333 90.844469392907  14.8467989349599 101.95348946487  14.8467989349599 101.95348946487  C 14.8467989349599 101.95348946487  10.2846155799856 104.671843512064  10.2846155799856 104.671843512064  C 10.2846155799856 104.671843512064  6.87241446065575 102.161375244153  6.87241446065575 102.161375244153  C 6.87241446065575 102.161375244153  8.60367874538963 96.2989962683762  8.60367874538963 96.2989962683762  C 8.60367874538963 96.2989962683762  4.13963391818353 94.3943665572324  4.13963391818353 94.3943665572324  C 4.13963391818353 94.3943665572324  1.27348563284687 89.8782954853829  1.27348563284687 89.8782954853829  C 1.27348563284687 89.8782954853829  7.9418727760801 87.8390349838463  7.9418727760801 87.8390349838463  C 7.9418727760801 87.8390349838463  11.6434567337012 83.6536012942849  11.6434567337012 83.6536012942849  C 11.6434567337012 83.6536012942849  18.7396272031041 80.1888383062373  18.7396272031041 80.1888383062373  C 18.7396272031041 80.1888383062373  23.9158054497572 75.5698142770286  23.9158054497572 75.5698142770286  C 23.9158054497572 75.5698142770286  37.9596804106572 73.5444128274443  37.9596804106572 73.5444128274443  C 37.9596804106572 73.5444128274443  47.3318901862854 74.9342777517925  47.3318901862854 74.9342777517925  C 47.3318901862854 74.9342777517925  54.7149271214729 61.2841169529647  54.7149271214729 61.2841169529647  C 54.7149271214729 61.2841169529647  59.4180273368323 64.5924706404089  59.4180273368323 64.5924706404089  C 59.4180273368323 64.5924706404089  69.7678674576318 57.6391862895386  69.7678674576318 57.6391862895386  C 69.7678674576318 57.6391862895386  73.7814816061063 54.9129127840862  73.7814816061063 54.9129127840862  C 73.7814816061063 54.9129127840862  78.2178463357369 46.2351663974505  78.2178463357369 46.2351663974505  C 78.2178463357369 46.2351663974505  77.0074711599274 38.1177216825961  77.0074711599274 38.1177216825961  C 77.0074711599274 38.1177216825961  79.9893725805804 33.4986976533875  79.9893725805804 33.4986976533875  C 79.9893725805804 33.4986976533875  87.4906790235914 32.1484300203312  87.4906790235914 32.1484300203312  C 87.4906790235914 32.1484300203312  91.3356962141048 42.261578216301  91.3356962141048 42.261578216301  C 91.3356962141048 42.261578216301  91.1268372960336 48.0784203070916  91.1268372960336 48.0784203070916  C 91.1268372960336 48.0784203070916  84.5993670131855 55.2098924687759  84.5993670131855 55.2098924687759  Z M 100.004599500307 8.47716928599004  C 100.004599500307 8.47716928599004  105.417316762607 11.0747515947435  105.417316762607 11.0747515947435  C 105.417316762607 11.0747515947435  110.379603346175 12.7160593187958  110.379603346175 12.7160593187958  C 110.379603346175 12.7160593187958  115.369570027319 9.44730292264346  115.369570027319 9.44730292264346  C 115.369570027319 9.44730292264346  116.937270099106 19.4941102139018  116.937270099106 19.4941102139018  C 116.937270099106 19.4941102139018  106.47167684299 21.5690082776012  106.47167684299 21.5690082776012  C 106.47167684299 21.5690082776012  100.293982338598 29.0192386341857  100.293982338598 29.0192386341857  C 100.293982338598 29.0192386341857  87.371170955762 23.9052484638275  87.371170955762 23.9052484638275  C 87.371170955762 23.9052484638275  83.5337028827697 32.0662501991031  83.5337028827697 32.0662501991031  C 83.5337028827697 32.0662501991031  75.6851370338092 32.1771226147205  75.6851370338092 32.1771226147205  C 75.6851370338092 32.1771226147205  74.7138172461536 24.7704492785571  74.7138172461536 24.7704492785571  C 74.7138172461536 24.7704492785571  78.2040259131964 18.9555870523309  78.2040259131964 18.9555870523309  C 78.2040259131964 18.9555870523309  85.7430779438103 18.5338759000713  85.7430779438103 18.5338759000713  C 85.7430779438103 18.5338759000713  87.7989542819316 6.44186851358261  87.7989542819316 6.44186851358261  C 87.7989542819316 6.44186851358261  89.8850270901357 0.326066873537432  89.8850270901357 0.326066873537432  C 89.8850270901357 0.326066873537432  100.004599500307 8.47716928599004  100.004599500307 8.47716928599004  Z " fill-rule="evenodd" />
    </mask>
  </defs>
  <g transform="matrix(1 0 0 1 -2760 -4058 )">
    <path d="M 34.8179697095689 81.3302456695256  C 34.8179697095689 81.3302456695256  40.0016970737423 82.773566937118  40.0016970737423 82.773566937118  C 40.0016970737423 82.773566937118  40.9025584312056 85.0583306446648  40.9025584312056 85.0583306446648  C 40.9025584312056 85.0583306446648  36.9292062428412 90.5059125523605  36.9292062428412 90.5059125523605  C 36.9292062428412 90.5059125523605  34.0353778599287 88.3834977391108  34.0353778599287 88.3834977391108  C 34.0353778599287 88.3834977391108  28.5887091950345 89.921852505804  28.5887091950345 89.921852505804  C 28.5887091950345 89.921852505804  26.7165280499151 93.7746689485129  26.7165280499151 93.7746689485129  C 26.7165280499151 93.7746689485129  22.1191154798445 91.9017170704025  22.1191154798445 91.9017170704025  C 22.1191154798445 91.9017170704025  22.1744756749959 88.7675914646429  22.1744756749959 88.7675914646429  C 22.1744756749959 88.7675914646429  26.0773694331679 83.3635665773683  26.0773694331679 83.3635665773683  C 26.0773694331679 83.3635665773683  30.0909835816424 84.1357137575618  30.0909835816424 84.1357137575618  C 30.0909835816424 84.1357137575618  34.8179697095689 81.3302456695256  34.8179697095689 81.3302456695256  Z M 84.5993670131855 55.2098924687759  C 84.5993670131855 55.2098924687759  84.7176365210082 62.4146196193504  84.7176365210082 62.4146196193504  C 84.7176365210082 62.4146196193504  82.0578307812355 69.3589791378827  82.0578307812355 69.3589791378827  C 82.0578307812355 69.3589791378827  83.2883369371002 72.7861246992029  83.2883369371002 72.7861246992029  C 83.2883369371002 72.7861246992029  79.6119167045479 77.5694774872732  79.6119167045479 77.5694774872732  C 79.6119167045479 77.5694774872732  70.598270384902 80.7412205197601  70.598270384902 80.7412205197601  C 70.598270384902 80.7412205197601  58.1950702984883 81.1530323491967  58.1950702984883 81.1530323491967  C 58.1950702984883 81.1530323491967  48.1421621335007 88.7636317355138  48.1421621335007 88.7636317355138  C 48.1421621335007 88.7636317355138  41.5731913305375 86.2135661763107  41.5731913305375 86.2135661763107  C 41.5731913305375 86.2135661763107  41.2812921197395 81.2183678798284  41.2812921197395 81.2183678798284  C 41.2812921197395 81.2183678798284  29.0089434036834 82.6973267095836  29.0089434036834 82.6973267095836  C 29.0089434036834 82.6973267095836  20.6596194258543 85.8413516381662  20.6596194258543 85.8413516381662  C 20.6596194258543 85.8413516381662  12.4008848582723 85.9680629703005  12.4008848582723 85.9680629703005  C 12.4008848582723 85.9680629703005  19.5549318953333 90.844469392907  19.5549318953333 90.844469392907  C 19.5549318953333 90.844469392907  14.8467989349599 101.95348946487  14.8467989349599 101.95348946487  C 14.8467989349599 101.95348946487  10.2846155799856 104.671843512064  10.2846155799856 104.671843512064  C 10.2846155799856 104.671843512064  6.87241446065575 102.161375244153  6.87241446065575 102.161375244153  C 6.87241446065575 102.161375244153  8.60367874538963 96.2989962683762  8.60367874538963 96.2989962683762  C 8.60367874538963 96.2989962683762  4.13963391818353 94.3943665572324  4.13963391818353 94.3943665572324  C 4.13963391818353 94.3943665572324  1.27348563284687 89.8782954853829  1.27348563284687 89.8782954853829  C 1.27348563284687 89.8782954853829  7.9418727760801 87.8390349838463  7.9418727760801 87.8390349838463  C 7.9418727760801 87.8390349838463  11.6434567337012 83.6536012942849  11.6434567337012 83.6536012942849  C 11.6434567337012 83.6536012942849  18.7396272031041 80.1888383062373  18.7396272031041 80.1888383062373  C 18.7396272031041 80.1888383062373  23.9158054497572 75.5698142770286  23.9158054497572 75.5698142770286  C 23.9158054497572 75.5698142770286  37.9596804106572 73.5444128274443  37.9596804106572 73.5444128274443  C 37.9596804106572 73.5444128274443  47.3318901862854 74.9342777517925  47.3318901862854 74.9342777517925  C 47.3318901862854 74.9342777517925  54.7149271214729 61.2841169529647  54.7149271214729 61.2841169529647  C 54.7149271214729 61.2841169529647  59.4180273368323 64.5924706404089  59.4180273368323 64.5924706404089  C 59.4180273368323 64.5924706404089  69.7678674576318 57.6391862895386  69.7678674576318 57.6391862895386  C 69.7678674576318 57.6391862895386  73.7814816061063 54.9129127840862  73.7814816061063 54.9129127840862  C 73.7814816061063 54.9129127840862  78.2178463357369 46.2351663974505  78.2178463357369 46.2351663974505  C 78.2178463357369 46.2351663974505  77.0074711599274 38.1177216825961  77.0074711599274 38.1177216825961  C 77.0074711599274 38.1177216825961  79.9893725805804 33.4986976533875  79.9893725805804 33.4986976533875  C 79.9893725805804 33.4986976533875  87.4906790235914 32.1484300203312  87.4906790235914 32.1484300203312  C 87.4906790235914 32.1484300203312  91.3356962141048 42.261578216301  91.3356962141048 42.261578216301  C 91.3356962141048 42.261578216301  91.1268372960336 48.0784203070916  91.1268372960336 48.0784203070916  C 91.1268372960336 48.0784203070916  84.5993670131855 55.2098924687759  84.5993670131855 55.2098924687759  Z M 100.004599500307 8.47716928599004  C 100.004599500307 8.47716928599004  105.417316762607 11.0747515947435  105.417316762607 11.0747515947435  C 105.417316762607 11.0747515947435  110.379603346175 12.7160593187958  110.379603346175 12.7160593187958  C 110.379603346175 12.7160593187958  115.369570027319 9.44730292264346  115.369570027319 9.44730292264346  C 115.369570027319 9.44730292264346  116.937270099106 19.4941102139018  116.937270099106 19.4941102139018  C 116.937270099106 19.4941102139018  106.47167684299 21.5690082776012  106.47167684299 21.5690082776012  C 106.47167684299 21.5690082776012  100.293982338598 29.0192386341857  100.293982338598 29.0192386341857  C 100.293982338598 29.0192386341857  87.371170955762 23.9052484638275  87.371170955762 23.9052484638275  C 87.371170955762 23.9052484638275  83.5337028827697 32.0662501991031  83.5337028827697 32.0662501991031  C 83.5337028827697 32.0662501991031  75.6851370338092 32.1771226147205  75.6851370338092 32.1771226147205  C 75.6851370338092 32.1771226147205  74.7138172461536 24.7704492785571  74.7138172461536 24.7704492785571  C 74.7138172461536 24.7704492785571  78.2040259131964 18.9555870523309  78.2040259131964 18.9555870523309  C 78.2040259131964 18.9555870523309  85.7430779438103 18.5338759000713  85.7430779438103 18.5338759000713  C 85.7430779438103 18.5338759000713  87.7989542819316 6.44186851358261  87.7989542819316 6.44186851358261  C 87.7989542819316 6.44186851358261  89.8850270901357 0.326066873537432  89.8850270901357 0.326066873537432  C 89.8850270901357 0.326066873537432  100.004599500307 8.47716928599004  100.004599500307 8.47716928599004  Z " fill-rule="nonzero" fill="#a29bfe" stroke="none" transform="matrix(1 0 0 1 2760 4058 )" />
    <path d="M 34.8179697095689 81.3302456695256  C 34.8179697095689 81.3302456695256  40.0016970737423 82.773566937118  40.0016970737423 82.773566937118  C 40.0016970737423 82.773566937118  40.9025584312056 85.0583306446648  40.9025584312056 85.0583306446648  C 40.9025584312056 85.0583306446648  36.9292062428412 90.5059125523605  36.9292062428412 90.5059125523605  C 36.9292062428412 90.5059125523605  34.0353778599287 88.3834977391108  34.0353778599287 88.3834977391108  C 34.0353778599287 88.3834977391108  28.5887091950345 89.921852505804  28.5887091950345 89.921852505804  C 28.5887091950345 89.921852505804  26.7165280499151 93.7746689485129  26.7165280499151 93.7746689485129  C 26.7165280499151 93.7746689485129  22.1191154798445 91.9017170704025  22.1191154798445 91.9017170704025  C 22.1191154798445 91.9017170704025  22.1744756749959 88.7675914646429  22.1744756749959 88.7675914646429  C 22.1744756749959 88.7675914646429  26.0773694331679 83.3635665773683  26.0773694331679 83.3635665773683  C 26.0773694331679 83.3635665773683  30.0909835816424 84.1357137575618  30.0909835816424 84.1357137575618  C 30.0909835816424 84.1357137575618  34.8179697095689 81.3302456695256  34.8179697095689 81.3302456695256  Z " stroke-width="2" stroke="#505050" fill="none" stroke-opacity="0.211764705882353" transform="matrix(1 0 0 1 2760 4058 )" mask="url(#clip140)" />
    <path d="M 84.5993670131855 55.2098924687759  C 84.5993670131855 55.2098924687759  84.7176365210082 62.4146196193504  84.7176365210082 62.4146196193504  C 84.7176365210082 62.4146196193504  82.0578307812355 69.3589791378827  82.0578307812355 69.3589791378827  C 82.0578307812355 69.3589791378827  83.2883369371002 72.7861246992029  83.2883369371002 72.7861246992029  C 83.2883369371002 72.7861246992029  79.6119167045479 77.5694774872732  79.6119167045479 77.5694774872732  C 79.6119167045479 77.5694774872732  70.598270384902 80.7412205197601  70.598270384902 80.7412205197601  C 70.598270384902 80.7412205197601  58.1950702984883 81.1530323491967  58.1950702984883 81.1530323491967  C 58.1950702984883 81.1530323491967  48.1421621335007 88.7636317355138  48.1421621335007 88.7636317355138  C 48.1421621335007 88.7636317355138  41.5731913305375 86.2135661763107  41.5731913305375 86.2135661763107  C 41.5731913305375 86.2135661763107  41.2812921197395 81.2183678798284  41.2812921197395 81.2183678798284  C 41.2812921197395 81.2183678798284  29.0089434036834 82.6973267095836  29.0089434036834 82.6973267095836  C 29.0089434036834 82.6973267095836  20.6596194258543 85.8413516381662  20.6596194258543 85.8413516381662  C 20.6596194258543 85.8413516381662  12.4008848582723 85.9680629703005  12.4008848582723 85.9680629703005  C 12.4008848582723 85.9680629703005  19.5549318953333 90.844469392907  19.5549318953333 90.844469392907  C 19.5549318953333 90.844469392907  14.8467989349599 101.95348946487  14.8467989349599 101.95348946487  C 14.8467989349599 101.95348946487  10.2846155799856 104.671843512064  10.2846155799856 104.671843512064  C 10.2846155799856 104.671843512064  6.87241446065575 102.161375244153  6.87241446065575 102.161375244153  C 6.87241446065575 102.161375244153  8.60367874538963 96.2989962683762  8.60367874538963 96.2989962683762  C 8.60367874538963 96.2989962683762  4.13963391818353 94.3943665572324  4.13963391818353 94.3943665572324  C 4.13963391818353 94.3943665572324  1.27348563284687 89.8782954853829  1.27348563284687 89.8782954853829  C 1.27348563284687 89.8782954853829  7.9418727760801 87.8390349838463  7.9418727760801 87.8390349838463  C 7.9418727760801 87.8390349838463  11.6434567337012 83.6536012942849  11.6434567337012 83.6536012942849  C 11.6434567337012 83.6536012942849  18.7396272031041 80.1888383062373  18.7396272031041 80.1888383062373  C 18.7396272031041 80.1888383062373  23.9158054497572 75.5698142770286  23.9158054497572 75.5698142770286  C 23.9158054497572 75.5698142770286  37.9596804106572 73.5444128274443  37.9596804106572 73.5444128274443  C 37.9596804106572 73.5444128274443  47.3318901862854 74.9342777517925  47.3318901862854 74.9342777517925  C 47.3318901862854 74.9342777517925  54.7149271214729 61.2841169529647  54.7149271214729 61.2841169529647  C 54.7149271214729 61.2841169529647  59.4180273368323 64.5924706404089  59.4180273368323 64.5924706404089  C 59.4180273368323 64.5924706404089  69.7678674576318 57.6391862895386  69.7678674576318 57.6391862895386  C 69.7678674576318 57.6391862895386  73.7814816061063 54.9129127840862  73.7814816061063 54.9129127840862  C 73.7814816061063 54.9129127840862  78.2178463357369 46.2351663974505  78.2178463357369 46.2351663974505  C 78.2178463357369 46.2351663974505  77.0074711599274 38.1177216825961  77.0074711599274 38.1177216825961  C 77.0074711599274 38.1177216825961  79.9893725805804 33.4986976533875  79.9893725805804 33.4986976533875  C 79.9893725805804 33.4986976533875  87.4906790235914 32.1484300203312  87.4906790235914 32.1484300203312  C 87.4906790235914 32.1484300203312  91.3356962141048 42.261578216301  91.3356962141048 42.261578216301  C 91.3356962141048 42.261578216301  91.1268372960336 48.0784203070916  91.1268372960336 48.0784203070916  C 91.1268372960336 48.0784203070916  84.5993670131855 55.2098924687759  84.5993670131855 55.2098924687759  Z " stroke-width="2" stroke="#505050" fill="none" stroke-opacity="0.211764705882353" transform="matrix(1 0 0 1 2760 4058 )" mask="url(#clip140)" />
    <path d="M 100.004599500307 8.47716928599004  C 100.004599500307 8.47716928599004  105.417316762607 11.0747515947435  105.417316762607 11.0747515947435  C 105.417316762607 11.0747515947435  110.379603346175 12.7160593187958  110.379603346175 12.7160593187958  C 110.379603346175 12.7160593187958  115.369570027319 9.44730292264346  115.369570027319 9.44730292264346  C 115.369570027319 9.44730292264346  116.937270099106 19.4941102139018  116.937270099106 19.4941102139018  C 116.937270099106 19.4941102139018  106.47167684299 21.5690082776012  106.47167684299 21.5690082776012  C 106.47167684299 21.5690082776012  100.293982338598 29.0192386341857  100.293982338598 29.0192386341857  C 100.293982338598 29.0192386341857  87.371170955762 23.9052484638275  87.371170955762 23.9052484638275  C 87.371170955762 23.9052484638275  83.5337028827697 32.0662501991031  83.5337028827697 32.0662501991031  C 83.5337028827697 32.0662501991031  75.6851370338092 32.1771226147205  75.6851370338092 32.1771226147205  C 75.6851370338092 32.1771226147205  74.7138172461536 24.7704492785571  74.7138172461536 24.7704492785571  C 74.7138172461536 24.7704492785571  78.2040259131964 18.9555870523309  78.2040259131964 18.9555870523309  C 78.2040259131964 18.9555870523309  85.7430779438103 18.5338759000713  85.7430779438103 18.5338759000713  C 85.7430779438103 18.5338759000713  87.7989542819316 6.44186851358261  87.7989542819316 6.44186851358261  C 87.7989542819316 6.44186851358261  89.8850270901357 0.326066873537432  89.8850270901357 0.326066873537432  C 89.8850270901357 0.326066873537432  100.004599500307 8.47716928599004  100.004599500307 8.47716928599004  Z " stroke-width="2" stroke="#505050" fill="none" stroke-opacity="0.211764705882353" transform="matrix(1 0 0 1 2760 4058 )" mask="url(#clip140)" />
  </g>
</svg>