<?xml version="1.0" encoding="utf-8"?>
<svg version="1.1" xmlns:xlink="http://www.w3.org/1999/xlink" width="59px" height="60px" xmlns="http://www.w3.org/2000/svg">
  <defs>
    <mask fill="white" id="clip144">
      <path d="M 52.3912375605631 16.3005513664893  C 52.3912375605631 16.3005513664893  52.4749875993817 37.684110399318  52.4749875993817 37.684110399318  C 52.4749875993817 37.684110399318  56.6904062199248 42.2048550290174  56.6904062199248 42.2048550290174  C 56.6904062199248 42.2048550290174  51.7060099702277 44.3934538862836  51.7060099702277 44.3934538862836  C 51.7060099702277 44.3934538862836  49.9472591550343 46.6803725484585  49.9472591550343 46.6803725484585  C 49.9472591550343 46.6803725484585  47.2824851926197 47.0815173524859  47.2824851926197 47.0815173524859  C 47.2824851926197 47.0815173524859  46.2724089668665 50.9454856853953  46.2724089668665 50.9454856853953  C 46.2724089668665 50.9454856853953  43.9883169990826 53.159647691938  43.9883169990826 53.159647691938  C 43.9883169990826 53.159647691938  42.5975587786987 56.8112452462447  42.5975587786987 56.8112452462447  C 42.5975587786987 56.8112452462447  39.7322922991119 58.6262288448581  39.7322922991119 58.6262288448581  C 39.7322922991119 58.6262288448581  27.676113323154 53.1360509387598  27.676113323154 53.1360509387598  C 27.676113323154 53.1360509387598  27.1913782499912 49.9544220519163  27.1913782499912 49.9544220519163  C 27.1913782499912 49.9544220519163  1.3887526539264 38.7892250064913  1.3887526539264 38.7892250064913  C 1.3887526539264 38.7892250064913  0.185797550893561 38.1875078004503  0.185797550893561 38.1875078004503  C 0.185797550893561 38.1875078004503  0.114736911895733 32.3827065186444  0.114736911895733 32.3827065186444  C 0.114736911895733 32.3827065186444  2.1526545231519 28.7360402913341  2.1526545231519 28.7360402913341  C 2.1526545231519 28.7360402913341  5.65239099378937 25.1100058863033  5.65239099378937 25.1100058863033  C 5.65239099378937 25.1100058863033  8.24356643724204 21.1162554109144  8.24356643724204 21.1162554109144  C 8.24356643724204 21.1162554109144  5.11182256141407 14.8237878967614  5.11182256141407 14.8237878967614  C 5.11182256141407 14.8237878967614  4.27939793315524 12.0708333593198  4.27939793315524 12.0708333593198  C 4.27939793315524 12.0708333593198  0.906555460727716 8.25995772106093  0.906555460727716 8.25995772106093  C 0.906555460727716 8.25995772106093  5.28439839897987 4.97804263321054  5.28439839897987 4.97804263321054  C 5.28439839897987 4.97804263321054  10.1089082109324 1.35397462427818  10.1089082109324 1.35397462427818  C 10.1089082109324 1.35397462427818  13.8040614388136 2.27818079041916  13.8040614388136 2.27818079041916  C 13.8040614388136 2.27818079041916  13.8040614388136 5.36345626845235  13.8040614388136 5.36345626845235  C 13.8040614388136 5.36345626845235  16.2353504445213 7.17254067877125  16.2353504445213 7.17254067877125  C 16.2353504445213 7.17254067877125  21.1867542546838 7.17254067877125  21.1867542546838 7.17254067877125  C 21.1867542546838 7.17254067877125  32.0374402476452 11.8348658275389  32.0374402476452 11.8348658275389  C 32.0374402476452 11.8348658275389  34.2860018959299 11.8899249182878  34.2860018959299 11.8899249182878  C 34.2860018959299 11.8899249182878  35.9533890324121 11.7385124187285  35.9533890324121 11.7385124187285  C 35.9533890324121 11.7385124187285  37.529412490183 12.37169196234  37.529412490183 12.37169196234  C 37.529412490183 12.37169196234  42.2752480232451 12.8042991039381  42.2752480232451 12.8042991039381  C 42.2752480232451 12.8042991039381  44.376612633606 10.5173804417632  44.376612633606 10.5173804417632  C 44.376612633606 10.5173804417632  50.8786611018974 8.22062979909723  50.8786611018974 8.22062979909723  C 50.8786611018974 8.22062979909723  53.7464654614479 10.0749413196744  53.7464654614479 10.0749413196744  C 53.7464654614479 10.0749413196744  58.6090434728632 10.0769077157724  58.6090434728632 10.0769077157724  C 58.6090434728632 10.0769077157724  52.3912375605631 16.3005513664893  52.3912375605631 16.3005513664893  Z " fill-rule="evenodd" />
    </mask>
  </defs>
  <g transform="matrix(1 0 0 1 -2082 -4311 )">
    <path d="M 52.3912375605631 16.3005513664893  C 52.3912375605631 16.3005513664893  52.4749875993817 37.684110399318  52.4749875993817 37.684110399318  C 52.4749875993817 37.684110399318  56.6904062199248 42.2048550290174  56.6904062199248 42.2048550290174  C 56.6904062199248 42.2048550290174  51.7060099702277 44.3934538862836  51.7060099702277 44.3934538862836  C 51.7060099702277 44.3934538862836  49.9472591550343 46.6803725484585  49.9472591550343 46.6803725484585  C 49.9472591550343 46.6803725484585  47.2824851926197 47.0815173524859  47.2824851926197 47.0815173524859  C 47.2824851926197 47.0815173524859  46.2724089668665 50.9454856853953  46.2724089668665 50.9454856853953  C 46.2724089668665 50.9454856853953  43.9883169990826 53.159647691938  43.9883169990826 53.159647691938  C 43.9883169990826 53.159647691938  42.5975587786987 56.8112452462447  42.5975587786987 56.8112452462447  C 42.5975587786987 56.8112452462447  39.7322922991119 58.6262288448581  39.7322922991119 58.6262288448581  C 39.7322922991119 58.6262288448581  27.676113323154 53.1360509387598  27.676113323154 53.1360509387598  C 27.676113323154 53.1360509387598  27.1913782499912 49.9544220519163  27.1913782499912 49.9544220519163  C 27.1913782499912 49.9544220519163  1.3887526539264 38.7892250064913  1.3887526539264 38.7892250064913  C 1.3887526539264 38.7892250064913  0.185797550893561 38.1875078004503  0.185797550893561 38.1875078004503  C 0.185797550893561 38.1875078004503  0.114736911895733 32.3827065186444  0.114736911895733 32.3827065186444  C 0.114736911895733 32.3827065186444  2.1526545231519 28.7360402913341  2.1526545231519 28.7360402913341  C 2.1526545231519 28.7360402913341  5.65239099378937 25.1100058863033  5.65239099378937 25.1100058863033  C 5.65239099378937 25.1100058863033  8.24356643724204 21.1162554109144  8.24356643724204 21.1162554109144  C 8.24356643724204 21.1162554109144  5.11182256141407 14.8237878967614  5.11182256141407 14.8237878967614  C 5.11182256141407 14.8237878967614  4.27939793315524 12.0708333593198  4.27939793315524 12.0708333593198  C 4.27939793315524 12.0708333593198  0.906555460727716 8.25995772106093  0.906555460727716 8.25995772106093  C 0.906555460727716 8.25995772106093  5.28439839897987 4.97804263321054  5.28439839897987 4.97804263321054  C 5.28439839897987 4.97804263321054  10.1089082109324 1.35397462427818  10.1089082109324 1.35397462427818  C 10.1089082109324 1.35397462427818  13.8040614388136 2.27818079041916  13.8040614388136 2.27818079041916  C 13.8040614388136 2.27818079041916  13.8040614388136 5.36345626845235  13.8040614388136 5.36345626845235  C 13.8040614388136 5.36345626845235  16.2353504445213 7.17254067877125  16.2353504445213 7.17254067877125  C 16.2353504445213 7.17254067877125  21.1867542546838 7.17254067877125  21.1867542546838 7.17254067877125  C 21.1867542546838 7.17254067877125  32.0374402476452 11.8348658275389  32.0374402476452 11.8348658275389  C 32.0374402476452 11.8348658275389  34.2860018959299 11.8899249182878  34.2860018959299 11.8899249182878  C 34.2860018959299 11.8899249182878  35.9533890324121 11.7385124187285  35.9533890324121 11.7385124187285  C 35.9533890324121 11.7385124187285  37.529412490183 12.37169196234  37.529412490183 12.37169196234  C 37.529412490183 12.37169196234  42.2752480232451 12.8042991039381  42.2752480232451 12.8042991039381  C 42.2752480232451 12.8042991039381  44.376612633606 10.5173804417632  44.376612633606 10.5173804417632  C 44.376612633606 10.5173804417632  50.8786611018974 8.22062979909723  50.8786611018974 8.22062979909723  C 50.8786611018974 8.22062979909723  53.7464654614479 10.0749413196744  53.7464654614479 10.0749413196744  C 53.7464654614479 10.0749413196744  58.6090434728632 10.0769077157724  58.6090434728632 10.0769077157724  C 58.6090434728632 10.0769077157724  52.3912375605631 16.3005513664893  52.3912375605631 16.3005513664893  Z " fill-rule="nonzero" fill="#f2f2f2" stroke="none" transform="matrix(1 0 0 1 2082 4311 )" />
    <path d="M 52.3912375605631 16.3005513664893  C 52.3912375605631 16.3005513664893  52.4749875993817 37.684110399318  52.4749875993817 37.684110399318  C 52.4749875993817 37.684110399318  56.6904062199248 42.2048550290174  56.6904062199248 42.2048550290174  C 56.6904062199248 42.2048550290174  51.7060099702277 44.3934538862836  51.7060099702277 44.3934538862836  C 51.7060099702277 44.3934538862836  49.9472591550343 46.6803725484585  49.9472591550343 46.6803725484585  C 49.9472591550343 46.6803725484585  47.2824851926197 47.0815173524859  47.2824851926197 47.0815173524859  C 47.2824851926197 47.0815173524859  46.2724089668665 50.9454856853953  46.2724089668665 50.9454856853953  C 46.2724089668665 50.9454856853953  43.9883169990826 53.159647691938  43.9883169990826 53.159647691938  C 43.9883169990826 53.159647691938  42.5975587786987 56.8112452462447  42.5975587786987 56.8112452462447  C 42.5975587786987 56.8112452462447  39.7322922991119 58.6262288448581  39.7322922991119 58.6262288448581  C 39.7322922991119 58.6262288448581  27.676113323154 53.1360509387598  27.676113323154 53.1360509387598  C 27.676113323154 53.1360509387598  27.1913782499912 49.9544220519163  27.1913782499912 49.9544220519163  C 27.1913782499912 49.9544220519163  1.3887526539264 38.7892250064913  1.3887526539264 38.7892250064913  C 1.3887526539264 38.7892250064913  0.185797550893561 38.1875078004503  0.185797550893561 38.1875078004503  C 0.185797550893561 38.1875078004503  0.114736911895733 32.3827065186444  0.114736911895733 32.3827065186444  C 0.114736911895733 32.3827065186444  2.1526545231519 28.7360402913341  2.1526545231519 28.7360402913341  C 2.1526545231519 28.7360402913341  5.65239099378937 25.1100058863033  5.65239099378937 25.1100058863033  C 5.65239099378937 25.1100058863033  8.24356643724204 21.1162554109144  8.24356643724204 21.1162554109144  C 8.24356643724204 21.1162554109144  5.11182256141407 14.8237878967614  5.11182256141407 14.8237878967614  C 5.11182256141407 14.8237878967614  4.27939793315524 12.0708333593198  4.27939793315524 12.0708333593198  C 4.27939793315524 12.0708333593198  0.906555460727716 8.25995772106093  0.906555460727716 8.25995772106093  C 0.906555460727716 8.25995772106093  5.28439839897987 4.97804263321054  5.28439839897987 4.97804263321054  C 5.28439839897987 4.97804263321054  10.1089082109324 1.35397462427818  10.1089082109324 1.35397462427818  C 10.1089082109324 1.35397462427818  13.8040614388136 2.27818079041916  13.8040614388136 2.27818079041916  C 13.8040614388136 2.27818079041916  13.8040614388136 5.36345626845235  13.8040614388136 5.36345626845235  C 13.8040614388136 5.36345626845235  16.2353504445213 7.17254067877125  16.2353504445213 7.17254067877125  C 16.2353504445213 7.17254067877125  21.1867542546838 7.17254067877125  21.1867542546838 7.17254067877125  C 21.1867542546838 7.17254067877125  32.0374402476452 11.8348658275389  32.0374402476452 11.8348658275389  C 32.0374402476452 11.8348658275389  34.2860018959299 11.8899249182878  34.2860018959299 11.8899249182878  C 34.2860018959299 11.8899249182878  35.9533890324121 11.7385124187285  35.9533890324121 11.7385124187285  C 35.9533890324121 11.7385124187285  37.529412490183 12.37169196234  37.529412490183 12.37169196234  C 37.529412490183 12.37169196234  42.2752480232451 12.8042991039381  42.2752480232451 12.8042991039381  C 42.2752480232451 12.8042991039381  44.376612633606 10.5173804417632  44.376612633606 10.5173804417632  C 44.376612633606 10.5173804417632  50.8786611018974 8.22062979909723  50.8786611018974 8.22062979909723  C 50.8786611018974 8.22062979909723  53.7464654614479 10.0749413196744  53.7464654614479 10.0749413196744  C 53.7464654614479 10.0749413196744  58.6090434728632 10.0769077157724  58.6090434728632 10.0769077157724  C 58.6090434728632 10.0769077157724  52.3912375605631 16.3005513664893  52.3912375605631 16.3005513664893  Z " stroke-width="2" stroke="#505050" fill="none" stroke-opacity="0.211764705882353" transform="matrix(1 0 0 1 2082 4311 )" mask="url(#clip144)" />
  </g>
</svg>