<?xml version="1.0" encoding="utf-8"?>
<svg version="1.1" xmlns:xlink="http://www.w3.org/1999/xlink" width="81px" height="32px" xmlns="http://www.w3.org/2000/svg">
  <defs>
    <mask fill="white" id="clip145">
      <path d="M 13.3889330678996 9.13537449981455  C 13.3889330678996 9.13537449981455  11.2781364598903 8.3925773118938  11.2781364598903 8.3925773118938  C 11.2781364598903 8.3925773118938  12.8694693168289 5.06901037941853  12.8694693168289 5.06901037941853  C 12.8694693168289 5.06901037941853  17.5446430764653 3.99385649825027  17.5446430764653 3.99385649825027  C 17.5446430764653 3.99385649825027  29.2363784298324 6.61466921789501  29.2363784298324 6.61466921789501  C 29.2363784298324 6.61466921789501  30.3386551699094 2.11584096652628  30.3386551699094 2.11584096652628  C 30.3386551699094 2.11584096652628  34.3727346416391 0.526134855450767  34.3727346416391 0.526134855450767  C 34.3727346416391 0.526134855450767  46.3317840155985 3.74759220144634  46.3317840155985 3.74759220144634  C 46.3317840155985 3.74759220144634  48.913898953848 2.90468757580055  48.913898953848 2.90468757580055  C 48.913898953848 2.90468757580055  60.6943232403247 3.11491319502337  60.6943232403247 3.11491319502337  C 60.6943232403247 3.11491319502337  71.2356364327839 3.91377054807022  71.2356364327839 3.91377054807022  C 71.2356364327839 3.91377054807022  74.8009315437911 6.64670359796698  74.8009315437911 6.64670359796698  C 74.8009315437911 6.64670359796698  79.1770969003721 7.75789615671626  79.1770969003721 7.75789615671626  C 79.1770969003721 7.75789615671626  78.1787129105094 9.46572904430749  78.1787129105094 9.46572904430749  C 78.1787129105094 9.46572904430749  66.9836355825562 13.5340953134579  66.9836355825562 13.5340953134579  C 66.9836355825562 13.5340953134579  64.4522000346558 17.9478166271591  64.4522000346558 17.9478166271591  C 64.4522000346558 17.9478166271591  55.3375116805028 18.8287620791405  55.3375116805028 18.8287620791405  C 55.3375116805028 18.8287620791405  52.6489700225222 23.5418202472411  52.6489700225222 23.5418202472411  C 52.6489700225222 23.5418202472411  45.1306824643427 22.5567630600255  45.1306824643427 22.5567630600255  C 45.1306824643427 22.5567630600255  38.3789404486773 23.9943058657588  38.3789404486773 23.9943058657588  C 38.3789404486773 23.9943058657588  31.5955040505488 27.4500146160314  31.5955040505488 27.4500146160314  C 31.5955040505488 27.4500146160314  32.5761502537893 29.151841057359  32.5761502537893 29.151841057359  C 32.5761502537893 29.151841057359  30.5540425788897 30.8116223748421  30.5540425788897 30.8116223748421  C 30.5540425788897 30.8116223748421  17.1189361975389 31.9067977435555  17.1189361975389 31.9067977435555  C 17.1189361975389 31.9067977435555  8.34379975872032 29.5562751057686  8.34379975872032 29.5562751057686  C 8.34379975872032 29.5562751057686  0.637998456251926 30.118878905784  0.637998456251926 30.118878905784  C 0.637998456251926 30.118878905784  1.31203434788513 25.9223751163453  1.31203434788513 25.9223751163453  C 1.31203434788513 25.9223751163453  9.04570931504494 27.1436858565923  9.04570931504494 27.1436858565923  C 9.04570931504494 27.1436858565923  11.6455620399158 24.8892663590218  11.6455620399158 24.8892663590218  C 11.6455620399158 24.8892663590218  17.0505190205687 25.6100399106429  17.0505190205687 25.6100399106429  C 17.0505190205687 25.6100399106429  26.1500035576172 20.3143564549819  26.1500035576172 20.3143564549819  C 26.1500035576172 20.3143564549819  17.7296228512369 14.9476123341372  17.7296228512369 14.9476123341372  C 17.7296228512369 14.9476123341372  12.6692857249527 18.2581496841072  12.6692857249527 18.2581496841072  C 12.6692857249527 18.2581496841072  7.42396882389767 13.9985938245028  7.42396882389767 13.9985938245028  C 7.42396882389767 13.9985938245028  13.3889330678996 9.13537449981455  13.3889330678996 9.13537449981455  Z " fill-rule="evenodd" />
    </mask>
  </defs>
  <g transform="matrix(1 0 0 1 -2333 -4075 )">
    <path d="M 13.3889330678996 9.13537449981455  C 13.3889330678996 9.13537449981455  11.2781364598903 8.3925773118938  11.2781364598903 8.3925773118938  C 11.2781364598903 8.3925773118938  12.8694693168289 5.06901037941853  12.8694693168289 5.06901037941853  C 12.8694693168289 5.06901037941853  17.5446430764653 3.99385649825027  17.5446430764653 3.99385649825027  C 17.5446430764653 3.99385649825027  29.2363784298324 6.61466921789501  29.2363784298324 6.61466921789501  C 29.2363784298324 6.61466921789501  30.3386551699094 2.11584096652628  30.3386551699094 2.11584096652628  C 30.3386551699094 2.11584096652628  34.3727346416391 0.526134855450767  34.3727346416391 0.526134855450767  C 34.3727346416391 0.526134855450767  46.3317840155985 3.74759220144634  46.3317840155985 3.74759220144634  C 46.3317840155985 3.74759220144634  48.913898953848 2.90468757580055  48.913898953848 2.90468757580055  C 48.913898953848 2.90468757580055  60.6943232403247 3.11491319502337  60.6943232403247 3.11491319502337  C 60.6943232403247 3.11491319502337  71.2356364327839 3.91377054807022  71.2356364327839 3.91377054807022  C 71.2356364327839 3.91377054807022  74.8009315437911 6.64670359796698  74.8009315437911 6.64670359796698  C 74.8009315437911 6.64670359796698  79.1770969003721 7.75789615671626  79.1770969003721 7.75789615671626  C 79.1770969003721 7.75789615671626  78.1787129105094 9.46572904430749  78.1787129105094 9.46572904430749  C 78.1787129105094 9.46572904430749  66.9836355825562 13.5340953134579  66.9836355825562 13.5340953134579  C 66.9836355825562 13.5340953134579  64.4522000346558 17.9478166271591  64.4522000346558 17.9478166271591  C 64.4522000346558 17.9478166271591  55.3375116805028 18.8287620791405  55.3375116805028 18.8287620791405  C 55.3375116805028 18.8287620791405  52.6489700225222 23.5418202472411  52.6489700225222 23.5418202472411  C 52.6489700225222 23.5418202472411  45.1306824643427 22.5567630600255  45.1306824643427 22.5567630600255  C 45.1306824643427 22.5567630600255  38.3789404486773 23.9943058657588  38.3789404486773 23.9943058657588  C 38.3789404486773 23.9943058657588  31.5955040505488 27.4500146160314  31.5955040505488 27.4500146160314  C 31.5955040505488 27.4500146160314  32.5761502537893 29.151841057359  32.5761502537893 29.151841057359  C 32.5761502537893 29.151841057359  30.5540425788897 30.8116223748421  30.5540425788897 30.8116223748421  C 30.5540425788897 30.8116223748421  17.1189361975389 31.9067977435555  17.1189361975389 31.9067977435555  C 17.1189361975389 31.9067977435555  8.34379975872032 29.5562751057686  8.34379975872032 29.5562751057686  C 8.34379975872032 29.5562751057686  0.637998456251926 30.118878905784  0.637998456251926 30.118878905784  C 0.637998456251926 30.118878905784  1.31203434788513 25.9223751163453  1.31203434788513 25.9223751163453  C 1.31203434788513 25.9223751163453  9.04570931504494 27.1436858565923  9.04570931504494 27.1436858565923  C 9.04570931504494 27.1436858565923  11.6455620399158 24.8892663590218  11.6455620399158 24.8892663590218  C 11.6455620399158 24.8892663590218  17.0505190205687 25.6100399106429  17.0505190205687 25.6100399106429  C 17.0505190205687 25.6100399106429  26.1500035576172 20.3143564549819  26.1500035576172 20.3143564549819  C 26.1500035576172 20.3143564549819  17.7296228512369 14.9476123341372  17.7296228512369 14.9476123341372  C 17.7296228512369 14.9476123341372  12.6692857249527 18.2581496841072  12.6692857249527 18.2581496841072  C 12.6692857249527 18.2581496841072  7.42396882389767 13.9985938245028  7.42396882389767 13.9985938245028  C 7.42396882389767 13.9985938245028  13.3889330678996 9.13537449981455  13.3889330678996 9.13537449981455  Z " fill-rule="nonzero" fill="#f2f2f2" stroke="none" transform="matrix(1 0 0 1 2333 4075 )" />
    <path d="M 13.3889330678996 9.13537449981455  C 13.3889330678996 9.13537449981455  11.2781364598903 8.3925773118938  11.2781364598903 8.3925773118938  C 11.2781364598903 8.3925773118938  12.8694693168289 5.06901037941853  12.8694693168289 5.06901037941853  C 12.8694693168289 5.06901037941853  17.5446430764653 3.99385649825027  17.5446430764653 3.99385649825027  C 17.5446430764653 3.99385649825027  29.2363784298324 6.61466921789501  29.2363784298324 6.61466921789501  C 29.2363784298324 6.61466921789501  30.3386551699094 2.11584096652628  30.3386551699094 2.11584096652628  C 30.3386551699094 2.11584096652628  34.3727346416391 0.526134855450767  34.3727346416391 0.526134855450767  C 34.3727346416391 0.526134855450767  46.3317840155985 3.74759220144634  46.3317840155985 3.74759220144634  C 46.3317840155985 3.74759220144634  48.913898953848 2.90468757580055  48.913898953848 2.90468757580055  C 48.913898953848 2.90468757580055  60.6943232403247 3.11491319502337  60.6943232403247 3.11491319502337  C 60.6943232403247 3.11491319502337  71.2356364327839 3.91377054807022  71.2356364327839 3.91377054807022  C 71.2356364327839 3.91377054807022  74.8009315437911 6.64670359796698  74.8009315437911 6.64670359796698  C 74.8009315437911 6.64670359796698  79.1770969003721 7.75789615671626  79.1770969003721 7.75789615671626  C 79.1770969003721 7.75789615671626  78.1787129105094 9.46572904430749  78.1787129105094 9.46572904430749  C 78.1787129105094 9.46572904430749  66.9836355825562 13.5340953134579  66.9836355825562 13.5340953134579  C 66.9836355825562 13.5340953134579  64.4522000346558 17.9478166271591  64.4522000346558 17.9478166271591  C 64.4522000346558 17.9478166271591  55.3375116805028 18.8287620791405  55.3375116805028 18.8287620791405  C 55.3375116805028 18.8287620791405  52.6489700225222 23.5418202472411  52.6489700225222 23.5418202472411  C 52.6489700225222 23.5418202472411  45.1306824643427 22.5567630600255  45.1306824643427 22.5567630600255  C 45.1306824643427 22.5567630600255  38.3789404486773 23.9943058657588  38.3789404486773 23.9943058657588  C 38.3789404486773 23.9943058657588  31.5955040505488 27.4500146160314  31.5955040505488 27.4500146160314  C 31.5955040505488 27.4500146160314  32.5761502537893 29.151841057359  32.5761502537893 29.151841057359  C 32.5761502537893 29.151841057359  30.5540425788897 30.8116223748421  30.5540425788897 30.8116223748421  C 30.5540425788897 30.8116223748421  17.1189361975389 31.9067977435555  17.1189361975389 31.9067977435555  C 17.1189361975389 31.9067977435555  8.34379975872032 29.5562751057686  8.34379975872032 29.5562751057686  C 8.34379975872032 29.5562751057686  0.637998456251926 30.118878905784  0.637998456251926 30.118878905784  C 0.637998456251926 30.118878905784  1.31203434788513 25.9223751163453  1.31203434788513 25.9223751163453  C 1.31203434788513 25.9223751163453  9.04570931504494 27.1436858565923  9.04570931504494 27.1436858565923  C 9.04570931504494 27.1436858565923  11.6455620399158 24.8892663590218  11.6455620399158 24.8892663590218  C 11.6455620399158 24.8892663590218  17.0505190205687 25.6100399106429  17.0505190205687 25.6100399106429  C 17.0505190205687 25.6100399106429  26.1500035576172 20.3143564549819  26.1500035576172 20.3143564549819  C 26.1500035576172 20.3143564549819  17.7296228512369 14.9476123341372  17.7296228512369 14.9476123341372  C 17.7296228512369 14.9476123341372  12.6692857249527 18.2581496841072  12.6692857249527 18.2581496841072  C 12.6692857249527 18.2581496841072  7.42396882389767 13.9985938245028  7.42396882389767 13.9985938245028  C 7.42396882389767 13.9985938245028  13.3889330678996 9.13537449981455  13.3889330678996 9.13537449981455  Z " stroke-width="2" stroke="#505050" fill="none" stroke-opacity="0.211764705882353" transform="matrix(1 0 0 1 2333 4075 )" mask="url(#clip145)" />
  </g>
</svg>