<?xml version="1.0" encoding="utf-8"?>
<svg version="1.1" xmlns:xlink="http://www.w3.org/1999/xlink" width="41px" height="26px" xmlns="http://www.w3.org/2000/svg">
  <defs>
    <mask fill="white" id="clip146">
      <path d="M 14.7662863217081 25.5077423905891  C 14.7662863217081 25.5077423905891  8.74563731547108 24.684608983894  8.74563731547108 24.684608983894  C 8.74563731547108 24.684608983894  5.82124879092478 21.7459829570937  5.82124879092478 21.7459829570937  C 5.82124879092478 21.7459829570937  2.18371990688419 15.9025310675358  2.18371990688419 15.9025310675358  C 2.18371990688419 15.9025310675358  0.480391853990279 7.59864156729863  0.480391853990279 7.59864156729863  C 0.480391853990279 7.59864156729863  5.08758640669662 2.85667737655477  5.08758640669662 2.85667737655477  C 5.08758640669662 2.85667737655477  14.3866288641355 1.76314265751557  14.3866288641355 1.76314265751557  C 14.3866288641355 1.76314265751557  22.9917503527784 2.58428781926702  22.9917503527784 2.58428781926702  C 22.9917503527784 2.58428781926702  28.9277460069892 4.82305162588212  28.9277460069892 4.82305162588212  C 28.9277460069892 4.82305162588212  32.1830521803656 0.882350147453003  32.1830521803656 0.882350147453003  C 32.1830521803656 0.882350147453003  38.5551408601662 2.98790154283963  38.5551408601662 2.98790154283963  C 38.5551408601662 2.98790154283963  40.2225553697759 6.79340236509701  40.2225553697759 6.79340236509701  C 40.2225553697759 6.79340236509701  39.3375430531368 15.0495739866851  39.3375430531368 15.0495739866851  C 39.3375430531368 15.0495739866851  27.2475052319207 19.4058186583494  27.2475052319207 19.4058186583494  C 27.2475052319207 19.4058186583494  30.4053317878122 22.8275882064709  30.4053317878122 22.8275882064709  C 30.4053317878122 22.8275882064709  22.8557919389181 23.2371666648746  22.8557919389181 23.2371666648746  C 22.8557919389181 23.2371666648746  14.7662863217081 25.5077423905891  14.7662863217081 25.5077423905891  Z " fill-rule="evenodd" />
    </mask>
  </defs>
  <g transform="matrix(1 0 0 1 -2569 -4260 )">
    <path d="M 14.7662863217081 25.5077423905891  C 14.7662863217081 25.5077423905891  8.74563731547108 24.684608983894  8.74563731547108 24.684608983894  C 8.74563731547108 24.684608983894  5.82124879092478 21.7459829570937  5.82124879092478 21.7459829570937  C 5.82124879092478 21.7459829570937  2.18371990688419 15.9025310675358  2.18371990688419 15.9025310675358  C 2.18371990688419 15.9025310675358  0.480391853990279 7.59864156729863  0.480391853990279 7.59864156729863  C 0.480391853990279 7.59864156729863  5.08758640669662 2.85667737655477  5.08758640669662 2.85667737655477  C 5.08758640669662 2.85667737655477  14.3866288641355 1.76314265751557  14.3866288641355 1.76314265751557  C 14.3866288641355 1.76314265751557  22.9917503527784 2.58428781926702  22.9917503527784 2.58428781926702  C 22.9917503527784 2.58428781926702  28.9277460069892 4.82305162588212  28.9277460069892 4.82305162588212  C 28.9277460069892 4.82305162588212  32.1830521803656 0.882350147453003  32.1830521803656 0.882350147453003  C 32.1830521803656 0.882350147453003  38.5551408601662 2.98790154283963  38.5551408601662 2.98790154283963  C 38.5551408601662 2.98790154283963  40.2225553697759 6.79340236509701  40.2225553697759 6.79340236509701  C 40.2225553697759 6.79340236509701  39.3375430531368 15.0495739866851  39.3375430531368 15.0495739866851  C 39.3375430531368 15.0495739866851  27.2475052319207 19.4058186583494  27.2475052319207 19.4058186583494  C 27.2475052319207 19.4058186583494  30.4053317878122 22.8275882064709  30.4053317878122 22.8275882064709  C 30.4053317878122 22.8275882064709  22.8557919389181 23.2371666648746  22.8557919389181 23.2371666648746  C 22.8557919389181 23.2371666648746  14.7662863217081 25.5077423905891  14.7662863217081 25.5077423905891  Z " fill-rule="nonzero" fill="#f2f2f2" stroke="none" transform="matrix(1 0 0 1 2569 4260 )" />
    <path d="M 14.7662863217081 25.5077423905891  C 14.7662863217081 25.5077423905891  8.74563731547108 24.684608983894  8.74563731547108 24.684608983894  C 8.74563731547108 24.684608983894  5.82124879092478 21.7459829570937  5.82124879092478 21.7459829570937  C 5.82124879092478 21.7459829570937  2.18371990688419 15.9025310675358  2.18371990688419 15.9025310675358  C 2.18371990688419 15.9025310675358  0.480391853990279 7.59864156729863  0.480391853990279 7.59864156729863  C 0.480391853990279 7.59864156729863  5.08758640669662 2.85667737655477  5.08758640669662 2.85667737655477  C 5.08758640669662 2.85667737655477  14.3866288641355 1.76314265751557  14.3866288641355 1.76314265751557  C 14.3866288641355 1.76314265751557  22.9917503527784 2.58428781926702  22.9917503527784 2.58428781926702  C 22.9917503527784 2.58428781926702  28.9277460069892 4.82305162588212  28.9277460069892 4.82305162588212  C 28.9277460069892 4.82305162588212  32.1830521803656 0.882350147453003  32.1830521803656 0.882350147453003  C 32.1830521803656 0.882350147453003  38.5551408601662 2.98790154283963  38.5551408601662 2.98790154283963  C 38.5551408601662 2.98790154283963  40.2225553697759 6.79340236509701  40.2225553697759 6.79340236509701  C 40.2225553697759 6.79340236509701  39.3375430531368 15.0495739866851  39.3375430531368 15.0495739866851  C 39.3375430531368 15.0495739866851  27.2475052319207 19.4058186583494  27.2475052319207 19.4058186583494  C 27.2475052319207 19.4058186583494  30.4053317878122 22.8275882064709  30.4053317878122 22.8275882064709  C 30.4053317878122 22.8275882064709  22.8557919389181 23.2371666648746  22.8557919389181 23.2371666648746  C 22.8557919389181 23.2371666648746  14.7662863217081 25.5077423905891  14.7662863217081 25.5077423905891  Z " stroke-width="2" stroke="#505050" fill="none" stroke-opacity="0.211764705882353" transform="matrix(1 0 0 1 2569 4260 )" mask="url(#clip146)" />
  </g>
</svg>