<?xml version="1.0" encoding="utf-8"?>
<svg version="1.1" xmlns:xlink="http://www.w3.org/1999/xlink" width="51px" height="41px" xmlns="http://www.w3.org/2000/svg">
  <defs>
    <mask fill="white" id="clip147">
      <path d="M 45.2491015890805 0.0157227401090125  C 45.2491015890805 0.0157227401090125  49.9577244415377 4.53863040551634  49.9577244415377 4.53863040551634  C 49.9577244415377 4.53863040551634  50.976929388066 5.87091292193083  50.976929388066 5.87091292193083  C 50.976929388066 5.87091292193083  48.2079159491559 5.41539726578912  48.2079159491559 5.41539726578912  C 48.2079159491559 5.41539726578912  45.0437005922039 7.98523116658861  45.0437005922039 7.98523116658861  C 45.0437005922039 7.98523116658861  42.8674900303562 10.5530495113876  42.8674900303562 10.5530495113876  C 42.8674900303562 10.5530495113876  43.1430913679378 15.9305529210607  43.1430913679378 15.9305529210607  C 43.1430913679378 15.9305529210607  39.3756730834483 17.5752466175723  39.3756730834483 17.5752466175723  C 39.3756730834483 17.5752466175723  38.0782667867197 18.8813269059787  38.0782667867197 18.8813269059787  C 38.0782667867197 18.8813269059787  35.3300534487589 22.5284597689435  35.3300534487589 22.5284597689435  C 35.3300534487589 22.5284597689435  30.475829889655 23.7398089253204  30.475829889655 23.7398089253204  C 30.475829889655 23.7398089253204  27.311614532703 25.7090071379331  27.311614532703 25.7090071379331  C 27.311614532703 25.7090071379331  25.1939245333687 28.8693989469164  25.1939245333687 28.8693989469164  C 25.1939245333687 28.8693989469164  24.3437204070554 29.6736057911666  24.3437204070554 29.6736057911666  C 24.3437204070554 29.6736057911666  29.1342233784084 30.8527060515334  29.1342233784084 30.8527060515334  C 29.1342233784084 30.8527060515334  33.263043416896 34.0211600845192  33.263043416896 34.0211600845192  C 33.263043416896 34.0211600845192  32.2126383189432 35.7605849130604  32.2126383189432 35.7605849130604  C 32.2126383189432 35.7605849130604  29.1082232522215 36.2342405732078  29.1082232522215 36.2342405732078  C 29.1082232522215 36.2342405732078  22.0687093656973 36.5809162053157  22.0687093656973 36.5809162053157  C 22.0687093656973 36.5809162053157  19.2268955734636 39.805805806319  19.2268955734636 39.805805806319  C 19.2268955734636 39.805805806319  15.9742797874757 39.55184575024  15.9742797874757 39.55184575024  C 15.9742797874757 39.55184575024  15.5166775665854 40.1968236704407  15.5166775665854 40.1968236704407  C 15.5166775665854 40.1968236704407  11.9780603925416 38.8423700380193  11.9780603925416 38.8423700380193  C 11.9780603925416 38.8423700380193  11.0966561148035 40.1806992224357  11.0966561148035 40.1806992224357  C 11.0966561148035 40.1806992224357  8.9620457548549 40.7712571306195  8.9620457548549 40.7712571306195  C 8.9620457548549 40.7712571306195  8.70464450560447 39.4309123902024  8.70464450560447 39.4309123902024  C 8.70464450560447 39.4309123902024  6.81703534443164 38.7778722459992  6.81703534443164 38.7778722459992  C 6.81703534443164 38.7778722459992  4.85662582993566 37.6390831056449  4.85662582993566 37.6390831056449  C 4.85662582993566 37.6390831056449  6.85083550847465 34.4807068526622  6.85083550847465 34.4807068526622  C 6.85083550847465 34.4807068526622  8.56944384943199 33.6341733323989  8.56944384943199 33.6341733323989  C 8.56944384943199 33.6341733323989  7.92204070737678 32.3159997079887  7.92204070737678 32.3159997079887  C 7.92204070737678 32.3159997079887  9.77064967926905 28.4038055107715  9.77064967926905 28.4038055107715  C 9.77064967926905 28.4038055107715  9.29484737004789 27.2105963584004  9.29484737004789 27.2105963584004  C 9.29484737004789 27.2105963584004  5.03862671324439 26.4164672941533  5.03862671324439 26.4164672941533  C 5.03862671324439 26.4164672941533  1.60141003132928 24.4513001935418  1.60141003132928 24.4513001935418  C 1.60141003132928 24.4513001935418  7.53723883980999 18.2565045457843  7.53723883980999 18.2565045457843  C 7.53723883980999 18.2565045457843  15.5712778315781 14.2576414405402  15.5712778315781 14.2576414405402  C 15.5712778315781 14.2576414405402  20.5815021478035 8.92851137488215  20.5815021478035 8.92851137488215  C 20.5815021478035 8.92851137488215  24.0421189432869 11.290743007617  24.0421189432869 11.290743007617  C 24.0421189432869 11.290743007617  32.2308384072744 11.5648586237024  32.2308384072744 11.5648586237024  C 32.2308384072744 11.5648586237024  31.0946328929044 7.58413552246377  31.0946328929044 7.58413552246377  C 31.0946328929044 7.58413552246377  42.3526875318545 4.3108725774454  42.3526875318545 4.3108725774454  C 42.3526875318545 4.3108725774454  45.2491015890805 0.0157227401090125  45.2491015890805 0.0157227401090125  Z " fill-rule="evenodd" />
    </mask>
  </defs>
  <g transform="matrix(1 0 0 1 -2723 -4078 )">
    <path d="M 45.2491015890805 0.0157227401090125  C 45.2491015890805 0.0157227401090125  49.9577244415377 4.53863040551634  49.9577244415377 4.53863040551634  C 49.9577244415377 4.53863040551634  50.976929388066 5.87091292193083  50.976929388066 5.87091292193083  C 50.976929388066 5.87091292193083  48.2079159491559 5.41539726578912  48.2079159491559 5.41539726578912  C 48.2079159491559 5.41539726578912  45.0437005922039 7.98523116658861  45.0437005922039 7.98523116658861  C 45.0437005922039 7.98523116658861  42.8674900303562 10.5530495113876  42.8674900303562 10.5530495113876  C 42.8674900303562 10.5530495113876  43.1430913679378 15.9305529210607  43.1430913679378 15.9305529210607  C 43.1430913679378 15.9305529210607  39.3756730834483 17.5752466175723  39.3756730834483 17.5752466175723  C 39.3756730834483 17.5752466175723  38.0782667867197 18.8813269059787  38.0782667867197 18.8813269059787  C 38.0782667867197 18.8813269059787  35.3300534487589 22.5284597689435  35.3300534487589 22.5284597689435  C 35.3300534487589 22.5284597689435  30.475829889655 23.7398089253204  30.475829889655 23.7398089253204  C 30.475829889655 23.7398089253204  27.311614532703 25.7090071379331  27.311614532703 25.7090071379331  C 27.311614532703 25.7090071379331  25.1939245333687 28.8693989469164  25.1939245333687 28.8693989469164  C 25.1939245333687 28.8693989469164  24.3437204070554 29.6736057911666  24.3437204070554 29.6736057911666  C 24.3437204070554 29.6736057911666  29.1342233784084 30.8527060515334  29.1342233784084 30.8527060515334  C 29.1342233784084 30.8527060515334  33.263043416896 34.0211600845192  33.263043416896 34.0211600845192  C 33.263043416896 34.0211600845192  32.2126383189432 35.7605849130604  32.2126383189432 35.7605849130604  C 32.2126383189432 35.7605849130604  29.1082232522215 36.2342405732078  29.1082232522215 36.2342405732078  C 29.1082232522215 36.2342405732078  22.0687093656973 36.5809162053157  22.0687093656973 36.5809162053157  C 22.0687093656973 36.5809162053157  19.2268955734636 39.805805806319  19.2268955734636 39.805805806319  C 19.2268955734636 39.805805806319  15.9742797874757 39.55184575024  15.9742797874757 39.55184575024  C 15.9742797874757 39.55184575024  15.5166775665854 40.1968236704407  15.5166775665854 40.1968236704407  C 15.5166775665854 40.1968236704407  11.9780603925416 38.8423700380193  11.9780603925416 38.8423700380193  C 11.9780603925416 38.8423700380193  11.0966561148035 40.1806992224357  11.0966561148035 40.1806992224357  C 11.0966561148035 40.1806992224357  8.9620457548549 40.7712571306195  8.9620457548549 40.7712571306195  C 8.9620457548549 40.7712571306195  8.70464450560447 39.4309123902024  8.70464450560447 39.4309123902024  C 8.70464450560447 39.4309123902024  6.81703534443164 38.7778722459992  6.81703534443164 38.7778722459992  C 6.81703534443164 38.7778722459992  4.85662582993566 37.6390831056449  4.85662582993566 37.6390831056449  C 4.85662582993566 37.6390831056449  6.85083550847465 34.4807068526622  6.85083550847465 34.4807068526622  C 6.85083550847465 34.4807068526622  8.56944384943199 33.6341733323989  8.56944384943199 33.6341733323989  C 8.56944384943199 33.6341733323989  7.92204070737678 32.3159997079887  7.92204070737678 32.3159997079887  C 7.92204070737678 32.3159997079887  9.77064967926905 28.4038055107715  9.77064967926905 28.4038055107715  C 9.77064967926905 28.4038055107715  9.29484737004789 27.2105963584004  9.29484737004789 27.2105963584004  C 9.29484737004789 27.2105963584004  5.03862671324439 26.4164672941533  5.03862671324439 26.4164672941533  C 5.03862671324439 26.4164672941533  1.60141003132928 24.4513001935418  1.60141003132928 24.4513001935418  C 1.60141003132928 24.4513001935418  7.53723883980999 18.2565045457843  7.53723883980999 18.2565045457843  C 7.53723883980999 18.2565045457843  15.5712778315781 14.2576414405402  15.5712778315781 14.2576414405402  C 15.5712778315781 14.2576414405402  20.5815021478035 8.92851137488215  20.5815021478035 8.92851137488215  C 20.5815021478035 8.92851137488215  24.0421189432869 11.290743007617  24.0421189432869 11.290743007617  C 24.0421189432869 11.290743007617  32.2308384072744 11.5648586237024  32.2308384072744 11.5648586237024  C 32.2308384072744 11.5648586237024  31.0946328929044 7.58413552246377  31.0946328929044 7.58413552246377  C 31.0946328929044 7.58413552246377  42.3526875318545 4.3108725774454  42.3526875318545 4.3108725774454  C 42.3526875318545 4.3108725774454  45.2491015890805 0.0157227401090125  45.2491015890805 0.0157227401090125  Z " fill-rule="nonzero" fill="#f2f2f2" stroke="none" transform="matrix(1 0 0 1 2723 4078 )" />
    <path d="M 45.2491015890805 0.0157227401090125  C 45.2491015890805 0.0157227401090125  49.9577244415377 4.53863040551634  49.9577244415377 4.53863040551634  C 49.9577244415377 4.53863040551634  50.976929388066 5.87091292193083  50.976929388066 5.87091292193083  C 50.976929388066 5.87091292193083  48.2079159491559 5.41539726578912  48.2079159491559 5.41539726578912  C 48.2079159491559 5.41539726578912  45.0437005922039 7.98523116658861  45.0437005922039 7.98523116658861  C 45.0437005922039 7.98523116658861  42.8674900303562 10.5530495113876  42.8674900303562 10.5530495113876  C 42.8674900303562 10.5530495113876  43.1430913679378 15.9305529210607  43.1430913679378 15.9305529210607  C 43.1430913679378 15.9305529210607  39.3756730834483 17.5752466175723  39.3756730834483 17.5752466175723  C 39.3756730834483 17.5752466175723  38.0782667867197 18.8813269059787  38.0782667867197 18.8813269059787  C 38.0782667867197 18.8813269059787  35.3300534487589 22.5284597689435  35.3300534487589 22.5284597689435  C 35.3300534487589 22.5284597689435  30.475829889655 23.7398089253204  30.475829889655 23.7398089253204  C 30.475829889655 23.7398089253204  27.311614532703 25.7090071379331  27.311614532703 25.7090071379331  C 27.311614532703 25.7090071379331  25.1939245333687 28.8693989469164  25.1939245333687 28.8693989469164  C 25.1939245333687 28.8693989469164  24.3437204070554 29.6736057911666  24.3437204070554 29.6736057911666  C 24.3437204070554 29.6736057911666  29.1342233784084 30.8527060515334  29.1342233784084 30.8527060515334  C 29.1342233784084 30.8527060515334  33.263043416896 34.0211600845192  33.263043416896 34.0211600845192  C 33.263043416896 34.0211600845192  32.2126383189432 35.7605849130604  32.2126383189432 35.7605849130604  C 32.2126383189432 35.7605849130604  29.1082232522215 36.2342405732078  29.1082232522215 36.2342405732078  C 29.1082232522215 36.2342405732078  22.0687093656973 36.5809162053157  22.0687093656973 36.5809162053157  C 22.0687093656973 36.5809162053157  19.2268955734636 39.805805806319  19.2268955734636 39.805805806319  C 19.2268955734636 39.805805806319  15.9742797874757 39.55184575024  15.9742797874757 39.55184575024  C 15.9742797874757 39.55184575024  15.5166775665854 40.1968236704407  15.5166775665854 40.1968236704407  C 15.5166775665854 40.1968236704407  11.9780603925416 38.8423700380193  11.9780603925416 38.8423700380193  C 11.9780603925416 38.8423700380193  11.0966561148035 40.1806992224357  11.0966561148035 40.1806992224357  C 11.0966561148035 40.1806992224357  8.9620457548549 40.7712571306195  8.9620457548549 40.7712571306195  C 8.9620457548549 40.7712571306195  8.70464450560447 39.4309123902024  8.70464450560447 39.4309123902024  C 8.70464450560447 39.4309123902024  6.81703534443164 38.7778722459992  6.81703534443164 38.7778722459992  C 6.81703534443164 38.7778722459992  4.85662582993566 37.6390831056449  4.85662582993566 37.6390831056449  C 4.85662582993566 37.6390831056449  6.85083550847465 34.4807068526622  6.85083550847465 34.4807068526622  C 6.85083550847465 34.4807068526622  8.56944384943199 33.6341733323989  8.56944384943199 33.6341733323989  C 8.56944384943199 33.6341733323989  7.92204070737678 32.3159997079887  7.92204070737678 32.3159997079887  C 7.92204070737678 32.3159997079887  9.77064967926905 28.4038055107715  9.77064967926905 28.4038055107715  C 9.77064967926905 28.4038055107715  9.29484737004789 27.2105963584004  9.29484737004789 27.2105963584004  C 9.29484737004789 27.2105963584004  5.03862671324439 26.4164672941533  5.03862671324439 26.4164672941533  C 5.03862671324439 26.4164672941533  1.60141003132928 24.4513001935418  1.60141003132928 24.4513001935418  C 1.60141003132928 24.4513001935418  7.53723883980999 18.2565045457843  7.53723883980999 18.2565045457843  C 7.53723883980999 18.2565045457843  15.5712778315781 14.2576414405402  15.5712778315781 14.2576414405402  C 15.5712778315781 14.2576414405402  20.5815021478035 8.92851137488215  20.5815021478035 8.92851137488215  C 20.5815021478035 8.92851137488215  24.0421189432869 11.290743007617  24.0421189432869 11.290743007617  C 24.0421189432869 11.290743007617  32.2308384072744 11.5648586237024  32.2308384072744 11.5648586237024  C 32.2308384072744 11.5648586237024  31.0946328929044 7.58413552246377  31.0946328929044 7.58413552246377  C 31.0946328929044 7.58413552246377  42.3526875318545 4.3108725774454  42.3526875318545 4.3108725774454  C 42.3526875318545 4.3108725774454  45.2491015890805 0.0157227401090125  45.2491015890805 0.0157227401090125  Z " stroke-width="2" stroke="#505050" fill="none" stroke-opacity="0.211764705882353" transform="matrix(1 0 0 1 2723 4078 )" mask="url(#clip147)" />
  </g>
</svg>