<?xml version="1.0" encoding="utf-8"?>
<svg version="1.1" xmlns:xlink="http://www.w3.org/1999/xlink" width="27px" height="32px" xmlns="http://www.w3.org/2000/svg">
  <defs>
    <mask fill="white" id="clip148">
      <path d="M 18.0967494568752 2.06816417084495  C 18.0967494568752 2.06816417084495  19.0977237266891 0.340309795708725  19.0977237266891 0.340309795708725  C 19.0977237266891 0.340309795708725  25.0936587092378 8.71329588704107  25.0936587092378 8.71329588704107  C 25.0936587092378 8.71329588704107  26.8131541133238 13.2581735597633  26.8131541133238 13.2581735597633  C 26.8131541133238 13.2581735597633  26.8676626131656 22.691281801004  26.8676626131656 22.691281801004  C 26.8676626131656 22.691281801004  24.2487769616971 26.459325756979  24.2487769616971 26.459325756979  C 24.2487769616971 26.459325756979  17.9580005481884 27.7687310424241  17.9580005481884 27.7687310424241  C 17.9580005481884 27.7687310424241  10.6055665416216 30.5877564887647  10.6055665416216 30.5877564887647  C 10.6055665416216 30.5877564887647  4.34699969620096 31.1683796275706  4.34699969620096 31.1683796275706  C 4.34699969620096 31.1683796275706  3.57149240300387 27.4684087292487  3.57149240300387 27.4684087292487  C 3.57149240300387 27.4684087292487  4.85739746744298 22.3308950251934  4.85739746744298 22.3308950251934  C 4.85739746744298 22.3308950251934  1.78757786274141 13.666611905682  1.78757786274141 13.666611905682  C 1.78757786274141 13.666611905682  6.94854173408367 12.4913505867886  6.94854173408367 12.4913505867886  C 6.94854173408367 12.4913505867886  2.18648097521664 6.47489357950657  2.18648097521664 6.47489357950657  C 2.18648097521664 6.47489357950657  2.62254897394746 5.8342059780655  2.62254897394746 5.8342059780655  C 2.62254897394746 5.8342059780655  5.72210048765351 6.08647672113288  5.72210048765351 6.08647672113288  C 5.72210048765351 6.08647672113288  8.43018186613504 2.88303871392782  8.43018186613504 2.88303871392782  C 8.43018186613504 2.88303871392782  13.3384245109401 2.53866912815325  13.3384245109401 2.53866912815325  C 13.3384245109401 2.53866912815325  18.0967494568752 2.06816417084495  18.0967494568752 2.06816417084495  Z " fill-rule="evenodd" />
    </mask>
  </defs>
  <g transform="matrix(1 0 0 1 -2735 -4109 )">
    <path d="M 18.0967494568752 2.06816417084495  C 18.0967494568752 2.06816417084495  19.0977237266891 0.340309795708725  19.0977237266891 0.340309795708725  C 19.0977237266891 0.340309795708725  25.0936587092378 8.71329588704107  25.0936587092378 8.71329588704107  C 25.0936587092378 8.71329588704107  26.8131541133238 13.2581735597633  26.8131541133238 13.2581735597633  C 26.8131541133238 13.2581735597633  26.8676626131656 22.691281801004  26.8676626131656 22.691281801004  C 26.8676626131656 22.691281801004  24.2487769616971 26.459325756979  24.2487769616971 26.459325756979  C 24.2487769616971 26.459325756979  17.9580005481884 27.7687310424241  17.9580005481884 27.7687310424241  C 17.9580005481884 27.7687310424241  10.6055665416216 30.5877564887647  10.6055665416216 30.5877564887647  C 10.6055665416216 30.5877564887647  4.34699969620096 31.1683796275706  4.34699969620096 31.1683796275706  C 4.34699969620096 31.1683796275706  3.57149240300387 27.4684087292487  3.57149240300387 27.4684087292487  C 3.57149240300387 27.4684087292487  4.85739746744298 22.3308950251934  4.85739746744298 22.3308950251934  C 4.85739746744298 22.3308950251934  1.78757786274141 13.666611905682  1.78757786274141 13.666611905682  C 1.78757786274141 13.666611905682  6.94854173408367 12.4913505867886  6.94854173408367 12.4913505867886  C 6.94854173408367 12.4913505867886  2.18648097521664 6.47489357950657  2.18648097521664 6.47489357950657  C 2.18648097521664 6.47489357950657  2.62254897394746 5.8342059780655  2.62254897394746 5.8342059780655  C 2.62254897394746 5.8342059780655  5.72210048765351 6.08647672113288  5.72210048765351 6.08647672113288  C 5.72210048765351 6.08647672113288  8.43018186613504 2.88303871392782  8.43018186613504 2.88303871392782  C 8.43018186613504 2.88303871392782  13.3384245109401 2.53866912815325  13.3384245109401 2.53866912815325  C 13.3384245109401 2.53866912815325  18.0967494568752 2.06816417084495  18.0967494568752 2.06816417084495  Z " fill-rule="nonzero" fill="#55efc4" stroke="none" transform="matrix(1 0 0 1 2735 4109 )" />
    <path d="M 18.0967494568752 2.06816417084495  C 18.0967494568752 2.06816417084495  19.0977237266891 0.340309795708725  19.0977237266891 0.340309795708725  C 19.0977237266891 0.340309795708725  25.0936587092378 8.71329588704107  25.0936587092378 8.71329588704107  C 25.0936587092378 8.71329588704107  26.8131541133238 13.2581735597633  26.8131541133238 13.2581735597633  C 26.8131541133238 13.2581735597633  26.8676626131656 22.691281801004  26.8676626131656 22.691281801004  C 26.8676626131656 22.691281801004  24.2487769616971 26.459325756979  24.2487769616971 26.459325756979  C 24.2487769616971 26.459325756979  17.9580005481884 27.7687310424241  17.9580005481884 27.7687310424241  C 17.9580005481884 27.7687310424241  10.6055665416216 30.5877564887647  10.6055665416216 30.5877564887647  C 10.6055665416216 30.5877564887647  4.34699969620096 31.1683796275706  4.34699969620096 31.1683796275706  C 4.34699969620096 31.1683796275706  3.57149240300387 27.4684087292487  3.57149240300387 27.4684087292487  C 3.57149240300387 27.4684087292487  4.85739746744298 22.3308950251934  4.85739746744298 22.3308950251934  C 4.85739746744298 22.3308950251934  1.78757786274141 13.666611905682  1.78757786274141 13.666611905682  C 1.78757786274141 13.666611905682  6.94854173408367 12.4913505867886  6.94854173408367 12.4913505867886  C 6.94854173408367 12.4913505867886  2.18648097521664 6.47489357950657  2.18648097521664 6.47489357950657  C 2.18648097521664 6.47489357950657  2.62254897394746 5.8342059780655  2.62254897394746 5.8342059780655  C 2.62254897394746 5.8342059780655  5.72210048765351 6.08647672113288  5.72210048765351 6.08647672113288  C 5.72210048765351 6.08647672113288  8.43018186613504 2.88303871392782  8.43018186613504 2.88303871392782  C 8.43018186613504 2.88303871392782  13.3384245109401 2.53866912815325  13.3384245109401 2.53866912815325  C 13.3384245109401 2.53866912815325  18.0967494568752 2.06816417084495  18.0967494568752 2.06816417084495  Z " stroke-width="2" stroke="#505050" fill="none" stroke-opacity="0.211764705882353" transform="matrix(1 0 0 1 2735 4109 )" mask="url(#clip148)" />
  </g>
</svg>