<?xml version="1.0" encoding="utf-8"?>
<svg version="1.1" xmlns:xlink="http://www.w3.org/1999/xlink" width="17px" height="14px" xmlns="http://www.w3.org/2000/svg">
  <defs>
    <mask fill="white" id="clip152">
      <path d="M 12.5821910912181 11.0105765935207  C 12.5821910912181 11.0105765935207  6.38768130576957 12.2588885343318  6.38768130576957 12.2588885343318  C 6.38768130576957 12.2588885343318  6.06007971581413 13.907602418422  6.06007971581413 13.907602418422  C 6.06007971581413 13.907602418422  5.1344752235585 13.8412256256859  5.1344752235585 13.8412256256859  C 5.1344752235585 13.8412256256859  4.64307283862533 10.9206467452976  4.64307283862533 10.9206467452976  C 4.64307283862533 10.9206467452976  2.89846437148066 10.09414861639  2.89846437148066 10.09414861639  C 2.89846437148066 10.09414861639  1.34625683811982 6.36314720858046  1.34625683811982 6.36314720858046  C 1.34625683811982 6.36314720858046  2.70866345031604 4.53885600176894  2.70866345031604 4.53885600176894  C 2.70866345031604 4.53885600176894  4.45327191746028 3.95217080145633  4.45327191746028 3.95217080145633  C 4.45327191746028 3.95217080145633  5.46207681351416 1.23286348613878  5.46207681351416 1.23286348613878  C 5.46207681351416 1.23286348613878  6.76988316071781 0.778931871298331  6.76988316071781 0.778931871298331  C 6.76988316071781 0.778931871298331  9.69357707184747 1.93731396388634  9.69357707184747 1.93731396388634  C 9.69357707184747 1.93731396388634  11.0559836840437 2.44691643715066  11.0559836840437 2.44691643715066  C 11.0559836840437 2.44691643715066  12.010188315105 3.74661686266066  12.010188315105 3.74661686266066  C 12.010188315105 3.74661686266066  13.2087941323235 4.13203049790254  13.2087941323235 4.13203049790254  C 13.2087941323235 4.13203049790254  14.6258010095123 5.64156723593308  14.6258010095123 5.64156723593308  C 14.6258010095123 5.64156723593308  15.6606060317529 5.59660231182163  15.6606060317529 5.59660231182163  C 15.6606060317529 5.59660231182163  14.8442020694828 9.13061452828538  14.8442020694828 9.13061452828538  C 14.8442020694828 9.13061452828538  13.9705978296012 10.09414861639  13.9705978296012 10.09414861639  C 13.9705978296012 10.09414861639  14.2123990031396 10.7001044984647  14.2123990031396 10.7001044984647  C 14.2123990031396 10.7001044984647  12.5821910912181 11.0105765935207  12.5821910912181 11.0105765935207  Z " fill-rule="evenodd" />
    </mask>
  </defs>
  <g transform="matrix(1 0 0 1 -1981 -4075 )">
    <path d="M 12.5821910912181 11.0105765935207  C 12.5821910912181 11.0105765935207  6.38768130576957 12.2588885343318  6.38768130576957 12.2588885343318  C 6.38768130576957 12.2588885343318  6.06007971581413 13.907602418422  6.06007971581413 13.907602418422  C 6.06007971581413 13.907602418422  5.1344752235585 13.8412256256859  5.1344752235585 13.8412256256859  C 5.1344752235585 13.8412256256859  4.64307283862533 10.9206467452976  4.64307283862533 10.9206467452976  C 4.64307283862533 10.9206467452976  2.89846437148066 10.09414861639  2.89846437148066 10.09414861639  C 2.89846437148066 10.09414861639  1.34625683811982 6.36314720858046  1.34625683811982 6.36314720858046  C 1.34625683811982 6.36314720858046  2.70866345031604 4.53885600176894  2.70866345031604 4.53885600176894  C 2.70866345031604 4.53885600176894  4.45327191746028 3.95217080145633  4.45327191746028 3.95217080145633  C 4.45327191746028 3.95217080145633  5.46207681351416 1.23286348613878  5.46207681351416 1.23286348613878  C 5.46207681351416 1.23286348613878  6.76988316071781 0.778931871298331  6.76988316071781 0.778931871298331  C 6.76988316071781 0.778931871298331  9.69357707184747 1.93731396388634  9.69357707184747 1.93731396388634  C 9.69357707184747 1.93731396388634  11.0559836840437 2.44691643715066  11.0559836840437 2.44691643715066  C 11.0559836840437 2.44691643715066  12.010188315105 3.74661686266066  12.010188315105 3.74661686266066  C 12.010188315105 3.74661686266066  13.2087941323235 4.13203049790254  13.2087941323235 4.13203049790254  C 13.2087941323235 4.13203049790254  14.6258010095123 5.64156723593308  14.6258010095123 5.64156723593308  C 14.6258010095123 5.64156723593308  15.6606060317529 5.59660231182163  15.6606060317529 5.59660231182163  C 15.6606060317529 5.59660231182163  14.8442020694828 9.13061452828538  14.8442020694828 9.13061452828538  C 14.8442020694828 9.13061452828538  13.9705978296012 10.09414861639  13.9705978296012 10.09414861639  C 13.9705978296012 10.09414861639  14.2123990031396 10.7001044984647  14.2123990031396 10.7001044984647  C 14.2123990031396 10.7001044984647  12.5821910912181 11.0105765935207  12.5821910912181 11.0105765935207  Z " fill-rule="nonzero" fill="#f2f2f2" stroke="none" transform="matrix(1 0 0 1 1981 4075 )" />
    <path d="M 12.5821910912181 11.0105765935207  C 12.5821910912181 11.0105765935207  6.38768130576957 12.2588885343318  6.38768130576957 12.2588885343318  C 6.38768130576957 12.2588885343318  6.06007971581413 13.907602418422  6.06007971581413 13.907602418422  C 6.06007971581413 13.907602418422  5.1344752235585 13.8412256256859  5.1344752235585 13.8412256256859  C 5.1344752235585 13.8412256256859  4.64307283862533 10.9206467452976  4.64307283862533 10.9206467452976  C 4.64307283862533 10.9206467452976  2.89846437148066 10.09414861639  2.89846437148066 10.09414861639  C 2.89846437148066 10.09414861639  1.34625683811982 6.36314720858046  1.34625683811982 6.36314720858046  C 1.34625683811982 6.36314720858046  2.70866345031604 4.53885600176894  2.70866345031604 4.53885600176894  C 2.70866345031604 4.53885600176894  4.45327191746028 3.95217080145633  4.45327191746028 3.95217080145633  C 4.45327191746028 3.95217080145633  5.46207681351416 1.23286348613878  5.46207681351416 1.23286348613878  C 5.46207681351416 1.23286348613878  6.76988316071781 0.778931871298331  6.76988316071781 0.778931871298331  C 6.76988316071781 0.778931871298331  9.69357707184747 1.93731396388634  9.69357707184747 1.93731396388634  C 9.69357707184747 1.93731396388634  11.0559836840437 2.44691643715066  11.0559836840437 2.44691643715066  C 11.0559836840437 2.44691643715066  12.010188315105 3.74661686266066  12.010188315105 3.74661686266066  C 12.010188315105 3.74661686266066  13.2087941323235 4.13203049790254  13.2087941323235 4.13203049790254  C 13.2087941323235 4.13203049790254  14.6258010095123 5.64156723593308  14.6258010095123 5.64156723593308  C 14.6258010095123 5.64156723593308  15.6606060317529 5.59660231182163  15.6606060317529 5.59660231182163  C 15.6606060317529 5.59660231182163  14.8442020694828 9.13061452828538  14.8442020694828 9.13061452828538  C 14.8442020694828 9.13061452828538  13.9705978296012 10.09414861639  13.9705978296012 10.09414861639  C 13.9705978296012 10.09414861639  14.2123990031396 10.7001044984647  14.2123990031396 10.7001044984647  C 14.2123990031396 10.7001044984647  12.5821910912181 11.0105765935207  12.5821910912181 11.0105765935207  Z " stroke-width="2" stroke="#505050" fill="none" stroke-opacity="0.211764705882353" transform="matrix(1 0 0 1 1981 4075 )" mask="url(#clip152)" />
  </g>
</svg>