<?xml version="1.0" encoding="utf-8"?>
<svg version="1.1" xmlns:xlink="http://www.w3.org/1999/xlink" width="18px" height="12px" xmlns="http://www.w3.org/2000/svg">
  <defs>
    <mask fill="white" id="clip153">
      <path d="M 6.86208525180405 0.149246461868643  C 6.86208525180405 0.149246461868643  13.3324726245745 0.704655039797558  13.3324726245745 0.704655039797558  C 13.3324726245745 0.704655039797558  14.7819031885374 3.63242219036715  14.7819031885374 3.63242219036715  C 14.7819031885374 3.63242219036715  14.1600107585294 5.14172951551961  14.1600107585294 5.14172951551961  C 14.1600107585294 5.14172951551961  16.3973369111085 11.6053065465272  16.3973369111085 11.6053065465272  C 16.3973369111085 11.6053065465272  11.4841389481359 11.77461325058  11.4841389481359 11.77461325058  C 11.4841389481359 11.77461325058  7.95473290771488 8.64450394150867  7.95473290771488 8.64450394150867  C 7.95473290771488 8.64450394150867  1.76554051663788 8.00857144335964  1.76554051663788 8.00857144335964  C 1.76554051663788 8.00857144335964  6.86208525180405 0.149246461868643  6.86208525180405 0.149246461868643  Z " fill-rule="evenodd" />
    </mask>
  </defs>
  <g transform="matrix(1 0 0 1 -2169 -4168 )">
    <path d="M 6.86208525180405 0.149246461868643  C 6.86208525180405 0.149246461868643  13.3324726245745 0.704655039797558  13.3324726245745 0.704655039797558  C 13.3324726245745 0.704655039797558  14.7819031885374 3.63242219036715  14.7819031885374 3.63242219036715  C 14.7819031885374 3.63242219036715  14.1600107585294 5.14172951551961  14.1600107585294 5.14172951551961  C 14.1600107585294 5.14172951551961  16.3973369111085 11.6053065465272  16.3973369111085 11.6053065465272  C 16.3973369111085 11.6053065465272  11.4841389481359 11.77461325058  11.4841389481359 11.77461325058  C 11.4841389481359 11.77461325058  7.95473290771488 8.64450394150867  7.95473290771488 8.64450394150867  C 7.95473290771488 8.64450394150867  1.76554051663788 8.00857144335964  1.76554051663788 8.00857144335964  C 1.76554051663788 8.00857144335964  6.86208525180405 0.149246461868643  6.86208525180405 0.149246461868643  Z " fill-rule="nonzero" fill="#f2f2f2" stroke="none" transform="matrix(1 0 0 1 2169 4168 )" />
    <path d="M 6.86208525180405 0.149246461868643  C 6.86208525180405 0.149246461868643  13.3324726245745 0.704655039797558  13.3324726245745 0.704655039797558  C 13.3324726245745 0.704655039797558  14.7819031885374 3.63242219036715  14.7819031885374 3.63242219036715  C 14.7819031885374 3.63242219036715  14.1600107585294 5.14172951551961  14.1600107585294 5.14172951551961  C 14.1600107585294 5.14172951551961  16.3973369111085 11.6053065465272  16.3973369111085 11.6053065465272  C 16.3973369111085 11.6053065465272  11.4841389481359 11.77461325058  11.4841389481359 11.77461325058  C 11.4841389481359 11.77461325058  7.95473290771488 8.64450394150867  7.95473290771488 8.64450394150867  C 7.95473290771488 8.64450394150867  1.76554051663788 8.00857144335964  1.76554051663788 8.00857144335964  C 1.76554051663788 8.00857144335964  6.86208525180405 0.149246461868643  6.86208525180405 0.149246461868643  Z " stroke-width="2" stroke="#505050" fill="none" stroke-opacity="0.211764705882353" transform="matrix(1 0 0 1 2169 4168 )" mask="url(#clip153)" />
  </g>
</svg>