<?xml version="1.0" encoding="utf-8"?>
<svg version="1.1" xmlns:xlink="http://www.w3.org/1999/xlink" width="15px" height="14px" xmlns="http://www.w3.org/2000/svg">
  <defs>
    <mask fill="white" id="clip154">
      <path d="M 10.2144932072834 7.85625585246159  C 10.2144932072834 7.85625585246159  6.56383753063281 11.7810513713413  6.56383753063281 11.7810513713413  C 6.56383753063281 11.7810513713413  4.62300458173615 11.8752635932893  4.62300458173615 11.8752635932893  C 4.62300458173615 11.8752635932893  3.95713370299262 13.1257167209629  3.95713370299262 13.1257167209629  C 3.95713370299262 13.1257167209629  1.53367341175084 13.1128695997881  1.53367341175084 13.1128695997881  C 1.53367341175084 13.1128695997881  4.11198739572384 5.72043865718081  4.11198739572384 5.72043865718081  C 4.11198739572384 5.72043865718081  9.58475485684318 0.626555111400838  9.58475485684318 0.626555111400838  C 9.58475485684318 0.626555111400838  9.72154228542252 0.371753874768678  9.72154228542252 0.371753874768678  C 9.72154228542252 0.371753874768678  12.9760507276544 0.74217920197336  12.9760507276544 0.74217920197336  C 12.9760507276544 0.74217920197336  14.1606814770476 3.58353416845091  14.1606814770476 3.58353416845091  C 14.1606814770476 3.58353416845091  10.2144932072834 7.85625585246159  10.2144932072834 7.85625585246159  Z " fill-rule="evenodd" />
    </mask>
  </defs>
  <g transform="matrix(1 0 0 1 -2088 -4138 )">
    <path d="M 10.2144932072834 7.85625585246159  C 10.2144932072834 7.85625585246159  6.56383753063281 11.7810513713413  6.56383753063281 11.7810513713413  C 6.56383753063281 11.7810513713413  4.62300458173615 11.8752635932893  4.62300458173615 11.8752635932893  C 4.62300458173615 11.8752635932893  3.95713370299262 13.1257167209629  3.95713370299262 13.1257167209629  C 3.95713370299262 13.1257167209629  1.53367341175084 13.1128695997881  1.53367341175084 13.1128695997881  C 1.53367341175084 13.1128695997881  4.11198739572384 5.72043865718081  4.11198739572384 5.72043865718081  C 4.11198739572384 5.72043865718081  9.58475485684318 0.626555111400838  9.58475485684318 0.626555111400838  C 9.58475485684318 0.626555111400838  9.72154228542252 0.371753874768678  9.72154228542252 0.371753874768678  C 9.72154228542252 0.371753874768678  12.9760507276544 0.74217920197336  12.9760507276544 0.74217920197336  C 12.9760507276544 0.74217920197336  14.1606814770476 3.58353416845091  14.1606814770476 3.58353416845091  C 14.1606814770476 3.58353416845091  10.2144932072834 7.85625585246159  10.2144932072834 7.85625585246159  Z " fill-rule="nonzero" fill="#f2f2f2" stroke="none" transform="matrix(1 0 0 1 2088 4138 )" />
    <path d="M 10.2144932072834 7.85625585246159  C 10.2144932072834 7.85625585246159  6.56383753063281 11.7810513713413  6.56383753063281 11.7810513713413  C 6.56383753063281 11.7810513713413  4.62300458173615 11.8752635932893  4.62300458173615 11.8752635932893  C 4.62300458173615 11.8752635932893  3.95713370299262 13.1257167209629  3.95713370299262 13.1257167209629  C 3.95713370299262 13.1257167209629  1.53367341175084 13.1128695997881  1.53367341175084 13.1128695997881  C 1.53367341175084 13.1128695997881  4.11198739572384 5.72043865718081  4.11198739572384 5.72043865718081  C 4.11198739572384 5.72043865718081  9.58475485684318 0.626555111400838  9.58475485684318 0.626555111400838  C 9.58475485684318 0.626555111400838  9.72154228542252 0.371753874768678  9.72154228542252 0.371753874768678  C 9.72154228542252 0.371753874768678  12.9760507276544 0.74217920197336  12.9760507276544 0.74217920197336  C 12.9760507276544 0.74217920197336  14.1606814770476 3.58353416845091  14.1606814770476 3.58353416845091  C 14.1606814770476 3.58353416845091  10.2144932072834 7.85625585246159  10.2144932072834 7.85625585246159  Z " stroke-width="2" stroke="#505050" fill="none" stroke-opacity="0.211764705882353" transform="matrix(1 0 0 1 2088 4138 )" mask="url(#clip154)" />
  </g>
</svg>