<?xml version="1.0" encoding="utf-8"?>
<svg version="1.1" xmlns:xlink="http://www.w3.org/1999/xlink" width="18px" height="24px" xmlns="http://www.w3.org/2000/svg">
  <defs>
    <mask fill="white" id="clip155">
      <path d="M 14.4746693142925 7.24531957029734  C 14.4746693142925 7.24531957029734  17.8318973727025 14.3508420136185  17.8318973727025 14.3508420136185  C 17.8318973727025 14.3508420136185  16.7863252393824 20.0290536548457  16.7863252393824 20.0290536548457  C 16.7863252393824 20.0290536548457  13.8750758160375 21.5778334899098  13.8750758160375 21.5778334899098  C 13.8750758160375 21.5778334899098  6.0320653108985 22.8234644488515  6.0320653108985 22.8234644488515  C 6.0320653108985 22.8234644488515  2.72439043416193 18.4938766539662  2.72439043416193 18.4938766539662  C 2.72439043416193 18.4938766539662  1.49299386956423 9.23521988536135  1.49299386956423 9.23521988536135  C 1.49299386956423 9.23521988536135  4.63962090586056 0.338966328366737  4.63962090586056 0.338966328366737  C 4.63962090586056 0.338966328366737  11.2388465509832 3.38794444783482  11.2388465509832 3.38794444783482  C 11.2388465509832 3.38794444783482  14.4746693142925 7.24531957029734  14.4746693142925 7.24531957029734  Z " fill-rule="evenodd" />
    </mask>
  </defs>
  <g transform="matrix(1 0 0 1 -2405 -4287 )">
    <path d="M 14.4746693142925 7.24531957029734  C 14.4746693142925 7.24531957029734  17.8318973727025 14.3508420136185  17.8318973727025 14.3508420136185  C 17.8318973727025 14.3508420136185  16.7863252393824 20.0290536548457  16.7863252393824 20.0290536548457  C 16.7863252393824 20.0290536548457  13.8750758160375 21.5778334899098  13.8750758160375 21.5778334899098  C 13.8750758160375 21.5778334899098  6.0320653108985 22.8234644488515  6.0320653108985 22.8234644488515  C 6.0320653108985 22.8234644488515  2.72439043416193 18.4938766539662  2.72439043416193 18.4938766539662  C 2.72439043416193 18.4938766539662  1.49299386956423 9.23521988536135  1.49299386956423 9.23521988536135  C 1.49299386956423 9.23521988536135  4.63962090586056 0.338966328366737  4.63962090586056 0.338966328366737  C 4.63962090586056 0.338966328366737  11.2388465509832 3.38794444783482  11.2388465509832 3.38794444783482  C 11.2388465509832 3.38794444783482  14.4746693142925 7.24531957029734  14.4746693142925 7.24531957029734  Z " fill-rule="nonzero" fill="#f2f2f2" stroke="none" transform="matrix(1 0 0 1 2405 4287 )" />
    <path d="M 14.4746693142925 7.24531957029734  C 14.4746693142925 7.24531957029734  17.8318973727025 14.3508420136185  17.8318973727025 14.3508420136185  C 17.8318973727025 14.3508420136185  16.7863252393824 20.0290536548457  16.7863252393824 20.0290536548457  C 16.7863252393824 20.0290536548457  13.8750758160375 21.5778334899098  13.8750758160375 21.5778334899098  C 13.8750758160375 21.5778334899098  6.0320653108985 22.8234644488515  6.0320653108985 22.8234644488515  C 6.0320653108985 22.8234644488515  2.72439043416193 18.4938766539662  2.72439043416193 18.4938766539662  C 2.72439043416193 18.4938766539662  1.49299386956423 9.23521988536135  1.49299386956423 9.23521988536135  C 1.49299386956423 9.23521988536135  4.63962090586056 0.338966328366737  4.63962090586056 0.338966328366737  C 4.63962090586056 0.338966328366737  11.2388465509832 3.38794444783482  11.2388465509832 3.38794444783482  C 11.2388465509832 3.38794444783482  14.4746693142925 7.24531957029734  14.4746693142925 7.24531957029734  Z " stroke-width="2" stroke="#505050" fill="none" stroke-opacity="0.211764705882353" transform="matrix(1 0 0 1 2405 4287 )" mask="url(#clip155)" />
  </g>
</svg>