<?xml version="1.0" encoding="utf-8"?>
<svg version="1.1" xmlns:xlink="http://www.w3.org/1999/xlink" width="32px" height="26px" xmlns="http://www.w3.org/2000/svg">
  <defs>
    <mask fill="white" id="clip156">
      <path d="M 29.7107586679851 20.4718901200034  C 29.7107586679851 20.4718901200034  29.1510992043734 25.0488299804194  29.1510992043734 25.0488299804194  C 29.1510992043734 25.0488299804194  27.2492934345077 25.0965478590683  27.2492934345077 25.0965478590683  C 27.2492934345077 25.0965478590683  19.7612570926657 22.4482055940494  19.7612570926657 22.4482055940494  C 19.7612570926657 22.4482055940494  11.2769952936991 18.2152321088948  11.2769952936991 18.2152321088948  C 11.2769952936991 18.2152321088948  5.08705798551219 15.1712291000778  5.08705798551219 15.1712291000778  C 5.08705798551219 15.1712291000778  0.195219710980061 10.1300495524654  0.195219710980061 10.1300495524654  C 0.195219710980061 10.1300495524654  1.93379147062575 8.34460559301568  1.93379147062575 8.34460559301568  C 1.93379147062575 8.34460559301568  2.31726184384131 6.72219771894983  2.31726184384131 6.72219771894983  C 2.31726184384131 6.72219771894983  5.59489712841905 3.68813593485147  5.59489712841905 3.68813593485147  C 5.59489712841905 3.68813593485147  8.97617305440658 1.07757032376276  8.97617305440658 1.07757032376276  C 8.97617305440658 1.07757032376276  10.528191659515 0.952310892309369  10.528191659515 0.952310892309369  C 10.528191659515 0.952310892309369  12.4248153973103 0.322037245153903  12.4248153973103 0.322037245153903  C 12.4248153973103 0.322037245153903  17.3464301478226 3.74977152810652  17.3464301478226 3.74977152810652  C 17.3464301478226 3.74977152810652  16.864501165268 5.99450006955276  16.864501165268 5.99450006955276  C 16.864501165268 5.99450006955276  18.2791959205086 7.18347054589028  18.2791959205086 7.18347054589028  C 18.2791959205086 7.18347054589028  20.3338716364537 7.21130597510208  20.3338716364537 7.21130597510208  C 20.3338716364537 7.21130597510208  21.8133417925753 4.96061269882469  21.8133417925753 4.96061269882469  C 21.8133417925753 4.96061269882469  23.8680175085202 5.10575457971544  23.8680175085202 5.10575457971544  C 23.8680175085202 5.10575457971544  23.5337764399744 6.7281624537813  23.5337764399744 6.7281624537813  C 23.5337764399744 6.7281624537813  24.2592609298412 9.42819908733653  24.2592609298412 9.42819908733653  C 24.2592609298412 9.42819908733653  22.6813321643805 11.9035640422532  22.6813321643805 11.9035640422532  C 22.6813321643805 11.9035640422532  24.7981922651711 14.8789570933527  24.7981922651711 14.8789570933527  C 24.7981922651711 14.8789570933527  27.1067875525694 15.2507588978263  27.1067875525694 15.2507588978263  C 27.1067875525694 15.2507588978263  30.1823235863986 17.5829702167958  30.1823235863986 17.5829702167958  C 30.1823235863986 17.5829702167958  30.4051509654292 19.774016144762  30.4051509654292 19.774016144762  C 30.4051509654292 19.774016144762  29.7107586679851 20.4718901200034  29.7107586679851 20.4718901200034  Z " fill-rule="evenodd" />
    </mask>
  </defs>
  <g transform="matrix(1 0 0 1 -1758 -4294 )">
    <path d="M 29.7107586679851 20.4718901200034  C 29.7107586679851 20.4718901200034  29.1510992043734 25.0488299804194  29.1510992043734 25.0488299804194  C 29.1510992043734 25.0488299804194  27.2492934345077 25.0965478590683  27.2492934345077 25.0965478590683  C 27.2492934345077 25.0965478590683  19.7612570926657 22.4482055940494  19.7612570926657 22.4482055940494  C 19.7612570926657 22.4482055940494  11.2769952936991 18.2152321088948  11.2769952936991 18.2152321088948  C 11.2769952936991 18.2152321088948  5.08705798551219 15.1712291000778  5.08705798551219 15.1712291000778  C 5.08705798551219 15.1712291000778  0.195219710980061 10.1300495524654  0.195219710980061 10.1300495524654  C 0.195219710980061 10.1300495524654  1.93379147062575 8.34460559301568  1.93379147062575 8.34460559301568  C 1.93379147062575 8.34460559301568  2.31726184384131 6.72219771894983  2.31726184384131 6.72219771894983  C 2.31726184384131 6.72219771894983  5.59489712841905 3.68813593485147  5.59489712841905 3.68813593485147  C 5.59489712841905 3.68813593485147  8.97617305440658 1.07757032376276  8.97617305440658 1.07757032376276  C 8.97617305440658 1.07757032376276  10.528191659515 0.952310892309369  10.528191659515 0.952310892309369  C 10.528191659515 0.952310892309369  12.4248153973103 0.322037245153903  12.4248153973103 0.322037245153903  C 12.4248153973103 0.322037245153903  17.3464301478226 3.74977152810652  17.3464301478226 3.74977152810652  C 17.3464301478226 3.74977152810652  16.864501165268 5.99450006955276  16.864501165268 5.99450006955276  C 16.864501165268 5.99450006955276  18.2791959205086 7.18347054589028  18.2791959205086 7.18347054589028  C 18.2791959205086 7.18347054589028  20.3338716364537 7.21130597510208  20.3338716364537 7.21130597510208  C 20.3338716364537 7.21130597510208  21.8133417925753 4.96061269882469  21.8133417925753 4.96061269882469  C 21.8133417925753 4.96061269882469  23.8680175085202 5.10575457971544  23.8680175085202 5.10575457971544  C 23.8680175085202 5.10575457971544  23.5337764399744 6.7281624537813  23.5337764399744 6.7281624537813  C 23.5337764399744 6.7281624537813  24.2592609298412 9.42819908733653  24.2592609298412 9.42819908733653  C 24.2592609298412 9.42819908733653  22.6813321643805 11.9035640422532  22.6813321643805 11.9035640422532  C 22.6813321643805 11.9035640422532  24.7981922651711 14.8789570933527  24.7981922651711 14.8789570933527  C 24.7981922651711 14.8789570933527  27.1067875525694 15.2507588978263  27.1067875525694 15.2507588978263  C 27.1067875525694 15.2507588978263  30.1823235863986 17.5829702167958  30.1823235863986 17.5829702167958  C 30.1823235863986 17.5829702167958  30.4051509654292 19.774016144762  30.4051509654292 19.774016144762  C 30.4051509654292 19.774016144762  29.7107586679851 20.4718901200034  29.7107586679851 20.4718901200034  Z " fill-rule="nonzero" fill="#f2f2f2" stroke="none" transform="matrix(1 0 0 1 1758 4294 )" />
    <path d="M 29.7107586679851 20.4718901200034  C 29.7107586679851 20.4718901200034  29.1510992043734 25.0488299804194  29.1510992043734 25.0488299804194  C 29.1510992043734 25.0488299804194  27.2492934345077 25.0965478590683  27.2492934345077 25.0965478590683  C 27.2492934345077 25.0965478590683  19.7612570926657 22.4482055940494  19.7612570926657 22.4482055940494  C 19.7612570926657 22.4482055940494  11.2769952936991 18.2152321088948  11.2769952936991 18.2152321088948  C 11.2769952936991 18.2152321088948  5.08705798551219 15.1712291000778  5.08705798551219 15.1712291000778  C 5.08705798551219 15.1712291000778  0.195219710980061 10.1300495524654  0.195219710980061 10.1300495524654  C 0.195219710980061 10.1300495524654  1.93379147062575 8.34460559301568  1.93379147062575 8.34460559301568  C 1.93379147062575 8.34460559301568  2.31726184384131 6.72219771894983  2.31726184384131 6.72219771894983  C 2.31726184384131 6.72219771894983  5.59489712841905 3.68813593485147  5.59489712841905 3.68813593485147  C 5.59489712841905 3.68813593485147  8.97617305440658 1.07757032376276  8.97617305440658 1.07757032376276  C 8.97617305440658 1.07757032376276  10.528191659515 0.952310892309369  10.528191659515 0.952310892309369  C 10.528191659515 0.952310892309369  12.4248153973103 0.322037245153903  12.4248153973103 0.322037245153903  C 12.4248153973103 0.322037245153903  17.3464301478226 3.74977152810652  17.3464301478226 3.74977152810652  C 17.3464301478226 3.74977152810652  16.864501165268 5.99450006955276  16.864501165268 5.99450006955276  C 16.864501165268 5.99450006955276  18.2791959205086 7.18347054589028  18.2791959205086 7.18347054589028  C 18.2791959205086 7.18347054589028  20.3338716364537 7.21130597510208  20.3338716364537 7.21130597510208  C 20.3338716364537 7.21130597510208  21.8133417925753 4.96061269882469  21.8133417925753 4.96061269882469  C 21.8133417925753 4.96061269882469  23.8680175085202 5.10575457971544  23.8680175085202 5.10575457971544  C 23.8680175085202 5.10575457971544  23.5337764399744 6.7281624537813  23.5337764399744 6.7281624537813  C 23.5337764399744 6.7281624537813  24.2592609298412 9.42819908733653  24.2592609298412 9.42819908733653  C 24.2592609298412 9.42819908733653  22.6813321643805 11.9035640422532  22.6813321643805 11.9035640422532  C 22.6813321643805 11.9035640422532  24.7981922651711 14.8789570933527  24.7981922651711 14.8789570933527  C 24.7981922651711 14.8789570933527  27.1067875525694 15.2507588978263  27.1067875525694 15.2507588978263  C 27.1067875525694 15.2507588978263  30.1823235863986 17.5829702167958  30.1823235863986 17.5829702167958  C 30.1823235863986 17.5829702167958  30.4051509654292 19.774016144762  30.4051509654292 19.774016144762  C 30.4051509654292 19.774016144762  29.7107586679851 20.4718901200034  29.7107586679851 20.4718901200034  Z " stroke-width="2" stroke="#505050" fill="none" stroke-opacity="0.211764705882353" transform="matrix(1 0 0 1 1758 4294 )" mask="url(#clip156)" />
  </g>
</svg>