<?xml version="1.0" encoding="utf-8"?>
<svg version="1.1" xmlns:xlink="http://www.w3.org/1999/xlink" width="20px" height="17px" xmlns="http://www.w3.org/2000/svg">
  <defs>
    <mask fill="white" id="clip157">
      <path d="M 13.4669314455935 1.32873742226783  C 13.4669314455935 1.32873742226783  16.5302190399833 3.41560209594588  16.5302190399833 3.41560209594588  C 16.5302190399833 3.41560209594588  18.9653324626478 5.46417567469391  18.9653324626478 5.46417567469391  C 18.9653324626478 5.46417567469391  16.8105198656138 10.3260644976863  16.8105198656138 10.3260644976863  C 16.8105198656138 10.3260644976863  15.6192413566844 12.5597117019291  15.6192413566844 12.5597117019291  C 15.6192413566844 12.5597117019291  11.7075432275738 13.6318623599654  11.7075432275738 13.6318623599654  C 11.7075432275738 13.6318623599654  8.6004781486804 15.8293457523297  8.6004781486804 15.8293457523297  C 8.6004781486804 15.8293457523297  6.08778146177883 16.5164581780158  6.08778146177883 16.5164581780158  C 6.08778146177883 16.5164581780158  0.824632923378513 11.2301597946415  0.824632923378513 11.2301597946415  C 0.824632923378513 11.2301597946415  4.56614840835651 5.36419337126615  4.56614840835651 5.36419337126615  C 4.56614840835651 5.36419337126615  8.36772835596941 2.70934412279474  8.36772835596941 2.70934412279474  C 8.36772835596941 2.70934412279474  13.4669314455935 1.32873742226783  13.4669314455935 1.32873742226783  Z " fill-rule="evenodd" />
    </mask>
  </defs>
  <g transform="matrix(1 0 0 1 -2031 -4506 )">
    <path d="M 13.4669314455935 1.32873742226783  C 13.4669314455935 1.32873742226783  16.5302190399833 3.41560209594588  16.5302190399833 3.41560209594588  C 16.5302190399833 3.41560209594588  18.9653324626478 5.46417567469391  18.9653324626478 5.46417567469391  C 18.9653324626478 5.46417567469391  16.8105198656138 10.3260644976863  16.8105198656138 10.3260644976863  C 16.8105198656138 10.3260644976863  15.6192413566844 12.5597117019291  15.6192413566844 12.5597117019291  C 15.6192413566844 12.5597117019291  11.7075432275738 13.6318623599654  11.7075432275738 13.6318623599654  C 11.7075432275738 13.6318623599654  8.6004781486804 15.8293457523297  8.6004781486804 15.8293457523297  C 8.6004781486804 15.8293457523297  6.08778146177883 16.5164581780158  6.08778146177883 16.5164581780158  C 6.08778146177883 16.5164581780158  0.824632923378513 11.2301597946415  0.824632923378513 11.2301597946415  C 0.824632923378513 11.2301597946415  4.56614840835651 5.36419337126615  4.56614840835651 5.36419337126615  C 4.56614840835651 5.36419337126615  8.36772835596941 2.70934412279474  8.36772835596941 2.70934412279474  C 8.36772835596941 2.70934412279474  13.4669314455935 1.32873742226783  13.4669314455935 1.32873742226783  Z " fill-rule="nonzero" fill="#f2f2f2" stroke="none" transform="matrix(1 0 0 1 2031 4506 )" />
    <path d="M 13.4669314455935 1.32873742226783  C 13.4669314455935 1.32873742226783  16.5302190399833 3.41560209594588  16.5302190399833 3.41560209594588  C 16.5302190399833 3.41560209594588  18.9653324626478 5.46417567469391  18.9653324626478 5.46417567469391  C 18.9653324626478 5.46417567469391  16.8105198656138 10.3260644976863  16.8105198656138 10.3260644976863  C 16.8105198656138 10.3260644976863  15.6192413566844 12.5597117019291  15.6192413566844 12.5597117019291  C 15.6192413566844 12.5597117019291  11.7075432275738 13.6318623599654  11.7075432275738 13.6318623599654  C 11.7075432275738 13.6318623599654  8.6004781486804 15.8293457523297  8.6004781486804 15.8293457523297  C 8.6004781486804 15.8293457523297  6.08778146177883 16.5164581780158  6.08778146177883 16.5164581780158  C 6.08778146177883 16.5164581780158  0.824632923378513 11.2301597946415  0.824632923378513 11.2301597946415  C 0.824632923378513 11.2301597946415  4.56614840835651 5.36419337126615  4.56614840835651 5.36419337126615  C 4.56614840835651 5.36419337126615  8.36772835596941 2.70934412279474  8.36772835596941 2.70934412279474  C 8.36772835596941 2.70934412279474  13.4669314455935 1.32873742226783  13.4669314455935 1.32873742226783  Z " stroke-width="2" stroke="#505050" fill="none" stroke-opacity="0.211764705882353" transform="matrix(1 0 0 1 2031 4506 )" mask="url(#clip157)" />
  </g>
</svg>