<?xml version="1.0" encoding="utf-8"?>
<svg version="1.1" xmlns:xlink="http://www.w3.org/1999/xlink" width="441px" height="253px" xmlns="http://www.w3.org/2000/svg">
  <defs>
    <mask fill="white" id="clip9">
      <path d="M 265.69319041451 244.066304854671  C 265.69319041451 244.066304854671  264.044821449643 248.898986973385  264.044821449643 248.898986973385  C 264.044821449643 248.898986973385  256.045553038969 251.708856879492  256.045553038969 251.708856879492  C 256.045553038969 251.708856879492  250.206415519353 249.897963384762  250.206415519353 249.897963384762  C 250.206415519353 249.897963384762  250.000686881211 243.407617220874  250.000686881211 243.407617220874  C 250.000686881211 243.407617220874  253.510773028279 240.739036807212  253.510773028279 240.739036807212  C 253.510773028279 240.739036807212  263.135551666249 239.08535274774  263.135551666249 239.08535274774  C 263.135551666249 239.08535274774  267.229805551251 239.226642240186  267.229805551251 239.226642240186  C 267.229805551251 239.226642240186  268.822297602055 241.477324155063  268.822297602055 241.477324155063  C 268.822297602055 241.477324155063  265.69319041451 244.066304854671  265.69319041451 244.066304854671  Z M 384.751655125038 24.9561519638335  C 384.751655125038 24.9561519638335  387.375330226284 33.4892413104264  387.375330226284 33.4892413104264  C 387.375330226284 33.4892413104264  399.769845709418 36.2334414524392  399.769845709418 36.2334414524392  C 399.769845709418 36.2334414524392  408.204719873247 42.2730697562891  408.204719873247 42.2730697562891  C 408.204719873247 42.2730697562891  411.087460666968 50.1235915548682  411.087460666968 50.1235915548682  C 411.087460666968 50.1235915548682  421.909802977139 50.133541519125  421.909802977139 50.133541519125  C 421.909802977139 50.133541519125  428.084201981134 46.8560232929501  428.084201981134 46.8560232929501  C 428.084201981134 46.8560232929501  439.853911970651 44.3904221501265  439.853911970651 44.3904221501265  C 439.853911970651 44.3904221501265  436.110158728409 51.8747852640571  436.110158728409 51.8747852640571  C 436.110158728409 51.8747852640571  433.344251482275 54.8836544552995  433.344251482275 54.8836544552995  C 433.344251482275 54.8836544552995  430.903446281601 63.763002558027  430.903446281601 63.763002558027  C 430.903446281601 63.763002558027  426.113270830537 71.5000947640792  426.113270830537 71.5000947640792  C 426.113270830537 71.5000947640792  417.472668028566 70.1011297895796  417.472668028566 70.1011297895796  C 417.472668028566 70.1011297895796  411.359225658093 72.8871197814707  411.359225658093 72.8871197814707  C 411.359225658093 72.8871197814707  413.236181998675 79.5675257834556  413.236181998675 79.5675257834556  C 413.236181998675 79.5675257834556  412.210078667694 88.627963235656  412.210078667694 88.627963235656  C 412.210078667694 88.627963235656  408.572999534119 88.8329324993451  408.572999534119 88.8329324993451  C 408.572999534119 88.8329324993451  408.616177149531 92.6716287096009  408.616177149531 92.6716287096009  C 408.616177149531 92.6716287096009  404.016491178229 88.2060847511695  404.016491178229 88.2060847511695  C 404.016491178229 88.2060847511695  401.187087438841 92.4447695245468  401.187087438841 92.4447695245468  C 401.187087438841 92.4447695245468  390.18949480729 95.678507907992  390.18949480729 95.678507907992  C 390.18949480729 95.678507907992  391.301953369096 99.60874378941  391.301953369096 99.60874378941  C 391.301953369096 99.60874378941  385.145333383212 99.3381047616262  385.145333383212 99.3381047616262  C 385.145333383212 99.3381047616262  381.764780082381 97.0058331398429  381.764780082381 97.0058331398429  C 381.764780082381 97.0058331398429  376.870470382382 102.267374238815  376.870470382382 102.267374238815  C 376.870470382382 102.267374238815  369.022303816217 106.215520055895  369.022303816217 106.215520055895  C 369.022303816217 106.215520055895  363.223804052283 110.886033278015  363.223804052283 110.886033278015  C 363.223804052283 110.886033278015  353.267553910094 112.989455721893  353.267553910094 112.989455721893  C 353.267553910094 112.989455721893  348.025283427064 116.350553647825  348.025283427064 116.350553647825  C 348.025283427064 116.350553647825  340.35490704201 118.302736635  340.35490704201 118.302736635  C 340.35490704201 118.302736635  344.139298039934 114.983428558947  344.139298039934 114.983428558947  C 344.139298039934 114.983428558947  342.648400378336 112.17554864569  342.648400378336 112.17554864569  C 342.648400378336 112.17554864569  348.289428839 107.292106188475  348.289428839 107.292106188475  C 348.289428839 107.292106188475  344.527896578647 103.451419985368  344.527896578647 103.451419985368  C 344.527896578647 103.451419985368  338.32047939816 106.042390677827  338.32047939816 106.042390677827  C 338.32047939816 106.042390677827  330.281823352234 111.104932491664  330.281823352234 111.104932491664  C 330.281823352234 111.104932491664  325.892945738534 115.761515763825  325.892945738534 115.761515763825  C 325.892945738534 115.761515763825  318.908331480621 116.105784527108  318.908331480621 116.105784527108  C 318.908331480621 116.105784527108  315.273792206775 120.886726831687  315.273792206775 120.886726831687  C 315.273792206775 120.886726831687  319.030244747668 125.680619610591  319.030244747668 125.680619610591  C 319.030244747668 125.680619610591  324.856682968633 126.838795450077  324.856682968633 126.838795450077  C 324.856682968633 126.838795450077  325.097969642997 129.988954133765  325.097969642997 129.988954133765  C 325.097969642997 129.988954133765  330.731378524471 132.0286968064  330.731378524471 132.0286968064  C 330.731378524471 132.0286968064  338.714157656333 127.027844770955  338.714157656333 127.027844770955  C 338.714157656333 127.027844770955  345.035868524677 129.762094948711  345.035868524677 129.762094948711  C 345.035868524677 129.762094948711  349.64063421544 129.947164283887  349.64063421544 129.947164283887  C 349.64063421544 129.947164283887  350.796270392659 133.600791158967  350.796270392659 133.600791158967  C 350.796270392659 133.600791158967  340.713027263962 135.539044196183  340.713027263962 135.539044196183  C 340.713027263962 135.539044196183  337.383271157734 139.264310813912  337.383271157734 139.264310813912  C 337.383271157734 139.264310813912  330.457073673614 142.703018461046  330.457073673614 142.703018461046  C 330.457073673614 142.703018461046  326.802215521928 147.465071354329  326.802215521928 147.465071354329  C 326.802215521928 147.465071354329  334.470052047252 151.174418029247  334.470052047252 151.174418029247  C 334.470052047252 151.174418029247  337.268977469878 157.755324388664  337.268977469878 157.755324388664  C 337.268977469878 157.755324388664  341.601978169514 163.816842613879  341.601978169514 163.816842613879  C 341.601978169514 163.816842613879  346.43787109572 168.849534534945  346.43787109572 168.849534534945  C 346.43787109572 168.849534534945  346.321037548134 173.677257192322  346.321037548134 173.677257192322  C 346.321037548134 173.677257192322  341.850884423069 175.44238085147  341.850884423069 175.44238085147  C 341.850884423069 175.44238085147  343.555130302 178.875118520051  343.555130302 178.875118520051  C 343.555130302 178.875118520051  347.745898856748 180.865111371401  347.745898856748 180.865111371401  C 347.745898856748 180.865111371401  346.651219313053 186.057002720576  346.651219313053 186.057002720576  C 346.651219313053 186.057002720576  344.842839185186 191.067804720277  344.842839185186 191.067804720277  C 344.842839185186 191.067804720277  340.86287898804 191.632962690061  340.86287898804 191.632962690061  C 340.86287898804 191.632962690061  335.663786120422 198.412868334613  335.663786120422 198.412868334613  C 335.663786120422 198.412868334613  329.895764673251 206.543979125233  329.895764673251 206.543979125233  C 329.895764673251 206.543979125233  323.281969935939 213.859192846799  323.281969935939 213.859192846799  C 323.281969935939 213.859192846799  313.49081067621 219.466992701905  313.49081067621 219.466992701905  C 313.49081067621 219.466992701905  303.585357728623 224.547444451404  303.585357728623 224.547444451404  C 303.585357728623 224.547444451404  295.561940841078 225.237971970823  295.561940841078 225.237971970823  C 295.561940841078 225.237971970823  291.208621263601 227.904562391633  291.208621263601 227.904562391633  C 291.208621263601 227.904562391633  288.744957325355 225.95635939016  288.744957325355 225.95635939016  C 288.744957325355 225.95635939016  284.716739793336 228.937368681484  284.716739793336 228.937368681484  C 284.716739793336 228.937368681484  274.763029510877 231.930317929916  274.763029510877 231.930317929916  C 274.763029510877 231.930317929916  267.227265691521 232.843724648686  267.227265691521 232.843724648686  C 267.227265691521 232.843724648686  264.796619929767 239.114192123292  264.796619929767 239.114192123292  C 264.796619929767 239.114192123292  260.849677909113 239.460450879427  260.849677909113 239.460450879427  C 260.849677909113 239.460450879427  258.982881007453 235.158086334807  258.982881007453 235.158086334807  C 258.982881007453 235.158086334807  260.669347868273 232.855664605794  260.669347868273 232.855664605794  C 260.669347868273 232.855664605794  251.114395563447 230.947261461348  251.114395563447 230.947261461348  C 251.114395563447 230.947261461348  247.749081420998 231.918377972807  247.749081420998 231.918377972807  C 247.749081420998 231.918377972807  240.579057402783 230.370163534456  240.579057402783 230.370163534456  C 240.579057402783 230.370163534456  237.188344663032 227.938392270106  237.188344663032 227.938392270106  C 237.188344663032 227.938392270106  238.313502523489 224.479784694458  238.313502523489 224.479784694458  C 238.313502523489 224.479784694458  231.803842035113 223.379318647661  231.803842035113 223.379318647661  C 231.803842035113 223.379318647661  228.36995167995 221.114706782824  228.36995167995 221.114706782824  C 228.36995167995 221.114706782824  222.299686924891 224.328545237755  222.299686924891 224.328545237755  C 222.299686924891 224.328545237755  213.530841015982 225.023052742877  213.530841015982 225.023052742877  C 213.530841015982 225.023052742877  207.851714659366 224.991212857255  207.851714659366 224.991212857255  C 207.851714659366 224.991212857255  204.02922576549 226.457837588701  204.02922576549 226.457837588701  C 204.02922576549 226.457837588701  200.338809577581 227.337414428998  200.338809577581 227.337414428998  C 200.338809577581 227.337414428998  201.415710103165 234.169059887685  201.415710103165 234.169059887685  C 201.415710103165 234.169059887685  197.61861980659 234.005880473875  197.61861980659 234.005880473875  C 197.61861980659 234.005880473875  196.978575154592 232.606915499375  196.978575154592 232.606915499375  C 196.978575154592 232.606915499375  196.76268707753 230.1393243637  196.76268707753 230.1393243637  C 196.76268707753 230.1393243637  191.53819561261 231.878578115781  191.53819561261 231.878578115781  C 191.53819561261 231.878578115781  188.454805900207 230.780102061835  188.454805900207 230.780102061835  C 188.454805900207 230.780102061835  183.166817942034 228.535390125511  183.166817942034 228.535390125511  C 183.166817942034 228.535390125511  185.239343481837 223.546478047174  185.239343481837 223.546478047174  C 185.239343481837 223.546478047174  180.73109246082 222.378352243432  180.73109246082 222.378352243432  C 180.73109246082 222.378352243432  179.03192630135 216.804382266798  179.03192630135 216.804382266798  C 179.03192630135 216.804382266798  171.513941500105 217.811318649581  171.513941500105 217.811318649581  C 171.513941500105 217.811318649581  172.369874229165 210.577694634921  172.369874229165 210.577694634921  C 172.369874229165 210.577694634921  179.113201812714 205.443513078436  179.113201812714 205.443513078436  C 179.113201812714 205.443513078436  179.400205962221 200.33719142187  179.400205962221 200.33719142187  C 179.400205962221 200.33719142187  179.189397604619 195.56518856433  179.189397604619 195.56518856433  C 179.189397604619 195.56518856433  176.080609294915 194.072693925817  176.080609294915 194.072693925817  C 176.080609294915 194.072693925817  173.700760727764 190.371307222304  173.700760727764 190.371307222304  C 173.700760727764 190.371307222304  169.532850910587 190.838955542372  169.532850910587 190.838955542372  C 169.532850910587 190.838955542372  161.854854946343 189.895698930832  161.854854946343 189.895698930832  C 161.854854946343 189.895698930832  164.260102110795 187.24104846713  164.260102110795 187.24104846713  C 164.260102110795 187.24104846713  160.922726425377 183.288922664347  160.922726425377 183.288922664347  C 160.922726425377 183.288922664347  155.845546824807 185.967453042265  155.845546824807 185.967453042265  C 155.845546824807 185.967453042265  149.871796739493 184.405308653955  149.871796739493 184.405308653955  C 149.871796739493 184.405308653955  141.662970091647 188.444994142197  141.662970091647 188.444994142197  C 141.662970091647 188.444994142197  135.181248060304 193.131427307128  135.181248060304 193.131427307128  C 135.181248060304 193.131427307128  129.436085350704 193.917474483412  129.436085350704 193.917474483412  C 129.436085350704 193.917474483412  126.317137602079 192.227970552615  126.317137602079 192.227970552615  C 126.317137602079 192.227970552615  122.558145201456 192.074741103061  122.558145201456 192.074741103061  C 122.558145201456 192.074741103061  117.468266302235 190.618066335872  117.468266302235 190.618066335872  C 117.468266302235 190.618066335872  113.620378811057 192.216030595507  113.620378811057 192.216030595507  C 113.620378811057 192.216030595507  108.911478871359 196.874603860519  108.911478871359 196.874603860519  C 108.911478871359 196.874603860519  108.314611834773 191.937431596317  108.314611834773 191.937431596317  C 108.314611834773 191.937431596317  103.971451696216 193.260776842466  103.971451696216 193.260776842466  C 103.971451696216 193.260776842466  95.6661103786242 192.645869051398  95.6661103786242 192.645869051398  C 95.6661103786242 192.645869051398  87.6096753145873 191.203124234169  87.6096753145873 191.203124234169  C 87.6096753145873 191.203124234169  81.8314944284952 188.431064192237  81.8314944284952 188.431064192237  C 81.8314944284952 188.431064192237  76.2971400764977 187.18333867444  76.2971400764977 187.18333867444  C 76.2971400764977 187.18333867444  73.907132070426 184.132679633319  73.907132070426 184.132679633319  C 73.907132070426 184.132679633319  69.906852995439 183.219272914549  69.906852995439 183.219272914549  C 69.906852995439 183.219272914549  62.7165100993832 179.052227883821  62.7165100993832 179.052227883821  C 62.7165100993832 179.052227883821  57.006905426005 177.076164982429  57.006905426005 177.076164982429  C 57.006905426005 177.076164982429  54.0555884195702 178.614429456524  54.0555884195702 178.614429456524  C 54.0555884195702 178.614429456524  44.1602949109043 174.107095648214  44.1602949109043 174.107095648214  C 44.1602949109043 174.107095648214  37.1629813543405 169.997760410174  37.1629813543405 169.997760410174  C 37.1629813543405 169.997760410174  35.1666516064424 162.776076352622  35.1666516064424 162.776076352622  C 35.1666516064424 162.776076352622  40.2768493835045 163.661623171473  40.2768493835045 163.661623171473  C 40.2768493835045 163.661623171473  40.5105164786785 160.290575281285  40.5105164786785 160.290575281285  C 40.5105164786785 160.290575281285  37.6785728795608 156.891667491178  37.6785728795608 156.891667491178  C 37.6785728795608 156.891667491178  38.3998930429233 151.431127107071  38.3998930429233 151.431127107071  C 38.3998930429233 151.431127107071  30.7447558162504 143.493045623032  30.7447558162504 143.493045623032  C 30.7447558162504 143.493045623032  19.0334626005267 140.726955559655  19.0334626005267 140.726955559655  C 19.0334626005267 140.726955559655  16.9253790245019 135.43158458221  16.9253790245019 135.43158458221  C 16.9253790245019 135.43158458221  11.6653295233607 132.193866213062  11.6653295233607 132.193866213062  C 11.6653295233607 132.193866213062  10.3979395180156 130.189943411752  10.3979395180156 130.189943411752  C 10.3979395180156 130.189943411752  9.328658571622 126.186077794834  9.328658571622 126.186077794834  C 9.328658571622 126.186077794834  9.57756482517649 123.437897667118  9.57756482517649 123.437897667118  C 9.57756482517649 123.437897667118  5.25218370473064 121.822023471821  5.25218370473064 121.822023471821  C 5.25218370473064 121.822023471821  2.91297289326193 122.536430905456  2.91297289326193 122.536430905456  C 2.91297289326193 122.536430905456  1.10713262512499 114.475980381852  1.10713262512499 114.475980381852  C 1.10713262512499 114.475980381852  3.13394068978495 112.826276308082  3.13394068978495 112.826276308082  C 3.13394068978495 112.826276308082  2.15101497421709 111.134782384434  2.15101497421709 111.134782384434  C 2.15101497421709 111.134782384434  8.95021947182939 107.700054723002  8.95021947182939 107.700054723002  C 8.95021947182939 107.700054723002  13.8724676288608 106.271239855732  13.8724676288608 106.271239855732  C 13.8724676288608 106.271239855732  21.410771307947 107.250316338597  21.410771307947 107.250316338597  C 21.410771307947 107.250316338597  24.1055624816369 102.565873166517  24.1055624816369 102.565873166517  C 24.1055624816369 102.565873166517  33.2414379309874 101.690276311923  33.2414379309874 101.690276311923  C 33.2414379309874 101.690276311923  35.7787578014077 98.749066877626  35.7787578014077 98.749066877626  C 35.7787578014077 98.749066877626  47.0023979489425 94.7073913965324  47.0023979489425 94.7073913965324  C 47.0023979489425 94.7073913965324  48.0031026826218 93.0099274943301  48.0031026826218 93.0099274943301  C 48.0031026826218 93.0099274943301  47.4341741030676 88.7015929711554  47.4341741030676 88.7015929711554  C 47.4341741030676 88.7015929711554  52.3208642238771 86.7215500840614  52.3208642238771 86.7215500840614  C 52.3208642238771 86.7215500840614  45.9102582649775 73.2811383660377  45.9102582649775 73.2811383660377  C 45.9102582649775 73.2811383660377  60.0191790659624 70.1329696752006  60.0191790659624 70.1329696752006  C 60.0191790659624 70.1329696752006  63.6664176384587 68.3698360089037  63.6664176384587 68.3698360089037  C 63.6664176384587 68.3698360089037  68.8020140128227 53.9185079223938  68.8020140128227 53.9185079223938  C 68.8020140128227 53.9185079223938  82.9312536916494 56.6109682502715  82.9312536916494 56.6109682502715  C 82.9312536916494 56.6109682502715  86.8934348706836 52.9095815467589  86.8934348706836 52.9095815467589  C 86.8934348706836 52.9095815467589  87.2337760745239 44.5794714710043  87.2337760745239 44.5794714710043  C 87.2337760745239 44.5794714710043  93.1491093860441 43.7934242947207  93.1491093860441 43.7934242947207  C 93.1491093860441 43.7934242947207  98.569170050185 38.1597545325464  98.569170050185 38.1597545325464  C 98.569170050185 38.1597545325464  101.35793603389 37.4592770488709  101.35793603389 37.4592770488709  C 101.35793603389 37.4592770488709  103.227272795281 43.369555817383  103.227272795281 43.369555817383  C 103.227272795281 43.369555817383  109.211182319515 47.8072398758955  109.211182319515 47.8072398758955  C 109.211182319515 47.8072398758955  119.368081380386 50.9215786882596  119.368081380386 50.9215786882596  C 119.368081380386 50.9215786882596  124.282709958227 57.5263649618931  124.282709958227 57.5263649618931  C 124.282709958227 57.5263649618931  121.542201309395 66.93505116308  121.542201309395 66.93505116308  C 121.542201309395 66.93505116308  124.104919777117 70.3757488030655  124.104919777117 70.3757488030655  C 124.104919777117 70.3757488030655  132.567732397978 71.7249639562815  132.567732397978 71.7249639562815  C 132.567732397978 71.7249639562815  142.158242739025 72.8234400102271  142.158242739025 72.8234400102271  C 142.158242739025 72.8234400102271  150.763287504775 77.694942510334  150.763287504775 77.694942510334  C 150.763287504775 77.694942510334  155.162324557395 78.5566094149689  155.162324557395 78.5566094149689  C 155.162324557395 78.5566094149689  158.405725432797 85.6569039085888  158.405725432797 85.6569039085888  C 158.405725432797 85.6569039085888  162.586334548625 90.1721976883039  162.586334548625 90.1721976883039  C 162.586334548625 90.1721976883039  170.43704097452 89.9970783173849  170.43704097452 89.9970783173849  C 170.43704097452 89.9970783173849  185.1352092329 91.6925522267358  185.1352092329 91.6925522267358  C 185.1352092329 91.6925522267358  194.606346166631 90.6418360012225  194.606346166631 90.6418360012225  C 194.606346166631 90.6418360012225  201.636677899687 91.7661819622357  201.636677899687 91.7661819622357  C 201.636677899687 91.7661819622357  212.172016060351 96.3252555846805  212.172016060351 96.3252555846805  C 212.172016060351 96.3252555846805  222.63494840927 96.3192856061265  222.63494840927 96.3192856061265  C 222.63494840927 96.3192856061265  225.786914334387 98.6356372850989  225.786914334387 98.6356372850989  C 225.786914334387 98.6356372850989  234.079556353327 94.6277916824782  234.079556353327 94.6277916824782  C 234.079556353327 94.6277916824782  245.582581071179 92.0169210615059  245.582581071179 92.0169210615059  C 245.582581071179 92.0169210615059  256.25507165727 91.7303620909114  256.25507165727 91.7303620909114  C 256.25507165727 91.7303620909114  264.575652133243 89.0697416486553  264.575652133243 89.0697416486553  C 264.575652133243 89.0697416486553  269.685849910305 84.9882663105347  269.685849910305 84.9882663105347  C 269.685849910305 84.9882663105347  274.67159456059 82.4072455823326  274.67159456059 82.4072455823326  C 274.67159456059 82.4072455823326  273.518498243102 79.8600547326035  273.518498243102 79.8600547326035  C 273.518498243102 79.8600547326035  271.242783924888 76.8770554484286  271.242783924888 76.8770554484286  C 271.242783924888 76.8770554484286  274.983997307399 71.8264535917001  274.983997307399 71.8264535917001  C 274.983997307399 71.8264535917001  278.989356101846 72.5388710324837  278.989356101846 72.5388710324837  C 278.989356101846 72.5388710324837  286.309231844139 74.1308653135644  286.309231844139 74.1308653135644  C 286.309231844139 74.1308653135644  293.40559993018 69.9498903328762  293.40559993018 69.9498903328762  C 293.40559993018 69.9498903328762  304.263500276572 66.8733613846878  304.263500276572 66.8733613846878  C 304.263500276572 66.8733613846878  309.482912022031 61.5760004143919  309.482912022031 61.5760004143919  C 309.482912022031 61.5760004143919  314.496595129348 59.2755686782303  314.496595129348 59.2755686782303  C 314.496595129348 59.2755686782303  324.83890395052 58.1989825456496  324.83890395052 58.1989825456496  C 324.83890395052 58.1989825456496  330.459613533343 59.1123892644196  330.459613533343 59.1123892644196  C 330.459613533343 59.1123892644196  331.239350470499 56.2209296514068  331.239350470499 56.2209296514068  C 331.239350470499 56.2209296514068  324.785566896187 50.4758202895569  324.785566896187 50.4758202895569  C 324.785566896187 50.4758202895569  319.070882503349 47.8231598187062  319.070882503349 47.8231598187062  C 319.070882503349 47.8231598187062  313.597484784875 50.8837688240838  313.597484784875 50.8837688240838  C 313.597484784875 50.8837688240838  306.572232771279 49.5962434492598  306.572232771279 49.5962434492598  C 306.572232771279 49.5962434492598  302.54147537953 50.6469596747731  302.54147537953 50.6469596747731  C 302.54147537953 50.6469596747731  300.705156794632 47.2520318703685  300.705156794632 47.2520318703685  C 300.705156794632 47.2520318703685  305.736618920059 38.8383420948571  305.736618920059 38.8383420948571  C 305.736618920059 38.8383420948571  309.203527451715 32.3768353065208  309.203527451715 32.3768353065208  C 309.203527451715 32.3768353065208  317.750155443671 35.6245036399255  317.750155443671 35.6245036399255  C 317.750155443671 35.6245036399255  327.787681097225 30.1739132200755  327.787681097225 30.1739132200755  C 327.787681097225 30.1739132200755  327.721644744241 26.3352170098197  327.721644744241 26.3352170098197  C 327.721644744241 26.3352170098197  334.150029721252 16.9325007871869  334.150029721252 16.9325007871869  C 334.150029721252 16.9325007871869  338.112210900286 14.0470111527282  338.112210900286 14.0470111527282  C 338.112210900286 14.0470111527282  338.023315809731 9.02824918162137  338.023315809731 9.02824918162137  C 338.023315809731 9.02824918162137  334.11701154476 6.84920700939211  334.11701154476 6.84920700939211  C 334.11701154476 6.84920700939211  339.996786820058 2.24635354421756  339.996786820058 2.24635354421756  C 339.996786820058 2.24635354421756  348.845658119902 0.564809584826089  348.845658119902 0.564809584826089  C 348.845658119902 0.564809584826089  358.288856596601 0.312080492704495  358.288856596601 0.312080492704495  C 358.288856596601 0.312080492704495  368.946108024312 3.08613052748764  368.946108024312 3.08613052748764  C 368.946108024312 3.08613052748764  375.199242679942 6.49100829614893  375.199242679942 6.49100829614893  C 375.199242679942 6.49100829614893  379.600819592292 15.6668653337277  379.600819592292 15.6668653337277  C 379.600819592292 15.6668653337277  382.270212168681 19.5214814867943  382.270212168681 19.5214814867943  C 382.270212168681 19.5214814867943  384.751655125038 24.9561519638335  384.751655125038 24.9561519638335  Z " fill-rule="evenodd" />
    </mask>
  </defs>
  <g transform="matrix(1 0 0 1 -2362 -3991 )">
    <path d="M 265.69319041451 244.066304854671  C 265.69319041451 244.066304854671  264.044821449643 248.898986973385  264.044821449643 248.898986973385  C 264.044821449643 248.898986973385  256.045553038969 251.708856879492  256.045553038969 251.708856879492  C 256.045553038969 251.708856879492  250.206415519353 249.897963384762  250.206415519353 249.897963384762  C 250.206415519353 249.897963384762  250.000686881211 243.407617220874  250.000686881211 243.407617220874  C 250.000686881211 243.407617220874  253.510773028279 240.739036807212  253.510773028279 240.739036807212  C 253.510773028279 240.739036807212  263.135551666249 239.08535274774  263.135551666249 239.08535274774  C 263.135551666249 239.08535274774  267.229805551251 239.226642240186  267.229805551251 239.226642240186  C 267.229805551251 239.226642240186  268.822297602055 241.477324155063  268.822297602055 241.477324155063  C 268.822297602055 241.477324155063  265.69319041451 244.066304854671  265.69319041451 244.066304854671  Z M 384.751655125038 24.9561519638335  C 384.751655125038 24.9561519638335  387.375330226284 33.4892413104264  387.375330226284 33.4892413104264  C 387.375330226284 33.4892413104264  399.769845709418 36.2334414524392  399.769845709418 36.2334414524392  C 399.769845709418 36.2334414524392  408.204719873247 42.2730697562891  408.204719873247 42.2730697562891  C 408.204719873247 42.2730697562891  411.087460666968 50.1235915548682  411.087460666968 50.1235915548682  C 411.087460666968 50.1235915548682  421.909802977139 50.133541519125  421.909802977139 50.133541519125  C 421.909802977139 50.133541519125  428.084201981134 46.8560232929501  428.084201981134 46.8560232929501  C 428.084201981134 46.8560232929501  439.853911970651 44.3904221501265  439.853911970651 44.3904221501265  C 439.853911970651 44.3904221501265  436.110158728409 51.8747852640571  436.110158728409 51.8747852640571  C 436.110158728409 51.8747852640571  433.344251482275 54.8836544552995  433.344251482275 54.8836544552995  C 433.344251482275 54.8836544552995  430.903446281601 63.763002558027  430.903446281601 63.763002558027  C 430.903446281601 63.763002558027  426.113270830537 71.5000947640792  426.113270830537 71.5000947640792  C 426.113270830537 71.5000947640792  417.472668028566 70.1011297895796  417.472668028566 70.1011297895796  C 417.472668028566 70.1011297895796  411.359225658093 72.8871197814707  411.359225658093 72.8871197814707  C 411.359225658093 72.8871197814707  413.236181998675 79.5675257834556  413.236181998675 79.5675257834556  C 413.236181998675 79.5675257834556  412.210078667694 88.627963235656  412.210078667694 88.627963235656  C 412.210078667694 88.627963235656  408.572999534119 88.8329324993451  408.572999534119 88.8329324993451  C 408.572999534119 88.8329324993451  408.616177149531 92.6716287096009  408.616177149531 92.6716287096009  C 408.616177149531 92.6716287096009  404.016491178229 88.2060847511695  404.016491178229 88.2060847511695  C 404.016491178229 88.2060847511695  401.187087438841 92.4447695245468  401.187087438841 92.4447695245468  C 401.187087438841 92.4447695245468  390.18949480729 95.678507907992  390.18949480729 95.678507907992  C 390.18949480729 95.678507907992  391.301953369096 99.60874378941  391.301953369096 99.60874378941  C 391.301953369096 99.60874378941  385.145333383212 99.3381047616262  385.145333383212 99.3381047616262  C 385.145333383212 99.3381047616262  381.764780082381 97.0058331398429  381.764780082381 97.0058331398429  C 381.764780082381 97.0058331398429  376.870470382382 102.267374238815  376.870470382382 102.267374238815  C 376.870470382382 102.267374238815  369.022303816217 106.215520055895  369.022303816217 106.215520055895  C 369.022303816217 106.215520055895  363.223804052283 110.886033278015  363.223804052283 110.886033278015  C 363.223804052283 110.886033278015  353.267553910094 112.989455721893  353.267553910094 112.989455721893  C 353.267553910094 112.989455721893  348.025283427064 116.350553647825  348.025283427064 116.350553647825  C 348.025283427064 116.350553647825  340.35490704201 118.302736635  340.35490704201 118.302736635  C 340.35490704201 118.302736635  344.139298039934 114.983428558947  344.139298039934 114.983428558947  C 344.139298039934 114.983428558947  342.648400378336 112.17554864569  342.648400378336 112.17554864569  C 342.648400378336 112.17554864569  348.289428839 107.292106188475  348.289428839 107.292106188475  C 348.289428839 107.292106188475  344.527896578647 103.451419985368  344.527896578647 103.451419985368  C 344.527896578647 103.451419985368  338.32047939816 106.042390677827  338.32047939816 106.042390677827  C 338.32047939816 106.042390677827  330.281823352234 111.104932491664  330.281823352234 111.104932491664  C 330.281823352234 111.104932491664  325.892945738534 115.761515763825  325.892945738534 115.761515763825  C 325.892945738534 115.761515763825  318.908331480621 116.105784527108  318.908331480621 116.105784527108  C 318.908331480621 116.105784527108  315.273792206775 120.886726831687  315.273792206775 120.886726831687  C 315.273792206775 120.886726831687  319.030244747668 125.680619610591  319.030244747668 125.680619610591  C 319.030244747668 125.680619610591  324.856682968633 126.838795450077  324.856682968633 126.838795450077  C 324.856682968633 126.838795450077  325.097969642997 129.988954133765  325.097969642997 129.988954133765  C 325.097969642997 129.988954133765  330.731378524471 132.0286968064  330.731378524471 132.0286968064  C 330.731378524471 132.0286968064  338.714157656333 127.027844770955  338.714157656333 127.027844770955  C 338.714157656333 127.027844770955  345.035868524677 129.762094948711  345.035868524677 129.762094948711  C 345.035868524677 129.762094948711  349.64063421544 129.947164283887  349.64063421544 129.947164283887  C 349.64063421544 129.947164283887  350.796270392659 133.600791158967  350.796270392659 133.600791158967  C 350.796270392659 133.600791158967  340.713027263962 135.539044196183  340.713027263962 135.539044196183  C 340.713027263962 135.539044196183  337.383271157734 139.264310813912  337.383271157734 139.264310813912  C 337.383271157734 139.264310813912  330.457073673614 142.703018461046  330.457073673614 142.703018461046  C 330.457073673614 142.703018461046  326.802215521928 147.465071354329  326.802215521928 147.465071354329  C 326.802215521928 147.465071354329  334.470052047252 151.174418029247  334.470052047252 151.174418029247  C 334.470052047252 151.174418029247  337.268977469878 157.755324388664  337.268977469878 157.755324388664  C 337.268977469878 157.755324388664  341.601978169514 163.816842613879  341.601978169514 163.816842613879  C 341.601978169514 163.816842613879  346.43787109572 168.849534534945  346.43787109572 168.849534534945  C 346.43787109572 168.849534534945  346.321037548134 173.677257192322  346.321037548134 173.677257192322  C 346.321037548134 173.677257192322  341.850884423069 175.44238085147  341.850884423069 175.44238085147  C 341.850884423069 175.44238085147  343.555130302 178.875118520051  343.555130302 178.875118520051  C 343.555130302 178.875118520051  347.745898856748 180.865111371401  347.745898856748 180.865111371401  C 347.745898856748 180.865111371401  346.651219313053 186.057002720576  346.651219313053 186.057002720576  C 346.651219313053 186.057002720576  344.842839185186 191.067804720277  344.842839185186 191.067804720277  C 344.842839185186 191.067804720277  340.86287898804 191.632962690061  340.86287898804 191.632962690061  C 340.86287898804 191.632962690061  335.663786120422 198.412868334613  335.663786120422 198.412868334613  C 335.663786120422 198.412868334613  329.895764673251 206.543979125233  329.895764673251 206.543979125233  C 329.895764673251 206.543979125233  323.281969935939 213.859192846799  323.281969935939 213.859192846799  C 323.281969935939 213.859192846799  313.49081067621 219.466992701905  313.49081067621 219.466992701905  C 313.49081067621 219.466992701905  303.585357728623 224.547444451404  303.585357728623 224.547444451404  C 303.585357728623 224.547444451404  295.561940841078 225.237971970823  295.561940841078 225.237971970823  C 295.561940841078 225.237971970823  291.208621263601 227.904562391633  291.208621263601 227.904562391633  C 291.208621263601 227.904562391633  288.744957325355 225.95635939016  288.744957325355 225.95635939016  C 288.744957325355 225.95635939016  284.716739793336 228.937368681484  284.716739793336 228.937368681484  C 284.716739793336 228.937368681484  274.763029510877 231.930317929916  274.763029510877 231.930317929916  C 274.763029510877 231.930317929916  267.227265691521 232.843724648686  267.227265691521 232.843724648686  C 267.227265691521 232.843724648686  264.796619929767 239.114192123292  264.796619929767 239.114192123292  C 264.796619929767 239.114192123292  260.849677909113 239.460450879427  260.849677909113 239.460450879427  C 260.849677909113 239.460450879427  258.982881007453 235.158086334807  258.982881007453 235.158086334807  C 258.982881007453 235.158086334807  260.669347868273 232.855664605794  260.669347868273 232.855664605794  C 260.669347868273 232.855664605794  251.114395563447 230.947261461348  251.114395563447 230.947261461348  C 251.114395563447 230.947261461348  247.749081420998 231.918377972807  247.749081420998 231.918377972807  C 247.749081420998 231.918377972807  240.579057402783 230.370163534456  240.579057402783 230.370163534456  C 240.579057402783 230.370163534456  237.188344663032 227.938392270106  237.188344663032 227.938392270106  C 237.188344663032 227.938392270106  238.313502523489 224.479784694458  238.313502523489 224.479784694458  C 238.313502523489 224.479784694458  231.803842035113 223.379318647661  231.803842035113 223.379318647661  C 231.803842035113 223.379318647661  228.36995167995 221.114706782824  228.36995167995 221.114706782824  C 228.36995167995 221.114706782824  222.299686924891 224.328545237755  222.299686924891 224.328545237755  C 222.299686924891 224.328545237755  213.530841015982 225.023052742877  213.530841015982 225.023052742877  C 213.530841015982 225.023052742877  207.851714659366 224.991212857255  207.851714659366 224.991212857255  C 207.851714659366 224.991212857255  204.02922576549 226.457837588701  204.02922576549 226.457837588701  C 204.02922576549 226.457837588701  200.338809577581 227.337414428998  200.338809577581 227.337414428998  C 200.338809577581 227.337414428998  201.415710103165 234.169059887685  201.415710103165 234.169059887685  C 201.415710103165 234.169059887685  197.61861980659 234.005880473875  197.61861980659 234.005880473875  C 197.61861980659 234.005880473875  196.978575154592 232.606915499375  196.978575154592 232.606915499375  C 196.978575154592 232.606915499375  196.76268707753 230.1393243637  196.76268707753 230.1393243637  C 196.76268707753 230.1393243637  191.53819561261 231.878578115781  191.53819561261 231.878578115781  C 191.53819561261 231.878578115781  188.454805900207 230.780102061835  188.454805900207 230.780102061835  C 188.454805900207 230.780102061835  183.166817942034 228.535390125511  183.166817942034 228.535390125511  C 183.166817942034 228.535390125511  185.239343481837 223.546478047174  185.239343481837 223.546478047174  C 185.239343481837 223.546478047174  180.73109246082 222.378352243432  180.73109246082 222.378352243432  C 180.73109246082 222.378352243432  179.03192630135 216.804382266798  179.03192630135 216.804382266798  C 179.03192630135 216.804382266798  171.513941500105 217.811318649581  171.513941500105 217.811318649581  C 171.513941500105 217.811318649581  172.369874229165 210.577694634921  172.369874229165 210.577694634921  C 172.369874229165 210.577694634921  179.113201812714 205.443513078436  179.113201812714 205.443513078436  C 179.113201812714 205.443513078436  179.400205962221 200.33719142187  179.400205962221 200.33719142187  C 179.400205962221 200.33719142187  179.189397604619 195.56518856433  179.189397604619 195.56518856433  C 179.189397604619 195.56518856433  176.080609294915 194.072693925817  176.080609294915 194.072693925817  C 176.080609294915 194.072693925817  173.700760727764 190.371307222304  173.700760727764 190.371307222304  C 173.700760727764 190.371307222304  169.532850910587 190.838955542372  169.532850910587 190.838955542372  C 169.532850910587 190.838955542372  161.854854946343 189.895698930832  161.854854946343 189.895698930832  C 161.854854946343 189.895698930832  164.260102110795 187.24104846713  164.260102110795 187.24104846713  C 164.260102110795 187.24104846713  160.922726425377 183.288922664347  160.922726425377 183.288922664347  C 160.922726425377 183.288922664347  155.845546824807 185.967453042265  155.845546824807 185.967453042265  C 155.845546824807 185.967453042265  149.871796739493 184.405308653955  149.871796739493 184.405308653955  C 149.871796739493 184.405308653955  141.662970091647 188.444994142197  141.662970091647 188.444994142197  C 141.662970091647 188.444994142197  135.181248060304 193.131427307128  135.181248060304 193.131427307128  C 135.181248060304 193.131427307128  129.436085350704 193.917474483412  129.436085350704 193.917474483412  C 129.436085350704 193.917474483412  126.317137602079 192.227970552615  126.317137602079 192.227970552615  C 126.317137602079 192.227970552615  122.558145201456 192.074741103061  122.558145201456 192.074741103061  C 122.558145201456 192.074741103061  117.468266302235 190.618066335872  117.468266302235 190.618066335872  C 117.468266302235 190.618066335872  113.620378811057 192.216030595507  113.620378811057 192.216030595507  C 113.620378811057 192.216030595507  108.911478871359 196.874603860519  108.911478871359 196.874603860519  C 108.911478871359 196.874603860519  108.314611834773 191.937431596317  108.314611834773 191.937431596317  C 108.314611834773 191.937431596317  103.971451696216 193.260776842466  103.971451696216 193.260776842466  C 103.971451696216 193.260776842466  95.6661103786242 192.645869051398  95.6661103786242 192.645869051398  C 95.6661103786242 192.645869051398  87.6096753145873 191.203124234169  87.6096753145873 191.203124234169  C 87.6096753145873 191.203124234169  81.8314944284952 188.431064192237  81.8314944284952 188.431064192237  C 81.8314944284952 188.431064192237  76.2971400764977 187.18333867444  76.2971400764977 187.18333867444  C 76.2971400764977 187.18333867444  73.907132070426 184.132679633319  73.907132070426 184.132679633319  C 73.907132070426 184.132679633319  69.906852995439 183.219272914549  69.906852995439 183.219272914549  C 69.906852995439 183.219272914549  62.7165100993832 179.052227883821  62.7165100993832 179.052227883821  C 62.7165100993832 179.052227883821  57.006905426005 177.076164982429  57.006905426005 177.076164982429  C 57.006905426005 177.076164982429  54.0555884195702 178.614429456524  54.0555884195702 178.614429456524  C 54.0555884195702 178.614429456524  44.1602949109043 174.107095648214  44.1602949109043 174.107095648214  C 44.1602949109043 174.107095648214  37.1629813543405 169.997760410174  37.1629813543405 169.997760410174  C 37.1629813543405 169.997760410174  35.1666516064424 162.776076352622  35.1666516064424 162.776076352622  C 35.1666516064424 162.776076352622  40.2768493835045 163.661623171473  40.2768493835045 163.661623171473  C 40.2768493835045 163.661623171473  40.5105164786785 160.290575281285  40.5105164786785 160.290575281285  C 40.5105164786785 160.290575281285  37.6785728795608 156.891667491178  37.6785728795608 156.891667491178  C 37.6785728795608 156.891667491178  38.3998930429233 151.431127107071  38.3998930429233 151.431127107071  C 38.3998930429233 151.431127107071  30.7447558162504 143.493045623032  30.7447558162504 143.493045623032  C 30.7447558162504 143.493045623032  19.0334626005267 140.726955559655  19.0334626005267 140.726955559655  C 19.0334626005267 140.726955559655  16.9253790245019 135.43158458221  16.9253790245019 135.43158458221  C 16.9253790245019 135.43158458221  11.6653295233607 132.193866213062  11.6653295233607 132.193866213062  C 11.6653295233607 132.193866213062  10.3979395180156 130.189943411752  10.3979395180156 130.189943411752  C 10.3979395180156 130.189943411752  9.328658571622 126.186077794834  9.328658571622 126.186077794834  C 9.328658571622 126.186077794834  9.57756482517649 123.437897667118  9.57756482517649 123.437897667118  C 9.57756482517649 123.437897667118  5.25218370473064 121.822023471821  5.25218370473064 121.822023471821  C 5.25218370473064 121.822023471821  2.91297289326193 122.536430905456  2.91297289326193 122.536430905456  C 2.91297289326193 122.536430905456  1.10713262512499 114.475980381852  1.10713262512499 114.475980381852  C 1.10713262512499 114.475980381852  3.13394068978495 112.826276308082  3.13394068978495 112.826276308082  C 3.13394068978495 112.826276308082  2.15101497421709 111.134782384434  2.15101497421709 111.134782384434  C 2.15101497421709 111.134782384434  8.95021947182939 107.700054723002  8.95021947182939 107.700054723002  C 8.95021947182939 107.700054723002  13.8724676288608 106.271239855732  13.8724676288608 106.271239855732  C 13.8724676288608 106.271239855732  21.410771307947 107.250316338597  21.410771307947 107.250316338597  C 21.410771307947 107.250316338597  24.1055624816369 102.565873166517  24.1055624816369 102.565873166517  C 24.1055624816369 102.565873166517  33.2414379309874 101.690276311923  33.2414379309874 101.690276311923  C 33.2414379309874 101.690276311923  35.7787578014077 98.749066877626  35.7787578014077 98.749066877626  C 35.7787578014077 98.749066877626  47.0023979489425 94.7073913965324  47.0023979489425 94.7073913965324  C 47.0023979489425 94.7073913965324  48.0031026826218 93.0099274943301  48.0031026826218 93.0099274943301  C 48.0031026826218 93.0099274943301  47.4341741030676 88.7015929711554  47.4341741030676 88.7015929711554  C 47.4341741030676 88.7015929711554  52.3208642238771 86.7215500840614  52.3208642238771 86.7215500840614  C 52.3208642238771 86.7215500840614  45.9102582649775 73.2811383660377  45.9102582649775 73.2811383660377  C 45.9102582649775 73.2811383660377  60.0191790659624 70.1329696752006  60.0191790659624 70.1329696752006  C 60.0191790659624 70.1329696752006  63.6664176384587 68.3698360089037  63.6664176384587 68.3698360089037  C 63.6664176384587 68.3698360089037  68.8020140128227 53.9185079223938  68.8020140128227 53.9185079223938  C 68.8020140128227 53.9185079223938  82.9312536916494 56.6109682502715  82.9312536916494 56.6109682502715  C 82.9312536916494 56.6109682502715  86.8934348706836 52.9095815467589  86.8934348706836 52.9095815467589  C 86.8934348706836 52.9095815467589  87.2337760745239 44.5794714710043  87.2337760745239 44.5794714710043  C 87.2337760745239 44.5794714710043  93.1491093860441 43.7934242947207  93.1491093860441 43.7934242947207  C 93.1491093860441 43.7934242947207  98.569170050185 38.1597545325464  98.569170050185 38.1597545325464  C 98.569170050185 38.1597545325464  101.35793603389 37.4592770488709  101.35793603389 37.4592770488709  C 101.35793603389 37.4592770488709  103.227272795281 43.369555817383  103.227272795281 43.369555817383  C 103.227272795281 43.369555817383  109.211182319515 47.8072398758955  109.211182319515 47.8072398758955  C 109.211182319515 47.8072398758955  119.368081380386 50.9215786882596  119.368081380386 50.9215786882596  C 119.368081380386 50.9215786882596  124.282709958227 57.5263649618931  124.282709958227 57.5263649618931  C 124.282709958227 57.5263649618931  121.542201309395 66.93505116308  121.542201309395 66.93505116308  C 121.542201309395 66.93505116308  124.104919777117 70.3757488030655  124.104919777117 70.3757488030655  C 124.104919777117 70.3757488030655  132.567732397978 71.7249639562815  132.567732397978 71.7249639562815  C 132.567732397978 71.7249639562815  142.158242739025 72.8234400102271  142.158242739025 72.8234400102271  C 142.158242739025 72.8234400102271  150.763287504775 77.694942510334  150.763287504775 77.694942510334  C 150.763287504775 77.694942510334  155.162324557395 78.5566094149689  155.162324557395 78.5566094149689  C 155.162324557395 78.5566094149689  158.405725432797 85.6569039085888  158.405725432797 85.6569039085888  C 158.405725432797 85.6569039085888  162.586334548625 90.1721976883039  162.586334548625 90.1721976883039  C 162.586334548625 90.1721976883039  170.43704097452 89.9970783173849  170.43704097452 89.9970783173849  C 170.43704097452 89.9970783173849  185.1352092329 91.6925522267358  185.1352092329 91.6925522267358  C 185.1352092329 91.6925522267358  194.606346166631 90.6418360012225  194.606346166631 90.6418360012225  C 194.606346166631 90.6418360012225  201.636677899687 91.7661819622357  201.636677899687 91.7661819622357  C 201.636677899687 91.7661819622357  212.172016060351 96.3252555846805  212.172016060351 96.3252555846805  C 212.172016060351 96.3252555846805  222.63494840927 96.3192856061265  222.63494840927 96.3192856061265  C 222.63494840927 96.3192856061265  225.786914334387 98.6356372850989  225.786914334387 98.6356372850989  C 225.786914334387 98.6356372850989  234.079556353327 94.6277916824782  234.079556353327 94.6277916824782  C 234.079556353327 94.6277916824782  245.582581071179 92.0169210615059  245.582581071179 92.0169210615059  C 245.582581071179 92.0169210615059  256.25507165727 91.7303620909114  256.25507165727 91.7303620909114  C 256.25507165727 91.7303620909114  264.575652133243 89.0697416486553  264.575652133243 89.0697416486553  C 264.575652133243 89.0697416486553  269.685849910305 84.9882663105347  269.685849910305 84.9882663105347  C 269.685849910305 84.9882663105347  274.67159456059 82.4072455823326  274.67159456059 82.4072455823326  C 274.67159456059 82.4072455823326  273.518498243102 79.8600547326035  273.518498243102 79.8600547326035  C 273.518498243102 79.8600547326035  271.242783924888 76.8770554484286  271.242783924888 76.8770554484286  C 271.242783924888 76.8770554484286  274.983997307399 71.8264535917001  274.983997307399 71.8264535917001  C 274.983997307399 71.8264535917001  278.989356101846 72.5388710324837  278.989356101846 72.5388710324837  C 278.989356101846 72.5388710324837  286.309231844139 74.1308653135644  286.309231844139 74.1308653135644  C 286.309231844139 74.1308653135644  293.40559993018 69.9498903328762  293.40559993018 69.9498903328762  C 293.40559993018 69.9498903328762  304.263500276572 66.8733613846878  304.263500276572 66.8733613846878  C 304.263500276572 66.8733613846878  309.482912022031 61.5760004143919  309.482912022031 61.5760004143919  C 309.482912022031 61.5760004143919  314.496595129348 59.2755686782303  314.496595129348 59.2755686782303  C 314.496595129348 59.2755686782303  324.83890395052 58.1989825456496  324.83890395052 58.1989825456496  C 324.83890395052 58.1989825456496  330.459613533343 59.1123892644196  330.459613533343 59.1123892644196  C 330.459613533343 59.1123892644196  331.239350470499 56.2209296514068  331.239350470499 56.2209296514068  C 331.239350470499 56.2209296514068  324.785566896187 50.4758202895569  324.785566896187 50.4758202895569  C 324.785566896187 50.4758202895569  319.070882503349 47.8231598187062  319.070882503349 47.8231598187062  C 319.070882503349 47.8231598187062  313.597484784875 50.8837688240838  313.597484784875 50.8837688240838  C 313.597484784875 50.8837688240838  306.572232771279 49.5962434492598  306.572232771279 49.5962434492598  C 306.572232771279 49.5962434492598  302.54147537953 50.6469596747731  302.54147537953 50.6469596747731  C 302.54147537953 50.6469596747731  300.705156794632 47.2520318703685  300.705156794632 47.2520318703685  C 300.705156794632 47.2520318703685  305.736618920059 38.8383420948571  305.736618920059 38.8383420948571  C 305.736618920059 38.8383420948571  309.203527451715 32.3768353065208  309.203527451715 32.3768353065208  C 309.203527451715 32.3768353065208  317.750155443671 35.6245036399255  317.750155443671 35.6245036399255  C 317.750155443671 35.6245036399255  327.787681097225 30.1739132200755  327.787681097225 30.1739132200755  C 327.787681097225 30.1739132200755  327.721644744241 26.3352170098197  327.721644744241 26.3352170098197  C 327.721644744241 26.3352170098197  334.150029721252 16.9325007871869  334.150029721252 16.9325007871869  C 334.150029721252 16.9325007871869  338.112210900286 14.0470111527282  338.112210900286 14.0470111527282  C 338.112210900286 14.0470111527282  338.023315809731 9.02824918162137  338.023315809731 9.02824918162137  C 338.023315809731 9.02824918162137  334.11701154476 6.84920700939211  334.11701154476 6.84920700939211  C 334.11701154476 6.84920700939211  339.996786820058 2.24635354421756  339.996786820058 2.24635354421756  C 339.996786820058 2.24635354421756  348.845658119902 0.564809584826089  348.845658119902 0.564809584826089  C 348.845658119902 0.564809584826089  358.288856596601 0.312080492704495  358.288856596601 0.312080492704495  C 358.288856596601 0.312080492704495  368.946108024312 3.08613052748764  368.946108024312 3.08613052748764  C 368.946108024312 3.08613052748764  375.199242679942 6.49100829614893  375.199242679942 6.49100829614893  C 375.199242679942 6.49100829614893  379.600819592292 15.6668653337277  379.600819592292 15.6668653337277  C 379.600819592292 15.6668653337277  382.270212168681 19.5214814867943  382.270212168681 19.5214814867943  C 382.270212168681 19.5214814867943  384.751655125038 24.9561519638335  384.751655125038 24.9561519638335  Z " fill-rule="nonzero" fill="#a29bfe" stroke="none" transform="matrix(1 0 0 1 2362 3991 )" />
    <path d="M 265.69319041451 244.066304854671  C 265.69319041451 244.066304854671  264.044821449643 248.898986973385  264.044821449643 248.898986973385  C 264.044821449643 248.898986973385  256.045553038969 251.708856879492  256.045553038969 251.708856879492  C 256.045553038969 251.708856879492  250.206415519353 249.897963384762  250.206415519353 249.897963384762  C 250.206415519353 249.897963384762  250.000686881211 243.407617220874  250.000686881211 243.407617220874  C 250.000686881211 243.407617220874  253.510773028279 240.739036807212  253.510773028279 240.739036807212  C 253.510773028279 240.739036807212  263.135551666249 239.08535274774  263.135551666249 239.08535274774  C 263.135551666249 239.08535274774  267.229805551251 239.226642240186  267.229805551251 239.226642240186  C 267.229805551251 239.226642240186  268.822297602055 241.477324155063  268.822297602055 241.477324155063  C 268.822297602055 241.477324155063  265.69319041451 244.066304854671  265.69319041451 244.066304854671  Z " stroke-width="2" stroke="#505050" fill="none" stroke-opacity="0.211764705882353" transform="matrix(1 0 0 1 2362 3991 )" mask="url(#clip9)" />
    <path d="M 384.751655125038 24.9561519638335  C 384.751655125038 24.9561519638335  387.375330226284 33.4892413104264  387.375330226284 33.4892413104264  C 387.375330226284 33.4892413104264  399.769845709418 36.2334414524392  399.769845709418 36.2334414524392  C 399.769845709418 36.2334414524392  408.204719873247 42.2730697562891  408.204719873247 42.2730697562891  C 408.204719873247 42.2730697562891  411.087460666968 50.1235915548682  411.087460666968 50.1235915548682  C 411.087460666968 50.1235915548682  421.909802977139 50.133541519125  421.909802977139 50.133541519125  C 421.909802977139 50.133541519125  428.084201981134 46.8560232929501  428.084201981134 46.8560232929501  C 428.084201981134 46.8560232929501  439.853911970651 44.3904221501265  439.853911970651 44.3904221501265  C 439.853911970651 44.3904221501265  436.110158728409 51.8747852640571  436.110158728409 51.8747852640571  C 436.110158728409 51.8747852640571  433.344251482275 54.8836544552995  433.344251482275 54.8836544552995  C 433.344251482275 54.8836544552995  430.903446281601 63.763002558027  430.903446281601 63.763002558027  C 430.903446281601 63.763002558027  426.113270830537 71.5000947640792  426.113270830537 71.5000947640792  C 426.113270830537 71.5000947640792  417.472668028566 70.1011297895796  417.472668028566 70.1011297895796  C 417.472668028566 70.1011297895796  411.359225658093 72.8871197814707  411.359225658093 72.8871197814707  C 411.359225658093 72.8871197814707  413.236181998675 79.5675257834556  413.236181998675 79.5675257834556  C 413.236181998675 79.5675257834556  412.210078667694 88.627963235656  412.210078667694 88.627963235656  C 412.210078667694 88.627963235656  408.572999534119 88.8329324993451  408.572999534119 88.8329324993451  C 408.572999534119 88.8329324993451  408.616177149531 92.6716287096009  408.616177149531 92.6716287096009  C 408.616177149531 92.6716287096009  404.016491178229 88.2060847511695  404.016491178229 88.2060847511695  C 404.016491178229 88.2060847511695  401.187087438841 92.4447695245468  401.187087438841 92.4447695245468  C 401.187087438841 92.4447695245468  390.18949480729 95.678507907992  390.18949480729 95.678507907992  C 390.18949480729 95.678507907992  391.301953369096 99.60874378941  391.301953369096 99.60874378941  C 391.301953369096 99.60874378941  385.145333383212 99.3381047616262  385.145333383212 99.3381047616262  C 385.145333383212 99.3381047616262  381.764780082381 97.0058331398429  381.764780082381 97.0058331398429  C 381.764780082381 97.0058331398429  376.870470382382 102.267374238815  376.870470382382 102.267374238815  C 376.870470382382 102.267374238815  369.022303816217 106.215520055895  369.022303816217 106.215520055895  C 369.022303816217 106.215520055895  363.223804052283 110.886033278015  363.223804052283 110.886033278015  C 363.223804052283 110.886033278015  353.267553910094 112.989455721893  353.267553910094 112.989455721893  C 353.267553910094 112.989455721893  348.025283427064 116.350553647825  348.025283427064 116.350553647825  C 348.025283427064 116.350553647825  340.35490704201 118.302736635  340.35490704201 118.302736635  C 340.35490704201 118.302736635  344.139298039934 114.983428558947  344.139298039934 114.983428558947  C 344.139298039934 114.983428558947  342.648400378336 112.17554864569  342.648400378336 112.17554864569  C 342.648400378336 112.17554864569  348.289428839 107.292106188475  348.289428839 107.292106188475  C 348.289428839 107.292106188475  344.527896578647 103.451419985368  344.527896578647 103.451419985368  C 344.527896578647 103.451419985368  338.32047939816 106.042390677827  338.32047939816 106.042390677827  C 338.32047939816 106.042390677827  330.281823352234 111.104932491664  330.281823352234 111.104932491664  C 330.281823352234 111.104932491664  325.892945738534 115.761515763825  325.892945738534 115.761515763825  C 325.892945738534 115.761515763825  318.908331480621 116.105784527108  318.908331480621 116.105784527108  C 318.908331480621 116.105784527108  315.273792206775 120.886726831687  315.273792206775 120.886726831687  C 315.273792206775 120.886726831687  319.030244747668 125.680619610591  319.030244747668 125.680619610591  C 319.030244747668 125.680619610591  324.856682968633 126.838795450077  324.856682968633 126.838795450077  C 324.856682968633 126.838795450077  325.097969642997 129.988954133765  325.097969642997 129.988954133765  C 325.097969642997 129.988954133765  330.731378524471 132.0286968064  330.731378524471 132.0286968064  C 330.731378524471 132.0286968064  338.714157656333 127.027844770955  338.714157656333 127.027844770955  C 338.714157656333 127.027844770955  345.035868524677 129.762094948711  345.035868524677 129.762094948711  C 345.035868524677 129.762094948711  349.64063421544 129.947164283887  349.64063421544 129.947164283887  C 349.64063421544 129.947164283887  350.796270392659 133.600791158967  350.796270392659 133.600791158967  C 350.796270392659 133.600791158967  340.713027263962 135.539044196183  340.713027263962 135.539044196183  C 340.713027263962 135.539044196183  337.383271157734 139.264310813912  337.383271157734 139.264310813912  C 337.383271157734 139.264310813912  330.457073673614 142.703018461046  330.457073673614 142.703018461046  C 330.457073673614 142.703018461046  326.802215521928 147.465071354329  326.802215521928 147.465071354329  C 326.802215521928 147.465071354329  334.470052047252 151.174418029247  334.470052047252 151.174418029247  C 334.470052047252 151.174418029247  337.268977469878 157.755324388664  337.268977469878 157.755324388664  C 337.268977469878 157.755324388664  341.601978169514 163.816842613879  341.601978169514 163.816842613879  C 341.601978169514 163.816842613879  346.43787109572 168.849534534945  346.43787109572 168.849534534945  C 346.43787109572 168.849534534945  346.321037548134 173.677257192322  346.321037548134 173.677257192322  C 346.321037548134 173.677257192322  341.850884423069 175.44238085147  341.850884423069 175.44238085147  C 341.850884423069 175.44238085147  343.555130302 178.875118520051  343.555130302 178.875118520051  C 343.555130302 178.875118520051  347.745898856748 180.865111371401  347.745898856748 180.865111371401  C 347.745898856748 180.865111371401  346.651219313053 186.057002720576  346.651219313053 186.057002720576  C 346.651219313053 186.057002720576  344.842839185186 191.067804720277  344.842839185186 191.067804720277  C 344.842839185186 191.067804720277  340.86287898804 191.632962690061  340.86287898804 191.632962690061  C 340.86287898804 191.632962690061  335.663786120422 198.412868334613  335.663786120422 198.412868334613  C 335.663786120422 198.412868334613  329.895764673251 206.543979125233  329.895764673251 206.543979125233  C 329.895764673251 206.543979125233  323.281969935939 213.859192846799  323.281969935939 213.859192846799  C 323.281969935939 213.859192846799  313.49081067621 219.466992701905  313.49081067621 219.466992701905  C 313.49081067621 219.466992701905  303.585357728623 224.547444451404  303.585357728623 224.547444451404  C 303.585357728623 224.547444451404  295.561940841078 225.237971970823  295.561940841078 225.237971970823  C 295.561940841078 225.237971970823  291.208621263601 227.904562391633  291.208621263601 227.904562391633  C 291.208621263601 227.904562391633  288.744957325355 225.95635939016  288.744957325355 225.95635939016  C 288.744957325355 225.95635939016  284.716739793336 228.937368681484  284.716739793336 228.937368681484  C 284.716739793336 228.937368681484  274.763029510877 231.930317929916  274.763029510877 231.930317929916  C 274.763029510877 231.930317929916  267.227265691521 232.843724648686  267.227265691521 232.843724648686  C 267.227265691521 232.843724648686  264.796619929767 239.114192123292  264.796619929767 239.114192123292  C 264.796619929767 239.114192123292  260.849677909113 239.460450879427  260.849677909113 239.460450879427  C 260.849677909113 239.460450879427  258.982881007453 235.158086334807  258.982881007453 235.158086334807  C 258.982881007453 235.158086334807  260.669347868273 232.855664605794  260.669347868273 232.855664605794  C 260.669347868273 232.855664605794  251.114395563447 230.947261461348  251.114395563447 230.947261461348  C 251.114395563447 230.947261461348  247.749081420998 231.918377972807  247.749081420998 231.918377972807  C 247.749081420998 231.918377972807  240.579057402783 230.370163534456  240.579057402783 230.370163534456  C 240.579057402783 230.370163534456  237.188344663032 227.938392270106  237.188344663032 227.938392270106  C 237.188344663032 227.938392270106  238.313502523489 224.479784694458  238.313502523489 224.479784694458  C 238.313502523489 224.479784694458  231.803842035113 223.379318647661  231.803842035113 223.379318647661  C 231.803842035113 223.379318647661  228.36995167995 221.114706782824  228.36995167995 221.114706782824  C 228.36995167995 221.114706782824  222.299686924891 224.328545237755  222.299686924891 224.328545237755  C 222.299686924891 224.328545237755  213.530841015982 225.023052742877  213.530841015982 225.023052742877  C 213.530841015982 225.023052742877  207.851714659366 224.991212857255  207.851714659366 224.991212857255  C 207.851714659366 224.991212857255  204.02922576549 226.457837588701  204.02922576549 226.457837588701  C 204.02922576549 226.457837588701  200.338809577581 227.337414428998  200.338809577581 227.337414428998  C 200.338809577581 227.337414428998  201.415710103165 234.169059887685  201.415710103165 234.169059887685  C 201.415710103165 234.169059887685  197.61861980659 234.005880473875  197.61861980659 234.005880473875  C 197.61861980659 234.005880473875  196.978575154592 232.606915499375  196.978575154592 232.606915499375  C 196.978575154592 232.606915499375  196.76268707753 230.1393243637  196.76268707753 230.1393243637  C 196.76268707753 230.1393243637  191.53819561261 231.878578115781  191.53819561261 231.878578115781  C 191.53819561261 231.878578115781  188.454805900207 230.780102061835  188.454805900207 230.780102061835  C 188.454805900207 230.780102061835  183.166817942034 228.535390125511  183.166817942034 228.535390125511  C 183.166817942034 228.535390125511  185.239343481837 223.546478047174  185.239343481837 223.546478047174  C 185.239343481837 223.546478047174  180.73109246082 222.378352243432  180.73109246082 222.378352243432  C 180.73109246082 222.378352243432  179.03192630135 216.804382266798  179.03192630135 216.804382266798  C 179.03192630135 216.804382266798  171.513941500105 217.811318649581  171.513941500105 217.811318649581  C 171.513941500105 217.811318649581  172.369874229165 210.577694634921  172.369874229165 210.577694634921  C 172.369874229165 210.577694634921  179.113201812714 205.443513078436  179.113201812714 205.443513078436  C 179.113201812714 205.443513078436  179.400205962221 200.33719142187  179.400205962221 200.33719142187  C 179.400205962221 200.33719142187  179.189397604619 195.56518856433  179.189397604619 195.56518856433  C 179.189397604619 195.56518856433  176.080609294915 194.072693925817  176.080609294915 194.072693925817  C 176.080609294915 194.072693925817  173.700760727764 190.371307222304  173.700760727764 190.371307222304  C 173.700760727764 190.371307222304  169.532850910587 190.838955542372  169.532850910587 190.838955542372  C 169.532850910587 190.838955542372  161.854854946343 189.895698930832  161.854854946343 189.895698930832  C 161.854854946343 189.895698930832  164.260102110795 187.24104846713  164.260102110795 187.24104846713  C 164.260102110795 187.24104846713  160.922726425377 183.288922664347  160.922726425377 183.288922664347  C 160.922726425377 183.288922664347  155.845546824807 185.967453042265  155.845546824807 185.967453042265  C 155.845546824807 185.967453042265  149.871796739493 184.405308653955  149.871796739493 184.405308653955  C 149.871796739493 184.405308653955  141.662970091647 188.444994142197  141.662970091647 188.444994142197  C 141.662970091647 188.444994142197  135.181248060304 193.131427307128  135.181248060304 193.131427307128  C 135.181248060304 193.131427307128  129.436085350704 193.917474483412  129.436085350704 193.917474483412  C 129.436085350704 193.917474483412  126.317137602079 192.227970552615  126.317137602079 192.227970552615  C 126.317137602079 192.227970552615  122.558145201456 192.074741103061  122.558145201456 192.074741103061  C 122.558145201456 192.074741103061  117.468266302235 190.618066335872  117.468266302235 190.618066335872  C 117.468266302235 190.618066335872  113.620378811057 192.216030595507  113.620378811057 192.216030595507  C 113.620378811057 192.216030595507  108.911478871359 196.874603860519  108.911478871359 196.874603860519  C 108.911478871359 196.874603860519  108.314611834773 191.937431596317  108.314611834773 191.937431596317  C 108.314611834773 191.937431596317  103.971451696216 193.260776842466  103.971451696216 193.260776842466  C 103.971451696216 193.260776842466  95.6661103786242 192.645869051398  95.6661103786242 192.645869051398  C 95.6661103786242 192.645869051398  87.6096753145873 191.203124234169  87.6096753145873 191.203124234169  C 87.6096753145873 191.203124234169  81.8314944284952 188.431064192237  81.8314944284952 188.431064192237  C 81.8314944284952 188.431064192237  76.2971400764977 187.18333867444  76.2971400764977 187.18333867444  C 76.2971400764977 187.18333867444  73.907132070426 184.132679633319  73.907132070426 184.132679633319  C 73.907132070426 184.132679633319  69.906852995439 183.219272914549  69.906852995439 183.219272914549  C 69.906852995439 183.219272914549  62.7165100993832 179.052227883821  62.7165100993832 179.052227883821  C 62.7165100993832 179.052227883821  57.006905426005 177.076164982429  57.006905426005 177.076164982429  C 57.006905426005 177.076164982429  54.0555884195702 178.614429456524  54.0555884195702 178.614429456524  C 54.0555884195702 178.614429456524  44.1602949109043 174.107095648214  44.1602949109043 174.107095648214  C 44.1602949109043 174.107095648214  37.1629813543405 169.997760410174  37.1629813543405 169.997760410174  C 37.1629813543405 169.997760410174  35.1666516064424 162.776076352622  35.1666516064424 162.776076352622  C 35.1666516064424 162.776076352622  40.2768493835045 163.661623171473  40.2768493835045 163.661623171473  C 40.2768493835045 163.661623171473  40.5105164786785 160.290575281285  40.5105164786785 160.290575281285  C 40.5105164786785 160.290575281285  37.6785728795608 156.891667491178  37.6785728795608 156.891667491178  C 37.6785728795608 156.891667491178  38.3998930429233 151.431127107071  38.3998930429233 151.431127107071  C 38.3998930429233 151.431127107071  30.7447558162504 143.493045623032  30.7447558162504 143.493045623032  C 30.7447558162504 143.493045623032  19.0334626005267 140.726955559655  19.0334626005267 140.726955559655  C 19.0334626005267 140.726955559655  16.9253790245019 135.43158458221  16.9253790245019 135.43158458221  C 16.9253790245019 135.43158458221  11.6653295233607 132.193866213062  11.6653295233607 132.193866213062  C 11.6653295233607 132.193866213062  10.3979395180156 130.189943411752  10.3979395180156 130.189943411752  C 10.3979395180156 130.189943411752  9.328658571622 126.186077794834  9.328658571622 126.186077794834  C 9.328658571622 126.186077794834  9.57756482517649 123.437897667118  9.57756482517649 123.437897667118  C 9.57756482517649 123.437897667118  5.25218370473064 121.822023471821  5.25218370473064 121.822023471821  C 5.25218370473064 121.822023471821  2.91297289326193 122.536430905456  2.91297289326193 122.536430905456  C 2.91297289326193 122.536430905456  1.10713262512499 114.475980381852  1.10713262512499 114.475980381852  C 1.10713262512499 114.475980381852  3.13394068978495 112.826276308082  3.13394068978495 112.826276308082  C 3.13394068978495 112.826276308082  2.15101497421709 111.134782384434  2.15101497421709 111.134782384434  C 2.15101497421709 111.134782384434  8.95021947182939 107.700054723002  8.95021947182939 107.700054723002  C 8.95021947182939 107.700054723002  13.8724676288608 106.271239855732  13.8724676288608 106.271239855732  C 13.8724676288608 106.271239855732  21.410771307947 107.250316338597  21.410771307947 107.250316338597  C 21.410771307947 107.250316338597  24.1055624816369 102.565873166517  24.1055624816369 102.565873166517  C 24.1055624816369 102.565873166517  33.2414379309874 101.690276311923  33.2414379309874 101.690276311923  C 33.2414379309874 101.690276311923  35.7787578014077 98.749066877626  35.7787578014077 98.749066877626  C 35.7787578014077 98.749066877626  47.0023979489425 94.7073913965324  47.0023979489425 94.7073913965324  C 47.0023979489425 94.7073913965324  48.0031026826218 93.0099274943301  48.0031026826218 93.0099274943301  C 48.0031026826218 93.0099274943301  47.4341741030676 88.7015929711554  47.4341741030676 88.7015929711554  C 47.4341741030676 88.7015929711554  52.3208642238771 86.7215500840614  52.3208642238771 86.7215500840614  C 52.3208642238771 86.7215500840614  45.9102582649775 73.2811383660377  45.9102582649775 73.2811383660377  C 45.9102582649775 73.2811383660377  60.0191790659624 70.1329696752006  60.0191790659624 70.1329696752006  C 60.0191790659624 70.1329696752006  63.6664176384587 68.3698360089037  63.6664176384587 68.3698360089037  C 63.6664176384587 68.3698360089037  68.8020140128227 53.9185079223938  68.8020140128227 53.9185079223938  C 68.8020140128227 53.9185079223938  82.9312536916494 56.6109682502715  82.9312536916494 56.6109682502715  C 82.9312536916494 56.6109682502715  86.8934348706836 52.9095815467589  86.8934348706836 52.9095815467589  C 86.8934348706836 52.9095815467589  87.2337760745239 44.5794714710043  87.2337760745239 44.5794714710043  C 87.2337760745239 44.5794714710043  93.1491093860441 43.7934242947207  93.1491093860441 43.7934242947207  C 93.1491093860441 43.7934242947207  98.569170050185 38.1597545325464  98.569170050185 38.1597545325464  C 98.569170050185 38.1597545325464  101.35793603389 37.4592770488709  101.35793603389 37.4592770488709  C 101.35793603389 37.4592770488709  103.227272795281 43.369555817383  103.227272795281 43.369555817383  C 103.227272795281 43.369555817383  109.211182319515 47.8072398758955  109.211182319515 47.8072398758955  C 109.211182319515 47.8072398758955  119.368081380386 50.9215786882596  119.368081380386 50.9215786882596  C 119.368081380386 50.9215786882596  124.282709958227 57.5263649618931  124.282709958227 57.5263649618931  C 124.282709958227 57.5263649618931  121.542201309395 66.93505116308  121.542201309395 66.93505116308  C 121.542201309395 66.93505116308  124.104919777117 70.3757488030655  124.104919777117 70.3757488030655  C 124.104919777117 70.3757488030655  132.567732397978 71.7249639562815  132.567732397978 71.7249639562815  C 132.567732397978 71.7249639562815  142.158242739025 72.8234400102271  142.158242739025 72.8234400102271  C 142.158242739025 72.8234400102271  150.763287504775 77.694942510334  150.763287504775 77.694942510334  C 150.763287504775 77.694942510334  155.162324557395 78.5566094149689  155.162324557395 78.5566094149689  C 155.162324557395 78.5566094149689  158.405725432797 85.6569039085888  158.405725432797 85.6569039085888  C 158.405725432797 85.6569039085888  162.586334548625 90.1721976883039  162.586334548625 90.1721976883039  C 162.586334548625 90.1721976883039  170.43704097452 89.9970783173849  170.43704097452 89.9970783173849  C 170.43704097452 89.9970783173849  185.1352092329 91.6925522267358  185.1352092329 91.6925522267358  C 185.1352092329 91.6925522267358  194.606346166631 90.6418360012225  194.606346166631 90.6418360012225  C 194.606346166631 90.6418360012225  201.636677899687 91.7661819622357  201.636677899687 91.7661819622357  C 201.636677899687 91.7661819622357  212.172016060351 96.3252555846805  212.172016060351 96.3252555846805  C 212.172016060351 96.3252555846805  222.63494840927 96.3192856061265  222.63494840927 96.3192856061265  C 222.63494840927 96.3192856061265  225.786914334387 98.6356372850989  225.786914334387 98.6356372850989  C 225.786914334387 98.6356372850989  234.079556353327 94.6277916824782  234.079556353327 94.6277916824782  C 234.079556353327 94.6277916824782  245.582581071179 92.0169210615059  245.582581071179 92.0169210615059  C 245.582581071179 92.0169210615059  256.25507165727 91.7303620909114  256.25507165727 91.7303620909114  C 256.25507165727 91.7303620909114  264.575652133243 89.0697416486553  264.575652133243 89.0697416486553  C 264.575652133243 89.0697416486553  269.685849910305 84.9882663105347  269.685849910305 84.9882663105347  C 269.685849910305 84.9882663105347  274.67159456059 82.4072455823326  274.67159456059 82.4072455823326  C 274.67159456059 82.4072455823326  273.518498243102 79.8600547326035  273.518498243102 79.8600547326035  C 273.518498243102 79.8600547326035  271.242783924888 76.8770554484286  271.242783924888 76.8770554484286  C 271.242783924888 76.8770554484286  274.983997307399 71.8264535917001  274.983997307399 71.8264535917001  C 274.983997307399 71.8264535917001  278.989356101846 72.5388710324837  278.989356101846 72.5388710324837  C 278.989356101846 72.5388710324837  286.309231844139 74.1308653135644  286.309231844139 74.1308653135644  C 286.309231844139 74.1308653135644  293.40559993018 69.9498903328762  293.40559993018 69.9498903328762  C 293.40559993018 69.9498903328762  304.263500276572 66.8733613846878  304.263500276572 66.8733613846878  C 304.263500276572 66.8733613846878  309.482912022031 61.5760004143919  309.482912022031 61.5760004143919  C 309.482912022031 61.5760004143919  314.496595129348 59.2755686782303  314.496595129348 59.2755686782303  C 314.496595129348 59.2755686782303  324.83890395052 58.1989825456496  324.83890395052 58.1989825456496  C 324.83890395052 58.1989825456496  330.459613533343 59.1123892644196  330.459613533343 59.1123892644196  C 330.459613533343 59.1123892644196  331.239350470499 56.2209296514068  331.239350470499 56.2209296514068  C 331.239350470499 56.2209296514068  324.785566896187 50.4758202895569  324.785566896187 50.4758202895569  C 324.785566896187 50.4758202895569  319.070882503349 47.8231598187062  319.070882503349 47.8231598187062  C 319.070882503349 47.8231598187062  313.597484784875 50.8837688240838  313.597484784875 50.8837688240838  C 313.597484784875 50.8837688240838  306.572232771279 49.5962434492598  306.572232771279 49.5962434492598  C 306.572232771279 49.5962434492598  302.54147537953 50.6469596747731  302.54147537953 50.6469596747731  C 302.54147537953 50.6469596747731  300.705156794632 47.2520318703685  300.705156794632 47.2520318703685  C 300.705156794632 47.2520318703685  305.736618920059 38.8383420948571  305.736618920059 38.8383420948571  C 305.736618920059 38.8383420948571  309.203527451715 32.3768353065208  309.203527451715 32.3768353065208  C 309.203527451715 32.3768353065208  317.750155443671 35.6245036399255  317.750155443671 35.6245036399255  C 317.750155443671 35.6245036399255  327.787681097225 30.1739132200755  327.787681097225 30.1739132200755  C 327.787681097225 30.1739132200755  327.721644744241 26.3352170098197  327.721644744241 26.3352170098197  C 327.721644744241 26.3352170098197  334.150029721252 16.9325007871869  334.150029721252 16.9325007871869  C 334.150029721252 16.9325007871869  338.112210900286 14.0470111527282  338.112210900286 14.0470111527282  C 338.112210900286 14.0470111527282  338.023315809731 9.02824918162137  338.023315809731 9.02824918162137  C 338.023315809731 9.02824918162137  334.11701154476 6.84920700939211  334.11701154476 6.84920700939211  C 334.11701154476 6.84920700939211  339.996786820058 2.24635354421756  339.996786820058 2.24635354421756  C 339.996786820058 2.24635354421756  348.845658119902 0.564809584826089  348.845658119902 0.564809584826089  C 348.845658119902 0.564809584826089  358.288856596601 0.312080492704495  358.288856596601 0.312080492704495  C 358.288856596601 0.312080492704495  368.946108024312 3.08613052748764  368.946108024312 3.08613052748764  C 368.946108024312 3.08613052748764  375.199242679942 6.49100829614893  375.199242679942 6.49100829614893  C 375.199242679942 6.49100829614893  379.600819592292 15.6668653337277  379.600819592292 15.6668653337277  C 379.600819592292 15.6668653337277  382.270212168681 19.5214814867943  382.270212168681 19.5214814867943  C 382.270212168681 19.5214814867943  384.751655125038 24.9561519638335  384.751655125038 24.9561519638335  Z " stroke-width="2" stroke="#505050" fill="none" stroke-opacity="0.211764705882353" transform="matrix(1 0 0 1 2362 3991 )" mask="url(#clip9)" />
  </g>
</svg>