<?xml version="1.0" encoding="utf-8"?>
<svg version="1.1" xmlns:xlink="http://www.w3.org/1999/xlink" width="83px" height="53px" xmlns="http://www.w3.org/2000/svg">
  <g transform="matrix(1 0 0 1 -113 -20 )">
    <path d="M 113 20  L 196 20  L 196 73  L 113 73  L 113 20  " fill-rule="nonzero" fill="#cccccc" stroke="none" />
    <path d="M 117 24  L 192 24  L 192 69  L 117 69  L 117 24  " fill-rule="nonzero" fill="#ffffff" stroke="none" />
    <path d="M 160.135 35.9  C 157.909 35.9  156.16 34.151  156.16 31.925  C 156.16 29.699  157.909 27.95  160.135 27.95  C 162.361 27.95  164.11 29.699  164.11 31.925  C 164.11 34.151  162.361 35.9  160.135 35.9  " fill-rule="nonzero" fill="#cccccc" stroke="none" />
    <path d="M 119 68  L 119 44.9  L 137 34.4  L 162.2 51.9084337349398  L 176.6 40.7  L 191 51.9084337349398  L 191 68  L 119 68  " fill-rule="nonzero" fill="#169bd5" stroke="none" />
  </g>
</svg>