<?xml version="1.0" encoding="utf-8"?>
<svg version="1.1" xmlns:xlink="http://www.w3.org/1999/xlink" width="191px" height="177px" xmlns="http://www.w3.org/2000/svg">
  <defs>
    <mask fill="white" id="clip29">
      <path d="M 154.313428405347 4.80564357405822  C 154.313428405347 4.80564357405822  167.041674003135 1.39275211780534  167.041674003135 1.39275211780534  C 167.041674003135 1.39275211780534  189.211825719638 13.7528465385933  189.211825719638 13.7528465385933  C 189.211825719638 13.7528465385933  180.083385828156 18.1620725290859  180.083385828156 18.1620725290859  C 180.083385828156 18.1620725290859  187.849258812546 28.2937845422798  187.849258812546 28.2937845422798  C 187.849258812546 28.2937845422798  175.788392924355 34.6085250893106  175.788392924355 34.6085250893106  C 175.788392924355 34.6085250893106  170.062578370435 36.0426129676198  170.062578370435 36.0426129676198  C 170.062578370435 36.0426129676198  173.065787063617 24.966066813606  173.065787063617 24.966066813606  C 173.065787063617 24.966066813606  163.970210566926 18.5245560673877  163.970210566926 18.5245560673877  C 163.970210566926 18.5245560673877  152.963501265482 24.0212326727862  152.963501265482 24.0212326727862  C 152.963501265482 24.0212326727862  149.487565278003 35.6167443297241  149.487565278003 35.6167443297241  C 149.487565278003 35.6167443297241  142.730345718344 42.4286617516936  142.730345718344 42.4286617516936  C 142.730345718344 42.4286617516936  135.118677894126 38.7245949941818  135.118677894126 38.7245949941818  C 135.118677894126 38.7245949941818  125.863840330372 39.4852161893072  125.863840330372 39.4852161893072  C 125.863840330372 39.4852161893072  117.986737394383 31.2590187326515  117.986737394383 31.2590187326515  C 117.986737394383 31.2590187326515  113.737247652599 35.3948964811458  113.737247652599 35.3948964811458  C 113.737247652599 35.3948964811458  109.34113661098 36.0346898301706  109.34113661098 36.0346898301706  C 109.34113661098 36.0346898301706  108.299619791458 46.1030167437708  108.299619791458 46.1030167437708  C 108.299619791458 46.1030167437708  93.1053753242179 43.6785366843085  93.1053753242179 43.6785366843085  C 93.1053753242179 43.6785366843085  91.2296338677019 52.0315043401519  91.2296338677019 52.0315043401519  C 91.2296338677019 52.0315043401519  84.424383192579 51.9819847310943  84.424383192579 51.9819847310943  C 84.424383192579 51.9819847310943  79.7451413650705 62.3672371426633  79.7451413650705 62.3672371426633  C 79.7451413650705 62.3672371426633  72.6542319506131 77.9500677209226  72.6542319506131 77.9500677209226  C 72.6542319506131 77.9500677209226  61.6475226491696 98.2065435530712  61.6475226491696 98.2065435530712  C 61.6475226491696 98.2065435530712  64.2285631169632 102.627654249738  64.2285631169632 102.627654249738  C 64.2285631169632 102.627654249738  61.7612805542144 107.686577511067  61.7612805542144 107.686577511067  C 61.7612805542144 107.686577511067  54.7310420224473 107.470672015575  54.7310420224473 107.470672015575  C 54.7310420224473 107.470672015575  50.1276387983021 119.169184459353  50.1276387983021 119.169184459353  C 50.1276387983021 119.169184459353  50.5624467909178 135.10261386974  50.5624467909178 135.10261386974  C 50.5624467909178 135.10261386974  55.0925393651451 141.001389700687  55.0925393651451 141.001389700687  C 55.0925393651451 141.001389700687  52.7465985677774 154.326126105918  52.7465985677774 154.326126105918  C 52.7465985677774 154.326126105918  46.8488831795671 161.876876095027  46.8488831795671 161.876876095027  C 46.8488831795671 161.876876095027  43.724332721004 168.106442914479  43.724332721004 168.106442914479  C 43.724332721004 168.106442914479  38.9692522901325 161.468834516392  38.9692522901325 161.468834516392  C 38.9692522901325 161.468834516392  24.9745020161798 173.8804293306  24.9745020161798 173.8804293306  C 24.9745020161798 173.8804293306  15.5250120371273 176.346505861671  15.5250120371273 176.346505861671  C 15.5250120371273 176.346505861671  5.72413652915844 170.968676318011  5.72413652915844 170.968676318011  C 5.72413652915844 170.968676318011  3.19112717682823 159.35335681745  3.19112717682823 159.35335681745  C 3.19112717682823 159.35335681745  0.948832470723394 133.096079310725  0.948832470723394 133.096079310725  C 0.948832470723394 133.096079310725  7.47600826684805 125.42053990679  7.47600826684805 125.42053990679  C 7.47600826684805 125.42053990679  26.1904476234361 115.152153772597  26.1904476234361 115.152153772597  C 26.1904476234361 115.152153772597  40.1851978973888 102.106707962451  40.1851978973888 102.106707962451  C 40.1851978973888 102.106707962451  53.1611829328294 82.2444082184017  53.1611829328294 82.2444082184017  C 53.1611829328294 82.2444082184017  70.1920052947547 54.9848538243499  70.1920052947547 54.9848538243499  C 70.1920052947547 54.9848538243499  82.0632746745384 43.745883352627  82.0632746745384 43.745883352627  C 82.0632746745384 43.745883352627  103.377694433188 24.1499836563363  103.377694433188 24.1499836563363  C 103.377694433188 24.1499836563363  118.932191982977 17.035006226934  118.932191982977 17.035006226934  C 118.932191982977 17.035006226934  130.593641226789 17.9065513463485  130.593641226789 17.9065513463485  C 130.593641226789 17.9065513463485  141.388002438815 4.05096473201974  141.388002438815 4.05096473201974  C 141.388002438815 4.05096473201974  154.313428405347 4.80564357405822  154.313428405347 4.80564357405822  Z " fill-rule="evenodd" />
    </mask>
  </defs>
  <g transform="matrix(1 0 0 1 -1874 -3769 )">
    <path d="M 154.313428405347 4.80564357405822  C 154.313428405347 4.80564357405822  167.041674003135 1.39275211780534  167.041674003135 1.39275211780534  C 167.041674003135 1.39275211780534  189.211825719638 13.7528465385933  189.211825719638 13.7528465385933  C 189.211825719638 13.7528465385933  180.083385828156 18.1620725290859  180.083385828156 18.1620725290859  C 180.083385828156 18.1620725290859  187.849258812546 28.2937845422798  187.849258812546 28.2937845422798  C 187.849258812546 28.2937845422798  175.788392924355 34.6085250893106  175.788392924355 34.6085250893106  C 175.788392924355 34.6085250893106  170.062578370435 36.0426129676198  170.062578370435 36.0426129676198  C 170.062578370435 36.0426129676198  173.065787063617 24.966066813606  173.065787063617 24.966066813606  C 173.065787063617 24.966066813606  163.970210566926 18.5245560673877  163.970210566926 18.5245560673877  C 163.970210566926 18.5245560673877  152.963501265482 24.0212326727862  152.963501265482 24.0212326727862  C 152.963501265482 24.0212326727862  149.487565278003 35.6167443297241  149.487565278003 35.6167443297241  C 149.487565278003 35.6167443297241  142.730345718344 42.4286617516936  142.730345718344 42.4286617516936  C 142.730345718344 42.4286617516936  135.118677894126 38.7245949941818  135.118677894126 38.7245949941818  C 135.118677894126 38.7245949941818  125.863840330372 39.4852161893072  125.863840330372 39.4852161893072  C 125.863840330372 39.4852161893072  117.986737394383 31.2590187326515  117.986737394383 31.2590187326515  C 117.986737394383 31.2590187326515  113.737247652599 35.3948964811458  113.737247652599 35.3948964811458  C 113.737247652599 35.3948964811458  109.34113661098 36.0346898301706  109.34113661098 36.0346898301706  C 109.34113661098 36.0346898301706  108.299619791458 46.1030167437708  108.299619791458 46.1030167437708  C 108.299619791458 46.1030167437708  93.1053753242179 43.6785366843085  93.1053753242179 43.6785366843085  C 93.1053753242179 43.6785366843085  91.2296338677019 52.0315043401519  91.2296338677019 52.0315043401519  C 91.2296338677019 52.0315043401519  84.424383192579 51.9819847310943  84.424383192579 51.9819847310943  C 84.424383192579 51.9819847310943  79.7451413650705 62.3672371426633  79.7451413650705 62.3672371426633  C 79.7451413650705 62.3672371426633  72.6542319506131 77.9500677209226  72.6542319506131 77.9500677209226  C 72.6542319506131 77.9500677209226  61.6475226491696 98.2065435530712  61.6475226491696 98.2065435530712  C 61.6475226491696 98.2065435530712  64.2285631169632 102.627654249738  64.2285631169632 102.627654249738  C 64.2285631169632 102.627654249738  61.7612805542144 107.686577511067  61.7612805542144 107.686577511067  C 61.7612805542144 107.686577511067  54.7310420224473 107.470672015575  54.7310420224473 107.470672015575  C 54.7310420224473 107.470672015575  50.1276387983021 119.169184459353  50.1276387983021 119.169184459353  C 50.1276387983021 119.169184459353  50.5624467909178 135.10261386974  50.5624467909178 135.10261386974  C 50.5624467909178 135.10261386974  55.0925393651451 141.001389700687  55.0925393651451 141.001389700687  C 55.0925393651451 141.001389700687  52.7465985677774 154.326126105918  52.7465985677774 154.326126105918  C 52.7465985677774 154.326126105918  46.8488831795671 161.876876095027  46.8488831795671 161.876876095027  C 46.8488831795671 161.876876095027  43.724332721004 168.106442914479  43.724332721004 168.106442914479  C 43.724332721004 168.106442914479  38.9692522901325 161.468834516392  38.9692522901325 161.468834516392  C 38.9692522901325 161.468834516392  24.9745020161798 173.8804293306  24.9745020161798 173.8804293306  C 24.9745020161798 173.8804293306  15.5250120371273 176.346505861671  15.5250120371273 176.346505861671  C 15.5250120371273 176.346505861671  5.72413652915844 170.968676318011  5.72413652915844 170.968676318011  C 5.72413652915844 170.968676318011  3.19112717682823 159.35335681745  3.19112717682823 159.35335681745  C 3.19112717682823 159.35335681745  0.948832470723394 133.096079310725  0.948832470723394 133.096079310725  C 0.948832470723394 133.096079310725  7.47600826684805 125.42053990679  7.47600826684805 125.42053990679  C 7.47600826684805 125.42053990679  26.1904476234361 115.152153772597  26.1904476234361 115.152153772597  C 26.1904476234361 115.152153772597  40.1851978973888 102.106707962451  40.1851978973888 102.106707962451  C 40.1851978973888 102.106707962451  53.1611829328294 82.2444082184017  53.1611829328294 82.2444082184017  C 53.1611829328294 82.2444082184017  70.1920052947547 54.9848538243499  70.1920052947547 54.9848538243499  C 70.1920052947547 54.9848538243499  82.0632746745384 43.745883352627  82.0632746745384 43.745883352627  C 82.0632746745384 43.745883352627  103.377694433188 24.1499836563363  103.377694433188 24.1499836563363  C 103.377694433188 24.1499836563363  118.932191982977 17.035006226934  118.932191982977 17.035006226934  C 118.932191982977 17.035006226934  130.593641226789 17.9065513463485  130.593641226789 17.9065513463485  C 130.593641226789 17.9065513463485  141.388002438815 4.05096473201974  141.388002438815 4.05096473201974  C 141.388002438815 4.05096473201974  154.313428405347 4.80564357405822  154.313428405347 4.80564357405822  Z " fill-rule="nonzero" fill="#0984e3" stroke="none" transform="matrix(1 0 0 1 1874 3769 )" />
    <path d="M 154.313428405347 4.80564357405822  C 154.313428405347 4.80564357405822  167.041674003135 1.39275211780534  167.041674003135 1.39275211780534  C 167.041674003135 1.39275211780534  189.211825719638 13.7528465385933  189.211825719638 13.7528465385933  C 189.211825719638 13.7528465385933  180.083385828156 18.1620725290859  180.083385828156 18.1620725290859  C 180.083385828156 18.1620725290859  187.849258812546 28.2937845422798  187.849258812546 28.2937845422798  C 187.849258812546 28.2937845422798  175.788392924355 34.6085250893106  175.788392924355 34.6085250893106  C 175.788392924355 34.6085250893106  170.062578370435 36.0426129676198  170.062578370435 36.0426129676198  C 170.062578370435 36.0426129676198  173.065787063617 24.966066813606  173.065787063617 24.966066813606  C 173.065787063617 24.966066813606  163.970210566926 18.5245560673877  163.970210566926 18.5245560673877  C 163.970210566926 18.5245560673877  152.963501265482 24.0212326727862  152.963501265482 24.0212326727862  C 152.963501265482 24.0212326727862  149.487565278003 35.6167443297241  149.487565278003 35.6167443297241  C 149.487565278003 35.6167443297241  142.730345718344 42.4286617516936  142.730345718344 42.4286617516936  C 142.730345718344 42.4286617516936  135.118677894126 38.7245949941818  135.118677894126 38.7245949941818  C 135.118677894126 38.7245949941818  125.863840330372 39.4852161893072  125.863840330372 39.4852161893072  C 125.863840330372 39.4852161893072  117.986737394383 31.2590187326515  117.986737394383 31.2590187326515  C 117.986737394383 31.2590187326515  113.737247652599 35.3948964811458  113.737247652599 35.3948964811458  C 113.737247652599 35.3948964811458  109.34113661098 36.0346898301706  109.34113661098 36.0346898301706  C 109.34113661098 36.0346898301706  108.299619791458 46.1030167437708  108.299619791458 46.1030167437708  C 108.299619791458 46.1030167437708  93.1053753242179 43.6785366843085  93.1053753242179 43.6785366843085  C 93.1053753242179 43.6785366843085  91.2296338677019 52.0315043401519  91.2296338677019 52.0315043401519  C 91.2296338677019 52.0315043401519  84.424383192579 51.9819847310943  84.424383192579 51.9819847310943  C 84.424383192579 51.9819847310943  79.7451413650705 62.3672371426633  79.7451413650705 62.3672371426633  C 79.7451413650705 62.3672371426633  72.6542319506131 77.9500677209226  72.6542319506131 77.9500677209226  C 72.6542319506131 77.9500677209226  61.6475226491696 98.2065435530712  61.6475226491696 98.2065435530712  C 61.6475226491696 98.2065435530712  64.2285631169632 102.627654249738  64.2285631169632 102.627654249738  C 64.2285631169632 102.627654249738  61.7612805542144 107.686577511067  61.7612805542144 107.686577511067  C 61.7612805542144 107.686577511067  54.7310420224473 107.470672015575  54.7310420224473 107.470672015575  C 54.7310420224473 107.470672015575  50.1276387983021 119.169184459353  50.1276387983021 119.169184459353  C 50.1276387983021 119.169184459353  50.5624467909178 135.10261386974  50.5624467909178 135.10261386974  C 50.5624467909178 135.10261386974  55.0925393651451 141.001389700687  55.0925393651451 141.001389700687  C 55.0925393651451 141.001389700687  52.7465985677774 154.326126105918  52.7465985677774 154.326126105918  C 52.7465985677774 154.326126105918  46.8488831795671 161.876876095027  46.8488831795671 161.876876095027  C 46.8488831795671 161.876876095027  43.724332721004 168.106442914479  43.724332721004 168.106442914479  C 43.724332721004 168.106442914479  38.9692522901325 161.468834516392  38.9692522901325 161.468834516392  C 38.9692522901325 161.468834516392  24.9745020161798 173.8804293306  24.9745020161798 173.8804293306  C 24.9745020161798 173.8804293306  15.5250120371273 176.346505861671  15.5250120371273 176.346505861671  C 15.5250120371273 176.346505861671  5.72413652915844 170.968676318011  5.72413652915844 170.968676318011  C 5.72413652915844 170.968676318011  3.19112717682823 159.35335681745  3.19112717682823 159.35335681745  C 3.19112717682823 159.35335681745  0.948832470723394 133.096079310725  0.948832470723394 133.096079310725  C 0.948832470723394 133.096079310725  7.47600826684805 125.42053990679  7.47600826684805 125.42053990679  C 7.47600826684805 125.42053990679  26.1904476234361 115.152153772597  26.1904476234361 115.152153772597  C 26.1904476234361 115.152153772597  40.1851978973888 102.106707962451  40.1851978973888 102.106707962451  C 40.1851978973888 102.106707962451  53.1611829328294 82.2444082184017  53.1611829328294 82.2444082184017  C 53.1611829328294 82.2444082184017  70.1920052947547 54.9848538243499  70.1920052947547 54.9848538243499  C 70.1920052947547 54.9848538243499  82.0632746745384 43.745883352627  82.0632746745384 43.745883352627  C 82.0632746745384 43.745883352627  103.377694433188 24.1499836563363  103.377694433188 24.1499836563363  C 103.377694433188 24.1499836563363  118.932191982977 17.035006226934  118.932191982977 17.035006226934  C 118.932191982977 17.035006226934  130.593641226789 17.9065513463485  130.593641226789 17.9065513463485  C 130.593641226789 17.9065513463485  141.388002438815 4.05096473201974  141.388002438815 4.05096473201974  C 141.388002438815 4.05096473201974  154.313428405347 4.80564357405822  154.313428405347 4.80564357405822  Z " stroke-width="2" stroke="#505050" fill="none" stroke-opacity="0.211764705882353" transform="matrix(1 0 0 1 1874 3769 )" mask="url(#clip29)" />
  </g>
</svg>